<?xml version="1.0" encoding="UTF-8"?>
<svg xmlns="http://www.w3.org/2000/svg" xmlns:xlink="http://www.w3.org/1999/xlink"
     width="896" height="1496" viewBox="0 -1400 896 1496" style="font-size:70;font-family:Poor Richard, Times New Roman;stroke:black;stroke-width:1;fill:none">
<defs>
</defs>
<path d="M574,-1010 L910,-1134 L874,-338 L870,-1222 L90,-1206 L142,-146 Z" stroke-width="0" fill="#9fa09c" fill-opacity="0.3333333333333333" />
<path d="M266,-198 L394,-110 L122,-418 L210,-146 L450,-630 L142,-938 Z" stroke-width="0" fill="#b1b3fb" fill-opacity="0.23921568627450981" />
<path d="M318,-334 L838,-258 L274,-1182 L514,-470 L814,-110 L314,-1106 Z" stroke-width="0" fill="#082917" fill-opacity="0.6431372549019608" />
<path d="M730,-1138 L858,-738 L250,-418 L146,-702 L678,-898 L726,-998 Z" stroke-width="0" fill="#080503" fill-opacity="1.0" />
<path d="M314,-358 L202,-450 L346,-350 L474,-622 L146,-766 L446,-330 Z" stroke-width="0" fill="#facce9" fill-opacity="0.7764705882352941" />
<path d="M586,-722 L914,-222 L498,-370 L978,-634 L326,-1254 L202,-406 Z" stroke-width="0" fill="#051700" fill-opacity="0.5686274509803921" />
<path d="M266,-1074 L606,-682 L278,-166 L958,-382 L350,-1010 L698,-414 Z" stroke-width="0" fill="#035903" fill-opacity="0.3215686274509804" />
<path d="M374,-510 L270,-418 L338,-270 L906,-962 L714,-922 L270,-1166 Z" stroke-width="0" fill="#ecf4e9" fill-opacity="0.984313725490196" />
<path d="M598,-590 L246,-126 L466,-962 L386,-622 L250,-1178 L534,-318 Z" stroke-width="0" fill="#caed9f" fill-opacity="0.8627450980392157" />
<path d="M110,-590 L878,-962 L382,-390 L374,-1166 L194,-194 L154,-1242 Z" stroke-width="0" fill="#fcf2fd" fill-opacity="0.12941176470588237" />
<path d="M550,-94 L594,-322 L790,-114 L402,-382 L618,-914 L150,-434 Z" stroke-width="0" fill="#18451f" fill-opacity="0.7764705882352941" />
<path d="M442,-694 L450,-230 L714,-902 L966,-958 L238,-574 L542,-634 Z" stroke-width="0" fill="#ddf2ea" fill-opacity="0.984313725490196" />
<path d="M370,-538 L874,-886 L970,-738 L634,-706 L234,-474 L178,-154 Z" stroke-width="0" fill="#5d674a" fill-opacity="0.5019607843137255" />
<path d="M722,-134 L322,-398 L138,-122 L646,-1118 L974,-1010 L154,-602 Z" stroke-width="0" fill="#080202" fill-opacity="0.6509803921568628" />
<path d="M454,-478 L486,-158 L678,-314 L134,-706 L170,-286 L150,-274 Z" stroke-width="0" fill="#ede7f3" fill-opacity="0.7568627450980392" />
<path d="M606,-486 L594,-726 L122,-394 L502,-702 L730,-318 L402,-266 Z" stroke-width="0" fill="#8d2611" fill-opacity="0.6509803921568628" />
<path d="M782,-362 L758,-1018 L574,-994 L302,-1214 L410,-1218 L218,-278 Z" stroke-width="0" fill="#faf6df" fill-opacity="0.3843137254901961" />
<path d="M786,-850 L358,-390 L102,-354 L434,-258 L418,-494 L970,-94 Z" stroke-width="0" fill="#000000" fill-opacity="0.9058823529411765" />
<path d="M850,-710 L858,-134 L226,-642 L482,-618 L866,-702 L238,-94 Z" stroke-width="0" fill="#2b2526" fill-opacity="0.03529411764705882" />
<path d="M926,-146 L630,-646 L682,-222 L434,-1278 L542,-1170 L674,-982 Z" stroke-width="0" fill="#1b2620" fill-opacity="0.10588235294117647" />
<path d="M682,-346 L126,-606 L670,-430 L198,-98 L710,-1250 L94,-790 Z" stroke-width="0" fill="#4b3521" fill-opacity="0.2" />
<path d="M954,-402 L826,-1122 L458,-498 L618,-230 L98,-986 L938,-310 Z" stroke-width="0" fill="#141603" fill-opacity="0.5490196078431373" />
<path d="M526,-418 L434,-178 L786,-422 L294,-686 L122,-698 L818,-498 Z" stroke-width="0" fill="#aa1b64" fill-opacity="0.027450980392156862" />
<path d="M442,-1086 L522,-1182 L790,-962 L254,-826 L338,-1266 L714,-306 Z" stroke-width="0" fill="#c7c9b5" fill-opacity="0.49411764705882355" />
<path d="M130,-246 L94,-942 L158,-726 L874,-162 L630,-1066 L782,-1162 Z" stroke-width="0" fill="#e302d0" fill-opacity="0.0196078431372549" />
<path d="M206,-874 L326,-1254 L370,-290 L830,-142 L354,-630 L134,-1122 Z" stroke-width="0" fill="#fee5f3" fill-opacity="0.8392156862745098" />
<path d="M422,-938 L886,-866 L146,-1110 L386,-1246 L90,-574 L462,-714 Z" stroke-width="0" fill="#fcf9fb" fill-opacity="0.5019607843137255" />
<path d="M854,-126 L890,-390 L82,-450 L550,-214 L842,-1230 L114,-410 Z" stroke-width="0" fill="#000500" fill-opacity="0.7333333333333333" />
<path d="M478,-238 L374,-594 L150,-114 L258,-130 L330,-974 L638,-706 Z" stroke-width="0" fill="#5e1484" fill-opacity="0.15294117647058825" />
<path d="M318,-1026 L158,-630 L682,-774 L230,-722 L134,-1154 L486,-450 Z" stroke-width="0" fill="#98feca" fill-opacity="0.058823529411764705" />
<path d="M694,-942 L710,-1206 L842,-582 L246,-350 L422,-258 L590,-930 Z" stroke-width="0" fill="#06000a" fill-opacity="0.9098039215686274" />
<path d="M234,-422 L266,-162 L106,-826 L494,-458 L446,-894 L126,-906 Z" stroke-width="0" fill="#f5e3e0" fill-opacity="0.9882352941176471" />
<path d="M442,-162 L758,-1102 L238,-290 L710,-266 L326,-1270 L666,-838 Z" stroke-width="0" fill="#f5f1f5" fill-opacity="0.615686274509804" />
<path d="M202,-666 L266,-262 L262,-726 L806,-254 L842,-1194 L546,-210 Z" stroke-width="0" fill="#000000" fill-opacity="0.9450980392156862" />
<path d="M226,-826 L378,-938 L186,-618 L822,-214 L218,-1250 L830,-634 Z" stroke-width="0" fill="#ffefd1" fill-opacity="0.054901960784313725" />
<path d="M726,-358 L142,-322 L98,-82 L746,-914 L746,-410 L974,-394 Z" stroke-width="0" fill="#38364d" fill-opacity="0.19607843137254902" />
<path d="M474,-1242 L642,-778 L118,-1134 L482,-150 L114,-466 L478,-378 Z" stroke-width="0" fill="#fdfaf1" fill-opacity="0.615686274509804" />
<path d="M418,-650 L774,-666 L274,-1210 L618,-666 L254,-126 L518,-178 Z" stroke-width="0" fill="#bfc9c0" fill-opacity="0.8901960784313725" />
<path d="M102,-690 L750,-1258 L234,-1162 L590,-930 L410,-434 L890,-186 Z" stroke-width="0" fill="#e2f4f4" fill-opacity="0.6784313725490196" />
<path d="M206,-590 L406,-498 L874,-530 L858,-866 L86,-110 L978,-1042 Z" stroke-width="0" fill="#c7d9d3" fill-opacity="0.9098039215686274" />
<path d="M362,-898 L474,-1062 L662,-986 L326,-966 L910,-366 L646,-562 Z" stroke-width="0" fill="#001500" fill-opacity="0.9450980392156862" />
<path d="M930,-354 L630,-598 L770,-994 L302,-482 L458,-118 L662,-534 Z" stroke-width="0" fill="#000000" fill-opacity="0.9215686274509803" />
<path d="M826,-370 L822,-686 L134,-366 L202,-922 L522,-362 L798,-502 Z" stroke-width="0" fill="#472104" fill-opacity="0.08627450980392157" />
<path d="M838,-998 L394,-1090 L522,-470 L426,-242 L802,-614 L666,-710 Z" stroke-width="0" fill="#040101" fill-opacity="0.050980392156862744" />
<path d="M110,-158 L170,-438 L734,-346 L766,-1158 L406,-670 L630,-534 Z" stroke-width="0" fill="#190726" fill-opacity="0.12156862745098039" />
<path d="M546,-182 L898,-330 L422,-514 L466,-318 L738,-318 L366,-298 Z" stroke-width="0" fill="#c3c6be" fill-opacity="0.1568627450980392" />
<path d="M522,-958 L302,-1170 L778,-1014 L822,-86 L226,-518 L586,-426 Z" stroke-width="0" fill="#f0dee8" fill-opacity="0.5843137254901961" />
<path d="M546,-766 L306,-546 L554,-402 L178,-862 L438,-730 L542,-462 Z" stroke-width="0" fill="#e773ac" fill-opacity="0.4117647058823529" />
<path d="M806,-850 L734,-302 L402,-182 L278,-566 L122,-410 L94,-242 Z" stroke-width="0" fill="#f7f1ef" fill-opacity="1.0" />
<path d="M190,-342 L250,-178 L974,-1018 L410,-118 L974,-498 L526,-162 Z" stroke-width="0" fill="#faa4eb" fill-opacity="0.41568627450980394" />
<path d="M814,-398 L514,-666 L970,-894 L482,-222 L422,-686 L502,-958 Z" stroke-width="0" fill="#000b15" fill-opacity="0.3411764705882353" />
<path d="M866,-634 L186,-1170 L230,-514 L674,-826 L802,-698 L614,-1222 Z" stroke-width="0" fill="#fffafb" fill-opacity="0.16470588235294117" />
<path d="M514,-762 L454,-422 L422,-626 L742,-238 L702,-506 L726,-390 Z" stroke-width="0" fill="#c7dabb" fill-opacity="0.07450980392156863" />
<path d="M418,-790 L494,-906 L930,-1054 L238,-502 L150,-146 L910,-318 Z" stroke-width="0" fill="#1c2069" fill-opacity="0.1843137254901961" />
<path d="M82,-878 L98,-182 L114,-230 L342,-1014 L922,-170 L482,-258 Z" stroke-width="0" fill="#9ca7a3" fill-opacity="0.3137254901960784" />
<path d="M886,-1038 L722,-854 L114,-130 L226,-606 L254,-142 L590,-754 Z" stroke-width="0" fill="#a499f9" fill-opacity="0.7411764705882353" />
<path d="M290,-126 L334,-446 L474,-514 L750,-366 L558,-1262 L618,-930 Z" stroke-width="0" fill="#e8d8d3" fill-opacity="0.8509803921568627" />
<path d="M774,-938 L922,-330 L782,-190 L558,-1246 L422,-1206 L214,-122 Z" stroke-width="0" fill="#d1d99d" fill-opacity="0.15294117647058825" />
<path d="M334,-654 L330,-1142 L810,-674 L794,-506 L690,-674 L246,-118 Z" stroke-width="0" fill="#f3dafe" fill-opacity="0.6980392156862745" />
<path d="M782,-1002 L614,-346 L398,-566 L798,-666 L158,-550 L266,-926 Z" stroke-width="0" fill="#010402" fill-opacity="0.9529411764705882" />
<path d="M418,-118 L966,-794 L602,-390 L438,-1062 L274,-230 L474,-466 Z" stroke-width="0" fill="#619178" fill-opacity="0.788235294117647" />
<path d="M178,-542 L942,-702 L886,-310 L826,-626 L562,-878 L770,-918 Z" stroke-width="0" fill="#6c7674" fill-opacity="0.3254901960784314" />
<path d="M906,-290 L734,-802 L214,-422 L218,-1254 L150,-950 L182,-402 Z" stroke-width="0" fill="#caafdc" fill-opacity="0.1411764705882353" />
<path d="M934,-666 L742,-1146 L606,-914 L278,-1166 L270,-210 L442,-858 Z" stroke-width="0" fill="#bf0714" fill-opacity="0.00392156862745098" />
<path d="M130,-174 L266,-318 L90,-566 L938,-826 L838,-426 L358,-918 Z" stroke-width="0" fill="#ad8cbd" fill-opacity="0.45098039215686275" />
<path d="M218,-126 L134,-1182 L526,-1090 L838,-1038 L342,-714 L138,-530 Z" stroke-width="0" fill="#9fe286" fill-opacity="0.0" />
<path d="M522,-1014 L870,-390 L626,-206 L146,-1098 L486,-874 L94,-286 Z" stroke-width="0" fill="#33110d" fill-opacity="0.19215686274509805" />
<path d="M842,-398 L362,-198 L154,-1038 L446,-162 L678,-734 L250,-582 Z" stroke-width="0" fill="#352725" fill-opacity="0.9686274509803922" />
<path d="M466,-1062 L634,-1178 L678,-410 L194,-614 L202,-678 L926,-822 Z" stroke-width="0" fill="#691837" fill-opacity="0.7294117647058823" />
<path d="M622,-634 L670,-278 L178,-718 L342,-942 L398,-630 L122,-454 Z" stroke-width="0" fill="#fef5fd" fill-opacity="0.9882352941176471" />
<path d="M370,-1022 L782,-1174 L378,-98 L738,-782 L286,-1174 L190,-1070 Z" stroke-width="0" fill="#000000" fill-opacity="0.32941176470588235" />
<path d="M146,-122 L838,-1070 L570,-410 L970,-1002 L194,-470 L698,-578 Z" stroke-width="0" fill="#b5ffeb" fill-opacity="0.30196078431372547" />
<path d="M302,-870 L786,-186 L566,-582 L190,-602 L590,-586 L698,-614 Z" stroke-width="0" fill="#e9dbec" fill-opacity="0.9647058823529412" />
<path d="M434,-354 L350,-174 L326,-730 L230,-274 L370,-454 L378,-530 Z" stroke-width="0" fill="#e5eaff" fill-opacity="0.6745098039215687" />
<path d="M626,-666 L674,-618 L518,-582 L810,-778 L830,-510 L374,-786 Z" stroke-width="0" fill="#144410" fill-opacity="0.16470588235294117" />
<path d="M446,-258 L202,-1010 L970,-1018 L542,-98 L554,-1262 L274,-242 Z" stroke-width="0" fill="#350442" fill-opacity="0.01568627450980392" />
<path d="M594,-138 L246,-586 L186,-1274 L886,-234 L558,-466 L150,-642 Z" stroke-width="0" fill="#ca58fb" fill-opacity="0.023529411764705882" />
<path d="M566,-962 L894,-518 L974,-1106 L546,-322 L862,-966 L670,-650 Z" stroke-width="0" fill="#a0a4ac" fill-opacity="0.5019607843137255" />
<path d="M582,-598 L970,-562 L130,-1122 L438,-794 L758,-790 L626,-82 Z" stroke-width="0" fill="#ccc8ca" fill-opacity="0.6470588235294118" />
<path d="M282,-170 L526,-1066 L878,-1202 L794,-1098 L130,-1014 L394,-366 Z" stroke-width="0" fill="#9f76b9" fill-opacity="0.06666666666666667" />
<path d="M278,-394 L614,-542 L126,-438 L230,-1222 L334,-338 L482,-230 Z" stroke-width="0" fill="#daf4fb" fill-opacity="0.803921568627451" />
<path d="M214,-654 L154,-878 L802,-1074 L622,-286 L974,-834 L382,-1214 Z" stroke-width="0" fill="#a53f56" fill-opacity="0.00784313725490196" />
<path d="M294,-582 L950,-362 L306,-1154 L306,-258 L294,-370 L670,-126 Z" stroke-width="0" fill="#abe4cc" fill-opacity="0.3764705882352941" />
<path d="M842,-886 L758,-382 L438,-778 L258,-278 L610,-1270 L726,-642 Z" stroke-width="0" fill="#001412" fill-opacity="0.7529411764705882" />
<path d="M666,-686 L674,-94 L334,-682 L418,-238 L478,-1234 L686,-1042 Z" stroke-width="0" fill="#0f1400" fill-opacity="0.1450980392156863" />
<path d="M646,-1102 L774,-866 L106,-1274 L446,-906 L378,-202 L122,-362 Z" stroke-width="0" fill="#d04d73" fill-opacity="0.00392156862745098" />
<path d="M586,-718 L406,-238 L610,-394 L122,-994 L594,-834 L546,-398 Z" stroke-width="0" fill="#fef5f0" fill-opacity="0.8156862745098039" />
<path d="M178,-454 L570,-198 L386,-390 L694,-466 L774,-154 L910,-234 Z" stroke-width="0" fill="#13000a" fill-opacity="0.35294117647058826" />
<path d="M94,-790 L310,-270 L286,-1150 L126,-190 L94,-170 L558,-222 Z" stroke-width="0" fill="#eeeed3" fill-opacity="0.5607843137254902" />
<path d="M922,-482 L194,-510 L602,-1162 L270,-522 L794,-806 L130,-1186 Z" stroke-width="0" fill="#a44568" fill-opacity="0.023529411764705882" />
<path d="M774,-538 L186,-478 L246,-1126 L714,-1166 L574,-90 L194,-1034 Z" stroke-width="0" fill="#a12819" fill-opacity="0.03529411764705882" />
<path d="M618,-790 L642,-1206 L666,-518 L282,-194 L618,-946 L126,-870 Z" stroke-width="0" fill="#301b72" fill-opacity="0.01568627450980392" />
<path d="M650,-850 L186,-734 L306,-886 L310,-318 L622,-238 L950,-890 Z" stroke-width="0" fill="#dfdae0" fill-opacity="0.5019607843137255" />
<path d="M154,-646 L978,-86 L250,-502 L782,-1186 L594,-458 L134,-918 Z" stroke-width="0" fill="#a6d9fa" fill-opacity="0.12549019607843137" />
<path d="M190,-1234 L206,-682 L778,-538 L126,-114 L146,-618 L194,-822 Z" stroke-width="0" fill="#f0f2d2" fill-opacity="0.44313725490196076" />
<path d="M494,-390 L130,-410 L706,-894 L398,-202 L618,-958 L842,-610 Z" stroke-width="0" fill="#d3a4e4" fill-opacity="0.0196078431372549" />
<path d="M198,-1178 L450,-386 L458,-454 L186,-402 L706,-906 L866,-706 Z" stroke-width="0" fill="#f8c0ea" fill-opacity="0.18823529411764706" />
<path d="M546,-670 L206,-498 L470,-558 L754,-118 L706,-170 L458,-1074 Z" stroke-width="0" fill="#fdedfa" fill-opacity="0.20784313725490197" />
<path d="M474,-766 L246,-902 L434,-1050 L790,-670 L146,-1174 L862,-850 Z" stroke-width="0" fill="#244cb7" fill-opacity="0.00784313725490196" />
<path d="M178,-218 L742,-746 L430,-734 L122,-1154 L634,-858 L390,-114 Z" stroke-width="0" fill="#1a7a70" fill-opacity="0.01568627450980392" />
<text x="448.0" y="0" font-size="70.0" fill="black" text-anchor="middle" transform="translate(0,17.5)">KNIGHT OF AIR</text>
</svg>