<?xml version="1.0" encoding="UTF-8"?>
<svg xmlns="http://www.w3.org/2000/svg" xmlns:xlink="http://www.w3.org/1999/xlink"
     width="275" height="375" viewBox="0 -350 275 375">
<defs>
</defs>
<rect x="15" y="-335" width="245" height="320" stroke="black" stroke-width="4" fill="white" />
<path d="M41,-138 L151,-303 L39,-124 L115,-42 L132,-146 L192,-307 Z" stroke-width="0" fill="#000000" fill-opacity="0.788235294117647" />
<path d="M126,-263 L129,-314 L94,-108 L116,-262 L98,-81 L35,-187 Z" stroke-width="0" fill="#000000" fill-opacity="0.8470588235294118" />
<path d="M161,-54 L96,-108 L149,-88 L130,-239 L218,-201 L49,-170 Z" stroke-width="0" fill="#b31b0f" fill-opacity="0.44313725490196076" />
<path d="M54,-150 L234,-161 L130,-159 L108,-30 L132,-157 L80,-176 Z" stroke-width="0" fill="#000000" fill-opacity="0.9764705882352941" />
<path d="M208,-70 L59,-297 L114,-121 L196,-163 L243,-107 L95,-233 Z" stroke-width="0" fill="#170000" fill-opacity="0.8431372549019608" />
<path d="M136,-138 L181,-104 L35,-83 L82,-155 L59,-281 L63,-106 Z" stroke-width="0" fill="#040600" fill-opacity="0.8352941176470589" />
<path d="M29,-109 L56,-96 L224,-166 L195,-83 L70,-319 L34,-68 Z" stroke-width="0" fill="#000000" fill-opacity="0.7137254901960784" />
<path d="M153,-214 L236,-64 L189,-324 L37,-125 L230,-223 L73,-193 Z" stroke-width="0" fill="#000000" fill-opacity="0.5215686274509804" />
<path d="M230,-153 L139,-169 L190,-95 L127,-292 L41,-254 L132,-143 Z" stroke-width="0" fill="#130002" fill-opacity="0.9176470588235294" />
<path d="M112,-113 L222,-89 L142,-30 L29,-114 L150,-279 L70,-90 Z" stroke-width="0" fill="#000000" fill-opacity="0.9568627450980393" />
<path d="M231,-256 L99,-34 L225,-128 L147,-214 L205,-164 L214,-134 Z" stroke-width="0" fill="#100000" fill-opacity="0.8745098039215686" />
<path d="M115,-95 L79,-175 L111,-98 L95,-45 L207,-177 L223,-65 Z" stroke-width="0" fill="#0e0009" fill-opacity="0.9607843137254902" />
<path d="M244,-183 L29,-99 L211,-59 L179,-118 L203,-140 L236,-34 Z" stroke-width="0" fill="#000000" fill-opacity="0.8431372549019608" />
<path d="M92,-184 L189,-301 L187,-124 L80,-121 L119,-35 L38,-270 Z" stroke-width="0" fill="#000000" fill-opacity="0.7490196078431373" />
<path d="M41,-257 L213,-212 L243,-118 L188,-110 L150,-145 L197,-87 Z" stroke-width="0" fill="#000000" fill-opacity="0.9725490196078431" />
<path d="M173,-58 L241,-41 L232,-90 L108,-201 L205,-148 L28,-128 Z" stroke-width="0" fill="#000000" fill-opacity="0.9607843137254902" />
<path d="M148,-97 L80,-227 L51,-81 L242,-180 L88,-199 L36,-67 Z" stroke-width="0" fill="#000000" fill-opacity="0.8549019607843137" />
<path d="M150,-115 L119,-69 L48,-175 L100,-175 L115,-211 L38,-219 Z" stroke-width="0" fill="#000000" fill-opacity="0.8549019607843137" />
<path d="M132,-50 L39,-134 L153,-32 L190,-67 L130,-318 L129,-281 Z" stroke-width="0" fill="#010000" fill-opacity="0.9490196078431372" />
<path d="M221,-270 L187,-106 L62,-85 L72,-181 L137,-279 L189,-79 Z" stroke-width="0" fill="#fb27a2" fill-opacity="0.8901960784313725" />
<path d="M215,-280 L115,-66 L59,-290 L227,-129 L142,-173 L99,-233 Z" stroke-width="0" fill="#f58869" fill-opacity="0.8" />
<path d="M184,-139 L79,-127 L218,-185 L162,-134 L121,-139 L181,-315 Z" stroke-width="0" fill="#000000" fill-opacity="0.8705882352941177" />
<path d="M178,-245 L156,-53 L223,-30 L89,-110 L86,-173 L95,-41 Z" stroke-width="0" fill="#000000" fill-opacity="0.9686274509803922" />
<path d="M143,-207 L215,-254 L132,-35 L49,-171 L97,-117 L217,-229 Z" stroke-width="0" fill="#0f0004" fill-opacity="0.9215686274509803" />
<path d="M190,-128 L98,-221 L131,-62 L73,-112 L69,-271 L63,-56 Z" stroke-width="0" fill="#3a1e6d" fill-opacity="0.7411764705882353" />
<path d="M216,-311 L237,-181 L137,-39 L175,-114 L142,-82 L134,-98 Z" stroke-width="0" fill="#000000" fill-opacity="0.9568627450980393" />
<path d="M94,-224 L92,-226 L152,-122 L70,-92 L31,-178 L150,-72 Z" stroke-width="0" fill="#000000" fill-opacity="0.7803921568627451" />
<path d="M118,-240 L230,-284 L34,-96 L224,-122 L93,-296 L134,-77 Z" stroke-width="0" fill="#000503" fill-opacity="0.996078431372549" />
<path d="M182,-306 L214,-137 L244,-50 L74,-155 L245,-63 L164,-230 Z" stroke-width="0" fill="#000000" fill-opacity="0.7294117647058823" />
<path d="M30,-314 L225,-259 L117,-123 L134,-220 L213,-259 L244,-216 Z" stroke-width="0" fill="#200000" fill-opacity="0.8784313725490196" />
<path d="M101,-202 L30,-131 L134,-86 L171,-186 L187,-184 L35,-113 Z" stroke-width="0" fill="#000000" fill-opacity="0.7254901960784313" />
<path d="M52,-51 L208,-120 L84,-234 L136,-139 L156,-41 L74,-222 Z" stroke-width="0" fill="#040000" fill-opacity="0.8862745098039215" />
<path d="M90,-214 L35,-192 L55,-89 L36,-94 L222,-239 L57,-28 Z" stroke-width="0" fill="#000001" fill-opacity="0.9568627450980393" />
<path d="M118,-217 L141,-307 L25,-249 L226,-312 L27,-116 L60,-51 Z" stroke-width="0" fill="#000000" fill-opacity="0.8431372549019608" />
<path d="M180,-45 L85,-92 L96,-60 L232,-157 L242,-263 L116,-198 Z" stroke-width="0" fill="#000000" fill-opacity="0.8470588235294118" />
<path d="M33,-128 L243,-84 L107,-198 L195,-82 L181,-157 L105,-71 Z" stroke-width="0" fill="#000000" fill-opacity="0.9058823529411765" />
<path d="M40,-197 L162,-103 L80,-117 L209,-66 L169,-127 L120,-247 Z" stroke-width="0" fill="#236400" fill-opacity="0.5019607843137255" />
<path d="M54,-173 L207,-286 L151,-300 L117,-125 L58,-136 L25,-56 Z" stroke-width="0" fill="#030000" fill-opacity="0.9921568627450981" />
<path d="M88,-197 L151,-298 L232,-113 L169,-214 L109,-281 L155,-173 Z" stroke-width="0" fill="#ee5800" fill-opacity="0.8509803921568627" />
<path d="M147,-180 L43,-238 L95,-231 L28,-202 L91,-168 L126,-253 Z" stroke-width="0" fill="#000000" fill-opacity="0.9411764705882353" />
<path d="M138,-218 L113,-222 L85,-194 L62,-88 L97,-96 L68,-124 Z" stroke-width="0" fill="#e14df9" fill-opacity="0.9294117647058824" />
<path d="M85,-301 L106,-253 L68,-254 L125,-134 L140,-273 L184,-190 Z" stroke-width="0" fill="#4ac875" fill-opacity="0.6588235294117647" />
<path d="M228,-163 L105,-130 L84,-182 L49,-200 L88,-243 L167,-152 Z" stroke-width="0" fill="#110008" fill-opacity="0.2" />
<path d="M127,-91 L101,-131 L59,-304 L36,-153 L52,-254 L57,-83 Z" stroke-width="0" fill="#0a0000" fill-opacity="0.9764705882352941" />
<path d="M123,-157 L102,-106 L226,-199 L216,-275 L138,-55 L212,-307 Z" stroke-width="0" fill="#0c0600" fill-opacity="0.9725490196078431" />
<path d="M234,-117 L36,-144 L222,-70 L132,-71 L104,-138 L25,-145 Z" stroke-width="0" fill="#3c1c00" fill-opacity="0.788235294117647" />
<path d="M238,-109 L213,-149 L144,-65 L101,-78 L220,-202 L209,-247 Z" stroke-width="0" fill="#190700" fill-opacity="0.5725490196078431" />
<path d="M240,-202 L156,-255 L94,-103 L228,-179 L33,-144 L178,-138 Z" stroke-width="0" fill="#0d0400" fill-opacity="0.8431372549019608" />
<path d="M202,-308 L153,-190 L64,-214 L129,-95 L158,-162 L89,-139 Z" stroke-width="0" fill="#060bba" fill-opacity="0.996078431372549" />
<path d="M201,-251 L71,-87 L231,-169 L217,-146 L120,-227 L62,-221 Z" stroke-width="0" fill="#000000" fill-opacity="0.9607843137254902" />
<path d="M226,-121 L172,-71 L208,-57 L96,-211 L166,-74 L149,-71 Z" stroke-width="0" fill="#e0265c" fill-opacity="0.42745098039215684" />
<path d="M218,-62 L178,-309 L182,-34 L106,-260 L226,-203 L71,-249 Z" stroke-width="0" fill="#0d150b" fill-opacity="0.9607843137254902" />
<path d="M117,-272 L170,-61 L169,-153 L128,-125 L64,-141 L180,-136 Z" stroke-width="0" fill="#39006c" fill-opacity="0.8705882352941177" />
<path d="M35,-108 L205,-139 L218,-176 L200,-178 L72,-230 L62,-81 Z" stroke-width="0" fill="#4b0c3e" fill-opacity="0.03137254901960784" />
<path d="M26,-137 L233,-74 L199,-90 L228,-128 L170,-115 L164,-246 Z" stroke-width="0" fill="#000000" fill-opacity="0.8588235294117647" />
<path d="M85,-99 L77,-123 L225,-122 L181,-80 L142,-104 L226,-66 Z" stroke-width="0" fill="#5e1a00" fill-opacity="0.12549019607843137" />
<path d="M176,-269 L71,-84 L193,-260 L43,-32 L238,-107 L81,-306 Z" stroke-width="0" fill="#000000" fill-opacity="0.9333333333333333" />
<path d="M198,-76 L82,-92 L96,-187 L188,-129 L220,-197 L102,-33 Z" stroke-width="0" fill="#210000" fill-opacity="0.8274509803921568" />
<path d="M140,-190 L104,-27 L72,-320 L165,-289 L115,-64 L93,-168 Z" stroke-width="0" fill="#000000" fill-opacity="0.6470588235294118" />
<path d="M208,-33 L144,-218 L224,-36 L140,-239 L74,-279 L214,-122 Z" stroke-width="0" fill="#771100" fill-opacity="0.984313725490196" />
<path d="M62,-110 L96,-268 L208,-45 L142,-172 L213,-41 L79,-300 Z" stroke-width="0" fill="#240900" fill-opacity="1.0" />
<path d="M111,-87 L117,-176 L201,-160 L128,-171 L242,-273 L93,-261 Z" stroke-width="0" fill="#000000" fill-opacity="0.9607843137254902" />
<path d="M225,-184 L178,-282 L25,-319 L64,-201 L156,-39 L89,-118 Z" stroke-width="0" fill="#0b0300" fill-opacity="0.9921568627450981" />
<path d="M141,-109 L38,-275 L199,-77 L187,-274 L138,-289 L233,-132 Z" stroke-width="0" fill="#9e1e00" fill-opacity="0.9019607843137255" />
<path d="M102,-172 L83,-164 L58,-200 L129,-101 L118,-139 L129,-245 Z" stroke-width="0" fill="#67b5d7" fill-opacity="0.13333333333333333" />
<path d="M217,-190 L116,-58 L188,-223 L89,-113 L218,-45 L92,-214 Z" stroke-width="0" fill="#251d00" fill-opacity="0.5686274509803921" />
<path d="M91,-73 L226,-297 L241,-301 L109,-296 L224,-156 L209,-167 Z" stroke-width="0" fill="#000000" fill-opacity="1.0" />
<path d="M73,-112 L240,-135 L59,-182 L41,-87 L51,-283 L98,-160 Z" stroke-width="0" fill="#660d2e" fill-opacity="0.1607843137254902" />
<path d="M34,-224 L42,-112 L213,-89 L131,-120 L52,-223 L116,-120 Z" stroke-width="0" fill="#000000" fill-opacity="0.6823529411764706" />
<path d="M245,-171 L75,-156 L236,-229 L100,-180 L67,-208 L106,-222 Z" stroke-width="0" fill="#000000" fill-opacity="0.7803921568627451" />
<path d="M134,-158 L61,-307 L239,-296 L150,-317 L67,-234 L178,-287 Z" stroke-width="0" fill="#000000" fill-opacity="0.8745098039215686" />
<path d="M151,-34 L231,-228 L220,-191 L40,-90 L59,-100 L213,-247 Z" stroke-width="0" fill="#152932" fill-opacity="0.24705882352941178" />
<path d="M223,-57 L36,-307 L237,-34 L47,-84 L178,-301 L43,-119 Z" stroke-width="0" fill="#000000" fill-opacity="0.5411764705882353" />
<path d="M55,-179 L59,-210 L219,-321 L176,-100 L184,-244 L153,-198 Z" stroke-width="0" fill="#100400" fill-opacity="0.9921568627450981" />
<path d="M207,-160 L189,-258 L81,-107 L206,-211 L147,-45 L57,-116 Z" stroke-width="0" fill="#791d32" fill-opacity="0.796078431372549" />
<path d="M140,-86 L209,-252 L43,-198 L79,-238 L189,-318 L40,-80 Z" stroke-width="0" fill="#000000" fill-opacity="0.8823529411764706" />
<path d="M135,-126 L103,-171 L86,-151 L38,-271 L52,-255 L191,-245 Z" stroke-width="0" fill="#0e6157" fill-opacity="0.8745098039215686" />
<path d="M129,-253 L101,-244 L207,-187 L165,-196 L54,-284 L175,-262 Z" stroke-width="0" fill="#001605" fill-opacity="0.1803921568627451" />
<path d="M203,-51 L133,-188 L154,-237 L163,-91 L195,-69 L69,-121 Z" stroke-width="0" fill="#070000" fill-opacity="0.9450980392156862" />
<path d="M247,-100 L175,-304 L234,-43 L118,-203 L57,-81 L143,-197 Z" stroke-width="0" fill="#000000" fill-opacity="0.5568627450980392" />
<path d="M108,-279 L55,-96 L168,-100 L221,-229 L94,-227 L53,-195 Z" stroke-width="0" fill="#3edb39" fill-opacity="0.19215686274509805" />
<path d="M85,-104 L33,-180 L93,-194 L249,-248 L202,-102 L237,-187 Z" stroke-width="0" fill="#000000" fill-opacity="0.7137254901960784" />
<path d="M31,-246 L230,-311 L57,-183 L140,-31 L154,-231 L83,-124 Z" stroke-width="0" fill="#681e00" fill-opacity="0.796078431372549" />
<path d="M221,-221 L130,-118 L157,-46 L86,-59 L134,-97 L153,-111 Z" stroke-width="0" fill="#52191e" fill-opacity="0.23529411764705882" />
<path d="M176,-146 L213,-263 L72,-223 L51,-47 L114,-59 L221,-89 Z" stroke-width="0" fill="#ae2e00" fill-opacity="0.49411764705882355" />
<path d="M240,-95 L147,-156 L50,-29 L69,-63 L67,-305 L56,-190 Z" stroke-width="0" fill="#102000" fill-opacity="0.5058823529411764" />
<path d="M120,-78 L164,-31 L233,-170 L122,-165 L131,-212 L94,-124 Z" stroke-width="0" fill="#923e13" fill-opacity="0.6352941176470588" />
<path d="M104,-118 L74,-279 L114,-103 L52,-273 L67,-83 L208,-310 Z" stroke-width="0" fill="#205e2a" fill-opacity="0.023529411764705882" />
<path d="M61,-76 L144,-128 L229,-66 L66,-108 L36,-137 L157,-103 Z" stroke-width="0" fill="#f0ba73" fill-opacity="0.047058823529411764" />
<path d="M242,-252 L162,-254 L70,-206 L42,-225 L28,-55 L59,-25 Z" stroke-width="0" fill="#000000" fill-opacity="0.5254901960784314" />
<path d="M120,-276 L202,-53 L120,-80 L80,-295 L90,-319 L153,-87 Z" stroke-width="0" fill="#e88e2d" fill-opacity="0.8705882352941177" />
<path d="M104,-84 L76,-119 L158,-161 L28,-111 L60,-268 L239,-78 Z" stroke-width="0" fill="#e66229" fill-opacity="0.023529411764705882" />
<path d="M69,-99 L32,-257 L78,-170 L220,-233 L95,-88 L54,-207 Z" stroke-width="0" fill="#001600" fill-opacity="0.9058823529411765" />
<path d="M225,-311 L47,-265 L43,-152 L228,-84 L136,-263 L63,-291 Z" stroke-width="0" fill="#862c14" fill-opacity="0.2784313725490196" />
<path d="M221,-80 L25,-76 L71,-303 L38,-294 L85,-170 L141,-205 Z" stroke-width="0" fill="#000000" fill-opacity="0.6823529411764706" />
<path d="M231,-262 L68,-159 L235,-154 L144,-263 L46,-83 L130,-140 Z" stroke-width="0" fill="#0f0300" fill-opacity="0.8274509803921568" />
<path d="M137,-248 L52,-31 L202,-286 L187,-176 L121,-291 L237,-92 Z" stroke-width="0" fill="#0d0b04" fill-opacity="0.8823529411764706" />
<path d="M170,-314 L108,-133 L198,-120 L116,-136 L102,-240 L44,-198 Z" stroke-width="0" fill="#f6bf4c" fill-opacity="0.5019607843137255" />
<path d="M157,-178 L77,-245 L118,-307 L176,-72 L197,-324 L62,-27 Z" stroke-width="0" fill="#963223" fill-opacity="0.2235294117647059" />
<path d="M52,-266 L157,-136 L42,-150 L96,-172 L25,-89 L133,-57 Z" stroke-width="0" fill="#39501a" fill-opacity="0.09019607843137255" />
<text x="137.5" y="12.5" font-size="20.0" fill="black" text-anchor="middle" transform="translate(0,5.0)">QUEEN OF AIR</text>
</svg>