<?xml version="1.0" encoding="UTF-8"?>
<svg xmlns="http://www.w3.org/2000/svg" xmlns:xlink="http://www.w3.org/1999/xlink"
     width="896" height="1496" viewBox="0 -1400 896 1496" style="font-size:70;font-family:Poor Richard, Times New Roman;stroke:black;stroke-width:1;fill:none">
<defs>
</defs>
<path d="M218,-734 L86,-278 L922,-734 L226,-134 L118,-442 L634,-654 Z" stroke-width="0" fill="#a2cf88" fill-opacity="0.00392156862745098" />
<path d="M346,-154 L334,-258 L766,-270 L910,-1054 L254,-810 L766,-110 Z" stroke-width="0" fill="#ebe1eb" fill-opacity="0.16862745098039217" />
<path d="M370,-522 L806,-970 L522,-278 L818,-590 L446,-1122 L654,-826 Z" stroke-width="0" fill="#111300" fill-opacity="0.8470588235294118" />
<path d="M382,-282 L838,-1206 L682,-290 L650,-506 L746,-330 L254,-318 Z" stroke-width="0" fill="#eac5e7" fill-opacity="0.058823529411764705" />
<path d="M426,-554 L126,-246 L790,-398 L886,-190 L442,-610 L958,-186 Z" stroke-width="0" fill="#e2faf2" fill-opacity="0.12549019607843137" />
<path d="M342,-634 L970,-1206 L166,-834 L742,-826 L402,-990 L794,-778 Z" stroke-width="0" fill="#f2eafe" fill-opacity="0.0196078431372549" />
<path d="M718,-402 L646,-550 L346,-514 L946,-194 L410,-1194 L730,-1090 Z" stroke-width="0" fill="#ffebf5" fill-opacity="0.047058823529411764" />
<path d="M454,-1130 L494,-534 L262,-362 L422,-254 L694,-878 L174,-150 Z" stroke-width="0" fill="#12102f" fill-opacity="0.8823529411764706" />
<path d="M302,-286 L110,-958 L294,-394 L570,-870 L902,-262 L946,-1190 Z" stroke-width="0" fill="#fcf2e8" fill-opacity="0.13725490196078433" />
<path d="M818,-122 L758,-146 L162,-266 L602,-282 L270,-1098 L690,-398 Z" stroke-width="0" fill="#e2fdef" fill-opacity="0.06666666666666667" />
<path d="M642,-394 L266,-1170 L742,-1026 L230,-170 L290,-1230 L958,-634 Z" stroke-width="0" fill="#ebf8f2" fill-opacity="0.027450980392156862" />
<path d="M686,-1062 L730,-638 L782,-546 L146,-682 L114,-418 L814,-618 Z" stroke-width="0" fill="#f5d6f7" fill-opacity="0.19215686274509805" />
<path d="M358,-474 L494,-982 L778,-178 L154,-942 L538,-1046 L318,-154 Z" stroke-width="0" fill="#fcfbfd" fill-opacity="0.027450980392156862" />
<path d="M886,-362 L246,-374 L98,-634 L526,-390 L386,-718 L714,-522 Z" stroke-width="0" fill="#d897ad" fill-opacity="0.00392156862745098" />
<path d="M762,-838 L342,-854 L482,-314 L662,-254 L198,-614 L350,-638 Z" stroke-width="0" fill="#f5f171" fill-opacity="0.43137254901960786" />
<path d="M502,-914 L150,-570 L354,-914 L322,-694 L198,-574 L622,-1086 Z" stroke-width="0" fill="#e6bbdc" fill-opacity="0.0" />
<path d="M970,-902 L118,-1218 L338,-986 L354,-1146 L522,-982 L678,-102 Z" stroke-width="0" fill="#fcf2fb" fill-opacity="0.01568627450980392" />
<path d="M138,-342 L138,-350 L166,-338 L794,-298 L710,-310 L710,-266 Z" stroke-width="0" fill="#e2feff" fill-opacity="0.2549019607843137" />
<path d="M294,-846 L474,-366 L438,-126 L670,-618 L310,-710 L378,-258 Z" stroke-width="0" fill="#369c63" fill-opacity="0.796078431372549" />
<path d="M342,-558 L322,-674 L346,-402 L586,-134 L558,-354 L654,-950 Z" stroke-width="0" fill="#051115" fill-opacity="0.13333333333333333" />
<path d="M558,-454 L446,-222 L330,-106 L518,-462 L286,-114 L530,-954 Z" stroke-width="0" fill="#d2a510" fill-opacity="0.6039215686274509" />
<path d="M958,-1042 L706,-838 L702,-214 L502,-366 L318,-690 L326,-638 Z" stroke-width="0" fill="#ebf2e9" fill-opacity="0.06666666666666667" />
<path d="M118,-186 L846,-606 L750,-466 L338,-726 L922,-1110 L206,-222 Z" stroke-width="0" fill="#f8f8fd" fill-opacity="0.20784313725490197" />
<path d="M538,-1238 L442,-98 L810,-874 L266,-614 L430,-154 L410,-838 Z" stroke-width="0" fill="#d4b0f6" fill-opacity="0.027450980392156862" />
<path d="M738,-122 L314,-166 L578,-362 L218,-254 L550,-346 L742,-494 Z" stroke-width="0" fill="#ffefa5" fill-opacity="0.01568627450980392" />
<path d="M266,-890 L210,-778 L678,-214 L182,-406 L190,-406 L774,-770 Z" stroke-width="0" fill="#eddfe4" fill-opacity="0.2196078431372549" />
<path d="M574,-1010 L514,-906 L518,-990 L402,-558 L362,-502 L954,-250 Z" stroke-width="0" fill="#f9f1fc" fill-opacity="0.15294117647058825" />
<path d="M286,-1098 L118,-482 L390,-334 L98,-210 L170,-270 L802,-934 Z" stroke-width="0" fill="#e4fdcf" fill-opacity="0.00784313725490196" />
<path d="M814,-814 L422,-282 L202,-142 L770,-1078 L830,-422 L570,-550 Z" stroke-width="0" fill="#0a2801" fill-opacity="0.6235294117647059" />
<path d="M86,-594 L534,-410 L366,-914 L634,-198 L318,-318 L890,-122 Z" stroke-width="0" fill="#f0e0cb" fill-opacity="0.0" />
<path d="M274,-1010 L402,-522 L406,-662 L530,-118 L682,-486 L102,-798 Z" stroke-width="0" fill="#d2ece4" fill-opacity="0.00784313725490196" />
<path d="M778,-554 L606,-602 L250,-278 L182,-422 L394,-682 L598,-774 Z" stroke-width="0" fill="#0b0200" fill-opacity="0.8431372549019608" />
<path d="M458,-650 L390,-246 L258,-230 L106,-330 L866,-166 L926,-414 Z" stroke-width="0" fill="#e9f0c4" fill-opacity="0.027450980392156862" />
<path d="M334,-1106 L802,-482 L654,-494 L450,-1150 L94,-334 L586,-662 Z" stroke-width="0" fill="#fcf8f3" fill-opacity="0.9607843137254902" />
<path d="M638,-858 L98,-86 L518,-746 L842,-454 L514,-202 L250,-690 Z" stroke-width="0" fill="#f4baf8" fill-opacity="0.0196078431372549" />
<path d="M866,-554 L386,-522 L310,-1246 L470,-230 L750,-314 L246,-1190 Z" stroke-width="0" fill="#f2d3eb" fill-opacity="0.03137254901960784" />
<path d="M618,-462 L486,-1042 L170,-298 L802,-882 L186,-86 L294,-262 Z" stroke-width="0" fill="#fee3f6" fill-opacity="0.1568627450980392" />
<path d="M790,-282 L486,-1226 L622,-398 L114,-162 L450,-262 L286,-370 Z" stroke-width="0" fill="#f8fdbe" fill-opacity="0.03137254901960784" />
<path d="M834,-322 L510,-1134 L274,-626 L806,-866 L958,-454 L594,-82 Z" stroke-width="0" fill="#fed6cd" fill-opacity="0.00784313725490196" />
<path d="M194,-378 L862,-1002 L414,-674 L862,-334 L454,-514 L342,-506 Z" stroke-width="0" fill="#79becd" fill-opacity="0.00392156862745098" />
<path d="M958,-918 L386,-390 L206,-490 L834,-1130 L262,-822 L786,-418 Z" stroke-width="0" fill="#fceef2" fill-opacity="0.19215686274509805" />
<path d="M606,-126 L922,-1110 L910,-914 L814,-730 L398,-1066 L494,-102 Z" stroke-width="0" fill="#f8f9e0" fill-opacity="0.08627450980392157" />
<path d="M166,-854 L566,-522 L222,-266 L190,-742 L638,-674 L94,-242 Z" stroke-width="0" fill="#f8f5f4" fill-opacity="0.023529411764705882" />
<path d="M358,-1006 L394,-498 L438,-618 L774,-138 L122,-398 L298,-538 Z" stroke-width="0" fill="#e2fefb" fill-opacity="0.09803921568627451" />
<path d="M166,-334 L458,-1270 L118,-410 L438,-242 L338,-942 L466,-590 Z" stroke-width="0" fill="#f9f6f0" fill-opacity="0.13333333333333333" />
<path d="M242,-554 L618,-1106 L374,-698 L290,-346 L786,-158 L446,-1162 Z" stroke-width="0" fill="#fcedf7" fill-opacity="0.043137254901960784" />
<path d="M834,-994 L590,-986 L434,-282 L98,-742 L914,-422 L98,-898 Z" stroke-width="0" fill="#d2ecfc" fill-opacity="0.047058823529411764" />
<path d="M786,-858 L406,-514 L338,-970 L534,-750 L682,-182 L206,-378 Z" stroke-width="0" fill="#001303" fill-opacity="0.7411764705882353" />
<path d="M794,-646 L514,-622 L506,-606 L738,-638 L822,-466 L358,-98 Z" stroke-width="0" fill="#aecc70" fill-opacity="0.08235294117647059" />
<path d="M350,-322 L306,-278 L906,-130 L374,-294 L766,-334 L434,-850 Z" stroke-width="0" fill="#d1c51d" fill-opacity="0.3137254901960784" />
<path d="M726,-434 L206,-546 L442,-418 L650,-526 L82,-186 L298,-850 Z" stroke-width="0" fill="#f2f6d8" fill-opacity="0.1607843137254902" />
<path d="M586,-322 L766,-990 L250,-922 L246,-682 L394,-902 L838,-426 Z" stroke-width="0" fill="#f1fff8" fill-opacity="0.9411764705882353" />
<path d="M790,-634 L430,-282 L950,-558 L950,-1026 L138,-814 L670,-1186 Z" stroke-width="0" fill="#eabcfe" fill-opacity="0.03137254901960784" />
<path d="M762,-418 L102,-146 L558,-178 L798,-706 L286,-526 L554,-1182 Z" stroke-width="0" fill="#1f1033" fill-opacity="0.6862745098039216" />
<path d="M106,-398 L358,-650 L954,-534 L650,-1022 L130,-490 L626,-434 Z" stroke-width="0" fill="#f8c8ff" fill-opacity="0.17647058823529413" />
<path d="M378,-410 L242,-146 L342,-858 L522,-838 L666,-1066 L534,-1014 Z" stroke-width="0" fill="#130606" fill-opacity="0.9333333333333333" />
<path d="M778,-694 L718,-754 L782,-286 L502,-422 L810,-458 L870,-454 Z" stroke-width="0" fill="#e4fff1" fill-opacity="0.8431372549019608" />
<path d="M290,-850 L894,-342 L326,-234 L666,-362 L818,-1022 L930,-918 Z" stroke-width="0" fill="#fee8f9" fill-opacity="0.09411764705882353" />
<path d="M874,-518 L150,-478 L146,-794 L126,-214 L742,-1250 L138,-1062 Z" stroke-width="0" fill="#ebfa66" fill-opacity="0.03529411764705882" />
<path d="M158,-210 L654,-430 L774,-834 L130,-1210 L518,-250 L518,-654 Z" stroke-width="0" fill="#c6f8af" fill-opacity="0.0392156862745098" />
<path d="M474,-882 L266,-262 L302,-178 L262,-1002 L538,-1182 L382,-954 Z" stroke-width="0" fill="#e3f7e2" fill-opacity="0.11372549019607843" />
<path d="M158,-118 L354,-238 L82,-846 L274,-578 L578,-922 L82,-698 Z" stroke-width="0" fill="#f3f4f1" fill-opacity="0.10588235294117647" />
<path d="M238,-410 L182,-1010 L678,-702 L462,-214 L706,-490 L450,-1142 Z" stroke-width="0" fill="#f3f4ee" fill-opacity="0.12156862745098039" />
<path d="M434,-942 L674,-1166 L194,-1122 L106,-658 L430,-330 L898,-914 Z" stroke-width="0" fill="#a983c4" fill-opacity="0.0" />
<path d="M338,-314 L578,-1274 L102,-390 L314,-810 L210,-1098 L690,-1014 Z" stroke-width="0" fill="#e8e7f2" fill-opacity="0.07058823529411765" />
<path d="M662,-426 L822,-858 L638,-846 L394,-214 L478,-1178 L398,-742 Z" stroke-width="0" fill="#231f0e" fill-opacity="0.2196078431372549" />
<path d="M494,-478 L166,-490 L138,-482 L262,-854 L638,-1098 L782,-978 Z" stroke-width="0" fill="#6a64be" fill-opacity="0.2980392156862745" />
<path d="M582,-898 L322,-838 L550,-374 L106,-662 L486,-638 L442,-498 Z" stroke-width="0" fill="#f1eacd" fill-opacity="0.1568627450980392" />
<path d="M734,-278 L590,-118 L510,-998 L466,-650 L202,-882 L794,-502 Z" stroke-width="0" fill="#eaaf92" fill-opacity="0.00392156862745098" />
<path d="M406,-910 L114,-734 L322,-554 L470,-1118 L94,-722 L838,-610 Z" stroke-width="0" fill="#f6dbcf" fill-opacity="0.054901960784313725" />
<path d="M158,-286 L926,-994 L398,-130 L390,-1118 L902,-82 L882,-398 Z" stroke-width="0" fill="#def6ee" fill-opacity="0.09803921568627451" />
<path d="M86,-742 L234,-934 L470,-926 L866,-366 L710,-386 L122,-990 Z" stroke-width="0" fill="#fcfce7" fill-opacity="0.10980392156862745" />
<path d="M782,-974 L278,-562 L414,-178 L454,-534 L382,-354 L230,-718 Z" stroke-width="0" fill="#6c93c5" fill-opacity="0.43529411764705883" />
<path d="M526,-734 L702,-670 L290,-682 L750,-1062 L670,-534 L746,-330 Z" stroke-width="0" fill="#310355" fill-opacity="0.9176470588235294" />
<path d="M850,-590 L534,-1190 L774,-374 L666,-690 L510,-830 L450,-842 Z" stroke-width="0" fill="#b0f575" fill-opacity="0.09803921568627451" />
<path d="M246,-638 L402,-114 L450,-1026 L462,-750 L374,-258 L198,-670 Z" stroke-width="0" fill="#81298f" fill-opacity="0.10588235294117647" />
<path d="M122,-766 L594,-254 L450,-850 L230,-1070 L510,-126 L210,-902 Z" stroke-width="0" fill="#ded8bd" fill-opacity="0.01568627450980392" />
<path d="M562,-758 L214,-518 L918,-218 L98,-630 L190,-194 L386,-86 Z" stroke-width="0" fill="#fcb7fd" fill-opacity="0.058823529411764705" />
<path d="M842,-274 L654,-422 L902,-674 L498,-790 L218,-410 L810,-1042 Z" stroke-width="0" fill="#f2c5fc" fill-opacity="0.09019607843137255" />
<path d="M570,-922 L766,-362 L814,-322 L394,-706 L382,-198 L202,-502 Z" stroke-width="0" fill="#4a3213" fill-opacity="0.611764705882353" />
<path d="M130,-990 L506,-322 L438,-406 L846,-458 L530,-1122 L606,-890 Z" stroke-width="0" fill="#e4ddf6" fill-opacity="0.08235294117647059" />
<path d="M954,-762 L114,-1130 L150,-1030 L798,-474 L450,-1066 L410,-250 Z" stroke-width="0" fill="#fe9bc6" fill-opacity="0.01568627450980392" />
<path d="M702,-286 L614,-850 L134,-398 L898,-730 L858,-1230 L486,-102 Z" stroke-width="0" fill="#efa4fe" fill-opacity="0.0784313725490196" />
<path d="M878,-606 L118,-890 L954,-646 L618,-534 L490,-122 L194,-914 Z" stroke-width="0" fill="#f2f7ce" fill-opacity="0.047058823529411764" />
<path d="M842,-770 L102,-1250 L726,-826 L386,-838 L446,-590 L538,-110 Z" stroke-width="0" fill="#2f0706" fill-opacity="0.1607843137254902" />
<path d="M322,-606 L290,-1006 L618,-446 L262,-358 L314,-234 L966,-618 Z" stroke-width="0" fill="#f7e8f2" fill-opacity="0.23137254901960785" />
<path d="M586,-1258 L402,-270 L874,-1178 L442,-178 L522,-838 L394,-290 Z" stroke-width="0" fill="#612702" fill-opacity="0.6549019607843137" />
<path d="M558,-954 L570,-234 L446,-610 L934,-922 L778,-482 L150,-362 Z" stroke-width="0" fill="#f068bd" fill-opacity="0.1450980392156863" />
<path d="M370,-154 L266,-462 L450,-754 L98,-1202 L362,-1234 L226,-254 Z" stroke-width="0" fill="#bd97e6" fill-opacity="0.00392156862745098" />
<path d="M246,-826 L466,-958 L494,-362 L486,-858 L282,-662 L850,-1158 Z" stroke-width="0" fill="#421320" fill-opacity="0.43137254901960786" />
<path d="M514,-858 L514,-1182 L890,-1198 L662,-926 L110,-274 L686,-1198 Z" stroke-width="0" fill="#89a028" fill-opacity="0.03137254901960784" />
<path d="M766,-190 L686,-1094 L94,-106 L746,-382 L218,-98 L286,-82 Z" stroke-width="0" fill="#9eb300" fill-opacity="0.1607843137254902" />
<path d="M770,-102 L238,-538 L478,-718 L674,-310 L614,-814 L434,-506 Z" stroke-width="0" fill="#8a6e00" fill-opacity="0.16470588235294117" />
<path d="M234,-830 L286,-266 L402,-666 L214,-914 L90,-526 L330,-514 Z" stroke-width="0" fill="#e9defb" fill-opacity="0.08627450980392157" />
<path d="M370,-1034 L462,-646 L270,-1074 L666,-614 L498,-982 L230,-426 Z" stroke-width="0" fill="#077e1c" fill-opacity="0.11764705882352941" />
<path d="M594,-386 L378,-442 L226,-954 L686,-842 L662,-734 L402,-1194 Z" stroke-width="0" fill="#6e7f00" fill-opacity="0.07058823529411765" />
<path d="M594,-954 L246,-998 L766,-810 L798,-702 L250,-510 L458,-370 Z" stroke-width="0" fill="#6c440d" fill-opacity="0.5490196078431373" />
<path d="M942,-222 L130,-862 L374,-498 L850,-850 L378,-1118 L142,-702 Z" stroke-width="0" fill="#999f21" fill-opacity="0.13725490196078433" />
<path d="M302,-686 L110,-94 L250,-910 L458,-1098 L410,-958 L934,-998 Z" stroke-width="0" fill="#d1eee4" fill-opacity="0.3843137254901961" />
<path d="M850,-1214 L170,-422 L638,-994 L750,-306 L262,-194 L378,-734 Z" stroke-width="0" fill="#00246b" fill-opacity="0.5019607843137255" />
<text x="448.0" y="0" font-size="70.0" fill="black" text-anchor="middle" transform="translate(0,17.5)">9 OF AIR</text>
</svg>