<?xml version="1.0" encoding="UTF-8"?>
<svg xmlns="http://www.w3.org/2000/svg" xmlns:xlink="http://www.w3.org/1999/xlink"
     width="275" height="375" viewBox="0 -350 275 375">
<defs>
</defs>
<rect x="15" y="-335" width="245" height="320" stroke="black" stroke-width="4" fill="white" />
<path d="M156,-43 L108,-107 L200,-85 L28,-142 L80,-219 L85,-210 Z" stroke-width="0" fill="#c0a9e9" fill-opacity="0.2549019607843137" />
<path d="M93,-201 L33,-127 L84,-109 L178,-90 L39,-29 L170,-319 Z" stroke-width="0" fill="#dce8d6" fill-opacity="0.9647058823529412" />
<path d="M63,-121 L167,-101 L42,-29 L91,-61 L169,-300 L150,-224 Z" stroke-width="0" fill="#b5fadd" fill-opacity="0.39215686274509803" />
<path d="M100,-206 L46,-76 L242,-35 L84,-237 L236,-69 L123,-292 Z" stroke-width="0" fill="#1a0c00" fill-opacity="0.6470588235294118" />
<path d="M82,-323 L241,-121 L47,-98 L132,-147 L89,-35 L40,-28 Z" stroke-width="0" fill="#450a00" fill-opacity="0.43529411764705883" />
<path d="M99,-183 L114,-171 L242,-35 L197,-128 L219,-187 L31,-144 Z" stroke-width="0" fill="#4e0e1e" fill-opacity="0.8509803921568627" />
<path d="M157,-25 L139,-285 L120,-127 L105,-31 L158,-306 L189,-260 Z" stroke-width="0" fill="#4d3900" fill-opacity="0.5019607843137255" />
<path d="M116,-151 L95,-297 L72,-159 L201,-246 L167,-111 L160,-53 Z" stroke-width="0" fill="#0c5516" fill-opacity="0.6313725490196078" />
<path d="M84,-298 L55,-97 L215,-160 L85,-216 L235,-225 L212,-207 Z" stroke-width="0" fill="#f0e0fd" fill-opacity="0.8" />
<path d="M110,-282 L140,-47 L33,-168 L130,-58 L72,-157 L53,-32 Z" stroke-width="0" fill="#837458" fill-opacity="0.30196078431372547" />
<path d="M170,-60 L81,-284 L167,-238 L163,-105 L136,-93 L56,-288 Z" stroke-width="0" fill="#12fcc6" fill-opacity="0.7647058823529411" />
<path d="M94,-193 L88,-247 L222,-227 L101,-84 L209,-133 L84,-72 Z" stroke-width="0" fill="#ffc952" fill-opacity="0.792156862745098" />
<path d="M70,-61 L232,-170 L135,-172 L53,-98 L90,-135 L161,-162 Z" stroke-width="0" fill="#14bf97" fill-opacity="0.24705882352941178" />
<path d="M28,-239 L130,-295 L237,-44 L37,-163 L59,-157 L35,-304 Z" stroke-width="0" fill="#732e00" fill-opacity="0.5490196078431373" />
<path d="M227,-221 L25,-299 L150,-92 L117,-219 L110,-123 L60,-25 Z" stroke-width="0" fill="#484053" fill-opacity="0.5019607843137255" />
<path d="M69,-241 L143,-233 L113,-101 L30,-164 L115,-214 L128,-70 Z" stroke-width="0" fill="#261d02" fill-opacity="0.5019607843137255" />
<path d="M130,-244 L136,-157 L123,-202 L75,-244 L166,-35 L117,-172 Z" stroke-width="0" fill="#106348" fill-opacity="0.0784313725490196" />
<path d="M104,-284 L137,-130 L102,-126 L93,-55 L62,-283 L127,-161 Z" stroke-width="0" fill="#e0a1cc" fill-opacity="0.9176470588235294" />
<path d="M142,-114 L30,-223 L51,-184 L100,-155 L179,-35 L164,-182 Z" stroke-width="0" fill="#943402" fill-opacity="0.5019607843137255" />
<path d="M121,-312 L91,-164 L210,-152 L125,-145 L215,-60 L201,-96 Z" stroke-width="0" fill="#39ddb4" fill-opacity="0.7215686274509804" />
<path d="M221,-106 L206,-243 L247,-174 L87,-31 L120,-219 L68,-272 Z" stroke-width="0" fill="#cfab34" fill-opacity="0.49411764705882355" />
<path d="M69,-293 L175,-118 L101,-90 L182,-117 L89,-32 L47,-151 Z" stroke-width="0" fill="#c7fbed" fill-opacity="0.7803921568627451" />
<path d="M68,-250 L149,-258 L34,-106 L37,-178 L103,-315 L58,-146 Z" stroke-width="0" fill="#252a31" fill-opacity="0.3058823529411765" />
<path d="M236,-226 L236,-284 L64,-92 L88,-146 L137,-52 L183,-227 Z" stroke-width="0" fill="#efca0b" fill-opacity="0.3176470588235294" />
<path d="M67,-67 L108,-317 L95,-81 L88,-196 L99,-77 L198,-58 Z" stroke-width="0" fill="#3aa782" fill-opacity="0.28627450980392155" />
<path d="M53,-159 L215,-163 L146,-168 L55,-179 L75,-212 L130,-324 Z" stroke-width="0" fill="#4e5a1b" fill-opacity="0.8823529411764706" />
<path d="M121,-310 L222,-209 L28,-60 L173,-41 L40,-47 L96,-126 Z" stroke-width="0" fill="#c372b2" fill-opacity="0.4392156862745098" />
<path d="M28,-92 L192,-145 L157,-54 L247,-231 L175,-224 L157,-261 Z" stroke-width="0" fill="#9b8440" fill-opacity="0.6039215686274509" />
<path d="M123,-297 L98,-118 L88,-82 L223,-267 L136,-263 L78,-147 Z" stroke-width="0" fill="#dab3d7" fill-opacity="0.03137254901960784" />
<path d="M181,-33 L91,-165 L58,-65 L43,-131 L45,-295 L50,-80 Z" stroke-width="0" fill="#663c00" fill-opacity="0.5019607843137255" />
<path d="M73,-169 L248,-323 L217,-212 L154,-306 L86,-105 L94,-268 Z" stroke-width="0" fill="#180000" fill-opacity="0.29411764705882354" />
<path d="M143,-240 L76,-145 L116,-130 L200,-114 L133,-92 L114,-34 Z" stroke-width="0" fill="#dab1dc" fill-opacity="0.7215686274509804" />
<path d="M152,-91 L203,-118 L226,-100 L174,-280 L207,-208 L162,-171 Z" stroke-width="0" fill="#cbfec7" fill-opacity="0.8901960784313725" />
<path d="M227,-221 L149,-232 L249,-256 L153,-316 L93,-319 L40,-226 Z" stroke-width="0" fill="#772e04" fill-opacity="0.4980392156862745" />
<path d="M32,-47 L195,-282 L93,-158 L167,-241 L34,-253 L158,-106 Z" stroke-width="0" fill="#dbb873" fill-opacity="0.8705882352941177" />
<path d="M110,-235 L225,-98 L207,-112 L191,-74 L37,-236 L244,-165 Z" stroke-width="0" fill="#d7d5a7" fill-opacity="0.7372549019607844" />
<path d="M170,-221 L246,-165 L198,-125 L163,-134 L129,-26 L88,-290 Z" stroke-width="0" fill="#d169d1" fill-opacity="0.4666666666666667" />
<path d="M199,-123 L48,-71 L172,-324 L70,-163 L189,-141 L81,-79 Z" stroke-width="0" fill="#59982f" fill-opacity="0.49411764705882355" />
<path d="M189,-80 L195,-201 L144,-96 L61,-65 L209,-322 L168,-300 Z" stroke-width="0" fill="#845b38" fill-opacity="0.6" />
<path d="M157,-310 L54,-258 L119,-127 L103,-75 L176,-243 L223,-248 Z" stroke-width="0" fill="#bafcf6" fill-opacity="0.3137254901960784" />
<path d="M168,-213 L94,-215 L60,-35 L85,-29 L156,-144 L170,-321 Z" stroke-width="0" fill="#8d6543" fill-opacity="0.49411764705882355" />
<path d="M203,-52 L207,-108 L46,-180 L63,-90 L226,-58 L121,-114 Z" stroke-width="0" fill="#71d403" fill-opacity="0.2196078431372549" />
<path d="M57,-125 L70,-200 L248,-32 L79,-121 L131,-131 L136,-107 Z" stroke-width="0" fill="#1a0000" fill-opacity="0.5803921568627451" />
<path d="M87,-79 L216,-36 L113,-201 L249,-154 L119,-142 L50,-45 Z" stroke-width="0" fill="#e3b39c" fill-opacity="0.6313725490196078" />
<path d="M142,-44 L28,-39 L111,-84 L173,-237 L133,-72 L34,-253 Z" stroke-width="0" fill="#ce82a1" fill-opacity="0.07058823529411765" />
<path d="M116,-129 L80,-75 L33,-136 L160,-214 L202,-258 L171,-51 Z" stroke-width="0" fill="#f7fc09" fill-opacity="0.9568627450980393" />
<path d="M168,-149 L147,-58 L218,-146 L55,-171 L246,-201 L32,-75 Z" stroke-width="0" fill="#a87b25" fill-opacity="0.47058823529411764" />
<path d="M42,-120 L27,-80 L62,-27 L150,-252 L181,-269 L80,-220 Z" stroke-width="0" fill="#898d44" fill-opacity="0.47058823529411764" />
<path d="M145,-263 L30,-48 L217,-60 L168,-204 L171,-197 L33,-99 Z" stroke-width="0" fill="#623aa6" fill-opacity="0.33725490196078434" />
<path d="M175,-49 L32,-128 L75,-82 L236,-86 L156,-59 L46,-208 Z" stroke-width="0" fill="#383c95" fill-opacity="0.807843137254902" />
<path d="M102,-153 L86,-29 L165,-44 L176,-116 L246,-160 L181,-272 Z" stroke-width="0" fill="#695402" fill-opacity="0.5019607843137255" />
<path d="M199,-314 L180,-268 L241,-237 L116,-150 L83,-49 L170,-152 Z" stroke-width="0" fill="#c4b6b2" fill-opacity="0.7490196078431373" />
<path d="M33,-237 L223,-297 L135,-300 L143,-90 L153,-82 L193,-135 Z" stroke-width="0" fill="#a5a880" fill-opacity="0.8235294117647058" />
<path d="M81,-174 L159,-220 L152,-106 L45,-258 L116,-151 L158,-81 Z" stroke-width="0" fill="#e995d6" fill-opacity="0.8392156862745098" />
<path d="M197,-106 L118,-182 L185,-175 L185,-234 L197,-225 L79,-235 Z" stroke-width="0" fill="#dbeddc" fill-opacity="0.7333333333333333" />
<path d="M39,-189 L226,-278 L27,-179 L148,-39 L194,-80 L129,-191 Z" stroke-width="0" fill="#a9aa96" fill-opacity="0.8509803921568627" />
<path d="M198,-142 L41,-302 L142,-265 L33,-232 L71,-239 L26,-94 Z" stroke-width="0" fill="#bacdc8" fill-opacity="0.984313725490196" />
<path d="M29,-170 L130,-274 L36,-302 L54,-199 L48,-110 L186,-228 Z" stroke-width="0" fill="#b6946a" fill-opacity="0.8470588235294118" />
<path d="M75,-141 L115,-32 L71,-293 L176,-56 L111,-223 L196,-42 Z" stroke-width="0" fill="#ad6b62" fill-opacity="0.5333333333333333" />
<path d="M177,-135 L75,-188 L141,-73 L193,-31 L215,-300 L212,-101 Z" stroke-width="0" fill="#b9ad82" fill-opacity="0.7372549019607844" />
<path d="M234,-287 L102,-207 L215,-161 L76,-50 L249,-103 L40,-285 Z" stroke-width="0" fill="#d59179" fill-opacity="0.5294117647058824" />
<path d="M130,-263 L215,-176 L149,-266 L92,-161 L124,-121 L203,-160 Z" stroke-width="0" fill="#b4bfad" fill-opacity="0.7647058823529411" />
<path d="M50,-175 L36,-117 L26,-90 L103,-76 L130,-80 L167,-193 Z" stroke-width="0" fill="#00d4c2" fill-opacity="0.09803921568627451" />
<path d="M248,-86 L37,-122 L58,-163 L99,-268 L180,-47 L93,-109 Z" stroke-width="0" fill="#617b79" fill-opacity="0.27058823529411763" />
<path d="M173,-98 L58,-211 L77,-32 L33,-85 L206,-296 L120,-33 Z" stroke-width="0" fill="#a8e0bd" fill-opacity="0.2823529411764706" />
<path d="M81,-254 L28,-289 L214,-204 L241,-52 L83,-84 L58,-265 Z" stroke-width="0" fill="#251752" fill-opacity="0.8196078431372549" />
<path d="M238,-48 L110,-184 L32,-41 L26,-163 L239,-137 L128,-198 Z" stroke-width="0" fill="#385530" fill-opacity="0.5019607843137255" />
<path d="M77,-143 L110,-134 L123,-212 L26,-246 L106,-168 L222,-56 Z" stroke-width="0" fill="#d96017" fill-opacity="0.32941176470588235" />
<path d="M37,-62 L54,-164 L218,-257 L165,-117 L37,-221 L117,-43 Z" stroke-width="0" fill="#a0c67b" fill-opacity="0.2980392156862745" />
<path d="M41,-46 L120,-159 L198,-168 L85,-136 L41,-301 L133,-95 Z" stroke-width="0" fill="#a69a6c" fill-opacity="0.42745098039215684" />
<path d="M90,-34 L103,-117 L50,-258 L146,-157 L38,-67 L157,-122 Z" stroke-width="0" fill="#5b69f8" fill-opacity="0.12941176470588237" />
<path d="M111,-302 L61,-161 L200,-91 L237,-206 L115,-166 L27,-149 Z" stroke-width="0" fill="#b76665" fill-opacity="0.3568627450980392" />
<path d="M148,-148 L127,-55 L41,-244 L100,-55 L51,-116 L217,-131 Z" stroke-width="0" fill="#1f41e6" fill-opacity="0.16470588235294117" />
<path d="M94,-111 L168,-117 L114,-56 L242,-249 L220,-95 L114,-238 Z" stroke-width="0" fill="#cdc28e" fill-opacity="0.796078431372549" />
<path d="M173,-181 L55,-183 L153,-285 L179,-170 L144,-62 L210,-70 Z" stroke-width="0" fill="#a5d987" fill-opacity="0.5215686274509804" />
<path d="M131,-237 L55,-292 L145,-100 L54,-224 L113,-309 L219,-154 Z" stroke-width="0" fill="#8abd9f" fill-opacity="0.23921568627450981" />
<path d="M210,-133 L146,-75 L36,-280 L125,-189 L89,-298 L28,-131 Z" stroke-width="0" fill="#b39381" fill-opacity="0.9058823529411765" />
<path d="M79,-295 L39,-158 L76,-173 L167,-307 L47,-204 L131,-49 Z" stroke-width="0" fill="#ce857a" fill-opacity="0.45098039215686275" />
<path d="M59,-55 L28,-167 L44,-26 L55,-68 L154,-158 L91,-115 Z" stroke-width="0" fill="#825c66" fill-opacity="0.34901960784313724" />
<path d="M179,-252 L69,-200 L31,-94 L165,-243 L28,-287 L208,-145 Z" stroke-width="0" fill="#7a3e4e" fill-opacity="0.2549019607843137" />
<path d="M209,-181 L165,-235 L210,-98 L120,-298 L245,-195 L231,-131 Z" stroke-width="0" fill="#c5c78f" fill-opacity="0.9725490196078431" />
<path d="M105,-284 L138,-123 L84,-49 L156,-165 L25,-154 L84,-37 Z" stroke-width="0" fill="#a42a5b" fill-opacity="0.41568627450980394" />
<path d="M211,-112 L39,-37 L157,-94 L64,-275 L242,-171 L28,-74 Z" stroke-width="0" fill="#deef7c" fill-opacity="0.1607843137254902" />
<path d="M169,-282 L124,-216 L108,-265 L130,-274 L238,-202 L245,-94 Z" stroke-width="0" fill="#d3b2a2" fill-opacity="0.8509803921568627" />
<path d="M111,-298 L191,-119 L105,-151 L62,-112 L70,-221 L127,-77 Z" stroke-width="0" fill="#eb4bae" fill-opacity="0.34901960784313724" />
<path d="M149,-80 L159,-257 L145,-263 L164,-258 L223,-143 L203,-65 Z" stroke-width="0" fill="#d6e399" fill-opacity="0.5098039215686274" />
<path d="M243,-50 L73,-197 L138,-237 L213,-295 L78,-193 L181,-220 Z" stroke-width="0" fill="#cab254" fill-opacity="0.5490196078431373" />
<path d="M173,-93 L68,-34 L164,-61 L209,-122 L107,-155 L106,-77 Z" stroke-width="0" fill="#ab7b3f" fill-opacity="0.5098039215686274" />
<path d="M120,-74 L28,-62 L184,-160 L70,-267 L85,-147 L203,-308 Z" stroke-width="0" fill="#fe9588" fill-opacity="0.15294117647058825" />
<path d="M102,-192 L102,-149 L243,-138 L175,-112 L121,-183 L93,-195 Z" stroke-width="0" fill="#a0504a" fill-opacity="0.12941176470588237" />
<path d="M185,-53 L34,-75 L38,-199 L145,-277 L46,-167 L210,-56 Z" stroke-width="0" fill="#da9c85" fill-opacity="0.2980392156862745" />
<path d="M221,-302 L38,-163 L157,-276 L219,-58 L120,-176 L159,-302 Z" stroke-width="0" fill="#adb494" fill-opacity="0.403921568627451" />
<path d="M80,-260 L227,-286 L47,-145 L68,-203 L50,-128 L165,-157 Z" stroke-width="0" fill="#7e6358" fill-opacity="0.14901960784313725" />
<path d="M245,-107 L124,-278 L158,-183 L157,-200 L40,-294 L110,-110 Z" stroke-width="0" fill="#b3848f" fill-opacity="0.30196078431372547" />
<path d="M72,-82 L72,-58 L224,-69 L173,-264 L225,-282 L140,-113 Z" stroke-width="0" fill="#a5a9ba" fill-opacity="0.20392156862745098" />
<path d="M170,-269 L193,-232 L147,-64 L166,-119 L131,-245 L210,-143 Z" stroke-width="0" fill="#e8c6b4" fill-opacity="0.403921568627451" />
<path d="M68,-231 L168,-173 L49,-144 L73,-248 L207,-198 L80,-285 Z" stroke-width="0" fill="#d3b88b" fill-opacity="0.5019607843137255" />
<path d="M34,-271 L127,-245 L138,-103 L47,-113 L122,-142 L34,-113 Z" stroke-width="0" fill="#8bac8a" fill-opacity="0.5333333333333333" />
<path d="M69,-48 L149,-41 L74,-208 L138,-324 L139,-241 L71,-233 Z" stroke-width="0" fill="#979c49" fill-opacity="0.2784313725490196" />
<path d="M72,-286 L116,-157 L193,-286 L110,-63 L91,-143 L212,-61 Z" stroke-width="0" fill="#b5ae84" fill-opacity="0.5019607843137255" />
<text x="137.5" y="12.5" font-size="20.0" fill="black" text-anchor="middle" transform="translate(0,5.0)">8 OF AIR</text>
</svg>