<?xml version="1.0" encoding="UTF-8"?>
<svg xmlns="http://www.w3.org/2000/svg" xmlns:xlink="http://www.w3.org/1999/xlink"
     width="896" height="1496" viewBox="0 -1400 896 1496" style="font-size:70;font-family:Poor Richard, Times New Roman;stroke:black;stroke-width:1;fill:none">
<defs>
</defs>
<path d="M734,-874 L962,-786 L258,-270 L638,-858 L650,-850 L974,-598 Z" stroke-width="0" fill="#9c0000" fill-opacity="0.8470588235294118" />
<path d="M470,-658 L210,-422 L202,-318 L414,-862 L614,-590 L638,-302 Z" stroke-width="0" fill="#ed8997" fill-opacity="0.9529411764705882" />
<path d="M402,-282 L742,-594 L774,-622 L838,-602 L702,-250 L250,-906 Z" stroke-width="0" fill="#791821" fill-opacity="0.26666666666666666" />
<path d="M670,-470 L214,-118 L750,-574 L178,-946 L642,-794 L338,-1094 Z" stroke-width="0" fill="#ca0000" fill-opacity="0.8941176470588236" />
<path d="M782,-498 L902,-334 L754,-1110 L298,-1150 L686,-390 L718,-334 Z" stroke-width="0" fill="#a22632" fill-opacity="0.47058823529411764" />
<path d="M314,-758 L626,-266 L178,-978 L190,-682 L954,-726 L430,-478 Z" stroke-width="0" fill="#c60000" fill-opacity="0.9568627450980393" />
<path d="M838,-222 L634,-1206 L738,-1118 L882,-574 L406,-490 L266,-1006 Z" stroke-width="0" fill="#df0c15" fill-opacity="0.2549019607843137" />
<path d="M914,-166 L94,-558 L466,-302 L738,-1074 L102,-314 L462,-866 Z" stroke-width="0" fill="#2c5cd6" fill-opacity="0.21176470588235294" />
<path d="M110,-558 L354,-282 L506,-1038 L630,-798 L466,-970 L614,-598 Z" stroke-width="0" fill="#ccc2c7" fill-opacity="0.0" />
<path d="M690,-802 L162,-1126 L462,-1102 L406,-174 L294,-322 L650,-342 Z" stroke-width="0" fill="#856600" fill-opacity="0.9215686274509803" />
<path d="M666,-814 L398,-950 L838,-146 L582,-1242 L578,-482 L658,-842 Z" stroke-width="0" fill="#3a0006" fill-opacity="0.5333333333333333" />
<path d="M678,-1170 L874,-670 L726,-410 L374,-798 L390,-1246 L330,-802 Z" stroke-width="0" fill="#680000" fill-opacity="0.9019607843137255" />
<path d="M134,-586 L486,-530 L298,-422 L586,-462 L238,-146 L934,-878 Z" stroke-width="0" fill="#fd0ab2" fill-opacity="0.4627450980392157" />
<path d="M218,-1058 L626,-790 L902,-894 L190,-786 L606,-1134 L666,-626 Z" stroke-width="0" fill="#47a1d7" fill-opacity="0.6823529411764706" />
<path d="M746,-90 L302,-1166 L650,-306 L858,-346 L302,-762 L90,-794 Z" stroke-width="0" fill="#a60000" fill-opacity="0.7803921568627451" />
<path d="M778,-1078 L698,-1178 L306,-514 L910,-198 L194,-246 L414,-482 Z" stroke-width="0" fill="#40dfb9" fill-opacity="0.08235294117647059" />
<path d="M446,-194 L914,-510 L954,-538 L530,-594 L498,-1002 L466,-314 Z" stroke-width="0" fill="#7f1147" fill-opacity="0.37254901960784315" />
<path d="M798,-1246 L410,-374 L486,-378 L242,-154 L410,-630 L750,-542 Z" stroke-width="0" fill="#bb0000" fill-opacity="0.45098039215686275" />
<path d="M830,-1054 L954,-1242 L146,-398 L254,-806 L930,-578 L658,-730 Z" stroke-width="0" fill="#b00000" fill-opacity="0.8235294117647058" />
<path d="M354,-994 L182,-1030 L718,-298 L514,-290 L914,-838 L886,-534 Z" stroke-width="0" fill="#19fee7" fill-opacity="0.9450980392156862" />
<path d="M862,-250 L454,-674 L110,-726 L298,-594 L970,-842 L94,-266 Z" stroke-width="0" fill="#bc1a00" fill-opacity="0.8" />
<path d="M170,-410 L934,-286 L210,-726 L386,-1050 L710,-750 L830,-426 Z" stroke-width="0" fill="#6beaca" fill-opacity="0.023529411764705882" />
<path d="M790,-130 L774,-850 L290,-978 L102,-174 L758,-114 L710,-606 Z" stroke-width="0" fill="#770000" fill-opacity="0.7803921568627451" />
<path d="M106,-86 L906,-590 L226,-198 L698,-778 L946,-1178 L270,-626 Z" stroke-width="0" fill="#6f0000" fill-opacity="0.8705882352941177" />
<path d="M750,-866 L518,-258 L954,-610 L494,-850 L574,-502 L586,-918 Z" stroke-width="0" fill="#800000" fill-opacity="0.8705882352941177" />
<path d="M550,-1182 L650,-374 L250,-478 L758,-1034 L762,-1066 L170,-566 Z" stroke-width="0" fill="#fde6bb" fill-opacity="0.22745098039215686" />
<path d="M718,-738 L458,-634 L822,-406 L778,-262 L914,-1234 L630,-334 Z" stroke-width="0" fill="#b70000" fill-opacity="0.8156862745098039" />
<path d="M174,-922 L546,-1114 L670,-154 L446,-1254 L202,-1054 L386,-762 Z" stroke-width="0" fill="#680000" fill-opacity="0.9333333333333333" />
<path d="M262,-1246 L610,-758 L902,-98 L174,-378 L542,-334 L358,-894 Z" stroke-width="0" fill="#792f61" fill-opacity="0.5333333333333333" />
<path d="M326,-174 L478,-350 L766,-726 L290,-950 L930,-750 L390,-202 Z" stroke-width="0" fill="#b13f89" fill-opacity="0.8705882352941177" />
<path d="M562,-1222 L914,-690 L806,-734 L214,-518 L338,-818 L446,-974 Z" stroke-width="0" fill="#e90000" fill-opacity="0.8117647058823529" />
<path d="M206,-438 L330,-574 L226,-822 L214,-1234 L166,-1094 L462,-346 Z" stroke-width="0" fill="#710000" fill-opacity="0.9294117647058824" />
<path d="M510,-842 L630,-110 L742,-662 L734,-546 L86,-938 L122,-238 Z" stroke-width="0" fill="#990000" fill-opacity="0.8901960784313725" />
<path d="M278,-194 L898,-450 L318,-254 L414,-1158 L330,-282 L178,-130 Z" stroke-width="0" fill="#000000" fill-opacity="0.9450980392156862" />
<path d="M102,-370 L714,-510 L406,-174 L654,-866 L442,-118 L494,-946 Z" stroke-width="0" fill="#af0000" fill-opacity="0.9176470588235294" />
<path d="M630,-490 L978,-186 L170,-982 L850,-226 L942,-434 L582,-622 Z" stroke-width="0" fill="#a92c27" fill-opacity="0.9254901960784314" />
<path d="M914,-810 L650,-106 L122,-986 L818,-1202 L230,-1058 L854,-1266 Z" stroke-width="0" fill="#960000" fill-opacity="0.8392156862745098" />
<path d="M738,-374 L638,-626 L830,-186 L698,-98 L646,-202 L402,-1170 Z" stroke-width="0" fill="#fb515d" fill-opacity="0.7568627450980392" />
<path d="M190,-1098 L438,-1058 L794,-90 L954,-1158 L118,-130 L418,-390 Z" stroke-width="0" fill="#7f0000" fill-opacity="0.9803921568627451" />
<path d="M902,-798 L610,-618 L678,-466 L102,-910 L770,-722 L578,-614 Z" stroke-width="0" fill="#bcd74e" fill-opacity="0.6941176470588235" />
<path d="M818,-622 L690,-570 L646,-118 L518,-958 L794,-158 L686,-546 Z" stroke-width="0" fill="#230036" fill-opacity="0.17254901960784313" />
<path d="M650,-1182 L474,-594 L106,-1150 L862,-814 L458,-774 L226,-878 Z" stroke-width="0" fill="#402700" fill-opacity="0.9529411764705882" />
<path d="M102,-182 L618,-910 L402,-378 L82,-1206 L290,-206 L978,-1066 Z" stroke-width="0" fill="#730000" fill-opacity="0.8862745098039215" />
<path d="M438,-298 L770,-1006 L198,-618 L166,-414 L594,-374 L154,-190 Z" stroke-width="0" fill="#fa0f4a" fill-opacity="0.0196078431372549" />
<path d="M854,-398 L522,-1102 L250,-94 L830,-266 L566,-766 L470,-514 Z" stroke-width="0" fill="#4d0000" fill-opacity="0.7568627450980392" />
<path d="M386,-634 L874,-326 L246,-634 L570,-266 L482,-1198 L970,-950 Z" stroke-width="0" fill="#db1e12" fill-opacity="0.8352941176470589" />
<path d="M870,-550 L386,-542 L366,-190 L962,-974 L802,-254 L138,-1238 Z" stroke-width="0" fill="#891900" fill-opacity="0.9333333333333333" />
<path d="M126,-1018 L102,-230 L242,-354 L634,-266 L730,-1258 L758,-1206 Z" stroke-width="0" fill="#ba0000" fill-opacity="0.7450980392156863" />
<path d="M150,-762 L702,-1078 L606,-1070 L394,-574 L330,-674 L410,-330 Z" stroke-width="0" fill="#251f1a" fill-opacity="0.6196078431372549" />
<path d="M506,-886 L954,-1054 L646,-686 L246,-434 L338,-86 L322,-910 Z" stroke-width="0" fill="#220000" fill-opacity="0.9411764705882353" />
<path d="M830,-794 L678,-1042 L666,-1054 L774,-870 L434,-902 L94,-498 Z" stroke-width="0" fill="#aca112" fill-opacity="0.8705882352941177" />
<path d="M182,-1102 L178,-294 L898,-198 L622,-110 L138,-542 L506,-454 Z" stroke-width="0" fill="#a01700" fill-opacity="0.6039215686274509" />
<path d="M162,-858 L122,-650 L298,-366 L266,-1274 L898,-810 L90,-298 Z" stroke-width="0" fill="#250000" fill-opacity="0.6039215686274509" />
<path d="M622,-790 L758,-114 L314,-366 L470,-502 L562,-1186 L526,-666 Z" stroke-width="0" fill="#a2dcd7" fill-opacity="0.47843137254901963" />
<path d="M846,-298 L502,-698 L238,-906 L238,-754 L926,-90 L402,-754 Z" stroke-width="0" fill="#800014" fill-opacity="0.48627450980392156" />
<path d="M842,-1138 L210,-870 L102,-814 L578,-422 L686,-230 L402,-650 Z" stroke-width="0" fill="#eb794d" fill-opacity="0.38823529411764707" />
<path d="M366,-102 L226,-1050 L838,-942 L874,-926 L190,-482 L166,-410 Z" stroke-width="0" fill="#bfd058" fill-opacity="0.23529411764705882" />
<path d="M838,-846 L426,-914 L338,-610 L82,-730 L234,-622 L910,-178 Z" stroke-width="0" fill="#927c6c" fill-opacity="0.396078431372549" />
<path d="M230,-1062 L918,-390 L242,-750 L522,-218 L914,-842 L238,-114 Z" stroke-width="0" fill="#a20000" fill-opacity="0.9294117647058824" />
<path d="M510,-570 L322,-618 L466,-866 L830,-858 L886,-186 L522,-814 Z" stroke-width="0" fill="#fcf4fd" fill-opacity="0.7215686274509804" />
<path d="M142,-134 L282,-754 L554,-770 L582,-678 L242,-602 L342,-570 Z" stroke-width="0" fill="#bf0000" fill-opacity="0.7333333333333333" />
<path d="M662,-1006 L542,-442 L306,-578 L670,-778 L850,-390 L602,-898 Z" stroke-width="0" fill="#e7f2a6" fill-opacity="0.9294117647058824" />
<path d="M570,-190 L874,-238 L854,-730 L930,-262 L410,-546 L338,-1166 Z" stroke-width="0" fill="#af4f52" fill-opacity="0.4666666666666667" />
<path d="M218,-306 L278,-318 L178,-642 L418,-770 L442,-722 L154,-1138 Z" stroke-width="0" fill="#59eccb" fill-opacity="0.34901960784313724" />
<path d="M230,-390 L706,-534 L646,-446 L610,-422 L810,-546 L450,-290 Z" stroke-width="0" fill="#5fc6fd" fill-opacity="0.047058823529411764" />
<path d="M886,-666 L418,-362 L262,-858 L870,-302 L114,-354 L150,-434 Z" stroke-width="0" fill="#c60013" fill-opacity="0.1843137254901961" />
<path d="M414,-1230 L158,-686 L530,-482 L298,-374 L98,-470 L786,-102 Z" stroke-width="0" fill="#a4372d" fill-opacity="0.7254901960784313" />
<path d="M386,-1102 L458,-738 L926,-838 L902,-518 L418,-662 L474,-598 Z" stroke-width="0" fill="#fc2822" fill-opacity="0.7803921568627451" />
<path d="M194,-578 L258,-662 L514,-774 L178,-1206 L770,-566 L674,-274 Z" stroke-width="0" fill="#6e2700" fill-opacity="0.6862745098039216" />
<path d="M318,-350 L346,-890 L270,-446 L434,-1202 L590,-678 L866,-598 Z" stroke-width="0" fill="#bf852b" fill-opacity="0.40784313725490196" />
<path d="M846,-966 L514,-606 L402,-830 L706,-270 L86,-994 L150,-318 Z" stroke-width="0" fill="#8a0b00" fill-opacity="0.9294117647058824" />
<path d="M414,-1050 L906,-550 L546,-514 L426,-842 L394,-850 L106,-674 Z" stroke-width="0" fill="#08e0a6" fill-opacity="0.10980392156862745" />
<path d="M930,-638 L142,-94 L138,-162 L482,-322 L710,-294 L566,-1062 Z" stroke-width="0" fill="#9c0000" fill-opacity="0.9254901960784314" />
<path d="M290,-430 L374,-118 L458,-594 L194,-734 L186,-982 L470,-322 Z" stroke-width="0" fill="#f4e691" fill-opacity="0.3254901960784314" />
<path d="M774,-210 L926,-1010 L682,-506 L554,-970 L242,-806 L238,-502 Z" stroke-width="0" fill="#cd0f5d" fill-opacity="0.00784313725490196" />
<path d="M246,-490 L186,-818 L374,-1174 L774,-666 L770,-578 L318,-514 Z" stroke-width="0" fill="#44cadf" fill-opacity="0.9176470588235294" />
<path d="M466,-802 L422,-830 L630,-390 L166,-930 L442,-378 L642,-1014 Z" stroke-width="0" fill="#0e0016" fill-opacity="0.7254901960784313" />
<path d="M678,-1082 L538,-1074 L770,-158 L238,-1074 L102,-874 L502,-198 Z" stroke-width="0" fill="#d73d13" fill-opacity="0.30196078431372547" />
<path d="M742,-1202 L342,-606 L802,-758 L126,-234 L270,-458 L462,-238 Z" stroke-width="0" fill="#a91c00" fill-opacity="0.8588235294117647" />
<path d="M294,-682 L938,-90 L282,-1034 L742,-550 L222,-238 L322,-1202 Z" stroke-width="0" fill="#a70000" fill-opacity="0.5568627450980392" />
<path d="M934,-210 L434,-118 L486,-1126 L482,-1034 L422,-534 L678,-678 Z" stroke-width="0" fill="#4d2a0a" fill-opacity="0.06666666666666667" />
<path d="M790,-374 L466,-726 L302,-174 L642,-254 L770,-818 L658,-954 Z" stroke-width="0" fill="#a00000" fill-opacity="0.8901960784313725" />
<path d="M770,-398 L610,-218 L502,-1206 L370,-210 L934,-286 L142,-146 Z" stroke-width="0" fill="#78132b" fill-opacity="0.1607843137254902" />
<path d="M106,-910 L382,-90 L230,-190 L586,-642 L942,-1158 L442,-1118 Z" stroke-width="0" fill="#970000" fill-opacity="0.8313725490196079" />
<path d="M730,-646 L110,-1014 L622,-226 L90,-442 L718,-674 L370,-1074 Z" stroke-width="0" fill="#1b1000" fill-opacity="0.32941176470588235" />
<path d="M694,-926 L834,-1006 L322,-862 L254,-830 L422,-522 L598,-1114 Z" stroke-width="0" fill="#610200" fill-opacity="0.26666666666666666" />
<path d="M586,-1014 L226,-578 L282,-630 L302,-1234 L258,-522 L190,-166 Z" stroke-width="0" fill="#921e1c" fill-opacity="0.4117647058823529" />
<path d="M766,-158 L226,-762 L374,-454 L326,-954 L822,-598 L566,-478 Z" stroke-width="0" fill="#8b0011" fill-opacity="0.0784313725490196" />
<path d="M346,-858 L670,-1238 L666,-286 L102,-1266 L214,-422 L426,-342 Z" stroke-width="0" fill="#8a0400" fill-opacity="0.7568627450980392" />
<path d="M662,-746 L698,-606 L346,-1254 L370,-574 L218,-726 L754,-730 Z" stroke-width="0" fill="#6b3228" fill-opacity="0.4196078431372549" />
<path d="M574,-742 L414,-1142 L310,-542 L842,-862 L338,-638 L950,-490 Z" stroke-width="0" fill="#b6ef41" fill-opacity="0.13725490196078433" />
<path d="M942,-162 L322,-382 L854,-822 L794,-962 L806,-1062 L382,-190 Z" stroke-width="0" fill="#b19a0e" fill-opacity="0.16470588235294117" />
<path d="M486,-654 L314,-1174 L758,-230 L950,-794 L342,-894 L578,-1018 Z" stroke-width="0" fill="#880006" fill-opacity="0.16470588235294117" />
<path d="M326,-914 L510,-1058 L290,-494 L202,-642 L214,-234 L622,-1050 Z" stroke-width="0" fill="#cd0c00" fill-opacity="0.3333333333333333" />
<path d="M806,-98 L110,-662 L866,-986 L558,-506 L846,-838 L114,-862 Z" stroke-width="0" fill="#8a1e0a" fill-opacity="0.42745098039215684" />
<path d="M202,-1254 L766,-754 L194,-142 L410,-866 L330,-582 L654,-498 Z" stroke-width="0" fill="#810e02" fill-opacity="0.7176470588235294" />
<path d="M610,-330 L394,-450 L478,-750 L718,-474 L974,-1106 L390,-1114 Z" stroke-width="0" fill="#a91d10" fill-opacity="0.5529411764705883" />
<path d="M766,-674 L366,-474 L434,-702 L758,-598 L374,-186 L438,-1226 Z" stroke-width="0" fill="#730005" fill-opacity="0.41568627450980394" />
<path d="M130,-626 L146,-454 L222,-542 L530,-274 L298,-842 L102,-126 Z" stroke-width="0" fill="#790000" fill-opacity="0.8941176470588236" />
<path d="M238,-802 L542,-798 L750,-662 L930,-1086 L514,-610 L362,-1026 Z" stroke-width="0" fill="#940000" fill-opacity="0.6" />
<text x="448.0" y="0" font-size="70.0" fill="black" text-anchor="middle" transform="translate(0,17.5)">7 OF AIR</text>
</svg>