<?xml version="1.0" encoding="UTF-8"?>
<svg xmlns="http://www.w3.org/2000/svg" xmlns:xlink="http://www.w3.org/1999/xlink"
     width="896" height="1496" viewBox="0 -1400 896 1496" style="font-size:70;font-family:Poor Richard, Times New Roman;stroke:black;stroke-width:1;fill:none">
<defs>
</defs>
<path d="M398,-646 L334,-990 L126,-670 L202,-518 L106,-450 L318,-222 Z" stroke-width="0" fill="#c400fd" fill-opacity="0.6352941176470588" />
<path d="M226,-1142 L782,-866 L398,-582 L754,-474 L334,-678 L226,-150 Z" stroke-width="0" fill="#8f29bb" fill-opacity="0.2901960784313726" />
<path d="M466,-262 L726,-538 L414,-110 L478,-186 L102,-318 L298,-330 Z" stroke-width="0" fill="#b400d8" fill-opacity="0.8509803921568627" />
<path d="M738,-1166 L662,-802 L226,-202 L478,-1202 L738,-1242 L590,-1230 Z" stroke-width="0" fill="#c300ef" fill-opacity="0.7137254901960784" />
<path d="M690,-362 L126,-458 L418,-182 L462,-374 L642,-790 L298,-290 Z" stroke-width="0" fill="#ec3f04" fill-opacity="0.25098039215686274" />
<path d="M270,-298 L718,-1102 L246,-802 L386,-486 L750,-334 L614,-578 Z" stroke-width="0" fill="#323619" fill-opacity="0.043137254901960784" />
<path d="M738,-370 L610,-318 L626,-86 L754,-554 L238,-1142 L802,-934 Z" stroke-width="0" fill="#680eb2" fill-opacity="0.00784313725490196" />
<path d="M98,-734 L374,-878 L374,-1234 L302,-1290 L670,-322 L438,-1026 Z" stroke-width="0" fill="#9f00c1" fill-opacity="0.8117647058823529" />
<path d="M502,-282 L694,-214 L122,-838 L774,-526 L162,-190 L526,-710 Z" stroke-width="0" fill="#d9fbf4" fill-opacity="0.043137254901960784" />
<path d="M534,-610 L178,-426 L354,-338 L114,-694 L326,-1134 L678,-706 Z" stroke-width="0" fill="#c400fb" fill-opacity="0.8392156862745098" />
<path d="M662,-1206 L598,-302 L278,-1058 L362,-682 L366,-1030 L194,-486 Z" stroke-width="0" fill="#bc17fa" fill-opacity="0.8117647058823529" />
<path d="M710,-634 L806,-198 L266,-942 L554,-322 L530,-858 L502,-770 Z" stroke-width="0" fill="#f57792" fill-opacity="0.01568627450980392" />
<path d="M394,-434 L274,-806 L414,-822 L242,-466 L250,-386 L218,-502 Z" stroke-width="0" fill="#8e7d86" fill-opacity="0.00392156862745098" />
<path d="M198,-698 L790,-446 L566,-890 L446,-1278 L182,-106 L694,-506 Z" stroke-width="0" fill="#0d78e0" fill-opacity="0.050980392156862744" />
<path d="M634,-462 L106,-686 L542,-354 L130,-306 L174,-1022 L774,-566 Z" stroke-width="0" fill="#f0ffe8" fill-opacity="0.10588235294117647" />
<path d="M314,-1106 L374,-958 L686,-602 L758,-338 L810,-970 L118,-538 Z" stroke-width="0" fill="#d8e1f9" fill-opacity="0.0392156862745098" />
<path d="M682,-566 L206,-578 L390,-290 L422,-830 L170,-1154 L118,-390 Z" stroke-width="0" fill="#d100f2" fill-opacity="0.6352941176470588" />
<path d="M242,-86 L798,-338 L262,-790 L94,-118 L134,-562 L106,-342 Z" stroke-width="0" fill="#bd00cb" fill-opacity="0.9450980392156862" />
<path d="M454,-486 L550,-1230 L102,-242 L390,-166 L746,-642 L386,-850 Z" stroke-width="0" fill="#b7028b" fill-opacity="0.0" />
<path d="M402,-1202 L750,-514 L282,-638 L166,-1174 L602,-1282 L158,-830 Z" stroke-width="0" fill="#8b01c0" fill-opacity="0.5254901960784314" />
<path d="M294,-562 L362,-846 L310,-182 L334,-638 L638,-230 L626,-618 Z" stroke-width="0" fill="#f820f0" fill-opacity="0.984313725490196" />
<path d="M378,-214 L450,-802 L726,-462 L138,-438 L310,-814 L698,-390 Z" stroke-width="0" fill="#c9e48d" fill-opacity="0.9764705882352941" />
<path d="M574,-558 L134,-154 L134,-1254 L750,-454 L366,-918 L386,-642 Z" stroke-width="0" fill="#c100e4" fill-opacity="0.8980392156862745" />
<path d="M118,-118 L578,-1206 L338,-226 L430,-262 L378,-98 L782,-758 Z" stroke-width="0" fill="#d0e08d" fill-opacity="0.00784313725490196" />
<path d="M438,-582 L202,-946 L130,-942 L654,-594 L446,-1050 L266,-750 Z" stroke-width="0" fill="#f800e7" fill-opacity="0.596078431372549" />
<path d="M414,-398 L526,-194 L510,-1218 L438,-882 L306,-334 L406,-686 Z" stroke-width="0" fill="#ea21e5" fill-opacity="0.9490196078431372" />
<path d="M246,-1214 L270,-978 L726,-1166 L538,-362 L510,-1006 L534,-1254 Z" stroke-width="0" fill="#8d00e5" fill-opacity="0.5803921568627451" />
<path d="M90,-846 L546,-106 L542,-690 L670,-1102 L554,-1198 L798,-786 Z" stroke-width="0" fill="#e0efff" fill-opacity="0.06666666666666667" />
<path d="M554,-762 L738,-442 L150,-122 L154,-466 L582,-794 L434,-438 Z" stroke-width="0" fill="#89001d" fill-opacity="0.8509803921568627" />
<path d="M486,-450 L162,-1066 L662,-318 L218,-542 L702,-458 L770,-574 Z" stroke-width="0" fill="#d8faf6" fill-opacity="0.8117647058823529" />
<path d="M562,-1022 L530,-938 L454,-90 L774,-294 L706,-634 L794,-1198 Z" stroke-width="0" fill="#d876fc" fill-opacity="0.9019607843137255" />
<path d="M122,-130 L170,-1182 L538,-190 L170,-158 L94,-430 L618,-1102 Z" stroke-width="0" fill="#d100e4" fill-opacity="0.788235294117647" />
<path d="M494,-526 L326,-882 L382,-766 L526,-1086 L330,-754 L586,-966 Z" stroke-width="0" fill="#bb3ab0" fill-opacity="0.1568627450980392" />
<path d="M202,-1154 L618,-894 L146,-282 L282,-326 L134,-242 L114,-182 Z" stroke-width="0" fill="#bf07eb" fill-opacity="0.8862745098039215" />
<path d="M158,-1222 L670,-698 L242,-750 L238,-306 L258,-654 L450,-1034 Z" stroke-width="0" fill="#9911e4" fill-opacity="0.7411764705882353" />
<path d="M286,-626 L690,-326 L610,-350 L186,-554 L342,-298 L570,-1146 Z" stroke-width="0" fill="#fb9737" fill-opacity="0.0" />
<path d="M274,-462 L726,-402 L714,-318 L382,-786 L594,-326 L762,-338 Z" stroke-width="0" fill="#aad2f6" fill-opacity="0.9647058823529412" />
<path d="M130,-190 L206,-1002 L438,-130 L130,-290 L702,-1262 L786,-506 Z" stroke-width="0" fill="#e7e3ff" fill-opacity="0.3764705882352941" />
<path d="M162,-558 L694,-462 L94,-982 L594,-942 L154,-1114 L254,-618 Z" stroke-width="0" fill="#d21ae7" fill-opacity="1.0" />
<path d="M730,-594 L246,-638 L618,-590 L518,-810 L518,-1198 L210,-910 Z" stroke-width="0" fill="#f5530c" fill-opacity="0.00392156862745098" />
<path d="M706,-950 L478,-1110 L526,-1174 L282,-1118 L722,-274 L610,-922 Z" stroke-width="0" fill="#f9f6fe" fill-opacity="0.9607843137254902" />
<path d="M426,-818 L802,-558 L246,-350 L574,-878 L110,-898 L342,-1018 Z" stroke-width="0" fill="#d9f9ec" fill-opacity="0.10588235294117647" />
<path d="M590,-778 L738,-1186 L178,-626 L186,-1194 L510,-818 L802,-942 Z" stroke-width="0" fill="#ee13e7" fill-opacity="0.11764705882352941" />
<path d="M370,-90 L506,-854 L362,-926 L422,-578 L522,-690 L86,-934 Z" stroke-width="0" fill="#b200c7" fill-opacity="0.8745098039215686" />
<path d="M462,-666 L402,-1098 L414,-350 L334,-418 L650,-590 L314,-1294 Z" stroke-width="0" fill="#b400d5" fill-opacity="0.8117647058823529" />
<path d="M86,-86 L306,-90 L522,-1226 L226,-818 L662,-122 L626,-386 Z" stroke-width="0" fill="#9c0021" fill-opacity="0.8666666666666667" />
<path d="M310,-1298 L306,-858 L402,-758 L122,-766 L370,-1254 L502,-186 Z" stroke-width="0" fill="#c117d6" fill-opacity="0.9529411764705882" />
<path d="M106,-146 L474,-1190 L262,-390 L466,-1038 L790,-126 L510,-242 Z" stroke-width="0" fill="#d90036" fill-opacity="0.9450980392156862" />
<path d="M518,-834 L90,-182 L546,-654 L282,-570 L442,-774 L430,-618 Z" stroke-width="0" fill="#750014" fill-opacity="0.9098039215686274" />
<path d="M298,-574 L246,-94 L534,-134 L142,-422 L642,-178 L678,-898 Z" stroke-width="0" fill="#810009" fill-opacity="0.9450980392156862" />
<path d="M582,-926 L450,-938 L462,-690 L162,-754 L190,-170 L346,-230 Z" stroke-width="0" fill="#ca6ad2" fill-opacity="0.7843137254901961" />
<path d="M206,-226 L534,-246 L386,-238 L758,-98 L290,-250 L258,-362 Z" stroke-width="0" fill="#e1001b" fill-opacity="0.8784313725490196" />
<path d="M258,-950 L466,-1254 L154,-894 L686,-866 L650,-394 L574,-162 Z" stroke-width="0" fill="#f206f7" fill-opacity="0.8901960784313725" />
<path d="M330,-746 L522,-930 L590,-610 L290,-762 L410,-866 L150,-602 Z" stroke-width="0" fill="#c3dddf" fill-opacity="0.6509803921568628" />
<path d="M558,-486 L290,-858 L638,-986 L318,-354 L434,-1058 L198,-230 Z" stroke-width="0" fill="#e2d0f1" fill-opacity="0.6196078431372549" />
<path d="M686,-1018 L190,-422 L582,-314 L218,-1202 L534,-790 L430,-618 Z" stroke-width="0" fill="#f6e2a3" fill-opacity="0.050980392156862744" />
<path d="M486,-362 L514,-702 L498,-158 L306,-430 L642,-1026 L442,-174 Z" stroke-width="0" fill="#e41837" fill-opacity="0.050980392156862744" />
<path d="M82,-134 L502,-830 L658,-790 L662,-278 L298,-430 L450,-202 Z" stroke-width="0" fill="#740005" fill-opacity="0.9725490196078431" />
<path d="M758,-198 L558,-538 L274,-586 L426,-194 L598,-458 L98,-570 Z" stroke-width="0" fill="#ab04bb" fill-opacity="0.07058823529411765" />
<path d="M730,-674 L446,-182 L746,-518 L158,-1186 L246,-554 L554,-146 Z" stroke-width="0" fill="#fb4c16" fill-opacity="0.01568627450980392" />
<path d="M162,-1074 L114,-822 L690,-222 L690,-282 L242,-502 L238,-410 Z" stroke-width="0" fill="#f1cb98" fill-opacity="0.03137254901960784" />
<path d="M746,-202 L466,-362 L650,-198 L518,-950 L578,-686 L790,-634 Z" stroke-width="0" fill="#edf7e1" fill-opacity="0.8431372549019608" />
<path d="M622,-306 L766,-362 L186,-202 L258,-566 L598,-514 L266,-234 Z" stroke-width="0" fill="#ca0436" fill-opacity="0.17647058823529413" />
<path d="M190,-1070 L118,-686 L690,-1090 L330,-782 L810,-1026 L322,-658 Z" stroke-width="0" fill="#f2fae8" fill-opacity="0.0392156862745098" />
<path d="M298,-422 L466,-94 L102,-1190 L98,-1078 L210,-1294 L386,-510 Z" stroke-width="0" fill="#8400ca" fill-opacity="0.7411764705882353" />
<path d="M526,-94 L226,-606 L110,-466 L234,-482 L162,-382 L206,-1182 Z" stroke-width="0" fill="#d500c1" fill-opacity="0.5803921568627451" />
<path d="M594,-614 L442,-602 L478,-226 L262,-1042 L390,-842 L618,-1166 Z" stroke-width="0" fill="#fdedff" fill-opacity="0.8117647058823529" />
<path d="M522,-1046 L570,-726 L282,-134 L454,-1294 L626,-1158 L638,-394 Z" stroke-width="0" fill="#c714f9" fill-opacity="0.8509803921568627" />
<path d="M570,-1098 L622,-1122 L438,-202 L302,-650 L430,-174 L238,-554 Z" stroke-width="0" fill="#510eb8" fill-opacity="0.2" />
<path d="M226,-1282 L410,-1078 L778,-258 L354,-550 L514,-830 L562,-86 Z" stroke-width="0" fill="#ba28ab" fill-opacity="0.11372549019607843" />
<path d="M230,-418 L422,-1230 L318,-302 L82,-1138 L754,-218 L150,-678 Z" stroke-width="0" fill="#6100e2" fill-opacity="0.4666666666666667" />
<path d="M158,-1010 L658,-302 L170,-1250 L694,-230 L314,-1214 L170,-722 Z" stroke-width="0" fill="#aa29ef" fill-opacity="0.9686274509803922" />
<path d="M346,-334 L186,-926 L130,-190 L254,-858 L130,-1250 L154,-1262 Z" stroke-width="0" fill="#af00de" fill-opacity="0.9058823529411765" />
<path d="M498,-1210 L134,-858 L294,-1098 L194,-258 L206,-234 L170,-694 Z" stroke-width="0" fill="#e144f7" fill-opacity="0.5019607843137255" />
<path d="M166,-978 L258,-758 L322,-98 L330,-298 L106,-822 L738,-526 Z" stroke-width="0" fill="#9c088c" fill-opacity="0.09019607843137255" />
<path d="M262,-534 L806,-270 L658,-82 L574,-1194 L114,-646 L442,-170 Z" stroke-width="0" fill="#d857fa" fill-opacity="0.28627450980392155" />
<path d="M486,-854 L686,-730 L338,-446 L642,-678 L634,-382 L122,-602 Z" stroke-width="0" fill="#e4f4ef" fill-opacity="0.4980392156862745" />
<path d="M422,-1018 L290,-610 L610,-642 L638,-502 L622,-442 L698,-630 Z" stroke-width="0" fill="#fadaca" fill-opacity="0.6470588235294118" />
<path d="M270,-402 L210,-386 L86,-910 L158,-766 L582,-218 L342,-842 Z" stroke-width="0" fill="#bf00eb" fill-opacity="0.8431372549019608" />
<path d="M310,-390 L238,-706 L118,-714 L562,-870 L262,-670 L450,-186 Z" stroke-width="0" fill="#cc63c5" fill-opacity="0.19215686274509805" />
<path d="M182,-882 L266,-510 L462,-482 L154,-446 L150,-1042 L438,-654 Z" stroke-width="0" fill="#da62e6" fill-opacity="0.6392156862745098" />
<path d="M114,-1114 L390,-618 L654,-154 L742,-1018 L430,-938 L494,-266 Z" stroke-width="0" fill="#dcd9bb" fill-opacity="0.3843137254901961" />
<path d="M638,-194 L382,-1198 L806,-506 L698,-646 L426,-1082 L110,-262 Z" stroke-width="0" fill="#ed0cec" fill-opacity="0.7137254901960784" />
<path d="M250,-558 L406,-146 L494,-94 L614,-686 L766,-98 L734,-206 Z" stroke-width="0" fill="#ff00aa" fill-opacity="0.25098039215686274" />
<path d="M386,-306 L630,-638 L150,-1294 L318,-1034 L578,-286 L110,-1258 Z" stroke-width="0" fill="#d80ef5" fill-opacity="0.22745098039215686" />
<path d="M802,-1058 L514,-818 L90,-574 L530,-138 L770,-294 L94,-414 Z" stroke-width="0" fill="#d600a4" fill-opacity="0.47058823529411764" />
<path d="M162,-1166 L318,-250 L90,-810 L798,-550 L270,-686 L134,-478 Z" stroke-width="0" fill="#bc34db" fill-opacity="0.7254901960784313" />
<path d="M362,-790 L106,-950 L302,-322 L446,-574 L422,-538 L514,-346 Z" stroke-width="0" fill="#d338e1" fill-opacity="0.8862745098039215" />
<path d="M310,-350 L402,-514 L282,-390 L154,-826 L302,-190 L654,-466 Z" stroke-width="0" fill="#3789f6" fill-opacity="0.12156862745098039" />
<path d="M126,-126 L210,-746 L270,-82 L194,-178 L346,-1106 L190,-166 Z" stroke-width="0" fill="#8a05f8" fill-opacity="0.1607843137254902" />
<path d="M210,-470 L394,-222 L742,-562 L322,-422 L658,-1154 L250,-582 Z" stroke-width="0" fill="#ef55fa" fill-opacity="0.13333333333333333" />
<path d="M106,-482 L214,-1042 L730,-1078 L294,-750 L174,-562 L158,-150 Z" stroke-width="0" fill="#065fb4" fill-opacity="0.00784313725490196" />
<path d="M114,-794 L226,-1126 L522,-246 L322,-466 L638,-522 L218,-494 Z" stroke-width="0" fill="#c445fd" fill-opacity="0.8392156862745098" />
<path d="M710,-206 L698,-294 L186,-758 L550,-1262 L270,-530 L582,-238 Z" stroke-width="0" fill="#c340fc" fill-opacity="0.4196078431372549" />
<path d="M690,-198 L210,-318 L238,-1210 L410,-866 L294,-150 L326,-1066 Z" stroke-width="0" fill="#d516df" fill-opacity="0.1450980392156863" />
<path d="M298,-482 L346,-1110 L574,-654 L510,-350 L370,-342 L310,-634 Z" stroke-width="0" fill="#c3009d" fill-opacity="0.4549019607843137" />
<path d="M414,-394 L774,-342 L606,-1154 L282,-1178 L394,-914 L766,-846 Z" stroke-width="0" fill="#f493fc" fill-opacity="0.44313725490196076" />
<path d="M662,-862 L214,-686 L322,-118 L394,-874 L494,-1038 L134,-102 Z" stroke-width="0" fill="#bf64a6" fill-opacity="0.0196078431372549" />
<path d="M666,-658 L506,-350 L666,-582 L370,-646 L422,-686 L602,-1038 Z" stroke-width="0" fill="#fdbbfa" fill-opacity="0.4392156862745098" />
<path d="M770,-798 L490,-586 L750,-478 L322,-906 L90,-1022 L774,-866 Z" stroke-width="0" fill="#fdf2f5" fill-opacity="0.6862745098039216" />
<text x="448.0" y="0" font-size="70.0" fill="black" text-anchor="middle" transform="translate(0,17.5)">5 OF AIR</text>
</svg>