<?xml version="1.0" encoding="UTF-8"?>
<svg xmlns="http://www.w3.org/2000/svg" xmlns:xlink="http://www.w3.org/1999/xlink"
     width="275" height="375" viewBox="0 -350 275 375">
<defs>
</defs>
<rect x="15" y="-335" width="245" height="320" stroke="black" stroke-width="4" fill="white" />
<path d="M31,-40 L32,-70 L234,-27 L45,-150 L50,-118 L153,-320 Z" stroke-width="0" fill="#def3fa" fill-opacity="0.03529411764705882" />
<path d="M165,-87 L130,-257 L108,-64 L104,-283 L87,-111 L171,-237 Z" stroke-width="0" fill="#a6aec4" fill-opacity="0.24705882352941178" />
<path d="M199,-68 L160,-48 L122,-237 L200,-122 L217,-38 L96,-44 Z" stroke-width="0" fill="#cea5d6" fill-opacity="0.011764705882352941" />
<path d="M62,-298 L246,-138 L161,-138 L29,-216 L191,-252 L82,-57 Z" stroke-width="0" fill="#f4fecc" fill-opacity="0.14901960784313725" />
<path d="M102,-268 L178,-49 L178,-219 L31,-92 L232,-27 L157,-141 Z" stroke-width="0" fill="#fafcf2" fill-opacity="0.027450980392156862" />
<path d="M125,-76 L141,-172 L180,-112 L192,-152 L155,-127 L133,-116 Z" stroke-width="0" fill="#a38430" fill-opacity="0.7607843137254902" />
<path d="M61,-205 L117,-45 L223,-270 L31,-43 L243,-209 L240,-108 Z" stroke-width="0" fill="#fdfdf2" fill-opacity="0.10980392156862745" />
<path d="M126,-223 L143,-126 L165,-245 L127,-183 L42,-284 L168,-297 Z" stroke-width="0" fill="#e6e6e1" fill-opacity="0.01568627450980392" />
<path d="M243,-48 L199,-216 L215,-51 L145,-124 L70,-99 L42,-75 Z" stroke-width="0" fill="#f9fcf8" fill-opacity="0.2627450980392157" />
<path d="M181,-219 L87,-109 L222,-274 L126,-246 L71,-124 L88,-215 Z" stroke-width="0" fill="#b58fb6" fill-opacity="0.043137254901960784" />
<path d="M123,-129 L72,-203 L193,-162 L58,-81 L66,-230 L147,-131 Z" stroke-width="0" fill="#f5baf4" fill-opacity="0.09019607843137255" />
<path d="M101,-73 L90,-86 L91,-313 L239,-34 L98,-194 L217,-168 Z" stroke-width="0" fill="#e9d4f9" fill-opacity="0.07450980392156863" />
<path d="M203,-228 L110,-85 L35,-97 L145,-224 L60,-184 L155,-272 Z" stroke-width="0" fill="#f1c9ba" fill-opacity="0.1803921568627451" />
<path d="M27,-171 L81,-307 L80,-74 L61,-178 L46,-252 L61,-154 Z" stroke-width="0" fill="#fef5e0" fill-opacity="0.09019607843137255" />
<path d="M135,-184 L39,-116 L112,-275 L212,-113 L45,-243 L71,-202 Z" stroke-width="0" fill="#c9ebdc" fill-opacity="0.0392156862745098" />
<path d="M174,-275 L63,-161 L89,-80 L54,-131 L97,-108 L177,-122 Z" stroke-width="0" fill="#c8ffd2" fill-opacity="0.10980392156862745" />
<path d="M132,-168 L192,-237 L100,-78 L26,-66 L224,-47 L51,-250 Z" stroke-width="0" fill="#1d4108" fill-opacity="0.9058823529411765" />
<path d="M172,-82 L171,-82 L115,-181 L242,-139 L148,-174 L219,-292 Z" stroke-width="0" fill="#ecf9f1" fill-opacity="0.047058823529411764" />
<path d="M238,-63 L29,-87 L67,-321 L126,-200 L148,-233 L164,-84 Z" stroke-width="0" fill="#f7f5f4" fill-opacity="0.16862745098039217" />
<path d="M122,-71 L200,-302 L184,-105 L82,-164 L47,-37 L228,-239 Z" stroke-width="0" fill="#70fce1" fill-opacity="0.01568627450980392" />
<path d="M139,-130 L44,-131 L127,-244 L148,-95 L159,-55 L154,-29 Z" stroke-width="0" fill="#0e0001" fill-opacity="0.4549019607843137" />
<path d="M135,-39 L86,-58 L131,-135 L131,-101 L165,-305 L112,-65 Z" stroke-width="0" fill="#20301f" fill-opacity="0.9568627450980393" />
<path d="M170,-240 L137,-164 L122,-244 L79,-32 L99,-242 L161,-203 Z" stroke-width="0" fill="#e2dcea" fill-opacity="0.00392156862745098" />
<path d="M160,-320 L77,-143 L156,-204 L235,-119 L31,-84 L139,-61 Z" stroke-width="0" fill="#f4fbf5" fill-opacity="0.09411764705882353" />
<path d="M77,-71 L145,-313 L109,-283 L149,-298 L215,-298 L53,-285 Z" stroke-width="0" fill="#eee9ec" fill-opacity="0.08627450980392157" />
<path d="M166,-168 L80,-243 L109,-111 L166,-63 L34,-218 L116,-111 Z" stroke-width="0" fill="#d2b7bb" fill-opacity="0.03137254901960784" />
<path d="M57,-299 L143,-221 L126,-51 L85,-184 L164,-177 L132,-172 Z" stroke-width="0" fill="#e1def0" fill-opacity="0.043137254901960784" />
<path d="M112,-277 L199,-174 L145,-208 L81,-165 L133,-241 L78,-32 Z" stroke-width="0" fill="#dbf4fe" fill-opacity="0.03529411764705882" />
<path d="M239,-128 L227,-202 L211,-184 L51,-295 L133,-182 L51,-65 Z" stroke-width="0" fill="#f18fa8" fill-opacity="0.023529411764705882" />
<path d="M73,-100 L32,-115 L249,-287 L77,-152 L132,-260 L206,-48 Z" stroke-width="0" fill="#bff3fa" fill-opacity="0.12941176470588237" />
<path d="M186,-56 L198,-264 L97,-267 L136,-42 L222,-241 L92,-147 Z" stroke-width="0" fill="#992c22" fill-opacity="0.03529411764705882" />
<path d="M147,-39 L63,-51 L221,-249 L77,-161 L80,-44 L173,-33 Z" stroke-width="0" fill="#fbdbe7" fill-opacity="0.09803921568627451" />
<path d="M109,-66 L164,-36 L243,-159 L108,-177 L142,-138 L85,-215 Z" stroke-width="0" fill="#edf6fc" fill-opacity="0.5019607843137255" />
<path d="M37,-60 L37,-257 L246,-56 L159,-70 L49,-79 L92,-182 Z" stroke-width="0" fill="#effbfb" fill-opacity="0.5058823529411764" />
<path d="M221,-124 L152,-65 L40,-125 L110,-103 L138,-242 L32,-36 Z" stroke-width="0" fill="#f6f0d1" fill-opacity="0.0196078431372549" />
<path d="M210,-124 L51,-181 L178,-174 L82,-206 L187,-63 L84,-126 Z" stroke-width="0" fill="#fd4555" fill-opacity="0.00392156862745098" />
<path d="M125,-95 L187,-70 L54,-54 L64,-207 L73,-112 L218,-277 Z" stroke-width="0" fill="#020fc4" fill-opacity="0.22745098039215686" />
<path d="M229,-231 L61,-183 L135,-176 L165,-69 L72,-161 L124,-184 Z" stroke-width="0" fill="#fedfde" fill-opacity="0.10588235294117647" />
<path d="M133,-161 L239,-83 L86,-148 L86,-95 L171,-82 L100,-138 Z" stroke-width="0" fill="#dbf3e1" fill-opacity="0.03137254901960784" />
<path d="M85,-230 L135,-274 L90,-137 L123,-198 L135,-236 L126,-322 Z" stroke-width="0" fill="#f6f9f2" fill-opacity="0.027450980392156862" />
<path d="M113,-126 L66,-136 L176,-28 L66,-297 L93,-84 L107,-38 Z" stroke-width="0" fill="#f5f2f2" fill-opacity="0.12156862745098039" />
<path d="M144,-95 L211,-238 L35,-137 L79,-132 L247,-126 L89,-295 Z" stroke-width="0" fill="#d2fef1" fill-opacity="0.03137254901960784" />
<path d="M109,-142 L205,-106 L26,-159 L217,-232 L192,-196 L205,-233 Z" stroke-width="0" fill="#dee6f1" fill-opacity="0.10980392156862745" />
<path d="M174,-129 L135,-122 L151,-239 L41,-86 L211,-116 L210,-264 Z" stroke-width="0" fill="#465163" fill-opacity="0.9647058823529412" />
<path d="M200,-146 L220,-169 L141,-101 L64,-111 L180,-304 L202,-128 Z" stroke-width="0" fill="#fdbaff" fill-opacity="0.1803921568627451" />
<path d="M245,-131 L74,-236 L177,-191 L74,-231 L195,-254 L142,-194 Z" stroke-width="0" fill="#70eec0" fill-opacity="0.0" />
<path d="M28,-224 L199,-264 L68,-161 L245,-101 L150,-166 L153,-125 Z" stroke-width="0" fill="#f1f0ef" fill-opacity="0.09019607843137255" />
<path d="M101,-312 L47,-147 L203,-40 L105,-173 L129,-106 L213,-198 Z" stroke-width="0" fill="#e7aaa9" fill-opacity="0.10980392156862745" />
<path d="M117,-101 L246,-273 L230,-193 L50,-119 L48,-147 L185,-97 Z" stroke-width="0" fill="#e1d8dc" fill-opacity="0.09803921568627451" />
<path d="M116,-91 L68,-297 L237,-50 L70,-134 L33,-304 L83,-140 Z" stroke-width="0" fill="#bb89b5" fill-opacity="0.00392156862745098" />
<path d="M187,-294 L192,-108 L92,-272 L156,-305 L178,-37 L226,-137 Z" stroke-width="0" fill="#f9e4d4" fill-opacity="0.0784313725490196" />
<path d="M37,-284 L37,-196 L95,-43 L110,-258 L171,-159 L246,-263 Z" stroke-width="0" fill="#dbfdfd" fill-opacity="0.11764705882352941" />
<path d="M89,-41 L147,-98 L196,-58 L66,-262 L133,-91 L197,-138 Z" stroke-width="0" fill="#faf7dd" fill-opacity="0.10588235294117647" />
<path d="M105,-267 L129,-202 L166,-119 L192,-123 L144,-245 L193,-271 Z" stroke-width="0" fill="#fff8c3" fill-opacity="0.12549019607843137" />
<path d="M176,-196 L51,-102 L119,-73 L106,-123 L118,-94 L86,-130 Z" stroke-width="0" fill="#bdd8dc" fill-opacity="0.6039215686274509" />
<path d="M231,-123 L109,-258 L160,-52 L72,-140 L106,-239 L182,-59 Z" stroke-width="0" fill="#fbfef5" fill-opacity="0.7450980392156863" />
<path d="M105,-299 L76,-74 L172,-112 L110,-222 L135,-71 L30,-95 Z" stroke-width="0" fill="#f8f0e3" fill-opacity="0.8313725490196079" />
<path d="M85,-62 L172,-33 L227,-230 L84,-219 L87,-285 L26,-204 Z" stroke-width="0" fill="#d4fcea" fill-opacity="0.4117647058823529" />
<path d="M193,-111 L205,-86 L121,-103 L209,-46 L136,-155 L46,-153 Z" stroke-width="0" fill="#dbebc3" fill-opacity="0.1568627450980392" />
<path d="M50,-128 L75,-297 L169,-82 L188,-78 L60,-87 L157,-218 Z" stroke-width="0" fill="#fcf8ec" fill-opacity="0.9058823529411765" />
<path d="M247,-180 L239,-125 L127,-97 L127,-51 L159,-102 L141,-176 Z" stroke-width="0" fill="#fefae9" fill-opacity="0.2196078431372549" />
<path d="M57,-65 L216,-29 L155,-176 L33,-193 L225,-294 L60,-118 Z" stroke-width="0" fill="#d4f8e3" fill-opacity="0.00784313725490196" />
<path d="M28,-115 L149,-132 L201,-221 L144,-94 L71,-199 L85,-73 Z" stroke-width="0" fill="#ebfcfe" fill-opacity="0.9411764705882353" />
<path d="M110,-178 L118,-57 L172,-86 L211,-234 L224,-157 L111,-230 Z" stroke-width="0" fill="#8ac8ea" fill-opacity="0.08235294117647059" />
<path d="M110,-162 L104,-57 L231,-28 L90,-56 L141,-199 L26,-152 Z" stroke-width="0" fill="#f5eb83" fill-opacity="0.3058823529411765" />
<path d="M78,-138 L114,-308 L236,-75 L178,-171 L196,-71 L83,-315 Z" stroke-width="0" fill="#bdf0e7" fill-opacity="0.34901960784313724" />
<path d="M181,-246 L96,-202 L114,-87 L84,-92 L131,-126 L122,-51 Z" stroke-width="0" fill="#fbed87" fill-opacity="0.19607843137254902" />
<path d="M175,-178 L190,-168 L45,-144 L234,-288 L61,-82 L102,-31 Z" stroke-width="0" fill="#d6ebed" fill-opacity="0.07450980392156863" />
<path d="M155,-219 L55,-282 L72,-177 L122,-196 L33,-54 L157,-306 Z" stroke-width="0" fill="#94e417" fill-opacity="0.0" />
<path d="M63,-93 L154,-86 L25,-240 L31,-228 L122,-103 L74,-322 Z" stroke-width="0" fill="#eefee1" fill-opacity="0.01568627450980392" />
<path d="M51,-151 L173,-140 L79,-217 L227,-102 L35,-288 L78,-315 Z" stroke-width="0" fill="#c2edb4" fill-opacity="0.14901960784313725" />
<path d="M174,-238 L102,-105 L244,-240 L176,-64 L44,-133 L76,-133 Z" stroke-width="0" fill="#f1dbe8" fill-opacity="0.058823529411764705" />
<path d="M88,-50 L45,-76 L174,-152 L114,-226 L62,-128 L167,-176 Z" stroke-width="0" fill="#001e03" fill-opacity="0.9882352941176471" />
<path d="M95,-201 L121,-279 L46,-156 L88,-90 L26,-25 L86,-209 Z" stroke-width="0" fill="#e5f3e9" fill-opacity="0.0392156862745098" />
<path d="M92,-88 L201,-193 L209,-208 L207,-192 L125,-46 L174,-68 Z" stroke-width="0" fill="#071623" fill-opacity="0.9254901960784314" />
<path d="M229,-265 L247,-75 L107,-45 L130,-130 L82,-247 L57,-275 Z" stroke-width="0" fill="#c7f3fd" fill-opacity="0.12156862745098039" />
<path d="M163,-90 L61,-191 L84,-295 L114,-120 L100,-83 L78,-71 Z" stroke-width="0" fill="#e9f3e6" fill-opacity="0.7607843137254902" />
<path d="M222,-40 L95,-47 L117,-173 L73,-219 L33,-298 L226,-274 Z" stroke-width="0" fill="#fff5f8" fill-opacity="0.9764705882352941" />
<path d="M74,-164 L43,-291 L213,-298 L28,-207 L28,-244 L242,-51 Z" stroke-width="0" fill="#f8e4bc" fill-opacity="0.08627450980392157" />
<path d="M54,-46 L56,-285 L217,-187 L72,-43 L198,-256 L194,-303 Z" stroke-width="0" fill="#e8ebe0" fill-opacity="0.0392156862745098" />
<path d="M132,-209 L82,-194 L126,-185 L139,-41 L69,-146 L105,-151 Z" stroke-width="0" fill="#caf3e9" fill-opacity="0.5490196078431373" />
<path d="M165,-253 L62,-321 L154,-195 L63,-302 L112,-266 L161,-271 Z" stroke-width="0" fill="#ebe1f9" fill-opacity="0.06274509803921569" />
<path d="M88,-148 L188,-57 L153,-137 L177,-270 L85,-70 L148,-215 Z" stroke-width="0" fill="#fcfff1" fill-opacity="0.2235294117647059" />
<path d="M152,-107 L99,-164 L246,-33 L25,-63 L110,-86 L192,-84 Z" stroke-width="0" fill="#c986c9" fill-opacity="0.16862745098039217" />
<path d="M224,-172 L125,-181 L69,-302 L126,-271 L130,-130 L191,-165 Z" stroke-width="0" fill="#cafeec" fill-opacity="0.49019607843137253" />
<path d="M245,-60 L99,-56 L109,-215 L147,-318 L170,-115 L147,-121 Z" stroke-width="0" fill="#f5f8bc" fill-opacity="0.050980392156862744" />
<path d="M177,-91 L143,-217 L221,-235 L109,-92 L75,-117 L237,-48 Z" stroke-width="0" fill="#c2fad3" fill-opacity="0.3058823529411765" />
<path d="M71,-148 L116,-194 L37,-101 L216,-324 L201,-136 L34,-198 Z" stroke-width="0" fill="#fbfbf8" fill-opacity="0.7725490196078432" />
<path d="M62,-137 L59,-62 L136,-219 L33,-136 L242,-119 L152,-119 Z" stroke-width="0" fill="#c1faf8" fill-opacity="0.06274509803921569" />
<path d="M62,-199 L120,-311 L100,-285 L71,-76 L222,-246 L120,-114 Z" stroke-width="0" fill="#d1fbb8" fill-opacity="0.09411764705882353" />
<path d="M38,-65 L181,-263 L200,-249 L180,-244 L69,-269 L86,-74 Z" stroke-width="0" fill="#ecf7fc" fill-opacity="0.48627450980392156" />
<path d="M103,-109 L172,-310 L34,-112 L152,-111 L170,-113 L52,-66 Z" stroke-width="0" fill="#d7fafe" fill-opacity="0.41568627450980394" />
<path d="M192,-38 L69,-257 L239,-142 L71,-259 L102,-258 L68,-95 Z" stroke-width="0" fill="#f3d19c" fill-opacity="0.06666666666666667" />
<path d="M200,-76 L118,-97 L76,-46 L100,-296 L143,-280 L184,-295 Z" stroke-width="0" fill="#f8d8c3" fill-opacity="0.00784313725490196" />
<path d="M64,-101 L165,-189 L141,-55 L237,-295 L133,-153 L232,-304 Z" stroke-width="0" fill="#f9d3ce" fill-opacity="0.07450980392156863" />
<path d="M167,-63 L84,-128 L197,-241 L223,-79 L181,-303 L108,-191 Z" stroke-width="0" fill="#e8febc" fill-opacity="0.19607843137254902" />
<path d="M28,-120 L117,-243 L163,-28 L124,-151 L101,-137 L25,-263 Z" stroke-width="0" fill="#ed86cd" fill-opacity="0.11372549019607843" />
<path d="M249,-247 L84,-122 L39,-69 L158,-40 L141,-144 L100,-42 Z" stroke-width="0" fill="#fdeabf" fill-opacity="0.06666666666666667" />
<path d="M90,-251 L221,-202 L172,-69 L223,-257 L37,-154 L53,-158 Z" stroke-width="0" fill="#baecf1" fill-opacity="0.4235294117647059" />
<path d="M88,-82 L193,-132 L90,-42 L166,-132 L151,-254 L155,-155 Z" stroke-width="0" fill="#feebfd" fill-opacity="0.03137254901960784" />
<text x="137.5" y="12.5" font-size="20.0" fill="black" text-anchor="middle" transform="translate(0,5.0)">1 OF AIR</text>
</svg>