<?xml version="1.0" encoding="UTF-8"?>
<svg xmlns="http://www.w3.org/2000/svg" xmlns:xlink="http://www.w3.org/1999/xlink"
     width="896" height="1496" viewBox="0 -1400 896 1496" style="font-size:70;font-family:Poor Richard, Times New Roman;stroke:black;stroke-width:1;fill:none">
<defs>
</defs>
<path d="M626,-1058 L546,-1202 L206,-562 L362,-922 L634,-586 L510,-650 Z" stroke-width="0" fill="#e0e6d2" fill-opacity="0.023529411764705882" />
<path d="M174,-254 L698,-602 L194,-826 L210,-82 L866,-634 L758,-1250 Z" stroke-width="0" fill="#308a09" fill-opacity="0.8" />
<path d="M222,-834 L210,-494 L934,-270 L674,-1118 L186,-978 L702,-614 Z" stroke-width="0" fill="#35b722" fill-opacity="0.0" />
<path d="M314,-722 L334,-1138 L482,-294 L478,-282 L590,-1046 L246,-250 Z" stroke-width="0" fill="#14b8f2" fill-opacity="0.4627450980392157" />
<path d="M862,-594 L222,-954 L526,-598 L518,-302 L590,-1146 L478,-890 Z" stroke-width="0" fill="#c7fe2d" fill-opacity="0.00784313725490196" />
<path d="M410,-186 L298,-622 L674,-894 L386,-334 L874,-334 L762,-226 Z" stroke-width="0" fill="#f2fcfd" fill-opacity="0.3843137254901961" />
<path d="M322,-422 L518,-1006 L270,-822 L930,-322 L670,-850 L978,-614 Z" stroke-width="0" fill="#720a00" fill-opacity="0.996078431372549" />
<path d="M158,-1214 L414,-590 L502,-182 L362,-678 L618,-498 L106,-918 Z" stroke-width="0" fill="#837e01" fill-opacity="0.396078431372549" />
<path d="M502,-162 L898,-878 L142,-846 L282,-478 L378,-962 L334,-858 Z" stroke-width="0" fill="#ca5c02" fill-opacity="0.615686274509804" />
<path d="M222,-874 L234,-474 L810,-1186 L386,-1250 L474,-382 L410,-814 Z" stroke-width="0" fill="#faf9c6" fill-opacity="0.6745098039215687" />
<path d="M458,-1126 L398,-790 L614,-954 L670,-134 L474,-414 L694,-198 Z" stroke-width="0" fill="#0f3e27" fill-opacity="0.5764705882352941" />
<path d="M562,-194 L882,-258 L514,-1034 L82,-338 L758,-638 L462,-278 Z" stroke-width="0" fill="#eaefe5" fill-opacity="0.41568627450980394" />
<path d="M646,-330 L446,-190 L194,-166 L86,-518 L906,-462 L374,-598 Z" stroke-width="0" fill="#2f841e" fill-opacity="0.043137254901960784" />
<path d="M98,-710 L658,-778 L738,-438 L118,-446 L746,-402 L554,-166 Z" stroke-width="0" fill="#9469c9" fill-opacity="0.9921568627450981" />
<path d="M758,-1110 L450,-1098 L962,-1178 L550,-1142 L650,-294 L614,-1106 Z" stroke-width="0" fill="#a65f34" fill-opacity="0.0" />
<path d="M530,-678 L242,-142 L762,-642 L666,-754 L726,-118 L686,-174 Z" stroke-width="0" fill="#a74993" fill-opacity="0.803921568627451" />
<path d="M930,-134 L926,-1138 L850,-1122 L498,-306 L158,-510 L462,-634 Z" stroke-width="0" fill="#395800" fill-opacity="0.3843137254901961" />
<path d="M310,-1178 L294,-878 L362,-1142 L102,-806 L766,-1042 L334,-790 Z" stroke-width="0" fill="#1cd78b" fill-opacity="0.1411764705882353" />
<path d="M614,-1190 L402,-454 L82,-162 L802,-202 L370,-434 L122,-554 Z" stroke-width="0" fill="#e4f3e0" fill-opacity="0.07058823529411765" />
<path d="M138,-242 L202,-1038 L230,-678 L386,-618 L706,-1070 L650,-702 Z" stroke-width="0" fill="#0679e9" fill-opacity="0.9490196078431372" />
<path d="M418,-262 L238,-1070 L450,-94 L430,-554 L526,-222 L942,-698 Z" stroke-width="0" fill="#000700" fill-opacity="0.9725490196078431" />
<path d="M418,-166 L594,-1094 L558,-518 L578,-418 L550,-1242 L222,-178 Z" stroke-width="0" fill="#f4fae5" fill-opacity="0.047058823529411764" />
<path d="M98,-1018 L666,-346 L526,-114 L526,-450 L898,-1250 L98,-366 Z" stroke-width="0" fill="#aacf40" fill-opacity="0.596078431372549" />
<path d="M254,-830 L110,-1178 L738,-190 L746,-750 L198,-830 L238,-590 Z" stroke-width="0" fill="#bfc6de" fill-opacity="0.8" />
<path d="M806,-86 L474,-854 L346,-970 L786,-626 L406,-1058 L538,-770 Z" stroke-width="0" fill="#9d966d" fill-opacity="0.5019607843137255" />
<path d="M666,-202 L426,-1278 L546,-154 L650,-142 L498,-390 L978,-618 Z" stroke-width="0" fill="#76b15b" fill-opacity="0.2627450980392157" />
<path d="M690,-838 L230,-1214 L218,-906 L854,-1030 L122,-842 L550,-430 Z" stroke-width="0" fill="#20f7c0" fill-opacity="0.1411764705882353" />
<path d="M970,-302 L706,-254 L170,-486 L838,-370 L202,-798 L214,-934 Z" stroke-width="0" fill="#edecf7" fill-opacity="0.9058823529411765" />
<path d="M330,-826 L470,-702 L118,-126 L230,-1258 L762,-254 L798,-202 Z" stroke-width="0" fill="#c5d8c8" fill-opacity="0.49411764705882355" />
<path d="M430,-150 L750,-526 L646,-366 L534,-534 L234,-1066 L166,-1242 Z" stroke-width="0" fill="#a8d262" fill-opacity="0.39215686274509803" />
<path d="M474,-1030 L934,-866 L358,-222 L198,-126 L170,-546 L866,-110 Z" stroke-width="0" fill="#ad1325" fill-opacity="0.10588235294117647" />
<path d="M570,-1138 L86,-818 L482,-1050 L610,-1182 L334,-242 L714,-138 Z" stroke-width="0" fill="#efd6f2" fill-opacity="0.011764705882352941" />
<path d="M842,-1270 L766,-606 L506,-1198 L262,-422 L514,-810 L950,-142 Z" stroke-width="0" fill="#738463" fill-opacity="0.1411764705882353" />
<path d="M622,-1142 L874,-150 L326,-94 L706,-314 L470,-798 L946,-1218 Z" stroke-width="0" fill="#d2a1d0" fill-opacity="0.6862745098039216" />
<path d="M218,-990 L554,-118 L566,-162 L250,-650 L122,-322 L826,-1234 Z" stroke-width="0" fill="#e5f3e9" fill-opacity="0.7686274509803922" />
<path d="M450,-958 L454,-382 L250,-1198 L202,-274 L250,-802 L798,-454 Z" stroke-width="0" fill="#fbfcfc" fill-opacity="1.0" />
<path d="M542,-666 L514,-662 L926,-246 L178,-902 L626,-470 L334,-698 Z" stroke-width="0" fill="#fcf0e6" fill-opacity="0.9333333333333333" />
<path d="M234,-218 L750,-82 L510,-282 L478,-1130 L298,-142 L606,-862 Z" stroke-width="0" fill="#000000" fill-opacity="0.8666666666666667" />
<path d="M654,-594 L114,-502 L134,-990 L462,-786 L162,-218 L706,-614 Z" stroke-width="0" fill="#2e8107" fill-opacity="0.4392156862745098" />
<path d="M578,-722 L586,-630 L718,-1066 L458,-606 L190,-722 L302,-850 Z" stroke-width="0" fill="#fff6f2" fill-opacity="0.7843137254901961" />
<path d="M682,-226 L638,-770 L254,-554 L750,-422 L582,-1118 L102,-438 Z" stroke-width="0" fill="#ecf4ee" fill-opacity="0.7686274509803922" />
<path d="M246,-218 L634,-442 L550,-414 L822,-250 L350,-922 L866,-594 Z" stroke-width="0" fill="#eb41e5" fill-opacity="0.023529411764705882" />
<path d="M130,-786 L266,-862 L550,-894 L706,-1270 L378,-1258 L822,-1018 Z" stroke-width="0" fill="#ebe8cb" fill-opacity="0.39215686274509803" />
<path d="M766,-934 L362,-174 L586,-1018 L634,-966 L202,-238 L614,-1150 Z" stroke-width="0" fill="#acdff7" fill-opacity="0.0196078431372549" />
<path d="M934,-334 L194,-1262 L414,-786 L278,-682 L894,-414 L766,-538 Z" stroke-width="0" fill="#e9f4fd" fill-opacity="0.8117647058823529" />
<path d="M710,-342 L602,-1242 L694,-1158 L602,-450 L598,-570 L294,-530 Z" stroke-width="0" fill="#e9fccc" fill-opacity="0.10588235294117647" />
<path d="M214,-518 L978,-182 L710,-1190 L598,-1062 L282,-138 L522,-1134 Z" stroke-width="0" fill="#fafdc5" fill-opacity="0.3843137254901961" />
<path d="M310,-690 L614,-786 L606,-162 L346,-190 L378,-878 L710,-566 Z" stroke-width="0" fill="#000001" fill-opacity="0.9294117647058824" />
<path d="M446,-94 L210,-518 L614,-926 L214,-434 L230,-582 L222,-130 Z" stroke-width="0" fill="#000000" fill-opacity="0.8117647058823529" />
<path d="M98,-614 L510,-738 L434,-1038 L910,-426 L170,-386 L110,-378 Z" stroke-width="0" fill="#edf7d7" fill-opacity="0.9176470588235294" />
<path d="M786,-490 L874,-942 L834,-954 L146,-1022 L738,-686 L782,-642 Z" stroke-width="0" fill="#d7cfd4" fill-opacity="0.5019607843137255" />
<path d="M90,-162 L342,-106 L178,-558 L250,-286 L434,-598 L274,-602 Z" stroke-width="0" fill="#020800" fill-opacity="0.8" />
<path d="M970,-206 L402,-278 L238,-1142 L278,-502 L206,-502 L950,-886 Z" stroke-width="0" fill="#c6d9d7" fill-opacity="0.5019607843137255" />
<path d="M322,-618 L814,-846 L610,-610 L86,-150 L114,-854 L470,-614 Z" stroke-width="0" fill="#f1daf3" fill-opacity="0.7176470588235294" />
<path d="M98,-690 L186,-766 L298,-1002 L286,-526 L618,-530 L722,-734 Z" stroke-width="0" fill="#f8fecf" fill-opacity="0.8745098039215686" />
<path d="M206,-882 L646,-874 L910,-450 L882,-410 L526,-702 L190,-374 Z" stroke-width="0" fill="#30d1fe" fill-opacity="0.00392156862745098" />
<path d="M362,-758 L430,-254 L142,-810 L102,-222 L750,-506 L150,-286 Z" stroke-width="0" fill="#28ded2" fill-opacity="0.047058823529411764" />
<path d="M866,-202 L318,-82 L418,-814 L886,-558 L774,-98 L462,-186 Z" stroke-width="0" fill="#163a0b" fill-opacity="0.22745098039215686" />
<path d="M522,-538 L174,-546 L370,-194 L746,-1194 L398,-250 L954,-762 Z" stroke-width="0" fill="#421e01" fill-opacity="0.12156862745098039" />
<path d="M850,-418 L806,-1174 L106,-90 L890,-630 L934,-718 L754,-642 Z" stroke-width="0" fill="#89713a" fill-opacity="0.9372549019607843" />
<path d="M82,-918 L170,-134 L702,-830 L170,-610 L810,-202 L266,-642 Z" stroke-width="0" fill="#c7d6b4" fill-opacity="0.8156862745098039" />
<path d="M330,-694 L614,-142 L786,-126 L550,-126 L246,-382 L290,-850 Z" stroke-width="0" fill="#00631e" fill-opacity="0.16470588235294117" />
<path d="M614,-1162 L134,-618 L106,-758 L182,-858 L722,-662 L598,-1082 Z" stroke-width="0" fill="#283706" fill-opacity="0.10588235294117647" />
<path d="M626,-122 L434,-466 L182,-570 L142,-1070 L598,-706 L450,-434 Z" stroke-width="0" fill="#b1e0fc" fill-opacity="0.00392156862745098" />
<path d="M470,-246 L514,-262 L802,-706 L722,-798 L598,-674 L102,-646 Z" stroke-width="0" fill="#0f2a6a" fill-opacity="0.2549019607843137" />
<path d="M330,-742 L586,-1014 L294,-966 L450,-142 L918,-906 L650,-186 Z" stroke-width="0" fill="#df88e2" fill-opacity="0.050980392156862744" />
<path d="M162,-794 L854,-1058 L274,-194 L922,-1058 L702,-258 L726,-886 Z" stroke-width="0" fill="#edc52b" fill-opacity="0.1843137254901961" />
<path d="M170,-334 L410,-1178 L538,-302 L782,-1070 L518,-1102 L594,-878 Z" stroke-width="0" fill="#badae4" fill-opacity="0.35294117647058826" />
<path d="M966,-842 L882,-190 L394,-1186 L714,-350 L234,-1278 L438,-1134 Z" stroke-width="0" fill="#e59a2a" fill-opacity="0.40784313725490196" />
<path d="M858,-750 L198,-538 L126,-1022 L582,-506 L754,-150 L270,-242 Z" stroke-width="0" fill="#170596" fill-opacity="0.027450980392156862" />
<path d="M730,-262 L942,-702 L146,-1046 L662,-414 L502,-1094 L278,-1142 Z" stroke-width="0" fill="#cfbfe5" fill-opacity="0.14901960784313725" />
<path d="M922,-786 L530,-238 L222,-374 L542,-186 L370,-354 L318,-726 Z" stroke-width="0" fill="#a82e00" fill-opacity="0.6274509803921569" />
<path d="M574,-406 L690,-410 L930,-466 L86,-130 L442,-954 L930,-902 Z" stroke-width="0" fill="#9da0ae" fill-opacity="0.011764705882352941" />
<path d="M630,-1250 L934,-374 L970,-1210 L654,-758 L430,-354 L754,-802 Z" stroke-width="0" fill="#75001c" fill-opacity="0.2549019607843137" />
<path d="M926,-502 L178,-194 L766,-178 L126,-586 L110,-458 L510,-1254 Z" stroke-width="0" fill="#dceb5a" fill-opacity="0.01568627450980392" />
<path d="M770,-162 L438,-178 L162,-550 L146,-874 L910,-1234 L662,-310 Z" stroke-width="0" fill="#813bbc" fill-opacity="0.03529411764705882" />
<path d="M374,-462 L370,-830 L290,-430 L642,-254 L570,-1238 L262,-298 Z" stroke-width="0" fill="#e1f0fe" fill-opacity="0.5686274509803921" />
<path d="M182,-346 L342,-518 L242,-1150 L966,-690 L450,-802 L858,-1182 Z" stroke-width="0" fill="#edcce2" fill-opacity="0.07058823529411765" />
<path d="M158,-250 L606,-1266 L282,-674 L698,-346 L118,-1134 L118,-514 Z" stroke-width="0" fill="#e1dc89" fill-opacity="0.12549019607843137" />
<path d="M850,-1270 L534,-750 L142,-130 L918,-214 L850,-110 L262,-862 Z" stroke-width="0" fill="#30a1fc" fill-opacity="0.07450980392156863" />
<path d="M482,-538 L178,-998 L498,-222 L454,-1046 L94,-886 L818,-390 Z" stroke-width="0" fill="#f1eac7" fill-opacity="0.49411764705882355" />
<path d="M694,-1174 L222,-98 L754,-306 L854,-1186 L86,-1250 L414,-898 Z" stroke-width="0" fill="#cbd5ca" fill-opacity="0.14901960784313725" />
<path d="M690,-106 L286,-330 L218,-810 L674,-622 L762,-370 L418,-486 Z" stroke-width="0" fill="#6bf6f3" fill-opacity="0.09803921568627451" />
<path d="M302,-694 L514,-786 L914,-638 L382,-1266 L126,-866 L130,-82 Z" stroke-width="0" fill="#ded78e" fill-opacity="0.2784313725490196" />
<path d="M274,-1206 L466,-130 L750,-658 L218,-362 L466,-766 L850,-366 Z" stroke-width="0" fill="#fde0de" fill-opacity="0.0392156862745098" />
<path d="M370,-966 L218,-966 L794,-262 L390,-902 L682,-234 L882,-1126 Z" stroke-width="0" fill="#c78627" fill-opacity="0.12549019607843137" />
<path d="M890,-734 L722,-122 L438,-346 L478,-666 L454,-518 L890,-266 Z" stroke-width="0" fill="#b6e3d9" fill-opacity="0.5882352941176471" />
<path d="M438,-590 L622,-470 L194,-518 L82,-1002 L578,-202 L730,-294 Z" stroke-width="0" fill="#985be5" fill-opacity="0.1450980392156863" />
<path d="M806,-554 L654,-1206 L550,-846 L486,-362 L770,-566 L722,-810 Z" stroke-width="0" fill="#a62804" fill-opacity="0.2627450980392157" />
<path d="M522,-670 L706,-430 L158,-230 L922,-1054 L750,-902 L290,-406 Z" stroke-width="0" fill="#becef9" fill-opacity="0.2784313725490196" />
<path d="M314,-386 L866,-446 L470,-450 L122,-182 L250,-1054 L882,-978 Z" stroke-width="0" fill="#d4ffe2" fill-opacity="0.16470588235294117" />
<path d="M342,-1102 L602,-530 L666,-826 L278,-1002 L394,-358 L318,-250 Z" stroke-width="0" fill="#ba525d" fill-opacity="0.4117647058823529" />
<path d="M242,-666 L410,-546 L246,-526 L306,-486 L566,-910 L282,-250 Z" stroke-width="0" fill="#a299fb" fill-opacity="0.9607843137254902" />
<path d="M618,-166 L198,-378 L214,-1214 L446,-514 L506,-190 L514,-546 Z" stroke-width="0" fill="#ecfbed" fill-opacity="0.36470588235294116" />
<path d="M158,-230 L202,-258 L442,-86 L350,-518 L746,-1274 L706,-318 Z" stroke-width="0" fill="#3d736d" fill-opacity="0.13725490196078433" />
<path d="M398,-454 L230,-870 L602,-194 L606,-990 L374,-1070 L434,-526 Z" stroke-width="0" fill="#bbbff8" fill-opacity="0.23137254901960785" />
<path d="M358,-370 L610,-950 L126,-1126 L222,-274 L914,-106 L670,-550 Z" stroke-width="0" fill="#f4f7ac" fill-opacity="0.33725490196078434" />
<path d="M250,-530 L150,-430 L222,-314 L118,-270 L626,-966 L530,-842 Z" stroke-width="0" fill="#dfd6f3" fill-opacity="0.7294117647058823" />
<path d="M354,-1058 L718,-462 L218,-762 L198,-486 L730,-438 L450,-230 Z" stroke-width="0" fill="#ddf7f4" fill-opacity="0.4470588235294118" />
<path d="M298,-214 L918,-490 L530,-1246 L802,-866 L394,-630 L854,-1118 Z" stroke-width="0" fill="#ab488a" fill-opacity="0.07058823529411765" />
<text x="448.0" y="0" font-size="70.0" fill="black" text-anchor="middle" transform="translate(0,17.5)">5 OF AIR</text>
</svg>