<?xml version="1.0" encoding="UTF-8"?>
<svg xmlns="http://www.w3.org/2000/svg" xmlns:xlink="http://www.w3.org/1999/xlink"
     width="896" height="1496" viewBox="0 -1400 896 1496" style="font-size:70;font-family:Poor Richard, Times New Roman;stroke:black;stroke-width:1;fill:none">
<defs>
</defs>
<path d="M298,-442 L754,-658 L626,-1110 L118,-650 L810,-1130 L290,-658 Z" stroke-width="0" fill="#411300" fill-opacity="0.8509803921568627" />
<path d="M414,-306 L334,-198 L746,-98 L106,-130 L734,-86 L542,-1166 Z" stroke-width="0" fill="#000000" fill-opacity="0.6666666666666666" />
<path d="M426,-830 L166,-666 L662,-642 L490,-374 L206,-986 L802,-150 Z" stroke-width="0" fill="#001700" fill-opacity="0.592156862745098" />
<path d="M466,-1182 L742,-102 L778,-1010 L286,-478 L690,-430 L294,-1114 Z" stroke-width="0" fill="#0f0400" fill-opacity="0.6313725490196078" />
<path d="M118,-130 L110,-182 L602,-274 L442,-494 L514,-618 L606,-398 Z" stroke-width="0" fill="#0c5c00" fill-opacity="0.6588235294117647" />
<path d="M446,-1282 L334,-230 L774,-254 L146,-134 L102,-466 L654,-1254 Z" stroke-width="0" fill="#001b00" fill-opacity="0.8274509803921568" />
<path d="M310,-538 L134,-786 L102,-274 L746,-1046 L714,-1082 L662,-602 Z" stroke-width="0" fill="#110f17" fill-opacity="0.796078431372549" />
<path d="M758,-558 L86,-342 L142,-318 L614,-294 L526,-1058 L746,-798 Z" stroke-width="0" fill="#25150e" fill-opacity="0.9215686274509803" />
<path d="M498,-622 L170,-126 L750,-338 L546,-590 L246,-1250 L654,-1122 Z" stroke-width="0" fill="#3e0e47" fill-opacity="0.00784313725490196" />
<path d="M222,-990 L614,-206 L474,-726 L154,-1242 L186,-410 L214,-270 Z" stroke-width="0" fill="#001501" fill-opacity="0.8588235294117647" />
<path d="M314,-1178 L806,-494 L210,-418 L398,-1246 L458,-578 L362,-1058 Z" stroke-width="0" fill="#834b18" fill-opacity="0.9921568627450981" />
<path d="M538,-202 L246,-122 L542,-430 L406,-266 L798,-794 L478,-302 Z" stroke-width="0" fill="#131000" fill-opacity="0.7058823529411765" />
<path d="M294,-922 L198,-506 L222,-242 L606,-638 L270,-154 L162,-866 Z" stroke-width="0" fill="#300c14" fill-opacity="0.6823529411764706" />
<path d="M358,-1014 L94,-1198 L682,-106 L274,-910 L146,-406 L806,-514 Z" stroke-width="0" fill="#000000" fill-opacity="0.7803921568627451" />
<path d="M366,-1010 L130,-554 L438,-318 L482,-486 L90,-94 L186,-382 Z" stroke-width="0" fill="#3f3234" fill-opacity="0.792156862745098" />
<path d="M422,-866 L366,-1230 L94,-542 L126,-522 L458,-1086 L602,-238 Z" stroke-width="0" fill="#1f0000" fill-opacity="0.8823529411764706" />
<path d="M466,-674 L398,-1058 L318,-1238 L150,-846 L802,-438 L618,-242 Z" stroke-width="0" fill="#281a0a" fill-opacity="0.9058823529411765" />
<path d="M350,-614 L222,-642 L650,-814 L810,-498 L530,-82 L526,-1142 Z" stroke-width="0" fill="#1f0710" fill-opacity="0.9058823529411765" />
<path d="M654,-1130 L334,-1062 L378,-906 L546,-262 L630,-482 L562,-302 Z" stroke-width="0" fill="#094431" fill-opacity="0.6274509803921569" />
<path d="M474,-174 L570,-206 L386,-1278 L550,-634 L198,-770 L322,-462 Z" stroke-width="0" fill="#070000" fill-opacity="0.984313725490196" />
<path d="M602,-938 L270,-910 L142,-778 L642,-426 L470,-510 L702,-98 Z" stroke-width="0" fill="#000502" fill-opacity="0.9568627450980393" />
<path d="M746,-158 L498,-302 L262,-414 L398,-426 L658,-1314 L474,-786 Z" stroke-width="0" fill="#7f0f0a" fill-opacity="0.6" />
<path d="M754,-782 L318,-898 L250,-602 L670,-682 L754,-702 L262,-570 Z" stroke-width="0" fill="#f7fef1" fill-opacity="0.9254901960784314" />
<path d="M730,-546 L438,-814 L426,-866 L494,-394 L354,-862 L446,-410 Z" stroke-width="0" fill="#525d54" fill-opacity="0.24313725490196078" />
<path d="M758,-278 L434,-322 L214,-378 L106,-658 L390,-802 L234,-834 Z" stroke-width="0" fill="#48241e" fill-opacity="0.7725490196078432" />
<path d="M518,-346 L246,-138 L318,-398 L378,-178 L638,-402 L786,-190 Z" stroke-width="0" fill="#311811" fill-opacity="0.7333333333333333" />
<path d="M330,-190 L282,-630 L134,-678 L570,-1294 L134,-382 L510,-486 Z" stroke-width="0" fill="#460e2f" fill-opacity="0.47843137254901963" />
<path d="M482,-1134 L766,-774 L318,-746 L122,-1046 L222,-822 L138,-430 Z" stroke-width="0" fill="#111e24" fill-opacity="0.9098039215686274" />
<path d="M538,-1170 L486,-714 L218,-246 L518,-126 L326,-382 L426,-498 Z" stroke-width="0" fill="#da7977" fill-opacity="0.011764705882352941" />
<path d="M770,-374 L226,-382 L586,-582 L574,-730 L642,-830 L598,-590 Z" stroke-width="0" fill="#d2dde5" fill-opacity="0.8705882352941177" />
<path d="M394,-946 L614,-934 L110,-290 L126,-294 L158,-1154 L630,-1286 Z" stroke-width="0" fill="#565e3a" fill-opacity="0.5176470588235295" />
<path d="M118,-538 L374,-494 L350,-1270 L262,-710 L682,-922 L662,-750 Z" stroke-width="0" fill="#699d71" fill-opacity="0.6705882352941176" />
<path d="M526,-98 L266,-822 L186,-1158 L666,-722 L490,-802 L646,-278 Z" stroke-width="0" fill="#100200" fill-opacity="0.7803921568627451" />
<path d="M498,-918 L86,-266 L374,-846 L398,-546 L302,-838 L470,-1026 Z" stroke-width="0" fill="#2d3623" fill-opacity="0.9490196078431372" />
<path d="M526,-102 L326,-1154 L162,-510 L234,-662 L210,-1254 L490,-754 Z" stroke-width="0" fill="#da9dd9" fill-opacity="0.20784313725490197" />
<path d="M186,-938 L314,-1218 L522,-286 L430,-262 L338,-1006 L346,-1246 Z" stroke-width="0" fill="#ea3443" fill-opacity="0.5803921568627451" />
<path d="M310,-682 L302,-790 L574,-698 L190,-338 L222,-334 L626,-230 Z" stroke-width="0" fill="#bdcd04" fill-opacity="0.4627450980392157" />
<path d="M582,-594 L178,-442 L322,-674 L374,-442 L442,-314 L590,-230 Z" stroke-width="0" fill="#18155f" fill-opacity="0.14901960784313725" />
<path d="M142,-246 L406,-214 L314,-190 L790,-462 L810,-546 L370,-1110 Z" stroke-width="0" fill="#4e343b" fill-opacity="0.9411764705882353" />
<path d="M586,-566 L758,-214 L238,-366 L158,-674 L722,-294 L630,-642 Z" stroke-width="0" fill="#164713" fill-opacity="0.2549019607843137" />
<path d="M626,-642 L422,-422 L630,-358 L778,-498 L394,-1206 L374,-1130 Z" stroke-width="0" fill="#67a84e" fill-opacity="0.047058823529411764" />
<path d="M86,-194 L314,-366 L778,-710 L526,-814 L534,-410 L538,-134 Z" stroke-width="0" fill="#123e00" fill-opacity="0.5254901960784314" />
<path d="M742,-430 L246,-82 L802,-1302 L306,-730 L530,-218 L366,-1166 Z" stroke-width="0" fill="#221f1d" fill-opacity="0.9764705882352941" />
<path d="M98,-594 L302,-158 L406,-1238 L726,-842 L274,-654 L450,-458 Z" stroke-width="0" fill="#15140b" fill-opacity="0.7254901960784313" />
<path d="M82,-1038 L414,-414 L438,-418 L290,-1266 L618,-1246 L750,-638 Z" stroke-width="0" fill="#110018" fill-opacity="0.9450980392156862" />
<path d="M242,-1286 L390,-622 L410,-194 L238,-682 L218,-102 L590,-366 Z" stroke-width="0" fill="#3c6927" fill-opacity="0.00784313725490196" />
<path d="M782,-706 L710,-94 L438,-1138 L426,-518 L138,-290 L566,-906 Z" stroke-width="0" fill="#452b23" fill-opacity="0.9254901960784314" />
<path d="M150,-434 L662,-526 L406,-518 L578,-594 L142,-382 L438,-262 Z" stroke-width="0" fill="#1a1142" fill-opacity="0.5019607843137255" />
<path d="M558,-1070 L386,-146 L486,-166 L258,-590 L778,-94 L714,-338 Z" stroke-width="0" fill="#065a00" fill-opacity="0.32941176470588235" />
<path d="M650,-802 L134,-102 L606,-522 L430,-194 L526,-254 L482,-590 Z" stroke-width="0" fill="#100019" fill-opacity="0.611764705882353" />
<path d="M270,-358 L466,-894 L298,-514 L406,-1118 L482,-566 L762,-894 Z" stroke-width="0" fill="#a17e01" fill-opacity="0.32941176470588235" />
<path d="M266,-166 L574,-482 L594,-898 L374,-1186 L794,-1298 L406,-1270 Z" stroke-width="0" fill="#302b06" fill-opacity="0.8901960784313725" />
<path d="M490,-186 L86,-438 L434,-182 L406,-602 L534,-1142 L786,-86 Z" stroke-width="0" fill="#151000" fill-opacity="0.6392156862745098" />
<path d="M234,-634 L646,-646 L406,-1174 L498,-422 L134,-818 L530,-582 Z" stroke-width="0" fill="#080000" fill-opacity="0.8862745098039215" />
<path d="M542,-82 L426,-1070 L230,-202 L326,-1178 L562,-338 L158,-146 Z" stroke-width="0" fill="#000000" fill-opacity="0.7450980392156863" />
<path d="M534,-1310 L750,-850 L310,-350 L482,-814 L550,-1202 L730,-354 Z" stroke-width="0" fill="#464225" fill-opacity="0.9882352941176471" />
<path d="M98,-1146 L230,-726 L674,-1282 L318,-1058 L538,-370 L734,-1078 Z" stroke-width="0" fill="#070000" fill-opacity="0.8666666666666667" />
<path d="M118,-294 L334,-826 L414,-598 L242,-638 L494,-1186 L598,-470 Z" stroke-width="0" fill="#446851" fill-opacity="0.3215686274509804" />
<path d="M238,-86 L654,-414 L86,-674 L494,-130 L526,-242 L82,-118 Z" stroke-width="0" fill="#040000" fill-opacity="0.7372549019607844" />
<path d="M114,-610 L514,-182 L350,-490 L730,-230 L126,-954 L154,-906 Z" stroke-width="0" fill="#121824" fill-opacity="0.8901960784313725" />
<path d="M474,-1274 L178,-1270 L694,-530 L170,-254 L458,-538 L766,-1074 Z" stroke-width="0" fill="#23340e" fill-opacity="0.6941176470588235" />
<path d="M630,-1030 L682,-530 L190,-334 L186,-622 L294,-158 L146,-782 Z" stroke-width="0" fill="#0f2416" fill-opacity="0.7803921568627451" />
<path d="M226,-1194 L806,-542 L494,-594 L646,-950 L426,-1238 L258,-306 Z" stroke-width="0" fill="#729b5b" fill-opacity="0.2196078431372549" />
<path d="M178,-1038 L702,-1218 L250,-178 L206,-1250 L454,-482 L158,-678 Z" stroke-width="0" fill="#34323a" fill-opacity="0.9725490196078431" />
<path d="M402,-382 L586,-1254 L294,-170 L582,-1194 L302,-310 L258,-1118 Z" stroke-width="0" fill="#949888" fill-opacity="0.8627450980392157" />
<path d="M430,-718 L314,-586 L358,-242 L518,-614 L166,-1074 L210,-902 Z" stroke-width="0" fill="#000123" fill-opacity="0.7607843137254902" />
<path d="M730,-438 L470,-918 L334,-1258 L154,-570 L366,-1038 L438,-526 Z" stroke-width="0" fill="#796d33" fill-opacity="0.058823529411764705" />
<path d="M366,-206 L678,-162 L570,-1094 L650,-178 L778,-250 L494,-478 Z" stroke-width="0" fill="#35271a" fill-opacity="0.7098039215686275" />
<path d="M186,-374 L458,-838 L122,-754 L594,-1286 L510,-194 L130,-578 Z" stroke-width="0" fill="#605245" fill-opacity="0.4235294117647059" />
<path d="M722,-158 L294,-202 L562,-82 L402,-742 L210,-950 L374,-406 Z" stroke-width="0" fill="#000000" fill-opacity="0.807843137254902" />
<path d="M222,-650 L478,-662 L742,-642 L710,-1102 L302,-374 L126,-998 Z" stroke-width="0" fill="#050400" fill-opacity="0.6941176470588235" />
<path d="M218,-758 L174,-438 L766,-638 L222,-1026 L266,-434 L782,-386 Z" stroke-width="0" fill="#145525" fill-opacity="0.2784313725490196" />
<path d="M762,-458 L434,-850 L154,-1146 L770,-698 L510,-974 L362,-442 Z" stroke-width="0" fill="#6e304a" fill-opacity="0.3254901960784314" />
<path d="M810,-222 L622,-418 L110,-382 L238,-134 L182,-618 L606,-1182 Z" stroke-width="0" fill="#1f221e" fill-opacity="0.8196078431372549" />
<path d="M254,-946 L502,-430 L202,-314 L786,-970 L150,-1138 L418,-94 Z" stroke-width="0" fill="#353309" fill-opacity="0.8235294117647058" />
<path d="M810,-582 L158,-1238 L750,-194 L286,-170 L606,-874 L558,-870 Z" stroke-width="0" fill="#0c3313" fill-opacity="0.6039215686274509" />
<path d="M186,-314 L682,-658 L130,-1026 L262,-134 L686,-466 L174,-142 Z" stroke-width="0" fill="#2e2e35" fill-opacity="0.5294117647058824" />
<path d="M414,-694 L546,-530 L798,-534 L302,-258 L790,-782 L354,-1154 Z" stroke-width="0" fill="#123000" fill-opacity="0.19215686274509805" />
<path d="M598,-982 L566,-382 L618,-502 L534,-954 L250,-286 L182,-378 Z" stroke-width="0" fill="#d17ec5" fill-opacity="0.5019607843137255" />
<path d="M374,-1002 L482,-674 L334,-1070 L98,-1262 L542,-906 L250,-274 Z" stroke-width="0" fill="#aa374d" fill-opacity="0.23529411764705882" />
<path d="M262,-1182 L554,-286 L378,-750 L198,-410 L566,-338 L518,-1254 Z" stroke-width="0" fill="#361621" fill-opacity="0.11764705882352941" />
<path d="M742,-970 L162,-734 L190,-650 L782,-734 L710,-1002 L214,-326 Z" stroke-width="0" fill="#4f7b6f" fill-opacity="0.30196078431372547" />
<path d="M302,-618 L554,-838 L134,-1106 L802,-894 L674,-310 L126,-938 Z" stroke-width="0" fill="#211001" fill-opacity="0.5843137254901961" />
<path d="M210,-770 L610,-446 L726,-1070 L498,-1062 L326,-678 L738,-898 Z" stroke-width="0" fill="#38361f" fill-opacity="0.2627450980392157" />
<path d="M470,-150 L90,-1042 L458,-566 L314,-314 L174,-430 L602,-770 Z" stroke-width="0" fill="#8870e6" fill-opacity="0.07058823529411765" />
<path d="M310,-254 L430,-1106 L718,-270 L386,-90 L314,-370 L614,-254 Z" stroke-width="0" fill="#331443" fill-opacity="0.25098039215686274" />
<path d="M190,-342 L562,-458 L274,-1258 L522,-842 L178,-578 L702,-1014 Z" stroke-width="0" fill="#27363e" fill-opacity="0.10588235294117647" />
<path d="M94,-490 L158,-730 L258,-94 L378,-850 L466,-86 L410,-1266 Z" stroke-width="0" fill="#3c5540" fill-opacity="0.4588235294117647" />
<path d="M498,-1258 L342,-434 L290,-182 L286,-1014 L762,-594 L570,-962 Z" stroke-width="0" fill="#31220e" fill-opacity="0.06274509803921569" />
<path d="M522,-82 L130,-110 L638,-202 L214,-530 L410,-514 L578,-622 Z" stroke-width="0" fill="#000000" fill-opacity="0.7490196078431373" />
<path d="M702,-758 L598,-622 L382,-842 L770,-874 L278,-302 L486,-946 Z" stroke-width="0" fill="#210000" fill-opacity="0.1568627450980392" />
<path d="M98,-1306 L466,-834 L534,-546 L358,-414 L142,-1198 L434,-110 Z" stroke-width="0" fill="#3a3f4c" fill-opacity="0.8705882352941177" />
<path d="M618,-242 L502,-546 L122,-514 L222,-342 L406,-742 L442,-454 Z" stroke-width="0" fill="#f4c46c" fill-opacity="0.09019607843137255" />
<path d="M690,-850 L522,-682 L406,-158 L234,-618 L730,-1062 L154,-770 Z" stroke-width="0" fill="#831200" fill-opacity="0.16862745098039217" />
<path d="M730,-874 L238,-1274 L194,-318 L514,-94 L674,-834 L746,-1190 Z" stroke-width="0" fill="#111815" fill-opacity="0.5019607843137255" />
<path d="M738,-1050 L662,-686 L182,-538 L714,-126 L498,-838 L426,-694 Z" stroke-width="0" fill="#672640" fill-opacity="0.3058823529411765" />
<path d="M746,-242 L458,-946 L230,-762 L218,-1142 L730,-1150 L498,-370 Z" stroke-width="0" fill="#452223" fill-opacity="0.5019607843137255" />
<path d="M794,-166 L450,-634 L490,-178 L538,-894 L190,-746 L178,-574 Z" stroke-width="0" fill="#6d5640" fill-opacity="0.5529411764705883" />
<path d="M358,-374 L770,-738 L410,-1154 L642,-322 L142,-1170 L298,-294 Z" stroke-width="0" fill="#63ab84" fill-opacity="0.21568627450980393" />
<path d="M410,-234 L586,-1178 L654,-378 L346,-130 L218,-602 L538,-990 Z" stroke-width="0" fill="#122000" fill-opacity="0.5019607843137255" />
<text x="448.0" y="0" font-size="70.0" fill="black" text-anchor="middle" transform="translate(0,17.5)">7 OF AIR</text>
</svg>