<?xml version="1.0" encoding="UTF-8"?>
<svg xmlns="http://www.w3.org/2000/svg" xmlns:xlink="http://www.w3.org/1999/xlink"
     width="896" height="1496" viewBox="0 -1400 896 1496" style="font-size:70;font-family:Poor Richard, Times New Roman;stroke:black;stroke-width:1;fill:none">
<defs>
</defs>
<path d="M770,-94 L950,-722 L226,-990 L418,-198 L598,-222 L930,-598 Z" stroke-width="0" fill="#8136fb" fill-opacity="0.011764705882352941" />
<path d="M346,-230 L130,-146 L354,-154 L450,-1186 L82,-1114 L874,-1042 Z" stroke-width="0" fill="#000016" fill-opacity="0.8666666666666667" />
<path d="M598,-850 L718,-514 L894,-818 L522,-950 L898,-358 L362,-642 Z" stroke-width="0" fill="#145e86" fill-opacity="0.2901960784313726" />
<path d="M638,-670 L390,-326 L922,-186 L878,-498 L270,-434 L110,-270 Z" stroke-width="0" fill="#94bff7" fill-opacity="0.054901960784313725" />
<path d="M666,-802 L158,-162 L910,-450 L494,-886 L346,-586 L562,-1002 Z" stroke-width="0" fill="#536f63" fill-opacity="0.7725490196078432" />
<path d="M498,-170 L610,-970 L946,-110 L570,-690 L138,-574 L426,-186 Z" stroke-width="0" fill="#fcbffa" fill-opacity="0.10588235294117647" />
<path d="M198,-470 L422,-514 L474,-494 L270,-586 L494,-202 L394,-838 Z" stroke-width="0" fill="#07c8b2" fill-opacity="0.11764705882352941" />
<path d="M86,-142 L598,-202 L646,-1058 L194,-266 L426,-994 L210,-738 Z" stroke-width="0" fill="#000900" fill-opacity="0.9333333333333333" />
<path d="M542,-742 L766,-702 L86,-930 L398,-446 L434,-254 L810,-782 Z" stroke-width="0" fill="#020b0d" fill-opacity="0.8784313725490196" />
<path d="M186,-490 L590,-662 L302,-206 L458,-782 L586,-362 L306,-386 Z" stroke-width="0" fill="#83677f" fill-opacity="0.47058823529411764" />
<path d="M822,-1018 L266,-774 L278,-966 L206,-1238 L366,-358 L318,-154 Z" stroke-width="0" fill="#0c3310" fill-opacity="0.8980392156862745" />
<path d="M914,-634 L494,-958 L182,-734 L778,-894 L410,-526 L486,-486 Z" stroke-width="0" fill="#f7ecea" fill-opacity="0.01568627450980392" />
<path d="M130,-1110 L902,-670 L862,-454 L82,-874 L494,-314 L210,-182 Z" stroke-width="0" fill="#000406" fill-opacity="0.8666666666666667" />
<path d="M390,-442 L342,-478 L978,-1210 L358,-714 L758,-918 L358,-1062 Z" stroke-width="0" fill="#180611" fill-opacity="0.7137254901960784" />
<path d="M666,-606 L266,-330 L202,-758 L842,-826 L458,-602 L822,-130 Z" stroke-width="0" fill="#f0f3af" fill-opacity="0.03529411764705882" />
<path d="M530,-90 L282,-1066 L638,-442 L602,-1018 L658,-454 L950,-1058 Z" stroke-width="0" fill="#000d29" fill-opacity="0.615686274509804" />
<path d="M294,-558 L558,-938 L158,-326 L390,-94 L518,-290 L642,-1042 Z" stroke-width="0" fill="#001119" fill-opacity="0.8274509803921568" />
<path d="M110,-750 L822,-1014 L90,-710 L322,-1002 L482,-126 L762,-990 Z" stroke-width="0" fill="#000000" fill-opacity="0.7254901960784313" />
<path d="M674,-562 L294,-686 L890,-326 L846,-1194 L466,-102 L710,-410 Z" stroke-width="0" fill="#78816b" fill-opacity="0.8627450980392157" />
<path d="M290,-222 L614,-1170 L158,-610 L86,-214 L714,-1134 L378,-954 Z" stroke-width="0" fill="#00020d" fill-opacity="0.8313725490196079" />
<path d="M474,-150 L394,-146 L706,-338 L778,-254 L958,-922 L386,-610 Z" stroke-width="0" fill="#0d041d" fill-opacity="0.5019607843137255" />
<path d="M238,-186 L322,-578 L978,-626 L634,-330 L922,-694 L126,-774 Z" stroke-width="0" fill="#38e291" fill-opacity="0.027450980392156862" />
<path d="M918,-154 L190,-454 L786,-1078 L670,-298 L190,-1022 L458,-638 Z" stroke-width="0" fill="#b1e0e1" fill-opacity="0.011764705882352941" />
<path d="M918,-478 L498,-298 L546,-1046 L342,-522 L174,-974 L170,-762 Z" stroke-width="0" fill="#2e360e" fill-opacity="0.30980392156862746" />
<path d="M646,-274 L846,-322 L474,-1014 L638,-538 L762,-238 L542,-506 Z" stroke-width="0" fill="#053a9b" fill-opacity="0.00784313725490196" />
<path d="M142,-862 L746,-214 L890,-686 L870,-986 L382,-834 L310,-538 Z" stroke-width="0" fill="#f3baff" fill-opacity="0.8274509803921568" />
<path d="M518,-346 L414,-678 L586,-842 L330,-994 L346,-942 L250,-410 Z" stroke-width="0" fill="#93071a" fill-opacity="0.19215686274509805" />
<path d="M722,-322 L342,-678 L678,-1150 L202,-806 L854,-1242 L310,-1206 Z" stroke-width="0" fill="#000000" fill-opacity="0.8431372549019608" />
<path d="M690,-362 L282,-570 L630,-850 L718,-426 L846,-542 L462,-902 Z" stroke-width="0" fill="#e0c2fc" fill-opacity="0.796078431372549" />
<path d="M278,-338 L334,-626 L282,-1054 L266,-622 L802,-450 L142,-862 Z" stroke-width="0" fill="#380003" fill-opacity="0.8941176470588236" />
<path d="M418,-222 L718,-802 L930,-518 L566,-970 L354,-594 L958,-98 Z" stroke-width="0" fill="#40f6f8" fill-opacity="0.08627450980392157" />
<path d="M726,-350 L610,-1262 L386,-394 L94,-950 L206,-1126 L670,-938 Z" stroke-width="0" fill="#2e372f" fill-opacity="0.807843137254902" />
<path d="M162,-954 L586,-282 L602,-594 L558,-442 L278,-582 L386,-882 Z" stroke-width="0" fill="#190006" fill-opacity="0.2980392156862745" />
<path d="M218,-766 L646,-1182 L706,-1146 L118,-950 L818,-266 L962,-802 Z" stroke-width="0" fill="#d5fdd3" fill-opacity="0.5725490196078431" />
<path d="M502,-1250 L814,-382 L770,-918 L626,-758 L662,-1194 L150,-890 Z" stroke-width="0" fill="#303747" fill-opacity="0.8705882352941177" />
<path d="M122,-706 L526,-1042 L366,-1218 L162,-490 L686,-974 L330,-998 Z" stroke-width="0" fill="#3002a0" fill-opacity="0.9725490196078431" />
<path d="M126,-778 L114,-554 L594,-954 L438,-650 L838,-434 L198,-638 Z" stroke-width="0" fill="#140545" fill-opacity="0.8470588235294118" />
<path d="M662,-854 L482,-934 L526,-414 L942,-1126 L706,-490 L686,-718 Z" stroke-width="0" fill="#041d17" fill-opacity="0.7764705882352941" />
<path d="M198,-226 L134,-494 L342,-514 L582,-150 L454,-1030 L754,-870 Z" stroke-width="0" fill="#5f79ae" fill-opacity="0.0" />
<path d="M842,-106 L114,-518 L510,-314 L486,-990 L278,-122 L162,-550 Z" stroke-width="0" fill="#7c2c5d" fill-opacity="0.17254901960784313" />
<path d="M606,-194 L638,-550 L254,-494 L362,-1278 L458,-90 L702,-1250 Z" stroke-width="0" fill="#1f1e3e" fill-opacity="0.6941176470588235" />
<path d="M478,-582 L854,-426 L754,-766 L462,-962 L966,-798 L186,-326 Z" stroke-width="0" fill="#ed4ed3" fill-opacity="0.0784313725490196" />
<path d="M942,-806 L110,-170 L362,-442 L762,-178 L550,-610 L610,-1126 Z" stroke-width="0" fill="#feefe4" fill-opacity="0.9058823529411765" />
<path d="M298,-270 L350,-214 L578,-502 L122,-1066 L670,-358 L582,-670 Z" stroke-width="0" fill="#aeb6bb" fill-opacity="0.40784313725490196" />
<path d="M530,-582 L462,-478 L130,-690 L298,-666 L154,-198 L110,-1094 Z" stroke-width="0" fill="#000109" fill-opacity="0.6196078431372549" />
<path d="M746,-162 L482,-350 L674,-674 L890,-222 L178,-890 L898,-382 Z" stroke-width="0" fill="#fadde8" fill-opacity="0.9411764705882353" />
<path d="M710,-398 L866,-938 L190,-190 L102,-90 L786,-738 L194,-930 Z" stroke-width="0" fill="#e7fbfc" fill-opacity="0.08235294117647059" />
<path d="M254,-1266 L154,-338 L326,-954 L746,-470 L314,-858 L314,-962 Z" stroke-width="0" fill="#000d0b" fill-opacity="0.9686274509803922" />
<path d="M778,-1042 L226,-790 L978,-1186 L126,-746 L178,-662 L386,-142 Z" stroke-width="0" fill="#270d37" fill-opacity="0.6784313725490196" />
<path d="M230,-706 L238,-1074 L922,-1154 L598,-466 L614,-950 L634,-362 Z" stroke-width="0" fill="#2b3d40" fill-opacity="0.788235294117647" />
<path d="M134,-610 L558,-294 L890,-1234 L122,-146 L866,-258 L482,-962 Z" stroke-width="0" fill="#3b5b89" fill-opacity="0.2784313725490196" />
<path d="M198,-202 L418,-962 L586,-1218 L794,-1250 L106,-1278 L882,-486 Z" stroke-width="0" fill="#131a16" fill-opacity="0.9215686274509803" />
<path d="M234,-142 L598,-994 L310,-226 L290,-418 L474,-938 L474,-254 Z" stroke-width="0" fill="#046d18" fill-opacity="0.9294117647058824" />
<path d="M146,-150 L186,-454 L934,-778 L558,-178 L318,-1274 L230,-1242 Z" stroke-width="0" fill="#0d021d" fill-opacity="0.06274509803921569" />
<path d="M670,-586 L686,-770 L494,-546 L726,-842 L602,-554 L458,-1262 Z" stroke-width="0" fill="#388795" fill-opacity="0.12549019607843137" />
<path d="M970,-218 L210,-842 L230,-474 L798,-666 L526,-1058 L530,-1046 Z" stroke-width="0" fill="#5ab29c" fill-opacity="0.5568627450980392" />
<path d="M818,-558 L542,-766 L254,-1162 L918,-606 L510,-182 L274,-122 Z" stroke-width="0" fill="#fefffe" fill-opacity="0.4" />
<path d="M166,-1062 L722,-278 L678,-162 L750,-966 L386,-710 L306,-762 Z" stroke-width="0" fill="#efebdd" fill-opacity="0.5725490196078431" />
<path d="M970,-490 L462,-734 L170,-1170 L350,-434 L274,-662 L106,-250 Z" stroke-width="0" fill="#000001" fill-opacity="0.5019607843137255" />
<path d="M146,-778 L390,-1110 L618,-702 L466,-86 L494,-966 L446,-806 Z" stroke-width="0" fill="#002122" fill-opacity="0.6274509803921569" />
<path d="M918,-966 L342,-634 L186,-638 L942,-498 L370,-426 L266,-1062 Z" stroke-width="0" fill="#211e41" fill-opacity="0.6980392156862745" />
<path d="M106,-586 L366,-1134 L494,-406 L494,-846 L570,-1034 L710,-622 Z" stroke-width="0" fill="#003f24" fill-opacity="0.11372549019607843" />
<path d="M434,-158 L270,-426 L86,-606 L454,-486 L162,-594 L642,-570 Z" stroke-width="0" fill="#e62ea3" fill-opacity="0.9529411764705882" />
<path d="M178,-142 L870,-158 L414,-990 L442,-1118 L826,-874 L442,-382 Z" stroke-width="0" fill="#8a918f" fill-opacity="0.21176470588235294" />
<path d="M338,-162 L326,-418 L398,-330 L130,-758 L962,-138 L358,-406 Z" stroke-width="0" fill="#f258df" fill-opacity="0.0196078431372549" />
<path d="M294,-222 L102,-646 L342,-82 L770,-882 L598,-1266 L590,-730 Z" stroke-width="0" fill="#263826" fill-opacity="0.8313725490196079" />
<path d="M350,-1090 L138,-366 L238,-606 L586,-262 L186,-1050 L138,-1010 Z" stroke-width="0" fill="#0a0505" fill-opacity="0.6627450980392157" />
<path d="M242,-98 L410,-806 L238,-662 L838,-802 L794,-1238 L690,-1118 Z" stroke-width="0" fill="#3b3747" fill-opacity="0.6392156862745098" />
<path d="M770,-850 L306,-598 L938,-274 L546,-430 L786,-482 L98,-930 Z" stroke-width="0" fill="#445d72" fill-opacity="0.29411764705882354" />
<path d="M274,-1094 L582,-130 L450,-250 L350,-670 L662,-678 L390,-1194 Z" stroke-width="0" fill="#06410c" fill-opacity="0.5607843137254902" />
<path d="M270,-494 L562,-670 L742,-258 L214,-1198 L518,-1106 L770,-1066 Z" stroke-width="0" fill="#44252e" fill-opacity="0.5019607843137255" />
<path d="M134,-650 L602,-510 L710,-454 L682,-698 L134,-526 L86,-178 Z" stroke-width="0" fill="#4c4148" fill-opacity="0.9647058823529412" />
<path d="M790,-674 L330,-570 L182,-882 L202,-270 L822,-374 L762,-1250 Z" stroke-width="0" fill="#eec062" fill-opacity="0.1450980392156863" />
<path d="M762,-538 L158,-406 L938,-854 L738,-570 L138,-1278 L926,-502 Z" stroke-width="0" fill="#c17b63" fill-opacity="0.21176470588235294" />
<path d="M246,-598 L266,-1094 L778,-506 L722,-958 L434,-134 L306,-482 Z" stroke-width="0" fill="#8ebae8" fill-opacity="0.023529411764705882" />
<path d="M930,-470 L886,-1086 L342,-166 L274,-262 L266,-798 L102,-214 Z" stroke-width="0" fill="#e9f5c8" fill-opacity="0.25882352941176473" />
<path d="M738,-614 L834,-622 L98,-554 L302,-586 L310,-998 L442,-630 Z" stroke-width="0" fill="#255b0c" fill-opacity="0.10196078431372549" />
<path d="M450,-394 L230,-386 L458,-818 L402,-142 L478,-910 L770,-1050 Z" stroke-width="0" fill="#78bb93" fill-opacity="0.2" />
<path d="M310,-298 L354,-126 L450,-486 L250,-94 L374,-1062 L98,-566 Z" stroke-width="0" fill="#3e3136" fill-opacity="0.4823529411764706" />
<path d="M578,-278 L438,-710 L678,-970 L918,-866 L446,-858 L550,-314 Z" stroke-width="0" fill="#b68de7" fill-opacity="0.07058823529411765" />
<path d="M942,-342 L666,-578 L142,-526 L226,-1238 L414,-218 L626,-394 Z" stroke-width="0" fill="#263924" fill-opacity="0.25882352941176473" />
<path d="M450,-366 L558,-390 L290,-974 L810,-386 L894,-502 L278,-574 Z" stroke-width="0" fill="#db6d1d" fill-opacity="0.16470588235294117" />
<path d="M378,-634 L610,-1214 L334,-942 L750,-914 L906,-210 L110,-458 Z" stroke-width="0" fill="#e3a38c" fill-opacity="0.07058823529411765" />
<path d="M642,-838 L138,-722 L258,-1222 L966,-126 L214,-142 L202,-1014 Z" stroke-width="0" fill="#183353" fill-opacity="0.33725490196078434" />
<path d="M522,-526 L210,-906 L622,-638 L94,-606 L282,-214 L302,-1026 Z" stroke-width="0" fill="#a18558" fill-opacity="0.4666666666666667" />
<path d="M358,-278 L522,-654 L330,-174 L958,-230 L402,-822 L358,-954 Z" stroke-width="0" fill="#919e9e" fill-opacity="0.6588235294117647" />
<path d="M458,-350 L250,-870 L170,-1178 L950,-678 L870,-302 L378,-422 Z" stroke-width="0" fill="#9568c9" fill-opacity="0.09803921568627451" />
<path d="M406,-738 L802,-978 L534,-622 L414,-134 L734,-330 L138,-1078 Z" stroke-width="0" fill="#566345" fill-opacity="0.1411764705882353" />
<path d="M898,-698 L598,-906 L678,-266 L278,-242 L166,-326 L446,-1134 Z" stroke-width="0" fill="#160217" fill-opacity="0.17647058823529413" />
<path d="M242,-362 L974,-154 L766,-414 L174,-718 L570,-1110 L298,-1262 Z" stroke-width="0" fill="#295cd5" fill-opacity="0.0392156862745098" />
<path d="M890,-350 L886,-442 L82,-890 L226,-642 L670,-870 L846,-926 Z" stroke-width="0" fill="#a7fcf5" fill-opacity="0.27058823529411763" />
<path d="M202,-258 L698,-1086 L362,-98 L546,-1162 L550,-726 L546,-310 Z" stroke-width="0" fill="#234a50" fill-opacity="0.3764705882352941" />
<path d="M434,-630 L582,-1270 L562,-178 L590,-674 L374,-710 L202,-178 Z" stroke-width="0" fill="#2f4144" fill-opacity="0.40784313725490196" />
<path d="M194,-806 L98,-594 L374,-906 L274,-382 L670,-858 L662,-126 Z" stroke-width="0" fill="#45695d" fill-opacity="0.25098039215686274" />
<path d="M230,-278 L786,-682 L682,-606 L922,-622 L710,-334 L354,-458 Z" stroke-width="0" fill="#ff97e0" fill-opacity="0.06274509803921569" />
<path d="M246,-166 L974,-654 L694,-1078 L766,-406 L662,-662 L246,-458 Z" stroke-width="0" fill="#d2f9b2" fill-opacity="0.16470588235294117" />
<path d="M662,-310 L394,-526 L546,-562 L206,-114 L298,-1186 L302,-482 Z" stroke-width="0" fill="#37201c" fill-opacity="0.15294117647058825" />
<path d="M262,-1082 L90,-538 L146,-1022 L114,-650 L390,-442 L230,-554 Z" stroke-width="0" fill="#1f2f00" fill-opacity="0.5098039215686274" />
<path d="M602,-846 L702,-750 L250,-402 L478,-366 L82,-1034 L774,-730 Z" stroke-width="0" fill="#282226" fill-opacity="0.3333333333333333" />
<path d="M186,-114 L606,-162 L134,-606 L554,-874 L810,-146 L230,-998 Z" stroke-width="0" fill="#241d36" fill-opacity="0.30196078431372547" />
<text x="448.0" y="0" font-size="70.0" fill="black" text-anchor="middle" transform="translate(0,17.5)">KING OF AIR</text>
</svg>