<?xml version="1.0" encoding="UTF-8"?>
<svg xmlns="http://www.w3.org/2000/svg" xmlns:xlink="http://www.w3.org/1999/xlink"
     width="275" height="375" viewBox="0 -350 275 375">
<defs>
</defs>
<rect x="15" y="-335" width="245" height="320" stroke="black" stroke-width="4" fill="white" />
<path d="M100,-323 L184,-118 L119,-83 L42,-168 L165,-42 L81,-158 Z" stroke-width="0" fill="#132838" fill-opacity="0.5333333333333333" />
<path d="M168,-80 L42,-309 L105,-221 L130,-129 L181,-202 L178,-156 Z" stroke-width="0" fill="#283600" fill-opacity="0.5686274509803921" />
<path d="M107,-32 L205,-39 L103,-52 L165,-117 L72,-284 L71,-175 Z" stroke-width="0" fill="#2d1c23" fill-opacity="0.14901960784313725" />
<path d="M90,-139 L49,-208 L212,-180 L43,-179 L145,-289 L216,-52 Z" stroke-width="0" fill="#ede3db" fill-opacity="0.09411764705882353" />
<path d="M182,-94 L227,-184 L234,-274 L216,-101 L237,-98 L111,-116 Z" stroke-width="0" fill="#d3dcdd" fill-opacity="0.16470588235294117" />
<path d="M136,-50 L93,-281 L139,-255 L114,-138 L129,-287 L145,-119 Z" stroke-width="0" fill="#e658f0" fill-opacity="0.2" />
<path d="M151,-218 L90,-320 L75,-302 L169,-259 L200,-323 L45,-164 Z" stroke-width="0" fill="#8001b1" fill-opacity="0.00392156862745098" />
<path d="M32,-167 L201,-150 L58,-119 L51,-285 L102,-63 L98,-252 Z" stroke-width="0" fill="#4c0ed0" fill-opacity="0.4235294117647059" />
<path d="M193,-242 L26,-267 L219,-41 L82,-320 L67,-172 L107,-25 Z" stroke-width="0" fill="#b14513" fill-opacity="0.25882352941176473" />
<path d="M155,-247 L113,-94 L206,-195 L241,-213 L46,-253 L226,-324 Z" stroke-width="0" fill="#283d02" fill-opacity="0.4470588235294118" />
<path d="M175,-94 L248,-249 L162,-76 L134,-134 L125,-280 L29,-123 Z" stroke-width="0" fill="#d4eae0" fill-opacity="0.7019607843137254" />
<path d="M137,-145 L156,-211 L64,-272 L75,-154 L37,-193 L215,-161 Z" stroke-width="0" fill="#f6fac3" fill-opacity="0.6901960784313725" />
<path d="M161,-46 L140,-65 L102,-87 L70,-80 L163,-57 L108,-157 Z" stroke-width="0" fill="#d3d601" fill-opacity="0.8470588235294118" />
<path d="M173,-108 L228,-90 L90,-56 L202,-147 L58,-68 L203,-310 Z" stroke-width="0" fill="#e89785" fill-opacity="0.615686274509804" />
<path d="M94,-237 L159,-284 L171,-34 L125,-318 L96,-245 L63,-159 Z" stroke-width="0" fill="#3b2c00" fill-opacity="0.5019607843137255" />
<path d="M161,-128 L156,-29 L70,-36 L106,-318 L43,-161 L112,-278 Z" stroke-width="0" fill="#dfaf54" fill-opacity="0.4588235294117647" />
<path d="M54,-304 L155,-277 L106,-318 L52,-292 L97,-103 L122,-165 Z" stroke-width="0" fill="#9da79d" fill-opacity="0.8117647058823529" />
<path d="M42,-87 L203,-109 L168,-32 L247,-65 L201,-142 L97,-161 Z" stroke-width="0" fill="#8d2e3b" fill-opacity="0.12156862745098039" />
<path d="M181,-167 L35,-71 L131,-242 L189,-205 L243,-94 L100,-73 Z" stroke-width="0" fill="#a9cbc6" fill-opacity="0.18823529411764706" />
<path d="M208,-50 L157,-46 L35,-116 L189,-222 L177,-222 L205,-291 Z" stroke-width="0" fill="#26b5c9" fill-opacity="0.011764705882352941" />
<path d="M148,-265 L197,-292 L152,-266 L63,-211 L62,-115 L95,-255 Z" stroke-width="0" fill="#ac7260" fill-opacity="0.4470588235294118" />
<path d="M216,-90 L218,-94 L85,-73 L59,-199 L94,-36 L144,-138 Z" stroke-width="0" fill="#c9cd7b" fill-opacity="0.0" />
<path d="M112,-272 L114,-57 L165,-272 L181,-109 L195,-208 L124,-297 Z" stroke-width="0" fill="#3d6d0e" fill-opacity="0.7803921568627451" />
<path d="M70,-229 L35,-37 L49,-243 L149,-231 L42,-44 L98,-176 Z" stroke-width="0" fill="#37d3c9" fill-opacity="0.03137254901960784" />
<path d="M211,-302 L205,-30 L40,-155 L40,-165 L160,-111 L29,-197 Z" stroke-width="0" fill="#a3b1b7" fill-opacity="0.6235294117647059" />
<path d="M201,-269 L206,-310 L53,-55 L142,-99 L140,-168 L85,-212 Z" stroke-width="0" fill="#939e93" fill-opacity="0.3058823529411765" />
<path d="M181,-162 L91,-130 L141,-102 L86,-89 L246,-323 L234,-132 Z" stroke-width="0" fill="#43452c" fill-opacity="0.24705882352941178" />
<path d="M85,-265 L53,-272 L97,-174 L214,-56 L43,-319 L114,-306 Z" stroke-width="0" fill="#3a6e47" fill-opacity="0.4392156862745098" />
<path d="M75,-113 L75,-124 L184,-292 L55,-26 L118,-104 L57,-296 Z" stroke-width="0" fill="#8590bd" fill-opacity="0.2823529411764706" />
<path d="M49,-154 L44,-28 L199,-56 L82,-114 L237,-203 L32,-28 Z" stroke-width="0" fill="#9c703b" fill-opacity="0.5019607843137255" />
<path d="M90,-132 L27,-169 L177,-31 L25,-44 L51,-90 L222,-188 Z" stroke-width="0" fill="#a3826a" fill-opacity="0.4470588235294118" />
<path d="M116,-100 L78,-319 L27,-231 L39,-67 L178,-133 L177,-42 Z" stroke-width="0" fill="#9d3707" fill-opacity="0.32941176470588235" />
<path d="M99,-154 L100,-97 L218,-168 L56,-119 L135,-293 L73,-164 Z" stroke-width="0" fill="#b8fb05" fill-opacity="0.9725490196078431" />
<path d="M182,-104 L193,-174 L137,-310 L79,-132 L198,-165 L142,-175 Z" stroke-width="0" fill="#66822b" fill-opacity="0.8196078431372549" />
<path d="M168,-115 L202,-280 L111,-79 L179,-131 L162,-207 L35,-154 Z" stroke-width="0" fill="#9bdcc9" fill-opacity="0.24313725490196078" />
<path d="M236,-58 L87,-266 L36,-147 L203,-48 L179,-75 L96,-320 Z" stroke-width="0" fill="#bd9460" fill-opacity="0.19607843137254902" />
<path d="M77,-99 L41,-83 L223,-226 L222,-80 L52,-69 L232,-165 Z" stroke-width="0" fill="#f9fce7" fill-opacity="0.803921568627451" />
<path d="M248,-238 L37,-27 L114,-154 L229,-83 L74,-258 L89,-279 Z" stroke-width="0" fill="#bdcbc6" fill-opacity="0.023529411764705882" />
<path d="M230,-54 L247,-83 L105,-307 L201,-99 L212,-34 L105,-86 Z" stroke-width="0" fill="#e7f3c8" fill-opacity="0.48627450980392156" />
<path d="M75,-59 L190,-95 L206,-269 L64,-117 L70,-286 L185,-76 Z" stroke-width="0" fill="#f4e0c5" fill-opacity="0.3333333333333333" />
<path d="M204,-45 L84,-200 L192,-116 L176,-211 L176,-125 L237,-301 Z" stroke-width="0" fill="#d5cc00" fill-opacity="0.00392156862745098" />
<path d="M57,-139 L70,-316 L70,-83 L180,-227 L182,-211 L224,-258 Z" stroke-width="0" fill="#7a9bad" fill-opacity="0.3215686274509804" />
<path d="M134,-25 L91,-103 L64,-37 L149,-116 L79,-66 L34,-211 Z" stroke-width="0" fill="#83d296" fill-opacity="0.5568627450980392" />
<path d="M184,-86 L243,-60 L66,-25 L174,-249 L93,-96 L38,-185 Z" stroke-width="0" fill="#e3eef7" fill-opacity="0.6784313725490196" />
<path d="M213,-166 L76,-220 L114,-261 L75,-293 L52,-197 L44,-214 Z" stroke-width="0" fill="#d7d7b6" fill-opacity="0.4627450980392157" />
<path d="M104,-87 L75,-310 L134,-87 L98,-209 L47,-103 L88,-139 Z" stroke-width="0" fill="#87aec9" fill-opacity="0.30196078431372547" />
<path d="M113,-272 L62,-85 L84,-210 L58,-132 L170,-42 L140,-108 Z" stroke-width="0" fill="#eb543a" fill-opacity="0.43529411764705883" />
<path d="M31,-226 L62,-196 L122,-204 L84,-175 L161,-171 L121,-291 Z" stroke-width="0" fill="#68a2d1" fill-opacity="0.17647058823529413" />
<path d="M246,-244 L112,-94 L94,-146 L196,-29 L105,-314 L101,-195 Z" stroke-width="0" fill="#e8f2ea" fill-opacity="0.050980392156862744" />
<path d="M166,-257 L83,-74 L245,-144 L63,-125 L44,-64 L191,-76 Z" stroke-width="0" fill="#e4e69a" fill-opacity="0.396078431372549" />
<path d="M156,-61 L229,-253 L173,-34 L59,-282 L52,-137 L159,-131 Z" stroke-width="0" fill="#dcf3f4" fill-opacity="0.3411764705882353" />
<path d="M38,-252 L201,-176 L210,-83 L61,-68 L212,-176 L67,-40 Z" stroke-width="0" fill="#ffe8ee" fill-opacity="0.24313725490196078" />
<path d="M245,-57 L34,-95 L102,-158 L88,-30 L244,-39 L29,-234 Z" stroke-width="0" fill="#e9af80" fill-opacity="0.3607843137254902" />
<path d="M45,-281 L117,-232 L127,-279 L66,-127 L42,-135 L66,-268 Z" stroke-width="0" fill="#a8d980" fill-opacity="0.39215686274509803" />
<path d="M110,-315 L115,-136 L54,-306 L158,-32 L122,-111 L213,-122 Z" stroke-width="0" fill="#a47348" fill-opacity="0.7019607843137254" />
<path d="M181,-136 L111,-298 L156,-306 L231,-209 L111,-40 L145,-233 Z" stroke-width="0" fill="#d4c4cb" fill-opacity="0.7098039215686275" />
<path d="M204,-81 L52,-152 L137,-284 L135,-227 L28,-189 L177,-200 Z" stroke-width="0" fill="#d0e3ba" fill-opacity="0.24313725490196078" />
<path d="M58,-181 L187,-198 L210,-261 L125,-127 L206,-285 L136,-49 Z" stroke-width="0" fill="#fce8f4" fill-opacity="0.5882352941176471" />
<path d="M131,-101 L129,-128 L150,-305 L98,-161 L165,-141 L146,-252 Z" stroke-width="0" fill="#133034" fill-opacity="0.09019607843137255" />
<path d="M235,-159 L97,-208 L246,-207 L157,-261 L235,-102 L34,-223 Z" stroke-width="0" fill="#defbc2" fill-opacity="1.0" />
<path d="M249,-173 L134,-223 L239,-49 L44,-172 L137,-231 L189,-287 Z" stroke-width="0" fill="#d5d09f" fill-opacity="0.047058823529411764" />
<path d="M169,-43 L48,-143 L217,-169 L126,-43 L52,-124 L144,-40 Z" stroke-width="0" fill="#d9fe95" fill-opacity="0.2901960784313726" />
<path d="M103,-72 L224,-131 L27,-54 L240,-100 L189,-174 L148,-41 Z" stroke-width="0" fill="#f6a9e4" fill-opacity="0.10980392156862745" />
<path d="M160,-238 L65,-25 L78,-43 L57,-96 L118,-52 L162,-278 Z" stroke-width="0" fill="#ead2b6" fill-opacity="0.4392156862745098" />
<path d="M104,-29 L55,-108 L75,-193 L195,-74 L163,-196 L194,-224 Z" stroke-width="0" fill="#e7f8d3" fill-opacity="0.043137254901960784" />
<path d="M28,-111 L95,-294 L40,-119 L226,-172 L150,-225 L38,-88 Z" stroke-width="0" fill="#bbd8a3" fill-opacity="0.7137254901960784" />
<path d="M40,-136 L120,-132 L231,-300 L110,-35 L234,-222 L128,-131 Z" stroke-width="0" fill="#95fff3" fill-opacity="0.1607843137254902" />
<path d="M46,-254 L244,-117 L195,-279 L29,-122 L167,-44 L193,-65 Z" stroke-width="0" fill="#fddbf5" fill-opacity="0.30196078431372547" />
<path d="M63,-114 L157,-268 L204,-110 L215,-41 L209,-114 L43,-58 Z" stroke-width="0" fill="#062b5d" fill-opacity="0.12549019607843137" />
<path d="M41,-200 L132,-50 L219,-158 L158,-168 L198,-130 L157,-283 Z" stroke-width="0" fill="#83b916" fill-opacity="0.07058823529411765" />
<path d="M226,-63 L41,-106 L124,-150 L40,-155 L25,-294 L161,-123 Z" stroke-width="0" fill="#eee6ae" fill-opacity="0.9137254901960784" />
<path d="M105,-114 L227,-120 L233,-241 L202,-163 L40,-229 L155,-275 Z" stroke-width="0" fill="#e6c2ef" fill-opacity="0.17254901960784313" />
<path d="M150,-75 L178,-185 L215,-232 L72,-45 L122,-61 L213,-269 Z" stroke-width="0" fill="#f1ecc5" fill-opacity="0.34509803921568627" />
<path d="M36,-211 L185,-61 L247,-294 L88,-260 L58,-201 L78,-43 Z" stroke-width="0" fill="#d0e5f6" fill-opacity="0.06666666666666667" />
<path d="M134,-89 L62,-101 L209,-78 L25,-171 L198,-47 L95,-314 Z" stroke-width="0" fill="#add2bb" fill-opacity="0.19607843137254902" />
<path d="M197,-131 L207,-48 L30,-48 L211,-194 L201,-187 L210,-286 Z" stroke-width="0" fill="#fce6cc" fill-opacity="0.5647058823529412" />
<path d="M67,-127 L154,-231 L187,-159 L139,-169 L163,-135 L175,-41 Z" stroke-width="0" fill="#ebea13" fill-opacity="0.07450980392156863" />
<path d="M238,-320 L203,-203 L146,-317 L155,-261 L86,-114 L87,-139 Z" stroke-width="0" fill="#969b3c" fill-opacity="0.23921568627450981" />
<path d="M191,-177 L185,-92 L92,-278 L125,-113 L185,-75 L96,-104 Z" stroke-width="0" fill="#e7d3f3" fill-opacity="0.058823529411764705" />
<path d="M55,-83 L167,-121 L230,-282 L131,-144 L35,-118 L40,-37 Z" stroke-width="0" fill="#fcf6f7" fill-opacity="0.16470588235294117" />
<path d="M94,-55 L78,-33 L84,-90 L58,-286 L161,-142 L30,-302 Z" stroke-width="0" fill="#cada78" fill-opacity="0.7490196078431373" />
<path d="M197,-267 L100,-71 L200,-63 L47,-89 L133,-125 L110,-70 Z" stroke-width="0" fill="#fcd9da" fill-opacity="0.1411764705882353" />
<path d="M224,-273 L54,-297 L156,-40 L25,-307 L84,-259 L51,-132 Z" stroke-width="0" fill="#5e8b72" fill-opacity="0.03529411764705882" />
<path d="M153,-188 L59,-256 L146,-218 L121,-114 L103,-59 L28,-80 Z" stroke-width="0" fill="#f2f1c9" fill-opacity="0.43529411764705883" />
<path d="M112,-33 L190,-30 L123,-229 L38,-236 L98,-68 L105,-237 Z" stroke-width="0" fill="#d4dfef" fill-opacity="0.37254901960784315" />
<path d="M40,-153 L78,-281 L43,-124 L132,-121 L151,-323 L85,-28 Z" stroke-width="0" fill="#f6ddbd" fill-opacity="0.3176470588235294" />
<path d="M132,-146 L205,-125 L201,-94 L183,-252 L130,-81 L136,-82 Z" stroke-width="0" fill="#bcebbc" fill-opacity="0.023529411764705882" />
<path d="M235,-141 L73,-170 L50,-142 L56,-239 L113,-64 L41,-185 Z" stroke-width="0" fill="#f3e8ad" fill-opacity="0.3176470588235294" />
<path d="M182,-164 L206,-206 L70,-103 L112,-31 L80,-234 L169,-57 Z" stroke-width="0" fill="#a4c5f0" fill-opacity="0.047058823529411764" />
<path d="M121,-73 L216,-241 L68,-66 L197,-57 L61,-221 L191,-117 Z" stroke-width="0" fill="#fedd85" fill-opacity="0.07058823529411765" />
<path d="M55,-223 L185,-146 L87,-85 L206,-319 L37,-119 L166,-159 Z" stroke-width="0" fill="#f3bfcd" fill-opacity="0.1450980392156863" />
<path d="M216,-59 L164,-190 L179,-182 L112,-225 L79,-80 L71,-130 Z" stroke-width="0" fill="#f8fbe6" fill-opacity="0.8705882352941177" />
<path d="M141,-75 L120,-95 L36,-167 L146,-182 L224,-198 L183,-217 Z" stroke-width="0" fill="#fef9c9" fill-opacity="0.2" />
<path d="M209,-268 L165,-174 L90,-196 L88,-85 L103,-317 L224,-54 Z" stroke-width="0" fill="#d3e5ef" fill-opacity="0.5019607843137255" />
<path d="M171,-286 L223,-147 L246,-152 L157,-230 L244,-87 L210,-86 Z" stroke-width="0" fill="#dbfef9" fill-opacity="0.6588235294117647" />
<path d="M130,-109 L83,-202 L60,-138 L107,-80 L181,-35 L137,-204 Z" stroke-width="0" fill="#f6f7e5" fill-opacity="0.1803921568627451" />
<path d="M83,-62 L103,-188 L160,-50 L124,-207 L50,-301 L54,-231 Z" stroke-width="0" fill="#b9befb" fill-opacity="0.16470588235294117" />
<path d="M239,-264 L152,-207 L149,-195 L229,-55 L102,-135 L142,-208 Z" stroke-width="0" fill="#fff2c6" fill-opacity="0.5843137254901961" />
<path d="M241,-187 L162,-142 L158,-320 L235,-92 L156,-216 L117,-64 Z" stroke-width="0" fill="#f4b0c5" fill-opacity="0.12549019607843137" />
<path d="M37,-302 L57,-40 L161,-211 L217,-135 L164,-112 L118,-259 Z" stroke-width="0" fill="#f7cb98" fill-opacity="0.1411764705882353" />
<text x="137.5" y="12.5" font-size="20.0" fill="black" text-anchor="middle" transform="translate(0,5.0)">2 OF AIR</text>
</svg>