<?xml version="1.0" encoding="UTF-8"?>
<svg xmlns="http://www.w3.org/2000/svg" xmlns:xlink="http://www.w3.org/1999/xlink"
     width="896" height="1496" viewBox="0 -1400 896 1496" style="font-size:70;font-family:Poor Richard, Times New Roman;stroke:black;stroke-width:1;fill:none">
<defs>
</defs>
<path d="M666,-214 L470,-522 L386,-134 L374,-918 L558,-674 L594,-278 Z" stroke-width="0" fill="#007809" fill-opacity="0.7607843137254902" />
<path d="M266,-1142 L238,-1126 L446,-258 L614,-222 L566,-118 L734,-574 Z" stroke-width="0" fill="#000d00" fill-opacity="0.8" />
<path d="M410,-802 L134,-106 L758,-210 L370,-286 L450,-1278 L386,-1186 Z" stroke-width="0" fill="#000000" fill-opacity="0.9490196078431372" />
<path d="M146,-638 L678,-166 L198,-486 L282,-590 L134,-586 L334,-586 Z" stroke-width="0" fill="#000000" fill-opacity="0.9490196078431372" />
<path d="M318,-922 L186,-1094 L98,-1150 L314,-746 L170,-98 L550,-878 Z" stroke-width="0" fill="#000000" fill-opacity="0.6549019607843137" />
<path d="M314,-330 L114,-1102 L238,-918 L86,-942 L622,-402 L602,-434 Z" stroke-width="0" fill="#080421" fill-opacity="0.5725490196078431" />
<path d="M170,-638 L170,-510 L234,-870 L694,-1162 L670,-1174 L246,-810 Z" stroke-width="0" fill="#9f34aa" fill-opacity="0.4117647058823529" />
<path d="M494,-470 L746,-370 L170,-994 L82,-514 L362,-302 L334,-690 Z" stroke-width="0" fill="#000000" fill-opacity="0.8" />
<path d="M86,-882 L794,-514 L210,-914 L498,-1230 L162,-546 L206,-466 Z" stroke-width="0" fill="#000012" fill-opacity="0.9411764705882353" />
<path d="M578,-1010 L98,-514 L574,-302 L562,-542 L138,-394 L630,-770 Z" stroke-width="0" fill="#040002" fill-opacity="0.9450980392156862" />
<path d="M550,-98 L722,-798 L222,-254 L450,-390 L526,-746 L94,-350 Z" stroke-width="0" fill="#000000" fill-opacity="0.996078431372549" />
<path d="M650,-174 L602,-170 L390,-526 L666,-558 L566,-398 L478,-698 Z" stroke-width="0" fill="#532b00" fill-opacity="0.6666666666666666" />
<path d="M434,-206 L718,-1210 L110,-1154 L554,-646 L686,-150 L270,-1278 Z" stroke-width="0" fill="#228785" fill-opacity="0.9333333333333333" />
<path d="M102,-926 L386,-598 L762,-830 L226,-806 L722,-274 L454,-150 Z" stroke-width="0" fill="#012646" fill-opacity="0.7803921568627451" />
<path d="M190,-978 L582,-554 L734,-498 L106,-86 L322,-762 L362,-658 Z" stroke-width="0" fill="#000000" fill-opacity="0.8509803921568627" />
<path d="M150,-242 L326,-374 L94,-198 L598,-1274 L398,-194 L506,-850 Z" stroke-width="0" fill="#000000" fill-opacity="0.6901960784313725" />
<path d="M382,-858 L274,-734 L138,-338 L198,-226 L250,-862 L238,-1002 Z" stroke-width="0" fill="#000000" fill-opacity="0.3058823529411765" />
<path d="M214,-1166 L166,-550 L178,-222 L162,-918 L602,-966 L334,-406 Z" stroke-width="0" fill="#000000" fill-opacity="0.792156862745098" />
<path d="M362,-294 L510,-102 L710,-1246 L750,-230 L706,-998 L330,-1174 Z" stroke-width="0" fill="#000900" fill-opacity="0.9254901960784314" />
<path d="M286,-298 L558,-750 L490,-714 L150,-702 L758,-926 L710,-890 Z" stroke-width="0" fill="#035201" fill-opacity="0.792156862745098" />
<path d="M186,-406 L570,-130 L550,-350 L126,-1166 L130,-494 L206,-402 Z" stroke-width="0" fill="#82dcdd" fill-opacity="0.5019607843137255" />
<path d="M318,-818 L742,-1222 L610,-1218 L562,-842 L518,-286 L638,-370 Z" stroke-width="0" fill="#050a25" fill-opacity="0.9372549019607843" />
<path d="M694,-406 L562,-834 L346,-498 L438,-1170 L462,-118 L278,-570 Z" stroke-width="0" fill="#000000" fill-opacity="0.9568627450980393" />
<path d="M530,-118 L342,-686 L550,-410 L646,-562 L738,-1134 L334,-338 Z" stroke-width="0" fill="#0c2404" fill-opacity="0.8745098039215686" />
<path d="M290,-630 L566,-514 L654,-378 L362,-446 L702,-398 L786,-194 Z" stroke-width="0" fill="#000000" fill-opacity="0.9411764705882353" />
<path d="M562,-510 L698,-998 L614,-766 L582,-1054 L86,-646 L218,-1090 Z" stroke-width="0" fill="#27821c" fill-opacity="0.4823529411764706" />
<path d="M426,-630 L642,-1006 L122,-958 L802,-134 L778,-1130 L106,-674 Z" stroke-width="0" fill="#000000" fill-opacity="0.8745098039215686" />
<path d="M634,-270 L90,-330 L146,-554 L182,-626 L514,-198 L282,-374 Z" stroke-width="0" fill="#372c55" fill-opacity="0.7254901960784313" />
<path d="M554,-1014 L586,-1214 L114,-1314 L110,-638 L242,-1102 L550,-482 Z" stroke-width="0" fill="#000000" fill-opacity="0.7490196078431373" />
<path d="M402,-490 L138,-426 L766,-530 L438,-1238 L270,-150 L458,-346 Z" stroke-width="0" fill="#88cbc8" fill-opacity="0.8941176470588236" />
<path d="M250,-1142 L494,-966 L122,-178 L210,-702 L238,-1054 L678,-598 Z" stroke-width="0" fill="#000000" fill-opacity="0.8392156862745098" />
<path d="M454,-210 L346,-1214 L298,-1286 L498,-342 L302,-158 L498,-470 Z" stroke-width="0" fill="#b1749b" fill-opacity="0.5019607843137255" />
<path d="M134,-522 L270,-1138 L306,-482 L706,-926 L322,-314 L210,-1154 Z" stroke-width="0" fill="#1945ce" fill-opacity="0.9294117647058824" />
<path d="M258,-90 L218,-714 L154,-574 L86,-926 L570,-470 L214,-1182 Z" stroke-width="0" fill="#11161a" fill-opacity="0.6588235294117647" />
<path d="M582,-90 L286,-1198 L750,-718 L794,-666 L202,-346 L278,-234 Z" stroke-width="0" fill="#000000" fill-opacity="0.5490196078431373" />
<path d="M442,-834 L246,-482 L486,-506 L198,-134 L446,-686 L422,-970 Z" stroke-width="0" fill="#000001" fill-opacity="0.9058823529411765" />
<path d="M546,-630 L262,-626 L630,-906 L222,-986 L218,-1182 L430,-802 Z" stroke-width="0" fill="#30dbb1" fill-opacity="1.0" />
<path d="M130,-106 L478,-578 L706,-474 L478,-646 L470,-262 L742,-598 Z" stroke-width="0" fill="#000000" fill-opacity="0.6901960784313725" />
<path d="M570,-1222 L234,-330 L722,-950 L478,-330 L546,-922 L422,-718 Z" stroke-width="0" fill="#5129d6" fill-opacity="0.984313725490196" />
<path d="M778,-570 L130,-222 L174,-1266 L290,-710 L182,-1206 L790,-1030 Z" stroke-width="0" fill="#2a545f" fill-opacity="0.796078431372549" />
<path d="M538,-622 L646,-334 L434,-154 L234,-378 L366,-734 L114,-158 Z" stroke-width="0" fill="#000000" fill-opacity="0.8823529411764706" />
<path d="M790,-954 L258,-342 L626,-482 L774,-98 L718,-218 L210,-582 Z" stroke-width="0" fill="#000000" fill-opacity="0.9529411764705882" />
<path d="M178,-634 L194,-1130 L754,-706 L602,-350 L222,-462 L578,-738 Z" stroke-width="0" fill="#0296fe" fill-opacity="0.5019607843137255" />
<path d="M90,-994 L690,-142 L118,-342 L142,-806 L666,-1246 L618,-274 Z" stroke-width="0" fill="#054b10" fill-opacity="0.9725490196078431" />
<path d="M450,-1030 L350,-302 L94,-598 L634,-1058 L406,-174 L354,-962 Z" stroke-width="0" fill="#8a4800" fill-opacity="0.25098039215686274" />
<path d="M490,-414 L470,-1154 L766,-1058 L458,-1150 L322,-190 L450,-1182 Z" stroke-width="0" fill="#b3c19d" fill-opacity="0.47843137254901963" />
<path d="M526,-1206 L390,-214 L594,-1138 L730,-998 L626,-766 L770,-926 Z" stroke-width="0" fill="#fff650" fill-opacity="0.8862745098039215" />
<path d="M106,-166 L154,-462 L94,-854 L82,-514 L610,-846 L450,-514 Z" stroke-width="0" fill="#000000" fill-opacity="0.8470588235294118" />
<path d="M202,-870 L650,-682 L410,-370 L442,-322 L458,-950 L410,-346 Z" stroke-width="0" fill="#c70890" fill-opacity="0.3333333333333333" />
<path d="M262,-858 L678,-794 L522,-1278 L534,-1106 L338,-602 L238,-642 Z" stroke-width="0" fill="#223d4f" fill-opacity="0.8156862745098039" />
<path d="M546,-1110 L374,-302 L218,-958 L86,-314 L626,-230 L694,-738 Z" stroke-width="0" fill="#050000" fill-opacity="0.9019607843137255" />
<path d="M594,-738 L162,-1230 L222,-118 L762,-542 L174,-114 L222,-146 Z" stroke-width="0" fill="#020a0e" fill-opacity="0.29411764705882354" />
<path d="M418,-550 L398,-842 L474,-578 L150,-538 L482,-302 L622,-138 Z" stroke-width="0" fill="#010003" fill-opacity="0.8745098039215686" />
<path d="M510,-322 L370,-1238 L214,-126 L666,-102 L246,-450 L730,-294 Z" stroke-width="0" fill="#000000" fill-opacity="0.7568627450980392" />
<path d="M734,-390 L638,-1286 L534,-1170 L170,-966 L758,-1314 L370,-426 Z" stroke-width="0" fill="#000000" fill-opacity="0.7490196078431373" />
<path d="M422,-1014 L242,-890 L142,-626 L430,-1282 L658,-502 L350,-390 Z" stroke-width="0" fill="#111800" fill-opacity="0.9411764705882353" />
<path d="M190,-1014 L574,-274 L746,-130 L486,-430 L738,-362 L202,-286 Z" stroke-width="0" fill="#001500" fill-opacity="0.8705882352941177" />
<path d="M202,-402 L770,-102 L510,-334 L706,-214 L426,-546 L418,-1022 Z" stroke-width="0" fill="#000000" fill-opacity="0.6941176470588235" />
<path d="M486,-546 L250,-290 L750,-1178 L170,-782 L638,-762 L310,-714 Z" stroke-width="0" fill="#1b5434" fill-opacity="0.8666666666666667" />
<path d="M498,-374 L238,-1066 L290,-1070 L594,-378 L594,-94 L282,-582 Z" stroke-width="0" fill="#000000" fill-opacity="0.8901960784313725" />
<path d="M166,-1226 L290,-986 L234,-1226 L290,-126 L206,-110 L762,-406 Z" stroke-width="0" fill="#152901" fill-opacity="0.7372549019607844" />
<path d="M282,-902 L142,-410 L630,-446 L674,-502 L450,-742 L502,-978 Z" stroke-width="0" fill="#620621" fill-opacity="0.09019607843137255" />
<path d="M538,-1254 L642,-1134 L258,-918 L614,-1158 L778,-398 L306,-362 Z" stroke-width="0" fill="#000010" fill-opacity="0.47843137254901963" />
<path d="M726,-610 L362,-186 L502,-710 L414,-1146 L610,-490 L730,-550 Z" stroke-width="0" fill="#c0f0de" fill-opacity="0.9529411764705882" />
<path d="M426,-350 L282,-310 L334,-154 L590,-822 L574,-542 L422,-818 Z" stroke-width="0" fill="#dcbf75" fill-opacity="0.8588235294117647" />
<path d="M754,-242 L306,-522 L186,-658 L114,-738 L454,-726 L502,-786 Z" stroke-width="0" fill="#00000e" fill-opacity="0.2823529411764706" />
<path d="M270,-518 L118,-446 L654,-1154 L378,-682 L158,-1114 L390,-338 Z" stroke-width="0" fill="#559d27" fill-opacity="0.17254901960784313" />
<path d="M230,-694 L314,-1050 L350,-1242 L338,-402 L298,-770 L634,-906 Z" stroke-width="0" fill="#fd0001" fill-opacity="0.2823529411764706" />
<path d="M442,-1282 L478,-110 L534,-674 L114,-590 L146,-1186 L258,-310 Z" stroke-width="0" fill="#2a1a00" fill-opacity="0.5294117647058824" />
<path d="M302,-662 L654,-890 L718,-190 L562,-342 L398,-1194 L342,-1274 Z" stroke-width="0" fill="#000000" fill-opacity="0.7019607843137254" />
<path d="M90,-598 L302,-130 L742,-590 L798,-1222 L354,-742 L302,-118 Z" stroke-width="0" fill="#533968" fill-opacity="0.9450980392156862" />
<path d="M666,-1134 L314,-882 L218,-206 L442,-1246 L454,-798 L574,-750 Z" stroke-width="0" fill="#5ea885" fill-opacity="0.5019607843137255" />
<path d="M522,-678 L558,-222 L214,-134 L726,-658 L534,-878 L694,-850 Z" stroke-width="0" fill="#000004" fill-opacity="0.5686274509803921" />
<path d="M758,-1046 L794,-182 L282,-290 L330,-398 L290,-190 L446,-966 Z" stroke-width="0" fill="#010700" fill-opacity="0.06666666666666667" />
<path d="M514,-270 L750,-1306 L150,-1022 L774,-626 L498,-414 L290,-278 Z" stroke-width="0" fill="#331f2f" fill-opacity="0.7176470588235294" />
<path d="M302,-222 L578,-634 L286,-166 L322,-1138 L802,-642 L350,-170 Z" stroke-width="0" fill="#001532" fill-opacity="0.6666666666666666" />
<path d="M398,-974 L582,-750 L606,-446 L266,-166 L522,-1106 L330,-702 Z" stroke-width="0" fill="#ddfe1d" fill-opacity="0.0784313725490196" />
<path d="M138,-570 L326,-290 L610,-650 L182,-534 L678,-86 L414,-906 Z" stroke-width="0" fill="#000000" fill-opacity="0.7764705882352941" />
<path d="M566,-818 L674,-798 L310,-926 L650,-130 L546,-1134 L478,-966 Z" stroke-width="0" fill="#002e0d" fill-opacity="0.10588235294117647" />
<path d="M182,-186 L566,-726 L314,-398 L314,-630 L698,-1090 L182,-178 Z" stroke-width="0" fill="#326e48" fill-opacity="0.12156862745098039" />
<path d="M158,-126 L774,-542 L186,-534 L338,-434 L454,-490 L282,-402 Z" stroke-width="0" fill="#360700" fill-opacity="0.12549019607843137" />
<path d="M114,-490 L114,-770 L534,-614 L126,-678 L250,-86 L734,-246 Z" stroke-width="0" fill="#000000" fill-opacity="0.9725490196078431" />
<path d="M762,-1198 L394,-386 L786,-422 L542,-810 L486,-890 L522,-502 Z" stroke-width="0" fill="#001020" fill-opacity="0.2235294117647059" />
<path d="M738,-394 L454,-1006 L390,-962 L318,-290 L330,-554 L86,-922 Z" stroke-width="0" fill="#0c210d" fill-opacity="0.5529411764705883" />
<path d="M786,-574 L218,-166 L702,-450 L614,-306 L102,-502 L430,-570 Z" stroke-width="0" fill="#470e00" fill-opacity="0.10980392156862745" />
<path d="M222,-698 L370,-1302 L226,-358 L430,-1174 L314,-1310 L90,-1282 Z" stroke-width="0" fill="#1a1103" fill-opacity="0.8588235294117647" />
<path d="M470,-1250 L214,-838 L258,-530 L458,-758 L550,-1082 L658,-1314 Z" stroke-width="0" fill="#181d00" fill-opacity="0.7058823529411765" />
<path d="M446,-1210 L566,-558 L526,-422 L494,-198 L106,-466 L182,-906 Z" stroke-width="0" fill="#42233e" fill-opacity="0.5019607843137255" />
<path d="M282,-1142 L798,-866 L574,-166 L666,-514 L326,-1002 L146,-298 Z" stroke-width="0" fill="#997544" fill-opacity="0.2823529411764706" />
<path d="M294,-518 L286,-998 L254,-522 L202,-918 L258,-606 L142,-1166 Z" stroke-width="0" fill="#016d59" fill-opacity="0.058823529411764705" />
<path d="M238,-414 L686,-1090 L142,-782 L106,-354 L730,-1194 L550,-762 Z" stroke-width="0" fill="#557e1c" fill-opacity="0.023529411764705882" />
<path d="M354,-410 L574,-442 L218,-98 L686,-246 L438,-1298 L802,-506 Z" stroke-width="0" fill="#000000" fill-opacity="0.41568627450980394" />
<path d="M210,-1278 L366,-254 L194,-1034 L350,-938 L346,-402 L142,-1122 Z" stroke-width="0" fill="#4f4167" fill-opacity="0.20784313725490197" />
<path d="M594,-950 L574,-246 L766,-938 L590,-666 L422,-1286 L722,-98 Z" stroke-width="0" fill="#00040a" fill-opacity="0.6509803921568628" />
<path d="M306,-442 L422,-158 L634,-1054 L206,-1070 L422,-562 L106,-342 Z" stroke-width="0" fill="#3b9547" fill-opacity="0.06666666666666667" />
<path d="M402,-1138 L642,-158 L506,-1030 L570,-982 L262,-546 L238,-1002 Z" stroke-width="0" fill="#483145" fill-opacity="0.5215686274509804" />
<path d="M238,-822 L422,-146 L278,-166 L234,-1102 L394,-582 L122,-1298 Z" stroke-width="0" fill="#1e2d0a" fill-opacity="0.1411764705882353" />
<path d="M198,-998 L294,-1110 L338,-1290 L682,-370 L154,-258 L234,-1018 Z" stroke-width="0" fill="#002f23" fill-opacity="0.3607843137254902" />
<path d="M670,-1158 L210,-334 L550,-746 L518,-458 L398,-330 L126,-522 Z" stroke-width="0" fill="#2d1231" fill-opacity="0.24313725490196078" />
<path d="M286,-306 L322,-750 L790,-810 L166,-426 L270,-614 L742,-706 Z" stroke-width="0" fill="#160701" fill-opacity="0.403921568627451" />
<text x="448.0" y="0" font-size="70.0" fill="black" text-anchor="middle" transform="translate(0,17.5)">QUEEN OF AIR</text>
</svg>