<?xml version="1.0" encoding="UTF-8"?>
<svg xmlns="http://www.w3.org/2000/svg" xmlns:xlink="http://www.w3.org/1999/xlink"
     width="275" height="375" viewBox="0 -350 275 375">
<defs>
</defs>
<rect x="15" y="-335" width="245" height="320" stroke="black" stroke-width="4" fill="white" />
<path d="M135,-66 L129,-267 L146,-56 L136,-65 L218,-230 L138,-299 Z" stroke-width="0" fill="#f95512" fill-opacity="0.6470588235294118" />
<path d="M68,-171 L61,-63 L191,-136 L203,-149 L49,-151 L47,-267 Z" stroke-width="0" fill="#e6dede" fill-opacity="0.09411764705882353" />
<path d="M179,-126 L225,-293 L49,-51 L109,-299 L40,-109 L198,-204 Z" stroke-width="0" fill="#a68a89" fill-opacity="0.5019607843137255" />
<path d="M41,-96 L209,-163 L78,-200 L109,-61 L80,-237 L49,-127 Z" stroke-width="0" fill="#06a3c0" fill-opacity="0.0" />
<path d="M147,-117 L208,-152 L158,-254 L39,-177 L201,-57 L104,-193 Z" stroke-width="0" fill="#fdd7e1" fill-opacity="0.058823529411764705" />
<path d="M61,-279 L156,-177 L228,-269 L207,-269 L150,-43 L123,-63 Z" stroke-width="0" fill="#033a02" fill-opacity="0.21176470588235294" />
<path d="M70,-197 L51,-132 L57,-95 L101,-41 L112,-297 L223,-159 Z" stroke-width="0" fill="#6d3def" fill-opacity="0.2627450980392157" />
<path d="M248,-33 L175,-299 L153,-141 L58,-70 L33,-91 L47,-221 Z" stroke-width="0" fill="#ede3fc" fill-opacity="0.058823529411764705" />
<path d="M127,-73 L210,-105 L123,-73 L45,-156 L78,-120 L112,-154 Z" stroke-width="0" fill="#bc78f0" fill-opacity="0.03137254901960784" />
<path d="M43,-113 L178,-189 L47,-294 L203,-90 L105,-58 L122,-295 Z" stroke-width="0" fill="#f5e3f7" fill-opacity="0.0784313725490196" />
<path d="M30,-42 L97,-39 L99,-289 L169,-226 L89,-286 L216,-251 Z" stroke-width="0" fill="#ecc5c1" fill-opacity="0.054901960784313725" />
<path d="M67,-36 L156,-258 L76,-41 L236,-81 L235,-198 L123,-50 Z" stroke-width="0" fill="#2e1c0f" fill-opacity="0.17254901960784313" />
<path d="M35,-67 L54,-296 L145,-154 L144,-316 L195,-202 L241,-254 Z" stroke-width="0" fill="#cfe4fb" fill-opacity="0.21568627450980393" />
<path d="M202,-144 L230,-124 L114,-172 L175,-263 L168,-123 L101,-116 Z" stroke-width="0" fill="#c00409" fill-opacity="0.6862745098039216" />
<path d="M145,-269 L99,-208 L247,-164 L184,-251 L103,-65 L193,-138 Z" stroke-width="0" fill="#000004" fill-opacity="0.7333333333333333" />
<path d="M232,-244 L229,-192 L127,-126 L29,-292 L108,-73 L144,-287 Z" stroke-width="0" fill="#485800" fill-opacity="0.7019607843137254" />
<path d="M37,-249 L112,-37 L71,-129 L126,-321 L94,-97 L202,-75 Z" stroke-width="0" fill="#ddd86f" fill-opacity="0.0196078431372549" />
<path d="M45,-48 L142,-314 L42,-320 L131,-174 L52,-42 L44,-135 Z" stroke-width="0" fill="#252e26" fill-opacity="0.1568627450980392" />
<path d="M157,-209 L209,-303 L192,-71 L104,-78 L125,-321 L220,-268 Z" stroke-width="0" fill="#943107" fill-opacity="0.38823529411764707" />
<path d="M28,-205 L183,-137 L198,-181 L219,-291 L121,-41 L55,-74 Z" stroke-width="0" fill="#5f385a" fill-opacity="0.11764705882352941" />
<path d="M196,-206 L97,-35 L69,-130 L199,-286 L103,-236 L192,-113 Z" stroke-width="0" fill="#cc7814" fill-opacity="0.023529411764705882" />
<path d="M173,-212 L161,-103 L49,-167 L35,-94 L107,-300 L46,-51 Z" stroke-width="0" fill="#fef2f7" fill-opacity="0.7411764705882353" />
<path d="M118,-262 L97,-117 L138,-106 L168,-140 L81,-108 L51,-154 Z" stroke-width="0" fill="#d71f28" fill-opacity="0.27450980392156865" />
<path d="M107,-45 L65,-271 L62,-239 L180,-227 L201,-220 L61,-152 Z" stroke-width="0" fill="#c3c7b8" fill-opacity="0.047058823529411764" />
<path d="M163,-36 L51,-322 L50,-212 L182,-30 L29,-231 L59,-181 Z" stroke-width="0" fill="#e5eef4" fill-opacity="0.7764705882352941" />
<path d="M191,-263 L105,-237 L137,-218 L190,-135 L180,-143 L66,-135 Z" stroke-width="0" fill="#5f0618" fill-opacity="0.25882352941176473" />
<path d="M76,-96 L94,-39 L187,-207 L86,-91 L153,-116 L64,-132 Z" stroke-width="0" fill="#f7ffe7" fill-opacity="0.8313725490196079" />
<path d="M41,-106 L119,-144 L123,-292 L45,-140 L150,-253 L104,-288 Z" stroke-width="0" fill="#ecfafe" fill-opacity="0.9647058823529412" />
<path d="M111,-192 L215,-188 L132,-70 L89,-89 L39,-83 L83,-25 Z" stroke-width="0" fill="#f9fcfa" fill-opacity="0.7843137254901961" />
<path d="M41,-81 L45,-122 L206,-258 L167,-96 L40,-155 L158,-309 Z" stroke-width="0" fill="#dcfbff" fill-opacity="0.19215686274509805" />
<path d="M195,-225 L145,-124 L27,-302 L190,-221 L105,-191 L214,-68 Z" stroke-width="0" fill="#eaf0d6" fill-opacity="0.5647058823529412" />
<path d="M154,-83 L164,-176 L174,-131 L245,-197 L75,-233 L106,-41 Z" stroke-width="0" fill="#13321f" fill-opacity="0.8117647058823529" />
<path d="M195,-77 L77,-234 L131,-92 L63,-57 L226,-94 L90,-155 Z" stroke-width="0" fill="#f9efb8" fill-opacity="0.0196078431372549" />
<path d="M117,-170 L247,-180 L32,-280 L57,-148 L204,-280 L216,-174 Z" stroke-width="0" fill="#3c0607" fill-opacity="0.6627450980392157" />
<path d="M104,-200 L188,-88 L44,-79 L193,-113 L151,-270 L199,-169 Z" stroke-width="0" fill="#d01c02" fill-opacity="0.35294117647058826" />
<path d="M44,-31 L51,-36 L172,-256 L41,-290 L209,-216 L73,-151 Z" stroke-width="0" fill="#87672d" fill-opacity="0.0" />
<path d="M120,-94 L205,-35 L63,-276 L137,-65 L138,-262 L114,-103 Z" stroke-width="0" fill="#0a2ba3" fill-opacity="0.25882352941176473" />
<path d="M183,-69 L35,-117 L88,-204 L90,-315 L104,-86 L131,-161 Z" stroke-width="0" fill="#edebc4" fill-opacity="0.24313725490196078" />
<path d="M44,-271 L81,-77 L152,-136 L175,-100 L43,-120 L237,-184 Z" stroke-width="0" fill="#ffc2f2" fill-opacity="0.011764705882352941" />
<path d="M147,-251 L34,-286 L224,-152 L149,-147 L201,-240 L46,-264 Z" stroke-width="0" fill="#fb962f" fill-opacity="0.10588235294117647" />
<path d="M77,-146 L159,-125 L59,-253 L213,-170 L215,-241 L74,-72 Z" stroke-width="0" fill="#103987" fill-opacity="0.596078431372549" />
<path d="M31,-278 L77,-53 L223,-287 L35,-53 L216,-68 L114,-123 Z" stroke-width="0" fill="#f7fff0" fill-opacity="0.9333333333333333" />
<path d="M116,-145 L81,-126 L143,-151 L140,-51 L171,-28 L112,-276 Z" stroke-width="0" fill="#0602b8" fill-opacity="0.07058823529411765" />
<path d="M179,-195 L61,-153 L171,-126 L121,-65 L134,-186 L236,-205 Z" stroke-width="0" fill="#07e2f0" fill-opacity="0.2627450980392157" />
<path d="M188,-82 L118,-87 L225,-141 L130,-80 L69,-198 L48,-116 Z" stroke-width="0" fill="#91372d" fill-opacity="0.47843137254901963" />
<path d="M164,-173 L157,-43 L178,-82 L176,-32 L154,-126 L151,-153 Z" stroke-width="0" fill="#6f8be9" fill-opacity="0.2784313725490196" />
<path d="M81,-220 L216,-107 L249,-37 L58,-272 L144,-178 L222,-323 Z" stroke-width="0" fill="#705d86" fill-opacity="0.3686274509803922" />
<path d="M196,-37 L171,-289 L147,-30 L154,-33 L82,-74 L27,-320 Z" stroke-width="0" fill="#fef5ea" fill-opacity="0.788235294117647" />
<path d="M80,-275 L30,-84 L63,-29 L213,-269 L46,-233 L68,-103 Z" stroke-width="0" fill="#cdf3e0" fill-opacity="0.14901960784313725" />
<path d="M189,-265 L153,-108 L65,-261 L63,-303 L26,-237 L42,-235 Z" stroke-width="0" fill="#fdc6d4" fill-opacity="0.2549019607843137" />
<path d="M168,-39 L45,-307 L117,-194 L56,-228 L83,-84 L166,-145 Z" stroke-width="0" fill="#f3f2f8" fill-opacity="0.9764705882352941" />
<path d="M213,-108 L55,-65 L87,-311 L81,-156 L227,-124 L162,-324 Z" stroke-width="0" fill="#c60fec" fill-opacity="0.09803921568627451" />
<path d="M27,-118 L247,-273 L109,-192 L79,-213 L181,-104 L106,-31 Z" stroke-width="0" fill="#d59cef" fill-opacity="0.11764705882352941" />
<path d="M123,-53 L90,-33 L115,-93 L63,-212 L148,-62 L103,-87 Z" stroke-width="0" fill="#fdefd6" fill-opacity="0.027450980392156862" />
<path d="M29,-91 L85,-54 L112,-247 L228,-98 L164,-130 L51,-80 Z" stroke-width="0" fill="#fdf8c7" fill-opacity="0.9490196078431372" />
<path d="M141,-211 L211,-229 L59,-61 L239,-294 L93,-40 L229,-147 Z" stroke-width="0" fill="#08021d" fill-opacity="0.047058823529411764" />
<path d="M57,-239 L204,-160 L217,-274 L246,-211 L25,-39 L208,-303 Z" stroke-width="0" fill="#62161d" fill-opacity="0.592156862745098" />
<path d="M136,-101 L72,-160 L94,-291 L135,-203 L198,-156 L171,-54 Z" stroke-width="0" fill="#f1e9cc" fill-opacity="0.3607843137254902" />
<path d="M126,-109 L184,-33 L38,-311 L86,-279 L116,-65 L118,-53 Z" stroke-width="0" fill="#a9f6e8" fill-opacity="0.03529411764705882" />
<path d="M134,-73 L214,-224 L121,-309 L127,-265 L218,-249 L92,-290 Z" stroke-width="0" fill="#e5a843" fill-opacity="0.06274509803921569" />
<path d="M186,-157 L97,-142 L43,-175 L37,-53 L30,-204 L55,-165 Z" stroke-width="0" fill="#c0dfd1" fill-opacity="0.32941176470588235" />
<path d="M169,-120 L110,-41 L108,-49 L245,-160 L37,-128 L140,-304 Z" stroke-width="0" fill="#ceb28f" fill-opacity="0.8705882352941177" />
<path d="M102,-167 L27,-279 L170,-96 L146,-112 L85,-239 L216,-302 Z" stroke-width="0" fill="#be4d39" fill-opacity="0.00784313725490196" />
<path d="M57,-71 L38,-173 L51,-147 L55,-249 L41,-196 L144,-107 Z" stroke-width="0" fill="#f2f9ff" fill-opacity="0.9254901960784314" />
<path d="M37,-236 L186,-276 L114,-116 L197,-81 L217,-145 L197,-37 Z" stroke-width="0" fill="#dbf1ce" fill-opacity="0.12549019607843137" />
<path d="M234,-152 L61,-203 L158,-115 L66,-128 L131,-121 L54,-307 Z" stroke-width="0" fill="#f4d1f2" fill-opacity="0.07450980392156863" />
<path d="M39,-166 L65,-125 L222,-253 L108,-92 L234,-319 L133,-124 Z" stroke-width="0" fill="#ab7d0c" fill-opacity="0.0" />
<path d="M41,-172 L166,-171 L61,-294 L224,-77 L81,-254 L62,-240 Z" stroke-width="0" fill="#f0fdcb" fill-opacity="0.4117647058823529" />
<path d="M149,-259 L142,-162 L98,-47 L32,-209 L163,-77 L134,-116 Z" stroke-width="0" fill="#d0e6f3" fill-opacity="0.1450980392156863" />
<path d="M133,-50 L39,-287 L145,-256 L145,-273 L88,-81 L233,-208 Z" stroke-width="0" fill="#fbeaf5" fill-opacity="0.807843137254902" />
<path d="M213,-127 L159,-76 L166,-281 L134,-272 L73,-176 L36,-188 Z" stroke-width="0" fill="#ffedad" fill-opacity="0.49411764705882355" />
<path d="M97,-63 L83,-310 L57,-309 L201,-209 L198,-52 L122,-182 Z" stroke-width="0" fill="#ebfc76" fill-opacity="0.10196078431372549" />
<path d="M114,-307 L201,-241 L191,-210 L30,-188 L148,-200 L54,-123 Z" stroke-width="0" fill="#fefcb2" fill-opacity="0.796078431372549" />
<path d="M100,-204 L149,-180 L103,-85 L235,-279 L29,-188 L70,-113 Z" stroke-width="0" fill="#e5ed52" fill-opacity="0.00784313725490196" />
<path d="M67,-138 L66,-83 L33,-106 L45,-134 L96,-26 L91,-142 Z" stroke-width="0" fill="#f0f3fc" fill-opacity="0.8392156862745098" />
<path d="M106,-95 L91,-201 L105,-73 L52,-120 L91,-255 L198,-200 Z" stroke-width="0" fill="#e3c8bc" fill-opacity="0.07058823529411765" />
<path d="M164,-243 L51,-140 L82,-218 L169,-48 L162,-91 L68,-257 Z" stroke-width="0" fill="#f4c6eb" fill-opacity="0.06666666666666667" />
<path d="M142,-93 L211,-243 L59,-49 L148,-111 L147,-118 L170,-211 Z" stroke-width="0" fill="#fcecb7" fill-opacity="0.0392156862745098" />
<path d="M202,-35 L155,-58 L241,-210 L103,-110 L197,-279 L156,-63 Z" stroke-width="0" fill="#38110e" fill-opacity="0.6745098039215687" />
<path d="M150,-152 L84,-98 L201,-121 L107,-232 L113,-47 L67,-144 Z" stroke-width="0" fill="#e9f4cb" fill-opacity="0.5372549019607843" />
<path d="M235,-27 L41,-169 L105,-280 L98,-149 L70,-246 L148,-47 Z" stroke-width="0" fill="#ceecea" fill-opacity="0.8705882352941177" />
<path d="M101,-264 L245,-34 L49,-91 L174,-136 L93,-59 L195,-176 Z" stroke-width="0" fill="#d6dd9b" fill-opacity="0.0784313725490196" />
<path d="M143,-151 L70,-238 L46,-270 L87,-102 L231,-189 L95,-33 Z" stroke-width="0" fill="#dce4f0" fill-opacity="0.34509803921568627" />
<path d="M224,-154 L179,-218 L166,-89 L208,-188 L88,-88 L153,-252 Z" stroke-width="0" fill="#bdf7de" fill-opacity="0.8392156862745098" />
<path d="M163,-71 L54,-148 L116,-126 L34,-320 L122,-223 L64,-288 Z" stroke-width="0" fill="#d3e2d8" fill-opacity="0.3607843137254902" />
<path d="M87,-256 L238,-77 L31,-187 L248,-281 L107,-76 L174,-243 Z" stroke-width="0" fill="#f7eefb" fill-opacity="0.25098039215686274" />
<path d="M108,-57 L42,-109 L94,-59 L62,-269 L54,-109 L51,-181 Z" stroke-width="0" fill="#ace4e7" fill-opacity="0.06666666666666667" />
<path d="M113,-150 L208,-36 L161,-121 L245,-154 L206,-212 L119,-261 Z" stroke-width="0" fill="#e6c8f3" fill-opacity="0.00784313725490196" />
<path d="M234,-186 L214,-97 L62,-217 L159,-44 L28,-121 L186,-170 Z" stroke-width="0" fill="#b3dde7" fill-opacity="0.17254901960784313" />
<path d="M45,-85 L129,-222 L130,-141 L81,-267 L162,-241 L113,-120 Z" stroke-width="0" fill="#f8d3ff" fill-opacity="0.3176470588235294" />
<path d="M49,-280 L145,-125 L173,-261 L142,-179 L72,-202 L147,-203 Z" stroke-width="0" fill="#e3e8a7" fill-opacity="0.11372549019607843" />
<path d="M45,-122 L174,-157 L80,-135 L43,-58 L60,-64 L97,-98 Z" stroke-width="0" fill="#a2fcfb" fill-opacity="0.4549019607843137" />
<path d="M182,-54 L198,-293 L207,-141 L133,-206 L96,-34 L117,-297 Z" stroke-width="0" fill="#dbf5f3" fill-opacity="0.7215686274509804" />
<path d="M96,-234 L128,-101 L38,-177 L222,-172 L100,-114 L170,-84 Z" stroke-width="0" fill="#f8fbd5" fill-opacity="0.8509803921568627" />
<path d="M212,-219 L123,-282 L25,-124 L128,-314 L76,-197 L230,-134 Z" stroke-width="0" fill="#dcf0dc" fill-opacity="0.20784313725490197" />
<path d="M146,-30 L247,-47 L205,-117 L199,-176 L77,-185 L41,-288 Z" stroke-width="0" fill="#e3dbc8" fill-opacity="0.4627450980392157" />
<path d="M61,-267 L104,-144 L88,-100 L147,-292 L57,-157 L157,-79 Z" stroke-width="0" fill="#e5734f" fill-opacity="0.1803921568627451" />
<path d="M56,-176 L151,-196 L48,-252 L45,-213 L75,-126 L238,-126 Z" stroke-width="0" fill="#77f6f7" fill-opacity="0.00392156862745098" />
<path d="M162,-317 L51,-247 L232,-62 L68,-249 L73,-56 L30,-82 Z" stroke-width="0" fill="#f6fff2" fill-opacity="0.8745098039215686" />
<path d="M185,-298 L47,-299 L149,-109 L202,-161 L42,-167 L220,-29 Z" stroke-width="0" fill="#c8bfde" fill-opacity="0.35294117647058826" />
<text x="137.5" y="12.5" font-size="20.0" fill="black" text-anchor="middle" transform="translate(0,5.0)">5 OF AIR</text>
</svg>