<?xml version="1.0" encoding="UTF-8"?>
<svg xmlns="http://www.w3.org/2000/svg" xmlns:xlink="http://www.w3.org/1999/xlink"
     width="896" height="1496" viewBox="0 -1400 896 1496" style="font-size:70;font-family:Poor Richard, Times New Roman;stroke:black;stroke-width:1;fill:none">
<defs>
</defs>
<path d="M170,-1098 L430,-578 L794,-1286 L534,-730 L318,-750 L774,-1242 Z" stroke-width="0" fill="#bdf6fe" fill-opacity="0.14901960784313725" />
<path d="M354,-854 L526,-974 L770,-630 L370,-690 L682,-670 L470,-982 Z" stroke-width="0" fill="#060b14" fill-opacity="0.9450980392156862" />
<path d="M626,-666 L522,-122 L178,-230 L98,-294 L514,-166 L710,-442 Z" stroke-width="0" fill="#0d1622" fill-opacity="0.08235294117647059" />
<path d="M206,-798 L290,-570 L398,-1302 L222,-782 L574,-738 L622,-202 Z" stroke-width="0" fill="#f70b56" fill-opacity="0.2196078431372549" />
<path d="M310,-374 L778,-730 L474,-842 L746,-542 L218,-1062 L794,-1210 Z" stroke-width="0" fill="#63e8fc" fill-opacity="0.023529411764705882" />
<path d="M518,-702 L482,-262 L354,-146 L158,-90 L434,-166 L294,-114 Z" stroke-width="0" fill="#150663" fill-opacity="0.13725490196078433" />
<path d="M778,-1286 L566,-102 L342,-190 L626,-542 L162,-778 L318,-926 Z" stroke-width="0" fill="#73a276" fill-opacity="0.12549019607843137" />
<path d="M526,-250 L494,-810 L306,-706 L710,-1242 L430,-434 L654,-290 Z" stroke-width="0" fill="#e2d0c8" fill-opacity="0.3607843137254902" />
<path d="M442,-474 L174,-582 L686,-1022 L466,-542 L626,-1254 L566,-114 Z" stroke-width="0" fill="#899a77" fill-opacity="0.13725490196078433" />
<path d="M378,-790 L478,-754 L446,-1054 L582,-766 L254,-554 L238,-854 Z" stroke-width="0" fill="#0ed1fb" fill-opacity="0.8823529411764706" />
<path d="M678,-862 L426,-402 L546,-1042 L126,-454 L206,-270 L190,-278 Z" stroke-width="0" fill="#c1ece5" fill-opacity="0.5372549019607843" />
<path d="M258,-894 L350,-258 L642,-334 L526,-922 L622,-606 L774,-942 Z" stroke-width="0" fill="#2672f1" fill-opacity="0.058823529411764705" />
<path d="M314,-598 L798,-870 L602,-214 L210,-666 L494,-498 L586,-878 Z" stroke-width="0" fill="#250501" fill-opacity="0.09803921568627451" />
<path d="M322,-1290 L218,-782 L202,-614 L614,-1302 L598,-466 L754,-778 Z" stroke-width="0" fill="#dcd3c9" fill-opacity="0.20784313725490197" />
<path d="M334,-1066 L726,-774 L238,-634 L486,-286 L198,-438 L466,-150 Z" stroke-width="0" fill="#0c345c" fill-opacity="0.043137254901960784" />
<path d="M658,-134 L806,-278 L438,-410 L162,-462 L642,-718 L566,-366 Z" stroke-width="0" fill="#4a8257" fill-opacity="0.16862745098039217" />
<path d="M502,-454 L570,-770 L406,-1310 L758,-94 L462,-482 L498,-138 Z" stroke-width="0" fill="#b1bdb9" fill-opacity="0.40784313725490196" />
<path d="M658,-266 L306,-390 L690,-974 L662,-918 L178,-318 L250,-1186 Z" stroke-width="0" fill="#1363bd" fill-opacity="0.00392156862745098" />
<path d="M174,-914 L502,-762 L486,-394 L530,-334 L242,-1274 L746,-198 Z" stroke-width="0" fill="#e8e3fa" fill-opacity="0.9372549019607843" />
<path d="M378,-326 L222,-738 L374,-1054 L310,-1094 L534,-82 L414,-1050 Z" stroke-width="0" fill="#e4bad0" fill-opacity="0.23529411764705882" />
<path d="M754,-354 L110,-674 L446,-206 L250,-202 L286,-150 L470,-1278 Z" stroke-width="0" fill="#980129" fill-opacity="0.047058823529411764" />
<path d="M290,-482 L810,-350 L494,-938 L762,-718 L266,-654 L110,-186 Z" stroke-width="0" fill="#3f778d" fill-opacity="0.21568627450980393" />
<path d="M222,-622 L226,-570 L322,-282 L238,-954 L806,-706 L338,-402 Z" stroke-width="0" fill="#688d70" fill-opacity="0.18823529411764706" />
<path d="M138,-174 L366,-758 L102,-1238 L258,-354 L650,-602 L254,-558 Z" stroke-width="0" fill="#55993f" fill-opacity="0.20784313725490197" />
<path d="M258,-486 L294,-710 L658,-238 L790,-1186 L570,-594 L494,-434 Z" stroke-width="0" fill="#a2c7a1" fill-opacity="0.1411764705882353" />
<path d="M554,-198 L478,-290 L114,-546 L566,-178 L714,-1134 L250,-546 Z" stroke-width="0" fill="#ebfefb" fill-opacity="0.7058823529411765" />
<path d="M110,-838 L414,-702 L550,-1282 L478,-138 L366,-242 L158,-582 Z" stroke-width="0" fill="#712ee6" fill-opacity="0.027450980392156862" />
<path d="M246,-290 L250,-1202 L274,-142 L390,-702 L606,-1190 L126,-1218 Z" stroke-width="0" fill="#f1fb31" fill-opacity="0.043137254901960784" />
<path d="M546,-398 L454,-334 L366,-130 L810,-1310 L254,-714 L350,-486 Z" stroke-width="0" fill="#f1eef6" fill-opacity="0.788235294117647" />
<path d="M590,-238 L634,-138 L622,-854 L186,-138 L154,-406 L586,-646 Z" stroke-width="0" fill="#353f18" fill-opacity="0.2235294117647059" />
<path d="M626,-518 L498,-1242 L726,-746 L462,-1110 L614,-738 L118,-254 Z" stroke-width="0" fill="#fbedd3" fill-opacity="0.12156862745098039" />
<path d="M262,-942 L246,-138 L406,-138 L278,-1010 L774,-558 L302,-82 Z" stroke-width="0" fill="#2f477e" fill-opacity="0.18823529411764706" />
<path d="M82,-902 L754,-678 L426,-110 L558,-538 L162,-298 L174,-906 Z" stroke-width="0" fill="#03490a" fill-opacity="0.0196078431372549" />
<path d="M506,-314 L554,-1246 L662,-354 L418,-734 L158,-910 L646,-686 Z" stroke-width="0" fill="#f2edf3" fill-opacity="0.34901960784313724" />
<path d="M286,-742 L386,-1098 L390,-318 L266,-918 L586,-122 L502,-318 Z" stroke-width="0" fill="#dbb1a7" fill-opacity="0.22745098039215686" />
<path d="M522,-226 L354,-902 L282,-402 L770,-1062 L606,-290 L290,-722 Z" stroke-width="0" fill="#d8fff5" fill-opacity="0.7568627450980392" />
<path d="M514,-198 L730,-334 L342,-1294 L638,-94 L786,-314 L422,-958 Z" stroke-width="0" fill="#e5d1f1" fill-opacity="0.6313725490196078" />
<path d="M306,-822 L738,-742 L498,-574 L318,-162 L158,-750 L330,-1294 Z" stroke-width="0" fill="#f8e3a0" fill-opacity="0.2627450980392157" />
<path d="M762,-738 L150,-694 L594,-146 L222,-354 L810,-446 L174,-94 Z" stroke-width="0" fill="#3d375d" fill-opacity="0.1450980392156863" />
<path d="M330,-186 L546,-554 L262,-930 L490,-566 L534,-158 L778,-786 Z" stroke-width="0" fill="#20036e" fill-opacity="0.11372549019607843" />
<path d="M130,-1298 L438,-750 L598,-414 L774,-798 L714,-1054 L366,-838 Z" stroke-width="0" fill="#d463d3" fill-opacity="0.01568627450980392" />
<path d="M638,-910 L650,-990 L186,-982 L794,-842 L654,-990 L578,-1170 Z" stroke-width="0" fill="#a9deee" fill-opacity="0.01568627450980392" />
<path d="M590,-502 L402,-586 L538,-1202 L398,-482 L790,-698 L178,-86 Z" stroke-width="0" fill="#34082f" fill-opacity="0.027450980392156862" />
<path d="M202,-342 L86,-730 L90,-258 L694,-1250 L734,-250 L262,-1106 Z" stroke-width="0" fill="#f3b8fc" fill-opacity="0.43529411764705883" />
<path d="M462,-938 L662,-738 L446,-302 L770,-390 L278,-1002 L786,-974 Z" stroke-width="0" fill="#fbf0e8" fill-opacity="0.11764705882352941" />
<path d="M114,-742 L442,-726 L474,-566 L266,-790 L210,-610 L474,-510 Z" stroke-width="0" fill="#f6faff" fill-opacity="0.9803921568627451" />
<path d="M806,-206 L574,-1094 L722,-814 L230,-306 L398,-858 L630,-322 Z" stroke-width="0" fill="#15c351" fill-opacity="0.01568627450980392" />
<path d="M610,-994 L618,-1090 L630,-1162 L758,-114 L710,-434 L618,-502 Z" stroke-width="0" fill="#f7e9f9" fill-opacity="0.4549019607843137" />
<path d="M482,-138 L530,-670 L126,-862 L282,-794 L594,-1198 L230,-1202 Z" stroke-width="0" fill="#e1e6d6" fill-opacity="0.26666666666666666" />
<path d="M274,-1010 L186,-502 L518,-650 L134,-514 L562,-586 L710,-614 Z" stroke-width="0" fill="#cec9ff" fill-opacity="0.18823529411764706" />
<path d="M422,-178 L810,-606 L270,-98 L806,-306 L738,-546 L782,-690 Z" stroke-width="0" fill="#75ce66" fill-opacity="0.10196078431372549" />
<path d="M166,-218 L194,-174 L498,-622 L506,-374 L90,-1166 L666,-286 Z" stroke-width="0" fill="#cbafc4" fill-opacity="0.2" />
<path d="M386,-1138 L582,-910 L622,-1058 L746,-498 L206,-242 L446,-182 Z" stroke-width="0" fill="#cecde2" fill-opacity="0.027450980392156862" />
<path d="M134,-130 L522,-514 L222,-826 L446,-266 L542,-146 L402,-650 Z" stroke-width="0" fill="#723867" fill-opacity="0.09411764705882353" />
<path d="M342,-142 L554,-1130 L266,-786 L294,-806 L606,-430 L638,-1210 Z" stroke-width="0" fill="#cac9f5" fill-opacity="0.058823529411764705" />
<path d="M302,-894 L338,-834 L430,-574 L254,-398 L394,-938 L630,-234 Z" stroke-width="0" fill="#ffecef" fill-opacity="0.5764705882352941" />
<path d="M538,-406 L326,-90 L658,-698 L518,-714 L166,-442 L486,-510 Z" stroke-width="0" fill="#c0cedc" fill-opacity="0.6235294117647059" />
<path d="M566,-782 L290,-82 L286,-542 L754,-390 L674,-610 L722,-706 Z" stroke-width="0" fill="#b7b4e1" fill-opacity="0.5294117647058824" />
<path d="M394,-738 L546,-542 L274,-622 L366,-962 L286,-786 L234,-830 Z" stroke-width="0" fill="#0ae7ab" fill-opacity="0.10196078431372549" />
<path d="M342,-794 L394,-898 L214,-662 L582,-730 L110,-438 L254,-822 Z" stroke-width="0" fill="#23e5b7" fill-opacity="0.058823529411764705" />
<path d="M322,-814 L478,-550 L378,-86 L782,-778 L382,-182 L502,-754 Z" stroke-width="0" fill="#291377" fill-opacity="0.08627450980392157" />
<path d="M394,-302 L762,-1054 L718,-114 L246,-1122 L102,-322 L114,-330 Z" stroke-width="0" fill="#ffd5a0" fill-opacity="0.10980392156862745" />
<path d="M494,-698 L366,-246 L458,-782 L690,-150 L606,-1066 L746,-126 Z" stroke-width="0" fill="#c6a2a3" fill-opacity="0.00784313725490196" />
<path d="M302,-1150 L174,-262 L458,-626 L162,-1190 L602,-806 L650,-94 Z" stroke-width="0" fill="#b8d8bd" fill-opacity="0.4" />
<path d="M526,-590 L582,-726 L250,-454 L222,-254 L562,-846 L190,-166 Z" stroke-width="0" fill="#afe589" fill-opacity="0.1803921568627451" />
<path d="M210,-522 L626,-1074 L326,-1094 L326,-1210 L626,-582 L678,-414 Z" stroke-width="0" fill="#f3dee6" fill-opacity="0.9450980392156862" />
<path d="M806,-614 L582,-1066 L130,-102 L710,-726 L446,-326 L722,-730 Z" stroke-width="0" fill="#d3cbf0" fill-opacity="0.03137254901960784" />
<path d="M330,-310 L238,-330 L310,-242 L186,-150 L778,-874 L774,-358 Z" stroke-width="0" fill="#f5f5e2" fill-opacity="0.6313725490196078" />
<path d="M402,-1202 L418,-1046 L678,-238 L170,-1078 L318,-1090 L138,-406 Z" stroke-width="0" fill="#dce5bd" fill-opacity="0.12549019607843137" />
<path d="M278,-962 L642,-450 L238,-918 L438,-182 L730,-1094 L150,-986 Z" stroke-width="0" fill="#fce189" fill-opacity="0.21568627450980393" />
<path d="M234,-266 L102,-1314 L438,-1302 L542,-790 L346,-382 L418,-562 Z" stroke-width="0" fill="#e1fbf4" fill-opacity="0.7803921568627451" />
<path d="M662,-1162 L226,-818 L150,-658 L730,-1078 L490,-694 L222,-450 Z" stroke-width="0" fill="#f0e6d7" fill-opacity="0.03137254901960784" />
<path d="M182,-858 L342,-1090 L98,-194 L482,-526 L250,-650 L266,-530 Z" stroke-width="0" fill="#faecd7" fill-opacity="0.30196078431372547" />
<path d="M286,-254 L266,-626 L358,-606 L566,-154 L238,-434 L258,-278 Z" stroke-width="0" fill="#9fbdd3" fill-opacity="0.19215686274509805" />
<path d="M418,-290 L518,-1186 L86,-362 L330,-334 L626,-190 L454,-234 Z" stroke-width="0" fill="#fff12e" fill-opacity="0.00784313725490196" />
<path d="M90,-502 L366,-178 L754,-1190 L174,-570 L474,-714 L86,-914 Z" stroke-width="0" fill="#c5f5b4" fill-opacity="0.26666666666666666" />
<path d="M418,-1106 L554,-514 L434,-602 L434,-1150 L434,-242 L538,-306 Z" stroke-width="0" fill="#146746" fill-opacity="0.0" />
<path d="M334,-858 L502,-150 L330,-538 L794,-282 L630,-578 L786,-198 Z" stroke-width="0" fill="#d67de8" fill-opacity="0.03529411764705882" />
<path d="M234,-478 L258,-350 L206,-214 L358,-602 L710,-1254 L142,-674 Z" stroke-width="0" fill="#caf8fa" fill-opacity="0.2" />
<path d="M110,-1166 L98,-534 L578,-186 L450,-598 L558,-798 L470,-158 Z" stroke-width="0" fill="#a5ccc5" fill-opacity="0.21176470588235294" />
<path d="M694,-410 L442,-382 L274,-562 L758,-1094 L374,-402 L222,-942 Z" stroke-width="0" fill="#f5d4eb" fill-opacity="0.30196078431372547" />
<path d="M586,-174 L122,-814 L702,-382 L598,-114 L630,-1038 L586,-982 Z" stroke-width="0" fill="#c3dce0" fill-opacity="0.30196078431372547" />
<path d="M254,-714 L94,-158 L102,-150 L586,-1026 L330,-914 L318,-646 Z" stroke-width="0" fill="#ceddcf" fill-opacity="0.5372549019607843" />
<path d="M514,-1102 L386,-1170 L322,-1294 L722,-762 L314,-1002 L158,-226 Z" stroke-width="0" fill="#f7fbdf" fill-opacity="0.5725490196078431" />
<path d="M362,-846 L550,-570 L86,-294 L690,-298 L398,-658 L226,-170 Z" stroke-width="0" fill="#f7fde3" fill-opacity="0.6901960784313725" />
<path d="M98,-358 L706,-186 L758,-734 L258,-830 L414,-814 L606,-662 Z" stroke-width="0" fill="#d6fcf0" fill-opacity="0.17254901960784313" />
<path d="M530,-190 L278,-282 L290,-910 L258,-998 L178,-758 L398,-198 Z" stroke-width="0" fill="#d7f1bf" fill-opacity="0.33725490196078434" />
<path d="M566,-1146 L118,-86 L554,-846 L246,-1010 L86,-1310 L606,-1046 Z" stroke-width="0" fill="#fea5ae" fill-opacity="0.10196078431372549" />
<path d="M270,-234 L610,-482 L338,-582 L242,-654 L450,-426 L626,-782 Z" stroke-width="0" fill="#a2cdcf" fill-opacity="0.5058823529411764" />
<path d="M122,-1270 L174,-354 L678,-250 L98,-566 L590,-354 L702,-214 Z" stroke-width="0" fill="#f1d4f5" fill-opacity="0.3607843137254902" />
<path d="M718,-358 L86,-90 L694,-1026 L690,-1234 L470,-930 L390,-1234 Z" stroke-width="0" fill="#fbf6eb" fill-opacity="0.22745098039215686" />
<path d="M230,-86 L566,-1074 L206,-626 L294,-822 L658,-174 L274,-146 Z" stroke-width="0" fill="#faf6eb" fill-opacity="0.4588235294117647" />
<path d="M362,-278 L702,-1286 L206,-542 L258,-506 L334,-154 L190,-378 Z" stroke-width="0" fill="#ca9ee7" fill-opacity="0.0784313725490196" />
<path d="M146,-1182 L682,-786 L146,-118 L318,-918 L170,-422 L634,-290 Z" stroke-width="0" fill="#e9f7db" fill-opacity="0.9411764705882353" />
<path d="M198,-802 L254,-786 L606,-238 L462,-1134 L450,-718 L122,-942 Z" stroke-width="0" fill="#dbf776" fill-opacity="0.13725490196078433" />
<path d="M414,-530 L274,-170 L110,-310 L558,-398 L782,-1130 L294,-886 Z" stroke-width="0" fill="#c8ece9" fill-opacity="0.2823529411764706" />
<path d="M626,-850 L654,-734 L510,-1206 L474,-90 L134,-854 L390,-994 Z" stroke-width="0" fill="#efe7f4" fill-opacity="0.28627450980392155" />
<path d="M794,-1254 L110,-670 L526,-822 L450,-582 L210,-462 L522,-926 Z" stroke-width="0" fill="#d9aed5" fill-opacity="0.08627450980392157" />
<path d="M638,-274 L122,-546 L314,-318 L174,-1186 L502,-846 L194,-930 Z" stroke-width="0" fill="#e4cbf4" fill-opacity="0.09019607843137255" />
<path d="M478,-142 L610,-1062 L582,-386 L102,-298 L622,-1294 L198,-994 Z" stroke-width="0" fill="#a8c0ff" fill-opacity="0.10588235294117647" />
<text x="448.0" y="0" font-size="70.0" fill="black" text-anchor="middle" transform="translate(0,17.5)">4 OF AIR</text>
</svg>