<?xml version="1.0" encoding="UTF-8"?>
<svg xmlns="http://www.w3.org/2000/svg" xmlns:xlink="http://www.w3.org/1999/xlink"
     width="896" height="1496" viewBox="0 -1400 896 1496" style="font-size:70;font-family:Poor Richard, Times New Roman;stroke:black;stroke-width:1;fill:none">
<defs>
</defs>
<path d="M518,-1066 L530,-554 L130,-806 L702,-466 L642,-850 L102,-778 Z" stroke-width="0" fill="#1337c8" fill-opacity="0.3137254901960784" />
<path d="M614,-222 L762,-810 L526,-530 L446,-1230 L458,-394 L138,-1034 Z" stroke-width="0" fill="#f7fff8" fill-opacity="0.047058823529411764" />
<path d="M630,-902 L706,-902 L122,-322 L150,-1174 L466,-214 L378,-122 Z" stroke-width="0" fill="#1a5a4f" fill-opacity="0.6431372549019608" />
<path d="M646,-146 L678,-866 L286,-766 L330,-718 L714,-826 L258,-562 Z" stroke-width="0" fill="#002315" fill-opacity="0.7019607843137254" />
<path d="M550,-594 L330,-810 L250,-710 L398,-806 L490,-630 L126,-890 Z" stroke-width="0" fill="#5d35c5" fill-opacity="0.30980392156862746" />
<path d="M154,-658 L358,-950 L142,-798 L126,-638 L746,-1274 L554,-398 Z" stroke-width="0" fill="#e6caf4" fill-opacity="0.25098039215686274" />
<path d="M714,-374 L250,-1162 L470,-742 L250,-574 L530,-446 L114,-1010 Z" stroke-width="0" fill="#16fda9" fill-opacity="0.27058823529411763" />
<path d="M694,-86 L266,-1126 L310,-1206 L698,-166 L342,-602 L438,-962 Z" stroke-width="0" fill="#fdf5fd" fill-opacity="0.09019607843137255" />
<path d="M798,-1178 L122,-498 L686,-474 L206,-122 L354,-674 L338,-554 Z" stroke-width="0" fill="#f6b6f0" fill-opacity="0.023529411764705882" />
<path d="M610,-1086 L242,-330 L278,-710 L538,-426 L346,-418 L694,-1154 Z" stroke-width="0" fill="#f1d4e9" fill-opacity="0.11372549019607843" />
<path d="M566,-878 L322,-462 L434,-962 L178,-938 L414,-106 L786,-198 Z" stroke-width="0" fill="#010013" fill-opacity="0.8784313725490196" />
<path d="M714,-366 L662,-798 L306,-686 L254,-346 L638,-894 L538,-1102 Z" stroke-width="0" fill="#528d57" fill-opacity="0.7411764705882353" />
<path d="M630,-1206 L526,-86 L94,-826 L810,-946 L178,-714 L618,-1230 Z" stroke-width="0" fill="#d0bfa0" fill-opacity="0.2" />
<path d="M650,-810 L470,-714 L454,-1030 L182,-1130 L410,-542 L346,-1226 Z" stroke-width="0" fill="#edeaf3" fill-opacity="0.12549019607843137" />
<path d="M142,-690 L638,-682 L126,-374 L526,-1118 L214,-134 L402,-466 Z" stroke-width="0" fill="#b91a01" fill-opacity="0.3686274509803922" />
<path d="M558,-378 L622,-1298 L614,-1114 L402,-82 L174,-1206 L770,-998 Z" stroke-width="0" fill="#e4eef9" fill-opacity="0.08235294117647059" />
<path d="M378,-1302 L150,-594 L686,-118 L654,-306 L686,-150 L358,-766 Z" stroke-width="0" fill="#f4fff6" fill-opacity="0.4627450980392157" />
<path d="M386,-406 L218,-162 L206,-974 L286,-490 L226,-470 L598,-1130 Z" stroke-width="0" fill="#dbf1f8" fill-opacity="0.9176470588235294" />
<path d="M258,-462 L346,-566 L790,-194 L270,-950 L190,-614 L242,-1234 Z" stroke-width="0" fill="#000000" fill-opacity="0.0784313725490196" />
<path d="M98,-182 L734,-1158 L302,-970 L150,-642 L154,-1206 L382,-958 Z" stroke-width="0" fill="#f7f5f4" fill-opacity="0.26666666666666666" />
<path d="M150,-738 L494,-766 L514,-166 L218,-258 L302,-822 L198,-726 Z" stroke-width="0" fill="#090617" fill-opacity="0.5843137254901961" />
<path d="M374,-374 L298,-298 L194,-170 L102,-1174 L510,-558 L450,-558 Z" stroke-width="0" fill="#a81b43" fill-opacity="0.48627450980392156" />
<path d="M642,-602 L102,-486 L442,-682 L138,-682 L122,-1006 L294,-126 Z" stroke-width="0" fill="#264b7d" fill-opacity="0.5019607843137255" />
<path d="M322,-1242 L278,-826 L666,-358 L486,-1190 L614,-938 L406,-158 Z" stroke-width="0" fill="#cff6fd" fill-opacity="0.13725490196078433" />
<path d="M498,-326 L198,-366 L682,-410 L650,-242 L142,-298 L270,-1214 Z" stroke-width="0" fill="#f1f1c7" fill-opacity="0.9529411764705882" />
<path d="M270,-882 L290,-202 L366,-626 L370,-970 L86,-1314 L166,-734 Z" stroke-width="0" fill="#f7ece7" fill-opacity="0.058823529411764705" />
<path d="M690,-966 L82,-1294 L554,-682 L650,-814 L318,-666 L754,-538 Z" stroke-width="0" fill="#f6e6fb" fill-opacity="0.17254901960784313" />
<path d="M386,-198 L186,-226 L598,-230 L554,-942 L522,-770 L478,-170 Z" stroke-width="0" fill="#1b0015" fill-opacity="0.9490196078431372" />
<path d="M342,-82 L702,-562 L274,-822 L130,-294 L478,-494 L518,-194 Z" stroke-width="0" fill="#43511f" fill-opacity="0.8352941176470589" />
<path d="M638,-1078 L270,-402 L374,-806 L338,-970 L762,-926 L134,-130 Z" stroke-width="0" fill="#0c1c23" fill-opacity="0.45098039215686275" />
<path d="M254,-234 L122,-1158 L194,-334 L374,-958 L390,-786 L254,-582 Z" stroke-width="0" fill="#549099" fill-opacity="0.5058823529411764" />
<path d="M202,-210 L426,-1246 L538,-778 L314,-846 L414,-914 L342,-418 Z" stroke-width="0" fill="#e2e6ef" fill-opacity="0.03529411764705882" />
<path d="M450,-578 L718,-442 L358,-434 L450,-546 L666,-1206 L222,-746 Z" stroke-width="0" fill="#d4e5df" fill-opacity="0.027450980392156862" />
<path d="M538,-270 L366,-690 L398,-166 L718,-1094 L630,-554 L350,-254 Z" stroke-width="0" fill="#f9bcaf" fill-opacity="0.2823529411764706" />
<path d="M502,-274 L586,-682 L714,-718 L402,-350 L206,-166 L594,-810 Z" stroke-width="0" fill="#34cddd" fill-opacity="0.13725490196078433" />
<path d="M490,-786 L278,-338 L754,-274 L202,-978 L622,-1182 L442,-1266 Z" stroke-width="0" fill="#c9fecb" fill-opacity="0.043137254901960784" />
<path d="M258,-798 L198,-330 L534,-666 L170,-542 L234,-1010 L158,-818 Z" stroke-width="0" fill="#ffcdba" fill-opacity="0.9254901960784314" />
<path d="M682,-1054 L214,-1090 L330,-734 L534,-426 L366,-1234 L170,-502 Z" stroke-width="0" fill="#e8dff1" fill-opacity="0.023529411764705882" />
<path d="M94,-566 L466,-642 L138,-498 L434,-310 L418,-358 L318,-726 Z" stroke-width="0" fill="#9e8f55" fill-opacity="0.6549019607843137" />
<path d="M774,-1134 L354,-370 L198,-710 L318,-1194 L162,-1102 L482,-1282 Z" stroke-width="0" fill="#edf5db" fill-opacity="0.0392156862745098" />
<path d="M534,-726 L170,-1034 L794,-1150 L306,-162 L710,-554 L742,-334 Z" stroke-width="0" fill="#88cf5e" fill-opacity="0.00784313725490196" />
<path d="M178,-134 L510,-570 L294,-434 L150,-1010 L530,-858 L154,-206 Z" stroke-width="0" fill="#6c101b" fill-opacity="0.6941176470588235" />
<path d="M426,-106 L310,-142 L198,-634 L234,-558 L434,-762 L114,-1178 Z" stroke-width="0" fill="#6e4349" fill-opacity="0.8745098039215686" />
<path d="M482,-458 L330,-990 L118,-542 L722,-170 L438,-326 L162,-162 Z" stroke-width="0" fill="#3f4033" fill-opacity="0.8862745098039215" />
<path d="M546,-762 L634,-642 L714,-510 L82,-966 L106,-422 L386,-730 Z" stroke-width="0" fill="#000000" fill-opacity="0.5019607843137255" />
<path d="M738,-1270 L586,-278 L518,-1178 L798,-698 L130,-818 L118,-658 Z" stroke-width="0" fill="#cdebec" fill-opacity="0.5647058823529412" />
<path d="M810,-998 L630,-590 L762,-722 L370,-1082 L578,-638 L162,-982 Z" stroke-width="0" fill="#00020a" fill-opacity="0.6039215686274509" />
<path d="M726,-938 L174,-114 L170,-118 L122,-942 L666,-438 L714,-534 Z" stroke-width="0" fill="#c1c5bb" fill-opacity="0.44313725490196076" />
<path d="M638,-814 L678,-346 L162,-590 L286,-778 L578,-810 L526,-558 Z" stroke-width="0" fill="#1fe7c5" fill-opacity="0.08235294117647059" />
<path d="M82,-1126 L414,-446 L422,-1014 L358,-922 L170,-674 L422,-1166 Z" stroke-width="0" fill="#e0ebe9" fill-opacity="0.36470588235294116" />
<path d="M514,-466 L114,-278 L314,-970 L458,-458 L490,-406 L278,-418 Z" stroke-width="0" fill="#120b07" fill-opacity="0.796078431372549" />
<path d="M366,-646 L182,-326 L438,-766 L310,-470 L186,-522 L650,-106 Z" stroke-width="0" fill="#000000" fill-opacity="0.7333333333333333" />
<path d="M330,-670 L414,-490 L554,-1106 L522,-746 L738,-394 L178,-114 Z" stroke-width="0" fill="#520700" fill-opacity="0.5372549019607843" />
<path d="M758,-890 L258,-186 L138,-1058 L322,-614 L670,-258 L334,-686 Z" stroke-width="0" fill="#629692" fill-opacity="0.15294117647058825" />
<path d="M702,-850 L110,-90 L342,-98 L450,-790 L446,-806 L126,-1118 Z" stroke-width="0" fill="#490a06" fill-opacity="0.6627450980392157" />
<path d="M94,-1234 L282,-546 L138,-626 L406,-570 L438,-302 L374,-502 Z" stroke-width="0" fill="#9282c6" fill-opacity="0.0784313725490196" />
<path d="M582,-298 L178,-202 L362,-226 L474,-290 L566,-594 L758,-166 Z" stroke-width="0" fill="#300618" fill-opacity="0.06274509803921569" />
<path d="M634,-934 L398,-562 L282,-126 L242,-374 L726,-1118 L178,-1074 Z" stroke-width="0" fill="#8a88cd" fill-opacity="0.050980392156862744" />
<path d="M266,-1038 L606,-1314 L702,-298 L454,-1038 L642,-1086 L494,-1166 Z" stroke-width="0" fill="#ede2d1" fill-opacity="0.054901960784313725" />
<path d="M606,-138 L554,-806 L622,-1194 L170,-898 L614,-670 L442,-438 Z" stroke-width="0" fill="#effee3" fill-opacity="0.09411764705882353" />
<path d="M550,-750 L278,-1270 L498,-846 L790,-546 L146,-90 L622,-1142 Z" stroke-width="0" fill="#303d02" fill-opacity="0.19215686274509805" />
<path d="M122,-278 L378,-206 L226,-346 L774,-802 L558,-1290 L762,-798 Z" stroke-width="0" fill="#01171d" fill-opacity="0.043137254901960784" />
<path d="M90,-1162 L642,-762 L166,-722 L346,-342 L286,-1138 L598,-950 Z" stroke-width="0" fill="#ecdbdd" fill-opacity="0.49019607843137253" />
<path d="M774,-906 L406,-334 L254,-346 L226,-1046 L542,-914 L122,-1290 Z" stroke-width="0" fill="#fcdfcb" fill-opacity="0.058823529411764705" />
<path d="M282,-138 L762,-954 L154,-950 L558,-378 L142,-142 L586,-1114 Z" stroke-width="0" fill="#031305" fill-opacity="0.047058823529411764" />
<path d="M358,-330 L770,-262 L114,-90 L94,-170 L794,-838 L414,-1118 Z" stroke-width="0" fill="#1d2816" fill-opacity="0.5019607843137255" />
<path d="M414,-1046 L414,-902 L618,-1166 L618,-814 L418,-742 L450,-154 Z" stroke-width="0" fill="#ae9a98" fill-opacity="0.00392156862745098" />
<path d="M366,-710 L174,-602 L218,-418 L174,-482 L170,-1282 L386,-610 Z" stroke-width="0" fill="#e6c9f2" fill-opacity="0.023529411764705882" />
<path d="M210,-1230 L166,-226 L458,-826 L390,-250 L270,-1198 L326,-950 Z" stroke-width="0" fill="#eff3d3" fill-opacity="0.23529411764705882" />
<path d="M118,-858 L274,-922 L514,-162 L582,-966 L450,-134 L694,-370 Z" stroke-width="0" fill="#a84cab" fill-opacity="0.11764705882352941" />
<path d="M562,-886 L202,-478 L578,-1294 L234,-642 L378,-610 L538,-478 Z" stroke-width="0" fill="#fbf8ff" fill-opacity="0.03137254901960784" />
<path d="M398,-1002 L810,-1270 L802,-538 L578,-510 L502,-266 L134,-594 Z" stroke-width="0" fill="#151967" fill-opacity="0.2549019607843137" />
<path d="M494,-442 L438,-94 L582,-1246 L294,-282 L586,-370 L646,-598 Z" stroke-width="0" fill="#8190e5" fill-opacity="0.11372549019607843" />
<path d="M438,-582 L726,-606 L766,-986 L686,-1126 L590,-774 L646,-814 Z" stroke-width="0" fill="#352e0f" fill-opacity="0.18823529411764706" />
<path d="M98,-1030 L466,-382 L478,-778 L402,-458 L222,-706 L110,-1082 Z" stroke-width="0" fill="#5b697a" fill-opacity="0.5019607843137255" />
<path d="M302,-1086 L510,-1022 L778,-594 L106,-666 L602,-962 L326,-286 Z" stroke-width="0" fill="#789d9c" fill-opacity="0.43529411764705883" />
<path d="M470,-1046 L646,-486 L782,-450 L474,-250 L330,-1054 L686,-634 Z" stroke-width="0" fill="#0e0016" fill-opacity="0.5294117647058824" />
<path d="M482,-1094 L466,-266 L422,-170 L238,-478 L270,-302 L634,-446 Z" stroke-width="0" fill="#42352d" fill-opacity="0.6627450980392157" />
<path d="M362,-1082 L630,-110 L290,-910 L158,-666 L122,-586 L206,-1130 Z" stroke-width="0" fill="#b1e891" fill-opacity="0.10588235294117647" />
<path d="M110,-230 L442,-1134 L670,-270 L178,-434 L546,-458 L110,-538 Z" stroke-width="0" fill="#302209" fill-opacity="0.49019607843137253" />
<path d="M410,-894 L766,-454 L102,-550 L726,-326 L546,-1298 L726,-130 Z" stroke-width="0" fill="#1b2724" fill-opacity="0.2823529411764706" />
<path d="M130,-650 L726,-178 L342,-506 L94,-238 L630,-1218 L278,-906 Z" stroke-width="0" fill="#ffc9d6" fill-opacity="0.47843137254901963" />
<path d="M146,-442 L94,-230 L238,-402 L290,-754 L678,-346 L342,-1194 Z" stroke-width="0" fill="#91acc4" fill-opacity="0.36470588235294116" />
<path d="M522,-722 L774,-514 L638,-534 L662,-390 L242,-282 L478,-1178 Z" stroke-width="0" fill="#a10018" fill-opacity="0.047058823529411764" />
<path d="M166,-1122 L566,-674 L514,-1226 L122,-758 L182,-86 L566,-814 Z" stroke-width="0" fill="#79b7cf" fill-opacity="0.2549019607843137" />
<path d="M538,-730 L406,-950 L402,-250 L422,-1258 L694,-318 L578,-350 Z" stroke-width="0" fill="#d4eaaf" fill-opacity="0.25882352941176473" />
<path d="M782,-334 L322,-366 L574,-350 L410,-238 L706,-430 L738,-222 Z" stroke-width="0" fill="#1d280b" fill-opacity="0.8980392156862745" />
<path d="M586,-274 L646,-1014 L414,-522 L134,-542 L486,-686 L338,-994 Z" stroke-width="0" fill="#270943" fill-opacity="0.20784313725490197" />
<path d="M362,-1094 L522,-310 L178,-1130 L330,-522 L494,-922 L486,-342 Z" stroke-width="0" fill="#80badb" fill-opacity="0.18823529411764706" />
<path d="M258,-106 L630,-370 L622,-822 L738,-1058 L186,-454 L438,-934 Z" stroke-width="0" fill="#103d45" fill-opacity="0.2901960784313726" />
<path d="M522,-198 L86,-350 L330,-754 L318,-394 L254,-1162 L570,-1134 Z" stroke-width="0" fill="#9c82fb" fill-opacity="0.03137254901960784" />
<path d="M494,-550 L458,-86 L738,-782 L270,-762 L574,-1302 L554,-250 Z" stroke-width="0" fill="#6297ce" fill-opacity="0.0196078431372549" />
<path d="M554,-810 L518,-486 L438,-314 L82,-714 L566,-762 L590,-818 Z" stroke-width="0" fill="#b2bddb" fill-opacity="0.7137254901960784" />
<path d="M722,-706 L678,-1194 L566,-378 L102,-810 L762,-654 L462,-222 Z" stroke-width="0" fill="#6e83a0" fill-opacity="0.0" />
<path d="M330,-938 L542,-1166 L586,-402 L434,-522 L514,-430 L358,-1014 Z" stroke-width="0" fill="#24abfe" fill-opacity="0.08235294117647059" />
<path d="M522,-810 L170,-1258 L802,-522 L274,-626 L138,-294 L750,-510 Z" stroke-width="0" fill="#43401e" fill-opacity="0.3215686274509804" />
<path d="M782,-494 L642,-798 L218,-706 L674,-586 L174,-322 L198,-362 Z" stroke-width="0" fill="#b9a8eb" fill-opacity="0.33725490196078434" />
<path d="M170,-862 L406,-470 L430,-478 L622,-886 L106,-210 L562,-394 Z" stroke-width="0" fill="#2b3521" fill-opacity="0.5176470588235295" />
<path d="M514,-434 L266,-466 L510,-158 L318,-678 L358,-402 L746,-1006 Z" stroke-width="0" fill="#c0b892" fill-opacity="0.11764705882352941" />
<path d="M482,-934 L426,-1142 L354,-1102 L546,-474 L118,-550 L474,-1258 Z" stroke-width="0" fill="#e7c69a" fill-opacity="0.1843137254901961" />
<text x="448.0" y="0" font-size="70.0" fill="black" text-anchor="middle" transform="translate(0,17.5)">10 OF AIR</text>
</svg>