<?xml version="1.0" encoding="UTF-8"?>
<svg xmlns="http://www.w3.org/2000/svg" xmlns:xlink="http://www.w3.org/1999/xlink"
     width="896" height="1496" viewBox="0 -1400 896 1496" style="font-size:70;font-family:Poor Richard, Times New Roman;stroke:black;stroke-width:1;fill:none">
<defs>
</defs>
<path d="M190,-898 L522,-738 L178,-462 L274,-206 L914,-1050 L306,-110 Z" stroke-width="0" fill="#5c9779" fill-opacity="0.19215686274509805" />
<path d="M878,-678 L938,-478 L550,-774 L794,-1002 L542,-674 L834,-458 Z" stroke-width="0" fill="#b27e11" fill-opacity="0.06666666666666667" />
<path d="M718,-378 L562,-586 L114,-786 L466,-694 L738,-130 L278,-114 Z" stroke-width="0" fill="#070000" fill-opacity="0.615686274509804" />
<path d="M98,-422 L738,-82 L482,-1198 L294,-238 L206,-910 L370,-346 Z" stroke-width="0" fill="#171111" fill-opacity="0.9019607843137255" />
<path d="M862,-734 L526,-94 L174,-1018 L874,-674 L934,-158 L334,-202 Z" stroke-width="0" fill="#425269" fill-opacity="0.9019607843137255" />
<path d="M970,-486 L874,-186 L282,-698 L326,-958 L114,-382 L158,-914 Z" stroke-width="0" fill="#050000" fill-opacity="0.7764705882352941" />
<path d="M722,-1142 L158,-198 L86,-630 L286,-210 L618,-166 L134,-382 Z" stroke-width="0" fill="#4f1029" fill-opacity="0.6235294117647059" />
<path d="M318,-802 L814,-546 L294,-806 L966,-1030 L326,-1046 L450,-422 Z" stroke-width="0" fill="#091d38" fill-opacity="0.5019607843137255" />
<path d="M682,-114 L862,-766 L86,-1238 L246,-894 L246,-298 L926,-526 Z" stroke-width="0" fill="#e4f4f7" fill-opacity="0.12156862745098039" />
<path d="M790,-114 L722,-1034 L250,-182 L154,-274 L310,-1010 L494,-854 Z" stroke-width="0" fill="#120000" fill-opacity="0.9921568627450981" />
<path d="M614,-394 L410,-846 L974,-286 L158,-566 L242,-1274 L526,-1234 Z" stroke-width="0" fill="#e7f5f5" fill-opacity="0.10196078431372549" />
<path d="M198,-262 L838,-858 L590,-746 L546,-1082 L850,-694 L974,-550 Z" stroke-width="0" fill="#010331" fill-opacity="0.4470588235294118" />
<path d="M918,-514 L498,-170 L890,-162 L114,-858 L262,-794 L434,-1198 Z" stroke-width="0" fill="#f7d9fb" fill-opacity="0.4" />
<path d="M290,-410 L710,-102 L638,-94 L82,-1198 L430,-686 L746,-1026 Z" stroke-width="0" fill="#071229" fill-opacity="0.4980392156862745" />
<path d="M382,-270 L682,-586 L642,-266 L122,-426 L230,-898 L490,-1158 Z" stroke-width="0" fill="#ccdabf" fill-opacity="0.9764705882352941" />
<path d="M358,-586 L326,-394 L206,-130 L542,-774 L918,-158 L850,-498 Z" stroke-width="0" fill="#3e0c76" fill-opacity="0.5019607843137255" />
<path d="M266,-910 L638,-142 L426,-274 L114,-658 L850,-1014 L578,-882 Z" stroke-width="0" fill="#b5314d" fill-opacity="0.08235294117647059" />
<path d="M638,-350 L174,-450 L658,-722 L178,-546 L126,-466 L830,-258 Z" stroke-width="0" fill="#1f0f02" fill-opacity="0.984313725490196" />
<path d="M466,-1158 L818,-878 L662,-718 L370,-850 L154,-1142 L166,-1162 Z" stroke-width="0" fill="#f1eff1" fill-opacity="0.0392156862745098" />
<path d="M758,-614 L706,-394 L222,-174 L334,-342 L782,-1038 L714,-1070 Z" stroke-width="0" fill="#005706" fill-opacity="0.5333333333333333" />
<path d="M678,-966 L226,-198 L126,-914 L350,-1042 L598,-706 L550,-502 Z" stroke-width="0" fill="#1f0714" fill-opacity="0.9176470588235294" />
<path d="M798,-854 L126,-450 L742,-886 L506,-498 L522,-1166 L454,-762 Z" stroke-width="0" fill="#fbf9ea" fill-opacity="0.8549019607843137" />
<path d="M470,-862 L742,-230 L270,-642 L686,-402 L834,-1090 L366,-586 Z" stroke-width="0" fill="#643083" fill-opacity="0.29411764705882354" />
<path d="M310,-1234 L90,-106 L98,-334 L970,-870 L410,-150 L214,-382 Z" stroke-width="0" fill="#4a000a" fill-opacity="0.5019607843137255" />
<path d="M826,-182 L450,-938 L730,-1062 L542,-198 L726,-166 L310,-610 Z" stroke-width="0" fill="#29055f" fill-opacity="0.03529411764705882" />
<path d="M882,-246 L642,-638 L790,-1018 L438,-710 L426,-670 L438,-882 Z" stroke-width="0" fill="#150800" fill-opacity="0.8980392156862745" />
<path d="M86,-902 L326,-1210 L658,-666 L406,-746 L674,-778 L138,-202 Z" stroke-width="0" fill="#165a3b" fill-opacity="0.48627450980392156" />
<path d="M174,-194 L662,-586 L422,-118 L706,-718 L402,-706 L870,-498 Z" stroke-width="0" fill="#311e36" fill-opacity="0.7411764705882353" />
<path d="M582,-326 L298,-838 L134,-214 L390,-498 L86,-350 L958,-862 Z" stroke-width="0" fill="#154158" fill-opacity="0.5490196078431373" />
<path d="M506,-770 L306,-1022 L266,-522 L770,-834 L938,-162 L254,-410 Z" stroke-width="0" fill="#0d1603" fill-opacity="0.807843137254902" />
<path d="M618,-170 L826,-810 L190,-914 L254,-978 L202,-1102 L382,-222 Z" stroke-width="0" fill="#b3744f" fill-opacity="0.21568627450980393" />
<path d="M922,-1274 L478,-982 L402,-454 L474,-486 L282,-894 L90,-726 Z" stroke-width="0" fill="#b8daec" fill-opacity="0.4" />
<path d="M942,-998 L90,-210 L642,-1214 L94,-610 L634,-830 L578,-738 Z" stroke-width="0" fill="#f7f7f7" fill-opacity="0.9568627450980393" />
<path d="M102,-558 L706,-270 L242,-750 L458,-666 L254,-922 L798,-1114 Z" stroke-width="0" fill="#fcffff" fill-opacity="0.1568627450980392" />
<path d="M934,-218 L782,-886 L410,-446 L522,-450 L546,-458 L342,-630 Z" stroke-width="0" fill="#000000" fill-opacity="0.8941176470588236" />
<path d="M646,-694 L282,-1002 L394,-230 L610,-578 L962,-766 L530,-1026 Z" stroke-width="0" fill="#8df0ee" fill-opacity="0.054901960784313725" />
<path d="M154,-946 L698,-286 L786,-998 L382,-318 L642,-774 L450,-970 Z" stroke-width="0" fill="#02240c" fill-opacity="0.9921568627450981" />
<path d="M314,-678 L298,-978 L626,-866 L626,-362 L938,-574 L782,-194 Z" stroke-width="0" fill="#000000" fill-opacity="0.2549019607843137" />
<path d="M398,-382 L606,-658 L738,-1278 L578,-594 L354,-262 L606,-394 Z" stroke-width="0" fill="#021bcd" fill-opacity="0.058823529411764705" />
<path d="M282,-194 L906,-366 L190,-1098 L274,-190 L314,-522 L822,-486 Z" stroke-width="0" fill="#001100" fill-opacity="0.10588235294117647" />
<path d="M106,-142 L242,-966 L438,-322 L330,-574 L602,-554 L574,-162 Z" stroke-width="0" fill="#000000" fill-opacity="0.6235294117647059" />
<path d="M574,-1078 L566,-414 L326,-638 L478,-670 L494,-526 L338,-506 Z" stroke-width="0" fill="#070916" fill-opacity="0.996078431372549" />
<path d="M774,-1074 L626,-318 L262,-546 L938,-954 L762,-1066 L710,-658 Z" stroke-width="0" fill="#10221f" fill-opacity="0.5803921568627451" />
<path d="M98,-458 L674,-238 L790,-610 L410,-222 L698,-1206 L474,-714 Z" stroke-width="0" fill="#0935cc" fill-opacity="0.047058823529411764" />
<path d="M662,-182 L338,-158 L150,-566 L918,-786 L242,-546 L394,-850 Z" stroke-width="0" fill="#bce1e9" fill-opacity="0.11764705882352941" />
<path d="M342,-1062 L402,-206 L278,-830 L510,-438 L722,-470 L714,-146 Z" stroke-width="0" fill="#0d0016" fill-opacity="0.49019607843137253" />
<path d="M266,-698 L322,-1174 L474,-550 L630,-766 L966,-250 L222,-1082 Z" stroke-width="0" fill="#040000" fill-opacity="0.043137254901960784" />
<path d="M90,-302 L386,-1134 L974,-758 L578,-334 L686,-778 L206,-510 Z" stroke-width="0" fill="#5c369c" fill-opacity="0.6627450980392157" />
<path d="M470,-870 L766,-1066 L530,-686 L482,-1094 L310,-882 L242,-1098 Z" stroke-width="0" fill="#0b0b14" fill-opacity="1.0" />
<path d="M254,-1126 L674,-1162 L522,-494 L398,-1270 L454,-934 L766,-754 Z" stroke-width="0" fill="#60fef2" fill-opacity="0.06666666666666667" />
<path d="M950,-930 L274,-1230 L366,-86 L478,-662 L162,-350 L702,-746 Z" stroke-width="0" fill="#fbc4d4" fill-opacity="0.08235294117647059" />
<path d="M942,-146 L686,-562 L158,-1278 L346,-206 L598,-342 L746,-110 Z" stroke-width="0" fill="#000c00" fill-opacity="0.8666666666666667" />
<path d="M786,-766 L170,-134 L466,-1218 L222,-830 L538,-238 L550,-322 Z" stroke-width="0" fill="#000310" fill-opacity="0.058823529411764705" />
<path d="M370,-766 L682,-238 L322,-602 L490,-1018 L234,-934 L302,-238 Z" stroke-width="0" fill="#f4be9e" fill-opacity="0.3411764705882353" />
<path d="M562,-562 L366,-810 L830,-846 L126,-790 L394,-242 L126,-1210 Z" stroke-width="0" fill="#cdbaf4" fill-opacity="0.14901960784313725" />
<path d="M938,-1046 L770,-882 L850,-422 L562,-490 L422,-870 L730,-674 Z" stroke-width="0" fill="#692700" fill-opacity="0.5764705882352941" />
<path d="M590,-122 L842,-898 L234,-766 L306,-402 L234,-282 L234,-950 Z" stroke-width="0" fill="#12252e" fill-opacity="0.16862745098039217" />
<path d="M978,-630 L246,-670 L278,-98 L330,-794 L654,-1210 L198,-810 Z" stroke-width="0" fill="#4d74f4" fill-opacity="0.00392156862745098" />
<path d="M90,-302 L826,-854 L118,-310 L230,-906 L830,-870 L958,-406 Z" stroke-width="0" fill="#a9aa0e" fill-opacity="0.21568627450980393" />
<path d="M110,-1042 L506,-714 L334,-1098 L258,-450 L822,-902 L574,-878 Z" stroke-width="0" fill="#433355" fill-opacity="0.9372549019607843" />
<path d="M634,-1074 L746,-190 L190,-526 L834,-582 L750,-1198 L898,-582 Z" stroke-width="0" fill="#4c518b" fill-opacity="0.12549019607843137" />
<path d="M630,-418 L810,-334 L474,-986 L190,-390 L238,-354 L342,-426 Z" stroke-width="0" fill="#c6f0f6" fill-opacity="0.3176470588235294" />
<path d="M422,-682 L526,-314 L686,-218 L658,-646 L366,-1126 L222,-242 Z" stroke-width="0" fill="#debbad" fill-opacity="0.22745098039215686" />
<path d="M382,-214 L418,-906 L358,-170 L842,-190 L494,-986 L346,-850 Z" stroke-width="0" fill="#252b19" fill-opacity="0.22745098039215686" />
<path d="M450,-478 L390,-966 L346,-342 L358,-226 L878,-1082 L830,-202 Z" stroke-width="0" fill="#1a0214" fill-opacity="0.3254901960784314" />
<path d="M230,-858 L302,-846 L194,-1134 L746,-810 L166,-1078 L550,-1154 Z" stroke-width="0" fill="#f8fef5" fill-opacity="1.0" />
<path d="M814,-1058 L682,-110 L838,-762 L162,-150 L762,-522 L494,-422 Z" stroke-width="0" fill="#2a1804" fill-opacity="0.5019607843137255" />
<path d="M510,-418 L874,-858 L150,-914 L294,-1034 L118,-166 L398,-610 Z" stroke-width="0" fill="#feded0" fill-opacity="0.9686274509803922" />
<path d="M418,-938 L674,-602 L590,-246 L478,-538 L670,-866 L910,-598 Z" stroke-width="0" fill="#e8dfeb" fill-opacity="0.6784313725490196" />
<path d="M662,-506 L506,-1058 L938,-278 L486,-210 L306,-1186 L938,-722 Z" stroke-width="0" fill="#2e764e" fill-opacity="0.027450980392156862" />
<path d="M362,-962 L254,-98 L706,-386 L218,-1138 L98,-166 L826,-938 Z" stroke-width="0" fill="#062611" fill-opacity="0.5372549019607843" />
<path d="M842,-1114 L98,-982 L882,-110 L458,-1182 L206,-1066 L546,-1278 Z" stroke-width="0" fill="#170293" fill-opacity="0.0196078431372549" />
<path d="M198,-614 L694,-874 L430,-934 L462,-650 L226,-922 L798,-150 Z" stroke-width="0" fill="#5a0f18" fill-opacity="0.08627450980392157" />
<path d="M430,-226 L686,-1114 L438,-1230 L402,-1126 L438,-890 L530,-486 Z" stroke-width="0" fill="#faf4e0" fill-opacity="0.20392156862745098" />
<path d="M914,-854 L762,-166 L946,-674 L914,-750 L934,-1198 L246,-410 Z" stroke-width="0" fill="#05003a" fill-opacity="0.11372549019607843" />
<path d="M158,-318 L230,-1150 L494,-186 L442,-358 L382,-294 L90,-238 Z" stroke-width="0" fill="#260000" fill-opacity="0.3176470588235294" />
<path d="M302,-754 L546,-542 L734,-926 L826,-1246 L410,-434 L218,-858 Z" stroke-width="0" fill="#130663" fill-opacity="0.08627450980392157" />
<path d="M154,-446 L474,-614 L954,-914 L926,-362 L734,-1214 L82,-1094 Z" stroke-width="0" fill="#fce3e6" fill-opacity="0.27450980392156865" />
<path d="M278,-134 L890,-1098 L334,-1118 L254,-274 L150,-634 L238,-942 Z" stroke-width="0" fill="#768ed6" fill-opacity="0.0196078431372549" />
<path d="M246,-106 L686,-826 L334,-86 L814,-994 L818,-882 L810,-966 Z" stroke-width="0" fill="#3d3a2e" fill-opacity="0.5019607843137255" />
<path d="M262,-90 L598,-126 L130,-302 L106,-1090 L282,-138 L918,-278 Z" stroke-width="0" fill="#4c2d29" fill-opacity="0.4745098039215686" />
<path d="M894,-610 L678,-990 L534,-910 L718,-886 L698,-522 L466,-82 Z" stroke-width="0" fill="#390b46" fill-opacity="0.14901960784313725" />
<path d="M886,-998 L442,-626 L430,-602 L694,-522 L614,-1030 L962,-110 Z" stroke-width="0" fill="#495678" fill-opacity="0.8784313725490196" />
<path d="M438,-1126 L82,-530 L358,-226 L514,-270 L214,-630 L770,-830 Z" stroke-width="0" fill="#360149" fill-opacity="0.16470588235294117" />
<path d="M334,-502 L786,-478 L922,-546 L458,-634 L946,-882 L510,-858 Z" stroke-width="0" fill="#1c1a2a" fill-opacity="0.5803921568627451" />
<path d="M282,-458 L570,-798 L370,-610 L558,-386 L778,-538 L138,-622 Z" stroke-width="0" fill="#0b0913" fill-opacity="0.5450980392156862" />
<path d="M198,-570 L242,-1094 L322,-650 L694,-846 L238,-698 L878,-102 Z" stroke-width="0" fill="#7e84f1" fill-opacity="0.03137254901960784" />
<path d="M722,-138 L290,-366 L558,-474 L658,-146 L434,-1242 L670,-1078 Z" stroke-width="0" fill="#3b39df" fill-opacity="0.00784313725490196" />
<path d="M278,-398 L250,-1050 L734,-318 L806,-250 L286,-394 L274,-478 Z" stroke-width="0" fill="#797b68" fill-opacity="0.17254901960784313" />
<path d="M922,-222 L590,-642 L722,-682 L306,-462 L398,-1026 L902,-778 Z" stroke-width="0" fill="#998eaa" fill-opacity="0.5137254901960784" />
<path d="M838,-370 L518,-1126 L510,-806 L570,-298 L342,-502 L238,-526 Z" stroke-width="0" fill="#81d0dd" fill-opacity="0.28627450980392155" />
<path d="M542,-830 L446,-1038 L154,-318 L110,-354 L394,-322 L314,-814 Z" stroke-width="0" fill="#18b031" fill-opacity="0.08235294117647059" />
<path d="M354,-654 L722,-782 L270,-1218 L86,-838 L254,-554 L138,-146 Z" stroke-width="0" fill="#92b2d9" fill-opacity="0.49019607843137253" />
<path d="M166,-810 L246,-1266 L322,-754 L138,-1186 L466,-302 L586,-822 Z" stroke-width="0" fill="#d7eddf" fill-opacity="0.3568627450980392" />
<path d="M938,-342 L458,-238 L622,-522 L650,-522 L350,-558 L294,-1058 Z" stroke-width="0" fill="#b0a5bd" fill-opacity="0.10588235294117647" />
<path d="M398,-342 L846,-758 L546,-402 L758,-1278 L650,-666 L362,-454 Z" stroke-width="0" fill="#2d3f23" fill-opacity="0.2196078431372549" />
<path d="M506,-542 L530,-790 L182,-318 L958,-738 L322,-334 L106,-938 Z" stroke-width="0" fill="#fedafb" fill-opacity="0.1450980392156863" />
<path d="M382,-1174 L286,-346 L746,-702 L538,-530 L906,-314 L226,-498 Z" stroke-width="0" fill="#7b1600" fill-opacity="0.10196078431372549" />
<path d="M514,-142 L934,-558 L486,-374 L206,-146 L774,-750 L566,-382 Z" stroke-width="0" fill="#344031" fill-opacity="0.16862745098039217" />
<path d="M810,-334 L702,-434 L358,-194 L434,-242 L94,-226 L170,-1254 Z" stroke-width="0" fill="#868b8c" fill-opacity="0.08235294117647059" />
<text x="448.0" y="0" font-size="70.0" fill="black" text-anchor="middle" transform="translate(0,17.5)">10 OF AIR</text>
</svg>