<?xml version="1.0" encoding="UTF-8"?>
<svg xmlns="http://www.w3.org/2000/svg" xmlns:xlink="http://www.w3.org/1999/xlink"
     width="896" height="1496" viewBox="0 -1400 896 1496" style="font-size:70;font-family:Poor Richard, Times New Roman;stroke:black;stroke-width:1;fill:none">
<defs>
</defs>
<path d="M118,-178 L322,-666 L230,-874 L614,-94 L90,-126 L726,-486 Z" stroke-width="0" fill="#675753" fill-opacity="0.5490196078431373" />
<path d="M706,-398 L90,-462 L306,-754 L670,-470 L250,-706 L222,-902 Z" stroke-width="0" fill="#d1c09a" fill-opacity="0.7686274509803922" />
<path d="M294,-906 L730,-202 L758,-898 L326,-362 L490,-146 L658,-230 Z" stroke-width="0" fill="#ee9235" fill-opacity="0.23137254901960785" />
<path d="M670,-362 L626,-870 L290,-1234 L334,-1258 L166,-1110 L374,-278 Z" stroke-width="0" fill="#ea6507" fill-opacity="0.5411764705882353" />
<path d="M162,-318 L482,-1314 L354,-506 L598,-598 L298,-438 L94,-1074 Z" stroke-width="0" fill="#000000" fill-opacity="0.396078431372549" />
<path d="M170,-694 L486,-294 L586,-1126 L410,-130 L158,-650 L638,-382 Z" stroke-width="0" fill="#3e2faa" fill-opacity="0.2235294117647059" />
<path d="M686,-1182 L290,-678 L290,-766 L666,-602 L282,-1166 L586,-818 Z" stroke-width="0" fill="#775139" fill-opacity="0.5019607843137255" />
<path d="M338,-442 L570,-202 L210,-346 L314,-1242 L474,-90 L338,-1190 Z" stroke-width="0" fill="#dead32" fill-opacity="0.19215686274509805" />
<path d="M110,-1202 L806,-1010 L562,-434 L150,-1162 L354,-354 L518,-442 Z" stroke-width="0" fill="#bb896e" fill-opacity="0.6745098039215687" />
<path d="M110,-1174 L366,-194 L738,-542 L498,-578 L142,-910 L158,-602 Z" stroke-width="0" fill="#433c59" fill-opacity="0.4392156862745098" />
<path d="M670,-246 L434,-278 L494,-638 L414,-1102 L490,-518 L126,-494 Z" stroke-width="0" fill="#eaf104" fill-opacity="0.34509803921568627" />
<path d="M254,-1074 L246,-906 L342,-898 L82,-430 L706,-734 L682,-170 Z" stroke-width="0" fill="#879d6c" fill-opacity="0.5019607843137255" />
<path d="M622,-394 L522,-362 L602,-1138 L706,-1078 L810,-322 L726,-1110 Z" stroke-width="0" fill="#7095ee" fill-opacity="0.18823529411764706" />
<path d="M538,-962 L286,-294 L198,-278 L554,-354 L410,-470 L502,-150 Z" stroke-width="0" fill="#ddd7cb" fill-opacity="0.5254901960784314" />
<path d="M806,-370 L574,-966 L698,-102 L246,-718 L474,-982 L478,-1218 Z" stroke-width="0" fill="#101a24" fill-opacity="0.3411764705882353" />
<path d="M538,-1286 L214,-506 L510,-278 L674,-782 L146,-878 L422,-734 Z" stroke-width="0" fill="#3bcdb9" fill-opacity="0.023529411764705882" />
<path d="M82,-762 L470,-486 L146,-1190 L90,-514 L750,-1030 L426,-474 Z" stroke-width="0" fill="#130098" fill-opacity="0.13333333333333333" />
<path d="M354,-150 L226,-798 L342,-342 L414,-762 L770,-122 L170,-1218 Z" stroke-width="0" fill="#c1a783" fill-opacity="0.8" />
<path d="M654,-534 L462,-854 L482,-346 L638,-466 L122,-694 L286,-722 Z" stroke-width="0" fill="#e1a41c" fill-opacity="0.7254901960784313" />
<path d="M294,-1238 L118,-498 L310,-870 L666,-1286 L810,-622 L686,-226 Z" stroke-width="0" fill="#2f6ec5" fill-opacity="0.27058823529411763" />
<path d="M346,-466 L238,-806 L614,-1306 L126,-1278 L382,-378 L810,-98 Z" stroke-width="0" fill="#001ea5" fill-opacity="0.19215686274509805" />
<path d="M498,-378 L762,-982 L374,-194 L90,-98 L470,-538 L650,-242 Z" stroke-width="0" fill="#9ebabb" fill-opacity="0.4588235294117647" />
<path d="M570,-1198 L338,-206 L82,-626 L410,-842 L478,-106 L142,-1014 Z" stroke-width="0" fill="#b26525" fill-opacity="0.5019607843137255" />
<path d="M198,-1122 L146,-494 L358,-86 L310,-206 L302,-902 L338,-154 Z" stroke-width="0" fill="#bca6ad" fill-opacity="0.8117647058823529" />
<path d="M414,-306 L690,-978 L754,-1174 L166,-346 L282,-138 L406,-738 Z" stroke-width="0" fill="#3074b6" fill-opacity="0.21568627450980393" />
<path d="M198,-390 L746,-542 L422,-742 L254,-966 L706,-326 L710,-1054 Z" stroke-width="0" fill="#e1cffd" fill-opacity="0.9803921568627451" />
<path d="M682,-1238 L674,-242 L702,-490 L726,-726 L510,-378 L762,-866 Z" stroke-width="0" fill="#b2bee3" fill-opacity="0.5019607843137255" />
<path d="M786,-1194 L174,-98 L170,-538 L402,-370 L394,-470 L90,-198 Z" stroke-width="0" fill="#a1a79b" fill-opacity="0.6078431372549019" />
<path d="M558,-606 L178,-166 L530,-582 L142,-1118 L258,-710 L194,-150 Z" stroke-width="0" fill="#dfb1e8" fill-opacity="0.25882352941176473" />
<path d="M210,-450 L330,-402 L134,-766 L486,-558 L622,-210 L398,-1014 Z" stroke-width="0" fill="#839944" fill-opacity="0.5450980392156862" />
<path d="M198,-758 L286,-770 L794,-218 L554,-570 L674,-1294 L522,-794 Z" stroke-width="0" fill="#a8c0ec" fill-opacity="0.27058823529411763" />
<path d="M554,-742 L742,-1106 L606,-454 L618,-462 L414,-434 L358,-542 Z" stroke-width="0" fill="#0c009b" fill-opacity="0.5568627450980392" />
<path d="M314,-978 L366,-258 L650,-614 L506,-1178 L390,-302 L114,-426 Z" stroke-width="0" fill="#1d010d" fill-opacity="0.054901960784313725" />
<path d="M738,-642 L222,-114 L610,-982 L354,-1098 L110,-1026 L610,-726 Z" stroke-width="0" fill="#f9e2fd" fill-opacity="0.3411764705882353" />
<path d="M230,-558 L474,-118 L286,-210 L178,-734 L578,-1262 L530,-634 Z" stroke-width="0" fill="#0e9af8" fill-opacity="0.12941176470588237" />
<path d="M570,-1114 L478,-982 L322,-98 L402,-254 L782,-518 L374,-1046 Z" stroke-width="0" fill="#b4becf" fill-opacity="0.9921568627450981" />
<path d="M410,-942 L630,-590 L298,-734 L574,-546 L310,-490 L198,-1282 Z" stroke-width="0" fill="#37d8a9" fill-opacity="0.058823529411764705" />
<path d="M594,-782 L262,-386 L182,-338 L778,-690 L418,-246 L310,-1102 Z" stroke-width="0" fill="#7e9ad8" fill-opacity="0.5411764705882353" />
<path d="M594,-714 L98,-250 L410,-722 L754,-498 L682,-310 L326,-742 Z" stroke-width="0" fill="#914fa6" fill-opacity="0.3058823529411765" />
<path d="M470,-530 L506,-890 L122,-322 L366,-658 L506,-302 L622,-986 Z" stroke-width="0" fill="#021990" fill-opacity="0.4666666666666667" />
<path d="M266,-734 L582,-886 L222,-222 L150,-334 L146,-654 L450,-478 Z" stroke-width="0" fill="#85ff74" fill-opacity="0.7333333333333333" />
<path d="M210,-546 L210,-630 L98,-1070 L274,-546 L638,-958 L730,-246 Z" stroke-width="0" fill="#ebf4dd" fill-opacity="0.5490196078431373" />
<path d="M470,-1198 L342,-118 L194,-754 L206,-418 L438,-322 L314,-918 Z" stroke-width="0" fill="#123973" fill-opacity="0.1568627450980392" />
<path d="M350,-306 L334,-1194 L210,-950 L790,-1086 L626,-842 L654,-326 Z" stroke-width="0" fill="#83355c" fill-opacity="0.36470588235294116" />
<path d="M222,-318 L162,-706 L86,-742 L738,-578 L334,-406 L706,-366 Z" stroke-width="0" fill="#63c88f" fill-opacity="0.06274509803921569" />
<path d="M646,-1074 L258,-702 L234,-462 L210,-1034 L470,-670 L722,-906 Z" stroke-width="0" fill="#cbb1f6" fill-opacity="0.6039215686274509" />
<path d="M454,-1078 L254,-550 L602,-1022 L158,-454 L790,-114 L646,-482 Z" stroke-width="0" fill="#ccc0ad" fill-opacity="0.5019607843137255" />
<path d="M566,-958 L190,-782 L574,-670 L558,-490 L302,-962 L446,-730 Z" stroke-width="0" fill="#38dbea" fill-opacity="0.9137254901960784" />
<path d="M106,-790 L554,-166 L190,-986 L498,-830 L198,-610 L254,-518 Z" stroke-width="0" fill="#fbdd8c" fill-opacity="0.7254901960784313" />
<path d="M606,-326 L574,-230 L534,-870 L586,-974 L514,-638 L490,-886 Z" stroke-width="0" fill="#8a2dd4" fill-opacity="0.0" />
<path d="M182,-462 L382,-586 L190,-1058 L530,-642 L270,-526 L294,-358 Z" stroke-width="0" fill="#147107" fill-opacity="0.054901960784313725" />
<path d="M166,-414 L266,-158 L522,-110 L382,-806 L610,-634 L786,-962 Z" stroke-width="0" fill="#ffe43f" fill-opacity="0.06274509803921569" />
<path d="M362,-766 L574,-102 L386,-562 L390,-1002 L754,-582 L602,-242 Z" stroke-width="0" fill="#f47c1d" fill-opacity="0.00392156862745098" />
<path d="M106,-670 L750,-1138 L722,-870 L318,-854 L434,-382 L506,-738 Z" stroke-width="0" fill="#aba878" fill-opacity="0.6078431372549019" />
<path d="M506,-134 L370,-1314 L502,-98 L354,-290 L414,-374 L430,-922 Z" stroke-width="0" fill="#8e96be" fill-opacity="0.22745098039215686" />
<path d="M294,-542 L410,-382 L802,-582 L802,-486 L486,-210 L90,-758 Z" stroke-width="0" fill="#5b5541" fill-opacity="0.20784313725490197" />
<path d="M262,-406 L330,-658 L430,-130 L346,-558 L174,-1062 L98,-230 Z" stroke-width="0" fill="#42462c" fill-opacity="0.5019607843137255" />
<path d="M390,-270 L686,-130 L354,-174 L94,-918 L126,-406 L382,-126 Z" stroke-width="0" fill="#919da2" fill-opacity="0.9019607843137255" />
<path d="M298,-810 L142,-482 L518,-278 L634,-782 L430,-98 L106,-726 Z" stroke-width="0" fill="#b4ac87" fill-opacity="0.5411764705882353" />
<path d="M258,-958 L578,-726 L150,-578 L186,-678 L90,-362 L162,-1078 Z" stroke-width="0" fill="#a18da4" fill-opacity="0.8431372549019608" />
<path d="M126,-1134 L398,-1306 L718,-558 L162,-486 L458,-834 L366,-518 Z" stroke-width="0" fill="#abe2eb" fill-opacity="0.29411764705882354" />
<path d="M166,-1086 L446,-514 L746,-1010 L198,-1070 L382,-998 L718,-694 Z" stroke-width="0" fill="#7aa071" fill-opacity="0.15294117647058825" />
<path d="M190,-1258 L170,-482 L262,-1222 L106,-478 L658,-1126 L298,-454 Z" stroke-width="0" fill="#c69a61" fill-opacity="0.2980392156862745" />
<path d="M322,-318 L670,-1130 L474,-1038 L654,-974 L386,-1102 L806,-486 Z" stroke-width="0" fill="#cd1c1c" fill-opacity="0.13725490196078433" />
<path d="M702,-1014 L486,-798 L382,-918 L482,-802 L362,-906 L290,-610 Z" stroke-width="0" fill="#a79486" fill-opacity="0.34509803921568627" />
<path d="M166,-278 L306,-694 L254,-1046 L610,-578 L102,-90 L234,-286 Z" stroke-width="0" fill="#aaa5ae" fill-opacity="0.4470588235294118" />
<path d="M178,-642 L274,-718 L162,-158 L158,-162 L374,-90 L478,-310 Z" stroke-width="0" fill="#c8c922" fill-opacity="0.1843137254901961" />
<path d="M334,-978 L198,-1074 L314,-638 L330,-178 L326,-154 L458,-194 Z" stroke-width="0" fill="#d3ca83" fill-opacity="0.592156862745098" />
<path d="M678,-378 L558,-690 L362,-166 L514,-470 L530,-1090 L290,-834 Z" stroke-width="0" fill="#7adff9" fill-opacity="0.0784313725490196" />
<path d="M530,-906 L646,-1134 L226,-214 L154,-282 L266,-1014 L278,-1158 Z" stroke-width="0" fill="#b095ad" fill-opacity="0.792156862745098" />
<path d="M162,-554 L254,-90 L94,-222 L450,-1166 L410,-86 L430,-398 Z" stroke-width="0" fill="#829e55" fill-opacity="0.1411764705882353" />
<path d="M278,-266 L722,-446 L262,-942 L194,-458 L510,-574 L378,-338 Z" stroke-width="0" fill="#9ae04c" fill-opacity="0.17647058823529413" />
<path d="M390,-482 L410,-1102 L246,-494 L390,-518 L194,-778 L402,-474 Z" stroke-width="0" fill="#b26f49" fill-opacity="0.396078431372549" />
<path d="M478,-978 L134,-914 L550,-570 L578,-1142 L534,-902 L450,-742 Z" stroke-width="0" fill="#44e9e5" fill-opacity="0.07058823529411765" />
<path d="M746,-594 L238,-882 L138,-1174 L86,-430 L178,-706 L658,-990 Z" stroke-width="0" fill="#81a256" fill-opacity="0.44313725490196076" />
<path d="M630,-234 L486,-1126 L366,-170 L562,-334 L342,-298 L442,-126 Z" stroke-width="0" fill="#a259a1" fill-opacity="0.14901960784313725" />
<path d="M714,-898 L558,-466 L314,-814 L606,-726 L190,-570 L486,-890 Z" stroke-width="0" fill="#acb5e7" fill-opacity="0.3686274509803922" />
<path d="M334,-1238 L198,-626 L454,-606 L242,-802 L374,-482 L422,-114 Z" stroke-width="0" fill="#9bc676" fill-opacity="0.11372549019607843" />
<path d="M602,-1130 L810,-450 L422,-466 L514,-1010 L222,-1086 L538,-354 Z" stroke-width="0" fill="#b88c89" fill-opacity="0.6901960784313725" />
<path d="M666,-1262 L446,-322 L470,-854 L450,-654 L438,-494 L298,-1234 Z" stroke-width="0" fill="#bfeb92" fill-opacity="0.0" />
<path d="M298,-642 L642,-1286 L598,-1174 L806,-90 L258,-1250 L434,-582 Z" stroke-width="0" fill="#9fdda6" fill-opacity="0.2627450980392157" />
<path d="M274,-362 L346,-422 L238,-202 L274,-874 L558,-190 L574,-118 Z" stroke-width="0" fill="#99c6a1" fill-opacity="0.24313725490196078" />
<path d="M198,-1242 L654,-630 L706,-1122 L206,-574 L458,-1246 L538,-850 Z" stroke-width="0" fill="#a0919b" fill-opacity="0.7372549019607844" />
<path d="M218,-894 L654,-1114 L662,-1022 L766,-198 L326,-758 L450,-1202 Z" stroke-width="0" fill="#f5cc64" fill-opacity="0.10196078431372549" />
<path d="M134,-1134 L366,-542 L122,-1182 L258,-270 L186,-106 L250,-1046 Z" stroke-width="0" fill="#ecd990" fill-opacity="0.09803921568627451" />
<path d="M174,-170 L310,-338 L198,-386 L146,-430 L550,-562 L114,-542 Z" stroke-width="0" fill="#9a8264" fill-opacity="0.17254901960784313" />
<path d="M378,-410 L402,-1114 L254,-442 L294,-390 L450,-682 L98,-182 Z" stroke-width="0" fill="#6c5677" fill-opacity="0.47843137254901963" />
<path d="M586,-1198 L174,-526 L682,-494 L430,-478 L414,-334 L194,-546 Z" stroke-width="0" fill="#9dc584" fill-opacity="0.5490196078431373" />
<path d="M314,-1014 L810,-682 L462,-602 L762,-722 L794,-1150 L318,-474 Z" stroke-width="0" fill="#c8b5b3" fill-opacity="0.5019607843137255" />
<path d="M726,-826 L402,-1278 L386,-214 L266,-1042 L426,-930 L642,-766 Z" stroke-width="0" fill="#c3aba1" fill-opacity="0.16470588235294117" />
<path d="M146,-962 L686,-162 L706,-118 L454,-906 L802,-282 L698,-698 Z" stroke-width="0" fill="#beb884" fill-opacity="0.396078431372549" />
<path d="M634,-406 L130,-458 L534,-330 L706,-338 L770,-110 L130,-874 Z" stroke-width="0" fill="#d0f3b7" fill-opacity="0.054901960784313725" />
<path d="M390,-146 L662,-374 L574,-854 L454,-930 L246,-574 L234,-722 Z" stroke-width="0" fill="#92af72" fill-opacity="0.3843137254901961" />
<path d="M398,-794 L306,-550 L202,-302 L542,-138 L242,-750 L458,-830 Z" stroke-width="0" fill="#f6bfa7" fill-opacity="0.3333333333333333" />
<path d="M618,-506 L802,-306 L594,-1314 L154,-998 L122,-970 L530,-82 Z" stroke-width="0" fill="#a8a6ae" fill-opacity="0.5019607843137255" />
<path d="M482,-1134 L194,-882 L454,-258 L478,-182 L514,-658 L362,-1106 Z" stroke-width="0" fill="#c5a086" fill-opacity="0.06666666666666667" />
<path d="M150,-802 L154,-818 L806,-874 L86,-610 L558,-394 L202,-362 Z" stroke-width="0" fill="#bcbfaf" fill-opacity="0.21176470588235294" />
<path d="M338,-82 L350,-710 L322,-470 L462,-506 L406,-950 L182,-1222 Z" stroke-width="0" fill="#b3d3bf" fill-opacity="0.17647058823529413" />
<path d="M150,-946 L510,-862 L458,-802 L654,-1130 L258,-618 L802,-322 Z" stroke-width="0" fill="#837684" fill-opacity="0.23529411764705882" />
<path d="M234,-586 L718,-466 L510,-806 L130,-986 L266,-234 L282,-210 Z" stroke-width="0" fill="#8b7f5f" fill-opacity="0.3803921568627451" />
<text x="448.0" y="0" font-size="70.0" fill="black" text-anchor="middle" transform="translate(0,17.5)">KING OF AIR</text>
</svg>