<?xml version="1.0" encoding="UTF-8"?>
<svg xmlns="http://www.w3.org/2000/svg" xmlns:xlink="http://www.w3.org/1999/xlink"
     width="896" height="1496" viewBox="0 -1400 896 1496" style="font-size:70;font-family:Poor Richard, Times New Roman;stroke:black;stroke-width:1;fill:none">
<defs>
</defs>
<path d="M302,-378 L218,-946 L406,-510 L966,-414 L158,-274 L754,-854 Z" stroke-width="0" fill="#989cec" fill-opacity="0.17254901960784313" />
<path d="M698,-130 L670,-270 L138,-966 L226,-490 L386,-506 L230,-1086 Z" stroke-width="0" fill="#a59ae2" fill-opacity="0.30196078431372547" />
<path d="M326,-210 L478,-158 L830,-774 L566,-382 L514,-882 L234,-262 Z" stroke-width="0" fill="#dee0df" fill-opacity="0.15294117647058825" />
<path d="M154,-802 L602,-574 L142,-250 L242,-1118 L838,-1010 L122,-802 Z" stroke-width="0" fill="#f2ebeb" fill-opacity="0.01568627450980392" />
<path d="M186,-1106 L926,-586 L802,-1218 L754,-990 L430,-1254 L662,-1126 Z" stroke-width="0" fill="#088e7d" fill-opacity="0.1411764705882353" />
<path d="M578,-702 L390,-142 L766,-1054 L646,-666 L474,-670 L926,-430 Z" stroke-width="0" fill="#c8f1a6" fill-opacity="0.054901960784313725" />
<path d="M670,-514 L638,-162 L118,-834 L126,-506 L174,-1002 L870,-1042 Z" stroke-width="0" fill="#0f317a" fill-opacity="0.1803921568627451" />
<path d="M130,-386 L370,-1110 L234,-406 L746,-514 L898,-1186 L150,-474 Z" stroke-width="0" fill="#e8b3d2" fill-opacity="0.03529411764705882" />
<path d="M486,-1106 L478,-1082 L102,-1018 L850,-534 L562,-1046 L658,-982 Z" stroke-width="0" fill="#c6f4e9" fill-opacity="0.09019607843137255" />
<path d="M858,-422 L490,-858 L498,-874 L890,-730 L810,-170 L882,-318 Z" stroke-width="0" fill="#710807" fill-opacity="0.11764705882352941" />
<path d="M182,-558 L350,-138 L786,-326 L410,-354 L106,-98 L386,-1258 Z" stroke-width="0" fill="#020000" fill-opacity="0.7843137254901961" />
<path d="M406,-682 L174,-462 L958,-434 L926,-282 L902,-706 L530,-710 Z" stroke-width="0" fill="#8b9381" fill-opacity="0.9686274509803922" />
<path d="M574,-978 L722,-1174 L490,-490 L678,-630 L786,-194 L742,-1262 Z" stroke-width="0" fill="#87a9ad" fill-opacity="0.32941176470588235" />
<path d="M514,-738 L586,-1218 L898,-1122 L106,-398 L290,-670 L854,-98 Z" stroke-width="0" fill="#bb7cc6" fill-opacity="0.1803921568627451" />
<path d="M574,-714 L898,-550 L250,-950 L470,-698 L378,-858 L930,-330 Z" stroke-width="0" fill="#ffbab7" fill-opacity="0.9607843137254902" />
<path d="M330,-302 L670,-1274 L234,-606 L662,-98 L130,-1062 L214,-714 Z" stroke-width="0" fill="#898596" fill-opacity="0.403921568627451" />
<path d="M762,-914 L410,-594 L150,-518 L802,-1090 L682,-262 L742,-446 Z" stroke-width="0" fill="#366017" fill-opacity="0.0" />
<path d="M630,-910 L914,-262 L266,-662 L458,-1010 L586,-834 L222,-170 Z" stroke-width="0" fill="#eb410a" fill-opacity="0.6196078431372549" />
<path d="M762,-626 L418,-1178 L102,-450 L210,-430 L978,-982 L722,-790 Z" stroke-width="0" fill="#93a46a" fill-opacity="0.38823529411764707" />
<path d="M934,-1202 L658,-626 L774,-210 L470,-966 L362,-170 L122,-146 Z" stroke-width="0" fill="#011d00" fill-opacity="0.27450980392156865" />
<path d="M706,-574 L514,-430 L258,-402 L450,-230 L254,-150 L650,-1086 Z" stroke-width="0" fill="#d1e1f3" fill-opacity="0.9647058823529412" />
<path d="M422,-138 L114,-350 L934,-1122 L174,-402 L854,-398 L694,-978 Z" stroke-width="0" fill="#b99a89" fill-opacity="0.7294117647058823" />
<path d="M90,-298 L238,-914 L306,-94 L326,-346 L474,-130 L650,-994 Z" stroke-width="0" fill="#390002" fill-opacity="0.7647058823529411" />
<path d="M94,-634 L710,-610 L122,-666 L330,-386 L866,-1162 L710,-838 Z" stroke-width="0" fill="#681e5a" fill-opacity="0.2" />
<path d="M150,-702 L334,-510 L102,-206 L102,-1190 L522,-538 L426,-90 Z" stroke-width="0" fill="#183f2e" fill-opacity="0.5019607843137255" />
<path d="M934,-346 L634,-322 L234,-734 L366,-1070 L946,-922 L478,-862 Z" stroke-width="0" fill="#f1e7e4" fill-opacity="0.996078431372549" />
<path d="M434,-442 L230,-278 L622,-826 L262,-546 L430,-918 L666,-1050 Z" stroke-width="0" fill="#ab0949" fill-opacity="0.9568627450980393" />
<path d="M958,-250 L170,-526 L146,-1138 L302,-1046 L190,-422 L766,-1242 Z" stroke-width="0" fill="#d1cbb5" fill-opacity="0.5568627450980392" />
<path d="M130,-270 L330,-998 L186,-1182 L282,-1206 L110,-1254 L874,-822 Z" stroke-width="0" fill="#061d26" fill-opacity="0.0784313725490196" />
<path d="M210,-554 L510,-462 L450,-146 L226,-1182 L110,-154 L686,-498 Z" stroke-width="0" fill="#360000" fill-opacity="0.22745098039215686" />
<path d="M766,-926 L122,-130 L566,-310 L446,-638 L970,-422 L198,-258 Z" stroke-width="0" fill="#f18d38" fill-opacity="0.047058823529411764" />
<path d="M186,-754 L366,-882 L94,-654 L702,-162 L866,-566 L782,-982 Z" stroke-width="0" fill="#1b4913" fill-opacity="0.12156862745098039" />
<path d="M242,-238 L842,-1046 L562,-1026 L666,-782 L174,-442 L818,-290 Z" stroke-width="0" fill="#b8e38c" fill-opacity="0.6980392156862745" />
<path d="M966,-658 L186,-234 L318,-422 L266,-1098 L774,-1218 L914,-170 Z" stroke-width="0" fill="#9b9c54" fill-opacity="0.43137254901960786" />
<path d="M454,-898 L602,-174 L474,-370 L838,-130 L194,-342 L554,-274 Z" stroke-width="0" fill="#011f12" fill-opacity="0.9294117647058824" />
<path d="M170,-658 L594,-282 L974,-494 L290,-694 L510,-478 L954,-1194 Z" stroke-width="0" fill="#d693c8" fill-opacity="0.19215686274509805" />
<path d="M170,-214 L302,-290 L354,-674 L762,-490 L558,-794 L578,-1214 Z" stroke-width="0" fill="#e793dd" fill-opacity="0.0" />
<path d="M790,-338 L270,-702 L154,-250 L362,-370 L822,-202 L614,-502 Z" stroke-width="0" fill="#2d1e11" fill-opacity="0.6352941176470588" />
<path d="M378,-82 L722,-718 L86,-790 L782,-658 L178,-410 L354,-1170 Z" stroke-width="0" fill="#e7ba7c" fill-opacity="0.996078431372549" />
<path d="M130,-1038 L454,-958 L166,-498 L474,-442 L810,-350 L82,-1150 Z" stroke-width="0" fill="#d6e59b" fill-opacity="0.5568627450980392" />
<path d="M370,-374 L690,-730 L862,-298 L214,-286 L234,-1034 L250,-662 Z" stroke-width="0" fill="#f2ecbf" fill-opacity="0.5294117647058824" />
<path d="M602,-734 L194,-690 L858,-1010 L270,-782 L154,-886 L450,-330 Z" stroke-width="0" fill="#f5e191" fill-opacity="0.03137254901960784" />
<path d="M198,-1206 L954,-474 L222,-778 L726,-454 L262,-238 L842,-638 Z" stroke-width="0" fill="#4b82c5" fill-opacity="0.13333333333333333" />
<path d="M318,-242 L966,-558 L382,-1006 L630,-618 L498,-1146 L866,-458 Z" stroke-width="0" fill="#051bf3" fill-opacity="0.03137254901960784" />
<path d="M882,-666 L346,-362 L866,-818 L150,-878 L458,-122 L530,-962 Z" stroke-width="0" fill="#dcd9ca" fill-opacity="0.8705882352941177" />
<path d="M158,-542 L738,-146 L130,-594 L650,-250 L758,-318 L898,-902 Z" stroke-width="0" fill="#1266f5" fill-opacity="0.8627450980392157" />
<path d="M270,-830 L394,-586 L198,-326 L690,-98 L762,-530 L858,-270 Z" stroke-width="0" fill="#000000" fill-opacity="0.615686274509804" />
<path d="M502,-322 L98,-774 L646,-90 L234,-530 L90,-242 L778,-630 Z" stroke-width="0" fill="#3e1102" fill-opacity="0.7372549019607844" />
<path d="M838,-270 L590,-246 L150,-958 L538,-1226 L494,-1018 L406,-182 Z" stroke-width="0" fill="#1977a8" fill-opacity="0.14901960784313725" />
<path d="M246,-530 L486,-1062 L742,-818 L546,-162 L642,-870 L530,-914 Z" stroke-width="0" fill="#8dcaf5" fill-opacity="0.054901960784313725" />
<path d="M438,-610 L542,-778 L306,-478 L858,-1274 L778,-194 L578,-1238 Z" stroke-width="0" fill="#aef0e2" fill-opacity="0.5686274509803921" />
<path d="M182,-610 L806,-298 L514,-266 L118,-990 L398,-806 L794,-142 Z" stroke-width="0" fill="#efb0ed" fill-opacity="0.1411764705882353" />
<path d="M118,-602 L118,-562 L774,-1078 L482,-290 L802,-1002 L722,-466 Z" stroke-width="0" fill="#2f381b" fill-opacity="0.6901960784313725" />
<path d="M362,-630 L330,-486 L214,-918 L218,-366 L518,-246 L566,-474 Z" stroke-width="0" fill="#a28368" fill-opacity="0.5686274509803921" />
<path d="M202,-1098 L878,-418 L238,-1118 L198,-258 L86,-1042 L634,-1186 Z" stroke-width="0" fill="#d4e3fa" fill-opacity="0.19215686274509805" />
<path d="M922,-1042 L202,-670 L270,-386 L782,-198 L370,-866 L454,-250 Z" stroke-width="0" fill="#102c08" fill-opacity="0.34901960784313724" />
<path d="M90,-818 L726,-686 L274,-230 L866,-358 L702,-566 L918,-414 Z" stroke-width="0" fill="#fffefb" fill-opacity="0.8588235294117647" />
<path d="M786,-570 L278,-1158 L942,-758 L306,-98 L618,-1246 L526,-1186 Z" stroke-width="0" fill="#6ea0a3" fill-opacity="0.5019607843137255" />
<path d="M658,-238 L646,-266 L962,-1146 L502,-642 L154,-706 L274,-1070 Z" stroke-width="0" fill="#2386a1" fill-opacity="0.4196078431372549" />
<path d="M462,-222 L802,-146 L274,-742 L198,-122 L626,-330 L910,-174 Z" stroke-width="0" fill="#280106" fill-opacity="0.8352941176470589" />
<path d="M230,-410 L630,-198 L858,-154 L614,-226 L610,-234 L110,-354 Z" stroke-width="0" fill="#1d3f0f" fill-opacity="0.25882352941176473" />
<path d="M282,-702 L590,-1190 L142,-802 L618,-846 L586,-730 L406,-1162 Z" stroke-width="0" fill="#fdedfb" fill-opacity="0.7647058823529411" />
<path d="M374,-182 L130,-502 L198,-330 L350,-1118 L714,-698 L246,-854 Z" stroke-width="0" fill="#fffcdc" fill-opacity="0.011764705882352941" />
<path d="M910,-1174 L562,-1090 L270,-710 L634,-658 L302,-926 L638,-822 Z" stroke-width="0" fill="#e6ffcc" fill-opacity="0.5843137254901961" />
<path d="M582,-314 L106,-746 L730,-858 L166,-646 L758,-1114 L634,-286 Z" stroke-width="0" fill="#724a52" fill-opacity="0.6549019607843137" />
<path d="M626,-682 L866,-826 L806,-602 L562,-542 L318,-1198 L698,-306 Z" stroke-width="0" fill="#017ccd" fill-opacity="0.22745098039215686" />
<path d="M454,-410 L262,-174 L358,-906 L874,-166 L718,-130 L550,-266 Z" stroke-width="0" fill="#2a1300" fill-opacity="0.7607843137254902" />
<path d="M670,-666 L346,-286 L190,-854 L754,-1130 L602,-1054 L150,-162 Z" stroke-width="0" fill="#48447e" fill-opacity="0.03529411764705882" />
<path d="M510,-858 L802,-866 L806,-398 L770,-478 L890,-234 L430,-198 Z" stroke-width="0" fill="#000917" fill-opacity="0.07450980392156863" />
<path d="M646,-318 L222,-1006 L130,-1110 L534,-1210 L162,-118 L750,-354 Z" stroke-width="0" fill="#98c2ab" fill-opacity="0.27450980392156865" />
<path d="M786,-874 L434,-1078 L630,-430 L642,-266 L838,-82 L790,-350 Z" stroke-width="0" fill="#040b00" fill-opacity="0.6745098039215687" />
<path d="M278,-282 L770,-1266 L610,-90 L134,-158 L962,-1074 L846,-874 Z" stroke-width="0" fill="#330000" fill-opacity="0.3568627450980392" />
<path d="M350,-742 L318,-962 L262,-350 L114,-450 L610,-962 L274,-410 Z" stroke-width="0" fill="#b7451c" fill-opacity="0.34509803921568627" />
<path d="M798,-170 L294,-526 L718,-934 L758,-538 L242,-338 L818,-898 Z" stroke-width="0" fill="#015f7d" fill-opacity="0.0196078431372549" />
<path d="M150,-814 L718,-406 L130,-570 L682,-354 L766,-134 L626,-838 Z" stroke-width="0" fill="#210006" fill-opacity="0.20784313725490197" />
<path d="M282,-1074 L130,-418 L922,-822 L770,-254 L842,-290 L722,-638 Z" stroke-width="0" fill="#0d1d02" fill-opacity="0.47058823529411764" />
<path d="M918,-430 L306,-354 L894,-958 L218,-1018 L214,-474 L306,-1206 Z" stroke-width="0" fill="#acb892" fill-opacity="0.26666666666666666" />
<path d="M718,-454 L702,-250 L414,-690 L670,-934 L970,-1074 L862,-106 Z" stroke-width="0" fill="#00492c" fill-opacity="0.47058823529411764" />
<path d="M186,-334 L410,-766 L318,-246 L110,-806 L578,-234 L614,-1246 Z" stroke-width="0" fill="#110402" fill-opacity="0.06274509803921569" />
<path d="M610,-282 L450,-606 L606,-786 L634,-334 L422,-782 L502,-326 Z" stroke-width="0" fill="#000027" fill-opacity="0.9882352941176471" />
<path d="M446,-818 L246,-690 L274,-418 L598,-522 L198,-778 L234,-354 Z" stroke-width="0" fill="#000008" fill-opacity="0.5450980392156862" />
<path d="M118,-450 L558,-118 L298,-522 L514,-798 L874,-638 L178,-566 Z" stroke-width="0" fill="#010000" fill-opacity="0.5450980392156862" />
<path d="M670,-594 L418,-202 L298,-570 L926,-846 L782,-786 L370,-146 Z" stroke-width="0" fill="#001570" fill-opacity="0.30196078431372547" />
<path d="M850,-494 L550,-498 L178,-918 L498,-1078 L346,-214 L946,-798 Z" stroke-width="0" fill="#00664b" fill-opacity="0.2784313725490196" />
<path d="M702,-814 L278,-1154 L642,-538 L558,-990 L822,-1106 L662,-578 Z" stroke-width="0" fill="#f6cbfe" fill-opacity="0.41568627450980394" />
<path d="M722,-450 L958,-1014 L122,-1030 L934,-1202 L510,-214 L810,-150 Z" stroke-width="0" fill="#8d7d8b" fill-opacity="0.19607843137254902" />
<path d="M398,-1246 L166,-558 L502,-290 L218,-1214 L306,-994 L170,-770 Z" stroke-width="0" fill="#02535a" fill-opacity="0.027450980392156862" />
<path d="M202,-274 L266,-1054 L798,-986 L210,-526 L566,-542 L950,-214 Z" stroke-width="0" fill="#001003" fill-opacity="0.38823529411764707" />
<path d="M114,-602 L190,-1126 L278,-774 L302,-766 L974,-986 L714,-1222 Z" stroke-width="0" fill="#ebe4f3" fill-opacity="0.5411764705882353" />
<path d="M366,-846 L566,-1182 L306,-458 L550,-602 L350,-946 L322,-106 Z" stroke-width="0" fill="#601b60" fill-opacity="0.09411764705882353" />
<path d="M438,-402 L350,-1094 L426,-546 L190,-890 L770,-1118 L170,-766 Z" stroke-width="0" fill="#264d69" fill-opacity="0.047058823529411764" />
<path d="M126,-886 L874,-534 L278,-730 L110,-726 L322,-934 L654,-302 Z" stroke-width="0" fill="#010541" fill-opacity="0.058823529411764705" />
<path d="M294,-950 L962,-1198 L518,-222 L586,-130 L202,-1042 L970,-1274 Z" stroke-width="0" fill="#bce6eb" fill-opacity="0.6980392156862745" />
<path d="M214,-1038 L354,-670 L726,-998 L882,-270 L466,-266 L278,-1242 Z" stroke-width="0" fill="#001e41" fill-opacity="0.25098039215686274" />
<path d="M630,-986 L574,-1274 L386,-1030 L654,-882 L230,-682 L430,-990 Z" stroke-width="0" fill="#fe95c5" fill-opacity="0.1568627450980392" />
<path d="M410,-962 L778,-1102 L774,-158 L414,-1182 L650,-478 L954,-1254 Z" stroke-width="0" fill="#ccd073" fill-opacity="0.08627450980392157" />
<path d="M326,-790 L582,-758 L106,-874 L246,-302 L122,-522 L454,-190 Z" stroke-width="0" fill="#000384" fill-opacity="0.058823529411764705" />
<path d="M322,-338 L174,-286 L426,-110 L106,-330 L958,-286 L870,-1270 Z" stroke-width="0" fill="#020b50" fill-opacity="0.11372549019607843" />
<path d="M306,-1006 L266,-102 L586,-98 L570,-250 L602,-522 L662,-898 Z" stroke-width="0" fill="#020000" fill-opacity="0.6313725490196078" />
<path d="M626,-1178 L94,-454 L394,-834 L794,-662 L650,-1130 L126,-278 Z" stroke-width="0" fill="#09095e" fill-opacity="0.11764705882352941" />
<text x="448.0" y="0" font-size="70.0" fill="black" text-anchor="middle" transform="translate(0,17.5)">2 OF AIR</text>
</svg>