<?xml version="1.0" encoding="UTF-8"?>
<svg xmlns="http://www.w3.org/2000/svg" xmlns:xlink="http://www.w3.org/1999/xlink"
     width="275" height="375" viewBox="0 -350 275 375">
<defs>
</defs>
<rect x="15" y="-335" width="245" height="320" stroke="black" stroke-width="4" fill="white" />
<path d="M113,-310 L168,-165 L83,-238 L52,-270 L114,-69 L179,-163 Z" stroke-width="0" fill="#fafaf7" fill-opacity="0.23921568627450981" />
<path d="M70,-263 L105,-190 L47,-62 L181,-188 L164,-307 L200,-83 Z" stroke-width="0" fill="#edf4ff" fill-opacity="0.027450980392156862" />
<path d="M31,-114 L57,-105 L43,-245 L119,-80 L39,-73 L136,-48 Z" stroke-width="0" fill="#ebd4dd" fill-opacity="0.13333333333333333" />
<path d="M235,-284 L222,-208 L92,-97 L65,-39 L211,-116 L104,-244 Z" stroke-width="0" fill="#d680e3" fill-opacity="0.011764705882352941" />
<path d="M161,-224 L189,-116 L169,-193 L119,-218 L77,-183 L38,-268 Z" stroke-width="0" fill="#fdeadd" fill-opacity="0.09411764705882353" />
<path d="M66,-153 L88,-213 L153,-308 L128,-309 L180,-238 L74,-40 Z" stroke-width="0" fill="#f7efff" fill-opacity="0.18823529411764706" />
<path d="M183,-165 L204,-257 L58,-189 L236,-104 L67,-25 L171,-107 Z" stroke-width="0" fill="#eeed9f" fill-opacity="0.1607843137254902" />
<path d="M51,-71 L89,-133 L218,-109 L88,-264 L40,-215 L125,-165 Z" stroke-width="0" fill="#daddb2" fill-opacity="0.00784313725490196" />
<path d="M178,-268 L63,-293 L136,-253 L82,-225 L193,-141 L117,-204 Z" stroke-width="0" fill="#faf2d1" fill-opacity="0.13333333333333333" />
<path d="M91,-216 L72,-189 L35,-159 L237,-155 L157,-131 L165,-272 Z" stroke-width="0" fill="#ffeeff" fill-opacity="0.01568627450980392" />
<path d="M220,-36 L120,-261 L133,-117 L188,-245 L109,-268 L27,-51 Z" stroke-width="0" fill="#bbc2ae" fill-opacity="0.0784313725490196" />
<path d="M181,-127 L58,-162 L178,-302 L152,-152 L207,-135 L104,-55 Z" stroke-width="0" fill="#fde7ea" fill-opacity="0.1450980392156863" />
<path d="M100,-281 L63,-102 L163,-263 L214,-304 L156,-207 L58,-236 Z" stroke-width="0" fill="#f7eaec" fill-opacity="0.10588235294117647" />
<path d="M106,-86 L105,-99 L81,-81 L94,-103 L235,-101 L208,-127 Z" stroke-width="0" fill="#f0f6eb" fill-opacity="0.09803921568627451" />
<path d="M93,-227 L196,-119 L219,-75 L36,-200 L167,-139 L143,-242 Z" stroke-width="0" fill="#e9f5fb" fill-opacity="0.22745098039215686" />
<path d="M86,-105 L138,-141 L68,-86 L146,-72 L185,-206 L120,-83 Z" stroke-width="0" fill="#f6fdf6" fill-opacity="0.34901960784313724" />
<path d="M84,-42 L79,-127 L151,-148 L174,-53 L37,-154 L133,-28 Z" stroke-width="0" fill="#dcedd5" fill-opacity="0.09803921568627451" />
<path d="M214,-132 L189,-133 L192,-204 L217,-112 L145,-237 L61,-103 Z" stroke-width="0" fill="#0c1d3d" fill-opacity="0.9647058823529412" />
<path d="M65,-101 L25,-187 L196,-118 L99,-108 L133,-296 L94,-196 Z" stroke-width="0" fill="#f8daf8" fill-opacity="0.10588235294117647" />
<path d="M210,-150 L211,-255 L131,-307 L232,-167 L28,-266 L182,-43 Z" stroke-width="0" fill="#f6fbc6" fill-opacity="0.10980392156862745" />
<path d="M189,-44 L88,-73 L189,-76 L141,-313 L238,-176 L60,-129 Z" stroke-width="0" fill="#cfe5fa" fill-opacity="0.12549019607843137" />
<path d="M172,-61 L215,-196 L200,-209 L62,-314 L209,-244 L29,-40 Z" stroke-width="0" fill="#dff0d9" fill-opacity="0.050980392156862744" />
<path d="M27,-76 L176,-277 L151,-195 L219,-100 L208,-263 L46,-320 Z" stroke-width="0" fill="#efd5ef" fill-opacity="0.11764705882352941" />
<path d="M90,-200 L137,-157 L91,-190 L47,-32 L235,-125 L154,-145 Z" stroke-width="0" fill="#02b3e6" fill-opacity="0.047058823529411764" />
<path d="M40,-116 L39,-79 L203,-203 L124,-55 L126,-49 L117,-46 Z" stroke-width="0" fill="#ba7c8c" fill-opacity="0.00392156862745098" />
<path d="M25,-45 L123,-68 L27,-27 L28,-217 L163,-109 L149,-311 Z" stroke-width="0" fill="#cfe8ff" fill-opacity="0.043137254901960784" />
<path d="M177,-83 L179,-140 L96,-285 L158,-53 L200,-52 L59,-270 Z" stroke-width="0" fill="#e4c3ff" fill-opacity="0.10980392156862745" />
<path d="M241,-156 L207,-217 L165,-275 L247,-125 L61,-209 L40,-266 Z" stroke-width="0" fill="#000c6e" fill-opacity="0.5607843137254902" />
<path d="M91,-207 L74,-221 L188,-109 L107,-184 L54,-103 L41,-114 Z" stroke-width="0" fill="#faebe5" fill-opacity="0.03529411764705882" />
<path d="M206,-198 L107,-75 L151,-85 L145,-85 L215,-289 L53,-122 Z" stroke-width="0" fill="#fffbfc" fill-opacity="0.8745098039215686" />
<path d="M184,-148 L65,-39 L36,-72 L198,-40 L232,-96 L146,-64 Z" stroke-width="0" fill="#fef7f3" fill-opacity="0.8823529411764706" />
<path d="M154,-193 L32,-85 L43,-139 L211,-44 L211,-264 L170,-161 Z" stroke-width="0" fill="#e9fbeb" fill-opacity="0.14901960784313725" />
<path d="M67,-217 L204,-93 L160,-286 L177,-167 L144,-307 L100,-170 Z" stroke-width="0" fill="#eae0fa" fill-opacity="0.10980392156862745" />
<path d="M197,-31 L180,-286 L35,-77 L215,-146 L207,-254 L107,-73 Z" stroke-width="0" fill="#fffae6" fill-opacity="0.027450980392156862" />
<path d="M122,-117 L103,-268 L160,-152 L227,-49 L206,-252 L80,-92 Z" stroke-width="0" fill="#fad6ef" fill-opacity="0.16862745098039217" />
<path d="M113,-91 L89,-293 L45,-231 L27,-190 L234,-310 L228,-321 Z" stroke-width="0" fill="#f5f4b8" fill-opacity="0.2901960784313726" />
<path d="M54,-73 L130,-52 L118,-54 L34,-195 L190,-185 L195,-110 Z" stroke-width="0" fill="#daf8f6" fill-opacity="0.0784313725490196" />
<path d="M104,-29 L186,-279 L63,-318 L183,-282 L214,-166 L157,-215 Z" stroke-width="0" fill="#fcecf9" fill-opacity="0.2196078431372549" />
<path d="M30,-37 L178,-255 L51,-256 L160,-301 L103,-156 L31,-278 Z" stroke-width="0" fill="#d3d7d1" fill-opacity="0.07058823529411765" />
<path d="M162,-110 L145,-298 L102,-205 L153,-116 L62,-200 L136,-66 Z" stroke-width="0" fill="#dfc3d1" fill-opacity="0.10588235294117647" />
<path d="M215,-27 L128,-294 L74,-236 L208,-323 L41,-293 L55,-79 Z" stroke-width="0" fill="#e69ded" fill-opacity="0.15294117647058825" />
<path d="M32,-237 L45,-171 L35,-221 L48,-167 L59,-28 L43,-104 Z" stroke-width="0" fill="#efd6b3" fill-opacity="0.12549019607843137" />
<path d="M205,-101 L97,-44 L138,-288 L114,-116 L135,-250 L206,-168 Z" stroke-width="0" fill="#c5ffe9" fill-opacity="0.6901960784313725" />
<path d="M37,-150 L51,-287 L65,-122 L29,-226 L33,-76 L35,-113 Z" stroke-width="0" fill="#fdf8f8" fill-opacity="0.7568627450980392" />
<path d="M135,-282 L112,-66 L142,-63 L34,-58 L57,-229 L176,-266 Z" stroke-width="0" fill="#e0fffa" fill-opacity="0.8549019607843137" />
<path d="M46,-256 L71,-224 L29,-102 L108,-274 L130,-313 L235,-29 Z" stroke-width="0" fill="#e7d2ef" fill-opacity="0.2784313725490196" />
<path d="M144,-106 L59,-118 L208,-148 L59,-61 L182,-192 L123,-321 Z" stroke-width="0" fill="#e5fffd" fill-opacity="0.7647058823529411" />
<path d="M123,-210 L45,-320 L91,-72 L46,-56 L204,-65 L96,-121 Z" stroke-width="0" fill="#feb5cb" fill-opacity="0.09019607843137255" />
<path d="M163,-130 L227,-322 L241,-156 L99,-233 L199,-206 L173,-35 Z" stroke-width="0" fill="#f4e7fe" fill-opacity="0.3764705882352941" />
<path d="M92,-59 L93,-40 L149,-46 L190,-302 L91,-116 L146,-177 Z" stroke-width="0" fill="#e7f8bb" fill-opacity="0.03529411764705882" />
<path d="M142,-40 L228,-281 L77,-69 L125,-208 L105,-277 L33,-204 Z" stroke-width="0" fill="#fad7fb" fill-opacity="0.19607843137254902" />
<path d="M152,-310 L183,-89 L87,-88 L164,-106 L130,-56 L100,-51 Z" stroke-width="0" fill="#eaf8e5" fill-opacity="0.2627450980392157" />
<path d="M59,-274 L211,-149 L242,-250 L90,-161 L136,-277 L97,-134 Z" stroke-width="0" fill="#d7b5fe" fill-opacity="0.06274509803921569" />
<path d="M40,-320 L139,-314 L79,-25 L199,-105 L221,-218 L171,-262 Z" stroke-width="0" fill="#fafeef" fill-opacity="0.9019607843137255" />
<path d="M182,-153 L202,-251 L153,-165 L248,-146 L126,-102 L206,-232 Z" stroke-width="0" fill="#00758e" fill-opacity="0.5019607843137255" />
<path d="M110,-170 L217,-66 L43,-303 L88,-214 L91,-85 L114,-263 Z" stroke-width="0" fill="#eab5d4" fill-opacity="0.07058823529411765" />
<path d="M36,-33 L64,-219 L80,-204 L156,-102 L119,-96 L84,-186 Z" stroke-width="0" fill="#fcead7" fill-opacity="0.41568627450980394" />
<path d="M33,-241 L32,-225 L144,-308 L33,-55 L106,-182 L228,-174 Z" stroke-width="0" fill="#f1d1f0" fill-opacity="0.043137254901960784" />
<path d="M44,-27 L121,-42 L72,-168 L37,-56 L46,-76 L79,-291 Z" stroke-width="0" fill="#fadce2" fill-opacity="0.10980392156862745" />
<path d="M92,-237 L109,-202 L164,-78 L93,-185 L147,-174 L150,-230 Z" stroke-width="0" fill="#f0fe85" fill-opacity="0.043137254901960784" />
<path d="M72,-305 L117,-134 L230,-166 L59,-129 L53,-292 L35,-100 Z" stroke-width="0" fill="#c6f3fa" fill-opacity="0.35294117647058826" />
<path d="M135,-204 L69,-133 L34,-69 L69,-44 L158,-79 L80,-98 Z" stroke-width="0" fill="#dbfcfc" fill-opacity="0.32941176470588235" />
<path d="M141,-81 L174,-255 L222,-136 L246,-234 L87,-273 L233,-209 Z" stroke-width="0" fill="#4ef6eb" fill-opacity="0.11764705882352941" />
<path d="M173,-73 L152,-183 L25,-191 L87,-27 L38,-174 L88,-275 Z" stroke-width="0" fill="#fff0ac" fill-opacity="0.16862745098039217" />
<path d="M195,-212 L225,-215 L150,-195 L81,-130 L205,-207 L55,-282 Z" stroke-width="0" fill="#08ddfe" fill-opacity="0.9607843137254902" />
<path d="M227,-77 L114,-65 L119,-106 L90,-41 L221,-200 L206,-205 Z" stroke-width="0" fill="#bde4c9" fill-opacity="0.12941176470588237" />
<path d="M203,-134 L34,-94 L123,-64 L51,-311 L92,-149 L228,-91 Z" stroke-width="0" fill="#f7e1e2" fill-opacity="0.0392156862745098" />
<path d="M110,-88 L147,-187 L223,-288 L39,-293 L90,-285 L201,-84 Z" stroke-width="0" fill="#c4e6d6" fill-opacity="0.027450980392156862" />
<path d="M122,-55 L214,-97 L247,-315 L64,-249 L31,-51 L153,-120 Z" stroke-width="0" fill="#f4eaf9" fill-opacity="0.5607843137254902" />
<path d="M104,-254 L185,-162 L35,-123 L181,-314 L42,-132 L136,-126 Z" stroke-width="0" fill="#322286" fill-opacity="0.9215686274509803" />
<path d="M132,-220 L109,-219 L101,-285 L164,-304 L154,-305 L117,-212 Z" stroke-width="0" fill="#ec40f2" fill-opacity="0.0" />
<path d="M73,-321 L156,-93 L33,-243 L139,-81 L180,-100 L113,-27 Z" stroke-width="0" fill="#fee8f8" fill-opacity="0.054901960784313725" />
<path d="M150,-108 L48,-128 L101,-199 L120,-26 L47,-90 L144,-41 Z" stroke-width="0" fill="#e7d3d2" fill-opacity="0.027450980392156862" />
<path d="M229,-226 L73,-215 L224,-137 L154,-271 L156,-206 L106,-70 Z" stroke-width="0" fill="#1438ca" fill-opacity="0.26666666666666666" />
<path d="M219,-220 L95,-141 L138,-149 L248,-45 L125,-317 L232,-43 Z" stroke-width="0" fill="#ea73e9" fill-opacity="0.0196078431372549" />
<path d="M173,-213 L211,-175 L132,-172 L73,-269 L99,-261 L212,-174 Z" stroke-width="0" fill="#88f8dd" fill-opacity="0.4117647058823529" />
<path d="M145,-72 L179,-224 L215,-247 L26,-173 L80,-123 L37,-146 Z" stroke-width="0" fill="#cec87d" fill-opacity="0.011764705882352941" />
<path d="M61,-156 L182,-309 L209,-187 L28,-47 L210,-49 L164,-66 Z" stroke-width="0" fill="#eac7bf" fill-opacity="0.10196078431372549" />
<path d="M146,-135 L140,-149 L189,-316 L98,-192 L241,-62 L112,-240 Z" stroke-width="0" fill="#fcbff5" fill-opacity="0.0196078431372549" />
<path d="M85,-320 L67,-202 L121,-121 L102,-323 L158,-85 L137,-88 Z" stroke-width="0" fill="#b7fbf5" fill-opacity="0.20784313725490197" />
<path d="M103,-292 L146,-196 L112,-287 L47,-225 L32,-129 L50,-177 Z" stroke-width="0" fill="#ffa3d3" fill-opacity="0.0196078431372549" />
<path d="M102,-132 L149,-267 L38,-78 L196,-139 L89,-171 L206,-147 Z" stroke-width="0" fill="#e6ecda" fill-opacity="0.20392156862745098" />
<path d="M165,-215 L135,-32 L113,-174 L198,-139 L142,-65 L44,-217 Z" stroke-width="0" fill="#e3a277" fill-opacity="0.28627450980392155" />
<path d="M181,-260 L106,-273 L191,-219 L88,-310 L139,-122 L105,-141 Z" stroke-width="0" fill="#ede7b4" fill-opacity="0.03137254901960784" />
<path d="M157,-26 L93,-310 L88,-42 L127,-94 L217,-192 L185,-213 Z" stroke-width="0" fill="#ead3b8" fill-opacity="0.07058823529411765" />
<path d="M170,-39 L217,-98 L113,-161 L156,-208 L99,-223 L30,-49 Z" stroke-width="0" fill="#d0eee2" fill-opacity="0.058823529411764705" />
<path d="M199,-131 L202,-155 L200,-196 L247,-96 L75,-56 L200,-194 Z" stroke-width="0" fill="#f1cbca" fill-opacity="0.00784313725490196" />
<path d="M70,-188 L175,-197 L59,-103 L132,-222 L135,-73 L45,-260 Z" stroke-width="0" fill="#c7e7f6" fill-opacity="0.5450980392156862" />
<path d="M208,-267 L82,-247 L62,-306 L75,-35 L85,-276 L26,-59 Z" stroke-width="0" fill="#f2f7ff" fill-opacity="0.7686274509803922" />
<path d="M50,-53 L109,-175 L215,-265 L72,-149 L232,-272 L96,-164 Z" stroke-width="0" fill="#d9bde4" fill-opacity="0.1411764705882353" />
<path d="M230,-59 L206,-91 L178,-191 L97,-126 L190,-189 L234,-76 Z" stroke-width="0" fill="#dccfc1" fill-opacity="0.35294117647058826" />
<path d="M208,-183 L188,-318 L36,-295 L239,-255 L57,-314 L43,-234 Z" stroke-width="0" fill="#f7d7d1" fill-opacity="0.011764705882352941" />
<path d="M35,-295 L117,-78 L33,-242 L188,-63 L236,-39 L202,-165 Z" stroke-width="0" fill="#ff8fc9" fill-opacity="0.12156862745098039" />
<path d="M42,-280 L64,-235 L93,-158 L209,-178 L235,-237 L25,-84 Z" stroke-width="0" fill="#eecd7b" fill-opacity="0.00392156862745098" />
<path d="M171,-57 L84,-236 L82,-239 L55,-215 L131,-151 L239,-83 Z" stroke-width="0" fill="#eed0fd" fill-opacity="0.3058823529411765" />
<path d="M46,-97 L96,-221 L206,-176 L115,-284 L179,-242 L177,-65 Z" stroke-width="0" fill="#ebb9e4" fill-opacity="0.10588235294117647" />
<path d="M133,-240 L184,-176 L88,-236 L77,-218 L237,-185 L127,-220 Z" stroke-width="0" fill="#e6c8af" fill-opacity="0.00392156862745098" />
<path d="M55,-271 L94,-193 L59,-31 L171,-38 L75,-245 L32,-240 Z" stroke-width="0" fill="#e7fef0" fill-opacity="0.9529411764705882" />
<path d="M114,-96 L61,-138 L145,-305 L48,-90 L170,-33 L91,-240 Z" stroke-width="0" fill="#dcebe0" fill-opacity="0.11372549019607843" />
<path d="M44,-135 L96,-103 L157,-165 L29,-182 L27,-195 L41,-125 Z" stroke-width="0" fill="#e7bcca" fill-opacity="0.10980392156862745" />
<text x="137.5" y="12.5" font-size="20.0" fill="black" text-anchor="middle" transform="translate(0,5.0)">9 OF AIR</text>
</svg>