<?xml version="1.0" encoding="UTF-8"?>
<svg xmlns="http://www.w3.org/2000/svg" xmlns:xlink="http://www.w3.org/1999/xlink"
     width="896" height="1496" viewBox="0 -1400 896 1496" style="font-size:70;font-family:Poor Richard, Times New Roman;stroke:black;stroke-width:1;fill:none">
<defs>
</defs>
<path d="M578,-1302 L202,-1174 L406,-486 L266,-1226 L606,-634 L470,-490 Z" stroke-width="0" fill="#ebe2e2" fill-opacity="0.13725490196078433" />
<path d="M386,-258 L242,-834 L330,-90 L110,-234 L506,-130 L394,-406 Z" stroke-width="0" fill="#a89800" fill-opacity="0.7019607843137254" />
<path d="M178,-710 L154,-126 L530,-818 L90,-1218 L782,-114 L222,-690 Z" stroke-width="0" fill="#9ca402" fill-opacity="0.8784313725490196" />
<path d="M642,-274 L314,-258 L362,-394 L462,-622 L314,-406 L558,-646 Z" stroke-width="0" fill="#ce8054" fill-opacity="0.5411764705882353" />
<path d="M670,-294 L574,-670 L278,-362 L638,-1186 L802,-982 L278,-714 Z" stroke-width="0" fill="#110205" fill-opacity="0.9411764705882353" />
<path d="M106,-278 L434,-226 L534,-1006 L562,-410 L774,-1122 L722,-906 Z" stroke-width="0" fill="#3a1756" fill-opacity="0.09019607843137255" />
<path d="M502,-338 L678,-1286 L574,-1018 L334,-402 L478,-670 L674,-446 Z" stroke-width="0" fill="#d5cdc7" fill-opacity="0.10980392156862745" />
<path d="M198,-1006 L102,-1230 L734,-1230 L310,-646 L362,-386 L634,-1146 Z" stroke-width="0" fill="#e9dcde" fill-opacity="0.9058823529411765" />
<path d="M470,-686 L534,-562 L494,-830 L602,-138 L270,-842 L426,-110 Z" stroke-width="0" fill="#6e8c00" fill-opacity="0.8784313725490196" />
<path d="M794,-270 L106,-266 L470,-1150 L586,-1234 L174,-358 L618,-1142 Z" stroke-width="0" fill="#724026" fill-opacity="0.803921568627451" />
<path d="M298,-1198 L330,-166 L450,-906 L322,-178 L474,-506 L98,-446 Z" stroke-width="0" fill="#0f0000" fill-opacity="0.8509803921568627" />
<path d="M266,-1202 L718,-726 L642,-742 L470,-710 L338,-942 L322,-550 Z" stroke-width="0" fill="#fbf3fa" fill-opacity="1.0" />
<path d="M434,-450 L214,-350 L498,-518 L794,-506 L90,-1134 L786,-670 Z" stroke-width="0" fill="#202c4f" fill-opacity="0.5568627450980392" />
<path d="M262,-1010 L530,-482 L718,-1230 L210,-962 L658,-390 L438,-434 Z" stroke-width="0" fill="#fee3d1" fill-opacity="0.8627450980392157" />
<path d="M298,-158 L294,-102 L802,-290 L266,-94 L226,-570 L318,-1294 Z" stroke-width="0" fill="#d8a9b5" fill-opacity="0.23137254901960785" />
<path d="M570,-82 L122,-754 L362,-570 L302,-230 L734,-86 L802,-994 Z" stroke-width="0" fill="#9a5c00" fill-opacity="0.8784313725490196" />
<path d="M450,-654 L698,-246 L102,-558 L282,-302 L98,-82 L758,-366 Z" stroke-width="0" fill="#817d00" fill-opacity="0.8509803921568627" />
<path d="M606,-542 L518,-1010 L386,-754 L462,-858 L514,-850 L178,-230 Z" stroke-width="0" fill="#860ff6" fill-opacity="0.6588235294117647" />
<path d="M634,-218 L642,-178 L354,-654 L430,-198 L422,-654 L102,-574 Z" stroke-width="0" fill="#dcc032" fill-opacity="0.8" />
<path d="M238,-582 L106,-730 L810,-750 L534,-294 L514,-182 L466,-122 Z" stroke-width="0" fill="#2c0500" fill-opacity="0.7607843137254902" />
<path d="M266,-370 L102,-586 L170,-478 L402,-526 L798,-330 L358,-594 Z" stroke-width="0" fill="#cc833b" fill-opacity="0.8431372549019608" />
<path d="M646,-258 L718,-1046 L570,-1098 L666,-194 L786,-258 L326,-1146 Z" stroke-width="0" fill="#efd687" fill-opacity="0.803921568627451" />
<path d="M578,-242 L398,-202 L274,-866 L274,-346 L114,-174 L254,-590 Z" stroke-width="0" fill="#728d00" fill-opacity="0.984313725490196" />
<path d="M530,-846 L190,-1150 L446,-338 L154,-666 L602,-882 L166,-94 Z" stroke-width="0" fill="#064031" fill-opacity="0.48627450980392156" />
<path d="M506,-862 L554,-1042 L766,-970 L546,-562 L298,-198 L342,-870 Z" stroke-width="0" fill="#4a21ef" fill-opacity="0.3176470588235294" />
<path d="M218,-1014 L682,-486 L522,-562 L322,-522 L478,-246 L278,-386 Z" stroke-width="0" fill="#0404e0" fill-opacity="0.4745098039215686" />
<path d="M82,-218 L306,-698 L746,-1026 L382,-994 L698,-1186 L794,-430 Z" stroke-width="0" fill="#381b00" fill-opacity="0.796078431372549" />
<path d="M662,-626 L394,-774 L678,-302 L626,-666 L554,-434 L410,-146 Z" stroke-width="0" fill="#07ea72" fill-opacity="0.5607843137254902" />
<path d="M278,-118 L398,-1138 L330,-214 L322,-658 L662,-810 L574,-830 Z" stroke-width="0" fill="#d56443" fill-opacity="0.47058823529411764" />
<path d="M346,-550 L698,-262 L618,-90 L446,-266 L414,-930 L106,-474 Z" stroke-width="0" fill="#b1b70d" fill-opacity="0.9882352941176471" />
<path d="M474,-1090 L466,-398 L598,-382 L146,-562 L446,-1130 L146,-754 Z" stroke-width="0" fill="#edd0ef" fill-opacity="0.8627450980392157" />
<path d="M550,-1010 L566,-86 L714,-698 L454,-294 L718,-238 L246,-662 Z" stroke-width="0" fill="#b3b83b" fill-opacity="0.7529411764705882" />
<path d="M218,-626 L758,-1006 L686,-178 L586,-394 L394,-1074 L762,-402 Z" stroke-width="0" fill="#0d0000" fill-opacity="0.9254901960784314" />
<path d="M574,-626 L206,-330 L482,-558 L342,-946 L474,-1242 L122,-250 Z" stroke-width="0" fill="#c18d6e" fill-opacity="0.5411764705882353" />
<path d="M762,-214 L290,-898 L418,-950 L562,-818 L262,-158 L606,-606 Z" stroke-width="0" fill="#f2fe1f" fill-opacity="0.8862745098039215" />
<path d="M158,-1098 L802,-602 L242,-546 L206,-538 L434,-782 L218,-1222 Z" stroke-width="0" fill="#58fac0" fill-opacity="0.027450980392156862" />
<path d="M138,-1042 L722,-822 L250,-542 L438,-362 L210,-750 L386,-578 Z" stroke-width="0" fill="#f3fbea" fill-opacity="0.8980392156862745" />
<path d="M798,-606 L546,-1130 L102,-414 L726,-426 L670,-770 L354,-386 Z" stroke-width="0" fill="#100000" fill-opacity="0.9098039215686274" />
<path d="M462,-278 L94,-202 L510,-638 L554,-550 L150,-634 L374,-1054 Z" stroke-width="0" fill="#a79e00" fill-opacity="0.996078431372549" />
<path d="M114,-522 L246,-450 L650,-178 L294,-986 L414,-566 L142,-166 Z" stroke-width="0" fill="#373200" fill-opacity="0.5058823529411764" />
<path d="M598,-702 L758,-430 L94,-1250 L734,-850 L426,-130 L522,-710 Z" stroke-width="0" fill="#c7f8f1" fill-opacity="0.06274509803921569" />
<path d="M674,-958 L770,-230 L326,-678 L274,-934 L162,-602 L774,-434 Z" stroke-width="0" fill="#051902" fill-opacity="0.058823529411764705" />
<path d="M582,-846 L434,-682 L526,-562 L694,-850 L354,-378 L206,-1138 Z" stroke-width="0" fill="#bcfffe" fill-opacity="0.9490196078431372" />
<path d="M618,-642 L506,-166 L130,-274 L418,-354 L426,-886 L666,-1134 Z" stroke-width="0" fill="#360c01" fill-opacity="0.25882352941176473" />
<path d="M110,-1310 L306,-522 L290,-286 L470,-526 L90,-994 L158,-90 Z" stroke-width="0" fill="#3f2800" fill-opacity="0.5843137254901961" />
<path d="M134,-258 L682,-1046 L686,-766 L734,-322 L518,-538 L690,-974 Z" stroke-width="0" fill="#fde8b3" fill-opacity="0.1843137254901961" />
<path d="M794,-898 L650,-174 L122,-882 L350,-498 L510,-470 L226,-478 Z" stroke-width="0" fill="#000000" fill-opacity="0.8196078431372549" />
<path d="M282,-170 L138,-490 L730,-782 L670,-530 L134,-330 L218,-998 Z" stroke-width="0" fill="#000400" fill-opacity="0.2549019607843137" />
<path d="M606,-598 L422,-842 L790,-258 L310,-498 L374,-486 L94,-602 Z" stroke-width="0" fill="#f7fd29" fill-opacity="0.7725490196078432" />
<path d="M254,-1270 L162,-630 L278,-310 L586,-1158 L738,-266 L498,-186 Z" stroke-width="0" fill="#a02af9" fill-opacity="0.011764705882352941" />
<path d="M810,-566 L174,-794 L110,-274 L386,-1062 L646,-842 L162,-410 Z" stroke-width="0" fill="#211c00" fill-opacity="0.6941176470588235" />
<path d="M170,-190 L122,-106 L326,-1198 L382,-818 L782,-1014 L334,-458 Z" stroke-width="0" fill="#c09423" fill-opacity="0.15294117647058825" />
<path d="M426,-538 L490,-1258 L478,-1282 L554,-634 L578,-434 L586,-1034 Z" stroke-width="0" fill="#1e7385" fill-opacity="0.00392156862745098" />
<path d="M598,-390 L258,-294 L786,-846 L754,-130 L442,-894 L618,-134 Z" stroke-width="0" fill="#000700" fill-opacity="0.2901960784313726" />
<path d="M126,-226 L506,-454 L130,-1142 L622,-598 L242,-1042 L258,-1202 Z" stroke-width="0" fill="#edf741" fill-opacity="0.6274509803921569" />
<path d="M610,-386 L458,-770 L362,-346 L158,-114 L166,-670 L658,-918 Z" stroke-width="0" fill="#e7b609" fill-opacity="0.35294117647058826" />
<path d="M318,-1014 L178,-446 L550,-1110 L478,-586 L90,-490 L506,-518 Z" stroke-width="0" fill="#110923" fill-opacity="0.9568627450980393" />
<path d="M110,-514 L706,-786 L522,-786 L706,-290 L302,-422 L198,-1258 Z" stroke-width="0" fill="#4e304d" fill-opacity="0.3137254901960784" />
<path d="M206,-846 L198,-742 L274,-1074 L554,-518 L562,-222 L154,-1302 Z" stroke-width="0" fill="#ffc4dc" fill-opacity="0.8705882352941177" />
<path d="M506,-714 L94,-698 L114,-774 L258,-246 L394,-530 L102,-598 Z" stroke-width="0" fill="#723838" fill-opacity="0.5294117647058824" />
<path d="M470,-282 L682,-806 L606,-414 L546,-938 L198,-922 L202,-934 Z" stroke-width="0" fill="#510526" fill-opacity="0.4980392156862745" />
<path d="M606,-590 L530,-286 L110,-142 L482,-378 L90,-702 L306,-558 Z" stroke-width="0" fill="#9c8f00" fill-opacity="0.9411764705882353" />
<path d="M138,-470 L226,-522 L402,-378 L614,-234 L810,-554 L486,-322 Z" stroke-width="0" fill="#000400" fill-opacity="0.9254901960784314" />
<path d="M650,-234 L294,-490 L446,-130 L186,-126 L262,-570 L674,-142 Z" stroke-width="0" fill="#a0b300" fill-opacity="0.9529411764705882" />
<path d="M238,-190 L594,-806 L610,-1082 L426,-194 L486,-514 L422,-1126 Z" stroke-width="0" fill="#190208" fill-opacity="0.6509803921568628" />
<path d="M346,-134 L130,-382 L170,-1238 L786,-798 L662,-250 L422,-1130 Z" stroke-width="0" fill="#484236" fill-opacity="0.13725490196078433" />
<path d="M718,-198 L314,-286 L526,-626 L710,-1106 L462,-430 L782,-246 Z" stroke-width="0" fill="#d1c600" fill-opacity="0.7176470588235294" />
<path d="M798,-558 L438,-554 L314,-1154 L250,-1286 L278,-782 L226,-782 Z" stroke-width="0" fill="#e1d0fe" fill-opacity="0.20784313725490197" />
<path d="M118,-154 L318,-798 L170,-802 L770,-518 L318,-342 L498,-330 Z" stroke-width="0" fill="#075600" fill-opacity="0.1607843137254902" />
<path d="M566,-1094 L694,-402 L286,-334 L706,-190 L786,-726 L734,-198 Z" stroke-width="0" fill="#f6f835" fill-opacity="0.17254901960784313" />
<path d="M462,-1086 L138,-874 L766,-1006 L442,-958 L414,-154 L554,-1294 Z" stroke-width="0" fill="#9c01a6" fill-opacity="0.06274509803921569" />
<path d="M422,-654 L102,-834 L338,-458 L810,-1154 L206,-330 L646,-650 Z" stroke-width="0" fill="#3d3828" fill-opacity="0.6078431372549019" />
<path d="M738,-1090 L142,-1062 L350,-746 L330,-90 L746,-330 L634,-470 Z" stroke-width="0" fill="#dbbb29" fill-opacity="0.5372549019607843" />
<path d="M322,-682 L374,-130 L274,-374 L314,-414 L494,-482 L390,-606 Z" stroke-width="0" fill="#b5aa00" fill-opacity="0.8862745098039215" />
<path d="M474,-1002 L654,-94 L290,-922 L770,-786 L134,-674 L578,-1082 Z" stroke-width="0" fill="#f5c946" fill-opacity="0.12549019607843137" />
<path d="M206,-534 L338,-158 L522,-726 L138,-674 L474,-886 L298,-1206 Z" stroke-width="0" fill="#0f2b26" fill-opacity="0.33725490196078434" />
<path d="M766,-574 L466,-466 L446,-646 L306,-214 L262,-1122 L130,-902 Z" stroke-width="0" fill="#1a2b1a" fill-opacity="0.45098039215686275" />
<path d="M110,-718 L194,-558 L138,-638 L234,-1134 L326,-370 L762,-986 Z" stroke-width="0" fill="#87356b" fill-opacity="0.10196078431372549" />
<path d="M166,-774 L246,-738 L782,-86 L138,-558 L378,-366 L106,-1106 Z" stroke-width="0" fill="#95771f" fill-opacity="0.6588235294117647" />
<path d="M414,-610 L810,-914 L546,-754 L418,-170 L138,-862 L254,-522 Z" stroke-width="0" fill="#9b4e5e" fill-opacity="0.8627450980392157" />
<path d="M242,-1142 L378,-374 L210,-686 L150,-830 L458,-734 L482,-1274 Z" stroke-width="0" fill="#07244c" fill-opacity="0.15294117647058825" />
<path d="M290,-246 L170,-110 L526,-718 L454,-950 L582,-1270 L458,-706 Z" stroke-width="0" fill="#fd8eb4" fill-opacity="0.5333333333333333" />
<path d="M350,-602 L646,-582 L398,-1142 L530,-750 L154,-882 L610,-1098 Z" stroke-width="0" fill="#de74a4" fill-opacity="0.0784313725490196" />
<path d="M706,-334 L206,-242 L322,-998 L430,-1238 L410,-230 L682,-638 Z" stroke-width="0" fill="#110707" fill-opacity="0.14901960784313725" />
<path d="M530,-1274 L558,-858 L206,-654 L146,-1110 L658,-322 L742,-254 Z" stroke-width="0" fill="#756d09" fill-opacity="0.08627450980392157" />
<path d="M234,-662 L706,-1050 L686,-462 L242,-686 L686,-1206 L370,-846 Z" stroke-width="0" fill="#011337" fill-opacity="0.2549019607843137" />
<path d="M114,-214 L674,-502 L190,-490 L314,-186 L770,-214 L210,-222 Z" stroke-width="0" fill="#c9d824" fill-opacity="0.8392156862745098" />
<path d="M274,-330 L314,-234 L710,-478 L526,-814 L246,-450 L654,-894 Z" stroke-width="0" fill="#f1fdff" fill-opacity="0.7647058823529411" />
<path d="M642,-1034 L122,-186 L178,-358 L630,-470 L310,-130 L366,-1074 Z" stroke-width="0" fill="#d4678d" fill-opacity="0.17254901960784313" />
<path d="M326,-734 L378,-778 L546,-354 L318,-490 L494,-386 L614,-218 Z" stroke-width="0" fill="#345632" fill-opacity="0.0" />
<path d="M586,-118 L178,-298 L690,-938 L450,-482 L438,-430 L366,-722 Z" stroke-width="0" fill="#bec71f" fill-opacity="0.45098039215686275" />
<path d="M162,-646 L402,-170 L726,-990 L558,-174 L558,-678 L438,-710 Z" stroke-width="0" fill="#e6f3f2" fill-opacity="0.25882352941176473" />
<path d="M706,-454 L646,-934 L502,-998 L174,-770 L330,-1022 L82,-954 Z" stroke-width="0" fill="#8a0762" fill-opacity="0.10196078431372549" />
<path d="M310,-234 L170,-1090 L450,-1142 L186,-1082 L582,-202 L202,-1246 Z" stroke-width="0" fill="#401466" fill-opacity="0.050980392156862744" />
<path d="M730,-982 L154,-294 L406,-126 L206,-822 L462,-450 L738,-1250 Z" stroke-width="0" fill="#ebeff5" fill-opacity="0.11372549019607843" />
<path d="M414,-1118 L366,-250 L606,-642 L702,-1202 L230,-786 L734,-250 Z" stroke-width="0" fill="#d5d59c" fill-opacity="0.26666666666666666" />
<path d="M370,-1034 L322,-330 L682,-1214 L662,-366 L770,-826 L554,-366 Z" stroke-width="0" fill="#cedae3" fill-opacity="0.11764705882352941" />
<path d="M682,-102 L466,-1234 L470,-218 L146,-622 L526,-94 L798,-794 Z" stroke-width="0" fill="#fbe2d4" fill-opacity="0.17647058823529413" />
<path d="M458,-1270 L398,-750 L598,-702 L746,-742 L558,-1042 L674,-1166 Z" stroke-width="0" fill="#e7fde5" fill-opacity="0.33725490196078434" />
<path d="M774,-434 L138,-330 L322,-1010 L658,-190 L794,-570 L302,-190 Z" stroke-width="0" fill="#edfdb7" fill-opacity="0.03529411764705882" />
<text x="448.0" y="0" font-size="70.0" fill="black" text-anchor="middle" transform="translate(0,17.5)">9 OF AIR</text>
</svg>