<?xml version="1.0" encoding="UTF-8"?>
<svg xmlns="http://www.w3.org/2000/svg" xmlns:xlink="http://www.w3.org/1999/xlink"
     width="275" height="375" viewBox="0 -350 275 375">
<defs>
</defs>
<rect x="15" y="-335" width="245" height="320" stroke="black" stroke-width="4" fill="white" />
<path d="M86,-89 L175,-273 L148,-79 L110,-236 L28,-150 L242,-125 Z" stroke-width="0" fill="#81a436" fill-opacity="0.3411764705882353" />
<path d="M64,-122 L220,-31 L242,-244 L192,-38 L110,-277 L140,-123 Z" stroke-width="0" fill="#030000" fill-opacity="0.28627450980392155" />
<path d="M120,-198 L195,-218 L82,-87 L128,-94 L74,-38 L127,-125 Z" stroke-width="0" fill="#f526e6" fill-opacity="0.023529411764705882" />
<path d="M184,-282 L127,-32 L35,-143 L143,-115 L198,-82 L95,-106 Z" stroke-width="0" fill="#f9c4d7" fill-opacity="0.14901960784313725" />
<path d="M131,-56 L173,-91 L78,-177 L42,-127 L203,-207 L84,-271 Z" stroke-width="0" fill="#28992b" fill-opacity="0.7058823529411765" />
<path d="M71,-86 L148,-206 L234,-95 L25,-218 L122,-175 L185,-153 Z" stroke-width="0" fill="#000014" fill-opacity="0.4470588235294118" />
<path d="M152,-150 L125,-174 L92,-99 L204,-311 L44,-296 L92,-106 Z" stroke-width="0" fill="#b81b7b" fill-opacity="0.4745098039215686" />
<path d="M39,-165 L123,-93 L196,-306 L241,-300 L104,-74 L88,-53 Z" stroke-width="0" fill="#213b32" fill-opacity="0.5058823529411764" />
<path d="M114,-178 L94,-260 L63,-232 L165,-320 L247,-228 L108,-232 Z" stroke-width="0" fill="#aac16e" fill-opacity="0.5019607843137255" />
<path d="M55,-141 L63,-128 L123,-34 L68,-174 L81,-83 L89,-284 Z" stroke-width="0" fill="#fceee8" fill-opacity="0.10196078431372549" />
<path d="M163,-38 L159,-313 L60,-160 L172,-214 L111,-210 L182,-109 Z" stroke-width="0" fill="#ddac98" fill-opacity="0.7647058823529411" />
<path d="M120,-273 L139,-121 L53,-203 L146,-220 L205,-71 L117,-107 Z" stroke-width="0" fill="#417e11" fill-opacity="0.9607843137254902" />
<path d="M62,-296 L76,-81 L184,-51 L36,-294 L81,-50 L93,-94 Z" stroke-width="0" fill="#6a8137" fill-opacity="0.37254901960784315" />
<path d="M228,-34 L187,-169 L61,-91 L158,-199 L126,-126 L131,-245 Z" stroke-width="0" fill="#174051" fill-opacity="0.34901960784313724" />
<path d="M212,-58 L39,-212 L68,-26 L47,-69 L122,-198 L64,-281 Z" stroke-width="0" fill="#1a0805" fill-opacity="0.26666666666666666" />
<path d="M89,-36 L106,-152 L78,-120 L78,-168 L117,-236 L145,-147 Z" stroke-width="0" fill="#cedef0" fill-opacity="0.09411764705882353" />
<path d="M108,-247 L208,-42 L73,-296 L221,-128 L151,-184 L178,-140 Z" stroke-width="0" fill="#583640" fill-opacity="0.47843137254901963" />
<path d="M91,-57 L65,-191 L93,-179 L192,-242 L199,-200 L176,-193 Z" stroke-width="0" fill="#330e0a" fill-opacity="0.6431372549019608" />
<path d="M44,-55 L64,-194 L123,-256 L232,-203 L93,-26 L209,-225 Z" stroke-width="0" fill="#2c0207" fill-opacity="0.09803921568627451" />
<path d="M27,-157 L146,-56 L137,-158 L93,-67 L39,-282 L46,-28 Z" stroke-width="0" fill="#439200" fill-opacity="0.3803921568627451" />
<path d="M62,-235 L64,-150 L124,-127 L120,-189 L181,-271 L90,-285 Z" stroke-width="0" fill="#1043f2" fill-opacity="0.8666666666666667" />
<path d="M85,-28 L128,-132 L73,-205 L80,-311 L145,-125 L202,-292 Z" stroke-width="0" fill="#db2b80" fill-opacity="0.21176470588235294" />
<path d="M154,-200 L68,-155 L103,-31 L45,-309 L191,-31 L37,-188 Z" stroke-width="0" fill="#045100" fill-opacity="0.2980392156862745" />
<path d="M179,-32 L76,-26 L46,-81 L44,-77 L55,-109 L139,-198 Z" stroke-width="0" fill="#001300" fill-opacity="0.3254901960784314" />
<path d="M150,-121 L72,-280 L183,-191 L236,-133 L119,-309 L204,-118 Z" stroke-width="0" fill="#8e62dd" fill-opacity="0.5529411764705883" />
<path d="M50,-308 L137,-91 L119,-271 L210,-119 L44,-241 L138,-113 Z" stroke-width="0" fill="#4b0367" fill-opacity="0.29411764705882354" />
<path d="M109,-189 L33,-106 L67,-198 L69,-60 L91,-56 L193,-131 Z" stroke-width="0" fill="#363202" fill-opacity="0.7529411764705882" />
<path d="M143,-73 L173,-80 L230,-269 L242,-80 L39,-290 L174,-278 Z" stroke-width="0" fill="#4d4d5c" fill-opacity="0.5098039215686274" />
<path d="M117,-106 L88,-40 L116,-38 L88,-156 L32,-168 L65,-323 Z" stroke-width="0" fill="#ad6696" fill-opacity="0.6823529411764706" />
<path d="M47,-28 L79,-46 L230,-122 L224,-162 L129,-25 L108,-230 Z" stroke-width="0" fill="#b2a3c4" fill-opacity="0.9254901960784314" />
<path d="M139,-32 L138,-108 L43,-93 L139,-71 L227,-133 L200,-310 Z" stroke-width="0" fill="#c9e2c8" fill-opacity="0.5019607843137255" />
<path d="M118,-186 L76,-141 L196,-315 L144,-311 L118,-196 L243,-82 Z" stroke-width="0" fill="#8d7ca8" fill-opacity="0.5490196078431373" />
<path d="M64,-57 L176,-282 L95,-113 L191,-288 L139,-250 L48,-51 Z" stroke-width="0" fill="#dbb27f" fill-opacity="0.07058823529411765" />
<path d="M106,-61 L222,-121 L152,-291 L105,-226 L104,-123 L41,-192 Z" stroke-width="0" fill="#1fb32e" fill-opacity="0.8627450980392157" />
<path d="M71,-251 L50,-47 L89,-261 L172,-112 L43,-303 L101,-123 Z" stroke-width="0" fill="#adfe9e" fill-opacity="0.4627450980392157" />
<path d="M49,-84 L146,-268 L48,-269 L180,-252 L51,-289 L192,-54 Z" stroke-width="0" fill="#ab27d7" fill-opacity="0.3411764705882353" />
<path d="M153,-171 L100,-31 L174,-181 L44,-200 L144,-227 L86,-193 Z" stroke-width="0" fill="#76ba04" fill-opacity="0.25882352941176473" />
<path d="M71,-183 L161,-144 L109,-309 L36,-189 L131,-208 L141,-56 Z" stroke-width="0" fill="#dc7b02" fill-opacity="0.14901960784313725" />
<path d="M95,-195 L124,-69 L85,-202 L66,-154 L108,-167 L240,-217 Z" stroke-width="0" fill="#84c543" fill-opacity="0.25098039215686274" />
<path d="M25,-30 L155,-280 L214,-236 L164,-58 L110,-58 L40,-237 Z" stroke-width="0" fill="#8ad579" fill-opacity="0.7058823529411765" />
<path d="M130,-175 L227,-324 L32,-105 L204,-242 L126,-46 L242,-43 Z" stroke-width="0" fill="#a9b494" fill-opacity="0.8274509803921568" />
<path d="M94,-192 L56,-85 L35,-40 L153,-194 L98,-93 L69,-213 Z" stroke-width="0" fill="#440431" fill-opacity="0.3254901960784314" />
<path d="M170,-266 L79,-130 L199,-258 L90,-213 L93,-104 L60,-129 Z" stroke-width="0" fill="#d21adf" fill-opacity="0.17647058823529413" />
<path d="M81,-210 L42,-103 L61,-39 L216,-163 L173,-288 L123,-115 Z" stroke-width="0" fill="#faf9e5" fill-opacity="0.24313725490196078" />
<path d="M208,-69 L115,-205 L90,-112 L90,-129 L192,-44 L99,-179 Z" stroke-width="0" fill="#e7ec28" fill-opacity="0.6666666666666666" />
<path d="M126,-27 L187,-289 L145,-174 L130,-116 L94,-155 L32,-191 Z" stroke-width="0" fill="#d7ecc6" fill-opacity="0.11372549019607843" />
<path d="M80,-239 L54,-170 L144,-115 L55,-107 L103,-106 L31,-74 Z" stroke-width="0" fill="#fbd7ac" fill-opacity="0.8274509803921568" />
<path d="M101,-87 L133,-58 L33,-116 L72,-160 L43,-121 L48,-63 Z" stroke-width="0" fill="#df8bf8" fill-opacity="0.5058823529411764" />
<path d="M43,-95 L31,-229 L106,-47 L234,-125 L184,-263 L147,-178 Z" stroke-width="0" fill="#708626" fill-opacity="0.6588235294117647" />
<path d="M114,-130 L123,-144 L228,-247 L85,-73 L163,-302 L173,-234 Z" stroke-width="0" fill="#b9ecfd" fill-opacity="0.796078431372549" />
<path d="M220,-78 L112,-95 L223,-59 L172,-31 L44,-310 L226,-297 Z" stroke-width="0" fill="#92ca91" fill-opacity="0.5529411764705883" />
<path d="M70,-127 L163,-76 L115,-25 L121,-36 L213,-103 L226,-224 Z" stroke-width="0" fill="#b0c224" fill-opacity="0.10588235294117647" />
<path d="M245,-303 L84,-210 L223,-178 L225,-144 L88,-54 L157,-70 Z" stroke-width="0" fill="#75c36f" fill-opacity="0.5019607843137255" />
<path d="M182,-225 L168,-308 L162,-87 L202,-162 L136,-243 L108,-161 Z" stroke-width="0" fill="#e6daad" fill-opacity="0.5098039215686274" />
<path d="M154,-60 L232,-57 L77,-190 L160,-213 L124,-148 L35,-41 Z" stroke-width="0" fill="#ad5d9a" fill-opacity="0.43137254901960786" />
<path d="M162,-225 L63,-145 L93,-155 L103,-111 L162,-32 L75,-311 Z" stroke-width="0" fill="#5e675c" fill-opacity="0.5019607843137255" />
<path d="M249,-255 L97,-230 L71,-55 L33,-150 L192,-134 L48,-117 Z" stroke-width="0" fill="#797c5b" fill-opacity="0.40784313725490196" />
<path d="M61,-69 L204,-253 L64,-292 L128,-96 L59,-35 L169,-128 Z" stroke-width="0" fill="#d81d89" fill-opacity="0.06274509803921569" />
<path d="M145,-117 L130,-312 L39,-83 L142,-113 L146,-247 L126,-128 Z" stroke-width="0" fill="#9da855" fill-opacity="0.4392156862745098" />
<path d="M31,-89 L248,-91 L36,-289 L25,-49 L131,-141 L199,-54 Z" stroke-width="0" fill="#ac80d2" fill-opacity="0.596078431372549" />
<path d="M184,-285 L228,-41 L84,-67 L113,-247 L62,-53 L79,-214 Z" stroke-width="0" fill="#6b9958" fill-opacity="0.1607843137254902" />
<path d="M231,-285 L234,-42 L48,-193 L212,-130 L115,-51 L202,-174 Z" stroke-width="0" fill="#b6aa9a" fill-opacity="0.9176470588235294" />
<path d="M125,-272 L180,-184 L110,-177 L123,-111 L184,-161 L100,-121 Z" stroke-width="0" fill="#22bfae" fill-opacity="0.00392156862745098" />
<path d="M95,-186 L39,-186 L239,-28 L84,-304 L94,-130 L178,-226 Z" stroke-width="0" fill="#ccabc2" fill-opacity="0.3215686274509804" />
<path d="M54,-117 L171,-45 L145,-34 L149,-189 L82,-157 L99,-113 Z" stroke-width="0" fill="#a5cc4a" fill-opacity="0.3607843137254902" />
<path d="M158,-64 L40,-181 L223,-43 L157,-37 L221,-84 L124,-261 Z" stroke-width="0" fill="#814203" fill-opacity="0.043137254901960784" />
<path d="M95,-56 L87,-303 L236,-275 L148,-103 L62,-114 L147,-273 Z" stroke-width="0" fill="#b7afb5" fill-opacity="0.12941176470588237" />
<path d="M110,-246 L79,-139 L222,-75 L81,-187 L86,-96 L244,-185 Z" stroke-width="0" fill="#e9e3e1" fill-opacity="0.7137254901960784" />
<path d="M51,-80 L102,-64 L91,-82 L156,-128 L78,-110 L46,-71 Z" stroke-width="0" fill="#1c8a4f" fill-opacity="0.6313725490196078" />
<path d="M116,-79 L175,-62 L99,-146 L222,-98 L44,-203 L43,-311 Z" stroke-width="0" fill="#a0ac50" fill-opacity="0.3176470588235294" />
<path d="M245,-75 L215,-185 L94,-149 L166,-105 L135,-108 L69,-272 Z" stroke-width="0" fill="#b799a2" fill-opacity="0.8941176470588236" />
<path d="M182,-230 L161,-210 L160,-150 L57,-47 L121,-251 L180,-238 Z" stroke-width="0" fill="#ad8cac" fill-opacity="0.16470588235294117" />
<path d="M177,-137 L152,-265 L161,-126 L73,-285 L231,-297 L225,-60 Z" stroke-width="0" fill="#e8a39c" fill-opacity="0.3803921568627451" />
<path d="M212,-263 L182,-153 L100,-203 L96,-44 L225,-159 L107,-178 Z" stroke-width="0" fill="#742500" fill-opacity="0.16862745098039217" />
<path d="M89,-98 L143,-53 L169,-84 L59,-245 L224,-136 L123,-56 Z" stroke-width="0" fill="#bbd46b" fill-opacity="0.16470588235294117" />
<path d="M98,-112 L197,-103 L158,-176 L220,-291 L169,-98 L44,-291 Z" stroke-width="0" fill="#c0d8ea" fill-opacity="0.1843137254901961" />
<path d="M73,-249 L199,-221 L134,-323 L156,-233 L207,-221 L28,-170 Z" stroke-width="0" fill="#cbb2dc" fill-opacity="0.4470588235294118" />
<path d="M97,-29 L234,-160 L74,-296 L235,-49 L223,-271 L154,-267 Z" stroke-width="0" fill="#a5c2dd" fill-opacity="0.42745098039215684" />
<path d="M112,-165 L238,-285 L194,-65 L101,-161 L101,-196 L29,-198 Z" stroke-width="0" fill="#c2aba9" fill-opacity="0.4666666666666667" />
<path d="M146,-85 L156,-48 L196,-183 L96,-39 L40,-43 L123,-291 Z" stroke-width="0" fill="#87bb6e" fill-opacity="0.3215686274509804" />
<path d="M45,-282 L45,-28 L104,-246 L104,-108 L203,-42 L60,-157 Z" stroke-width="0" fill="#edcefc" fill-opacity="0.11764705882352941" />
<path d="M196,-41 L110,-204 L216,-53 L233,-54 L134,-184 L155,-265 Z" stroke-width="0" fill="#716f96" fill-opacity="0.16470588235294117" />
<path d="M42,-74 L176,-204 L161,-219 L196,-97 L214,-208 L200,-194 Z" stroke-width="0" fill="#d0a1a1" fill-opacity="0.6941176470588235" />
<path d="M236,-114 L172,-225 L37,-95 L190,-130 L171,-36 L236,-310 Z" stroke-width="0" fill="#b1a3d5" fill-opacity="0.3254901960784314" />
<path d="M231,-86 L102,-150 L125,-319 L77,-71 L28,-46 L140,-302 Z" stroke-width="0" fill="#ccb6b8" fill-opacity="0.47843137254901963" />
<path d="M233,-200 L56,-124 L32,-35 L142,-253 L227,-58 L182,-86 Z" stroke-width="0" fill="#c0cc83" fill-opacity="0.24313725490196078" />
<path d="M131,-76 L53,-292 L32,-36 L62,-148 L233,-148 L100,-78 Z" stroke-width="0" fill="#cdfc91" fill-opacity="0.12549019607843137" />
<path d="M26,-114 L68,-255 L104,-70 L234,-166 L174,-263 L233,-124 Z" stroke-width="0" fill="#becb75" fill-opacity="0.26666666666666666" />
<path d="M76,-271 L41,-186 L56,-102 L50,-300 L139,-153 L80,-207 Z" stroke-width="0" fill="#e5aae3" fill-opacity="0.19607843137254902" />
<path d="M98,-239 L232,-126 L110,-316 L43,-145 L44,-30 L44,-95 Z" stroke-width="0" fill="#3c98d1" fill-opacity="0.09411764705882353" />
<path d="M67,-163 L202,-55 L209,-141 L36,-197 L156,-269 L205,-80 Z" stroke-width="0" fill="#9d9cb8" fill-opacity="0.4" />
<path d="M124,-303 L81,-217 L208,-97 L49,-199 L214,-317 L114,-271 Z" stroke-width="0" fill="#2a0020" fill-opacity="0.1568627450980392" />
<path d="M244,-280 L236,-83 L55,-172 L237,-133 L156,-201 L208,-175 Z" stroke-width="0" fill="#918a7e" fill-opacity="0.4235294117647059" />
<path d="M70,-211 L153,-127 L100,-117 L198,-76 L118,-133 L168,-238 Z" stroke-width="0" fill="#d6ddb5" fill-opacity="0.19215686274509805" />
<path d="M195,-34 L221,-145 L210,-101 L186,-73 L68,-215 L63,-72 Z" stroke-width="0" fill="#cc7cdb" fill-opacity="0.2784313725490196" />
<path d="M27,-276 L136,-29 L111,-104 L189,-314 L245,-121 L228,-278 Z" stroke-width="0" fill="#8f9f6f" fill-opacity="0.18823529411764706" />
<path d="M65,-62 L100,-295 L169,-207 L60,-65 L144,-170 L215,-269 Z" stroke-width="0" fill="#c8beb3" fill-opacity="0.4117647058823529" />
<path d="M60,-180 L28,-198 L87,-137 L35,-69 L98,-105 L59,-144 Z" stroke-width="0" fill="#acc49c" fill-opacity="0.2549019607843137" />
<path d="M41,-249 L213,-88 L169,-222 L25,-221 L194,-190 L93,-142 Z" stroke-width="0" fill="#acb485" fill-opacity="0.19215686274509805" />
<path d="M144,-42 L242,-233 L85,-208 L82,-102 L144,-41 L61,-138 Z" stroke-width="0" fill="#8fa28f" fill-opacity="0.18823529411764706" />
<text x="137.5" y="12.5" font-size="20.0" fill="black" text-anchor="middle" transform="translate(0,5.0)">PAGE OF AIR</text>
</svg>