<?xml version="1.0" encoding="UTF-8"?>
<svg xmlns="http://www.w3.org/2000/svg" xmlns:xlink="http://www.w3.org/1999/xlink"
     width="896" height="1496" viewBox="0 -1400 896 1496" style="font-size:70;font-family:Poor Richard, Times New Roman;stroke:black;stroke-width:1;fill:none">
<defs>
</defs>
<path d="M518,-814 L670,-206 L486,-574 L838,-226 L378,-646 L286,-218 Z" stroke-width="0" fill="#8761a6" fill-opacity="0.6078431372549019" />
<path d="M614,-770 L494,-490 L382,-1182 L910,-630 L250,-366 L318,-370 Z" stroke-width="0" fill="#f2d4aa" fill-opacity="0.22745098039215686" />
<path d="M522,-382 L754,-778 L338,-670 L462,-370 L246,-430 L726,-1274 Z" stroke-width="0" fill="#9fa6cd" fill-opacity="0.8431372549019608" />
<path d="M686,-474 L770,-258 L298,-522 L366,-482 L182,-410 L878,-398 Z" stroke-width="0" fill="#ccca0e" fill-opacity="0.12941176470588237" />
<path d="M266,-458 L466,-534 L130,-830 L258,-1110 L358,-278 L438,-662 Z" stroke-width="0" fill="#43e347" fill-opacity="0.0" />
<path d="M294,-446 L466,-1206 L222,-890 L830,-242 L630,-1266 L362,-106 Z" stroke-width="0" fill="#523a04" fill-opacity="0.5529411764705883" />
<path d="M454,-314 L674,-86 L638,-722 L814,-898 L678,-550 L790,-1218 Z" stroke-width="0" fill="#d60fb5" fill-opacity="0.12549019607843137" />
<path d="M598,-370 L934,-1042 L926,-150 L874,-530 L862,-494 L598,-250 Z" stroke-width="0" fill="#622440" fill-opacity="0.5019607843137255" />
<path d="M970,-234 L294,-322 L250,-438 L158,-722 L430,-906 L106,-434 Z" stroke-width="0" fill="#91471e" fill-opacity="0.43529411764705883" />
<path d="M510,-890 L314,-1050 L778,-1138 L182,-418 L234,-1046 L934,-702 Z" stroke-width="0" fill="#dcac89" fill-opacity="0.7686274509803922" />
<path d="M154,-110 L258,-1086 L830,-406 L870,-570 L618,-86 L646,-234 Z" stroke-width="0" fill="#600403" fill-opacity="0.2196078431372549" />
<path d="M942,-738 L202,-142 L622,-498 L970,-706 L146,-766 L522,-742 Z" stroke-width="0" fill="#724d73" fill-opacity="0.615686274509804" />
<path d="M274,-482 L618,-310 L410,-1102 L478,-722 L458,-838 L266,-842 Z" stroke-width="0" fill="#98bfd4" fill-opacity="0.8509803921568627" />
<path d="M106,-1062 L866,-190 L494,-338 L474,-370 L654,-730 L98,-574 Z" stroke-width="0" fill="#8f5422" fill-opacity="0.3176470588235294" />
<path d="M286,-1234 L710,-826 L658,-530 L922,-546 L458,-102 L758,-746 Z" stroke-width="0" fill="#f6f2dd" fill-opacity="0.33725490196078434" />
<path d="M530,-406 L190,-778 L826,-278 L882,-378 L210,-618 L662,-198 Z" stroke-width="0" fill="#5acf77" fill-opacity="0.08235294117647059" />
<path d="M638,-1138 L862,-1190 L758,-630 L730,-582 L134,-402 L506,-466 Z" stroke-width="0" fill="#b793b3" fill-opacity="0.5019607843137255" />
<path d="M966,-646 L934,-366 L950,-390 L822,-1102 L206,-762 L598,-602 Z" stroke-width="0" fill="#a8726b" fill-opacity="0.5019607843137255" />
<path d="M126,-182 L710,-238 L842,-798 L294,-962 L738,-594 L790,-762 Z" stroke-width="0" fill="#f368ee" fill-opacity="0.23137254901960785" />
<path d="M666,-818 L526,-386 L526,-1210 L946,-298 L138,-490 L926,-458 Z" stroke-width="0" fill="#a51a4c" fill-opacity="0.15294117647058825" />
<path d="M650,-830 L330,-770 L774,-1238 L190,-82 L410,-210 L902,-206 Z" stroke-width="0" fill="#20cd68" fill-opacity="0.011764705882352941" />
<path d="M530,-930 L182,-358 L358,-178 L90,-302 L506,-282 L970,-138 Z" stroke-width="0" fill="#c0625e" fill-opacity="0.3176470588235294" />
<path d="M278,-562 L574,-1206 L786,-850 L182,-1126 L418,-978 L102,-570 Z" stroke-width="0" fill="#391b7c" fill-opacity="0.24705882352941178" />
<path d="M474,-186 L350,-918 L306,-1042 L270,-934 L574,-714 L458,-366 Z" stroke-width="0" fill="#660828" fill-opacity="0.611764705882353" />
<path d="M346,-666 L362,-1178 L894,-742 L334,-830 L674,-1082 L438,-574 Z" stroke-width="0" fill="#afdcee" fill-opacity="0.18823529411764706" />
<path d="M838,-574 L590,-542 L286,-1046 L98,-806 L566,-1094 L534,-634 Z" stroke-width="0" fill="#f0ddfe" fill-opacity="0.49411764705882355" />
<path d="M110,-178 L226,-398 L350,-698 L930,-1238 L350,-338 L506,-570 Z" stroke-width="0" fill="#9ea79f" fill-opacity="0.4627450980392157" />
<path d="M330,-1094 L498,-314 L122,-742 L706,-206 L218,-1146 L422,-830 Z" stroke-width="0" fill="#f2c5e2" fill-opacity="0.8117647058823529" />
<path d="M830,-1206 L730,-386 L902,-310 L314,-522 L806,-634 L902,-1078 Z" stroke-width="0" fill="#c4a068" fill-opacity="0.5568627450980392" />
<path d="M178,-542 L650,-778 L686,-282 L190,-1102 L566,-826 L498,-566 Z" stroke-width="0" fill="#dfc202" fill-opacity="0.03529411764705882" />
<path d="M326,-242 L842,-150 L322,-622 L114,-930 L178,-150 L446,-726 Z" stroke-width="0" fill="#d97b7b" fill-opacity="0.1450980392156863" />
<path d="M326,-470 L666,-282 L226,-890 L726,-1126 L842,-434 L622,-674 Z" stroke-width="0" fill="#2080c1" fill-opacity="0.6352941176470588" />
<path d="M166,-1266 L254,-1266 L354,-534 L442,-162 L526,-638 L346,-250 Z" stroke-width="0" fill="#e837a2" fill-opacity="0.20392156862745098" />
<path d="M234,-882 L570,-110 L430,-626 L438,-426 L126,-202 L194,-274 Z" stroke-width="0" fill="#f92a2d" fill-opacity="0.2" />
<path d="M234,-642 L822,-514 L714,-906 L410,-690 L226,-450 L454,-138 Z" stroke-width="0" fill="#42ac4c" fill-opacity="0.2901960784313726" />
<path d="M802,-478 L930,-662 L810,-938 L470,-118 L670,-1186 L374,-990 Z" stroke-width="0" fill="#c1e29d" fill-opacity="0.3254901960784314" />
<path d="M806,-1058 L970,-650 L734,-830 L282,-494 L82,-262 L582,-242 Z" stroke-width="0" fill="#90443b" fill-opacity="0.37254901960784315" />
<path d="M938,-894 L650,-982 L346,-702 L874,-1182 L706,-94 L458,-282 Z" stroke-width="0" fill="#e992bd" fill-opacity="0.10196078431372549" />
<path d="M846,-450 L650,-354 L882,-330 L274,-1246 L862,-394 L206,-582 Z" stroke-width="0" fill="#d2b2e5" fill-opacity="0.15294117647058825" />
<path d="M858,-522 L514,-766 L730,-978 L150,-186 L954,-1166 L218,-618 Z" stroke-width="0" fill="#87503f" fill-opacity="0.3686274509803922" />
<path d="M762,-562 L518,-1278 L570,-394 L418,-294 L358,-974 L466,-1038 Z" stroke-width="0" fill="#7f626d" fill-opacity="0.7294117647058823" />
<path d="M446,-270 L686,-1042 L822,-290 L970,-138 L222,-810 L794,-110 Z" stroke-width="0" fill="#a7c3ac" fill-opacity="0.1803921568627451" />
<path d="M198,-714 L222,-570 L254,-1230 L830,-986 L898,-1162 L650,-222 Z" stroke-width="0" fill="#df9bb6" fill-opacity="0.5686274509803921" />
<path d="M950,-1198 L478,-358 L510,-298 L726,-158 L194,-86 L722,-786 Z" stroke-width="0" fill="#b47987" fill-opacity="0.8235294117647058" />
<path d="M514,-202 L850,-186 L730,-602 L714,-182 L278,-874 L226,-758 Z" stroke-width="0" fill="#dedef1" fill-opacity="0.8196078431372549" />
<path d="M962,-754 L778,-646 L582,-202 L586,-338 L322,-674 L354,-686 Z" stroke-width="0" fill="#191000" fill-opacity="0.6666666666666666" />
<path d="M114,-82 L494,-586 L230,-1142 L82,-538 L238,-362 L134,-642 Z" stroke-width="0" fill="#bd839d" fill-opacity="0.6352941176470588" />
<path d="M774,-374 L858,-762 L354,-198 L442,-1270 L626,-738 L594,-514 Z" stroke-width="0" fill="#57021a" fill-opacity="0.5019607843137255" />
<path d="M474,-426 L190,-946 L834,-342 L566,-814 L682,-1202 L882,-1082 Z" stroke-width="0" fill="#dac8c2" fill-opacity="0.5019607843137255" />
<path d="M786,-870 L150,-1186 L414,-122 L342,-106 L458,-314 L254,-762 Z" stroke-width="0" fill="#a69e6e" fill-opacity="0.30196078431372547" />
<path d="M810,-390 L518,-1046 L618,-346 L122,-318 L710,-966 L918,-594 Z" stroke-width="0" fill="#ed94df" fill-opacity="0.23921568627450981" />
<path d="M630,-614 L342,-1086 L818,-498 L190,-1006 L594,-122 L858,-914 Z" stroke-width="0" fill="#f1f0db" fill-opacity="0.807843137254902" />
<path d="M806,-1278 L422,-370 L406,-510 L446,-922 L634,-542 L82,-906 Z" stroke-width="0" fill="#f4c7ab" fill-opacity="0.7176470588235294" />
<path d="M242,-1206 L158,-890 L570,-402 L938,-598 L394,-790 L134,-498 Z" stroke-width="0" fill="#d8ae99" fill-opacity="0.8941176470588236" />
<path d="M914,-494 L330,-974 L806,-642 L594,-334 L526,-974 L626,-578 Z" stroke-width="0" fill="#ab9ee1" fill-opacity="0.3215686274509804" />
<path d="M302,-1198 L402,-1042 L166,-1150 L458,-122 L178,-678 L626,-218 Z" stroke-width="0" fill="#f3f313" fill-opacity="0.0196078431372549" />
<path d="M158,-1146 L310,-158 L450,-1010 L782,-526 L170,-882 L230,-278 Z" stroke-width="0" fill="#dfa2c3" fill-opacity="0.6705882352941176" />
<path d="M106,-930 L142,-150 L918,-866 L318,-874 L370,-566 L86,-1090 Z" stroke-width="0" fill="#eeedae" fill-opacity="0.19215686274509805" />
<path d="M242,-206 L434,-306 L338,-482 L98,-654 L902,-574 L142,-874 Z" stroke-width="0" fill="#b4b1c4" fill-opacity="0.0" />
<path d="M310,-818 L486,-438 L722,-1210 L274,-734 L330,-1186 L314,-238 Z" stroke-width="0" fill="#a0cbe8" fill-opacity="0.30980392156862746" />
<path d="M410,-110 L682,-1122 L198,-314 L546,-910 L470,-854 L218,-794 Z" stroke-width="0" fill="#a60b3b" fill-opacity="0.4392156862745098" />
<path d="M166,-146 L190,-766 L238,-1162 L198,-418 L150,-142 L210,-658 Z" stroke-width="0" fill="#ebaca7" fill-opacity="0.6274509803921569" />
<path d="M506,-110 L158,-630 L110,-970 L194,-134 L162,-502 L682,-130 Z" stroke-width="0" fill="#b7c2e4" fill-opacity="0.12549019607843137" />
<path d="M270,-1114 L358,-458 L414,-1250 L938,-338 L106,-726 L870,-826 Z" stroke-width="0" fill="#dc9eaa" fill-opacity="0.7686274509803922" />
<path d="M722,-534 L678,-1070 L154,-82 L730,-810 L598,-190 L150,-446 Z" stroke-width="0" fill="#ae87bb" fill-opacity="0.2627450980392157" />
<path d="M470,-326 L942,-298 L178,-806 L138,-558 L586,-278 L810,-410 Z" stroke-width="0" fill="#b9b288" fill-opacity="0.26666666666666666" />
<path d="M142,-174 L782,-694 L918,-542 L138,-970 L350,-734 L270,-714 Z" stroke-width="0" fill="#c1b6a1" fill-opacity="0.37254901960784315" />
<path d="M442,-1126 L130,-326 L594,-238 L626,-134 L810,-1054 L242,-402 Z" stroke-width="0" fill="#dbcd8b" fill-opacity="0.08627450980392157" />
<path d="M498,-762 L506,-138 L838,-314 L602,-798 L390,-990 L562,-138 Z" stroke-width="0" fill="#e9edec" fill-opacity="0.9215686274509803" />
<path d="M930,-702 L378,-290 L554,-298 L102,-458 L126,-178 L778,-806 Z" stroke-width="0" fill="#c8baab" fill-opacity="0.3764705882352941" />
<path d="M330,-698 L638,-862 L470,-1070 L526,-566 L546,-678 L498,-146 Z" stroke-width="0" fill="#b6e3b5" fill-opacity="0.18823529411764706" />
<path d="M558,-718 L654,-210 L898,-354 L498,-1162 L926,-198 L922,-410 Z" stroke-width="0" fill="#2d865d" fill-opacity="0.0" />
<path d="M382,-534 L430,-502 L894,-994 L114,-858 L258,-926 L354,-246 Z" stroke-width="0" fill="#a78e84" fill-opacity="0.9686274509803922" />
<path d="M862,-102 L486,-218 L402,-826 L598,-82 L338,-774 L422,-682 Z" stroke-width="0" fill="#e77b9f" fill-opacity="0.10588235294117647" />
<path d="M274,-338 L430,-1186 L694,-502 L238,-1074 L258,-442 L802,-566 Z" stroke-width="0" fill="#7d433a" fill-opacity="0.34509803921568627" />
<path d="M162,-566 L138,-610 L474,-522 L130,-846 L750,-630 L330,-1054 Z" stroke-width="0" fill="#944451" fill-opacity="0.2784313725490196" />
<path d="M946,-502 L646,-262 L746,-338 L858,-946 L794,-822 L142,-222 Z" stroke-width="0" fill="#fd96fc" fill-opacity="0.21568627450980393" />
<path d="M970,-486 L286,-746 L474,-374 L874,-590 L374,-250 L102,-114 Z" stroke-width="0" fill="#fbb7a3" fill-opacity="0.45098039215686275" />
<path d="M882,-998 L886,-1090 L362,-626 L362,-638 L394,-870 L750,-1054 Z" stroke-width="0" fill="#b183a7" fill-opacity="0.5019607843137255" />
<path d="M694,-94 L450,-214 L306,-414 L262,-634 L946,-394 L550,-838 Z" stroke-width="0" fill="#ca97e0" fill-opacity="0.09019607843137255" />
<path d="M222,-1094 L118,-998 L234,-410 L218,-782 L626,-986 L366,-906 Z" stroke-width="0" fill="#c4c8ef" fill-opacity="0.4666666666666667" />
<path d="M370,-342 L166,-882 L634,-694 L802,-638 L518,-170 L786,-102 Z" stroke-width="0" fill="#e1d5ff" fill-opacity="0.2627450980392157" />
<path d="M478,-1262 L758,-150 L386,-698 L566,-1034 L154,-230 L338,-250 Z" stroke-width="0" fill="#610c14" fill-opacity="0.023529411764705882" />
<path d="M478,-470 L410,-286 L254,-806 L942,-790 L530,-866 L330,-570 Z" stroke-width="0" fill="#ce7280" fill-opacity="0.1568627450980392" />
<path d="M510,-806 L426,-842 L638,-934 L430,-402 L750,-474 L822,-1170 Z" stroke-width="0" fill="#16232a" fill-opacity="0.19215686274509805" />
<path d="M666,-90 L122,-926 L362,-434 L606,-742 L610,-850 L786,-214 Z" stroke-width="0" fill="#d9eda2" fill-opacity="0.07058823529411765" />
<path d="M346,-690 L454,-482 L842,-1034 L94,-1022 L786,-1082 L246,-682 Z" stroke-width="0" fill="#6f3b95" fill-opacity="0.1803921568627451" />
<path d="M462,-662 L646,-1022 L918,-990 L734,-354 L666,-222 L378,-670 Z" stroke-width="0" fill="#130b89" fill-opacity="0.09019607843137255" />
<path d="M786,-546 L822,-822 L546,-302 L866,-290 L566,-670 L638,-514 Z" stroke-width="0" fill="#ee98f2" fill-opacity="0.45098039215686275" />
<path d="M534,-458 L430,-150 L886,-770 L214,-1242 L954,-1022 L390,-290 Z" stroke-width="0" fill="#adb05e" fill-opacity="0.27058823529411763" />
<path d="M950,-446 L886,-278 L882,-610 L698,-286 L214,-1278 L94,-1278 Z" stroke-width="0" fill="#b7fd8a" fill-opacity="0.2980392156862745" />
<path d="M738,-566 L278,-438 L902,-910 L242,-190 L362,-550 L214,-410 Z" stroke-width="0" fill="#b47694" fill-opacity="0.30196078431372547" />
<path d="M950,-1082 L426,-1122 L930,-410 L414,-326 L434,-550 L250,-706 Z" stroke-width="0" fill="#cbb7b6" fill-opacity="0.5607843137254902" />
<path d="M326,-1154 L822,-666 L858,-834 L722,-182 L894,-310 L786,-862 Z" stroke-width="0" fill="#1e5c3a" fill-opacity="0.03137254901960784" />
<path d="M422,-1262 L206,-762 L478,-502 L306,-738 L606,-1082 L730,-166 Z" stroke-width="0" fill="#b9b38e" fill-opacity="0.3333333333333333" />
<path d="M350,-114 L774,-478 L470,-890 L358,-402 L286,-278 L298,-410 Z" stroke-width="0" fill="#beadc4" fill-opacity="0.5019607843137255" />
<path d="M446,-922 L730,-90 L94,-134 L686,-906 L418,-882 L602,-658 Z" stroke-width="0" fill="#d3e5a3" fill-opacity="0.27058823529411763" />
<path d="M878,-926 L158,-590 L578,-994 L230,-862 L334,-814 L266,-270 Z" stroke-width="0" fill="#9d214f" fill-opacity="0.0784313725490196" />
<path d="M406,-1054 L430,-294 L542,-910 L258,-138 L458,-1034 L430,-574 Z" stroke-width="0" fill="#fbf5a6" fill-opacity="0.13725490196078433" />
<path d="M522,-1182 L286,-398 L674,-1058 L290,-134 L362,-738 L790,-1262 Z" stroke-width="0" fill="#b68564" fill-opacity="0.2823529411764706" />
<text x="448.0" y="0" font-size="70.0" fill="black" text-anchor="middle" transform="translate(0,17.5)">3 OF AIR</text>
</svg>