<?xml version="1.0" encoding="UTF-8"?>
<svg xmlns="http://www.w3.org/2000/svg" xmlns:xlink="http://www.w3.org/1999/xlink"
     width="275" height="375" viewBox="0 -350 275 375">
<defs>
</defs>
<rect x="15" y="-335" width="245" height="320" stroke="black" stroke-width="4" fill="white" />
<path d="M54,-203 L126,-78 L186,-231 L142,-118 L141,-279 L26,-26 Z" stroke-width="0" fill="#003a56" fill-opacity="0.5019607843137255" />
<path d="M101,-80 L153,-33 L145,-157 L98,-175 L86,-42 L162,-303 Z" stroke-width="0" fill="#3d93b2" fill-opacity="0.37254901960784315" />
<path d="M155,-310 L114,-238 L160,-142 L79,-204 L131,-207 L204,-228 Z" stroke-width="0" fill="#f1ef2a" fill-opacity="0.043137254901960784" />
<path d="M137,-305 L129,-145 L110,-94 L176,-157 L85,-219 L123,-284 Z" stroke-width="0" fill="#eb0070" fill-opacity="0.9607843137254902" />
<path d="M97,-264 L120,-317 L143,-297 L168,-316 L131,-167 L145,-234 Z" stroke-width="0" fill="#bdc8fd" fill-opacity="0.5019607843137255" />
<path d="M84,-214 L181,-47 L64,-155 L217,-42 L158,-248 L183,-63 Z" stroke-width="0" fill="#3b5791" fill-opacity="0.7490196078431373" />
<path d="M142,-128 L37,-193 L44,-32 L194,-312 L79,-295 L66,-182 Z" stroke-width="0" fill="#4da4a3" fill-opacity="0.5882352941176471" />
<path d="M44,-37 L171,-33 L147,-188 L49,-172 L78,-89 L218,-257 Z" stroke-width="0" fill="#00131a" fill-opacity="0.5215686274509804" />
<path d="M136,-53 L90,-100 L30,-47 L227,-145 L241,-297 L141,-27 Z" stroke-width="0" fill="#4ad3e2" fill-opacity="0.3137254901960784" />
<path d="M127,-251 L85,-292 L64,-129 L64,-60 L158,-187 L157,-111 Z" stroke-width="0" fill="#166524" fill-opacity="0.6901960784313725" />
<path d="M162,-144 L106,-224 L208,-232 L156,-154 L157,-324 L157,-43 Z" stroke-width="0" fill="#08d5b6" fill-opacity="0.37254901960784315" />
<path d="M99,-208 L184,-256 L42,-77 L207,-269 L88,-184 L33,-43 Z" stroke-width="0" fill="#14bbc5" fill-opacity="0.19607843137254902" />
<path d="M157,-316 L49,-261 L127,-316 L222,-143 L79,-297 L226,-201 Z" stroke-width="0" fill="#698bc1" fill-opacity="0.39215686274509803" />
<path d="M185,-269 L62,-121 L139,-129 L30,-161 L234,-69 L209,-189 Z" stroke-width="0" fill="#bf961b" fill-opacity="0.03137254901960784" />
<path d="M56,-168 L85,-283 L61,-303 L108,-30 L172,-250 L91,-131 Z" stroke-width="0" fill="#08a5a5" fill-opacity="0.07450980392156863" />
<path d="M39,-105 L32,-266 L127,-29 L217,-158 L198,-107 L237,-207 Z" stroke-width="0" fill="#1490f7" fill-opacity="0.1607843137254902" />
<path d="M100,-305 L128,-187 L178,-277 L144,-103 L78,-88 L49,-168 Z" stroke-width="0" fill="#eff9f6" fill-opacity="0.9647058823529412" />
<path d="M143,-285 L233,-309 L61,-157 L53,-155 L93,-236 L42,-281 Z" stroke-width="0" fill="#21c92e" fill-opacity="0.09019607843137255" />
<path d="M101,-249 L69,-317 L243,-75 L98,-53 L146,-95 L217,-168 Z" stroke-width="0" fill="#1e4362" fill-opacity="0.30980392156862746" />
<path d="M113,-228 L174,-37 L226,-146 L240,-53 L58,-131 L228,-116 Z" stroke-width="0" fill="#005c1f" fill-opacity="0.5764705882352941" />
<path d="M180,-90 L124,-153 L209,-155 L191,-93 L42,-296 L85,-77 Z" stroke-width="0" fill="#1e8f1c" fill-opacity="0.4549019607843137" />
<path d="M111,-38 L147,-169 L33,-128 L67,-169 L50,-89 L198,-63 Z" stroke-width="0" fill="#249c94" fill-opacity="0.8156862745098039" />
<path d="M247,-133 L84,-239 L115,-187 L210,-147 L63,-87 L52,-174 Z" stroke-width="0" fill="#022e5c" fill-opacity="0.6666666666666666" />
<path d="M109,-320 L30,-145 L116,-87 L100,-138 L128,-137 L110,-253 Z" stroke-width="0" fill="#2e98d3" fill-opacity="0.48627450980392156" />
<path d="M130,-83 L164,-314 L131,-237 L128,-214 L170,-36 L166,-49 Z" stroke-width="0" fill="#a4d4e2" fill-opacity="0.592156862745098" />
<path d="M123,-98 L167,-153 L61,-107 L82,-140 L71,-217 L76,-250 Z" stroke-width="0" fill="#050e50" fill-opacity="0.22745098039215686" />
<path d="M71,-37 L169,-150 L66,-201 L225,-28 L51,-140 L231,-204 Z" stroke-width="0" fill="#00002a" fill-opacity="0.48627450980392156" />
<path d="M207,-223 L116,-142 L208,-88 L136,-266 L133,-139 L159,-156 Z" stroke-width="0" fill="#4cac0b" fill-opacity="0.047058823529411764" />
<path d="M65,-34 L156,-55 L76,-147 L31,-160 L177,-120 L115,-164 Z" stroke-width="0" fill="#006eba" fill-opacity="0.23529411764705882" />
<path d="M38,-278 L33,-290 L34,-145 L171,-156 L146,-235 L27,-237 Z" stroke-width="0" fill="#24b1e8" fill-opacity="0.43529411764705883" />
<path d="M218,-261 L89,-197 L86,-317 L108,-242 L115,-39 L220,-133 Z" stroke-width="0" fill="#b47fde" fill-opacity="0.2" />
<path d="M145,-173 L27,-271 L114,-202 L207,-103 L40,-157 L226,-141 Z" stroke-width="0" fill="#17b6c0" fill-opacity="0.38823529411764707" />
<path d="M88,-151 L172,-41 L167,-176 L243,-131 L86,-102 L222,-103 Z" stroke-width="0" fill="#000b16" fill-opacity="0.37254901960784315" />
<path d="M34,-159 L118,-35 L49,-286 L54,-148 L241,-258 L72,-274 Z" stroke-width="0" fill="#17aa34" fill-opacity="0.1450980392156863" />
<path d="M49,-222 L40,-286 L72,-65 L30,-130 L107,-89 L111,-108 Z" stroke-width="0" fill="#25a474" fill-opacity="0.5019607843137255" />
<path d="M37,-268 L77,-53 L40,-77 L68,-87 L109,-136 L151,-185 Z" stroke-width="0" fill="#419b7d" fill-opacity="0.396078431372549" />
<path d="M130,-188 L191,-70 L226,-141 L101,-103 L248,-159 L215,-206 Z" stroke-width="0" fill="#60593a" fill-opacity="0.5019607843137255" />
<path d="M120,-148 L84,-75 L144,-268 L202,-89 L56,-289 L27,-247 Z" stroke-width="0" fill="#8ec5fb" fill-opacity="0.9333333333333333" />
<path d="M197,-204 L173,-178 L92,-287 L214,-67 L99,-177 L216,-147 Z" stroke-width="0" fill="#f665fc" fill-opacity="0.403921568627451" />
<path d="M182,-239 L243,-93 L172,-167 L129,-204 L123,-25 L186,-104 Z" stroke-width="0" fill="#2aa69b" fill-opacity="0.8196078431372549" />
<path d="M88,-195 L129,-98 L142,-72 L46,-237 L47,-280 L145,-240 Z" stroke-width="0" fill="#edf175" fill-opacity="0.29411764705882354" />
<path d="M64,-314 L122,-73 L149,-143 L204,-287 L228,-105 L128,-95 Z" stroke-width="0" fill="#fc2b72" fill-opacity="0.2823529411764706" />
<path d="M228,-203 L171,-246 L248,-148 L227,-321 L109,-202 L202,-27 Z" stroke-width="0" fill="#00819b" fill-opacity="0.37254901960784315" />
<path d="M147,-88 L150,-282 L240,-25 L210,-251 L229,-292 L171,-305 Z" stroke-width="0" fill="#167290" fill-opacity="0.12941176470588237" />
<path d="M46,-76 L208,-275 L214,-59 L57,-161 L60,-76 L51,-124 Z" stroke-width="0" fill="#a9b9cc" fill-opacity="0.5019607843137255" />
<path d="M27,-268 L100,-107 L123,-242 L44,-153 L76,-147 L113,-64 Z" stroke-width="0" fill="#84f8db" fill-opacity="0.807843137254902" />
<path d="M213,-211 L203,-159 L117,-184 L162,-158 L35,-144 L109,-166 Z" stroke-width="0" fill="#8b17e9" fill-opacity="0.6509803921568628" />
<path d="M66,-98 L50,-128 L112,-60 L80,-137 L125,-262 L41,-164 Z" stroke-width="0" fill="#11f649" fill-opacity="0.25882352941176473" />
<path d="M136,-59 L149,-203 L73,-155 L121,-174 L212,-183 L59,-116 Z" stroke-width="0" fill="#2d6510" fill-opacity="0.996078431372549" />
<path d="M34,-315 L68,-201 L66,-164 L145,-299 L194,-226 L167,-266 Z" stroke-width="0" fill="#99c8ec" fill-opacity="0.8901960784313725" />
<path d="M54,-224 L146,-217 L123,-316 L57,-76 L99,-51 L161,-257 Z" stroke-width="0" fill="#b5376a" fill-opacity="0.027450980392156862" />
<path d="M64,-287 L86,-260 L190,-138 L210,-294 L107,-162 L112,-206 Z" stroke-width="0" fill="#8ed2ef" fill-opacity="0.6313725490196078" />
<path d="M239,-115 L108,-257 L220,-41 L207,-280 L168,-207 L76,-162 Z" stroke-width="0" fill="#6c33d1" fill-opacity="0.592156862745098" />
<path d="M159,-72 L125,-54 L95,-136 L189,-119 L247,-184 L175,-233 Z" stroke-width="0" fill="#5e9269" fill-opacity="0.2901960784313726" />
<path d="M59,-103 L34,-131 L180,-86 L120,-236 L111,-80 L60,-219 Z" stroke-width="0" fill="#4f939a" fill-opacity="0.5019607843137255" />
<path d="M176,-107 L88,-188 L149,-51 L32,-196 L234,-96 L154,-318 Z" stroke-width="0" fill="#8ca476" fill-opacity="0.17647058823529413" />
<path d="M132,-59 L63,-79 L237,-112 L51,-114 L63,-295 L37,-133 Z" stroke-width="0" fill="#a9e0a1" fill-opacity="0.17647058823529413" />
<path d="M54,-233 L112,-129 L110,-33 L177,-204 L151,-250 L138,-145 Z" stroke-width="0" fill="#8e9ce6" fill-opacity="0.21176470588235294" />
<path d="M150,-242 L240,-242 L66,-77 L116,-66 L119,-116 L222,-70 Z" stroke-width="0" fill="#c48ef9" fill-opacity="0.10980392156862745" />
<path d="M26,-90 L234,-106 L65,-44 L167,-201 L63,-191 L124,-80 Z" stroke-width="0" fill="#765491" fill-opacity="0.21568627450980393" />
<path d="M209,-35 L155,-164 L62,-292 L199,-39 L175,-207 L92,-60 Z" stroke-width="0" fill="#497991" fill-opacity="0.7803921568627451" />
<path d="M58,-85 L155,-276 L47,-63 L87,-158 L195,-312 L103,-184 Z" stroke-width="0" fill="#5bb8c2" fill-opacity="0.3176470588235294" />
<path d="M86,-54 L51,-149 L90,-36 L127,-233 L86,-66 L146,-67 Z" stroke-width="0" fill="#0d6896" fill-opacity="0.1450980392156863" />
<path d="M60,-87 L109,-203 L53,-169 L219,-121 L122,-28 L166,-119 Z" stroke-width="0" fill="#319477" fill-opacity="0.615686274509804" />
<path d="M99,-181 L146,-82 L65,-118 L194,-60 L132,-299 L67,-109 Z" stroke-width="0" fill="#c42919" fill-opacity="0.3764705882352941" />
<path d="M239,-34 L105,-75 L140,-130 L226,-96 L109,-322 L181,-289 Z" stroke-width="0" fill="#94e4a8" fill-opacity="0.3764705882352941" />
<path d="M133,-217 L157,-135 L107,-136 L131,-308 L41,-102 L116,-134 Z" stroke-width="0" fill="#a0a6c0" fill-opacity="0.3411764705882353" />
<path d="M204,-52 L56,-76 L25,-312 L127,-132 L153,-81 L163,-244 Z" stroke-width="0" fill="#11b2f1" fill-opacity="0.19607843137254902" />
<path d="M90,-106 L141,-225 L165,-280 L207,-254 L242,-90 L172,-134 Z" stroke-width="0" fill="#88dfc4" fill-opacity="0.37254901960784315" />
<path d="M127,-100 L130,-148 L216,-172 L169,-31 L165,-202 L219,-231 Z" stroke-width="0" fill="#7d09c9" fill-opacity="0.16470588235294117" />
<path d="M202,-41 L76,-217 L47,-150 L221,-70 L39,-254 L161,-192 Z" stroke-width="0" fill="#7ec94d" fill-opacity="0.06666666666666667" />
<path d="M99,-279 L222,-160 L46,-106 L242,-137 L47,-235 L78,-119 Z" stroke-width="0" fill="#96efc8" fill-opacity="0.26666666666666666" />
<path d="M245,-228 L32,-166 L227,-133 L131,-114 L102,-158 L26,-158 Z" stroke-width="0" fill="#07193f" fill-opacity="0.23921568627450981" />
<path d="M135,-60 L112,-245 L115,-57 L165,-189 L85,-195 L162,-318 Z" stroke-width="0" fill="#69bef9" fill-opacity="0.1843137254901961" />
<path d="M226,-51 L179,-30 L153,-119 L39,-230 L74,-102 L77,-288 Z" stroke-width="0" fill="#155668" fill-opacity="0.3607843137254902" />
<path d="M39,-42 L219,-263 L27,-156 L43,-118 L209,-61 L93,-218 Z" stroke-width="0" fill="#729f8a" fill-opacity="0.36470588235294116" />
<path d="M103,-259 L82,-173 L249,-95 L44,-317 L171,-176 L130,-100 Z" stroke-width="0" fill="#335fb6" fill-opacity="0.40784313725490196" />
<path d="M130,-159 L142,-121 L34,-145 L139,-92 L72,-42 L224,-188 Z" stroke-width="0" fill="#0500c9" fill-opacity="0.15294117647058825" />
<path d="M143,-232 L38,-101 L39,-90 L55,-178 L81,-314 L176,-247 Z" stroke-width="0" fill="#aee8a6" fill-opacity="0.27058823529411763" />
<path d="M200,-70 L56,-118 L193,-141 L147,-210 L69,-250 L165,-106 Z" stroke-width="0" fill="#3aaa64" fill-opacity="0.5137254901960784" />
<path d="M174,-194 L128,-190 L123,-181 L173,-136 L152,-60 L47,-285 Z" stroke-width="0" fill="#7cbfb8" fill-opacity="0.24705882352941178" />
<path d="M59,-157 L164,-157 L115,-89 L130,-56 L69,-298 L162,-127 Z" stroke-width="0" fill="#73f39b" fill-opacity="0.47843137254901963" />
<path d="M30,-113 L76,-122 L102,-54 L207,-47 L114,-264 L199,-58 Z" stroke-width="0" fill="#6c9c9e" fill-opacity="0.3764705882352941" />
<path d="M205,-292 L91,-215 L108,-311 L66,-281 L77,-239 L69,-133 Z" stroke-width="0" fill="#f1fdf9" fill-opacity="0.7607843137254902" />
<path d="M138,-57 L145,-25 L52,-208 L177,-199 L47,-184 L229,-112 Z" stroke-width="0" fill="#3b52bc" fill-opacity="0.25098039215686274" />
<path d="M109,-269 L52,-56 L86,-135 L84,-129 L30,-302 L31,-86 Z" stroke-width="0" fill="#a0b6bd" fill-opacity="0.5764705882352941" />
<path d="M173,-100 L82,-62 L196,-51 L215,-304 L180,-193 L74,-105 Z" stroke-width="0" fill="#9465eb" fill-opacity="0.21568627450980393" />
<path d="M238,-87 L185,-262 L197,-189 L54,-286 L135,-183 L110,-25 Z" stroke-width="0" fill="#93636d" fill-opacity="0.3254901960784314" />
<path d="M172,-116 L113,-49 L70,-50 L200,-209 L165,-122 L176,-115 Z" stroke-width="0" fill="#eb0055" fill-opacity="0.12549019607843137" />
<path d="M182,-311 L45,-159 L67,-211 L181,-229 L229,-150 L187,-238 Z" stroke-width="0" fill="#93b6e8" fill-opacity="0.7529411764705882" />
<path d="M208,-69 L28,-148 L79,-209 L214,-192 L78,-197 L139,-155 Z" stroke-width="0" fill="#619ca5" fill-opacity="0.8196078431372549" />
<path d="M90,-318 L132,-179 L209,-56 L115,-65 L214,-77 L165,-175 Z" stroke-width="0" fill="#a55de9" fill-opacity="0.30196078431372547" />
<path d="M227,-189 L93,-245 L197,-158 L143,-225 L77,-182 L175,-50 Z" stroke-width="0" fill="#260df0" fill-opacity="0.11764705882352941" />
<path d="M194,-215 L171,-239 L175,-91 L137,-59 L81,-105 L93,-34 Z" stroke-width="0" fill="#5a5aef" fill-opacity="0.2627450980392157" />
<path d="M66,-239 L140,-312 L145,-84 L140,-186 L240,-283 L159,-126 Z" stroke-width="0" fill="#7fe0f2" fill-opacity="0.6901960784313725" />
<path d="M74,-168 L168,-36 L101,-218 L138,-252 L125,-65 L71,-142 Z" stroke-width="0" fill="#6aa6ad" fill-opacity="0.1607843137254902" />
<path d="M179,-187 L219,-183 L70,-62 L130,-254 L249,-115 L150,-80 Z" stroke-width="0" fill="#9dacb6" fill-opacity="0.19607843137254902" />
<path d="M138,-117 L217,-251 L220,-62 L47,-40 L30,-32 L150,-140 Z" stroke-width="0" fill="#37ab67" fill-opacity="0.5019607843137255" />
<path d="M62,-128 L121,-291 L167,-152 L37,-187 L70,-50 L170,-136 Z" stroke-width="0" fill="#cd66e2" fill-opacity="0.03529411764705882" />
<path d="M125,-68 L134,-88 L57,-276 L180,-64 L38,-60 L136,-172 Z" stroke-width="0" fill="#6e4fab" fill-opacity="0.13333333333333333" />
<text x="137.5" y="12.5" font-size="20.0" fill="black" text-anchor="middle" transform="translate(0,5.0)">4 OF AIR</text>
</svg>