<?xml version="1.0" encoding="UTF-8"?>
<svg xmlns="http://www.w3.org/2000/svg" xmlns:xlink="http://www.w3.org/1999/xlink"
     width="896" height="1496" viewBox="0 -1400 896 1496" style="font-size:70;font-family:Poor Richard, Times New Roman;stroke:black;stroke-width:1;fill:none">
<defs>
</defs>
<path d="M770,-518 L606,-462 L418,-934 L226,-906 L758,-582 L614,-530 Z" stroke-width="0" fill="#060cdc" fill-opacity="0.9333333333333333" />
<path d="M170,-1290 L358,-646 L410,-706 L718,-314 L422,-818 L254,-790 Z" stroke-width="0" fill="#44f1f1" fill-opacity="0.3607843137254902" />
<path d="M330,-1106 L658,-718 L590,-598 L130,-1206 L462,-802 L294,-230 Z" stroke-width="0" fill="#fdbd52" fill-opacity="0.5058823529411764" />
<path d="M298,-482 L642,-646 L506,-1070 L182,-374 L94,-510 L526,-870 Z" stroke-width="0" fill="#2153f5" fill-opacity="0.08627450980392157" />
<path d="M226,-166 L298,-934 L198,-266 L118,-738 L210,-1042 L262,-162 Z" stroke-width="0" fill="#e2a6f8" fill-opacity="0.047058823529411764" />
<path d="M414,-98 L382,-122 L586,-582 L294,-1054 L778,-826 L94,-466 Z" stroke-width="0" fill="#270000" fill-opacity="0.8627450980392157" />
<path d="M278,-1230 L366,-762 L786,-694 L766,-946 L674,-1262 L170,-786 Z" stroke-width="0" fill="#8b5f1e" fill-opacity="0.3058823529411765" />
<path d="M426,-786 L726,-450 L462,-146 L130,-1014 L670,-454 L222,-882 Z" stroke-width="0" fill="#371100" fill-opacity="0.6588235294117647" />
<path d="M330,-730 L570,-1282 L254,-702 L118,-314 L90,-698 L510,-170 Z" stroke-width="0" fill="#d3e5fc" fill-opacity="0.9490196078431372" />
<path d="M414,-314 L266,-94 L182,-598 L142,-422 L574,-510 L190,-386 Z" stroke-width="0" fill="#00072b" fill-opacity="1.0" />
<path d="M82,-246 L438,-834 L786,-470 L650,-594 L566,-994 L242,-574 Z" stroke-width="0" fill="#ba8a76" fill-opacity="0.7607843137254902" />
<path d="M558,-98 L434,-1274 L726,-1254 L138,-494 L790,-970 L274,-1218 Z" stroke-width="0" fill="#004c5f" fill-opacity="0.5294117647058824" />
<path d="M622,-642 L718,-1082 L570,-230 L126,-178 L498,-434 L182,-474 Z" stroke-width="0" fill="#c7ebb0" fill-opacity="0.9019607843137255" />
<path d="M766,-958 L366,-530 L406,-238 L82,-202 L534,-506 L442,-578 Z" stroke-width="0" fill="#f68528" fill-opacity="0.7176470588235294" />
<path d="M286,-322 L602,-1210 L398,-778 L354,-486 L790,-1062 L186,-1146 Z" stroke-width="0" fill="#0a4d37" fill-opacity="0.5019607843137255" />
<path d="M90,-1050 L458,-482 L318,-578 L242,-1130 L294,-742 L618,-1182 Z" stroke-width="0" fill="#0da9f6" fill-opacity="0.4588235294117647" />
<path d="M458,-474 L530,-758 L574,-1314 L218,-434 L798,-298 L314,-442 Z" stroke-width="0" fill="#303639" fill-opacity="0.6666666666666666" />
<path d="M414,-498 L434,-518 L354,-422 L446,-918 L442,-802 L714,-314 Z" stroke-width="0" fill="#da4009" fill-opacity="0.8509803921568627" />
<path d="M262,-546 L254,-1074 L214,-1258 L386,-174 L606,-654 L674,-678 Z" stroke-width="0" fill="#53a3a2" fill-opacity="0.7607843137254902" />
<path d="M662,-1078 L442,-466 L214,-1070 L166,-1130 L150,-490 L214,-966 Z" stroke-width="0" fill="#fac283" fill-opacity="0.9215686274509803" />
<path d="M566,-338 L594,-690 L174,-242 L438,-310 L190,-702 L106,-170 Z" stroke-width="0" fill="#f99321" fill-opacity="0.4745098039215686" />
<path d="M206,-614 L722,-342 L142,-1306 L322,-1310 L134,-1242 L90,-934 Z" stroke-width="0" fill="#184c50" fill-opacity="0.3803921568627451" />
<path d="M778,-1266 L146,-578 L566,-226 L690,-742 L86,-402 L110,-386 Z" stroke-width="0" fill="#f6efaf" fill-opacity="0.5333333333333333" />
<path d="M410,-898 L618,-778 L510,-290 L690,-1082 L426,-142 L222,-1282 Z" stroke-width="0" fill="#000030" fill-opacity="0.27450980392156865" />
<path d="M86,-310 L354,-890 L98,-330 L438,-1210 L510,-990 L126,-146 Z" stroke-width="0" fill="#1d0e1f" fill-opacity="0.5843137254901961" />
<path d="M194,-954 L102,-1086 L574,-382 L382,-258 L534,-626 L162,-774 Z" stroke-width="0" fill="#e6e83a" fill-opacity="0.27058823529411763" />
<path d="M258,-1034 L302,-366 L218,-154 L334,-1194 L686,-1306 L194,-846 Z" stroke-width="0" fill="#643b45" fill-opacity="0.6705882352941176" />
<path d="M662,-1238 L590,-294 L394,-618 L782,-986 L338,-1314 L526,-758 Z" stroke-width="0" fill="#dfe1c2" fill-opacity="0.8980392156862745" />
<path d="M486,-250 L318,-770 L170,-354 L350,-538 L162,-918 L374,-734 Z" stroke-width="0" fill="#307a00" fill-opacity="0.9019607843137255" />
<path d="M118,-774 L770,-674 L386,-490 L778,-310 L266,-422 L222,-98 Z" stroke-width="0" fill="#73034d" fill-opacity="0.8274509803921568" />
<path d="M422,-718 L346,-302 L746,-286 L574,-902 L770,-558 L762,-242 Z" stroke-width="0" fill="#e68000" fill-opacity="0.6352941176470588" />
<path d="M786,-518 L738,-710 L722,-442 L282,-874 L382,-338 L82,-1094 Z" stroke-width="0" fill="#cae2dc" fill-opacity="0.7058823529411765" />
<path d="M774,-1166 L90,-1094 L266,-1110 L274,-502 L210,-354 L574,-1062 Z" stroke-width="0" fill="#f7df9e" fill-opacity="0.9568627450980393" />
<path d="M286,-686 L298,-602 L614,-546 L734,-838 L462,-1226 L82,-950 Z" stroke-width="0" fill="#40fef1" fill-opacity="0.29411764705882354" />
<path d="M326,-554 L390,-494 L382,-762 L574,-318 L154,-170 L82,-1146 Z" stroke-width="0" fill="#97c283" fill-opacity="0.3764705882352941" />
<path d="M442,-826 L478,-102 L130,-426 L722,-474 L186,-1054 L538,-398 Z" stroke-width="0" fill="#240000" fill-opacity="0.8431372549019608" />
<path d="M758,-230 L666,-610 L518,-202 L102,-802 L82,-242 L386,-1266 Z" stroke-width="0" fill="#8b5519" fill-opacity="0.5254901960784314" />
<path d="M210,-642 L682,-870 L202,-118 L218,-938 L158,-1122 L202,-402 Z" stroke-width="0" fill="#54044f" fill-opacity="0.8980392156862745" />
<path d="M110,-1198 L578,-178 L674,-158 L366,-318 L314,-582 L538,-710 Z" stroke-width="0" fill="#f2b734" fill-opacity="0.5568627450980392" />
<path d="M330,-890 L190,-114 L638,-250 L322,-526 L714,-1094 L710,-278 Z" stroke-width="0" fill="#2e1820" fill-opacity="0.9019607843137255" />
<path d="M282,-374 L106,-478 L782,-1054 L262,-914 L350,-762 L362,-678 Z" stroke-width="0" fill="#debb82" fill-opacity="0.9882352941176471" />
<path d="M278,-834 L694,-1274 L330,-426 L686,-246 L702,-302 L310,-602 Z" stroke-width="0" fill="#f37f07" fill-opacity="0.6274509803921569" />
<path d="M114,-1086 L418,-674 L218,-126 L90,-306 L478,-522 L470,-1166 Z" stroke-width="0" fill="#771805" fill-opacity="0.11764705882352941" />
<path d="M634,-1018 L166,-638 L306,-302 L270,-406 L154,-510 L554,-522 Z" stroke-width="0" fill="#ed2a07" fill-opacity="0.6705882352941176" />
<path d="M138,-698 L402,-218 L706,-178 L246,-970 L138,-206 L98,-274 Z" stroke-width="0" fill="#857491" fill-opacity="0.13333333333333333" />
<path d="M122,-1038 L674,-310 L702,-158 L498,-142 L246,-682 L138,-218 Z" stroke-width="0" fill="#500e28" fill-opacity="0.7725490196078432" />
<path d="M530,-422 L106,-778 L738,-86 L438,-434 L790,-894 L562,-390 Z" stroke-width="0" fill="#861273" fill-opacity="0.7411764705882353" />
<path d="M310,-882 L118,-1306 L314,-958 L178,-310 L198,-306 L230,-670 Z" stroke-width="0" fill="#84b195" fill-opacity="0.6313725490196078" />
<path d="M750,-1222 L390,-226 L494,-966 L342,-310 L798,-90 L314,-1058 Z" stroke-width="0" fill="#830600" fill-opacity="0.6862745098039216" />
<path d="M294,-798 L722,-642 L594,-210 L406,-634 L722,-338 L314,-858 Z" stroke-width="0" fill="#557c00" fill-opacity="0.34901960784313724" />
<path d="M642,-842 L294,-294 L430,-298 L622,-1170 L250,-734 L134,-690 Z" stroke-width="0" fill="#adea00" fill-opacity="0.996078431372549" />
<path d="M262,-974 L278,-866 L262,-234 L534,-550 L362,-530 L166,-766 Z" stroke-width="0" fill="#6f4318" fill-opacity="0.01568627450980392" />
<path d="M130,-450 L318,-718 L162,-962 L418,-722 L458,-330 L122,-86 Z" stroke-width="0" fill="#e9825b" fill-opacity="0.6078431372549019" />
<path d="M286,-166 L538,-990 L462,-194 L530,-1030 L466,-634 L514,-1266 Z" stroke-width="0" fill="#b25203" fill-opacity="0.17254901960784313" />
<path d="M130,-986 L666,-862 L662,-786 L430,-930 L214,-990 L102,-766 Z" stroke-width="0" fill="#b7f1cb" fill-opacity="0.7058823529411765" />
<path d="M658,-1206 L278,-1258 L274,-618 L422,-214 L134,-222 L442,-406 Z" stroke-width="0" fill="#9d4a72" fill-opacity="0.5019607843137255" />
<path d="M726,-310 L314,-662 L158,-578 L582,-690 L246,-1074 L110,-930 Z" stroke-width="0" fill="#89d1f2" fill-opacity="0.4470588235294118" />
<path d="M394,-1310 L270,-1162 L714,-686 L622,-950 L346,-110 L494,-1050 Z" stroke-width="0" fill="#46b891" fill-opacity="0.6784313725490196" />
<path d="M126,-886 L154,-574 L298,-310 L210,-1046 L362,-198 L686,-626 Z" stroke-width="0" fill="#b7f3d7" fill-opacity="0.6941176470588235" />
<path d="M658,-930 L262,-270 L294,-518 L250,-1310 L374,-746 L366,-354 Z" stroke-width="0" fill="#006f81" fill-opacity="0.5019607843137255" />
<path d="M290,-1258 L458,-1282 L330,-102 L114,-426 L442,-366 L790,-770 Z" stroke-width="0" fill="#50398a" fill-opacity="0.4" />
<path d="M194,-250 L526,-622 L154,-398 L582,-586 L562,-1078 L422,-910 Z" stroke-width="0" fill="#023f05" fill-opacity="0.10980392156862745" />
<path d="M278,-542 L266,-378 L382,-326 L706,-874 L278,-1278 L666,-562 Z" stroke-width="0" fill="#f7cd87" fill-opacity="0.7843137254901961" />
<path d="M662,-498 L686,-1042 L178,-1210 L806,-1278 L754,-978 L610,-98 Z" stroke-width="0" fill="#7c9a99" fill-opacity="1.0" />
<path d="M522,-1098 L786,-1158 L98,-626 L222,-254 L590,-470 L666,-958 Z" stroke-width="0" fill="#9fd2b0" fill-opacity="0.4666666666666667" />
<path d="M282,-754 L630,-870 L294,-534 L470,-1070 L534,-790 L90,-1206 Z" stroke-width="0" fill="#e0fe94" fill-opacity="0.792156862745098" />
<path d="M722,-914 L94,-226 L298,-446 L686,-238 L342,-602 L482,-890 Z" stroke-width="0" fill="#e06971" fill-opacity="0.20784313725490197" />
<path d="M150,-282 L422,-694 L582,-1138 L546,-122 L510,-882 L102,-110 Z" stroke-width="0" fill="#343d60" fill-opacity="0.09411764705882353" />
<path d="M402,-222 L186,-526 L326,-1074 L342,-186 L626,-534 L138,-426 Z" stroke-width="0" fill="#e7c3b6" fill-opacity="0.3568627450980392" />
<path d="M366,-1154 L314,-438 L198,-810 L626,-370 L498,-222 L310,-566 Z" stroke-width="0" fill="#ff9813" fill-opacity="0.15294117647058825" />
<path d="M674,-546 L146,-698 L270,-262 L282,-506 L122,-1130 L330,-1202 Z" stroke-width="0" fill="#e9cfa7" fill-opacity="0.9686274509803922" />
<path d="M146,-514 L458,-670 L146,-494 L414,-730 L454,-182 L122,-474 Z" stroke-width="0" fill="#df663a" fill-opacity="0.16470588235294117" />
<path d="M134,-642 L210,-406 L130,-970 L794,-390 L690,-230 L290,-1090 Z" stroke-width="0" fill="#b9f3cc" fill-opacity="0.4549019607843137" />
<path d="M178,-386 L622,-802 L354,-314 L506,-898 L334,-994 L406,-226 Z" stroke-width="0" fill="#59693e" fill-opacity="0.5215686274509804" />
<path d="M394,-1102 L422,-922 L366,-554 L406,-750 L122,-474 L526,-374 Z" stroke-width="0" fill="#f4f2ca" fill-opacity="0.5529411764705883" />
<path d="M414,-1218 L662,-270 L234,-498 L386,-594 L562,-510 L530,-782 Z" stroke-width="0" fill="#f7d347" fill-opacity="0.5215686274509804" />
<path d="M270,-734 L182,-714 L526,-1030 L634,-998 L418,-1134 L338,-294 Z" stroke-width="0" fill="#f8f98b" fill-opacity="0.996078431372549" />
<path d="M702,-1258 L138,-122 L130,-622 L678,-714 L110,-1250 L226,-558 Z" stroke-width="0" fill="#e8fff1" fill-opacity="0.058823529411764705" />
<path d="M318,-682 L738,-606 L294,-594 L642,-170 L566,-806 L478,-546 Z" stroke-width="0" fill="#65002d" fill-opacity="0.42745098039215684" />
<path d="M178,-826 L114,-1018 L682,-434 L506,-858 L562,-934 L142,-466 Z" stroke-width="0" fill="#99d0c7" fill-opacity="0.8509803921568627" />
<path d="M154,-238 L494,-898 L482,-582 L790,-678 L746,-1046 L794,-462 Z" stroke-width="0" fill="#c51f54" fill-opacity="0.5019607843137255" />
<path d="M314,-222 L218,-1254 L178,-722 L482,-762 L430,-542 L134,-470 Z" stroke-width="0" fill="#e2ecf5" fill-opacity="0.023529411764705882" />
<path d="M350,-986 L682,-130 L166,-402 L334,-922 L450,-146 L522,-982 Z" stroke-width="0" fill="#febd4f" fill-opacity="0.25098039215686274" />
<path d="M202,-846 L298,-1174 L650,-250 L422,-950 L214,-346 L214,-462 Z" stroke-width="0" fill="#c6c0ff" fill-opacity="0.08627450980392157" />
<path d="M542,-250 L238,-314 L358,-194 L94,-706 L118,-862 L498,-750 Z" stroke-width="0" fill="#9ec8c8" fill-opacity="0.24705882352941178" />
<path d="M430,-250 L450,-126 L614,-554 L406,-774 L286,-774 L254,-1086 Z" stroke-width="0" fill="#ee99f6" fill-opacity="0.058823529411764705" />
<path d="M674,-1102 L146,-622 L694,-1006 L710,-318 L290,-898 L526,-270 Z" stroke-width="0" fill="#c8e5b6" fill-opacity="0.7647058823529411" />
<path d="M226,-250 L350,-838 L90,-1086 L598,-510 L706,-630 L358,-1222 Z" stroke-width="0" fill="#efb2cc" fill-opacity="0.21568627450980393" />
<path d="M222,-610 L182,-150 L382,-226 L82,-642 L394,-1130 L674,-1314 Z" stroke-width="0" fill="#8afe55" fill-opacity="0.16862745098039217" />
<path d="M486,-1150 L142,-458 L690,-550 L730,-202 L766,-934 L798,-226 Z" stroke-width="0" fill="#d4d2be" fill-opacity="0.9607843137254902" />
<path d="M606,-530 L798,-362 L114,-1062 L366,-470 L638,-394 L126,-406 Z" stroke-width="0" fill="#d8dfca" fill-opacity="0.9019607843137255" />
<path d="M526,-550 L102,-926 L486,-642 L786,-1302 L82,-658 L390,-1154 Z" stroke-width="0" fill="#dcd8bf" fill-opacity="0.29411764705882354" />
<path d="M258,-902 L118,-426 L522,-714 L426,-1062 L206,-430 L714,-1130 Z" stroke-width="0" fill="#9cce7b" fill-opacity="0.17647058823529413" />
<path d="M126,-658 L474,-1254 L214,-994 L382,-342 L686,-794 L282,-346 Z" stroke-width="0" fill="#dbb59f" fill-opacity="0.23529411764705882" />
<path d="M446,-162 L806,-570 L118,-578 L134,-846 L490,-598 L522,-214 Z" stroke-width="0" fill="#f69401" fill-opacity="0.13333333333333333" />
<path d="M666,-94 L434,-762 L162,-630 L126,-534 L790,-306 L310,-370 Z" stroke-width="0" fill="#d87264" fill-opacity="0.16862745098039217" />
<path d="M366,-202 L358,-426 L774,-894 L794,-682 L634,-258 L754,-502 Z" stroke-width="0" fill="#f7eb86" fill-opacity="0.5647058823529412" />
<path d="M770,-386 L318,-570 L510,-506 L122,-1254 L446,-1090 L718,-734 Z" stroke-width="0" fill="#e5ed9f" fill-opacity="0.2901960784313726" />
<path d="M186,-754 L698,-1310 L366,-1094 L606,-602 L194,-306 L82,-586 Z" stroke-width="0" fill="#ebf9ff" fill-opacity="0.09411764705882353" />
<path d="M694,-950 L554,-562 L426,-734 L782,-878 L482,-474 L474,-282 Z" stroke-width="0" fill="#e68084" fill-opacity="0.4588235294117647" />
<text x="448.0" y="0" font-size="70.0" fill="black" text-anchor="middle" transform="translate(0,17.5)">PAGE OF AIR</text>
</svg>