<?xml version="1.0" encoding="UTF-8"?>
<svg xmlns="http://www.w3.org/2000/svg" xmlns:xlink="http://www.w3.org/1999/xlink"
     width="896" height="1496" viewBox="0 -1400 896 1496" style="font-size:70;font-family:Poor Richard, Times New Roman;stroke:black;stroke-width:1;fill:none">
<defs>
</defs>
<path d="M94,-522 L94,-166 L414,-258 L554,-322 L238,-558 L670,-922 Z" stroke-width="0" fill="#1e2130" fill-opacity="0.8941176470588236" />
<path d="M746,-106 L406,-1098 L278,-1178 L114,-886 L622,-1122 L106,-282 Z" stroke-width="0" fill="#000000" fill-opacity="0.8431372549019608" />
<path d="M602,-582 L446,-814 L750,-294 L754,-326 L498,-1002 L170,-950 Z" stroke-width="0" fill="#09300c" fill-opacity="0.9803921568627451" />
<path d="M490,-626 L186,-462 L810,-650 L414,-102 L390,-198 L458,-610 Z" stroke-width="0" fill="#792f12" fill-opacity="0.5254901960784314" />
<path d="M222,-570 L98,-1218 L502,-502 L326,-890 L358,-570 L178,-938 Z" stroke-width="0" fill="#040000" fill-opacity="0.9607843137254902" />
<path d="M330,-830 L258,-82 L250,-138 L370,-134 L86,-370 L418,-1126 Z" stroke-width="0" fill="#78f9ca" fill-opacity="0.12941176470588237" />
<path d="M82,-802 L702,-666 L422,-318 L798,-938 L90,-366 L346,-138 Z" stroke-width="0" fill="#35699b" fill-opacity="0.6196078431372549" />
<path d="M374,-654 L498,-794 L462,-930 L554,-310 L310,-310 L254,-106 Z" stroke-width="0" fill="#0430c2" fill-opacity="0.16470588235294117" />
<path d="M142,-910 L490,-550 L122,-606 L158,-822 L238,-1170 L94,-1162 Z" stroke-width="0" fill="#000000" fill-opacity="0.8823529411764706" />
<path d="M198,-914 L390,-494 L222,-178 L702,-206 L534,-582 L286,-266 Z" stroke-width="0" fill="#263100" fill-opacity="0.9450980392156862" />
<path d="M442,-466 L162,-1146 L326,-830 L434,-1146 L506,-302 L486,-506 Z" stroke-width="0" fill="#060000" fill-opacity="0.9137254901960784" />
<path d="M486,-294 L538,-354 L770,-198 L674,-222 L86,-638 L662,-538 Z" stroke-width="0" fill="#000000" fill-opacity="0.807843137254902" />
<path d="M222,-146 L694,-1010 L630,-82 L306,-122 L626,-202 L614,-1166 Z" stroke-width="0" fill="#000e38" fill-opacity="0.5019607843137255" />
<path d="M786,-370 L518,-874 L378,-958 L526,-1142 L218,-310 L122,-654 Z" stroke-width="0" fill="#000000" fill-opacity="0.792156862745098" />
<path d="M222,-662 L778,-1106 L110,-762 L790,-866 L442,-930 L306,-262 Z" stroke-width="0" fill="#f088ca" fill-opacity="0.9254901960784314" />
<path d="M86,-522 L466,-902 L642,-702 L202,-382 L442,-450 L590,-1194 Z" stroke-width="0" fill="#000000" fill-opacity="0.9490196078431372" />
<path d="M306,-1130 L798,-1242 L290,-442 L602,-758 L534,-482 L642,-206 Z" stroke-width="0" fill="#000000" fill-opacity="0.8666666666666667" />
<path d="M134,-618 L754,-114 L690,-614 L254,-206 L574,-1046 L486,-226 Z" stroke-width="0" fill="#0c231c" fill-opacity="0.8901960784313725" />
<path d="M414,-334 L650,-246 L266,-722 L126,-230 L438,-882 L662,-1266 Z" stroke-width="0" fill="#6e4b31" fill-opacity="0.6901960784313725" />
<path d="M694,-222 L566,-962 L646,-126 L438,-266 L246,-210 L782,-534 Z" stroke-width="0" fill="#000b03" fill-opacity="0.2980392156862745" />
<path d="M154,-1034 L162,-830 L438,-282 L402,-378 L590,-286 L626,-306 Z" stroke-width="0" fill="#51ff63" fill-opacity="0.01568627450980392" />
<path d="M538,-398 L346,-1054 L346,-266 L558,-1146 L798,-750 L726,-374 Z" stroke-width="0" fill="#d6c084" fill-opacity="0.5019607843137255" />
<path d="M118,-610 L482,-162 L230,-414 L582,-874 L490,-182 L222,-242 Z" stroke-width="0" fill="#1e4915" fill-opacity="0.5647058823529412" />
<path d="M590,-922 L798,-206 L638,-1290 L246,-942 L634,-798 L242,-1294 Z" stroke-width="0" fill="#564308" fill-opacity="0.5294117647058824" />
<path d="M114,-466 L210,-130 L466,-742 L98,-338 L434,-418 L246,-914 Z" stroke-width="0" fill="#211d00" fill-opacity="0.7568627450980392" />
<path d="M582,-394 L326,-1074 L522,-586 L318,-290 L290,-766 L430,-342 Z" stroke-width="0" fill="#031506" fill-opacity="0.8431372549019608" />
<path d="M322,-1142 L426,-1054 L702,-1178 L210,-354 L646,-1290 L402,-1278 Z" stroke-width="0" fill="#0f0900" fill-opacity="0.7607843137254902" />
<path d="M202,-786 L562,-1174 L338,-202 L702,-350 L434,-1246 L754,-130 Z" stroke-width="0" fill="#171b3f" fill-opacity="0.1607843137254902" />
<path d="M114,-986 L522,-826 L494,-1182 L346,-706 L218,-222 L94,-1026 Z" stroke-width="0" fill="#000157" fill-opacity="0.9411764705882353" />
<path d="M606,-1026 L174,-978 L406,-154 L194,-718 L458,-802 L550,-206 Z" stroke-width="0" fill="#7b6f5d" fill-opacity="0.43529411764705883" />
<path d="M778,-118 L610,-350 L526,-198 L646,-314 L718,-1210 L390,-206 Z" stroke-width="0" fill="#1e1320" fill-opacity="0.803921568627451" />
<path d="M486,-486 L142,-1270 L290,-1094 L790,-1118 L574,-1122 L790,-698 Z" stroke-width="0" fill="#0d0000" fill-opacity="0.7803921568627451" />
<path d="M398,-666 L342,-122 L590,-586 L562,-222 L210,-442 L302,-338 Z" stroke-width="0" fill="#08fa97" fill-opacity="0.047058823529411764" />
<path d="M222,-550 L122,-1098 L486,-654 L278,-862 L162,-518 L466,-202 Z" stroke-width="0" fill="#181720" fill-opacity="0.18823529411764706" />
<path d="M458,-666 L374,-618 L686,-738 L778,-1154 L202,-330 L350,-486 Z" stroke-width="0" fill="#4a3738" fill-opacity="0.9411764705882353" />
<path d="M806,-1210 L270,-422 L374,-1158 L218,-514 L810,-682 L330,-586 Z" stroke-width="0" fill="#200400" fill-opacity="0.6862745098039216" />
<path d="M594,-290 L526,-294 L614,-454 L494,-362 L698,-1042 L326,-270 Z" stroke-width="0" fill="#1a5c18" fill-opacity="0.1450980392156863" />
<path d="M234,-826 L466,-1110 L126,-690 L118,-750 L218,-630 L486,-322 Z" stroke-width="0" fill="#080000" fill-opacity="0.9803921568627451" />
<path d="M142,-302 L158,-1042 L158,-146 L674,-1150 L238,-598 L482,-930 Z" stroke-width="0" fill="#2d3b41" fill-opacity="0.7686274509803922" />
<path d="M442,-902 L698,-634 L322,-902 L130,-770 L410,-106 L174,-746 Z" stroke-width="0" fill="#d8d4e8" fill-opacity="0.23921568627450981" />
<path d="M182,-290 L102,-926 L314,-826 L82,-906 L174,-762 L482,-850 Z" stroke-width="0" fill="#010015" fill-opacity="0.9607843137254902" />
<path d="M202,-846 L398,-614 L362,-530 L646,-1094 L194,-1030 L370,-318 Z" stroke-width="0" fill="#000823" fill-opacity="0.43137254901960786" />
<path d="M470,-218 L370,-114 L654,-170 L526,-958 L186,-858 L126,-682 Z" stroke-width="0" fill="#3ad2cd" fill-opacity="0.047058823529411764" />
<path d="M226,-258 L198,-82 L218,-670 L602,-778 L242,-150 L286,-986 Z" stroke-width="0" fill="#006064" fill-opacity="0.5176470588235295" />
<path d="M502,-430 L138,-958 L626,-166 L758,-1202 L482,-590 L410,-842 Z" stroke-width="0" fill="#0c0a0f" fill-opacity="0.9647058823529412" />
<path d="M198,-814 L566,-386 L790,-574 L214,-414 L626,-342 L198,-1158 Z" stroke-width="0" fill="#a0060d" fill-opacity="0.3137254901960784" />
<path d="M698,-242 L530,-934 L622,-338 L230,-178 L638,-806 L230,-94 Z" stroke-width="0" fill="#3b5279" fill-opacity="0.5019607843137255" />
<path d="M794,-254 L706,-714 L386,-614 L282,-1254 L802,-946 L114,-614 Z" stroke-width="0" fill="#00001b" fill-opacity="0.9921568627450981" />
<path d="M394,-866 L754,-1038 L234,-186 L134,-690 L662,-758 L530,-710 Z" stroke-width="0" fill="#2c32cb" fill-opacity="0.4196078431372549" />
<path d="M374,-486 L218,-590 L218,-834 L694,-838 L218,-1126 L498,-254 Z" stroke-width="0" fill="#5b222b" fill-opacity="0.24313725490196078" />
<path d="M166,-650 L290,-510 L306,-230 L430,-250 L538,-954 L142,-1010 Z" stroke-width="0" fill="#264e54" fill-opacity="0.3058823529411765" />
<path d="M374,-710 L586,-566 L622,-262 L322,-758 L658,-1278 L574,-586 Z" stroke-width="0" fill="#0c1e33" fill-opacity="0.5843137254901961" />
<path d="M566,-526 L762,-726 L442,-278 L494,-478 L190,-214 L662,-834 Z" stroke-width="0" fill="#6cb247" fill-opacity="0.3686274509803922" />
<path d="M498,-410 L166,-770 L410,-582 L138,-130 L746,-1018 L594,-586 Z" stroke-width="0" fill="#122c73" fill-opacity="0.6235294117647059" />
<path d="M334,-1166 L418,-170 L390,-754 L510,-1018 L330,-882 L286,-246 Z" stroke-width="0" fill="#3d4c8b" fill-opacity="0.2549019607843137" />
<path d="M490,-742 L702,-914 L226,-1170 L526,-682 L122,-906 L378,-1150 Z" stroke-width="0" fill="#190700" fill-opacity="0.8784313725490196" />
<path d="M170,-274 L726,-642 L530,-1022 L742,-646 L670,-1246 L510,-246 Z" stroke-width="0" fill="#f6c3f6" fill-opacity="0.35294117647058826" />
<path d="M758,-1134 L198,-1066 L770,-94 L338,-970 L198,-1190 L726,-238 Z" stroke-width="0" fill="#f0b09d" fill-opacity="0.792156862745098" />
<path d="M170,-258 L158,-102 L710,-1202 L190,-1274 L330,-1062 L230,-1006 Z" stroke-width="0" fill="#38534f" fill-opacity="0.8352941176470589" />
<path d="M414,-462 L710,-1270 L350,-330 L326,-1270 L370,-950 L182,-1182 Z" stroke-width="0" fill="#092e00" fill-opacity="0.6980392156862745" />
<path d="M538,-570 L334,-1310 L454,-934 L162,-1154 L394,-706 L606,-614 Z" stroke-width="0" fill="#0d0100" fill-opacity="0.9254901960784314" />
<path d="M610,-110 L218,-854 L238,-82 L490,-954 L278,-486 L674,-658 Z" stroke-width="0" fill="#181d00" fill-opacity="0.49411764705882355" />
<path d="M254,-878 L694,-546 L174,-1242 L778,-1198 L134,-370 L602,-358 Z" stroke-width="0" fill="#1e0645" fill-opacity="0.7647058823529411" />
<path d="M454,-146 L482,-986 L766,-558 L458,-406 L450,-186 L186,-190 Z" stroke-width="0" fill="#a2f3e9" fill-opacity="0.5803921568627451" />
<path d="M794,-978 L354,-1178 L686,-598 L234,-1170 L190,-866 L470,-138 Z" stroke-width="0" fill="#d5c4c5" fill-opacity="0.8705882352941177" />
<path d="M698,-190 L658,-422 L362,-1238 L318,-1258 L238,-426 L554,-1094 Z" stroke-width="0" fill="#2e3142" fill-opacity="0.8745098039215686" />
<path d="M626,-622 L698,-282 L542,-1134 L602,-482 L230,-1034 L502,-1082 Z" stroke-width="0" fill="#3c202a" fill-opacity="0.8509803921568627" />
<path d="M274,-1110 L774,-90 L354,-546 L238,-370 L110,-638 L394,-838 Z" stroke-width="0" fill="#001408" fill-opacity="0.9019607843137255" />
<path d="M478,-170 L506,-746 L106,-1122 L186,-1022 L430,-606 L506,-1238 Z" stroke-width="0" fill="#dbf8f6" fill-opacity="0.0392156862745098" />
<path d="M618,-646 L334,-986 L222,-602 L590,-1090 L230,-934 L806,-734 Z" stroke-width="0" fill="#fbf7fd" fill-opacity="0.8" />
<path d="M222,-1254 L798,-110 L238,-782 L622,-422 L646,-662 L510,-1286 Z" stroke-width="0" fill="#262100" fill-opacity="0.7215686274509804" />
<path d="M378,-694 L158,-278 L274,-1134 L690,-634 L446,-658 L786,-870 Z" stroke-width="0" fill="#fdd743" fill-opacity="0.19215686274509805" />
<path d="M326,-414 L622,-870 L326,-914 L86,-586 L634,-1122 L98,-346 Z" stroke-width="0" fill="#14062a" fill-opacity="0.7686274509803922" />
<path d="M794,-614 L354,-250 L254,-566 L550,-990 L494,-462 L222,-246 Z" stroke-width="0" fill="#10509c" fill-opacity="0.0784313725490196" />
<path d="M442,-378 L206,-418 L138,-890 L318,-762 L170,-1098 L802,-1098 Z" stroke-width="0" fill="#2c285e" fill-opacity="0.5019607843137255" />
<path d="M534,-786 L506,-162 L418,-158 L270,-918 L662,-770 L274,-466 Z" stroke-width="0" fill="#010011" fill-opacity="0.3411764705882353" />
<path d="M166,-1070 L370,-766 L282,-742 L310,-950 L430,-610 L274,-194 Z" stroke-width="0" fill="#4dbf66" fill-opacity="0.25098039215686274" />
<path d="M118,-338 L774,-858 L374,-1214 L514,-490 L750,-238 L486,-450 Z" stroke-width="0" fill="#ba9789" fill-opacity="0.28627450980392155" />
<path d="M306,-402 L686,-166 L366,-662 L90,-1278 L374,-270 L266,-954 Z" stroke-width="0" fill="#101e0a" fill-opacity="0.8941176470588236" />
<path d="M802,-638 L422,-926 L638,-234 L390,-346 L494,-802 L506,-702 Z" stroke-width="0" fill="#ebd4e1" fill-opacity="0.23137254901960785" />
<path d="M250,-506 L594,-258 L694,-1106 L362,-578 L606,-1150 L134,-950 Z" stroke-width="0" fill="#094d6b" fill-opacity="0.2980392156862745" />
<path d="M490,-274 L214,-1182 L782,-482 L686,-90 L610,-1078 L178,-578 Z" stroke-width="0" fill="#000000" fill-opacity="0.9098039215686274" />
<path d="M766,-478 L234,-1274 L318,-418 L198,-474 L206,-1298 L702,-1154 Z" stroke-width="0" fill="#5d5402" fill-opacity="0.21568627450980393" />
<path d="M214,-546 L562,-614 L358,-518 L134,-666 L234,-978 L194,-706 Z" stroke-width="0" fill="#004572" fill-opacity="0.4627450980392157" />
<path d="M90,-282 L470,-526 L94,-918 L706,-654 L654,-294 L334,-698 Z" stroke-width="0" fill="#010202" fill-opacity="0.5607843137254902" />
<path d="M586,-338 L506,-398 L210,-694 L454,-758 L146,-1310 L346,-886 Z" stroke-width="0" fill="#655f67" fill-opacity="0.7098039215686275" />
<path d="M478,-1230 L134,-742 L146,-526 L130,-190 L406,-614 L90,-1082 Z" stroke-width="0" fill="#2b2c19" fill-opacity="0.596078431372549" />
<path d="M538,-394 L590,-1194 L534,-402 L310,-534 L158,-458 L426,-458 Z" stroke-width="0" fill="#4e3d41" fill-opacity="0.14901960784313725" />
<path d="M630,-1178 L598,-778 L294,-766 L154,-642 L294,-602 L402,-82 Z" stroke-width="0" fill="#384b7b" fill-opacity="0.2196078431372549" />
<path d="M802,-986 L758,-266 L298,-366 L638,-830 L418,-274 L514,-522 Z" stroke-width="0" fill="#915e33" fill-opacity="0.1411764705882353" />
<path d="M242,-1210 L210,-1046 L654,-674 L786,-506 L514,-114 L206,-838 Z" stroke-width="0" fill="#00060a" fill-opacity="0.49411764705882355" />
<path d="M546,-730 L758,-1162 L646,-1038 L138,-654 L418,-462 L394,-686 Z" stroke-width="0" fill="#000000" fill-opacity="0.7490196078431373" />
<path d="M782,-922 L742,-654 L638,-938 L130,-190 L90,-714 L86,-1070 Z" stroke-width="0" fill="#343129" fill-opacity="0.7686274509803922" />
<path d="M754,-1258 L266,-946 L162,-94 L358,-158 L446,-930 L250,-878 Z" stroke-width="0" fill="#5a777c" fill-opacity="0.5019607843137255" />
<path d="M602,-1010 L186,-446 L326,-722 L198,-386 L502,-1242 L546,-246 Z" stroke-width="0" fill="#6a7b06" fill-opacity="0.058823529411764705" />
<path d="M582,-918 L150,-322 L434,-774 L274,-874 L418,-506 L390,-142 Z" stroke-width="0" fill="#696d5d" fill-opacity="0.2784313725490196" />
<path d="M342,-846 L274,-1202 L342,-542 L382,-342 L142,-86 L406,-410 Z" stroke-width="0" fill="#89bea8" fill-opacity="0.22745098039215686" />
<path d="M446,-214 L142,-286 L178,-1078 L210,-526 L446,-318 L150,-314 Z" stroke-width="0" fill="#070318" fill-opacity="0.18823529411764706" />
<path d="M518,-434 L390,-1018 L418,-626 L710,-330 L390,-1314 L450,-850 Z" stroke-width="0" fill="#333e46" fill-opacity="0.043137254901960784" />
<path d="M622,-538 L194,-874 L402,-650 L262,-994 L390,-234 L778,-1282 Z" stroke-width="0" fill="#bae3db" fill-opacity="0.054901960784313725" />
<text x="448.0" y="0" font-size="70.0" fill="black" text-anchor="middle" transform="translate(0,17.5)">KNIGHT OF AIR</text>
</svg>