<?xml version="1.0" encoding="UTF-8"?>
<svg xmlns="http://www.w3.org/2000/svg" xmlns:xlink="http://www.w3.org/1999/xlink"
     width="896" height="1496" viewBox="0 -1400 896 1496" style="font-size:70;font-family:Poor Richard, Times New Roman;stroke:black;stroke-width:1;fill:none">
<defs>
</defs>
<path d="M402,-870 L662,-1122 L786,-566 L206,-114 L194,-222 L718,-226 Z" stroke-width="0" fill="#000012" fill-opacity="0.7215686274509804" />
<path d="M566,-354 L486,-802 L342,-138 L698,-782 L754,-882 L806,-1266 Z" stroke-width="0" fill="#00002c" fill-opacity="0.8117647058823529" />
<path d="M170,-498 L594,-678 L250,-1154 L542,-1054 L338,-606 L642,-526 Z" stroke-width="0" fill="#a18151" fill-opacity="0.5137254901960784" />
<path d="M146,-262 L230,-494 L238,-1274 L502,-634 L350,-630 L366,-818 Z" stroke-width="0" fill="#000000" fill-opacity="0.803921568627451" />
<path d="M778,-506 L162,-958 L262,-286 L318,-1098 L422,-274 L346,-422 Z" stroke-width="0" fill="#fe7a79" fill-opacity="0.5215686274509804" />
<path d="M542,-190 L402,-330 L550,-394 L654,-330 L94,-1282 L450,-1138 Z" stroke-width="0" fill="#000000" fill-opacity="0.9019607843137255" />
<path d="M486,-478 L666,-234 L198,-926 L222,-614 L462,-230 L474,-362 Z" stroke-width="0" fill="#dbd3ff" fill-opacity="0.7372549019607844" />
<path d="M266,-690 L314,-622 L494,-402 L258,-234 L702,-186 L458,-610 Z" stroke-width="0" fill="#030106" fill-opacity="0.9607843137254902" />
<path d="M474,-1174 L750,-862 L202,-406 L590,-814 L366,-970 L258,-758 Z" stroke-width="0" fill="#e84c05" fill-opacity="0.13725490196078433" />
<path d="M778,-518 L570,-742 L474,-810 L506,-686 L250,-190 L738,-254 Z" stroke-width="0" fill="#6982d8" fill-opacity="0.7294117647058823" />
<path d="M322,-1066 L730,-1186 L318,-654 L546,-94 L334,-662 L478,-618 Z" stroke-width="0" fill="#384767" fill-opacity="0.8" />
<path d="M114,-206 L554,-694 L746,-1210 L638,-710 L126,-1118 L334,-1158 Z" stroke-width="0" fill="#181b3c" fill-opacity="0.49019607843137253" />
<path d="M470,-610 L510,-246 L290,-430 L158,-190 L530,-722 L386,-538 Z" stroke-width="0" fill="#0456e1" fill-opacity="0.20784313725490197" />
<path d="M322,-990 L738,-638 L130,-1190 L494,-390 L358,-926 L110,-890 Z" stroke-width="0" fill="#c7f510" fill-opacity="0.6901960784313725" />
<path d="M226,-1162 L230,-798 L538,-366 L106,-966 L694,-1018 L502,-266 Z" stroke-width="0" fill="#000000" fill-opacity="0.8235294117647058" />
<path d="M142,-346 L310,-922 L218,-218 L234,-678 L334,-238 L546,-138 Z" stroke-width="0" fill="#d1e1f0" fill-opacity="0.9098039215686274" />
<path d="M326,-394 L574,-414 L250,-398 L462,-1258 L154,-606 L682,-602 Z" stroke-width="0" fill="#86551c" fill-opacity="0.07058823529411765" />
<path d="M766,-958 L806,-1250 L734,-1062 L194,-846 L294,-1306 L614,-1178 Z" stroke-width="0" fill="#000000" fill-opacity="0.6705882352941176" />
<path d="M218,-958 L226,-1122 L426,-270 L210,-534 L318,-1126 L758,-518 Z" stroke-width="0" fill="#d1d1b1" fill-opacity="0.8" />
<path d="M82,-262 L318,-1214 L306,-150 L254,-1030 L406,-822 L654,-438 Z" stroke-width="0" fill="#2c2613" fill-opacity="0.4392156862745098" />
<path d="M502,-386 L750,-306 L298,-1294 L602,-566 L686,-1270 L250,-462 Z" stroke-width="0" fill="#9786b5" fill-opacity="0.8666666666666667" />
<path d="M578,-770 L222,-226 L654,-102 L426,-210 L218,-1118 L350,-1062 Z" stroke-width="0" fill="#000938" fill-opacity="0.5764705882352941" />
<path d="M762,-634 L526,-210 L318,-222 L362,-98 L698,-574 L194,-990 Z" stroke-width="0" fill="#303e52" fill-opacity="0.6627450980392157" />
<path d="M318,-542 L690,-106 L430,-230 L170,-206 L670,-978 L530,-1150 Z" stroke-width="0" fill="#00003c" fill-opacity="0.6313725490196078" />
<path d="M238,-270 L454,-1066 L146,-1154 L110,-846 L186,-426 L318,-742 Z" stroke-width="0" fill="#080100" fill-opacity="0.7372549019607844" />
<path d="M690,-334 L106,-306 L762,-1022 L438,-502 L454,-574 L266,-534 Z" stroke-width="0" fill="#931637" fill-opacity="0.1450980392156863" />
<path d="M638,-606 L614,-630 L354,-866 L654,-462 L674,-482 L246,-778 Z" stroke-width="0" fill="#5d5762" fill-opacity="0.7411764705882353" />
<path d="M154,-882 L418,-818 L482,-490 L662,-730 L178,-242 L734,-718 Z" stroke-width="0" fill="#395e1b" fill-opacity="0.807843137254902" />
<path d="M150,-226 L150,-694 L122,-654 L374,-534 L770,-198 L738,-598 Z" stroke-width="0" fill="#4f2965" fill-opacity="0.8431372549019608" />
<path d="M110,-362 L378,-982 L198,-150 L314,-402 L310,-1202 L574,-610 Z" stroke-width="0" fill="#454272" fill-opacity="0.9137254901960784" />
<path d="M222,-882 L682,-674 L206,-710 L398,-430 L178,-1298 L246,-1074 Z" stroke-width="0" fill="#000016" fill-opacity="0.8784313725490196" />
<path d="M126,-322 L94,-310 L366,-970 L394,-1066 L162,-1294 L114,-1062 Z" stroke-width="0" fill="#000308" fill-opacity="0.8901960784313725" />
<path d="M434,-350 L490,-886 L310,-278 L182,-778 L378,-474 L370,-418 Z" stroke-width="0" fill="#8c1f62" fill-opacity="0.9215686274509803" />
<path d="M342,-1194 L482,-1150 L442,-674 L790,-1162 L658,-1062 L406,-918 Z" stroke-width="0" fill="#152638" fill-opacity="0.5019607843137255" />
<path d="M314,-278 L454,-1302 L774,-166 L370,-634 L586,-1142 L122,-418 Z" stroke-width="0" fill="#c0bbdd" fill-opacity="0.9607843137254902" />
<path d="M774,-538 L478,-602 L142,-622 L278,-90 L618,-642 L434,-242 Z" stroke-width="0" fill="#3f2c96" fill-opacity="0.984313725490196" />
<path d="M610,-786 L654,-114 L126,-698 L458,-894 L330,-1306 L162,-1110 Z" stroke-width="0" fill="#000010" fill-opacity="0.5019607843137255" />
<path d="M338,-190 L738,-150 L274,-478 L550,-926 L638,-974 L306,-1254 Z" stroke-width="0" fill="#162044" fill-opacity="0.8196078431372549" />
<path d="M198,-558 L502,-558 L770,-266 L662,-754 L750,-858 L186,-398 Z" stroke-width="0" fill="#180070" fill-opacity="0.6470588235294118" />
<path d="M790,-898 L502,-102 L222,-630 L566,-250 L586,-1098 L362,-158 Z" stroke-width="0" fill="#020d39" fill-opacity="0.7607843137254902" />
<path d="M518,-1222 L178,-114 L126,-282 L530,-826 L314,-770 L410,-782 Z" stroke-width="0" fill="#00001e" fill-opacity="0.7098039215686275" />
<path d="M414,-98 L298,-642 L194,-814 L314,-710 L674,-842 L118,-898 Z" stroke-width="0" fill="#160086" fill-opacity="0.6235294117647059" />
<path d="M586,-122 L546,-974 L210,-710 L462,-510 L334,-902 L470,-678 Z" stroke-width="0" fill="#003f7f" fill-opacity="0.6823529411764706" />
<path d="M426,-1290 L486,-1278 L442,-590 L358,-1146 L770,-1046 L134,-542 Z" stroke-width="0" fill="#010d2b" fill-opacity="0.9490196078431372" />
<path d="M542,-1198 L198,-462 L470,-722 L170,-562 L626,-318 L106,-386 Z" stroke-width="0" fill="#94d4c0" fill-opacity="0.5019607843137255" />
<path d="M490,-862 L326,-490 L338,-286 L590,-314 L138,-434 L594,-1274 Z" stroke-width="0" fill="#000364" fill-opacity="0.9215686274509803" />
<path d="M90,-846 L206,-922 L410,-662 L218,-554 L250,-218 L526,-222 Z" stroke-width="0" fill="#141811" fill-opacity="0.9176470588235294" />
<path d="M174,-1134 L146,-502 L618,-182 L342,-830 L706,-1314 L362,-330 Z" stroke-width="0" fill="#0d5033" fill-opacity="0.8627450980392157" />
<path d="M274,-1242 L646,-1134 L354,-962 L130,-1102 L622,-642 L666,-734 Z" stroke-width="0" fill="#160d13" fill-opacity="0.8235294117647058" />
<path d="M482,-262 L562,-1062 L358,-162 L806,-158 L338,-294 L318,-558 Z" stroke-width="0" fill="#2b7bb1" fill-opacity="0.7529411764705882" />
<path d="M202,-394 L738,-1214 L478,-510 L774,-750 L686,-542 L266,-90 Z" stroke-width="0" fill="#d1a34f" fill-opacity="0.9254901960784314" />
<path d="M82,-250 L230,-382 L90,-1246 L774,-470 L254,-766 L358,-1102 Z" stroke-width="0" fill="#0b143c" fill-opacity="0.9803921568627451" />
<path d="M358,-418 L518,-646 L462,-1018 L614,-918 L302,-498 L654,-138 Z" stroke-width="0" fill="#6d8dd4" fill-opacity="0.3764705882352941" />
<path d="M538,-1070 L118,-498 L706,-278 L162,-530 L94,-738 L218,-882 Z" stroke-width="0" fill="#361d24" fill-opacity="0.8549019607843137" />
<path d="M98,-166 L418,-1102 L674,-106 L506,-1094 L230,-1002 L598,-818 Z" stroke-width="0" fill="#7b9f72" fill-opacity="0.9019607843137255" />
<path d="M326,-282 L574,-1066 L486,-1098 L502,-146 L806,-1274 L382,-1194 Z" stroke-width="0" fill="#000018" fill-opacity="0.8431372549019608" />
<path d="M770,-1050 L546,-1110 L794,-442 L518,-334 L174,-1186 L718,-290 Z" stroke-width="0" fill="#002233" fill-opacity="0.5137254901960784" />
<path d="M666,-834 L670,-1034 L326,-430 L466,-170 L794,-154 L454,-1102 Z" stroke-width="0" fill="#1b1e2d" fill-opacity="0.7607843137254902" />
<path d="M230,-822 L422,-746 L526,-574 L590,-1266 L402,-194 L294,-1114 Z" stroke-width="0" fill="#001a2b" fill-opacity="0.8941176470588236" />
<path d="M690,-142 L218,-230 L494,-946 L698,-698 L82,-570 L150,-762 Z" stroke-width="0" fill="#3c3973" fill-opacity="0.9372549019607843" />
<path d="M494,-830 L810,-1122 L170,-678 L154,-530 L214,-938 L442,-318 Z" stroke-width="0" fill="#181b27" fill-opacity="0.8745098039215686" />
<path d="M250,-158 L602,-522 L130,-322 L418,-214 L202,-138 L274,-658 Z" stroke-width="0" fill="#1f286f" fill-opacity="0.6745098039215687" />
<path d="M346,-1210 L138,-226 L638,-198 L338,-614 L534,-294 L154,-906 Z" stroke-width="0" fill="#94418b" fill-opacity="0.16470588235294117" />
<path d="M354,-154 L562,-610 L178,-890 L722,-434 L190,-138 L618,-694 Z" stroke-width="0" fill="#25399b" fill-opacity="0.9137254901960784" />
<path d="M226,-982 L206,-642 L286,-530 L434,-870 L722,-382 L698,-346 Z" stroke-width="0" fill="#4495be" fill-opacity="0.5019607843137255" />
<path d="M178,-542 L426,-154 L694,-226 L226,-1226 L702,-806 L522,-1218 Z" stroke-width="0" fill="#267091" fill-opacity="0.3176470588235294" />
<path d="M94,-146 L142,-302 L414,-102 L454,-1050 L346,-954 L278,-570 Z" stroke-width="0" fill="#002444" fill-opacity="0.611764705882353" />
<path d="M586,-958 L614,-262 L426,-198 L598,-170 L190,-666 L770,-250 Z" stroke-width="0" fill="#555fa7" fill-opacity="0.4627450980392157" />
<path d="M414,-286 L242,-454 L318,-194 L466,-398 L426,-1258 L698,-1022 Z" stroke-width="0" fill="#202331" fill-opacity="0.7254901960784313" />
<path d="M298,-810 L770,-306 L242,-190 L474,-362 L538,-902 L538,-826 Z" stroke-width="0" fill="#3a7ca8" fill-opacity="0.3333333333333333" />
<path d="M738,-694 L582,-418 L186,-514 L726,-606 L358,-190 L106,-1274 Z" stroke-width="0" fill="#222b45" fill-opacity="0.3215686274509804" />
<path d="M466,-210 L530,-646 L790,-346 L630,-814 L306,-1262 L182,-1086 Z" stroke-width="0" fill="#45b86f" fill-opacity="0.5019607843137255" />
<path d="M718,-582 L170,-722 L630,-126 L554,-238 L598,-210 L234,-98 Z" stroke-width="0" fill="#342a50" fill-opacity="0.5019607843137255" />
<path d="M390,-562 L326,-1090 L246,-1026 L154,-258 L394,-1106 L786,-694 Z" stroke-width="0" fill="#4f3731" fill-opacity="0.26666666666666666" />
<path d="M506,-498 L422,-1038 L230,-1118 L562,-94 L686,-422 L474,-738 Z" stroke-width="0" fill="#251126" fill-opacity="0.27450980392156865" />
<path d="M158,-366 L558,-730 L570,-410 L614,-1030 L550,-314 L474,-694 Z" stroke-width="0" fill="#716aa4" fill-opacity="0.7568627450980392" />
<path d="M622,-426 L142,-886 L626,-270 L754,-350 L214,-842 L206,-942 Z" stroke-width="0" fill="#25378e" fill-opacity="0.4235294117647059" />
<path d="M558,-946 L330,-1190 L558,-550 L634,-1054 L538,-790 L358,-958 Z" stroke-width="0" fill="#07114b" fill-opacity="0.39215686274509803" />
<path d="M206,-1238 L314,-166 L418,-1294 L442,-342 L238,-526 L242,-1090 Z" stroke-width="0" fill="#4675ac" fill-opacity="0.30196078431372547" />
<path d="M310,-190 L562,-502 L474,-150 L550,-654 L222,-1038 L674,-1238 Z" stroke-width="0" fill="#221835" fill-opacity="0.5019607843137255" />
<path d="M342,-1058 L254,-274 L370,-430 L526,-750 L702,-1082 L82,-466 Z" stroke-width="0" fill="#11080e" fill-opacity="0.5019607843137255" />
<path d="M138,-286 L602,-1066 L378,-266 L182,-206 L190,-522 L222,-866 Z" stroke-width="0" fill="#c1c1d3" fill-opacity="0.054901960784313725" />
<path d="M634,-486 L398,-618 L470,-594 L282,-546 L182,-1054 L278,-982 Z" stroke-width="0" fill="#4c0200" fill-opacity="0.9686274509803922" />
<path d="M110,-1090 L782,-822 L642,-990 L278,-1266 L214,-370 L698,-514 Z" stroke-width="0" fill="#1c003b" fill-opacity="0.5019607843137255" />
<path d="M654,-818 L418,-874 L382,-190 L570,-882 L662,-398 L558,-1130 Z" stroke-width="0" fill="#292129" fill-opacity="0.24705882352941178" />
<path d="M302,-1258 L106,-1102 L538,-118 L702,-1258 L542,-110 L358,-1038 Z" stroke-width="0" fill="#010023" fill-opacity="0.4823529411764706" />
<path d="M538,-1062 L170,-1166 L442,-318 L722,-1130 L158,-266 L670,-962 Z" stroke-width="0" fill="#1e103d" fill-opacity="0.5019607843137255" />
<path d="M382,-134 L682,-1154 L762,-1258 L146,-158 L538,-618 L146,-962 Z" stroke-width="0" fill="#1a1c4a" fill-opacity="0.4470588235294118" />
<path d="M554,-962 L302,-178 L614,-1298 L594,-1294 L646,-482 L250,-338 Z" stroke-width="0" fill="#002632" fill-opacity="0.12549019607843137" />
<path d="M226,-382 L542,-1150 L266,-702 L142,-1010 L286,-1114 L674,-426 Z" stroke-width="0" fill="#33478b" fill-opacity="0.5019607843137255" />
<path d="M502,-354 L150,-170 L638,-790 L298,-562 L126,-230 L334,-654 Z" stroke-width="0" fill="#175a71" fill-opacity="0.5019607843137255" />
<path d="M406,-238 L634,-154 L218,-458 L638,-450 L526,-102 L454,-762 Z" stroke-width="0" fill="#81ae89" fill-opacity="0.14901960784313725" />
<path d="M98,-482 L142,-1154 L322,-1138 L614,-658 L286,-738 L238,-1042 Z" stroke-width="0" fill="#18101a" fill-opacity="0.5019607843137255" />
<path d="M210,-1002 L622,-850 L326,-1274 L258,-1154 L318,-514 L610,-854 Z" stroke-width="0" fill="#001200" fill-opacity="0.15294117647058825" />
<path d="M158,-782 L342,-538 L558,-986 L278,-306 L298,-798 L534,-1062 Z" stroke-width="0" fill="#001c42" fill-opacity="0.19215686274509805" />
<path d="M86,-86 L182,-266 L598,-234 L82,-254 L122,-1114 L218,-410 Z" stroke-width="0" fill="#001e39" fill-opacity="0.7803921568627451" />
<path d="M750,-890 L362,-894 L246,-414 L302,-1110 L778,-650 L454,-890 Z" stroke-width="0" fill="#1c0029" fill-opacity="0.08235294117647059" />
<path d="M634,-706 L366,-398 L90,-1250 L682,-434 L98,-470 L530,-194 Z" stroke-width="0" fill="#0c0e46" fill-opacity="0.396078431372549" />
<path d="M426,-946 L730,-342 L302,-1010 L242,-146 L566,-314 L786,-294 Z" stroke-width="0" fill="#4d5242" fill-opacity="0.5019607843137255" />
<path d="M698,-818 L518,-1046 L98,-126 L226,-298 L586,-1122 L738,-478 Z" stroke-width="0" fill="#283848" fill-opacity="0.2" />
<text x="448.0" y="0" font-size="70.0" fill="black" text-anchor="middle" transform="translate(0,17.5)">1 OF AIR</text>
</svg>