<?xml version="1.0" encoding="UTF-8"?>
<svg xmlns="http://www.w3.org/2000/svg" xmlns:xlink="http://www.w3.org/1999/xlink"
     width="896" height="1496" viewBox="0 -1400 896 1496" style="font-size:70;font-family:Poor Richard, Times New Roman;stroke:black;stroke-width:1;fill:none">
<defs>
</defs>
<path d="M126,-1082 L114,-114 L170,-318 L330,-398 L662,-942 L322,-1258 Z" stroke-width="0" fill="#0f0800" fill-opacity="0.8666666666666667" />
<path d="M334,-626 L658,-214 L542,-1046 L306,-1026 L234,-1194 L214,-494 Z" stroke-width="0" fill="#1a3c17" fill-opacity="0.9254901960784314" />
<path d="M158,-778 L546,-382 L198,-150 L202,-1042 L274,-1014 L602,-538 Z" stroke-width="0" fill="#5e1b01" fill-opacity="0.9176470588235294" />
<path d="M278,-1078 L474,-358 L438,-970 L182,-406 L330,-1182 L630,-654 Z" stroke-width="0" fill="#fff6e0" fill-opacity="0.8980392156862745" />
<path d="M578,-438 L746,-918 L554,-594 L206,-778 L562,-470 L410,-206 Z" stroke-width="0" fill="#020000" fill-opacity="0.8117647058823529" />
<path d="M234,-542 L302,-362 L446,-1070 L178,-1206 L658,-86 L98,-678 Z" stroke-width="0" fill="#473419" fill-opacity="0.9058823529411765" />
<path d="M502,-102 L546,-918 L682,-1066 L394,-1202 L90,-954 L766,-1122 Z" stroke-width="0" fill="#362126" fill-opacity="0.7568627450980392" />
<path d="M370,-254 L106,-746 L206,-278 L538,-210 L98,-762 L286,-730 Z" stroke-width="0" fill="#9e2a1e" fill-opacity="0.8901960784313725" />
<path d="M218,-1134 L646,-674 L86,-902 L382,-1014 L190,-966 L722,-306 Z" stroke-width="0" fill="#8f2f16" fill-opacity="0.9529411764705882" />
<path d="M302,-1302 L390,-658 L110,-906 L782,-810 L770,-1034 L702,-478 Z" stroke-width="0" fill="#493100" fill-opacity="0.5411764705882353" />
<path d="M674,-234 L214,-750 L510,-442 L510,-126 L670,-690 L794,-442 Z" stroke-width="0" fill="#100515" fill-opacity="0.6235294117647059" />
<path d="M698,-630 L802,-706 L234,-154 L498,-174 L358,-678 L234,-178 Z" stroke-width="0" fill="#181616" fill-opacity="0.9137254901960784" />
<path d="M394,-574 L354,-406 L386,-454 L130,-178 L386,-978 L226,-742 Z" stroke-width="0" fill="#2d231a" fill-opacity="0.9647058823529412" />
<path d="M642,-934 L754,-1042 L262,-878 L326,-1014 L458,-726 L550,-1302 Z" stroke-width="0" fill="#000003" fill-opacity="0.803921568627451" />
<path d="M262,-1234 L310,-1258 L498,-538 L718,-390 L594,-678 L514,-1258 Z" stroke-width="0" fill="#12000a" fill-opacity="0.5686274509803921" />
<path d="M358,-678 L98,-918 L270,-1166 L766,-1102 L298,-418 L122,-1038 Z" stroke-width="0" fill="#75301b" fill-opacity="0.996078431372549" />
<path d="M670,-718 L406,-1142 L694,-646 L142,-950 L118,-386 L366,-1022 Z" stroke-width="0" fill="#4f1b18" fill-opacity="0.27058823529411763" />
<path d="M786,-690 L798,-874 L146,-654 L238,-510 L214,-150 L322,-146 Z" stroke-width="0" fill="#180100" fill-opacity="0.8901960784313725" />
<path d="M94,-378 L578,-450 L410,-1082 L770,-678 L562,-202 L778,-462 Z" stroke-width="0" fill="#6a4c59" fill-opacity="0.9098039215686274" />
<path d="M194,-290 L450,-182 L810,-610 L706,-294 L606,-546 L230,-338 Z" stroke-width="0" fill="#3f9080" fill-opacity="0.9882352941176471" />
<path d="M330,-570 L590,-578 L154,-550 L234,-890 L230,-362 L470,-1122 Z" stroke-width="0" fill="#190004" fill-opacity="0.9607843137254902" />
<path d="M538,-302 L286,-1258 L242,-446 L606,-1226 L750,-346 L430,-930 Z" stroke-width="0" fill="#be8986" fill-opacity="0.9333333333333333" />
<path d="M598,-814 L650,-910 L810,-362 L734,-966 L126,-222 L622,-450 Z" stroke-width="0" fill="#000c25" fill-opacity="0.8941176470588236" />
<path d="M342,-698 L382,-842 L794,-514 L718,-662 L538,-306 L610,-458 Z" stroke-width="0" fill="#4c4a63" fill-opacity="0.8705882352941177" />
<path d="M410,-1214 L434,-202 L802,-966 L510,-202 L222,-378 L218,-954 Z" stroke-width="0" fill="#845747" fill-opacity="0.5568627450980392" />
<path d="M258,-1170 L278,-1062 L782,-238 L638,-726 L326,-398 L746,-206 Z" stroke-width="0" fill="#f76e1e" fill-opacity="0.8" />
<path d="M218,-398 L210,-914 L738,-894 L102,-202 L678,-774 L554,-762 Z" stroke-width="0" fill="#211b2b" fill-opacity="0.9294117647058824" />
<path d="M638,-642 L158,-726 L706,-130 L558,-90 L282,-462 L406,-610 Z" stroke-width="0" fill="#a52e00" fill-opacity="0.9921568627450981" />
<path d="M538,-690 L794,-186 L742,-1042 L98,-930 L694,-410 L526,-174 Z" stroke-width="0" fill="#3b2413" fill-opacity="0.5882352941176471" />
<path d="M278,-190 L518,-590 L710,-666 L222,-546 L198,-566 L498,-1310 Z" stroke-width="0" fill="#4b4f6f" fill-opacity="0.9647058823529412" />
<path d="M230,-522 L378,-1090 L118,-518 L278,-1182 L458,-822 L630,-822 Z" stroke-width="0" fill="#3a0c1e" fill-opacity="0.4117647058823529" />
<path d="M282,-338 L130,-762 L298,-410 L414,-326 L750,-970 L362,-1202 Z" stroke-width="0" fill="#e1e2f9" fill-opacity="0.49019607843137253" />
<path d="M370,-1150 L614,-730 L706,-1130 L626,-378 L418,-762 L434,-606 Z" stroke-width="0" fill="#280025" fill-opacity="0.9686274509803922" />
<path d="M570,-746 L222,-1050 L738,-966 L342,-286 L374,-1262 L250,-958 Z" stroke-width="0" fill="#a3a390" fill-opacity="0.9725490196078431" />
<path d="M330,-490 L346,-866 L614,-482 L534,-294 L718,-598 L166,-618 Z" stroke-width="0" fill="#3c0938" fill-opacity="0.5294117647058824" />
<path d="M626,-822 L510,-1194 L638,-86 L274,-130 L410,-570 L210,-894 Z" stroke-width="0" fill="#763419" fill-opacity="0.996078431372549" />
<path d="M186,-310 L406,-318 L222,-706 L282,-818 L138,-518 L554,-1238 Z" stroke-width="0" fill="#051a13" fill-opacity="0.8392156862745098" />
<path d="M526,-726 L398,-1314 L626,-130 L154,-1066 L314,-530 L270,-258 Z" stroke-width="0" fill="#792f14" fill-opacity="0.9803921568627451" />
<path d="M286,-430 L438,-382 L230,-610 L766,-266 L110,-910 L718,-286 Z" stroke-width="0" fill="#f57b35" fill-opacity="0.2235294117647059" />
<path d="M130,-1226 L202,-778 L278,-766 L690,-950 L146,-1158 L450,-182 Z" stroke-width="0" fill="#6f2c0e" fill-opacity="0.8941176470588236" />
<path d="M430,-494 L162,-654 L718,-394 L406,-1106 L366,-906 L562,-846 Z" stroke-width="0" fill="#470651" fill-opacity="0.9568627450980393" />
<path d="M490,-894 L234,-962 L710,-926 L414,-1258 L414,-374 L618,-714 Z" stroke-width="0" fill="#485e66" fill-opacity="0.6352941176470588" />
<path d="M414,-702 L706,-1130 L634,-430 L386,-698 L650,-538 L574,-682 Z" stroke-width="0" fill="#430000" fill-opacity="0.5803921568627451" />
<path d="M302,-758 L298,-594 L226,-922 L126,-342 L618,-954 L682,-142 Z" stroke-width="0" fill="#f9670a" fill-opacity="0.8823529411764706" />
<path d="M386,-174 L118,-210 L790,-1266 L590,-694 L506,-618 L538,-1070 Z" stroke-width="0" fill="#080a15" fill-opacity="0.9215686274509803" />
<path d="M530,-130 L322,-1094 L338,-322 L534,-94 L570,-582 L262,-510 Z" stroke-width="0" fill="#222803" fill-opacity="0.9921568627450981" />
<path d="M458,-1022 L250,-346 L130,-138 L178,-722 L746,-1262 L286,-122 Z" stroke-width="0" fill="#1e0c12" fill-opacity="0.4549019607843137" />
<path d="M358,-406 L562,-1278 L102,-262 L518,-238 L242,-430 L126,-338 Z" stroke-width="0" fill="#1f1c11" fill-opacity="0.9568627450980393" />
<path d="M166,-678 L574,-646 L534,-286 L86,-1250 L302,-726 L402,-430 Z" stroke-width="0" fill="#1a0000" fill-opacity="0.7568627450980392" />
<path d="M450,-650 L98,-86 L506,-762 L354,-222 L174,-170 L802,-282 Z" stroke-width="0" fill="#de6b05" fill-opacity="0.8823529411764706" />
<path d="M370,-694 L554,-1166 L574,-186 L402,-998 L142,-502 L434,-506 Z" stroke-width="0" fill="#000029" fill-opacity="0.9294117647058824" />
<path d="M222,-1314 L450,-786 L678,-986 L754,-850 L110,-310 L454,-1062 Z" stroke-width="0" fill="#2b3b28" fill-opacity="0.6980392156862745" />
<path d="M262,-858 L478,-1226 L318,-234 L618,-1182 L494,-610 L110,-238 Z" stroke-width="0" fill="#fc4f59" fill-opacity="0.41568627450980394" />
<path d="M274,-106 L186,-562 L706,-466 L362,-182 L354,-1102 L550,-566 Z" stroke-width="0" fill="#00051f" fill-opacity="0.984313725490196" />
<path d="M210,-642 L418,-98 L414,-990 L550,-126 L374,-650 L554,-662 Z" stroke-width="0" fill="#102006" fill-opacity="0.9686274509803922" />
<path d="M750,-990 L462,-926 L230,-1222 L342,-930 L242,-598 L694,-1254 Z" stroke-width="0" fill="#7e6746" fill-opacity="0.5490196078431373" />
<path d="M430,-982 L626,-1302 L414,-626 L434,-582 L182,-906 L234,-126 Z" stroke-width="0" fill="#5a4a0b" fill-opacity="0.6431372549019608" />
<path d="M322,-590 L358,-322 L170,-618 L246,-902 L470,-342 L702,-86 Z" stroke-width="0" fill="#ef2d04" fill-opacity="0.996078431372549" />
<path d="M326,-318 L754,-1222 L438,-266 L214,-330 L102,-342 L154,-390 Z" stroke-width="0" fill="#41272d" fill-opacity="0.9372549019607843" />
<path d="M394,-114 L734,-1062 L334,-1174 L110,-694 L530,-1162 L86,-802 Z" stroke-width="0" fill="#711823" fill-opacity="0.996078431372549" />
<path d="M162,-262 L110,-402 L590,-1042 L294,-898 L470,-338 L362,-198 Z" stroke-width="0" fill="#b0422b" fill-opacity="0.6431372549019608" />
<path d="M222,-782 L706,-866 L430,-1042 L706,-938 L514,-934 L562,-266 Z" stroke-width="0" fill="#004115" fill-opacity="0.24313725490196078" />
<path d="M94,-198 L294,-366 L242,-266 L694,-1174 L590,-514 L758,-222 Z" stroke-width="0" fill="#f47b4d" fill-opacity="0.19607843137254902" />
<path d="M698,-1150 L386,-1066 L158,-1062 L786,-334 L206,-630 L690,-1302 Z" stroke-width="0" fill="#714028" fill-opacity="0.8627450980392157" />
<path d="M646,-1182 L202,-1006 L250,-442 L326,-110 L206,-182 L530,-786 Z" stroke-width="0" fill="#27001f" fill-opacity="0.611764705882353" />
<path d="M678,-350 L694,-274 L594,-278 L710,-314 L538,-1086 L398,-886 Z" stroke-width="0" fill="#fe6d09" fill-opacity="0.23137254901960785" />
<path d="M422,-706 L718,-894 L674,-1238 L770,-442 L210,-210 L270,-490 Z" stroke-width="0" fill="#050a00" fill-opacity="0.4392156862745098" />
<path d="M358,-830 L98,-1030 L226,-1046 L778,-482 L106,-494 L598,-834 Z" stroke-width="0" fill="#a03320" fill-opacity="0.7137254901960784" />
<path d="M202,-590 L422,-946 L434,-834 L578,-194 L726,-406 L486,-926 Z" stroke-width="0" fill="#fb6a8e" fill-opacity="0.6" />
<path d="M770,-810 L330,-762 L598,-870 L450,-294 L270,-954 L358,-134 Z" stroke-width="0" fill="#ae7093" fill-opacity="0.21568627450980393" />
<path d="M394,-406 L310,-438 L334,-1262 L510,-850 L342,-290 L222,-918 Z" stroke-width="0" fill="#6c7974" fill-opacity="0.2784313725490196" />
<path d="M462,-890 L522,-1282 L390,-250 L278,-698 L534,-730 L618,-662 Z" stroke-width="0" fill="#15322c" fill-opacity="0.8705882352941177" />
<path d="M410,-874 L390,-138 L554,-714 L330,-566 L258,-858 L790,-1066 Z" stroke-width="0" fill="#f8fbf8" fill-opacity="0.9411764705882353" />
<path d="M706,-562 L726,-498 L190,-746 L206,-518 L370,-1070 L458,-634 Z" stroke-width="0" fill="#372a09" fill-opacity="0.19215686274509805" />
<path d="M810,-570 L90,-406 L486,-446 L222,-826 L198,-318 L510,-602 Z" stroke-width="0" fill="#de2240" fill-opacity="0.047058823529411764" />
<path d="M610,-1062 L586,-582 L406,-930 L162,-1026 L90,-666 L290,-82 Z" stroke-width="0" fill="#b6812c" fill-opacity="0.3607843137254902" />
<path d="M238,-350 L326,-778 L138,-170 L342,-1218 L490,-434 L486,-438 Z" stroke-width="0" fill="#303025" fill-opacity="0.8" />
<path d="M398,-1278 L122,-410 L650,-242 L550,-410 L406,-642 L318,-286 Z" stroke-width="0" fill="#bf4e1f" fill-opacity="0.30196078431372547" />
<path d="M794,-1010 L270,-786 L82,-934 L810,-742 L458,-726 L102,-734 Z" stroke-width="0" fill="#ae3f1b" fill-opacity="0.5490196078431373" />
<path d="M602,-110 L770,-150 L326,-358 L154,-434 L770,-482 L154,-1178 Z" stroke-width="0" fill="#eefcef" fill-opacity="0.023529411764705882" />
<path d="M594,-398 L610,-666 L458,-86 L366,-174 L714,-538 L542,-658 Z" stroke-width="0" fill="#37222e" fill-opacity="0.9294117647058824" />
<path d="M230,-558 L386,-282 L674,-1102 L742,-722 L458,-722 L530,-374 Z" stroke-width="0" fill="#2c1b24" fill-opacity="0.4627450980392157" />
<path d="M230,-406 L622,-566 L110,-466 L578,-626 L426,-182 L262,-1298 Z" stroke-width="0" fill="#b95224" fill-opacity="0.8274509803921568" />
<path d="M350,-770 L766,-1158 L350,-614 L234,-510 L226,-1302 L178,-118 Z" stroke-width="0" fill="#913d22" fill-opacity="0.9921568627450981" />
<path d="M646,-338 L650,-570 L198,-222 L418,-110 L782,-114 L802,-686 Z" stroke-width="0" fill="#341a17" fill-opacity="0.7137254901960784" />
<path d="M542,-1034 L550,-726 L298,-998 L690,-642 L434,-154 L366,-1026 Z" stroke-width="0" fill="#0b19a8" fill-opacity="0.18823529411764706" />
<path d="M134,-1158 L474,-390 L470,-214 L98,-782 L190,-178 L786,-386 Z" stroke-width="0" fill="#362012" fill-opacity="0.37254901960784315" />
<path d="M730,-1262 L250,-210 L502,-750 L430,-394 L290,-1178 L550,-670 Z" stroke-width="0" fill="#4d2c3a" fill-opacity="0.41568627450980394" />
<path d="M430,-374 L334,-1170 L242,-458 L206,-598 L810,-242 L310,-414 Z" stroke-width="0" fill="#2c3e31" fill-opacity="0.37254901960784315" />
<path d="M602,-750 L202,-882 L550,-1090 L314,-222 L582,-662 L146,-418 Z" stroke-width="0" fill="#2755f0" fill-opacity="0.0392156862745098" />
<path d="M778,-1078 L106,-1134 L538,-662 L474,-1258 L630,-86 L222,-1102 Z" stroke-width="0" fill="#b48c42" fill-opacity="0.1843137254901961" />
<path d="M366,-226 L658,-226 L150,-570 L98,-198 L586,-334 L126,-506 Z" stroke-width="0" fill="#0c331d" fill-opacity="0.47058823529411764" />
<path d="M646,-1054 L710,-410 L266,-822 L166,-866 L510,-834 L282,-1278 Z" stroke-width="0" fill="#002804" fill-opacity="0.5803921568627451" />
<path d="M662,-474 L346,-786 L402,-1018 L766,-1038 L570,-902 L314,-142 Z" stroke-width="0" fill="#3e15cc" fill-opacity="0.050980392156862744" />
<path d="M586,-1046 L162,-974 L286,-702 L98,-554 L174,-562 L786,-1070 Z" stroke-width="0" fill="#d99a75" fill-opacity="0.788235294117647" />
<path d="M566,-1266 L802,-1174 L490,-522 L638,-954 L494,-1166 L454,-458 Z" stroke-width="0" fill="#407b42" fill-opacity="0.12941176470588237" />
<path d="M86,-1078 L230,-722 L310,-274 L306,-190 L450,-218 L782,-362 Z" stroke-width="0" fill="#0f190a" fill-opacity="0.4392156862745098" />
<path d="M366,-1262 L98,-1314 L646,-962 L750,-946 L162,-502 L290,-186 Z" stroke-width="0" fill="#765948" fill-opacity="0.2235294117647059" />
<path d="M386,-930 L518,-1286 L794,-1142 L214,-802 L494,-1122 L450,-602 Z" stroke-width="0" fill="#5a27d1" fill-opacity="0.07058823529411765" />
<path d="M358,-1098 L302,-1282 L122,-1078 L542,-130 L666,-546 L218,-810 Z" stroke-width="0" fill="#dc0d5f" fill-opacity="0.023529411764705882" />
<text x="448.0" y="0" font-size="70.0" fill="black" text-anchor="middle" transform="translate(0,17.5)">8 OF AIR</text>
</svg>