<?xml version="1.0" encoding="UTF-8"?>
<svg xmlns="http://www.w3.org/2000/svg" xmlns:xlink="http://www.w3.org/1999/xlink"
     width="275" height="375" viewBox="0 -350 275 375">
<defs>
</defs>
<rect x="15" y="-335" width="245" height="320" stroke="black" stroke-width="4" fill="white" />
<path d="M85,-200 L247,-230 L79,-248 L42,-288 L176,-302 L57,-105 Z" stroke-width="0" fill="#f8e4cb" fill-opacity="0.058823529411764705" />
<path d="M61,-242 L93,-149 L231,-98 L166,-167 L205,-188 L72,-262 Z" stroke-width="0" fill="#000000" fill-opacity="0.8470588235294118" />
<path d="M160,-302 L109,-84 L153,-60 L120,-292 L32,-276 L155,-223 Z" stroke-width="0" fill="#c4f2ff" fill-opacity="0.06274509803921569" />
<path d="M37,-93 L180,-105 L57,-181 L194,-255 L156,-210 L192,-135 Z" stroke-width="0" fill="#fdd5fe" fill-opacity="0.03137254901960784" />
<path d="M43,-67 L56,-144 L110,-309 L236,-194 L145,-120 L37,-151 Z" stroke-width="0" fill="#fcdeff" fill-opacity="0.09019607843137255" />
<path d="M188,-215 L192,-32 L218,-185 L79,-228 L228,-127 L124,-293 Z" stroke-width="0" fill="#fbf8e2" fill-opacity="0.011764705882352941" />
<path d="M201,-38 L165,-150 L115,-162 L153,-228 L106,-60 L111,-38 Z" stroke-width="0" fill="#f9fcf6" fill-opacity="0.3215686274509804" />
<path d="M163,-179 L249,-155 L62,-48 L247,-173 L91,-99 L35,-27 Z" stroke-width="0" fill="#151827" fill-opacity="0.5215686274509804" />
<path d="M201,-212 L46,-66 L127,-254 L123,-47 L43,-100 L53,-226 Z" stroke-width="0" fill="#fab2c2" fill-opacity="0.0784313725490196" />
<path d="M202,-99 L148,-162 L199,-160 L40,-82 L85,-188 L97,-202 Z" stroke-width="0" fill="#a6f7dd" fill-opacity="0.011764705882352941" />
<path d="M89,-310 L30,-70 L78,-185 L172,-92 L180,-277 L35,-130 Z" stroke-width="0" fill="#f9f6f4" fill-opacity="0.027450980392156862" />
<path d="M88,-177 L50,-53 L46,-61 L222,-174 L141,-276 L57,-62 Z" stroke-width="0" fill="#f1d5f3" fill-opacity="0.7725490196078432" />
<path d="M56,-78 L215,-286 L40,-200 L52,-317 L144,-56 L101,-140 Z" stroke-width="0" fill="#f7d0c2" fill-opacity="0.09411764705882353" />
<path d="M162,-82 L36,-215 L154,-232 L38,-242 L114,-45 L118,-159 Z" stroke-width="0" fill="#f1fef3" fill-opacity="0.043137254901960784" />
<path d="M75,-217 L121,-318 L123,-110 L85,-314 L125,-122 L190,-188 Z" stroke-width="0" fill="#53544c" fill-opacity="0.0" />
<path d="M88,-307 L44,-139 L219,-278 L81,-100 L152,-140 L194,-164 Z" stroke-width="0" fill="#cde288" fill-opacity="0.047058823529411764" />
<path d="M121,-137 L246,-248 L47,-132 L106,-321 L70,-119 L177,-245 Z" stroke-width="0" fill="#feefc1" fill-opacity="0.0392156862745098" />
<path d="M53,-26 L202,-147 L74,-133 L226,-246 L116,-192 L110,-319 Z" stroke-width="0" fill="#f1e6e3" fill-opacity="0.2" />
<path d="M52,-86 L55,-29 L94,-152 L213,-177 L150,-203 L128,-50 Z" stroke-width="0" fill="#f7e9f0" fill-opacity="0.9137254901960784" />
<path d="M29,-215 L133,-72 L214,-117 L42,-107 L80,-258 L123,-219 Z" stroke-width="0" fill="#f1ded3" fill-opacity="0.09019607843137255" />
<path d="M209,-161 L170,-228 L221,-73 L86,-226 L233,-181 L150,-240 Z" stroke-width="0" fill="#ebad59" fill-opacity="0.0" />
<path d="M80,-290 L188,-123 L105,-194 L95,-94 L130,-262 L217,-69 Z" stroke-width="0" fill="#edf1f7" fill-opacity="0.08627450980392157" />
<path d="M60,-52 L31,-173 L109,-271 L48,-213 L158,-246 L67,-141 Z" stroke-width="0" fill="#f0fcfe" fill-opacity="0.011764705882352941" />
<path d="M69,-137 L144,-167 L96,-226 L71,-137 L195,-193 L31,-75 Z" stroke-width="0" fill="#eff2f3" fill-opacity="0.1607843137254902" />
<path d="M187,-137 L52,-123 L49,-194 L162,-155 L67,-112 L138,-210 Z" stroke-width="0" fill="#d8eded" fill-opacity="0.03529411764705882" />
<path d="M114,-151 L194,-66 L38,-301 L159,-80 L36,-232 L141,-258 Z" stroke-width="0" fill="#f8f2ec" fill-opacity="0.16470588235294117" />
<path d="M99,-62 L129,-303 L209,-288 L106,-295 L151,-194 L79,-290 Z" stroke-width="0" fill="#def0fd" fill-opacity="0.054901960784313725" />
<path d="M231,-129 L37,-167 L126,-92 L52,-281 L85,-139 L202,-32 Z" stroke-width="0" fill="#dceed6" fill-opacity="0.45098039215686275" />
<path d="M160,-191 L105,-73 L130,-143 L111,-60 L43,-148 L129,-79 Z" stroke-width="0" fill="#f1e0de" fill-opacity="0.28627450980392155" />
<path d="M183,-155 L190,-132 L239,-215 L242,-183 L48,-273 L205,-42 Z" stroke-width="0" fill="#effcf5" fill-opacity="0.5450980392156862" />
<path d="M36,-137 L114,-271 L217,-265 L192,-146 L107,-321 L74,-129 Z" stroke-width="0" fill="#eaf8f0" fill-opacity="0.0" />
<path d="M120,-252 L104,-172 L81,-28 L111,-65 L127,-73 L178,-243 Z" stroke-width="0" fill="#ebb88b" fill-opacity="0.01568627450980392" />
<path d="M163,-114 L85,-140 L94,-129 L128,-156 L118,-123 L184,-302 Z" stroke-width="0" fill="#fbd6e6" fill-opacity="0.058823529411764705" />
<path d="M105,-323 L61,-231 L30,-228 L97,-181 L160,-41 L248,-225 Z" stroke-width="0" fill="#eef1eb" fill-opacity="0.1607843137254902" />
<path d="M43,-33 L134,-30 L102,-246 L160,-264 L196,-44 L229,-311 Z" stroke-width="0" fill="#fad2f5" fill-opacity="0.03137254901960784" />
<path d="M70,-199 L165,-122 L126,-137 L151,-63 L149,-127 L54,-285 Z" stroke-width="0" fill="#e9dfd6" fill-opacity="0.2" />
<path d="M141,-63 L220,-29 L133,-48 L84,-298 L144,-129 L123,-89 Z" stroke-width="0" fill="#fcf7f1" fill-opacity="0.47058823529411764" />
<path d="M155,-303 L242,-225 L80,-167 L173,-122 L95,-147 L67,-269 Z" stroke-width="0" fill="#f8e5f8" fill-opacity="0.10980392156862745" />
<path d="M86,-54 L122,-92 L48,-302 L44,-210 L68,-281 L120,-236 Z" stroke-width="0" fill="#ead3ff" fill-opacity="0.027450980392156862" />
<path d="M86,-68 L177,-150 L246,-82 L184,-158 L237,-309 L68,-160 Z" stroke-width="0" fill="#e7f1f4" fill-opacity="0.011764705882352941" />
<path d="M60,-234 L230,-71 L138,-241 L132,-302 L56,-141 L190,-224 Z" stroke-width="0" fill="#e5f9d5" fill-opacity="0.07450980392156863" />
<path d="M133,-145 L88,-264 L68,-201 L85,-313 L26,-226 L145,-134 Z" stroke-width="0" fill="#f9fcf6" fill-opacity="0.07450980392156863" />
<path d="M118,-252 L211,-43 L97,-31 L43,-35 L237,-210 L61,-47 Z" stroke-width="0" fill="#fcfbfc" fill-opacity="0.9019607843137255" />
<path d="M72,-189 L51,-44 L108,-115 L92,-67 L111,-68 L49,-158 Z" stroke-width="0" fill="#ecd7b7" fill-opacity="0.01568627450980392" />
<path d="M99,-143 L100,-184 L174,-288 L50,-253 L49,-185 L61,-122 Z" stroke-width="0" fill="#f9fbf7" fill-opacity="1.0" />
<path d="M194,-167 L220,-70 L57,-37 L31,-176 L27,-249 L109,-100 Z" stroke-width="0" fill="#f7e4e4" fill-opacity="0.11372549019607843" />
<path d="M122,-199 L41,-203 L158,-52 L72,-45 L199,-262 L248,-93 Z" stroke-width="0" fill="#f8f8e8" fill-opacity="0.5215686274509804" />
<path d="M177,-132 L187,-262 L242,-81 L147,-40 L182,-228 L246,-53 Z" stroke-width="0" fill="#d1d0f8" fill-opacity="0.30980392156862746" />
<path d="M50,-101 L26,-167 L214,-185 L137,-164 L85,-239 L108,-222 Z" stroke-width="0" fill="#f6fef8" fill-opacity="0.1411764705882353" />
<path d="M112,-136 L54,-90 L152,-138 L214,-37 L124,-138 L85,-88 Z" stroke-width="0" fill="#ffebf6" fill-opacity="0.3411764705882353" />
<path d="M168,-164 L98,-257 L129,-54 L219,-59 L227,-270 L106,-34 Z" stroke-width="0" fill="#bed188" fill-opacity="0.0196078431372549" />
<path d="M60,-43 L143,-319 L159,-214 L30,-51 L51,-207 L174,-68 Z" stroke-width="0" fill="#efd1ed" fill-opacity="0.3764705882352941" />
<path d="M233,-164 L76,-87 L136,-187 L48,-201 L128,-158 L142,-203 Z" stroke-width="0" fill="#c2c0ec" fill-opacity="0.00784313725490196" />
<path d="M155,-128 L183,-166 L230,-197 L50,-256 L194,-276 L179,-78 Z" stroke-width="0" fill="#f4e0e6" fill-opacity="0.24313725490196078" />
<path d="M206,-138 L111,-68 L64,-233 L103,-152 L160,-113 L44,-281 Z" stroke-width="0" fill="#fdc6f9" fill-opacity="0.1568627450980392" />
<path d="M69,-284 L50,-80 L120,-191 L31,-201 L171,-81 L149,-116 Z" stroke-width="0" fill="#ecfcd1" fill-opacity="0.08235294117647059" />
<path d="M229,-113 L34,-93 L202,-135 L138,-261 L145,-122 L35,-280 Z" stroke-width="0" fill="#5ac8c6" fill-opacity="0.00784313725490196" />
<path d="M202,-293 L183,-261 L110,-278 L61,-109 L111,-158 L71,-255 Z" stroke-width="0" fill="#b1b8e8" fill-opacity="0.08235294117647059" />
<path d="M110,-303 L185,-130 L47,-258 L86,-232 L192,-103 L78,-123 Z" stroke-width="0" fill="#f0e7ee" fill-opacity="0.054901960784313725" />
<path d="M68,-201 L25,-304 L109,-48 L102,-264 L199,-73 L110,-126 Z" stroke-width="0" fill="#f8fdcd" fill-opacity="0.16470588235294117" />
<path d="M140,-95 L89,-32 L89,-321 L200,-193 L164,-254 L102,-120 Z" stroke-width="0" fill="#fa83e9" fill-opacity="0.0784313725490196" />
<path d="M132,-179 L141,-243 L48,-148 L153,-98 L184,-103 L209,-95 Z" stroke-width="0" fill="#f9f3fc" fill-opacity="0.8941176470588236" />
<path d="M55,-134 L207,-182 L98,-191 L91,-53 L36,-35 L36,-69 Z" stroke-width="0" fill="#ebbefe" fill-opacity="0.06666666666666667" />
<path d="M59,-232 L167,-115 L148,-317 L111,-222 L61,-78 L154,-124 Z" stroke-width="0" fill="#f8f3bb" fill-opacity="0.0784313725490196" />
<path d="M112,-138 L71,-70 L129,-161 L59,-111 L165,-131 L193,-189 Z" stroke-width="0" fill="#f7f1fe" fill-opacity="0.9686274509803922" />
<path d="M158,-214 L97,-34 L183,-136 L33,-268 L79,-100 L194,-81 Z" stroke-width="0" fill="#f9feec" fill-opacity="0.7137254901960784" />
<path d="M165,-238 L56,-82 L124,-195 L72,-302 L47,-60 L53,-259 Z" stroke-width="0" fill="#eaf0f1" fill-opacity="0.03529411764705882" />
<path d="M98,-228 L216,-178 L43,-28 L86,-66 L54,-311 L101,-68 Z" stroke-width="0" fill="#fbede5" fill-opacity="0.023529411764705882" />
<path d="M41,-87 L212,-40 L79,-91 L114,-137 L34,-44 L92,-143 Z" stroke-width="0" fill="#fdfab7" fill-opacity="0.047058823529411764" />
<path d="M85,-270 L183,-52 L65,-104 L104,-155 L232,-216 L122,-202 Z" stroke-width="0" fill="#ecbffb" fill-opacity="0.11764705882352941" />
<path d="M119,-114 L148,-100 L224,-52 L172,-302 L164,-118 L165,-42 Z" stroke-width="0" fill="#f9f6af" fill-opacity="0.10196078431372549" />
<path d="M75,-39 L45,-183 L64,-230 L57,-166 L45,-41 L67,-89 Z" stroke-width="0" fill="#99edf5" fill-opacity="0.09411764705882353" />
<path d="M130,-36 L227,-185 L179,-272 L196,-75 L175,-96 L61,-124 Z" stroke-width="0" fill="#fdfacb" fill-opacity="0.13333333333333333" />
<path d="M161,-102 L191,-268 L51,-195 L163,-168 L37,-158 L190,-70 Z" stroke-width="0" fill="#d1f3f0" fill-opacity="0.03529411764705882" />
<path d="M87,-134 L218,-34 L164,-123 L237,-141 L162,-119 L51,-138 Z" stroke-width="0" fill="#f5ffc8" fill-opacity="0.03137254901960784" />
<path d="M162,-45 L150,-68 L167,-241 L223,-50 L93,-320 L43,-131 Z" stroke-width="0" fill="#ffdee6" fill-opacity="0.03529411764705882" />
<path d="M133,-191 L99,-58 L131,-221 L162,-123 L75,-192 L48,-317 Z" stroke-width="0" fill="#cbadf2" fill-opacity="0.10196078431372549" />
<path d="M84,-100 L45,-130 L93,-277 L189,-51 L85,-26 L176,-314 Z" stroke-width="0" fill="#b2f3da" fill-opacity="0.13725490196078433" />
<path d="M183,-261 L115,-306 L33,-25 L138,-53 L217,-214 L199,-212 Z" stroke-width="0" fill="#d4daef" fill-opacity="0.03529411764705882" />
<path d="M186,-217 L79,-45 L205,-136 L28,-155 L26,-85 L190,-217 Z" stroke-width="0" fill="#e6f1c1" fill-opacity="0.07450980392156863" />
<path d="M69,-318 L151,-117 L234,-155 L99,-230 L226,-51 L69,-136 Z" stroke-width="0" fill="#ec8ee9" fill-opacity="0.18823529411764706" />
<path d="M72,-292 L47,-154 L154,-183 L82,-241 L87,-217 L66,-252 Z" stroke-width="0" fill="#d9d0db" fill-opacity="0.11372549019607843" />
<path d="M86,-60 L151,-61 L111,-54 L86,-209 L231,-68 L104,-300 Z" stroke-width="0" fill="#f1e1fa" fill-opacity="0.807843137254902" />
<path d="M137,-224 L49,-78 L182,-58 L167,-253 L115,-72 L128,-165 Z" stroke-width="0" fill="#d6c7fc" fill-opacity="0.29411764705882354" />
<path d="M215,-82 L69,-127 L164,-245 L62,-56 L44,-154 L169,-297 Z" stroke-width="0" fill="#e3fdd9" fill-opacity="0.5137254901960784" />
<path d="M62,-94 L148,-180 L46,-154 L68,-123 L38,-215 L178,-304 Z" stroke-width="0" fill="#f4bfdc" fill-opacity="0.3176470588235294" />
<path d="M161,-95 L131,-138 L63,-198 L185,-192 L102,-124 L115,-201 Z" stroke-width="0" fill="#f6dbd1" fill-opacity="0.2549019607843137" />
<path d="M147,-150 L136,-234 L203,-173 L194,-63 L82,-99 L248,-62 Z" stroke-width="0" fill="#ed9ff9" fill-opacity="0.07450980392156863" />
<path d="M168,-242 L70,-25 L69,-119 L29,-141 L118,-252 L179,-171 Z" stroke-width="0" fill="#faefa7" fill-opacity="0.2784313725490196" />
<path d="M144,-275 L120,-193 L160,-100 L203,-50 L139,-252 L61,-33 Z" stroke-width="0" fill="#fcfadb" fill-opacity="0.5019607843137255" />
<path d="M84,-199 L32,-187 L138,-183 L98,-126 L119,-309 L219,-86 Z" stroke-width="0" fill="#fbbdf1" fill-opacity="0.5019607843137255" />
<path d="M53,-26 L76,-177 L53,-81 L115,-280 L83,-179 L159,-214 Z" stroke-width="0" fill="#fbfdd2" fill-opacity="0.9215686274509803" />
<path d="M126,-144 L100,-312 L186,-51 L112,-151 L166,-68 L44,-187 Z" stroke-width="0" fill="#faf4f9" fill-opacity="0.7686274509803922" />
<path d="M137,-248 L213,-309 L212,-287 L177,-268 L213,-127 L247,-308 Z" stroke-width="0" fill="#dcdcff" fill-opacity="0.11764705882352941" />
<path d="M29,-47 L104,-61 L30,-170 L143,-48 L181,-200 L42,-114 Z" stroke-width="0" fill="#e1d0ad" fill-opacity="0.10980392156862745" />
<path d="M114,-193 L186,-317 L99,-289 L110,-249 L131,-276 L185,-195 Z" stroke-width="0" fill="#fbc9c9" fill-opacity="0.023529411764705882" />
<path d="M117,-203 L36,-200 L154,-170 L80,-217 L79,-46 L152,-298 Z" stroke-width="0" fill="#d3f0f8" fill-opacity="0.09411764705882353" />
<path d="M118,-138 L78,-247 L240,-78 L112,-150 L150,-44 L246,-84 Z" stroke-width="0" fill="#e1f4ec" fill-opacity="0.01568627450980392" />
<path d="M110,-64 L150,-294 L246,-110 L102,-205 L148,-273 L89,-207 Z" stroke-width="0" fill="#e0dcea" fill-opacity="0.011764705882352941" />
<path d="M47,-103 L196,-303 L162,-202 L114,-187 L86,-239 L233,-217 Z" stroke-width="0" fill="#f3c672" fill-opacity="0.20784313725490197" />
<text x="137.5" y="12.5" font-size="20.0" fill="black" text-anchor="middle" transform="translate(0,5.0)">3 OF AIR</text>
</svg>