<?xml version="1.0" encoding="UTF-8"?>
<svg xmlns="http://www.w3.org/2000/svg" xmlns:xlink="http://www.w3.org/1999/xlink"
     width="896" height="1496" viewBox="0 -1400 896 1496" style="font-size:70;font-family:Poor Richard, Times New Roman;stroke:black;stroke-width:1;fill:none">
<defs>
</defs>
<path d="M774,-614 L226,-718 L826,-1122 L138,-110 L570,-562 L794,-106 Z" stroke-width="0" fill="#12010c" fill-opacity="0.2784313725490196" />
<path d="M214,-926 L246,-426 L586,-286 L270,-426 L270,-498 L142,-730 Z" stroke-width="0" fill="#0a0207" fill-opacity="0.9607843137254902" />
<path d="M974,-614 L694,-442 L810,-626 L290,-1266 L574,-1150 L978,-434 Z" stroke-width="0" fill="#070400" fill-opacity="0.6352941176470588" />
<path d="M90,-182 L238,-554 L686,-1258 L194,-422 L262,-242 L782,-506 Z" stroke-width="0" fill="#6a6847" fill-opacity="0.8784313725490196" />
<path d="M590,-1050 L626,-286 L430,-1242 L198,-218 L610,-1106 L546,-274 Z" stroke-width="0" fill="#f1eddb" fill-opacity="0.9686274509803922" />
<path d="M194,-666 L338,-1046 L218,-374 L634,-362 L698,-182 L194,-1010 Z" stroke-width="0" fill="#dfbcf8" fill-opacity="0.21568627450980393" />
<path d="M966,-634 L302,-282 L630,-418 L378,-778 L902,-346 L154,-1050 Z" stroke-width="0" fill="#122312" fill-opacity="0.9725490196078431" />
<path d="M282,-258 L414,-666 L582,-1158 L378,-162 L670,-402 L114,-794 Z" stroke-width="0" fill="#16585c" fill-opacity="0.9372549019607843" />
<path d="M506,-342 L646,-438 L170,-854 L874,-446 L462,-210 L558,-702 Z" stroke-width="0" fill="#10b4bf" fill-opacity="0.01568627450980392" />
<path d="M558,-130 L838,-370 L374,-1066 L326,-842 L510,-402 L778,-470 Z" stroke-width="0" fill="#0f2400" fill-opacity="0.2" />
<path d="M410,-422 L470,-1214 L110,-298 L694,-754 L138,-1130 L782,-286 Z" stroke-width="0" fill="#d5fde9" fill-opacity="0.9921568627450981" />
<path d="M166,-682 L426,-798 L98,-182 L86,-854 L966,-1090 L390,-1134 Z" stroke-width="0" fill="#261a1c" fill-opacity="0.3803921568627451" />
<path d="M298,-170 L130,-342 L566,-1022 L170,-326 L298,-702 L438,-126 Z" stroke-width="0" fill="#2f3437" fill-opacity="0.9686274509803922" />
<path d="M86,-254 L642,-934 L214,-958 L522,-1006 L190,-1206 L98,-670 Z" stroke-width="0" fill="#4d4742" fill-opacity="0.34509803921568627" />
<path d="M182,-946 L670,-962 L174,-394 L378,-158 L482,-310 L922,-486 Z" stroke-width="0" fill="#d87b26" fill-opacity="0.14901960784313725" />
<path d="M262,-1110 L426,-698 L134,-314 L266,-1066 L126,-334 L602,-866 Z" stroke-width="0" fill="#dcf3fa" fill-opacity="0.9568627450980393" />
<path d="M326,-206 L734,-802 L774,-586 L578,-778 L170,-350 L294,-238 Z" stroke-width="0" fill="#b82492" fill-opacity="1.0" />
<path d="M682,-610 L414,-934 L526,-790 L302,-374 L234,-1130 L358,-342 Z" stroke-width="0" fill="#01291a" fill-opacity="0.8745098039215686" />
<path d="M266,-466 L974,-306 L442,-470 L650,-262 L622,-634 L194,-898 Z" stroke-width="0" fill="#24292f" fill-opacity="0.9647058823529412" />
<path d="M142,-754 L90,-150 L546,-1054 L186,-210 L754,-1202 L122,-994 Z" stroke-width="0" fill="#261f05" fill-opacity="0.27450980392156865" />
<path d="M298,-742 L890,-1026 L714,-1110 L522,-246 L730,-706 L934,-1086 Z" stroke-width="0" fill="#171d1c" fill-opacity="0.23137254901960785" />
<path d="M566,-690 L190,-562 L122,-202 L530,-354 L370,-122 L206,-334 Z" stroke-width="0" fill="#c7f7e3" fill-opacity="0.9372549019607843" />
<path d="M838,-1122 L602,-1202 L714,-142 L774,-1230 L470,-698 L82,-1250 Z" stroke-width="0" fill="#41514c" fill-opacity="0.4196078431372549" />
<path d="M582,-666 L98,-742 L94,-734 L974,-694 L326,-290 L258,-858 Z" stroke-width="0" fill="#988a8c" fill-opacity="0.8431372549019608" />
<path d="M358,-830 L430,-870 L830,-706 L482,-438 L406,-734 L494,-338 Z" stroke-width="0" fill="#2cafdf" fill-opacity="0.09411764705882353" />
<path d="M954,-314 L118,-202 L418,-270 L178,-614 L590,-498 L102,-550 Z" stroke-width="0" fill="#719463" fill-opacity="0.9450980392156862" />
<path d="M406,-602 L626,-982 L278,-658 L658,-782 L918,-598 L186,-1002 Z" stroke-width="0" fill="#2e2809" fill-opacity="0.9254901960784314" />
<path d="M502,-278 L294,-1242 L330,-194 L242,-854 L526,-462 L346,-122 Z" stroke-width="0" fill="#171f11" fill-opacity="0.6745098039215687" />
<path d="M234,-506 L178,-390 L394,-822 L918,-978 L642,-626 L714,-714 Z" stroke-width="0" fill="#f1d2ea" fill-opacity="0.054901960784313725" />
<path d="M838,-430 L130,-1038 L138,-706 L362,-550 L582,-374 L546,-1058 Z" stroke-width="0" fill="#dacfc2" fill-opacity="0.8274509803921568" />
<path d="M666,-626 L294,-278 L790,-466 L190,-1214 L590,-234 L322,-878 Z" stroke-width="0" fill="#053b0e" fill-opacity="0.43137254901960786" />
<path d="M290,-1178 L790,-798 L334,-1166 L494,-462 L650,-1114 L758,-918 Z" stroke-width="0" fill="#3a432b" fill-opacity="0.9333333333333333" />
<path d="M422,-178 L306,-1134 L194,-378 L382,-1018 L782,-870 L466,-430 Z" stroke-width="0" fill="#0a0a57" fill-opacity="0.9607843137254902" />
<path d="M458,-1070 L922,-886 L194,-714 L942,-402 L690,-750 L854,-98 Z" stroke-width="0" fill="#bbe0ca" fill-opacity="0.20784313725490197" />
<path d="M474,-742 L430,-114 L786,-522 L310,-310 L226,-990 L226,-718 Z" stroke-width="0" fill="#f9b2ef" fill-opacity="0.0392156862745098" />
<path d="M306,-418 L258,-870 L194,-694 L654,-694 L650,-302 L362,-166 Z" stroke-width="0" fill="#05431f" fill-opacity="0.3254901960784314" />
<path d="M622,-630 L950,-258 L666,-334 L758,-526 L390,-862 L902,-270 Z" stroke-width="0" fill="#2d2129" fill-opacity="0.984313725490196" />
<path d="M578,-746 L866,-1206 L362,-850 L642,-450 L642,-630 L290,-718 Z" stroke-width="0" fill="#000600" fill-opacity="0.7411764705882353" />
<path d="M878,-1214 L478,-410 L554,-374 L170,-258 L430,-234 L186,-214 Z" stroke-width="0" fill="#071303" fill-opacity="0.615686274509804" />
<path d="M434,-454 L334,-162 L90,-250 L558,-1078 L678,-1086 L678,-630 Z" stroke-width="0" fill="#6a8c4b" fill-opacity="0.3686274509803922" />
<path d="M626,-918 L818,-390 L134,-530 L610,-238 L470,-918 L386,-362 Z" stroke-width="0" fill="#fefff8" fill-opacity="0.9529411764705882" />
<path d="M102,-126 L494,-1226 L510,-326 L714,-282 L906,-486 L546,-1134 Z" stroke-width="0" fill="#474a28" fill-opacity="0.7372549019607844" />
<path d="M642,-602 L862,-526 L542,-410 L722,-826 L410,-550 L858,-1010 Z" stroke-width="0" fill="#baf7f8" fill-opacity="0.996078431372549" />
<path d="M554,-598 L430,-1122 L838,-266 L554,-326 L422,-422 L858,-942 Z" stroke-width="0" fill="#dafcff" fill-opacity="0.996078431372549" />
<path d="M902,-1258 L970,-354 L202,-446 L602,-290 L490,-614 L966,-1058 Z" stroke-width="0" fill="#394850" fill-opacity="0.3176470588235294" />
<path d="M974,-374 L538,-122 L118,-994 L402,-266 L510,-494 L878,-1026 Z" stroke-width="0" fill="#302d1f" fill-opacity="0.19215686274509805" />
<path d="M838,-210 L902,-422 L90,-1074 L666,-474 L166,-362 L218,-446 Z" stroke-width="0" fill="#adbe8c" fill-opacity="0.9882352941176471" />
<path d="M846,-146 L94,-1086 L450,-586 L262,-146 L326,-1146 L290,-826 Z" stroke-width="0" fill="#45a792" fill-opacity="0.20392156862745098" />
<path d="M350,-1106 L458,-90 L102,-1002 L734,-382 L258,-426 L862,-1002 Z" stroke-width="0" fill="#a895b7" fill-opacity="0.7686274509803922" />
<path d="M826,-206 L206,-1174 L650,-746 L730,-1206 L786,-130 L430,-590 Z" stroke-width="0" fill="#544d40" fill-opacity="0.9411764705882353" />
<path d="M506,-606 L330,-1278 L390,-470 L558,-546 L622,-1190 L930,-846 Z" stroke-width="0" fill="#cdab95" fill-opacity="0.1607843137254902" />
<path d="M106,-502 L298,-1182 L218,-226 L346,-1046 L322,-638 L702,-478 Z" stroke-width="0" fill="#daedf7" fill-opacity="0.15294117647058825" />
<path d="M942,-382 L242,-406 L350,-874 L274,-102 L882,-130 L486,-526 Z" stroke-width="0" fill="#080e08" fill-opacity="0.6941176470588235" />
<path d="M282,-146 L430,-430 L682,-430 L210,-138 L858,-790 L314,-1022 Z" stroke-width="0" fill="#14791b" fill-opacity="0.28627450980392155" />
<path d="M730,-558 L214,-1118 L522,-430 L102,-438 L494,-626 L678,-346 Z" stroke-width="0" fill="#aec2b8" fill-opacity="0.7607843137254902" />
<path d="M810,-1202 L630,-774 L122,-906 L394,-690 L378,-158 L498,-226 Z" stroke-width="0" fill="#bcff09" fill-opacity="0.054901960784313725" />
<path d="M974,-346 L466,-82 L98,-202 L346,-1130 L226,-1162 L826,-810 Z" stroke-width="0" fill="#726f72" fill-opacity="0.8352941176470589" />
<path d="M766,-90 L766,-1174 L830,-410 L766,-810 L882,-394 L378,-514 Z" stroke-width="0" fill="#152827" fill-opacity="0.807843137254902" />
<path d="M386,-1078 L922,-258 L458,-646 L858,-974 L846,-386 L794,-1126 Z" stroke-width="0" fill="#a68da0" fill-opacity="0.3568627450980392" />
<path d="M358,-1174 L314,-130 L266,-134 L802,-854 L674,-890 L722,-946 Z" stroke-width="0" fill="#c7cdb7" fill-opacity="0.9764705882352941" />
<path d="M646,-330 L82,-1150 L362,-894 L466,-402 L114,-254 L746,-722 Z" stroke-width="0" fill="#768880" fill-opacity="0.6274509803921569" />
<path d="M514,-410 L658,-350 L238,-1094 L486,-806 L154,-650 L894,-406 Z" stroke-width="0" fill="#f1f3fc" fill-opacity="0.1568627450980392" />
<path d="M134,-398 L102,-866 L162,-1094 L130,-774 L278,-578 L646,-118 Z" stroke-width="0" fill="#80aa87" fill-opacity="0.2901960784313726" />
<path d="M650,-810 L178,-1082 L130,-978 L802,-978 L562,-1146 L146,-378 Z" stroke-width="0" fill="#ddd3ee" fill-opacity="0.3254901960784314" />
<path d="M338,-390 L658,-1150 L130,-1074 L602,-626 L810,-1202 L270,-1118 Z" stroke-width="0" fill="#777777" fill-opacity="0.6941176470588235" />
<path d="M106,-94 L826,-442 L586,-158 L478,-682 L670,-94 L202,-974 Z" stroke-width="0" fill="#170001" fill-opacity="0.40784313725490196" />
<path d="M914,-806 L90,-594 L926,-710 L90,-814 L226,-94 L526,-742 Z" stroke-width="0" fill="#322a25" fill-opacity="0.34509803921568627" />
<path d="M162,-530 L850,-702 L790,-182 L130,-842 L738,-866 L370,-814 Z" stroke-width="0" fill="#102a17" fill-opacity="0.5019607843137255" />
<path d="M706,-378 L882,-998 L430,-838 L970,-134 L142,-750 L302,-1082 Z" stroke-width="0" fill="#2a2200" fill-opacity="0.34901960784313724" />
<path d="M638,-454 L706,-1134 L470,-330 L130,-566 L266,-534 L970,-914 Z" stroke-width="0" fill="#e8e6bf" fill-opacity="0.20784313725490197" />
<path d="M462,-958 L142,-822 L822,-118 L94,-1026 L802,-838 L222,-242 Z" stroke-width="0" fill="#000613" fill-opacity="0.043137254901960784" />
<path d="M598,-1050 L566,-926 L690,-98 L930,-242 L578,-882 L458,-794 Z" stroke-width="0" fill="#000800" fill-opacity="0.7725490196078432" />
<path d="M750,-934 L802,-422 L498,-526 L218,-802 L826,-390 L882,-330 Z" stroke-width="0" fill="#7c8e8c" fill-opacity="0.6784313725490196" />
<path d="M386,-1230 L490,-382 L498,-482 L426,-746 L386,-134 L290,-982 Z" stroke-width="0" fill="#e5dfe9" fill-opacity="0.33725490196078434" />
<path d="M474,-326 L878,-134 L506,-570 L802,-402 L894,-658 L182,-686 Z" stroke-width="0" fill="#010900" fill-opacity="0.34509803921568627" />
<path d="M834,-1034 L522,-262 L410,-978 L326,-118 L446,-558 L798,-302 Z" stroke-width="0" fill="#fff8ea" fill-opacity="0.3843137254901961" />
<path d="M610,-574 L774,-534 L454,-334 L878,-170 L706,-994 L970,-258 Z" stroke-width="0" fill="#371536" fill-opacity="0.20392156862745098" />
<path d="M154,-850 L290,-886 L330,-1214 L354,-546 L710,-566 L566,-314 Z" stroke-width="0" fill="#7a8c67" fill-opacity="0.10588235294117647" />
<path d="M766,-514 L842,-658 L686,-414 L294,-806 L358,-430 L182,-642 Z" stroke-width="0" fill="#6d3466" fill-opacity="0.3764705882352941" />
<path d="M746,-714 L398,-1206 L278,-522 L294,-718 L810,-90 L418,-1210 Z" stroke-width="0" fill="#af824a" fill-opacity="0.0" />
<path d="M730,-790 L474,-878 L550,-182 L378,-470 L534,-1122 L590,-186 Z" stroke-width="0" fill="#e4ecd0" fill-opacity="0.9333333333333333" />
<path d="M502,-954 L106,-234 L126,-606 L374,-86 L478,-1190 L226,-270 Z" stroke-width="0" fill="#f8f6d7" fill-opacity="0.06666666666666667" />
<path d="M386,-182 L914,-1202 L218,-218 L486,-246 L222,-910 L594,-410 Z" stroke-width="0" fill="#221a24" fill-opacity="0.3137254901960784" />
<path d="M842,-826 L706,-466 L134,-110 L126,-546 L82,-254 L370,-862 Z" stroke-width="0" fill="#bbc8d1" fill-opacity="0.3058823529411765" />
<path d="M962,-994 L846,-1070 L326,-922 L810,-1066 L306,-674 L606,-546 Z" stroke-width="0" fill="#9a89a2" fill-opacity="0.7058823529411765" />
<path d="M654,-850 L862,-998 L410,-718 L426,-158 L466,-906 L150,-970 Z" stroke-width="0" fill="#9fc9b0" fill-opacity="0.15294117647058825" />
<path d="M186,-270 L442,-746 L462,-966 L698,-942 L626,-442 L654,-598 Z" stroke-width="0" fill="#f8e4f9" fill-opacity="0.17254901960784313" />
<path d="M482,-1102 L238,-502 L670,-726 L966,-706 L610,-866 L142,-398 Z" stroke-width="0" fill="#7bb0cc" fill-opacity="0.00392156862745098" />
<path d="M694,-150 L90,-622 L890,-122 L258,-1158 L362,-658 L162,-1138 Z" stroke-width="0" fill="#f4feed" fill-opacity="0.11372549019607843" />
<path d="M954,-954 L482,-914 L306,-398 L842,-1098 L262,-654 L558,-618 Z" stroke-width="0" fill="#cdd9cc" fill-opacity="0.5215686274509804" />
<path d="M222,-270 L826,-282 L850,-1174 L622,-1262 L814,-386 L482,-1062 Z" stroke-width="0" fill="#c5d36b" fill-opacity="0.00392156862745098" />
<path d="M678,-818 L858,-422 L214,-746 L970,-598 L430,-954 L786,-910 Z" stroke-width="0" fill="#97a992" fill-opacity="0.7568627450980392" />
<path d="M398,-94 L498,-490 L282,-94 L786,-430 L90,-894 L750,-506 Z" stroke-width="0" fill="#7b767c" fill-opacity="0.7019607843137254" />
<path d="M530,-830 L582,-258 L430,-446 L670,-422 L334,-1270 L306,-1114 Z" stroke-width="0" fill="#f1e1ec" fill-opacity="0.7843137254901961" />
<path d="M730,-1154 L894,-794 L478,-1266 L750,-1238 L574,-254 L694,-326 Z" stroke-width="0" fill="#989aa7" fill-opacity="0.8470588235294118" />
<path d="M622,-922 L198,-978 L266,-1174 L690,-1150 L246,-566 L114,-362 Z" stroke-width="0" fill="#383c3a" fill-opacity="0.4470588235294118" />
<path d="M198,-714 L282,-1074 L810,-922 L222,-1230 L286,-1214 L170,-1242 Z" stroke-width="0" fill="#3e364f" fill-opacity="0.24705882352941178" />
<path d="M634,-582 L434,-254 L270,-414 L278,-518 L98,-910 L306,-174 Z" stroke-width="0" fill="#080b20" fill-opacity="0.12156862745098039" />
<path d="M190,-722 L802,-434 L342,-1206 L130,-374 L246,-1010 L734,-646 Z" stroke-width="0" fill="#43383f" fill-opacity="0.3843137254901961" />
<path d="M274,-1026 L466,-230 L914,-266 L946,-146 L218,-510 L746,-598 Z" stroke-width="0" fill="#3d4445" fill-opacity="0.4549019607843137" />
<text x="448.0" y="0" font-size="70.0" fill="black" text-anchor="middle" transform="translate(0,17.5)">QUEEN OF AIR</text>
</svg>