<?xml version="1.0" encoding="UTF-8"?>
<svg xmlns="http://www.w3.org/2000/svg" xmlns:xlink="http://www.w3.org/1999/xlink"
     width="896" height="1496" viewBox="0 -1400 896 1496" style="font-size:70;font-family:Poor Richard, Times New Roman;stroke:black;stroke-width:1;fill:none">
<defs>
</defs>
<path d="M218,-1038 L470,-362 L182,-854 L282,-678 L786,-842 L342,-430 Z" stroke-width="0" fill="#d8e5fc" fill-opacity="0.13725490196078433" />
<path d="M118,-314 L330,-878 L626,-1114 L418,-1262 L646,-458 L338,-626 Z" stroke-width="0" fill="#cc3a00" fill-opacity="0.4470588235294118" />
<path d="M594,-814 L510,-1270 L458,-1126 L530,-686 L318,-842 L114,-710 Z" stroke-width="0" fill="#c96800" fill-opacity="0.5019607843137255" />
<path d="M250,-214 L622,-314 L710,-878 L482,-210 L510,-1058 L566,-594 Z" stroke-width="0" fill="#671e51" fill-opacity="0.7803921568627451" />
<path d="M802,-674 L554,-594 L306,-1206 L574,-838 L210,-874 L338,-614 Z" stroke-width="0" fill="#8e725f" fill-opacity="0.6470588235294118" />
<path d="M234,-418 L306,-566 L650,-694 L410,-562 L514,-562 L134,-1226 Z" stroke-width="0" fill="#e8fd72" fill-opacity="0.10588235294117647" />
<path d="M462,-1254 L98,-698 L154,-1046 L446,-610 L234,-1046 L798,-638 Z" stroke-width="0" fill="#c3f90d" fill-opacity="0.15294117647058825" />
<path d="M666,-154 L254,-474 L286,-326 L398,-258 L790,-182 L586,-474 Z" stroke-width="0" fill="#ac7233" fill-opacity="0.43529411764705883" />
<path d="M222,-858 L242,-1210 L230,-214 L90,-478 L598,-286 L330,-1186 Z" stroke-width="0" fill="#56cb21" fill-opacity="0.5490196078431373" />
<path d="M418,-914 L102,-1090 L294,-242 L498,-894 L382,-1210 L582,-450 Z" stroke-width="0" fill="#fdfed4" fill-opacity="0.6549019607843137" />
<path d="M598,-138 L510,-990 L570,-814 L222,-794 L278,-818 L710,-306 Z" stroke-width="0" fill="#d2e4f3" fill-opacity="0.6901960784313725" />
<path d="M526,-502 L90,-818 L254,-954 L110,-338 L266,-802 L174,-998 Z" stroke-width="0" fill="#2065c5" fill-opacity="0.6509803921568628" />
<path d="M478,-154 L206,-638 L474,-542 L378,-606 L586,-1170 L590,-674 Z" stroke-width="0" fill="#f4705b" fill-opacity="0.7137254901960784" />
<path d="M390,-366 L142,-358 L562,-290 L706,-530 L322,-962 L310,-438 Z" stroke-width="0" fill="#d176e7" fill-opacity="0.4588235294117647" />
<path d="M174,-498 L462,-966 L214,-714 L302,-762 L550,-162 L614,-770 Z" stroke-width="0" fill="#2a054c" fill-opacity="0.8156862745098039" />
<path d="M310,-1122 L738,-974 L682,-578 L586,-682 L518,-750 L462,-1070 Z" stroke-width="0" fill="#1c055c" fill-opacity="0.984313725490196" />
<path d="M626,-150 L722,-690 L634,-926 L514,-242 L530,-218 L482,-1050 Z" stroke-width="0" fill="#0d36e5" fill-opacity="0.9411764705882353" />
<path d="M382,-1186 L286,-822 L82,-262 L106,-606 L346,-678 L142,-654 Z" stroke-width="0" fill="#290418" fill-opacity="0.8745098039215686" />
<path d="M138,-414 L538,-690 L378,-1146 L226,-814 L678,-82 L246,-130 Z" stroke-width="0" fill="#170000" fill-opacity="0.6352941176470588" />
<path d="M142,-606 L714,-930 L710,-346 L722,-782 L214,-674 L542,-982 Z" stroke-width="0" fill="#0c8987" fill-opacity="0.9019607843137255" />
<path d="M566,-166 L410,-470 L746,-118 L210,-570 L654,-314 L178,-142 Z" stroke-width="0" fill="#b9409a" fill-opacity="0.6274509803921569" />
<path d="M242,-198 L642,-326 L810,-134 L738,-986 L494,-694 L678,-938 Z" stroke-width="0" fill="#3b0000" fill-opacity="0.6078431372549019" />
<path d="M354,-906 L494,-1210 L806,-998 L794,-1034 L170,-1222 L562,-898 Z" stroke-width="0" fill="#e18e00" fill-opacity="0.5372549019607843" />
<path d="M506,-682 L550,-170 L526,-990 L354,-622 L182,-1022 L134,-250 Z" stroke-width="0" fill="#ecec93" fill-opacity="0.07450980392156863" />
<path d="M594,-830 L474,-414 L146,-170 L562,-878 L426,-922 L238,-262 Z" stroke-width="0" fill="#571210" fill-opacity="0.7176470588235294" />
<path d="M790,-1034 L122,-846 L370,-1062 L670,-742 L722,-630 L226,-930 Z" stroke-width="0" fill="#19544a" fill-opacity="0.8705882352941177" />
<path d="M210,-998 L294,-270 L510,-1058 L362,-990 L542,-878 L462,-498 Z" stroke-width="0" fill="#e9ca7b" fill-opacity="0.6823529411764706" />
<path d="M430,-450 L794,-670 L586,-1190 L578,-962 L318,-758 L82,-986 Z" stroke-width="0" fill="#d9ff8a" fill-opacity="0.803921568627451" />
<path d="M566,-206 L734,-1070 L426,-1066 L674,-206 L202,-118 L302,-350 Z" stroke-width="0" fill="#725524" fill-opacity="0.9450980392156862" />
<path d="M382,-814 L242,-950 L134,-134 L742,-1182 L186,-1014 L526,-390 Z" stroke-width="0" fill="#eed042" fill-opacity="0.6" />
<path d="M510,-302 L498,-1254 L130,-746 L810,-854 L138,-422 L622,-566 Z" stroke-width="0" fill="#c8800d" fill-opacity="0.5019607843137255" />
<path d="M246,-150 L394,-358 L794,-1130 L806,-686 L646,-402 L198,-522 Z" stroke-width="0" fill="#1d0000" fill-opacity="0.7529411764705882" />
<path d="M574,-882 L686,-82 L394,-410 L238,-934 L762,-846 L230,-382 Z" stroke-width="0" fill="#a48632" fill-opacity="0.9333333333333333" />
<path d="M574,-446 L638,-1090 L302,-138 L626,-962 L234,-658 L254,-1082 Z" stroke-width="0" fill="#5c8f46" fill-opacity="0.24313725490196078" />
<path d="M558,-330 L530,-202 L322,-1294 L322,-686 L150,-1174 L566,-1134 Z" stroke-width="0" fill="#cbd462" fill-opacity="0.5019607843137255" />
<path d="M550,-1274 L490,-326 L662,-702 L622,-1186 L438,-154 L794,-522 Z" stroke-width="0" fill="#411400" fill-opacity="0.8941176470588236" />
<path d="M446,-1306 L110,-326 L646,-90 L238,-846 L362,-638 L442,-1246 Z" stroke-width="0" fill="#843e00" fill-opacity="0.35294117647058826" />
<path d="M390,-878 L310,-226 L382,-538 L462,-746 L654,-602 L82,-826 Z" stroke-width="0" fill="#390781" fill-opacity="0.5019607843137255" />
<path d="M274,-606 L254,-914 L622,-274 L174,-882 L374,-1042 L134,-510 Z" stroke-width="0" fill="#533536" fill-opacity="0.03529411764705882" />
<path d="M554,-1242 L310,-1178 L274,-1042 L330,-238 L270,-130 L706,-1034 Z" stroke-width="0" fill="#f8fa97" fill-opacity="0.8509803921568627" />
<path d="M378,-254 L458,-1202 L794,-406 L426,-802 L514,-678 L86,-370 Z" stroke-width="0" fill="#202502" fill-opacity="0.41568627450980394" />
<path d="M338,-370 L274,-814 L82,-706 L554,-654 L478,-950 L506,-562 Z" stroke-width="0" fill="#380054" fill-opacity="0.7568627450980392" />
<path d="M354,-870 L430,-150 L258,-266 L102,-614 L82,-854 L638,-1238 Z" stroke-width="0" fill="#1d081f" fill-opacity="0.792156862745098" />
<path d="M790,-618 L334,-402 L90,-734 L182,-1174 L626,-230 L578,-166 Z" stroke-width="0" fill="#1500f2" fill-opacity="0.03529411764705882" />
<path d="M586,-946 L750,-1298 L638,-478 L546,-1090 L518,-502 L262,-850 Z" stroke-width="0" fill="#0b5a00" fill-opacity="0.35294117647058826" />
<path d="M286,-582 L742,-362 L754,-950 L654,-294 L258,-470 L638,-130 Z" stroke-width="0" fill="#765e53" fill-opacity="0.4627450980392157" />
<path d="M206,-850 L794,-818 L142,-426 L458,-318 L582,-526 L514,-174 Z" stroke-width="0" fill="#ff7b29" fill-opacity="0.6627450980392157" />
<path d="M562,-1226 L414,-298 L486,-490 L802,-698 L566,-874 L250,-434 Z" stroke-width="0" fill="#975b67" fill-opacity="0.8274509803921568" />
<path d="M230,-754 L430,-374 L634,-590 L422,-306 L606,-758 L710,-630 Z" stroke-width="0" fill="#ddabf8" fill-opacity="0.5647058823529412" />
<path d="M98,-110 L102,-1290 L774,-230 L654,-470 L374,-206 L506,-302 Z" stroke-width="0" fill="#693400" fill-opacity="0.5333333333333333" />
<path d="M234,-638 L346,-218 L426,-1082 L286,-294 L358,-1042 L170,-774 Z" stroke-width="0" fill="#cc0504" fill-opacity="0.45098039215686275" />
<path d="M410,-778 L354,-914 L598,-970 L186,-638 L510,-246 L354,-174 Z" stroke-width="0" fill="#244bdc" fill-opacity="0.2196078431372549" />
<path d="M314,-550 L602,-1202 L214,-366 L146,-686 L654,-622 L526,-1230 Z" stroke-width="0" fill="#eee072" fill-opacity="0.8588235294117647" />
<path d="M218,-750 L254,-458 L630,-394 L486,-446 L318,-790 L330,-130 Z" stroke-width="0" fill="#d08d75" fill-opacity="0.7686274509803922" />
<path d="M322,-302 L334,-94 L706,-530 L730,-410 L166,-550 L98,-414 Z" stroke-width="0" fill="#640715" fill-opacity="0.592156862745098" />
<path d="M302,-190 L194,-1050 L658,-898 L674,-862 L134,-626 L754,-686 Z" stroke-width="0" fill="#a3fe93" fill-opacity="0.5529411764705883" />
<path d="M630,-482 L578,-1158 L338,-1254 L286,-738 L482,-154 L766,-102 Z" stroke-width="0" fill="#ceb15d" fill-opacity="0.7254901960784313" />
<path d="M98,-502 L114,-210 L498,-286 L266,-354 L534,-186 L430,-646 Z" stroke-width="0" fill="#630000" fill-opacity="0.5019607843137255" />
<path d="M774,-138 L510,-750 L206,-902 L606,-1118 L482,-226 L754,-86 Z" stroke-width="0" fill="#5f1f00" fill-opacity="0.5372549019607843" />
<path d="M478,-814 L478,-242 L602,-418 L742,-1222 L630,-726 L122,-342 Z" stroke-width="0" fill="#1b0a00" fill-opacity="0.8666666666666667" />
<path d="M214,-322 L254,-982 L370,-210 L438,-490 L370,-602 L810,-314 Z" stroke-width="0" fill="#9e2f49" fill-opacity="0.4980392156862745" />
<path d="M134,-738 L242,-1194 L350,-286 L774,-230 L134,-158 L286,-962 Z" stroke-width="0" fill="#874d38" fill-opacity="0.803921568627451" />
<path d="M550,-878 L114,-978 L278,-1238 L538,-1086 L366,-226 L310,-414 Z" stroke-width="0" fill="#c76d6a" fill-opacity="0.5019607843137255" />
<path d="M362,-242 L354,-1046 L258,-710 L230,-330 L766,-318 L94,-318 Z" stroke-width="0" fill="#8a5032" fill-opacity="0.5137254901960784" />
<path d="M750,-622 L430,-174 L282,-1006 L222,-790 L102,-1246 L258,-82 Z" stroke-width="0" fill="#fbed0e" fill-opacity="0.1607843137254902" />
<path d="M178,-106 L366,-222 L610,-798 L582,-134 L446,-434 L514,-1170 Z" stroke-width="0" fill="#738400" fill-opacity="0.5098039215686274" />
<path d="M566,-1270 L494,-986 L630,-250 L782,-122 L186,-962 L362,-294 Z" stroke-width="0" fill="#a05243" fill-opacity="0.13725490196078433" />
<path d="M698,-558 L366,-834 L270,-146 L422,-230 L442,-578 L186,-722 Z" stroke-width="0" fill="#7c3f2f" fill-opacity="0.5568627450980392" />
<path d="M450,-514 L750,-1062 L210,-274 L234,-198 L550,-398 L234,-794 Z" stroke-width="0" fill="#24c062" fill-opacity="0.14901960784313725" />
<path d="M490,-142 L774,-526 L258,-918 L90,-494 L570,-686 L762,-958 Z" stroke-width="0" fill="#190607" fill-opacity="0.21176470588235294" />
<path d="M110,-1042 L190,-1078 L778,-986 L474,-1154 L322,-226 L186,-198 Z" stroke-width="0" fill="#ee7240" fill-opacity="0.12156862745098039" />
<path d="M574,-106 L466,-98 L790,-402 L214,-562 L682,-886 L346,-1110 Z" stroke-width="0" fill="#aa7a10" fill-opacity="0.5019607843137255" />
<path d="M82,-366 L190,-1282 L806,-862 L218,-234 L654,-1054 L558,-514 Z" stroke-width="0" fill="#5c5b72" fill-opacity="0.3176470588235294" />
<path d="M146,-794 L506,-606 L422,-1110 L474,-1050 L102,-874 L630,-206 Z" stroke-width="0" fill="#92ca68" fill-opacity="0.4" />
<path d="M674,-662 L482,-1062 L494,-774 L318,-1066 L134,-290 L750,-1290 Z" stroke-width="0" fill="#150e00" fill-opacity="0.27058823529411763" />
<path d="M146,-958 L266,-1154 L334,-426 L610,-714 L446,-1286 L574,-1054 Z" stroke-width="0" fill="#feb871" fill-opacity="0.6862745098039216" />
<path d="M534,-998 L450,-1062 L698,-730 L746,-1086 L582,-990 L718,-1150 Z" stroke-width="0" fill="#633a48" fill-opacity="0.5058823529411764" />
<path d="M614,-858 L82,-1294 L718,-398 L410,-886 L482,-734 L418,-1258 Z" stroke-width="0" fill="#e5b076" fill-opacity="0.9686274509803922" />
<path d="M738,-674 L506,-1054 L810,-370 L758,-674 L646,-210 L146,-598 Z" stroke-width="0" fill="#775289" fill-opacity="0.25882352941176473" />
<path d="M654,-898 L226,-190 L806,-1042 L518,-890 L366,-1110 L610,-1302 Z" stroke-width="0" fill="#af4b6c" fill-opacity="0.23137254901960785" />
<path d="M270,-1042 L578,-854 L318,-194 L506,-346 L770,-882 L106,-434 Z" stroke-width="0" fill="#c28828" fill-opacity="0.16470588235294117" />
<path d="M466,-274 L198,-294 L326,-510 L630,-134 L142,-698 L750,-1226 Z" stroke-width="0" fill="#ffcd84" fill-opacity="0.2235294117647059" />
<path d="M494,-946 L682,-342 L626,-1118 L354,-146 L642,-262 L310,-182 Z" stroke-width="0" fill="#6425de" fill-opacity="0.00392156862745098" />
<path d="M350,-130 L282,-1022 L746,-1286 L542,-182 L314,-486 L802,-478 Z" stroke-width="0" fill="#cc5637" fill-opacity="0.3764705882352941" />
<path d="M742,-106 L782,-574 L430,-738 L122,-978 L130,-790 L174,-578 Z" stroke-width="0" fill="#6a0020" fill-opacity="0.18823529411764706" />
<path d="M426,-694 L266,-330 L166,-922 L210,-458 L186,-890 L550,-546 Z" stroke-width="0" fill="#111600" fill-opacity="0.39215686274509803" />
<path d="M98,-510 L154,-514 L770,-922 L186,-482 L350,-1182 L330,-438 Z" stroke-width="0" fill="#4e484c" fill-opacity="0.5019607843137255" />
<path d="M222,-1078 L222,-1158 L274,-1302 L618,-366 L694,-794 L630,-970 Z" stroke-width="0" fill="#d75b39" fill-opacity="0.20784313725490197" />
<path d="M598,-342 L278,-630 L618,-118 L254,-166 L258,-714 L330,-530 Z" stroke-width="0" fill="#6bc622" fill-opacity="0.5019607843137255" />
<path d="M774,-1218 L542,-1238 L146,-606 L418,-110 L474,-354 L206,-1186 Z" stroke-width="0" fill="#bc372b" fill-opacity="0.1411764705882353" />
<path d="M806,-1078 L190,-318 L346,-774 L618,-1110 L82,-1106 L406,-350 Z" stroke-width="0" fill="#c26942" fill-opacity="0.29411764705882354" />
<path d="M786,-122 L474,-1162 L466,-806 L714,-922 L242,-954 L570,-1122 Z" stroke-width="0" fill="#ecea78" fill-opacity="0.19607843137254902" />
<path d="M470,-274 L362,-1090 L266,-814 L674,-130 L186,-106 L262,-682 Z" stroke-width="0" fill="#a21249" fill-opacity="0.4470588235294118" />
<path d="M490,-1150 L358,-214 L318,-546 L758,-566 L122,-690 L82,-770 Z" stroke-width="0" fill="#29020c" fill-opacity="0.09411764705882353" />
<path d="M418,-214 L342,-466 L658,-646 L390,-310 L602,-170 L166,-526 Z" stroke-width="0" fill="#44071b" fill-opacity="0.37254901960784315" />
<path d="M174,-370 L506,-1150 L314,-166 L582,-1270 L486,-210 L438,-1010 Z" stroke-width="0" fill="#a89259" fill-opacity="0.17647058823529413" />
<path d="M250,-1274 L790,-514 L678,-550 L758,-490 L722,-614 L326,-1122 Z" stroke-width="0" fill="#d75306" fill-opacity="0.12549019607843137" />
<path d="M362,-1018 L186,-810 L626,-1002 L570,-210 L734,-290 L90,-358 Z" stroke-width="0" fill="#0a001a" fill-opacity="0.2235294117647059" />
<path d="M234,-534 L566,-1234 L334,-862 L706,-182 L462,-430 L202,-610 Z" stroke-width="0" fill="#4f382b" fill-opacity="0.5019607843137255" />
<path d="M618,-106 L402,-246 L406,-518 L742,-1158 L366,-1246 L210,-262 Z" stroke-width="0" fill="#ffef48" fill-opacity="0.0196078431372549" />
<text x="448.0" y="0" font-size="70.0" fill="black" text-anchor="middle" transform="translate(0,17.5)">2 OF AIR</text>
</svg>