<?xml version="1.0" encoding="UTF-8"?>
<svg xmlns="http://www.w3.org/2000/svg" xmlns:xlink="http://www.w3.org/1999/xlink"
     width="896" height="1496" viewBox="0 -1400 896 1496" style="font-size:70;font-family:Poor Richard, Times New Roman;stroke:black;stroke-width:1;fill:none">
<defs>
</defs>
<path d="M658,-1262 L750,-282 L206,-914 L246,-694 L806,-122 L126,-930 Z" stroke-width="0" fill="#03300e" fill-opacity="0.050980392156862744" />
<path d="M134,-766 L222,-550 L150,-810 L314,-1002 L674,-878 L166,-566 Z" stroke-width="0" fill="#fd0137" fill-opacity="0.8470588235294118" />
<path d="M870,-906 L466,-270 L730,-826 L426,-710 L322,-1218 L518,-1262 Z" stroke-width="0" fill="#738772" fill-opacity="0.1568627450980392" />
<path d="M554,-526 L138,-1254 L298,-1062 L922,-854 L570,-966 L578,-122 Z" stroke-width="0" fill="#740000" fill-opacity="0.8274509803921568" />
<path d="M830,-338 L758,-490 L750,-450 L274,-258 L106,-578 L350,-826 Z" stroke-width="0" fill="#fc50a5" fill-opacity="0.6039215686274509" />
<path d="M658,-546 L470,-126 L522,-286 L258,-994 L814,-1066 L634,-1066 Z" stroke-width="0" fill="#2f3eb0" fill-opacity="0.1803921568627451" />
<path d="M106,-150 L318,-658 L262,-318 L170,-786 L114,-782 L362,-1054 Z" stroke-width="0" fill="#ecb933" fill-opacity="0.3176470588235294" />
<path d="M290,-1082 L110,-874 L638,-1218 L750,-898 L770,-626 L478,-746 Z" stroke-width="0" fill="#e3f9fb" fill-opacity="0.984313725490196" />
<path d="M450,-374 L206,-890 L834,-186 L158,-134 L154,-686 L206,-86 Z" stroke-width="0" fill="#d18a22" fill-opacity="0.9882352941176471" />
<path d="M470,-130 L594,-226 L482,-482 L594,-98 L518,-322 L266,-350 Z" stroke-width="0" fill="#3b0b10" fill-opacity="0.8313725490196079" />
<path d="M942,-910 L454,-530 L314,-1262 L770,-122 L314,-522 L946,-98 Z" stroke-width="0" fill="#310900" fill-opacity="0.792156862745098" />
<path d="M354,-638 L242,-362 L486,-482 L714,-614 L466,-1262 L754,-622 Z" stroke-width="0" fill="#15fe73" fill-opacity="0.06666666666666667" />
<path d="M314,-418 L506,-706 L146,-714 L510,-546 L798,-642 L630,-106 Z" stroke-width="0" fill="#16181d" fill-opacity="0.796078431372549" />
<path d="M346,-1030 L290,-358 L110,-418 L174,-602 L490,-1010 L262,-186 Z" stroke-width="0" fill="#f59401" fill-opacity="0.8588235294117647" />
<path d="M578,-514 L850,-446 L470,-1170 L250,-878 L770,-386 L386,-666 Z" stroke-width="0" fill="#781c7d" fill-opacity="0.00392156862745098" />
<path d="M394,-90 L306,-162 L566,-406 L706,-194 L978,-634 L678,-1238 Z" stroke-width="0" fill="#830608" fill-opacity="0.7333333333333333" />
<path d="M682,-370 L674,-750 L590,-1034 L194,-634 L174,-410 L790,-1250 Z" stroke-width="0" fill="#f1e2ea" fill-opacity="0.8823529411764706" />
<path d="M110,-506 L462,-958 L178,-1158 L342,-554 L454,-314 L970,-1246 Z" stroke-width="0" fill="#daddd4" fill-opacity="0.3176470588235294" />
<path d="M634,-786 L866,-462 L226,-562 L666,-154 L330,-542 L634,-118 Z" stroke-width="0" fill="#39fac6" fill-opacity="0.996078431372549" />
<path d="M702,-1158 L718,-422 L522,-222 L458,-722 L162,-478 L402,-122 Z" stroke-width="0" fill="#dafbf8" fill-opacity="0.9333333333333333" />
<path d="M446,-1014 L302,-930 L718,-166 L630,-186 L362,-610 L314,-130 Z" stroke-width="0" fill="#9b0110" fill-opacity="0.9686274509803922" />
<path d="M598,-574 L718,-942 L674,-1062 L602,-394 L98,-906 L170,-674 Z" stroke-width="0" fill="#b508ea" fill-opacity="0.7568627450980392" />
<path d="M358,-594 L186,-378 L842,-434 L838,-610 L630,-102 L290,-930 Z" stroke-width="0" fill="#3a4f2d" fill-opacity="0.6549019607843137" />
<path d="M354,-902 L218,-222 L882,-794 L166,-822 L814,-438 L914,-898 Z" stroke-width="0" fill="#f2feff" fill-opacity="0.9882352941176471" />
<path d="M82,-742 L130,-1094 L926,-250 L538,-706 L810,-1022 L538,-258 Z" stroke-width="0" fill="#c22600" fill-opacity="0.7294117647058823" />
<path d="M602,-1202 L762,-454 L778,-870 L390,-446 L218,-1110 L786,-794 Z" stroke-width="0" fill="#edfef4" fill-opacity="0.9176470588235294" />
<path d="M766,-1042 L482,-502 L642,-694 L114,-154 L166,-818 L682,-238 Z" stroke-width="0" fill="#a47802" fill-opacity="0.8313725490196079" />
<path d="M594,-1114 L510,-730 L858,-746 L510,-434 L158,-254 L554,-1274 Z" stroke-width="0" fill="#582ec7" fill-opacity="0.08627450980392157" />
<path d="M102,-122 L186,-1226 L318,-1050 L474,-466 L426,-578 L226,-598 Z" stroke-width="0" fill="#991719" fill-opacity="0.9058823529411765" />
<path d="M486,-1114 L810,-402 L230,-730 L738,-438 L486,-474 L554,-1094 Z" stroke-width="0" fill="#ededf7" fill-opacity="0.403921568627451" />
<path d="M614,-1066 L342,-978 L434,-714 L298,-230 L502,-718 L226,-502 Z" stroke-width="0" fill="#4be471" fill-opacity="0.1843137254901961" />
<path d="M450,-806 L974,-1134 L910,-1154 L650,-994 L730,-622 L842,-642 Z" stroke-width="0" fill="#fafdef" fill-opacity="0.9137254901960784" />
<path d="M110,-574 L838,-394 L246,-1238 L570,-546 L330,-410 L326,-206 Z" stroke-width="0" fill="#6f75ec" fill-opacity="0.3176470588235294" />
<path d="M238,-626 L274,-338 L566,-1146 L854,-278 L966,-678 L166,-118 Z" stroke-width="0" fill="#6b1001" fill-opacity="0.9921568627450981" />
<path d="M406,-450 L370,-502 L570,-578 L846,-650 L558,-210 L634,-742 Z" stroke-width="0" fill="#871646" fill-opacity="0.6705882352941176" />
<path d="M974,-482 L190,-986 L582,-222 L622,-710 L590,-794 L150,-642 Z" stroke-width="0" fill="#702904" fill-opacity="0.9725490196078431" />
<path d="M338,-758 L634,-150 L574,-314 L710,-742 L534,-1118 L806,-114 Z" stroke-width="0" fill="#ccfaf4" fill-opacity="0.8823529411764706" />
<path d="M602,-282 L358,-1210 L470,-678 L358,-870 L922,-1186 L114,-234 Z" stroke-width="0" fill="#d86ca2" fill-opacity="0.047058823529411764" />
<path d="M194,-462 L970,-438 L250,-302 L726,-842 L362,-858 L726,-286 Z" stroke-width="0" fill="#5f1901" fill-opacity="0.9333333333333333" />
<path d="M778,-246 L322,-122 L186,-1206 L102,-846 L154,-270 L842,-1054 Z" stroke-width="0" fill="#6c0336" fill-opacity="0.2235294117647059" />
<path d="M294,-958 L354,-1154 L930,-902 L174,-382 L242,-918 L178,-538 Z" stroke-width="0" fill="#2e07fb" fill-opacity="0.01568627450980392" />
<path d="M850,-670 L662,-346 L330,-858 L494,-850 L630,-1254 L830,-122 Z" stroke-width="0" fill="#f6fbff" fill-opacity="0.9333333333333333" />
<path d="M610,-374 L218,-718 L270,-338 L638,-842 L330,-678 L346,-806 Z" stroke-width="0" fill="#e1ff6a" fill-opacity="0.9647058823529412" />
<path d="M310,-858 L442,-130 L546,-98 L638,-526 L190,-1158 L226,-658 Z" stroke-width="0" fill="#ad59b0" fill-opacity="0.9294117647058824" />
<path d="M662,-386 L634,-950 L798,-922 L214,-338 L182,-750 L594,-262 Z" stroke-width="0" fill="#0e1373" fill-opacity="0.984313725490196" />
<path d="M338,-934 L294,-994 L666,-542 L806,-798 L918,-478 L862,-934 Z" stroke-width="0" fill="#724241" fill-opacity="0.03529411764705882" />
<path d="M826,-1194 L942,-710 L266,-374 L230,-1170 L966,-622 L270,-886 Z" stroke-width="0" fill="#fcfcfd" fill-opacity="0.4980392156862745" />
<path d="M450,-546 L106,-690 L574,-758 L194,-222 L562,-978 L450,-214 Z" stroke-width="0" fill="#aa2518" fill-opacity="0.011764705882352941" />
<path d="M698,-322 L554,-1102 L842,-986 L682,-490 L90,-654 L530,-498 Z" stroke-width="0" fill="#fdfee9" fill-opacity="0.043137254901960784" />
<path d="M590,-598 L854,-718 L750,-434 L558,-558 L518,-702 L514,-722 Z" stroke-width="0" fill="#18bf22" fill-opacity="0.5019607843137255" />
<path d="M258,-590 L346,-1106 L818,-294 L398,-122 L450,-758 L258,-86 Z" stroke-width="0" fill="#202115" fill-opacity="0.9137254901960784" />
<path d="M698,-1110 L174,-1110 L394,-510 L114,-598 L762,-1230 L390,-666 Z" stroke-width="0" fill="#ddecff" fill-opacity="0.9686274509803922" />
<path d="M810,-510 L182,-538 L174,-642 L666,-1014 L254,-522 L842,-982 Z" stroke-width="0" fill="#00570e" fill-opacity="0.6666666666666666" />
<path d="M802,-498 L910,-666 L138,-354 L722,-1090 L646,-150 L350,-970 Z" stroke-width="0" fill="#aa8784" fill-opacity="0.00392156862745098" />
<path d="M510,-774 L194,-738 L474,-446 L226,-458 L86,-874 L626,-114 Z" stroke-width="0" fill="#9b0125" fill-opacity="0.8588235294117647" />
<path d="M922,-606 L638,-954 L930,-1038 L318,-966 L974,-570 L558,-622 Z" stroke-width="0" fill="#fae9df" fill-opacity="0.08235294117647059" />
<path d="M750,-382 L538,-842 L426,-382 L286,-934 L434,-522 L174,-426 Z" stroke-width="0" fill="#62a1cc" fill-opacity="0.9019607843137255" />
<path d="M198,-662 L150,-886 L814,-170 L222,-330 L394,-702 L90,-1066 Z" stroke-width="0" fill="#ac105c" fill-opacity="0.19215686274509805" />
<path d="M210,-734 L518,-890 L978,-962 L882,-210 L850,-382 L766,-722 Z" stroke-width="0" fill="#4f5407" fill-opacity="0.7254901960784313" />
<path d="M878,-398 L830,-134 L318,-106 L534,-214 L726,-182 L186,-934 Z" stroke-width="0" fill="#3d0000" fill-opacity="0.6627450980392157" />
<path d="M102,-770 L686,-322 L110,-426 L338,-974 L218,-1106 L666,-1250 Z" stroke-width="0" fill="#8c0cbb" fill-opacity="0.01568627450980392" />
<path d="M266,-1222 L866,-706 L638,-138 L302,-538 L126,-242 L354,-514 Z" stroke-width="0" fill="#072d26" fill-opacity="0.3568627450980392" />
<path d="M194,-1102 L366,-122 L266,-946 L938,-778 L786,-1074 L790,-642 Z" stroke-width="0" fill="#bfe1eb" fill-opacity="0.10196078431372549" />
<path d="M726,-410 L618,-1030 L726,-222 L378,-146 L342,-486 L426,-214 Z" stroke-width="0" fill="#f5eaf2" fill-opacity="0.9647058823529412" />
<path d="M654,-590 L850,-1102 L362,-262 L822,-830 L390,-282 L882,-462 Z" stroke-width="0" fill="#34f9ab" fill-opacity="0.023529411764705882" />
<path d="M414,-1090 L698,-574 L430,-130 L530,-754 L678,-1030 L326,-742 Z" stroke-width="0" fill="#fdfaf8" fill-opacity="0.9333333333333333" />
<path d="M598,-514 L634,-782 L94,-986 L538,-1270 L870,-1142 L602,-918 Z" stroke-width="0" fill="#f1eeea" fill-opacity="0.7647058823529411" />
<path d="M882,-374 L622,-1130 L334,-894 L738,-618 L954,-674 L346,-98 Z" stroke-width="0" fill="#7ae2bb" fill-opacity="0.0392156862745098" />
<path d="M686,-426 L318,-534 L910,-438 L486,-878 L246,-94 L662,-206 Z" stroke-width="0" fill="#884818" fill-opacity="0.10588235294117647" />
<path d="M322,-302 L522,-346 L462,-458 L518,-846 L162,-502 L526,-374 Z" stroke-width="0" fill="#fe1fe3" fill-opacity="0.984313725490196" />
<path d="M270,-354 L178,-1138 L846,-102 L446,-978 L206,-242 L830,-186 Z" stroke-width="0" fill="#f1ecfb" fill-opacity="0.13725490196078433" />
<path d="M498,-1046 L678,-902 L846,-382 L758,-1142 L206,-142 L446,-758 Z" stroke-width="0" fill="#09491d" fill-opacity="0.0" />
<path d="M602,-542 L426,-626 L698,-210 L626,-1034 L742,-114 L962,-1026 Z" stroke-width="0" fill="#a9ac68" fill-opacity="0.9176470588235294" />
<path d="M446,-170 L466,-110 L414,-174 L350,-1154 L838,-502 L190,-194 Z" stroke-width="0" fill="#51e5d0" fill-opacity="0.027450980392156862" />
<path d="M542,-822 L398,-494 L294,-1206 L602,-306 L654,-546 L370,-850 Z" stroke-width="0" fill="#0412c7" fill-opacity="0.1450980392156863" />
<path d="M962,-210 L602,-874 L138,-882 L298,-1274 L82,-310 L650,-222 Z" stroke-width="0" fill="#8e673d" fill-opacity="0.48627450980392156" />
<path d="M102,-1118 L658,-826 L694,-90 L894,-318 L486,-994 L266,-350 Z" stroke-width="0" fill="#d3e6fd" fill-opacity="0.8509803921568627" />
<path d="M694,-1174 L266,-1182 L338,-1146 L854,-350 L850,-294 L226,-666 Z" stroke-width="0" fill="#f9edda" fill-opacity="0.5843137254901961" />
<path d="M370,-590 L182,-946 L630,-1046 L858,-566 L102,-846 L670,-98 Z" stroke-width="0" fill="#182c00" fill-opacity="0.3176470588235294" />
<path d="M86,-414 L150,-678 L558,-1026 L686,-962 L414,-414 L914,-526 Z" stroke-width="0" fill="#a54810" fill-opacity="0.8627450980392157" />
<path d="M690,-202 L434,-678 L378,-722 L398,-430 L674,-462 L254,-866 Z" stroke-width="0" fill="#12c62e" fill-opacity="0.9725490196078431" />
<path d="M782,-290 L754,-862 L554,-454 L174,-334 L490,-230 L586,-246 Z" stroke-width="0" fill="#acd685" fill-opacity="0.6627450980392157" />
<path d="M770,-186 L538,-658 L722,-278 L98,-558 L178,-826 L542,-174 Z" stroke-width="0" fill="#5f0003" fill-opacity="0.7803921568627451" />
<path d="M670,-1046 L338,-1262 L186,-750 L830,-930 L618,-1178 L582,-610 Z" stroke-width="0" fill="#d7fae2" fill-opacity="0.23921568627450981" />
<path d="M98,-166 L402,-1262 L374,-1278 L506,-1194 L178,-1054 L882,-698 Z" stroke-width="0" fill="#260b34" fill-opacity="0.12941176470588237" />
<path d="M566,-658 L730,-478 L298,-162 L882,-754 L138,-326 L198,-862 Z" stroke-width="0" fill="#c60039" fill-opacity="0.011764705882352941" />
<path d="M490,-1190 L130,-682 L262,-366 L978,-482 L562,-110 L650,-330 Z" stroke-width="0" fill="#fbe8e1" fill-opacity="0.12156862745098039" />
<path d="M730,-234 L670,-342 L402,-826 L930,-202 L966,-914 L490,-886 Z" stroke-width="0" fill="#27173c" fill-opacity="0.33725490196078434" />
<path d="M158,-1014 L590,-1022 L526,-694 L110,-266 L590,-798 L106,-798 Z" stroke-width="0" fill="#cc7026" fill-opacity="0.8862745098039215" />
<path d="M222,-750 L922,-678 L794,-390 L554,-670 L102,-114 L866,-214 Z" stroke-width="0" fill="#846795" fill-opacity="0.19607843137254902" />
<path d="M886,-362 L698,-290 L278,-394 L354,-82 L242,-794 L654,-914 Z" stroke-width="0" fill="#3d1724" fill-opacity="0.7058823529411765" />
<path d="M870,-590 L422,-858 L154,-1110 L734,-758 L394,-886 L666,-494 Z" stroke-width="0" fill="#c7e2c8" fill-opacity="0.3137254901960784" />
<path d="M466,-214 L530,-214 L82,-466 L794,-750 L478,-898 L466,-1198 Z" stroke-width="0" fill="#f23a64" fill-opacity="0.09019607843137255" />
<path d="M518,-898 L670,-634 L154,-682 L618,-1262 L722,-842 L790,-182 Z" stroke-width="0" fill="#dbeefd" fill-opacity="0.09803921568627451" />
<path d="M182,-490 L302,-1002 L370,-950 L378,-846 L966,-1270 L650,-826 Z" stroke-width="0" fill="#f3f0fa" fill-opacity="0.16470588235294117" />
<path d="M502,-362 L402,-318 L842,-610 L838,-382 L150,-866 L786,-1278 Z" stroke-width="0" fill="#fcf2f9" fill-opacity="0.17254901960784313" />
<path d="M686,-842 L94,-910 L482,-286 L626,-1118 L378,-462 L918,-654 Z" stroke-width="0" fill="#e7ac1e" fill-opacity="0.16470588235294117" />
<path d="M162,-458 L146,-446 L726,-586 L774,-922 L866,-718 L454,-814 Z" stroke-width="0" fill="#2a2417" fill-opacity="0.4470588235294118" />
<path d="M390,-338 L606,-358 L874,-98 L858,-934 L590,-146 L826,-378 Z" stroke-width="0" fill="#88664c" fill-opacity="0.592156862745098" />
<path d="M702,-1030 L322,-210 L142,-450 L354,-526 L246,-670 L162,-666 Z" stroke-width="0" fill="#eeece3" fill-opacity="0.5529411764705883" />
<text x="448.0" y="0" font-size="70.0" fill="black" text-anchor="middle" transform="translate(0,17.5)">6 OF AIR</text>
</svg>