<?xml version="1.0" encoding="UTF-8"?>
<svg xmlns="http://www.w3.org/2000/svg" xmlns:xlink="http://www.w3.org/1999/xlink"
     width="896" height="1496" viewBox="0 -1400 896 1496" style="font-size:70;font-family:Poor Richard, Times New Roman;stroke:black;stroke-width:1;fill:none">
<defs>
</defs>
<path d="M778,-834 L938,-346 L370,-854 L294,-994 L386,-1118 L290,-194 Z" stroke-width="0" fill="#0b3cec" fill-opacity="0.5019607843137255" />
<path d="M466,-854 L202,-798 L830,-214 L634,-1090 L614,-706 L298,-726 Z" stroke-width="0" fill="#f98375" fill-opacity="0.1411764705882353" />
<path d="M758,-846 L730,-1054 L434,-338 L694,-94 L626,-258 L854,-158 Z" stroke-width="0" fill="#041a0f" fill-opacity="0.7490196078431373" />
<path d="M526,-90 L498,-186 L846,-786 L214,-142 L702,-970 L526,-110 Z" stroke-width="0" fill="#811ce3" fill-opacity="0.12941176470588237" />
<path d="M374,-958 L782,-878 L538,-834 L406,-862 L422,-382 L394,-778 Z" stroke-width="0" fill="#c05888" fill-opacity="0.6078431372549019" />
<path d="M198,-446 L674,-278 L246,-170 L630,-1274 L494,-306 L810,-670 Z" stroke-width="0" fill="#edc1fb" fill-opacity="0.5215686274509804" />
<path d="M774,-306 L826,-930 L430,-590 L198,-606 L858,-770 L138,-1006 Z" stroke-width="0" fill="#d76ad6" fill-opacity="0.1607843137254902" />
<path d="M242,-1262 L430,-978 L386,-186 L890,-406 L922,-550 L670,-522 Z" stroke-width="0" fill="#9e0925" fill-opacity="0.2980392156862745" />
<path d="M118,-246 L610,-634 L454,-866 L954,-258 L922,-1154 L942,-1034 Z" stroke-width="0" fill="#000000" fill-opacity="0.5019607843137255" />
<path d="M146,-134 L490,-1258 L966,-918 L146,-810 L882,-270 L290,-298 Z" stroke-width="0" fill="#5657ab" fill-opacity="0.5019607843137255" />
<path d="M638,-354 L670,-574 L702,-182 L502,-138 L310,-202 L506,-1070 Z" stroke-width="0" fill="#dd8c11" fill-opacity="0.21568627450980393" />
<path d="M362,-1062 L302,-198 L274,-622 L518,-102 L430,-654 L430,-526 Z" stroke-width="0" fill="#f86d25" fill-opacity="0.027450980392156862" />
<path d="M146,-466 L310,-402 L686,-1202 L326,-790 L634,-394 L182,-1206 Z" stroke-width="0" fill="#acfefc" fill-opacity="0.047058823529411764" />
<path d="M230,-790 L490,-822 L482,-1106 L426,-1106 L86,-434 L750,-978 Z" stroke-width="0" fill="#7f476f" fill-opacity="0.00392156862745098" />
<path d="M278,-566 L190,-762 L574,-238 L730,-806 L478,-378 L538,-246 Z" stroke-width="0" fill="#fb097f" fill-opacity="0.027450980392156862" />
<path d="M662,-810 L598,-654 L762,-1146 L594,-362 L654,-578 L638,-270 Z" stroke-width="0" fill="#2a1800" fill-opacity="0.9686274509803922" />
<path d="M866,-414 L226,-774 L466,-1050 L718,-278 L402,-878 L510,-218 Z" stroke-width="0" fill="#fffaee" fill-opacity="0.9372549019607843" />
<path d="M102,-874 L330,-882 L726,-1162 L178,-514 L602,-738 L494,-782 Z" stroke-width="0" fill="#79a9ca" fill-opacity="0.5019607843137255" />
<path d="M794,-1178 L730,-858 L762,-1194 L530,-238 L210,-350 L602,-914 Z" stroke-width="0" fill="#6d8b92" fill-opacity="0.7215686274509804" />
<path d="M94,-98 L314,-1226 L294,-750 L186,-586 L566,-1186 L734,-618 Z" stroke-width="0" fill="#a5bbf5" fill-opacity="0.996078431372549" />
<path d="M254,-542 L374,-954 L318,-118 L230,-178 L130,-378 L698,-254 Z" stroke-width="0" fill="#65bfd9" fill-opacity="0.29411764705882354" />
<path d="M606,-598 L318,-198 L158,-646 L698,-294 L750,-1130 L338,-930 Z" stroke-width="0" fill="#813ea1" fill-opacity="0.0196078431372549" />
<path d="M926,-582 L886,-666 L778,-1214 L306,-1046 L854,-198 L486,-382 Z" stroke-width="0" fill="#465c77" fill-opacity="0.5019607843137255" />
<path d="M598,-198 L894,-458 L118,-1178 L302,-618 L282,-1050 L350,-1238 Z" stroke-width="0" fill="#f2c09a" fill-opacity="0.27058823529411763" />
<path d="M726,-314 L870,-1194 L362,-826 L498,-282 L446,-1186 L246,-882 Z" stroke-width="0" fill="#001c0d" fill-opacity="0.24705882352941178" />
<path d="M126,-254 L898,-926 L902,-294 L338,-218 L578,-762 L454,-818 Z" stroke-width="0" fill="#1441a0" fill-opacity="0.8941176470588236" />
<path d="M490,-842 L158,-1166 L310,-446 L698,-1134 L438,-522 L326,-934 Z" stroke-width="0" fill="#ffc1c1" fill-opacity="0.03137254901960784" />
<path d="M346,-974 L434,-922 L170,-714 L258,-266 L942,-590 L482,-806 Z" stroke-width="0" fill="#070006" fill-opacity="0.4549019607843137" />
<path d="M258,-794 L98,-466 L374,-902 L818,-354 L910,-810 L262,-862 Z" stroke-width="0" fill="#298518" fill-opacity="0.011764705882352941" />
<path d="M94,-154 L646,-1042 L422,-550 L910,-414 L414,-778 L158,-458 Z" stroke-width="0" fill="#8db7e5" fill-opacity="0.9019607843137255" />
<path d="M702,-1054 L454,-554 L886,-454 L158,-202 L218,-470 L642,-634 Z" stroke-width="0" fill="#fdfebb" fill-opacity="0.5607843137254902" />
<path d="M662,-402 L386,-522 L394,-930 L442,-682 L702,-1010 L502,-114 Z" stroke-width="0" fill="#b7c9ce" fill-opacity="0.2" />
<path d="M190,-1078 L82,-478 L206,-202 L958,-218 L470,-334 L678,-1210 Z" stroke-width="0" fill="#5883c2" fill-opacity="0.3215686274509804" />
<path d="M494,-1242 L622,-422 L714,-1258 L586,-210 L854,-482 L362,-538 Z" stroke-width="0" fill="#b3e38c" fill-opacity="0.3058823529411765" />
<path d="M126,-350 L626,-970 L934,-382 L302,-122 L718,-1042 L634,-394 Z" stroke-width="0" fill="#758587" fill-opacity="0.1607843137254902" />
<path d="M822,-158 L466,-918 L422,-342 L974,-822 L318,-954 L274,-290 Z" stroke-width="0" fill="#37152b" fill-opacity="0.9529411764705882" />
<path d="M254,-730 L842,-306 L418,-658 L326,-294 L858,-142 L630,-994 Z" stroke-width="0" fill="#ddc7e8" fill-opacity="0.796078431372549" />
<path d="M858,-858 L542,-526 L230,-258 L966,-958 L598,-1262 L206,-762 Z" stroke-width="0" fill="#36453d" fill-opacity="0.42745098039215684" />
<path d="M518,-962 L274,-1154 L310,-418 L442,-778 L570,-1162 L294,-878 Z" stroke-width="0" fill="#768893" fill-opacity="0.29411764705882354" />
<path d="M510,-442 L198,-146 L222,-1218 L502,-118 L298,-678 L134,-1014 Z" stroke-width="0" fill="#d1d6fc" fill-opacity="0.8431372549019608" />
<path d="M230,-590 L506,-702 L174,-238 L358,-462 L702,-534 L102,-218 Z" stroke-width="0" fill="#64f0e3" fill-opacity="0.047058823529411764" />
<path d="M234,-946 L194,-434 L690,-1014 L202,-530 L354,-1030 L302,-866 Z" stroke-width="0" fill="#ffe1ef" fill-opacity="0.9058823529411765" />
<path d="M406,-646 L954,-466 L562,-754 L574,-1122 L362,-354 L658,-478 Z" stroke-width="0" fill="#000066" fill-opacity="0.7803921568627451" />
<path d="M342,-702 L934,-86 L538,-262 L258,-566 L750,-446 L258,-1050 Z" stroke-width="0" fill="#380396" fill-opacity="0.788235294117647" />
<path d="M574,-254 L858,-594 L170,-310 L386,-790 L490,-898 L282,-978 Z" stroke-width="0" fill="#0138d1" fill-opacity="0.0392156862745098" />
<path d="M438,-546 L186,-246 L438,-1014 L94,-514 L578,-1082 L86,-402 Z" stroke-width="0" fill="#a2b9e7" fill-opacity="0.9686274509803922" />
<path d="M314,-562 L402,-1078 L730,-358 L558,-1146 L318,-998 L246,-190 Z" stroke-width="0" fill="#b6f86f" fill-opacity="0.2" />
<path d="M622,-926 L714,-1210 L202,-886 L618,-318 L142,-974 L242,-1138 Z" stroke-width="0" fill="#9dffef" fill-opacity="0.20392156862745098" />
<path d="M858,-354 L894,-90 L326,-290 L358,-294 L806,-438 L426,-518 Z" stroke-width="0" fill="#140017" fill-opacity="0.8" />
<path d="M586,-1118 L706,-1262 L794,-314 L246,-342 L158,-1118 L126,-146 Z" stroke-width="0" fill="#b2bbd2" fill-opacity="0.611764705882353" />
<path d="M710,-106 L386,-222 L678,-538 L410,-790 L298,-614 L306,-746 Z" stroke-width="0" fill="#f6b4c2" fill-opacity="0.5019607843137255" />
<path d="M662,-530 L590,-490 L706,-474 L662,-642 L522,-794 L558,-846 Z" stroke-width="0" fill="#bffec7" fill-opacity="0.9333333333333333" />
<path d="M454,-710 L370,-386 L838,-718 L390,-1110 L322,-370 L902,-1182 Z" stroke-width="0" fill="#b34b1e" fill-opacity="0.3568627450980392" />
<path d="M234,-258 L602,-1002 L806,-1002 L150,-646 L594,-214 L542,-1278 Z" stroke-width="0" fill="#7d9c3a" fill-opacity="0.2235294117647059" />
<path d="M194,-542 L426,-902 L338,-226 L578,-1086 L718,-278 L614,-274 Z" stroke-width="0" fill="#130373" fill-opacity="0.6039215686274509" />
<path d="M174,-722 L310,-714 L82,-390 L342,-914 L758,-1118 L326,-1146 Z" stroke-width="0" fill="#f5eeff" fill-opacity="0.15294117647058825" />
<path d="M386,-130 L166,-510 L314,-126 L206,-386 L390,-1138 L358,-450 Z" stroke-width="0" fill="#baaedb" fill-opacity="0.22745098039215686" />
<path d="M366,-830 L494,-86 L454,-566 L962,-622 L938,-1134 L554,-266 Z" stroke-width="0" fill="#240000" fill-opacity="0.9294117647058824" />
<path d="M702,-774 L798,-798 L158,-1010 L230,-854 L578,-798 L334,-530 Z" stroke-width="0" fill="#f5c2f6" fill-opacity="0.9607843137254902" />
<path d="M626,-498 L890,-1070 L522,-470 L538,-618 L586,-238 L854,-1122 Z" stroke-width="0" fill="#732507" fill-opacity="0.7843137254901961" />
<path d="M786,-478 L674,-98 L126,-162 L106,-474 L126,-314 L866,-410 Z" stroke-width="0" fill="#1244a2" fill-opacity="0.2235294117647059" />
<path d="M914,-274 L190,-1046 L662,-566 L334,-458 L166,-566 L922,-890 Z" stroke-width="0" fill="#464131" fill-opacity="0.5372549019607843" />
<path d="M666,-762 L318,-702 L358,-150 L758,-498 L646,-806 L570,-706 Z" stroke-width="0" fill="#cfe3de" fill-opacity="0.9098039215686274" />
<path d="M934,-886 L82,-770 L566,-634 L346,-474 L298,-302 L282,-586 Z" stroke-width="0" fill="#a02e55" fill-opacity="0.00784313725490196" />
<path d="M578,-706 L666,-646 L258,-802 L838,-666 L890,-798 L906,-398 Z" stroke-width="0" fill="#4a0000" fill-opacity="0.5843137254901961" />
<path d="M86,-778 L186,-606 L122,-1246 L530,-838 L342,-82 L678,-1278 Z" stroke-width="0" fill="#9acadf" fill-opacity="0.6039215686274509" />
<path d="M98,-826 L606,-462 L130,-390 L962,-1234 L370,-238 L758,-1094 Z" stroke-width="0" fill="#093d53" fill-opacity="0.5568627450980392" />
<path d="M358,-1226 L926,-814 L226,-1030 L546,-1182 L886,-1030 L258,-822 Z" stroke-width="0" fill="#ddcab7" fill-opacity="0.22745098039215686" />
<path d="M958,-1042 L606,-842 L758,-962 L450,-182 L270,-238 L190,-1086 Z" stroke-width="0" fill="#af8eb4" fill-opacity="0.3176470588235294" />
<path d="M158,-314 L850,-1054 L98,-446 L174,-394 L226,-198 L718,-338 Z" stroke-width="0" fill="#a7ceed" fill-opacity="0.5529411764705883" />
<path d="M506,-1210 L530,-658 L214,-526 L870,-482 L430,-830 L522,-850 Z" stroke-width="0" fill="#619283" fill-opacity="0.07450980392156863" />
<path d="M222,-1042 L534,-742 L186,-1022 L214,-894 L622,-1098 L322,-254 Z" stroke-width="0" fill="#bf23ee" fill-opacity="0.027450980392156862" />
<path d="M262,-906 L338,-942 L454,-386 L342,-882 L94,-522 L298,-406 Z" stroke-width="0" fill="#f0e3e7" fill-opacity="0.7058823529411765" />
<path d="M114,-474 L654,-142 L886,-270 L762,-646 L410,-902 L486,-90 Z" stroke-width="0" fill="#6e96e4" fill-opacity="0.2" />
<path d="M406,-922 L90,-618 L958,-286 L374,-218 L130,-1214 L526,-798 Z" stroke-width="0" fill="#b0cff7" fill-opacity="0.11764705882352941" />
<path d="M790,-82 L890,-682 L922,-822 L198,-226 L402,-894 L398,-682 Z" stroke-width="0" fill="#5f4c5e" fill-opacity="0.25882352941176473" />
<path d="M506,-1014 L722,-1018 L774,-1086 L810,-374 L470,-614 L774,-998 Z" stroke-width="0" fill="#7eddc7" fill-opacity="0.4823529411764706" />
<path d="M234,-1274 L858,-406 L234,-562 L694,-1058 L822,-650 L686,-614 Z" stroke-width="0" fill="#e5eec9" fill-opacity="0.5568627450980392" />
<path d="M850,-278 L378,-238 L94,-474 L574,-1066 L894,-766 L558,-870 Z" stroke-width="0" fill="#e5f9db" fill-opacity="0.3764705882352941" />
<path d="M458,-150 L374,-570 L362,-170 L294,-154 L494,-922 L942,-86 Z" stroke-width="0" fill="#53dac7" fill-opacity="0.2627450980392157" />
<path d="M726,-350 L510,-98 L958,-422 L638,-1246 L654,-634 L546,-206 Z" stroke-width="0" fill="#83a463" fill-opacity="0.45098039215686275" />
<path d="M822,-838 L314,-918 L702,-574 L650,-538 L962,-1118 L106,-126 Z" stroke-width="0" fill="#694ed3" fill-opacity="0.16470588235294117" />
<path d="M162,-578 L450,-1110 L358,-1006 L346,-126 L866,-1098 L798,-762 Z" stroke-width="0" fill="#bbd1d7" fill-opacity="0.06666666666666667" />
<path d="M266,-318 L602,-710 L954,-370 L762,-86 L238,-938 L278,-242 Z" stroke-width="0" fill="#2289f7" fill-opacity="0.17254901960784313" />
<path d="M342,-994 L262,-826 L842,-1078 L586,-262 L682,-138 L722,-798 Z" stroke-width="0" fill="#0f373b" fill-opacity="0.3764705882352941" />
<path d="M318,-366 L362,-190 L470,-622 L354,-990 L470,-730 L418,-554 Z" stroke-width="0" fill="#c3e1c4" fill-opacity="0.8627450980392157" />
<path d="M906,-1022 L310,-694 L730,-586 L522,-1166 L154,-614 L422,-130 Z" stroke-width="0" fill="#cde6ea" fill-opacity="0.4" />
<path d="M878,-310 L334,-194 L342,-630 L866,-514 L502,-94 L826,-118 Z" stroke-width="0" fill="#11278b" fill-opacity="0.20392156862745098" />
<path d="M506,-294 L190,-118 L522,-234 L102,-110 L170,-570 L230,-718 Z" stroke-width="0" fill="#f6f8bd" fill-opacity="0.2980392156862745" />
<path d="M798,-966 L450,-858 L754,-1154 L910,-1190 L378,-662 L482,-582 Z" stroke-width="0" fill="#26076d" fill-opacity="0.3137254901960784" />
<path d="M822,-98 L490,-930 L306,-966 L330,-174 L114,-1146 L294,-1022 Z" stroke-width="0" fill="#da92eb" fill-opacity="0.043137254901960784" />
<path d="M598,-266 L310,-270 L302,-518 L354,-370 L966,-1074 L494,-326 Z" stroke-width="0" fill="#dcdee2" fill-opacity="0.4392156862745098" />
<path d="M98,-146 L818,-1182 L94,-742 L146,-686 L522,-1258 L178,-1238 Z" stroke-width="0" fill="#aec2d6" fill-opacity="0.8392156862745098" />
<path d="M674,-266 L550,-578 L510,-646 L666,-1070 L494,-1098 L714,-1022 Z" stroke-width="0" fill="#6d90e9" fill-opacity="0.28627450980392155" />
<path d="M278,-86 L358,-154 L298,-238 L266,-290 L710,-282 L126,-538 Z" stroke-width="0" fill="#2dd4f2" fill-opacity="0.0392156862745098" />
<path d="M890,-902 L138,-314 L274,-1254 L302,-234 L862,-782 L254,-486 Z" stroke-width="0" fill="#cfc5f0" fill-opacity="0.13725490196078433" />
<path d="M914,-778 L766,-526 L946,-930 L798,-1122 L358,-302 L654,-318 Z" stroke-width="0" fill="#70479e" fill-opacity="0.1450980392156863" />
<path d="M414,-458 L274,-442 L294,-302 L778,-758 L402,-262 L902,-1170 Z" stroke-width="0" fill="#70e2a5" fill-opacity="0.011764705882352941" />
<path d="M854,-418 L914,-606 L442,-458 L518,-458 L902,-1074 L478,-818 Z" stroke-width="0" fill="#b79c45" fill-opacity="0.3333333333333333" />
<path d="M142,-750 L890,-470 L570,-562 L430,-1062 L90,-422 L974,-930 Z" stroke-width="0" fill="#abdac9" fill-opacity="0.3764705882352941" />
<text x="448.0" y="0" font-size="70.0" fill="black" text-anchor="middle" transform="translate(0,17.5)">8 OF AIR</text>
</svg>