<?xml version="1.0" encoding="UTF-8"?>
<svg xmlns="http://www.w3.org/2000/svg" xmlns:xlink="http://www.w3.org/1999/xlink"
     width="275" height="375" viewBox="0 -350 275 375">
<defs>
</defs>
<rect x="15" y="-335" width="245" height="320" stroke="black" stroke-width="4" fill="white" />
<path d="M238,-145 L145,-150 L30,-158 L58,-252 L129,-228 L225,-51 Z" stroke-width="0" fill="#eff8ec" fill-opacity="0.047058823529411764" />
<path d="M140,-222 L218,-149 L145,-278 L233,-120 L187,-242 L116,-114 Z" stroke-width="0" fill="#1277cc" fill-opacity="0.17254901960784313" />
<path d="M31,-41 L47,-229 L227,-233 L102,-73 L207,-239 L189,-191 Z" stroke-width="0" fill="#dbcbde" fill-opacity="0.08627450980392157" />
<path d="M50,-168 L100,-282 L123,-146 L181,-49 L43,-117 L33,-177 Z" stroke-width="0" fill="#f8fff2" fill-opacity="0.047058823529411764" />
<path d="M85,-187 L38,-107 L86,-315 L62,-83 L59,-157 L174,-235 Z" stroke-width="0" fill="#fee6ee" fill-opacity="0.1411764705882353" />
<path d="M127,-269 L152,-284 L79,-319 L176,-97 L74,-99 L41,-61 Z" stroke-width="0" fill="#d4f0ef" fill-opacity="0.03137254901960784" />
<path d="M133,-134 L121,-181 L66,-270 L174,-123 L78,-195 L76,-248 Z" stroke-width="0" fill="#00667f" fill-opacity="0.984313725490196" />
<path d="M121,-80 L237,-244 L88,-49 L96,-72 L120,-85 L70,-254 Z" stroke-width="0" fill="#002e57" fill-opacity="0.30980392156862746" />
<path d="M125,-193 L42,-289 L77,-119 L146,-293 L120,-95 L195,-25 Z" stroke-width="0" fill="#fde5e2" fill-opacity="0.058823529411764705" />
<path d="M76,-197 L202,-114 L245,-57 L68,-46 L190,-104 L39,-235 Z" stroke-width="0" fill="#fef8e7" fill-opacity="0.12549019607843137" />
<path d="M248,-126 L160,-110 L35,-193 L205,-321 L177,-260 L108,-214 Z" stroke-width="0" fill="#ffe7fe" fill-opacity="0.12156862745098039" />
<path d="M163,-96 L159,-96 L74,-113 L153,-94 L203,-269 L239,-128 Z" stroke-width="0" fill="#39a16b" fill-opacity="0.8" />
<path d="M38,-208 L152,-110 L87,-289 L191,-241 L233,-80 L120,-261 Z" stroke-width="0" fill="#afffbf" fill-opacity="0.6784313725490196" />
<path d="M140,-180 L49,-169 L103,-111 L174,-131 L163,-86 L43,-278 Z" stroke-width="0" fill="#f5eff6" fill-opacity="0.03137254901960784" />
<path d="M155,-30 L225,-35 L139,-320 L182,-197 L249,-43 L130,-102 Z" stroke-width="0" fill="#e8e1f6" fill-opacity="0.050980392156862744" />
<path d="M37,-225 L234,-271 L192,-115 L191,-196 L76,-145 L187,-91 Z" stroke-width="0" fill="#000225" fill-opacity="0.792156862745098" />
<path d="M83,-137 L195,-222 L145,-58 L74,-79 L60,-154 L35,-259 Z" stroke-width="0" fill="#fffffe" fill-opacity="0.21568627450980393" />
<path d="M170,-54 L160,-176 L139,-62 L175,-44 L204,-92 L116,-32 Z" stroke-width="0" fill="#e0ddb8" fill-opacity="0.08627450980392157" />
<path d="M36,-98 L143,-37 L79,-258 L175,-299 L206,-308 L177,-147 Z" stroke-width="0" fill="#f5f9f8" fill-opacity="0.047058823529411764" />
<path d="M241,-291 L107,-261 L149,-142 L35,-102 L30,-255 L51,-163 Z" stroke-width="0" fill="#f4c5e5" fill-opacity="0.08627450980392157" />
<path d="M102,-217 L91,-243 L110,-258 L221,-190 L42,-209 L237,-39 Z" stroke-width="0" fill="#fafee0" fill-opacity="0.050980392156862744" />
<path d="M53,-239 L93,-138 L30,-32 L242,-128 L41,-237 L68,-99 Z" stroke-width="0" fill="#f4fef4" fill-opacity="0.9411764705882353" />
<path d="M121,-72 L104,-73 L239,-322 L192,-276 L131,-126 L232,-147 Z" stroke-width="0" fill="#f6fcff" fill-opacity="0.23529411764705882" />
<path d="M40,-298 L56,-190 L96,-70 L87,-90 L81,-184 L181,-237 Z" stroke-width="0" fill="#f7f4f4" fill-opacity="0.011764705882352941" />
<path d="M158,-156 L237,-187 L222,-168 L27,-99 L75,-109 L231,-72 Z" stroke-width="0" fill="#eaffde" fill-opacity="0.4" />
<path d="M74,-108 L114,-114 L111,-223 L226,-142 L180,-184 L245,-105 Z" stroke-width="0" fill="#b29fb2" fill-opacity="0.7529411764705882" />
<path d="M102,-209 L220,-252 L76,-236 L53,-120 L40,-270 L160,-55 Z" stroke-width="0" fill="#c6e2eb" fill-opacity="0.27058823529411763" />
<path d="M222,-166 L231,-226 L128,-222 L217,-159 L212,-94 L33,-79 Z" stroke-width="0" fill="#000043" fill-opacity="0.5019607843137255" />
<path d="M241,-155 L166,-154 L51,-45 L238,-182 L245,-168 L226,-144 Z" stroke-width="0" fill="#3c4d00" fill-opacity="0.47058823529411764" />
<path d="M109,-106 L218,-76 L72,-151 L215,-226 L92,-218 L134,-216 Z" stroke-width="0" fill="#daba0f" fill-opacity="0.45098039215686275" />
<path d="M207,-162 L168,-100 L237,-75 L70,-107 L171,-83 L210,-55 Z" stroke-width="0" fill="#f5fb29" fill-opacity="0.6745098039215687" />
<path d="M76,-81 L249,-226 L220,-150 L120,-71 L111,-170 L138,-320 Z" stroke-width="0" fill="#00312a" fill-opacity="0.5294117647058824" />
<path d="M128,-66 L136,-36 L89,-321 L135,-315 L57,-115 L100,-184 Z" stroke-width="0" fill="#fcf6f0" fill-opacity="0.0196078431372549" />
<path d="M206,-27 L111,-27 L239,-150 L107,-118 L185,-291 L85,-218 Z" stroke-width="0" fill="#d9c2f8" fill-opacity="0.00392156862745098" />
<path d="M137,-260 L41,-272 L226,-62 L99,-203 L200,-81 L208,-72 Z" stroke-width="0" fill="#f34a92" fill-opacity="0.011764705882352941" />
<path d="M145,-252 L224,-298 L139,-172 L196,-200 L195,-234 L193,-251 Z" stroke-width="0" fill="#19c2fa" fill-opacity="0.27450980392156865" />
<path d="M223,-120 L153,-94 L159,-27 L151,-174 L182,-31 L144,-162 Z" stroke-width="0" fill="#ffeef5" fill-opacity="0.7568627450980392" />
<path d="M125,-61 L74,-103 L183,-98 L205,-36 L64,-25 L64,-263 Z" stroke-width="0" fill="#e0edf0" fill-opacity="0.027450980392156862" />
<path d="M169,-277 L64,-236 L185,-49 L114,-157 L37,-80 L237,-43 Z" stroke-width="0" fill="#d7e5de" fill-opacity="0.054901960784313725" />
<path d="M98,-241 L37,-144 L31,-251 L121,-192 L129,-48 L52,-53 Z" stroke-width="0" fill="#e1ddd4" fill-opacity="0.050980392156862744" />
<path d="M245,-122 L25,-194 L218,-290 L66,-75 L50,-318 L145,-108 Z" stroke-width="0" fill="#fff9fb" fill-opacity="0.047058823529411764" />
<path d="M186,-165 L104,-270 L42,-275 L207,-124 L132,-277 L164,-260 Z" stroke-width="0" fill="#82d4f2" fill-opacity="0.058823529411764705" />
<path d="M26,-105 L73,-33 L162,-286 L208,-234 L197,-225 L70,-82 Z" stroke-width="0" fill="#d1ffbf" fill-opacity="0.15294117647058825" />
<path d="M103,-200 L179,-50 L96,-59 L51,-136 L104,-31 L72,-84 Z" stroke-width="0" fill="#eee3db" fill-opacity="0.00784313725490196" />
<path d="M192,-126 L183,-136 L90,-74 L64,-222 L224,-178 L84,-212 Z" stroke-width="0" fill="#0a0d63" fill-opacity="1.0" />
<path d="M92,-27 L210,-200 L161,-48 L180,-157 L65,-32 L107,-25 Z" stroke-width="0" fill="#f0f4f0" fill-opacity="0.027450980392156862" />
<path d="M155,-319 L224,-132 L77,-33 L207,-34 L211,-29 L183,-264 Z" stroke-width="0" fill="#f7f48a" fill-opacity="0.11372549019607843" />
<path d="M136,-128 L155,-264 L53,-75 L124,-163 L131,-201 L155,-75 Z" stroke-width="0" fill="#1edc4d" fill-opacity="0.3215686274509804" />
<path d="M216,-97 L142,-108 L153,-104 L60,-181 L185,-241 L141,-126 Z" stroke-width="0" fill="#003e13" fill-opacity="0.9176470588235294" />
<path d="M143,-178 L146,-156 L66,-266 L58,-241 L153,-193 L232,-103 Z" stroke-width="0" fill="#138c81" fill-opacity="0.8509803921568627" />
<path d="M60,-140 L175,-41 L56,-176 L31,-86 L28,-45 L163,-121 Z" stroke-width="0" fill="#ebfff1" fill-opacity="0.9372549019607843" />
<path d="M113,-117 L78,-136 L229,-30 L166,-107 L149,-201 L37,-70 Z" stroke-width="0" fill="#42584a" fill-opacity="0.0" />
<path d="M25,-292 L239,-66 L198,-173 L134,-80 L170,-250 L161,-78 Z" stroke-width="0" fill="#eefed7" fill-opacity="0.00392156862745098" />
<path d="M88,-171 L144,-167 L190,-302 L84,-81 L157,-112 L40,-143 Z" stroke-width="0" fill="#81ecf3" fill-opacity="0.043137254901960784" />
<path d="M158,-271 L239,-44 L28,-41 L30,-89 L64,-319 L195,-126 Z" stroke-width="0" fill="#fac8e6" fill-opacity="0.28627450980392155" />
<path d="M80,-189 L249,-247 L197,-199 L118,-298 L125,-237 L247,-141 Z" stroke-width="0" fill="#00397c" fill-opacity="0.5019607843137255" />
<path d="M220,-176 L171,-118 L182,-25 L31,-158 L193,-104 L48,-218 Z" stroke-width="0" fill="#faffe5" fill-opacity="0.08235294117647059" />
<path d="M63,-60 L124,-182 L137,-302 L66,-68 L82,-284 L223,-285 Z" stroke-width="0" fill="#10315f" fill-opacity="0.43137254901960786" />
<path d="M153,-260 L116,-215 L176,-199 L147,-233 L50,-230 L55,-181 Z" stroke-width="0" fill="#d9fce6" fill-opacity="0.11372549019607843" />
<path d="M96,-324 L102,-245 L31,-50 L109,-194 L146,-150 L181,-313 Z" stroke-width="0" fill="#cdd9f4" fill-opacity="0.00784313725490196" />
<path d="M210,-45 L200,-179 L148,-180 L200,-237 L138,-113 L218,-100 Z" stroke-width="0" fill="#fcfacc" fill-opacity="0.9098039215686274" />
<path d="M100,-265 L64,-202 L241,-170 L65,-249 L57,-170 L35,-196 Z" stroke-width="0" fill="#fdf9fc" fill-opacity="0.20392156862745098" />
<path d="M71,-288 L72,-212 L209,-302 L64,-215 L220,-84 L200,-243 Z" stroke-width="0" fill="#006686" fill-opacity="0.5019607843137255" />
<path d="M132,-228 L29,-128 L90,-226 L164,-279 L228,-194 L82,-170 Z" stroke-width="0" fill="#0013d1" fill-opacity="0.07058823529411765" />
<path d="M27,-187 L122,-167 L130,-244 L143,-54 L153,-197 L136,-52 Z" stroke-width="0" fill="#fcfee6" fill-opacity="0.6705882352941176" />
<path d="M117,-61 L44,-93 L181,-206 L158,-87 L45,-108 L84,-52 Z" stroke-width="0" fill="#eefcc5" fill-opacity="0.5450980392156862" />
<path d="M98,-133 L214,-48 L180,-50 L159,-197 L180,-270 L183,-154 Z" stroke-width="0" fill="#f6e8fc" fill-opacity="0.17254901960784313" />
<path d="M72,-86 L189,-245 L36,-104 L87,-291 L185,-189 L90,-33 Z" stroke-width="0" fill="#ffc4d2" fill-opacity="0.08235294117647059" />
<path d="M101,-75 L165,-143 L179,-202 L166,-258 L59,-100 L196,-163 Z" stroke-width="0" fill="#45b78b" fill-opacity="0.12156862745098039" />
<path d="M100,-148 L174,-230 L79,-137 L232,-251 L81,-68 L200,-229 Z" stroke-width="0" fill="#0b0303" fill-opacity="0.16470588235294117" />
<path d="M216,-279 L206,-65 L127,-254 L32,-75 L107,-39 L141,-235 Z" stroke-width="0" fill="#e4f4e9" fill-opacity="0.027450980392156862" />
<path d="M126,-58 L197,-227 L222,-125 L184,-108 L143,-133 L244,-116 Z" stroke-width="0" fill="#fae3cd" fill-opacity="0.6470588235294118" />
<path d="M80,-108 L133,-270 L96,-33 L239,-309 L50,-59 L204,-95 Z" stroke-width="0" fill="#bee3e2" fill-opacity="0.06666666666666667" />
<path d="M240,-271 L44,-158 L158,-125 L180,-268 L109,-218 L108,-260 Z" stroke-width="0" fill="#0053a6" fill-opacity="0.5529411764705883" />
<path d="M96,-180 L233,-258 L98,-121 L192,-36 L240,-123 L204,-285 Z" stroke-width="0" fill="#9b8abd" fill-opacity="0.24705882352941178" />
<path d="M102,-278 L83,-68 L83,-52 L105,-267 L179,-101 L82,-39 Z" stroke-width="0" fill="#eef1f1" fill-opacity="0.3843137254901961" />
<path d="M222,-37 L148,-146 L32,-170 L43,-72 L137,-64 L119,-285 Z" stroke-width="0" fill="#caecfa" fill-opacity="0.17647058823529413" />
<path d="M38,-127 L34,-113 L83,-193 L102,-221 L45,-226 L68,-134 Z" stroke-width="0" fill="#cebcfb" fill-opacity="0.09411764705882353" />
<path d="M207,-324 L26,-250 L76,-214 L68,-55 L48,-54 L191,-257 Z" stroke-width="0" fill="#3ceff7" fill-opacity="0.054901960784313725" />
<path d="M89,-186 L110,-117 L248,-87 L72,-253 L65,-120 L56,-218 Z" stroke-width="0" fill="#d6c3ad" fill-opacity="0.0" />
<path d="M224,-63 L79,-239 L50,-167 L111,-187 L73,-320 L119,-296 Z" stroke-width="0" fill="#7299f2" fill-opacity="0.3333333333333333" />
<path d="M101,-304 L37,-211 L127,-270 L72,-59 L159,-117 L105,-164 Z" stroke-width="0" fill="#2ec75d" fill-opacity="0.1607843137254902" />
<path d="M53,-43 L58,-160 L185,-190 L57,-186 L84,-288 L139,-233 Z" stroke-width="0" fill="#05509b" fill-opacity="0.1803921568627451" />
<path d="M101,-152 L85,-221 L52,-305 L64,-63 L126,-312 L91,-291 Z" stroke-width="0" fill="#f1d3e1" fill-opacity="0.1450980392156863" />
<path d="M144,-67 L91,-193 L77,-259 L52,-32 L57,-181 L102,-181 Z" stroke-width="0" fill="#d4addb" fill-opacity="0.10196078431372549" />
<path d="M246,-290 L94,-130 L232,-193 L113,-35 L129,-280 L135,-29 Z" stroke-width="0" fill="#98fdf9" fill-opacity="0.5019607843137255" />
<path d="M61,-85 L82,-214 L177,-118 L203,-77 L74,-305 L184,-73 Z" stroke-width="0" fill="#f9a8da" fill-opacity="0.5019607843137255" />
<path d="M113,-58 L133,-311 L99,-39 L41,-91 L53,-35 L107,-163 Z" stroke-width="0" fill="#f4d0d5" fill-opacity="0.18823529411764706" />
<path d="M157,-95 L66,-250 L115,-124 L171,-237 L103,-132 L185,-51 Z" stroke-width="0" fill="#c5ab88" fill-opacity="0.2549019607843137" />
<path d="M68,-66 L93,-28 L144,-280 L127,-188 L102,-217 L172,-284 Z" stroke-width="0" fill="#a68c44" fill-opacity="0.06666666666666667" />
<path d="M242,-246 L199,-231 L191,-238 L221,-324 L77,-251 L199,-186 Z" stroke-width="0" fill="#0a468c" fill-opacity="0.16862745098039217" />
<path d="M115,-55 L213,-292 L148,-169 L110,-110 L209,-289 L246,-74 Z" stroke-width="0" fill="#ffb591" fill-opacity="0.5411764705882353" />
<path d="M91,-60 L47,-264 L85,-193 L153,-212 L50,-127 L79,-272 Z" stroke-width="0" fill="#c9a49f" fill-opacity="0.4117647058823529" />
<path d="M100,-218 L129,-233 L150,-129 L87,-100 L172,-168 L163,-313 Z" stroke-width="0" fill="#a59a92" fill-opacity="0.07058823529411765" />
<path d="M39,-121 L176,-33 L190,-259 L181,-94 L242,-118 L220,-157 Z" stroke-width="0" fill="#f8c455" fill-opacity="0.30980392156862746" />
<path d="M210,-32 L51,-108 L244,-81 L183,-110 L64,-192 L153,-263 Z" stroke-width="0" fill="#b1d5b0" fill-opacity="0.07058823529411765" />
<path d="M162,-211 L157,-239 L116,-190 L100,-26 L26,-275 L64,-151 Z" stroke-width="0" fill="#e07aad" fill-opacity="0.0196078431372549" />
<path d="M90,-65 L215,-209 L40,-104 L63,-175 L46,-223 L140,-254 Z" stroke-width="0" fill="#8aa123" fill-opacity="0.2901960784313726" />
<path d="M117,-302 L101,-213 L127,-37 L141,-90 L64,-42 L137,-53 Z" stroke-width="0" fill="#7b66b1" fill-opacity="0.054901960784313725" />
<path d="M58,-26 L181,-117 L143,-72 L106,-223 L25,-237 L92,-298 Z" stroke-width="0" fill="#fa6294" fill-opacity="0.11372549019607843" />
<text x="137.5" y="12.5" font-size="20.0" fill="black" text-anchor="middle" transform="translate(0,5.0)">10 OF AIR</text>
</svg>