<?xml version="1.0" encoding="UTF-8"?>
<svg xmlns="http://www.w3.org/2000/svg" xmlns:xlink="http://www.w3.org/1999/xlink"
     width="275" height="375" viewBox="0 -350 275 375">
<defs>
</defs>
<rect x="15" y="-335" width="245" height="320" stroke="black" stroke-width="4" fill="white" />
<path d="M195,-231 L124,-311 L198,-31 L171,-266 L84,-227 L72,-260 Z" stroke-width="0" fill="#f1d3f2" fill-opacity="0.07450980392156863" />
<path d="M190,-28 L95,-132 L92,-112 L112,-261 L40,-32 L96,-268 Z" stroke-width="0" fill="#112503" fill-opacity="0.1450980392156863" />
<path d="M181,-254 L58,-215 L56,-149 L137,-98 L58,-57 L152,-205 Z" stroke-width="0" fill="#1266db" fill-opacity="0.10588235294117647" />
<path d="M192,-66 L98,-284 L28,-33 L54,-66 L31,-211 L198,-141 Z" stroke-width="0" fill="#670480" fill-opacity="0.21568627450980393" />
<path d="M206,-49 L111,-235 L40,-85 L104,-314 L160,-191 L163,-67 Z" stroke-width="0" fill="#991586" fill-opacity="0.5137254901960784" />
<path d="M242,-118 L71,-125 L149,-144 L57,-253 L171,-223 L209,-211 Z" stroke-width="0" fill="#0f4202" fill-opacity="0.6901960784313725" />
<path d="M80,-170 L30,-250 L87,-99 L212,-155 L72,-255 L205,-198 Z" stroke-width="0" fill="#e2c255" fill-opacity="0.15294117647058825" />
<path d="M130,-259 L201,-309 L25,-200 L87,-48 L176,-93 L173,-94 Z" stroke-width="0" fill="#7cee2d" fill-opacity="0.24705882352941178" />
<path d="M219,-174 L135,-251 L110,-73 L170,-307 L100,-156 L93,-182 Z" stroke-width="0" fill="#f5eac7" fill-opacity="0.7058823529411765" />
<path d="M49,-277 L121,-88 L193,-57 L60,-156 L143,-266 L25,-294 Z" stroke-width="0" fill="#e8ebc1" fill-opacity="0.39215686274509803" />
<path d="M25,-36 L138,-34 L182,-269 L200,-29 L232,-178 L127,-105 Z" stroke-width="0" fill="#0d83c4" fill-opacity="0.12941176470588237" />
<path d="M236,-209 L105,-319 L26,-46 L30,-275 L172,-137 L68,-169 Z" stroke-width="0" fill="#64446d" fill-opacity="0.5019607843137255" />
<path d="M51,-297 L87,-210 L225,-212 L89,-52 L125,-277 L230,-159 Z" stroke-width="0" fill="#fdcbfa" fill-opacity="0.2" />
<path d="M125,-152 L32,-94 L30,-169 L99,-141 L147,-237 L108,-260 Z" stroke-width="0" fill="#5c628a" fill-opacity="0.25882352941176473" />
<path d="M78,-309 L131,-115 L56,-308 L127,-155 L109,-245 L176,-61 Z" stroke-width="0" fill="#bfdffd" fill-opacity="0.03529411764705882" />
<path d="M68,-60 L57,-316 L69,-238 L204,-202 L35,-230 L144,-79 Z" stroke-width="0" fill="#897288" fill-opacity="0.17647058823529413" />
<path d="M88,-91 L208,-91 L110,-126 L187,-122 L88,-285 L108,-71 Z" stroke-width="0" fill="#ff2b67" fill-opacity="0.0" />
<path d="M81,-29 L200,-180 L46,-236 L204,-245 L101,-131 L228,-241 Z" stroke-width="0" fill="#73aaa8" fill-opacity="0.23529411764705882" />
<path d="M71,-234 L131,-45 L49,-281 L87,-179 L83,-33 L244,-40 Z" stroke-width="0" fill="#978ba2" fill-opacity="0.34509803921568627" />
<path d="M82,-49 L204,-166 L43,-45 L202,-62 L195,-96 L62,-234 Z" stroke-width="0" fill="#d8fff5" fill-opacity="0.9372549019607843" />
<path d="M82,-169 L202,-52 L69,-34 L116,-79 L133,-233 L29,-278 Z" stroke-width="0" fill="#facfed" fill-opacity="0.7215686274509804" />
<path d="M68,-300 L77,-181 L200,-28 L161,-253 L230,-226 L93,-301 Z" stroke-width="0" fill="#dae5ef" fill-opacity="0.050980392156862744" />
<path d="M53,-136 L244,-44 L106,-252 L68,-84 L97,-86 L237,-126 Z" stroke-width="0" fill="#fff5a1" fill-opacity="0.09019607843137255" />
<path d="M112,-64 L144,-172 L93,-201 L209,-30 L52,-108 L84,-226 Z" stroke-width="0" fill="#f39e88" fill-opacity="0.5607843137254902" />
<path d="M37,-72 L204,-294 L178,-238 L105,-304 L161,-98 L46,-253 Z" stroke-width="0" fill="#adb3d9" fill-opacity="0.42745098039215684" />
<path d="M191,-164 L100,-192 L49,-91 L60,-179 L222,-278 L72,-196 Z" stroke-width="0" fill="#f7466f" fill-opacity="0.3686274509803922" />
<path d="M55,-186 L57,-102 L92,-263 L35,-300 L30,-191 L238,-47 Z" stroke-width="0" fill="#0a3964" fill-opacity="0.023529411764705882" />
<path d="M247,-236 L45,-285 L110,-285 L30,-153 L125,-158 L163,-153 Z" stroke-width="0" fill="#9aa791" fill-opacity="0.3411764705882353" />
<path d="M172,-48 L52,-62 L185,-146 L145,-212 L82,-195 L95,-80 Z" stroke-width="0" fill="#f4eff8" fill-opacity="0.5098039215686274" />
<path d="M60,-267 L99,-251 L92,-141 L171,-40 L157,-34 L101,-59 Z" stroke-width="0" fill="#e4fafc" fill-opacity="0.5137254901960784" />
<path d="M149,-120 L191,-105 L159,-71 L207,-32 L71,-80 L196,-299 Z" stroke-width="0" fill="#c8bfd5" fill-opacity="0.3764705882352941" />
<path d="M50,-35 L237,-37 L47,-77 L211,-221 L230,-79 L136,-69 Z" stroke-width="0" fill="#e7f2b7" fill-opacity="0.2549019607843137" />
<path d="M84,-306 L201,-151 L151,-109 L34,-109 L165,-139 L138,-238 Z" stroke-width="0" fill="#e8d3ec" fill-opacity="0.13333333333333333" />
<path d="M129,-60 L96,-83 L195,-185 L146,-258 L235,-104 L59,-69 Z" stroke-width="0" fill="#fdc7e0" fill-opacity="0.7764705882352941" />
<path d="M30,-141 L160,-263 L63,-178 L148,-57 L213,-174 L92,-307 Z" stroke-width="0" fill="#a294f7" fill-opacity="0.054901960784313725" />
<path d="M229,-156 L90,-96 L208,-229 L97,-58 L97,-148 L25,-273 Z" stroke-width="0" fill="#7ac0a6" fill-opacity="0.30196078431372547" />
<path d="M195,-132 L102,-172 L184,-278 L26,-93 L169,-187 L108,-224 Z" stroke-width="0" fill="#cde6c0" fill-opacity="0.3411764705882353" />
<path d="M245,-320 L154,-289 L188,-39 L153,-226 L218,-276 L68,-195 Z" stroke-width="0" fill="#033503" fill-opacity="0.12156862745098039" />
<path d="M164,-213 L128,-278 L118,-160 L97,-271 L92,-200 L114,-59 Z" stroke-width="0" fill="#fffdf3" fill-opacity="0.5882352941176471" />
<path d="M95,-200 L44,-219 L129,-29 L87,-271 L166,-89 L136,-38 Z" stroke-width="0" fill="#fdf9ec" fill-opacity="0.5333333333333333" />
<path d="M97,-110 L156,-250 L93,-273 L186,-167 L93,-73 L73,-183 Z" stroke-width="0" fill="#e2fccd" fill-opacity="0.2901960784313726" />
<path d="M158,-89 L103,-281 L122,-317 L112,-110 L34,-31 L89,-91 Z" stroke-width="0" fill="#ecfdb8" fill-opacity="0.6039215686274509" />
<path d="M248,-135 L110,-86 L197,-314 L120,-254 L85,-135 L66,-112 Z" stroke-width="0" fill="#a14691" fill-opacity="0.1568627450980392" />
<path d="M163,-30 L163,-317 L110,-84 L126,-114 L144,-252 L241,-189 Z" stroke-width="0" fill="#e0a7b4" fill-opacity="0.3058823529411765" />
<path d="M107,-209 L138,-61 L31,-210 L170,-197 L25,-257 L220,-277 Z" stroke-width="0" fill="#67397c" fill-opacity="0.050980392156862744" />
<path d="M102,-262 L221,-83 L32,-268 L134,-31 L195,-26 L98,-174 Z" stroke-width="0" fill="#dfd0c0" fill-opacity="0.9019607843137255" />
<path d="M105,-99 L121,-139 L85,-275 L61,-37 L84,-278 L127,-299 Z" stroke-width="0" fill="#f6f2e3" fill-opacity="0.796078431372549" />
<path d="M112,-225 L38,-197 L117,-283 L90,-271 L33,-137 L70,-312 Z" stroke-width="0" fill="#d5c6c7" fill-opacity="0.2196078431372549" />
<path d="M106,-168 L204,-270 L124,-295 L31,-68 L45,-73 L72,-79 Z" stroke-width="0" fill="#efefdf" fill-opacity="0.6901960784313725" />
<path d="M45,-97 L111,-219 L112,-136 L194,-311 L160,-197 L126,-198 Z" stroke-width="0" fill="#b2d4c2" fill-opacity="0.23921568627450981" />
<path d="M30,-259 L56,-59 L173,-295 L149,-72 L91,-35 L88,-120 Z" stroke-width="0" fill="#60a983" fill-opacity="0.12941176470588237" />
<path d="M53,-140 L166,-149 L179,-264 L69,-132 L118,-51 L220,-236 Z" stroke-width="0" fill="#f9e6e6" fill-opacity="0.9529411764705882" />
<path d="M86,-170 L150,-280 L37,-42 L225,-250 L185,-178 L199,-82 Z" stroke-width="0" fill="#933b79" fill-opacity="0.09803921568627451" />
<path d="M109,-152 L77,-154 L30,-28 L37,-100 L91,-48 L141,-182 Z" stroke-width="0" fill="#170725" fill-opacity="0.12156862745098039" />
<path d="M78,-176 L201,-95 L39,-316 L65,-159 L74,-85 L172,-304 Z" stroke-width="0" fill="#e2e0d2" fill-opacity="0.8901960784313725" />
<path d="M175,-283 L202,-79 L124,-158 L101,-322 L46,-28 L162,-139 Z" stroke-width="0" fill="#178a55" fill-opacity="0.09803921568627451" />
<path d="M181,-311 L42,-292 L89,-205 L149,-38 L54,-67 L30,-297 Z" stroke-width="0" fill="#1b59a6" fill-opacity="0.0392156862745098" />
<path d="M55,-275 L221,-191 L220,-64 L67,-108 L207,-25 L64,-295 Z" stroke-width="0" fill="#ebbcb3" fill-opacity="0.5882352941176471" />
<path d="M52,-278 L41,-215 L91,-133 L26,-181 L152,-88 L101,-137 Z" stroke-width="0" fill="#9197c0" fill-opacity="0.20392156862745098" />
<path d="M106,-52 L151,-139 L103,-91 L220,-73 L27,-115 L148,-227 Z" stroke-width="0" fill="#b7b2c8" fill-opacity="0.9372549019607843" />
<path d="M44,-59 L103,-276 L235,-114 L41,-49 L93,-87 L246,-143 Z" stroke-width="0" fill="#cca9d3" fill-opacity="0.7725490196078432" />
<path d="M182,-265 L151,-227 L114,-194 L108,-110 L106,-150 L72,-53 Z" stroke-width="0" fill="#f1fbda" fill-opacity="0.8745098039215686" />
<path d="M239,-301 L170,-93 L88,-77 L74,-99 L89,-167 L206,-290 Z" stroke-width="0" fill="#f5f7ec" fill-opacity="0.1803921568627451" />
<path d="M163,-190 L68,-90 L179,-144 L103,-210 L99,-58 L154,-165 Z" stroke-width="0" fill="#859148" fill-opacity="0.9647058823529412" />
<path d="M92,-267 L118,-194 L84,-160 L68,-108 L154,-89 L240,-284 Z" stroke-width="0" fill="#dc163c" fill-opacity="0.08235294117647059" />
<path d="M207,-59 L208,-132 L56,-288 L239,-236 L106,-59 L223,-270 Z" stroke-width="0" fill="#fcf7d7" fill-opacity="0.38823529411764707" />
<path d="M170,-290 L202,-39 L77,-246 L230,-217 L196,-92 L154,-260 Z" stroke-width="0" fill="#f2d1d1" fill-opacity="0.8549019607843137" />
<path d="M109,-56 L70,-69 L218,-26 L234,-304 L88,-199 L103,-171 Z" stroke-width="0" fill="#c5f4f0" fill-opacity="0.4666666666666667" />
<path d="M48,-30 L34,-55 L115,-100 L138,-107 L140,-173 L149,-68 Z" stroke-width="0" fill="#e9b4de" fill-opacity="0.34509803921568627" />
<path d="M84,-228 L57,-266 L245,-193 L153,-90 L235,-320 L245,-64 Z" stroke-width="0" fill="#a4ad4d" fill-opacity="0.5294117647058824" />
<path d="M70,-177 L244,-168 L33,-103 L56,-219 L217,-126 L132,-221 Z" stroke-width="0" fill="#8d7d7f" fill-opacity="0.5019607843137255" />
<path d="M27,-236 L75,-304 L64,-138 L66,-111 L52,-60 L131,-270 Z" stroke-width="0" fill="#f9d6fd" fill-opacity="0.36470588235294116" />
<path d="M238,-50 L174,-162 L113,-51 L28,-62 L118,-46 L210,-268 Z" stroke-width="0" fill="#cc444d" fill-opacity="0.2549019607843137" />
<path d="M217,-39 L145,-118 L31,-45 L82,-293 L83,-176 L49,-135 Z" stroke-width="0" fill="#b4e1c5" fill-opacity="0.3843137254901961" />
<path d="M176,-50 L123,-224 L186,-249 L45,-37 L236,-244 L31,-47 Z" stroke-width="0" fill="#f6bcb9" fill-opacity="0.09019607843137255" />
<path d="M41,-295 L182,-189 L50,-199 L183,-293 L81,-45 L45,-259 Z" stroke-width="0" fill="#4ef1f4" fill-opacity="0.023529411764705882" />
<path d="M62,-76 L184,-93 L179,-126 L224,-318 L247,-121 L63,-47 Z" stroke-width="0" fill="#e290c9" fill-opacity="0.5490196078431373" />
<path d="M135,-260 L173,-280 L182,-201 L153,-196 L165,-119 L40,-225 Z" stroke-width="0" fill="#046731" fill-opacity="0.0196078431372549" />
<path d="M182,-82 L31,-137 L115,-217 L45,-215 L34,-296 L214,-148 Z" stroke-width="0" fill="#708664" fill-opacity="0.2" />
<path d="M222,-93 L142,-272 L46,-248 L208,-188 L147,-193 L129,-66 Z" stroke-width="0" fill="#f3f2f1" fill-opacity="0.4980392156862745" />
<path d="M96,-236 L189,-176 L197,-275 L161,-158 L189,-258 L113,-228 Z" stroke-width="0" fill="#f4bf7b" fill-opacity="0.2784313725490196" />
<path d="M137,-32 L75,-179 L238,-171 L152,-111 L202,-317 L137,-123 Z" stroke-width="0" fill="#d3f5b2" fill-opacity="0.3176470588235294" />
<path d="M43,-267 L213,-47 L34,-235 L162,-58 L31,-164 L225,-236 Z" stroke-width="0" fill="#2b1d1f" fill-opacity="0.1450980392156863" />
<path d="M134,-261 L191,-104 L215,-112 L198,-123 L89,-225 L151,-231 Z" stroke-width="0" fill="#3ca506" fill-opacity="0.01568627450980392" />
<path d="M119,-120 L85,-143 L238,-251 L208,-35 L166,-218 L152,-255 Z" stroke-width="0" fill="#e0449f" fill-opacity="0.11372549019607843" />
<path d="M185,-59 L98,-216 L169,-218 L176,-217 L93,-112 L243,-70 Z" stroke-width="0" fill="#e7f4b4" fill-opacity="0.19215686274509805" />
<path d="M202,-147 L55,-67 L71,-114 L150,-68 L65,-126 L110,-58 Z" stroke-width="0" fill="#c9f2ea" fill-opacity="0.7411764705882353" />
<path d="M102,-123 L162,-123 L188,-138 L73,-300 L134,-296 L189,-260 Z" stroke-width="0" fill="#effced" fill-opacity="0.4627450980392157" />
<path d="M170,-38 L121,-149 L173,-250 L31,-41 L160,-199 L115,-87 Z" stroke-width="0" fill="#f9ec82" fill-opacity="0.09411764705882353" />
<path d="M58,-206 L130,-244 L47,-313 L95,-231 L76,-98 L160,-153 Z" stroke-width="0" fill="#9a8f80" fill-opacity="0.023529411764705882" />
<path d="M74,-218 L119,-35 L94,-79 L139,-141 L112,-76 L32,-85 Z" stroke-width="0" fill="#bd95aa" fill-opacity="0.22745098039215686" />
<path d="M36,-315 L97,-140 L133,-44 L214,-74 L202,-109 L68,-43 Z" stroke-width="0" fill="#dfbade" fill-opacity="0.6313725490196078" />
<path d="M122,-310 L244,-196 L39,-248 L81,-124 L97,-169 L244,-58 Z" stroke-width="0" fill="#b68bae" fill-opacity="0.5019607843137255" />
<path d="M106,-41 L98,-204 L243,-85 L142,-220 L66,-269 L192,-244 Z" stroke-width="0" fill="#e69d4d" fill-opacity="0.16470588235294117" />
<path d="M99,-68 L34,-105 L73,-94 L33,-42 L151,-245 L51,-323 Z" stroke-width="0" fill="#bbf0ea" fill-opacity="0.23921568627450981" />
<path d="M83,-316 L191,-218 L149,-244 L53,-98 L212,-147 L113,-76 Z" stroke-width="0" fill="#82ca11" fill-opacity="0.00392156862745098" />
<path d="M149,-269 L99,-315 L74,-261 L84,-138 L130,-74 L179,-42 Z" stroke-width="0" fill="#d1dcd1" fill-opacity="0.12549019607843137" />
<path d="M32,-251 L222,-98 L236,-242 L47,-157 L90,-201 L111,-91 Z" stroke-width="0" fill="#417445" fill-opacity="0.35294117647058826" />
<path d="M41,-311 L190,-308 L34,-130 L219,-107 L131,-34 L147,-85 Z" stroke-width="0" fill="#114524" fill-opacity="0.058823529411764705" />
<path d="M83,-244 L135,-69 L109,-308 L147,-78 L154,-282 L70,-121 Z" stroke-width="0" fill="#64292e" fill-opacity="0.054901960784313725" />
<text x="137.5" y="12.5" font-size="20.0" fill="black" text-anchor="middle" transform="translate(0,5.0)">7 OF AIR</text>
</svg>