<?xml version="1.0" encoding="UTF-8"?>
<svg xmlns="http://www.w3.org/2000/svg" xmlns:xlink="http://www.w3.org/1999/xlink"
     width="275" height="375" viewBox="0 -350 275 375">
<defs>
</defs>
<rect x="15" y="-335" width="245" height="320" stroke="black" stroke-width="4" fill="white" />
<path d="M71,-227 L58,-52 L115,-149 L117,-41 L231,-63 L202,-177 Z" stroke-width="0" fill="#c49c7c" fill-opacity="0.5019607843137255" />
<path d="M144,-32 L58,-233 L106,-101 L40,-28 L109,-25 L157,-99 Z" stroke-width="0" fill="#926626" fill-opacity="0.3803921568627451" />
<path d="M180,-284 L101,-270 L128,-66 L235,-154 L172,-269 L119,-273 Z" stroke-width="0" fill="#fd4afa" fill-opacity="0.30196078431372547" />
<path d="M151,-157 L129,-39 L215,-33 L233,-268 L147,-246 L133,-147 Z" stroke-width="0" fill="#240c00" fill-opacity="0.6941176470588235" />
<path d="M41,-165 L92,-212 L57,-114 L77,-25 L188,-60 L161,-173 Z" stroke-width="0" fill="#311509" fill-opacity="0.9176470588235294" />
<path d="M36,-83 L133,-311 L189,-254 L103,-207 L100,-51 L161,-92 Z" stroke-width="0" fill="#a54900" fill-opacity="0.4745098039215686" />
<path d="M119,-170 L208,-183 L53,-262 L216,-160 L36,-86 L195,-189 Z" stroke-width="0" fill="#a5a09c" fill-opacity="0.01568627450980392" />
<path d="M104,-308 L160,-117 L146,-50 L155,-203 L188,-119 L225,-60 Z" stroke-width="0" fill="#c92bd5" fill-opacity="0.8431372549019608" />
<path d="M193,-172 L47,-113 L131,-273 L249,-175 L212,-154 L70,-98 Z" stroke-width="0" fill="#e6db92" fill-opacity="0.592156862745098" />
<path d="M58,-156 L84,-248 L40,-175 L241,-291 L138,-273 L146,-46 Z" stroke-width="0" fill="#dd852d" fill-opacity="0.5372549019607843" />
<path d="M129,-63 L117,-56 L79,-162 L71,-174 L26,-48 L197,-202 Z" stroke-width="0" fill="#8bc53f" fill-opacity="0.5843137254901961" />
<path d="M90,-226 L131,-265 L80,-125 L77,-197 L159,-176 L219,-51 Z" stroke-width="0" fill="#d682c6" fill-opacity="0.4745098039215686" />
<path d="M38,-204 L92,-45 L130,-293 L117,-61 L138,-32 L45,-237 Z" stroke-width="0" fill="#2e260b" fill-opacity="0.5019607843137255" />
<path d="M37,-72 L247,-175 L63,-298 L84,-44 L76,-156 L71,-183 Z" stroke-width="0" fill="#d3c634" fill-opacity="0.0392156862745098" />
<path d="M91,-40 L52,-236 L103,-112 L142,-232 L88,-234 L134,-139 Z" stroke-width="0" fill="#241701" fill-opacity="0.7803921568627451" />
<path d="M207,-102 L142,-301 L118,-230 L105,-267 L80,-39 L122,-117 Z" stroke-width="0" fill="#100f2f" fill-opacity="0.07450980392156863" />
<path d="M50,-66 L144,-109 L193,-218 L125,-75 L114,-37 L89,-311 Z" stroke-width="0" fill="#143408" fill-opacity="0.0196078431372549" />
<path d="M203,-77 L136,-247 L26,-166 L115,-315 L41,-283 L71,-122 Z" stroke-width="0" fill="#d8d200" fill-opacity="0.25098039215686274" />
<path d="M243,-168 L140,-42 L114,-69 L222,-167 L133,-273 L93,-96 Z" stroke-width="0" fill="#dac4a6" fill-opacity="0.6666666666666666" />
<path d="M128,-150 L81,-201 L120,-183 L84,-289 L136,-102 L37,-265 Z" stroke-width="0" fill="#34aa2d" fill-opacity="0.11764705882352941" />
<path d="M171,-143 L140,-281 L48,-323 L215,-179 L100,-287 L224,-264 Z" stroke-width="0" fill="#8b2400" fill-opacity="0.4588235294117647" />
<path d="M105,-113 L146,-46 L132,-94 L110,-143 L242,-95 L60,-72 Z" stroke-width="0" fill="#f4e7dd" fill-opacity="0.9254901960784314" />
<path d="M35,-99 L78,-292 L169,-261 L219,-225 L163,-306 L63,-179 Z" stroke-width="0" fill="#dab372" fill-opacity="0.6980392156862745" />
<path d="M215,-217 L49,-99 L158,-183 L151,-42 L183,-56 L174,-97 Z" stroke-width="0" fill="#070000" fill-opacity="0.9568627450980393" />
<path d="M41,-229 L186,-178 L195,-79 L25,-42 L77,-228 L56,-42 Z" stroke-width="0" fill="#741500" fill-opacity="0.41568627450980394" />
<path d="M58,-134 L49,-60 L228,-112 L158,-233 L207,-51 L54,-75 Z" stroke-width="0" fill="#131a19" fill-opacity="0.8274509803921568" />
<path d="M166,-36 L62,-100 L125,-264 L172,-305 L232,-29 L67,-288 Z" stroke-width="0" fill="#c8d0e0" fill-opacity="0.5058823529411764" />
<path d="M138,-84 L29,-34 L126,-55 L141,-219 L56,-43 L203,-196 Z" stroke-width="0" fill="#ba7476" fill-opacity="0.14901960784313725" />
<path d="M74,-285 L158,-267 L111,-139 L234,-25 L43,-83 L35,-247 Z" stroke-width="0" fill="#a88700" fill-opacity="0.4196078431372549" />
<path d="M144,-131 L52,-168 L68,-62 L75,-102 L65,-243 L198,-298 Z" stroke-width="0" fill="#88dc57" fill-opacity="0.027450980392156862" />
<path d="M59,-264 L131,-120 L176,-205 L135,-130 L184,-267 L102,-132 Z" stroke-width="0" fill="#ef800e" fill-opacity="0.30980392156862746" />
<path d="M75,-218 L191,-228 L124,-88 L118,-195 L68,-40 L93,-66 Z" stroke-width="0" fill="#5d50e6" fill-opacity="0.03137254901960784" />
<path d="M47,-194 L120,-301 L128,-54 L165,-267 L175,-289 L76,-177 Z" stroke-width="0" fill="#d1d7ed" fill-opacity="0.6941176470588235" />
<path d="M87,-100 L46,-93 L165,-175 L189,-264 L48,-308 L222,-233 Z" stroke-width="0" fill="#c4916a" fill-opacity="0.8470588235294118" />
<path d="M71,-151 L201,-306 L69,-237 L68,-257 L111,-264 L91,-98 Z" stroke-width="0" fill="#641c00" fill-opacity="0.592156862745098" />
<path d="M74,-225 L178,-60 L150,-196 L240,-93 L49,-74 L211,-107 Z" stroke-width="0" fill="#f4f2f5" fill-opacity="0.6901960784313725" />
<path d="M163,-85 L111,-185 L33,-195 L30,-148 L169,-109 L133,-29 Z" stroke-width="0" fill="#000000" fill-opacity="0.9019607843137255" />
<path d="M157,-54 L241,-90 L70,-197 L57,-241 L57,-193 L75,-143 Z" stroke-width="0" fill="#e3d8f8" fill-opacity="0.17254901960784313" />
<path d="M110,-180 L51,-31 L41,-80 L70,-112 L212,-303 L36,-94 Z" stroke-width="0" fill="#ece4b5" fill-opacity="0.9921568627450981" />
<path d="M168,-122 L44,-146 L148,-32 L171,-120 L239,-201 L60,-134 Z" stroke-width="0" fill="#00470f" fill-opacity="0.5098039215686274" />
<path d="M249,-202 L65,-53 L69,-105 L150,-28 L101,-275 L119,-312 Z" stroke-width="0" fill="#be6618" fill-opacity="0.39215686274509803" />
<path d="M72,-129 L188,-97 L168,-164 L211,-70 L31,-223 L121,-180 Z" stroke-width="0" fill="#b68253" fill-opacity="0.9450980392156862" />
<path d="M80,-146 L99,-258 L164,-305 L99,-193 L124,-291 L201,-104 Z" stroke-width="0" fill="#4eb8fa" fill-opacity="0.21176470588235294" />
<path d="M26,-307 L133,-87 L160,-237 L246,-195 L163,-223 L175,-266 Z" stroke-width="0" fill="#892300" fill-opacity="0.4549019607843137" />
<path d="M73,-197 L109,-266 L64,-120 L118,-58 L202,-205 L70,-220 Z" stroke-width="0" fill="#40c302" fill-opacity="0.3803921568627451" />
<path d="M247,-120 L190,-140 L25,-131 L32,-52 L45,-181 L130,-146 Z" stroke-width="0" fill="#030000" fill-opacity="0.8" />
<path d="M95,-58 L27,-129 L87,-312 L231,-230 L132,-76 L201,-135 Z" stroke-width="0" fill="#a65115" fill-opacity="0.5764705882352941" />
<path d="M111,-146 L122,-287 L35,-30 L184,-195 L70,-69 L29,-88 Z" stroke-width="0" fill="#bf874e" fill-opacity="0.5725490196078431" />
<path d="M146,-303 L107,-227 L70,-251 L143,-59 L82,-40 L180,-115 Z" stroke-width="0" fill="#980023" fill-opacity="0.5019607843137255" />
<path d="M48,-189 L183,-97 L38,-199 L86,-91 L179,-44 L159,-51 Z" stroke-width="0" fill="#964139" fill-opacity="0.984313725490196" />
<path d="M48,-218 L213,-69 L169,-237 L83,-306 L69,-271 L181,-241 Z" stroke-width="0" fill="#edf4fe" fill-opacity="0.3254901960784314" />
<path d="M45,-210 L133,-282 L40,-136 L160,-159 L33,-50 L162,-272 Z" stroke-width="0" fill="#86704c" fill-opacity="0.17647058823529413" />
<path d="M120,-239 L157,-69 L117,-35 L183,-228 L67,-194 L39,-274 Z" stroke-width="0" fill="#efb7c6" fill-opacity="0.5372549019607843" />
<path d="M216,-37 L87,-205 L92,-267 L95,-156 L62,-145 L31,-296 Z" stroke-width="0" fill="#ed5a1d" fill-opacity="0.3764705882352941" />
<path d="M111,-100 L48,-55 L220,-88 L50,-122 L49,-253 L166,-50 Z" stroke-width="0" fill="#cd929a" fill-opacity="0.24705882352941178" />
<path d="M54,-177 L179,-195 L78,-240 L193,-300 L55,-30 L194,-51 Z" stroke-width="0" fill="#294418" fill-opacity="0.08235294117647059" />
<path d="M113,-134 L64,-315 L137,-54 L241,-120 L236,-89 L195,-278 Z" stroke-width="0" fill="#f5eeda" fill-opacity="0.9529411764705882" />
<path d="M30,-67 L104,-73 L182,-102 L96,-219 L197,-240 L37,-159 Z" stroke-width="0" fill="#470000" fill-opacity="0.5764705882352941" />
<path d="M156,-251 L216,-46 L160,-136 L193,-179 L115,-116 L51,-128 Z" stroke-width="0" fill="#000100" fill-opacity="0.8941176470588236" />
<path d="M146,-30 L77,-317 L135,-37 L225,-56 L42,-164 L74,-142 Z" stroke-width="0" fill="#020a2e" fill-opacity="0.6078431372549019" />
<path d="M100,-274 L96,-97 L43,-154 L55,-214 L228,-225 L35,-112 Z" stroke-width="0" fill="#000000" fill-opacity="0.9215686274509803" />
<path d="M132,-317 L108,-91 L169,-167 L163,-92 L59,-40 L139,-182 Z" stroke-width="0" fill="#cfae85" fill-opacity="0.3411764705882353" />
<path d="M120,-143 L232,-260 L181,-122 L101,-145 L217,-166 L192,-121 Z" stroke-width="0" fill="#100000" fill-opacity="0.6549019607843137" />
<path d="M215,-157 L187,-202 L58,-207 L108,-116 L101,-139 L143,-302 Z" stroke-width="0" fill="#e5f09f" fill-opacity="0.5019607843137255" />
<path d="M161,-87 L222,-118 L92,-74 L167,-237 L73,-195 L30,-202 Z" stroke-width="0" fill="#0d0a00" fill-opacity="0.615686274509804" />
<path d="M49,-30 L111,-292 L75,-98 L216,-210 L65,-216 L246,-92 Z" stroke-width="0" fill="#9aace8" fill-opacity="0.00784313725490196" />
<path d="M242,-285 L150,-173 L62,-73 L74,-146 L142,-49 L160,-233 Z" stroke-width="0" fill="#fdf6b4" fill-opacity="0.984313725490196" />
<path d="M30,-80 L198,-123 L104,-85 L47,-33 L223,-94 L45,-26 Z" stroke-width="0" fill="#e2ce9e" fill-opacity="0.5019607843137255" />
<path d="M238,-46 L46,-284 L69,-104 L192,-84 L111,-231 L55,-51 Z" stroke-width="0" fill="#d4c857" fill-opacity="0.1450980392156863" />
<path d="M206,-168 L139,-242 L147,-267 L36,-306 L133,-212 L86,-151 Z" stroke-width="0" fill="#9e9d5e" fill-opacity="0.396078431372549" />
<path d="M58,-289 L163,-115 L54,-69 L244,-157 L130,-202 L189,-38 Z" stroke-width="0" fill="#dcfe99" fill-opacity="0.4392156862745098" />
<path d="M116,-120 L82,-145 L59,-195 L126,-316 L144,-50 L204,-82 Z" stroke-width="0" fill="#c04d8b" fill-opacity="0.5019607843137255" />
<path d="M43,-212 L211,-47 L79,-317 L134,-92 L172,-208 L26,-293 Z" stroke-width="0" fill="#c39f55" fill-opacity="0.3686274509803922" />
<path d="M119,-276 L62,-185 L195,-94 L123,-312 L142,-140 L186,-318 Z" stroke-width="0" fill="#c2631a" fill-opacity="0.5529411764705883" />
<path d="M181,-247 L70,-183 L126,-155 L180,-131 L225,-203 L81,-140 Z" stroke-width="0" fill="#000000" fill-opacity="0.8470588235294118" />
<path d="M105,-100 L207,-35 L59,-44 L83,-153 L200,-92 L204,-320 Z" stroke-width="0" fill="#43170d" fill-opacity="0.43529411764705883" />
<path d="M85,-144 L32,-72 L164,-282 L99,-283 L31,-181 L168,-146 Z" stroke-width="0" fill="#d8c780" fill-opacity="0.27058823529411763" />
<path d="M181,-283 L131,-44 L165,-237 L231,-275 L108,-225 L37,-121 Z" stroke-width="0" fill="#a9795d" fill-opacity="0.26666666666666666" />
<path d="M167,-113 L144,-226 L184,-207 L229,-115 L95,-235 L156,-52 Z" stroke-width="0" fill="#8ffdfd" fill-opacity="0.34509803921568627" />
<path d="M145,-162 L43,-182 L96,-264 L154,-67 L39,-289 L158,-71 Z" stroke-width="0" fill="#95954b" fill-opacity="0.09803921568627451" />
<path d="M208,-253 L140,-220 L184,-230 L182,-261 L198,-70 L180,-104 Z" stroke-width="0" fill="#210000" fill-opacity="0.8431372549019608" />
<path d="M116,-46 L223,-108 L44,-80 L62,-282 L54,-169 L139,-306 Z" stroke-width="0" fill="#d5966e" fill-opacity="0.2980392156862745" />
<path d="M126,-220 L85,-221 L73,-107 L74,-301 L172,-148 L32,-76 Z" stroke-width="0" fill="#dfc376" fill-opacity="0.7372549019607844" />
<path d="M158,-233 L177,-237 L56,-168 L109,-135 L185,-171 L179,-38 Z" stroke-width="0" fill="#340009" fill-opacity="0.9803921568627451" />
<path d="M42,-41 L56,-103 L247,-94 L78,-55 L146,-165 L183,-205 Z" stroke-width="0" fill="#9eb067" fill-opacity="0.12549019607843137" />
<path d="M127,-209 L33,-110 L70,-194 L124,-249 L141,-139 L116,-323 Z" stroke-width="0" fill="#0a2400" fill-opacity="0.4745098039215686" />
<path d="M158,-121 L242,-301 L82,-143 L100,-251 L128,-60 L144,-104 Z" stroke-width="0" fill="#500006" fill-opacity="0.7176470588235294" />
<path d="M62,-39 L220,-101 L164,-27 L171,-246 L77,-300 L144,-54 Z" stroke-width="0" fill="#ee884c" fill-opacity="0.18823529411764706" />
<path d="M211,-228 L210,-157 L194,-98 L36,-80 L98,-268 L161,-191 Z" stroke-width="0" fill="#b5563b" fill-opacity="0.4745098039215686" />
<path d="M100,-45 L58,-280 L120,-136 L33,-183 L188,-297 L67,-120 Z" stroke-width="0" fill="#9a6d46" fill-opacity="0.12549019607843137" />
<path d="M31,-196 L73,-161 L208,-89 L152,-291 L107,-109 L112,-94 Z" stroke-width="0" fill="#062900" fill-opacity="0.4235294117647059" />
<path d="M164,-262 L173,-273 L140,-291 L175,-165 L61,-137 L215,-168 Z" stroke-width="0" fill="#f4ce9c" fill-opacity="0.1450980392156863" />
<path d="M68,-310 L159,-36 L242,-187 L130,-147 L47,-100 L130,-25 Z" stroke-width="0" fill="#b11938" fill-opacity="0.058823529411764705" />
<path d="M51,-51 L70,-226 L52,-172 L182,-108 L213,-162 L175,-211 Z" stroke-width="0" fill="#db7ba7" fill-opacity="0.07450980392156863" />
<path d="M200,-252 L188,-121 L88,-246 L239,-43 L166,-230 L174,-175 Z" stroke-width="0" fill="#8fbe6d" fill-opacity="0.10588235294117647" />
<path d="M136,-38 L39,-158 L75,-71 L133,-89 L198,-267 L103,-217 Z" stroke-width="0" fill="#1e101d" fill-opacity="0.40784313725490196" />
<path d="M55,-54 L91,-177 L144,-34 L216,-191 L96,-296 L79,-198 Z" stroke-width="0" fill="#393929" fill-opacity="0.29411764705882354" />
<path d="M106,-136 L96,-241 L219,-113 L77,-73 L84,-179 L190,-320 Z" stroke-width="0" fill="#dbbb66" fill-opacity="0.5019607843137255" />
<path d="M96,-53 L36,-149 L65,-225 L42,-77 L223,-42 L220,-307 Z" stroke-width="0" fill="#89719b" fill-opacity="0.023529411764705882" />
<path d="M92,-258 L137,-100 L109,-44 L57,-90 L84,-283 L240,-151 Z" stroke-width="0" fill="#c26559" fill-opacity="0.15294117647058825" />
<text x="137.5" y="12.5" font-size="20.0" fill="black" text-anchor="middle" transform="translate(0,5.0)">KING OF AIR</text>
</svg>