<?xml version="1.0" encoding="UTF-8"?>
<svg xmlns="http://www.w3.org/2000/svg" xmlns:xlink="http://www.w3.org/1999/xlink"
     width="896" height="1496" viewBox="0 -1400 896 1496" style="font-size:70;font-family:Poor Richard, Times New Roman;stroke:black;stroke-width:1;fill:none">
<defs>
</defs>
<path d="M234,-234 L494,-1058 L102,-210 L858,-246 L374,-1034 L246,-534 Z" stroke-width="0" fill="#ba0302" fill-opacity="0.3411764705882353" />
<path d="M486,-1086 L242,-418 L402,-834 L506,-150 L622,-1030 L94,-1030 Z" stroke-width="0" fill="#f5d8f9" fill-opacity="0.10588235294117647" />
<path d="M858,-182 L842,-422 L326,-854 L666,-930 L434,-786 L578,-442 Z" stroke-width="0" fill="#3b67a1" fill-opacity="0.0" />
<path d="M94,-426 L386,-278 L250,-274 L342,-466 L946,-1102 L722,-1002 Z" stroke-width="0" fill="#ddd8f9" fill-opacity="0.1803921568627451" />
<path d="M962,-978 L602,-270 L246,-1126 L490,-98 L530,-1034 L530,-578 Z" stroke-width="0" fill="#ee63ca" fill-opacity="0.09019607843137255" />
<path d="M434,-310 L454,-262 L146,-146 L966,-194 L614,-810 L222,-1014 Z" stroke-width="0" fill="#c4f1f9" fill-opacity="0.49019607843137253" />
<path d="M174,-974 L778,-1122 L918,-270 L422,-594 L674,-382 L746,-1130 Z" stroke-width="0" fill="#eafbb6" fill-opacity="0.10980392156862745" />
<path d="M334,-914 L878,-250 L754,-262 L702,-686 L890,-1086 L838,-1242 Z" stroke-width="0" fill="#137fe5" fill-opacity="0.06666666666666667" />
<path d="M802,-422 L310,-654 L466,-1082 L230,-230 L746,-854 L314,-678 Z" stroke-width="0" fill="#120734" fill-opacity="0.4823529411764706" />
<path d="M858,-218 L386,-594 L782,-1178 L390,-922 L118,-902 L286,-318 Z" stroke-width="0" fill="#a6f0c6" fill-opacity="0.07058823529411765" />
<path d="M686,-974 L942,-1246 L426,-894 L854,-966 L882,-830 L470,-1126 Z" stroke-width="0" fill="#b6b1d1" fill-opacity="0.23137254901960785" />
<path d="M978,-718 L250,-570 L866,-430 L974,-498 L934,-738 L382,-678 Z" stroke-width="0" fill="#e18100" fill-opacity="0.6745098039215687" />
<path d="M842,-414 L202,-358 L526,-86 L450,-86 L854,-1030 L582,-114 Z" stroke-width="0" fill="#ddfcd4" fill-opacity="0.4117647058823529" />
<path d="M754,-754 L162,-882 L758,-690 L94,-326 L170,-742 L310,-766 Z" stroke-width="0" fill="#d5fddc" fill-opacity="0.37254901960784315" />
<path d="M838,-486 L270,-442 L498,-150 L682,-910 L934,-578 L174,-442 Z" stroke-width="0" fill="#b5f71c" fill-opacity="0.00392156862745098" />
<path d="M574,-862 L834,-1090 L570,-566 L270,-326 L950,-1210 L282,-1066 Z" stroke-width="0" fill="#0b6004" fill-opacity="0.011764705882352941" />
<path d="M518,-1202 L382,-950 L354,-1066 L150,-1014 L166,-282 L662,-194 Z" stroke-width="0" fill="#f9e5f1" fill-opacity="0.10196078431372549" />
<path d="M734,-742 L318,-138 L894,-650 L222,-490 L106,-242 L382,-1178 Z" stroke-width="0" fill="#f5f9f3" fill-opacity="0.9372549019607843" />
<path d="M174,-238 L250,-150 L662,-178 L510,-1022 L758,-974 L814,-402 Z" stroke-width="0" fill="#c2fd49" fill-opacity="0.00784313725490196" />
<path d="M114,-214 L110,-1042 L946,-1150 L190,-1046 L662,-862 L378,-438 Z" stroke-width="0" fill="#7a1210" fill-opacity="0.07450980392156863" />
<path d="M458,-1122 L902,-358 L958,-1130 L182,-1046 L698,-426 L114,-662 Z" stroke-width="0" fill="#0f1936" fill-opacity="0.09803921568627451" />
<path d="M354,-398 L234,-1122 L594,-1058 L290,-530 L526,-1146 L454,-794 Z" stroke-width="0" fill="#fef5fa" fill-opacity="0.6823529411764706" />
<path d="M562,-174 L446,-790 L730,-282 L110,-482 L270,-514 L678,-134 Z" stroke-width="0" fill="#dbfff7" fill-opacity="0.1450980392156863" />
<path d="M950,-86 L542,-1038 L594,-1162 L662,-1122 L790,-946 L746,-878 Z" stroke-width="0" fill="#90ef72" fill-opacity="0.10588235294117647" />
<path d="M666,-162 L858,-1114 L150,-754 L266,-738 L114,-1270 L798,-594 Z" stroke-width="0" fill="#cfc6ec" fill-opacity="0.3137254901960784" />
<path d="M746,-354 L570,-190 L430,-350 L942,-326 L970,-1234 L942,-678 Z" stroke-width="0" fill="#111543" fill-opacity="0.09019607843137255" />
<path d="M882,-634 L262,-126 L498,-366 L694,-446 L950,-694 L198,-878 Z" stroke-width="0" fill="#edf4e5" fill-opacity="0.9686274509803922" />
<path d="M822,-806 L918,-254 L122,-358 L114,-862 L182,-134 L698,-902 Z" stroke-width="0" fill="#e4ddbe" fill-opacity="0.13333333333333333" />
<path d="M762,-346 L546,-262 L678,-1150 L94,-750 L382,-714 L462,-738 Z" stroke-width="0" fill="#23f7ab" fill-opacity="0.00784313725490196" />
<path d="M246,-346 L326,-86 L558,-1138 L154,-518 L318,-202 L274,-402 Z" stroke-width="0" fill="#ebfbf7" fill-opacity="0.7372549019607844" />
<path d="M598,-638 L142,-150 L282,-574 L658,-1114 L746,-218 L714,-150 Z" stroke-width="0" fill="#a04912" fill-opacity="0.2196078431372549" />
<path d="M914,-450 L846,-674 L974,-186 L578,-210 L806,-758 L150,-846 Z" stroke-width="0" fill="#e2d1db" fill-opacity="0.5019607843137255" />
<path d="M494,-1098 L186,-430 L150,-550 L438,-830 L486,-1210 L938,-254 Z" stroke-width="0" fill="#28d8c4" fill-opacity="0.011764705882352941" />
<path d="M522,-174 L770,-586 L110,-582 L198,-378 L786,-1234 L382,-250 Z" stroke-width="0" fill="#72f61c" fill-opacity="0.043137254901960784" />
<path d="M502,-1162 L390,-314 L382,-1178 L82,-686 L374,-782 L390,-1186 Z" stroke-width="0" fill="#93d1f0" fill-opacity="0.047058823529411764" />
<path d="M250,-106 L382,-834 L790,-278 L398,-586 L706,-526 L742,-418 Z" stroke-width="0" fill="#b8ac13" fill-opacity="0.5019607843137255" />
<path d="M374,-754 L146,-718 L282,-890 L786,-478 L686,-826 L490,-114 Z" stroke-width="0" fill="#effdab" fill-opacity="0.7490196078431373" />
<path d="M494,-298 L126,-434 L282,-350 L682,-630 L802,-1138 L554,-662 Z" stroke-width="0" fill="#b0ded1" fill-opacity="0.043137254901960784" />
<path d="M622,-262 L642,-1034 L170,-274 L742,-686 L698,-322 L266,-414 Z" stroke-width="0" fill="#320a15" fill-opacity="0.0196078431372549" />
<path d="M126,-1086 L778,-930 L290,-202 L862,-490 L518,-1098 L650,-174 Z" stroke-width="0" fill="#c52583" fill-opacity="0.011764705882352941" />
<path d="M362,-766 L414,-1150 L974,-218 L382,-426 L122,-1026 L150,-670 Z" stroke-width="0" fill="#e7db7d" fill-opacity="0.07058823529411765" />
<path d="M102,-722 L374,-170 L602,-554 L670,-1190 L394,-482 L434,-386 Z" stroke-width="0" fill="#e5f6d6" fill-opacity="0.7843137254901961" />
<path d="M574,-102 L318,-278 L370,-1130 L786,-418 L482,-946 L358,-582 Z" stroke-width="0" fill="#f1f672" fill-opacity="0.9529411764705882" />
<path d="M246,-586 L530,-1182 L658,-290 L626,-726 L474,-1058 L338,-850 Z" stroke-width="0" fill="#eedff0" fill-opacity="0.10196078431372549" />
<path d="M234,-1034 L902,-1034 L654,-830 L630,-946 L386,-94 L270,-422 Z" stroke-width="0" fill="#7df7c3" fill-opacity="0.01568627450980392" />
<path d="M974,-874 L750,-906 L770,-362 L210,-930 L434,-458 L562,-794 Z" stroke-width="0" fill="#c2ac7c" fill-opacity="0.06274509803921569" />
<path d="M318,-286 L450,-634 L82,-626 L334,-110 L450,-382 L466,-106 Z" stroke-width="0" fill="#b3c9cc" fill-opacity="0.30980392156862746" />
<path d="M502,-222 L210,-1242 L914,-306 L626,-586 L894,-962 L802,-222 Z" stroke-width="0" fill="#e8f4ee" fill-opacity="0.13333333333333333" />
<path d="M802,-886 L606,-646 L690,-1202 L634,-998 L258,-806 L262,-710 Z" stroke-width="0" fill="#e7f2ec" fill-opacity="0.6862745098039216" />
<path d="M910,-434 L650,-422 L118,-1086 L162,-1018 L234,-578 L378,-598 Z" stroke-width="0" fill="#fd3121" fill-opacity="0.10980392156862745" />
<path d="M254,-102 L194,-1218 L342,-914 L898,-586 L906,-894 L862,-274 Z" stroke-width="0" fill="#fb991b" fill-opacity="0.09019607843137255" />
<path d="M442,-950 L722,-290 L650,-710 L314,-1018 L126,-262 L338,-930 Z" stroke-width="0" fill="#e7deb1" fill-opacity="0.06274509803921569" />
<path d="M542,-486 L326,-230 L170,-418 L150,-494 L286,-790 L650,-642 Z" stroke-width="0" fill="#ffd1ef" fill-opacity="0.47843137254901963" />
<path d="M214,-638 L810,-442 L486,-634 L482,-114 L710,-190 L150,-262 Z" stroke-width="0" fill="#e6e829" fill-opacity="0.09019607843137255" />
<path d="M314,-838 L198,-538 L166,-334 L118,-146 L270,-534 L286,-650 Z" stroke-width="0" fill="#cfe8cc" fill-opacity="0.2" />
<path d="M754,-1202 L354,-562 L402,-522 L194,-1002 L746,-410 L494,-1110 Z" stroke-width="0" fill="#f64cf3" fill-opacity="0.0" />
<path d="M282,-942 L166,-1262 L534,-1202 L822,-1274 L234,-650 L226,-134 Z" stroke-width="0" fill="#97f483" fill-opacity="0.2" />
<path d="M350,-434 L270,-418 L714,-790 L738,-686 L222,-682 L722,-542 Z" stroke-width="0" fill="#f9ece6" fill-opacity="0.8901960784313725" />
<path d="M318,-630 L258,-910 L102,-686 L958,-1194 L286,-94 L594,-94 Z" stroke-width="0" fill="#dafadc" fill-opacity="0.5450980392156862" />
<path d="M754,-586 L750,-1234 L602,-778 L506,-338 L282,-554 L374,-334 Z" stroke-width="0" fill="#fdf0fa" fill-opacity="0.6352941176470588" />
<path d="M658,-90 L210,-142 L794,-1078 L598,-1082 L98,-514 L734,-282 Z" stroke-width="0" fill="#e0dee9" fill-opacity="0.8784313725490196" />
<path d="M202,-514 L210,-554 L398,-278 L738,-98 L378,-966 L934,-306 Z" stroke-width="0" fill="#c2cd69" fill-opacity="0.07058823529411765" />
<path d="M90,-1270 L162,-118 L370,-210 L290,-1102 L234,-850 L934,-1086 Z" stroke-width="0" fill="#98b2c3" fill-opacity="0.09411764705882353" />
<path d="M802,-450 L370,-690 L950,-1142 L598,-482 L226,-234 L906,-626 Z" stroke-width="0" fill="#f6aaf5" fill-opacity="0.07058823529411765" />
<path d="M150,-226 L230,-110 L786,-1022 L850,-746 L974,-534 L262,-646 Z" stroke-width="0" fill="#abe8f4" fill-opacity="0.06666666666666667" />
<path d="M154,-398 L506,-150 L414,-1162 L730,-866 L218,-446 L750,-486 Z" stroke-width="0" fill="#e3e6e8" fill-opacity="0.5647058823529412" />
<path d="M686,-810 L342,-614 L202,-242 L726,-726 L970,-354 L578,-758 Z" stroke-width="0" fill="#953a4b" fill-opacity="0.0196078431372549" />
<path d="M194,-138 L750,-406 L678,-598 L518,-386 L442,-110 L274,-786 Z" stroke-width="0" fill="#e7ab16" fill-opacity="0.807843137254902" />
<path d="M134,-102 L370,-1190 L570,-394 L510,-662 L470,-522 L134,-962 Z" stroke-width="0" fill="#eb7ac2" fill-opacity="0.011764705882352941" />
<path d="M186,-342 L126,-202 L250,-390 L102,-110 L854,-614 L106,-858 Z" stroke-width="0" fill="#f7db6e" fill-opacity="0.16862745098039217" />
<path d="M658,-194 L306,-974 L750,-774 L814,-198 L306,-938 L294,-438 Z" stroke-width="0" fill="#bc6a7d" fill-opacity="0.00392156862745098" />
<path d="M938,-306 L394,-302 L670,-386 L170,-746 L450,-1062 L474,-246 Z" stroke-width="0" fill="#f1d2c1" fill-opacity="0.29411764705882354" />
<path d="M202,-1102 L210,-926 L946,-1170 L882,-414 L794,-694 L834,-934 Z" stroke-width="0" fill="#f5c3c0" fill-opacity="0.12549019607843137" />
<path d="M362,-1102 L398,-1186 L690,-446 L250,-666 L338,-246 L842,-302 Z" stroke-width="0" fill="#e8490b" fill-opacity="0.38823529411764707" />
<path d="M498,-794 L278,-370 L90,-670 L850,-338 L934,-262 L162,-418 Z" stroke-width="0" fill="#fb53d0" fill-opacity="0.0" />
<path d="M118,-482 L410,-574 L966,-322 L98,-594 L558,-726 L958,-386 Z" stroke-width="0" fill="#d26503" fill-opacity="0.20392156862745098" />
<path d="M110,-718 L938,-938 L886,-722 L94,-590 L782,-710 L90,-830 Z" stroke-width="0" fill="#d1f1dd" fill-opacity="0.2627450980392157" />
<path d="M134,-630 L358,-526 L202,-674 L598,-158 L362,-274 L446,-770 Z" stroke-width="0" fill="#b8d64c" fill-opacity="0.011764705882352941" />
<path d="M626,-530 L878,-1010 L722,-494 L842,-1118 L330,-314 L474,-1158 Z" stroke-width="0" fill="#ede1f6" fill-opacity="0.5098039215686274" />
<path d="M470,-282 L786,-870 L630,-814 L118,-886 L186,-654 L570,-774 Z" stroke-width="0" fill="#bdc5ed" fill-opacity="0.11372549019607843" />
<path d="M382,-1178 L90,-526 L474,-686 L526,-830 L466,-274 L614,-1006 Z" stroke-width="0" fill="#defdf6" fill-opacity="0.7764705882352941" />
<path d="M134,-1022 L866,-570 L114,-726 L778,-994 L442,-1102 L506,-1010 Z" stroke-width="0" fill="#e2f1d2" fill-opacity="0.6745098039215687" />
<path d="M342,-290 L470,-338 L946,-1166 L290,-1102 L570,-1258 L794,-218 Z" stroke-width="0" fill="#efe58c" fill-opacity="0.2549019607843137" />
<path d="M590,-234 L462,-822 L418,-202 L754,-778 L826,-270 L478,-762 Z" stroke-width="0" fill="#b65a00" fill-opacity="0.12156862745098039" />
<path d="M838,-678 L958,-690 L174,-466 L106,-266 L338,-1086 L98,-814 Z" stroke-width="0" fill="#ede8e9" fill-opacity="0.7725490196078432" />
<path d="M262,-634 L530,-454 L670,-1066 L626,-106 L462,-602 L778,-1122 Z" stroke-width="0" fill="#a7eaf4" fill-opacity="0.08627450980392157" />
<path d="M138,-514 L554,-702 L170,-1118 L918,-158 L122,-322 L838,-498 Z" stroke-width="0" fill="#d8d3ca" fill-opacity="0.17647058823529413" />
<path d="M710,-898 L262,-202 L762,-210 L506,-882 L462,-326 L638,-1202 Z" stroke-width="0" fill="#89d5c9" fill-opacity="0.06666666666666667" />
<path d="M226,-1274 L518,-170 L178,-122 L270,-286 L754,-346 L670,-398 Z" stroke-width="0" fill="#eff22e" fill-opacity="0.03529411764705882" />
<path d="M938,-126 L450,-502 L414,-362 L822,-1218 L242,-1190 L478,-246 Z" stroke-width="0" fill="#e4caf1" fill-opacity="0.5098039215686274" />
<path d="M718,-382 L746,-578 L198,-158 L214,-290 L86,-1126 L438,-1114 Z" stroke-width="0" fill="#d4e2d6" fill-opacity="0.2980392156862745" />
<path d="M122,-350 L278,-386 L722,-542 L382,-166 L658,-874 L82,-786 Z" stroke-width="0" fill="#fbbbea" fill-opacity="0.1607843137254902" />
<path d="M582,-698 L330,-498 L158,-442 L834,-110 L974,-446 L506,-1090 Z" stroke-width="0" fill="#ebece3" fill-opacity="0.23529411764705882" />
<path d="M394,-342 L514,-606 L118,-798 L718,-890 L82,-978 L606,-446 Z" stroke-width="0" fill="#d8f5fc" fill-opacity="0.4" />
<path d="M166,-942 L678,-270 L842,-522 L166,-1238 L674,-1022 L214,-1270 Z" stroke-width="0" fill="#f9c1ab" fill-opacity="0.06274509803921569" />
<path d="M482,-1186 L166,-454 L686,-1070 L674,-390 L210,-566 L330,-398 Z" stroke-width="0" fill="#dcf9b7" fill-opacity="0.15294117647058825" />
<path d="M278,-1054 L730,-162 L278,-894 L618,-258 L182,-278 L794,-1238 Z" stroke-width="0" fill="#e6d8f0" fill-opacity="0.1607843137254902" />
<path d="M438,-1258 L534,-998 L830,-654 L938,-1234 L810,-830 L938,-498 Z" stroke-width="0" fill="#e5eeac" fill-opacity="0.08235294117647059" />
<path d="M558,-150 L150,-318 L90,-498 L158,-550 L954,-674 L538,-130 Z" stroke-width="0" fill="#ce8ec5" fill-opacity="0.24705882352941178" />
<path d="M438,-842 L706,-730 L102,-574 L162,-290 L634,-1274 L834,-638 Z" stroke-width="0" fill="#fee1dd" fill-opacity="0.07058823529411765" />
<text x="448.0" y="0" font-size="70.0" fill="black" text-anchor="middle" transform="translate(0,17.5)">4 OF AIR</text>
</svg>