<?xml version="1.0" encoding="UTF-8"?>
<svg xmlns="http://www.w3.org/2000/svg" xmlns:xlink="http://www.w3.org/1999/xlink"
     width="896" height="1496" viewBox="0 -1400 896 1496" style="font-size:70;font-family:Poor Richard, Times New Roman;stroke:black;stroke-width:1;fill:none">
<defs>
</defs>
<path d="M362,-790 L590,-162 L242,-290 L482,-1106 L402,-806 L126,-734 Z" stroke-width="0" fill="#c87198" fill-opacity="0.00392156862745098" />
<path d="M762,-950 L614,-874 L794,-746 L218,-682 L238,-962 L110,-398 Z" stroke-width="0" fill="#000000" fill-opacity="0.9882352941176471" />
<path d="M182,-218 L306,-954 L182,-694 L174,-1230 L326,-938 L490,-630 Z" stroke-width="0" fill="#000000" fill-opacity="0.9450980392156862" />
<path d="M202,-1122 L634,-1074 L182,-1138 L446,-142 L326,-178 L754,-1186 Z" stroke-width="0" fill="#13cbf5" fill-opacity="0.9019607843137255" />
<path d="M190,-670 L510,-522 L398,-1070 L350,-502 L158,-786 L134,-706 Z" stroke-width="0" fill="#a6163d" fill-opacity="0.4235294117647059" />
<path d="M582,-606 L474,-258 L118,-1086 L358,-342 L534,-106 L202,-1070 Z" stroke-width="0" fill="#000000" fill-opacity="0.5098039215686274" />
<path d="M274,-274 L390,-698 L514,-706 L158,-510 L418,-486 L214,-146 Z" stroke-width="0" fill="#3ab7ac" fill-opacity="0.4745098039215686" />
<path d="M358,-502 L254,-746 L362,-1066 L754,-418 L450,-882 L418,-1206 Z" stroke-width="0" fill="#8455d6" fill-opacity="0.6235294117647059" />
<path d="M446,-294 L542,-778 L782,-1110 L678,-842 L150,-934 L170,-358 Z" stroke-width="0" fill="#000000" fill-opacity="0.8666666666666667" />
<path d="M114,-98 L482,-362 L802,-146 L570,-562 L374,-882 L682,-418 Z" stroke-width="0" fill="#00000a" fill-opacity="0.8666666666666667" />
<path d="M706,-210 L298,-178 L338,-410 L230,-766 L518,-826 L274,-690 Z" stroke-width="0" fill="#37d7e0" fill-opacity="0.7803921568627451" />
<path d="M302,-402 L710,-474 L318,-302 L366,-126 L782,-458 L678,-506 Z" stroke-width="0" fill="#495795" fill-opacity="0.7607843137254902" />
<path d="M94,-250 L410,-390 L810,-1014 L390,-1174 L418,-446 L674,-534 Z" stroke-width="0" fill="#000000" fill-opacity="0.7490196078431373" />
<path d="M778,-930 L82,-1058 L102,-562 L478,-954 L214,-662 L762,-446 Z" stroke-width="0" fill="#000000" fill-opacity="0.9568627450980393" />
<path d="M630,-1102 L766,-206 L166,-962 L254,-250 L650,-218 L582,-938 Z" stroke-width="0" fill="#250320" fill-opacity="0.8549019607843137" />
<path d="M358,-266 L118,-390 L162,-406 L558,-358 L730,-686 L254,-546 Z" stroke-width="0" fill="#001301" fill-opacity="0.5215686274509804" />
<path d="M162,-982 L646,-198 L114,-318 L670,-870 L558,-242 L778,-1142 Z" stroke-width="0" fill="#000000" fill-opacity="0.8980392156862745" />
<path d="M722,-334 L126,-766 L198,-270 L214,-938 L674,-842 L454,-850 Z" stroke-width="0" fill="#e5f6e9" fill-opacity="0.9764705882352941" />
<path d="M286,-1186 L490,-182 L298,-770 L502,-838 L342,-1074 L670,-650 Z" stroke-width="0" fill="#4e8f5f" fill-opacity="0.12549019607843137" />
<path d="M194,-1062 L206,-534 L326,-342 L94,-162 L150,-506 L478,-542 Z" stroke-width="0" fill="#000000" fill-opacity="0.6352941176470588" />
<path d="M134,-658 L466,-266 L722,-410 L282,-354 L654,-906 L490,-270 Z" stroke-width="0" fill="#f7dd77" fill-opacity="0.9294117647058824" />
<path d="M98,-962 L358,-458 L150,-754 L382,-102 L482,-366 L430,-182 Z" stroke-width="0" fill="#9a0000" fill-opacity="0.07058823529411765" />
<path d="M574,-258 L366,-710 L222,-86 L274,-1074 L218,-982 L134,-1138 Z" stroke-width="0" fill="#000000" fill-opacity="0.5019607843137255" />
<path d="M654,-1078 L586,-386 L382,-1302 L294,-802 L286,-430 L326,-134 Z" stroke-width="0" fill="#000000" fill-opacity="0.8941176470588236" />
<path d="M558,-450 L690,-1262 L398,-90 L454,-1118 L134,-534 L694,-782 Z" stroke-width="0" fill="#1c4c52" fill-opacity="0.6588235294117647" />
<path d="M310,-442 L762,-1070 L178,-634 L198,-190 L454,-806 L542,-650 Z" stroke-width="0" fill="#000000" fill-opacity="0.8196078431372549" />
<path d="M722,-438 L782,-702 L238,-598 L114,-102 L486,-514 L462,-582 Z" stroke-width="0" fill="#000000" fill-opacity="0.9215686274509803" />
<path d="M402,-314 L162,-210 L566,-930 L526,-842 L510,-890 L690,-158 Z" stroke-width="0" fill="#000c00" fill-opacity="0.7568627450980392" />
<path d="M250,-978 L358,-1166 L730,-394 L422,-1262 L450,-1206 L166,-778 Z" stroke-width="0" fill="#000000" fill-opacity="0.9686274509803922" />
<path d="M538,-498 L670,-842 L310,-598 L454,-1218 L326,-690 L342,-162 Z" stroke-width="0" fill="#000000" fill-opacity="0.9450980392156862" />
<path d="M98,-430 L142,-1006 L298,-1306 L410,-1282 L614,-706 L186,-930 Z" stroke-width="0" fill="#000000" fill-opacity="1.0" />
<path d="M466,-1106 L734,-1138 L206,-726 L390,-126 L90,-406 L86,-762 Z" stroke-width="0" fill="#000000" fill-opacity="0.9490196078431372" />
<path d="M438,-382 L370,-1278 L106,-1050 L502,-330 L286,-1114 L334,-198 Z" stroke-width="0" fill="#000000" fill-opacity="0.6392156862745098" />
<path d="M666,-106 L186,-538 L618,-1182 L178,-122 L570,-798 L434,-986 Z" stroke-width="0" fill="#000005" fill-opacity="0.984313725490196" />
<path d="M242,-150 L398,-1198 L402,-126 L250,-1042 L622,-1086 L338,-898 Z" stroke-width="0" fill="#000000" fill-opacity="0.9882352941176471" />
<path d="M234,-758 L514,-878 L350,-406 L474,-842 L706,-454 L558,-346 Z" stroke-width="0" fill="#0b5317" fill-opacity="0.8" />
<path d="M150,-166 L82,-826 L190,-754 L482,-210 L742,-162 L458,-938 Z" stroke-width="0" fill="#000000" fill-opacity="0.996078431372549" />
<path d="M342,-346 L166,-1070 L338,-1018 L630,-322 L694,-142 L218,-498 Z" stroke-width="0" fill="#000000" fill-opacity="0.9686274509803922" />
<path d="M506,-394 L174,-1206 L446,-374 L446,-346 L730,-842 L150,-706 Z" stroke-width="0" fill="#000006" fill-opacity="0.8941176470588236" />
<path d="M210,-270 L598,-622 L482,-474 L694,-894 L338,-238 L198,-134 Z" stroke-width="0" fill="#040100" fill-opacity="0.9686274509803922" />
<path d="M390,-158 L474,-358 L90,-1150 L538,-1174 L674,-514 L158,-770 Z" stroke-width="0" fill="#000000" fill-opacity="0.9607843137254902" />
<path d="M650,-810 L94,-538 L630,-226 L198,-450 L430,-370 L690,-406 Z" stroke-width="0" fill="#070000" fill-opacity="0.11372549019607843" />
<path d="M634,-86 L198,-646 L562,-1310 L562,-1090 L514,-1098 L138,-1078 Z" stroke-width="0" fill="#000000" fill-opacity="0.9490196078431372" />
<path d="M310,-402 L438,-1222 L534,-750 L342,-1034 L358,-278 L82,-1050 Z" stroke-width="0" fill="#000000" fill-opacity="0.7254901960784313" />
<path d="M454,-138 L790,-262 L182,-130 L638,-330 L558,-706 L114,-802 Z" stroke-width="0" fill="#070134" fill-opacity="0.9764705882352941" />
<path d="M306,-510 L706,-1006 L98,-230 L254,-1158 L806,-934 L98,-130 Z" stroke-width="0" fill="#000000" fill-opacity="0.9686274509803922" />
<path d="M678,-510 L802,-1314 L778,-370 L82,-238 L622,-130 L382,-1238 Z" stroke-width="0" fill="#000000" fill-opacity="0.9647058823529412" />
<path d="M766,-606 L742,-1298 L90,-358 L202,-862 L778,-734 L470,-918 Z" stroke-width="0" fill="#000000" fill-opacity="0.8196078431372549" />
<path d="M154,-574 L722,-718 L274,-790 L94,-214 L410,-858 L538,-366 Z" stroke-width="0" fill="#000e0e" fill-opacity="0.6509803921568628" />
<path d="M130,-1102 L382,-382 L586,-1206 L442,-558 L346,-866 L474,-122 Z" stroke-width="0" fill="#dbaaf6" fill-opacity="0.9490196078431372" />
<path d="M574,-1114 L290,-762 L190,-730 L378,-98 L682,-130 L478,-1310 Z" stroke-width="0" fill="#54734c" fill-opacity="0.8470588235294118" />
<path d="M542,-494 L298,-1130 L82,-662 L122,-474 L478,-326 L718,-1170 Z" stroke-width="0" fill="#000000" fill-opacity="0.8901960784313725" />
<path d="M294,-1142 L378,-622 L778,-1238 L166,-974 L322,-1022 L106,-702 Z" stroke-width="0" fill="#000000" fill-opacity="0.7764705882352941" />
<path d="M554,-1106 L630,-534 L522,-1198 L206,-1290 L194,-126 L294,-1042 Z" stroke-width="0" fill="#000000" fill-opacity="0.8627450980392157" />
<path d="M138,-974 L86,-326 L114,-390 L174,-1138 L706,-410 L354,-970 Z" stroke-width="0" fill="#000000" fill-opacity="0.9490196078431372" />
<path d="M530,-206 L550,-258 L382,-378 L222,-614 L766,-414 L610,-862 Z" stroke-width="0" fill="#000000" fill-opacity="0.9764705882352941" />
<path d="M546,-858 L538,-854 L574,-522 L178,-1166 L110,-590 L242,-234 Z" stroke-width="0" fill="#000000" fill-opacity="0.9294117647058824" />
<path d="M90,-790 L786,-314 L234,-358 L314,-1058 L122,-566 L790,-1010 Z" stroke-width="0" fill="#000000" fill-opacity="0.6901960784313725" />
<path d="M706,-1010 L142,-986 L314,-942 L790,-1222 L338,-410 L270,-142 Z" stroke-width="0" fill="#000000" fill-opacity="0.8" />
<path d="M558,-718 L718,-602 L402,-506 L290,-102 L570,-1222 L638,-322 Z" stroke-width="0" fill="#000000" fill-opacity="0.9882352941176471" />
<path d="M638,-1254 L310,-842 L130,-1278 L394,-834 L218,-710 L242,-282 Z" stroke-width="0" fill="#000000" fill-opacity="0.8" />
<path d="M710,-750 L406,-650 L438,-218 L230,-730 L166,-1202 L254,-1066 Z" stroke-width="0" fill="#000000" fill-opacity="0.7411764705882353" />
<path d="M434,-214 L178,-906 L750,-1262 L638,-794 L418,-834 L86,-1298 Z" stroke-width="0" fill="#000000" fill-opacity="0.7764705882352941" />
<path d="M562,-254 L570,-822 L394,-718 L750,-498 L126,-558 L422,-1098 Z" stroke-width="0" fill="#000000" fill-opacity="0.9647058823529412" />
<path d="M194,-758 L94,-1002 L306,-494 L118,-970 L726,-670 L746,-526 Z" stroke-width="0" fill="#000000" fill-opacity="0.9686274509803922" />
<path d="M334,-646 L310,-954 L538,-574 L102,-1294 L90,-1166 L150,-470 Z" stroke-width="0" fill="#000000" fill-opacity="0.9607843137254902" />
<path d="M738,-1050 L710,-1290 L194,-474 L158,-1146 L410,-746 L150,-262 Z" stroke-width="0" fill="#000000" fill-opacity="0.9411764705882353" />
<path d="M398,-1250 L450,-682 L146,-178 L642,-254 L646,-434 L518,-1002 Z" stroke-width="0" fill="#000000" fill-opacity="0.5019607843137255" />
<path d="M662,-270 L790,-306 L142,-438 L98,-646 L562,-634 L458,-862 Z" stroke-width="0" fill="#000000" fill-opacity="0.13725490196078433" />
<path d="M154,-622 L194,-610 L406,-658 L774,-878 L418,-866 L222,-166 Z" stroke-width="0" fill="#000000" fill-opacity="0.40784313725490196" />
<path d="M158,-206 L354,-650 L538,-482 L574,-734 L782,-426 L242,-1122 Z" stroke-width="0" fill="#000000" fill-opacity="0.9490196078431372" />
<path d="M758,-330 L262,-130 L498,-746 L230,-1054 L638,-1098 L354,-342 Z" stroke-width="0" fill="#8787da" fill-opacity="0.8549019607843137" />
<path d="M290,-1122 L262,-122 L542,-754 L810,-230 L154,-278 L402,-882 Z" stroke-width="0" fill="#434e3a" fill-opacity="0.6274509803921569" />
<path d="M190,-670 L110,-338 L602,-1126 L154,-1090 L766,-930 L546,-850 Z" stroke-width="0" fill="#000000" fill-opacity="0.9607843137254902" />
<path d="M82,-462 L210,-222 L306,-198 L774,-1214 L238,-770 L606,-778 Z" stroke-width="0" fill="#000000" fill-opacity="0.7450980392156863" />
<path d="M802,-318 L282,-118 L394,-1066 L178,-710 L506,-134 L450,-402 Z" stroke-width="0" fill="#a1b6ac" fill-opacity="0.9137254901960784" />
<path d="M386,-1182 L302,-94 L134,-462 L206,-390 L330,-258 L406,-598 Z" stroke-width="0" fill="#1f010a" fill-opacity="0.5058823529411764" />
<path d="M406,-142 L310,-770 L458,-126 L562,-1014 L514,-414 L586,-370 Z" stroke-width="0" fill="#adcb9b" fill-opacity="0.47058823529411764" />
<path d="M682,-1002 L94,-1110 L626,-462 L498,-886 L266,-222 L462,-1166 Z" stroke-width="0" fill="#000000" fill-opacity="0.5490196078431373" />
<path d="M690,-842 L402,-326 L406,-358 L142,-394 L542,-990 L102,-202 Z" stroke-width="0" fill="#0e1317" fill-opacity="0.9450980392156862" />
<path d="M410,-158 L354,-998 L346,-734 L674,-1150 L434,-846 L414,-242 Z" stroke-width="0" fill="#3b5cb1" fill-opacity="0.011764705882352941" />
<path d="M538,-1126 L150,-974 L530,-638 L438,-242 L550,-162 L574,-146 Z" stroke-width="0" fill="#e5a5c9" fill-opacity="0.03529411764705882" />
<path d="M250,-490 L466,-1074 L150,-446 L122,-1278 L438,-1290 L362,-542 Z" stroke-width="0" fill="#000000" fill-opacity="0.5019607843137255" />
<path d="M714,-806 L286,-242 L650,-1034 L354,-514 L186,-478 L270,-434 Z" stroke-width="0" fill="#00e65a" fill-opacity="0.10980392156862745" />
<path d="M206,-346 L442,-330 L726,-998 L714,-890 L510,-1298 L646,-446 Z" stroke-width="0" fill="#000000" fill-opacity="1.0" />
<path d="M614,-90 L346,-974 L746,-458 L490,-134 L390,-586 L186,-362 Z" stroke-width="0" fill="#a2bd80" fill-opacity="0.16470588235294117" />
<path d="M82,-154 L298,-202 L466,-1254 L274,-126 L718,-106 L694,-370 Z" stroke-width="0" fill="#634c2f" fill-opacity="0.5019607843137255" />
<path d="M446,-886 L266,-1270 L326,-490 L258,-1086 L810,-1082 L154,-974 Z" stroke-width="0" fill="#000000" fill-opacity="0.9882352941176471" />
<path d="M742,-1186 L210,-1274 L530,-1262 L150,-342 L618,-434 L366,-690 Z" stroke-width="0" fill="#000000" fill-opacity="0.8941176470588236" />
<path d="M182,-1046 L434,-626 L386,-242 L546,-1174 L610,-430 L270,-746 Z" stroke-width="0" fill="#000000" fill-opacity="0.9803921568627451" />
<path d="M786,-890 L646,-226 L350,-358 L158,-554 L226,-202 L126,-178 Z" stroke-width="0" fill="#000000" fill-opacity="0.2196078431372549" />
<path d="M418,-526 L134,-482 L522,-690 L594,-1062 L562,-1186 L758,-826 Z" stroke-width="0" fill="#000000" fill-opacity="0.8941176470588236" />
<path d="M350,-846 L766,-1146 L494,-442 L638,-394 L218,-742 L382,-246 Z" stroke-width="0" fill="#000000" fill-opacity="0.8980392156862745" />
<path d="M246,-274 L414,-930 L666,-766 L770,-330 L322,-142 L186,-1074 Z" stroke-width="0" fill="#000008" fill-opacity="0.03137254901960784" />
<path d="M322,-1086 L810,-790 L370,-566 L574,-1250 L694,-402 L82,-1062 Z" stroke-width="0" fill="#000000" fill-opacity="0.9490196078431372" />
<path d="M110,-530 L250,-406 L358,-346 L654,-1294 L314,-222 L434,-414 Z" stroke-width="0" fill="#917700" fill-opacity="0.08235294117647059" />
<path d="M134,-750 L218,-378 L614,-946 L558,-1150 L482,-1010 L266,-886 Z" stroke-width="0" fill="#000000" fill-opacity="0.6862745098039216" />
<path d="M214,-318 L774,-542 L730,-730 L714,-422 L222,-638 L710,-306 Z" stroke-width="0" fill="#001900" fill-opacity="0.043137254901960784" />
<path d="M638,-1078 L598,-278 L174,-506 L186,-618 L490,-218 L130,-722 Z" stroke-width="0" fill="#000000" fill-opacity="0.10196078431372549" />
<path d="M346,-126 L782,-1018 L350,-1054 L790,-666 L738,-958 L246,-722 Z" stroke-width="0" fill="#000000" fill-opacity="0.3176470588235294" />
<text x="448.0" y="0" font-size="70.0" fill="black" text-anchor="middle" transform="translate(0,17.5)">3 OF AIR</text>
</svg>