<?xml version="1.0" encoding="UTF-8"?>
<svg xmlns="http://www.w3.org/2000/svg" xmlns:xlink="http://www.w3.org/1999/xlink"
     width="896" height="1496" viewBox="0 -1400 896 1496" style="font-size:70;font-family:Poor Richard, Times New Roman;stroke:black;stroke-width:1;fill:none">
<defs>
</defs>
<path d="M606,-438 L786,-1098 L846,-438 L630,-130 L430,-486 L198,-802 Z" stroke-width="0" fill="#f9f98a" fill-opacity="0.611764705882353" />
<path d="M518,-186 L958,-302 L186,-1094 L614,-406 L962,-646 L758,-550 Z" stroke-width="0" fill="#f2b693" fill-opacity="0.5176470588235295" />
<path d="M534,-346 L578,-98 L154,-966 L694,-254 L970,-862 L850,-566 Z" stroke-width="0" fill="#fad391" fill-opacity="0.23137254901960785" />
<path d="M94,-450 L574,-902 L822,-902 L258,-418 L618,-734 L458,-190 Z" stroke-width="0" fill="#f8b241" fill-opacity="0.7803921568627451" />
<path d="M806,-522 L194,-282 L166,-274 L502,-438 L654,-458 L470,-290 Z" stroke-width="0" fill="#e62326" fill-opacity="0.058823529411764705" />
<path d="M762,-1026 L306,-642 L330,-1158 L494,-818 L530,-278 L374,-522 Z" stroke-width="0" fill="#eda95f" fill-opacity="0.011764705882352941" />
<path d="M222,-1026 L238,-702 L182,-690 L750,-114 L510,-674 L686,-246 Z" stroke-width="0" fill="#ec0c11" fill-opacity="0.2627450980392157" />
<path d="M338,-202 L798,-566 L158,-686 L474,-190 L358,-330 L590,-662 Z" stroke-width="0" fill="#e11717" fill-opacity="0.8392156862745098" />
<path d="M278,-430 L774,-126 L594,-310 L150,-282 L230,-542 L218,-1014 Z" stroke-width="0" fill="#dd007c" fill-opacity="0.11764705882352941" />
<path d="M598,-346 L158,-1162 L522,-614 L358,-842 L542,-618 L678,-1102 Z" stroke-width="0" fill="#f94cb3" fill-opacity="0.00784313725490196" />
<path d="M250,-342 L338,-994 L806,-670 L226,-170 L846,-206 L210,-518 Z" stroke-width="0" fill="#c4921a" fill-opacity="0.5490196078431373" />
<path d="M446,-926 L334,-326 L190,-790 L330,-882 L274,-810 L474,-930 Z" stroke-width="0" fill="#714d29" fill-opacity="1.0" />
<path d="M794,-498 L382,-410 L478,-94 L454,-818 L342,-742 L490,-954 Z" stroke-width="0" fill="#c87858" fill-opacity="0.8745098039215686" />
<path d="M626,-758 L498,-418 L430,-810 L606,-762 L150,-366 L498,-962 Z" stroke-width="0" fill="#fa6879" fill-opacity="0.5568627450980392" />
<path d="M414,-1258 L358,-702 L138,-806 L462,-542 L398,-810 L126,-582 Z" stroke-width="0" fill="#fb61a2" fill-opacity="0.054901960784313725" />
<path d="M802,-414 L114,-1106 L146,-814 L702,-566 L858,-454 L862,-522 Z" stroke-width="0" fill="#f7ba56" fill-opacity="0.41568627450980394" />
<path d="M294,-938 L154,-410 L222,-254 L690,-798 L606,-738 L158,-478 Z" stroke-width="0" fill="#d1651c" fill-opacity="0.08235294117647059" />
<path d="M842,-1002 L662,-818 L238,-322 L646,-214 L474,-1206 L334,-106 Z" stroke-width="0" fill="#a53dd5" fill-opacity="0.03529411764705882" />
<path d="M838,-394 L170,-1018 L450,-318 L230,-294 L638,-606 L538,-218 Z" stroke-width="0" fill="#78ab94" fill-opacity="0.03529411764705882" />
<path d="M174,-346 L154,-830 L594,-362 L602,-1214 L666,-418 L366,-938 Z" stroke-width="0" fill="#f45d7b" fill-opacity="0.03137254901960784" />
<path d="M618,-662 L194,-1094 L642,-622 L382,-782 L554,-470 L774,-402 Z" stroke-width="0" fill="#fafff7" fill-opacity="0.6862745098039216" />
<path d="M106,-590 L514,-1262 L258,-430 L282,-486 L378,-1014 L578,-718 Z" stroke-width="0" fill="#ee9b01" fill-opacity="0.1411764705882353" />
<path d="M974,-350 L530,-834 L934,-478 L174,-1122 L322,-318 L890,-642 Z" stroke-width="0" fill="#d94302" fill-opacity="0.011764705882352941" />
<path d="M414,-478 L478,-982 L562,-1026 L650,-502 L90,-638 L610,-394 Z" stroke-width="0" fill="#f8ce6c" fill-opacity="0.25098039215686274" />
<path d="M602,-962 L614,-774 L302,-1078 L634,-1074 L118,-806 L594,-202 Z" stroke-width="0" fill="#fdece1" fill-opacity="0.7137254901960784" />
<path d="M654,-130 L106,-558 L818,-274 L402,-406 L298,-1190 L326,-382 Z" stroke-width="0" fill="#ff9b67" fill-opacity="0.5411764705882353" />
<path d="M446,-450 L118,-818 L554,-394 L826,-622 L750,-746 L846,-818 Z" stroke-width="0" fill="#f7c795" fill-opacity="0.2823529411764706" />
<path d="M622,-662 L90,-190 L442,-902 L666,-334 L582,-462 L282,-1262 Z" stroke-width="0" fill="#d06f0e" fill-opacity="0.5019607843137255" />
<path d="M710,-102 L338,-422 L302,-1222 L826,-474 L686,-394 L262,-786 Z" stroke-width="0" fill="#fce7f7" fill-opacity="0.9568627450980393" />
<path d="M902,-306 L638,-406 L326,-806 L258,-182 L438,-266 L310,-290 Z" stroke-width="0" fill="#21099c" fill-opacity="0.0" />
<path d="M482,-482 L718,-1210 L670,-810 L466,-286 L882,-538 L962,-1162 Z" stroke-width="0" fill="#f2c45d" fill-opacity="0.23529411764705882" />
<path d="M782,-474 L914,-354 L618,-838 L942,-386 L862,-782 L178,-298 Z" stroke-width="0" fill="#fcc06d" fill-opacity="0.10588235294117647" />
<path d="M662,-982 L230,-1006 L758,-814 L878,-1142 L146,-1026 L694,-606 Z" stroke-width="0" fill="#e5be0b" fill-opacity="0.09411764705882353" />
<path d="M354,-870 L482,-990 L214,-186 L490,-242 L966,-354 L710,-426 Z" stroke-width="0" fill="#f18f04" fill-opacity="0.12549019607843137" />
<path d="M178,-370 L230,-206 L670,-290 L822,-98 L138,-426 L298,-482 Z" stroke-width="0" fill="#f79f1e" fill-opacity="0.4117647058823529" />
<path d="M298,-558 L558,-554 L890,-534 L406,-358 L118,-446 L662,-142 Z" stroke-width="0" fill="#ecb8e7" fill-opacity="0.03529411764705882" />
<path d="M910,-658 L958,-1134 L922,-270 L862,-118 L446,-182 L454,-1122 Z" stroke-width="0" fill="#ed5401" fill-opacity="0.13725490196078433" />
<path d="M886,-218 L190,-850 L570,-1134 L150,-90 L158,-242 L978,-162 Z" stroke-width="0" fill="#e79f7b" fill-opacity="0.8627450980392157" />
<path d="M566,-978 L710,-394 L418,-350 L906,-834 L114,-426 L330,-1138 Z" stroke-width="0" fill="#e460db" fill-opacity="0.24313725490196078" />
<path d="M874,-662 L786,-174 L546,-598 L938,-818 L446,-1054 L790,-678 Z" stroke-width="0" fill="#f7eae6" fill-opacity="0.9568627450980393" />
<path d="M246,-138 L194,-454 L126,-802 L258,-1058 L598,-250 L250,-406 Z" stroke-width="0" fill="#fce771" fill-opacity="0.3568627450980392" />
<path d="M310,-798 L86,-598 L742,-562 L374,-278 L822,-786 L390,-754 Z" stroke-width="0" fill="#e3200b" fill-opacity="0.1607843137254902" />
<path d="M878,-1194 L594,-1206 L218,-1190 L726,-1190 L326,-870 L186,-486 Z" stroke-width="0" fill="#d5e009" fill-opacity="0.09019607843137255" />
<path d="M230,-498 L838,-350 L394,-686 L306,-710 L98,-1186 L446,-350 Z" stroke-width="0" fill="#e72382" fill-opacity="0.0784313725490196" />
<path d="M262,-1186 L194,-570 L630,-490 L958,-558 L710,-1218 L910,-662 Z" stroke-width="0" fill="#fde5ee" fill-opacity="0.6941176470588235" />
<path d="M862,-1186 L770,-402 L938,-1122 L190,-194 L378,-1018 L670,-422 Z" stroke-width="0" fill="#fbf0cd" fill-opacity="0.6784313725490196" />
<path d="M498,-562 L558,-994 L278,-150 L794,-430 L262,-302 L898,-494 Z" stroke-width="0" fill="#e8e5aa" fill-opacity="0.6705882352941176" />
<path d="M450,-90 L366,-1142 L702,-906 L886,-278 L870,-154 L650,-870 Z" stroke-width="0" fill="#ae364d" fill-opacity="0.08235294117647059" />
<path d="M878,-682 L150,-238 L310,-94 L394,-254 L558,-238 L746,-1130 Z" stroke-width="0" fill="#cf6129" fill-opacity="0.3137254901960784" />
<path d="M162,-890 L142,-466 L410,-522 L242,-706 L326,-270 L690,-862 Z" stroke-width="0" fill="#e44a40" fill-opacity="0.03529411764705882" />
<path d="M138,-1050 L706,-530 L166,-862 L746,-222 L730,-242 L694,-186 Z" stroke-width="0" fill="#f8ded2" fill-opacity="0.7607843137254902" />
<path d="M262,-742 L678,-730 L686,-862 L618,-882 L458,-1278 L210,-630 Z" stroke-width="0" fill="#d524bf" fill-opacity="0.00784313725490196" />
<path d="M826,-102 L294,-254 L294,-358 L790,-246 L546,-1242 L742,-1134 Z" stroke-width="0" fill="#9c0e87" fill-opacity="0.00784313725490196" />
<path d="M694,-1042 L198,-946 L154,-534 L406,-730 L598,-878 L542,-90 Z" stroke-width="0" fill="#fae4ab" fill-opacity="0.9294117647058824" />
<path d="M354,-826 L146,-966 L770,-514 L306,-834 L798,-350 L230,-854 Z" stroke-width="0" fill="#d645db" fill-opacity="0.047058823529411764" />
<path d="M730,-386 L838,-222 L190,-362 L318,-334 L470,-710 L734,-90 Z" stroke-width="0" fill="#d39790" fill-opacity="0.4980392156862745" />
<path d="M642,-1054 L386,-118 L234,-238 L570,-1242 L362,-538 L570,-934 Z" stroke-width="0" fill="#e0b265" fill-opacity="0.7058823529411765" />
<path d="M662,-698 L850,-1166 L970,-270 L514,-106 L210,-250 L526,-1138 Z" stroke-width="0" fill="#e53853" fill-opacity="0.00392156862745098" />
<path d="M722,-174 L646,-502 L186,-106 L390,-690 L878,-390 L578,-698 Z" stroke-width="0" fill="#e5ad5b" fill-opacity="0.6196078431372549" />
<path d="M590,-358 L686,-658 L294,-86 L658,-558 L470,-686 L798,-126 Z" stroke-width="0" fill="#c4b577" fill-opacity="0.5019607843137255" />
<path d="M322,-1222 L894,-830 L502,-794 L478,-834 L530,-910 L602,-358 Z" stroke-width="0" fill="#f8fbe5" fill-opacity="0.8431372549019608" />
<path d="M210,-138 L182,-202 L714,-1238 L522,-190 L706,-174 L210,-586 Z" stroke-width="0" fill="#f07713" fill-opacity="0.14901960784313725" />
<path d="M154,-194 L538,-850 L670,-82 L402,-426 L418,-1126 L726,-1126 Z" stroke-width="0" fill="#f6d0a8" fill-opacity="0.6509803921568628" />
<path d="M522,-902 L658,-378 L218,-1074 L718,-970 L302,-142 L854,-210 Z" stroke-width="0" fill="#984f72" fill-opacity="0.0" />
<path d="M550,-794 L82,-1238 L454,-522 L678,-522 L190,-1058 L514,-330 Z" stroke-width="0" fill="#fdc889" fill-opacity="0.5019607843137255" />
<path d="M358,-586 L610,-1026 L418,-886 L198,-1034 L410,-1054 L714,-278 Z" stroke-width="0" fill="#f4efee" fill-opacity="0.8901960784313725" />
<path d="M534,-1034 L102,-374 L842,-994 L206,-146 L974,-338 L434,-318 Z" stroke-width="0" fill="#e8c8c5" fill-opacity="0.5019607843137255" />
<path d="M962,-526 L430,-598 L510,-186 L618,-450 L774,-202 L614,-778 Z" stroke-width="0" fill="#faf087" fill-opacity="0.37254901960784315" />
<path d="M150,-346 L310,-654 L122,-310 L318,-842 L178,-1046 L642,-134 Z" stroke-width="0" fill="#f3ba91" fill-opacity="0.7568627450980392" />
<path d="M918,-210 L574,-370 L862,-214 L358,-874 L578,-682 L574,-598 Z" stroke-width="0" fill="#e805f5" fill-opacity="0.2901960784313726" />
<path d="M934,-114 L926,-758 L858,-186 L710,-430 L834,-1086 L194,-650 Z" stroke-width="0" fill="#eed897" fill-opacity="0.40784313725490196" />
<path d="M194,-1254 L142,-906 L514,-1126 L238,-474 L350,-1114 L374,-290 Z" stroke-width="0" fill="#f2951a" fill-opacity="0.07450980392156863" />
<path d="M162,-298 L454,-238 L938,-498 L394,-558 L682,-458 L346,-562 Z" stroke-width="0" fill="#d6dcc1" fill-opacity="0.21568627450980393" />
<path d="M150,-698 L510,-554 L594,-186 L694,-826 L430,-1038 L402,-914 Z" stroke-width="0" fill="#e5c5c3" fill-opacity="0.023529411764705882" />
<path d="M470,-470 L902,-114 L658,-402 L278,-674 L166,-882 L286,-814 Z" stroke-width="0" fill="#fd6996" fill-opacity="0.39215686274509803" />
<path d="M242,-1158 L250,-254 L130,-690 L690,-886 L734,-1182 L418,-1086 Z" stroke-width="0" fill="#f0d1c4" fill-opacity="0.2235294117647059" />
<path d="M506,-122 L878,-618 L726,-626 L178,-1090 L318,-818 L790,-1186 Z" stroke-width="0" fill="#fcf5c8" fill-opacity="0.8705882352941177" />
<path d="M554,-194 L646,-998 L638,-198 L486,-486 L646,-1026 L382,-382 Z" stroke-width="0" fill="#e8eafa" fill-opacity="0.4392156862745098" />
<path d="M822,-510 L558,-310 L618,-918 L230,-502 L838,-1270 L170,-346 Z" stroke-width="0" fill="#fa51c8" fill-opacity="0.03529411764705882" />
<path d="M238,-1162 L342,-90 L698,-518 L126,-882 L662,-326 L370,-122 Z" stroke-width="0" fill="#d8a459" fill-opacity="0.2" />
<path d="M442,-430 L90,-122 L638,-482 L558,-1082 L110,-178 L378,-890 Z" stroke-width="0" fill="#eabb83" fill-opacity="0.47058823529411764" />
<path d="M490,-1014 L242,-1134 L370,-1102 L954,-774 L654,-454 L814,-886 Z" stroke-width="0" fill="#d4e3d7" fill-opacity="0.1803921568627451" />
<path d="M538,-230 L774,-1250 L210,-114 L398,-274 L318,-970 L742,-734 Z" stroke-width="0" fill="#ffa86c" fill-opacity="0.027450980392156862" />
<path d="M574,-686 L498,-470 L418,-814 L150,-654 L518,-1166 L970,-338 Z" stroke-width="0" fill="#f1bec4" fill-opacity="0.11372549019607843" />
<path d="M102,-1238 L714,-1194 L586,-858 L694,-546 L654,-606 L778,-542 Z" stroke-width="0" fill="#ed68e0" fill-opacity="0.058823529411764705" />
<path d="M914,-750 L414,-1086 L142,-938 L378,-182 L646,-1226 L782,-1042 Z" stroke-width="0" fill="#e6f6c8" fill-opacity="0.4549019607843137" />
<path d="M138,-578 L298,-862 L418,-1218 L794,-274 L598,-186 L958,-742 Z" stroke-width="0" fill="#fedcca" fill-opacity="0.9372549019607843" />
<path d="M658,-822 L350,-298 L286,-330 L346,-930 L438,-310 L578,-1146 Z" stroke-width="0" fill="#f2dd93" fill-opacity="0.796078431372549" />
<path d="M122,-150 L606,-154 L198,-590 L750,-586 L766,-734 L562,-138 Z" stroke-width="0" fill="#ff89a4" fill-opacity="0.2549019607843137" />
<path d="M794,-930 L810,-714 L610,-810 L202,-502 L338,-974 L170,-366 Z" stroke-width="0" fill="#f8efac" fill-opacity="0.32941176470588235" />
<path d="M974,-158 L286,-506 L178,-170 L490,-918 L798,-178 L938,-202 Z" stroke-width="0" fill="#e7c6a3" fill-opacity="0.5019607843137255" />
<path d="M442,-962 L254,-490 L750,-494 L626,-566 L974,-222 L446,-102 Z" stroke-width="0" fill="#f5ca7c" fill-opacity="0.7137254901960784" />
<path d="M598,-122 L602,-1226 L254,-1278 L250,-578 L286,-486 L278,-858 Z" stroke-width="0" fill="#fef3ac" fill-opacity="0.5411764705882353" />
<path d="M382,-198 L910,-902 L366,-1066 L494,-1254 L102,-282 L442,-598 Z" stroke-width="0" fill="#e6dcd2" fill-opacity="0.0784313725490196" />
<path d="M910,-162 L702,-1170 L454,-674 L422,-934 L178,-214 L86,-802 Z" stroke-width="0" fill="#edefb5" fill-opacity="0.30196078431372547" />
<path d="M510,-1142 L446,-838 L874,-1086 L418,-1174 L562,-1250 L794,-254 Z" stroke-width="0" fill="#e8ffeb" fill-opacity="0.40784313725490196" />
<path d="M282,-402 L714,-302 L486,-1270 L454,-458 L338,-682 L90,-446 Z" stroke-width="0" fill="#c8f5b5" fill-opacity="0.2" />
<path d="M682,-598 L218,-842 L942,-738 L562,-294 L422,-470 L346,-306 Z" stroke-width="0" fill="#efa9c3" fill-opacity="0.30196078431372547" />
<path d="M346,-254 L270,-506 L490,-606 L86,-130 L290,-1186 L854,-214 Z" stroke-width="0" fill="#e74c76" fill-opacity="0.01568627450980392" />
<path d="M254,-346 L546,-398 L390,-978 L954,-774 L402,-546 L862,-894 Z" stroke-width="0" fill="#e2e0ec" fill-opacity="0.2" />
<text x="448.0" y="0" font-size="70.0" fill="black" text-anchor="middle" transform="translate(0,17.5)">PAGE OF AIR</text>
</svg>