<?xml version="1.0" encoding="UTF-8"?>
<svg xmlns="http://www.w3.org/2000/svg" xmlns:xlink="http://www.w3.org/1999/xlink"
     width="896" height="1496" viewBox="0 -1400 896 1496" style="font-size:70;font-family:Poor Richard, Times New Roman;stroke:black;stroke-width:1;fill:none">
<defs>
</defs>
<path d="M966,-1222 L738,-794 L758,-814 L486,-818 L130,-370 L674,-682 Z" stroke-width="0" fill="#540000" fill-opacity="0.984313725490196" />
<path d="M578,-1154 L410,-174 L326,-1022 L702,-114 L262,-1246 L414,-450 Z" stroke-width="0" fill="#000000" fill-opacity="0.9176470588235294" />
<path d="M94,-658 L778,-1174 L230,-662 L322,-906 L738,-694 L270,-750 Z" stroke-width="0" fill="#090000" fill-opacity="0.984313725490196" />
<path d="M226,-210 L330,-730 L802,-826 L698,-426 L350,-390 L574,-962 Z" stroke-width="0" fill="#a6472d" fill-opacity="0.4627450980392157" />
<path d="M222,-178 L738,-718 L346,-190 L910,-1074 L466,-1026 L966,-146 Z" stroke-width="0" fill="#610000" fill-opacity="0.996078431372549" />
<path d="M302,-470 L178,-878 L838,-102 L942,-322 L206,-1054 L342,-846 Z" stroke-width="0" fill="#510000" fill-opacity="0.8941176470588236" />
<path d="M326,-766 L446,-1210 L838,-774 L118,-426 L306,-130 L534,-606 Z" stroke-width="0" fill="#000000" fill-opacity="0.7137254901960784" />
<path d="M618,-306 L318,-866 L366,-686 L438,-106 L858,-530 L422,-526 Z" stroke-width="0" fill="#000000" fill-opacity="0.8588235294117647" />
<path d="M370,-570 L726,-218 L442,-870 L574,-606 L378,-406 L478,-474 Z" stroke-width="0" fill="#e391df" fill-opacity="0.7529411764705882" />
<path d="M750,-554 L134,-946 L134,-754 L214,-382 L618,-1206 L486,-1154 Z" stroke-width="0" fill="#830000" fill-opacity="0.8941176470588236" />
<path d="M302,-698 L454,-758 L610,-890 L138,-574 L630,-934 L710,-750 Z" stroke-width="0" fill="#0e751a" fill-opacity="0.9254901960784314" />
<path d="M338,-646 L82,-938 L694,-1038 L510,-1182 L514,-810 L930,-306 Z" stroke-width="0" fill="#080000" fill-opacity="1.0" />
<path d="M150,-622 L670,-838 L602,-342 L174,-194 L634,-470 L934,-214 Z" stroke-width="0" fill="#6e0001" fill-opacity="0.9098039215686274" />
<path d="M666,-490 L214,-914 L670,-126 L258,-202 L270,-86 L662,-926 Z" stroke-width="0" fill="#000000" fill-opacity="0.9686274509803922" />
<path d="M122,-194 L194,-1186 L102,-1002 L630,-690 L382,-238 L390,-382 Z" stroke-width="0" fill="#000000" fill-opacity="0.9725490196078431" />
<path d="M754,-682 L578,-490 L746,-1090 L370,-822 L834,-1122 L662,-426 Z" stroke-width="0" fill="#94afc4" fill-opacity="0.9176470588235294" />
<path d="M906,-558 L106,-194 L874,-394 L786,-162 L394,-950 L642,-458 Z" stroke-width="0" fill="#9a0000" fill-opacity="0.996078431372549" />
<path d="M430,-1082 L342,-802 L794,-710 L582,-1226 L382,-730 L350,-802 Z" stroke-width="0" fill="#000000" fill-opacity="0.9882352941176471" />
<path d="M594,-1170 L174,-942 L730,-794 L242,-114 L98,-862 L606,-218 Z" stroke-width="0" fill="#000000" fill-opacity="0.9294117647058824" />
<path d="M898,-1222 L238,-1102 L330,-950 L462,-846 L762,-946 L754,-578 Z" stroke-width="0" fill="#000000" fill-opacity="0.9137254901960784" />
<path d="M978,-246 L222,-738 L818,-1170 L210,-798 L562,-1154 L618,-270 Z" stroke-width="0" fill="#af0000" fill-opacity="0.9803921568627451" />
<path d="M94,-414 L754,-202 L258,-138 L146,-818 L702,-534 L734,-238 Z" stroke-width="0" fill="#820000" fill-opacity="0.9294117647058824" />
<path d="M434,-750 L146,-438 L658,-714 L346,-642 L854,-550 L142,-258 Z" stroke-width="0" fill="#21147b" fill-opacity="0.24705882352941178" />
<path d="M842,-642 L458,-462 L942,-858 L674,-666 L782,-322 L370,-1066 Z" stroke-width="0" fill="#000000" fill-opacity="0.9568627450980393" />
<path d="M386,-802 L810,-590 L478,-686 L774,-166 L526,-822 L782,-318 Z" stroke-width="0" fill="#e10007" fill-opacity="0.5411764705882353" />
<path d="M174,-862 L130,-774 L170,-1014 L154,-598 L174,-626 L90,-1270 Z" stroke-width="0" fill="#000000" fill-opacity="0.8901960784313725" />
<path d="M258,-926 L430,-1106 L186,-130 L406,-714 L694,-910 L966,-990 Z" stroke-width="0" fill="#000000" fill-opacity="0.9647058823529412" />
<path d="M358,-218 L130,-790 L290,-330 L230,-98 L454,-546 L474,-758 Z" stroke-width="0" fill="#000000" fill-opacity="0.7764705882352941" />
<path d="M278,-766 L438,-1082 L558,-482 L158,-1194 L922,-486 L186,-330 Z" stroke-width="0" fill="#000000" fill-opacity="0.9725490196078431" />
<path d="M238,-1182 L626,-138 L126,-978 L550,-1090 L822,-454 L566,-306 Z" stroke-width="0" fill="#000000" fill-opacity="0.8823529411764706" />
<path d="M882,-410 L338,-514 L234,-478 L662,-950 L598,-634 L578,-230 Z" stroke-width="0" fill="#db000f" fill-opacity="0.37254901960784315" />
<path d="M602,-134 L274,-754 L690,-550 L930,-322 L610,-1150 L918,-618 Z" stroke-width="0" fill="#000000" fill-opacity="0.984313725490196" />
<path d="M694,-762 L614,-766 L594,-442 L350,-506 L126,-362 L182,-434 Z" stroke-width="0" fill="#001a19" fill-opacity="0.8352941176470589" />
<path d="M106,-674 L482,-174 L230,-1266 L974,-938 L658,-1022 L614,-566 Z" stroke-width="0" fill="#000000" fill-opacity="0.9882352941176471" />
<path d="M438,-750 L266,-566 L522,-1182 L458,-1226 L398,-1158 L514,-502 Z" stroke-width="0" fill="#000000" fill-opacity="0.9372549019607843" />
<path d="M98,-426 L378,-698 L286,-154 L854,-782 L254,-90 L446,-838 Z" stroke-width="0" fill="#000000" fill-opacity="0.9490196078431372" />
<path d="M374,-338 L242,-334 L158,-1046 L958,-394 L166,-282 L934,-914 Z" stroke-width="0" fill="#000000" fill-opacity="0.8509803921568627" />
<path d="M378,-898 L242,-298 L402,-1066 L458,-1210 L510,-706 L470,-238 Z" stroke-width="0" fill="#040000" fill-opacity="0.5254901960784314" />
<path d="M898,-582 L450,-258 L710,-302 L246,-970 L438,-1026 L386,-250 Z" stroke-width="0" fill="#519ac5" fill-opacity="0.7254901960784313" />
<path d="M270,-170 L394,-602 L962,-430 L222,-1082 L202,-250 L278,-762 Z" stroke-width="0" fill="#000000" fill-opacity="0.9647058823529412" />
<path d="M250,-1002 L846,-1134 L774,-874 L446,-598 L770,-102 L266,-454 Z" stroke-width="0" fill="#960000" fill-opacity="0.8784313725490196" />
<path d="M374,-606 L922,-298 L510,-554 L310,-194 L582,-670 L554,-530 Z" stroke-width="0" fill="#8d0000" fill-opacity="0.9686274509803922" />
<path d="M518,-694 L674,-542 L290,-82 L190,-578 L746,-386 L514,-382 Z" stroke-width="0" fill="#000000" fill-opacity="0.8392156862745098" />
<path d="M506,-266 L786,-706 L762,-1210 L594,-378 L182,-790 L254,-902 Z" stroke-width="0" fill="#c60000" fill-opacity="0.7137254901960784" />
<path d="M230,-1198 L322,-1266 L498,-106 L758,-230 L286,-1150 L270,-1122 Z" stroke-width="0" fill="#000000" fill-opacity="0.8392156862745098" />
<path d="M290,-814 L318,-154 L974,-486 L350,-790 L914,-618 L794,-374 Z" stroke-width="0" fill="#000000" fill-opacity="0.9176470588235294" />
<path d="M202,-862 L166,-786 L518,-1146 L718,-786 L414,-1006 L754,-506 Z" stroke-width="0" fill="#000008" fill-opacity="0.24705882352941178" />
<path d="M706,-310 L298,-1034 L94,-258 L310,-142 L470,-1210 L330,-770 Z" stroke-width="0" fill="#000000" fill-opacity="0.8941176470588236" />
<path d="M918,-910 L478,-450 L346,-1222 L594,-346 L706,-698 L514,-358 Z" stroke-width="0" fill="#000000" fill-opacity="0.8823529411764706" />
<path d="M662,-86 L314,-102 L502,-626 L798,-906 L330,-602 L418,-350 Z" stroke-width="0" fill="#000000" fill-opacity="0.9607843137254902" />
<path d="M134,-98 L354,-142 L390,-1226 L274,-442 L582,-598 L178,-366 Z" stroke-width="0" fill="#000000" fill-opacity="0.9450980392156862" />
<path d="M454,-810 L382,-734 L774,-1058 L466,-138 L106,-790 L310,-650 Z" stroke-width="0" fill="#9c0000" fill-opacity="0.047058823529411764" />
<path d="M194,-962 L778,-682 L622,-290 L150,-1062 L370,-1026 L314,-122 Z" stroke-width="0" fill="#000000" fill-opacity="0.7176470588235294" />
<path d="M550,-642 L114,-542 L158,-822 L310,-890 L794,-462 L310,-982 Z" stroke-width="0" fill="#000000" fill-opacity="0.996078431372549" />
<path d="M630,-694 L126,-766 L658,-138 L614,-222 L666,-1006 L334,-246 Z" stroke-width="0" fill="#090f20" fill-opacity="0.023529411764705882" />
<path d="M922,-1002 L494,-86 L250,-222 L930,-418 L474,-690 L602,-790 Z" stroke-width="0" fill="#140000" fill-opacity="0.9764705882352941" />
<path d="M206,-218 L566,-522 L566,-1130 L306,-546 L810,-1218 L486,-674 Z" stroke-width="0" fill="#790255" fill-opacity="0.00392156862745098" />
<path d="M566,-98 L126,-1102 L762,-230 L338,-1038 L674,-698 L714,-818 Z" stroke-width="0" fill="#000000" fill-opacity="0.9254901960784314" />
<path d="M902,-818 L234,-1010 L866,-1046 L242,-498 L966,-754 L694,-958 Z" stroke-width="0" fill="#000000" fill-opacity="0.9019607843137255" />
<path d="M266,-1098 L734,-586 L602,-686 L502,-926 L230,-1066 L478,-198 Z" stroke-width="0" fill="#000000" fill-opacity="0.9647058823529412" />
<path d="M562,-442 L674,-118 L106,-650 L126,-746 L394,-110 L498,-822 Z" stroke-width="0" fill="#000000" fill-opacity="0.9450980392156862" />
<path d="M158,-258 L186,-238 L534,-662 L118,-578 L210,-1166 L382,-774 Z" stroke-width="0" fill="#000000" fill-opacity="0.9058823529411765" />
<path d="M198,-338 L754,-430 L914,-634 L430,-834 L742,-886 L82,-946 Z" stroke-width="0" fill="#000000" fill-opacity="0.9803921568627451" />
<path d="M498,-530 L438,-310 L946,-194 L606,-174 L322,-470 L198,-906 Z" stroke-width="0" fill="#080300" fill-opacity="0.5019607843137255" />
<path d="M542,-126 L206,-1054 L242,-1230 L362,-850 L178,-1050 L182,-1194 Z" stroke-width="0" fill="#000000" fill-opacity="0.9607843137254902" />
<path d="M454,-406 L698,-638 L398,-518 L958,-1086 L278,-514 L454,-738 Z" stroke-width="0" fill="#000000" fill-opacity="0.8745098039215686" />
<path d="M122,-910 L666,-654 L422,-346 L302,-1046 L258,-706 L782,-398 Z" stroke-width="0" fill="#2f000e" fill-opacity="0.0784313725490196" />
<path d="M682,-138 L238,-1214 L474,-894 L554,-654 L222,-1186 L546,-754 Z" stroke-width="0" fill="#000000" fill-opacity="0.9372549019607843" />
<path d="M302,-510 L562,-722 L106,-1014 L238,-1186 L134,-774 L334,-450 Z" stroke-width="0" fill="#000000" fill-opacity="0.5215686274509804" />
<path d="M238,-890 L190,-198 L542,-1130 L322,-1006 L462,-562 L82,-1098 Z" stroke-width="0" fill="#000000" fill-opacity="1.0" />
<path d="M98,-930 L238,-754 L194,-106 L362,-766 L810,-1114 L642,-186 Z" stroke-width="0" fill="#040000" fill-opacity="0.1607843137254902" />
<path d="M902,-502 L654,-1174 L414,-198 L246,-922 L474,-762 L246,-1010 Z" stroke-width="0" fill="#bb0000" fill-opacity="0.9019607843137255" />
<path d="M594,-590 L398,-1158 L398,-878 L710,-802 L106,-706 L826,-142 Z" stroke-width="0" fill="#da000f" fill-opacity="0.984313725490196" />
<path d="M374,-950 L614,-1046 L178,-602 L198,-274 L178,-210 L166,-994 Z" stroke-width="0" fill="#000000" fill-opacity="0.8823529411764706" />
<path d="M570,-642 L102,-250 L258,-906 L702,-1054 L350,-622 L142,-682 Z" stroke-width="0" fill="#000000" fill-opacity="0.996078431372549" />
<path d="M454,-958 L202,-606 L838,-1134 L342,-582 L566,-634 L290,-526 Z" stroke-width="0" fill="#e70100" fill-opacity="0.3333333333333333" />
<path d="M754,-374 L570,-870 L786,-354 L910,-762 L346,-1230 L198,-294 Z" stroke-width="0" fill="#000000" fill-opacity="0.9882352941176471" />
<path d="M374,-1258 L598,-1146 L646,-602 L254,-618 L118,-282 L542,-766 Z" stroke-width="0" fill="#000000" fill-opacity="0.8666666666666667" />
<path d="M94,-1018 L226,-930 L126,-386 L622,-774 L850,-878 L134,-1230 Z" stroke-width="0" fill="#000000" fill-opacity="0.996078431372549" />
<path d="M346,-886 L402,-718 L682,-318 L350,-606 L294,-1194 L142,-110 Z" stroke-width="0" fill="#000000" fill-opacity="0.984313725490196" />
<path d="M186,-886 L314,-554 L106,-1118 L830,-554 L666,-302 L522,-674 Z" stroke-width="0" fill="#c90000" fill-opacity="0.8862745098039215" />
<path d="M126,-1218 L310,-126 L618,-1110 L602,-370 L630,-130 L262,-1230 Z" stroke-width="0" fill="#000000" fill-opacity="0.9921568627450981" />
<path d="M154,-630 L698,-1078 L898,-278 L554,-250 L662,-930 L570,-362 Z" stroke-width="0" fill="#4e8513" fill-opacity="0.0" />
<path d="M466,-1266 L330,-1042 L222,-406 L434,-102 L418,-138 L462,-1134 Z" stroke-width="0" fill="#000000" fill-opacity="0.8588235294117647" />
<path d="M202,-150 L582,-758 L422,-186 L862,-170 L526,-902 L802,-1210 Z" stroke-width="0" fill="#a40000" fill-opacity="0.28627450980392155" />
<path d="M138,-1270 L166,-1046 L954,-550 L610,-642 L446,-1154 L690,-1206 Z" stroke-width="0" fill="#000000" fill-opacity="0.9333333333333333" />
<path d="M906,-250 L810,-130 L274,-746 L422,-1114 L110,-1030 L694,-494 Z" stroke-width="0" fill="#b10000" fill-opacity="0.11372549019607843" />
<path d="M514,-818 L718,-382 L590,-742 L266,-574 L402,-714 L558,-1258 Z" stroke-width="0" fill="#150000" fill-opacity="0.9647058823529412" />
<path d="M882,-758 L642,-506 L278,-370 L102,-422 L746,-990 L318,-454 Z" stroke-width="0" fill="#82000c" fill-opacity="0.8784313725490196" />
<path d="M446,-1214 L94,-342 L182,-946 L714,-446 L110,-1070 L114,-110 Z" stroke-width="0" fill="#000000" fill-opacity="0.9372549019607843" />
<path d="M194,-974 L938,-814 L206,-214 L786,-786 L622,-1138 L230,-938 Z" stroke-width="0" fill="#000000" fill-opacity="0.9725490196078431" />
<path d="M250,-698 L262,-1030 L578,-1122 L258,-794 L954,-714 L114,-322 Z" stroke-width="0" fill="#000000" fill-opacity="0.9372549019607843" />
<path d="M662,-394 L378,-222 L414,-226 L666,-426 L614,-170 L298,-398 Z" stroke-width="0" fill="#000000" fill-opacity="0.8666666666666667" />
<path d="M330,-638 L490,-834 L794,-278 L866,-470 L734,-1078 L514,-642 Z" stroke-width="0" fill="#dd0403" fill-opacity="0.6431372549019608" />
<path d="M518,-386 L522,-1198 L942,-922 L706,-130 L122,-722 L618,-406 Z" stroke-width="0" fill="#100000" fill-opacity="0.4627450980392157" />
<path d="M218,-258 L334,-598 L314,-234 L110,-582 L394,-250 L942,-1270 Z" stroke-width="0" fill="#000000" fill-opacity="0.9921568627450981" />
<path d="M234,-1082 L278,-474 L918,-466 L290,-214 L798,-654 L278,-442 Z" stroke-width="0" fill="#f60000" fill-opacity="0.5058823529411764" />
<path d="M922,-590 L422,-162 L326,-626 L138,-94 L406,-278 L878,-762 Z" stroke-width="0" fill="#000000" fill-opacity="0.2196078431372549" />
<path d="M218,-1138 L758,-730 L290,-394 L186,-738 L570,-238 L622,-102 Z" stroke-width="0" fill="#000000" fill-opacity="0.8901960784313725" />
<path d="M154,-158 L610,-1066 L278,-822 L830,-514 L130,-522 L394,-758 Z" stroke-width="0" fill="#1e0000" fill-opacity="0.14901960784313725" />
<text x="448.0" y="0" font-size="70.0" fill="black" text-anchor="middle" transform="translate(0,17.5)">1 OF AIR</text>
</svg>