<?xml version="1.0" encoding="UTF-8"?>
<svg xmlns="http://www.w3.org/2000/svg" xmlns:xlink="http://www.w3.org/1999/xlink"
     width="896" height="1496" viewBox="0 -1400 896 1496" style="font-size:70;font-family:Poor Richard, Times New Roman;stroke:black;stroke-width:1;fill:none">
<defs>
</defs>
<path d="M302,-798 L726,-622 L754,-714 L186,-274 L582,-418 L206,-886 Z" stroke-width="0" fill="#bdfa15" fill-opacity="0.0784313725490196" />
<path d="M506,-750 L122,-1062 L134,-226 L762,-878 L446,-174 L626,-810 Z" stroke-width="0" fill="#001402" fill-opacity="0.9372549019607843" />
<path d="M274,-554 L350,-794 L118,-746 L498,-330 L794,-330 L306,-354 Z" stroke-width="0" fill="#181426" fill-opacity="0.996078431372549" />
<path d="M550,-1294 L502,-1194 L390,-402 L610,-806 L474,-1042 L490,-246 Z" stroke-width="0" fill="#1f1472" fill-opacity="0.09019607843137255" />
<path d="M302,-250 L166,-1298 L294,-1242 L226,-658 L266,-334 L170,-534 Z" stroke-width="0" fill="#b9a3aa" fill-opacity="0.27058823529411763" />
<path d="M402,-674 L542,-538 L174,-1046 L586,-590 L694,-1214 L274,-474 Z" stroke-width="0" fill="#d2eae5" fill-opacity="0.06274509803921569" />
<path d="M426,-1074 L354,-598 L682,-666 L598,-1018 L198,-602 L254,-1178 Z" stroke-width="0" fill="#005e29" fill-opacity="0.9372549019607843" />
<path d="M174,-414 L426,-1154 L686,-386 L338,-446 L282,-594 L686,-846 Z" stroke-width="0" fill="#f1d9fc" fill-opacity="0.03137254901960784" />
<path d="M534,-82 L742,-266 L434,-350 L82,-126 L686,-1046 L294,-814 Z" stroke-width="0" fill="#000a00" fill-opacity="0.9490196078431372" />
<path d="M342,-502 L498,-162 L246,-706 L666,-294 L606,-1002 L666,-786 Z" stroke-width="0" fill="#80dd2d" fill-opacity="0.796078431372549" />
<path d="M638,-926 L286,-890 L102,-510 L218,-166 L582,-330 L294,-830 Z" stroke-width="0" fill="#000007" fill-opacity="0.9568627450980393" />
<path d="M506,-710 L302,-182 L198,-622 L774,-694 L286,-778 L586,-762 Z" stroke-width="0" fill="#54245d" fill-opacity="0.4588235294117647" />
<path d="M134,-1062 L682,-422 L706,-362 L338,-1198 L82,-486 L410,-1214 Z" stroke-width="0" fill="#2b5d43" fill-opacity="0.2549019607843137" />
<path d="M670,-134 L286,-230 L754,-298 L614,-766 L350,-782 L422,-90 Z" stroke-width="0" fill="#00000b" fill-opacity="0.9333333333333333" />
<path d="M298,-382 L634,-926 L486,-1082 L658,-710 L350,-982 L650,-1030 Z" stroke-width="0" fill="#f24d77" fill-opacity="0.19215686274509805" />
<path d="M206,-1034 L242,-1038 L270,-770 L162,-322 L734,-938 L214,-1314 Z" stroke-width="0" fill="#5a6b1d" fill-opacity="0.30196078431372547" />
<path d="M154,-674 L154,-398 L198,-882 L638,-890 L362,-982 L282,-838 Z" stroke-width="0" fill="#190001" fill-opacity="0.01568627450980392" />
<path d="M522,-606 L450,-258 L710,-1290 L554,-338 L434,-130 L322,-430 Z" stroke-width="0" fill="#000c0e" fill-opacity="0.8745098039215686" />
<path d="M290,-942 L302,-394 L258,-278 L586,-258 L406,-510 L406,-778 Z" stroke-width="0" fill="#d09877" fill-opacity="0.13725490196078433" />
<path d="M530,-166 L450,-306 L414,-906 L126,-318 L234,-962 L114,-682 Z" stroke-width="0" fill="#000b06" fill-opacity="0.9333333333333333" />
<path d="M782,-262 L774,-394 L258,-394 L470,-174 L378,-934 L90,-814 Z" stroke-width="0" fill="#000000" fill-opacity="0.8666666666666667" />
<path d="M182,-1042 L158,-1058 L714,-818 L282,-566 L86,-566 L306,-466 Z" stroke-width="0" fill="#000000" fill-opacity="0.7333333333333333" />
<path d="M558,-606 L442,-246 L378,-362 L714,-458 L590,-130 L250,-346 Z" stroke-width="0" fill="#000003" fill-opacity="0.6862745098039216" />
<path d="M770,-386 L694,-1174 L746,-1134 L686,-1174 L370,-1270 L266,-918 Z" stroke-width="0" fill="#423a38" fill-opacity="0.5568627450980392" />
<path d="M594,-1086 L354,-270 L354,-830 L306,-1202 L314,-1022 L278,-430 Z" stroke-width="0" fill="#768d2c" fill-opacity="0.45098039215686275" />
<path d="M310,-118 L718,-350 L430,-614 L86,-914 L630,-310 L466,-442 Z" stroke-width="0" fill="#100838" fill-opacity="0.7294117647058823" />
<path d="M578,-302 L130,-278 L338,-134 L562,-1058 L358,-746 L222,-1170 Z" stroke-width="0" fill="#100e12" fill-opacity="0.9921568627450981" />
<path d="M590,-466 L94,-470 L686,-114 L342,-538 L726,-222 L370,-718 Z" stroke-width="0" fill="#000000" fill-opacity="0.9921568627450981" />
<path d="M426,-974 L330,-118 L794,-698 L610,-102 L646,-226 L662,-434 Z" stroke-width="0" fill="#000000" fill-opacity="0.6784313725490196" />
<path d="M386,-486 L342,-810 L774,-1274 L758,-346 L342,-270 L670,-306 Z" stroke-width="0" fill="#291519" fill-opacity="0.4549019607843137" />
<path d="M242,-454 L102,-734 L258,-774 L534,-106 L710,-1018 L802,-1122 Z" stroke-width="0" fill="#040705" fill-opacity="0.615686274509804" />
<path d="M482,-550 L546,-282 L322,-254 L306,-1270 L554,-750 L218,-982 Z" stroke-width="0" fill="#096f01" fill-opacity="0.403921568627451" />
<path d="M662,-134 L586,-822 L158,-1258 L802,-286 L638,-518 L82,-758 Z" stroke-width="0" fill="#223c24" fill-opacity="0.5019607843137255" />
<path d="M306,-270 L374,-218 L730,-902 L482,-470 L198,-354 L238,-842 Z" stroke-width="0" fill="#10a907" fill-opacity="0.37254901960784315" />
<path d="M206,-546 L370,-1190 L290,-1070 L794,-706 L378,-406 L254,-1286 Z" stroke-width="0" fill="#c8f1c3" fill-opacity="0.4549019607843137" />
<path d="M462,-682 L370,-586 L638,-682 L410,-430 L406,-342 L806,-186 Z" stroke-width="0" fill="#000000" fill-opacity="0.9450980392156862" />
<path d="M126,-278 L806,-1146 L646,-1262 L126,-778 L598,-594 L770,-1158 Z" stroke-width="0" fill="#e0f0db" fill-opacity="0.5294117647058824" />
<path d="M322,-166 L142,-526 L398,-822 L630,-1034 L298,-474 L294,-562 Z" stroke-width="0" fill="#03010b" fill-opacity="0.047058823529411764" />
<path d="M562,-378 L138,-306 L622,-1018 L774,-562 L562,-98 L602,-810 Z" stroke-width="0" fill="#05010d" fill-opacity="0.7843137254901961" />
<path d="M226,-654 L146,-1010 L602,-966 L102,-1210 L766,-854 L706,-202 Z" stroke-width="0" fill="#80c94c" fill-opacity="0.043137254901960784" />
<path d="M598,-690 L398,-466 L562,-410 L302,-1146 L90,-298 L166,-1234 Z" stroke-width="0" fill="#121a2a" fill-opacity="0.4823529411764706" />
<path d="M118,-306 L662,-406 L102,-1166 L498,-1034 L494,-598 L98,-1222 Z" stroke-width="0" fill="#210622" fill-opacity="0.3058823529411765" />
<path d="M654,-794 L766,-146 L638,-1034 L610,-590 L698,-862 L406,-314 Z" stroke-width="0" fill="#001807" fill-opacity="0.8784313725490196" />
<path d="M298,-810 L330,-378 L198,-1078 L438,-386 L170,-462 L266,-1142 Z" stroke-width="0" fill="#1f0d06" fill-opacity="0.8117647058823529" />
<path d="M566,-562 L670,-346 L638,-1102 L182,-282 L754,-1114 L170,-682 Z" stroke-width="0" fill="#49a455" fill-opacity="0.0784313725490196" />
<path d="M442,-798 L458,-690 L342,-674 L250,-810 L626,-250 L514,-1282 Z" stroke-width="0" fill="#a9d1bc" fill-opacity="0.49019607843137253" />
<path d="M398,-874 L742,-1278 L674,-602 L370,-1130 L462,-146 L682,-778 Z" stroke-width="0" fill="#e0f4cf" fill-opacity="0.7411764705882353" />
<path d="M754,-894 L534,-114 L114,-130 L582,-730 L330,-738 L326,-654 Z" stroke-width="0" fill="#060512" fill-opacity="0.9725490196078431" />
<path d="M178,-1206 L182,-486 L322,-174 L782,-338 L306,-674 L754,-278 Z" stroke-width="0" fill="#08292a" fill-opacity="0.1843137254901961" />
<path d="M586,-98 L710,-1126 L182,-670 L330,-478 L142,-710 L726,-850 Z" stroke-width="0" fill="#121c36" fill-opacity="0.25098039215686274" />
<path d="M122,-394 L334,-614 L266,-746 L662,-542 L470,-202 L434,-194 Z" stroke-width="0" fill="#120407" fill-opacity="0.6274509803921569" />
<path d="M174,-1110 L210,-1110 L86,-554 L242,-1182 L494,-246 L666,-86 Z" stroke-width="0" fill="#060d0c" fill-opacity="0.8196078431372549" />
<path d="M146,-930 L282,-1218 L794,-886 L658,-626 L638,-1242 L754,-94 Z" stroke-width="0" fill="#d0acb6" fill-opacity="0.6078431372549019" />
<path d="M370,-666 L602,-242 L190,-342 L690,-578 L790,-342 L394,-1102 Z" stroke-width="0" fill="#001409" fill-opacity="0.4470588235294118" />
<path d="M654,-226 L318,-134 L438,-462 L182,-778 L730,-106 L658,-422 Z" stroke-width="0" fill="#000900" fill-opacity="0.9058823529411765" />
<path d="M218,-1206 L478,-1186 L310,-558 L138,-682 L410,-854 L82,-258 Z" stroke-width="0" fill="#1a1e00" fill-opacity="0.43137254901960786" />
<path d="M174,-558 L714,-666 L466,-974 L478,-762 L618,-762 L594,-214 Z" stroke-width="0" fill="#3a0018" fill-opacity="0.1803921568627451" />
<path d="M702,-354 L678,-1310 L186,-798 L378,-914 L554,-402 L478,-782 Z" stroke-width="0" fill="#e31dfe" fill-opacity="0.047058823529411764" />
<path d="M246,-510 L546,-278 L622,-638 L562,-694 L222,-106 L238,-498 Z" stroke-width="0" fill="#002413" fill-opacity="0.792156862745098" />
<path d="M782,-678 L274,-1090 L402,-962 L486,-794 L614,-810 L158,-130 Z" stroke-width="0" fill="#091524" fill-opacity="0.7568627450980392" />
<path d="M390,-398 L570,-834 L90,-690 L166,-618 L594,-594 L310,-242 Z" stroke-width="0" fill="#00030d" fill-opacity="0.9764705882352941" />
<path d="M510,-466 L326,-178 L790,-730 L506,-982 L458,-670 L270,-646 Z" stroke-width="0" fill="#fbefbc" fill-opacity="0.9372549019607843" />
<path d="M730,-402 L158,-1306 L798,-110 L270,-718 L314,-842 L102,-862 Z" stroke-width="0" fill="#0d0400" fill-opacity="0.9058823529411765" />
<path d="M174,-1250 L254,-1298 L306,-370 L418,-1166 L322,-258 L574,-978 Z" stroke-width="0" fill="#055d73" fill-opacity="0.14901960784313725" />
<path d="M378,-766 L270,-638 L726,-1266 L150,-826 L182,-506 L118,-1018 Z" stroke-width="0" fill="#ead5f3" fill-opacity="0.9725490196078431" />
<path d="M198,-454 L326,-502 L210,-586 L734,-722 L370,-370 L354,-1054 Z" stroke-width="0" fill="#000410" fill-opacity="0.807843137254902" />
<path d="M514,-942 L450,-606 L122,-430 L162,-402 L266,-1162 L566,-318 Z" stroke-width="0" fill="#020f1b" fill-opacity="0.2" />
<path d="M310,-370 L150,-486 L458,-1090 L578,-262 L570,-106 L602,-546 Z" stroke-width="0" fill="#041407" fill-opacity="0.16862745098039217" />
<path d="M522,-886 L718,-706 L210,-1070 L558,-474 L270,-934 L262,-1062 Z" stroke-width="0" fill="#f9e7e7" fill-opacity="0.6745098039215687" />
<path d="M702,-1290 L386,-938 L614,-822 L190,-926 L574,-914 L146,-94 Z" stroke-width="0" fill="#90cb91" fill-opacity="0.3058823529411765" />
<path d="M106,-158 L274,-678 L290,-482 L682,-1238 L614,-486 L142,-226 Z" stroke-width="0" fill="#3d2f82" fill-opacity="0.1450980392156863" />
<path d="M654,-726 L282,-134 L506,-830 L562,-666 L162,-1222 L746,-718 Z" stroke-width="0" fill="#fef5d7" fill-opacity="0.1803921568627451" />
<path d="M706,-782 L786,-894 L282,-1050 L654,-874 L394,-738 L762,-430 Z" stroke-width="0" fill="#e9f8fd" fill-opacity="0.1803921568627451" />
<path d="M542,-1194 L774,-318 L538,-1082 L282,-310 L658,-494 L386,-398 Z" stroke-width="0" fill="#555c70" fill-opacity="0.10588235294117647" />
<path d="M378,-986 L478,-1122 L354,-814 L242,-730 L130,-670 L258,-878 Z" stroke-width="0" fill="#4a363b" fill-opacity="0.09019607843137255" />
<path d="M650,-646 L126,-386 L250,-1310 L618,-1042 L486,-730 L398,-958 Z" stroke-width="0" fill="#9a86c8" fill-opacity="0.2196078431372549" />
<path d="M362,-366 L386,-618 L494,-770 L162,-1130 L506,-750 L250,-1026 Z" stroke-width="0" fill="#f0a5d9" fill-opacity="0.023529411764705882" />
<path d="M310,-706 L222,-1186 L566,-1030 L474,-758 L226,-718 L666,-1266 Z" stroke-width="0" fill="#be9dab" fill-opacity="0.43529411764705883" />
<path d="M194,-466 L178,-1262 L306,-586 L726,-986 L658,-722 L350,-694 Z" stroke-width="0" fill="#f1b2f9" fill-opacity="0.058823529411764705" />
<path d="M746,-454 L782,-1114 L294,-466 L138,-646 L258,-854 L222,-366 Z" stroke-width="0" fill="#3c9cb3" fill-opacity="0.00392156862745098" />
<path d="M442,-954 L178,-702 L610,-1270 L590,-142 L442,-110 L178,-846 Z" stroke-width="0" fill="#7fad6f" fill-opacity="0.14901960784313725" />
<path d="M734,-1242 L594,-810 L762,-518 L362,-334 L770,-1178 L698,-1130 Z" stroke-width="0" fill="#1e5f38" fill-opacity="0.0196078431372549" />
<path d="M482,-290 L694,-938 L758,-642 L650,-174 L254,-190 L278,-490 Z" stroke-width="0" fill="#00064c" fill-opacity="0.41568627450980394" />
<path d="M282,-682 L766,-238 L158,-1070 L98,-334 L618,-958 L138,-1022 Z" stroke-width="0" fill="#000024" fill-opacity="0.043137254901960784" />
<path d="M570,-478 L250,-318 L154,-366 L190,-378 L330,-122 L438,-1130 Z" stroke-width="0" fill="#6c2f21" fill-opacity="0.08627450980392157" />
<path d="M330,-866 L350,-498 L790,-546 L622,-182 L558,-494 L286,-918 Z" stroke-width="0" fill="#001b05" fill-opacity="0.592156862745098" />
<path d="M214,-246 L694,-466 L378,-1146 L198,-774 L222,-470 L718,-314 Z" stroke-width="0" fill="#772a21" fill-opacity="0.0" />
<path d="M334,-146 L250,-950 L82,-1210 L310,-82 L546,-782 L490,-318 Z" stroke-width="0" fill="#000001" fill-opacity="0.11372549019607843" />
<path d="M754,-230 L478,-282 L142,-426 L330,-782 L494,-762 L458,-766 Z" stroke-width="0" fill="#010001" fill-opacity="0.5803921568627451" />
<path d="M410,-750 L578,-822 L458,-774 L346,-986 L90,-1202 L274,-898 Z" stroke-width="0" fill="#cdd6ce" fill-opacity="0.7803921568627451" />
<path d="M546,-790 L658,-1238 L602,-478 L226,-630 L562,-350 L294,-250 Z" stroke-width="0" fill="#092c70" fill-opacity="0.06666666666666667" />
<path d="M466,-942 L390,-1102 L146,-1062 L738,-214 L726,-126 L250,-654 Z" stroke-width="0" fill="#b6f6be" fill-opacity="0.03137254901960784" />
<path d="M526,-94 L478,-202 L714,-386 L454,-314 L150,-426 L218,-658 Z" stroke-width="0" fill="#001f3c" fill-opacity="0.17254901960784313" />
<path d="M754,-1130 L610,-422 L554,-546 L618,-1234 L318,-670 L550,-346 Z" stroke-width="0" fill="#a5cff6" fill-opacity="0.03137254901960784" />
<path d="M218,-626 L610,-310 L222,-706 L114,-1150 L666,-310 L206,-1050 Z" stroke-width="0" fill="#385853" fill-opacity="0.11372549019607843" />
<path d="M290,-98 L386,-150 L490,-1014 L658,-170 L250,-162 L734,-570 Z" stroke-width="0" fill="#00040b" fill-opacity="0.11764705882352941" />
<path d="M158,-494 L86,-1306 L362,-106 L302,-458 L426,-1138 L154,-626 Z" stroke-width="0" fill="#001a17" fill-opacity="0.1607843137254902" />
<path d="M602,-814 L522,-318 L318,-1002 L230,-538 L262,-602 L446,-886 Z" stroke-width="0" fill="#142748" fill-opacity="0.07058823529411765" />
<path d="M790,-1238 L438,-1250 L698,-134 L530,-170 L206,-562 L262,-818 Z" stroke-width="0" fill="#4b393f" fill-opacity="0.08235294117647059" />
<path d="M666,-362 L586,-262 L174,-482 L258,-146 L810,-1174 L126,-1014 Z" stroke-width="0" fill="#fdfedf" fill-opacity="0.03529411764705882" />
<text x="448.0" y="0" font-size="70.0" fill="black" text-anchor="middle" transform="translate(0,17.5)">6 OF AIR</text>
</svg>