<?xml version="1.0" encoding="UTF-8"?>
<svg xmlns="http://www.w3.org/2000/svg" xmlns:xlink="http://www.w3.org/1999/xlink"
     width="275" height="375" viewBox="0 -350 275 375">
<defs>
</defs>
<rect x="15" y="-335" width="245" height="320" stroke="black" stroke-width="4" fill="white" />
<path d="M28,-220 L202,-208 L36,-119 L43,-300 L125,-167 L104,-149 Z" stroke-width="0" fill="#06534d" fill-opacity="0.592156862745098" />
<path d="M236,-112 L231,-142 L210,-158 L214,-100 L37,-261 L234,-53 Z" stroke-width="0" fill="#3a4737" fill-opacity="0.9215686274509803" />
<path d="M58,-98 L166,-188 L247,-266 L150,-279 L107,-217 L244,-41 Z" stroke-width="0" fill="#000026" fill-opacity="0.9450980392156862" />
<path d="M26,-142 L93,-310 L194,-300 L178,-25 L223,-249 L76,-220 Z" stroke-width="0" fill="#000001" fill-opacity="0.8352941176470589" />
<path d="M75,-250 L199,-175 L77,-244 L39,-319 L245,-123 L186,-257 Z" stroke-width="0" fill="#58f55f" fill-opacity="0.6784313725490196" />
<path d="M55,-53 L161,-254 L118,-280 L85,-66 L185,-182 L138,-97 Z" stroke-width="0" fill="#c7372a" fill-opacity="0.19215686274509805" />
<path d="M41,-178 L199,-69 L116,-99 L177,-206 L165,-221 L106,-101 Z" stroke-width="0" fill="#be0107" fill-opacity="0.788235294117647" />
<path d="M193,-108 L154,-292 L60,-209 L97,-190 L44,-32 L216,-50 Z" stroke-width="0" fill="#000000" fill-opacity="0.8352941176470589" />
<path d="M103,-228 L64,-260 L176,-115 L212,-252 L115,-103 L119,-283 Z" stroke-width="0" fill="#8de634" fill-opacity="0.5411764705882353" />
<path d="M229,-153 L75,-104 L224,-153 L50,-225 L245,-43 L62,-201 Z" stroke-width="0" fill="#000000" fill-opacity="0.7803921568627451" />
<path d="M129,-178 L183,-38 L74,-290 L34,-241 L199,-59 L79,-125 Z" stroke-width="0" fill="#910e5a" fill-opacity="0.6784313725490196" />
<path d="M58,-92 L167,-256 L89,-144 L134,-116 L53,-59 L168,-32 Z" stroke-width="0" fill="#e03e65" fill-opacity="0.9019607843137255" />
<path d="M96,-37 L157,-276 L172,-151 L39,-214 L81,-195 L132,-283 Z" stroke-width="0" fill="#f7eef0" fill-opacity="0.8784313725490196" />
<path d="M114,-78 L111,-73 L122,-125 L90,-107 L50,-119 L168,-51 Z" stroke-width="0" fill="#16d906" fill-opacity="0.5254901960784314" />
<path d="M88,-100 L170,-195 L113,-94 L44,-116 L247,-180 L128,-262 Z" stroke-width="0" fill="#000322" fill-opacity="0.9058823529411765" />
<path d="M61,-237 L67,-272 L220,-142 L99,-211 L218,-292 L220,-217 Z" stroke-width="0" fill="#8daa13" fill-opacity="0.9686274509803922" />
<path d="M248,-151 L147,-45 L187,-55 L105,-159 L112,-224 L26,-201 Z" stroke-width="0" fill="#6247b0" fill-opacity="0.9607843137254902" />
<path d="M56,-168 L202,-109 L78,-210 L147,-191 L216,-44 L216,-230 Z" stroke-width="0" fill="#371e70" fill-opacity="0.8235294117647058" />
<path d="M43,-150 L175,-46 L89,-93 L177,-305 L216,-248 L182,-135 Z" stroke-width="0" fill="#1b0001" fill-opacity="0.996078431372549" />
<path d="M166,-138 L136,-38 L153,-50 L65,-131 L96,-160 L156,-319 Z" stroke-width="0" fill="#000028" fill-opacity="0.9529411764705882" />
<path d="M53,-163 L52,-27 L155,-171 L227,-276 L41,-200 L87,-214 Z" stroke-width="0" fill="#001d27" fill-opacity="0.8980392156862745" />
<path d="M50,-40 L154,-246 L157,-176 L146,-47 L182,-233 L130,-51 Z" stroke-width="0" fill="#6fa8b5" fill-opacity="0.7254901960784313" />
<path d="M167,-229 L243,-53 L118,-31 L54,-176 L171,-227 L126,-158 Z" stroke-width="0" fill="#000000" fill-opacity="0.7411764705882353" />
<path d="M77,-215 L209,-124 L225,-52 L197,-255 L72,-140 L165,-196 Z" stroke-width="0" fill="#220008" fill-opacity="0.27058823529411763" />
<path d="M128,-33 L128,-157 L173,-167 L89,-244 L176,-260 L182,-212 Z" stroke-width="0" fill="#e540f4" fill-opacity="0.8588235294117647" />
<path d="M59,-161 L129,-123 L144,-120 L50,-152 L72,-324 L90,-71 Z" stroke-width="0" fill="#8cbcc5" fill-opacity="0.6666666666666666" />
<path d="M133,-108 L208,-63 L61,-216 L147,-72 L36,-207 L41,-128 Z" stroke-width="0" fill="#0f161f" fill-opacity="0.5019607843137255" />
<path d="M100,-87 L67,-35 L75,-217 L181,-62 L32,-31 L124,-177 Z" stroke-width="0" fill="#00012c" fill-opacity="0.7843137254901961" />
<path d="M90,-280 L27,-235 L165,-132 L25,-79 L153,-172 L137,-123 Z" stroke-width="0" fill="#000000" fill-opacity="0.6705882352941176" />
<path d="M239,-293 L108,-238 L45,-33 L235,-281 L157,-130 L53,-115 Z" stroke-width="0" fill="#2a0000" fill-opacity="0.7725490196078432" />
<path d="M190,-247 L125,-109 L235,-48 L208,-140 L227,-155 L90,-167 Z" stroke-width="0" fill="#000009" fill-opacity="0.27450980392156865" />
<path d="M209,-205 L183,-92 L147,-34 L215,-152 L151,-310 L110,-60 Z" stroke-width="0" fill="#55297d" fill-opacity="0.615686274509804" />
<path d="M142,-228 L211,-93 L69,-113 L27,-209 L66,-93 L43,-25 Z" stroke-width="0" fill="#001f22" fill-opacity="0.8352941176470589" />
<path d="M67,-280 L150,-36 L170,-102 L25,-79 L164,-88 L226,-70 Z" stroke-width="0" fill="#04001f" fill-opacity="0.803921568627451" />
<path d="M113,-148 L57,-137 L232,-74 L121,-132 L69,-40 L189,-167 Z" stroke-width="0" fill="#031913" fill-opacity="0.6980392156862745" />
<path d="M156,-250 L179,-51 L218,-46 L44,-269 L36,-217 L186,-160 Z" stroke-width="0" fill="#216605" fill-opacity="0.5019607843137255" />
<path d="M51,-292 L205,-193 L236,-129 L109,-221 L175,-140 L70,-66 Z" stroke-width="0" fill="#1359a6" fill-opacity="0.6431372549019608" />
<path d="M150,-71 L106,-160 L126,-54 L36,-38 L45,-214 L170,-69 Z" stroke-width="0" fill="#22452a" fill-opacity="0.9568627450980393" />
<path d="M141,-240 L33,-190 L217,-273 L54,-93 L50,-158 L55,-208 Z" stroke-width="0" fill="#1390eb" fill-opacity="0.26666666666666666" />
<path d="M208,-240 L121,-315 L59,-257 L87,-292 L107,-306 L84,-137 Z" stroke-width="0" fill="#17384b" fill-opacity="0.6196078431372549" />
<path d="M156,-99 L151,-280 L241,-238 L124,-211 L198,-63 L227,-187 Z" stroke-width="0" fill="#fdc9fd" fill-opacity="0.8156862745098039" />
<path d="M55,-182 L237,-301 L214,-324 L209,-307 L154,-266 L165,-158 Z" stroke-width="0" fill="#000000" fill-opacity="0.9137254901960784" />
<path d="M101,-323 L29,-315 L34,-175 L245,-227 L127,-44 L51,-275 Z" stroke-width="0" fill="#000000" fill-opacity="0.6431372549019608" />
<path d="M87,-231 L184,-79 L155,-229 L70,-111 L211,-255 L106,-188 Z" stroke-width="0" fill="#c4f8fa" fill-opacity="0.8549019607843137" />
<path d="M67,-152 L45,-280 L52,-151 L153,-175 L186,-216 L31,-290 Z" stroke-width="0" fill="#050a70" fill-opacity="0.3568627450980392" />
<path d="M204,-180 L147,-95 L152,-83 L177,-215 L103,-90 L248,-196 Z" stroke-width="0" fill="#000000" fill-opacity="0.7686274509803922" />
<path d="M27,-287 L91,-118 L189,-60 L120,-185 L238,-78 L189,-95 Z" stroke-width="0" fill="#000043" fill-opacity="0.27450980392156865" />
<path d="M97,-79 L156,-215 L69,-166 L183,-45 L91,-104 L65,-232 Z" stroke-width="0" fill="#1c2f5a" fill-opacity="0.16470588235294117" />
<path d="M205,-129 L78,-151 L136,-298 L73,-27 L58,-161 L140,-72 Z" stroke-width="0" fill="#2a3636" fill-opacity="0.9333333333333333" />
<path d="M74,-85 L40,-41 L58,-135 L91,-77 L143,-50 L210,-262 Z" stroke-width="0" fill="#4a4267" fill-opacity="0.34509803921568627" />
<path d="M243,-311 L76,-70 L128,-188 L143,-25 L217,-296 L69,-68 Z" stroke-width="0" fill="#204501" fill-opacity="0.9764705882352941" />
<path d="M45,-263 L174,-77 L47,-122 L222,-313 L192,-294 L52,-260 Z" stroke-width="0" fill="#000050" fill-opacity="0.1607843137254902" />
<path d="M59,-40 L139,-53 L38,-121 L247,-196 L123,-75 L170,-57 Z" stroke-width="0" fill="#001011" fill-opacity="0.5019607843137255" />
<path d="M214,-204 L47,-292 L47,-318 L38,-41 L54,-166 L126,-72 Z" stroke-width="0" fill="#4d1c4c" fill-opacity="0.2823529411764706" />
<path d="M145,-311 L170,-146 L161,-76 L83,-86 L205,-188 L170,-64 Z" stroke-width="0" fill="#00251b" fill-opacity="0.8431372549019608" />
<path d="M27,-41 L96,-155 L210,-193 L33,-102 L44,-252 L192,-284 Z" stroke-width="0" fill="#502b92" fill-opacity="0.7568627450980392" />
<path d="M191,-69 L50,-231 L234,-239 L173,-261 L206,-82 L116,-209 Z" stroke-width="0" fill="#ef142d" fill-opacity="0.1568627450980392" />
<path d="M234,-269 L149,-271 L205,-192 L174,-193 L103,-215 L46,-121 Z" stroke-width="0" fill="#0c0200" fill-opacity="0.6" />
<path d="M219,-110 L127,-45 L142,-215 L37,-78 L129,-29 L62,-242 Z" stroke-width="0" fill="#486d20" fill-opacity="0.20392156862745098" />
<path d="M66,-70 L222,-270 L249,-118 L61,-45 L120,-47 L73,-246 Z" stroke-width="0" fill="#332c1c" fill-opacity="0.8666666666666667" />
<path d="M52,-177 L30,-133 L227,-177 L215,-29 L53,-54 L172,-27 Z" stroke-width="0" fill="#000028" fill-opacity="0.6549019607843137" />
<path d="M172,-258 L43,-273 L249,-205 L168,-235 L97,-317 L106,-246 Z" stroke-width="0" fill="#354e33" fill-opacity="0.7333333333333333" />
<path d="M161,-264 L194,-67 L126,-99 L128,-213 L28,-305 L64,-291 Z" stroke-width="0" fill="#042600" fill-opacity="0.25098039215686274" />
<path d="M156,-121 L46,-173 L207,-292 L34,-157 L185,-232 L247,-212 Z" stroke-width="0" fill="#1a1e33" fill-opacity="0.9607843137254902" />
<path d="M106,-78 L51,-187 L244,-25 L95,-252 L227,-176 L182,-288 Z" stroke-width="0" fill="#0b1e04" fill-opacity="0.9764705882352941" />
<path d="M140,-121 L98,-202 L100,-258 L171,-203 L105,-147 L130,-267 Z" stroke-width="0" fill="#c6a81c" fill-opacity="0.9764705882352941" />
<path d="M95,-171 L248,-44 L31,-127 L171,-94 L170,-167 L195,-143 Z" stroke-width="0" fill="#001200" fill-opacity="0.9098039215686274" />
<path d="M59,-248 L217,-74 L151,-258 L241,-268 L87,-183 L169,-230 Z" stroke-width="0" fill="#580600" fill-opacity="0.1843137254901961" />
<path d="M217,-201 L84,-232 L126,-47 L247,-124 L87,-120 L118,-133 Z" stroke-width="0" fill="#5b4dd2" fill-opacity="0.30980392156862746" />
<path d="M113,-155 L63,-320 L225,-155 L81,-88 L199,-252 L101,-99 Z" stroke-width="0" fill="#18235e" fill-opacity="0.34901960784313724" />
<path d="M107,-308 L38,-251 L60,-268 L33,-181 L122,-55 L179,-147 Z" stroke-width="0" fill="#691589" fill-opacity="0.29411764705882354" />
<path d="M43,-166 L38,-51 L144,-59 L125,-148 L249,-85 L53,-300 Z" stroke-width="0" fill="#000028" fill-opacity="0.4470588235294118" />
<path d="M227,-95 L74,-127 L78,-138 L172,-201 L181,-299 L220,-260 Z" stroke-width="0" fill="#e3d5b7" fill-opacity="0.1803921568627451" />
<path d="M181,-91 L147,-25 L154,-243 L139,-117 L172,-230 L68,-194 Z" stroke-width="0" fill="#8e2348" fill-opacity="0.6352941176470588" />
<path d="M97,-79 L29,-108 L123,-74 L119,-235 L136,-267 L127,-40 Z" stroke-width="0" fill="#113a0a" fill-opacity="0.8117647058823529" />
<path d="M218,-131 L249,-264 L147,-176 L77,-25 L230,-25 L182,-32 Z" stroke-width="0" fill="#0a1d25" fill-opacity="0.9607843137254902" />
<path d="M130,-236 L215,-295 L246,-236 L33,-96 L83,-306 L118,-182 Z" stroke-width="0" fill="#55001f" fill-opacity="0.5254901960784314" />
<path d="M111,-294 L216,-251 L135,-216 L46,-182 L196,-164 L26,-267 Z" stroke-width="0" fill="#2e070a" fill-opacity="0.3568627450980392" />
<path d="M25,-251 L245,-48 L129,-143 L29,-90 L184,-263 L148,-261 Z" stroke-width="0" fill="#114956" fill-opacity="0.5294117647058824" />
<path d="M64,-56 L150,-123 L104,-26 L164,-178 L195,-91 L174,-130 Z" stroke-width="0" fill="#071f21" fill-opacity="0.36470588235294116" />
<path d="M91,-259 L244,-235 L88,-118 L114,-253 L143,-139 L136,-299 Z" stroke-width="0" fill="#a29838" fill-opacity="0.8980392156862745" />
<path d="M178,-223 L134,-100 L85,-115 L52,-78 L76,-306 L88,-297 Z" stroke-width="0" fill="#1d1e12" fill-opacity="0.7294117647058823" />
<path d="M171,-247 L217,-86 L240,-281 L129,-71 L37,-156 L161,-84 Z" stroke-width="0" fill="#bd8dab" fill-opacity="0.6078431372549019" />
<path d="M90,-291 L121,-61 L119,-139 L164,-290 L172,-120 L160,-126 Z" stroke-width="0" fill="#c25b6c" fill-opacity="0.7803921568627451" />
<path d="M233,-105 L81,-315 L122,-111 L45,-78 L199,-118 L204,-167 Z" stroke-width="0" fill="#81777b" fill-opacity="0.5019607843137255" />
<path d="M172,-278 L181,-192 L237,-70 L109,-55 L86,-307 L206,-280 Z" stroke-width="0" fill="#0c4a26" fill-opacity="0.11764705882352941" />
<path d="M182,-161 L125,-275 L206,-307 L149,-54 L50,-238 L123,-179 Z" stroke-width="0" fill="#1f1a00" fill-opacity="0.4392156862745098" />
<path d="M218,-137 L243,-312 L60,-213 L41,-170 L222,-59 L134,-127 Z" stroke-width="0" fill="#073150" fill-opacity="0.6313725490196078" />
<path d="M202,-90 L200,-196 L72,-52 L204,-38 L93,-104 L187,-205 Z" stroke-width="0" fill="#1a2434" fill-opacity="0.403921568627451" />
<path d="M43,-245 L82,-267 L156,-246 L107,-210 L132,-196 L77,-162 Z" stroke-width="0" fill="#780528" fill-opacity="0.3803921568627451" />
<path d="M105,-48 L169,-324 L110,-286 L28,-316 L123,-202 L202,-112 Z" stroke-width="0" fill="#172d26" fill-opacity="0.8235294117647058" />
<path d="M160,-177 L69,-192 L35,-158 L118,-209 L45,-292 L33,-106 Z" stroke-width="0" fill="#005925" fill-opacity="0.5019607843137255" />
<path d="M248,-36 L80,-289 L60,-74 L151,-151 L212,-311 L46,-261 Z" stroke-width="0" fill="#0b394f" fill-opacity="0.5019607843137255" />
<path d="M75,-81 L129,-124 L94,-108 L195,-238 L118,-52 L149,-303 Z" stroke-width="0" fill="#3fb743" fill-opacity="0.6352941176470588" />
<path d="M197,-151 L27,-221 L63,-135 L136,-44 L81,-88 L72,-81 Z" stroke-width="0" fill="#280032" fill-opacity="0.43137254901960786" />
<path d="M36,-310 L121,-59 L60,-246 L134,-156 L234,-217 L238,-240 Z" stroke-width="0" fill="#66499e" fill-opacity="0.5019607843137255" />
<path d="M138,-48 L105,-31 L135,-51 L64,-110 L213,-261 L167,-286 Z" stroke-width="0" fill="#562d29" fill-opacity="0.19215686274509805" />
<path d="M70,-183 L121,-287 L187,-65 L62,-52 L99,-259 L62,-164 Z" stroke-width="0" fill="#1c3b61" fill-opacity="0.08627450980392157" />
<path d="M87,-223 L43,-278 L180,-265 L247,-50 L232,-164 L162,-157 Z" stroke-width="0" fill="#dfb207" fill-opacity="0.058823529411764705" />
<path d="M56,-90 L137,-305 L62,-250 L44,-40 L54,-242 L103,-126 Z" stroke-width="0" fill="#023231" fill-opacity="0.7019607843137254" />
<text x="137.5" y="12.5" font-size="20.0" fill="black" text-anchor="middle" transform="translate(0,5.0)">KNIGHT OF AIR</text>
</svg>