<?xml version="1.0" encoding="UTF-8"?>
<svg xmlns="http://www.w3.org/2000/svg" xmlns:xlink="http://www.w3.org/1999/xlink"
     width="275" height="375" viewBox="0 -350 275 375">
<defs>
</defs>
<rect x="15" y="-335" width="245" height="320" stroke="black" stroke-width="4" fill="white" />
<path d="M205,-291 L101,-123 L55,-250 L134,-294 L126,-278 L242,-159 Z" stroke-width="0" fill="#f3d5c0" fill-opacity="0.11764705882352941" />
<path d="M133,-175 L184,-219 L50,-30 L105,-61 L143,-110 L186,-111 Z" stroke-width="0" fill="#0b6368" fill-opacity="0.2" />
<path d="M157,-86 L87,-246 L147,-136 L212,-178 L151,-99 L184,-83 Z" stroke-width="0" fill="#f6fd00" fill-opacity="0.4235294117647059" />
<path d="M163,-287 L229,-89 L70,-222 L49,-52 L237,-255 L50,-111 Z" stroke-width="0" fill="#f2fbfa" fill-opacity="0.10196078431372549" />
<path d="M88,-255 L172,-281 L69,-241 L47,-41 L155,-304 L76,-79 Z" stroke-width="0" fill="#aa6dc4" fill-opacity="0.011764705882352941" />
<path d="M92,-54 L51,-74 L66,-202 L60,-83 L129,-260 L186,-169 Z" stroke-width="0" fill="#9cc5c0" fill-opacity="0.09411764705882353" />
<path d="M54,-83 L226,-126 L147,-130 L63,-57 L35,-299 L217,-101 Z" stroke-width="0" fill="#3ff0f9" fill-opacity="0.0784313725490196" />
<path d="M205,-183 L208,-227 L121,-48 L247,-244 L219,-51 L175,-78 Z" stroke-width="0" fill="#ebf100" fill-opacity="0.615686274509804" />
<path d="M165,-250 L59,-218 L202,-87 L115,-29 L89,-144 L42,-55 Z" stroke-width="0" fill="#80c10a" fill-opacity="0.1803921568627451" />
<path d="M153,-267 L143,-279 L59,-220 L177,-111 L133,-266 L88,-121 Z" stroke-width="0" fill="#bff4f1" fill-opacity="0.10980392156862745" />
<path d="M25,-191 L203,-102 L37,-186 L47,-160 L205,-72 L123,-308 Z" stroke-width="0" fill="#f8e7dc" fill-opacity="0.25882352941176473" />
<path d="M34,-95 L129,-273 L131,-141 L50,-254 L115,-207 L214,-67 Z" stroke-width="0" fill="#fae300" fill-opacity="0.38823529411764707" />
<path d="M68,-116 L33,-56 L56,-39 L202,-318 L116,-185 L198,-190 Z" stroke-width="0" fill="#5398d2" fill-opacity="0.5019607843137255" />
<path d="M204,-259 L176,-121 L29,-130 L221,-38 L97,-104 L27,-51 Z" stroke-width="0" fill="#51e3f8" fill-opacity="0.18823529411764706" />
<path d="M234,-161 L101,-226 L193,-222 L38,-284 L87,-71 L63,-195 Z" stroke-width="0" fill="#f3def5" fill-opacity="0.19215686274509805" />
<path d="M214,-255 L83,-101 L66,-305 L54,-105 L41,-253 L153,-152 Z" stroke-width="0" fill="#19e1fb" fill-opacity="0.0196078431372549" />
<path d="M233,-120 L43,-69 L41,-82 L31,-302 L172,-178 L217,-203 Z" stroke-width="0" fill="#60d3fa" fill-opacity="0.34509803921568627" />
<path d="M205,-162 L179,-110 L192,-168 L141,-233 L76,-242 L121,-216 Z" stroke-width="0" fill="#f6a0e2" fill-opacity="0.2235294117647059" />
<path d="M236,-310 L34,-231 L53,-218 L46,-97 L66,-44 L126,-92 Z" stroke-width="0" fill="#79daf7" fill-opacity="0.0784313725490196" />
<path d="M213,-117 L165,-207 L131,-100 L119,-115 L202,-83 L174,-260 Z" stroke-width="0" fill="#ece700" fill-opacity="0.9294117647058824" />
<path d="M179,-167 L112,-49 L234,-56 L53,-51 L118,-126 L34,-167 Z" stroke-width="0" fill="#d6c2ec" fill-opacity="0.0784313725490196" />
<path d="M28,-180 L153,-63 L150,-235 L56,-31 L51,-121 L81,-222 Z" stroke-width="0" fill="#99e0fd" fill-opacity="0.3607843137254902" />
<path d="M51,-27 L114,-283 L66,-290 L157,-195 L148,-110 L156,-165 Z" stroke-width="0" fill="#0bffe6" fill-opacity="0.08235294117647059" />
<path d="M27,-79 L43,-169 L214,-118 L177,-141 L234,-309 L92,-220 Z" stroke-width="0" fill="#05e8fc" fill-opacity="0.09803921568627451" />
<path d="M168,-48 L150,-81 L108,-128 L149,-317 L146,-133 L144,-180 Z" stroke-width="0" fill="#01f6c5" fill-opacity="0.16470588235294117" />
<path d="M193,-290 L217,-74 L178,-302 L149,-140 L152,-170 L58,-100 Z" stroke-width="0" fill="#fafefd" fill-opacity="0.9686274509803922" />
<path d="M148,-265 L98,-107 L224,-106 L155,-248 L113,-272 L25,-199 Z" stroke-width="0" fill="#7ed8fe" fill-opacity="0.08235294117647059" />
<path d="M158,-287 L189,-214 L188,-312 L241,-173 L234,-83 L120,-79 Z" stroke-width="0" fill="#e5e0e7" fill-opacity="0.37254901960784315" />
<path d="M118,-82 L97,-91 L118,-70 L123,-125 L248,-80 L28,-96 Z" stroke-width="0" fill="#fdf700" fill-opacity="0.8588235294117647" />
<path d="M41,-85 L95,-202 L141,-174 L59,-243 L232,-217 L232,-270 Z" stroke-width="0" fill="#e6b0f5" fill-opacity="0.3764705882352941" />
<path d="M70,-268 L228,-220 L98,-79 L38,-297 L73,-158 L97,-148 Z" stroke-width="0" fill="#ded7dc" fill-opacity="0.00784313725490196" />
<path d="M208,-289 L199,-183 L124,-271 L175,-173 L167,-228 L73,-117 Z" stroke-width="0" fill="#eed9fb" fill-opacity="0.047058823529411764" />
<path d="M221,-102 L208,-211 L210,-34 L224,-108 L224,-318 L52,-262 Z" stroke-width="0" fill="#a0e1fb" fill-opacity="0.49019607843137253" />
<path d="M155,-126 L125,-170 L182,-210 L175,-164 L33,-59 L154,-227 Z" stroke-width="0" fill="#ccf0fe" fill-opacity="0.43529411764705883" />
<path d="M106,-25 L149,-98 L188,-237 L219,-280 L148,-45 L206,-214 Z" stroke-width="0" fill="#32aead" fill-opacity="0.11764705882352941" />
<path d="M126,-118 L26,-163 L168,-148 L154,-219 L70,-236 L246,-206 Z" stroke-width="0" fill="#669ade" fill-opacity="0.19215686274509805" />
<path d="M85,-276 L152,-293 L64,-280 L129,-191 L145,-103 L66,-104 Z" stroke-width="0" fill="#63f7e8" fill-opacity="0.24705882352941178" />
<path d="M233,-41 L48,-42 L171,-305 L123,-100 L42,-186 L168,-108 Z" stroke-width="0" fill="#2da1ce" fill-opacity="0.2196078431372549" />
<path d="M196,-260 L228,-172 L31,-209 L153,-176 L113,-204 L197,-220 Z" stroke-width="0" fill="#ebfdb5" fill-opacity="0.03137254901960784" />
<path d="M197,-211 L83,-209 L98,-150 L126,-125 L66,-314 L121,-44 Z" stroke-width="0" fill="#64d5dc" fill-opacity="0.050980392156862744" />
<path d="M224,-69 L243,-44 L240,-215 L171,-252 L224,-39 L218,-243 Z" stroke-width="0" fill="#d8ef00" fill-opacity="0.8392156862745098" />
<path d="M52,-124 L165,-127 L231,-316 L232,-74 L155,-314 L119,-30 Z" stroke-width="0" fill="#efdedf" fill-opacity="0.9019607843137255" />
<path d="M217,-307 L195,-190 L122,-112 L145,-237 L89,-87 L121,-165 Z" stroke-width="0" fill="#f3d9d3" fill-opacity="0.27058823529411763" />
<path d="M160,-56 L25,-171 L174,-124 L163,-130 L35,-282 L203,-208 Z" stroke-width="0" fill="#7cb3e3" fill-opacity="0.00784313725490196" />
<path d="M224,-47 L189,-267 L45,-117 L66,-225 L38,-87 L201,-290 Z" stroke-width="0" fill="#f5e6fe" fill-opacity="0.1411764705882353" />
<path d="M143,-182 L163,-306 L172,-294 L88,-316 L173,-177 L28,-74 Z" stroke-width="0" fill="#3bdbc8" fill-opacity="0.4117647058823529" />
<path d="M210,-143 L195,-65 L43,-41 L140,-307 L102,-323 L233,-91 Z" stroke-width="0" fill="#d5fbef" fill-opacity="0.20784313725490197" />
<path d="M99,-33 L164,-175 L98,-173 L38,-165 L78,-105 L192,-44 Z" stroke-width="0" fill="#13fcd7" fill-opacity="0.23137254901960785" />
<path d="M195,-149 L42,-64 L126,-60 L61,-236 L26,-268 L75,-100 Z" stroke-width="0" fill="#26c9b1" fill-opacity="0.01568627450980392" />
<path d="M103,-270 L163,-183 L233,-49 L248,-287 L83,-300 L234,-81 Z" stroke-width="0" fill="#dff5b4" fill-opacity="0.11764705882352941" />
<path d="M129,-53 L100,-99 L219,-94 L91,-192 L129,-79 L141,-230 Z" stroke-width="0" fill="#f9e300" fill-opacity="0.8549019607843137" />
<path d="M43,-175 L69,-209 L146,-283 L117,-210 L174,-277 L188,-104 Z" stroke-width="0" fill="#d8fdf4" fill-opacity="0.8509803921568627" />
<path d="M86,-288 L52,-130 L220,-188 L32,-128 L77,-200 L151,-44 Z" stroke-width="0" fill="#f3fdf0" fill-opacity="0.8745098039215686" />
<path d="M73,-172 L108,-204 L189,-36 L239,-152 L146,-207 L160,-73 Z" stroke-width="0" fill="#a8fa87" fill-opacity="0.00392156862745098" />
<path d="M219,-259 L205,-58 L197,-260 L192,-87 L225,-36 L160,-146 Z" stroke-width="0" fill="#d1d600" fill-opacity="0.2784313725490196" />
<path d="M143,-52 L199,-292 L144,-94 L147,-311 L213,-122 L234,-302 Z" stroke-width="0" fill="#fdfefe" fill-opacity="0.8274509803921568" />
<path d="M113,-26 L186,-62 L47,-217 L31,-49 L108,-209 L120,-237 Z" stroke-width="0" fill="#c3e8f3" fill-opacity="0.9764705882352941" />
<path d="M107,-75 L30,-73 L89,-164 L124,-64 L231,-165 L199,-140 Z" stroke-width="0" fill="#c4b8e9" fill-opacity="0.2" />
<path d="M39,-247 L142,-96 L67,-154 L47,-109 L152,-163 L64,-264 Z" stroke-width="0" fill="#d5e2f9" fill-opacity="0.9921568627450981" />
<path d="M38,-175 L134,-277 L181,-189 L159,-146 L37,-154 L104,-274 Z" stroke-width="0" fill="#f8f8e9" fill-opacity="0.09019607843137255" />
<path d="M88,-211 L100,-109 L192,-129 L221,-309 L131,-105 L56,-179 Z" stroke-width="0" fill="#edf4f5" fill-opacity="0.8274509803921568" />
<path d="M27,-208 L205,-31 L154,-138 L71,-172 L61,-258 L42,-223 Z" stroke-width="0" fill="#a9febe" fill-opacity="0.21176470588235294" />
<path d="M185,-59 L75,-165 L90,-195 L35,-69 L127,-112 L64,-61 Z" stroke-width="0" fill="#1e0978" fill-opacity="0.0" />
<path d="M101,-86 L169,-292 L217,-86 L72,-184 L78,-68 L53,-253 Z" stroke-width="0" fill="#ebf9fa" fill-opacity="0.5647058823529412" />
<path d="M88,-257 L42,-152 L69,-98 L71,-235 L69,-137 L132,-313 Z" stroke-width="0" fill="#69fde3" fill-opacity="0.0" />
<path d="M36,-86 L56,-212 L48,-263 L33,-100 L151,-64 L200,-118 Z" stroke-width="0" fill="#da99c8" fill-opacity="0.12941176470588237" />
<path d="M157,-277 L128,-60 L55,-92 L39,-106 L101,-65 L118,-217 Z" stroke-width="0" fill="#c0f9c3" fill-opacity="0.0392156862745098" />
<path d="M66,-223 L71,-66 L141,-60 L47,-66 L109,-138 L143,-251 Z" stroke-width="0" fill="#10e9dd" fill-opacity="0.011764705882352941" />
<path d="M215,-85 L67,-269 L75,-260 L82,-310 L61,-169 L224,-297 Z" stroke-width="0" fill="#c6f9cc" fill-opacity="0.0784313725490196" />
<path d="M99,-240 L47,-98 L205,-177 L65,-257 L211,-91 L222,-228 Z" stroke-width="0" fill="#222255" fill-opacity="0.0" />
<path d="M130,-106 L159,-209 L111,-221 L39,-226 L194,-52 L88,-203 Z" stroke-width="0" fill="#37f2df" fill-opacity="0.054901960784313725" />
<path d="M117,-27 L49,-45 L203,-189 L151,-76 L201,-66 L55,-231 Z" stroke-width="0" fill="#6fbbff" fill-opacity="0.23137254901960785" />
<path d="M27,-230 L97,-207 L116,-169 L173,-119 L246,-160 L165,-314 Z" stroke-width="0" fill="#def2f6" fill-opacity="0.4392156862745098" />
<path d="M62,-175 L89,-88 L222,-190 L111,-203 L193,-188 L113,-56 Z" stroke-width="0" fill="#beedd7" fill-opacity="0.34509803921568627" />
<path d="M60,-305 L47,-84 L65,-126 L81,-45 L116,-203 L157,-204 Z" stroke-width="0" fill="#8cf9f5" fill-opacity="0.1568627450980392" />
<path d="M207,-34 L84,-103 L149,-151 L231,-41 L178,-84 L203,-228 Z" stroke-width="0" fill="#f7e800" fill-opacity="0.7176470588235294" />
<path d="M166,-156 L127,-141 L26,-154 L215,-54 L116,-58 L125,-133 Z" stroke-width="0" fill="#fcee00" fill-opacity="0.28627450980392155" />
<path d="M83,-188 L89,-38 L91,-96 L64,-115 L227,-41 L46,-138 Z" stroke-width="0" fill="#d5d6ff" fill-opacity="0.18823529411764706" />
<path d="M98,-271 L65,-134 L187,-64 L62,-274 L32,-268 L155,-308 Z" stroke-width="0" fill="#e6e9f6" fill-opacity="0.03529411764705882" />
<path d="M142,-233 L184,-79 L143,-168 L143,-40 L99,-146 L99,-191 Z" stroke-width="0" fill="#f4dcd6" fill-opacity="0.058823529411764705" />
<path d="M146,-285 L197,-281 L106,-243 L83,-60 L246,-27 L71,-92 Z" stroke-width="0" fill="#cee7ea" fill-opacity="0.807843137254902" />
<path d="M247,-261 L225,-317 L27,-251 L161,-260 L35,-243 L115,-40 Z" stroke-width="0" fill="#e6c8ed" fill-opacity="0.09411764705882353" />
<path d="M27,-61 L155,-254 L46,-50 L159,-288 L166,-115 L169,-257 Z" stroke-width="0" fill="#a0e7db" fill-opacity="0.01568627450980392" />
<path d="M242,-149 L219,-117 L181,-66 L134,-93 L165,-169 L141,-121 Z" stroke-width="0" fill="#e8e900" fill-opacity="0.28627450980392155" />
<path d="M118,-79 L74,-144 L174,-293 L140,-266 L136,-258 L43,-43 Z" stroke-width="0" fill="#b4e4ec" fill-opacity="0.13725490196078433" />
<path d="M106,-236 L107,-144 L134,-85 L30,-49 L237,-253 L122,-135 Z" stroke-width="0" fill="#b2fed6" fill-opacity="0.32941176470588235" />
<path d="M238,-83 L239,-258 L104,-85 L42,-285 L83,-189 L101,-65 Z" stroke-width="0" fill="#b3f9d1" fill-opacity="0.054901960784313725" />
<path d="M69,-36 L41,-253 L214,-124 L97,-284 L205,-193 L245,-29 Z" stroke-width="0" fill="#caf4ed" fill-opacity="0.027450980392156862" />
<path d="M210,-203 L130,-63 L154,-117 L189,-74 L246,-222 L104,-229 Z" stroke-width="0" fill="#f5c3da" fill-opacity="0.2" />
<path d="M242,-122 L119,-273 L199,-191 L231,-147 L215,-134 L194,-234 Z" stroke-width="0" fill="#e3acf4" fill-opacity="0.1607843137254902" />
<path d="M128,-108 L212,-211 L73,-272 L213,-195 L199,-154 L246,-303 Z" stroke-width="0" fill="#fadfa6" fill-opacity="0.00784313725490196" />
<path d="M183,-229 L33,-321 L43,-307 L92,-35 L105,-248 L104,-211 Z" stroke-width="0" fill="#c5f6dd" fill-opacity="0.09019607843137255" />
<path d="M169,-163 L162,-43 L208,-144 L195,-178 L64,-29 L82,-132 Z" stroke-width="0" fill="#faf5eb" fill-opacity="0.21176470588235294" />
<path d="M91,-102 L222,-28 L219,-56 L72,-143 L216,-165 L187,-244 Z" stroke-width="0" fill="#fbf4d7" fill-opacity="0.1607843137254902" />
<path d="M123,-63 L39,-84 L197,-147 L172,-199 L123,-253 L133,-225 Z" stroke-width="0" fill="#edf6f4" fill-opacity="0.4392156862745098" />
<path d="M109,-155 L35,-272 L145,-75 L140,-211 L124,-152 L134,-32 Z" stroke-width="0" fill="#d0c7c0" fill-opacity="0.12156862745098039" />
<path d="M30,-88 L213,-115 L98,-63 L132,-98 L116,-255 L183,-209 Z" stroke-width="0" fill="#f8e9f7" fill-opacity="0.050980392156862744" />
<path d="M83,-302 L63,-177 L180,-233 L209,-193 L68,-196 L223,-74 Z" stroke-width="0" fill="#d1fea6" fill-opacity="0.0" />
<path d="M125,-142 L118,-114 L249,-128 L66,-316 L62,-91 L81,-241 Z" stroke-width="0" fill="#84b1f4" fill-opacity="0.12549019607843137" />
<path d="M115,-188 L177,-109 L56,-85 L67,-90 L34,-228 L81,-107 Z" stroke-width="0" fill="#c9faf9" fill-opacity="0.6078431372549019" />
<text x="137.5" y="12.5" font-size="20.0" fill="black" text-anchor="middle" transform="translate(0,5.0)">6 OF AIR</text>
</svg>