<?xml version="1.0" encoding="UTF-8"?>
<svg xmlns="http://www.w3.org/2000/svg" xmlns:xlink="http://www.w3.org/1999/xlink"
     width="275" height="375" viewBox="0 -350 275 375">
<defs>
</defs>
<rect x="15" y="-335" width="245" height="320" stroke="black" stroke-width="4" fill="white" />
<path d="M232,-127 L58,-150 L102,-146 L172,-54 L32,-128 L158,-280 Z" stroke-width="0" fill="#edc5ec" fill-opacity="0.06666666666666667" />
<path d="M165,-154 L141,-165 L143,-35 L36,-148 L47,-119 L178,-301 Z" stroke-width="0" fill="#92e3cf" fill-opacity="0.45098039215686275" />
<path d="M83,-254 L55,-228 L103,-71 L227,-232 L101,-209 L192,-124 Z" stroke-width="0" fill="#00000c" fill-opacity="0.7647058823529411" />
<path d="M77,-126 L219,-50 L85,-320 L240,-221 L31,-103 L122,-302 Z" stroke-width="0" fill="#e3fefb" fill-opacity="0.07450980392156863" />
<path d="M71,-261 L39,-131 L205,-320 L134,-150 L80,-251 L78,-83 Z" stroke-width="0" fill="#f3ede4" fill-opacity="0.01568627450980392" />
<path d="M85,-147 L165,-175 L211,-278 L104,-74 L48,-61 L129,-97 Z" stroke-width="0" fill="#44322e" fill-opacity="0.058823529411764705" />
<path d="M172,-113 L53,-280 L196,-50 L42,-309 L130,-64 L222,-94 Z" stroke-width="0" fill="#ebc9fd" fill-opacity="0.054901960784313725" />
<path d="M91,-43 L233,-80 L151,-272 L245,-52 L63,-26 L202,-247 Z" stroke-width="0" fill="#f4eeec" fill-opacity="0.0784313725490196" />
<path d="M118,-75 L99,-86 L74,-69 L78,-269 L29,-132 L143,-179 Z" stroke-width="0" fill="#f67bdc" fill-opacity="0.03137254901960784" />
<path d="M63,-298 L122,-278 L122,-36 L111,-66 L234,-320 L58,-282 Z" stroke-width="0" fill="#ade2cd" fill-opacity="0.03529411764705882" />
<path d="M70,-303 L181,-270 L111,-163 L166,-222 L108,-206 L105,-132 Z" stroke-width="0" fill="#e5e8d7" fill-opacity="0.054901960784313725" />
<path d="M86,-80 L237,-268 L118,-214 L46,-202 L67,-30 L185,-259 Z" stroke-width="0" fill="#fbf8d9" fill-opacity="0.011764705882352941" />
<path d="M209,-287 L94,-75 L35,-39 L158,-131 L54,-34 L35,-274 Z" stroke-width="0" fill="#fdf7fc" fill-opacity="0.027450980392156862" />
<path d="M61,-48 L133,-179 L77,-130 L69,-103 L166,-192 L32,-135 Z" stroke-width="0" fill="#d6f9f1" fill-opacity="0.47058823529411764" />
<path d="M203,-285 L47,-236 L141,-148 L177,-256 L186,-242 L134,-84 Z" stroke-width="0" fill="#f7dbc3" fill-opacity="0.09019607843137255" />
<path d="M26,-146 L49,-291 L179,-62 L219,-284 L122,-167 L30,-196 Z" stroke-width="0" fill="#e2f4d0" fill-opacity="0.16862745098039217" />
<path d="M144,-269 L111,-289 L136,-45 L117,-263 L177,-244 L162,-246 Z" stroke-width="0" fill="#f5ece7" fill-opacity="0.2901960784313726" />
<path d="M152,-91 L41,-143 L179,-67 L79,-305 L197,-111 L156,-182 Z" stroke-width="0" fill="#f4bbed" fill-opacity="0.1803921568627451" />
<path d="M40,-87 L166,-69 L59,-264 L147,-235 L220,-51 L34,-138 Z" stroke-width="0" fill="#bfe1ed" fill-opacity="0.11372549019607843" />
<path d="M115,-96 L136,-154 L212,-110 L40,-215 L69,-137 L148,-104 Z" stroke-width="0" fill="#88a713" fill-opacity="0.027450980392156862" />
<path d="M117,-176 L68,-167 L119,-260 L108,-198 L92,-278 L113,-149 Z" stroke-width="0" fill="#e5e6c0" fill-opacity="0.09019607843137255" />
<path d="M50,-164 L66,-78 L189,-297 L103,-257 L66,-300 L199,-295 Z" stroke-width="0" fill="#ef7faf" fill-opacity="0.23921568627450981" />
<path d="M187,-253 L212,-289 L34,-225 L74,-91 L77,-216 L238,-180 Z" stroke-width="0" fill="#313517" fill-opacity="0.8784313725490196" />
<path d="M56,-46 L116,-174 L129,-307 L126,-125 L235,-285 L151,-243 Z" stroke-width="0" fill="#e8dde7" fill-opacity="0.00784313725490196" />
<path d="M149,-56 L68,-108 L237,-218 L117,-123 L75,-209 L134,-305 Z" stroke-width="0" fill="#000000" fill-opacity="0.8549019607843137" />
<path d="M213,-35 L160,-88 L116,-268 L203,-217 L119,-49 L161,-255 Z" stroke-width="0" fill="#f1f9e4" fill-opacity="0.023529411764705882" />
<path d="M44,-88 L89,-221 L139,-89 L75,-203 L98,-263 L68,-80 Z" stroke-width="0" fill="#f8f1eb" fill-opacity="0.2980392156862745" />
<path d="M30,-115 L57,-108 L230,-82 L124,-255 L66,-241 L37,-301 Z" stroke-width="0" fill="#fbeefe" fill-opacity="0.5215686274509804" />
<path d="M56,-146 L110,-300 L149,-36 L117,-205 L35,-43 L220,-123 Z" stroke-width="0" fill="#ddf7e0" fill-opacity="0.09411764705882353" />
<path d="M244,-128 L70,-124 L48,-28 L247,-103 L208,-299 L131,-70 Z" stroke-width="0" fill="#fcccfd" fill-opacity="0.09411764705882353" />
<path d="M179,-72 L123,-141 L239,-193 L114,-65 L166,-142 L223,-26 Z" stroke-width="0" fill="#f1fbe9" fill-opacity="0.01568627450980392" />
<path d="M179,-39 L71,-233 L78,-308 L132,-132 L233,-166 L123,-299 Z" stroke-width="0" fill="#080b03" fill-opacity="0.9490196078431372" />
<path d="M44,-255 L157,-175 L231,-126 L176,-174 L93,-231 L54,-26 Z" stroke-width="0" fill="#f4f3e8" fill-opacity="0.027450980392156862" />
<path d="M118,-143 L228,-314 L102,-85 L200,-203 L69,-131 L51,-273 Z" stroke-width="0" fill="#f9edf0" fill-opacity="0.3411764705882353" />
<path d="M115,-239 L165,-57 L70,-217 L68,-137 L206,-321 L210,-120 Z" stroke-width="0" fill="#fffdfd" fill-opacity="0.9686274509803922" />
<path d="M107,-200 L44,-149 L108,-169 L46,-215 L219,-92 L35,-154 Z" stroke-width="0" fill="#f6f3f6" fill-opacity="0.058823529411764705" />
<path d="M137,-250 L51,-247 L127,-30 L59,-83 L196,-84 L114,-58 Z" stroke-width="0" fill="#8bf2e6" fill-opacity="0.03529411764705882" />
<path d="M62,-221 L120,-254 L71,-316 L78,-34 L71,-114 L49,-140 Z" stroke-width="0" fill="#fee4fd" fill-opacity="0.803921568627451" />
<path d="M141,-159 L35,-234 L43,-171 L123,-208 L33,-104 L31,-39 Z" stroke-width="0" fill="#fbfedf" fill-opacity="0.5137254901960784" />
<path d="M138,-258 L133,-284 L159,-271 L112,-287 L184,-94 L130,-178 Z" stroke-width="0" fill="#fc93aa" fill-opacity="0.2196078431372549" />
<path d="M246,-134 L152,-121 L153,-77 L155,-284 L139,-246 L66,-279 Z" stroke-width="0" fill="#f0fed8" fill-opacity="0.09019607843137255" />
<path d="M136,-272 L140,-124 L57,-167 L173,-278 L129,-118 L69,-82 Z" stroke-width="0" fill="#87d23c" fill-opacity="0.00392156862745098" />
<path d="M237,-255 L33,-236 L78,-74 L178,-187 L193,-193 L180,-85 Z" stroke-width="0" fill="#162825" fill-opacity="0.06666666666666667" />
<path d="M134,-311 L133,-206 L102,-201 L29,-70 L185,-46 L39,-140 Z" stroke-width="0" fill="#e1e7ca" fill-opacity="0.10980392156862745" />
<path d="M150,-229 L126,-120 L61,-161 L112,-27 L83,-144 L113,-60 Z" stroke-width="0" fill="#f5d9d0" fill-opacity="0.027450980392156862" />
<path d="M96,-201 L136,-160 L26,-261 L137,-119 L47,-183 L126,-228 Z" stroke-width="0" fill="#f6ffd8" fill-opacity="0.12156862745098039" />
<path d="M111,-138 L44,-99 L215,-279 L248,-122 L26,-141 L27,-57 Z" stroke-width="0" fill="#5fc9ca" fill-opacity="0.00784313725490196" />
<path d="M36,-129 L131,-110 L184,-103 L61,-84 L167,-214 L110,-59 Z" stroke-width="0" fill="#dcf9fe" fill-opacity="0.023529411764705882" />
<path d="M120,-282 L47,-54 L240,-97 L81,-84 L68,-188 L66,-290 Z" stroke-width="0" fill="#f9eed4" fill-opacity="0.10196078431372549" />
<path d="M198,-263 L165,-320 L229,-176 L50,-133 L242,-75 L81,-272 Z" stroke-width="0" fill="#cffcd8" fill-opacity="0.03137254901960784" />
<path d="M157,-76 L74,-251 L38,-107 L66,-251 L178,-188 L195,-29 Z" stroke-width="0" fill="#dfdae0" fill-opacity="0.16862745098039217" />
<path d="M40,-71 L36,-127 L203,-192 L242,-161 L31,-132 L189,-108 Z" stroke-width="0" fill="#f4e3fa" fill-opacity="0.06666666666666667" />
<path d="M120,-103 L94,-305 L230,-250 L43,-257 L141,-67 L220,-144 Z" stroke-width="0" fill="#bcfcd8" fill-opacity="0.09019607843137255" />
<path d="M73,-45 L53,-201 L168,-40 L100,-250 L210,-42 L165,-57 Z" stroke-width="0" fill="#fbfca9" fill-opacity="0.34509803921568627" />
<path d="M249,-304 L100,-245 L57,-143 L128,-212 L48,-114 L225,-235 Z" stroke-width="0" fill="#f1f7e7" fill-opacity="0.058823529411764705" />
<path d="M44,-131 L100,-216 L180,-119 L127,-277 L103,-49 L58,-255 Z" stroke-width="0" fill="#111b00" fill-opacity="0.7333333333333333" />
<path d="M124,-90 L76,-101 L98,-169 L180,-126 L199,-184 L244,-61 Z" stroke-width="0" fill="#e9b2c9" fill-opacity="0.12941176470588237" />
<path d="M98,-254 L123,-88 L192,-215 L75,-273 L155,-223 L26,-48 Z" stroke-width="0" fill="#edfaea" fill-opacity="0.792156862745098" />
<path d="M241,-141 L123,-289 L52,-195 L120,-179 L80,-35 L29,-284 Z" stroke-width="0" fill="#aefcf9" fill-opacity="0.09019607843137255" />
<path d="M137,-33 L236,-238 L212,-105 L68,-41 L63,-149 L72,-145 Z" stroke-width="0" fill="#103e38" fill-opacity="0.03137254901960784" />
<path d="M169,-183 L26,-160 L238,-113 L65,-286 L229,-47 L65,-136 Z" stroke-width="0" fill="#f4f2f4" fill-opacity="0.15294117647058825" />
<path d="M174,-249 L41,-119 L130,-137 L192,-149 L117,-74 L140,-321 Z" stroke-width="0" fill="#271a28" fill-opacity="0.6745098039215687" />
<path d="M86,-26 L154,-60 L55,-27 L68,-172 L148,-208 L66,-296 Z" stroke-width="0" fill="#f6f3b8" fill-opacity="0.1450980392156863" />
<path d="M209,-167 L244,-149 L83,-124 L107,-84 L80,-45 L196,-246 Z" stroke-width="0" fill="#8f4964" fill-opacity="0.011764705882352941" />
<path d="M121,-26 L92,-217 L99,-197 L122,-217 L41,-28 L118,-174 Z" stroke-width="0" fill="#91f2f1" fill-opacity="0.12156862745098039" />
<path d="M41,-41 L219,-302 L219,-94 L206,-73 L102,-270 L231,-50 Z" stroke-width="0" fill="#e8e8f4" fill-opacity="0.13725490196078433" />
<path d="M122,-29 L198,-252 L214,-191 L182,-312 L52,-50 L138,-173 Z" stroke-width="0" fill="#cafd91" fill-opacity="0.00784313725490196" />
<path d="M105,-316 L83,-169 L177,-153 L77,-167 L218,-222 L77,-247 Z" stroke-width="0" fill="#abcfff" fill-opacity="0.10588235294117647" />
<path d="M26,-161 L129,-180 L147,-243 L135,-311 L191,-157 L101,-86 Z" stroke-width="0" fill="#4912e1" fill-opacity="0.06274509803921569" />
<path d="M121,-41 L71,-125 L141,-310 L76,-162 L151,-111 L60,-50 Z" stroke-width="0" fill="#f1fafa" fill-opacity="0.06666666666666667" />
<path d="M74,-109 L158,-276 L178,-181 L116,-302 L115,-83 L166,-30 Z" stroke-width="0" fill="#9ac599" fill-opacity="0.058823529411764705" />
<path d="M233,-85 L72,-237 L142,-264 L168,-127 L77,-222 L129,-95 Z" stroke-width="0" fill="#8dd4f8" fill-opacity="0.11372549019607843" />
<path d="M110,-289 L183,-25 L148,-190 L140,-154 L163,-80 L208,-132 Z" stroke-width="0" fill="#eaebf5" fill-opacity="0.023529411764705882" />
<path d="M41,-170 L28,-213 L69,-207 L125,-68 L243,-175 L134,-36 Z" stroke-width="0" fill="#000009" fill-opacity="0.9254901960784314" />
<path d="M168,-218 L205,-98 L133,-229 L84,-148 L59,-58 L45,-139 Z" stroke-width="0" fill="#f6dff0" fill-opacity="0.6666666666666666" />
<path d="M39,-228 L236,-158 L38,-97 L128,-59 L123,-123 L157,-75 Z" stroke-width="0" fill="#f192d6" fill-opacity="0.054901960784313725" />
<path d="M26,-53 L150,-122 L70,-191 L210,-186 L81,-42 L130,-265 Z" stroke-width="0" fill="#deffe0" fill-opacity="0.0196078431372549" />
<path d="M93,-187 L102,-240 L230,-60 L34,-106 L243,-318 L131,-188 Z" stroke-width="0" fill="#fda5f0" fill-opacity="0.16862745098039217" />
<path d="M190,-141 L174,-137 L166,-93 L157,-65 L112,-245 L108,-291 Z" stroke-width="0" fill="#f3f6e9" fill-opacity="0.6901960784313725" />
<path d="M227,-235 L114,-196 L40,-292 L115,-287 L245,-176 L208,-314 Z" stroke-width="0" fill="#f9f0e1" fill-opacity="0.0784313725490196" />
<path d="M36,-73 L249,-177 L240,-145 L127,-44 L239,-109 L85,-174 Z" stroke-width="0" fill="#eaf4ee" fill-opacity="0.12156862745098039" />
<path d="M193,-127 L97,-249 L42,-64 L96,-305 L106,-38 L81,-124 Z" stroke-width="0" fill="#f1aef9" fill-opacity="0.1803921568627451" />
<path d="M87,-140 L197,-134 L34,-28 L241,-170 L174,-314 L66,-151 Z" stroke-width="0" fill="#2f4918" fill-opacity="0.24705882352941178" />
<path d="M62,-99 L211,-130 L192,-282 L56,-108 L96,-157 L109,-80 Z" stroke-width="0" fill="#756a6e" fill-opacity="0.9921568627450981" />
<path d="M73,-197 L204,-89 L79,-192 L129,-261 L31,-205 L215,-238 Z" stroke-width="0" fill="#160405" fill-opacity="0.8745098039215686" />
<path d="M89,-228 L120,-311 L31,-42 L189,-81 L123,-138 L130,-198 Z" stroke-width="0" fill="#f2e4ae" fill-opacity="0.1803921568627451" />
<path d="M238,-205 L77,-138 L195,-39 L140,-225 L119,-279 L125,-114 Z" stroke-width="0" fill="#110000" fill-opacity="0.7843137254901961" />
<path d="M191,-164 L89,-197 L80,-51 L104,-193 L191,-253 L216,-116 Z" stroke-width="0" fill="#aef3e3" fill-opacity="0.18823529411764706" />
<path d="M236,-134 L196,-259 L217,-125 L245,-202 L73,-176 L49,-257 Z" stroke-width="0" fill="#b9fb98" fill-opacity="0.00392156862745098" />
<path d="M44,-250 L178,-314 L32,-227 L175,-144 L110,-160 L93,-225 Z" stroke-width="0" fill="#afc2f9" fill-opacity="0.29411764705882354" />
<path d="M48,-287 L61,-217 L227,-133 L131,-256 L138,-65 L204,-150 Z" stroke-width="0" fill="#150300" fill-opacity="0.15294117647058825" />
<path d="M62,-309 L106,-181 L102,-204 L81,-194 L63,-218 L50,-114 Z" stroke-width="0" fill="#d6f4e9" fill-opacity="0.13333333333333333" />
<path d="M172,-182 L203,-60 L104,-95 L213,-157 L53,-296 L148,-199 Z" stroke-width="0" fill="#7c001d" fill-opacity="0.24705882352941178" />
<path d="M36,-95 L138,-117 L123,-107 L213,-72 L211,-38 L237,-173 Z" stroke-width="0" fill="#121b41" fill-opacity="0.1450980392156863" />
<path d="M241,-124 L240,-64 L42,-94 L72,-231 L68,-82 L176,-313 Z" stroke-width="0" fill="#f59eda" fill-opacity="0.20784313725490197" />
<path d="M50,-253 L87,-158 L139,-92 L127,-113 L130,-58 L65,-46 Z" stroke-width="0" fill="#2b1300" fill-opacity="0.6274509803921569" />
<path d="M113,-46 L249,-130 L167,-54 L227,-141 L228,-103 L105,-108 Z" stroke-width="0" fill="#1c5c79" fill-opacity="0.058823529411764705" />
<path d="M189,-240 L118,-153 L174,-291 L87,-159 L53,-35 L178,-109 Z" stroke-width="0" fill="#000b3a" fill-opacity="0.043137254901960784" />
<path d="M159,-151 L243,-43 L47,-161 L118,-198 L201,-201 L44,-292 Z" stroke-width="0" fill="#00311d" fill-opacity="0.12941176470588237" />
<path d="M176,-77 L181,-173 L86,-314 L29,-58 L88,-90 L90,-156 Z" stroke-width="0" fill="#edf9a1" fill-opacity="0.2627450980392157" />
<text x="137.5" y="12.5" font-size="20.0" fill="black" text-anchor="middle" transform="translate(0,5.0)">9 OF EARTH</text>
</svg>