<?xml version="1.0" encoding="UTF-8"?>
<svg xmlns="http://www.w3.org/2000/svg" xmlns:xlink="http://www.w3.org/1999/xlink"
     width="896" height="1496" viewBox="0 -1400 896 1496" style="font-size:70;font-family:Poor Richard, Times New Roman;stroke:black;stroke-width:1;fill:none">
<defs>
</defs>
<path d="M698,-646 L178,-514 L374,-1150 L514,-366 L438,-838 L418,-1134 Z" stroke-width="0" fill="#032d55" fill-opacity="0.8784313725490196" />
<path d="M318,-1186 L582,-1210 L386,-830 L298,-950 L514,-662 L446,-578 Z" stroke-width="0" fill="#0c83fa" fill-opacity="0.13333333333333333" />
<path d="M218,-458 L738,-746 L582,-214 L178,-914 L382,-410 L582,-542 Z" stroke-width="0" fill="#fbb6f0" fill-opacity="0.00392156862745098" />
<path d="M370,-1066 L90,-390 L166,-794 L294,-490 L706,-982 L310,-122 Z" stroke-width="0" fill="#19c31b" fill-opacity="0.03137254901960784" />
<path d="M434,-726 L798,-942 L466,-314 L138,-186 L362,-1054 L346,-566 Z" stroke-width="0" fill="#005ddd" fill-opacity="0.24705882352941178" />
<path d="M262,-294 L102,-1210 L522,-626 L766,-238 L130,-226 L330,-406 Z" stroke-width="0" fill="#000c00" fill-opacity="0.9019607843137255" />
<path d="M470,-606 L410,-394 L426,-318 L390,-494 L550,-338 L94,-782 Z" stroke-width="0" fill="#065e95" fill-opacity="0.5019607843137255" />
<path d="M442,-630 L546,-222 L726,-718 L266,-706 L598,-438 L522,-706 Z" stroke-width="0" fill="#fef9e1" fill-opacity="0.07058823529411765" />
<path d="M198,-562 L302,-610 L790,-1038 L174,-942 L758,-402 L190,-390 Z" stroke-width="0" fill="#000000" fill-opacity="0.9254901960784314" />
<path d="M134,-190 L298,-1082 L258,-642 L306,-798 L710,-314 L458,-726 Z" stroke-width="0" fill="#010000" fill-opacity="0.9372549019607843" />
<path d="M202,-358 L646,-1010 L738,-806 L534,-450 L98,-1306 L398,-854 Z" stroke-width="0" fill="#001e43" fill-opacity="0.6235294117647059" />
<path d="M198,-1150 L90,-1278 L418,-862 L342,-830 L226,-1154 L494,-786 Z" stroke-width="0" fill="#5385a5" fill-opacity="0.9450980392156862" />
<path d="M546,-826 L730,-146 L298,-878 L374,-786 L166,-590 L242,-114 Z" stroke-width="0" fill="#090103" fill-opacity="0.9686274509803922" />
<path d="M266,-170 L434,-534 L98,-990 L86,-1018 L410,-1166 L454,-1034 Z" stroke-width="0" fill="#003375" fill-opacity="0.5333333333333333" />
<path d="M670,-202 L330,-422 L326,-866 L226,-870 L474,-186 L726,-950 Z" stroke-width="0" fill="#090005" fill-opacity="0.9686274509803922" />
<path d="M298,-122 L134,-690 L402,-1014 L334,-474 L242,-294 L314,-442 Z" stroke-width="0" fill="#242b0d" fill-opacity="0.8784313725490196" />
<path d="M810,-490 L538,-382 L418,-1162 L530,-682 L194,-262 L366,-714 Z" stroke-width="0" fill="#000000" fill-opacity="0.6862745098039216" />
<path d="M198,-254 L250,-386 L94,-322 L186,-954 L602,-282 L726,-90 Z" stroke-width="0" fill="#000000" fill-opacity="0.9607843137254902" />
<path d="M214,-702 L470,-666 L210,-954 L290,-1134 L82,-618 L118,-478 Z" stroke-width="0" fill="#cfeaf4" fill-opacity="0.9137254901960784" />
<path d="M150,-1186 L790,-1174 L166,-830 L606,-438 L254,-386 L270,-358 Z" stroke-width="0" fill="#7feae3" fill-opacity="0.9450980392156862" />
<path d="M586,-1266 L654,-250 L118,-750 L582,-1202 L630,-1150 L802,-318 Z" stroke-width="0" fill="#1d1413" fill-opacity="0.07450980392156863" />
<path d="M582,-138 L134,-202 L650,-826 L86,-230 L166,-386 L398,-678 Z" stroke-width="0" fill="#000000" fill-opacity="0.7411764705882353" />
<path d="M338,-94 L390,-1254 L382,-414 L90,-726 L674,-758 L282,-602 Z" stroke-width="0" fill="#077659" fill-opacity="0.24313725490196078" />
<path d="M394,-1210 L426,-394 L438,-1210 L322,-1122 L638,-254 L462,-174 Z" stroke-width="0" fill="#219dd0" fill-opacity="0.054901960784313725" />
<path d="M762,-1186 L362,-1254 L310,-1178 L166,-626 L318,-126 L298,-126 Z" stroke-width="0" fill="#001569" fill-opacity="0.5019607843137255" />
<path d="M418,-546 L686,-234 L454,-654 L502,-106 L282,-918 L246,-682 Z" stroke-width="0" fill="#071207" fill-opacity="0.8705882352941177" />
<path d="M314,-154 L382,-1102 L182,-450 L338,-710 L358,-630 L350,-286 Z" stroke-width="0" fill="#081568" fill-opacity="0.8862745098039215" />
<path d="M82,-682 L210,-258 L378,-674 L578,-378 L382,-1118 L98,-114 Z" stroke-width="0" fill="#95b5db" fill-opacity="0.807843137254902" />
<path d="M118,-766 L246,-538 L546,-850 L430,-362 L298,-842 L290,-86 Z" stroke-width="0" fill="#6c8782" fill-opacity="0.9803921568627451" />
<path d="M254,-1182 L618,-1202 L682,-738 L338,-402 L222,-622 L594,-306 Z" stroke-width="0" fill="#00110a" fill-opacity="0.3764705882352941" />
<path d="M538,-862 L802,-690 L314,-482 L666,-602 L426,-206 L622,-138 Z" stroke-width="0" fill="#050435" fill-opacity="0.03137254901960784" />
<path d="M514,-658 L686,-1094 L214,-942 L362,-118 L86,-790 L86,-554 Z" stroke-width="0" fill="#3063b6" fill-opacity="0.3333333333333333" />
<path d="M582,-874 L770,-1026 L198,-146 L302,-754 L342,-262 L134,-842 Z" stroke-width="0" fill="#0ae7b6" fill-opacity="0.01568627450980392" />
<path d="M610,-266 L514,-1250 L334,-266 L374,-258 L166,-114 L438,-346 Z" stroke-width="0" fill="#6a95ac" fill-opacity="0.9686274509803922" />
<path d="M294,-474 L270,-954 L650,-466 L322,-890 L382,-294 L610,-934 Z" stroke-width="0" fill="#d9f9f3" fill-opacity="0.9764705882352941" />
<path d="M658,-518 L274,-826 L362,-334 L310,-1066 L722,-302 L138,-162 Z" stroke-width="0" fill="#000000" fill-opacity="0.9568627450980393" />
<path d="M346,-1046 L158,-738 L430,-858 L246,-1098 L710,-262 L586,-238 Z" stroke-width="0" fill="#371003" fill-opacity="0.5568627450980392" />
<path d="M142,-1130 L134,-914 L718,-490 L462,-90 L282,-986 L330,-886 Z" stroke-width="0" fill="#000000" fill-opacity="0.9725490196078431" />
<path d="M766,-1274 L634,-746 L590,-478 L354,-938 L510,-190 L342,-770 Z" stroke-width="0" fill="#000549" fill-opacity="0.43529411764705883" />
<path d="M606,-538 L146,-594 L374,-98 L134,-1270 L254,-1150 L794,-614 Z" stroke-width="0" fill="#0f0ad4" fill-opacity="0.03529411764705882" />
<path d="M230,-150 L446,-842 L670,-122 L278,-90 L366,-338 L698,-622 Z" stroke-width="0" fill="#000000" fill-opacity="0.7764705882352941" />
<path d="M222,-398 L806,-862 L302,-266 L170,-822 L86,-506 L318,-798 Z" stroke-width="0" fill="#54bed0" fill-opacity="0.1843137254901961" />
<path d="M762,-870 L214,-1022 L342,-550 L174,-986 L138,-246 L378,-266 Z" stroke-width="0" fill="#022303" fill-opacity="0.00784313725490196" />
<path d="M482,-662 L170,-642 L598,-914 L590,-694 L458,-1206 L598,-238 Z" stroke-width="0" fill="#003e81" fill-opacity="0.2235294117647059" />
<path d="M254,-770 L634,-822 L362,-498 L622,-962 L810,-1106 L662,-1026 Z" stroke-width="0" fill="#000200" fill-opacity="0.4196078431372549" />
<path d="M526,-778 L578,-178 L334,-1078 L650,-1210 L702,-106 L238,-542 Z" stroke-width="0" fill="#000000" fill-opacity="0.9019607843137255" />
<path d="M662,-642 L126,-206 L602,-146 L582,-510 L642,-758 L442,-338 Z" stroke-width="0" fill="#20000d" fill-opacity="0.8509803921568627" />
<path d="M578,-526 L214,-358 L334,-270 L110,-1294 L158,-186 L586,-434 Z" stroke-width="0" fill="#43a8cf" fill-opacity="0.9490196078431372" />
<path d="M166,-742 L190,-1118 L554,-698 L394,-902 L642,-166 L526,-1082 Z" stroke-width="0" fill="#e683cc" fill-opacity="0.8156862745098039" />
<path d="M666,-378 L550,-130 L430,-150 L150,-402 L106,-1186 L594,-382 Z" stroke-width="0" fill="#000727" fill-opacity="0.25098039215686274" />
<path d="M510,-1138 L170,-462 L502,-622 L442,-1058 L466,-278 L530,-354 Z" stroke-width="0" fill="#f8f5ef" fill-opacity="0.9607843137254902" />
<path d="M806,-478 L226,-278 L418,-962 L642,-1246 L410,-594 L638,-498 Z" stroke-width="0" fill="#030116" fill-opacity="0.9411764705882353" />
<path d="M394,-354 L642,-726 L618,-394 L478,-1138 L658,-798 L326,-502 Z" stroke-width="0" fill="#f7edfa" fill-opacity="0.7803921568627451" />
<path d="M626,-278 L426,-1014 L290,-1214 L162,-1070 L530,-1146 L150,-810 Z" stroke-width="0" fill="#65a3d2" fill-opacity="0.9137254901960784" />
<path d="M794,-1062 L714,-1142 L742,-774 L554,-658 L642,-198 L202,-526 Z" stroke-width="0" fill="#0d1313" fill-opacity="0.03137254901960784" />
<path d="M226,-658 L106,-354 L770,-458 L350,-222 L198,-466 L250,-942 Z" stroke-width="0" fill="#191101" fill-opacity="0.8156862745098039" />
<path d="M118,-450 L322,-1130 L110,-374 L290,-174 L334,-1170 L290,-902 Z" stroke-width="0" fill="#c3e4ee" fill-opacity="0.9725490196078431" />
<path d="M170,-882 L134,-430 L306,-146 L506,-334 L162,-290 L702,-446 Z" stroke-width="0" fill="#f1e6f4" fill-opacity="0.6862745098039216" />
<path d="M442,-206 L478,-786 L366,-922 L174,-318 L166,-650 L138,-158 Z" stroke-width="0" fill="#000700" fill-opacity="0.9450980392156862" />
<path d="M198,-974 L398,-322 L330,-1162 L782,-774 L474,-1062 L230,-1226 Z" stroke-width="0" fill="#63257f" fill-opacity="0.20784313725490197" />
<path d="M130,-90 L218,-810 L118,-306 L314,-1018 L782,-586 L326,-618 Z" stroke-width="0" fill="#73f2fe" fill-opacity="0.09803921568627451" />
<path d="M326,-110 L226,-1222 L382,-370 L270,-378 L478,-282 L330,-174 Z" stroke-width="0" fill="#293472" fill-opacity="0.4549019607843137" />
<path d="M726,-1226 L362,-290 L410,-862 L370,-670 L374,-466 L534,-1302 Z" stroke-width="0" fill="#6899ae" fill-opacity="0.9607843137254902" />
<path d="M730,-1026 L102,-702 L662,-510 L322,-82 L534,-906 L322,-842 Z" stroke-width="0" fill="#180004" fill-opacity="0.03529411764705882" />
<path d="M658,-706 L574,-882 L394,-262 L774,-1150 L706,-386 L162,-1162 Z" stroke-width="0" fill="#042f01" fill-opacity="0.027450980392156862" />
<path d="M250,-662 L362,-502 L450,-322 L306,-642 L458,-854 L150,-934 Z" stroke-width="0" fill="#0c0283" fill-opacity="1.0" />
<path d="M734,-934 L798,-1274 L354,-570 L374,-986 L682,-366 L154,-182 Z" stroke-width="0" fill="#002d21" fill-opacity="0.30980392156862746" />
<path d="M342,-186 L350,-626 L110,-290 L194,-482 L146,-206 L510,-510 Z" stroke-width="0" fill="#0a0800" fill-opacity="0.8235294117647058" />
<path d="M494,-950 L602,-638 L286,-1022 L426,-342 L794,-650 L242,-610 Z" stroke-width="0" fill="#a0faf5" fill-opacity="0.08235294117647059" />
<path d="M774,-282 L162,-778 L102,-1158 L182,-1282 L482,-982 L258,-586 Z" stroke-width="0" fill="#000202" fill-opacity="0.37254901960784315" />
<path d="M194,-830 L534,-738 L190,-134 L530,-338 L450,-930 L294,-150 Z" stroke-width="0" fill="#54a068" fill-opacity="0.9137254901960784" />
<path d="M458,-434 L182,-518 L306,-926 L522,-1178 L206,-278 L586,-566 Z" stroke-width="0" fill="#13efbd" fill-opacity="0.12549019607843137" />
<path d="M526,-498 L510,-730 L570,-82 L334,-1310 L530,-658 L278,-150 Z" stroke-width="0" fill="#000350" fill-opacity="0.49411764705882355" />
<path d="M110,-1230 L474,-758 L326,-710 L730,-346 L202,-1006 L166,-162 Z" stroke-width="0" fill="#9cadbc" fill-opacity="0.5529411764705883" />
<path d="M802,-474 L702,-826 L654,-854 L346,-654 L290,-614 L222,-1010 Z" stroke-width="0" fill="#b40a21" fill-opacity="0.0" />
<path d="M290,-402 L690,-418 L106,-822 L562,-1154 L366,-1262 L746,-818 Z" stroke-width="0" fill="#2e37c7" fill-opacity="0.14901960784313725" />
<path d="M546,-1170 L358,-218 L402,-478 L290,-106 L526,-386 L282,-82 Z" stroke-width="0" fill="#000004" fill-opacity="0.8235294117647058" />
<path d="M398,-302 L234,-870 L194,-1234 L570,-1134 L346,-554 L530,-802 Z" stroke-width="0" fill="#6d94b9" fill-opacity="0.8" />
<path d="M586,-122 L322,-278 L602,-262 L322,-394 L154,-1070 L742,-210 Z" stroke-width="0" fill="#000005" fill-opacity="0.984313725490196" />
<path d="M770,-406 L718,-438 L438,-1046 L114,-714 L470,-1022 L730,-438 Z" stroke-width="0" fill="#6ea2b9" fill-opacity="0.3843137254901961" />
<path d="M154,-590 L238,-818 L466,-534 L222,-230 L550,-630 L806,-294 Z" stroke-width="0" fill="#000000" fill-opacity="0.984313725490196" />
<path d="M402,-806 L770,-1026 L226,-514 L410,-958 L126,-634 L282,-602 Z" stroke-width="0" fill="#dceafb" fill-opacity="0.5176470588235295" />
<path d="M366,-1046 L90,-570 L154,-1006 L370,-870 L634,-774 L782,-470 Z" stroke-width="0" fill="#43d3a5" fill-opacity="0.10196078431372549" />
<path d="M130,-1066 L578,-1130 L706,-802 L306,-1194 L710,-1178 L102,-178 Z" stroke-width="0" fill="#a0c7f4" fill-opacity="0.5019607843137255" />
<path d="M286,-606 L310,-958 L202,-110 L510,-166 L506,-922 L262,-398 Z" stroke-width="0" fill="#080108" fill-opacity="0.9411764705882353" />
<path d="M318,-1114 L430,-478 L330,-962 L402,-682 L274,-166 L726,-202 Z" stroke-width="0" fill="#2a5614" fill-opacity="0.0392156862745098" />
<path d="M346,-162 L378,-294 L654,-542 L210,-698 L734,-1098 L226,-962 Z" stroke-width="0" fill="#6950f7" fill-opacity="0.058823529411764705" />
<path d="M510,-514 L546,-394 L478,-974 L562,-822 L182,-862 L282,-1122 Z" stroke-width="0" fill="#819dd2" fill-opacity="0.9568627450980393" />
<path d="M666,-1138 L102,-1158 L210,-402 L322,-1130 L666,-146 L790,-370 Z" stroke-width="0" fill="#120c67" fill-opacity="0.07058823529411765" />
<path d="M342,-338 L346,-350 L766,-194 L758,-534 L98,-634 L82,-458 Z" stroke-width="0" fill="#000900" fill-opacity="0.01568627450980392" />
<path d="M410,-258 L198,-570 L358,-458 L266,-558 L574,-174 L498,-702 Z" stroke-width="0" fill="#113c56" fill-opacity="0.0" />
<path d="M278,-1030 L582,-766 L206,-1026 L534,-290 L546,-318 L794,-442 Z" stroke-width="0" fill="#00000c" fill-opacity="0.03529411764705882" />
<path d="M766,-1058 L410,-390 L650,-458 L678,-750 L346,-130 L286,-270 Z" stroke-width="0" fill="#0e0000" fill-opacity="0.5019607843137255" />
<path d="M622,-462 L666,-1090 L330,-1290 L234,-1074 L762,-138 L674,-718 Z" stroke-width="0" fill="#469934" fill-opacity="0.047058823529411764" />
<path d="M558,-990 L570,-158 L458,-234 L206,-286 L182,-794 L106,-150 Z" stroke-width="0" fill="#215b3a" fill-opacity="0.07450980392156863" />
<path d="M486,-1006 L646,-234 L374,-566 L654,-678 L166,-466 L306,-918 Z" stroke-width="0" fill="#c0e6a6" fill-opacity="0.4549019607843137" />
<path d="M342,-1166 L418,-486 L506,-1302 L342,-510 L446,-1210 L766,-1022 Z" stroke-width="0" fill="#87a8cc" fill-opacity="0.6039215686274509" />
<path d="M122,-1190 L342,-1054 L686,-422 L678,-1034 L586,-538 L722,-874 Z" stroke-width="0" fill="#6589fd" fill-opacity="0.10588235294117647" />
<path d="M582,-354 L594,-990 L454,-166 L738,-1274 L262,-626 L134,-1182 Z" stroke-width="0" fill="#a3e2de" fill-opacity="0.596078431372549" />
<path d="M142,-178 L82,-154 L366,-534 L754,-210 L162,-930 L222,-554 Z" stroke-width="0" fill="#abcae3" fill-opacity="0.6313725490196078" />
<text x="448.0" y="0" font-size="70.0" fill="black" text-anchor="middle" transform="translate(0,17.5)">5 OF EARTH</text>
</svg>