<?xml version="1.0" encoding="UTF-8"?>
<svg xmlns="http://www.w3.org/2000/svg" xmlns:xlink="http://www.w3.org/1999/xlink"
     width="896" height="1496" viewBox="0 -1400 896 1496" style="font-size:70;font-family:Poor Richard, Times New Roman;stroke:black;stroke-width:1;fill:none">
<defs>
</defs>
<path d="M150,-1242 L410,-502 L634,-710 L102,-186 L606,-1106 L310,-170 Z" stroke-width="0" fill="#d5d3aa" fill-opacity="0.24313725490196078" />
<path d="M850,-1094 L918,-666 L262,-686 L802,-1170 L554,-174 L814,-1006 Z" stroke-width="0" fill="#ee9316" fill-opacity="0.058823529411764705" />
<path d="M782,-178 L662,-934 L114,-758 L370,-1138 L754,-834 L466,-274 Z" stroke-width="0" fill="#143b76" fill-opacity="0.15294117647058825" />
<path d="M278,-894 L118,-746 L402,-586 L402,-486 L662,-222 L250,-886 Z" stroke-width="0" fill="#6b67de" fill-opacity="0.15294117647058825" />
<path d="M814,-274 L534,-446 L530,-110 L298,-446 L926,-286 L146,-306 Z" stroke-width="0" fill="#fbc81e" fill-opacity="0.9450980392156862" />
<path d="M262,-1262 L670,-686 L862,-890 L314,-974 L666,-130 L238,-94 Z" stroke-width="0" fill="#ad814e" fill-opacity="0.8274509803921568" />
<path d="M346,-446 L130,-454 L550,-1122 L526,-634 L486,-646 L262,-166 Z" stroke-width="0" fill="#e19138" fill-opacity="0.8980392156862745" />
<path d="M494,-418 L502,-1206 L570,-350 L438,-938 L378,-250 L434,-1242 Z" stroke-width="0" fill="#66a0d5" fill-opacity="0.20784313725490197" />
<path d="M122,-190 L886,-166 L434,-986 L270,-278 L530,-906 L322,-822 Z" stroke-width="0" fill="#8c2904" fill-opacity="0.17647058823529413" />
<path d="M234,-1030 L338,-918 L126,-458 L250,-350 L914,-738 L930,-286 Z" stroke-width="0" fill="#a7ccb0" fill-opacity="0.24705882352941178" />
<path d="M146,-458 L130,-722 L194,-422 L358,-230 L770,-1246 L706,-278 Z" stroke-width="0" fill="#fdae6f" fill-opacity="0.3254901960784314" />
<path d="M954,-518 L618,-1218 L434,-950 L630,-598 L482,-1078 L470,-802 Z" stroke-width="0" fill="#5e7245" fill-opacity="0.6588235294117647" />
<path d="M118,-330 L202,-1218 L598,-1062 L338,-798 L386,-786 L282,-734 Z" stroke-width="0" fill="#8cdb40" fill-opacity="0.10588235294117647" />
<path d="M618,-590 L606,-410 L158,-390 L330,-1106 L258,-950 L542,-254 Z" stroke-width="0" fill="#44d6b8" fill-opacity="0.29411764705882354" />
<path d="M938,-974 L138,-1190 L134,-282 L626,-402 L102,-1198 L566,-1154 Z" stroke-width="0" fill="#c5b2c3" fill-opacity="0.2196078431372549" />
<path d="M502,-814 L298,-898 L842,-486 L830,-810 L294,-238 L538,-950 Z" stroke-width="0" fill="#f11555" fill-opacity="0.4745098039215686" />
<path d="M314,-626 L170,-470 L354,-1038 L874,-938 L970,-762 L698,-162 Z" stroke-width="0" fill="#813f03" fill-opacity="0.3607843137254902" />
<path d="M786,-898 L930,-442 L850,-330 L342,-474 L974,-906 L906,-1026 Z" stroke-width="0" fill="#174cec" fill-opacity="0.5647058823529412" />
<path d="M174,-190 L446,-810 L586,-886 L690,-758 L230,-330 L486,-610 Z" stroke-width="0" fill="#0bf0f9" fill-opacity="0.6980392156862745" />
<path d="M654,-834 L418,-1270 L478,-438 L238,-154 L222,-1002 L694,-702 Z" stroke-width="0" fill="#596b3f" fill-opacity="0.4470588235294118" />
<path d="M302,-122 L198,-430 L438,-638 L226,-1146 L858,-382 L858,-210 Z" stroke-width="0" fill="#b77309" fill-opacity="0.12549019607843137" />
<path d="M414,-946 L518,-1042 L326,-910 L222,-978 L530,-1222 L742,-526 Z" stroke-width="0" fill="#557e7c" fill-opacity="0.9294117647058824" />
<path d="M810,-1066 L774,-410 L926,-1090 L346,-918 L250,-214 L726,-922 Z" stroke-width="0" fill="#0055c3" fill-opacity="0.45098039215686275" />
<path d="M810,-794 L394,-766 L950,-562 L702,-410 L630,-130 L118,-830 Z" stroke-width="0" fill="#1176e7" fill-opacity="0.8509803921568627" />
<path d="M922,-742 L126,-1186 L562,-1022 L642,-742 L238,-738 L222,-1234 Z" stroke-width="0" fill="#b0f4dc" fill-opacity="0.27450980392156865" />
<path d="M726,-246 L606,-934 L970,-150 L786,-538 L710,-1090 L486,-822 Z" stroke-width="0" fill="#7c2100" fill-opacity="0.30980392156862746" />
<path d="M302,-334 L214,-1126 L134,-306 L514,-1054 L870,-970 L190,-858 Z" stroke-width="0" fill="#eee7f8" fill-opacity="0.8431372549019608" />
<path d="M430,-178 L866,-1266 L246,-154 L110,-602 L666,-138 L550,-946 Z" stroke-width="0" fill="#ea7957" fill-opacity="0.3607843137254902" />
<path d="M562,-438 L198,-642 L430,-1038 L162,-1050 L166,-150 L146,-154 Z" stroke-width="0" fill="#edf9fc" fill-opacity="0.4117647058823529" />
<path d="M138,-434 L826,-654 L298,-1142 L662,-866 L706,-778 L518,-210 Z" stroke-width="0" fill="#fe5974" fill-opacity="0.08235294117647059" />
<path d="M958,-750 L526,-1010 L658,-242 L622,-294 L586,-298 L470,-454 Z" stroke-width="0" fill="#d69977" fill-opacity="0.8980392156862745" />
<path d="M898,-478 L362,-470 L418,-1002 L458,-142 L934,-466 L950,-926 Z" stroke-width="0" fill="#3b66ba" fill-opacity="0.41568627450980394" />
<path d="M738,-778 L250,-778 L654,-150 L582,-518 L474,-502 L314,-810 Z" stroke-width="0" fill="#cde2f7" fill-opacity="0.984313725490196" />
<path d="M138,-702 L738,-202 L266,-502 L566,-126 L510,-706 L594,-850 Z" stroke-width="0" fill="#f9cd77" fill-opacity="0.6313725490196078" />
<path d="M282,-518 L290,-606 L334,-202 L518,-1062 L654,-578 L514,-1026 Z" stroke-width="0" fill="#f4d8d3" fill-opacity="0.5450980392156862" />
<path d="M230,-406 L606,-1110 L414,-846 L298,-526 L782,-1146 L86,-470 Z" stroke-width="0" fill="#efb9a5" fill-opacity="0.792156862745098" />
<path d="M370,-162 L494,-450 L466,-794 L370,-990 L122,-970 L562,-1110 Z" stroke-width="0" fill="#efd4bf" fill-opacity="0.1450980392156863" />
<path d="M318,-662 L598,-198 L606,-218 L370,-266 L294,-978 L722,-762 Z" stroke-width="0" fill="#f6d600" fill-opacity="0.9529411764705882" />
<path d="M626,-82 L318,-570 L758,-994 L614,-866 L186,-310 L658,-502 Z" stroke-width="0" fill="#5c4a00" fill-opacity="0.5019607843137255" />
<path d="M642,-1234 L166,-782 L494,-870 L774,-962 L130,-162 L602,-926 Z" stroke-width="0" fill="#670210" fill-opacity="0.15294117647058825" />
<path d="M414,-1150 L258,-1030 L742,-146 L282,-734 L418,-1194 L922,-510 Z" stroke-width="0" fill="#4fcfc4" fill-opacity="0.5647058823529412" />
<path d="M246,-878 L154,-798 L122,-778 L446,-538 L314,-138 L462,-410 Z" stroke-width="0" fill="#fe64b8" fill-opacity="0.08627450980392157" />
<path d="M954,-1022 L810,-774 L418,-638 L282,-282 L842,-1086 L454,-186 Z" stroke-width="0" fill="#694336" fill-opacity="0.2901960784313726" />
<path d="M718,-490 L102,-842 L922,-82 L926,-598 L390,-942 L454,-906 Z" stroke-width="0" fill="#1772fa" fill-opacity="0.5019607843137255" />
<path d="M566,-834 L826,-1274 L646,-398 L338,-550 L630,-526 L550,-934 Z" stroke-width="0" fill="#edebeb" fill-opacity="0.19215686274509805" />
<path d="M198,-522 L726,-234 L394,-794 L898,-1198 L210,-118 L122,-474 Z" stroke-width="0" fill="#9d4407" fill-opacity="0.5019607843137255" />
<path d="M922,-138 L922,-1046 L686,-1126 L738,-490 L814,-282 L618,-206 Z" stroke-width="0" fill="#abc8d2" fill-opacity="0.23921568627450981" />
<path d="M218,-554 L146,-314 L590,-698 L542,-1030 L706,-394 L254,-302 Z" stroke-width="0" fill="#ecc578" fill-opacity="0.8470588235294118" />
<path d="M146,-286 L314,-266 L562,-318 L246,-390 L526,-446 L602,-166 Z" stroke-width="0" fill="#fca202" fill-opacity="0.4" />
<path d="M874,-1266 L542,-358 L766,-658 L818,-938 L962,-414 L542,-1106 Z" stroke-width="0" fill="#9fa09c" fill-opacity="0.45098039215686275" />
<path d="M534,-826 L398,-242 L530,-250 L762,-726 L110,-690 L406,-502 Z" stroke-width="0" fill="#e99614" fill-opacity="0.30196078431372547" />
<path d="M702,-398 L638,-766 L834,-94 L634,-1174 L582,-450 L730,-282 Z" stroke-width="0" fill="#74c779" fill-opacity="0.38823529411764707" />
<path d="M506,-790 L774,-818 L766,-918 L610,-630 L946,-602 L486,-838 Z" stroke-width="0" fill="#250712" fill-opacity="0.043137254901960784" />
<path d="M614,-374 L798,-362 L238,-406 L170,-1250 L142,-698 L638,-382 Z" stroke-width="0" fill="#edfbfe" fill-opacity="0.8352941176470589" />
<path d="M190,-286 L362,-502 L762,-738 L154,-606 L730,-186 L566,-1170 Z" stroke-width="0" fill="#991107" fill-opacity="0.00784313725490196" />
<path d="M386,-146 L414,-534 L138,-718 L98,-922 L106,-838 L750,-954 Z" stroke-width="0" fill="#bdc429" fill-opacity="0.13725490196078433" />
<path d="M350,-426 L262,-298 L126,-374 L142,-522 L498,-1098 L134,-314 Z" stroke-width="0" fill="#c6cf8a" fill-opacity="0.4588235294117647" />
<path d="M82,-802 L618,-506 L110,-1030 L782,-886 L810,-874 L706,-906 Z" stroke-width="0" fill="#f5f6e4" fill-opacity="0.06274509803921569" />
<path d="M510,-474 L146,-414 L166,-426 L246,-326 L526,-558 L510,-682 Z" stroke-width="0" fill="#eefb70" fill-opacity="0.611764705882353" />
<path d="M426,-634 L114,-178 L294,-966 L174,-338 L558,-650 L410,-598 Z" stroke-width="0" fill="#ac2004" fill-opacity="0.16470588235294117" />
<path d="M342,-642 L238,-182 L186,-394 L854,-850 L766,-462 L114,-1130 Z" stroke-width="0" fill="#faeee4" fill-opacity="0.0784313725490196" />
<path d="M326,-198 L942,-822 L270,-518 L682,-866 L658,-958 L618,-382 Z" stroke-width="0" fill="#ff06bf" fill-opacity="0.027450980392156862" />
<path d="M674,-1218 L90,-542 L414,-474 L278,-1102 L570,-1026 L262,-458 Z" stroke-width="0" fill="#446868" fill-opacity="0.5019607843137255" />
<path d="M542,-90 L630,-210 L938,-114 L722,-130 L338,-678 L858,-334 Z" stroke-width="0" fill="#60b86e" fill-opacity="0.21176470588235294" />
<path d="M430,-958 L558,-106 L938,-162 L382,-690 L846,-1258 L278,-242 Z" stroke-width="0" fill="#faaf9f" fill-opacity="0.5019607843137255" />
<path d="M566,-246 L206,-838 L334,-158 L230,-958 L690,-602 L770,-978 Z" stroke-width="0" fill="#f2d21c" fill-opacity="0.9490196078431372" />
<path d="M694,-714 L202,-462 L90,-1014 L98,-1086 L774,-1250 L318,-878 Z" stroke-width="0" fill="#aad09b" fill-opacity="0.29411764705882354" />
<path d="M98,-354 L534,-850 L186,-566 L654,-646 L166,-638 L786,-854 Z" stroke-width="0" fill="#a9252f" fill-opacity="0.44313725490196076" />
<path d="M934,-618 L182,-566 L102,-782 L870,-94 L246,-170 L762,-610 Z" stroke-width="0" fill="#a3ad93" fill-opacity="0.37254901960784315" />
<path d="M734,-822 L150,-950 L158,-394 L218,-474 L658,-954 L442,-202 Z" stroke-width="0" fill="#d9e6d7" fill-opacity="0.3058823529411765" />
<path d="M394,-990 L838,-1170 L774,-906 L90,-250 L842,-310 L250,-998 Z" stroke-width="0" fill="#f2c8d7" fill-opacity="0.796078431372549" />
<path d="M366,-382 L370,-750 L882,-1070 L270,-598 L754,-990 L306,-594 Z" stroke-width="0" fill="#ef7058" fill-opacity="0.44313725490196076" />
<path d="M514,-118 L522,-150 L922,-1190 L758,-278 L582,-182 L362,-258 Z" stroke-width="0" fill="#adbca7" fill-opacity="0.4549019607843137" />
<path d="M526,-438 L322,-1214 L430,-398 L186,-1226 L298,-554 L390,-1270 Z" stroke-width="0" fill="#ece7bc" fill-opacity="0.40784313725490196" />
<path d="M598,-830 L502,-502 L178,-918 L638,-646 L642,-926 L638,-598 Z" stroke-width="0" fill="#10aa00" fill-opacity="0.13725490196078433" />
<path d="M938,-1206 L474,-178 L782,-1262 L902,-630 L950,-1094 L818,-850 Z" stroke-width="0" fill="#75b8bc" fill-opacity="0.2627450980392157" />
<path d="M698,-174 L474,-90 L890,-774 L286,-718 L698,-622 L406,-1066 Z" stroke-width="0" fill="#afbd77" fill-opacity="0.3607843137254902" />
<path d="M390,-438 L950,-446 L514,-1130 L406,-178 L230,-738 L594,-970 Z" stroke-width="0" fill="#ae90b4" fill-opacity="0.00784313725490196" />
<path d="M974,-254 L830,-254 L522,-1146 L522,-590 L262,-914 L438,-462 Z" stroke-width="0" fill="#f86969" fill-opacity="0.16862745098039217" />
<path d="M194,-850 L218,-686 L106,-610 L294,-186 L346,-858 L646,-258 Z" stroke-width="0" fill="#e6169a" fill-opacity="0.07058823529411765" />
<path d="M586,-182 L710,-174 L850,-246 L94,-1070 L686,-238 L866,-1158 Z" stroke-width="0" fill="#e2fcd3" fill-opacity="0.09019607843137255" />
<path d="M738,-1038 L298,-690 L546,-486 L130,-474 L434,-318 L398,-678 Z" stroke-width="0" fill="#e35b6b" fill-opacity="0.5019607843137255" />
<path d="M278,-1202 L682,-230 L530,-110 L442,-1106 L938,-238 L690,-386 Z" stroke-width="0" fill="#b1d0d0" fill-opacity="0.10196078431372549" />
<path d="M390,-454 L366,-418 L778,-198 L142,-646 L506,-710 L86,-482 Z" stroke-width="0" fill="#eea8c6" fill-opacity="0.43529411764705883" />
<path d="M342,-1206 L414,-314 L654,-702 L510,-558 L822,-318 L102,-802 Z" stroke-width="0" fill="#f0efd8" fill-opacity="0.3607843137254902" />
<path d="M194,-390 L334,-954 L810,-1086 L814,-306 L98,-1050 L618,-394 Z" stroke-width="0" fill="#ce904f" fill-opacity="0.32941176470588235" />
<path d="M350,-210 L194,-166 L638,-358 L670,-898 L290,-206 L338,-1082 Z" stroke-width="0" fill="#eccd8d" fill-opacity="0.17647058823529413" />
<path d="M162,-1062 L890,-1086 L698,-146 L314,-1190 L614,-1142 L166,-94 Z" stroke-width="0" fill="#f58166" fill-opacity="0.24705882352941178" />
<path d="M530,-482 L654,-1154 L578,-982 L862,-538 L418,-114 L414,-574 Z" stroke-width="0" fill="#89b2f8" fill-opacity="0.8" />
<path d="M866,-262 L226,-630 L870,-214 L518,-598 L254,-830 L554,-190 Z" stroke-width="0" fill="#2986d7" fill-opacity="0.23921568627450981" />
<path d="M334,-774 L550,-950 L774,-418 L678,-142 L866,-290 L434,-618 Z" stroke-width="0" fill="#27063e" fill-opacity="0.027450980392156862" />
<path d="M138,-98 L126,-98 L86,-354 L578,-146 L302,-394 L714,-1218 Z" stroke-width="0" fill="#c95a26" fill-opacity="0.5647058823529412" />
<path d="M598,-154 L218,-254 L974,-818 L302,-546 L454,-342 L570,-882 Z" stroke-width="0" fill="#c0c28c" fill-opacity="0.15294117647058825" />
<path d="M470,-530 L918,-1138 L178,-498 L642,-810 L406,-438 L650,-598 Z" stroke-width="0" fill="#f68a7c" fill-opacity="0.8588235294117647" />
<path d="M510,-202 L122,-426 L578,-902 L746,-830 L194,-622 L762,-490 Z" stroke-width="0" fill="#6fcde1" fill-opacity="0.32941176470588235" />
<path d="M910,-282 L450,-614 L166,-350 L290,-86 L702,-294 L150,-146 Z" stroke-width="0" fill="#6f81d6" fill-opacity="0.24313725490196078" />
<path d="M546,-166 L922,-658 L114,-994 L474,-226 L818,-286 L338,-190 Z" stroke-width="0" fill="#4974fc" fill-opacity="0.12941176470588237" />
<path d="M698,-822 L266,-1030 L862,-294 L110,-582 L230,-762 L706,-366 Z" stroke-width="0" fill="#c3e0fc" fill-opacity="0.10196078431372549" />
<path d="M946,-542 L586,-526 L366,-802 L142,-846 L290,-1098 L698,-222 Z" stroke-width="0" fill="#0f22f5" fill-opacity="0.08235294117647059" />
<path d="M626,-1158 L962,-490 L882,-370 L182,-1082 L730,-586 L538,-1178 Z" stroke-width="0" fill="#415e75" fill-opacity="0.10588235294117647" />
<text x="448.0" y="0" font-size="70.0" fill="black" text-anchor="middle" transform="translate(0,17.5)">KNIGHT OF EARTH</text>
</svg>