<?xml version="1.0" encoding="UTF-8"?>
<svg xmlns="http://www.w3.org/2000/svg" xmlns:xlink="http://www.w3.org/1999/xlink"
     width="896" height="1496" viewBox="0 -1400 896 1496" style="font-size:70;font-family:Poor Richard, Times New Roman;stroke:black;stroke-width:1;fill:none">
<defs>
</defs>
<path d="M646,-966 L530,-970 L458,-374 L394,-1310 L90,-398 L122,-130 Z" stroke-width="0" fill="#000000" fill-opacity="0.7294117647058823" />
<path d="M290,-830 L158,-970 L106,-1130 L598,-514 L638,-210 L362,-1130 Z" stroke-width="0" fill="#bb91fc" fill-opacity="0.03529411764705882" />
<path d="M418,-102 L626,-898 L714,-190 L238,-570 L754,-798 L490,-298 Z" stroke-width="0" fill="#1b0400" fill-opacity="0.8235294117647058" />
<path d="M446,-434 L618,-106 L158,-190 L194,-394 L330,-838 L570,-650 Z" stroke-width="0" fill="#360900" fill-opacity="0.803921568627451" />
<path d="M138,-654 L82,-1050 L526,-818 L474,-578 L106,-986 L798,-394 Z" stroke-width="0" fill="#70441b" fill-opacity="0.7725490196078432" />
<path d="M470,-438 L686,-230 L558,-674 L310,-134 L362,-462 L722,-894 Z" stroke-width="0" fill="#292b3c" fill-opacity="0.8784313725490196" />
<path d="M234,-282 L174,-82 L318,-438 L170,-638 L166,-810 L458,-638 Z" stroke-width="0" fill="#130000" fill-opacity="0.8666666666666667" />
<path d="M526,-862 L470,-878 L238,-310 L514,-1298 L202,-666 L178,-158 Z" stroke-width="0" fill="#461a00" fill-opacity="0.5215686274509804" />
<path d="M270,-1070 L306,-362 L478,-574 L786,-114 L170,-210 L258,-374 Z" stroke-width="0" fill="#461e00" fill-opacity="0.796078431372549" />
<path d="M258,-554 L210,-506 L398,-730 L398,-762 L150,-362 L342,-1178 Z" stroke-width="0" fill="#a479d2" fill-opacity="0.34901960784313724" />
<path d="M566,-118 L650,-478 L502,-1006 L654,-762 L238,-1122 L354,-518 Z" stroke-width="0" fill="#52ba3a" fill-opacity="0.24313725490196078" />
<path d="M298,-1138 L742,-798 L566,-930 L458,-322 L462,-290 L386,-738 Z" stroke-width="0" fill="#6704db" fill-opacity="0.7254901960784313" />
<path d="M734,-1226 L562,-94 L94,-578 L386,-1066 L486,-406 L330,-574 Z" stroke-width="0" fill="#531200" fill-opacity="0.3803921568627451" />
<path d="M326,-414 L514,-246 L786,-162 L110,-642 L666,-1038 L542,-594 Z" stroke-width="0" fill="#571500" fill-opacity="0.7490196078431373" />
<path d="M630,-354 L142,-530 L306,-398 L738,-522 L562,-1306 L354,-1154 Z" stroke-width="0" fill="#44041e" fill-opacity="0.47843137254901963" />
<path d="M586,-550 L738,-970 L342,-190 L146,-206 L234,-258 L118,-274 Z" stroke-width="0" fill="#cdd1ab" fill-opacity="0.1803921568627451" />
<path d="M546,-346 L138,-378 L150,-302 L502,-242 L102,-1054 L630,-226 Z" stroke-width="0" fill="#27fb1f" fill-opacity="0.12156862745098039" />
<path d="M550,-598 L538,-1166 L326,-594 L346,-414 L470,-82 L366,-218 Z" stroke-width="0" fill="#2d0000" fill-opacity="0.8156862745098039" />
<path d="M462,-1078 L446,-466 L626,-382 L450,-210 L294,-166 L278,-162 Z" stroke-width="0" fill="#323830" fill-opacity="0.8784313725490196" />
<path d="M638,-902 L758,-162 L662,-1022 L222,-158 L714,-1066 L142,-538 Z" stroke-width="0" fill="#ccbb51" fill-opacity="0.5647058823529412" />
<path d="M166,-790 L598,-754 L450,-706 L426,-230 L330,-402 L662,-642 Z" stroke-width="0" fill="#847020" fill-opacity="0.12156862745098039" />
<path d="M246,-794 L698,-1102 L678,-454 L158,-594 L138,-742 L430,-482 Z" stroke-width="0" fill="#92ab5f" fill-opacity="0.47843137254901963" />
<path d="M670,-1062 L122,-654 L98,-1254 L522,-778 L102,-662 L570,-266 Z" stroke-width="0" fill="#100718" fill-opacity="0.5294117647058824" />
<path d="M690,-522 L290,-170 L686,-430 L122,-942 L458,-378 L322,-942 Z" stroke-width="0" fill="#4be503" fill-opacity="0.03529411764705882" />
<path d="M678,-398 L598,-178 L810,-266 L302,-1162 L682,-766 L474,-566 Z" stroke-width="0" fill="#481300" fill-opacity="0.7333333333333333" />
<path d="M730,-370 L386,-110 L810,-890 L798,-1106 L794,-1142 L662,-998 Z" stroke-width="0" fill="#8c7400" fill-opacity="0.5254901960784314" />
<path d="M126,-238 L458,-506 L150,-158 L434,-550 L470,-1130 L682,-1250 Z" stroke-width="0" fill="#4eb694" fill-opacity="0.4196078431372549" />
<path d="M282,-490 L270,-426 L146,-1106 L170,-590 L314,-974 L582,-546 Z" stroke-width="0" fill="#f3fbf8" fill-opacity="0.9568627450980393" />
<path d="M446,-698 L314,-854 L166,-298 L166,-270 L726,-178 L690,-714 Z" stroke-width="0" fill="#cd9080" fill-opacity="0.11764705882352941" />
<path d="M734,-378 L150,-726 L522,-1234 L206,-1194 L374,-702 L130,-1298 Z" stroke-width="0" fill="#1b2012" fill-opacity="0.7176470588235294" />
<path d="M438,-954 L406,-1058 L606,-1198 L414,-1090 L498,-370 L98,-1098 Z" stroke-width="0" fill="#fbdece" fill-opacity="0.8980392156862745" />
<path d="M502,-542 L714,-194 L470,-610 L622,-802 L602,-202 L542,-594 Z" stroke-width="0" fill="#c4fdb8" fill-opacity="0.24313725490196078" />
<path d="M662,-1146 L350,-1306 L82,-1106 L218,-214 L190,-1002 L302,-526 Z" stroke-width="0" fill="#232a07" fill-opacity="0.5019607843137255" />
<path d="M206,-818 L702,-158 L602,-466 L542,-310 L770,-374 L146,-878 Z" stroke-width="0" fill="#712f0d" fill-opacity="0.9019607843137255" />
<path d="M130,-1066 L134,-722 L514,-1010 L250,-570 L186,-614 L626,-222 Z" stroke-width="0" fill="#fd94f0" fill-opacity="0.5843137254901961" />
<path d="M242,-322 L158,-318 L558,-782 L322,-854 L246,-438 L694,-702 Z" stroke-width="0" fill="#1c0003" fill-opacity="0.7686274509803922" />
<path d="M270,-390 L162,-1150 L414,-826 L82,-234 L414,-1234 L174,-1250 Z" stroke-width="0" fill="#405a63" fill-opacity="0.8666666666666667" />
<path d="M98,-962 L434,-362 L270,-266 L282,-490 L410,-898 L150,-374 Z" stroke-width="0" fill="#1d0007" fill-opacity="0.996078431372549" />
<path d="M426,-1082 L546,-522 L250,-1198 L170,-454 L710,-482 L746,-214 Z" stroke-width="0" fill="#eafb44" fill-opacity="0.49411764705882355" />
<path d="M302,-1230 L498,-750 L230,-922 L478,-1258 L782,-170 L126,-478 Z" stroke-width="0" fill="#6c4e2a" fill-opacity="0.9450980392156862" />
<path d="M346,-1274 L402,-846 L650,-910 L690,-694 L218,-866 L354,-314 Z" stroke-width="0" fill="#7baa63" fill-opacity="0.36470588235294116" />
<path d="M126,-1046 L402,-510 L362,-1034 L410,-1190 L210,-322 L114,-450 Z" stroke-width="0" fill="#430211" fill-opacity="0.17254901960784313" />
<path d="M746,-82 L482,-194 L794,-902 L670,-750 L342,-746 L458,-174 Z" stroke-width="0" fill="#5c410f" fill-opacity="0.5490196078431373" />
<path d="M202,-258 L314,-746 L730,-650 L238,-298 L722,-202 L230,-394 Z" stroke-width="0" fill="#693617" fill-opacity="0.3333333333333333" />
<path d="M402,-118 L206,-1038 L262,-1242 L526,-390 L382,-926 L578,-490 Z" stroke-width="0" fill="#421704" fill-opacity="0.6941176470588235" />
<path d="M262,-366 L710,-1238 L450,-1182 L490,-1238 L290,-710 L534,-586 Z" stroke-width="0" fill="#b1a5d3" fill-opacity="0.9098039215686274" />
<path d="M166,-266 L762,-782 L318,-494 L410,-718 L286,-678 L302,-266 Z" stroke-width="0" fill="#0b1300" fill-opacity="0.7764705882352941" />
<path d="M366,-158 L250,-686 L678,-86 L506,-358 L158,-426 L434,-854 Z" stroke-width="0" fill="#7e4352" fill-opacity="0.9647058823529412" />
<path d="M382,-658 L722,-1310 L450,-706 L410,-514 L302,-574 L642,-246 Z" stroke-width="0" fill="#564c37" fill-opacity="0.3843137254901961" />
<path d="M530,-474 L230,-682 L466,-662 L710,-970 L494,-462 L702,-794 Z" stroke-width="0" fill="#c7704d" fill-opacity="0.16862745098039217" />
<path d="M606,-330 L122,-1134 L106,-86 L458,-846 L654,-122 L134,-706 Z" stroke-width="0" fill="#361600" fill-opacity="0.6862745098039216" />
<path d="M510,-814 L646,-306 L174,-370 L190,-546 L442,-130 L382,-550 Z" stroke-width="0" fill="#171a17" fill-opacity="0.3411764705882353" />
<path d="M770,-978 L606,-646 L362,-310 L354,-214 L190,-298 L706,-978 Z" stroke-width="0" fill="#f1e37b" fill-opacity="0.9647058823529412" />
<path d="M670,-1086 L490,-674 L406,-298 L366,-1046 L542,-1062 L262,-794 Z" stroke-width="0" fill="#e99db7" fill-opacity="0.7686274509803922" />
<path d="M118,-794 L358,-658 L514,-774 L214,-642 L414,-138 L378,-394 Z" stroke-width="0" fill="#060019" fill-opacity="0.9647058823529412" />
<path d="M666,-1090 L514,-798 L590,-910 L578,-242 L574,-1114 L118,-790 Z" stroke-width="0" fill="#07044f" fill-opacity="0.7490196078431373" />
<path d="M374,-190 L730,-486 L418,-838 L598,-166 L558,-646 L646,-734 Z" stroke-width="0" fill="#fb689b" fill-opacity="0.26666666666666666" />
<path d="M538,-578 L694,-514 L534,-1122 L182,-166 L482,-286 L210,-642 Z" stroke-width="0" fill="#624550" fill-opacity="0.00784313725490196" />
<path d="M206,-814 L614,-350 L546,-1022 L758,-138 L522,-554 L706,-342 Z" stroke-width="0" fill="#9f3914" fill-opacity="0.5019607843137255" />
<path d="M534,-286 L274,-186 L82,-454 L610,-686 L742,-642 L378,-1222 Z" stroke-width="0" fill="#416232" fill-opacity="0.6352941176470588" />
<path d="M322,-1106 L734,-1266 L558,-450 L454,-254 L670,-350 L674,-874 Z" stroke-width="0" fill="#aa8f36" fill-opacity="0.5019607843137255" />
<path d="M794,-1270 L474,-1266 L266,-1074 L126,-990 L550,-650 L234,-894 Z" stroke-width="0" fill="#828158" fill-opacity="0.596078431372549" />
<path d="M566,-566 L178,-1038 L142,-530 L198,-1086 L286,-266 L774,-406 Z" stroke-width="0" fill="#c19616" fill-opacity="0.7411764705882353" />
<path d="M614,-530 L694,-126 L530,-870 L174,-202 L370,-166 L798,-614 Z" stroke-width="0" fill="#cb7d66" fill-opacity="0.807843137254902" />
<path d="M550,-970 L766,-98 L486,-1162 L134,-282 L470,-598 L678,-678 Z" stroke-width="0" fill="#428800" fill-opacity="0.08235294117647059" />
<path d="M414,-1042 L634,-234 L582,-254 L570,-174 L570,-602 L482,-258 Z" stroke-width="0" fill="#80381b" fill-opacity="0.37254901960784315" />
<path d="M458,-1122 L298,-794 L90,-1026 L450,-710 L642,-826 L318,-94 Z" stroke-width="0" fill="#5a9665" fill-opacity="0.7490196078431373" />
<path d="M318,-202 L150,-1038 L350,-238 L318,-1234 L126,-954 L438,-1142 Z" stroke-width="0" fill="#13b7c5" fill-opacity="0.32941176470588235" />
<path d="M482,-1086 L450,-838 L530,-1218 L202,-1074 L262,-806 L94,-618 Z" stroke-width="0" fill="#4f8e69" fill-opacity="0.23137254901960785" />
<path d="M290,-394 L354,-566 L134,-546 L534,-570 L798,-518 L142,-530 Z" stroke-width="0" fill="#e7ef82" fill-opacity="0.8980392156862745" />
<path d="M766,-314 L394,-690 L146,-550 L450,-250 L114,-302 L634,-1050 Z" stroke-width="0" fill="#dcee50" fill-opacity="0.1607843137254902" />
<path d="M454,-590 L254,-630 L170,-1294 L502,-1086 L738,-170 L682,-918 Z" stroke-width="0" fill="#626332" fill-opacity="0.5803921568627451" />
<path d="M322,-306 L518,-418 L726,-714 L710,-934 L146,-362 L718,-634 Z" stroke-width="0" fill="#d2f31f" fill-opacity="0.6313725490196078" />
<path d="M146,-154 L278,-1050 L790,-742 L226,-606 L90,-1174 L678,-286 Z" stroke-width="0" fill="#af4d4c" fill-opacity="0.8156862745098039" />
<path d="M726,-526 L98,-198 L358,-114 L582,-410 L598,-634 L758,-390 Z" stroke-width="0" fill="#290000" fill-opacity="0.5215686274509804" />
<path d="M542,-910 L258,-1142 L254,-422 L86,-458 L222,-1250 L266,-1022 Z" stroke-width="0" fill="#092300" fill-opacity="0.803921568627451" />
<path d="M462,-522 L314,-754 L450,-110 L698,-918 L318,-1274 L578,-746 Z" stroke-width="0" fill="#899275" fill-opacity="0.20392156862745098" />
<path d="M698,-518 L278,-722 L206,-842 L210,-82 L146,-338 L246,-566 Z" stroke-width="0" fill="#331725" fill-opacity="0.6862745098039216" />
<path d="M734,-1114 L154,-1262 L450,-114 L638,-522 L374,-534 L490,-246 Z" stroke-width="0" fill="#e17f8a" fill-opacity="0.3215686274509804" />
<path d="M330,-122 L730,-758 L498,-482 L682,-806 L290,-602 L322,-526 Z" stroke-width="0" fill="#259325" fill-opacity="0.07450980392156863" />
<path d="M578,-466 L110,-1278 L90,-722 L466,-350 L150,-86 L338,-326 Z" stroke-width="0" fill="#30222a" fill-opacity="0.49411764705882355" />
<path d="M730,-138 L110,-874 L622,-1238 L186,-546 L786,-790 L90,-1222 Z" stroke-width="0" fill="#36cf76" fill-opacity="0.06666666666666667" />
<path d="M446,-750 L406,-474 L142,-302 L638,-1038 L338,-426 L190,-1222 Z" stroke-width="0" fill="#e0a2b6" fill-opacity="0.13333333333333333" />
<path d="M578,-614 L210,-302 L290,-302 L338,-138 L566,-854 L638,-934 Z" stroke-width="0" fill="#b5f08d" fill-opacity="0.14901960784313725" />
<path d="M198,-602 L314,-322 L242,-1274 L322,-410 L782,-150 L158,-398 Z" stroke-width="0" fill="#736336" fill-opacity="0.12549019607843137" />
<path d="M526,-1094 L154,-574 L434,-1222 L590,-510 L638,-1078 L194,-1002 Z" stroke-width="0" fill="#61da58" fill-opacity="0.13333333333333333" />
<path d="M534,-426 L194,-286 L254,-854 L342,-762 L650,-506 L246,-338 Z" stroke-width="0" fill="#2e004a" fill-opacity="0.18823529411764706" />
<path d="M302,-390 L438,-462 L770,-486 L414,-658 L170,-842 L366,-314 Z" stroke-width="0" fill="#8f190b" fill-opacity="0.26666666666666666" />
<path d="M390,-102 L154,-94 L226,-686 L386,-162 L602,-910 L566,-1126 Z" stroke-width="0" fill="#0f4d00" fill-opacity="0.5019607843137255" />
<path d="M446,-214 L130,-754 L486,-110 L410,-670 L658,-322 L102,-858 Z" stroke-width="0" fill="#095200" fill-opacity="0.5019607843137255" />
<path d="M578,-158 L94,-522 L482,-1254 L362,-142 L282,-162 L258,-802 Z" stroke-width="0" fill="#57000d" fill-opacity="0.32941176470588235" />
<path d="M114,-138 L334,-446 L374,-462 L110,-1194 L122,-1142 L358,-714 Z" stroke-width="0" fill="#1f351e" fill-opacity="0.13725490196078433" />
<path d="M690,-962 L338,-966 L338,-310 L262,-1034 L310,-790 L150,-1074 Z" stroke-width="0" fill="#f5c494" fill-opacity="0.6039215686274509" />
<path d="M694,-222 L290,-722 L758,-614 L738,-1106 L146,-766 L730,-126 Z" stroke-width="0" fill="#694c47" fill-opacity="0.28627450980392155" />
<path d="M142,-806 L374,-498 L630,-1022 L726,-814 L486,-534 L438,-414 Z" stroke-width="0" fill="#edcf58" fill-opacity="0.6470588235294118" />
<path d="M546,-846 L686,-618 L662,-1098 L522,-274 L242,-694 L394,-698 Z" stroke-width="0" fill="#0a3f22" fill-opacity="0.4666666666666667" />
<path d="M514,-830 L750,-682 L506,-254 L274,-1114 L378,-94 L382,-678 Z" stroke-width="0" fill="#440000" fill-opacity="0.5019607843137255" />
<path d="M434,-86 L178,-690 L406,-454 L658,-110 L634,-502 L246,-1178 Z" stroke-width="0" fill="#69690d" fill-opacity="0.4196078431372549" />
<path d="M234,-150 L798,-386 L390,-802 L122,-726 L274,-1262 L442,-270 Z" stroke-width="0" fill="#55613b" fill-opacity="0.5019607843137255" />
<path d="M662,-342 L534,-714 L702,-186 L234,-626 L390,-238 L186,-1138 Z" stroke-width="0" fill="#6f2f00" fill-opacity="0.4470588235294118" />
<text x="448.0" y="0" font-size="70.0" fill="black" text-anchor="middle" transform="translate(0,17.5)">3 OF EARTH</text>
</svg>