<?xml version="1.0" encoding="UTF-8"?>
<svg xmlns="http://www.w3.org/2000/svg" xmlns:xlink="http://www.w3.org/1999/xlink"
     width="896" height="1496" viewBox="0 -1400 896 1496" style="font-size:70;font-family:Poor Richard, Times New Roman;stroke:black;stroke-width:1;fill:none">
<defs>
</defs>
<path d="M642,-690 L398,-410 L762,-670 L322,-250 L262,-554 L746,-318 Z" stroke-width="0" fill="#f504e5" fill-opacity="0.06274509803921569" />
<path d="M222,-762 L394,-114 L166,-1114 L130,-826 L330,-178 L314,-298 Z" stroke-width="0" fill="#fcfff1" fill-opacity="0.1568627450980392" />
<path d="M158,-1282 L258,-850 L366,-638 L598,-1282 L222,-158 L726,-662 Z" stroke-width="0" fill="#ce5c00" fill-opacity="0.3411764705882353" />
<path d="M750,-558 L90,-186 L622,-450 L766,-866 L290,-266 L638,-326 Z" stroke-width="0" fill="#f3a2f4" fill-opacity="0.0784313725490196" />
<path d="M342,-382 L382,-1066 L650,-462 L810,-270 L194,-538 L694,-314 Z" stroke-width="0" fill="#f6c96b" fill-opacity="0.403921568627451" />
<path d="M630,-1202 L578,-1170 L150,-686 L170,-242 L206,-1118 L342,-454 Z" stroke-width="0" fill="#d6baea" fill-opacity="0.00784313725490196" />
<path d="M258,-210 L554,-154 L754,-202 L154,-886 L422,-890 L462,-814 Z" stroke-width="0" fill="#d92cc7" fill-opacity="0.050980392156862744" />
<path d="M626,-674 L382,-114 L154,-142 L662,-1298 L394,-742 L546,-874 Z" stroke-width="0" fill="#99413b" fill-opacity="0.9058823529411765" />
<path d="M226,-306 L370,-262 L142,-310 L170,-218 L330,-1146 L250,-526 Z" stroke-width="0" fill="#fafae2" fill-opacity="0.058823529411764705" />
<path d="M578,-506 L538,-1258 L214,-458 L278,-402 L370,-110 L522,-558 Z" stroke-width="0" fill="#ebef24" fill-opacity="0.023529411764705882" />
<path d="M214,-270 L142,-1078 L246,-102 L350,-666 L158,-1190 L798,-966 Z" stroke-width="0" fill="#fc4203" fill-opacity="0.08627450980392157" />
<path d="M450,-998 L258,-910 L582,-1306 L390,-694 L506,-850 L710,-822 Z" stroke-width="0" fill="#ef8b00" fill-opacity="0.19215686274509805" />
<path d="M86,-310 L118,-170 L134,-778 L170,-1146 L138,-446 L490,-870 Z" stroke-width="0" fill="#de9603" fill-opacity="0.5019607843137255" />
<path d="M562,-318 L342,-206 L142,-182 L602,-1138 L550,-586 L162,-246 Z" stroke-width="0" fill="#fbf7b9" fill-opacity="0.10196078431372549" />
<path d="M790,-378 L154,-210 L498,-782 L510,-142 L678,-366 L606,-722 Z" stroke-width="0" fill="#fb28fc" fill-opacity="0.10980392156862745" />
<path d="M374,-790 L226,-574 L462,-974 L686,-238 L522,-650 L378,-1074 Z" stroke-width="0" fill="#e03865" fill-opacity="0.18823529411764706" />
<path d="M238,-726 L622,-566 L554,-458 L98,-566 L362,-90 L162,-1190 Z" stroke-width="0" fill="#fd880e" fill-opacity="0.4392156862745098" />
<path d="M650,-626 L714,-502 L354,-1102 L558,-770 L762,-542 L126,-354 Z" stroke-width="0" fill="#eec2eb" fill-opacity="0.11764705882352941" />
<path d="M442,-442 L346,-974 L478,-630 L238,-778 L110,-94 L266,-286 Z" stroke-width="0" fill="#711c1f" fill-opacity="0.7450980392156863" />
<path d="M302,-702 L638,-806 L722,-318 L398,-822 L370,-314 L630,-186 Z" stroke-width="0" fill="#ffbcf4" fill-opacity="0.792156862745098" />
<path d="M302,-862 L726,-490 L458,-802 L202,-1122 L138,-258 L622,-350 Z" stroke-width="0" fill="#eed9e9" fill-opacity="0.8745098039215686" />
<path d="M154,-1246 L634,-1162 L706,-718 L118,-818 L118,-654 L802,-1278 Z" stroke-width="0" fill="#fac960" fill-opacity="0.5333333333333333" />
<path d="M330,-282 L650,-162 L718,-874 L138,-1074 L742,-350 L402,-678 Z" stroke-width="0" fill="#ffe9d4" fill-opacity="0.9372549019607843" />
<path d="M330,-678 L362,-854 L466,-470 L198,-270 L498,-230 L314,-570 Z" stroke-width="0" fill="#dde3d0" fill-opacity="0.6705882352941176" />
<path d="M178,-646 L126,-662 L94,-1150 L630,-194 L226,-366 L390,-402 Z" stroke-width="0" fill="#feb743" fill-opacity="0.4549019607843137" />
<path d="M542,-502 L142,-390 L774,-1094 L162,-878 L522,-586 L514,-594 Z" stroke-width="0" fill="#fdf0e6" fill-opacity="0.8666666666666667" />
<path d="M510,-906 L182,-842 L194,-1042 L90,-226 L426,-1302 L398,-1190 Z" stroke-width="0" fill="#f0e79b" fill-opacity="0.8745098039215686" />
<path d="M110,-782 L610,-394 L406,-878 L102,-350 L398,-1290 L722,-750 Z" stroke-width="0" fill="#dae825" fill-opacity="0.24313725490196078" />
<path d="M594,-174 L342,-574 L738,-354 L602,-182 L542,-566 L194,-90 Z" stroke-width="0" fill="#80180e" fill-opacity="0.403921568627451" />
<path d="M314,-474 L758,-434 L738,-418 L298,-698 L162,-1086 L518,-838 Z" stroke-width="0" fill="#d66714" fill-opacity="0.027450980392156862" />
<path d="M602,-90 L722,-658 L494,-218 L230,-86 L698,-542 L390,-830 Z" stroke-width="0" fill="#8e4ae8" fill-opacity="0.1843137254901961" />
<path d="M390,-134 L690,-898 L734,-714 L214,-882 L354,-1270 L798,-82 Z" stroke-width="0" fill="#f4a104" fill-opacity="0.2901960784313726" />
<path d="M582,-794 L246,-1158 L122,-630 L282,-214 L138,-90 L374,-638 Z" stroke-width="0" fill="#e1a55f" fill-opacity="0.803921568627451" />
<path d="M374,-722 L734,-610 L418,-1090 L554,-674 L414,-910 L302,-170 Z" stroke-width="0" fill="#f76b69" fill-opacity="0.09803921568627451" />
<path d="M282,-1246 L774,-834 L122,-154 L670,-1022 L318,-1078 L250,-730 Z" stroke-width="0" fill="#f7e337" fill-opacity="0.2549019607843137" />
<path d="M586,-1290 L758,-750 L438,-1118 L550,-1222 L746,-866 L378,-1106 Z" stroke-width="0" fill="#f9eac6" fill-opacity="0.7411764705882353" />
<path d="M546,-1290 L230,-374 L426,-494 L558,-342 L518,-358 L810,-1230 Z" stroke-width="0" fill="#dccf5e" fill-opacity="0.3137254901960784" />
<path d="M526,-1278 L214,-530 L594,-746 L206,-1178 L686,-118 L382,-762 Z" stroke-width="0" fill="#cf0b04" fill-opacity="0.00784313725490196" />
<path d="M358,-1046 L754,-1310 L118,-358 L170,-962 L622,-182 L150,-510 Z" stroke-width="0" fill="#e6eeab" fill-opacity="0.596078431372549" />
<path d="M606,-606 L390,-706 L258,-94 L786,-574 L802,-162 L714,-1134 Z" stroke-width="0" fill="#ffe389" fill-opacity="0.41568627450980394" />
<path d="M498,-866 L110,-806 L306,-682 L238,-278 L698,-966 L694,-678 Z" stroke-width="0" fill="#f8fcd4" fill-opacity="0.8" />
<path d="M454,-414 L502,-90 L258,-902 L714,-574 L130,-98 L178,-1006 Z" stroke-width="0" fill="#f5f8a7" fill-opacity="0.23921568627450981" />
<path d="M350,-474 L274,-686 L114,-982 L386,-186 L250,-410 L94,-806 Z" stroke-width="0" fill="#f9d1a5" fill-opacity="0.9372549019607843" />
<path d="M522,-238 L422,-546 L250,-1186 L202,-330 L546,-402 L242,-550 Z" stroke-width="0" fill="#f9e7a1" fill-opacity="0.6941176470588235" />
<path d="M630,-1218 L138,-650 L98,-318 L650,-126 L354,-102 L310,-634 Z" stroke-width="0" fill="#f5aa7b" fill-opacity="0.3843137254901961" />
<path d="M426,-514 L398,-1306 L310,-830 L594,-194 L322,-498 L662,-1210 Z" stroke-width="0" fill="#faeba9" fill-opacity="0.9490196078431372" />
<path d="M638,-666 L270,-1198 L578,-398 L566,-790 L146,-1166 L594,-966 Z" stroke-width="0" fill="#e6dd66" fill-opacity="0.39215686274509803" />
<path d="M458,-178 L506,-182 L422,-266 L794,-958 L122,-326 L498,-1294 Z" stroke-width="0" fill="#fbf307" fill-opacity="0.047058823529411764" />
<path d="M570,-238 L482,-286 L462,-670 L130,-790 L714,-238 L146,-450 Z" stroke-width="0" fill="#f4acde" fill-opacity="0.4235294117647059" />
<path d="M662,-814 L414,-562 L546,-362 L742,-594 L294,-882 L218,-710 Z" stroke-width="0" fill="#d6f763" fill-opacity="0.07450980392156863" />
<path d="M558,-754 L182,-1166 L470,-678 L466,-626 L226,-438 L550,-226 Z" stroke-width="0" fill="#e4cef9" fill-opacity="0.24705882352941178" />
<path d="M130,-946 L234,-546 L90,-418 L286,-1094 L714,-94 L274,-334 Z" stroke-width="0" fill="#9c6519" fill-opacity="0.00392156862745098" />
<path d="M526,-798 L718,-734 L642,-826 L150,-1110 L638,-266 L658,-606 Z" stroke-width="0" fill="#fdfc9e" fill-opacity="0.8823529411764706" />
<path d="M770,-774 L714,-350 L450,-926 L338,-1162 L546,-298 L250,-1194 Z" stroke-width="0" fill="#f8f9d6" fill-opacity="0.41568627450980394" />
<path d="M378,-570 L494,-1166 L610,-1258 L286,-994 L326,-502 L302,-374 Z" stroke-width="0" fill="#fe7a2d" fill-opacity="0.0784313725490196" />
<path d="M330,-542 L210,-138 L642,-266 L158,-570 L238,-218 L786,-886 Z" stroke-width="0" fill="#def7e6" fill-opacity="0.10196078431372549" />
<path d="M546,-258 L390,-1182 L98,-518 L314,-974 L218,-1014 L218,-526 Z" stroke-width="0" fill="#de483e" fill-opacity="0.03137254901960784" />
<path d="M98,-946 L190,-682 L282,-670 L458,-1198 L234,-1166 L386,-686 Z" stroke-width="0" fill="#c99a1a" fill-opacity="0.00784313725490196" />
<path d="M690,-690 L218,-598 L406,-1022 L558,-386 L250,-382 L138,-866 Z" stroke-width="0" fill="#f7b906" fill-opacity="0.01568627450980392" />
<path d="M198,-1218 L498,-442 L738,-322 L718,-798 L190,-782 L494,-1198 Z" stroke-width="0" fill="#f2d00f" fill-opacity="0.1411764705882353" />
<path d="M598,-174 L278,-1170 L218,-610 L318,-202 L142,-374 L550,-266 Z" stroke-width="0" fill="#eee7f3" fill-opacity="0.3215686274509804" />
<path d="M650,-1154 L622,-558 L466,-1254 L286,-502 L662,-862 L162,-214 Z" stroke-width="0" fill="#fbf7d8" fill-opacity="0.39215686274509803" />
<path d="M598,-482 L126,-466 L694,-1058 L386,-1054 L178,-1046 L182,-934 Z" stroke-width="0" fill="#fedca8" fill-opacity="0.7803921568627451" />
<path d="M142,-690 L686,-1250 L518,-458 L334,-326 L154,-822 L186,-226 Z" stroke-width="0" fill="#e8fcb6" fill-opacity="0.3843137254901961" />
<path d="M486,-394 L714,-1038 L402,-1298 L758,-186 L214,-734 L450,-870 Z" stroke-width="0" fill="#fbb5d1" fill-opacity="0.11372549019607843" />
<path d="M222,-642 L186,-402 L338,-582 L534,-266 L802,-250 L114,-826 Z" stroke-width="0" fill="#e7d69e" fill-opacity="0.7647058823529411" />
<path d="M350,-1142 L282,-598 L270,-798 L730,-1130 L654,-894 L578,-434 Z" stroke-width="0" fill="#a1fa47" fill-opacity="0.03529411764705882" />
<path d="M82,-602 L634,-534 L266,-1302 L458,-930 L338,-1302 L422,-694 Z" stroke-width="0" fill="#e6d590" fill-opacity="0.7764705882352941" />
<path d="M210,-906 L386,-990 L514,-454 L466,-510 L474,-102 L438,-94 Z" stroke-width="0" fill="#f2de72" fill-opacity="0.34901960784313724" />
<path d="M422,-586 L134,-1298 L258,-186 L142,-778 L454,-830 L570,-342 Z" stroke-width="0" fill="#b68e67" fill-opacity="0.043137254901960784" />
<path d="M318,-134 L482,-1198 L598,-622 L174,-1094 L386,-1238 L574,-686 Z" stroke-width="0" fill="#e5eaaa" fill-opacity="0.08627450980392157" />
<path d="M694,-450 L174,-970 L514,-230 L734,-1026 L650,-154 L170,-802 Z" stroke-width="0" fill="#fbefaf" fill-opacity="0.6078431372549019" />
<path d="M506,-510 L714,-914 L538,-678 L454,-522 L598,-710 L650,-806 Z" stroke-width="0" fill="#fcc3fb" fill-opacity="0.3411764705882353" />
<path d="M390,-670 L650,-478 L634,-1046 L526,-778 L762,-414 L178,-722 Z" stroke-width="0" fill="#f2dbf7" fill-opacity="0.13333333333333333" />
<path d="M810,-870 L398,-298 L390,-146 L398,-242 L754,-750 L786,-702 Z" stroke-width="0" fill="#fccb0b" fill-opacity="0.20784313725490197" />
<path d="M366,-102 L102,-942 L178,-274 L590,-562 L618,-878 L358,-542 Z" stroke-width="0" fill="#e03658" fill-opacity="0.07450980392156863" />
<path d="M562,-446 L418,-810 L214,-1110 L582,-246 L470,-710 L542,-714 Z" stroke-width="0" fill="#e8dbd1" fill-opacity="0.1411764705882353" />
<path d="M390,-270 L334,-150 L382,-522 L626,-698 L82,-170 L190,-134 Z" stroke-width="0" fill="#984169" fill-opacity="0.6627450980392157" />
<path d="M658,-1118 L178,-214 L298,-446 L190,-710 L214,-298 L430,-306 Z" stroke-width="0" fill="#c9e2a3" fill-opacity="0.03137254901960784" />
<path d="M126,-794 L250,-590 L258,-262 L682,-86 L802,-458 L502,-766 Z" stroke-width="0" fill="#fff798" fill-opacity="0.7803921568627451" />
<path d="M450,-1258 L446,-418 L350,-1014 L530,-126 L538,-986 L366,-622 Z" stroke-width="0" fill="#e2f7ac" fill-opacity="0.23529411764705882" />
<path d="M398,-778 L178,-330 L702,-658 L106,-538 L94,-226 L198,-126 Z" stroke-width="0" fill="#fd953c" fill-opacity="0.22745098039215686" />
<path d="M754,-1118 L234,-758 L782,-354 L306,-1166 L302,-246 L730,-282 Z" stroke-width="0" fill="#dffecd" fill-opacity="0.09019607843137255" />
<path d="M154,-822 L294,-390 L126,-382 L750,-946 L362,-802 L602,-122 Z" stroke-width="0" fill="#edf7b3" fill-opacity="0.1568627450980392" />
<path d="M514,-538 L254,-506 L302,-1154 L162,-454 L746,-538 L614,-986 Z" stroke-width="0" fill="#fac8da" fill-opacity="0.18823529411764706" />
<path d="M470,-1074 L558,-1190 L210,-194 L590,-514 L370,-98 L426,-174 Z" stroke-width="0" fill="#ece5c1" fill-opacity="0.12156862745098039" />
<path d="M518,-858 L246,-82 L630,-330 L222,-454 L170,-162 L218,-950 Z" stroke-width="0" fill="#f6d668" fill-opacity="0.23137254901960785" />
<path d="M550,-1122 L538,-90 L394,-1270 L142,-166 L458,-1258 L638,-234 Z" stroke-width="0" fill="#e8edee" fill-opacity="0.06666666666666667" />
<path d="M138,-766 L694,-650 L590,-578 L694,-198 L574,-774 L430,-1082 Z" stroke-width="0" fill="#f4dbd8" fill-opacity="0.37254901960784315" />
<path d="M446,-942 L146,-634 L506,-634 L742,-378 L730,-150 L146,-1266 Z" stroke-width="0" fill="#dbd663" fill-opacity="0.06666666666666667" />
<path d="M246,-730 L674,-158 L782,-1062 L318,-662 L426,-870 L298,-714 Z" stroke-width="0" fill="#e8fdef" fill-opacity="0.21176470588235294" />
<path d="M370,-622 L434,-518 L398,-510 L510,-678 L314,-238 L126,-538 Z" stroke-width="0" fill="#eec5e7" fill-opacity="0.17647058823529413" />
<path d="M462,-510 L330,-510 L370,-538 L170,-726 L134,-626 L322,-90 Z" stroke-width="0" fill="#d9804b" fill-opacity="0.09411764705882353" />
<path d="M146,-602 L766,-946 L794,-286 L562,-646 L346,-114 L614,-142 Z" stroke-width="0" fill="#ff9841" fill-opacity="0.08235294117647059" />
<path d="M638,-474 L242,-106 L134,-946 L334,-146 L498,-842 L358,-538 Z" stroke-width="0" fill="#fee297" fill-opacity="0.7529411764705882" />
<path d="M178,-130 L594,-818 L170,-970 L654,-186 L598,-1278 L86,-590 Z" stroke-width="0" fill="#bfe15e" fill-opacity="0.11764705882352941" />
<path d="M742,-654 L282,-634 L354,-450 L470,-1238 L106,-1058 L142,-1230 Z" stroke-width="0" fill="#e9d2c9" fill-opacity="0.3333333333333333" />
<path d="M582,-1078 L146,-798 L662,-654 L626,-858 L382,-794 L750,-126 Z" stroke-width="0" fill="#bfb2c4" fill-opacity="0.00784313725490196" />
<path d="M322,-626 L346,-830 L654,-502 L446,-150 L534,-1182 L718,-994 Z" stroke-width="0" fill="#faa2f5" fill-opacity="0.050980392156862744" />
<path d="M518,-1030 L274,-638 L694,-1014 L274,-214 L606,-702 L430,-298 Z" stroke-width="0" fill="#fff7a6" fill-opacity="0.5058823529411764" />
<text x="448.0" y="0" font-size="70.0" fill="black" text-anchor="middle" transform="translate(0,17.5)">QUEEN OF EARTH</text>
</svg>