<?xml version="1.0" encoding="UTF-8"?>
<svg xmlns="http://www.w3.org/2000/svg" xmlns:xlink="http://www.w3.org/1999/xlink"
     width="896" height="1496" viewBox="0 -1400 896 1496" style="font-size:70;font-family:Poor Richard, Times New Roman;stroke:black;stroke-width:1;fill:none">
<defs>
</defs>
<path d="M118,-866 L878,-558 L626,-570 L102,-1070 L414,-474 L150,-318 Z" stroke-width="0" fill="#fbf6f3" fill-opacity="0.01568627450980392" />
<path d="M654,-914 L938,-106 L906,-810 L770,-1042 L674,-1174 L610,-450 Z" stroke-width="0" fill="#d1eef1" fill-opacity="0.027450980392156862" />
<path d="M578,-378 L550,-934 L854,-1066 L298,-722 L294,-194 L774,-1202 Z" stroke-width="0" fill="#f5f6fa" fill-opacity="0.11372549019607843" />
<path d="M534,-962 L842,-910 L394,-278 L202,-190 L630,-1266 L658,-206 Z" stroke-width="0" fill="#55d44f" fill-opacity="0.027450980392156862" />
<path d="M562,-962 L814,-210 L886,-138 L238,-98 L298,-238 L154,-462 Z" stroke-width="0" fill="#f5f5ee" fill-opacity="0.027450980392156862" />
<path d="M102,-434 L386,-574 L802,-230 L346,-882 L210,-206 L318,-626 Z" stroke-width="0" fill="#eff5e0" fill-opacity="0.03137254901960784" />
<path d="M670,-506 L570,-414 L230,-978 L174,-302 L166,-826 L134,-290 Z" stroke-width="0" fill="#e2fef2" fill-opacity="0.00784313725490196" />
<path d="M286,-1050 L154,-514 L494,-122 L502,-834 L666,-438 L134,-330 Z" stroke-width="0" fill="#f8f3f3" fill-opacity="0.0392156862745098" />
<path d="M814,-398 L634,-778 L630,-658 L874,-694 L386,-106 L154,-950 Z" stroke-width="0" fill="#faffff" fill-opacity="0.08235294117647059" />
<path d="M722,-1014 L858,-1058 L246,-94 L862,-154 L578,-182 L234,-630 Z" stroke-width="0" fill="#fcddf9" fill-opacity="0.06666666666666667" />
<path d="M90,-486 L194,-1082 L178,-546 L150,-274 L586,-326 L182,-418 Z" stroke-width="0" fill="#fee7e7" fill-opacity="0.0784313725490196" />
<path d="M658,-594 L238,-1214 L530,-198 L522,-362 L734,-478 L610,-746 Z" stroke-width="0" fill="#c6fe87" fill-opacity="0.00392156862745098" />
<path d="M694,-782 L170,-398 L258,-250 L790,-1134 L410,-294 L542,-106 Z" stroke-width="0" fill="#e6d2cd" fill-opacity="0.00392156862745098" />
<path d="M766,-366 L278,-530 L438,-306 L586,-150 L902,-614 L142,-1234 Z" stroke-width="0" fill="#146e2a" fill-opacity="0.0" />
<path d="M422,-706 L82,-770 L406,-886 L598,-602 L882,-422 L962,-986 Z" stroke-width="0" fill="#fcf1e3" fill-opacity="0.047058823529411764" />
<path d="M82,-118 L714,-266 L310,-314 L542,-798 L666,-1194 L550,-666 Z" stroke-width="0" fill="#fef7f5" fill-opacity="0.027450980392156862" />
<path d="M818,-490 L766,-1102 L734,-430 L618,-202 L238,-1090 L190,-670 Z" stroke-width="0" fill="#f9eac9" fill-opacity="0.11372549019607843" />
<path d="M906,-1246 L434,-122 L594,-942 L358,-234 L394,-198 L310,-874 Z" stroke-width="0" fill="#fefbe1" fill-opacity="0.0196078431372549" />
<path d="M974,-954 L590,-290 L658,-910 L206,-630 L870,-274 L326,-1094 Z" stroke-width="0" fill="#d4cec2" fill-opacity="0.0196078431372549" />
<path d="M750,-526 L370,-174 L934,-710 L462,-1022 L90,-590 L750,-542 Z" stroke-width="0" fill="#020000" fill-opacity="0.9529411764705882" />
<path d="M742,-98 L810,-794 L566,-1022 L854,-886 L770,-134 L946,-114 Z" stroke-width="0" fill="#e8fdfa" fill-opacity="0.1843137254901961" />
<path d="M502,-370 L534,-246 L346,-702 L358,-786 L698,-574 L130,-1270 Z" stroke-width="0" fill="#ecf5d4" fill-opacity="0.14901960784313725" />
<path d="M134,-778 L606,-114 L506,-514 L630,-1030 L610,-678 L610,-342 Z" stroke-width="0" fill="#e8eae7" fill-opacity="0.0196078431372549" />
<path d="M742,-178 L194,-1158 L298,-754 L102,-938 L634,-818 L222,-362 Z" stroke-width="0" fill="#ffe8ff" fill-opacity="0.17254901960784313" />
<path d="M170,-930 L106,-946 L626,-258 L122,-582 L702,-270 L318,-1258 Z" stroke-width="0" fill="#1fc610" fill-opacity="0.0" />
<path d="M750,-130 L282,-934 L86,-938 L326,-134 L194,-334 L366,-626 Z" stroke-width="0" fill="#fbedfa" fill-opacity="0.011764705882352941" />
<path d="M846,-390 L934,-562 L958,-930 L330,-262 L634,-350 L478,-862 Z" stroke-width="0" fill="#fdf1f7" fill-opacity="0.13725490196078433" />
<path d="M202,-938 L610,-1006 L430,-506 L262,-766 L486,-1158 L478,-266 Z" stroke-width="0" fill="#4524cc" fill-opacity="0.0" />
<path d="M122,-354 L178,-462 L182,-858 L622,-546 L734,-1018 L98,-1202 Z" stroke-width="0" fill="#fafbf5" fill-opacity="0.011764705882352941" />
<path d="M422,-646 L466,-422 L450,-866 L482,-218 L190,-98 L374,-1182 Z" stroke-width="0" fill="#f2f7fe" fill-opacity="0.027450980392156862" />
<path d="M482,-778 L322,-618 L350,-850 L146,-1162 L174,-354 L238,-1054 Z" stroke-width="0" fill="#dde2fd" fill-opacity="0.0392156862745098" />
<path d="M602,-426 L810,-306 L158,-554 L526,-1206 L826,-958 L450,-842 Z" stroke-width="0" fill="#000005" fill-opacity="0.8274509803921568" />
<path d="M202,-974 L150,-1002 L486,-886 L858,-658 L494,-638 L786,-842 Z" stroke-width="0" fill="#f7cee1" fill-opacity="0.6235294117647059" />
<path d="M770,-1130 L374,-1026 L534,-1158 L374,-998 L838,-1030 L906,-1050 Z" stroke-width="0" fill="#eefcd1" fill-opacity="0.050980392156862744" />
<path d="M690,-810 L206,-186 L138,-690 L830,-262 L630,-138 L738,-242 Z" stroke-width="0" fill="#f7e0f2" fill-opacity="0.011764705882352941" />
<path d="M538,-998 L138,-214 L574,-946 L630,-730 L146,-194 L938,-118 Z" stroke-width="0" fill="#c1cef9" fill-opacity="0.00784313725490196" />
<path d="M930,-554 L258,-122 L934,-762 L590,-502 L578,-490 L430,-638 Z" stroke-width="0" fill="#a1fdf0" fill-opacity="0.011764705882352941" />
<path d="M866,-582 L910,-622 L374,-770 L102,-762 L426,-278 L162,-810 Z" stroke-width="0" fill="#380000" fill-opacity="0.9921568627450981" />
<path d="M898,-514 L430,-1278 L194,-158 L274,-570 L974,-642 L670,-922 Z" stroke-width="0" fill="#f2f0ed" fill-opacity="0.09411764705882353" />
<path d="M682,-930 L898,-618 L350,-726 L638,-774 L510,-1242 L86,-1230 Z" stroke-width="0" fill="#e7eaeb" fill-opacity="0.0196078431372549" />
<path d="M346,-1018 L346,-362 L590,-778 L662,-826 L786,-1262 L226,-454 Z" stroke-width="0" fill="#ef89e6" fill-opacity="0.00392156862745098" />
<path d="M310,-394 L198,-390 L358,-422 L214,-1042 L266,-90 L166,-922 Z" stroke-width="0" fill="#f2e7b4" fill-opacity="0.0196078431372549" />
<path d="M174,-786 L958,-434 L946,-658 L222,-626 L698,-734 L538,-330 Z" stroke-width="0" fill="#f2f3f7" fill-opacity="0.09803921568627451" />
<path d="M822,-1222 L566,-122 L250,-434 L802,-1082 L718,-394 L174,-458 Z" stroke-width="0" fill="#d1fbfc" fill-opacity="0.8823529411764706" />
<path d="M210,-778 L462,-590 L282,-338 L298,-378 L374,-642 L274,-678 Z" stroke-width="0" fill="#0b9ccf" fill-opacity="0.2980392156862745" />
<path d="M114,-946 L126,-706 L102,-758 L898,-894 L142,-442 L850,-398 Z" stroke-width="0" fill="#030102" fill-opacity="0.7529411764705882" />
<path d="M402,-1242 L442,-554 L258,-470 L450,-474 L362,-1110 L518,-274 Z" stroke-width="0" fill="#216297" fill-opacity="0.0" />
<path d="M842,-978 L434,-246 L658,-1010 L254,-1178 L690,-902 L934,-934 Z" stroke-width="0" fill="#d7e4f9" fill-opacity="0.08235294117647059" />
<path d="M818,-498 L694,-442 L174,-182 L498,-546 L850,-718 L858,-850 Z" stroke-width="0" fill="#0c010b" fill-opacity="0.8862745098039215" />
<path d="M842,-370 L698,-310 L554,-822 L170,-514 L602,-1262 L722,-518 Z" stroke-width="0" fill="#d6c9aa" fill-opacity="0.027450980392156862" />
<path d="M386,-226 L542,-1086 L190,-1034 L650,-562 L130,-734 L866,-702 Z" stroke-width="0" fill="#7df8ef" fill-opacity="0.00392156862745098" />
<path d="M970,-490 L562,-474 L146,-414 L630,-1246 L934,-1186 L214,-970 Z" stroke-width="0" fill="#fceeff" fill-opacity="0.5176470588235295" />
<path d="M486,-698 L758,-170 L874,-942 L294,-866 L122,-814 L90,-250 Z" stroke-width="0" fill="#e7a4b2" fill-opacity="0.00392156862745098" />
<path d="M174,-274 L822,-238 L202,-1074 L590,-190 L890,-534 L506,-1258 Z" stroke-width="0" fill="#d3e53f" fill-opacity="0.00784313725490196" />
<path d="M962,-102 L202,-818 L550,-682 L346,-330 L274,-274 L562,-98 Z" stroke-width="0" fill="#9655be" fill-opacity="0.0" />
<path d="M98,-1210 L302,-594 L338,-110 L746,-650 L322,-978 L814,-526 Z" stroke-width="0" fill="#d6def0" fill-opacity="0.00784313725490196" />
<path d="M586,-206 L870,-130 L130,-1154 L810,-366 L182,-322 L602,-498 Z" stroke-width="0" fill="#160304" fill-opacity="0.7411764705882353" />
<path d="M158,-970 L98,-614 L766,-1094 L762,-1142 L310,-346 L846,-322 Z" stroke-width="0" fill="#fcfcfe" fill-opacity="0.7215686274509804" />
<path d="M682,-158 L238,-1166 L250,-1002 L814,-910 L658,-398 L114,-918 Z" stroke-width="0" fill="#fff0f4" fill-opacity="0.023529411764705882" />
<path d="M182,-158 L82,-962 L450,-1206 L318,-1194 L410,-1250 L418,-194 Z" stroke-width="0" fill="#eff9ff" fill-opacity="0.9764705882352941" />
<path d="M414,-1278 L198,-354 L226,-762 L470,-254 L386,-522 L802,-1038 Z" stroke-width="0" fill="#fbd7e0" fill-opacity="0.00784313725490196" />
<path d="M246,-702 L910,-662 L442,-470 L810,-662 L718,-1026 L542,-1090 Z" stroke-width="0" fill="#2132ca" fill-opacity="0.09019607843137255" />
<path d="M322,-506 L658,-834 L426,-962 L802,-162 L622,-806 L474,-534 Z" stroke-width="0" fill="#2b2523" fill-opacity="0.8431372549019608" />
<path d="M310,-274 L962,-258 L266,-362 L886,-490 L494,-886 L786,-1246 Z" stroke-width="0" fill="#f1eff9" fill-opacity="0.0196078431372549" />
<path d="M870,-1278 L350,-666 L202,-210 L546,-946 L130,-1278 L882,-730 Z" stroke-width="0" fill="#fafadb" fill-opacity="0.17647058823529413" />
<path d="M334,-914 L666,-730 L538,-490 L738,-438 L950,-638 L634,-1278 Z" stroke-width="0" fill="#735c49" fill-opacity="0.16862745098039217" />
<path d="M142,-250 L882,-794 L346,-1270 L950,-1074 L694,-650 L198,-278 Z" stroke-width="0" fill="#f9f2f2" fill-opacity="0.03137254901960784" />
<path d="M94,-1054 L710,-530 L886,-142 L562,-122 L674,-1002 L458,-530 Z" stroke-width="0" fill="#fcf0e1" fill-opacity="0.10980392156862745" />
<path d="M806,-314 L374,-806 L82,-1030 L146,-150 L98,-166 L462,-206 Z" stroke-width="0" fill="#edf6fd" fill-opacity="0.027450980392156862" />
<path d="M882,-362 L358,-146 L594,-146 L250,-1166 L302,-122 L442,-754 Z" stroke-width="0" fill="#a0a8b5" fill-opacity="0.00392156862745098" />
<path d="M102,-142 L290,-518 L358,-914 L790,-614 L270,-990 L154,-106 Z" stroke-width="0" fill="#fafcf8" fill-opacity="0.023529411764705882" />
<path d="M946,-598 L678,-294 L82,-418 L314,-1082 L694,-946 L546,-1270 Z" stroke-width="0" fill="#f2ecfc" fill-opacity="0.03529411764705882" />
<path d="M302,-722 L778,-954 L974,-1170 L310,-178 L714,-594 L710,-1226 Z" stroke-width="0" fill="#faeff8" fill-opacity="0.8784313725490196" />
<path d="M650,-226 L222,-130 L342,-762 L482,-830 L506,-762 L422,-1158 Z" stroke-width="0" fill="#f8edff" fill-opacity="0.9568627450980393" />
<path d="M686,-134 L302,-854 L978,-1190 L254,-1094 L142,-726 L574,-222 Z" stroke-width="0" fill="#fdefea" fill-opacity="0.1450980392156863" />
<path d="M442,-214 L686,-506 L178,-310 L278,-1018 L870,-1002 L122,-798 Z" stroke-width="0" fill="#fad3e5" fill-opacity="0.011764705882352941" />
<path d="M194,-810 L514,-190 L626,-766 L490,-154 L238,-170 L606,-1002 Z" stroke-width="0" fill="#f7d8fd" fill-opacity="0.1803921568627451" />
<path d="M938,-750 L90,-542 L270,-562 L514,-686 L118,-382 L578,-222 Z" stroke-width="0" fill="#e7c9e9" fill-opacity="0.01568627450980392" />
<path d="M958,-910 L906,-1046 L878,-582 L198,-1050 L818,-822 L558,-854 Z" stroke-width="0" fill="#000000" fill-opacity="0.6549019607843137" />
<path d="M142,-106 L814,-1166 L578,-494 L150,-534 L202,-1082 L566,-114 Z" stroke-width="0" fill="#ffffdb" fill-opacity="1.0" />
<path d="M410,-1010 L94,-750 L662,-314 L830,-478 L302,-1246 L390,-250 Z" stroke-width="0" fill="#effeff" fill-opacity="0.9372549019607843" />
<path d="M546,-646 L354,-982 L850,-298 L502,-554 L630,-1218 L358,-834 Z" stroke-width="0" fill="#161500" fill-opacity="0.5019607843137255" />
<path d="M198,-1014 L518,-982 L910,-710 L954,-666 L94,-566 L366,-218 Z" stroke-width="0" fill="#f0e3ec" fill-opacity="0.07058823529411765" />
<path d="M290,-1198 L590,-434 L562,-134 L494,-446 L254,-1102 L682,-118 Z" stroke-width="0" fill="#fae8eb" fill-opacity="0.9725490196078431" />
<path d="M622,-682 L698,-474 L794,-638 L902,-754 L638,-846 L626,-982 Z" stroke-width="0" fill="#61bd59" fill-opacity="0.0" />
<path d="M366,-358 L882,-1130 L314,-334 L754,-602 L106,-942 L890,-510 Z" stroke-width="0" fill="#f1acf9" fill-opacity="0.01568627450980392" />
<path d="M270,-194 L86,-938 L866,-346 L578,-1202 L706,-362 L174,-590 Z" stroke-width="0" fill="#f7e8e5" fill-opacity="0.9647058823529412" />
<path d="M630,-434 L182,-1166 L226,-918 L478,-782 L590,-1114 L422,-610 Z" stroke-width="0" fill="#e3f8d0" fill-opacity="0.10196078431372549" />
<path d="M714,-322 L870,-854 L442,-242 L98,-1098 L626,-1262 L278,-406 Z" stroke-width="0" fill="#ddfdfa" fill-opacity="0.00784313725490196" />
<path d="M482,-890 L218,-422 L430,-174 L98,-1050 L862,-802 L326,-1010 Z" stroke-width="0" fill="#fb25ef" fill-opacity="0.10588235294117647" />
<path d="M642,-562 L358,-1046 L442,-426 L138,-170 L558,-526 L254,-478 Z" stroke-width="0" fill="#111b14" fill-opacity="0.7411764705882353" />
<path d="M370,-518 L170,-134 L890,-586 L214,-378 L166,-542 L442,-738 Z" stroke-width="0" fill="#f1f7fe" fill-opacity="0.9607843137254902" />
<path d="M798,-670 L830,-162 L826,-938 L934,-1202 L94,-966 L262,-790 Z" stroke-width="0" fill="#fec3ea" fill-opacity="0.00784313725490196" />
<path d="M818,-990 L622,-402 L202,-110 L166,-358 L686,-986 L538,-862 Z" stroke-width="0" fill="#edf5fe" fill-opacity="0.050980392156862744" />
<path d="M810,-258 L370,-682 L546,-1026 L294,-910 L202,-714 L582,-998 Z" stroke-width="0" fill="#0a0100" fill-opacity="0.5019607843137255" />
<path d="M886,-1074 L170,-622 L418,-350 L410,-586 L674,-810 L586,-534 Z" stroke-width="0" fill="#a2c681" fill-opacity="0.9882352941176471" />
<path d="M654,-254 L474,-318 L970,-158 L282,-210 L350,-574 L854,-606 Z" stroke-width="0" fill="#1f1c45" fill-opacity="0.9921568627450981" />
<path d="M454,-94 L942,-1270 L546,-1118 L286,-1210 L366,-1114 L850,-558 Z" stroke-width="0" fill="#e3f2e3" fill-opacity="0.0196078431372549" />
<path d="M398,-374 L330,-494 L966,-1094 L158,-486 L394,-194 L790,-598 Z" stroke-width="0" fill="#4f2b00" fill-opacity="0.12156862745098039" />
<path d="M106,-982 L434,-1122 L978,-530 L242,-1070 L106,-574 L762,-454 Z" stroke-width="0" fill="#33433d" fill-opacity="0.08235294117647059" />
<text x="448.0" y="0" font-size="70.0" fill="black" text-anchor="middle" transform="translate(0,17.5)">9 OF EARTH</text>
</svg>