<?xml version="1.0" encoding="UTF-8"?>
<svg xmlns="http://www.w3.org/2000/svg" xmlns:xlink="http://www.w3.org/1999/xlink"
     width="896" height="1496" viewBox="0 -1400 896 1496" style="font-size:70;font-family:Poor Richard, Times New Roman;stroke:black;stroke-width:1;fill:none">
<defs>
</defs>
<path d="M442,-514 L902,-234 L806,-1014 L806,-1134 L150,-642 L302,-430 Z" stroke-width="0" fill="#c3f5b4" fill-opacity="0.0196078431372549" />
<path d="M518,-226 L538,-274 L162,-1134 L374,-1158 L610,-114 L850,-602 Z" stroke-width="0" fill="#936376" fill-opacity="0.47058823529411764" />
<path d="M318,-590 L134,-222 L310,-234 L486,-730 L306,-382 L918,-822 Z" stroke-width="0" fill="#c448a0" fill-opacity="0.7450980392156863" />
<path d="M718,-870 L614,-198 L482,-170 L322,-270 L198,-486 L634,-242 Z" stroke-width="0" fill="#0703a1" fill-opacity="0.11764705882352941" />
<path d="M690,-1086 L974,-734 L782,-478 L342,-1158 L958,-582 L606,-526 Z" stroke-width="0" fill="#001400" fill-opacity="0.5019607843137255" />
<path d="M662,-86 L958,-506 L230,-430 L202,-754 L566,-1078 L802,-554 Z" stroke-width="0" fill="#995e1d" fill-opacity="0.7450980392156863" />
<path d="M798,-782 L410,-982 L154,-1210 L338,-778 L350,-1002 L546,-1266 Z" stroke-width="0" fill="#000035" fill-opacity="0.8470588235294118" />
<path d="M358,-202 L854,-218 L386,-270 L198,-266 L862,-1142 L686,-458 Z" stroke-width="0" fill="#0d3e17" fill-opacity="0.5098039215686274" />
<path d="M274,-1170 L270,-1258 L646,-1250 L498,-1138 L126,-358 L118,-222 Z" stroke-width="0" fill="#000026" fill-opacity="0.9137254901960784" />
<path d="M614,-230 L678,-534 L254,-910 L734,-274 L622,-614 L110,-110 Z" stroke-width="0" fill="#440000" fill-opacity="0.6509803921568628" />
<path d="M130,-1094 L826,-454 L390,-558 L386,-222 L770,-102 L630,-590 Z" stroke-width="0" fill="#ce80ed" fill-opacity="0.20784313725490197" />
<path d="M254,-962 L510,-898 L586,-1062 L978,-562 L738,-950 L318,-1234 Z" stroke-width="0" fill="#231932" fill-opacity="0.45098039215686275" />
<path d="M362,-454 L246,-274 L222,-934 L438,-454 L370,-530 L898,-746 Z" stroke-width="0" fill="#0911b9" fill-opacity="0.8705882352941177" />
<path d="M338,-542 L750,-1146 L486,-170 L558,-778 L434,-618 L582,-114 Z" stroke-width="0" fill="#9fc4f0" fill-opacity="0.5843137254901961" />
<path d="M150,-210 L162,-970 L246,-854 L338,-890 L138,-830 L298,-1094 Z" stroke-width="0" fill="#eb4b1f" fill-opacity="0.7333333333333333" />
<path d="M430,-142 L246,-610 L662,-694 L838,-1062 L518,-1054 L634,-602 Z" stroke-width="0" fill="#9d9619" fill-opacity="0.07450980392156863" />
<path d="M530,-298 L702,-722 L386,-454 L814,-998 L886,-570 L798,-886 Z" stroke-width="0" fill="#48e7b5" fill-opacity="0.33725490196078434" />
<path d="M962,-146 L466,-278 L662,-206 L354,-1010 L834,-666 L362,-318 Z" stroke-width="0" fill="#aac6b3" fill-opacity="0.6431372549019608" />
<path d="M526,-346 L710,-1122 L918,-338 L350,-1202 L922,-498 L658,-326 Z" stroke-width="0" fill="#9c9a55" fill-opacity="0.13333333333333333" />
<path d="M318,-422 L274,-482 L342,-354 L294,-530 L462,-694 L470,-490 Z" stroke-width="0" fill="#5153d9" fill-opacity="0.6196078431372549" />
<path d="M910,-326 L590,-466 L850,-106 L290,-146 L590,-354 L686,-1134 Z" stroke-width="0" fill="#a45200" fill-opacity="0.6705882352941176" />
<path d="M490,-602 L174,-430 L806,-734 L438,-270 L754,-814 L818,-434 Z" stroke-width="0" fill="#0d099c" fill-opacity="0.9333333333333333" />
<path d="M186,-970 L126,-310 L822,-806 L94,-430 L942,-442 L838,-1254 Z" stroke-width="0" fill="#000f23" fill-opacity="0.7686274509803922" />
<path d="M146,-874 L642,-1174 L574,-654 L214,-598 L390,-694 L262,-1278 Z" stroke-width="0" fill="#000000" fill-opacity="0.8509803921568627" />
<path d="M250,-170 L378,-1262 L738,-706 L762,-1118 L730,-322 L150,-1174 Z" stroke-width="0" fill="#00063e" fill-opacity="0.8784313725490196" />
<path d="M950,-150 L514,-742 L326,-890 L886,-1062 L110,-218 L322,-154 Z" stroke-width="0" fill="#ce1416" fill-opacity="0.5176470588235295" />
<path d="M866,-142 L490,-230 L102,-446 L142,-282 L374,-762 L658,-1062 Z" stroke-width="0" fill="#b8572b" fill-opacity="0.9098039215686274" />
<path d="M510,-1082 L398,-1278 L858,-402 L422,-138 L122,-586 L218,-838 Z" stroke-width="0" fill="#0005da" fill-opacity="0.19607843137254902" />
<path d="M134,-682 L154,-970 L286,-710 L914,-666 L182,-838 L242,-646 Z" stroke-width="0" fill="#dea40f" fill-opacity="0.09803921568627451" />
<path d="M926,-186 L786,-1202 L942,-746 L162,-430 L118,-810 L702,-282 Z" stroke-width="0" fill="#58acc3" fill-opacity="0.4235294117647059" />
<path d="M410,-394 L566,-814 L182,-406 L590,-346 L742,-102 L246,-1262 Z" stroke-width="0" fill="#170000" fill-opacity="0.36470588235294116" />
<path d="M94,-646 L766,-486 L438,-250 L262,-410 L798,-562 L818,-906 Z" stroke-width="0" fill="#060000" fill-opacity="0.5019607843137255" />
<path d="M830,-754 L422,-346 L930,-970 L894,-962 L202,-326 L478,-1010 Z" stroke-width="0" fill="#9bd0af" fill-opacity="0.9254901960784314" />
<path d="M394,-946 L106,-990 L410,-806 L570,-842 L770,-762 L162,-738 Z" stroke-width="0" fill="#0d099b" fill-opacity="0.9372549019607843" />
<path d="M758,-1250 L518,-954 L210,-670 L970,-262 L946,-630 L490,-746 Z" stroke-width="0" fill="#c5cd7e" fill-opacity="0.6745098039215687" />
<path d="M926,-390 L558,-642 L434,-554 L866,-126 L438,-646 L890,-210 Z" stroke-width="0" fill="#e8e8b4" fill-opacity="0.9764705882352941" />
<path d="M526,-362 L878,-214 L486,-702 L970,-1110 L462,-434 L414,-1194 Z" stroke-width="0" fill="#0a854e" fill-opacity="0.6196078431372549" />
<path d="M794,-626 L898,-150 L206,-142 L866,-514 L246,-410 L798,-442 Z" stroke-width="0" fill="#d8c972" fill-opacity="0.7529411764705882" />
<path d="M190,-746 L478,-146 L350,-794 L810,-798 L758,-478 L430,-654 Z" stroke-width="0" fill="#100910" fill-opacity="0.5568627450980392" />
<path d="M310,-302 L602,-974 L590,-706 L770,-830 L326,-602 L466,-526 Z" stroke-width="0" fill="#def6d1" fill-opacity="0.1607843137254902" />
<path d="M170,-166 L130,-1246 L366,-150 L298,-590 L442,-606 L486,-1102 Z" stroke-width="0" fill="#00255d" fill-opacity="0.7176470588235294" />
<path d="M374,-1054 L466,-578 L130,-462 L638,-362 L374,-726 L302,-834 Z" stroke-width="0" fill="#09397b" fill-opacity="0.27058823529411763" />
<path d="M670,-526 L386,-174 L586,-718 L414,-230 L286,-682 L826,-126 Z" stroke-width="0" fill="#2587f7" fill-opacity="0.0784313725490196" />
<path d="M682,-1102 L206,-1166 L934,-706 L706,-522 L442,-730 L554,-1126 Z" stroke-width="0" fill="#000e62" fill-opacity="0.6352941176470588" />
<path d="M366,-366 L430,-134 L586,-442 L654,-370 L398,-506 L314,-1250 Z" stroke-width="0" fill="#2d0001" fill-opacity="0.4666666666666667" />
<path d="M206,-98 L950,-682 L214,-750 L134,-694 L246,-158 L674,-906 Z" stroke-width="0" fill="#747a14" fill-opacity="0.7215686274509804" />
<path d="M174,-478 L430,-554 L126,-106 L118,-1274 L634,-514 L266,-874 Z" stroke-width="0" fill="#240b00" fill-opacity="0.8941176470588236" />
<path d="M326,-926 L354,-1150 L146,-914 L234,-978 L438,-1074 L846,-994 Z" stroke-width="0" fill="#0435b8" fill-opacity="0.17647058823529413" />
<path d="M846,-234 L846,-790 L490,-922 L562,-1166 L82,-1034 L274,-1098 Z" stroke-width="0" fill="#24476e" fill-opacity="0.09411764705882353" />
<path d="M670,-134 L794,-666 L694,-210 L586,-1010 L542,-922 L966,-330 Z" stroke-width="0" fill="#d4c865" fill-opacity="0.396078431372549" />
<path d="M610,-286 L626,-358 L146,-446 L866,-362 L166,-870 L246,-334 Z" stroke-width="0" fill="#4e0b08" fill-opacity="0.17647058823529413" />
<path d="M694,-626 L246,-426 L298,-1254 L298,-122 L170,-1206 L346,-822 Z" stroke-width="0" fill="#061406" fill-opacity="0.4235294117647059" />
<path d="M622,-518 L182,-310 L318,-646 L558,-450 L478,-1098 L694,-866 Z" stroke-width="0" fill="#4b3454" fill-opacity="0.9686274509803922" />
<path d="M422,-214 L350,-218 L190,-842 L474,-438 L214,-934 L142,-538 Z" stroke-width="0" fill="#fd0b01" fill-opacity="0.7333333333333333" />
<path d="M250,-606 L258,-106 L774,-238 L302,-158 L206,-430 L658,-946 Z" stroke-width="0" fill="#7c2220" fill-opacity="0.6235294117647059" />
<path d="M922,-354 L722,-1238 L154,-454 L450,-550 L478,-814 L154,-994 Z" stroke-width="0" fill="#3f4f7c" fill-opacity="0.3764705882352941" />
<path d="M674,-306 L254,-490 L514,-854 L774,-246 L478,-702 L350,-458 Z" stroke-width="0" fill="#fee500" fill-opacity="0.8627450980392157" />
<path d="M442,-278 L118,-982 L182,-366 L486,-678 L626,-1246 L686,-126 Z" stroke-width="0" fill="#6e2204" fill-opacity="0.27450980392156865" />
<path d="M318,-234 L178,-446 L602,-186 L354,-570 L370,-862 L238,-138 Z" stroke-width="0" fill="#fe7d4f" fill-opacity="0.43529411764705883" />
<path d="M574,-534 L794,-666 L306,-162 L262,-1234 L358,-1190 L902,-1118 Z" stroke-width="0" fill="#82af59" fill-opacity="0.0" />
<path d="M690,-1198 L342,-782 L378,-614 L586,-994 L146,-370 L626,-246 Z" stroke-width="0" fill="#2f130c" fill-opacity="0.43529411764705883" />
<path d="M110,-214 L686,-150 L674,-1202 L242,-1150 L742,-198 L926,-638 Z" stroke-width="0" fill="#46613a" fill-opacity="0.20784313725490197" />
<path d="M962,-814 L234,-358 L330,-178 L410,-466 L966,-814 L566,-750 Z" stroke-width="0" fill="#8f7458" fill-opacity="0.7568627450980392" />
<path d="M438,-430 L778,-382 L126,-978 L202,-910 L302,-1042 L250,-202 Z" stroke-width="0" fill="#0b0673" fill-opacity="0.2549019607843137" />
<path d="M942,-142 L102,-1086 L782,-574 L326,-1082 L682,-274 L406,-486 Z" stroke-width="0" fill="#d2e896" fill-opacity="0.0392156862745098" />
<path d="M970,-1182 L478,-950 L218,-114 L326,-806 L366,-114 L526,-622 Z" stroke-width="0" fill="#497586" fill-opacity="0.9568627450980393" />
<path d="M182,-730 L914,-738 L266,-810 L866,-986 L766,-934 L694,-114 Z" stroke-width="0" fill="#f3ac70" fill-opacity="0.4392156862745098" />
<path d="M186,-1038 L382,-926 L642,-734 L170,-1046 L126,-442 L402,-1066 Z" stroke-width="0" fill="#13613f" fill-opacity="0.06274509803921569" />
<path d="M222,-358 L150,-930 L970,-306 L826,-1222 L730,-434 L690,-970 Z" stroke-width="0" fill="#dbce7b" fill-opacity="0.4823529411764706" />
<path d="M722,-510 L898,-970 L350,-1042 L266,-1202 L354,-250 L358,-538 Z" stroke-width="0" fill="#50f3f6" fill-opacity="0.19607843137254902" />
<path d="M518,-846 L118,-302 L574,-106 L442,-670 L938,-298 L934,-150 Z" stroke-width="0" fill="#d86c23" fill-opacity="0.4588235294117647" />
<path d="M734,-130 L734,-654 L442,-682 L174,-574 L546,-914 L146,-1070 Z" stroke-width="0" fill="#fa9889" fill-opacity="0.06274509803921569" />
<path d="M822,-1202 L414,-1270 L130,-446 L910,-150 L838,-1002 L386,-982 Z" stroke-width="0" fill="#576a5a" fill-opacity="0.24313725490196078" />
<path d="M442,-138 L118,-870 L230,-406 L714,-306 L866,-1142 L446,-1106 Z" stroke-width="0" fill="#31a6fa" fill-opacity="0.2980392156862745" />
<path d="M422,-1274 L178,-1018 L434,-94 L102,-710 L538,-202 L870,-462 Z" stroke-width="0" fill="#231f15" fill-opacity="0.5019607843137255" />
<path d="M878,-530 L566,-418 L782,-718 L234,-586 L834,-146 L762,-114 Z" stroke-width="0" fill="#fec682" fill-opacity="0.9058823529411765" />
<path d="M118,-998 L894,-246 L678,-194 L674,-906 L562,-774 L674,-274 Z" stroke-width="0" fill="#998828" fill-opacity="0.25098039215686274" />
<path d="M826,-450 L946,-754 L254,-566 L218,-94 L714,-1038 L878,-830 Z" stroke-width="0" fill="#8bdfa1" fill-opacity="0.0784313725490196" />
<path d="M206,-898 L250,-1146 L858,-674 L822,-730 L458,-874 L710,-762 Z" stroke-width="0" fill="#000412" fill-opacity="0.4" />
<path d="M766,-254 L306,-510 L706,-558 L410,-1138 L918,-614 L290,-1150 Z" stroke-width="0" fill="#627554" fill-opacity="0.0196078431372549" />
<path d="M458,-482 L386,-522 L378,-966 L246,-922 L190,-126 L286,-1174 Z" stroke-width="0" fill="#9e0044" fill-opacity="0.09803921568627451" />
<path d="M542,-954 L910,-1254 L790,-814 L750,-182 L498,-586 L390,-1270 Z" stroke-width="0" fill="#4a8045" fill-opacity="0.27450980392156865" />
<path d="M126,-630 L714,-282 L82,-510 L430,-198 L926,-594 L222,-550 Z" stroke-width="0" fill="#efb24e" fill-opacity="0.7254901960784313" />
<path d="M462,-534 L214,-1034 L642,-486 L86,-866 L302,-834 L818,-954 Z" stroke-width="0" fill="#8ee462" fill-opacity="0.23921568627450981" />
<path d="M598,-382 L754,-342 L870,-1126 L342,-486 L178,-778 L646,-106 Z" stroke-width="0" fill="#edeabf" fill-opacity="0.16862745098039217" />
<path d="M198,-918 L234,-378 L698,-458 L278,-498 L214,-1242 L762,-158 Z" stroke-width="0" fill="#291302" fill-opacity="0.11764705882352941" />
<path d="M162,-642 L358,-962 L414,-558 L118,-286 L486,-350 L518,-1266 Z" stroke-width="0" fill="#122a62" fill-opacity="0.03529411764705882" />
<path d="M222,-290 L378,-1034 L842,-102 L126,-738 L762,-346 L682,-490 Z" stroke-width="0" fill="#d9a05f" fill-opacity="0.5490196078431373" />
<path d="M630,-742 L154,-726 L162,-358 L154,-606 L514,-210 L558,-602 Z" stroke-width="0" fill="#de8462" fill-opacity="0.5019607843137255" />
<path d="M742,-1222 L378,-914 L958,-190 L254,-1038 L814,-858 L542,-470 Z" stroke-width="0" fill="#0a7b51" fill-opacity="0.08627450980392157" />
<path d="M194,-1230 L734,-370 L190,-450 L350,-1042 L366,-278 L166,-890 Z" stroke-width="0" fill="#0a0e1a" fill-opacity="0.0392156862745098" />
<path d="M386,-1042 L182,-538 L302,-1018 L742,-770 L938,-1090 L282,-810 Z" stroke-width="0" fill="#72fdef" fill-opacity="0.13725490196078433" />
<path d="M574,-222 L118,-154 L366,-1214 L674,-570 L498,-698 L390,-738 Z" stroke-width="0" fill="#8d5b25" fill-opacity="0.396078431372549" />
<path d="M98,-502 L310,-978 L662,-382 L698,-178 L810,-1246 L810,-862 Z" stroke-width="0" fill="#96083a" fill-opacity="0.25882352941176473" />
<path d="M430,-494 L478,-802 L506,-418 L786,-686 L962,-442 L898,-334 Z" stroke-width="0" fill="#dbdaf8" fill-opacity="0.07058823529411765" />
<path d="M306,-1182 L418,-630 L806,-1234 L462,-110 L498,-482 L270,-734 Z" stroke-width="0" fill="#346217" fill-opacity="0.12549019607843137" />
<path d="M878,-234 L310,-610 L750,-190 L366,-1074 L926,-982 L206,-318 Z" stroke-width="0" fill="#ddb9c8" fill-opacity="0.22745098039215686" />
<path d="M310,-982 L522,-1206 L450,-342 L826,-806 L446,-414 L538,-1126 Z" stroke-width="0" fill="#616992" fill-opacity="0.08235294117647059" />
<path d="M766,-442 L838,-674 L482,-190 L90,-826 L682,-738 L354,-110 Z" stroke-width="0" fill="#e28f4c" fill-opacity="0.25882352941176473" />
<path d="M770,-1078 L242,-1090 L118,-474 L158,-82 L130,-238 L518,-886 Z" stroke-width="0" fill="#5b854a" fill-opacity="0.24705882352941178" />
<text x="448.0" y="0" font-size="70.0" fill="black" text-anchor="middle" transform="translate(0,17.5)">7 OF EARTH</text>
</svg>