<?xml version="1.0" encoding="UTF-8"?>
<svg xmlns="http://www.w3.org/2000/svg" xmlns:xlink="http://www.w3.org/1999/xlink"
     width="275" height="375" viewBox="0 -350 275 375">
<defs>
</defs>
<rect x="15" y="-335" width="245" height="320" stroke="black" stroke-width="4" fill="white" />
<path d="M154,-176 L191,-175 L151,-86 L43,-117 L102,-142 L153,-113 Z" stroke-width="0" fill="#2d0201" fill-opacity="0.796078431372549" />
<path d="M220,-78 L49,-70 L110,-60 L201,-323 L183,-135 L221,-36 Z" stroke-width="0" fill="#989774" fill-opacity="0.15294117647058825" />
<path d="M42,-49 L193,-223 L47,-173 L124,-34 L232,-184 L99,-320 Z" stroke-width="0" fill="#0b1e5e" fill-opacity="0.1843137254901961" />
<path d="M235,-210 L173,-103 L228,-258 L43,-84 L219,-124 L79,-213 Z" stroke-width="0" fill="#b0f5dc" fill-opacity="0.0" />
<path d="M201,-187 L232,-316 L62,-52 L176,-271 L208,-135 L85,-70 Z" stroke-width="0" fill="#ece2ab" fill-opacity="0.4745098039215686" />
<path d="M108,-213 L176,-233 L164,-123 L209,-132 L162,-89 L36,-190 Z" stroke-width="0" fill="#1c57d7" fill-opacity="0.8705882352941177" />
<path d="M214,-172 L181,-319 L161,-154 L51,-147 L155,-139 L131,-292 Z" stroke-width="0" fill="#e8db56" fill-opacity="0.13333333333333333" />
<path d="M140,-320 L197,-140 L172,-28 L149,-139 L128,-270 L123,-139 Z" stroke-width="0" fill="#0e0017" fill-opacity="0.10588235294117647" />
<path d="M159,-117 L45,-225 L61,-149 L68,-29 L56,-134 L27,-154 Z" stroke-width="0" fill="#000000" fill-opacity="0.6392156862745098" />
<path d="M48,-284 L110,-214 L232,-130 L71,-198 L89,-174 L71,-223 Z" stroke-width="0" fill="#e5ba80" fill-opacity="0.0784313725490196" />
<path d="M165,-146 L65,-75 L53,-188 L236,-133 L60,-197 L79,-94 Z" stroke-width="0" fill="#41bf7e" fill-opacity="0.34509803921568627" />
<path d="M169,-127 L210,-175 L95,-165 L197,-73 L121,-256 L130,-25 Z" stroke-width="0" fill="#000000" fill-opacity="0.7764705882352941" />
<path d="M157,-29 L169,-77 L177,-317 L71,-62 L73,-300 L84,-189 Z" stroke-width="0" fill="#42711c" fill-opacity="0.2" />
<path d="M181,-254 L27,-239 L154,-201 L215,-74 L61,-74 L109,-147 Z" stroke-width="0" fill="#f8fedf" fill-opacity="0.8823529411764706" />
<path d="M110,-280 L80,-127 L74,-278 L79,-202 L71,-109 L45,-117 Z" stroke-width="0" fill="#d1f0d6" fill-opacity="0.43137254901960786" />
<path d="M208,-89 L247,-156 L155,-131 L209,-100 L50,-138 L175,-104 Z" stroke-width="0" fill="#000042" fill-opacity="0.8156862745098039" />
<path d="M49,-247 L143,-98 L127,-84 L245,-105 L221,-254 L137,-154 Z" stroke-width="0" fill="#9e7d64" fill-opacity="0.6039215686274509" />
<path d="M97,-49 L82,-104 L141,-116 L49,-146 L225,-70 L111,-246 Z" stroke-width="0" fill="#ca97f5" fill-opacity="0.9882352941176471" />
<path d="M185,-314 L114,-248 L41,-122 L49,-28 L147,-296 L89,-208 Z" stroke-width="0" fill="#c9dad1" fill-opacity="0.7686274509803922" />
<path d="M56,-119 L177,-120 L125,-253 L174,-287 L128,-98 L38,-231 Z" stroke-width="0" fill="#eec9b4" fill-opacity="0.11372549019607843" />
<path d="M173,-207 L60,-198 L56,-72 L246,-188 L123,-25 L63,-49 Z" stroke-width="0" fill="#00121e" fill-opacity="0.807843137254902" />
<path d="M130,-204 L30,-78 L132,-165 L232,-159 L71,-48 L68,-214 Z" stroke-width="0" fill="#2b0000" fill-opacity="0.9490196078431372" />
<path d="M215,-150 L30,-74 L230,-165 L216,-163 L247,-132 L41,-93 Z" stroke-width="0" fill="#f8d7f4" fill-opacity="0.8509803921568627" />
<path d="M145,-280 L113,-137 L143,-168 L170,-239 L176,-259 L134,-106 Z" stroke-width="0" fill="#f4ddf7" fill-opacity="0.6549019607843137" />
<path d="M140,-153 L131,-71 L138,-99 L160,-30 L239,-148 L243,-126 Z" stroke-width="0" fill="#bda7c1" fill-opacity="0.5019607843137255" />
<path d="M42,-65 L117,-96 L52,-33 L214,-219 L123,-239 L241,-227 Z" stroke-width="0" fill="#004d8b" fill-opacity="0.5333333333333333" />
<path d="M118,-231 L221,-225 L36,-219 L121,-56 L96,-67 L177,-129 Z" stroke-width="0" fill="#06271d" fill-opacity="0.9686274509803922" />
<path d="M128,-219 L57,-304 L50,-258 L210,-152 L215,-150 L78,-94 Z" stroke-width="0" fill="#ecbc98" fill-opacity="0.2235294117647059" />
<path d="M73,-236 L124,-179 L84,-61 L206,-145 L67,-100 L233,-57 Z" stroke-width="0" fill="#9a434e" fill-opacity="0.8784313725490196" />
<path d="M129,-156 L33,-164 L76,-221 L76,-93 L100,-169 L164,-33 Z" stroke-width="0" fill="#0a001b" fill-opacity="0.4235294117647059" />
<path d="M144,-81 L80,-175 L36,-172 L105,-130 L90,-97 L70,-199 Z" stroke-width="0" fill="#2c1a1c" fill-opacity="0.9215686274509803" />
<path d="M30,-295 L186,-92 L31,-281 L109,-99 L51,-41 L244,-277 Z" stroke-width="0" fill="#f1d7c5" fill-opacity="0.23921568627450981" />
<path d="M231,-203 L78,-74 L200,-43 L202,-235 L228,-86 L229,-172 Z" stroke-width="0" fill="#cad2bd" fill-opacity="0.9215686274509803" />
<path d="M191,-166 L202,-309 L136,-293 L144,-174 L97,-269 L177,-123 Z" stroke-width="0" fill="#d5a2cc" fill-opacity="0.06666666666666667" />
<path d="M44,-66 L222,-141 L87,-110 L73,-59 L235,-104 L74,-182 Z" stroke-width="0" fill="#997e6d" fill-opacity="0.6705882352941176" />
<path d="M43,-28 L210,-201 L173,-90 L107,-254 L33,-140 L156,-285 Z" stroke-width="0" fill="#090000" fill-opacity="0.5647058823529412" />
<path d="M71,-275 L183,-59 L30,-316 L36,-52 L165,-97 L171,-67 Z" stroke-width="0" fill="#88b3a5" fill-opacity="0.5019607843137255" />
<path d="M82,-324 L177,-209 L150,-201 L134,-283 L150,-318 L244,-130 Z" stroke-width="0" fill="#f3c2e5" fill-opacity="0.34901960784313724" />
<path d="M27,-258 L239,-173 L101,-36 L226,-286 L75,-43 L25,-231 Z" stroke-width="0" fill="#00102b" fill-opacity="0.7137254901960784" />
<path d="M27,-162 L216,-105 L71,-38 L30,-269 L40,-160 L158,-27 Z" stroke-width="0" fill="#38292d" fill-opacity="0.9176470588235294" />
<path d="M149,-240 L36,-116 L219,-136 L112,-36 L188,-249 L170,-95 Z" stroke-width="0" fill="#66632d" fill-opacity="0.6784313725490196" />
<path d="M144,-155 L153,-119 L239,-165 L113,-71 L230,-73 L89,-249 Z" stroke-width="0" fill="#f3d8ce" fill-opacity="0.5019607843137255" />
<path d="M77,-249 L51,-84 L39,-82 L75,-162 L42,-97 L42,-103 Z" stroke-width="0" fill="#371637" fill-opacity="0.48627450980392156" />
<path d="M127,-271 L37,-43 L181,-109 L238,-278 L92,-267 L45,-115 Z" stroke-width="0" fill="#ebd1f5" fill-opacity="0.2" />
<path d="M162,-235 L51,-75 L103,-49 L114,-68 L234,-137 L203,-172 Z" stroke-width="0" fill="#8cf57e" fill-opacity="0.050980392156862744" />
<path d="M212,-208 L177,-75 L70,-198 L85,-116 L88,-140 L30,-48 Z" stroke-width="0" fill="#000010" fill-opacity="0.6823529411764706" />
<path d="M168,-115 L106,-99 L54,-288 L36,-48 L177,-69 L107,-228 Z" stroke-width="0" fill="#204d41" fill-opacity="0.796078431372549" />
<path d="M231,-175 L176,-247 L81,-196 L118,-97 L62,-108 L199,-303 Z" stroke-width="0" fill="#e6f5d3" fill-opacity="0.1568627450980392" />
<path d="M174,-132 L135,-67 L245,-168 L58,-102 L139,-146 L210,-274 Z" stroke-width="0" fill="#8a63c1" fill-opacity="0.34901960784313724" />
<path d="M143,-93 L103,-96 L68,-125 L209,-228 L180,-90 L111,-96 Z" stroke-width="0" fill="#101d08" fill-opacity="0.9176470588235294" />
<path d="M164,-150 L163,-64 L181,-157 L59,-89 L43,-131 L164,-53 Z" stroke-width="0" fill="#1c1b00" fill-opacity="0.5725490196078431" />
<path d="M236,-194 L40,-216 L112,-80 L120,-88 L198,-167 L96,-223 Z" stroke-width="0" fill="#d95528" fill-opacity="0.9921568627450981" />
<path d="M192,-40 L190,-175 L26,-185 L73,-158 L87,-137 L78,-94 Z" stroke-width="0" fill="#631d3c" fill-opacity="0.7372549019607844" />
<path d="M80,-313 L189,-136 L165,-283 L106,-263 L230,-237 L131,-30 Z" stroke-width="0" fill="#fed9ff" fill-opacity="0.35294117647058826" />
<path d="M69,-248 L207,-88 L129,-50 L100,-103 L158,-93 L246,-64 Z" stroke-width="0" fill="#450005" fill-opacity="0.5019607843137255" />
<path d="M60,-164 L40,-26 L142,-256 L172,-185 L59,-69 L140,-182 Z" stroke-width="0" fill="#2e271c" fill-opacity="0.7176470588235294" />
<path d="M75,-128 L53,-307 L158,-67 L61,-306 L109,-140 L210,-170 Z" stroke-width="0" fill="#4888ff" fill-opacity="0.0784313725490196" />
<path d="M68,-91 L31,-312 L215,-210 L102,-314 L199,-226 L234,-32 Z" stroke-width="0" fill="#d1f7e5" fill-opacity="0.1450980392156863" />
<path d="M104,-239 L83,-307 L141,-213 L82,-259 L131,-175 L204,-241 Z" stroke-width="0" fill="#bef8fd" fill-opacity="0.25098039215686274" />
<path d="M114,-101 L85,-309 L109,-242 L89,-279 L193,-75 L246,-301 Z" stroke-width="0" fill="#779b92" fill-opacity="0.2" />
<path d="M122,-67 L106,-134 L158,-32 L236,-41 L98,-242 L144,-26 Z" stroke-width="0" fill="#161600" fill-opacity="0.6588235294117647" />
<path d="M50,-313 L27,-125 L160,-242 L232,-132 L48,-27 L105,-52 Z" stroke-width="0" fill="#74663a" fill-opacity="0.3607843137254902" />
<path d="M167,-69 L117,-28 L84,-41 L79,-165 L132,-61 L214,-281 Z" stroke-width="0" fill="#3b431b" fill-opacity="0.4392156862745098" />
<path d="M137,-290 L219,-127 L42,-156 L161,-234 L83,-302 L87,-249 Z" stroke-width="0" fill="#eefbea" fill-opacity="0.3137254901960784" />
<path d="M82,-73 L174,-96 L89,-102 L205,-262 L46,-156 L119,-195 Z" stroke-width="0" fill="#0666eb" fill-opacity="0.2235294117647059" />
<path d="M151,-129 L186,-115 L104,-267 L129,-111 L236,-315 L169,-108 Z" stroke-width="0" fill="#bfd2e7" fill-opacity="0.7372549019607844" />
<path d="M119,-216 L73,-68 L132,-97 L170,-130 L98,-59 L64,-144 Z" stroke-width="0" fill="#001900" fill-opacity="0.792156862745098" />
<path d="M129,-156 L74,-230 L135,-123 L230,-215 L198,-56 L71,-76 Z" stroke-width="0" fill="#afe200" fill-opacity="0.3333333333333333" />
<path d="M58,-73 L125,-72 L241,-217 L151,-229 L82,-167 L236,-219 Z" stroke-width="0" fill="#05102f" fill-opacity="0.5019607843137255" />
<path d="M80,-130 L51,-304 L76,-297 L34,-168 L192,-103 L95,-47 Z" stroke-width="0" fill="#8f4991" fill-opacity="0.17647058823529413" />
<path d="M122,-301 L206,-277 L28,-128 L230,-242 L129,-173 L137,-114 Z" stroke-width="0" fill="#f7d1f4" fill-opacity="0.19215686274509805" />
<path d="M155,-38 L97,-299 L45,-210 L219,-141 L139,-157 L152,-257 Z" stroke-width="0" fill="#909a9f" fill-opacity="0.00784313725490196" />
<path d="M78,-83 L62,-126 L206,-209 L172,-31 L98,-283 L201,-307 Z" stroke-width="0" fill="#f7b7bd" fill-opacity="0.01568627450980392" />
<path d="M209,-34 L57,-207 L222,-73 L35,-88 L176,-165 L117,-95 Z" stroke-width="0" fill="#463853" fill-opacity="0.5686274509803921" />
<path d="M213,-62 L33,-77 L81,-76 L223,-174 L149,-279 L204,-322 Z" stroke-width="0" fill="#a6cba5" fill-opacity="0.08235294117647059" />
<path d="M144,-224 L205,-33 L217,-101 L198,-236 L136,-135 L220,-80 Z" stroke-width="0" fill="#e10d37" fill-opacity="0.25882352941176473" />
<path d="M246,-110 L235,-268 L82,-78 L92,-225 L247,-166 L99,-101 Z" stroke-width="0" fill="#34514d" fill-opacity="0.5019607843137255" />
<path d="M179,-71 L125,-41 L25,-120 L185,-62 L115,-135 L238,-89 Z" stroke-width="0" fill="#301b45" fill-opacity="0.5019607843137255" />
<path d="M205,-119 L239,-229 L67,-120 L186,-152 L162,-293 L66,-160 Z" stroke-width="0" fill="#fadfad" fill-opacity="0.0392156862745098" />
<path d="M128,-120 L91,-221 L108,-52 L86,-148 L175,-89 L231,-184 Z" stroke-width="0" fill="#b913ad" fill-opacity="0.27450980392156865" />
<path d="M63,-168 L42,-137 L225,-77 L32,-49 L111,-170 L43,-218 Z" stroke-width="0" fill="#611d34" fill-opacity="0.26666666666666666" />
<path d="M200,-309 L211,-137 L88,-73 L110,-55 L218,-303 L230,-203 Z" stroke-width="0" fill="#0a9037" fill-opacity="0.08235294117647059" />
<path d="M130,-305 L229,-35 L37,-114 L141,-144 L132,-144 L55,-80 Z" stroke-width="0" fill="#e8efcf" fill-opacity="0.13333333333333333" />
<path d="M102,-316 L136,-51 L182,-319 L174,-181 L55,-75 L40,-102 Z" stroke-width="0" fill="#1e1559" fill-opacity="0.047058823529411764" />
<path d="M192,-302 L213,-64 L86,-56 L84,-124 L141,-292 L143,-51 Z" stroke-width="0" fill="#4a73dd" fill-opacity="0.1607843137254902" />
<path d="M221,-307 L200,-125 L200,-288 L37,-171 L133,-88 L182,-315 Z" stroke-width="0" fill="#a778d8" fill-opacity="0.20392156862745098" />
<path d="M67,-178 L194,-248 L178,-312 L57,-173 L227,-221 L162,-119 Z" stroke-width="0" fill="#c3f7fa" fill-opacity="0.12156862745098039" />
<path d="M46,-230 L41,-279 L53,-153 L134,-70 L149,-223 L119,-185 Z" stroke-width="0" fill="#6d5e00" fill-opacity="0.6" />
<path d="M85,-142 L27,-149 L95,-76 L156,-55 L220,-86 L47,-147 Z" stroke-width="0" fill="#310005" fill-opacity="0.36470588235294116" />
<path d="M123,-40 L134,-58 L222,-112 L52,-143 L76,-182 L134,-295 Z" stroke-width="0" fill="#e015b8" fill-opacity="0.01568627450980392" />
<path d="M156,-210 L143,-53 L67,-255 L36,-213 L109,-153 L163,-272 Z" stroke-width="0" fill="#06266d" fill-opacity="0.26666666666666666" />
<path d="M158,-300 L27,-176 L116,-106 L102,-38 L119,-198 L114,-99 Z" stroke-width="0" fill="#1b1283" fill-opacity="0.0" />
<path d="M232,-28 L210,-197 L32,-200 L123,-167 L142,-225 L64,-80 Z" stroke-width="0" fill="#66aaa1" fill-opacity="0.27450980392156865" />
<path d="M186,-43 L155,-183 L43,-182 L208,-44 L175,-97 L37,-265 Z" stroke-width="0" fill="#594c41" fill-opacity="0.17647058823529413" />
<path d="M189,-166 L127,-298 L236,-114 L27,-83 L212,-57 L48,-87 Z" stroke-width="0" fill="#6f4d87" fill-opacity="0.12941176470588237" />
<path d="M126,-120 L227,-38 L181,-207 L124,-227 L58,-177 L140,-133 Z" stroke-width="0" fill="#d95215" fill-opacity="0.21568627450980393" />
<path d="M134,-306 L30,-75 L74,-122 L25,-90 L212,-122 L174,-251 Z" stroke-width="0" fill="#5f9f7f" fill-opacity="0.5019607843137255" />
<path d="M245,-134 L88,-273 L211,-188 L131,-191 L49,-227 L201,-121 Z" stroke-width="0" fill="#9a6f40" fill-opacity="0.3215686274509804" />
<path d="M128,-101 L142,-55 L77,-174 L170,-206 L149,-37 L217,-63 Z" stroke-width="0" fill="#6e1239" fill-opacity="0.2627450980392157" />
<path d="M116,-41 L108,-174 L52,-60 L106,-33 L110,-285 L142,-180 Z" stroke-width="0" fill="#8a6237" fill-opacity="0.39215686274509803" />
<text x="137.5" y="12.5" font-size="20.0" fill="black" text-anchor="middle" transform="translate(0,5.0)">3 OF EARTH</text>
</svg>