<?xml version="1.0" encoding="UTF-8"?>
<svg xmlns="http://www.w3.org/2000/svg" xmlns:xlink="http://www.w3.org/1999/xlink"
     width="275" height="375" viewBox="0 -350 275 375">
<defs>
</defs>
<rect x="15" y="-335" width="245" height="320" stroke="black" stroke-width="4" fill="white" />
<path d="M128,-29 L50,-204 L248,-55 L95,-96 L175,-27 L99,-81 Z" stroke-width="0" fill="#724200" fill-opacity="0.8862745098039215" />
<path d="M27,-40 L56,-257 L202,-133 L59,-244 L176,-289 L73,-257 Z" stroke-width="0" fill="#000000" fill-opacity="0.8117647058823529" />
<path d="M113,-247 L52,-255 L52,-169 L161,-258 L90,-35 L160,-222 Z" stroke-width="0" fill="#000000" fill-opacity="0.7450980392156863" />
<path d="M31,-249 L98,-116 L63,-32 L34,-106 L31,-264 L56,-275 Z" stroke-width="0" fill="#0a0400" fill-opacity="0.9607843137254902" />
<path d="M145,-27 L42,-97 L43,-305 L75,-39 L104,-122 L48,-205 Z" stroke-width="0" fill="#000000" fill-opacity="0.7843137254901961" />
<path d="M176,-175 L165,-72 L111,-150 L29,-45 L213,-147 L65,-254 Z" stroke-width="0" fill="#000000" fill-opacity="0.8235294117647058" />
<path d="M226,-263 L114,-319 L77,-273 L32,-117 L77,-168 L176,-265 Z" stroke-width="0" fill="#561500" fill-opacity="0.8" />
<path d="M30,-207 L51,-61 L246,-147 L134,-251 L38,-161 L63,-106 Z" stroke-width="0" fill="#121b05" fill-opacity="0.8980392156862745" />
<path d="M230,-237 L123,-84 L67,-141 L234,-122 L120,-40 L37,-87 Z" stroke-width="0" fill="#c0f51a" fill-opacity="0.1843137254901961" />
<path d="M155,-276 L99,-324 L172,-140 L112,-148 L68,-146 L99,-77 Z" stroke-width="0" fill="#590000" fill-opacity="0.803921568627451" />
<path d="M177,-64 L117,-260 L121,-212 L127,-37 L219,-57 L87,-94 Z" stroke-width="0" fill="#ce780a" fill-opacity="0.9568627450980393" />
<path d="M76,-236 L146,-119 L43,-190 L121,-149 L187,-248 L88,-198 Z" stroke-width="0" fill="#fa0315" fill-opacity="0.00392156862745098" />
<path d="M188,-219 L121,-222 L25,-209 L178,-290 L119,-186 L45,-293 Z" stroke-width="0" fill="#080a00" fill-opacity="0.7686274509803922" />
<path d="M170,-152 L137,-176 L130,-200 L234,-121 L201,-32 L144,-102 Z" stroke-width="0" fill="#5e1834" fill-opacity="0.8980392156862745" />
<path d="M61,-285 L52,-232 L98,-197 L87,-317 L48,-255 L42,-145 Z" stroke-width="0" fill="#040800" fill-opacity="0.7333333333333333" />
<path d="M101,-30 L177,-59 L119,-259 L99,-238 L144,-217 L111,-107 Z" stroke-width="0" fill="#1d1705" fill-opacity="0.9450980392156862" />
<path d="M191,-51 L108,-283 L114,-245 L120,-180 L28,-141 L106,-58 Z" stroke-width="0" fill="#4d171e" fill-opacity="0.796078431372549" />
<path d="M178,-67 L144,-109 L180,-60 L147,-253 L161,-78 L62,-251 Z" stroke-width="0" fill="#1f9938" fill-opacity="0.9019607843137255" />
<path d="M229,-133 L206,-304 L36,-56 L61,-105 L220,-93 L108,-298 Z" stroke-width="0" fill="#13021d" fill-opacity="0.9333333333333333" />
<path d="M108,-63 L70,-87 L125,-52 L225,-156 L79,-94 L218,-73 Z" stroke-width="0" fill="#32b3df" fill-opacity="0.1843137254901961" />
<path d="M180,-92 L221,-165 L75,-298 L165,-42 L168,-49 L211,-140 Z" stroke-width="0" fill="#8523c9" fill-opacity="0.27058823529411763" />
<path d="M81,-66 L45,-219 L185,-222 L106,-275 L82,-141 L67,-310 Z" stroke-width="0" fill="#c463fb" fill-opacity="0.7058823529411765" />
<path d="M110,-191 L105,-213 L193,-198 L100,-172 L185,-41 L127,-219 Z" stroke-width="0" fill="#216ee3" fill-opacity="0.7019607843137254" />
<path d="M31,-59 L173,-93 L183,-273 L75,-254 L91,-228 L128,-67 Z" stroke-width="0" fill="#0c0500" fill-opacity="0.8509803921568627" />
<path d="M90,-183 L156,-101 L136,-79 L131,-133 L29,-277 L73,-90 Z" stroke-width="0" fill="#170000" fill-opacity="0.9764705882352941" />
<path d="M208,-219 L89,-192 L233,-163 L77,-62 L133,-203 L84,-195 Z" stroke-width="0" fill="#0815f5" fill-opacity="0.9333333333333333" />
<path d="M42,-269 L163,-208 L173,-91 L110,-236 L116,-124 L78,-79 Z" stroke-width="0" fill="#840509" fill-opacity="0.36470588235294116" />
<path d="M157,-156 L41,-87 L96,-183 L100,-316 L83,-227 L183,-134 Z" stroke-width="0" fill="#350000" fill-opacity="0.7686274509803922" />
<path d="M102,-94 L170,-210 L246,-32 L226,-223 L73,-307 L231,-280 Z" stroke-width="0" fill="#8f6a00" fill-opacity="0.8431372549019608" />
<path d="M216,-244 L96,-51 L211,-284 L240,-253 L153,-182 L203,-81 Z" stroke-width="0" fill="#dbf90e" fill-opacity="0.44313725490196076" />
<path d="M105,-243 L51,-86 L207,-120 L112,-165 L193,-228 L37,-39 Z" stroke-width="0" fill="#110000" fill-opacity="0.9137254901960784" />
<path d="M120,-148 L121,-274 L140,-63 L67,-47 L98,-189 L215,-88 Z" stroke-width="0" fill="#762a3c" fill-opacity="0.42745098039215684" />
<path d="M121,-32 L45,-219 L222,-31 L86,-295 L69,-255 L210,-50 Z" stroke-width="0" fill="#3e3016" fill-opacity="0.7803921568627451" />
<path d="M47,-321 L242,-85 L61,-74 L73,-34 L42,-92 L138,-290 Z" stroke-width="0" fill="#2d0300" fill-opacity="0.8627450980392157" />
<path d="M94,-44 L71,-283 L66,-202 L145,-242 L69,-149 L175,-38 Z" stroke-width="0" fill="#767e5c" fill-opacity="0.7058823529411765" />
<path d="M109,-315 L31,-216 L111,-59 L209,-138 L149,-284 L176,-52 Z" stroke-width="0" fill="#38002b" fill-opacity="0.596078431372549" />
<path d="M195,-247 L189,-302 L49,-170 L33,-213 L80,-54 L84,-93 Z" stroke-width="0" fill="#15000f" fill-opacity="0.5019607843137255" />
<path d="M124,-91 L26,-80 L60,-139 L66,-218 L201,-147 L80,-131 Z" stroke-width="0" fill="#0b002d" fill-opacity="0.9686274509803922" />
<path d="M52,-129 L187,-108 L72,-170 L130,-138 L64,-140 L159,-265 Z" stroke-width="0" fill="#1bc351" fill-opacity="0.5607843137254902" />
<path d="M65,-291 L58,-177 L131,-142 L64,-181 L126,-234 L76,-271 Z" stroke-width="0" fill="#e8b4ca" fill-opacity="0.7333333333333333" />
<path d="M118,-125 L38,-145 L220,-82 L138,-99 L193,-232 L164,-188 Z" stroke-width="0" fill="#405716" fill-opacity="0.9058823529411765" />
<path d="M176,-132 L223,-32 L94,-50 L233,-220 L45,-50 L206,-212 Z" stroke-width="0" fill="#7e5e2a" fill-opacity="0.803921568627451" />
<path d="M42,-87 L240,-71 L240,-220 L145,-134 L146,-30 L198,-85 Z" stroke-width="0" fill="#47ced0" fill-opacity="0.25882352941176473" />
<path d="M150,-157 L244,-227 L172,-201 L195,-235 L185,-117 L26,-246 Z" stroke-width="0" fill="#140400" fill-opacity="0.39215686274509803" />
<path d="M101,-83 L88,-79 L95,-279 L76,-194 L165,-57 L96,-119 Z" stroke-width="0" fill="#c6c0f9" fill-opacity="0.9450980392156862" />
<path d="M28,-136 L168,-52 L212,-147 L112,-112 L193,-139 L75,-245 Z" stroke-width="0" fill="#b468b3" fill-opacity="0.25882352941176473" />
<path d="M212,-124 L29,-68 L147,-67 L179,-31 L85,-150 L243,-243 Z" stroke-width="0" fill="#0dc78a" fill-opacity="0.19215686274509805" />
<path d="M125,-164 L55,-94 L83,-320 L50,-166 L159,-260 L46,-303 Z" stroke-width="0" fill="#1c0600" fill-opacity="0.7686274509803922" />
<path d="M36,-289 L151,-242 L161,-297 L214,-105 L96,-278 L236,-258 Z" stroke-width="0" fill="#a22a33" fill-opacity="0.9215686274509803" />
<path d="M193,-316 L73,-57 L174,-280 L78,-137 L229,-281 L147,-119 Z" stroke-width="0" fill="#df8eb9" fill-opacity="0.4980392156862745" />
<path d="M49,-172 L112,-322 L200,-100 L128,-181 L140,-231 L96,-165 Z" stroke-width="0" fill="#864719" fill-opacity="0.8784313725490196" />
<path d="M110,-185 L209,-210 L51,-59 L29,-97 L64,-29 L50,-184 Z" stroke-width="0" fill="#1c2323" fill-opacity="0.9372549019607843" />
<path d="M108,-236 L68,-51 L30,-99 L236,-179 L88,-65 L25,-291 Z" stroke-width="0" fill="#0f0000" fill-opacity="0.9686274509803922" />
<path d="M94,-233 L47,-70 L100,-45 L246,-43 L238,-294 L196,-67 Z" stroke-width="0" fill="#6a451c" fill-opacity="0.6862745098039216" />
<path d="M249,-150 L147,-303 L224,-260 L52,-170 L108,-94 L165,-182 Z" stroke-width="0" fill="#c87a6f" fill-opacity="0.7372549019607844" />
<path d="M147,-98 L108,-87 L244,-72 L85,-89 L188,-142 L25,-139 Z" stroke-width="0" fill="#090000" fill-opacity="0.7019607843137254" />
<path d="M75,-122 L68,-126 L107,-231 L115,-301 L163,-45 L122,-162 Z" stroke-width="0" fill="#000c0a" fill-opacity="0.12549019607843137" />
<path d="M100,-273 L204,-291 L168,-164 L223,-150 L182,-200 L90,-96 Z" stroke-width="0" fill="#f29f26" fill-opacity="0.3686274509803922" />
<path d="M69,-30 L157,-175 L95,-107 L221,-45 L56,-76 L227,-192 Z" stroke-width="0" fill="#422333" fill-opacity="0.4588235294117647" />
<path d="M82,-254 L127,-174 L27,-73 L188,-86 L36,-174 L59,-133 Z" stroke-width="0" fill="#1e223b" fill-opacity="0.7254901960784313" />
<path d="M132,-308 L29,-281 L72,-233 L101,-189 L86,-160 L139,-50 Z" stroke-width="0" fill="#7b4f1b" fill-opacity="0.5019607843137255" />
<path d="M77,-272 L249,-161 L119,-227 L29,-198 L184,-61 L95,-263 Z" stroke-width="0" fill="#000400" fill-opacity="0.403921568627451" />
<path d="M25,-108 L181,-65 L52,-101 L212,-294 L56,-35 L228,-40 Z" stroke-width="0" fill="#00131f" fill-opacity="0.592156862745098" />
<path d="M82,-83 L240,-209 L199,-321 L177,-305 L158,-160 L152,-314 Z" stroke-width="0" fill="#d6aa00" fill-opacity="0.615686274509804" />
<path d="M32,-131 L215,-287 L99,-268 L167,-33 L221,-234 L140,-63 Z" stroke-width="0" fill="#b5264c" fill-opacity="0.050980392156862744" />
<path d="M173,-262 L138,-310 L37,-304 L96,-149 L164,-75 L231,-186 Z" stroke-width="0" fill="#7c5518" fill-opacity="0.5607843137254902" />
<path d="M193,-78 L109,-182 L177,-92 L150,-286 L65,-213 L82,-117 Z" stroke-width="0" fill="#75e39b" fill-opacity="0.00392156862745098" />
<path d="M91,-240 L27,-201 L48,-175 L242,-250 L71,-284 L39,-55 Z" stroke-width="0" fill="#f8be17" fill-opacity="0.2235294117647059" />
<path d="M95,-96 L105,-281 L175,-286 L161,-244 L82,-148 L168,-46 Z" stroke-width="0" fill="#d8f91b" fill-opacity="0.28627450980392155" />
<path d="M33,-90 L37,-182 L33,-154 L128,-258 L180,-142 L189,-176 Z" stroke-width="0" fill="#4d385d" fill-opacity="0.3843137254901961" />
<path d="M95,-177 L57,-100 L197,-121 L89,-58 L66,-311 L161,-246 Z" stroke-width="0" fill="#534b10" fill-opacity="0.32941176470588235" />
<path d="M54,-207 L168,-178 L147,-77 L191,-152 L86,-317 L43,-151 Z" stroke-width="0" fill="#5e1b09" fill-opacity="0.43137254901960786" />
<path d="M104,-223 L60,-170 L186,-169 L76,-189 L69,-67 L208,-70 Z" stroke-width="0" fill="#252124" fill-opacity="0.5725490196078431" />
<path d="M187,-202 L205,-31 L42,-234 L124,-269 L147,-147 L125,-103 Z" stroke-width="0" fill="#12001c" fill-opacity="0.5176470588235295" />
<path d="M204,-58 L78,-263 L198,-215 L192,-92 L101,-230 L159,-234 Z" stroke-width="0" fill="#305208" fill-opacity="0.9568627450980393" />
<path d="M61,-223 L54,-303 L197,-311 L230,-101 L232,-166 L230,-216 Z" stroke-width="0" fill="#742300" fill-opacity="0.14901960784313725" />
<path d="M34,-223 L63,-95 L86,-143 L113,-279 L100,-82 L58,-102 Z" stroke-width="0" fill="#45212b" fill-opacity="0.5725490196078431" />
<path d="M44,-300 L41,-153 L47,-230 L130,-259 L216,-105 L103,-135 Z" stroke-width="0" fill="#10000d" fill-opacity="0.43529411764705883" />
<path d="M201,-232 L44,-227 L194,-132 L92,-54 L120,-81 L211,-52 Z" stroke-width="0" fill="#002335" fill-opacity="0.3254901960784314" />
<path d="M189,-265 L119,-174 L156,-298 L248,-133 L182,-131 L246,-128 Z" stroke-width="0" fill="#d7c43a" fill-opacity="0.5647058823529412" />
<path d="M143,-180 L186,-265 L95,-125 L203,-284 L87,-179 L53,-236 Z" stroke-width="0" fill="#000000" fill-opacity="0.11372549019607843" />
<path d="M67,-37 L248,-183 L165,-235 L64,-241 L116,-218 L108,-179 Z" stroke-width="0" fill="#02c352" fill-opacity="0.0784313725490196" />
<path d="M152,-58 L225,-136 L113,-288 L119,-113 L154,-211 L197,-44 Z" stroke-width="0" fill="#7d3b43" fill-opacity="0.1843137254901961" />
<path d="M35,-44 L82,-28 L123,-206 L211,-45 L81,-80 L191,-147 Z" stroke-width="0" fill="#203a1f" fill-opacity="0.9921568627450981" />
<path d="M27,-297 L131,-30 L242,-263 L209,-116 L112,-198 L126,-164 Z" stroke-width="0" fill="#3a3d68" fill-opacity="0.1843137254901961" />
<path d="M176,-152 L187,-65 L146,-157 L146,-186 L222,-174 L149,-83 Z" stroke-width="0" fill="#7aebde" fill-opacity="0.2901960784313726" />
<path d="M154,-109 L200,-121 L142,-67 L120,-153 L30,-159 L220,-138 Z" stroke-width="0" fill="#3d4748" fill-opacity="0.5019607843137255" />
<path d="M60,-177 L213,-295 L204,-284 L153,-238 L93,-235 L158,-172 Z" stroke-width="0" fill="#110000" fill-opacity="0.11372549019607843" />
<path d="M168,-174 L95,-58 L121,-100 L204,-232 L117,-53 L80,-262 Z" stroke-width="0" fill="#4c4332" fill-opacity="0.11764705882352941" />
<path d="M82,-297 L129,-221 L134,-48 L116,-199 L144,-221 L172,-309 Z" stroke-width="0" fill="#dd5623" fill-opacity="0.6313725490196078" />
<path d="M86,-315 L103,-173 L71,-76 L121,-250 L220,-89 L108,-61 Z" stroke-width="0" fill="#db6a8d" fill-opacity="0.08235294117647059" />
<path d="M194,-107 L168,-66 L184,-214 L208,-102 L176,-58 L29,-174 Z" stroke-width="0" fill="#f54bd5" fill-opacity="0.09019607843137255" />
<path d="M115,-166 L231,-60 L135,-195 L96,-25 L68,-323 L109,-218 Z" stroke-width="0" fill="#39062a" fill-opacity="0.26666666666666666" />
<path d="M179,-154 L80,-270 L182,-52 L187,-277 L122,-209 L31,-237 Z" stroke-width="0" fill="#c343ab" fill-opacity="0.0" />
<path d="M90,-85 L110,-226 L206,-107 L28,-177 L136,-142 L154,-240 Z" stroke-width="0" fill="#6ea266" fill-opacity="0.3058823529411765" />
<path d="M38,-244 L79,-179 L158,-241 L168,-290 L187,-227 L28,-102 Z" stroke-width="0" fill="#1f3a18" fill-opacity="0.5019607843137255" />
<path d="M187,-207 L190,-212 L97,-65 L240,-157 L237,-95 L50,-247 Z" stroke-width="0" fill="#512055" fill-opacity="0.12156862745098039" />
<path d="M151,-138 L187,-190 L95,-114 L221,-176 L214,-312 L44,-116 Z" stroke-width="0" fill="#d68d83" fill-opacity="0.3686274509803922" />
<path d="M121,-207 L220,-137 L220,-62 L158,-208 L80,-189 L205,-146 Z" stroke-width="0" fill="#86907e" fill-opacity="0.2196078431372549" />
<path d="M181,-202 L184,-268 L43,-220 L30,-289 L169,-38 L145,-163 Z" stroke-width="0" fill="#0f2600" fill-opacity="0.2196078431372549" />
<text x="137.5" y="12.5" font-size="20.0" fill="black" text-anchor="middle" transform="translate(0,5.0)">10 OF EARTH</text>
</svg>