<?xml version="1.0" encoding="UTF-8"?>
<svg xmlns="http://www.w3.org/2000/svg" xmlns:xlink="http://www.w3.org/1999/xlink"
     width="896" height="1496" viewBox="0 -1400 896 1496" style="font-size:70;font-family:Poor Richard, Times New Roman;stroke:black;stroke-width:1;fill:none">
<defs>
</defs>
<path d="M194,-494 L230,-1154 L530,-1066 L222,-546 L410,-874 L350,-1070 Z" stroke-width="0" fill="#f0fce9" fill-opacity="0.14901960784313725" />
<path d="M782,-686 L302,-1114 L146,-310 L222,-618 L110,-798 L450,-82 Z" stroke-width="0" fill="#bac3c3" fill-opacity="0.17647058823529413" />
<path d="M190,-154 L278,-114 L486,-898 L790,-114 L106,-286 L914,-454 Z" stroke-width="0" fill="#6a4372" fill-opacity="0.01568627450980392" />
<path d="M478,-1262 L730,-786 L314,-498 L482,-1230 L350,-758 L970,-270 Z" stroke-width="0" fill="#fcf9e8" fill-opacity="0.050980392156862744" />
<path d="M630,-1202 L378,-606 L270,-190 L798,-1170 L90,-342 L142,-1134 Z" stroke-width="0" fill="#d6ecfc" fill-opacity="0.06274509803921569" />
<path d="M278,-738 L374,-962 L110,-1102 L314,-386 L206,-898 L714,-378 Z" stroke-width="0" fill="#d3f35c" fill-opacity="0.10588235294117647" />
<path d="M578,-950 L358,-1234 L338,-666 L870,-894 L382,-302 L110,-130 Z" stroke-width="0" fill="#9abebf" fill-opacity="0.13725490196078433" />
<path d="M474,-450 L786,-434 L842,-1190 L450,-930 L694,-1058 L130,-86 Z" stroke-width="0" fill="#f7e5fa" fill-opacity="0.027450980392156862" />
<path d="M350,-462 L158,-362 L806,-378 L86,-394 L378,-170 L114,-654 Z" stroke-width="0" fill="#180642" fill-opacity="0.07450980392156863" />
<path d="M270,-414 L618,-222 L274,-186 L390,-862 L306,-462 L274,-1134 Z" stroke-width="0" fill="#f0f7d5" fill-opacity="0.8274509803921568" />
<path d="M226,-366 L814,-1246 L654,-666 L974,-126 L450,-98 L454,-346 Z" stroke-width="0" fill="#28f8cd" fill-opacity="0.0" />
<path d="M914,-1018 L570,-338 L410,-662 L574,-814 L762,-978 L194,-582 Z" stroke-width="0" fill="#fee6ff" fill-opacity="0.08235294117647059" />
<path d="M546,-610 L566,-762 L90,-1078 L122,-1262 L494,-174 L882,-110 Z" stroke-width="0" fill="#f5eff4" fill-opacity="0.32941176470588235" />
<path d="M586,-386 L302,-486 L546,-394 L446,-494 L278,-374 L554,-94 Z" stroke-width="0" fill="#d7baf4" fill-opacity="0.15294117647058825" />
<path d="M894,-978 L190,-926 L478,-734 L942,-546 L566,-670 L286,-302 Z" stroke-width="0" fill="#fcf3f8" fill-opacity="0.1450980392156863" />
<path d="M242,-238 L422,-1238 L362,-826 L910,-298 L286,-1134 L554,-706 Z" stroke-width="0" fill="#faddec" fill-opacity="0.054901960784313725" />
<path d="M518,-334 L138,-630 L362,-322 L302,-1078 L118,-1218 L970,-442 Z" stroke-width="0" fill="#f1aee3" fill-opacity="0.0784313725490196" />
<path d="M98,-454 L222,-766 L742,-1078 L510,-462 L230,-1166 L606,-322 Z" stroke-width="0" fill="#6a6643" fill-opacity="0.0" />
<path d="M690,-998 L202,-1022 L238,-298 L498,-378 L842,-698 L242,-710 Z" stroke-width="0" fill="#e6ebe7" fill-opacity="0.01568627450980392" />
<path d="M622,-298 L198,-330 L470,-1054 L542,-858 L98,-150 L450,-1006 Z" stroke-width="0" fill="#d77c6c" fill-opacity="0.21568627450980393" />
<path d="M870,-154 L610,-726 L294,-774 L302,-1054 L558,-106 L294,-158 Z" stroke-width="0" fill="#f5feb9" fill-opacity="0.03137254901960784" />
<path d="M922,-614 L526,-654 L702,-418 L550,-154 L814,-774 L158,-1230 Z" stroke-width="0" fill="#f6f6f9" fill-opacity="0.34509803921568627" />
<path d="M502,-918 L730,-378 L362,-266 L186,-854 L750,-774 L518,-886 Z" stroke-width="0" fill="#d6e1ec" fill-opacity="0.12156862745098039" />
<path d="M938,-914 L274,-878 L194,-390 L790,-798 L178,-458 L98,-802 Z" stroke-width="0" fill="#e0dcfe" fill-opacity="0.09803921568627451" />
<path d="M798,-1258 L686,-394 L218,-1130 L110,-442 L698,-366 L518,-142 Z" stroke-width="0" fill="#fcf2e3" fill-opacity="0.20784313725490197" />
<path d="M406,-622 L914,-242 L722,-746 L634,-354 L590,-490 L862,-502 Z" stroke-width="0" fill="#fad7df" fill-opacity="0.10196078431372549" />
<path d="M650,-482 L198,-994 L650,-710 L774,-930 L146,-138 L650,-222 Z" stroke-width="0" fill="#fffbfb" fill-opacity="0.9921568627450981" />
<path d="M110,-458 L82,-1258 L222,-530 L458,-778 L382,-966 L686,-714 Z" stroke-width="0" fill="#cbd4be" fill-opacity="0.34509803921568627" />
<path d="M598,-942 L882,-254 L922,-310 L386,-718 L194,-246 L634,-690 Z" stroke-width="0" fill="#e2ffdd" fill-opacity="0.10196078431372549" />
<path d="M450,-462 L450,-518 L714,-506 L646,-274 L962,-786 L706,-162 Z" stroke-width="0" fill="#fafce7" fill-opacity="0.16470588235294117" />
<path d="M474,-234 L630,-738 L238,-414 L870,-634 L382,-870 L566,-482 Z" stroke-width="0" fill="#f9ffcb" fill-opacity="0.047058823529411764" />
<path d="M898,-342 L98,-290 L490,-622 L474,-574 L486,-630 L886,-270 Z" stroke-width="0" fill="#d8f2e0" fill-opacity="0.050980392156862744" />
<path d="M486,-298 L818,-678 L662,-410 L166,-410 L210,-142 L294,-210 Z" stroke-width="0" fill="#e7dffc" fill-opacity="0.611764705882353" />
<path d="M454,-178 L398,-370 L838,-402 L534,-642 L278,-182 L950,-882 Z" stroke-width="0" fill="#efe3fb" fill-opacity="0.00784313725490196" />
<path d="M226,-1242 L638,-1186 L958,-1106 L674,-658 L698,-766 L502,-414 Z" stroke-width="0" fill="#e1dfdd" fill-opacity="0.050980392156862744" />
<path d="M966,-234 L298,-922 L150,-838 L438,-290 L402,-766 L402,-846 Z" stroke-width="0" fill="#e6ffc2" fill-opacity="0.027450980392156862" />
<path d="M638,-90 L418,-366 L222,-1226 L502,-522 L730,-410 L506,-382 Z" stroke-width="0" fill="#fafff4" fill-opacity="0.8313725490196079" />
<path d="M762,-530 L270,-150 L494,-526 L246,-374 L970,-558 L150,-726 Z" stroke-width="0" fill="#b669ab" fill-opacity="0.0" />
<path d="M798,-738 L546,-726 L310,-482 L978,-526 L322,-742 L930,-502 Z" stroke-width="0" fill="#bff8df" fill-opacity="0.09803921568627451" />
<path d="M810,-1198 L926,-1170 L534,-494 L310,-242 L286,-498 L838,-622 Z" stroke-width="0" fill="#f8fbe0" fill-opacity="0.0784313725490196" />
<path d="M450,-130 L502,-1114 L846,-1018 L102,-1074 L434,-358 L374,-446 Z" stroke-width="0" fill="#cfe3ec" fill-opacity="0.11372549019607843" />
<path d="M850,-1142 L82,-1234 L586,-386 L958,-1190 L118,-618 L190,-998 Z" stroke-width="0" fill="#eaf8f9" fill-opacity="0.396078431372549" />
<path d="M250,-450 L482,-1190 L698,-242 L122,-1050 L886,-510 L878,-746 Z" stroke-width="0" fill="#f6f8ec" fill-opacity="0.0392156862745098" />
<path d="M506,-1026 L594,-186 L346,-974 L398,-270 L610,-350 L226,-130 Z" stroke-width="0" fill="#eae842" fill-opacity="0.043137254901960784" />
<path d="M610,-770 L126,-1066 L226,-162 L450,-386 L590,-842 L694,-230 Z" stroke-width="0" fill="#294c98" fill-opacity="0.0" />
<path d="M370,-1234 L470,-1134 L558,-658 L566,-138 L834,-882 L674,-726 Z" stroke-width="0" fill="#e6d4e9" fill-opacity="0.06274509803921569" />
<path d="M954,-878 L318,-1002 L666,-974 L282,-1238 L378,-510 L534,-1222 Z" stroke-width="0" fill="#e5eecf" fill-opacity="0.047058823529411764" />
<path d="M862,-198 L614,-90 L226,-122 L490,-930 L966,-642 L558,-306 Z" stroke-width="0" fill="#ade1eb" fill-opacity="0.03137254901960784" />
<path d="M214,-338 L98,-678 L630,-946 L850,-438 L630,-850 L218,-506 Z" stroke-width="0" fill="#fdbbd3" fill-opacity="0.00784313725490196" />
<path d="M218,-794 L834,-114 L538,-898 L714,-322 L742,-1106 L122,-486 Z" stroke-width="0" fill="#efe0e9" fill-opacity="0.023529411764705882" />
<path d="M270,-322 L194,-1278 L870,-750 L138,-566 L286,-502 L974,-182 Z" stroke-width="0" fill="#5acc77" fill-opacity="0.011764705882352941" />
<path d="M974,-438 L126,-838 L154,-210 L402,-1026 L130,-190 L882,-862 Z" stroke-width="0" fill="#f1f6fe" fill-opacity="0.058823529411764705" />
<path d="M114,-622 L702,-1006 L722,-386 L490,-146 L790,-810 L538,-1258 Z" stroke-width="0" fill="#e4e1f3" fill-opacity="0.18823529411764706" />
<path d="M302,-234 L938,-154 L102,-1138 L770,-618 L150,-82 L818,-226 Z" stroke-width="0" fill="#eee0f4" fill-opacity="0.054901960784313725" />
<path d="M386,-234 L98,-222 L726,-1162 L182,-642 L278,-378 L718,-790 Z" stroke-width="0" fill="#f4efec" fill-opacity="0.7843137254901961" />
<path d="M666,-1102 L186,-186 L226,-458 L142,-366 L162,-838 L782,-674 Z" stroke-width="0" fill="#d7f9f4" fill-opacity="0.12549019607843137" />
<path d="M734,-294 L138,-1006 L138,-598 L230,-486 L926,-246 L634,-966 Z" stroke-width="0" fill="#f9b5f2" fill-opacity="0.023529411764705882" />
<path d="M842,-454 L110,-282 L114,-686 L222,-410 L638,-1190 L698,-82 Z" stroke-width="0" fill="#f1fdff" fill-opacity="0.34509803921568627" />
<path d="M194,-174 L594,-654 L310,-114 L718,-1182 L482,-918 L118,-310 Z" stroke-width="0" fill="#fefeaa" fill-opacity="0.10588235294117647" />
<path d="M306,-938 L822,-1014 L182,-650 L898,-786 L302,-462 L398,-1166 Z" stroke-width="0" fill="#eae6fe" fill-opacity="0.5725490196078431" />
<path d="M266,-1270 L138,-694 L182,-1014 L518,-830 L146,-986 L182,-1050 Z" stroke-width="0" fill="#ced4ca" fill-opacity="0.16862745098039217" />
<path d="M306,-474 L110,-538 L426,-730 L886,-262 L362,-346 L386,-538 Z" stroke-width="0" fill="#e4fdfb" fill-opacity="0.5568627450980392" />
<path d="M710,-246 L442,-1018 L686,-82 L750,-890 L722,-454 L166,-154 Z" stroke-width="0" fill="#e1d4de" fill-opacity="0.011764705882352941" />
<path d="M662,-842 L702,-174 L566,-398 L210,-878 L210,-174 L566,-982 Z" stroke-width="0" fill="#dee4f1" fill-opacity="0.01568627450980392" />
<path d="M314,-182 L374,-782 L294,-226 L550,-790 L546,-494 L214,-378 Z" stroke-width="0" fill="#fcfbf1" fill-opacity="0.45098039215686275" />
<path d="M906,-330 L678,-674 L146,-262 L714,-854 L930,-898 L514,-766 Z" stroke-width="0" fill="#ede2e4" fill-opacity="0.0196078431372549" />
<path d="M230,-966 L818,-370 L578,-182 L226,-998 L298,-298 L678,-334 Z" stroke-width="0" fill="#fadef3" fill-opacity="0.047058823529411764" />
<path d="M526,-218 L86,-314 L362,-1102 L90,-1126 L262,-158 L434,-250 Z" stroke-width="0" fill="#cdc6f8" fill-opacity="0.043137254901960784" />
<path d="M206,-422 L790,-1162 L746,-1250 L790,-1162 L346,-1090 L474,-150 Z" stroke-width="0" fill="#e8f6fc" fill-opacity="0.6862745098039216" />
<path d="M346,-462 L818,-722 L126,-1158 L602,-126 L298,-902 L694,-378 Z" stroke-width="0" fill="#f6f6e0" fill-opacity="0.06274509803921569" />
<path d="M782,-1074 L634,-590 L318,-1094 L210,-962 L246,-1082 L182,-654 Z" stroke-width="0" fill="#fdf0f2" fill-opacity="0.8431372549019608" />
<path d="M122,-582 L254,-810 L810,-790 L270,-826 L794,-326 L474,-674 Z" stroke-width="0" fill="#fff6e0" fill-opacity="0.8274509803921568" />
<path d="M966,-550 L326,-766 L578,-522 L150,-434 L238,-450 L566,-1094 Z" stroke-width="0" fill="#e1bfb5" fill-opacity="0.03137254901960784" />
<path d="M446,-530 L574,-510 L878,-450 L170,-298 L290,-906 L158,-1054 Z" stroke-width="0" fill="#f3e8e7" fill-opacity="0.5254901960784314" />
<path d="M802,-398 L138,-958 L118,-1142 L738,-1058 L402,-666 L870,-1066 Z" stroke-width="0" fill="#ddf6fc" fill-opacity="0.043137254901960784" />
<path d="M158,-366 L766,-250 L702,-802 L490,-206 L558,-502 L862,-194 Z" stroke-width="0" fill="#ffc5c5" fill-opacity="0.2196078431372549" />
<path d="M630,-566 L966,-814 L550,-806 L690,-410 L498,-326 L542,-162 Z" stroke-width="0" fill="#a4bdf7" fill-opacity="0.10588235294117647" />
<path d="M610,-650 L574,-1086 L234,-530 L154,-138 L918,-806 L630,-1102 Z" stroke-width="0" fill="#e5f0e1" fill-opacity="0.0196078431372549" />
<path d="M946,-1018 L826,-550 L442,-310 L518,-1270 L674,-1118 L942,-1038 Z" stroke-width="0" fill="#fbfffd" fill-opacity="0.5490196078431373" />
<path d="M750,-1146 L738,-102 L494,-974 L586,-1254 L402,-834 L482,-238 Z" stroke-width="0" fill="#effdfa" fill-opacity="0.5803921568627451" />
<path d="M862,-818 L610,-182 L550,-1210 L174,-114 L574,-326 L678,-826 Z" stroke-width="0" fill="#f99ad4" fill-opacity="0.0196078431372549" />
<path d="M462,-606 L734,-382 L190,-942 L626,-898 L126,-506 L458,-1050 Z" stroke-width="0" fill="#fbf3f9" fill-opacity="0.6431372549019608" />
<path d="M378,-514 L834,-990 L942,-298 L726,-1170 L218,-410 L898,-1142 Z" stroke-width="0" fill="#feeed8" fill-opacity="0.0784313725490196" />
<path d="M526,-926 L610,-950 L294,-186 L250,-1134 L162,-1254 L246,-754 Z" stroke-width="0" fill="#272b30" fill-opacity="0.0" />
<path d="M498,-158 L90,-186 L290,-1230 L810,-278 L958,-106 L402,-362 Z" stroke-width="0" fill="#ceeefb" fill-opacity="0.1411764705882353" />
<path d="M510,-910 L634,-538 L626,-394 L546,-406 L270,-250 L742,-606 Z" stroke-width="0" fill="#f4ffe9" fill-opacity="0.9725490196078431" />
<path d="M282,-802 L370,-614 L378,-1150 L302,-982 L674,-1054 L686,-850 Z" stroke-width="0" fill="#dbe8dc" fill-opacity="0.10196078431372549" />
<path d="M310,-318 L98,-1150 L442,-930 L842,-802 L110,-270 L830,-214 Z" stroke-width="0" fill="#e8e9f0" fill-opacity="0.0196078431372549" />
<path d="M646,-570 L398,-782 L278,-430 L874,-494 L846,-942 L762,-986 Z" stroke-width="0" fill="#b7fac1" fill-opacity="0.047058823529411764" />
<path d="M810,-666 L302,-1054 L518,-674 L270,-250 L226,-654 L202,-690 Z" stroke-width="0" fill="#c8dbf1" fill-opacity="0.10588235294117647" />
<path d="M710,-914 L102,-138 L270,-938 L638,-394 L218,-1098 L286,-1046 Z" stroke-width="0" fill="#ecfffb" fill-opacity="0.9725490196078431" />
<path d="M390,-286 L970,-510 L318,-974 L850,-630 L822,-882 L202,-554 Z" stroke-width="0" fill="#f3c6f1" fill-opacity="0.054901960784313725" />
<path d="M594,-558 L902,-1222 L286,-782 L774,-298 L694,-354 L598,-1162 Z" stroke-width="0" fill="#d1d8f5" fill-opacity="0.4588235294117647" />
<path d="M826,-110 L894,-1134 L122,-1110 L150,-466 L142,-1094 L338,-602 Z" stroke-width="0" fill="#dbd6e7" fill-opacity="0.0" />
<path d="M798,-1030 L574,-434 L766,-1198 L350,-318 L262,-354 L902,-398 Z" stroke-width="0" fill="#f5e8b0" fill-opacity="0.30980392156862746" />
<path d="M614,-410 L866,-634 L970,-1082 L918,-666 L154,-374 L874,-314 Z" stroke-width="0" fill="#ecc4f8" fill-opacity="0.17647058823529413" />
<path d="M154,-170 L294,-118 L194,-138 L334,-126 L98,-978 L634,-866 Z" stroke-width="0" fill="#c1eea5" fill-opacity="0.050980392156862744" />
<path d="M246,-978 L282,-638 L162,-1046 L106,-222 L926,-350 L314,-130 Z" stroke-width="0" fill="#f6c0ff" fill-opacity="0.10196078431372549" />
<path d="M190,-306 L218,-502 L282,-254 L738,-486 L858,-774 L310,-1222 Z" stroke-width="0" fill="#f9d265" fill-opacity="0.21568627450980393" />
<path d="M90,-558 L394,-410 L422,-234 L878,-850 L342,-942 L730,-1102 Z" stroke-width="0" fill="#e1f0ec" fill-opacity="0.5137254901960784" />
<text x="448.0" y="0" font-size="70.0" fill="black" text-anchor="middle" transform="translate(0,17.5)">PAGE OF EARTH</text>
</svg>