<?xml version="1.0" encoding="UTF-8"?>
<svg xmlns="http://www.w3.org/2000/svg" xmlns:xlink="http://www.w3.org/1999/xlink"
     width="275" height="375" viewBox="0 -350 275 375">
<defs>
</defs>
<rect x="15" y="-335" width="245" height="320" stroke="black" stroke-width="4" fill="white" />
<path d="M78,-304 L104,-54 L206,-204 L67,-298 L171,-288 L213,-265 Z" stroke-width="0" fill="#22fbcc" fill-opacity="0.06666666666666667" />
<path d="M221,-120 L116,-79 L205,-166 L120,-38 L110,-81 L232,-190 Z" stroke-width="0" fill="#574e54" fill-opacity="0.19215686274509805" />
<path d="M235,-77 L205,-57 L43,-211 L35,-307 L38,-150 L167,-58 Z" stroke-width="0" fill="#bafeff" fill-opacity="0.5725490196078431" />
<path d="M100,-172 L85,-293 L111,-224 L47,-312 L174,-145 L118,-123 Z" stroke-width="0" fill="#0414ca" fill-opacity="0.03137254901960784" />
<path d="M127,-197 L151,-260 L25,-158 L29,-37 L139,-178 L123,-65 Z" stroke-width="0" fill="#000000" fill-opacity="0.9372549019607843" />
<path d="M127,-116 L26,-143 L129,-227 L40,-129 L243,-191 L89,-247 Z" stroke-width="0" fill="#b58e05" fill-opacity="0.5372549019607843" />
<path d="M162,-91 L199,-202 L227,-168 L112,-187 L169,-282 L80,-226 Z" stroke-width="0" fill="#d7b96d" fill-opacity="0.08627450980392157" />
<path d="M65,-177 L58,-136 L142,-226 L120,-105 L141,-310 L231,-75 Z" stroke-width="0" fill="#4ef2d1" fill-opacity="0.20392156862745098" />
<path d="M193,-155 L85,-167 L130,-324 L152,-267 L222,-216 L28,-292 Z" stroke-width="0" fill="#0308ba" fill-opacity="0.06274509803921569" />
<path d="M76,-54 L93,-26 L104,-50 L91,-55 L119,-49 L82,-191 Z" stroke-width="0" fill="#000000" fill-opacity="0.8117647058823529" />
<path d="M183,-243 L105,-41 L81,-133 L143,-299 L74,-244 L147,-235 Z" stroke-width="0" fill="#f7dfe8" fill-opacity="0.11372549019607843" />
<path d="M42,-128 L143,-90 L117,-157 L35,-29 L59,-101 L57,-139 Z" stroke-width="0" fill="#5cfef4" fill-opacity="0.054901960784313725" />
<path d="M224,-130 L235,-188 L83,-53 L138,-146 L31,-110 L136,-109 Z" stroke-width="0" fill="#ffeeff" fill-opacity="0.4666666666666667" />
<path d="M182,-42 L56,-30 L189,-317 L154,-278 L86,-162 L144,-286 Z" stroke-width="0" fill="#000000" fill-opacity="0.8235294117647058" />
<path d="M56,-207 L53,-99 L177,-153 L70,-153 L123,-133 L185,-125 Z" stroke-width="0" fill="#8b0006" fill-opacity="0.796078431372549" />
<path d="M113,-174 L117,-52 L109,-145 L125,-37 L44,-179 L37,-263 Z" stroke-width="0" fill="#010002" fill-opacity="0.0784313725490196" />
<path d="M52,-130 L87,-139 L156,-154 L26,-71 L27,-98 L121,-223 Z" stroke-width="0" fill="#001914" fill-opacity="0.8627450980392157" />
<path d="M115,-31 L68,-205 L215,-212 L183,-170 L162,-138 L125,-134 Z" stroke-width="0" fill="#000000" fill-opacity="1.0" />
<path d="M127,-64 L138,-203 L157,-151 L77,-113 L69,-237 L55,-72 Z" stroke-width="0" fill="#0a0014" fill-opacity="0.8705882352941177" />
<path d="M215,-203 L156,-44 L145,-268 L115,-236 L122,-61 L208,-73 Z" stroke-width="0" fill="#f68dad" fill-opacity="0.0392156862745098" />
<path d="M205,-231 L167,-50 L208,-115 L170,-136 L181,-197 L171,-57 Z" stroke-width="0" fill="#001d02" fill-opacity="0.9882352941176471" />
<path d="M158,-32 L71,-124 L68,-239 L159,-217 L112,-108 L85,-169 Z" stroke-width="0" fill="#260000" fill-opacity="0.984313725490196" />
<path d="M81,-139 L134,-95 L236,-45 L77,-56 L131,-121 L86,-304 Z" stroke-width="0" fill="#3e5b74" fill-opacity="0.11764705882352941" />
<path d="M96,-64 L181,-86 L187,-177 L47,-154 L136,-45 L164,-259 Z" stroke-width="0" fill="#320000" fill-opacity="0.9372549019607843" />
<path d="M208,-153 L182,-83 L42,-63 L222,-65 L142,-52 L231,-231 Z" stroke-width="0" fill="#000000" fill-opacity="0.5019607843137255" />
<path d="M31,-186 L44,-318 L90,-48 L51,-231 L69,-89 L128,-81 Z" stroke-width="0" fill="#aeeff5" fill-opacity="0.5019607843137255" />
<path d="M92,-131 L197,-299 L109,-300 L29,-121 L167,-232 L103,-55 Z" stroke-width="0" fill="#bbf6fe" fill-opacity="0.9568627450980393" />
<path d="M130,-133 L33,-184 L129,-308 L140,-179 L77,-280 L219,-89 Z" stroke-width="0" fill="#f1efd4" fill-opacity="0.8784313725490196" />
<path d="M37,-178 L104,-249 L110,-321 L142,-65 L206,-310 L222,-84 Z" stroke-width="0" fill="#2682f3" fill-opacity="0.1607843137254902" />
<path d="M122,-263 L67,-271 L38,-45 L149,-292 L55,-79 L203,-61 Z" stroke-width="0" fill="#79fffd" fill-opacity="0.03137254901960784" />
<path d="M143,-133 L30,-170 L136,-52 L46,-154 L81,-235 L150,-132 Z" stroke-width="0" fill="#0d0000" fill-opacity="0.7176470588235294" />
<path d="M184,-47 L218,-223 L153,-304 L26,-267 L67,-102 L172,-244 Z" stroke-width="0" fill="#2c80ad" fill-opacity="0.0" />
<path d="M132,-292 L159,-261 L111,-199 L129,-176 L29,-113 L241,-290 Z" stroke-width="0" fill="#6bf1ee" fill-opacity="0.26666666666666666" />
<path d="M157,-203 L66,-234 L181,-288 L69,-157 L65,-114 L48,-136 Z" stroke-width="0" fill="#f6eee9" fill-opacity="0.7843137254901961" />
<path d="M121,-123 L36,-67 L195,-184 L152,-177 L68,-230 L165,-128 Z" stroke-width="0" fill="#a6c134" fill-opacity="0.0196078431372549" />
<path d="M95,-268 L81,-285 L149,-216 L106,-151 L144,-57 L155,-86 Z" stroke-width="0" fill="#0ec7fb" fill-opacity="0.06274509803921569" />
<path d="M206,-208 L89,-28 L38,-323 L76,-184 L192,-28 L178,-74 Z" stroke-width="0" fill="#449530" fill-opacity="0.00784313725490196" />
<path d="M39,-116 L121,-100 L93,-248 L88,-313 L66,-271 L225,-268 Z" stroke-width="0" fill="#3aeec7" fill-opacity="0.2196078431372549" />
<path d="M146,-93 L97,-233 L34,-78 L114,-85 L212,-67 L105,-139 Z" stroke-width="0" fill="#cff9f5" fill-opacity="0.23137254901960785" />
<path d="M46,-217 L123,-248 L200,-198 L196,-83 L245,-324 L89,-165 Z" stroke-width="0" fill="#63acf2" fill-opacity="0.5019607843137255" />
<path d="M182,-213 L117,-132 L48,-217 L177,-109 L76,-45 L242,-67 Z" stroke-width="0" fill="#a81009" fill-opacity="0.07450980392156863" />
<path d="M127,-199 L107,-164 L121,-244 L92,-286 L64,-116 L44,-112 Z" stroke-width="0" fill="#e1e1ee" fill-opacity="0.23529411764705882" />
<path d="M130,-273 L132,-62 L205,-132 L249,-231 L136,-53 L33,-26 Z" stroke-width="0" fill="#090000" fill-opacity="0.9411764705882353" />
<path d="M73,-315 L136,-195 L131,-280 L146,-323 L137,-264 L29,-143 Z" stroke-width="0" fill="#6555dc" fill-opacity="0.0" />
<path d="M241,-280 L92,-91 L165,-40 L121,-114 L180,-302 L161,-300 Z" stroke-width="0" fill="#a097d8" fill-opacity="0.30196078431372547" />
<path d="M162,-77 L29,-185 L245,-196 L36,-123 L94,-223 L115,-266 Z" stroke-width="0" fill="#000000" fill-opacity="0.8470588235294118" />
<path d="M45,-40 L109,-149 L44,-290 L132,-63 L124,-117 L53,-147 Z" stroke-width="0" fill="#f1a068" fill-opacity="0.011764705882352941" />
<path d="M233,-134 L171,-209 L218,-57 L129,-211 L179,-204 L80,-110 Z" stroke-width="0" fill="#c9eec2" fill-opacity="0.08627450980392157" />
<path d="M138,-238 L170,-79 L201,-228 L181,-89 L243,-40 L235,-211 Z" stroke-width="0" fill="#dae5e6" fill-opacity="0.7529411764705882" />
<path d="M172,-82 L103,-34 L249,-48 L201,-227 L132,-41 L26,-314 Z" stroke-width="0" fill="#222503" fill-opacity="0.011764705882352941" />
<path d="M33,-58 L178,-170 L71,-125 L191,-282 L165,-106 L110,-197 Z" stroke-width="0" fill="#c7a5d9" fill-opacity="0.1450980392156863" />
<path d="M29,-41 L75,-151 L178,-84 L30,-201 L44,-48 L31,-309 Z" stroke-width="0" fill="#020000" fill-opacity="0.6431372549019608" />
<path d="M163,-311 L112,-133 L207,-150 L207,-136 L165,-280 L97,-251 Z" stroke-width="0" fill="#6f5cf3" fill-opacity="0.1450980392156863" />
<path d="M152,-44 L213,-216 L128,-30 L211,-225 L32,-44 L192,-128 Z" stroke-width="0" fill="#320024" fill-opacity="0.5372549019607843" />
<path d="M86,-53 L153,-312 L40,-203 L61,-43 L146,-58 L108,-228 Z" stroke-width="0" fill="#c5cbf1" fill-opacity="0.17647058823529413" />
<path d="M77,-175 L26,-255 L36,-261 L83,-148 L90,-207 L88,-220 Z" stroke-width="0" fill="#f1f5f8" fill-opacity="0.7137254901960784" />
<path d="M114,-194 L74,-296 L146,-295 L180,-277 L187,-183 L127,-91 Z" stroke-width="0" fill="#f7d4ed" fill-opacity="0.5647058823529412" />
<path d="M149,-239 L167,-282 L79,-245 L61,-65 L104,-234 L109,-113 Z" stroke-width="0" fill="#fdccf5" fill-opacity="0.08627450980392157" />
<path d="M34,-303 L204,-294 L217,-95 L73,-276 L156,-96 L55,-321 Z" stroke-width="0" fill="#d6e8ee" fill-opacity="0.5254901960784314" />
<path d="M234,-103 L178,-126 L242,-172 L148,-158 L92,-27 L111,-241 Z" stroke-width="0" fill="#b7fdfa" fill-opacity="0.3764705882352941" />
<path d="M218,-151 L50,-78 L130,-219 L126,-166 L95,-57 L117,-267 Z" stroke-width="0" fill="#7cf4c9" fill-opacity="0.6980392156862745" />
<path d="M50,-266 L82,-56 L34,-70 L100,-90 L119,-88 L40,-254 Z" stroke-width="0" fill="#aa250f" fill-opacity="0.08627450980392157" />
<path d="M131,-52 L237,-37 L131,-259 L104,-56 L161,-182 L34,-143 Z" stroke-width="0" fill="#b23f4e" fill-opacity="0.00784313725490196" />
<path d="M244,-32 L187,-299 L79,-315 L222,-140 L200,-293 L175,-298 Z" stroke-width="0" fill="#ccf7fb" fill-opacity="0.8666666666666667" />
<path d="M48,-57 L198,-169 L110,-51 L217,-113 L202,-187 L144,-80 Z" stroke-width="0" fill="#1f3f29" fill-opacity="0.24313725490196078" />
<path d="M159,-112 L177,-138 L104,-311 L30,-130 L81,-235 L210,-75 Z" stroke-width="0" fill="#9794fb" fill-opacity="0.08627450980392157" />
<path d="M94,-110 L242,-209 L227,-62 L91,-245 L155,-132 L83,-70 Z" stroke-width="0" fill="#f6d1e9" fill-opacity="0.6" />
<path d="M147,-165 L235,-35 L221,-103 L182,-115 L118,-277 L89,-194 Z" stroke-width="0" fill="#d5ddda" fill-opacity="0.043137254901960784" />
<path d="M35,-43 L128,-261 L136,-161 L198,-156 L157,-295 L107,-67 Z" stroke-width="0" fill="#160000" fill-opacity="0.8941176470588236" />
<path d="M75,-132 L101,-258 L131,-94 L73,-137 L28,-318 L126,-240 Z" stroke-width="0" fill="#40f199" fill-opacity="0.03529411764705882" />
<path d="M41,-66 L187,-32 L46,-210 L225,-146 L219,-135 L146,-300 Z" stroke-width="0" fill="#100000" fill-opacity="0.7411764705882353" />
<path d="M199,-202 L168,-320 L46,-144 L36,-229 L51,-165 L59,-36 Z" stroke-width="0" fill="#a9eef7" fill-opacity="1.0" />
<path d="M124,-297 L53,-44 L126,-51 L141,-211 L57,-60 L197,-324 Z" stroke-width="0" fill="#5d63f0" fill-opacity="0.00392156862745098" />
<path d="M65,-224 L71,-37 L148,-239 L92,-122 L30,-153 L59,-87 Z" stroke-width="0" fill="#110000" fill-opacity="0.9333333333333333" />
<path d="M57,-111 L40,-201 L154,-211 L89,-314 L178,-131 L202,-270 Z" stroke-width="0" fill="#eafed3" fill-opacity="0.23529411764705882" />
<path d="M100,-36 L68,-175 L221,-117 L114,-304 L144,-56 L176,-82 Z" stroke-width="0" fill="#bb5cf9" fill-opacity="0.054901960784313725" />
<path d="M50,-34 L35,-254 L107,-131 L55,-190 L101,-76 L36,-178 Z" stroke-width="0" fill="#152410" fill-opacity="0.9725490196078431" />
<path d="M58,-43 L167,-121 L166,-78 L86,-114 L93,-313 L79,-234 Z" stroke-width="0" fill="#050000" fill-opacity="0.49411764705882355" />
<path d="M32,-95 L219,-134 L172,-244 L98,-34 L136,-227 L77,-39 Z" stroke-width="0" fill="#14482c" fill-opacity="0.5843137254901961" />
<path d="M37,-210 L195,-287 L199,-158 L85,-182 L39,-201 L36,-42 Z" stroke-width="0" fill="#eafab4" fill-opacity="0.11764705882352941" />
<path d="M46,-158 L109,-116 L232,-129 L80,-287 L51,-228 L53,-309 Z" stroke-width="0" fill="#6e2c72" fill-opacity="0.06666666666666667" />
<path d="M164,-262 L180,-189 L70,-285 L46,-50 L148,-172 L154,-124 Z" stroke-width="0" fill="#df49e0" fill-opacity="0.22745098039215686" />
<path d="M178,-262 L70,-75 L182,-78 L193,-198 L155,-37 L218,-99 Z" stroke-width="0" fill="#0a050e" fill-opacity="0.1411764705882353" />
<path d="M240,-148 L144,-181 L41,-48 L117,-265 L158,-74 L119,-74 Z" stroke-width="0" fill="#d1aef7" fill-opacity="0.3764705882352941" />
<path d="M248,-177 L36,-89 L213,-241 L45,-67 L77,-50 L247,-227 Z" stroke-width="0" fill="#845d27" fill-opacity="0.5019607843137255" />
<path d="M30,-137 L70,-265 L51,-53 L53,-239 L231,-77 L94,-95 Z" stroke-width="0" fill="#050000" fill-opacity="0.3607843137254902" />
<path d="M181,-210 L48,-285 L243,-140 L142,-234 L53,-167 L90,-142 Z" stroke-width="0" fill="#9ef9f2" fill-opacity="0.5529411764705883" />
<path d="M163,-138 L191,-281 L85,-145 L139,-312 L170,-142 L241,-90 Z" stroke-width="0" fill="#e1c9f2" fill-opacity="0.984313725490196" />
<path d="M209,-202 L168,-73 L138,-122 L55,-146 L50,-182 L165,-44 Z" stroke-width="0" fill="#000000" fill-opacity="0.35294117647058826" />
<path d="M106,-300 L91,-126 L67,-79 L108,-160 L233,-191 L52,-307 Z" stroke-width="0" fill="#d4c6fd" fill-opacity="0.5019607843137255" />
<path d="M134,-154 L51,-273 L200,-68 L223,-206 L102,-269 L139,-217 Z" stroke-width="0" fill="#fbf4e7" fill-opacity="0.5764705882352941" />
<path d="M30,-201 L89,-265 L93,-60 L55,-141 L143,-124 L102,-112 Z" stroke-width="0" fill="#000000" fill-opacity="0.6549019607843137" />
<path d="M186,-236 L74,-115 L158,-322 L54,-189 L30,-190 L114,-129 Z" stroke-width="0" fill="#a555f5" fill-opacity="0.3333333333333333" />
<path d="M72,-274 L192,-179 L183,-190 L63,-131 L196,-251 L46,-38 Z" stroke-width="0" fill="#00170d" fill-opacity="0.058823529411764705" />
<path d="M124,-51 L37,-150 L175,-223 L192,-41 L145,-173 L54,-79 Z" stroke-width="0" fill="#001400" fill-opacity="0.5019607843137255" />
<path d="M79,-194 L155,-134 L103,-213 L184,-221 L89,-219 L130,-181 Z" stroke-width="0" fill="#b7f807" fill-opacity="0.023529411764705882" />
<path d="M87,-276 L39,-254 L107,-215 L26,-142 L89,-34 L217,-94 Z" stroke-width="0" fill="#000000" fill-opacity="0.5411764705882353" />
<path d="M39,-59 L144,-215 L98,-33 L118,-148 L171,-68 L116,-141 Z" stroke-width="0" fill="#030d02" fill-opacity="0.4117647058823529" />
<path d="M236,-121 L35,-112 L194,-171 L121,-138 L77,-254 L195,-144 Z" stroke-width="0" fill="#000000" fill-opacity="0.6078431372549019" />
<path d="M103,-184 L218,-299 L178,-146 L197,-30 L178,-291 L116,-207 Z" stroke-width="0" fill="#dbdadd" fill-opacity="0.396078431372549" />
<text x="137.5" y="12.5" font-size="20.0" fill="black" text-anchor="middle" transform="translate(0,5.0)">4 OF EARTH</text>
</svg>