<?xml version="1.0" encoding="UTF-8"?>
<svg xmlns="http://www.w3.org/2000/svg" xmlns:xlink="http://www.w3.org/1999/xlink"
     width="275" height="375" viewBox="0 -350 275 375">
<defs>
</defs>
<rect x="15" y="-335" width="245" height="320" stroke="black" stroke-width="4" fill="white" />
<path d="M243,-242 L218,-198 L160,-244 L193,-218 L223,-78 L171,-104 Z" stroke-width="0" fill="#d9dcf5" fill-opacity="0.30980392156862746" />
<path d="M83,-108 L121,-149 L241,-198 L121,-203 L90,-253 L93,-110 Z" stroke-width="0" fill="#1eea99" fill-opacity="0.39215686274509803" />
<path d="M153,-139 L141,-166 L215,-290 L160,-217 L78,-144 L158,-208 Z" stroke-width="0" fill="#028ebb" fill-opacity="0.6745098039215687" />
<path d="M88,-112 L159,-149 L63,-269 L58,-130 L51,-322 L60,-306 Z" stroke-width="0" fill="#000121" fill-opacity="0.19607843137254902" />
<path d="M248,-142 L79,-89 L62,-143 L117,-160 L32,-275 L50,-140 Z" stroke-width="0" fill="#01a27a" fill-opacity="0.5019607843137255" />
<path d="M26,-156 L126,-78 L87,-215 L74,-72 L154,-125 L166,-266 Z" stroke-width="0" fill="#3cebf3" fill-opacity="0.5764705882352941" />
<path d="M108,-142 L54,-149 L59,-126 L147,-262 L160,-323 L178,-102 Z" stroke-width="0" fill="#08a4db" fill-opacity="0.396078431372549" />
<path d="M240,-307 L68,-324 L99,-91 L165,-172 L190,-88 L219,-71 Z" stroke-width="0" fill="#008e7a" fill-opacity="0.3803921568627451" />
<path d="M56,-72 L209,-92 L86,-79 L141,-282 L128,-87 L224,-254 Z" stroke-width="0" fill="#fafffa" fill-opacity="0.7137254901960784" />
<path d="M52,-105 L97,-39 L211,-141 L75,-261 L33,-68 L210,-116 Z" stroke-width="0" fill="#5b2111" fill-opacity="0.9607843137254902" />
<path d="M28,-70 L66,-141 L228,-160 L109,-138 L51,-115 L28,-216 Z" stroke-width="0" fill="#000000" fill-opacity="0.7058823529411765" />
<path d="M189,-319 L161,-162 L110,-117 L198,-195 L36,-324 L134,-221 Z" stroke-width="0" fill="#009da9" fill-opacity="0.26666666666666666" />
<path d="M78,-163 L145,-239 L164,-177 L84,-206 L102,-132 L97,-264 Z" stroke-width="0" fill="#751327" fill-opacity="0.7490196078431373" />
<path d="M204,-91 L108,-155 L203,-52 L244,-57 L116,-45 L33,-130 Z" stroke-width="0" fill="#178c6c" fill-opacity="0.3254901960784314" />
<path d="M31,-129 L130,-248 L208,-217 L164,-150 L201,-228 L183,-113 Z" stroke-width="0" fill="#120000" fill-opacity="0.5490196078431373" />
<path d="M71,-122 L117,-119 L205,-158 L96,-172 L171,-241 L88,-240 Z" stroke-width="0" fill="#f8ed80" fill-opacity="0.611764705882353" />
<path d="M221,-146 L201,-71 L56,-173 L66,-104 L220,-104 L233,-175 Z" stroke-width="0" fill="#d2ec96" fill-opacity="0.43529411764705883" />
<path d="M143,-99 L74,-161 L237,-195 L242,-198 L39,-144 L236,-272 Z" stroke-width="0" fill="#09c0d2" fill-opacity="0.13333333333333333" />
<path d="M129,-85 L32,-178 L118,-42 L56,-129 L125,-261 L137,-81 Z" stroke-width="0" fill="#89f6fe" fill-opacity="0.1568627450980392" />
<path d="M54,-160 L116,-178 L109,-59 L227,-147 L134,-218 L74,-37 Z" stroke-width="0" fill="#4e3c00" fill-opacity="1.0" />
<path d="M41,-88 L82,-90 L71,-192 L72,-93 L219,-223 L219,-285 Z" stroke-width="0" fill="#eaa8fa" fill-opacity="0.054901960784313725" />
<path d="M229,-119 L40,-72 L83,-240 L128,-201 L84,-161 L89,-84 Z" stroke-width="0" fill="#190011" fill-opacity="0.6509803921568628" />
<path d="M184,-273 L103,-200 L92,-271 L94,-144 L129,-189 L122,-121 Z" stroke-width="0" fill="#2eaaf2" fill-opacity="0.9647058823529412" />
<path d="M206,-139 L55,-225 L191,-108 L132,-91 L83,-113 L212,-290 Z" stroke-width="0" fill="#8bf6f8" fill-opacity="0.6313725490196078" />
<path d="M112,-59 L194,-238 L219,-87 L42,-48 L195,-117 L197,-120 Z" stroke-width="0" fill="#aa84c3" fill-opacity="0.011764705882352941" />
<path d="M249,-90 L164,-70 L67,-139 L28,-255 L165,-219 L89,-125 Z" stroke-width="0" fill="#5ff6f4" fill-opacity="0.7450980392156863" />
<path d="M66,-65 L66,-47 L135,-249 L97,-126 L230,-294 L108,-97 Z" stroke-width="0" fill="#a1fdfb" fill-opacity="0.7686274509803922" />
<path d="M124,-31 L64,-117 L168,-183 L78,-163 L120,-161 L108,-191 Z" stroke-width="0" fill="#050900" fill-opacity="0.8431372549019608" />
<path d="M180,-140 L67,-141 L83,-32 L198,-81 L180,-100 L80,-239 Z" stroke-width="0" fill="#340000" fill-opacity="0.7294117647058823" />
<path d="M71,-144 L129,-308 L80,-171 L207,-173 L100,-92 L162,-210 Z" stroke-width="0" fill="#3bbeea" fill-opacity="0.3254901960784314" />
<path d="M164,-141 L164,-40 L177,-309 L176,-173 L220,-95 L132,-307 Z" stroke-width="0" fill="#81d2db" fill-opacity="0.5019607843137255" />
<path d="M38,-62 L82,-311 L35,-145 L61,-260 L110,-150 L130,-182 Z" stroke-width="0" fill="#66713e" fill-opacity="0.10196078431372549" />
<path d="M246,-121 L159,-178 L84,-140 L204,-33 L70,-242 L148,-198 Z" stroke-width="0" fill="#0fc2b4" fill-opacity="0.43137254901960786" />
<path d="M95,-280 L213,-238 L120,-79 L233,-161 L148,-28 L128,-105 Z" stroke-width="0" fill="#00acea" fill-opacity="0.6196078431372549" />
<path d="M186,-55 L105,-291 L150,-221 L230,-178 L200,-40 L80,-42 Z" stroke-width="0" fill="#09b29c" fill-opacity="0.4823529411764706" />
<path d="M60,-273 L171,-27 L87,-129 L163,-45 L199,-41 L63,-267 Z" stroke-width="0" fill="#2acfd4" fill-opacity="0.20784313725490197" />
<path d="M195,-250 L32,-261 L96,-310 L87,-202 L84,-49 L217,-240 Z" stroke-width="0" fill="#14f8c7" fill-opacity="0.5607843137254902" />
<path d="M139,-131 L42,-191 L61,-202 L48,-303 L74,-202 L67,-132 Z" stroke-width="0" fill="#63ece7" fill-opacity="0.803921568627451" />
<path d="M141,-317 L132,-174 L232,-93 L64,-87 L90,-227 L83,-109 Z" stroke-width="0" fill="#718556" fill-opacity="0.1607843137254902" />
<path d="M228,-307 L112,-91 L67,-68 L63,-199 L198,-161 L242,-276 Z" stroke-width="0" fill="#10b0b4" fill-opacity="0.26666666666666666" />
<path d="M232,-229 L147,-248 L83,-202 L191,-97 L190,-82 L78,-193 Z" stroke-width="0" fill="#fadde9" fill-opacity="0.9725490196078431" />
<path d="M232,-181 L119,-294 L60,-33 L91,-240 L128,-74 L114,-93 Z" stroke-width="0" fill="#179ccd" fill-opacity="0.2823529411764706" />
<path d="M157,-319 L101,-308 L242,-203 L189,-252 L51,-165 L70,-315 Z" stroke-width="0" fill="#33a5ce" fill-opacity="0.4980392156862745" />
<path d="M158,-214 L35,-38 L204,-90 L169,-254 L138,-77 L85,-65 Z" stroke-width="0" fill="#d9acde" fill-opacity="0.796078431372549" />
<path d="M27,-203 L36,-80 L84,-146 L53,-117 L81,-126 L60,-107 Z" stroke-width="0" fill="#670051" fill-opacity="0.23529411764705882" />
<path d="M118,-36 L245,-317 L28,-75 L173,-72 L107,-270 L145,-314 Z" stroke-width="0" fill="#4e7ecc" fill-opacity="0.33725490196078434" />
<path d="M98,-53 L111,-36 L248,-259 L197,-99 L146,-318 L96,-173 Z" stroke-width="0" fill="#4dc7bd" fill-opacity="0.2901960784313726" />
<path d="M160,-84 L241,-261 L209,-90 L137,-43 L65,-42 L142,-274 Z" stroke-width="0" fill="#d8dcc1" fill-opacity="0.3803921568627451" />
<path d="M32,-104 L247,-131 L205,-40 L103,-92 L38,-97 L129,-245 Z" stroke-width="0" fill="#2a8a7a" fill-opacity="0.3686274509803922" />
<path d="M101,-116 L209,-111 L115,-29 L161,-273 L161,-26 L154,-34 Z" stroke-width="0" fill="#5aedd1" fill-opacity="0.807843137254902" />
<path d="M162,-99 L185,-37 L37,-113 L51,-172 L114,-161 L127,-75 Z" stroke-width="0" fill="#01267d" fill-opacity="0.11372549019607843" />
<path d="M135,-142 L154,-104 L91,-61 L39,-295 L184,-157 L112,-282 Z" stroke-width="0" fill="#767fb0" fill-opacity="0.24705882352941178" />
<path d="M121,-142 L153,-104 L170,-108 L78,-53 L153,-300 L211,-77 Z" stroke-width="0" fill="#5bb7d8" fill-opacity="0.2549019607843137" />
<path d="M31,-119 L226,-262 L199,-173 L204,-78 L230,-263 L165,-152 Z" stroke-width="0" fill="#3bb6ec" fill-opacity="0.20392156862745098" />
<path d="M70,-210 L149,-157 L112,-131 L80,-178 L50,-130 L234,-306 Z" stroke-width="0" fill="#00a6c2" fill-opacity="0.2235294117647059" />
<path d="M157,-55 L33,-37 L94,-234 L47,-74 L207,-263 L159,-265 Z" stroke-width="0" fill="#10100f" fill-opacity="0.792156862745098" />
<path d="M182,-223 L192,-234 L65,-233 L122,-200 L123,-56 L199,-273 Z" stroke-width="0" fill="#e6caa2" fill-opacity="0.8862745098039215" />
<path d="M103,-65 L244,-85 L192,-254 L126,-238 L114,-128 L70,-280 Z" stroke-width="0" fill="#5dbe5e" fill-opacity="0.0392156862745098" />
<path d="M53,-238 L145,-314 L166,-210 L124,-222 L25,-202 L188,-178 Z" stroke-width="0" fill="#4fd7e4" fill-opacity="0.5019607843137255" />
<path d="M68,-241 L101,-126 L170,-238 L216,-171 L233,-299 L188,-111 Z" stroke-width="0" fill="#7ecbdb" fill-opacity="0.5019607843137255" />
<path d="M78,-156 L115,-188 L197,-212 L173,-52 L184,-202 L64,-258 Z" stroke-width="0" fill="#60fcef" fill-opacity="0.9725490196078431" />
<path d="M161,-227 L39,-259 L212,-154 L146,-56 L104,-28 L183,-317 Z" stroke-width="0" fill="#67d1f4" fill-opacity="0.8784313725490196" />
<path d="M105,-52 L136,-273 L75,-100 L196,-71 L125,-214 L93,-181 Z" stroke-width="0" fill="#5c245d" fill-opacity="0.17647058823529413" />
<path d="M194,-49 L52,-208 L106,-104 L107,-138 L161,-260 L157,-322 Z" stroke-width="0" fill="#88c8e9" fill-opacity="0.6941176470588235" />
<path d="M104,-184 L110,-83 L66,-115 L84,-225 L164,-87 L216,-258 Z" stroke-width="0" fill="#7b32ea" fill-opacity="0.050980392156862744" />
<path d="M160,-193 L116,-98 L71,-283 L115,-164 L86,-252 L60,-214 Z" stroke-width="0" fill="#93de7e" fill-opacity="0.08627450980392157" />
<path d="M30,-156 L159,-281 L36,-254 L200,-52 L106,-97 L157,-121 Z" stroke-width="0" fill="#80ceff" fill-opacity="0.5019607843137255" />
<path d="M118,-66 L121,-123 L226,-323 L48,-223 L125,-301 L167,-228 Z" stroke-width="0" fill="#4bdcb4" fill-opacity="0.41568627450980394" />
<path d="M160,-212 L160,-148 L80,-83 L31,-93 L34,-153 L106,-268 Z" stroke-width="0" fill="#33694f" fill-opacity="0.03137254901960784" />
<path d="M48,-145 L114,-49 L109,-104 L148,-299 L87,-108 L121,-114 Z" stroke-width="0" fill="#240d28" fill-opacity="0.17647058823529413" />
<path d="M116,-215 L223,-208 L38,-289 L206,-247 L171,-250 L88,-287 Z" stroke-width="0" fill="#8ee1c7" fill-opacity="0.12941176470588237" />
<path d="M246,-223 L174,-279 L172,-151 L128,-297 L160,-33 L146,-56 Z" stroke-width="0" fill="#ccafbb" fill-opacity="0.38823529411764707" />
<path d="M60,-223 L94,-235 L176,-83 L208,-299 L167,-63 L179,-63 Z" stroke-width="0" fill="#9b8bcc" fill-opacity="0.18823529411764706" />
<path d="M78,-90 L65,-50 L126,-242 L203,-295 L102,-35 L143,-301 Z" stroke-width="0" fill="#4785f6" fill-opacity="0.16862745098039217" />
<path d="M219,-57 L171,-119 L63,-145 L86,-215 L73,-224 L36,-54 Z" stroke-width="0" fill="#b49691" fill-opacity="0.00784313725490196" />
<path d="M149,-83 L94,-207 L53,-76 L140,-126 L96,-92 L144,-82 Z" stroke-width="0" fill="#74120b" fill-opacity="0.14901960784313725" />
<path d="M227,-152 L209,-79 L149,-205 L38,-236 L241,-282 L119,-204 Z" stroke-width="0" fill="#5df7b7" fill-opacity="0.5803921568627451" />
<path d="M95,-218 L133,-323 L66,-57 L215,-182 L161,-106 L27,-137 Z" stroke-width="0" fill="#7c6315" fill-opacity="0.06274509803921569" />
<path d="M85,-128 L155,-310 L229,-116 L230,-255 L25,-53 L151,-25 Z" stroke-width="0" fill="#50609f" fill-opacity="0.09411764705882353" />
<path d="M47,-67 L91,-194 L181,-133 L237,-164 L231,-102 L217,-129 Z" stroke-width="0" fill="#190109" fill-opacity="0.3843137254901961" />
<path d="M177,-233 L56,-36 L154,-76 L243,-112 L194,-63 L99,-194 Z" stroke-width="0" fill="#6acd72" fill-opacity="0.054901960784313725" />
<path d="M50,-165 L94,-165 L78,-266 L51,-44 L51,-98 L230,-288 Z" stroke-width="0" fill="#87f7f8" fill-opacity="0.13725490196078433" />
<path d="M114,-134 L25,-134 L72,-98 L222,-296 L246,-248 L232,-101 Z" stroke-width="0" fill="#4ce682" fill-opacity="0.17647058823529413" />
<path d="M104,-49 L73,-30 L109,-54 L30,-83 L180,-53 L117,-81 Z" stroke-width="0" fill="#345861" fill-opacity="0.1607843137254902" />
<path d="M209,-90 L118,-49 L77,-111 L49,-277 L159,-93 L89,-264 Z" stroke-width="0" fill="#aa02a6" fill-opacity="0.00784313725490196" />
<path d="M73,-185 L70,-175 L141,-253 L183,-101 L163,-55 L59,-113 Z" stroke-width="0" fill="#32e6bc" fill-opacity="0.13333333333333333" />
<path d="M49,-222 L33,-248 L26,-167 L99,-34 L103,-189 L155,-121 Z" stroke-width="0" fill="#639288" fill-opacity="0.2980392156862745" />
<path d="M232,-51 L98,-170 L182,-75 L130,-27 L189,-82 L242,-265 Z" stroke-width="0" fill="#3ebbdc" fill-opacity="0.7607843137254902" />
<path d="M81,-46 L99,-191 L112,-121 L200,-101 L175,-119 L211,-260 Z" stroke-width="0" fill="#490203" fill-opacity="0.1411764705882353" />
<path d="M186,-35 L53,-318 L241,-211 L159,-30 L136,-51 L204,-102 Z" stroke-width="0" fill="#e6e0e8" fill-opacity="0.1843137254901961" />
<path d="M114,-54 L109,-111 L91,-37 L128,-205 L28,-227 L153,-86 Z" stroke-width="0" fill="#68dbfc" fill-opacity="0.1450980392156863" />
<path d="M91,-119 L185,-190 L91,-169 L163,-164 L230,-249 L36,-44 Z" stroke-width="0" fill="#3d4472" fill-opacity="0.1843137254901961" />
<path d="M235,-133 L54,-256 L246,-250 L89,-176 L142,-78 L187,-51 Z" stroke-width="0" fill="#67bccd" fill-opacity="0.7647058823529411" />
<path d="M240,-125 L129,-283 L191,-74 L78,-140 L153,-191 L181,-176 Z" stroke-width="0" fill="#43f5f1" fill-opacity="0.48627450980392156" />
<path d="M186,-71 L57,-232 L125,-164 L236,-133 L222,-224 L78,-136 Z" stroke-width="0" fill="#41d7e4" fill-opacity="0.34901960784313724" />
<path d="M180,-131 L48,-116 L162,-146 L102,-264 L52,-218 L138,-264 Z" stroke-width="0" fill="#59d0d7" fill-opacity="0.09411764705882353" />
<path d="M226,-138 L38,-281 L156,-83 L196,-226 L136,-65 L215,-189 Z" stroke-width="0" fill="#60b2d0" fill-opacity="0.5019607843137255" />
<path d="M71,-131 L123,-106 L165,-75 L137,-65 L112,-71 L179,-131 Z" stroke-width="0" fill="#79a3ea" fill-opacity="0.09803921568627451" />
<path d="M187,-240 L92,-204 L200,-212 L51,-165 L187,-81 L164,-286 Z" stroke-width="0" fill="#fad994" fill-opacity="0.06666666666666667" />
<path d="M31,-324 L91,-119 L180,-72 L222,-63 L193,-88 L106,-159 Z" stroke-width="0" fill="#5ed2c4" fill-opacity="0.38823529411764707" />
<text x="137.5" y="12.5" font-size="20.0" fill="black" text-anchor="middle" transform="translate(0,5.0)">5 OF EARTH</text>
</svg>