<?xml version="1.0" encoding="UTF-8"?>
<svg xmlns="http://www.w3.org/2000/svg" xmlns:xlink="http://www.w3.org/1999/xlink"
     width="896" height="1496" viewBox="0 -1400 896 1496" style="font-size:70;font-family:Poor Richard, Times New Roman;stroke:black;stroke-width:1;fill:none">
<defs>
</defs>
<path d="M134,-750 L386,-482 L154,-1070 L694,-1066 L626,-390 L158,-1266 Z" stroke-width="0" fill="#e8fff3" fill-opacity="0.09019607843137255" />
<path d="M258,-606 L202,-90 L154,-790 L682,-1198 L126,-1046 L546,-1018 Z" stroke-width="0" fill="#c3f4f2" fill-opacity="0.023529411764705882" />
<path d="M482,-350 L646,-726 L566,-174 L90,-598 L214,-270 L406,-570 Z" stroke-width="0" fill="#b96c32" fill-opacity="0.403921568627451" />
<path d="M238,-462 L442,-1038 L590,-514 L142,-782 L330,-1106 L134,-394 Z" stroke-width="0" fill="#6b17f5" fill-opacity="0.0" />
<path d="M578,-798 L274,-1206 L750,-186 L258,-418 L286,-1074 L798,-638 Z" stroke-width="0" fill="#897945" fill-opacity="0.5333333333333333" />
<path d="M102,-570 L638,-918 L146,-590 L586,-942 L190,-326 L290,-342 Z" stroke-width="0" fill="#a89221" fill-opacity="0.8862745098039215" />
<path d="M462,-106 L526,-622 L186,-86 L390,-802 L478,-398 L246,-886 Z" stroke-width="0" fill="#4d0a28" fill-opacity="0.7568627450980392" />
<path d="M542,-254 L470,-1262 L770,-926 L582,-402 L186,-418 L382,-610 Z" stroke-width="0" fill="#250a00" fill-opacity="0.7764705882352941" />
<path d="M578,-1002 L98,-234 L234,-338 L262,-126 L674,-1238 L482,-826 Z" stroke-width="0" fill="#d8eef5" fill-opacity="0.8352941176470589" />
<path d="M502,-1238 L518,-582 L618,-350 L350,-94 L286,-934 L418,-102 Z" stroke-width="0" fill="#433506" fill-opacity="0.7686274509803922" />
<path d="M194,-586 L538,-794 L182,-802 L130,-434 L150,-194 L122,-438 Z" stroke-width="0" fill="#7e2e16" fill-opacity="0.19607843137254902" />
<path d="M94,-266 L362,-266 L382,-378 L134,-1038 L154,-394 L230,-1234 Z" stroke-width="0" fill="#f54e00" fill-opacity="0.06666666666666667" />
<path d="M206,-894 L402,-218 L522,-342 L682,-962 L318,-190 L434,-918 Z" stroke-width="0" fill="#fcfd3e" fill-opacity="0.8235294117647058" />
<path d="M130,-382 L354,-1030 L322,-482 L162,-550 L226,-742 L338,-1094 Z" stroke-width="0" fill="#fdcbf0" fill-opacity="0.47058823529411764" />
<path d="M230,-418 L486,-642 L322,-530 L498,-946 L726,-562 L542,-242 Z" stroke-width="0" fill="#1d4605" fill-opacity="0.9607843137254902" />
<path d="M298,-470 L278,-402 L202,-382 L194,-874 L298,-1102 L450,-314 Z" stroke-width="0" fill="#060100" fill-opacity="0.984313725490196" />
<path d="M262,-442 L710,-1002 L666,-98 L346,-186 L642,-710 L482,-1194 Z" stroke-width="0" fill="#662d05" fill-opacity="0.6392156862745098" />
<path d="M270,-586 L730,-510 L794,-1194 L402,-914 L658,-1126 L710,-1234 Z" stroke-width="0" fill="#f0c4ca" fill-opacity="0.6941176470588235" />
<path d="M234,-494 L454,-790 L282,-366 L622,-1062 L214,-1266 L754,-1078 Z" stroke-width="0" fill="#452366" fill-opacity="0.00784313725490196" />
<path d="M322,-882 L102,-742 L542,-426 L422,-150 L222,-922 L650,-214 Z" stroke-width="0" fill="#f0fef0" fill-opacity="0.27058823529411763" />
<path d="M634,-666 L674,-94 L762,-1078 L286,-270 L734,-898 L318,-850 Z" stroke-width="0" fill="#8d2e23" fill-opacity="0.5098039215686274" />
<path d="M766,-130 L526,-1054 L458,-1130 L710,-198 L738,-666 L482,-666 Z" stroke-width="0" fill="#741500" fill-opacity="0.5882352941176471" />
<path d="M378,-1098 L534,-862 L186,-538 L270,-162 L210,-778 L254,-746 Z" stroke-width="0" fill="#f0f2fb" fill-opacity="0.8705882352941177" />
<path d="M194,-486 L514,-362 L682,-978 L310,-266 L102,-1062 L290,-322 Z" stroke-width="0" fill="#e7c3de" fill-opacity="0.20392156862745098" />
<path d="M574,-946 L90,-138 L466,-1298 L186,-270 L238,-842 L330,-1058 Z" stroke-width="0" fill="#442700" fill-opacity="0.592156862745098" />
<path d="M606,-1250 L150,-1170 L418,-386 L114,-422 L186,-450 L766,-338 Z" stroke-width="0" fill="#ee3d46" fill-opacity="0.1607843137254902" />
<path d="M318,-690 L182,-330 L198,-1098 L198,-918 L98,-362 L426,-910 Z" stroke-width="0" fill="#d4b8a0" fill-opacity="0.8235294117647058" />
<path d="M514,-186 L354,-762 L570,-374 L450,-910 L718,-322 L810,-370 Z" stroke-width="0" fill="#1c0402" fill-opacity="0.3686274509803922" />
<path d="M538,-338 L730,-1126 L130,-1102 L498,-250 L702,-1090 L138,-162 Z" stroke-width="0" fill="#8a8fcf" fill-opacity="0.00392156862745098" />
<path d="M230,-150 L178,-682 L550,-622 L554,-430 L402,-1074 L406,-98 Z" stroke-width="0" fill="#9e3b11" fill-opacity="0.7686274509803922" />
<path d="M758,-1098 L274,-454 L218,-534 L122,-250 L90,-182 L314,-602 Z" stroke-width="0" fill="#4b0900" fill-opacity="0.6705882352941176" />
<path d="M154,-798 L598,-1238 L322,-262 L802,-606 L722,-206 L794,-342 Z" stroke-width="0" fill="#611300" fill-opacity="0.5019607843137255" />
<path d="M398,-126 L158,-154 L190,-574 L670,-406 L618,-554 L118,-670 Z" stroke-width="0" fill="#ede7f3" fill-opacity="0.5686274509803921" />
<path d="M678,-846 L462,-1062 L558,-1054 L294,-534 L342,-98 L538,-1182 Z" stroke-width="0" fill="#981c15" fill-opacity="0.5764705882352941" />
<path d="M398,-1282 L506,-814 L150,-346 L510,-646 L438,-718 L94,-110 Z" stroke-width="0" fill="#4b0a00" fill-opacity="0.592156862745098" />
<path d="M410,-98 L398,-762 L546,-1218 L170,-214 L374,-306 L202,-626 Z" stroke-width="0" fill="#4f3120" fill-opacity="0.8705882352941177" />
<path d="M142,-274 L718,-466 L734,-606 L470,-694 L454,-206 L402,-1098 Z" stroke-width="0" fill="#eacd0c" fill-opacity="0.3764705882352941" />
<path d="M538,-506 L574,-162 L238,-538 L86,-926 L602,-738 L122,-882 Z" stroke-width="0" fill="#9e6a71" fill-opacity="0.07450980392156863" />
<path d="M282,-126 L362,-490 L746,-990 L398,-1258 L166,-1162 L478,-1018 Z" stroke-width="0" fill="#936c31" fill-opacity="0.5019607843137255" />
<path d="M110,-122 L350,-778 L406,-814 L482,-286 L614,-442 L502,-846 Z" stroke-width="0" fill="#695835" fill-opacity="0.8901960784313725" />
<path d="M126,-322 L534,-1230 L750,-358 L410,-754 L714,-142 L702,-490 Z" stroke-width="0" fill="#280900" fill-opacity="0.6901960784313725" />
<path d="M786,-658 L690,-1122 L466,-598 L294,-1090 L338,-290 L534,-954 Z" stroke-width="0" fill="#ecede5" fill-opacity="0.9372549019607843" />
<path d="M738,-450 L734,-370 L562,-642 L378,-578 L214,-450 L158,-646 Z" stroke-width="0" fill="#40b2cc" fill-opacity="0.5254901960784314" />
<path d="M146,-758 L242,-1302 L458,-1150 L138,-90 L250,-1146 L142,-750 Z" stroke-width="0" fill="#d6708f" fill-opacity="0.41568627450980394" />
<path d="M674,-1210 L370,-778 L694,-1010 L698,-282 L82,-638 L570,-506 Z" stroke-width="0" fill="#f3c5da" fill-opacity="0.8470588235294118" />
<path d="M350,-982 L486,-1286 L454,-866 L302,-1310 L238,-146 L154,-118 Z" stroke-width="0" fill="#875f00" fill-opacity="0.5215686274509804" />
<path d="M538,-1082 L242,-406 L110,-374 L534,-1054 L206,-902 L154,-674 Z" stroke-width="0" fill="#0e5a06" fill-opacity="0.09411764705882353" />
<path d="M358,-446 L170,-210 L542,-362 L462,-634 L630,-642 L542,-1002 Z" stroke-width="0" fill="#a08951" fill-opacity="0.7058823529411765" />
<path d="M238,-338 L494,-682 L118,-218 L182,-1026 L514,-242 L554,-246 Z" stroke-width="0" fill="#d4fee3" fill-opacity="0.47058823529411764" />
<path d="M558,-1086 L602,-1114 L262,-430 L90,-870 L794,-1238 L154,-1130 Z" stroke-width="0" fill="#466296" fill-opacity="0.0" />
<path d="M706,-306 L410,-274 L202,-386 L342,-726 L270,-330 L498,-638 Z" stroke-width="0" fill="#f97a35" fill-opacity="0.8666666666666667" />
<path d="M158,-122 L514,-798 L274,-786 L386,-418 L258,-358 L182,-882 Z" stroke-width="0" fill="#ddbe84" fill-opacity="0.8235294117647058" />
<path d="M682,-1218 L162,-286 L218,-1110 L670,-1234 L618,-1118 L530,-234 Z" stroke-width="0" fill="#ad9a7f" fill-opacity="0.10196078431372549" />
<path d="M146,-834 L202,-290 L534,-1214 L506,-602 L394,-330 L334,-1070 Z" stroke-width="0" fill="#efc3cf" fill-opacity="0.050980392156862744" />
<path d="M350,-922 L362,-606 L130,-1286 L178,-1214 L86,-374 L718,-850 Z" stroke-width="0" fill="#e6d1fe" fill-opacity="0.5098039215686274" />
<path d="M470,-606 L422,-858 L306,-362 L422,-146 L510,-1018 L338,-210 Z" stroke-width="0" fill="#1e0002" fill-opacity="0.6588235294117647" />
<path d="M390,-550 L410,-578 L186,-538 L378,-730 L750,-522 L690,-162 Z" stroke-width="0" fill="#630000" fill-opacity="0.592156862745098" />
<path d="M174,-146 L682,-790 L742,-1314 L322,-466 L302,-1054 L202,-174 Z" stroke-width="0" fill="#dfe1d8" fill-opacity="0.6196078431372549" />
<path d="M514,-1010 L566,-586 L574,-198 L366,-886 L258,-478 L294,-474 Z" stroke-width="0" fill="#69c863" fill-opacity="0.27058823529411763" />
<path d="M350,-930 L650,-1182 L638,-470 L634,-654 L698,-1262 L562,-854 Z" stroke-width="0" fill="#f0f5e5" fill-opacity="0.10588235294117647" />
<path d="M554,-578 L766,-906 L554,-830 L630,-534 L230,-610 L778,-1170 Z" stroke-width="0" fill="#e8f0ec" fill-opacity="0.6196078431372549" />
<path d="M674,-582 L566,-518 L662,-534 L314,-278 L582,-1262 L634,-198 Z" stroke-width="0" fill="#08190a" fill-opacity="0.13333333333333333" />
<path d="M682,-718 L422,-750 L182,-106 L630,-762 L430,-542 L722,-914 Z" stroke-width="0" fill="#e3e2ea" fill-opacity="0.39215686274509803" />
<path d="M626,-662 L514,-690 L594,-154 L270,-146 L606,-350 L686,-306 Z" stroke-width="0" fill="#470000" fill-opacity="0.3568627450980392" />
<path d="M526,-342 L314,-122 L162,-526 L518,-578 L706,-478 L774,-898 Z" stroke-width="0" fill="#766c42" fill-opacity="0.8862745098039215" />
<path d="M90,-778 L178,-458 L246,-786 L298,-454 L670,-254 L794,-846 Z" stroke-width="0" fill="#e8ecd7" fill-opacity="0.7725490196078432" />
<path d="M410,-386 L250,-922 L126,-86 L102,-1314 L274,-754 L274,-1018 Z" stroke-width="0" fill="#e1c4ab" fill-opacity="0.20392156862745098" />
<path d="M538,-230 L630,-578 L278,-422 L138,-218 L350,-598 L546,-1190 Z" stroke-width="0" fill="#282202" fill-opacity="0.9921568627450981" />
<path d="M534,-94 L110,-1034 L134,-1070 L418,-454 L326,-1042 L218,-494 Z" stroke-width="0" fill="#f1e3f3" fill-opacity="0.23529411764705882" />
<path d="M322,-1054 L450,-814 L334,-606 L806,-270 L242,-666 L322,-426 Z" stroke-width="0" fill="#392261" fill-opacity="0.5137254901960784" />
<path d="M246,-850 L494,-702 L102,-182 L302,-994 L534,-258 L294,-86 Z" stroke-width="0" fill="#ddc5dd" fill-opacity="0.5019607843137255" />
<path d="M662,-470 L510,-286 L310,-1222 L122,-1062 L354,-470 L422,-930 Z" stroke-width="0" fill="#fafec1" fill-opacity="0.13725490196078433" />
<path d="M622,-290 L118,-1198 L202,-354 L538,-638 L554,-338 L290,-878 Z" stroke-width="0" fill="#e1eacf" fill-opacity="0.01568627450980392" />
<path d="M326,-218 L798,-1310 L526,-382 L762,-114 L690,-170 L394,-746 Z" stroke-width="0" fill="#b6ece0" fill-opacity="0.0392156862745098" />
<path d="M382,-338 L478,-350 L430,-550 L570,-474 L498,-998 L654,-630 Z" stroke-width="0" fill="#fcfff9" fill-opacity="0.43529411764705883" />
<path d="M90,-218 L418,-598 L238,-974 L510,-890 L802,-178 L362,-558 Z" stroke-width="0" fill="#97803d" fill-opacity="0.6901960784313725" />
<path d="M166,-426 L418,-586 L534,-870 L530,-246 L222,-158 L626,-1266 Z" stroke-width="0" fill="#31a6f0" fill-opacity="0.10588235294117647" />
<path d="M542,-522 L418,-150 L222,-466 L106,-762 L402,-898 L138,-410 Z" stroke-width="0" fill="#d8d3b6" fill-opacity="0.0196078431372549" />
<path d="M322,-598 L258,-566 L342,-690 L146,-534 L502,-1038 L106,-966 Z" stroke-width="0" fill="#d1f99c" fill-opacity="0.058823529411764705" />
<path d="M510,-86 L530,-278 L262,-858 L378,-702 L282,-642 L606,-722 Z" stroke-width="0" fill="#d7aaae" fill-opacity="0.3803921568627451" />
<path d="M290,-738 L626,-746 L378,-858 L682,-1242 L366,-290 L366,-886 Z" stroke-width="0" fill="#fe0415" fill-opacity="0.058823529411764705" />
<path d="M622,-506 L146,-554 L750,-1242 L786,-278 L82,-706 L782,-86 Z" stroke-width="0" fill="#f0ead6" fill-opacity="0.40784313725490196" />
<path d="M274,-110 L278,-158 L670,-714 L206,-714 L582,-742 L98,-1022 Z" stroke-width="0" fill="#f7fbe5" fill-opacity="0.054901960784313725" />
<path d="M486,-186 L570,-834 L582,-1166 L290,-98 L446,-1066 L266,-298 Z" stroke-width="0" fill="#f84cdb" fill-opacity="0.043137254901960784" />
<path d="M806,-394 L210,-90 L442,-1054 L702,-1310 L222,-446 L786,-794 Z" stroke-width="0" fill="#bd6300" fill-opacity="0.49019607843137253" />
<path d="M590,-406 L190,-382 L222,-474 L182,-658 L750,-1082 L158,-458 Z" stroke-width="0" fill="#fadbca" fill-opacity="0.20784313725490197" />
<path d="M310,-882 L638,-586 L414,-1058 L630,-850 L386,-238 L338,-974 Z" stroke-width="0" fill="#f4f9d2" fill-opacity="0.08235294117647059" />
<path d="M90,-446 L134,-490 L682,-726 L318,-806 L678,-1178 L518,-958 Z" stroke-width="0" fill="#f7cdeb" fill-opacity="0.047058823529411764" />
<path d="M446,-110 L218,-1042 L686,-1178 L362,-1098 L698,-1226 L498,-1194 Z" stroke-width="0" fill="#7f481e" fill-opacity="0.7254901960784313" />
<path d="M190,-534 L774,-1010 L498,-510 L182,-510 L238,-362 L290,-898 Z" stroke-width="0" fill="#efd7fb" fill-opacity="0.011764705882352941" />
<path d="M242,-1126 L198,-690 L178,-974 L722,-558 L286,-538 L718,-1210 Z" stroke-width="0" fill="#d8d3ed" fill-opacity="0.12549019607843137" />
<path d="M90,-1090 L706,-322 L806,-166 L262,-826 L474,-1154 L470,-206 Z" stroke-width="0" fill="#060017" fill-opacity="0.0784313725490196" />
<path d="M418,-606 L546,-382 L574,-694 L402,-350 L318,-762 L134,-1058 Z" stroke-width="0" fill="#4f8491" fill-opacity="0.16470588235294117" />
<path d="M134,-530 L574,-1038 L94,-610 L362,-554 L426,-826 L98,-1058 Z" stroke-width="0" fill="#7b717d" fill-opacity="0.00392156862745098" />
<path d="M262,-658 L754,-1198 L366,-318 L174,-410 L714,-210 L602,-670 Z" stroke-width="0" fill="#f2fbe7" fill-opacity="0.1450980392156863" />
<path d="M438,-1042 L510,-486 L642,-262 L290,-418 L494,-734 L158,-690 Z" stroke-width="0" fill="#3c0712" fill-opacity="0.43137254901960786" />
<path d="M194,-550 L126,-1250 L614,-174 L622,-1070 L266,-994 L294,-930 Z" stroke-width="0" fill="#fbbd8c" fill-opacity="0.19215686274509805" />
<path d="M546,-1038 L742,-618 L490,-94 L162,-690 L354,-914 L722,-266 Z" stroke-width="0" fill="#df9776" fill-opacity="0.3411764705882353" />
<path d="M110,-158 L646,-446 L278,-970 L526,-1166 L182,-702 L554,-554 Z" stroke-width="0" fill="#b2815f" fill-opacity="0.21176470588235294" />
<path d="M146,-486 L130,-914 L326,-722 L682,-790 L146,-822 L142,-418 Z" stroke-width="0" fill="#eefeec" fill-opacity="0.09803921568627451" />
<text x="448.0" y="0" font-size="70.0" fill="black" text-anchor="middle" transform="translate(0,17.5)">9 OF EARTH</text>
</svg>