<?xml version="1.0" encoding="UTF-8"?>
<svg xmlns="http://www.w3.org/2000/svg" xmlns:xlink="http://www.w3.org/1999/xlink"
     width="896" height="1496" viewBox="0 -1400 896 1496" style="font-size:70;font-family:Poor Richard, Times New Roman;stroke:black;stroke-width:1;fill:none">
<defs>
</defs>
<path d="M146,-422 L502,-850 L494,-458 L870,-1026 L230,-742 L814,-634 Z" stroke-width="0" fill="#0305b4" fill-opacity="0.9686274509803922" />
<path d="M314,-418 L862,-318 L210,-1166 L338,-714 L150,-318 L514,-454 Z" stroke-width="0" fill="#002c46" fill-opacity="0.9176470588235294" />
<path d="M282,-310 L622,-1050 L690,-794 L134,-122 L338,-738 L454,-1150 Z" stroke-width="0" fill="#7ddcf6" fill-opacity="0.050980392156862744" />
<path d="M110,-854 L290,-1030 L378,-402 L870,-1158 L202,-1042 L394,-1270 Z" stroke-width="0" fill="#00335e" fill-opacity="0.6352941176470588" />
<path d="M666,-378 L462,-686 L834,-258 L470,-170 L650,-754 L718,-1158 Z" stroke-width="0" fill="#3d0a18" fill-opacity="0.3843137254901961" />
<path d="M730,-1114 L622,-578 L274,-238 L102,-462 L390,-498 L706,-630 Z" stroke-width="0" fill="#23100b" fill-opacity="0.5019607843137255" />
<path d="M798,-614 L226,-498 L322,-1158 L902,-1214 L534,-742 L178,-1274 Z" stroke-width="0" fill="#00002f" fill-opacity="0.5098039215686274" />
<path d="M130,-1006 L290,-314 L102,-150 L186,-114 L602,-1110 L782,-378 Z" stroke-width="0" fill="#113bbe" fill-opacity="0.5764705882352941" />
<path d="M554,-710 L158,-1258 L942,-950 L718,-266 L542,-330 L530,-126 Z" stroke-width="0" fill="#002e86" fill-opacity="0.5647058823529412" />
<path d="M514,-398 L494,-1250 L134,-238 L802,-542 L674,-518 L342,-310 Z" stroke-width="0" fill="#0083b1" fill-opacity="0.7607843137254902" />
<path d="M514,-382 L122,-154 L146,-566 L758,-218 L958,-730 L306,-1018 Z" stroke-width="0" fill="#73774b" fill-opacity="0.5019607843137255" />
<path d="M214,-954 L342,-294 L218,-1082 L438,-242 L210,-258 L150,-1226 Z" stroke-width="0" fill="#001d6b" fill-opacity="0.7333333333333333" />
<path d="M634,-98 L222,-846 L870,-690 L910,-514 L470,-454 L354,-842 Z" stroke-width="0" fill="#6d2c36" fill-opacity="0.9058823529411765" />
<path d="M886,-782 L166,-766 L614,-642 L314,-354 L538,-650 L174,-686 Z" stroke-width="0" fill="#f8da4c" fill-opacity="0.8431372549019608" />
<path d="M242,-782 L782,-230 L318,-390 L714,-978 L218,-562 L406,-702 Z" stroke-width="0" fill="#7bd881" fill-opacity="0.7490196078431373" />
<path d="M614,-622 L158,-398 L770,-422 L446,-330 L202,-990 L702,-1094 Z" stroke-width="0" fill="#39ae99" fill-opacity="0.9176470588235294" />
<path d="M106,-138 L226,-790 L142,-862 L258,-1034 L342,-530 L626,-730 Z" stroke-width="0" fill="#6f6a8d" fill-opacity="0.9882352941176471" />
<path d="M506,-278 L126,-306 L754,-898 L714,-726 L514,-998 L722,-98 Z" stroke-width="0" fill="#00006e" fill-opacity="0.8274509803921568" />
<path d="M898,-326 L198,-1162 L382,-1014 L630,-798 L802,-918 L530,-370 Z" stroke-width="0" fill="#446594" fill-opacity="0.8666666666666667" />
<path d="M130,-666 L970,-570 L286,-370 L218,-146 L718,-910 L458,-590 Z" stroke-width="0" fill="#33203c" fill-opacity="0.9411764705882353" />
<path d="M722,-162 L154,-1178 L502,-550 L542,-578 L758,-410 L718,-478 Z" stroke-width="0" fill="#003876" fill-opacity="0.7843137254901961" />
<path d="M98,-298 L342,-834 L710,-474 L562,-398 L130,-1150 L574,-346 Z" stroke-width="0" fill="#18286b" fill-opacity="0.6784313725490196" />
<path d="M146,-622 L402,-146 L762,-610 L706,-762 L326,-746 L286,-1110 Z" stroke-width="0" fill="#943093" fill-opacity="0.2980392156862745" />
<path d="M274,-802 L178,-1178 L714,-390 L390,-202 L426,-146 L886,-198 Z" stroke-width="0" fill="#1f4774" fill-opacity="0.8274509803921568" />
<path d="M766,-1226 L738,-506 L178,-726 L306,-174 L226,-306 L926,-1114 Z" stroke-width="0" fill="#000045" fill-opacity="0.6509803921568628" />
<path d="M90,-758 L574,-342 L562,-102 L502,-410 L790,-618 L290,-826 Z" stroke-width="0" fill="#850a03" fill-opacity="0.4392156862745098" />
<path d="M246,-686 L322,-754 L942,-1114 L398,-98 L494,-606 L850,-714 Z" stroke-width="0" fill="#24467e" fill-opacity="0.7058823529411765" />
<path d="M310,-1222 L314,-502 L158,-546 L642,-918 L954,-346 L382,-378 Z" stroke-width="0" fill="#2d0417" fill-opacity="0.807843137254902" />
<path d="M694,-1002 L546,-638 L770,-986 L358,-786 L370,-1154 L178,-194 Z" stroke-width="0" fill="#333fd3" fill-opacity="0.9725490196078431" />
<path d="M470,-450 L738,-794 L614,-342 L362,-446 L266,-858 L554,-430 Z" stroke-width="0" fill="#1ebaa5" fill-opacity="0.29411764705882354" />
<path d="M866,-978 L386,-1086 L750,-850 L706,-362 L158,-242 L926,-906 Z" stroke-width="0" fill="#93bb97" fill-opacity="0.3686274509803922" />
<path d="M118,-626 L162,-290 L482,-498 L790,-838 L402,-166 L526,-490 Z" stroke-width="0" fill="#b7a7c4" fill-opacity="0.01568627450980392" />
<path d="M954,-542 L826,-1066 L438,-246 L602,-170 L122,-950 L386,-266 Z" stroke-width="0" fill="#523b52" fill-opacity="0.792156862745098" />
<path d="M646,-530 L322,-566 L594,-478 L270,-526 L230,-834 L102,-1002 Z" stroke-width="0" fill="#410281" fill-opacity="0.9176470588235294" />
<path d="M966,-358 L702,-646 L142,-838 L218,-170 L386,-710 L606,-1014 Z" stroke-width="0" fill="#00372e" fill-opacity="0.6039215686274509" />
<path d="M102,-754 L818,-874 L170,-302 L406,-806 L142,-350 L278,-106 Z" stroke-width="0" fill="#ec5d26" fill-opacity="0.13333333333333333" />
<path d="M530,-490 L230,-222 L658,-1130 L338,-262 L258,-186 L766,-578 Z" stroke-width="0" fill="#041c0d" fill-opacity="0.48627450980392156" />
<path d="M114,-970 L534,-222 L230,-186 L102,-630 L830,-222 L486,-718 Z" stroke-width="0" fill="#f4ecf0" fill-opacity="0.6549019607843137" />
<path d="M618,-254 L910,-778 L162,-86 L838,-990 L218,-594 L782,-1270 Z" stroke-width="0" fill="#004771" fill-opacity="0.7607843137254902" />
<path d="M166,-1194 L370,-1082 L522,-510 L498,-950 L330,-94 L846,-998 Z" stroke-width="0" fill="#ac89ca" fill-opacity="0.8274509803921568" />
<path d="M406,-1134 L222,-198 L646,-866 L246,-326 L330,-1250 L598,-726 Z" stroke-width="0" fill="#d1bbce" fill-opacity="0.7137254901960784" />
<path d="M246,-1006 L306,-1118 L550,-870 L570,-1098 L94,-162 L394,-434 Z" stroke-width="0" fill="#7981c8" fill-opacity="0.6" />
<path d="M446,-1254 L122,-370 L214,-390 L490,-1262 L770,-690 L962,-658 Z" stroke-width="0" fill="#3b819a" fill-opacity="0.9215686274509803" />
<path d="M414,-738 L542,-290 L218,-454 L722,-334 L866,-842 L706,-934 Z" stroke-width="0" fill="#c5f19a" fill-opacity="0.9411764705882353" />
<path d="M178,-294 L570,-454 L374,-186 L714,-418 L810,-1062 L606,-978 Z" stroke-width="0" fill="#0551da" fill-opacity="0.9686274509803922" />
<path d="M854,-654 L434,-538 L98,-526 L178,-598 L842,-482 L618,-254 Z" stroke-width="0" fill="#887fbd" fill-opacity="0.8588235294117647" />
<path d="M430,-838 L234,-962 L734,-266 L362,-1206 L534,-918 L490,-974 Z" stroke-width="0" fill="#9cbcc7" fill-opacity="0.7254901960784313" />
<path d="M330,-830 L906,-886 L146,-302 L650,-674 L542,-202 L562,-222 Z" stroke-width="0" fill="#53d861" fill-opacity="0.4392156862745098" />
<path d="M506,-1098 L722,-386 L242,-334 L198,-106 L458,-378 L162,-638 Z" stroke-width="0" fill="#d10d1e" fill-opacity="0.27450980392156865" />
<path d="M682,-958 L334,-434 L386,-986 L854,-390 L166,-586 L318,-354 Z" stroke-width="0" fill="#b216f6" fill-opacity="0.4980392156862745" />
<path d="M246,-374 L390,-206 L166,-870 L346,-622 L610,-842 L190,-602 Z" stroke-width="0" fill="#e6102e" fill-opacity="0.8431372549019608" />
<path d="M462,-818 L154,-102 L226,-1146 L102,-466 L818,-154 L314,-198 Z" stroke-width="0" fill="#94598b" fill-opacity="0.5333333333333333" />
<path d="M838,-230 L510,-790 L418,-82 L818,-1110 L558,-978 L522,-1026 Z" stroke-width="0" fill="#2a0d2d" fill-opacity="0.9294117647058824" />
<path d="M850,-998 L174,-1278 L546,-82 L602,-146 L550,-338 L202,-374 Z" stroke-width="0" fill="#0d4e7e" fill-opacity="0.611764705882353" />
<path d="M466,-142 L894,-262 L646,-1130 L542,-590 L454,-926 L262,-254 Z" stroke-width="0" fill="#3f1715" fill-opacity="0.8941176470588236" />
<path d="M398,-94 L874,-146 L706,-1190 L326,-410 L126,-134 L94,-866 Z" stroke-width="0" fill="#180c1c" fill-opacity="0.7372549019607844" />
<path d="M406,-986 L506,-854 L434,-162 L486,-210 L482,-878 L214,-498 Z" stroke-width="0" fill="#170c12" fill-opacity="0.8941176470588236" />
<path d="M934,-386 L206,-818 L230,-910 L778,-162 L446,-550 L262,-982 Z" stroke-width="0" fill="#a59dac" fill-opacity="0.6039215686274509" />
<path d="M790,-1042 L202,-658 L422,-1002 L258,-518 L266,-514 L658,-1046 Z" stroke-width="0" fill="#af3d0d" fill-opacity="0.00392156862745098" />
<path d="M774,-786 L650,-178 L874,-234 L850,-858 L386,-698 L970,-202 Z" stroke-width="0" fill="#413548" fill-opacity="0.9215686274509803" />
<path d="M138,-274 L178,-366 L326,-678 L706,-370 L810,-870 L402,-362 Z" stroke-width="0" fill="#333c00" fill-opacity="0.6941176470588235" />
<path d="M386,-198 L826,-162 L634,-266 L286,-978 L126,-858 L250,-942 Z" stroke-width="0" fill="#2c8861" fill-opacity="0.2549019607843137" />
<path d="M102,-270 L390,-798 L350,-514 L278,-622 L778,-266 L822,-1114 Z" stroke-width="0" fill="#785b02" fill-opacity="0.5843137254901961" />
<path d="M538,-866 L106,-486 L238,-386 L670,-538 L906,-854 L210,-226 Z" stroke-width="0" fill="#7eab77" fill-opacity="0.23921568627450981" />
<path d="M158,-566 L806,-582 L890,-1046 L386,-358 L234,-946 L574,-834 Z" stroke-width="0" fill="#e2dcc5" fill-opacity="0.5176470588235295" />
<path d="M978,-1182 L358,-102 L310,-1098 L826,-1066 L966,-122 L758,-482 Z" stroke-width="0" fill="#162150" fill-opacity="0.5137254901960784" />
<path d="M898,-438 L98,-134 L322,-430 L806,-462 L710,-882 L102,-606 Z" stroke-width="0" fill="#67845b" fill-opacity="0.48627450980392156" />
<path d="M258,-274 L498,-282 L494,-154 L934,-490 L434,-562 L842,-970 Z" stroke-width="0" fill="#1d0511" fill-opacity="0.7843137254901961" />
<path d="M690,-322 L614,-82 L666,-286 L594,-362 L814,-498 L286,-510 Z" stroke-width="0" fill="#162124" fill-opacity="0.9764705882352941" />
<path d="M462,-210 L626,-358 L834,-1250 L386,-1054 L702,-446 L86,-1014 Z" stroke-width="0" fill="#4b81b8" fill-opacity="0.6627450980392157" />
<path d="M342,-106 L610,-610 L490,-622 L466,-566 L630,-382 L162,-298 Z" stroke-width="0" fill="#fdf6e8" fill-opacity="0.1803921568627451" />
<path d="M366,-1074 L766,-730 L634,-570 L442,-738 L234,-546 L418,-158 Z" stroke-width="0" fill="#e6fe9a" fill-opacity="0.7254901960784313" />
<path d="M538,-858 L790,-334 L366,-782 L194,-246 L706,-974 L242,-706 Z" stroke-width="0" fill="#1a0f70" fill-opacity="0.050980392156862744" />
<path d="M102,-1058 L250,-950 L618,-502 L834,-478 L342,-138 L246,-530 Z" stroke-width="0" fill="#3d5a6b" fill-opacity="0.6392156862745098" />
<path d="M634,-438 L626,-502 L518,-594 L338,-730 L486,-974 L886,-1050 Z" stroke-width="0" fill="#a78789" fill-opacity="0.5019607843137255" />
<path d="M666,-454 L894,-614 L94,-1006 L402,-318 L606,-170 L878,-1278 Z" stroke-width="0" fill="#6ab9cb" fill-opacity="0.34901960784313724" />
<path d="M758,-506 L810,-494 L190,-434 L470,-338 L110,-630 L574,-278 Z" stroke-width="0" fill="#0c1107" fill-opacity="0.6549019607843137" />
<path d="M894,-170 L750,-438 L598,-94 L306,-1098 L754,-906 L318,-410 Z" stroke-width="0" fill="#798f8d" fill-opacity="0.5019607843137255" />
<path d="M974,-854 L266,-214 L650,-170 L406,-290 L962,-594 L102,-1126 Z" stroke-width="0" fill="#7773a7" fill-opacity="0.4627450980392157" />
<path d="M870,-530 L242,-470 L250,-318 L758,-578 L430,-1090 L962,-222 Z" stroke-width="0" fill="#64462f" fill-opacity="0.3333333333333333" />
<path d="M630,-754 L686,-550 L382,-458 L290,-1190 L386,-482 L886,-394 Z" stroke-width="0" fill="#bbdf67" fill-opacity="0.11372549019607843" />
<path d="M450,-1102 L102,-434 L238,-326 L122,-86 L430,-950 L698,-926 Z" stroke-width="0" fill="#141449" fill-opacity="0.43529411764705883" />
<path d="M398,-1026 L558,-270 L590,-198 L454,-1182 L118,-98 L458,-94 Z" stroke-width="0" fill="#180726" fill-opacity="0.8705882352941177" />
<path d="M646,-906 L454,-610 L258,-914 L658,-354 L482,-342 L546,-318 Z" stroke-width="0" fill="#e4e0b1" fill-opacity="0.3411764705882353" />
<path d="M298,-662 L562,-126 L346,-190 L222,-1138 L610,-546 L714,-214 Z" stroke-width="0" fill="#6061b6" fill-opacity="0.21176470588235294" />
<path d="M238,-274 L274,-830 L450,-1002 L522,-250 L898,-670 L506,-542 Z" stroke-width="0" fill="#4f365f" fill-opacity="0.6509803921568628" />
<path d="M206,-726 L458,-678 L158,-926 L458,-802 L734,-654 L242,-238 Z" stroke-width="0" fill="#840105" fill-opacity="0.12156862745098039" />
<path d="M910,-662 L582,-1170 L594,-1002 L970,-122 L690,-878 L726,-490 Z" stroke-width="0" fill="#dff592" fill-opacity="0.27058823529411763" />
<path d="M734,-786 L654,-1222 L830,-1066 L190,-554 L802,-1130 L662,-562 Z" stroke-width="0" fill="#556b9d" fill-opacity="0.6196078431372549" />
<path d="M562,-98 L594,-1186 L258,-658 L142,-202 L578,-174 L422,-986 Z" stroke-width="0" fill="#e88ca3" fill-opacity="0.058823529411764705" />
<path d="M598,-978 L118,-530 L202,-642 L394,-1058 L606,-1002 L858,-498 Z" stroke-width="0" fill="#82e7db" fill-opacity="0.4117647058823529" />
<path d="M438,-378 L258,-334 L242,-1002 L262,-254 L882,-186 L178,-758 Z" stroke-width="0" fill="#550011" fill-opacity="0.43137254901960786" />
<path d="M690,-510 L830,-774 L98,-1198 L942,-546 L738,-1034 L334,-270 Z" stroke-width="0" fill="#7c6a8b" fill-opacity="0.14901960784313725" />
<path d="M806,-618 L710,-566 L566,-878 L310,-582 L630,-362 L518,-410 Z" stroke-width="0" fill="#d22c00" fill-opacity="0.07450980392156863" />
<path d="M474,-1250 L942,-638 L718,-434 L178,-706 L962,-374 L94,-214 Z" stroke-width="0" fill="#6a7c84" fill-opacity="0.058823529411764705" />
<path d="M446,-922 L302,-186 L642,-394 L510,-386 L330,-134 L126,-366 Z" stroke-width="0" fill="#190370" fill-opacity="0.3333333333333333" />
<path d="M86,-726 L954,-1254 L650,-190 L758,-1126 L338,-242 L170,-662 Z" stroke-width="0" fill="#81c9d5" fill-opacity="0.36470588235294116" />
<path d="M706,-262 L762,-570 L142,-850 L174,-1242 L194,-678 L842,-506 Z" stroke-width="0" fill="#a67d50" fill-opacity="0.3176470588235294" />
<path d="M846,-394 L410,-198 L734,-438 L518,-330 L838,-646 L258,-194 Z" stroke-width="0" fill="#272816" fill-opacity="0.3568627450980392" />
<path d="M422,-258 L866,-786 L258,-410 L430,-834 L534,-782 L486,-834 Z" stroke-width="0" fill="#5c3f32" fill-opacity="0.13333333333333333" />
<text x="448.0" y="0" font-size="70.0" fill="black" text-anchor="middle" transform="translate(0,17.5)">KING OF EARTH</text>
</svg>