<?xml version="1.0" encoding="UTF-8"?>
<svg xmlns="http://www.w3.org/2000/svg" xmlns:xlink="http://www.w3.org/1999/xlink"
     width="275" height="375" viewBox="0 -350 275 375">
<defs>
</defs>
<rect x="15" y="-335" width="245" height="320" stroke="black" stroke-width="4" fill="white" />
<path d="M36,-147 L62,-235 L201,-255 L110,-174 L142,-292 L212,-149 Z" stroke-width="0" fill="#f6b750" fill-opacity="0.043137254901960784" />
<path d="M154,-200 L125,-269 L157,-167 L78,-299 L48,-224 L228,-251 Z" stroke-width="0" fill="#14f5f3" fill-opacity="0.3764705882352941" />
<path d="M31,-148 L112,-274 L119,-161 L151,-48 L101,-314 L48,-50 Z" stroke-width="0" fill="#a24000" fill-opacity="0.4" />
<path d="M206,-86 L201,-167 L122,-137 L162,-157 L211,-183 L63,-87 Z" stroke-width="0" fill="#c1c96d" fill-opacity="0.5803921568627451" />
<path d="M119,-191 L74,-263 L160,-283 L144,-78 L86,-142 L162,-76 Z" stroke-width="0" fill="#1b2205" fill-opacity="0.8509803921568627" />
<path d="M100,-257 L48,-38 L95,-90 L228,-222 L31,-94 L75,-238 Z" stroke-width="0" fill="#ffdb4b" fill-opacity="0.5607843137254902" />
<path d="M209,-111 L67,-166 L105,-50 L224,-58 L114,-141 L219,-214 Z" stroke-width="0" fill="#80cb9b" fill-opacity="0.592156862745098" />
<path d="M238,-222 L179,-73 L174,-214 L209,-185 L56,-74 L112,-131 Z" stroke-width="0" fill="#962610" fill-opacity="0.08627450980392157" />
<path d="M64,-63 L204,-132 L73,-55 L138,-39 L135,-98 L186,-321 Z" stroke-width="0" fill="#b25283" fill-opacity="0.3254901960784314" />
<path d="M135,-159 L54,-246 L117,-294 L69,-31 L41,-141 L77,-29 Z" stroke-width="0" fill="#512d10" fill-opacity="0.30196078431372547" />
<path d="M169,-43 L67,-132 L124,-188 L214,-52 L30,-63 L222,-261 Z" stroke-width="0" fill="#f1dc1a" fill-opacity="0.34901960784313724" />
<path d="M145,-90 L121,-257 L174,-27 L243,-133 L46,-102 L84,-249 Z" stroke-width="0" fill="#1c010e" fill-opacity="0.7333333333333333" />
<path d="M184,-239 L167,-226 L76,-62 L77,-249 L218,-71 L51,-185 Z" stroke-width="0" fill="#6ed9c8" fill-opacity="0.9921568627450981" />
<path d="M41,-250 L69,-302 L143,-36 L96,-77 L238,-245 L46,-156 Z" stroke-width="0" fill="#07f2ff" fill-opacity="0.054901960784313725" />
<path d="M66,-121 L183,-53 L99,-171 L196,-293 L175,-203 L119,-224 Z" stroke-width="0" fill="#5b22bc" fill-opacity="0.4745098039215686" />
<path d="M70,-243 L184,-74 L74,-152 L144,-278 L49,-192 L161,-224 Z" stroke-width="0" fill="#1eedf5" fill-opacity="0.5764705882352941" />
<path d="M152,-67 L34,-151 L127,-31 L190,-291 L65,-286 L68,-117 Z" stroke-width="0" fill="#341321" fill-opacity="0.396078431372549" />
<path d="M121,-305 L207,-216 L122,-251 L47,-85 L213,-94 L112,-217 Z" stroke-width="0" fill="#480000" fill-opacity="0.9372549019607843" />
<path d="M236,-187 L62,-127 L78,-120 L117,-80 L106,-30 L224,-192 Z" stroke-width="0" fill="#380000" fill-opacity="0.5019607843137255" />
<path d="M173,-167 L97,-268 L131,-54 L31,-106 L85,-312 L189,-267 Z" stroke-width="0" fill="#5008a4" fill-opacity="0.2" />
<path d="M30,-49 L104,-79 L231,-87 L170,-85 L74,-254 L174,-64 Z" stroke-width="0" fill="#276da9" fill-opacity="0.00392156862745098" />
<path d="M26,-115 L222,-141 L147,-50 L196,-54 L143,-258 L216,-136 Z" stroke-width="0" fill="#dbdaee" fill-opacity="0.8901960784313725" />
<path d="M78,-126 L104,-324 L153,-25 L81,-95 L84,-284 L124,-311 Z" stroke-width="0" fill="#0079cd" fill-opacity="0.011764705882352941" />
<path d="M38,-63 L25,-277 L189,-272 L165,-240 L40,-44 L203,-176 Z" stroke-width="0" fill="#1a000f" fill-opacity="0.26666666666666666" />
<path d="M128,-122 L61,-48 L162,-98 L132,-61 L223,-222 L50,-278 Z" stroke-width="0" fill="#1b9b2b" fill-opacity="0.7490196078431373" />
<path d="M218,-107 L109,-288 L205,-307 L56,-209 L148,-239 L196,-196 Z" stroke-width="0" fill="#0c0000" fill-opacity="0.4588235294117647" />
<path d="M83,-42 L217,-44 L217,-95 L88,-254 L207,-123 L37,-159 Z" stroke-width="0" fill="#7f542d" fill-opacity="0.5137254901960784" />
<path d="M208,-253 L81,-266 L89,-235 L59,-305 L224,-202 L109,-117 Z" stroke-width="0" fill="#213474" fill-opacity="0.3254901960784314" />
<path d="M40,-141 L94,-310 L207,-220 L119,-134 L46,-231 L113,-114 Z" stroke-width="0" fill="#e213d6" fill-opacity="0.01568627450980392" />
<path d="M180,-312 L113,-227 L55,-56 L60,-184 L187,-232 L157,-198 Z" stroke-width="0" fill="#a67055" fill-opacity="0.41568627450980394" />
<path d="M84,-239 L78,-62 L165,-220 L186,-105 L179,-84 L156,-239 Z" stroke-width="0" fill="#4f1858" fill-opacity="0.0784313725490196" />
<path d="M119,-47 L100,-75 L108,-224 L40,-132 L239,-140 L29,-50 Z" stroke-width="0" fill="#cfbca9" fill-opacity="0.37254901960784315" />
<path d="M68,-303 L142,-307 L199,-236 L74,-264 L147,-179 L113,-157 Z" stroke-width="0" fill="#1900f2" fill-opacity="0.09411764705882353" />
<path d="M174,-122 L144,-120 L209,-54 L34,-212 L205,-150 L37,-38 Z" stroke-width="0" fill="#bef5b7" fill-opacity="0.050980392156862744" />
<path d="M235,-185 L198,-152 L154,-207 L85,-186 L73,-138 L92,-162 Z" stroke-width="0" fill="#e4e2f1" fill-opacity="0.2196078431372549" />
<path d="M144,-60 L170,-207 L66,-139 L181,-83 L182,-169 L136,-103 Z" stroke-width="0" fill="#6150bd" fill-opacity="0.7568627450980392" />
<path d="M91,-88 L239,-85 L148,-299 L101,-189 L191,-269 L71,-119 Z" stroke-width="0" fill="#2e2d6c" fill-opacity="0.9176470588235294" />
<path d="M61,-109 L42,-75 L69,-245 L173,-134 L209,-55 L36,-119 Z" stroke-width="0" fill="#bac35e" fill-opacity="0.6039215686274509" />
<path d="M43,-75 L115,-37 L52,-149 L222,-119 L144,-124 L104,-139 Z" stroke-width="0" fill="#1c1100" fill-opacity="0.9568627450980393" />
<path d="M153,-33 L28,-35 L144,-121 L61,-178 L36,-45 L81,-203 Z" stroke-width="0" fill="#9f6701" fill-opacity="0.3803921568627451" />
<path d="M185,-287 L42,-198 L104,-257 L138,-324 L51,-294 L126,-112 Z" stroke-width="0" fill="#d1df9c" fill-opacity="0.23921568627450981" />
<path d="M105,-275 L65,-33 L216,-142 L43,-238 L210,-116 L89,-197 Z" stroke-width="0" fill="#680d07" fill-opacity="0.00784313725490196" />
<path d="M103,-230 L189,-230 L195,-151 L30,-250 L249,-100 L229,-297 Z" stroke-width="0" fill="#110000" fill-opacity="0.8862745098039215" />
<path d="M243,-58 L55,-204 L234,-232 L118,-291 L104,-110 L154,-125 Z" stroke-width="0" fill="#912961" fill-opacity="0.8980392156862745" />
<path d="M223,-311 L216,-69 L49,-129 L154,-61 L125,-118 L182,-141 Z" stroke-width="0" fill="#f46ab0" fill-opacity="0.36470588235294116" />
<path d="M205,-248 L136,-97 L84,-265 L205,-142 L110,-97 L149,-217 Z" stroke-width="0" fill="#56a274" fill-opacity="0.0" />
<path d="M85,-258 L185,-280 L194,-266 L240,-303 L221,-131 L173,-286 Z" stroke-width="0" fill="#d9b8bb" fill-opacity="0.9137254901960784" />
<path d="M147,-250 L200,-224 L205,-86 L166,-131 L80,-76 L174,-203 Z" stroke-width="0" fill="#0c1f00" fill-opacity="0.9254901960784314" />
<path d="M145,-79 L201,-112 L234,-154 L58,-146 L145,-86 L42,-219 Z" stroke-width="0" fill="#00000b" fill-opacity="0.8117647058823529" />
<path d="M102,-303 L163,-159 L236,-306 L171,-192 L134,-60 L163,-227 Z" stroke-width="0" fill="#6fedb5" fill-opacity="0.16470588235294117" />
<path d="M26,-91 L29,-130 L154,-33 L234,-63 L117,-290 L224,-289 Z" stroke-width="0" fill="#a9967d" fill-opacity="0.9294117647058824" />
<path d="M226,-99 L149,-103 L114,-243 L91,-78 L86,-49 L226,-97 Z" stroke-width="0" fill="#e962d3" fill-opacity="0.023529411764705882" />
<path d="M194,-196 L181,-153 L50,-77 L201,-142 L195,-155 L58,-256 Z" stroke-width="0" fill="#44b40e" fill-opacity="0.21568627450980393" />
<path d="M150,-184 L70,-78 L53,-122 L168,-136 L130,-108 L216,-229 Z" stroke-width="0" fill="#464e00" fill-opacity="0.9647058823529412" />
<path d="M234,-319 L43,-290 L74,-131 L44,-91 L174,-233 L122,-33 Z" stroke-width="0" fill="#64a58d" fill-opacity="0.2784313725490196" />
<path d="M165,-234 L199,-237 L234,-67 L36,-98 L42,-53 L84,-213 Z" stroke-width="0" fill="#5e2449" fill-opacity="0.45098039215686275" />
<path d="M208,-145 L30,-89 L103,-228 L165,-237 L230,-253 L50,-286 Z" stroke-width="0" fill="#efc803" fill-opacity="0.0196078431372549" />
<path d="M38,-244 L65,-98 L107,-266 L37,-60 L209,-201 L74,-208 Z" stroke-width="0" fill="#cabfc0" fill-opacity="0.10980392156862745" />
<path d="M210,-157 L60,-233 L172,-126 L175,-215 L153,-179 L187,-323 Z" stroke-width="0" fill="#beb6da" fill-opacity="0.6352941176470588" />
<path d="M152,-289 L147,-85 L207,-158 L26,-25 L221,-216 L91,-222 Z" stroke-width="0" fill="#e44809" fill-opacity="0.26666666666666666" />
<path d="M213,-174 L84,-261 L231,-60 L231,-137 L184,-185 L207,-201 Z" stroke-width="0" fill="#136563" fill-opacity="0.5019607843137255" />
<path d="M33,-213 L48,-89 L67,-37 L234,-62 L116,-206 L51,-252 Z" stroke-width="0" fill="#a40f37" fill-opacity="0.0" />
<path d="M96,-305 L27,-69 L94,-282 L129,-244 L59,-82 L40,-46 Z" stroke-width="0" fill="#0b2706" fill-opacity="0.21568627450980393" />
<path d="M144,-211 L249,-32 L28,-149 L105,-174 L192,-104 L61,-48 Z" stroke-width="0" fill="#557c65" fill-opacity="0.5411764705882353" />
<path d="M112,-82 L199,-202 L137,-263 L70,-275 L98,-86 L50,-235 Z" stroke-width="0" fill="#bebcd2" fill-opacity="0.7098039215686275" />
<path d="M181,-292 L231,-301 L25,-243 L58,-53 L151,-157 L79,-255 Z" stroke-width="0" fill="#bec02d" fill-opacity="0.08627450980392157" />
<path d="M98,-216 L79,-222 L121,-217 L52,-171 L98,-62 L95,-124 Z" stroke-width="0" fill="#190604" fill-opacity="0.2196078431372549" />
<path d="M92,-264 L67,-276 L26,-254 L169,-277 L185,-267 L203,-295 Z" stroke-width="0" fill="#ccd9a2" fill-opacity="0.3568627450980392" />
<path d="M74,-269 L144,-256 L226,-115 L206,-53 L182,-227 L192,-258 Z" stroke-width="0" fill="#e5ccf9" fill-opacity="0.20784313725490197" />
<path d="M27,-145 L160,-267 L75,-106 L138,-45 L224,-291 L197,-247 Z" stroke-width="0" fill="#f6dbe4" fill-opacity="0.32941176470588235" />
<path d="M237,-279 L42,-164 L46,-33 L205,-314 L155,-118 L61,-165 Z" stroke-width="0" fill="#cfab4e" fill-opacity="0.09411764705882353" />
<path d="M105,-159 L235,-189 L189,-128 L146,-58 L161,-143 L36,-238 Z" stroke-width="0" fill="#140000" fill-opacity="0.5372549019607843" />
<path d="M158,-109 L80,-82 L106,-118 L152,-295 L159,-40 L48,-42 Z" stroke-width="0" fill="#805f2b" fill-opacity="0.6784313725490196" />
<path d="M197,-138 L232,-147 L45,-143 L38,-173 L48,-172 L109,-249 Z" stroke-width="0" fill="#c8afda" fill-opacity="0.5215686274509804" />
<path d="M56,-194 L228,-193 L170,-128 L114,-86 L57,-131 L139,-26 Z" stroke-width="0" fill="#311d01" fill-opacity="0.49411764705882355" />
<path d="M119,-25 L107,-83 L76,-34 L206,-148 L35,-123 L242,-252 Z" stroke-width="0" fill="#432f29" fill-opacity="0.5294117647058824" />
<path d="M52,-147 L229,-68 L98,-150 L73,-125 L206,-99 L220,-52 Z" stroke-width="0" fill="#6da4ea" fill-opacity="0.4745098039215686" />
<path d="M208,-42 L165,-210 L50,-198 L81,-25 L32,-55 L188,-57 Z" stroke-width="0" fill="#cdccd9" fill-opacity="0.2196078431372549" />
<path d="M118,-217 L187,-88 L122,-229 L89,-107 L177,-88 L236,-28 Z" stroke-width="0" fill="#e4acb3" fill-opacity="0.5882352941176471" />
<path d="M161,-52 L116,-160 L33,-218 L150,-316 L151,-93 L195,-197 Z" stroke-width="0" fill="#83c3b9" fill-opacity="0.3058823529411765" />
<path d="M230,-258 L62,-94 L72,-167 L172,-200 L57,-84 L170,-204 Z" stroke-width="0" fill="#e4d364" fill-opacity="0.3568627450980392" />
<path d="M205,-203 L79,-243 L96,-219 L76,-243 L205,-75 L54,-47 Z" stroke-width="0" fill="#fab57d" fill-opacity="0.09019607843137255" />
<path d="M49,-232 L97,-174 L175,-247 L214,-88 L81,-88 L235,-59 Z" stroke-width="0" fill="#b0fa2f" fill-opacity="0.07450980392156863" />
<path d="M65,-63 L76,-210 L44,-129 L234,-206 L72,-302 L122,-271 Z" stroke-width="0" fill="#9dc6fd" fill-opacity="0.2235294117647059" />
<path d="M199,-239 L132,-41 L63,-298 L97,-314 L210,-169 L165,-294 Z" stroke-width="0" fill="#f7f5d2" fill-opacity="0.5019607843137255" />
<path d="M50,-253 L53,-67 L162,-311 L175,-88 L96,-31 L165,-56 Z" stroke-width="0" fill="#f9cbf3" fill-opacity="0.19215686274509805" />
<path d="M156,-128 L47,-166 L104,-206 L84,-54 L231,-100 L171,-73 Z" stroke-width="0" fill="#bca8d6" fill-opacity="0.25098039215686274" />
<path d="M151,-296 L47,-75 L126,-292 L76,-284 L125,-46 L108,-128 Z" stroke-width="0" fill="#2c5c99" fill-opacity="0.043137254901960784" />
<path d="M186,-86 L201,-202 L115,-172 L32,-91 L41,-251 L245,-225 Z" stroke-width="0" fill="#0015bf" fill-opacity="0.023529411764705882" />
<path d="M97,-41 L176,-247 L210,-42 L206,-87 L77,-189 L181,-131 Z" stroke-width="0" fill="#84b5a4" fill-opacity="0.10980392156862745" />
<path d="M241,-116 L142,-75 L35,-83 L138,-36 L109,-166 L244,-51 Z" stroke-width="0" fill="#b6d628" fill-opacity="0.21176470588235294" />
<path d="M248,-313 L149,-238 L179,-271 L198,-176 L145,-154 L52,-165 Z" stroke-width="0" fill="#a3ceed" fill-opacity="0.1450980392156863" />
<path d="M52,-180 L51,-317 L149,-199 L145,-296 L234,-272 L75,-208 Z" stroke-width="0" fill="#e4c8de" fill-opacity="0.7647058823529411" />
<path d="M72,-268 L128,-35 L86,-84 L30,-136 L34,-128 L112,-262 Z" stroke-width="0" fill="#cebd6c" fill-opacity="0.3137254901960784" />
<path d="M67,-205 L231,-74 L122,-143 L160,-153 L93,-182 L48,-85 Z" stroke-width="0" fill="#f8e5bf" fill-opacity="0.0392156862745098" />
<path d="M146,-245 L239,-189 L68,-215 L169,-137 L80,-116 L101,-193 Z" stroke-width="0" fill="#bed1ae" fill-opacity="0.23529411764705882" />
<path d="M235,-197 L116,-228 L97,-159 L223,-149 L45,-47 L147,-201 Z" stroke-width="0" fill="#aa9bd3" fill-opacity="0.19607843137254902" />
<path d="M162,-143 L39,-171 L239,-175 L66,-137 L55,-142 L113,-322 Z" stroke-width="0" fill="#2cd5df" fill-opacity="0.10196078431372549" />
<path d="M96,-175 L33,-178 L237,-252 L195,-166 L95,-81 L161,-32 Z" stroke-width="0" fill="#3c4a63" fill-opacity="0.08627450980392157" />
<path d="M188,-229 L175,-173 L42,-165 L93,-113 L40,-215 L42,-255 Z" stroke-width="0" fill="#e4c591" fill-opacity="0.4549019607843137" />
<text x="137.5" y="12.5" font-size="20.0" fill="black" text-anchor="middle" transform="translate(0,5.0)">PAGE OF EARTH</text>
</svg>