<?xml version="1.0" encoding="UTF-8"?>
<svg xmlns="http://www.w3.org/2000/svg" xmlns:xlink="http://www.w3.org/1999/xlink"
     width="896" height="1496" viewBox="0 -1400 896 1496" style="font-size:70;font-family:Poor Richard, Times New Roman;stroke:black;stroke-width:1;fill:none">
<defs>
</defs>
<path d="M682,-1026 L926,-750 L366,-794 L178,-410 L866,-366 L802,-1110 Z" stroke-width="0" fill="#f9f9df" fill-opacity="0.28627450980392155" />
<path d="M122,-978 L482,-1122 L574,-338 L926,-1074 L822,-1266 L666,-750 Z" stroke-width="0" fill="#c6e5fb" fill-opacity="0.043137254901960784" />
<path d="M734,-162 L230,-726 L546,-722 L518,-262 L110,-398 L482,-1266 Z" stroke-width="0" fill="#764804" fill-opacity="0.11372549019607843" />
<path d="M738,-658 L482,-1074 L866,-666 L142,-314 L802,-386 L718,-238 Z" stroke-width="0" fill="#15bacf" fill-opacity="0.403921568627451" />
<path d="M190,-110 L314,-994 L818,-602 L626,-310 L118,-1138 L606,-158 Z" stroke-width="0" fill="#61f446" fill-opacity="0.18823529411764706" />
<path d="M674,-490 L654,-110 L818,-1194 L898,-834 L482,-702 L662,-86 Z" stroke-width="0" fill="#8df4fb" fill-opacity="0.023529411764705882" />
<path d="M310,-822 L926,-290 L86,-282 L242,-894 L858,-654 L438,-722 Z" stroke-width="0" fill="#0f4e22" fill-opacity="0.09019607843137255" />
<path d="M714,-318 L82,-758 L578,-346 L514,-746 L314,-386 L198,-822 Z" stroke-width="0" fill="#0542ed" fill-opacity="0.0" />
<path d="M134,-686 L450,-1178 L562,-342 L278,-186 L938,-306 L834,-806 Z" stroke-width="0" fill="#00b77d" fill-opacity="0.058823529411764705" />
<path d="M246,-622 L674,-894 L566,-686 L154,-122 L670,-758 L542,-134 Z" stroke-width="0" fill="#f3fae6" fill-opacity="0.6627450980392157" />
<path d="M402,-1046 L654,-210 L426,-678 L494,-930 L906,-626 L110,-750 Z" stroke-width="0" fill="#cfa3ec" fill-opacity="0.00392156862745098" />
<path d="M130,-1106 L970,-206 L514,-1206 L122,-1030 L898,-90 L330,-318 Z" stroke-width="0" fill="#57b2c9" fill-opacity="0.058823529411764705" />
<path d="M662,-310 L254,-350 L306,-426 L454,-266 L394,-622 L330,-422 Z" stroke-width="0" fill="#f0f5db" fill-opacity="1.0" />
<path d="M746,-474 L298,-858 L862,-1154 L846,-1194 L886,-338 L878,-130 Z" stroke-width="0" fill="#3eacf2" fill-opacity="0.03529411764705882" />
<path d="M322,-114 L802,-1126 L934,-1058 L270,-882 L262,-554 L546,-1142 Z" stroke-width="0" fill="#d1fee5" fill-opacity="0.054901960784313725" />
<path d="M370,-698 L278,-1038 L318,-982 L486,-882 L466,-1246 L322,-786 Z" stroke-width="0" fill="#d9e3d6" fill-opacity="0.7254901960784313" />
<path d="M546,-634 L926,-310 L254,-1042 L770,-1270 L954,-210 L886,-1134 Z" stroke-width="0" fill="#a6b6a9" fill-opacity="0.24705882352941178" />
<path d="M686,-590 L394,-1134 L382,-802 L510,-446 L294,-1142 L554,-806 Z" stroke-width="0" fill="#dc0e13" fill-opacity="0.6078431372549019" />
<path d="M514,-338 L718,-682 L422,-1006 L562,-678 L570,-1078 L298,-750 Z" stroke-width="0" fill="#df7adc" fill-opacity="0.7137254901960784" />
<path d="M182,-154 L702,-822 L778,-550 L398,-742 L522,-730 L118,-906 Z" stroke-width="0" fill="#19c987" fill-opacity="0.047058823529411764" />
<path d="M934,-918 L438,-570 L446,-854 L82,-1146 L734,-890 L570,-138 Z" stroke-width="0" fill="#e0e2f8" fill-opacity="0.1411764705882353" />
<path d="M86,-1170 L590,-466 L418,-610 L494,-670 L686,-110 L522,-86 Z" stroke-width="0" fill="#54b57a" fill-opacity="0.1843137254901961" />
<path d="M618,-522 L218,-1274 L514,-1038 L342,-1182 L334,-1234 L298,-882 Z" stroke-width="0" fill="#19480c" fill-opacity="0.12941176470588237" />
<path d="M954,-1226 L974,-778 L214,-446 L98,-126 L962,-1258 L98,-366 Z" stroke-width="0" fill="#7d8189" fill-opacity="0.09411764705882353" />
<path d="M750,-210 L122,-102 L974,-302 L958,-282 L550,-1114 L542,-1182 Z" stroke-width="0" fill="#b7efca" fill-opacity="0.06274509803921569" />
<path d="M730,-518 L166,-890 L118,-1206 L870,-414 L926,-386 L302,-330 Z" stroke-width="0" fill="#636d3f" fill-opacity="0.2823529411764706" />
<path d="M422,-486 L826,-1138 L518,-290 L370,-154 L526,-1174 L934,-1266 Z" stroke-width="0" fill="#4d190a" fill-opacity="0.023529411764705882" />
<path d="M642,-766 L450,-1194 L614,-1234 L198,-250 L706,-978 L702,-1230 Z" stroke-width="0" fill="#77bb8d" fill-opacity="0.18823529411764706" />
<path d="M90,-722 L158,-470 L474,-878 L622,-1218 L694,-326 L642,-266 Z" stroke-width="0" fill="#b92800" fill-opacity="0.8235294117647058" />
<path d="M494,-330 L242,-798 L966,-178 L182,-370 L686,-862 L466,-462 Z" stroke-width="0" fill="#a7c2b7" fill-opacity="0.3607843137254902" />
<path d="M638,-934 L170,-478 L542,-198 L790,-874 L806,-1138 L98,-122 Z" stroke-width="0" fill="#b7e6f4" fill-opacity="0.5843137254901961" />
<path d="M150,-538 L770,-818 L926,-598 L570,-114 L218,-1270 L718,-454 Z" stroke-width="0" fill="#419d82" fill-opacity="0.17254901960784313" />
<path d="M506,-1062 L186,-266 L962,-1250 L158,-962 L550,-1166 L886,-366 Z" stroke-width="0" fill="#d8f2e6" fill-opacity="0.6039215686274509" />
<path d="M146,-434 L598,-586 L338,-354 L266,-742 L382,-486 L202,-418 Z" stroke-width="0" fill="#de0b00" fill-opacity="1.0" />
<path d="M582,-294 L422,-794 L226,-602 L942,-890 L474,-670 L718,-138 Z" stroke-width="0" fill="#f6f9fb" fill-opacity="0.8235294117647058" />
<path d="M526,-254 L302,-562 L742,-646 L666,-1170 L158,-858 L974,-742 Z" stroke-width="0" fill="#6e3075" fill-opacity="0.08235294117647059" />
<path d="M922,-1018 L650,-814 L474,-754 L282,-178 L954,-1054 L502,-370 Z" stroke-width="0" fill="#aba878" fill-opacity="0.36470588235294116" />
<path d="M894,-382 L814,-110 L610,-210 L242,-1142 L550,-1134 L510,-318 Z" stroke-width="0" fill="#000000" fill-opacity="0.8392156862745098" />
<path d="M962,-206 L878,-950 L514,-1218 L686,-210 L850,-1166 L466,-118 Z" stroke-width="0" fill="#1e669d" fill-opacity="0.043137254901960784" />
<path d="M598,-1126 L538,-950 L314,-1190 L562,-694 L574,-930 L826,-1102 Z" stroke-width="0" fill="#a83016" fill-opacity="0.0" />
<path d="M330,-1054 L438,-162 L198,-1114 L202,-246 L846,-1026 L330,-750 Z" stroke-width="0" fill="#5dd9ef" fill-opacity="0.01568627450980392" />
<path d="M142,-122 L582,-1042 L858,-650 L394,-202 L498,-946 L750,-562 Z" stroke-width="0" fill="#baf10e" fill-opacity="0.0392156862745098" />
<path d="M650,-166 L934,-866 L666,-758 L198,-1154 L766,-1018 L82,-754 Z" stroke-width="0" fill="#9ee4dd" fill-opacity="0.8117647058823529" />
<path d="M234,-1034 L890,-1074 L634,-746 L298,-118 L382,-882 L138,-150 Z" stroke-width="0" fill="#fae6f1" fill-opacity="0.12549019607843137" />
<path d="M446,-1126 L630,-514 L974,-1242 L474,-114 L830,-954 L694,-738 Z" stroke-width="0" fill="#fef8e3" fill-opacity="0.11372549019607843" />
<path d="M378,-1178 L498,-1222 L674,-578 L382,-1090 L462,-326 L178,-1078 Z" stroke-width="0" fill="#e4f3ce" fill-opacity="0.9529411764705882" />
<path d="M162,-354 L274,-514 L630,-278 L630,-1026 L814,-194 L274,-210 Z" stroke-width="0" fill="#0ddf20" fill-opacity="0.03529411764705882" />
<path d="M374,-962 L534,-486 L954,-1030 L666,-882 L774,-858 L658,-862 Z" stroke-width="0" fill="#113a56" fill-opacity="0.1607843137254902" />
<path d="M822,-1046 L678,-486 L174,-314 L930,-442 L522,-1186 L198,-958 Z" stroke-width="0" fill="#66dba3" fill-opacity="0.00392156862745098" />
<path d="M202,-86 L210,-458 L970,-126 L390,-334 L342,-922 L346,-774 Z" stroke-width="0" fill="#aad5cb" fill-opacity="0.4588235294117647" />
<path d="M170,-290 L426,-1094 L258,-590 L246,-922 L170,-290 L590,-1274 Z" stroke-width="0" fill="#fedc0e" fill-opacity="0.10196078431372549" />
<path d="M190,-674 L722,-538 L362,-602 L806,-402 L322,-574 L134,-1218 Z" stroke-width="0" fill="#7896d5" fill-opacity="0.09019607843137255" />
<path d="M86,-1038 L498,-966 L354,-94 L322,-1118 L358,-1070 L178,-494 Z" stroke-width="0" fill="#a5b577" fill-opacity="0.15294117647058825" />
<path d="M242,-966 L518,-702 L806,-514 L502,-622 L442,-330 L566,-254 Z" stroke-width="0" fill="#94e7e1" fill-opacity="0.6196078431372549" />
<path d="M502,-510 L438,-294 L866,-126 L254,-798 L718,-338 L490,-1258 Z" stroke-width="0" fill="#3e5df2" fill-opacity="0.0196078431372549" />
<path d="M278,-674 L286,-826 L398,-630 L198,-758 L342,-702 L378,-146 Z" stroke-width="0" fill="#a2c4b0" fill-opacity="0.4235294117647059" />
<path d="M694,-618 L738,-698 L106,-882 L238,-202 L114,-554 L534,-830 Z" stroke-width="0" fill="#1042d8" fill-opacity="0.03137254901960784" />
<path d="M730,-118 L926,-494 L866,-826 L390,-194 L710,-730 L450,-262 Z" stroke-width="0" fill="#000686" fill-opacity="0.5176470588235295" />
<path d="M582,-450 L210,-162 L214,-1006 L570,-434 L846,-1074 L102,-542 Z" stroke-width="0" fill="#d8d6a0" fill-opacity="0.1607843137254902" />
<path d="M406,-1062 L914,-114 L454,-238 L466,-702 L218,-94 L574,-974 Z" stroke-width="0" fill="#16000a" fill-opacity="0.10196078431372549" />
<path d="M106,-758 L926,-938 L286,-726 L454,-850 L274,-1094 L278,-734 Z" stroke-width="0" fill="#97f0fc" fill-opacity="0.7490196078431373" />
<path d="M510,-826 L878,-1114 L886,-406 L538,-82 L638,-210 L254,-786 Z" stroke-width="0" fill="#150eff" fill-opacity="0.054901960784313725" />
<path d="M754,-518 L714,-134 L90,-1046 L766,-258 L786,-146 L298,-538 Z" stroke-width="0" fill="#396105" fill-opacity="0.14901960784313725" />
<path d="M314,-678 L754,-162 L378,-330 L798,-742 L754,-130 L482,-830 Z" stroke-width="0" fill="#090103" fill-opacity="0.03137254901960784" />
<path d="M578,-1002 L242,-618 L542,-742 L230,-750 L846,-318 L114,-466 Z" stroke-width="0" fill="#eb1500" fill-opacity="0.8156862745098039" />
<path d="M566,-98 L546,-374 L566,-1062 L142,-498 L890,-282 L434,-490 Z" stroke-width="0" fill="#ebfb03" fill-opacity="0.09019607843137255" />
<path d="M678,-534 L610,-1138 L362,-622 L970,-914 L446,-638 L638,-306 Z" stroke-width="0" fill="#e8fcfe" fill-opacity="0.4980392156862745" />
<path d="M106,-682 L186,-86 L322,-494 L582,-1086 L186,-566 L462,-778 Z" stroke-width="0" fill="#f40000" fill-opacity="0.4196078431372549" />
<path d="M978,-1278 L202,-546 L122,-766 L682,-306 L426,-470 L342,-1054 Z" stroke-width="0" fill="#d7dbe1" fill-opacity="0.8117647058823529" />
<path d="M626,-998 L254,-926 L194,-722 L418,-1014 L682,-1042 L926,-714 Z" stroke-width="0" fill="#fefdda" fill-opacity="0.23529411764705882" />
<path d="M606,-1194 L706,-1102 L866,-506 L790,-574 L114,-266 L318,-298 Z" stroke-width="0" fill="#eefbf4" fill-opacity="0.9647058823529412" />
<path d="M758,-426 L514,-250 L666,-570 L650,-686 L954,-682 L130,-126 Z" stroke-width="0" fill="#06c88d" fill-opacity="0.23921568627450981" />
<path d="M626,-1118 L670,-230 L862,-938 L962,-178 L462,-1098 L282,-538 Z" stroke-width="0" fill="#26a0e8" fill-opacity="0.058823529411764705" />
<path d="M98,-1262 L102,-1226 L954,-686 L974,-1230 L350,-674 L646,-634 Z" stroke-width="0" fill="#12ecc2" fill-opacity="0.0784313725490196" />
<path d="M930,-494 L318,-402 L342,-538 L566,-270 L718,-110 L946,-938 Z" stroke-width="0" fill="#005ab0" fill-opacity="0.9529411764705882" />
<path d="M234,-266 L758,-1258 L506,-138 L486,-86 L290,-1182 L202,-694 Z" stroke-width="0" fill="#cad6cf" fill-opacity="0.16470588235294117" />
<path d="M330,-386 L126,-218 L858,-1122 L114,-590 L690,-570 L206,-934 Z" stroke-width="0" fill="#cff5ff" fill-opacity="0.11764705882352941" />
<path d="M130,-714 L126,-670 L934,-1054 L842,-430 L846,-802 L530,-1202 Z" stroke-width="0" fill="#fafbf3" fill-opacity="0.16862745098039217" />
<path d="M698,-1086 L82,-226 L910,-186 L250,-562 L890,-598 L442,-250 Z" stroke-width="0" fill="#e8fde5" fill-opacity="0.596078431372549" />
<path d="M894,-1146 L418,-682 L794,-694 L850,-642 L790,-462 L738,-498 Z" stroke-width="0" fill="#eff7f9" fill-opacity="0.3411764705882353" />
<path d="M402,-198 L406,-726 L442,-214 L498,-486 L502,-762 L202,-490 Z" stroke-width="0" fill="#db1242" fill-opacity="0.13333333333333333" />
<path d="M482,-794 L170,-522 L174,-182 L454,-390 L754,-118 L470,-762 Z" stroke-width="0" fill="#b7f949" fill-opacity="0.058823529411764705" />
<path d="M950,-314 L114,-290 L158,-710 L506,-170 L558,-354 L894,-434 Z" stroke-width="0" fill="#8d1f00" fill-opacity="0.043137254901960784" />
<path d="M458,-134 L670,-370 L658,-994 L462,-642 L482,-190 L670,-290 Z" stroke-width="0" fill="#bff0e9" fill-opacity="0.4823529411764706" />
<path d="M610,-910 L594,-1162 L206,-406 L106,-794 L554,-814 L210,-242 Z" stroke-width="0" fill="#eb7efa" fill-opacity="0.0" />
<path d="M750,-850 L270,-346 L490,-986 L438,-782 L410,-298 L854,-762 Z" stroke-width="0" fill="#261a7a" fill-opacity="0.09019607843137255" />
<path d="M398,-958 L214,-1086 L298,-1166 L390,-222 L106,-774 L618,-938 Z" stroke-width="0" fill="#f0f6c8" fill-opacity="0.6274509803921569" />
<path d="M482,-662 L98,-694 L402,-266 L230,-190 L534,-294 L382,-306 Z" stroke-width="0" fill="#c5032d" fill-opacity="0.5882352941176471" />
<path d="M154,-666 L918,-690 L294,-866 L978,-794 L510,-962 L754,-130 Z" stroke-width="0" fill="#d9a8ee" fill-opacity="0.0392156862745098" />
<path d="M890,-1190 L238,-294 L466,-850 L206,-422 L658,-206 L670,-234 Z" stroke-width="0" fill="#fbe5bf" fill-opacity="0.2196078431372549" />
<path d="M218,-618 L946,-966 L82,-142 L242,-146 L950,-386 L686,-578 Z" stroke-width="0" fill="#effaef" fill-opacity="0.6980392156862745" />
<path d="M650,-574 L390,-202 L302,-746 L378,-590 L562,-986 L234,-426 Z" stroke-width="0" fill="#9a7373" fill-opacity="0.00392156862745098" />
<path d="M506,-866 L182,-1030 L218,-706 L442,-1182 L502,-346 L578,-98 Z" stroke-width="0" fill="#eff7f9" fill-opacity="0.5254901960784314" />
<path d="M166,-690 L726,-466 L522,-990 L442,-590 L578,-166 L222,-514 Z" stroke-width="0" fill="#f77d05" fill-opacity="0.38823529411764707" />
<path d="M634,-1178 L378,-1110 L218,-1122 L938,-574 L426,-1222 L666,-626 Z" stroke-width="0" fill="#a22530" fill-opacity="0.00784313725490196" />
<path d="M602,-302 L394,-506 L198,-426 L318,-378 L198,-510 L830,-334 Z" stroke-width="0" fill="#cb814d" fill-opacity="0.054901960784313725" />
<path d="M906,-1274 L798,-914 L394,-270 L98,-1230 L658,-790 L746,-218 Z" stroke-width="0" fill="#ebe2e5" fill-opacity="0.7098039215686275" />
<path d="M302,-1030 L310,-258 L714,-286 L466,-1022 L846,-142 L514,-86 Z" stroke-width="0" fill="#cacbd4" fill-opacity="0.0784313725490196" />
<path d="M306,-210 L574,-1022 L126,-134 L654,-94 L590,-1122 L702,-202 Z" stroke-width="0" fill="#d4c8f1" fill-opacity="0.4392156862745098" />
<path d="M766,-986 L322,-346 L90,-1230 L670,-1034 L674,-1266 L922,-662 Z" stroke-width="0" fill="#68a76b" fill-opacity="0.0" />
<text x="448.0" y="0" font-size="70.0" fill="black" text-anchor="middle" transform="translate(0,17.5)">4 OF EARTH</text>
</svg>