<?xml version="1.0" encoding="UTF-8"?>
<svg xmlns="http://www.w3.org/2000/svg" xmlns:xlink="http://www.w3.org/1999/xlink"
     width="275" height="375" viewBox="0 -350 275 375">
<defs>
</defs>
<rect x="15" y="-335" width="245" height="320" stroke="black" stroke-width="4" fill="white" />
<path d="M125,-210 L32,-35 L181,-83 L202,-201 L217,-132 L183,-231 Z" stroke-width="0" fill="#000331" fill-opacity="0.9921568627450981" />
<path d="M58,-69 L221,-106 L231,-101 L127,-29 L149,-139 L43,-176 Z" stroke-width="0" fill="#002288" fill-opacity="0.984313725490196" />
<path d="M233,-224 L81,-37 L150,-158 L65,-32 L204,-226 L189,-214 Z" stroke-width="0" fill="#081d1f" fill-opacity="0.8274509803921568" />
<path d="M190,-51 L75,-262 L115,-51 L50,-323 L87,-310 L190,-199 Z" stroke-width="0" fill="#000000" fill-opacity="0.9294117647058824" />
<path d="M113,-252 L185,-323 L36,-194 L89,-33 L103,-137 L183,-210 Z" stroke-width="0" fill="#00001b" fill-opacity="0.796078431372549" />
<path d="M190,-114 L198,-168 L172,-105 L107,-137 L36,-116 L43,-62 Z" stroke-width="0" fill="#b14200" fill-opacity="0.5019607843137255" />
<path d="M78,-231 L185,-295 L40,-174 L161,-124 L161,-244 L94,-303 Z" stroke-width="0" fill="#0f0000" fill-opacity="0.8627450980392157" />
<path d="M142,-25 L25,-78 L105,-225 L92,-122 L148,-313 L120,-229 Z" stroke-width="0" fill="#00396f" fill-opacity="0.9372549019607843" />
<path d="M27,-75 L94,-136 L198,-115 L199,-221 L145,-79 L127,-245 Z" stroke-width="0" fill="#230842" fill-opacity="0.6431372549019608" />
<path d="M133,-206 L54,-288 L190,-29 L204,-146 L35,-103 L138,-73 Z" stroke-width="0" fill="#000033" fill-opacity="0.7098039215686275" />
<path d="M181,-260 L239,-254 L137,-96 L129,-166 L152,-227 L103,-55 Z" stroke-width="0" fill="#000400" fill-opacity="0.9882352941176471" />
<path d="M175,-120 L111,-143 L241,-38 L87,-129 L50,-143 L216,-155 Z" stroke-width="0" fill="#00002a" fill-opacity="0.9529411764705882" />
<path d="M57,-48 L201,-181 L133,-116 L91,-37 L126,-118 L128,-59 Z" stroke-width="0" fill="#00280a" fill-opacity="0.8274509803921568" />
<path d="M144,-142 L240,-33 L102,-136 L113,-106 L63,-176 L139,-32 Z" stroke-width="0" fill="#000018" fill-opacity="0.8470588235294118" />
<path d="M247,-78 L79,-222 L102,-149 L138,-85 L132,-219 L200,-274 Z" stroke-width="0" fill="#04d758" fill-opacity="0.996078431372549" />
<path d="M101,-173 L191,-251 L243,-73 L96,-219 L202,-227 L80,-248 Z" stroke-width="0" fill="#003c87" fill-opacity="0.8705882352941177" />
<path d="M152,-145 L145,-304 L66,-33 L82,-290 L201,-52 L43,-175 Z" stroke-width="0" fill="#251554" fill-opacity="0.7294117647058823" />
<path d="M98,-312 L48,-77 L91,-160 L226,-90 L161,-217 L203,-242 Z" stroke-width="0" fill="#000000" fill-opacity="0.8156862745098039" />
<path d="M190,-210 L127,-283 L165,-263 L133,-262 L96,-193 L74,-247 Z" stroke-width="0" fill="#dbebf9" fill-opacity="0.9490196078431372" />
<path d="M242,-224 L111,-233 L203,-79 L191,-180 L245,-66 L238,-250 Z" stroke-width="0" fill="#000071" fill-opacity="0.8784313725490196" />
<path d="M61,-115 L72,-71 L32,-165 L184,-134 L82,-90 L176,-167 Z" stroke-width="0" fill="#00fdd7" fill-opacity="0.996078431372549" />
<path d="M161,-174 L151,-195 L56,-202 L32,-125 L167,-311 L222,-201 Z" stroke-width="0" fill="#0e1c92" fill-opacity="0.7607843137254902" />
<path d="M176,-139 L205,-43 L199,-243 L78,-281 L34,-205 L181,-183 Z" stroke-width="0" fill="#1e8c24" fill-opacity="0.3333333333333333" />
<path d="M218,-107 L242,-61 L110,-273 L65,-283 L210,-62 L190,-177 Z" stroke-width="0" fill="#001000" fill-opacity="0.6901960784313725" />
<path d="M186,-301 L150,-175 L82,-238 L162,-133 L118,-109 L202,-217 Z" stroke-width="0" fill="#000000" fill-opacity="0.9098039215686274" />
<path d="M205,-125 L75,-72 L77,-138 L59,-73 L188,-137 L200,-257 Z" stroke-width="0" fill="#d8b9c0" fill-opacity="0.8196078431372549" />
<path d="M49,-86 L116,-135 L209,-125 L175,-296 L81,-219 L25,-261 Z" stroke-width="0" fill="#04003b" fill-opacity="0.7843137254901961" />
<path d="M176,-320 L209,-219 L124,-42 L220,-298 L232,-136 L107,-297 Z" stroke-width="0" fill="#000000" fill-opacity="0.9411764705882353" />
<path d="M92,-203 L60,-277 L25,-257 L192,-32 L76,-173 L45,-227 Z" stroke-width="0" fill="#002f14" fill-opacity="0.8" />
<path d="M137,-61 L172,-73 L159,-223 L61,-306 L65,-223 L81,-89 Z" stroke-width="0" fill="#080343" fill-opacity="0.5058823529411764" />
<path d="M102,-45 L87,-215 L244,-168 L60,-55 L109,-99 L54,-69 Z" stroke-width="0" fill="#06015a" fill-opacity="0.10196078431372549" />
<path d="M199,-135 L194,-183 L28,-61 L66,-107 L80,-121 L210,-249 Z" stroke-width="0" fill="#000116" fill-opacity="0.6509803921568628" />
<path d="M120,-278 L100,-112 L184,-261 L201,-218 L87,-112 L185,-249 Z" stroke-width="0" fill="#9dc800" fill-opacity="0.47058823529411764" />
<path d="M234,-266 L96,-193 L210,-97 L46,-35 L218,-149 L164,-308 Z" stroke-width="0" fill="#000028" fill-opacity="0.396078431372549" />
<path d="M155,-250 L233,-142 L47,-207 L133,-314 L43,-159 L226,-78 Z" stroke-width="0" fill="#000000" fill-opacity="0.8509803921568627" />
<path d="M129,-140 L106,-297 L65,-117 L208,-260 L176,-86 L44,-272 Z" stroke-width="0" fill="#00001f" fill-opacity="0.9176470588235294" />
<path d="M131,-256 L30,-140 L124,-259 L35,-222 L202,-57 L95,-307 Z" stroke-width="0" fill="#000702" fill-opacity="0.9333333333333333" />
<path d="M164,-286 L67,-198 L158,-35 L129,-61 L183,-194 L166,-32 Z" stroke-width="0" fill="#002867" fill-opacity="0.9568627450980393" />
<path d="M97,-63 L179,-43 L236,-279 L173,-63 L170,-107 L49,-32 Z" stroke-width="0" fill="#2ae612" fill-opacity="0.8666666666666667" />
<path d="M159,-50 L242,-323 L98,-177 L153,-221 L149,-181 L74,-164 Z" stroke-width="0" fill="#00003f" fill-opacity="0.7686274509803922" />
<path d="M55,-32 L119,-137 L104,-120 L91,-211 L243,-64 L209,-224 Z" stroke-width="0" fill="#002ba1" fill-opacity="0.6039215686274509" />
<path d="M32,-80 L81,-251 L220,-199 L61,-103 L236,-237 L55,-127 Z" stroke-width="0" fill="#acf967" fill-opacity="0.7176470588235294" />
<path d="M31,-245 L91,-85 L46,-87 L132,-71 L155,-207 L122,-266 Z" stroke-width="0" fill="#12eed7" fill-opacity="0.3254901960784314" />
<path d="M84,-145 L113,-47 L40,-28 L92,-223 L71,-66 L59,-192 Z" stroke-width="0" fill="#000000" fill-opacity="0.9058823529411765" />
<path d="M95,-235 L234,-46 L151,-80 L156,-300 L35,-208 L103,-151 Z" stroke-width="0" fill="#131b01" fill-opacity="0.01568627450980392" />
<path d="M148,-182 L135,-122 L70,-37 L86,-163 L48,-49 L49,-48 Z" stroke-width="0" fill="#000363" fill-opacity="0.9294117647058824" />
<path d="M55,-78 L180,-239 L97,-152 L120,-98 L75,-86 L155,-145 Z" stroke-width="0" fill="#91dd64" fill-opacity="0.1411764705882353" />
<path d="M72,-71 L114,-35 L109,-209 L91,-280 L242,-154 L94,-296 Z" stroke-width="0" fill="#2f47ef" fill-opacity="0.34901960784313724" />
<path d="M28,-150 L166,-106 L31,-69 L189,-140 L47,-184 L54,-280 Z" stroke-width="0" fill="#004ccd" fill-opacity="0.8980392156862745" />
<path d="M84,-48 L226,-148 L206,-76 L218,-324 L160,-121 L218,-78 Z" stroke-width="0" fill="#001776" fill-opacity="0.9333333333333333" />
<path d="M34,-219 L197,-224 L61,-97 L78,-170 L179,-48 L101,-222 Z" stroke-width="0" fill="#088339" fill-opacity="0.32941176470588235" />
<path d="M139,-285 L222,-292 L157,-54 L105,-170 L145,-46 L162,-230 Z" stroke-width="0" fill="#001879" fill-opacity="0.9568627450980393" />
<path d="M148,-288 L112,-218 L135,-159 L211,-199 L86,-276 L30,-108 Z" stroke-width="0" fill="#20a940" fill-opacity="0.7294117647058823" />
<path d="M131,-229 L37,-211 L79,-55 L232,-198 L116,-80 L138,-234 Z" stroke-width="0" fill="#a73323" fill-opacity="0.19215686274509805" />
<path d="M229,-320 L150,-144 L165,-302 L155,-54 L80,-137 L171,-241 Z" stroke-width="0" fill="#002470" fill-opacity="0.9450980392156862" />
<path d="M234,-76 L73,-206 L124,-303 L177,-77 L147,-202 L76,-298 Z" stroke-width="0" fill="#0c2da3" fill-opacity="0.09411764705882353" />
<path d="M166,-243 L105,-226 L66,-59 L180,-267 L199,-298 L73,-277 Z" stroke-width="0" fill="#090300" fill-opacity="0.8549019607843137" />
<path d="M103,-78 L152,-48 L177,-318 L131,-111 L123,-180 L26,-265 Z" stroke-width="0" fill="#090302" fill-opacity="0.6666666666666666" />
<path d="M142,-260 L141,-228 L128,-116 L197,-304 L213,-53 L232,-247 Z" stroke-width="0" fill="#000e4f" fill-opacity="0.8588235294117647" />
<path d="M193,-296 L67,-179 L87,-224 L122,-104 L155,-225 L35,-29 Z" stroke-width="0" fill="#000034" fill-opacity="0.9764705882352941" />
<path d="M132,-86 L115,-236 L196,-257 L153,-92 L28,-297 L34,-55 Z" stroke-width="0" fill="#000d01" fill-opacity="0.9411764705882353" />
<path d="M69,-301 L228,-44 L235,-123 L115,-291 L153,-50 L176,-291 Z" stroke-width="0" fill="#001232" fill-opacity="0.3568627450980392" />
<path d="M120,-140 L29,-68 L27,-87 L46,-212 L56,-106 L132,-283 Z" stroke-width="0" fill="#000000" fill-opacity="0.8117647058823529" />
<path d="M186,-276 L248,-96 L246,-286 L34,-165 L154,-95 L42,-143 Z" stroke-width="0" fill="#11469a" fill-opacity="0.9450980392156862" />
<path d="M128,-79 L245,-298 L165,-168 L192,-199 L88,-275 L115,-71 Z" stroke-width="0" fill="#18194d" fill-opacity="0.8196078431372549" />
<path d="M225,-308 L217,-228 L42,-105 L165,-63 L91,-178 L114,-131 Z" stroke-width="0" fill="#12c88a" fill-opacity="0.9725490196078431" />
<path d="M89,-85 L90,-63 L202,-315 L67,-95 L199,-74 L116,-231 Z" stroke-width="0" fill="#000008" fill-opacity="0.8156862745098039" />
<path d="M234,-40 L34,-171 L125,-279 L103,-255 L166,-260 L158,-113 Z" stroke-width="0" fill="#0068eb" fill-opacity="0.7568627450980392" />
<path d="M69,-266 L216,-32 L58,-89 L249,-41 L112,-279 L103,-60 Z" stroke-width="0" fill="#00057a" fill-opacity="0.8196078431372549" />
<path d="M133,-150 L179,-51 L28,-263 L225,-34 L190,-84 L82,-230 Z" stroke-width="0" fill="#104236" fill-opacity="0.8235294117647058" />
<path d="M173,-216 L126,-38 L92,-266 L129,-210 L166,-234 L135,-170 Z" stroke-width="0" fill="#1af6f3" fill-opacity="0.7450980392156863" />
<path d="M82,-238 L31,-120 L168,-207 L92,-183 L104,-64 L36,-134 Z" stroke-width="0" fill="#0b001b" fill-opacity="0.9607843137254902" />
<path d="M150,-129 L186,-234 L127,-111 L249,-230 L219,-310 L139,-116 Z" stroke-width="0" fill="#1d4ecf" fill-opacity="0.7529411764705882" />
<path d="M105,-123 L128,-208 L106,-281 L44,-171 L105,-156 L59,-244 Z" stroke-width="0" fill="#00c4ec" fill-opacity="0.03529411764705882" />
<path d="M56,-123 L192,-168 L102,-55 L105,-129 L54,-320 L203,-112 Z" stroke-width="0" fill="#005d26" fill-opacity="0.0196078431372549" />
<path d="M41,-72 L150,-164 L26,-134 L73,-241 L177,-163 L220,-63 Z" stroke-width="0" fill="#002058" fill-opacity="0.9921568627450981" />
<path d="M156,-198 L87,-53 L27,-196 L188,-170 L219,-36 L190,-66 Z" stroke-width="0" fill="#005dd0" fill-opacity="0.9921568627450981" />
<path d="M43,-308 L155,-143 L125,-120 L199,-167 L215,-157 L88,-44 Z" stroke-width="0" fill="#00003e" fill-opacity="0.6431372549019608" />
<path d="M100,-317 L169,-142 L161,-187 L169,-241 L164,-266 L162,-46 Z" stroke-width="0" fill="#000721" fill-opacity="0.996078431372549" />
<path d="M56,-225 L168,-93 L158,-166 L96,-36 L120,-220 L94,-155 Z" stroke-width="0" fill="#0490c6" fill-opacity="0.8745098039215686" />
<path d="M138,-238 L195,-313 L36,-144 L218,-106 L32,-78 L231,-70 Z" stroke-width="0" fill="#0050a8" fill-opacity="0.8156862745098039" />
<path d="M123,-267 L141,-33 L106,-309 L139,-253 L49,-210 L108,-34 Z" stroke-width="0" fill="#002685" fill-opacity="0.5725490196078431" />
<path d="M27,-186 L162,-153 L216,-46 L58,-26 L59,-115 L217,-71 Z" stroke-width="0" fill="#003aaa" fill-opacity="0.9725490196078431" />
<path d="M105,-263 L58,-141 L206,-94 L77,-114 L229,-91 L64,-257 Z" stroke-width="0" fill="#00f7fd" fill-opacity="0.5450980392156862" />
<path d="M157,-155 L233,-260 L241,-281 L40,-282 L236,-54 L30,-129 Z" stroke-width="0" fill="#0024f9" fill-opacity="0.6862745098039216" />
<path d="M31,-125 L167,-60 L243,-166 L32,-241 L146,-102 L39,-213 Z" stroke-width="0" fill="#22f3f2" fill-opacity="0.17254901960784313" />
<path d="M173,-284 L196,-121 L245,-250 L211,-54 L85,-163 L32,-132 Z" stroke-width="0" fill="#0efda3" fill-opacity="0.1607843137254902" />
<path d="M138,-162 L75,-206 L186,-48 L165,-107 L108,-309 L97,-51 Z" stroke-width="0" fill="#50eef5" fill-opacity="0.03137254901960784" />
<path d="M74,-36 L204,-114 L27,-77 L72,-299 L114,-57 L245,-97 Z" stroke-width="0" fill="#5ae780" fill-opacity="0.043137254901960784" />
<path d="M54,-42 L249,-292 L210,-272 L177,-49 L163,-174 L204,-79 Z" stroke-width="0" fill="#33ace3" fill-opacity="0.023529411764705882" />
<path d="M242,-143 L71,-198 L225,-182 L183,-84 L168,-185 L240,-129 Z" stroke-width="0" fill="#102e89" fill-opacity="0.8862745098039215" />
<path d="M36,-77 L29,-48 L230,-85 L109,-220 L123,-283 L179,-61 Z" stroke-width="0" fill="#0010c5" fill-opacity="0.3215686274509804" />
<path d="M165,-98 L135,-48 L108,-25 L206,-218 L142,-233 L194,-68 Z" stroke-width="0" fill="#0066dc" fill-opacity="0.7568627450980392" />
<path d="M54,-38 L74,-118 L229,-28 L60,-128 L29,-88 L198,-118 Z" stroke-width="0" fill="#07085a" fill-opacity="0.5019607843137255" />
<path d="M74,-241 L50,-121 L91,-320 L145,-51 L145,-235 L130,-258 Z" stroke-width="0" fill="#002b92" fill-opacity="0.22745098039215686" />
<path d="M208,-145 L56,-198 L58,-213 L175,-123 L31,-271 L43,-55 Z" stroke-width="0" fill="#0a21a2" fill-opacity="0.4980392156862745" />
<path d="M102,-84 L172,-128 L248,-106 L134,-273 L52,-136 L192,-231 Z" stroke-width="0" fill="#045bfd" fill-opacity="0.6196078431372549" />
<path d="M182,-267 L140,-174 L142,-229 L45,-180 L187,-306 L143,-110 Z" stroke-width="0" fill="#00ecfe" fill-opacity="0.1411764705882353" />
<path d="M100,-37 L196,-114 L205,-117 L30,-277 L95,-214 L152,-239 Z" stroke-width="0" fill="#0077e5" fill-opacity="0.7607843137254902" />
<path d="M191,-150 L44,-143 L82,-54 L244,-162 L87,-161 L108,-282 Z" stroke-width="0" fill="#0b81c3" fill-opacity="0.615686274509804" />
<text x="137.5" y="12.5" font-size="20.0" fill="black" text-anchor="middle" transform="translate(0,5.0)">7 OF EARTH</text>
</svg>