<?xml version="1.0" encoding="UTF-8"?>
<svg xmlns="http://www.w3.org/2000/svg" xmlns:xlink="http://www.w3.org/1999/xlink"
     width="896" height="1496" viewBox="0 -1400 896 1496" style="font-size:70;font-family:Poor Richard, Times New Roman;stroke:black;stroke-width:1;fill:none">
<defs>
</defs>
<path d="M282,-1030 L858,-294 L478,-1214 L894,-186 L762,-126 L974,-98 Z" stroke-width="0" fill="#feffef" fill-opacity="0.08235294117647059" />
<path d="M526,-1162 L130,-918 L374,-590 L762,-318 L198,-434 L358,-834 Z" stroke-width="0" fill="#e4a0ff" fill-opacity="0.10196078431372549" />
<path d="M438,-974 L834,-1038 L870,-242 L406,-430 L282,-762 L422,-390 Z" stroke-width="0" fill="#f4d6d3" fill-opacity="0.12941176470588237" />
<path d="M734,-346 L834,-526 L718,-898 L246,-1074 L94,-442 L526,-354 Z" stroke-width="0" fill="#1de537" fill-opacity="0.23529411764705882" />
<path d="M590,-1278 L166,-646 L598,-342 L762,-290 L134,-162 L310,-774 Z" stroke-width="0" fill="#208d93" fill-opacity="0.5333333333333333" />
<path d="M742,-238 L194,-386 L706,-298 L622,-226 L658,-1266 L646,-754 Z" stroke-width="0" fill="#0b2100" fill-opacity="0.17254901960784313" />
<path d="M90,-934 L402,-110 L582,-162 L670,-1242 L510,-174 L258,-850 Z" stroke-width="0" fill="#e2ecd5" fill-opacity="0.03137254901960784" />
<path d="M194,-362 L114,-442 L206,-398 L510,-1002 L690,-546 L538,-230 Z" stroke-width="0" fill="#90eaf2" fill-opacity="0.20784313725490197" />
<path d="M406,-610 L410,-742 L562,-1222 L870,-1046 L158,-662 L118,-366 Z" stroke-width="0" fill="#939fa8" fill-opacity="0.37254901960784315" />
<path d="M478,-1230 L242,-962 L766,-130 L858,-94 L818,-766 L338,-254 Z" stroke-width="0" fill="#b1bb4a" fill-opacity="0.1450980392156863" />
<path d="M550,-1082 L542,-542 L462,-166 L846,-1058 L414,-350 L398,-290 Z" stroke-width="0" fill="#ef1fe5" fill-opacity="0.30980392156862746" />
<path d="M702,-422 L830,-490 L686,-842 L530,-1110 L286,-466 L302,-238 Z" stroke-width="0" fill="#d03d7b" fill-opacity="0.403921568627451" />
<path d="M298,-526 L622,-822 L110,-478 L506,-570 L178,-866 L830,-1042 Z" stroke-width="0" fill="#47a5e6" fill-opacity="0.21568627450980393" />
<path d="M414,-530 L806,-558 L630,-882 L198,-490 L758,-178 L470,-610 Z" stroke-width="0" fill="#85f1cf" fill-opacity="0.7490196078431373" />
<path d="M878,-174 L834,-1266 L326,-530 L654,-870 L254,-1094 L530,-758 Z" stroke-width="0" fill="#b2aabc" fill-opacity="0.6705882352941176" />
<path d="M954,-86 L294,-1222 L498,-1066 L250,-862 L422,-226 L218,-802 Z" stroke-width="0" fill="#a27c6a" fill-opacity="0.00392156862745098" />
<path d="M114,-174 L186,-1114 L842,-562 L862,-138 L594,-814 L550,-382 Z" stroke-width="0" fill="#d2e6d0" fill-opacity="0.9450980392156862" />
<path d="M826,-1182 L914,-1150 L146,-122 L550,-330 L678,-730 L774,-602 Z" stroke-width="0" fill="#edb380" fill-opacity="0.1803921568627451" />
<path d="M650,-966 L114,-898 L206,-874 L374,-158 L934,-598 L974,-686 Z" stroke-width="0" fill="#d6a900" fill-opacity="0.5764705882352941" />
<path d="M386,-1030 L102,-894 L570,-858 L326,-102 L634,-818 L698,-258 Z" stroke-width="0" fill="#f2f6f2" fill-opacity="0.9215686274509803" />
<path d="M262,-578 L770,-250 L602,-1258 L542,-98 L818,-302 L362,-734 Z" stroke-width="0" fill="#f4eef3" fill-opacity="0.0196078431372549" />
<path d="M334,-566 L878,-1046 L146,-1118 L950,-414 L482,-614 L734,-918 Z" stroke-width="0" fill="#fe44c7" fill-opacity="0.0784313725490196" />
<path d="M438,-354 L114,-1210 L430,-1106 L134,-442 L742,-1194 L886,-214 Z" stroke-width="0" fill="#77acd4" fill-opacity="0.22745098039215686" />
<path d="M610,-390 L334,-870 L346,-626 L614,-510 L206,-1238 L238,-202 Z" stroke-width="0" fill="#6e6e00" fill-opacity="0.23137254901960785" />
<path d="M722,-986 L498,-1042 L110,-910 L110,-1162 L110,-386 L638,-446 Z" stroke-width="0" fill="#029731" fill-opacity="0.23137254901960785" />
<path d="M974,-686 L430,-450 L406,-1258 L98,-706 L790,-546 L178,-458 Z" stroke-width="0" fill="#609867" fill-opacity="0.34901960784313724" />
<path d="M906,-210 L498,-598 L110,-946 L410,-118 L402,-254 L922,-94 Z" stroke-width="0" fill="#88e5ae" fill-opacity="0.18823529411764706" />
<path d="M646,-274 L778,-286 L606,-798 L146,-626 L786,-966 L258,-1066 Z" stroke-width="0" fill="#cce6a2" fill-opacity="0.8549019607843137" />
<path d="M686,-586 L818,-566 L314,-842 L838,-374 L674,-98 L322,-810 Z" stroke-width="0" fill="#f9e69d" fill-opacity="0.023529411764705882" />
<path d="M942,-470 L302,-714 L198,-562 L490,-1274 L642,-106 L726,-586 Z" stroke-width="0" fill="#d5dee0" fill-opacity="0.3176470588235294" />
<path d="M914,-142 L890,-1238 L530,-582 L814,-1094 L614,-362 L406,-842 Z" stroke-width="0" fill="#a2b9b0" fill-opacity="0.5843137254901961" />
<path d="M258,-978 L118,-486 L198,-826 L558,-270 L530,-1062 L622,-1158 Z" stroke-width="0" fill="#ff828f" fill-opacity="0.2823529411764706" />
<path d="M430,-1162 L702,-1042 L594,-538 L582,-230 L594,-514 L414,-830 Z" stroke-width="0" fill="#f0fae6" fill-opacity="0.5450980392156862" />
<path d="M978,-446 L714,-710 L662,-326 L930,-522 L394,-990 L402,-94 Z" stroke-width="0" fill="#8e918f" fill-opacity="0.4235294117647059" />
<path d="M578,-718 L154,-178 L210,-1098 L970,-974 L102,-530 L182,-586 Z" stroke-width="0" fill="#f3e4fe" fill-opacity="0.6196078431372549" />
<path d="M306,-234 L302,-262 L290,-750 L858,-1058 L294,-994 L482,-82 Z" stroke-width="0" fill="#e3e9e5" fill-opacity="0.5254901960784314" />
<path d="M514,-970 L610,-710 L318,-834 L442,-958 L546,-586 L930,-282 Z" stroke-width="0" fill="#afc4c1" fill-opacity="0.8745098039215686" />
<path d="M754,-594 L426,-570 L442,-206 L678,-1174 L742,-426 L294,-534 Z" stroke-width="0" fill="#05d03c" fill-opacity="0.2901960784313726" />
<path d="M278,-266 L714,-154 L766,-98 L318,-534 L214,-1114 L386,-258 Z" stroke-width="0" fill="#d9d3b8" fill-opacity="0.9058823529411765" />
<path d="M114,-470 L838,-834 L134,-126 L134,-458 L122,-978 L434,-754 Z" stroke-width="0" fill="#e0dfda" fill-opacity="0.7137254901960784" />
<path d="M274,-146 L490,-626 L106,-790 L354,-686 L474,-274 L134,-1230 Z" stroke-width="0" fill="#b42590" fill-opacity="0.00392156862745098" />
<path d="M906,-370 L190,-626 L862,-330 L434,-242 L546,-174 L210,-498 Z" stroke-width="0" fill="#e4debe" fill-opacity="0.9372549019607843" />
<path d="M218,-478 L474,-166 L450,-934 L458,-190 L686,-958 L706,-138 Z" stroke-width="0" fill="#113877" fill-opacity="0.027450980392156862" />
<path d="M338,-410 L214,-746 L678,-954 L838,-194 L358,-306 L146,-1006 Z" stroke-width="0" fill="#a9a5b9" fill-opacity="0.5019607843137255" />
<path d="M202,-534 L434,-198 L746,-714 L154,-362 L586,-158 L266,-834 Z" stroke-width="0" fill="#e4c8c5" fill-opacity="0.8509803921568627" />
<path d="M502,-826 L682,-1162 L210,-930 L422,-918 L566,-1178 L458,-698 Z" stroke-width="0" fill="#c2d620" fill-opacity="0.23137254901960785" />
<path d="M754,-898 L558,-574 L310,-1042 L666,-490 L142,-806 L706,-774 Z" stroke-width="0" fill="#cde8c9" fill-opacity="0.4" />
<path d="M550,-822 L234,-1154 L278,-1110 L522,-462 L90,-186 L398,-830 Z" stroke-width="0" fill="#39e57d" fill-opacity="0.24313725490196078" />
<path d="M942,-718 L862,-610 L938,-842 L614,-174 L866,-1162 L210,-178 Z" stroke-width="0" fill="#fbefa6" fill-opacity="0.043137254901960784" />
<path d="M142,-734 L186,-670 L246,-230 L318,-446 L134,-398 L414,-330 Z" stroke-width="0" fill="#90f2f2" fill-opacity="0.5098039215686274" />
<path d="M698,-1014 L430,-1166 L154,-686 L330,-962 L830,-258 L350,-750 Z" stroke-width="0" fill="#ffbeda" fill-opacity="0.07450980392156863" />
<path d="M338,-906 L314,-358 L682,-478 L394,-130 L638,-594 L746,-1178 Z" stroke-width="0" fill="#f38dbc" fill-opacity="0.2901960784313726" />
<path d="M562,-394 L278,-954 L282,-1098 L102,-1058 L122,-826 L918,-246 Z" stroke-width="0" fill="#903671" fill-opacity="0.14901960784313725" />
<path d="M814,-598 L462,-206 L570,-730 L958,-1158 L806,-618 L798,-246 Z" stroke-width="0" fill="#afc3a7" fill-opacity="0.5803921568627451" />
<path d="M198,-330 L582,-610 L334,-1254 L198,-602 L798,-678 L774,-1234 Z" stroke-width="0" fill="#b6bb8d" fill-opacity="0.38823529411764707" />
<path d="M662,-222 L406,-766 L738,-798 L570,-898 L950,-898 L830,-698 Z" stroke-width="0" fill="#867500" fill-opacity="0.24313725490196078" />
<path d="M278,-982 L186,-926 L130,-1274 L414,-266 L354,-418 L970,-598 Z" stroke-width="0" fill="#a490d8" fill-opacity="0.22745098039215686" />
<path d="M106,-338 L878,-862 L214,-482 L406,-590 L202,-898 L734,-598 Z" stroke-width="0" fill="#3ee8c5" fill-opacity="0.12156862745098039" />
<path d="M346,-806 L942,-130 L446,-950 L894,-514 L190,-894 L646,-1278 Z" stroke-width="0" fill="#caab7e" fill-opacity="0.20784313725490197" />
<path d="M318,-802 L618,-710 L226,-518 L974,-1086 L870,-942 L158,-1002 Z" stroke-width="0" fill="#b397c7" fill-opacity="0.403921568627451" />
<path d="M334,-354 L298,-294 L142,-278 L530,-1122 L370,-770 L558,-882 Z" stroke-width="0" fill="#bcf9f1" fill-opacity="0.5803921568627451" />
<path d="M122,-238 L242,-382 L294,-142 L674,-526 L458,-822 L454,-178 Z" stroke-width="0" fill="#35d3e7" fill-opacity="0.20392156862745098" />
<path d="M394,-550 L362,-870 L158,-474 L270,-222 L522,-406 L282,-578 Z" stroke-width="0" fill="#ffe8fb" fill-opacity="0.21176470588235294" />
<path d="M466,-762 L506,-958 L526,-494 L838,-122 L166,-590 L202,-270 Z" stroke-width="0" fill="#94fc95" fill-opacity="0.26666666666666666" />
<path d="M706,-86 L790,-582 L266,-250 L342,-242 L514,-710 L122,-450 Z" stroke-width="0" fill="#acabec" fill-opacity="0.24705882352941178" />
<path d="M814,-130 L814,-186 L626,-734 L526,-514 L574,-290 L770,-334 Z" stroke-width="0" fill="#d2d792" fill-opacity="0.27058823529411763" />
<path d="M654,-930 L110,-854 L358,-850 L154,-418 L834,-910 L678,-602 Z" stroke-width="0" fill="#ae30fa" fill-opacity="0.06274509803921569" />
<path d="M466,-878 L110,-1254 L322,-134 L282,-1186 L902,-486 L174,-838 Z" stroke-width="0" fill="#b9be9e" fill-opacity="0.4588235294117647" />
<path d="M330,-646 L690,-626 L326,-726 L138,-646 L426,-514 L350,-1154 Z" stroke-width="0" fill="#b4c9e4" fill-opacity="0.3254901960784314" />
<path d="M226,-338 L366,-1082 L218,-98 L150,-390 L738,-678 L594,-814 Z" stroke-width="0" fill="#f5dd9c" fill-opacity="0.00784313725490196" />
<path d="M882,-706 L706,-1058 L358,-670 L554,-802 L318,-1166 L582,-430 Z" stroke-width="0" fill="#e0ec32" fill-opacity="0.3215686274509804" />
<path d="M698,-258 L814,-1166 L414,-866 L738,-1146 L166,-966 L278,-226 Z" stroke-width="0" fill="#cafce2" fill-opacity="0.5058823529411764" />
<path d="M498,-862 L862,-382 L858,-866 L450,-366 L178,-762 L426,-154 Z" stroke-width="0" fill="#e59f0f" fill-opacity="0.07058823529411765" />
<path d="M742,-966 L442,-950 L402,-718 L646,-414 L254,-526 L486,-490 Z" stroke-width="0" fill="#54333e" fill-opacity="0.16470588235294117" />
<path d="M202,-1202 L930,-690 L534,-542 L738,-226 L302,-1234 L262,-90 Z" stroke-width="0" fill="#eab4ca" fill-opacity="0.16862745098039217" />
<path d="M978,-306 L598,-982 L214,-386 L274,-658 L622,-682 L466,-798 Z" stroke-width="0" fill="#cfe2e9" fill-opacity="0.5019607843137255" />
<path d="M842,-262 L678,-566 L826,-898 L594,-150 L298,-294 L790,-1166 Z" stroke-width="0" fill="#c4ab9b" fill-opacity="0.13725490196078433" />
<path d="M710,-850 L170,-174 L770,-1278 L154,-746 L90,-782 L454,-726 Z" stroke-width="0" fill="#3a281b" fill-opacity="0.09803921568627451" />
<path d="M762,-1094 L854,-210 L386,-534 L194,-1178 L402,-950 L902,-1006 Z" stroke-width="0" fill="#dde3df" fill-opacity="0.3176470588235294" />
<path d="M86,-118 L534,-354 L298,-1262 L506,-390 L534,-1234 L234,-466 Z" stroke-width="0" fill="#bafd8c" fill-opacity="0.16862745098039217" />
<path d="M538,-1274 L442,-794 L382,-578 L462,-526 L378,-1014 L426,-1234 Z" stroke-width="0" fill="#26442d" fill-opacity="0.25098039215686274" />
<path d="M274,-242 L382,-602 L818,-118 L554,-606 L330,-958 L122,-770 Z" stroke-width="0" fill="#afc0fe" fill-opacity="0.10588235294117647" />
<path d="M238,-1038 L90,-802 L354,-1122 L458,-358 L554,-510 L246,-942 Z" stroke-width="0" fill="#c53525" fill-opacity="0.0392156862745098" />
<path d="M854,-702 L222,-1278 L770,-386 L278,-690 L206,-618 L510,-370 Z" stroke-width="0" fill="#fdd7d3" fill-opacity="0.2823529411764706" />
<path d="M678,-906 L338,-1186 L206,-1222 L302,-602 L694,-1086 L898,-834 Z" stroke-width="0" fill="#a9baef" fill-opacity="0.2" />
<path d="M494,-1038 L778,-1098 L370,-986 L250,-162 L114,-486 L482,-938 Z" stroke-width="0" fill="#e2fe97" fill-opacity="0.047058823529411764" />
<path d="M734,-862 L514,-162 L258,-126 L354,-706 L666,-882 L382,-982 Z" stroke-width="0" fill="#c3e8c3" fill-opacity="0.49411764705882355" />
<path d="M546,-246 L594,-1234 L530,-1042 L762,-118 L82,-794 L94,-162 Z" stroke-width="0" fill="#e8afcd" fill-opacity="0.5411764705882353" />
<path d="M822,-90 L382,-762 L362,-398 L122,-150 L830,-750 L886,-370 Z" stroke-width="0" fill="#eeaec8" fill-opacity="0.0784313725490196" />
<path d="M590,-306 L250,-454 L134,-1030 L134,-330 L602,-158 L306,-310 Z" stroke-width="0" fill="#71c6ab" fill-opacity="0.18823529411764706" />
<path d="M262,-1022 L158,-610 L146,-850 L234,-374 L94,-162 L854,-658 Z" stroke-width="0" fill="#d3b3ad" fill-opacity="0.12941176470588237" />
<path d="M502,-1242 L274,-242 L710,-786 L470,-1022 L206,-746 L462,-1010 Z" stroke-width="0" fill="#cce1ca" fill-opacity="0.5490196078431373" />
<path d="M434,-254 L458,-1170 L590,-1014 L322,-1118 L438,-966 L226,-922 Z" stroke-width="0" fill="#f5e4e2" fill-opacity="0.2823529411764706" />
<path d="M702,-1090 L382,-326 L186,-326 L418,-1222 L882,-362 L498,-158 Z" stroke-width="0" fill="#77e6d9" fill-opacity="0.12549019607843137" />
<path d="M470,-1214 L786,-1214 L230,-594 L554,-230 L438,-634 L386,-614 Z" stroke-width="0" fill="#c0c4c8" fill-opacity="0.9294117647058824" />
<path d="M206,-218 L830,-646 L474,-1278 L682,-366 L282,-266 L670,-846 Z" stroke-width="0" fill="#bfe4c2" fill-opacity="0.16470588235294117" />
<path d="M134,-446 L222,-882 L638,-142 L82,-1182 L510,-414 L782,-382 Z" stroke-width="0" fill="#c9b6b9" fill-opacity="0.3333333333333333" />
<path d="M906,-626 L210,-814 L894,-1078 L554,-914 L382,-150 L382,-698 Z" stroke-width="0" fill="#e45b95" fill-opacity="0.13333333333333333" />
<path d="M174,-458 L294,-554 L430,-510 L542,-318 L614,-254 L442,-454 Z" stroke-width="0" fill="#cfefcd" fill-opacity="0.3568627450980392" />
<path d="M926,-134 L666,-1190 L434,-178 L410,-1102 L742,-1174 L222,-1226 Z" stroke-width="0" fill="#d6b9cc" fill-opacity="0.5333333333333333" />
<text x="448.0" y="0" font-size="70.0" fill="black" text-anchor="middle" transform="translate(0,17.5)">QUEEN OF EARTH</text>
</svg>