<?xml version="1.0" encoding="UTF-8"?>
<svg xmlns="http://www.w3.org/2000/svg" xmlns:xlink="http://www.w3.org/1999/xlink"
     width="275" height="375" viewBox="0 -350 275 375">
<defs>
</defs>
<rect x="15" y="-335" width="245" height="320" stroke="black" stroke-width="4" fill="white" />
<path d="M156,-161 L45,-210 L86,-95 L101,-241 L217,-32 L131,-271 Z" stroke-width="0" fill="#000003" fill-opacity="0.8156862745098039" />
<path d="M165,-48 L192,-129 L27,-115 L165,-197 L75,-161 L46,-95 Z" stroke-width="0" fill="#0b291a" fill-opacity="0.8392156862745098" />
<path d="M56,-199 L192,-251 L233,-182 L168,-113 L31,-266 L46,-85 Z" stroke-width="0" fill="#11283c" fill-opacity="0.9372549019607843" />
<path d="M44,-64 L119,-182 L47,-272 L109,-113 L91,-248 L94,-107 Z" stroke-width="0" fill="#1d0000" fill-opacity="0.7294117647058823" />
<path d="M138,-177 L32,-91 L246,-273 L237,-122 L69,-182 L152,-100 Z" stroke-width="0" fill="#000c26" fill-opacity="0.6823529411764706" />
<path d="M61,-89 L245,-44 L96,-58 L48,-165 L100,-156 L244,-69 Z" stroke-width="0" fill="#001005" fill-opacity="0.5019607843137255" />
<path d="M122,-127 L222,-228 L145,-169 L199,-99 L183,-141 L104,-292 Z" stroke-width="0" fill="#0a397b" fill-opacity="1.0" />
<path d="M31,-97 L103,-278 L164,-219 L96,-94 L148,-243 L57,-94 Z" stroke-width="0" fill="#cc93ce" fill-opacity="0.050980392156862744" />
<path d="M191,-188 L162,-161 L81,-117 L37,-49 L44,-51 L134,-232 Z" stroke-width="0" fill="#000000" fill-opacity="0.996078431372549" />
<path d="M96,-183 L92,-311 L176,-51 L89,-93 L58,-102 L76,-28 Z" stroke-width="0" fill="#000000" fill-opacity="0.9254901960784314" />
<path d="M217,-242 L225,-121 L105,-213 L26,-285 L72,-266 L184,-26 Z" stroke-width="0" fill="#001b1b" fill-opacity="0.9411764705882353" />
<path d="M215,-308 L64,-102 L165,-99 L124,-201 L102,-77 L108,-195 Z" stroke-width="0" fill="#1034c3" fill-opacity="0.00784313725490196" />
<path d="M211,-319 L65,-88 L202,-117 L164,-294 L33,-183 L60,-28 Z" stroke-width="0" fill="#0ebdf8" fill-opacity="0.45098039215686275" />
<path d="M102,-242 L42,-222 L114,-237 L176,-82 L207,-298 L36,-211 Z" stroke-width="0" fill="#152559" fill-opacity="0.00392156862745098" />
<path d="M49,-246 L42,-110 L41,-284 L95,-234 L159,-178 L99,-177 Z" stroke-width="0" fill="#001701" fill-opacity="0.8" />
<path d="M61,-27 L30,-171 L170,-221 L98,-228 L60,-80 L216,-91 Z" stroke-width="0" fill="#000000" fill-opacity="0.9490196078431372" />
<path d="M60,-200 L55,-302 L103,-224 L49,-216 L53,-169 L117,-46 Z" stroke-width="0" fill="#001100" fill-opacity="0.9372549019607843" />
<path d="M47,-226 L48,-267 L195,-321 L52,-294 L201,-242 L154,-26 Z" stroke-width="0" fill="#000011" fill-opacity="0.7568627450980392" />
<path d="M176,-169 L70,-133 L244,-39 L41,-201 L132,-199 L69,-37 Z" stroke-width="0" fill="#000900" fill-opacity="0.5019607843137255" />
<path d="M245,-195 L124,-171 L46,-297 L173,-291 L153,-233 L82,-195 Z" stroke-width="0" fill="#b63ee3" fill-opacity="0.09411764705882353" />
<path d="M57,-226 L112,-204 L111,-284 L47,-130 L67,-31 L118,-110 Z" stroke-width="0" fill="#12270b" fill-opacity="0.13333333333333333" />
<path d="M61,-129 L88,-206 L136,-158 L67,-67 L109,-110 L195,-257 Z" stroke-width="0" fill="#725f84" fill-opacity="0.054901960784313725" />
<path d="M81,-239 L130,-274 L176,-169 L153,-68 L79,-74 L153,-178 Z" stroke-width="0" fill="#4fb91e" fill-opacity="0.5176470588235295" />
<path d="M123,-223 L67,-287 L79,-164 L51,-157 L90,-64 L55,-49 Z" stroke-width="0" fill="#000001" fill-opacity="0.7490196078431373" />
<path d="M201,-32 L80,-246 L70,-180 L25,-75 L132,-39 L194,-120 Z" stroke-width="0" fill="#000400" fill-opacity="0.6509803921568628" />
<path d="M192,-186 L52,-163 L101,-247 L90,-52 L143,-239 L232,-108 Z" stroke-width="0" fill="#01fb5c" fill-opacity="0.06274509803921569" />
<path d="M226,-46 L248,-245 L43,-248 L160,-72 L78,-63 L94,-301 Z" stroke-width="0" fill="#91a5c8" fill-opacity="0.9490196078431372" />
<path d="M94,-234 L93,-262 L146,-224 L192,-320 L50,-201 L181,-98 Z" stroke-width="0" fill="#004913" fill-opacity="0.6" />
<path d="M36,-285 L235,-322 L69,-152 L74,-30 L166,-218 L112,-284 Z" stroke-width="0" fill="#002532" fill-opacity="0.9058823529411765" />
<path d="M221,-32 L166,-96 L112,-39 L154,-205 L249,-185 L183,-175 Z" stroke-width="0" fill="#313559" fill-opacity="0.9450980392156862" />
<path d="M42,-257 L37,-123 L149,-292 L87,-153 L31,-238 L80,-29 Z" stroke-width="0" fill="#05240b" fill-opacity="0.9686274509803922" />
<path d="M116,-194 L101,-72 L129,-216 L150,-245 L139,-227 L89,-212 Z" stroke-width="0" fill="#32bb5a" fill-opacity="0.11372549019607843" />
<path d="M108,-106 L57,-155 L200,-61 L37,-284 L68,-195 L72,-269 Z" stroke-width="0" fill="#010524" fill-opacity="0.9764705882352941" />
<path d="M155,-164 L25,-190 L167,-151 L89,-83 L155,-306 L165,-187 Z" stroke-width="0" fill="#381f7a" fill-opacity="0.8901960784313725" />
<path d="M137,-62 L229,-251 L174,-233 L64,-233 L51,-158 L177,-264 Z" stroke-width="0" fill="#284565" fill-opacity="0.5019607843137255" />
<path d="M172,-77 L30,-192 L199,-160 L192,-240 L82,-229 L149,-296 Z" stroke-width="0" fill="#f5ecf8" fill-opacity="0.7725490196078432" />
<path d="M140,-158 L170,-166 L171,-315 L53,-291 L33,-214 L33,-47 Z" stroke-width="0" fill="#8b5f8a" fill-opacity="0.4627450980392157" />
<path d="M116,-236 L242,-182 L206,-53 L235,-172 L165,-77 L123,-297 Z" stroke-width="0" fill="#fbfed9" fill-opacity="0.37254901960784315" />
<path d="M159,-51 L50,-100 L29,-139 L241,-165 L194,-30 L118,-65 Z" stroke-width="0" fill="#c58ba7" fill-opacity="0.42745098039215684" />
<path d="M107,-292 L48,-99 L114,-133 L65,-309 L98,-38 L125,-120 Z" stroke-width="0" fill="#000000" fill-opacity="0.9058823529411765" />
<path d="M122,-303 L241,-57 L66,-213 L47,-38 L124,-247 L209,-66 Z" stroke-width="0" fill="#1617a0" fill-opacity="0.6980392156862745" />
<path d="M237,-295 L49,-157 L174,-97 L87,-165 L44,-237 L56,-167 Z" stroke-width="0" fill="#ffe0f2" fill-opacity="0.3764705882352941" />
<path d="M89,-137 L75,-277 L199,-238 L200,-49 L172,-265 L160,-78 Z" stroke-width="0" fill="#c447fb" fill-opacity="0.7372549019607844" />
<path d="M58,-174 L59,-172 L152,-50 L155,-157 L71,-157 L203,-178 Z" stroke-width="0" fill="#020224" fill-opacity="0.8705882352941177" />
<path d="M206,-51 L116,-250 L30,-107 L191,-135 L124,-310 L239,-59 Z" stroke-width="0" fill="#6b8540" fill-opacity="0.7019607843137254" />
<path d="M182,-163 L187,-46 L73,-54 L228,-218 L76,-257 L246,-76 Z" stroke-width="0" fill="#02081d" fill-opacity="0.4117647058823529" />
<path d="M111,-207 L86,-120 L68,-132 L163,-35 L97,-171 L102,-107 Z" stroke-width="0" fill="#eaefc2" fill-opacity="0.8392156862745098" />
<path d="M66,-157 L128,-216 L42,-123 L150,-129 L114,-315 L74,-316 Z" stroke-width="0" fill="#2f2b2d" fill-opacity="0.9529411764705882" />
<path d="M41,-131 L236,-149 L180,-61 L208,-163 L130,-323 L219,-41 Z" stroke-width="0" fill="#cfecd6" fill-opacity="0.6862745098039216" />
<path d="M240,-295 L106,-69 L205,-166 L84,-159 L165,-99 L25,-297 Z" stroke-width="0" fill="#75a390" fill-opacity="0.9294117647058824" />
<path d="M73,-88 L46,-27 L169,-69 L126,-249 L186,-77 L91,-230 Z" stroke-width="0" fill="#000000" fill-opacity="0.9764705882352941" />
<path d="M58,-121 L57,-225 L117,-168 L82,-266 L61,-85 L167,-180 Z" stroke-width="0" fill="#553047" fill-opacity="0.2627450980392157" />
<path d="M68,-138 L57,-145 L140,-216 L71,-156 L198,-92 L144,-270 Z" stroke-width="0" fill="#aedbf4" fill-opacity="0.5411764705882353" />
<path d="M34,-268 L91,-324 L89,-314 L120,-231 L124,-167 L26,-40 Z" stroke-width="0" fill="#000100" fill-opacity="0.9490196078431372" />
<path d="M108,-119 L214,-291 L231,-190 L229,-92 L186,-181 L75,-81 Z" stroke-width="0" fill="#294077" fill-opacity="0.3333333333333333" />
<path d="M54,-222 L208,-129 L127,-212 L76,-75 L169,-250 L94,-137 Z" stroke-width="0" fill="#fbfbe0" fill-opacity="0.6274509803921569" />
<path d="M90,-88 L197,-32 L202,-151 L48,-237 L62,-103 L105,-42 Z" stroke-width="0" fill="#05001e" fill-opacity="0.5215686274509804" />
<path d="M117,-321 L105,-286 L201,-37 L97,-281 L67,-217 L63,-66 Z" stroke-width="0" fill="#746165" fill-opacity="0.7568627450980392" />
<path d="M159,-208 L94,-313 L49,-26 L164,-253 L181,-225 L81,-25 Z" stroke-width="0" fill="#00085d" fill-opacity="0.2980392156862745" />
<path d="M69,-42 L68,-144 L84,-239 L145,-76 L123,-32 L183,-298 Z" stroke-width="0" fill="#a7b8c3" fill-opacity="0.8980392156862745" />
<path d="M58,-166 L58,-53 L48,-158 L49,-91 L221,-43 L193,-232 Z" stroke-width="0" fill="#0a3e02" fill-opacity="0.16470588235294117" />
<path d="M90,-62 L36,-187 L122,-108 L56,-43 L71,-319 L248,-197 Z" stroke-width="0" fill="#a29aa5" fill-opacity="0.3568627450980392" />
<path d="M81,-83 L73,-320 L176,-287 L33,-228 L112,-60 L99,-96 Z" stroke-width="0" fill="#a0b8b7" fill-opacity="0.4196078431372549" />
<path d="M161,-80 L227,-96 L102,-126 L136,-72 L97,-233 L102,-74 Z" stroke-width="0" fill="#d8fccd" fill-opacity="0.6470588235294118" />
<path d="M212,-251 L144,-159 L114,-132 L48,-119 L105,-87 L71,-41 Z" stroke-width="0" fill="#d19dc7" fill-opacity="0.1607843137254902" />
<path d="M192,-129 L124,-253 L86,-108 L161,-123 L44,-235 L132,-49 Z" stroke-width="0" fill="#b4f6c4" fill-opacity="0.7568627450980392" />
<path d="M69,-307 L181,-213 L222,-174 L61,-176 L212,-275 L108,-27 Z" stroke-width="0" fill="#c1de9e" fill-opacity="0.7333333333333333" />
<path d="M184,-53 L87,-180 L69,-39 L45,-306 L61,-26 L132,-104 Z" stroke-width="0" fill="#000000" fill-opacity="0.7568627450980392" />
<path d="M43,-202 L55,-211 L83,-127 L33,-204 L237,-261 L144,-221 Z" stroke-width="0" fill="#092f00" fill-opacity="0.7098039215686275" />
<path d="M108,-93 L89,-231 L90,-189 L226,-51 L177,-192 L33,-233 Z" stroke-width="0" fill="#fb91e0" fill-opacity="0.2823529411764706" />
<path d="M102,-92 L235,-314 L111,-78 L54,-296 L72,-44 L32,-117 Z" stroke-width="0" fill="#071200" fill-opacity="0.3333333333333333" />
<path d="M158,-200 L84,-243 L219,-256 L92,-152 L55,-75 L105,-277 Z" stroke-width="0" fill="#cbd0dc" fill-opacity="0.996078431372549" />
<path d="M67,-291 L73,-211 L159,-288 L190,-320 L152,-321 L59,-188 Z" stroke-width="0" fill="#8188a4" fill-opacity="0.7372549019607844" />
<path d="M77,-41 L195,-43 L38,-174 L98,-77 L39,-225 L218,-215 Z" stroke-width="0" fill="#0e0327" fill-opacity="0.7803921568627451" />
<path d="M92,-164 L42,-153 L213,-103 L32,-211 L45,-81 L206,-297 Z" stroke-width="0" fill="#192516" fill-opacity="0.14901960784313725" />
<path d="M179,-67 L34,-103 L227,-105 L182,-34 L129,-64 L122,-111 Z" stroke-width="0" fill="#f9bce8" fill-opacity="0.07058823529411765" />
<path d="M99,-75 L27,-128 L214,-52 L184,-81 L84,-215 L27,-274 Z" stroke-width="0" fill="#001c1c" fill-opacity="0.6784313725490196" />
<path d="M196,-120 L102,-93 L143,-187 L248,-153 L243,-139 L104,-120 Z" stroke-width="0" fill="#88d9c7" fill-opacity="0.10588235294117647" />
<path d="M171,-198 L132,-248 L189,-38 L215,-136 L204,-255 L74,-201 Z" stroke-width="0" fill="#91b8b6" fill-opacity="0.34509803921568627" />
<path d="M181,-125 L34,-42 L120,-143 L118,-119 L182,-112 L87,-104 Z" stroke-width="0" fill="#000005" fill-opacity="0.9490196078431372" />
<path d="M26,-190 L35,-282 L167,-247 L32,-42 L186,-158 L141,-219 Z" stroke-width="0" fill="#583361" fill-opacity="0.3137254901960784" />
<path d="M49,-182 L74,-216 L162,-60 L127,-232 L177,-225 L170,-84 Z" stroke-width="0" fill="#0d06ec" fill-opacity="0.12549019607843137" />
<path d="M65,-137 L187,-44 L122,-228 L83,-51 L210,-57 L182,-107 Z" stroke-width="0" fill="#4c0069" fill-opacity="0.09803921568627451" />
<path d="M73,-322 L227,-134 L151,-267 L71,-68 L224,-113 L234,-151 Z" stroke-width="0" fill="#a798c8" fill-opacity="0.043137254901960784" />
<path d="M188,-29 L98,-174 L87,-53 L107,-166 L184,-165 L140,-190 Z" stroke-width="0" fill="#21334e" fill-opacity="0.984313725490196" />
<path d="M108,-41 L190,-95 L153,-286 L153,-215 L124,-74 L181,-123 Z" stroke-width="0" fill="#7f9c8c" fill-opacity="0.10588235294117647" />
<path d="M169,-290 L155,-80 L228,-35 L54,-250 L39,-107 L184,-59 Z" stroke-width="0" fill="#000b30" fill-opacity="0.3058823529411765" />
<path d="M61,-56 L117,-77 L197,-67 L156,-124 L162,-176 L177,-26 Z" stroke-width="0" fill="#2c3c2e" fill-opacity="0.8784313725490196" />
<path d="M38,-291 L53,-160 L97,-82 L187,-149 L162,-117 L52,-313 Z" stroke-width="0" fill="#23431f" fill-opacity="0.5333333333333333" />
<path d="M165,-297 L100,-49 L46,-143 L249,-224 L113,-130 L124,-52 Z" stroke-width="0" fill="#00362f" fill-opacity="0.2784313725490196" />
<path d="M64,-144 L167,-224 L139,-51 L39,-61 L174,-182 L126,-68 Z" stroke-width="0" fill="#117f36" fill-opacity="0.06666666666666667" />
<path d="M133,-144 L170,-43 L140,-269 L203,-108 L39,-113 L91,-41 Z" stroke-width="0" fill="#0d1d00" fill-opacity="0.611764705882353" />
<path d="M32,-291 L206,-60 L161,-228 L128,-285 L160,-42 L196,-112 Z" stroke-width="0" fill="#7c9686" fill-opacity="0.4823529411764706" />
<path d="M121,-71 L103,-103 L70,-35 L37,-39 L246,-172 L231,-59 Z" stroke-width="0" fill="#585243" fill-opacity="0.21176470588235294" />
<path d="M57,-324 L41,-200 L116,-43 L41,-269 L235,-26 L181,-170 Z" stroke-width="0" fill="#394376" fill-opacity="0.44313725490196076" />
<path d="M177,-109 L40,-107 L48,-55 L29,-154 L126,-46 L33,-134 Z" stroke-width="0" fill="#04030a" fill-opacity="0.45098039215686275" />
<path d="M90,-91 L155,-321 L181,-221 L120,-289 L146,-59 L224,-201 Z" stroke-width="0" fill="#7da4bc" fill-opacity="0.20784313725490197" />
<path d="M140,-197 L184,-150 L116,-226 L67,-141 L95,-60 L157,-139 Z" stroke-width="0" fill="#301f12" fill-opacity="0.5019607843137255" />
<path d="M89,-44 L212,-159 L62,-153 L31,-45 L126,-184 L61,-159 Z" stroke-width="0" fill="#000049" fill-opacity="0.30196078431372547" />
<path d="M148,-177 L194,-219 L114,-99 L200,-51 L207,-232 L198,-160 Z" stroke-width="0" fill="#5f4245" fill-opacity="0.28627450980392155" />
<text x="137.5" y="12.5" font-size="20.0" fill="black" text-anchor="middle" transform="translate(0,5.0)">1 OF EARTH</text>
</svg>