<?xml version="1.0" encoding="UTF-8"?>
<svg xmlns="http://www.w3.org/2000/svg" xmlns:xlink="http://www.w3.org/1999/xlink"
     width="896" height="1496" viewBox="0 -1400 896 1496" style="font-size:70;font-family:Poor Richard, Times New Roman;stroke:black;stroke-width:1;fill:none">
<defs>
</defs>
<path d="M462,-202 L550,-1022 L574,-1206 L338,-470 L198,-642 L554,-718 Z" stroke-width="0" fill="#2d73b6" fill-opacity="0.0392156862745098" />
<path d="M210,-970 L534,-106 L102,-1106 L182,-962 L514,-650 L450,-690 Z" stroke-width="0" fill="#932500" fill-opacity="0.5215686274509804" />
<path d="M346,-830 L554,-154 L866,-518 L974,-1146 L638,-758 L918,-346 Z" stroke-width="0" fill="#fdb021" fill-opacity="0.1568627450980392" />
<path d="M226,-842 L246,-514 L894,-906 L446,-454 L454,-430 L678,-334 Z" stroke-width="0" fill="#f1efeb" fill-opacity="0.03529411764705882" />
<path d="M354,-238 L498,-146 L938,-330 L334,-354 L526,-734 L438,-398 Z" stroke-width="0" fill="#742f31" fill-opacity="0.7254901960784313" />
<path d="M310,-1082 L470,-1142 L522,-258 L118,-514 L342,-326 L618,-910 Z" stroke-width="0" fill="#080308" fill-opacity="0.984313725490196" />
<path d="M786,-414 L98,-706 L610,-990 L202,-1198 L258,-1022 L810,-434 Z" stroke-width="0" fill="#760414" fill-opacity="0.792156862745098" />
<path d="M134,-306 L790,-882 L394,-774 L758,-1054 L590,-774 L722,-382 Z" stroke-width="0" fill="#94a27e" fill-opacity="0.0" />
<path d="M858,-142 L782,-190 L938,-550 L198,-506 L474,-266 L142,-826 Z" stroke-width="0" fill="#ecf0e7" fill-opacity="0.0" />
<path d="M878,-802 L602,-466 L874,-178 L582,-794 L386,-250 L886,-726 Z" stroke-width="0" fill="#010001" fill-opacity="0.996078431372549" />
<path d="M374,-122 L830,-142 L82,-378 L390,-94 L602,-786 L134,-786 Z" stroke-width="0" fill="#171119" fill-opacity="0.8705882352941177" />
<path d="M198,-258 L930,-686 L410,-770 L310,-614 L586,-390 L154,-1018 Z" stroke-width="0" fill="#ffed8d" fill-opacity="0.26666666666666666" />
<path d="M738,-750 L230,-974 L230,-382 L818,-1062 L386,-810 L530,-454 Z" stroke-width="0" fill="#ebf092" fill-opacity="0.011764705882352941" />
<path d="M778,-214 L266,-294 L398,-746 L842,-890 L206,-618 L614,-294 Z" stroke-width="0" fill="#fbf1fe" fill-opacity="0.24705882352941178" />
<path d="M330,-278 L678,-146 L522,-166 L690,-798 L206,-146 L478,-218 Z" stroke-width="0" fill="#000a15" fill-opacity="0.9921568627450981" />
<path d="M86,-926 L566,-998 L226,-310 L266,-1110 L622,-486 L610,-1234 Z" stroke-width="0" fill="#97043b" fill-opacity="0.2784313725490196" />
<path d="M222,-1218 L814,-1114 L778,-282 L850,-182 L758,-1102 L294,-762 Z" stroke-width="0" fill="#f9fbe3" fill-opacity="0.08627450980392157" />
<path d="M406,-534 L366,-426 L594,-134 L318,-1230 L458,-882 L626,-778 Z" stroke-width="0" fill="#9ad37b" fill-opacity="0.8784313725490196" />
<path d="M806,-390 L766,-738 L102,-1010 L666,-510 L954,-1206 L366,-378 Z" stroke-width="0" fill="#fa8a15" fill-opacity="0.1607843137254902" />
<path d="M470,-742 L610,-166 L234,-1118 L326,-946 L174,-238 L566,-350 Z" stroke-width="0" fill="#6af701" fill-opacity="0.1411764705882353" />
<path d="M758,-790 L118,-330 L762,-626 L838,-794 L554,-382 L798,-1242 Z" stroke-width="0" fill="#fb100a" fill-opacity="0.12549019607843137" />
<path d="M146,-942 L538,-1082 L374,-538 L958,-1114 L642,-662 L298,-1202 Z" stroke-width="0" fill="#fde1d0" fill-opacity="0.3764705882352941" />
<path d="M118,-190 L946,-666 L258,-606 L246,-470 L606,-530 L546,-1070 Z" stroke-width="0" fill="#000003" fill-opacity="0.9490196078431372" />
<path d="M746,-1046 L482,-422 L934,-750 L818,-198 L522,-690 L366,-1090 Z" stroke-width="0" fill="#000201" fill-opacity="0.996078431372549" />
<path d="M446,-810 L466,-650 L366,-1178 L398,-474 L138,-518 L274,-598 Z" stroke-width="0" fill="#030000" fill-opacity="0.996078431372549" />
<path d="M646,-786 L826,-550 L110,-1114 L318,-438 L746,-774 L622,-958 Z" stroke-width="0" fill="#e9ffeb" fill-opacity="0.8941176470588236" />
<path d="M910,-1162 L346,-502 L702,-442 L754,-810 L618,-1114 L882,-1174 Z" stroke-width="0" fill="#f3e8b2" fill-opacity="0.4392156862745098" />
<path d="M402,-502 L686,-810 L242,-674 L742,-698 L634,-242 L350,-1126 Z" stroke-width="0" fill="#f9f5d5" fill-opacity="0.9529411764705882" />
<path d="M634,-954 L942,-1094 L246,-762 L486,-494 L538,-270 L294,-262 Z" stroke-width="0" fill="#fddfa3" fill-opacity="0.0392156862745098" />
<path d="M798,-102 L662,-198 L562,-246 L818,-298 L882,-150 L738,-746 Z" stroke-width="0" fill="#f9a6f6" fill-opacity="0.8980392156862745" />
<path d="M686,-566 L374,-322 L834,-786 L314,-762 L898,-930 L146,-382 Z" stroke-width="0" fill="#fdfc2f" fill-opacity="0.023529411764705882" />
<path d="M886,-566 L434,-1122 L674,-186 L406,-810 L90,-702 L382,-238 Z" stroke-width="0" fill="#0c2e29" fill-opacity="0.9450980392156862" />
<path d="M706,-818 L290,-538 L214,-186 L110,-250 L694,-986 L730,-842 Z" stroke-width="0" fill="#112c0a" fill-opacity="0.996078431372549" />
<path d="M690,-602 L290,-634 L966,-738 L974,-298 L350,-938 L202,-1074 Z" stroke-width="0" fill="#e69106" fill-opacity="0.27450980392156865" />
<path d="M198,-1082 L210,-198 L606,-898 L498,-694 L482,-690 L550,-802 Z" stroke-width="0" fill="#fff2f7" fill-opacity="0.6235294117647059" />
<path d="M350,-106 L154,-354 L818,-1270 L870,-770 L550,-1142 L478,-1022 Z" stroke-width="0" fill="#9c6e59" fill-opacity="0.00392156862745098" />
<path d="M586,-918 L354,-562 L446,-842 L618,-214 L546,-718 L350,-538 Z" stroke-width="0" fill="#4531b2" fill-opacity="0.7333333333333333" />
<path d="M898,-766 L682,-738 L778,-798 L250,-894 L658,-338 L350,-130 Z" stroke-width="0" fill="#020000" fill-opacity="0.9882352941176471" />
<path d="M150,-850 L818,-350 L370,-654 L162,-1046 L650,-114 L390,-994 Z" stroke-width="0" fill="#f3fee5" fill-opacity="0.8627450980392157" />
<path d="M262,-594 L734,-614 L450,-358 L242,-318 L306,-370 L346,-1030 Z" stroke-width="0" fill="#f27d0b" fill-opacity="1.0" />
<path d="M786,-202 L422,-994 L302,-742 L214,-422 L702,-1202 L650,-478 Z" stroke-width="0" fill="#15ba65" fill-opacity="0.023529411764705882" />
<path d="M690,-826 L586,-934 L470,-342 L198,-894 L634,-826 L262,-1250 Z" stroke-width="0" fill="#edf5e1" fill-opacity="0.7647058823529411" />
<path d="M594,-526 L538,-378 L614,-114 L918,-546 L898,-910 L522,-658 Z" stroke-width="0" fill="#1d0714" fill-opacity="0.0196078431372549" />
<path d="M306,-962 L486,-314 L262,-330 L738,-838 L422,-1170 L578,-110 Z" stroke-width="0" fill="#f3ffc7" fill-opacity="0.9411764705882353" />
<path d="M486,-466 L842,-850 L466,-774 L198,-258 L670,-926 L394,-654 Z" stroke-width="0" fill="#677168" fill-opacity="0.00392156862745098" />
<path d="M614,-862 L102,-618 L830,-698 L178,-1002 L246,-90 L158,-306 Z" stroke-width="0" fill="#7d0100" fill-opacity="0.16862745098039217" />
<path d="M586,-854 L498,-1010 L314,-1118 L534,-1114 L378,-434 L166,-558 Z" stroke-width="0" fill="#4f031f" fill-opacity="0.07450980392156863" />
<path d="M346,-106 L938,-554 L674,-1006 L414,-1034 L846,-690 L906,-102 Z" stroke-width="0" fill="#360009" fill-opacity="0.7294117647058823" />
<path d="M210,-234 L510,-498 L486,-286 L798,-366 L234,-1106 L606,-574 Z" stroke-width="0" fill="#fdf6e3" fill-opacity="0.7725490196078432" />
<path d="M762,-794 L190,-298 L942,-126 L654,-782 L418,-902 L334,-326 Z" stroke-width="0" fill="#87625e" fill-opacity="0.9098039215686274" />
<path d="M722,-622 L734,-1270 L134,-998 L462,-326 L154,-1134 L730,-1094 Z" stroke-width="0" fill="#df6708" fill-opacity="0.39215686274509803" />
<path d="M566,-826 L734,-426 L830,-574 L350,-866 L914,-458 L398,-218 Z" stroke-width="0" fill="#ff8df6" fill-opacity="0.6352941176470588" />
<path d="M730,-190 L158,-310 L258,-826 L846,-442 L578,-462 L910,-746 Z" stroke-width="0" fill="#7ae269" fill-opacity="0.39215686274509803" />
<path d="M538,-602 L486,-506 L262,-698 L130,-774 L158,-626 L270,-718 Z" stroke-width="0" fill="#fcb009" fill-opacity="0.5450980392156862" />
<path d="M234,-858 L326,-1102 L90,-998 L690,-786 L890,-682 L562,-874 Z" stroke-width="0" fill="#f4cfc4" fill-opacity="0.38823529411764707" />
<path d="M710,-230 L602,-234 L318,-506 L746,-626 L322,-1234 L290,-1122 Z" stroke-width="0" fill="#ae687b" fill-opacity="0.9411764705882353" />
<path d="M842,-370 L778,-446 L182,-866 L290,-174 L438,-1202 L906,-86 Z" stroke-width="0" fill="#d7eed6" fill-opacity="0.06666666666666667" />
<path d="M718,-598 L402,-702 L934,-646 L434,-166 L194,-858 L974,-542 Z" stroke-width="0" fill="#fff4f3" fill-opacity="0.8784313725490196" />
<path d="M126,-142 L606,-210 L142,-574 L650,-286 L918,-1102 L258,-174 Z" stroke-width="0" fill="#609b1d" fill-opacity="0.01568627450980392" />
<path d="M738,-522 L310,-770 L470,-570 L450,-1142 L622,-170 L226,-1250 Z" stroke-width="0" fill="#f1f1b7" fill-opacity="0.9098039215686274" />
<path d="M558,-798 L302,-1230 L386,-462 L890,-746 L302,-758 L482,-750 Z" stroke-width="0" fill="#150003" fill-opacity="0.0392156862745098" />
<path d="M938,-970 L882,-210 L254,-90 L490,-634 L682,-178 L602,-802 Z" stroke-width="0" fill="#d3e7b2" fill-opacity="0.03529411764705882" />
<path d="M470,-86 L314,-594 L822,-722 L414,-386 L122,-822 L742,-690 Z" stroke-width="0" fill="#024247" fill-opacity="0.5686274509803921" />
<path d="M510,-858 L206,-482 L822,-490 L942,-122 L418,-1170 L506,-738 Z" stroke-width="0" fill="#a04b49" fill-opacity="0.796078431372549" />
<path d="M530,-122 L270,-494 L966,-462 L274,-722 L318,-358 L230,-394 Z" stroke-width="0" fill="#16513c" fill-opacity="0.023529411764705882" />
<path d="M478,-586 L434,-730 L130,-718 L874,-354 L362,-890 L250,-482 Z" stroke-width="0" fill="#022000" fill-opacity="0.8" />
<path d="M562,-610 L346,-1018 L490,-1130 L642,-762 L910,-106 L906,-622 Z" stroke-width="0" fill="#f7ecbc" fill-opacity="0.9764705882352941" />
<path d="M90,-250 L734,-458 L590,-746 L822,-398 L498,-574 L234,-198 Z" stroke-width="0" fill="#001b02" fill-opacity="0.9098039215686274" />
<path d="M394,-354 L922,-574 L322,-846 L594,-718 L934,-598 L226,-522 Z" stroke-width="0" fill="#fef7e7" fill-opacity="0.8901960784313725" />
<path d="M498,-1190 L526,-294 L406,-1078 L294,-318 L910,-422 L250,-822 Z" stroke-width="0" fill="#fdfcd7" fill-opacity="0.9882352941176471" />
<path d="M570,-946 L966,-918 L166,-1006 L610,-222 L498,-822 L190,-846 Z" stroke-width="0" fill="#e5fefe" fill-opacity="0.9490196078431372" />
<path d="M578,-258 L714,-946 L526,-262 L106,-670 L794,-954 L138,-790 Z" stroke-width="0" fill="#000000" fill-opacity="1.0" />
<path d="M674,-454 L254,-430 L770,-866 L242,-582 L810,-1102 L126,-1266 Z" stroke-width="0" fill="#a96b5b" fill-opacity="0.42745098039215684" />
<path d="M130,-1206 L578,-190 L194,-1190 L106,-750 L614,-358 L118,-722 Z" stroke-width="0" fill="#9c6241" fill-opacity="0.5019607843137255" />
<path d="M706,-394 L322,-718 L338,-94 L786,-1102 L418,-726 L574,-806 Z" stroke-width="0" fill="#bf4861" fill-opacity="0.1803921568627451" />
<path d="M310,-246 L294,-1222 L202,-990 L570,-1090 L442,-518 L674,-1210 Z" stroke-width="0" fill="#fde1db" fill-opacity="0.3764705882352941" />
<path d="M826,-230 L778,-386 L714,-562 L182,-298 L934,-90 L714,-482 Z" stroke-width="0" fill="#b09b76" fill-opacity="0.4196078431372549" />
<path d="M678,-410 L746,-1018 L618,-1130 L166,-422 L346,-326 L618,-590 Z" stroke-width="0" fill="#bd878e" fill-opacity="0.7764705882352941" />
<path d="M626,-958 L234,-1218 L710,-150 L114,-422 L270,-426 L366,-1270 Z" stroke-width="0" fill="#9c5748" fill-opacity="0.7254901960784313" />
<path d="M430,-122 L654,-1062 L518,-702 L342,-1094 L154,-434 L242,-1242 Z" stroke-width="0" fill="#d7e736" fill-opacity="0.011764705882352941" />
<path d="M458,-166 L938,-210 L366,-606 L366,-1166 L266,-242 L118,-770 Z" stroke-width="0" fill="#fbdad9" fill-opacity="0.4392156862745098" />
<path d="M190,-634 L466,-1078 L722,-498 L102,-730 L190,-714 L162,-966 Z" stroke-width="0" fill="#060000" fill-opacity="0.9725490196078431" />
<path d="M162,-874 L94,-190 L354,-118 L470,-1214 L870,-1114 L574,-358 Z" stroke-width="0" fill="#f0a791" fill-opacity="0.3137254901960784" />
<path d="M278,-146 L238,-686 L978,-1234 L442,-826 L638,-566 L298,-430 Z" stroke-width="0" fill="#b803a6" fill-opacity="0.0196078431372549" />
<path d="M958,-206 L410,-1186 L350,-934 L430,-822 L166,-1114 L122,-102 Z" stroke-width="0" fill="#7a3152" fill-opacity="0.37254901960784315" />
<path d="M398,-1238 L750,-1106 L966,-1102 L790,-302 L514,-778 L254,-578 Z" stroke-width="0" fill="#f5e885" fill-opacity="0.08627450980392157" />
<path d="M106,-442 L874,-298 L226,-290 L582,-698 L762,-266 L326,-194 Z" stroke-width="0" fill="#34223a" fill-opacity="0.1803921568627451" />
<path d="M426,-762 L470,-226 L258,-890 L122,-186 L102,-162 L530,-946 Z" stroke-width="0" fill="#fdb26c" fill-opacity="0.20784313725490197" />
<path d="M534,-1010 L978,-830 L82,-122 L618,-458 L114,-1006 L902,-1274 Z" stroke-width="0" fill="#170201" fill-opacity="0.00784313725490196" />
<path d="M642,-734 L358,-566 L526,-1250 L334,-466 L426,-766 L470,-154 Z" stroke-width="0" fill="#fee9bc" fill-opacity="0.8509803921568627" />
<path d="M394,-442 L138,-938 L438,-194 L870,-710 L422,-550 L198,-222 Z" stroke-width="0" fill="#f5e9a9" fill-opacity="0.8745098039215686" />
<path d="M410,-1066 L174,-1090 L686,-778 L614,-806 L442,-846 L202,-1010 Z" stroke-width="0" fill="#050c1f" fill-opacity="0.054901960784313725" />
<path d="M142,-226 L138,-1242 L154,-1178 L510,-610 L326,-190 L114,-730 Z" stroke-width="0" fill="#feca15" fill-opacity="0.043137254901960784" />
<path d="M146,-758 L454,-818 L494,-186 L106,-1134 L198,-918 L498,-350 Z" stroke-width="0" fill="#0e0000" fill-opacity="0.34509803921568627" />
<path d="M706,-270 L878,-854 L930,-178 L218,-762 L710,-1118 L850,-562 Z" stroke-width="0" fill="#fe2d13" fill-opacity="0.027450980392156862" />
<path d="M534,-626 L702,-434 L978,-186 L650,-1106 L762,-350 L442,-326 Z" stroke-width="0" fill="#f7c08b" fill-opacity="0.23921568627450981" />
<path d="M798,-122 L182,-90 L886,-550 L886,-126 L934,-98 L454,-194 Z" stroke-width="0" fill="#a0594e" fill-opacity="0.5568627450980392" />
<path d="M742,-506 L90,-370 L862,-514 L582,-566 L262,-170 L130,-162 Z" stroke-width="0" fill="#b43d1d" fill-opacity="0.11372549019607843" />
<path d="M674,-314 L566,-378 L574,-1198 L286,-1038 L402,-330 L278,-106 Z" stroke-width="0" fill="#3bc91e" fill-opacity="0.0" />
<path d="M234,-954 L502,-390 L478,-914 L954,-1258 L670,-474 L838,-246 Z" stroke-width="0" fill="#defb42" fill-opacity="0.011764705882352941" />
<text x="448.0" y="0" font-size="70.0" fill="black" text-anchor="middle" transform="translate(0,17.5)">10 OF EARTH</text>
</svg>