<?xml version="1.0" encoding="UTF-8"?>
<svg xmlns="http://www.w3.org/2000/svg" xmlns:xlink="http://www.w3.org/1999/xlink"
     width="896" height="1496" viewBox="0 -1400 896 1496" style="font-size:70;font-family:Poor Richard, Times New Roman;stroke:black;stroke-width:1;fill:none">
<defs>
</defs>
<path d="M478,-430 L206,-430 L302,-138 L406,-690 L642,-246 L394,-594 Z" stroke-width="0" fill="#aca604" fill-opacity="0.03529411764705882" />
<path d="M602,-250 L494,-86 L458,-926 L270,-270 L446,-498 L218,-1094 Z" stroke-width="0" fill="#413419" fill-opacity="0.6901960784313725" />
<path d="M202,-574 L470,-786 L430,-762 L502,-838 L390,-198 L786,-258 Z" stroke-width="0" fill="#020000" fill-opacity="0.8235294117647058" />
<path d="M650,-214 L546,-482 L146,-1310 L810,-1186 L242,-718 L182,-910 Z" stroke-width="0" fill="#777d8f" fill-opacity="0.34509803921568627" />
<path d="M218,-518 L222,-862 L322,-1294 L606,-1174 L130,-170 L718,-146 Z" stroke-width="0" fill="#d3d995" fill-opacity="0.23921568627450981" />
<path d="M506,-1174 L322,-302 L714,-402 L202,-110 L174,-590 L386,-794 Z" stroke-width="0" fill="#0e3004" fill-opacity="0.6941176470588235" />
<path d="M546,-602 L610,-1290 L718,-662 L162,-854 L754,-574 L490,-1174 Z" stroke-width="0" fill="#b18480" fill-opacity="0.12941176470588237" />
<path d="M706,-246 L590,-966 L662,-150 L266,-102 L506,-1242 L602,-978 Z" stroke-width="0" fill="#011d09" fill-opacity="0.7843137254901961" />
<path d="M402,-758 L374,-402 L238,-198 L82,-1250 L98,-598 L750,-190 Z" stroke-width="0" fill="#42435e" fill-opacity="0.23921568627450981" />
<path d="M202,-566 L670,-414 L158,-206 L290,-1206 L450,-274 L662,-738 Z" stroke-width="0" fill="#d9e9b5" fill-opacity="0.2235294117647059" />
<path d="M494,-258 L782,-242 L318,-342 L182,-1122 L254,-166 L798,-726 Z" stroke-width="0" fill="#f1f1dc" fill-opacity="0.5019607843137255" />
<path d="M426,-294 L422,-1242 L394,-1082 L802,-522 L202,-1222 L258,-1046 Z" stroke-width="0" fill="#e6be8d" fill-opacity="0.16470588235294117" />
<path d="M230,-1162 L730,-198 L682,-422 L410,-490 L670,-470 L574,-138 Z" stroke-width="0" fill="#041c00" fill-opacity="0.9568627450980393" />
<path d="M450,-438 L626,-210 L458,-894 L202,-114 L186,-162 L778,-446 Z" stroke-width="0" fill="#182701" fill-opacity="0.7843137254901961" />
<path d="M598,-1202 L286,-758 L318,-450 L682,-654 L122,-874 L658,-662 Z" stroke-width="0" fill="#d3c096" fill-opacity="0.5882352941176471" />
<path d="M474,-882 L166,-122 L106,-350 L778,-218 L182,-890 L90,-130 Z" stroke-width="0" fill="#000100" fill-opacity="0.6352941176470588" />
<path d="M442,-1138 L338,-998 L594,-1294 L474,-890 L198,-154 L102,-494 Z" stroke-width="0" fill="#38334a" fill-opacity="0.19607843137254902" />
<path d="M294,-182 L766,-482 L178,-650 L802,-558 L142,-1066 L222,-1130 Z" stroke-width="0" fill="#85833b" fill-opacity="0.10196078431372549" />
<path d="M90,-1138 L326,-190 L362,-1226 L566,-102 L534,-1246 L258,-1002 Z" stroke-width="0" fill="#6f7166" fill-opacity="0.2784313725490196" />
<path d="M430,-142 L586,-446 L562,-354 L366,-938 L670,-534 L282,-626 Z" stroke-width="0" fill="#455020" fill-opacity="0.9803921568627451" />
<path d="M334,-1130 L642,-102 L582,-866 L258,-770 L230,-990 L166,-126 Z" stroke-width="0" fill="#024a17" fill-opacity="0.5490196078431373" />
<path d="M490,-642 L342,-178 L678,-950 L422,-1286 L234,-1202 L174,-606 Z" stroke-width="0" fill="#e6c8dc" fill-opacity="0.0784313725490196" />
<path d="M302,-842 L526,-418 L142,-1074 L122,-778 L502,-726 L506,-1214 Z" stroke-width="0" fill="#c5c8e2" fill-opacity="0.19215686274509805" />
<path d="M722,-518 L270,-1050 L134,-1110 L274,-410 L466,-946 L106,-1002 Z" stroke-width="0" fill="#b8df4a" fill-opacity="0.07450980392156863" />
<path d="M122,-518 L390,-906 L274,-230 L418,-814 L414,-906 L158,-606 Z" stroke-width="0" fill="#e5daf2" fill-opacity="0.8392156862745098" />
<path d="M110,-206 L390,-418 L174,-194 L810,-990 L282,-582 L194,-582 Z" stroke-width="0" fill="#0b2d03" fill-opacity="0.7764705882352941" />
<path d="M746,-902 L738,-178 L214,-982 L378,-470 L150,-638 L478,-942 Z" stroke-width="0" fill="#b11870" fill-opacity="0.07058823529411765" />
<path d="M430,-170 L146,-834 L582,-158 L94,-1110 L290,-462 L314,-114 Z" stroke-width="0" fill="#3ba462" fill-opacity="0.0392156862745098" />
<path d="M678,-782 L110,-1030 L402,-1214 L714,-722 L126,-1214 L670,-198 Z" stroke-width="0" fill="#150210" fill-opacity="0.06666666666666667" />
<path d="M538,-498 L302,-1218 L706,-1198 L346,-826 L634,-534 L514,-238 Z" stroke-width="0" fill="#e1e8e5" fill-opacity="0.9372549019607843" />
<path d="M774,-206 L582,-398 L310,-1266 L742,-1142 L290,-362 L506,-714 Z" stroke-width="0" fill="#94b8fc" fill-opacity="0.08235294117647059" />
<path d="M706,-1134 L510,-846 L418,-874 L786,-182 L498,-122 L458,-1278 Z" stroke-width="0" fill="#d4a1c7" fill-opacity="0.27450980392156865" />
<path d="M810,-362 L350,-894 L706,-990 L202,-226 L290,-474 L254,-406 Z" stroke-width="0" fill="#000000" fill-opacity="0.6078431372549019" />
<path d="M206,-122 L146,-918 L278,-242 L86,-850 L154,-506 L390,-350 Z" stroke-width="0" fill="#e1d5d4" fill-opacity="0.27058823529411763" />
<path d="M774,-522 L598,-478 L430,-1250 L478,-358 L394,-370 L430,-414 Z" stroke-width="0" fill="#dcebfb" fill-opacity="0.1411764705882353" />
<path d="M362,-722 L418,-1110 L510,-398 L490,-666 L602,-894 L258,-578 Z" stroke-width="0" fill="#ff89fd" fill-opacity="0.9333333333333333" />
<path d="M286,-390 L238,-514 L530,-754 L566,-534 L314,-1110 L206,-826 Z" stroke-width="0" fill="#0a0400" fill-opacity="0.9764705882352941" />
<path d="M390,-922 L274,-702 L586,-206 L210,-534 L138,-786 L478,-186 Z" stroke-width="0" fill="#7ddab0" fill-opacity="0.23921568627450981" />
<path d="M298,-922 L478,-1314 L282,-394 L434,-338 L658,-586 L358,-1174 Z" stroke-width="0" fill="#c1c0b5" fill-opacity="0.27450980392156865" />
<path d="M338,-994 L666,-106 L522,-1010 L758,-1158 L406,-362 L750,-794 Z" stroke-width="0" fill="#7cdf94" fill-opacity="0.0784313725490196" />
<path d="M530,-142 L770,-914 L346,-606 L122,-102 L246,-718 L258,-1098 Z" stroke-width="0" fill="#31540c" fill-opacity="0.4627450980392157" />
<path d="M486,-138 L718,-786 L634,-1138 L126,-1290 L574,-1070 L294,-230 Z" stroke-width="0" fill="#ada60e" fill-opacity="0.058823529411764705" />
<path d="M798,-1306 L450,-550 L90,-1226 L470,-258 L86,-326 L702,-742 Z" stroke-width="0" fill="#5a1705" fill-opacity="0.19607843137254902" />
<path d="M246,-482 L662,-966 L666,-966 L590,-730 L570,-1050 L682,-822 Z" stroke-width="0" fill="#090800" fill-opacity="0.9137254901960784" />
<path d="M262,-1154 L738,-290 L250,-1202 L506,-410 L606,-1098 L270,-966 Z" stroke-width="0" fill="#02411c" fill-opacity="0.9215686274509803" />
<path d="M314,-626 L670,-306 L654,-1294 L210,-890 L662,-438 L726,-570 Z" stroke-width="0" fill="#9acce0" fill-opacity="0.6352941176470588" />
<path d="M422,-442 L310,-1226 L738,-838 L754,-1126 L606,-854 L286,-390 Z" stroke-width="0" fill="#dac5df" fill-opacity="0.9529411764705882" />
<path d="M270,-470 L366,-170 L226,-1226 L210,-970 L410,-982 L154,-478 Z" stroke-width="0" fill="#cedecc" fill-opacity="0.8352941176470589" />
<path d="M122,-686 L346,-410 L138,-854 L666,-734 L286,-202 L802,-850 Z" stroke-width="0" fill="#1e090b" fill-opacity="0.1803921568627451" />
<path d="M274,-246 L86,-550 L230,-1058 L146,-682 L274,-842 L110,-386 Z" stroke-width="0" fill="#dfcaa3" fill-opacity="0.1450980392156863" />
<path d="M318,-878 L386,-502 L222,-1010 L490,-86 L678,-114 L394,-126 Z" stroke-width="0" fill="#082c00" fill-opacity="0.5764705882352941" />
<path d="M310,-298 L638,-1306 L618,-234 L278,-802 L414,-142 L314,-642 Z" stroke-width="0" fill="#b25602" fill-opacity="0.5803921568627451" />
<path d="M462,-162 L326,-814 L134,-926 L710,-186 L370,-230 L170,-1014 Z" stroke-width="0" fill="#d8e3f7" fill-opacity="0.33725490196078434" />
<path d="M566,-1082 L162,-1058 L246,-742 L422,-266 L346,-374 L402,-1066 Z" stroke-width="0" fill="#897670" fill-opacity="0.2196078431372549" />
<path d="M138,-1130 L354,-562 L410,-1102 L318,-790 L518,-266 L702,-334 Z" stroke-width="0" fill="#c7ddee" fill-opacity="0.7529411764705882" />
<path d="M782,-846 L542,-838 L338,-530 L546,-286 L306,-302 L206,-1242 Z" stroke-width="0" fill="#a878a5" fill-opacity="0.01568627450980392" />
<path d="M262,-606 L698,-110 L206,-382 L750,-302 L90,-1002 L418,-334 Z" stroke-width="0" fill="#455e5b" fill-opacity="0.5019607843137255" />
<path d="M186,-190 L758,-714 L642,-450 L134,-258 L398,-906 L350,-1078 Z" stroke-width="0" fill="#dcd3fe" fill-opacity="0.24313725490196078" />
<path d="M482,-390 L714,-218 L294,-466 L258,-1250 L442,-818 L438,-698 Z" stroke-width="0" fill="#c8987e" fill-opacity="0.09019607843137255" />
<path d="M162,-750 L426,-370 L686,-418 L206,-266 L738,-338 L590,-210 Z" stroke-width="0" fill="#8b8446" fill-opacity="0.8196078431372549" />
<path d="M454,-850 L262,-266 L546,-550 L258,-430 L274,-898 L342,-1030 Z" stroke-width="0" fill="#803319" fill-opacity="0.28627450980392155" />
<path d="M106,-326 L242,-1098 L506,-1086 L410,-382 L170,-538 L174,-778 Z" stroke-width="0" fill="#030613" fill-opacity="0.3215686274509804" />
<path d="M506,-550 L678,-1262 L626,-806 L374,-90 L550,-110 L442,-654 Z" stroke-width="0" fill="#134902" fill-opacity="0.7490196078431373" />
<path d="M574,-502 L194,-1054 L470,-658 L586,-686 L166,-898 L274,-822 Z" stroke-width="0" fill="#c4bdd7" fill-opacity="0.9450980392156862" />
<path d="M614,-518 L522,-286 L654,-830 L214,-766 L546,-554 L282,-106 Z" stroke-width="0" fill="#111600" fill-opacity="0.8274509803921568" />
<path d="M190,-298 L370,-166 L278,-1202 L798,-486 L550,-522 L702,-318 Z" stroke-width="0" fill="#704d69" fill-opacity="0.8549019607843137" />
<path d="M422,-1078 L394,-1042 L770,-918 L702,-1186 L238,-678 L782,-114 Z" stroke-width="0" fill="#b3debe" fill-opacity="0.21176470588235294" />
<path d="M338,-806 L326,-382 L378,-1190 L638,-278 L490,-286 L530,-350 Z" stroke-width="0" fill="#f3b3f3" fill-opacity="0.9686274509803922" />
<path d="M426,-282 L706,-818 L810,-834 L358,-86 L226,-862 L806,-794 Z" stroke-width="0" fill="#001900" fill-opacity="0.611764705882353" />
<path d="M330,-546 L110,-1058 L714,-318 L266,-446 L618,-834 L542,-610 Z" stroke-width="0" fill="#8956de" fill-opacity="0.00784313725490196" />
<path d="M98,-602 L362,-246 L642,-606 L638,-1054 L810,-570 L358,-574 Z" stroke-width="0" fill="#b0f3d9" fill-opacity="0.6784313725490196" />
<path d="M370,-322 L726,-882 L330,-718 L806,-558 L478,-690 L606,-146 Z" stroke-width="0" fill="#1a3c0a" fill-opacity="0.25098039215686274" />
<path d="M426,-570 L418,-1034 L626,-126 L678,-1222 L406,-134 L670,-998 Z" stroke-width="0" fill="#89968b" fill-opacity="0.596078431372549" />
<path d="M110,-106 L182,-674 L318,-418 L226,-1062 L702,-1278 L526,-86 Z" stroke-width="0" fill="#a8a5aa" fill-opacity="0.5019607843137255" />
<path d="M138,-474 L506,-614 L434,-650 L186,-518 L150,-226 L270,-602 Z" stroke-width="0" fill="#e9dce5" fill-opacity="0.16862745098039217" />
<path d="M206,-350 L98,-994 L242,-674 L318,-794 L142,-1214 L462,-294 Z" stroke-width="0" fill="#9e875e" fill-opacity="0.23529411764705882" />
<path d="M546,-402 L418,-114 L314,-658 L306,-374 L806,-134 L326,-850 Z" stroke-width="0" fill="#2a3a00" fill-opacity="0.5019607843137255" />
<path d="M410,-490 L462,-378 L334,-734 L658,-1010 L154,-1130 L198,-494 Z" stroke-width="0" fill="#7a1426" fill-opacity="0.10196078431372549" />
<path d="M778,-442 L334,-198 L302,-218 L762,-830 L550,-398 L522,-694 Z" stroke-width="0" fill="#002c01" fill-opacity="0.5019607843137255" />
<path d="M238,-426 L654,-618 L634,-1010 L486,-586 L482,-494 L286,-194 Z" stroke-width="0" fill="#4d4757" fill-opacity="0.9058823529411765" />
<path d="M670,-1042 L522,-722 L230,-1126 L314,-322 L222,-1242 L150,-430 Z" stroke-width="0" fill="#203703" fill-opacity="0.09411764705882353" />
<path d="M354,-622 L594,-206 L630,-302 L110,-1038 L622,-746 L570,-122 Z" stroke-width="0" fill="#c3afc7" fill-opacity="0.5137254901960784" />
<path d="M438,-114 L742,-206 L262,-778 L666,-686 L358,-606 L782,-1306 Z" stroke-width="0" fill="#806f9a" fill-opacity="0.2549019607843137" />
<path d="M594,-766 L778,-1146 L726,-346 L538,-98 L606,-958 L218,-1206 Z" stroke-width="0" fill="#f1ff90" fill-opacity="0.12941176470588237" />
<path d="M530,-510 L566,-1106 L254,-82 L282,-186 L762,-282 L510,-778 Z" stroke-width="0" fill="#0e205c" fill-opacity="0.5019607843137255" />
<path d="M306,-746 L754,-542 L558,-118 L254,-222 L638,-302 L690,-1282 Z" stroke-width="0" fill="#f4d6e4" fill-opacity="0.3215686274509804" />
<path d="M94,-258 L122,-646 L402,-402 L342,-970 L222,-682 L582,-978 Z" stroke-width="0" fill="#717a65" fill-opacity="0.10980392156862745" />
<path d="M582,-1010 L626,-358 L566,-714 L502,-198 L238,-446 L150,-658 Z" stroke-width="0" fill="#ecd8d7" fill-opacity="0.054901960784313725" />
<path d="M730,-290 L530,-1110 L166,-794 L646,-1270 L730,-890 L778,-1050 Z" stroke-width="0" fill="#bdb6d9" fill-opacity="0.21176470588235294" />
<path d="M422,-98 L578,-930 L710,-662 L650,-114 L426,-742 L230,-1254 Z" stroke-width="0" fill="#504719" fill-opacity="0.3803921568627451" />
<path d="M802,-1286 L634,-862 L470,-378 L214,-106 L670,-658 L98,-82 Z" stroke-width="0" fill="#322f17" fill-opacity="0.39215686274509803" />
<path d="M90,-1034 L742,-150 L454,-426 L506,-606 L122,-754 L762,-310 Z" stroke-width="0" fill="#250426" fill-opacity="0.18823529411764706" />
<path d="M762,-526 L86,-562 L586,-986 L126,-518 L182,-966 L334,-1222 Z" stroke-width="0" fill="#e1d48b" fill-opacity="0.14901960784313725" />
<path d="M454,-98 L614,-922 L674,-506 L526,-958 L362,-774 L90,-710 Z" stroke-width="0" fill="#cbbec5" fill-opacity="0.7333333333333333" />
<path d="M398,-1250 L90,-854 L430,-1022 L562,-1174 L458,-506 L770,-758 Z" stroke-width="0" fill="#dec4ce" fill-opacity="0.17254901960784313" />
<path d="M450,-1006 L370,-470 L382,-770 L182,-378 L734,-570 L122,-714 Z" stroke-width="0" fill="#28122a" fill-opacity="0.09019607843137255" />
<path d="M730,-438 L530,-470 L710,-230 L250,-134 L206,-534 L206,-410 Z" stroke-width="0" fill="#293c07" fill-opacity="0.4627450980392157" />
<path d="M346,-302 L394,-822 L350,-342 L546,-1010 L238,-234 L470,-1174 Z" stroke-width="0" fill="#c4f2fc" fill-opacity="0.5019607843137255" />
<path d="M398,-262 L362,-670 L266,-302 L642,-1150 L746,-1018 L250,-114 Z" stroke-width="0" fill="#c8859b" fill-opacity="0.11372549019607843" />
<path d="M574,-778 L350,-598 L706,-1022 L270,-1154 L370,-1074 L214,-822 Z" stroke-width="0" fill="#c3f4e6" fill-opacity="0.5764705882352941" />
<text x="448.0" y="0" font-size="70.0" fill="black" text-anchor="middle" transform="translate(0,17.5)">1 OF EARTH</text>
</svg>