<?xml version="1.0" encoding="UTF-8"?>
<svg xmlns="http://www.w3.org/2000/svg" xmlns:xlink="http://www.w3.org/1999/xlink"
     width="896" height="1496" viewBox="0 -1400 896 1496" style="font-size:70;font-family:Poor Richard, Times New Roman;stroke:black;stroke-width:1;fill:none">
<defs>
</defs>
<path d="M726,-882 L306,-134 L306,-866 L374,-998 L98,-1162 L534,-162 Z" stroke-width="0" fill="#fbe4ed" fill-opacity="0.07450980392156863" />
<path d="M234,-678 L114,-1134 L170,-462 L534,-1162 L758,-474 L754,-186 Z" stroke-width="0" fill="#9aab81" fill-opacity="0.5254901960784314" />
<path d="M374,-478 L334,-290 L342,-130 L406,-838 L594,-1090 L594,-774 Z" stroke-width="0" fill="#f0f2ec" fill-opacity="0.21568627450980393" />
<path d="M178,-438 L494,-258 L314,-610 L142,-94 L578,-362 L350,-698 Z" stroke-width="0" fill="#bdb3b0" fill-opacity="0.027450980392156862" />
<path d="M438,-166 L202,-610 L550,-794 L290,-590 L386,-154 L750,-1186 Z" stroke-width="0" fill="#040b56" fill-opacity="0.42745098039215684" />
<path d="M398,-630 L390,-374 L294,-266 L742,-502 L342,-1082 L430,-1106 Z" stroke-width="0" fill="#af0bef" fill-opacity="0.06666666666666667" />
<path d="M158,-266 L150,-994 L274,-854 L570,-474 L590,-402 L802,-1134 Z" stroke-width="0" fill="#2a6138" fill-opacity="0.2235294117647059" />
<path d="M218,-806 L530,-1026 L230,-366 L170,-426 L694,-262 L142,-1134 Z" stroke-width="0" fill="#178077" fill-opacity="0.27058823529411763" />
<path d="M86,-998 L494,-1286 L730,-1206 L182,-518 L150,-466 L102,-686 Z" stroke-width="0" fill="#663f1b" fill-opacity="0.3333333333333333" />
<path d="M230,-1294 L298,-1138 L602,-1238 L514,-490 L178,-830 L454,-1298 Z" stroke-width="0" fill="#1b0400" fill-opacity="0.7686274509803922" />
<path d="M326,-250 L518,-410 L350,-1038 L474,-790 L142,-314 L102,-174 Z" stroke-width="0" fill="#6c2628" fill-opacity="0.13333333333333333" />
<path d="M314,-1098 L718,-922 L86,-862 L578,-374 L466,-1310 L330,-210 Z" stroke-width="0" fill="#f8eef2" fill-opacity="0.9098039215686274" />
<path d="M650,-666 L94,-194 L346,-974 L466,-534 L414,-178 L706,-382 Z" stroke-width="0" fill="#08f45d" fill-opacity="0.403921568627451" />
<path d="M446,-794 L490,-926 L326,-706 L126,-294 L426,-814 L598,-1166 Z" stroke-width="0" fill="#2c57f2" fill-opacity="0.7450980392156863" />
<path d="M458,-1258 L426,-1210 L730,-958 L734,-1022 L578,-1310 L154,-1154 Z" stroke-width="0" fill="#798883" fill-opacity="0.5019607843137255" />
<path d="M130,-610 L406,-522 L522,-398 L794,-1238 L238,-282 L446,-602 Z" stroke-width="0" fill="#a88df8" fill-opacity="0.45098039215686275" />
<path d="M594,-274 L530,-1314 L170,-414 L398,-1018 L222,-710 L306,-562 Z" stroke-width="0" fill="#d1d1f0" fill-opacity="0.8431372549019608" />
<path d="M666,-802 L370,-950 L446,-1310 L282,-90 L582,-818 L802,-1166 Z" stroke-width="0" fill="#bacef9" fill-opacity="0.7098039215686275" />
<path d="M294,-370 L126,-530 L310,-662 L306,-934 L690,-726 L750,-202 Z" stroke-width="0" fill="#ccc2ba" fill-opacity="0.5333333333333333" />
<path d="M310,-654 L382,-438 L182,-706 L462,-1050 L506,-850 L750,-1270 Z" stroke-width="0" fill="#c3ceb9" fill-opacity="0.9921568627450981" />
<path d="M82,-102 L762,-654 L618,-234 L94,-690 L462,-798 L242,-90 Z" stroke-width="0" fill="#9a7f58" fill-opacity="0.10980392156862745" />
<path d="M510,-782 L198,-434 L606,-466 L330,-778 L330,-1162 L306,-1190 Z" stroke-width="0" fill="#8c3f00" fill-opacity="0.9058823529411765" />
<path d="M114,-610 L354,-190 L146,-174 L190,-338 L530,-346 L642,-222 Z" stroke-width="0" fill="#fa5f27" fill-opacity="0.3333333333333333" />
<path d="M738,-1002 L338,-950 L634,-202 L122,-218 L254,-278 L770,-398 Z" stroke-width="0" fill="#fadff3" fill-opacity="0.12156862745098039" />
<path d="M138,-978 L162,-1002 L234,-782 L810,-994 L318,-114 L194,-882 Z" stroke-width="0" fill="#001813" fill-opacity="0.17647058823529413" />
<path d="M578,-146 L442,-202 L706,-886 L342,-1218 L282,-702 L270,-330 Z" stroke-width="0" fill="#b39300" fill-opacity="0.01568627450980392" />
<path d="M154,-1302 L490,-374 L798,-1062 L698,-1242 L734,-974 L138,-430 Z" stroke-width="0" fill="#e0cbf2" fill-opacity="0.8352941176470589" />
<path d="M170,-314 L526,-1090 L626,-794 L646,-782 L730,-1302 L158,-1082 Z" stroke-width="0" fill="#a5c48f" fill-opacity="0.5372549019607843" />
<path d="M606,-166 L558,-706 L166,-814 L222,-398 L126,-370 L802,-270 Z" stroke-width="0" fill="#8d280d" fill-opacity="0.03529411764705882" />
<path d="M174,-262 L490,-494 L214,-318 L230,-766 L98,-462 L798,-622 Z" stroke-width="0" fill="#51dd95" fill-opacity="0.18823529411764706" />
<path d="M302,-490 L670,-646 L674,-418 L630,-1238 L282,-166 L762,-1282 Z" stroke-width="0" fill="#a7a89e" fill-opacity="0.6666666666666666" />
<path d="M486,-786 L218,-142 L326,-622 L318,-542 L518,-206 L414,-114 Z" stroke-width="0" fill="#f4f2fd" fill-opacity="0.023529411764705882" />
<path d="M774,-118 L538,-662 L214,-374 L586,-1150 L314,-1082 L270,-290 Z" stroke-width="0" fill="#aa6822" fill-opacity="0.10196078431372549" />
<path d="M790,-526 L190,-694 L614,-1166 L618,-778 L122,-502 L374,-510 Z" stroke-width="0" fill="#88a9f0" fill-opacity="0.29411764705882354" />
<path d="M710,-722 L202,-1138 L86,-1194 L326,-330 L774,-586 L242,-94 Z" stroke-width="0" fill="#f8f2d2" fill-opacity="0.4627450980392157" />
<path d="M502,-202 L370,-534 L378,-622 L114,-882 L386,-518 L626,-970 Z" stroke-width="0" fill="#d3fcff" fill-opacity="0.17254901960784313" />
<path d="M530,-878 L202,-738 L314,-894 L542,-526 L466,-318 L682,-770 Z" stroke-width="0" fill="#c9e2f7" fill-opacity="0.9647058823529412" />
<path d="M530,-622 L574,-302 L270,-1126 L446,-1278 L718,-338 L94,-682 Z" stroke-width="0" fill="#c683d7" fill-opacity="0.12156862745098039" />
<path d="M366,-1134 L626,-506 L662,-354 L98,-306 L482,-646 L342,-242 Z" stroke-width="0" fill="#e39200" fill-opacity="0.9254901960784314" />
<path d="M106,-1166 L522,-794 L510,-502 L418,-938 L706,-202 L558,-738 Z" stroke-width="0" fill="#b9af5d" fill-opacity="0.14901960784313725" />
<path d="M546,-282 L378,-630 L218,-950 L426,-590 L414,-178 L502,-1038 Z" stroke-width="0" fill="#647b3d" fill-opacity="0.9882352941176471" />
<path d="M714,-214 L294,-374 L506,-598 L598,-698 L174,-490 L274,-558 Z" stroke-width="0" fill="#ad82c7" fill-opacity="0.45098039215686275" />
<path d="M430,-334 L106,-494 L530,-294 L138,-1190 L266,-426 L762,-1206 Z" stroke-width="0" fill="#d5c282" fill-opacity="0.1411764705882353" />
<path d="M674,-694 L594,-686 L742,-1298 L286,-542 L190,-1162 L214,-302 Z" stroke-width="0" fill="#cb9edb" fill-opacity="0.45098039215686275" />
<path d="M546,-1022 L498,-986 L318,-110 L718,-574 L426,-538 L506,-598 Z" stroke-width="0" fill="#617e3c" fill-opacity="0.28627450980392155" />
<path d="M502,-1242 L590,-782 L586,-158 L246,-1102 L798,-970 L674,-186 Z" stroke-width="0" fill="#54718a" fill-opacity="0.0" />
<path d="M662,-1070 L526,-374 L602,-398 L786,-558 L138,-974 L198,-1186 Z" stroke-width="0" fill="#cbd1bf" fill-opacity="0.5764705882352941" />
<path d="M206,-1038 L418,-838 L306,-746 L630,-658 L498,-234 L246,-82 Z" stroke-width="0" fill="#dcb252" fill-opacity="0.38823529411764707" />
<path d="M158,-622 L142,-1158 L174,-990 L154,-514 L362,-1006 L578,-814 Z" stroke-width="0" fill="#eeede0" fill-opacity="0.6078431372549019" />
<path d="M250,-166 L802,-750 L262,-1202 L762,-766 L318,-1038 L214,-318 Z" stroke-width="0" fill="#6fea36" fill-opacity="0.043137254901960784" />
<path d="M90,-1306 L618,-210 L310,-934 L434,-574 L698,-974 L214,-294 Z" stroke-width="0" fill="#3a5137" fill-opacity="0.34901960784313724" />
<path d="M118,-390 L678,-302 L534,-238 L90,-454 L658,-966 L542,-90 Z" stroke-width="0" fill="#464f23" fill-opacity="0.1568627450980392" />
<path d="M162,-646 L686,-222 L750,-518 L114,-386 L134,-254 L390,-194 Z" stroke-width="0" fill="#417f07" fill-opacity="0.06274509803921569" />
<path d="M242,-106 L366,-1022 L206,-98 L550,-342 L170,-918 L382,-474 Z" stroke-width="0" fill="#662000" fill-opacity="0.07058823529411765" />
<path d="M170,-1290 L294,-294 L166,-158 L586,-310 L422,-110 L174,-1166 Z" stroke-width="0" fill="#3f1614" fill-opacity="0.10980392156862745" />
<path d="M266,-782 L538,-582 L90,-526 L602,-778 L318,-522 L682,-362 Z" stroke-width="0" fill="#f5d2db" fill-opacity="0.34509803921568627" />
<path d="M322,-690 L810,-802 L630,-326 L658,-1286 L494,-1174 L714,-642 Z" stroke-width="0" fill="#ceb2c4" fill-opacity="0.6823529411764706" />
<path d="M114,-934 L438,-1250 L562,-866 L398,-1250 L522,-870 L734,-262 Z" stroke-width="0" fill="#cf9597" fill-opacity="0.16470588235294117" />
<path d="M690,-602 L338,-898 L250,-994 L350,-250 L694,-334 L350,-94 Z" stroke-width="0" fill="#fbd5fa" fill-opacity="0.35294117647058826" />
<path d="M206,-578 L470,-226 L458,-218 L374,-402 L630,-1198 L806,-858 Z" stroke-width="0" fill="#d3e8f5" fill-opacity="0.40784313725490196" />
<path d="M766,-690 L702,-782 L178,-366 L158,-966 L294,-258 L226,-490 Z" stroke-width="0" fill="#8ffdef" fill-opacity="0.4588235294117647" />
<path d="M522,-970 L154,-474 L178,-1290 L370,-750 L246,-186 L246,-610 Z" stroke-width="0" fill="#362000" fill-opacity="0.5764705882352941" />
<path d="M94,-86 L470,-590 L310,-366 L498,-570 L154,-890 L82,-1122 Z" stroke-width="0" fill="#f7e3df" fill-opacity="0.9529411764705882" />
<path d="M766,-722 L794,-386 L622,-802 L370,-258 L146,-1174 L266,-566 Z" stroke-width="0" fill="#6f6761" fill-opacity="0.403921568627451" />
<path d="M562,-322 L382,-726 L206,-434 L594,-590 L746,-1062 L630,-246 Z" stroke-width="0" fill="#d3ddee" fill-opacity="0.5019607843137255" />
<path d="M594,-834 L278,-1010 L214,-246 L558,-254 L482,-682 L518,-1042 Z" stroke-width="0" fill="#47352b" fill-opacity="0.7803921568627451" />
<path d="M734,-854 L222,-358 L130,-558 L390,-814 L342,-678 L258,-514 Z" stroke-width="0" fill="#6a0033" fill-opacity="0.9686274509803922" />
<path d="M710,-642 L634,-238 L138,-362 L146,-994 L294,-378 L670,-326 Z" stroke-width="0" fill="#e6ebee" fill-opacity="0.5215686274509804" />
<path d="M450,-674 L322,-714 L494,-966 L166,-1034 L202,-198 L174,-290 Z" stroke-width="0" fill="#ecfa99" fill-opacity="0.5803921568627451" />
<path d="M214,-378 L110,-1202 L774,-902 L94,-194 L82,-1202 L542,-162 Z" stroke-width="0" fill="#cccac3" fill-opacity="0.8705882352941177" />
<path d="M142,-854 L166,-410 L662,-134 L734,-1202 L506,-554 L738,-802 Z" stroke-width="0" fill="#b77bef" fill-opacity="0.043137254901960784" />
<path d="M126,-702 L558,-974 L142,-898 L798,-1198 L582,-166 L702,-586 Z" stroke-width="0" fill="#c1d55e" fill-opacity="0.23921568627450981" />
<path d="M118,-962 L230,-778 L614,-114 L622,-154 L802,-906 L242,-958 Z" stroke-width="0" fill="#e4d2aa" fill-opacity="0.5490196078431373" />
<path d="M730,-490 L366,-458 L506,-890 L542,-994 L122,-894 L558,-886 Z" stroke-width="0" fill="#657e6b" fill-opacity="0.3803921568627451" />
<path d="M134,-1114 L106,-254 L638,-762 L562,-986 L242,-474 L598,-902 Z" stroke-width="0" fill="#f9b8c7" fill-opacity="0.22745098039215686" />
<path d="M150,-1222 L610,-698 L230,-550 L542,-830 L522,-1170 L370,-754 Z" stroke-width="0" fill="#501f22" fill-opacity="0.5058823529411764" />
<path d="M746,-342 L290,-282 L106,-846 L186,-1194 L386,-706 L686,-862 Z" stroke-width="0" fill="#cdb6e9" fill-opacity="0.21176470588235294" />
<path d="M458,-1026 L806,-902 L602,-942 L258,-650 L318,-430 L726,-1126 Z" stroke-width="0" fill="#cbc7be" fill-opacity="0.9882352941176471" />
<path d="M326,-646 L350,-714 L194,-1058 L642,-370 L454,-630 L286,-794 Z" stroke-width="0" fill="#903125" fill-opacity="0.6235294117647059" />
<path d="M250,-250 L154,-934 L266,-546 L702,-854 L698,-518 L326,-934 Z" stroke-width="0" fill="#d7cab4" fill-opacity="0.19215686274509805" />
<path d="M802,-470 L370,-142 L266,-318 L90,-350 L406,-1258 L250,-554 Z" stroke-width="0" fill="#202209" fill-opacity="0.07058823529411765" />
<path d="M118,-158 L122,-766 L522,-326 L186,-1154 L278,-1114 L690,-854 Z" stroke-width="0" fill="#50c28e" fill-opacity="0.15294117647058825" />
<path d="M198,-198 L510,-730 L314,-490 L546,-318 L90,-130 L606,-854 Z" stroke-width="0" fill="#840c3c" fill-opacity="0.13725490196078433" />
<path d="M634,-1118 L98,-174 L310,-462 L502,-570 L322,-790 L214,-598 Z" stroke-width="0" fill="#ada2d6" fill-opacity="0.403921568627451" />
<path d="M182,-1226 L214,-262 L182,-722 L590,-726 L190,-206 L270,-478 Z" stroke-width="0" fill="#fb341e" fill-opacity="0.14901960784313725" />
<path d="M678,-942 L318,-342 L122,-1234 L206,-1018 L150,-306 L446,-678 Z" stroke-width="0" fill="#da7902" fill-opacity="0.12156862745098039" />
<path d="M458,-282 L326,-602 L786,-626 L338,-958 L514,-1054 L498,-270 Z" stroke-width="0" fill="#b3b4d2" fill-opacity="0.2235294117647059" />
<path d="M218,-1026 L638,-382 L162,-142 L618,-138 L522,-450 L690,-274 Z" stroke-width="0" fill="#fbbff5" fill-opacity="0.16470588235294117" />
<path d="M90,-150 L166,-618 L634,-1238 L454,-142 L178,-650 L266,-134 Z" stroke-width="0" fill="#d3e4ba" fill-opacity="0.34901960784313724" />
<path d="M150,-1222 L98,-742 L166,-894 L222,-1202 L186,-398 L270,-362 Z" stroke-width="0" fill="#d8e2bf" fill-opacity="0.43137254901960786" />
<path d="M558,-882 L178,-662 L578,-142 L470,-1234 L414,-594 L318,-722 Z" stroke-width="0" fill="#fee5d5" fill-opacity="0.2823529411764706" />
<path d="M230,-826 L222,-1186 L466,-1162 L198,-330 L746,-146 L446,-1174 Z" stroke-width="0" fill="#b3d0de" fill-opacity="0.35294117647058826" />
<path d="M186,-578 L178,-606 L486,-270 L606,-522 L142,-1014 L110,-186 Z" stroke-width="0" fill="#e2c3b7" fill-opacity="0.3176470588235294" />
<path d="M662,-194 L682,-694 L602,-946 L98,-1174 L402,-810 L750,-750 Z" stroke-width="0" fill="#f2c2b8" fill-opacity="0.4588235294117647" />
<path d="M258,-290 L542,-1034 L234,-134 L514,-90 L426,-170 L650,-126 Z" stroke-width="0" fill="#85281d" fill-opacity="0.16470588235294117" />
<path d="M354,-378 L502,-706 L706,-618 L534,-662 L258,-846 L738,-142 Z" stroke-width="0" fill="#eeefba" fill-opacity="0.09803921568627451" />
<path d="M138,-262 L162,-866 L282,-82 L330,-474 L182,-194 L778,-462 Z" stroke-width="0" fill="#a82012" fill-opacity="0.00784313725490196" />
<path d="M534,-526 L362,-934 L626,-1250 L202,-602 L350,-714 L138,-334 Z" stroke-width="0" fill="#d3cdd5" fill-opacity="0.6039215686274509" />
<path d="M90,-466 L106,-886 L326,-130 L366,-914 L474,-850 L254,-1042 Z" stroke-width="0" fill="#00060a" fill-opacity="0.06274509803921569" />
<path d="M138,-1202 L162,-546 L694,-930 L442,-454 L786,-690 L202,-238 Z" stroke-width="0" fill="#bc9e82" fill-opacity="0.3568627450980392" />
<text x="448.0" y="0" font-size="70.0" fill="black" text-anchor="middle" transform="translate(0,17.5)">6 OF EARTH</text>
</svg>