<?xml version="1.0" encoding="UTF-8"?>
<svg xmlns="http://www.w3.org/2000/svg" xmlns:xlink="http://www.w3.org/1999/xlink"
     width="896" height="1496" viewBox="0 -1400 896 1496" style="font-size:70;font-family:Poor Richard, Times New Roman;stroke:black;stroke-width:1;fill:none">
<defs>
</defs>
<path d="M266,-1122 L506,-82 L518,-774 L630,-770 L526,-982 L646,-146 Z" stroke-width="0" fill="#ebb17f" fill-opacity="0.2627450980392157" />
<path d="M158,-738 L606,-1226 L466,-174 L786,-338 L170,-526 L702,-410 Z" stroke-width="0" fill="#341c28" fill-opacity="0.5019607843137255" />
<path d="M430,-354 L658,-306 L142,-482 L286,-1102 L714,-378 L558,-650 Z" stroke-width="0" fill="#784369" fill-opacity="0.9372549019607843" />
<path d="M306,-650 L166,-1102 L638,-650 L758,-1026 L738,-662 L378,-1138 Z" stroke-width="0" fill="#d7d93f" fill-opacity="0.011764705882352941" />
<path d="M262,-566 L86,-590 L302,-1030 L606,-198 L794,-334 L202,-186 Z" stroke-width="0" fill="#b2a34a" fill-opacity="0.5764705882352941" />
<path d="M354,-430 L190,-814 L218,-534 L734,-774 L478,-942 L370,-318 Z" stroke-width="0" fill="#05b3b4" fill-opacity="0.41568627450980394" />
<path d="M226,-1090 L674,-510 L354,-686 L162,-154 L286,-666 L394,-1102 Z" stroke-width="0" fill="#0b7519" fill-opacity="0.8470588235294118" />
<path d="M666,-1090 L742,-390 L454,-1314 L178,-290 L202,-190 L750,-1186 Z" stroke-width="0" fill="#a1a9f2" fill-opacity="0.12549019607843137" />
<path d="M382,-690 L414,-654 L582,-254 L798,-446 L242,-318 L110,-122 Z" stroke-width="0" fill="#70b95b" fill-opacity="0.4549019607843137" />
<path d="M94,-1018 L430,-206 L90,-374 L98,-830 L662,-126 L198,-1218 Z" stroke-width="0" fill="#230f08" fill-opacity="0.2901960784313726" />
<path d="M274,-226 L518,-1294 L206,-150 L310,-874 L694,-598 L322,-110 Z" stroke-width="0" fill="#050000" fill-opacity="0.2980392156862745" />
<path d="M362,-562 L190,-894 L678,-1278 L270,-1234 L126,-694 L158,-686 Z" stroke-width="0" fill="#74614b" fill-opacity="0.34901960784313724" />
<path d="M246,-742 L150,-418 L442,-278 L174,-762 L142,-206 L582,-970 Z" stroke-width="0" fill="#9997dc" fill-opacity="0.6431372549019608" />
<path d="M378,-446 L454,-426 L250,-738 L714,-1018 L166,-418 L674,-1290 Z" stroke-width="0" fill="#1b0b58" fill-opacity="0.4" />
<path d="M490,-474 L314,-230 L414,-994 L386,-1198 L490,-1130 L658,-786 Z" stroke-width="0" fill="#e14ca9" fill-opacity="0.984313725490196" />
<path d="M762,-814 L694,-286 L598,-190 L314,-870 L422,-1106 L222,-586 Z" stroke-width="0" fill="#2b1a00" fill-opacity="0.8862745098039215" />
<path d="M170,-1198 L150,-158 L498,-954 L266,-234 L658,-658 L810,-1218 Z" stroke-width="0" fill="#b0ce7c" fill-opacity="0.18823529411764706" />
<path d="M718,-1266 L186,-174 L478,-742 L626,-1262 L402,-266 L510,-94 Z" stroke-width="0" fill="#0c001a" fill-opacity="0.2784313725490196" />
<path d="M410,-742 L166,-634 L678,-466 L810,-1034 L462,-862 L138,-466 Z" stroke-width="0" fill="#96b031" fill-opacity="0.12156862745098039" />
<path d="M238,-830 L498,-834 L230,-654 L118,-186 L326,-874 L798,-1174 Z" stroke-width="0" fill="#e0ce6d" fill-opacity="0.00392156862745098" />
<path d="M734,-502 L314,-1170 L662,-966 L454,-402 L498,-1178 L670,-646 Z" stroke-width="0" fill="#afea8a" fill-opacity="0.9921568627450981" />
<path d="M446,-770 L186,-1194 L138,-1170 L86,-374 L546,-554 L526,-1282 Z" stroke-width="0" fill="#92a5d2" fill-opacity="0.4627450980392157" />
<path d="M434,-934 L658,-698 L490,-434 L470,-1070 L582,-554 L194,-246 Z" stroke-width="0" fill="#171152" fill-opacity="0.3176470588235294" />
<path d="M674,-298 L218,-486 L766,-94 L314,-766 L102,-150 L566,-986 Z" stroke-width="0" fill="#6c4238" fill-opacity="0.5019607843137255" />
<path d="M674,-298 L310,-578 L686,-1198 L802,-486 L670,-150 L522,-722 Z" stroke-width="0" fill="#b36646" fill-opacity="0.5843137254901961" />
<path d="M438,-102 L610,-578 L750,-714 L238,-618 L610,-838 L638,-606 Z" stroke-width="0" fill="#bbd140" fill-opacity="0.09803921568627451" />
<path d="M458,-954 L106,-474 L422,-442 L734,-870 L426,-1106 L238,-1114 Z" stroke-width="0" fill="#dac6bf" fill-opacity="0.8980392156862745" />
<path d="M386,-950 L730,-370 L326,-718 L802,-658 L618,-266 L526,-334 Z" stroke-width="0" fill="#be7a5c" fill-opacity="0.3176470588235294" />
<path d="M298,-438 L762,-154 L558,-202 L746,-330 L150,-618 L310,-354 Z" stroke-width="0" fill="#756519" fill-opacity="0.5019607843137255" />
<path d="M274,-1262 L694,-154 L422,-322 L782,-614 L270,-198 L678,-370 Z" stroke-width="0" fill="#d8d9cd" fill-opacity="0.6235294117647059" />
<path d="M694,-306 L430,-1310 L286,-194 L690,-646 L114,-362 L378,-470 Z" stroke-width="0" fill="#ae7c15" fill-opacity="0.6235294117647059" />
<path d="M90,-1022 L730,-226 L454,-526 L126,-86 L86,-134 L738,-678 Z" stroke-width="0" fill="#76678b" fill-opacity="0.5568627450980392" />
<path d="M594,-854 L166,-582 L754,-674 L206,-898 L378,-810 L318,-1050 Z" stroke-width="0" fill="#0c0800" fill-opacity="0.996078431372549" />
<path d="M190,-706 L190,-426 L666,-786 L590,-1222 L766,-1074 L566,-1026 Z" stroke-width="0" fill="#efe7f0" fill-opacity="0.9450980392156862" />
<path d="M790,-258 L82,-170 L474,-990 L94,-134 L282,-1214 L290,-330 Z" stroke-width="0" fill="#a2929d" fill-opacity="0.8705882352941177" />
<path d="M258,-806 L506,-1206 L210,-1294 L318,-630 L190,-466 L158,-1118 Z" stroke-width="0" fill="#401e36" fill-opacity="0.2549019607843137" />
<path d="M138,-1010 L558,-1246 L590,-518 L294,-442 L442,-1002 L550,-270 Z" stroke-width="0" fill="#b1a2bb" fill-opacity="0.796078431372549" />
<path d="M558,-542 L322,-226 L342,-126 L130,-282 L602,-830 L710,-206 Z" stroke-width="0" fill="#21492d" fill-opacity="0.29411764705882354" />
<path d="M442,-786 L98,-966 L378,-574 L718,-1002 L194,-258 L230,-130 Z" stroke-width="0" fill="#b8d4bc" fill-opacity="0.8784313725490196" />
<path d="M126,-322 L198,-702 L206,-278 L226,-678 L262,-94 L142,-702 Z" stroke-width="0" fill="#5a6974" fill-opacity="0.5568627450980392" />
<path d="M706,-450 L414,-1290 L786,-674 L306,-482 L170,-726 L490,-222 Z" stroke-width="0" fill="#57444e" fill-opacity="0.49019607843137253" />
<path d="M394,-546 L302,-158 L422,-810 L110,-1014 L358,-198 L634,-1274 Z" stroke-width="0" fill="#f3e5d3" fill-opacity="0.6313725490196078" />
<path d="M462,-538 L562,-1246 L270,-214 L474,-966 L266,-854 L774,-1058 Z" stroke-width="0" fill="#f0ffbf" fill-opacity="0.6392156862745098" />
<path d="M170,-838 L282,-1146 L126,-270 L214,-838 L574,-366 L482,-690 Z" stroke-width="0" fill="#e6f9c8" fill-opacity="0.1843137254901961" />
<path d="M246,-314 L694,-430 L682,-934 L646,-978 L446,-450 L362,-930 Z" stroke-width="0" fill="#dfbdd4" fill-opacity="0.9764705882352941" />
<path d="M750,-450 L786,-198 L622,-318 L618,-170 L654,-174 L334,-206 Z" stroke-width="0" fill="#2a0000" fill-opacity="0.5019607843137255" />
<path d="M234,-554 L446,-538 L590,-506 L122,-350 L706,-958 L810,-1306 Z" stroke-width="0" fill="#e06f4e" fill-opacity="0.09411764705882353" />
<path d="M242,-1174 L566,-1218 L482,-194 L358,-366 L390,-206 L514,-1146 Z" stroke-width="0" fill="#9084b3" fill-opacity="0.6901960784313725" />
<path d="M758,-794 L326,-170 L702,-858 L358,-814 L418,-482 L354,-1026 Z" stroke-width="0" fill="#3d0400" fill-opacity="0.8980392156862745" />
<path d="M442,-1298 L90,-870 L434,-126 L734,-502 L418,-834 L590,-650 Z" stroke-width="0" fill="#998687" fill-opacity="0.4666666666666667" />
<path d="M606,-1194 L554,-446 L234,-710 L614,-602 L606,-650 L350,-462 Z" stroke-width="0" fill="#87b276" fill-opacity="0.7137254901960784" />
<path d="M90,-242 L326,-806 L606,-794 L570,-98 L710,-1210 L162,-318 Z" stroke-width="0" fill="#fcfaaf" fill-opacity="0.3568627450980392" />
<path d="M358,-298 L518,-222 L406,-678 L678,-1258 L542,-758 L558,-354 Z" stroke-width="0" fill="#ac7d18" fill-opacity="0.23921568627450981" />
<path d="M462,-698 L86,-810 L450,-414 L314,-1238 L774,-586 L118,-230 Z" stroke-width="0" fill="#beef88" fill-opacity="0.054901960784313725" />
<path d="M262,-302 L802,-998 L638,-514 L478,-94 L166,-626 L434,-1166 Z" stroke-width="0" fill="#d4e3b3" fill-opacity="0.2235294117647059" />
<path d="M294,-306 L198,-218 L562,-1282 L410,-1270 L798,-214 L390,-94 Z" stroke-width="0" fill="#34191c" fill-opacity="0.35294117647058826" />
<path d="M142,-146 L666,-790 L786,-314 L170,-1154 L510,-714 L554,-174 Z" stroke-width="0" fill="#a28484" fill-opacity="0.9254901960784314" />
<path d="M542,-758 L682,-1082 L438,-902 L134,-538 L674,-950 L402,-982 Z" stroke-width="0" fill="#edfc8e" fill-opacity="0.47058823529411764" />
<path d="M294,-206 L118,-546 L454,-342 L198,-998 L254,-590 L418,-414 Z" stroke-width="0" fill="#de7b48" fill-opacity="0.12156862745098039" />
<path d="M242,-366 L314,-1194 L490,-1266 L254,-610 L758,-886 L370,-250 Z" stroke-width="0" fill="#dc90fd" fill-opacity="0.5019607843137255" />
<path d="M550,-814 L362,-1198 L226,-738 L810,-170 L338,-158 L206,-298 Z" stroke-width="0" fill="#8f857f" fill-opacity="0.5019607843137255" />
<path d="M230,-878 L662,-670 L674,-434 L706,-670 L554,-758 L302,-798 Z" stroke-width="0" fill="#740804" fill-opacity="0.12156862745098039" />
<path d="M102,-218 L586,-826 L610,-646 L206,-398 L386,-678 L202,-990 Z" stroke-width="0" fill="#788b98" fill-opacity="0.5019607843137255" />
<path d="M118,-634 L526,-542 L718,-842 L122,-102 L226,-246 L786,-114 Z" stroke-width="0" fill="#9a9c93" fill-opacity="0.6235294117647059" />
<path d="M766,-1058 L750,-1138 L522,-182 L286,-814 L214,-1118 L358,-966 Z" stroke-width="0" fill="#e8a092" fill-opacity="0.08627450980392157" />
<path d="M118,-210 L346,-1166 L654,-1054 L546,-490 L754,-606 L762,-266 Z" stroke-width="0" fill="#0e141f" fill-opacity="0.13333333333333333" />
<path d="M222,-130 L434,-650 L610,-334 L770,-86 L346,-978 L646,-778 Z" stroke-width="0" fill="#6f7586" fill-opacity="0.5607843137254902" />
<path d="M202,-250 L358,-1142 L494,-566 L158,-342 L462,-690 L278,-406 Z" stroke-width="0" fill="#484727" fill-opacity="0.6705882352941176" />
<path d="M326,-938 L170,-850 L414,-302 L226,-898 L238,-722 L546,-442 Z" stroke-width="0" fill="#a9defc" fill-opacity="0.25882352941176473" />
<path d="M122,-266 L530,-202 L230,-586 L338,-558 L194,-826 L766,-942 Z" stroke-width="0" fill="#d1b39f" fill-opacity="0.36470588235294116" />
<path d="M274,-1186 L662,-1270 L266,-162 L478,-778 L482,-358 L150,-438 Z" stroke-width="0" fill="#bfe062" fill-opacity="0.28627450980392155" />
<path d="M222,-186 L606,-130 L646,-426 L490,-718 L718,-1154 L114,-830 Z" stroke-width="0" fill="#64a3cb" fill-opacity="0.03137254901960784" />
<path d="M702,-694 L810,-1122 L186,-790 L562,-262 L166,-1210 L770,-670 Z" stroke-width="0" fill="#e1e2f4" fill-opacity="0.3137254901960784" />
<path d="M234,-134 L158,-246 L774,-342 L190,-1258 L586,-994 L574,-746 Z" stroke-width="0" fill="#b8b0af" fill-opacity="0.592156862745098" />
<path d="M402,-1222 L518,-138 L98,-1186 L490,-634 L310,-214 L670,-574 Z" stroke-width="0" fill="#fccfe8" fill-opacity="0.0392156862745098" />
<path d="M174,-706 L118,-230 L134,-990 L202,-494 L654,-314 L714,-294 Z" stroke-width="0" fill="#c98fa8" fill-opacity="0.27450980392156865" />
<path d="M138,-702 L534,-414 L458,-1022 L262,-854 L566,-158 L82,-798 Z" stroke-width="0" fill="#fed2b9" fill-opacity="0.7333333333333333" />
<path d="M434,-162 L250,-1122 L258,-662 L310,-906 L630,-174 L94,-662 Z" stroke-width="0" fill="#7c7a75" fill-opacity="0.14901960784313725" />
<path d="M426,-850 L182,-338 L534,-706 L218,-1014 L618,-302 L94,-266 Z" stroke-width="0" fill="#5e3b23" fill-opacity="0.21176470588235294" />
<path d="M442,-322 L274,-1098 L310,-1166 L286,-230 L474,-762 L310,-562 Z" stroke-width="0" fill="#8dbf3e" fill-opacity="0.00392156862745098" />
<path d="M210,-730 L430,-1310 L758,-994 L622,-874 L574,-318 L470,-1290 Z" stroke-width="0" fill="#c3acd6" fill-opacity="0.6235294117647059" />
<path d="M266,-314 L754,-298 L326,-886 L194,-842 L342,-218 L106,-1306 Z" stroke-width="0" fill="#b9eff0" fill-opacity="0.09411764705882353" />
<path d="M774,-202 L386,-854 L598,-758 L382,-594 L262,-646 L194,-370 Z" stroke-width="0" fill="#87171d" fill-opacity="0.0784313725490196" />
<path d="M618,-678 L426,-134 L130,-458 L806,-842 L398,-350 L370,-178 Z" stroke-width="0" fill="#3c4d34" fill-opacity="0.6941176470588235" />
<path d="M290,-578 L166,-414 L546,-286 L478,-446 L102,-402 L602,-186 Z" stroke-width="0" fill="#333000" fill-opacity="0.6823529411764706" />
<path d="M542,-894 L762,-1166 L134,-1178 L202,-146 L226,-842 L674,-782 Z" stroke-width="0" fill="#e6ecf3" fill-opacity="0.00784313725490196" />
<path d="M194,-478 L202,-766 L574,-1010 L602,-538 L602,-1306 L122,-718 Z" stroke-width="0" fill="#c5a4a3" fill-opacity="0.5490196078431373" />
<path d="M230,-306 L238,-866 L382,-626 L198,-262 L322,-654 L182,-270 Z" stroke-width="0" fill="#b68ad3" fill-opacity="0.2" />
<path d="M334,-270 L382,-942 L130,-138 L566,-1130 L794,-1050 L338,-258 Z" stroke-width="0" fill="#f2d8d4" fill-opacity="0.5019607843137255" />
<path d="M242,-578 L758,-114 L538,-434 L314,-470 L734,-1150 L434,-618 Z" stroke-width="0" fill="#faa9f0" fill-opacity="0.09411764705882353" />
<path d="M242,-1222 L698,-150 L798,-418 L138,-1154 L138,-1270 L774,-358 Z" stroke-width="0" fill="#e8b098" fill-opacity="0.30196078431372547" />
<path d="M258,-274 L254,-126 L574,-1110 L298,-614 L462,-398 L714,-942 Z" stroke-width="0" fill="#d3bb14" fill-opacity="0.0784313725490196" />
<path d="M658,-86 L122,-622 L502,-1210 L410,-390 L446,-1262 L558,-226 Z" stroke-width="0" fill="#e14c25" fill-opacity="0.058823529411764705" />
<path d="M338,-1310 L402,-958 L670,-878 L542,-386 L142,-862 L782,-634 Z" stroke-width="0" fill="#8fd1b6" fill-opacity="0.28627450980392155" />
<path d="M126,-1010 L650,-974 L418,-402 L734,-582 L582,-894 L786,-110 Z" stroke-width="0" fill="#afe3b7" fill-opacity="0.19215686274509805" />
<path d="M110,-198 L238,-918 L638,-1058 L102,-110 L374,-750 L510,-118 Z" stroke-width="0" fill="#c78e97" fill-opacity="0.23529411764705882" />
<path d="M146,-1102 L318,-410 L154,-586 L530,-1054 L514,-474 L738,-1062 Z" stroke-width="0" fill="#fad3fc" fill-opacity="0.18823529411764706" />
<path d="M430,-386 L786,-378 L610,-1162 L430,-858 L698,-530 L518,-106 Z" stroke-width="0" fill="#f8f9d3" fill-opacity="0.21176470588235294" />
<path d="M174,-466 L302,-978 L470,-698 L494,-142 L430,-622 L426,-822 Z" stroke-width="0" fill="#e6c5aa" fill-opacity="0.3215686274509804" />
<path d="M782,-390 L638,-1302 L382,-582 L230,-842 L350,-1046 L202,-1206 Z" stroke-width="0" fill="#dfedd1" fill-opacity="0.20392156862745098" />
<text x="448.0" y="0" font-size="70.0" fill="black" text-anchor="middle" transform="translate(0,17.5)">KING OF EARTH</text>
</svg>