<?xml version="1.0" encoding="UTF-8"?>
<svg xmlns="http://www.w3.org/2000/svg" xmlns:xlink="http://www.w3.org/1999/xlink"
     width="896" height="1496" viewBox="0 -1400 896 1496" style="font-size:70;font-family:Poor Richard, Times New Roman;stroke:black;stroke-width:1;fill:none">
<defs>
</defs>
<path d="M274,-386 L174,-446 L454,-102 L786,-1010 L530,-282 L114,-198 Z" stroke-width="0" fill="#ec514d" fill-opacity="0.027450980392156862" />
<path d="M642,-98 L550,-510 L474,-214 L530,-694 L94,-1034 L278,-146 Z" stroke-width="0" fill="#d5d1e7" fill-opacity="0.2" />
<path d="M258,-1210 L422,-730 L638,-254 L106,-1170 L162,-210 L282,-422 Z" stroke-width="0" fill="#280000" fill-opacity="0.3843137254901961" />
<path d="M274,-1046 L578,-558 L202,-1138 L502,-1014 L198,-394 L322,-350 Z" stroke-width="0" fill="#000000" fill-opacity="0.9294117647058824" />
<path d="M538,-966 L242,-898 L166,-122 L562,-418 L142,-194 L382,-818 Z" stroke-width="0" fill="#bfd0b4" fill-opacity="0.9686274509803922" />
<path d="M342,-414 L554,-778 L522,-574 L166,-410 L774,-1102 L290,-1218 Z" stroke-width="0" fill="#a297e3" fill-opacity="0.0196078431372549" />
<path d="M422,-590 L438,-570 L650,-318 L342,-250 L494,-642 L206,-1174 Z" stroke-width="0" fill="#00001f" fill-opacity="0.9803921568627451" />
<path d="M262,-90 L774,-966 L582,-498 L550,-922 L474,-594 L274,-1174 Z" stroke-width="0" fill="#789a68" fill-opacity="0.23137254901960785" />
<path d="M362,-1170 L554,-646 L646,-1034 L558,-198 L90,-934 L130,-494 Z" stroke-width="0" fill="#55000e" fill-opacity="0.592156862745098" />
<path d="M194,-634 L362,-1282 L470,-86 L162,-394 L190,-634 L766,-682 Z" stroke-width="0" fill="#e6c5f6" fill-opacity="0.027450980392156862" />
<path d="M530,-134 L538,-138 L358,-786 L530,-1198 L134,-1190 L530,-422 Z" stroke-width="0" fill="#94463a" fill-opacity="0.4666666666666667" />
<path d="M298,-634 L218,-1298 L806,-266 L746,-974 L182,-1126 L498,-586 Z" stroke-width="0" fill="#072403" fill-opacity="0.396078431372549" />
<path d="M702,-710 L130,-1246 L650,-1302 L218,-98 L558,-86 L730,-242 Z" stroke-width="0" fill="#532227" fill-opacity="0.2901960784313726" />
<path d="M218,-874 L106,-786 L382,-150 L646,-914 L318,-702 L142,-598 Z" stroke-width="0" fill="#eeb6ea" fill-opacity="0.7450980392156863" />
<path d="M454,-306 L382,-582 L394,-466 L526,-622 L358,-734 L266,-446 Z" stroke-width="0" fill="#8f1725" fill-opacity="0.8156862745098039" />
<path d="M230,-326 L430,-810 L670,-246 L494,-590 L778,-166 L578,-1270 Z" stroke-width="0" fill="#f3f0f4" fill-opacity="0.9098039215686274" />
<path d="M218,-342 L250,-322 L590,-250 L726,-870 L470,-386 L98,-1182 Z" stroke-width="0" fill="#bfcc17" fill-opacity="0.27450980392156865" />
<path d="M186,-654 L422,-474 L246,-214 L230,-498 L158,-94 L334,-1262 Z" stroke-width="0" fill="#753706" fill-opacity="0.23529411764705882" />
<path d="M202,-706 L378,-762 L298,-334 L534,-442 L518,-1102 L634,-514 Z" stroke-width="0" fill="#5e0b8b" fill-opacity="0.396078431372549" />
<path d="M414,-774 L234,-1206 L122,-810 L730,-710 L538,-322 L298,-214 Z" stroke-width="0" fill="#221c00" fill-opacity="0.8431372549019608" />
<path d="M366,-858 L486,-934 L394,-1022 L558,-802 L110,-710 L562,-298 Z" stroke-width="0" fill="#fd3abb" fill-opacity="0.23529411764705882" />
<path d="M186,-134 L186,-1134 L246,-686 L342,-230 L230,-774 L762,-818 Z" stroke-width="0" fill="#150906" fill-opacity="0.21176470588235294" />
<path d="M202,-1246 L430,-694 L426,-1234 L282,-130 L222,-682 L274,-842 Z" stroke-width="0" fill="#140000" fill-opacity="0.6274509803921569" />
<path d="M570,-134 L354,-370 L406,-490 L722,-462 L146,-1082 L398,-1298 Z" stroke-width="0" fill="#902623" fill-opacity="0.09019607843137255" />
<path d="M578,-882 L566,-574 L102,-478 L686,-358 L286,-1122 L146,-526 Z" stroke-width="0" fill="#360600" fill-opacity="0.5686274509803921" />
<path d="M262,-114 L154,-318 L546,-666 L282,-614 L366,-758 L178,-706 Z" stroke-width="0" fill="#5d6dd4" fill-opacity="0.24705882352941178" />
<path d="M678,-378 L614,-1146 L806,-202 L374,-138 L414,-682 L550,-778 Z" stroke-width="0" fill="#c9c8a6" fill-opacity="0.6431372549019608" />
<path d="M566,-834 L134,-194 L194,-490 L346,-486 L646,-382 L374,-1106 Z" stroke-width="0" fill="#507559" fill-opacity="0.4823529411764706" />
<path d="M282,-222 L306,-1050 L266,-798 L662,-418 L766,-1070 L302,-258 Z" stroke-width="0" fill="#911d07" fill-opacity="0.1843137254901961" />
<path d="M142,-1078 L446,-886 L758,-1234 L458,-450 L458,-690 L750,-1174 Z" stroke-width="0" fill="#f7d31c" fill-opacity="0.00784313725490196" />
<path d="M150,-602 L726,-170 L314,-1054 L338,-162 L734,-586 L634,-638 Z" stroke-width="0" fill="#aaadae" fill-opacity="0.9803921568627451" />
<path d="M198,-142 L442,-130 L166,-1022 L222,-382 L134,-522 L226,-614 Z" stroke-width="0" fill="#f4daed" fill-opacity="0.058823529411764705" />
<path d="M458,-1090 L90,-682 L370,-134 L146,-374 L546,-426 L702,-210 Z" stroke-width="0" fill="#d4e3be" fill-opacity="0.5843137254901961" />
<path d="M414,-894 L454,-118 L134,-1082 L222,-814 L654,-870 L590,-438 Z" stroke-width="0" fill="#e3f8b9" fill-opacity="0.5254901960784314" />
<path d="M674,-86 L550,-1062 L202,-1030 L582,-566 L274,-606 L494,-374 Z" stroke-width="0" fill="#3b2914" fill-opacity="0.26666666666666666" />
<path d="M486,-486 L186,-138 L662,-254 L466,-918 L454,-134 L278,-1094 Z" stroke-width="0" fill="#d3dbc8" fill-opacity="0.9882352941176471" />
<path d="M82,-450 L650,-438 L546,-178 L666,-810 L602,-1310 L514,-474 Z" stroke-width="0" fill="#8d7053" fill-opacity="0.06274509803921569" />
<path d="M558,-950 L550,-658 L454,-366 L206,-334 L474,-1114 L578,-950 Z" stroke-width="0" fill="#341536" fill-opacity="0.9647058823529412" />
<path d="M454,-118 L586,-918 L426,-998 L606,-926 L790,-290 L250,-618 Z" stroke-width="0" fill="#807da1" fill-opacity="0.4470588235294118" />
<path d="M790,-918 L262,-982 L302,-1130 L706,-1062 L646,-550 L118,-570 Z" stroke-width="0" fill="#150600" fill-opacity="0.1803921568627451" />
<path d="M162,-818 L182,-906 L218,-922 L314,-842 L514,-850 L490,-478 Z" stroke-width="0" fill="#130006" fill-opacity="0.8196078431372549" />
<path d="M702,-558 L614,-1254 L242,-646 L122,-1158 L638,-518 L790,-1150 Z" stroke-width="0" fill="#522113" fill-opacity="0.058823529411764705" />
<path d="M138,-118 L238,-262 L194,-738 L726,-254 L610,-818 L246,-378 Z" stroke-width="0" fill="#5ad6b2" fill-opacity="0.3607843137254902" />
<path d="M522,-466 L230,-926 L774,-310 L210,-918 L342,-186 L770,-990 Z" stroke-width="0" fill="#aa8393" fill-opacity="0.5019607843137255" />
<path d="M270,-866 L562,-1214 L654,-174 L370,-314 L378,-1234 L346,-790 Z" stroke-width="0" fill="#a9ebe9" fill-opacity="0.0392156862745098" />
<path d="M250,-334 L230,-942 L582,-602 L310,-766 L786,-526 L538,-942 Z" stroke-width="0" fill="#706c1c" fill-opacity="0.03137254901960784" />
<path d="M534,-518 L494,-1038 L574,-1010 L746,-698 L458,-326 L110,-526 Z" stroke-width="0" fill="#d70058" fill-opacity="0.12549019607843137" />
<path d="M794,-902 L122,-666 L566,-618 L514,-274 L386,-434 L338,-186 Z" stroke-width="0" fill="#a3eee5" fill-opacity="0.5411764705882353" />
<path d="M82,-262 L246,-1126 L526,-986 L574,-1078 L618,-946 L298,-750 Z" stroke-width="0" fill="#000000" fill-opacity="0.5019607843137255" />
<path d="M454,-150 L250,-878 L798,-1054 L682,-734 L738,-550 L322,-942 Z" stroke-width="0" fill="#581501" fill-opacity="0.17647058823529413" />
<path d="M142,-638 L290,-358 L614,-794 L794,-438 L378,-394 L474,-274 Z" stroke-width="0" fill="#a59c8f" fill-opacity="0.5019607843137255" />
<path d="M442,-662 L434,-790 L402,-222 L434,-310 L798,-550 L598,-762 Z" stroke-width="0" fill="#df9598" fill-opacity="0.7254901960784313" />
<path d="M494,-1006 L278,-718 L258,-150 L218,-1006 L186,-142 L338,-802 Z" stroke-width="0" fill="#1405f2" fill-opacity="0.09411764705882353" />
<path d="M358,-366 L122,-650 L310,-850 L522,-830 L782,-998 L306,-1198 Z" stroke-width="0" fill="#43643c" fill-opacity="0.09019607843137255" />
<path d="M694,-802 L242,-1130 L198,-1154 L762,-414 L426,-1062 L202,-622 Z" stroke-width="0" fill="#000000" fill-opacity="0.984313725490196" />
<path d="M642,-1090 L122,-426 L262,-458 L306,-650 L450,-310 L158,-574 Z" stroke-width="0" fill="#000d0b" fill-opacity="0.7137254901960784" />
<path d="M182,-626 L746,-990 L706,-358 L130,-838 L658,-942 L666,-1122 Z" stroke-width="0" fill="#e6eec8" fill-opacity="0.6078431372549019" />
<path d="M302,-226 L138,-1014 L426,-518 L530,-838 L294,-662 L706,-974 Z" stroke-width="0" fill="#29000f" fill-opacity="0.8901960784313725" />
<path d="M566,-1030 L178,-414 L506,-638 L726,-314 L738,-874 L510,-402 Z" stroke-width="0" fill="#aa8987" fill-opacity="0.2980392156862745" />
<path d="M210,-114 L254,-1170 L186,-82 L262,-402 L654,-1002 L558,-526 Z" stroke-width="0" fill="#99867d" fill-opacity="0.4117647058823529" />
<path d="M98,-822 L354,-462 L518,-1278 L402,-874 L450,-1130 L466,-938 Z" stroke-width="0" fill="#dbeeb9" fill-opacity="0.8784313725490196" />
<path d="M710,-694 L102,-538 L314,-146 L178,-814 L166,-622 L518,-946 Z" stroke-width="0" fill="#4588b6" fill-opacity="0.32941176470588235" />
<path d="M454,-950 L722,-458 L314,-210 L266,-814 L162,-1178 L466,-830 Z" stroke-width="0" fill="#5f0001" fill-opacity="0.49411764705882355" />
<path d="M378,-1090 L782,-318 L206,-130 L578,-862 L550,-294 L630,-306 Z" stroke-width="0" fill="#67c9d0" fill-opacity="0.2784313725490196" />
<path d="M706,-810 L198,-426 L290,-846 L410,-722 L606,-194 L706,-158 Z" stroke-width="0" fill="#edbcfb" fill-opacity="0.16862745098039217" />
<path d="M782,-506 L666,-946 L530,-494 L630,-862 L446,-1282 L234,-134 Z" stroke-width="0" fill="#fd9d84" fill-opacity="0.06274509803921569" />
<path d="M750,-1010 L562,-258 L258,-442 L334,-382 L302,-550 L314,-582 Z" stroke-width="0" fill="#b3a08d" fill-opacity="0.3568627450980392" />
<path d="M618,-1238 L534,-158 L282,-582 L146,-1002 L766,-878 L730,-230 Z" stroke-width="0" fill="#b94071" fill-opacity="0.12941176470588237" />
<path d="M418,-394 L254,-606 L418,-770 L550,-142 L86,-522 L294,-1170 Z" stroke-width="0" fill="#195700" fill-opacity="0.12549019607843137" />
<path d="M406,-1094 L770,-1262 L638,-434 L90,-1218 L206,-554 L198,-1006 Z" stroke-width="0" fill="#784d70" fill-opacity="0.3764705882352941" />
<path d="M130,-366 L678,-498 L470,-686 L234,-1110 L542,-498 L478,-810 Z" stroke-width="0" fill="#474802" fill-opacity="0.43137254901960786" />
<path d="M806,-938 L190,-538 L274,-986 L274,-406 L382,-942 L666,-538 Z" stroke-width="0" fill="#ebac99" fill-opacity="0.8941176470588236" />
<path d="M606,-1282 L278,-1038 L446,-314 L154,-1070 L554,-1246 L370,-742 Z" stroke-width="0" fill="#23151f" fill-opacity="0.12549019607843137" />
<path d="M642,-822 L498,-478 L490,-618 L658,-634 L782,-382 L82,-1002 Z" stroke-width="0" fill="#0c3555" fill-opacity="0.17254901960784313" />
<path d="M138,-770 L174,-394 L114,-398 L362,-434 L466,-490 L294,-770 Z" stroke-width="0" fill="#a98656" fill-opacity="0.7803921568627451" />
<path d="M518,-270 L694,-1094 L394,-634 L278,-106 L530,-1214 L662,-594 Z" stroke-width="0" fill="#d757e1" fill-opacity="0.12156862745098039" />
<path d="M242,-258 L610,-674 L702,-1234 L702,-438 L694,-258 L190,-98 Z" stroke-width="0" fill="#ebceb1" fill-opacity="0.4392156862745098" />
<path d="M158,-662 L310,-94 L586,-438 L246,-634 L294,-182 L698,-678 Z" stroke-width="0" fill="#b89265" fill-opacity="0.15294117647058825" />
<path d="M406,-614 L146,-754 L682,-1054 L450,-194 L310,-634 L310,-598 Z" stroke-width="0" fill="#bbb3a9" fill-opacity="0.9882352941176471" />
<path d="M742,-642 L198,-342 L650,-242 L538,-826 L490,-846 L554,-242 Z" stroke-width="0" fill="#f6e7d5" fill-opacity="0.17254901960784313" />
<path d="M302,-618 L490,-246 L94,-146 L258,-454 L570,-286 L434,-706 Z" stroke-width="0" fill="#ceb0a5" fill-opacity="0.596078431372549" />
<path d="M382,-914 L642,-298 L582,-758 L126,-1226 L522,-930 L390,-174 Z" stroke-width="0" fill="#353000" fill-opacity="0.34509803921568627" />
<path d="M790,-766 L246,-98 L778,-290 L462,-910 L90,-426 L282,-1114 Z" stroke-width="0" fill="#dad6e3" fill-opacity="0.16862745098039217" />
<path d="M366,-626 L142,-994 L686,-1258 L642,-206 L238,-1310 L114,-238 Z" stroke-width="0" fill="#c0a087" fill-opacity="0.3254901960784314" />
<path d="M350,-214 L622,-218 L766,-750 L114,-1022 L774,-726 L90,-230 Z" stroke-width="0" fill="#ba9f68" fill-opacity="0.20784313725490197" />
<path d="M470,-970 L746,-402 L286,-234 L678,-658 L566,-342 L310,-854 Z" stroke-width="0" fill="#dab296" fill-opacity="0.9568627450980393" />
<path d="M270,-354 L518,-1078 L666,-766 L714,-714 L454,-634 L434,-1298 Z" stroke-width="0" fill="#e7f4f9" fill-opacity="0.058823529411764705" />
<path d="M114,-670 L410,-910 L250,-310 L514,-522 L446,-718 L630,-602 Z" stroke-width="0" fill="#f4ddeb" fill-opacity="0.19215686274509805" />
<path d="M418,-1306 L638,-378 L134,-234 L462,-306 L162,-1098 L214,-250 Z" stroke-width="0" fill="#e19bb3" fill-opacity="0.2" />
<path d="M454,-438 L142,-842 L122,-1250 L698,-382 L598,-122 L342,-314 Z" stroke-width="0" fill="#cdaf92" fill-opacity="0.1568627450980392" />
<path d="M698,-1266 L618,-814 L322,-930 L750,-146 L790,-798 L454,-570 Z" stroke-width="0" fill="#85929f" fill-opacity="0.10980392156862745" />
<path d="M550,-466 L474,-886 L442,-1094 L338,-686 L282,-546 L634,-1034 Z" stroke-width="0" fill="#e9cfb6" fill-opacity="0.3215686274509804" />
<path d="M402,-298 L234,-1194 L258,-894 L462,-134 L758,-1174 L322,-1134 Z" stroke-width="0" fill="#d7e890" fill-opacity="0.21176470588235294" />
<path d="M566,-86 L534,-562 L518,-554 L550,-1046 L414,-910 L566,-498 Z" stroke-width="0" fill="#1d74d2" fill-opacity="0.0392156862745098" />
<path d="M546,-602 L150,-526 L786,-530 L574,-166 L294,-1262 L386,-694 Z" stroke-width="0" fill="#098a39" fill-opacity="0.043137254901960784" />
<path d="M282,-354 L90,-698 L194,-330 L630,-326 L606,-422 L786,-994 Z" stroke-width="0" fill="#b77c73" fill-opacity="0.12156862745098039" />
<path d="M314,-1142 L470,-746 L782,-418 L442,-130 L102,-822 L134,-122 Z" stroke-width="0" fill="#5b04d9" fill-opacity="0.08235294117647059" />
<path d="M214,-1162 L270,-1078 L302,-562 L386,-790 L774,-770 L474,-1158 Z" stroke-width="0" fill="#a08c85" fill-opacity="0.08627450980392157" />
<path d="M502,-102 L686,-654 L794,-1006 L354,-1098 L270,-374 L806,-686 Z" stroke-width="0" fill="#ea8dfc" fill-opacity="0.06274509803921569" />
<path d="M594,-574 L94,-418 L434,-338 L662,-1126 L730,-90 L202,-1030 Z" stroke-width="0" fill="#6b3857" fill-opacity="0.07058823529411765" />
<text x="448.0" y="0" font-size="70.0" fill="black" text-anchor="middle" transform="translate(0,17.5)">PAGE OF EARTH</text>
</svg>