<?xml version="1.0" encoding="UTF-8"?>
<svg xmlns="http://www.w3.org/2000/svg" xmlns:xlink="http://www.w3.org/1999/xlink"
     width="896" height="1496" viewBox="0 -1400 896 1496" style="font-size:70;font-family:Poor Richard, Times New Roman;stroke:black;stroke-width:1;fill:none">
<defs>
</defs>
<path d="M430,-1266 L150,-1166 L670,-1226 L446,-698 L634,-586 L498,-502 Z" stroke-width="0" fill="#f2b203" fill-opacity="0.6823529411764706" />
<path d="M474,-370 L374,-366 L650,-682 L322,-1070 L650,-662 L418,-242 Z" stroke-width="0" fill="#dcdc21" fill-opacity="0.43137254901960786" />
<path d="M142,-598 L266,-322 L266,-654 L194,-974 L602,-498 L130,-218 Z" stroke-width="0" fill="#f26deb" fill-opacity="0.396078431372549" />
<path d="M502,-1302 L686,-170 L266,-118 L710,-1126 L134,-218 L678,-1106 Z" stroke-width="0" fill="#a78dae" fill-opacity="0.34901960784313724" />
<path d="M514,-446 L342,-1014 L686,-910 L138,-582 L534,-1042 L226,-1066 Z" stroke-width="0" fill="#34b05a" fill-opacity="0.796078431372549" />
<path d="M158,-482 L686,-1074 L370,-586 L682,-1074 L670,-486 L214,-1202 Z" stroke-width="0" fill="#00c2fb" fill-opacity="0.9686274509803922" />
<path d="M158,-234 L286,-518 L350,-1118 L602,-1190 L378,-1006 L166,-134 Z" stroke-width="0" fill="#901e34" fill-opacity="0.00392156862745098" />
<path d="M706,-822 L190,-398 L254,-1062 L382,-1018 L470,-826 L318,-166 Z" stroke-width="0" fill="#dcf3f5" fill-opacity="0.996078431372549" />
<path d="M778,-1030 L110,-574 L306,-426 L306,-834 L334,-482 L642,-90 Z" stroke-width="0" fill="#ed3100" fill-opacity="0.8784313725490196" />
<path d="M398,-918 L214,-894 L178,-966 L210,-326 L582,-578 L794,-638 Z" stroke-width="0" fill="#96b099" fill-opacity="0.0" />
<path d="M222,-1030 L354,-222 L126,-246 L518,-122 L462,-902 L218,-942 Z" stroke-width="0" fill="#671113" fill-opacity="0.9607843137254902" />
<path d="M810,-806 L218,-214 L694,-114 L266,-806 L342,-1218 L622,-1130 Z" stroke-width="0" fill="#0a060c" fill-opacity="0.047058823529411764" />
<path d="M290,-1226 L218,-1042 L750,-742 L770,-886 L162,-374 L430,-186 Z" stroke-width="0" fill="#d6dae7" fill-opacity="0.8" />
<path d="M374,-214 L218,-1174 L710,-242 L270,-1278 L366,-410 L114,-806 Z" stroke-width="0" fill="#71c496" fill-opacity="0.09411764705882353" />
<path d="M434,-106 L786,-242 L542,-822 L478,-654 L506,-478 L746,-398 Z" stroke-width="0" fill="#e32600" fill-opacity="0.8784313725490196" />
<path d="M762,-1286 L150,-1190 L478,-790 L618,-1218 L538,-946 L498,-1290 Z" stroke-width="0" fill="#d52400" fill-opacity="0.5725490196078431" />
<path d="M318,-1082 L734,-706 L206,-650 L330,-294 L350,-886 L322,-238 Z" stroke-width="0" fill="#f2e20a" fill-opacity="0.9725490196078431" />
<path d="M790,-1302 L370,-182 L362,-154 L546,-622 L174,-766 L246,-738 Z" stroke-width="0" fill="#d95716" fill-opacity="0.8862745098039215" />
<path d="M530,-306 L382,-878 L354,-750 L414,-290 L450,-718 L474,-754 Z" stroke-width="0" fill="#48df3f" fill-opacity="0.2980392156862745" />
<path d="M514,-734 L394,-550 L154,-906 L774,-1290 L374,-346 L394,-1006 Z" stroke-width="0" fill="#e05618" fill-opacity="0.9333333333333333" />
<path d="M222,-1094 L602,-1290 L398,-442 L94,-1182 L606,-1278 L670,-550 Z" stroke-width="0" fill="#e10100" fill-opacity="0.5176470588235295" />
<path d="M198,-306 L210,-710 L98,-314 L98,-1198 L322,-822 L494,-402 Z" stroke-width="0" fill="#dc0000" fill-opacity="0.6274509803921569" />
<path d="M98,-158 L534,-266 L378,-650 L318,-1010 L610,-1234 L350,-854 Z" stroke-width="0" fill="#d9301c" fill-opacity="0.2235294117647059" />
<path d="M722,-546 L534,-246 L146,-710 L698,-894 L366,-1018 L622,-854 Z" stroke-width="0" fill="#b2d02c" fill-opacity="0.8235294117647058" />
<path d="M126,-958 L202,-282 L270,-1162 L554,-562 L370,-1194 L430,-90 Z" stroke-width="0" fill="#e0b5b1" fill-opacity="0.984313725490196" />
<path d="M494,-718 L650,-794 L414,-454 L354,-1106 L382,-386 L110,-978 Z" stroke-width="0" fill="#fc780a" fill-opacity="0.5215686274509804" />
<path d="M126,-630 L426,-662 L242,-458 L294,-1022 L578,-822 L562,-1114 Z" stroke-width="0" fill="#54fcf3" fill-opacity="0.8470588235294118" />
<path d="M574,-830 L702,-250 L234,-938 L530,-306 L270,-1290 L182,-474 Z" stroke-width="0" fill="#060832" fill-opacity="0.17254901960784313" />
<path d="M146,-446 L410,-190 L406,-386 L450,-182 L298,-490 L754,-1106 Z" stroke-width="0" fill="#dafcbf" fill-opacity="0.23529411764705882" />
<path d="M538,-774 L658,-602 L566,-1050 L738,-294 L170,-182 L310,-450 Z" stroke-width="0" fill="#d30104" fill-opacity="0.9411764705882353" />
<path d="M598,-210 L298,-1174 L374,-158 L106,-1262 L346,-90 L810,-886 Z" stroke-width="0" fill="#aac4c1" fill-opacity="0.2196078431372549" />
<path d="M306,-378 L270,-1002 L614,-666 L302,-566 L282,-158 L170,-706 Z" stroke-width="0" fill="#e3f8fc" fill-opacity="0.7764705882352941" />
<path d="M122,-278 L674,-386 L470,-474 L634,-1162 L286,-234 L378,-438 Z" stroke-width="0" fill="#f6f057" fill-opacity="0.9058823529411765" />
<path d="M114,-542 L114,-154 L594,-850 L542,-1078 L118,-1190 L278,-1030 Z" stroke-width="0" fill="#dfe8b0" fill-opacity="0.8666666666666667" />
<path d="M730,-574 L710,-498 L522,-754 L634,-390 L278,-786 L698,-86 Z" stroke-width="0" fill="#f35103" fill-opacity="0.5294117647058824" />
<path d="M410,-766 L530,-254 L150,-826 L378,-962 L530,-1150 L422,-162 Z" stroke-width="0" fill="#ecbdf2" fill-opacity="0.9294117647058824" />
<path d="M422,-1262 L234,-518 L178,-586 L622,-362 L82,-742 L394,-594 Z" stroke-width="0" fill="#bbdaf5" fill-opacity="0.9803921568627451" />
<path d="M518,-590 L202,-882 L422,-874 L330,-970 L154,-670 L162,-990 Z" stroke-width="0" fill="#2113dc" fill-opacity="0.27058823529411763" />
<path d="M534,-290 L266,-430 L658,-350 L382,-278 L522,-1270 L90,-94 Z" stroke-width="0" fill="#5bcec2" fill-opacity="0.1568627450980392" />
<path d="M174,-146 L514,-586 L238,-454 L130,-1174 L566,-862 L542,-278 Z" stroke-width="0" fill="#7b064d" fill-opacity="0.058823529411764705" />
<path d="M422,-1098 L406,-602 L526,-942 L126,-218 L346,-158 L662,-510 Z" stroke-width="0" fill="#fcd4e7" fill-opacity="0.4235294117647059" />
<path d="M202,-182 L570,-266 L562,-1310 L302,-502 L310,-990 L782,-1154 Z" stroke-width="0" fill="#e24600" fill-opacity="0.7294117647058823" />
<path d="M602,-854 L254,-166 L126,-494 L82,-858 L222,-426 L454,-758 Z" stroke-width="0" fill="#868462" fill-opacity="0.9607843137254902" />
<path d="M598,-570 L410,-910 L810,-910 L318,-614 L526,-222 L126,-162 Z" stroke-width="0" fill="#4d8ec6" fill-opacity="0.2901960784313726" />
<path d="M150,-566 L406,-1194 L742,-398 L402,-1210 L182,-1178 L310,-318 Z" stroke-width="0" fill="#5b3b94" fill-opacity="0.7254901960784313" />
<path d="M182,-786 L282,-1102 L406,-534 L666,-346 L738,-1118 L346,-154 Z" stroke-width="0" fill="#dadebb" fill-opacity="0.596078431372549" />
<path d="M738,-978 L514,-630 L446,-1190 L374,-586 L502,-582 L702,-1098 Z" stroke-width="0" fill="#fa9500" fill-opacity="0.9333333333333333" />
<path d="M602,-1134 L290,-270 L526,-134 L634,-830 L370,-702 L130,-770 Z" stroke-width="0" fill="#24000b" fill-opacity="0.8274509803921568" />
<path d="M526,-1302 L258,-1250 L214,-1134 L462,-442 L778,-206 L154,-934 Z" stroke-width="0" fill="#c7aac5" fill-opacity="0.8784313725490196" />
<path d="M422,-526 L114,-158 L310,-394 L750,-366 L114,-162 L394,-302 Z" stroke-width="0" fill="#ef0ead" fill-opacity="0.08235294117647059" />
<path d="M354,-314 L306,-518 L430,-770 L398,-658 L94,-230 L710,-1166 Z" stroke-width="0" fill="#92750d" fill-opacity="0.30196078431372547" />
<path d="M526,-1062 L90,-918 L390,-98 L346,-414 L142,-1126 L398,-722 Z" stroke-width="0" fill="#a55c00" fill-opacity="0.28627450980392155" />
<path d="M102,-886 L614,-642 L234,-1146 L330,-1190 L590,-486 L498,-258 Z" stroke-width="0" fill="#f55c00" fill-opacity="0.23137254901960785" />
<path d="M178,-250 L750,-714 L670,-878 L294,-1122 L454,-206 L282,-746 Z" stroke-width="0" fill="#c1fccf" fill-opacity="0.8588235294117647" />
<path d="M410,-826 L262,-1194 L690,-198 L330,-1046 L550,-950 L670,-662 Z" stroke-width="0" fill="#f6d3bd" fill-opacity="0.9411764705882353" />
<path d="M658,-1174 L322,-182 L670,-1050 L742,-438 L126,-1234 L270,-1130 Z" stroke-width="0" fill="#0d1189" fill-opacity="0.10588235294117647" />
<path d="M758,-274 L802,-706 L358,-566 L774,-510 L742,-490 L730,-862 Z" stroke-width="0" fill="#c4986b" fill-opacity="0.5529411764705883" />
<path d="M390,-642 L90,-514 L102,-730 L174,-958 L214,-586 L530,-958 Z" stroke-width="0" fill="#eff8f7" fill-opacity="0.6941176470588235" />
<path d="M134,-734 L762,-926 L350,-222 L586,-674 L466,-478 L154,-1258 Z" stroke-width="0" fill="#db4d0b" fill-opacity="0.8901960784313725" />
<path d="M578,-778 L462,-166 L142,-182 L506,-686 L286,-718 L166,-550 Z" stroke-width="0" fill="#edfbfe" fill-opacity="0.9450980392156862" />
<path d="M110,-770 L710,-914 L278,-598 L282,-1174 L102,-1166 L670,-582 Z" stroke-width="0" fill="#ece44e" fill-opacity="0.8274509803921568" />
<path d="M794,-238 L162,-214 L210,-750 L242,-602 L222,-90 L714,-406 Z" stroke-width="0" fill="#39110c" fill-opacity="0.09019607843137255" />
<path d="M202,-846 L98,-1242 L274,-1198 L518,-430 L406,-762 L538,-1130 Z" stroke-width="0" fill="#0b0900" fill-opacity="0.5019607843137255" />
<path d="M310,-946 L438,-1194 L506,-1218 L134,-358 L238,-158 L222,-458 Z" stroke-width="0" fill="#f2dadd" fill-opacity="0.8941176470588236" />
<path d="M222,-154 L622,-502 L174,-1214 L126,-510 L530,-106 L578,-746 Z" stroke-width="0" fill="#bfaf72" fill-opacity="0.054901960784313725" />
<path d="M694,-450 L694,-234 L490,-482 L746,-1074 L534,-238 L234,-1034 Z" stroke-width="0" fill="#b10e00" fill-opacity="0.9019607843137255" />
<path d="M518,-878 L546,-286 L678,-398 L322,-1294 L154,-1078 L558,-922 Z" stroke-width="0" fill="#d9d4e8" fill-opacity="0.6" />
<path d="M502,-654 L518,-826 L134,-1154 L438,-294 L678,-874 L142,-142 Z" stroke-width="0" fill="#d85f00" fill-opacity="0.9764705882352941" />
<path d="M670,-174 L706,-1302 L238,-438 L662,-986 L450,-1218 L762,-898 Z" stroke-width="0" fill="#dd4600" fill-opacity="0.8431372549019608" />
<path d="M330,-486 L718,-406 L626,-838 L130,-306 L130,-1102 L290,-118 Z" stroke-width="0" fill="#9defb6" fill-opacity="0.023529411764705882" />
<path d="M530,-150 L526,-370 L790,-1110 L90,-1014 L526,-750 L442,-710 Z" stroke-width="0" fill="#e94e00" fill-opacity="0.8392156862745098" />
<path d="M122,-134 L442,-1198 L394,-1170 L606,-1130 L330,-622 L178,-178 Z" stroke-width="0" fill="#eefd84" fill-opacity="0.8588235294117647" />
<path d="M218,-718 L194,-402 L242,-1090 L614,-966 L558,-338 L502,-954 Z" stroke-width="0" fill="#06b1c0" fill-opacity="0.5607843137254902" />
<path d="M454,-394 L426,-566 L690,-622 L430,-162 L466,-490 L334,-498 Z" stroke-width="0" fill="#e03400" fill-opacity="0.592156862745098" />
<path d="M270,-794 L98,-766 L354,-138 L434,-846 L386,-710 L158,-1250 Z" stroke-width="0" fill="#fbcdfc" fill-opacity="0.043137254901960784" />
<path d="M334,-786 L434,-790 L470,-902 L186,-914 L122,-282 L98,-654 Z" stroke-width="0" fill="#efecfe" fill-opacity="0.4392156862745098" />
<path d="M190,-106 L762,-346 L446,-686 L170,-394 L154,-302 L434,-622 Z" stroke-width="0" fill="#a4d255" fill-opacity="0.054901960784313725" />
<path d="M218,-1062 L438,-1282 L514,-554 L382,-794 L726,-846 L254,-234 Z" stroke-width="0" fill="#eeefe4" fill-opacity="0.7607843137254902" />
<path d="M150,-1058 L134,-634 L778,-618 L298,-718 L350,-826 L466,-138 Z" stroke-width="0" fill="#e7a406" fill-opacity="0.20784313725490197" />
<path d="M390,-938 L678,-1110 L470,-130 L586,-1246 L450,-1226 L734,-342 Z" stroke-width="0" fill="#b483f9" fill-opacity="0.027450980392156862" />
<path d="M438,-522 L138,-214 L594,-410 L766,-518 L774,-770 L218,-98 Z" stroke-width="0" fill="#791a14" fill-opacity="0.0" />
<path d="M338,-162 L810,-114 L258,-766 L710,-246 L118,-362 L298,-1142 Z" stroke-width="0" fill="#9dc486" fill-opacity="0.10196078431372549" />
<path d="M418,-386 L442,-606 L298,-394 L310,-186 L354,-366 L658,-198 Z" stroke-width="0" fill="#aa6900" fill-opacity="0.11764705882352941" />
<path d="M666,-658 L358,-550 L694,-934 L530,-1098 L238,-146 L330,-866 Z" stroke-width="0" fill="#2f2549" fill-opacity="0.11764705882352941" />
<path d="M482,-302 L242,-1002 L90,-254 L790,-558 L734,-942 L286,-446 Z" stroke-width="0" fill="#e5d3d1" fill-opacity="0.9450980392156862" />
<path d="M694,-1026 L206,-354 L242,-158 L550,-926 L262,-94 L130,-1110 Z" stroke-width="0" fill="#e8594b" fill-opacity="0.16470588235294117" />
<path d="M318,-1314 L794,-398 L650,-146 L302,-618 L366,-578 L226,-266 Z" stroke-width="0" fill="#e2f9be" fill-opacity="0.16470588235294117" />
<path d="M458,-230 L450,-190 L682,-90 L706,-562 L502,-662 L522,-86 Z" stroke-width="0" fill="#d7561d" fill-opacity="0.5882352941176471" />
<path d="M342,-742 L454,-922 L106,-118 L194,-134 L806,-1166 L122,-670 Z" stroke-width="0" fill="#9a1701" fill-opacity="0.19215686274509805" />
<path d="M230,-906 L658,-566 L170,-1134 L238,-1174 L338,-946 L170,-1142 Z" stroke-width="0" fill="#ec1908" fill-opacity="0.7686274509803922" />
<path d="M358,-562 L510,-1202 L94,-1086 L790,-350 L274,-1250 L214,-922 Z" stroke-width="0" fill="#b9dbed" fill-opacity="0.1843137254901961" />
<path d="M434,-854 L246,-118 L138,-778 L786,-1014 L690,-1074 L790,-834 Z" stroke-width="0" fill="#e0e4da" fill-opacity="0.7450980392156863" />
<path d="M626,-1006 L754,-82 L702,-538 L630,-238 L234,-862 L794,-1186 Z" stroke-width="0" fill="#e66f1f" fill-opacity="0.22745098039215686" />
<path d="M714,-194 L554,-906 L314,-658 L618,-1210 L678,-1242 L766,-1126 Z" stroke-width="0" fill="#c9f1dd" fill-opacity="0.08235294117647059" />
<path d="M414,-354 L294,-1114 L558,-366 L622,-1114 L222,-478 L686,-706 Z" stroke-width="0" fill="#d4430b" fill-opacity="0.5294117647058824" />
<path d="M154,-274 L766,-970 L686,-278 L310,-418 L194,-198 L378,-398 Z" stroke-width="0" fill="#cbe4e3" fill-opacity="0.07450980392156863" />
<path d="M558,-958 L370,-834 L158,-550 L226,-518 L334,-1214 L570,-826 Z" stroke-width="0" fill="#2ec2ee" fill-opacity="0.0196078431372549" />
<path d="M210,-190 L310,-606 L746,-298 L402,-1234 L382,-318 L594,-986 Z" stroke-width="0" fill="#d19306" fill-opacity="0.3058823529411765" />
<path d="M242,-618 L322,-222 L534,-286 L394,-118 L410,-990 L382,-766 Z" stroke-width="0" fill="#a345c1" fill-opacity="0.09019607843137255" />
<path d="M106,-1254 L302,-894 L430,-1162 L370,-682 L718,-274 L246,-998 Z" stroke-width="0" fill="#ba4200" fill-opacity="0.7803921568627451" />
<text x="448.0" y="0" font-size="70.0" fill="black" text-anchor="middle" transform="translate(0,17.5)">KNIGHT OF EARTH</text>
</svg>