<?xml version="1.0" encoding="UTF-8"?>
<svg xmlns="http://www.w3.org/2000/svg" xmlns:xlink="http://www.w3.org/1999/xlink"
     width="896" height="1496" viewBox="0 -1400 896 1496" style="font-size:70;font-family:Poor Richard, Times New Roman;stroke:black;stroke-width:1;fill:none">
<defs>
</defs>
<path d="M126,-846 L770,-254 L662,-378 L946,-366 L242,-146 L130,-490 Z" stroke-width="0" fill="#7ffbe1" fill-opacity="0.3176470588235294" />
<path d="M270,-82 L794,-594 L806,-258 L458,-818 L250,-526 L430,-262 Z" stroke-width="0" fill="#001d99" fill-opacity="0.5019607843137255" />
<path d="M726,-810 L954,-938 L866,-1010 L542,-1026 L858,-378 L630,-750 Z" stroke-width="0" fill="#0002ea" fill-opacity="0.30196078431372547" />
<path d="M402,-242 L286,-1062 L714,-326 L918,-422 L334,-410 L334,-494 Z" stroke-width="0" fill="#070bdf" fill-opacity="0.9607843137254902" />
<path d="M102,-1106 L294,-854 L370,-674 L722,-706 L594,-1250 L530,-306 Z" stroke-width="0" fill="#0092d9" fill-opacity="0.8392156862745098" />
<path d="M782,-1050 L146,-718 L670,-762 L414,-1106 L250,-982 L514,-1130 Z" stroke-width="0" fill="#f7f92c" fill-opacity="0.8862745098039215" />
<path d="M602,-518 L134,-1254 L262,-1106 L582,-838 L474,-542 L454,-1166 Z" stroke-width="0" fill="#0066eb" fill-opacity="0.6862745098039216" />
<path d="M706,-170 L446,-1262 L338,-446 L938,-386 L158,-1122 L442,-806 Z" stroke-width="0" fill="#3d3b6a" fill-opacity="0.9098039215686274" />
<path d="M298,-666 L206,-198 L258,-390 L606,-638 L606,-978 L438,-742 Z" stroke-width="0" fill="#38f1cc" fill-opacity="0.5882352941176471" />
<path d="M418,-710 L754,-314 L434,-946 L658,-1118 L506,-346 L866,-378 Z" stroke-width="0" fill="#14f7fd" fill-opacity="0.9607843137254902" />
<path d="M150,-426 L182,-498 L862,-1262 L726,-1170 L690,-622 L370,-242 Z" stroke-width="0" fill="#003da6" fill-opacity="0.8666666666666667" />
<path d="M258,-254 L270,-762 L206,-1142 L546,-326 L618,-618 L462,-442 Z" stroke-width="0" fill="#0473e7" fill-opacity="0.9607843137254902" />
<path d="M486,-154 L458,-534 L410,-1170 L666,-502 L238,-102 L250,-362 Z" stroke-width="0" fill="#00aefb" fill-opacity="0.6901960784313725" />
<path d="M510,-618 L730,-298 L574,-458 L410,-554 L210,-518 L430,-786 Z" stroke-width="0" fill="#c2b40b" fill-opacity="0.3137254901960784" />
<path d="M766,-1262 L414,-390 L974,-250 L714,-626 L670,-286 L446,-590 Z" stroke-width="0" fill="#0269c9" fill-opacity="0.9176470588235294" />
<path d="M890,-558 L538,-1222 L126,-126 L718,-894 L774,-730 L366,-1082 Z" stroke-width="0" fill="#00afe1" fill-opacity="0.5019607843137255" />
<path d="M742,-146 L530,-1262 L110,-262 L822,-1094 L750,-82 L694,-934 Z" stroke-width="0" fill="#194295" fill-opacity="0.7333333333333333" />
<path d="M298,-222 L886,-794 L602,-1130 L94,-854 L334,-810 L622,-458 Z" stroke-width="0" fill="#eaface" fill-opacity="0.00784313725490196" />
<path d="M378,-1046 L334,-238 L498,-958 L398,-822 L518,-1058 L534,-1030 Z" stroke-width="0" fill="#56a24c" fill-opacity="0.27450980392156865" />
<path d="M522,-94 L86,-866 L586,-918 L954,-626 L826,-546 L282,-850 Z" stroke-width="0" fill="#4aafe8" fill-opacity="0.5019607843137255" />
<path d="M438,-106 L486,-454 L686,-954 L474,-102 L450,-310 L370,-934 Z" stroke-width="0" fill="#004bbb" fill-opacity="0.6509803921568628" />
<path d="M510,-926 L906,-370 L338,-1038 L242,-238 L738,-318 L966,-1214 Z" stroke-width="0" fill="#0051bd" fill-opacity="0.9058823529411765" />
<path d="M218,-750 L550,-454 L666,-1250 L202,-606 L762,-126 L730,-1114 Z" stroke-width="0" fill="#000099" fill-opacity="0.5411764705882353" />
<path d="M94,-706 L446,-634 L890,-658 L790,-826 L158,-570 L410,-922 Z" stroke-width="0" fill="#b9cf95" fill-opacity="0.14901960784313725" />
<path d="M766,-902 L298,-586 L346,-870 L86,-1022 L374,-1074 L526,-854 Z" stroke-width="0" fill="#00f3f2" fill-opacity="0.47843137254901963" />
<path d="M822,-442 L374,-662 L190,-1138 L798,-1054 L134,-466 L594,-114 Z" stroke-width="0" fill="#004ed1" fill-opacity="0.8784313725490196" />
<path d="M250,-266 L938,-450 L974,-1178 L402,-706 L290,-622 L534,-282 Z" stroke-width="0" fill="#004e7e" fill-opacity="0.7019607843137254" />
<path d="M534,-790 L810,-1122 L718,-250 L290,-1018 L338,-262 L366,-718 Z" stroke-width="0" fill="#004ae1" fill-opacity="0.9882352941176471" />
<path d="M662,-126 L302,-582 L238,-390 L958,-886 L594,-1122 L90,-174 Z" stroke-width="0" fill="#005e9a" fill-opacity="0.6549019607843137" />
<path d="M190,-1270 L838,-130 L902,-302 L402,-1190 L142,-790 L462,-86 Z" stroke-width="0" fill="#1452f8" fill-opacity="0.7372549019607844" />
<path d="M94,-246 L86,-734 L842,-430 L758,-730 L374,-654 L202,-1006 Z" stroke-width="0" fill="#001700" fill-opacity="0.3176470588235294" />
<path d="M890,-182 L434,-618 L198,-234 L442,-234 L650,-126 L482,-1126 Z" stroke-width="0" fill="#29fbee" fill-opacity="0.9333333333333333" />
<path d="M186,-470 L738,-822 L586,-326 L718,-198 L494,-154 L514,-638 Z" stroke-width="0" fill="#113a5e" fill-opacity="0.615686274509804" />
<path d="M370,-394 L414,-326 L662,-106 L854,-990 L714,-234 L486,-918 Z" stroke-width="0" fill="#a55cb3" fill-opacity="0.6431372549019608" />
<path d="M318,-678 L894,-986 L478,-110 L926,-90 L518,-1118 L766,-946 Z" stroke-width="0" fill="#0072a1" fill-opacity="0.9372549019607843" />
<path d="M486,-406 L534,-714 L178,-382 L566,-382 L846,-842 L458,-446 Z" stroke-width="0" fill="#e6f19d" fill-opacity="0.9764705882352941" />
<path d="M358,-282 L590,-346 L714,-586 L438,-174 L790,-794 L406,-446 Z" stroke-width="0" fill="#207445" fill-opacity="0.3215686274509804" />
<path d="M322,-298 L278,-110 L162,-858 L678,-762 L742,-210 L598,-222 Z" stroke-width="0" fill="#00eacc" fill-opacity="0.7529411764705882" />
<path d="M126,-1234 L234,-106 L646,-250 L498,-1050 L650,-146 L654,-274 Z" stroke-width="0" fill="#0023da" fill-opacity="0.5372549019607843" />
<path d="M878,-190 L970,-790 L666,-466 L714,-738 L738,-262 L82,-1130 Z" stroke-width="0" fill="#dc680f" fill-opacity="0.3686274509803922" />
<path d="M170,-254 L822,-634 L802,-1274 L706,-1030 L842,-790 L214,-578 Z" stroke-width="0" fill="#005aba" fill-opacity="0.9568627450980393" />
<path d="M102,-506 L350,-102 L282,-398 L282,-1034 L838,-154 L462,-1066 Z" stroke-width="0" fill="#fed1ec" fill-opacity="0.34509803921568627" />
<path d="M762,-566 L350,-854 L670,-738 L590,-1182 L266,-158 L226,-318 Z" stroke-width="0" fill="#00e45c" fill-opacity="0.21568627450980393" />
<path d="M470,-1074 L962,-98 L122,-726 L582,-750 L594,-670 L622,-1014 Z" stroke-width="0" fill="#0080e9" fill-opacity="0.9176470588235294" />
<path d="M162,-314 L210,-274 L838,-1218 L502,-430 L590,-1006 L786,-130 Z" stroke-width="0" fill="#1a5ba5" fill-opacity="0.8431372549019608" />
<path d="M386,-390 L414,-1226 L750,-1194 L914,-1098 L910,-1178 L98,-1054 Z" stroke-width="0" fill="#0062b8" fill-opacity="0.7607843137254902" />
<path d="M314,-650 L710,-510 L170,-626 L426,-262 L510,-1230 L102,-706 Z" stroke-width="0" fill="#a18d8f" fill-opacity="0.8705882352941177" />
<path d="M630,-1222 L446,-1006 L762,-566 L602,-758 L606,-462 L938,-978 Z" stroke-width="0" fill="#005bbc" fill-opacity="0.8509803921568627" />
<path d="M470,-818 L258,-326 L818,-206 L522,-742 L766,-634 L614,-1002 Z" stroke-width="0" fill="#8ce2dd" fill-opacity="0.5019607843137255" />
<path d="M390,-1262 L206,-258 L558,-1190 L570,-1198 L270,-730 L338,-378 Z" stroke-width="0" fill="#8a68a0" fill-opacity="0.8313725490196079" />
<path d="M514,-1158 L302,-498 L286,-370 L802,-1034 L310,-1070 L458,-1034 Z" stroke-width="0" fill="#f5c075" fill-opacity="0.792156862745098" />
<path d="M466,-926 L642,-570 L806,-618 L186,-522 L698,-834 L298,-158 Z" stroke-width="0" fill="#fbcbbb" fill-opacity="0.9019607843137255" />
<path d="M270,-602 L866,-946 L878,-1226 L770,-762 L762,-330 L478,-450 Z" stroke-width="0" fill="#005f99" fill-opacity="0.7137254901960784" />
<path d="M182,-1278 L650,-446 L218,-366 L138,-534 L378,-786 L838,-274 Z" stroke-width="0" fill="#a2feef" fill-opacity="0.15294117647058825" />
<path d="M670,-150 L742,-778 L366,-642 L558,-506 L642,-698 L402,-1238 Z" stroke-width="0" fill="#a0b908" fill-opacity="0.0392156862745098" />
<path d="M254,-1090 L374,-910 L242,-850 L410,-1190 L462,-674 L190,-150 Z" stroke-width="0" fill="#645c68" fill-opacity="0.5019607843137255" />
<path d="M330,-558 L362,-570 L822,-138 L598,-834 L602,-1030 L198,-394 Z" stroke-width="0" fill="#0c9dd8" fill-opacity="0.16862745098039217" />
<path d="M254,-910 L254,-342 L430,-606 L550,-674 L730,-838 L494,-202 Z" stroke-width="0" fill="#d36d09" fill-opacity="0.8980392156862745" />
<path d="M746,-786 L82,-878 L942,-886 L754,-802 L926,-190 L626,-554 Z" stroke-width="0" fill="#3d8bcb" fill-opacity="0.9411764705882353" />
<path d="M550,-538 L514,-374 L754,-930 L762,-118 L894,-870 L246,-1130 Z" stroke-width="0" fill="#d5ab7f" fill-opacity="0.6627450980392157" />
<path d="M254,-1178 L586,-194 L846,-1038 L186,-1158 L846,-594 L506,-146 Z" stroke-width="0" fill="#f9830d" fill-opacity="0.3058823529411765" />
<path d="M806,-982 L458,-118 L626,-710 L102,-290 L666,-114 L646,-402 Z" stroke-width="0" fill="#6f9de3" fill-opacity="0.26666666666666666" />
<path d="M222,-594 L526,-466 L558,-1250 L234,-298 L502,-242 L318,-210 Z" stroke-width="0" fill="#4b897e" fill-opacity="0.7725490196078432" />
<path d="M282,-1138 L962,-446 L82,-794 L830,-1166 L978,-974 L510,-842 Z" stroke-width="0" fill="#007de4" fill-opacity="0.2235294117647059" />
<path d="M642,-462 L970,-530 L882,-146 L482,-1054 L206,-1234 L226,-446 Z" stroke-width="0" fill="#19e769" fill-opacity="0.2196078431372549" />
<path d="M106,-150 L850,-786 L890,-590 L654,-746 L746,-238 L702,-446 Z" stroke-width="0" fill="#08795d" fill-opacity="0.32941176470588235" />
<path d="M158,-174 L450,-498 L714,-142 L418,-354 L338,-902 L854,-630 Z" stroke-width="0" fill="#02a4de" fill-opacity="0.06666666666666667" />
<path d="M406,-1250 L682,-422 L118,-130 L570,-302 L742,-1150 L298,-146 Z" stroke-width="0" fill="#4c7982" fill-opacity="0.5647058823529412" />
<path d="M730,-938 L542,-334 L230,-522 L542,-214 L966,-410 L438,-866 Z" stroke-width="0" fill="#a3d7c0" fill-opacity="0.9372549019607843" />
<path d="M770,-666 L494,-794 L762,-774 L634,-846 L502,-230 L122,-782 Z" stroke-width="0" fill="#6fdd2d" fill-opacity="0.2235294117647059" />
<path d="M446,-802 L638,-954 L498,-206 L226,-102 L258,-1206 L602,-838 Z" stroke-width="0" fill="#0058b3" fill-opacity="0.615686274509804" />
<path d="M926,-690 L466,-822 L558,-1226 L330,-570 L478,-382 L510,-230 Z" stroke-width="0" fill="#0a2437" fill-opacity="0.34901960784313724" />
<path d="M138,-1242 L494,-246 L886,-478 L214,-810 L406,-1266 L826,-434 Z" stroke-width="0" fill="#d4ae6b" fill-opacity="0.5019607843137255" />
<path d="M98,-442 L794,-610 L378,-754 L334,-790 L402,-346 L422,-150 Z" stroke-width="0" fill="#4f677d" fill-opacity="0.796078431372549" />
<path d="M518,-146 L426,-682 L594,-818 L98,-858 L746,-894 L502,-922 Z" stroke-width="0" fill="#053076" fill-opacity="0.4588235294117647" />
<path d="M586,-466 L138,-194 L710,-518 L382,-1054 L566,-426 L966,-434 Z" stroke-width="0" fill="#8e40e3" fill-opacity="0.08235294117647059" />
<path d="M178,-618 L630,-186 L410,-842 L514,-214 L342,-142 L466,-130 Z" stroke-width="0" fill="#3d73c0" fill-opacity="0.7607843137254902" />
<path d="M814,-290 L170,-794 L606,-726 L614,-618 L494,-1162 L474,-294 Z" stroke-width="0" fill="#7a9aca" fill-opacity="0.5607843137254902" />
<path d="M230,-762 L826,-150 L302,-178 L514,-502 L178,-782 L494,-962 Z" stroke-width="0" fill="#29c2d9" fill-opacity="0.4745098039215686" />
<path d="M90,-890 L670,-758 L342,-346 L430,-874 L406,-982 L766,-966 Z" stroke-width="0" fill="#a08c52" fill-opacity="0.5019607843137255" />
<path d="M170,-858 L786,-498 L674,-710 L94,-82 L778,-782 L870,-686 Z" stroke-width="0" fill="#386e5d" fill-opacity="0.8980392156862745" />
<path d="M90,-1210 L602,-922 L638,-1018 L914,-274 L82,-1266 L914,-322 Z" stroke-width="0" fill="#c02248" fill-opacity="0.027450980392156862" />
<path d="M834,-770 L870,-970 L182,-202 L470,-98 L318,-150 L878,-942 Z" stroke-width="0" fill="#83a8eb" fill-opacity="0.47058823529411764" />
<path d="M782,-474 L194,-342 L718,-578 L414,-638 L942,-330 L450,-138 Z" stroke-width="0" fill="#324bd5" fill-opacity="0.2823529411764706" />
<path d="M102,-246 L262,-1210 L254,-530 L926,-922 L962,-282 L146,-1210 Z" stroke-width="0" fill="#e27e8b" fill-opacity="0.2" />
<path d="M706,-574 L550,-934 L714,-714 L698,-506 L606,-498 L214,-462 Z" stroke-width="0" fill="#f2d4a2" fill-opacity="0.803921568627451" />
<path d="M742,-570 L250,-946 L162,-642 L338,-946 L678,-886 L286,-202 Z" stroke-width="0" fill="#968301" fill-opacity="0.07450980392156863" />
<path d="M658,-1214 L718,-958 L514,-258 L354,-802 L462,-358 L622,-1058 Z" stroke-width="0" fill="#a95a09" fill-opacity="0.11372549019607843" />
<path d="M578,-374 L486,-118 L510,-798 L98,-374 L262,-1042 L294,-406 Z" stroke-width="0" fill="#f26b67" fill-opacity="0.15294117647058825" />
<path d="M226,-462 L358,-1102 L958,-182 L774,-634 L270,-442 L686,-1210 Z" stroke-width="0" fill="#216dc5" fill-opacity="0.2" />
<path d="M846,-702 L966,-578 L210,-710 L766,-1046 L226,-322 L114,-1206 Z" stroke-width="0" fill="#c0b6bd" fill-opacity="0.5019607843137255" />
<path d="M378,-298 L554,-246 L470,-938 L122,-282 L306,-846 L734,-366 Z" stroke-width="0" fill="#dd34d4" fill-opacity="0.043137254901960784" />
<path d="M530,-306 L882,-518 L710,-638 L574,-738 L598,-1082 L706,-170 Z" stroke-width="0" fill="#d79f6d" fill-opacity="0.12156862745098039" />
<path d="M174,-490 L162,-406 L530,-566 L922,-934 L726,-530 L886,-526 Z" stroke-width="0" fill="#e78252" fill-opacity="0.1843137254901961" />
<path d="M634,-966 L226,-814 L390,-866 L754,-770 L466,-922 L694,-726 Z" stroke-width="0" fill="#b0aa5b" fill-opacity="0.8470588235294118" />
<path d="M710,-674 L94,-358 L842,-654 L90,-438 L330,-622 L542,-718 Z" stroke-width="0" fill="#f2f7ee" fill-opacity="0.08627450980392157" />
<path d="M718,-922 L102,-978 L490,-286 L586,-886 L354,-746 L622,-302 Z" stroke-width="0" fill="#9f98a7" fill-opacity="0.25882352941176473" />
<path d="M322,-1222 L738,-906 L586,-1194 L514,-278 L182,-782 L258,-1130 Z" stroke-width="0" fill="#898c6d" fill-opacity="0.25882352941176473" />
<path d="M462,-550 L210,-1138 L574,-690 L818,-230 L138,-1250 L442,-686 Z" stroke-width="0" fill="#0d4120" fill-opacity="0.047058823529411764" />
<path d="M806,-1242 L570,-506 L294,-190 L318,-1046 L302,-314 L842,-742 Z" stroke-width="0" fill="#4e7a6c" fill-opacity="0.30196078431372547" />
<text x="448.0" y="0" font-size="70.0" fill="black" text-anchor="middle" transform="translate(0,17.5)">6 OF EARTH</text>
</svg>