<?xml version="1.0" encoding="UTF-8"?>
<svg xmlns="http://www.w3.org/2000/svg" xmlns:xlink="http://www.w3.org/1999/xlink"
     width="896" height="1496" viewBox="0 -1400 896 1496" style="font-size:70;font-family:Poor Richard, Times New Roman;stroke:black;stroke-width:1;fill:none">
<defs>
</defs>
<path d="M542,-102 L638,-1114 L422,-478 L218,-126 L826,-722 L786,-234 Z" stroke-width="0" fill="#000000" fill-opacity="0.9725490196078431" />
<path d="M338,-378 L618,-594 L182,-986 L742,-182 L762,-1126 L686,-454 Z" stroke-width="0" fill="#211a05" fill-opacity="1.0" />
<path d="M482,-370 L346,-534 L190,-150 L878,-738 L602,-102 L130,-670 Z" stroke-width="0" fill="#000000" fill-opacity="0.8745098039215686" />
<path d="M474,-182 L458,-998 L318,-826 L274,-1134 L90,-414 L810,-470 Z" stroke-width="0" fill="#07001b" fill-opacity="0.8" />
<path d="M334,-254 L722,-178 L766,-626 L238,-614 L370,-334 L734,-1254 Z" stroke-width="0" fill="#0000f8" fill-opacity="0.9058823529411765" />
<path d="M510,-654 L790,-210 L470,-1138 L742,-398 L606,-790 L110,-330 Z" stroke-width="0" fill="#ca0d39" fill-opacity="0.36470588235294116" />
<path d="M126,-586 L710,-858 L618,-1166 L958,-1126 L746,-698 L174,-262 Z" stroke-width="0" fill="#300044" fill-opacity="0.5058823529411764" />
<path d="M494,-994 L282,-266 L822,-918 L230,-1142 L138,-1122 L586,-650 Z" stroke-width="0" fill="#170003" fill-opacity="0.8" />
<path d="M478,-518 L662,-242 L374,-374 L550,-342 L462,-722 L126,-302 Z" stroke-width="0" fill="#a2928d" fill-opacity="0.36470588235294116" />
<path d="M954,-554 L262,-542 L366,-662 L558,-1094 L102,-230 L910,-938 Z" stroke-width="0" fill="#0c051e" fill-opacity="0.9764705882352941" />
<path d="M586,-166 L662,-754 L726,-846 L374,-818 L434,-314 L710,-998 Z" stroke-width="0" fill="#976fc7" fill-opacity="0.32941176470588235" />
<path d="M534,-1102 L770,-298 L470,-898 L258,-714 L134,-1274 L958,-794 Z" stroke-width="0" fill="#000502" fill-opacity="0.9921568627450981" />
<path d="M230,-290 L578,-514 L190,-318 L366,-958 L358,-722 L654,-878 Z" stroke-width="0" fill="#08cec2" fill-opacity="0.050980392156862744" />
<path d="M478,-110 L374,-86 L790,-302 L222,-470 L714,-466 L298,-1182 Z" stroke-width="0" fill="#000000" fill-opacity="0.7294117647058823" />
<path d="M850,-882 L746,-150 L790,-822 L106,-706 L86,-154 L682,-682 Z" stroke-width="0" fill="#180002" fill-opacity="0.9568627450980393" />
<path d="M970,-498 L418,-714 L146,-1126 L766,-134 L190,-850 L250,-502 Z" stroke-width="0" fill="#420048" fill-opacity="0.6784313725490196" />
<path d="M870,-170 L166,-302 L842,-1234 L258,-1254 L90,-126 L838,-542 Z" stroke-width="0" fill="#1b003a" fill-opacity="0.996078431372549" />
<path d="M446,-514 L290,-242 L330,-862 L250,-250 L450,-446 L426,-858 Z" stroke-width="0" fill="#0826cd" fill-opacity="0.2" />
<path d="M270,-302 L274,-686 L122,-750 L478,-366 L286,-382 L378,-1078 Z" stroke-width="0" fill="#6e7012" fill-opacity="0.788235294117647" />
<path d="M306,-646 L450,-1146 L282,-1054 L158,-1054 L270,-830 L498,-314 Z" stroke-width="0" fill="#8b0096" fill-opacity="0.8862745098039215" />
<path d="M742,-614 L642,-510 L786,-1238 L514,-862 L722,-90 L518,-1026 Z" stroke-width="0" fill="#2f0065" fill-opacity="0.984313725490196" />
<path d="M198,-454 L206,-146 L342,-562 L758,-1014 L186,-130 L474,-394 Z" stroke-width="0" fill="#000000" fill-opacity="0.8313725490196079" />
<path d="M638,-878 L170,-198 L258,-918 L286,-494 L534,-766 L382,-1002 Z" stroke-width="0" fill="#eaeee3" fill-opacity="0.7294117647058823" />
<path d="M186,-162 L686,-610 L242,-226 L846,-846 L210,-350 L122,-826 Z" stroke-width="0" fill="#0d0a02" fill-opacity="0.8823529411764706" />
<path d="M94,-130 L170,-666 L782,-1134 L738,-786 L558,-1190 L342,-562 Z" stroke-width="0" fill="#000009" fill-opacity="0.9490196078431372" />
<path d="M170,-1158 L122,-150 L898,-1170 L818,-122 L434,-1026 L246,-478 Z" stroke-width="0" fill="#0f00b5" fill-opacity="0.6980392156862745" />
<path d="M950,-810 L666,-206 L870,-762 L330,-742 L218,-174 L198,-1146 Z" stroke-width="0" fill="#00001b" fill-opacity="0.9411764705882353" />
<path d="M966,-98 L770,-322 L646,-1242 L234,-754 L718,-594 L430,-370 Z" stroke-width="0" fill="#101914" fill-opacity="0.9725490196078431" />
<path d="M498,-122 L206,-810 L378,-374 L450,-234 L330,-250 L86,-306 Z" stroke-width="0" fill="#141742" fill-opacity="0.9764705882352941" />
<path d="M578,-338 L498,-382 L162,-982 L326,-538 L702,-690 L282,-222 Z" stroke-width="0" fill="#e50faf" fill-opacity="0.19215686274509805" />
<path d="M618,-870 L538,-966 L494,-422 L350,-214 L246,-250 L630,-1230 Z" stroke-width="0" fill="#f6f9fc" fill-opacity="0.9686274509803922" />
<path d="M658,-286 L762,-666 L418,-538 L422,-886 L974,-630 L666,-530 Z" stroke-width="0" fill="#000024" fill-opacity="0.8784313725490196" />
<path d="M954,-690 L274,-170 L138,-222 L86,-826 L490,-934 L522,-306 Z" stroke-width="0" fill="#100017" fill-opacity="0.9372549019607843" />
<path d="M290,-370 L314,-534 L578,-930 L142,-110 L658,-1126 L278,-550 Z" stroke-width="0" fill="#000033" fill-opacity="0.9568627450980393" />
<path d="M90,-614 L826,-1238 L514,-1002 L782,-366 L842,-150 L414,-94 Z" stroke-width="0" fill="#000000" fill-opacity="0.9333333333333333" />
<path d="M294,-982 L902,-1230 L702,-230 L474,-1210 L394,-1254 L730,-990 Z" stroke-width="0" fill="#000037" fill-opacity="0.9411764705882353" />
<path d="M630,-1190 L650,-1266 L458,-614 L834,-666 L406,-634 L150,-178 Z" stroke-width="0" fill="#82a6f2" fill-opacity="0.8941176470588236" />
<path d="M318,-258 L686,-702 L886,-598 L630,-250 L162,-822 L702,-206 Z" stroke-width="0" fill="#0618f5" fill-opacity="0.6980392156862745" />
<path d="M594,-466 L286,-1066 L366,-566 L258,-578 L258,-838 L214,-1138 Z" stroke-width="0" fill="#e11b29" fill-opacity="0.047058823529411764" />
<path d="M310,-294 L170,-1050 L102,-122 L322,-614 L870,-706 L214,-242 Z" stroke-width="0" fill="#410004" fill-opacity="0.2235294117647059" />
<path d="M142,-1006 L694,-398 L474,-1082 L234,-766 L834,-582 L178,-346 Z" stroke-width="0" fill="#6a00e2" fill-opacity="0.8862745098039215" />
<path d="M798,-586 L866,-270 L122,-458 L878,-1046 L434,-182 L914,-414 Z" stroke-width="0" fill="#d9ffff" fill-opacity="0.7490196078431373" />
<path d="M350,-130 L122,-642 L238,-158 L170,-970 L706,-1122 L278,-1274 Z" stroke-width="0" fill="#000046" fill-opacity="0.9450980392156862" />
<path d="M822,-1234 L938,-182 L82,-602 L294,-1274 L246,-978 L498,-934 Z" stroke-width="0" fill="#090745" fill-opacity="0.5647058823529412" />
<path d="M314,-794 L210,-450 L446,-586 L178,-930 L454,-650 L694,-1062 Z" stroke-width="0" fill="#0bc633" fill-opacity="0.4196078431372549" />
<path d="M506,-786 L742,-578 L186,-954 L330,-1038 L446,-898 L474,-94 Z" stroke-width="0" fill="#042a08" fill-opacity="0.9529411764705882" />
<path d="M558,-170 L810,-126 L646,-254 L446,-606 L682,-1186 L190,-1014 Z" stroke-width="0" fill="#0d0700" fill-opacity="0.9568627450980393" />
<path d="M926,-834 L898,-430 L706,-926 L466,-470 L454,-994 L806,-926 Z" stroke-width="0" fill="#000000" fill-opacity="0.6980392156862745" />
<path d="M578,-662 L94,-462 L426,-646 L126,-1250 L818,-346 L686,-666 Z" stroke-width="0" fill="#05042a" fill-opacity="1.0" />
<path d="M658,-1262 L146,-902 L590,-326 L754,-754 L578,-434 L82,-1198 Z" stroke-width="0" fill="#190548" fill-opacity="0.8980392156862745" />
<path d="M554,-650 L590,-854 L834,-218 L554,-106 L394,-226 L282,-406 Z" stroke-width="0" fill="#010e16" fill-opacity="0.6078431372549019" />
<path d="M806,-1078 L518,-542 L758,-298 L498,-1162 L794,-862 L546,-574 Z" stroke-width="0" fill="#edef8f" fill-opacity="0.9686274509803922" />
<path d="M390,-454 L350,-586 L158,-430 L718,-1102 L858,-870 L246,-386 Z" stroke-width="0" fill="#8ec510" fill-opacity="0.0784313725490196" />
<path d="M906,-1242 L378,-146 L370,-630 L202,-1010 L490,-802 L518,-490 Z" stroke-width="0" fill="#00000f" fill-opacity="0.6745098039215687" />
<path d="M774,-690 L558,-1146 L666,-1218 L114,-490 L786,-1110 L314,-614 Z" stroke-width="0" fill="#9be4d5" fill-opacity="0.1803921568627451" />
<path d="M594,-690 L978,-294 L266,-434 L786,-1094 L970,-222 L198,-550 Z" stroke-width="0" fill="#4e1c99" fill-opacity="0.7372549019607844" />
<path d="M278,-1126 L814,-522 L674,-618 L370,-1066 L266,-654 L314,-1066 Z" stroke-width="0" fill="#6032be" fill-opacity="0.9529411764705882" />
<path d="M142,-1090 L966,-942 L754,-1238 L942,-926 L618,-818 L914,-842 Z" stroke-width="0" fill="#0a0000" fill-opacity="0.9333333333333333" />
<path d="M234,-602 L234,-190 L90,-346 L710,-266 L566,-806 L414,-854 Z" stroke-width="0" fill="#0d0a2b" fill-opacity="0.9529411764705882" />
<path d="M962,-1018 L418,-578 L898,-510 L422,-118 L754,-826 L466,-406 Z" stroke-width="0" fill="#814b72" fill-opacity="0.9137254901960784" />
<path d="M942,-1138 L118,-822 L750,-438 L874,-358 L98,-498 L178,-182 Z" stroke-width="0" fill="#2112f0" fill-opacity="0.03137254901960784" />
<path d="M946,-478 L518,-506 L106,-1002 L922,-1146 L422,-1182 L174,-366 Z" stroke-width="0" fill="#3c1054" fill-opacity="0.5019607843137255" />
<path d="M538,-686 L866,-362 L918,-82 L574,-698 L446,-594 L774,-362 Z" stroke-width="0" fill="#744fb4" fill-opacity="0.7254901960784313" />
<path d="M634,-678 L642,-642 L578,-794 L690,-1126 L858,-606 L326,-550 Z" stroke-width="0" fill="#18006a" fill-opacity="0.9058823529411765" />
<path d="M842,-454 L418,-694 L234,-890 L402,-654 L102,-254 L774,-998 Z" stroke-width="0" fill="#04039b" fill-opacity="0.16470588235294117" />
<path d="M966,-1174 L502,-954 L626,-1018 L402,-690 L834,-294 L978,-1266 Z" stroke-width="0" fill="#000003" fill-opacity="0.7568627450980392" />
<path d="M746,-1274 L286,-974 L106,-102 L446,-426 L642,-726 L658,-586 Z" stroke-width="0" fill="#0f0001" fill-opacity="0.8627450980392157" />
<path d="M102,-958 L594,-718 L230,-494 L798,-518 L438,-342 L214,-958 Z" stroke-width="0" fill="#00002e" fill-opacity="0.5803921568627451" />
<path d="M950,-306 L198,-338 L386,-1210 L750,-742 L422,-706 L962,-394 Z" stroke-width="0" fill="#5247a3" fill-opacity="0.8352941176470589" />
<path d="M766,-146 L846,-498 L210,-542 L410,-998 L498,-746 L438,-638 Z" stroke-width="0" fill="#c38ef0" fill-opacity="0.6745098039215687" />
<path d="M686,-290 L514,-90 L318,-214 L94,-658 L146,-702 L242,-622 Z" stroke-width="0" fill="#0b0f12" fill-opacity="0.9098039215686274" />
<path d="M418,-1082 L554,-146 L766,-654 L206,-582 L914,-578 L686,-102 Z" stroke-width="0" fill="#003bfc" fill-opacity="0.050980392156862744" />
<path d="M458,-682 L146,-1198 L586,-582 L642,-642 L438,-970 L214,-610 Z" stroke-width="0" fill="#3d2c4a" fill-opacity="0.5529411764705883" />
<path d="M798,-1066 L178,-190 L82,-650 L318,-962 L394,-1054 L386,-402 Z" stroke-width="0" fill="#000000" fill-opacity="0.807843137254902" />
<path d="M658,-1142 L930,-522 L526,-914 L914,-238 L742,-714 L522,-198 Z" stroke-width="0" fill="#120bf7" fill-opacity="0.043137254901960784" />
<path d="M330,-798 L558,-234 L154,-194 L846,-642 L322,-414 L658,-590 Z" stroke-width="0" fill="#a6651e" fill-opacity="0.803921568627451" />
<path d="M830,-1042 L182,-802 L874,-1022 L714,-818 L534,-446 L218,-202 Z" stroke-width="0" fill="#955109" fill-opacity="0.4235294117647059" />
<path d="M534,-534 L858,-182 L462,-258 L322,-750 L570,-606 L650,-374 Z" stroke-width="0" fill="#112000" fill-opacity="0.803921568627451" />
<path d="M362,-1098 L162,-498 L386,-522 L386,-1118 L546,-754 L402,-258 Z" stroke-width="0" fill="#1b0090" fill-opacity="0.7803921568627451" />
<path d="M806,-1034 L258,-1162 L586,-342 L178,-682 L346,-102 L810,-482 Z" stroke-width="0" fill="#54185a" fill-opacity="0.5529411764705883" />
<path d="M82,-114 L142,-346 L622,-170 L674,-546 L310,-1166 L422,-406 Z" stroke-width="0" fill="#62449e" fill-opacity="0.36470588235294116" />
<path d="M750,-626 L474,-94 L398,-170 L362,-1126 L86,-258 L334,-266 Z" stroke-width="0" fill="#f6880d" fill-opacity="0.17254901960784313" />
<path d="M122,-110 L714,-286 L102,-586 L642,-730 L822,-1210 L702,-206 Z" stroke-width="0" fill="#150009" fill-opacity="0.5019607843137255" />
<path d="M794,-390 L782,-738 L790,-606 L622,-874 L274,-278 L310,-594 Z" stroke-width="0" fill="#1fa6fd" fill-opacity="0.00784313725490196" />
<path d="M346,-102 L406,-346 L534,-574 L882,-226 L306,-662 L438,-962 Z" stroke-width="0" fill="#49097d" fill-opacity="0.4196078431372549" />
<path d="M898,-578 L378,-730 L790,-582 L178,-382 L746,-790 L374,-1082 Z" stroke-width="0" fill="#150000" fill-opacity="0.7215686274509804" />
<path d="M150,-530 L290,-870 L214,-354 L618,-390 L110,-802 L90,-790 Z" stroke-width="0" fill="#00001b" fill-opacity="0.36470588235294116" />
<path d="M98,-358 L874,-534 L510,-462 L518,-718 L286,-854 L790,-142 Z" stroke-width="0" fill="#040000" fill-opacity="0.07058823529411765" />
<path d="M618,-246 L666,-1022 L762,-158 L386,-742 L710,-110 L930,-1150 Z" stroke-width="0" fill="#020018" fill-opacity="0.1411764705882353" />
<path d="M770,-1110 L774,-1202 L186,-1094 L210,-702 L242,-366 L82,-802 Z" stroke-width="0" fill="#1a0055" fill-opacity="0.6235294117647059" />
<path d="M358,-354 L434,-138 L850,-1078 L214,-538 L538,-134 L342,-126 Z" stroke-width="0" fill="#26001b" fill-opacity="0.4196078431372549" />
<path d="M110,-1090 L606,-1166 L294,-1018 L206,-930 L498,-1026 L98,-194 Z" stroke-width="0" fill="#000020" fill-opacity="0.7137254901960784" />
<path d="M602,-402 L438,-114 L274,-806 L926,-106 L786,-130 L458,-906 Z" stroke-width="0" fill="#060557" fill-opacity="0.4823529411764706" />
<path d="M578,-1030 L510,-126 L110,-422 L90,-1094 L166,-158 L850,-326 Z" stroke-width="0" fill="#510e4b" fill-opacity="0.24705882352941178" />
<path d="M962,-814 L358,-118 L722,-206 L858,-906 L818,-126 L370,-86 Z" stroke-width="0" fill="#0c1e3f" fill-opacity="0.38823529411764707" />
<path d="M494,-354 L498,-294 L890,-1234 L754,-134 L742,-162 L126,-450 Z" stroke-width="0" fill="#555590" fill-opacity="0.09019607843137255" />
<path d="M86,-918 L346,-794 L894,-862 L422,-450 L358,-730 L182,-870 Z" stroke-width="0" fill="#000049" fill-opacity="0.4666666666666667" />
<path d="M338,-846 L946,-894 L918,-1182 L186,-938 L170,-670 L570,-874 Z" stroke-width="0" fill="#160032" fill-opacity="0.5372549019607843" />
<path d="M698,-578 L306,-406 L658,-342 L686,-258 L178,-670 L302,-298 Z" stroke-width="0" fill="#332773" fill-opacity="0.17254901960784313" />
<path d="M882,-754 L842,-1190 L918,-942 L434,-550 L426,-866 L634,-1186 Z" stroke-width="0" fill="#1b0a34" fill-opacity="0.5215686274509804" />
<text x="448.0" y="0" font-size="70.0" fill="black" text-anchor="middle" transform="translate(0,17.5)">8 OF EARTH</text>
</svg>