<?xml version="1.0" encoding="UTF-8"?>
<svg xmlns="http://www.w3.org/2000/svg" xmlns:xlink="http://www.w3.org/1999/xlink"
     width="275" height="375" viewBox="0 -350 275 375">
<defs>
</defs>
<rect x="15" y="-335" width="245" height="320" stroke="black" stroke-width="4" fill="white" />
<path d="M111,-173 L106,-155 L221,-25 L238,-182 L220,-108 L56,-154 Z" stroke-width="0" fill="#46e2b1" fill-opacity="0.09019607843137255" />
<path d="M187,-139 L33,-41 L197,-229 L200,-121 L159,-62 L186,-101 Z" stroke-width="0" fill="#56b7fe" fill-opacity="0.20392156862745098" />
<path d="M94,-241 L163,-34 L47,-223 L109,-170 L152,-241 L223,-255 Z" stroke-width="0" fill="#25aeee" fill-opacity="0.16470588235294117" />
<path d="M130,-114 L53,-177 L123,-285 L36,-134 L30,-271 L35,-299 Z" stroke-width="0" fill="#000000" fill-opacity="0.8196078431372549" />
<path d="M53,-93 L108,-249 L161,-166 L123,-202 L173,-79 L61,-40 Z" stroke-width="0" fill="#0014d0" fill-opacity="0.6901960784313725" />
<path d="M249,-38 L219,-278 L168,-62 L80,-217 L160,-307 L88,-39 Z" stroke-width="0" fill="#031a8c" fill-opacity="0.17254901960784313" />
<path d="M46,-53 L48,-86 L225,-285 L104,-140 L128,-78 L179,-285 Z" stroke-width="0" fill="#fb6aca" fill-opacity="0.08235294117647059" />
<path d="M91,-117 L170,-226 L69,-98 L118,-119 L183,-147 L84,-102 Z" stroke-width="0" fill="#556f1c" fill-opacity="0.5647058823529412" />
<path d="M96,-171 L65,-110 L241,-116 L181,-176 L231,-68 L184,-231 Z" stroke-width="0" fill="#e6f8e6" fill-opacity="0.12156862745098039" />
<path d="M44,-293 L214,-196 L202,-218 L130,-88 L137,-205 L125,-108 Z" stroke-width="0" fill="#0000e7" fill-opacity="0.7098039215686275" />
<path d="M66,-53 L51,-203 L59,-204 L211,-151 L40,-248 L212,-224 Z" stroke-width="0" fill="#7d701f" fill-opacity="0.00392156862745098" />
<path d="M116,-267 L97,-233 L134,-209 L51,-89 L162,-141 L182,-174 Z" stroke-width="0" fill="#246634" fill-opacity="0.4745098039215686" />
<path d="M38,-31 L161,-273 L50,-313 L80,-98 L149,-138 L55,-276 Z" stroke-width="0" fill="#321253" fill-opacity="0.9333333333333333" />
<path d="M164,-83 L205,-40 L45,-99 L47,-66 L52,-225 L202,-118 Z" stroke-width="0" fill="#ceecf4" fill-opacity="0.6313725490196078" />
<path d="M27,-260 L222,-76 L140,-132 L81,-309 L65,-104 L104,-85 Z" stroke-width="0" fill="#00000a" fill-opacity="0.5529411764705883" />
<path d="M144,-184 L32,-100 L58,-125 L112,-162 L204,-230 L48,-149 Z" stroke-width="0" fill="#c5e3ef" fill-opacity="0.1411764705882353" />
<path d="M26,-256 L41,-91 L157,-191 L39,-292 L244,-93 L116,-95 Z" stroke-width="0" fill="#353865" fill-opacity="0.8784313725490196" />
<path d="M111,-209 L106,-112 L106,-63 L143,-192 L120,-46 L155,-247 Z" stroke-width="0" fill="#87c856" fill-opacity="0.00392156862745098" />
<path d="M45,-94 L156,-270 L116,-294 L94,-123 L234,-81 L87,-106 Z" stroke-width="0" fill="#c2fcbc" fill-opacity="0.807843137254902" />
<path d="M87,-110 L45,-148 L210,-48 L77,-67 L167,-63 L148,-245 Z" stroke-width="0" fill="#c46aaa" fill-opacity="0.011764705882352941" />
<path d="M30,-122 L119,-159 L131,-137 L191,-146 L82,-46 L77,-278 Z" stroke-width="0" fill="#ffe0bc" fill-opacity="0.5019607843137255" />
<path d="M218,-77 L172,-178 L233,-60 L195,-137 L27,-38 L103,-120 Z" stroke-width="0" fill="#b6d8ec" fill-opacity="0.43137254901960786" />
<path d="M69,-86 L71,-159 L162,-105 L172,-59 L214,-105 L97,-157 Z" stroke-width="0" fill="#7f48f9" fill-opacity="0.796078431372549" />
<path d="M155,-197 L40,-120 L172,-242 L70,-31 L110,-103 L154,-159 Z" stroke-width="0" fill="#e6ddd2" fill-opacity="0.19215686274509805" />
<path d="M66,-211 L48,-260 L136,-192 L110,-205 L189,-237 L237,-300 Z" stroke-width="0" fill="#8a3e1c" fill-opacity="0.5019607843137255" />
<path d="M97,-239 L87,-259 L186,-320 L25,-199 L247,-47 L92,-202 Z" stroke-width="0" fill="#3a5b6c" fill-opacity="0.5019607843137255" />
<path d="M77,-123 L147,-290 L152,-178 L49,-260 L166,-145 L191,-185 Z" stroke-width="0" fill="#4a4510" fill-opacity="0.996078431372549" />
<path d="M74,-74 L215,-83 L40,-186 L64,-306 L99,-220 L214,-155 Z" stroke-width="0" fill="#000100" fill-opacity="0.8509803921568627" />
<path d="M205,-159 L135,-266 L57,-196 L215,-34 L217,-265 L94,-275 Z" stroke-width="0" fill="#ada28d" fill-opacity="0.5019607843137255" />
<path d="M109,-40 L47,-188 L90,-216 L154,-207 L205,-149 L63,-29 Z" stroke-width="0" fill="#0d38a7" fill-opacity="0.1607843137254902" />
<path d="M142,-221 L99,-69 L86,-28 L67,-35 L53,-30 L63,-74 Z" stroke-width="0" fill="#b95826" fill-opacity="0.06666666666666667" />
<path d="M66,-265 L105,-118 L198,-43 L69,-57 L135,-255 L232,-293 Z" stroke-width="0" fill="#8e8266" fill-opacity="0.4627450980392157" />
<path d="M127,-68 L217,-321 L138,-184 L79,-150 L187,-146 L142,-86 Z" stroke-width="0" fill="#9e5351" fill-opacity="0.5019607843137255" />
<path d="M151,-42 L206,-114 L89,-187 L28,-259 L62,-186 L26,-309 Z" stroke-width="0" fill="#000000" fill-opacity="0.5019607843137255" />
<path d="M219,-123 L85,-153 L120,-84 L44,-119 L129,-120 L200,-249 Z" stroke-width="0" fill="#ffeee9" fill-opacity="0.9450980392156862" />
<path d="M148,-211 L49,-28 L157,-27 L64,-287 L26,-284 L133,-107 Z" stroke-width="0" fill="#040a8c" fill-opacity="0.19607843137254902" />
<path d="M161,-306 L203,-74 L168,-127 L193,-198 L60,-159 L164,-57 Z" stroke-width="0" fill="#1f3704" fill-opacity="0.9294117647058824" />
<path d="M155,-208 L92,-29 L162,-37 L37,-115 L51,-188 L79,-116 Z" stroke-width="0" fill="#fcc4f8" fill-opacity="0.9568627450980393" />
<path d="M237,-188 L194,-75 L138,-209 L86,-184 L94,-316 L188,-80 Z" stroke-width="0" fill="#26837a" fill-opacity="0.5333333333333333" />
<path d="M80,-138 L151,-144 L166,-77 L37,-37 L94,-251 L126,-196 Z" stroke-width="0" fill="#e1facb" fill-opacity="1.0" />
<path d="M167,-256 L169,-196 L226,-242 L124,-45 L39,-81 L199,-120 Z" stroke-width="0" fill="#e2e6c0" fill-opacity="0.5529411764705883" />
<path d="M103,-29 L170,-74 L171,-306 L107,-106 L35,-43 L85,-34 Z" stroke-width="0" fill="#f4f4d3" fill-opacity="0.49411764705882355" />
<path d="M34,-247 L146,-193 L213,-265 L105,-188 L124,-115 L185,-137 Z" stroke-width="0" fill="#c0b63f" fill-opacity="0.2627450980392157" />
<path d="M54,-25 L44,-300 L153,-166 L63,-112 L49,-189 L57,-295 Z" stroke-width="0" fill="#2b87b4" fill-opacity="0.10196078431372549" />
<path d="M89,-92 L138,-274 L152,-165 L63,-30 L186,-293 L115,-175 Z" stroke-width="0" fill="#cdb2a9" fill-opacity="0.9411764705882353" />
<path d="M152,-250 L84,-141 L126,-126 L81,-194 L236,-48 L179,-245 Z" stroke-width="0" fill="#fff4d6" fill-opacity="0.9333333333333333" />
<path d="M170,-198 L197,-214 L195,-95 L155,-157 L39,-293 L111,-226 Z" stroke-width="0" fill="#00002b" fill-opacity="0.9647058823529412" />
<path d="M87,-191 L67,-256 L130,-215 L148,-116 L101,-80 L142,-59 Z" stroke-width="0" fill="#2197d0" fill-opacity="0.07450980392156863" />
<path d="M114,-81 L194,-220 L28,-312 L188,-62 L245,-38 L177,-236 Z" stroke-width="0" fill="#060008" fill-opacity="0.9058823529411765" />
<path d="M94,-80 L158,-40 L217,-161 L241,-157 L88,-291 L223,-88 Z" stroke-width="0" fill="#f9e8fa" fill-opacity="0.9764705882352941" />
<path d="M149,-77 L107,-243 L92,-249 L140,-46 L41,-285 L65,-176 Z" stroke-width="0" fill="#00000e" fill-opacity="0.9372549019607843" />
<path d="M239,-193 L126,-95 L41,-105 L209,-192 L108,-30 L242,-81 Z" stroke-width="0" fill="#edf7c3" fill-opacity="0.7254901960784313" />
<path d="M206,-114 L239,-253 L28,-164 L77,-240 L65,-238 L240,-191 Z" stroke-width="0" fill="#6b727b" fill-opacity="0.788235294117647" />
<path d="M102,-102 L90,-101 L248,-104 L56,-51 L185,-214 L32,-164 Z" stroke-width="0" fill="#ece0f0" fill-opacity="0.6549019607843137" />
<path d="M122,-174 L118,-87 L192,-199 L207,-61 L126,-151 L111,-261 Z" stroke-width="0" fill="#cfd0fd" fill-opacity="0.8901960784313725" />
<path d="M56,-72 L60,-85 L133,-238 L69,-79 L173,-235 L85,-294 Z" stroke-width="0" fill="#452d00" fill-opacity="0.8941176470588236" />
<path d="M64,-68 L115,-206 L150,-54 L98,-25 L25,-147 L111,-73 Z" stroke-width="0" fill="#f6fd6d" fill-opacity="0.03529411764705882" />
<path d="M83,-169 L128,-32 L131,-267 L180,-119 L246,-138 L187,-64 Z" stroke-width="0" fill="#e2d8dc" fill-opacity="0.8509803921568627" />
<path d="M37,-180 L86,-28 L86,-187 L249,-315 L26,-155 L154,-29 Z" stroke-width="0" fill="#d9e2d3" fill-opacity="0.8392156862745098" />
<path d="M43,-142 L162,-195 L185,-318 L44,-206 L245,-211 L71,-141 Z" stroke-width="0" fill="#804151" fill-opacity="0.28627450980392155" />
<path d="M156,-78 L163,-250 L38,-281 L103,-313 L27,-180 L140,-119 Z" stroke-width="0" fill="#07284b" fill-opacity="0.7725490196078432" />
<path d="M69,-241 L109,-25 L43,-25 L35,-105 L200,-176 L52,-248 Z" stroke-width="0" fill="#d5cbf8" fill-opacity="0.9921568627450981" />
<path d="M36,-107 L104,-90 L92,-192 L145,-220 L66,-114 L126,-39 Z" stroke-width="0" fill="#ffb2ea" fill-opacity="0.6470588235294118" />
<path d="M33,-250 L159,-319 L194,-208 L196,-58 L140,-158 L81,-202 Z" stroke-width="0" fill="#1f2d00" fill-opacity="0.30196078431372547" />
<path d="M153,-310 L121,-181 L181,-239 L73,-33 L174,-227 L92,-285 Z" stroke-width="0" fill="#dfccbf" fill-opacity="0.6313725490196078" />
<path d="M35,-264 L194,-36 L85,-105 L129,-271 L94,-262 L69,-54 Z" stroke-width="0" fill="#f0e0f4" fill-opacity="0.25882352941176473" />
<path d="M87,-91 L198,-52 L246,-89 L129,-283 L44,-166 L126,-227 Z" stroke-width="0" fill="#f5f2e2" fill-opacity="0.803921568627451" />
<path d="M98,-94 L111,-112 L217,-102 L128,-269 L128,-155 L124,-292 Z" stroke-width="0" fill="#fbf4af" fill-opacity="0.9764705882352941" />
<path d="M217,-170 L65,-115 L225,-87 L108,-172 L101,-82 L141,-276 Z" stroke-width="0" fill="#0ba982" fill-opacity="0.8352941176470589" />
<path d="M174,-105 L181,-65 L107,-162 L36,-308 L39,-79 L105,-78 Z" stroke-width="0" fill="#e3f7ea" fill-opacity="0.09803921568627451" />
<path d="M147,-293 L65,-117 L107,-186 L99,-160 L40,-311 L236,-157 Z" stroke-width="0" fill="#23f6b5" fill-opacity="0.08235294117647059" />
<path d="M154,-77 L41,-236 L137,-196 L46,-286 L215,-124 L82,-68 Z" stroke-width="0" fill="#9b5dfc" fill-opacity="0.023529411764705882" />
<path d="M181,-111 L177,-273 L57,-155 L232,-141 L97,-86 L169,-279 Z" stroke-width="0" fill="#a7e7fa" fill-opacity="0.03137254901960784" />
<path d="M56,-121 L194,-290 L51,-90 L188,-314 L80,-72 L72,-271 Z" stroke-width="0" fill="#8b3a25" fill-opacity="0.2980392156862745" />
<path d="M112,-39 L188,-109 L165,-37 L120,-288 L46,-263 L25,-220 Z" stroke-width="0" fill="#00534e" fill-opacity="0.2784313725490196" />
<path d="M170,-303 L129,-202 L103,-86 L196,-123 L164,-104 L191,-28 Z" stroke-width="0" fill="#042ce8" fill-opacity="0.03529411764705882" />
<path d="M118,-107 L219,-69 L204,-236 L110,-103 L155,-208 L76,-281 Z" stroke-width="0" fill="#e8e9ef" fill-opacity="0.7568627450980392" />
<path d="M226,-67 L180,-174 L125,-49 L170,-315 L61,-161 L186,-31 Z" stroke-width="0" fill="#d4fdf8" fill-opacity="0.6196078431372549" />
<path d="M186,-186 L237,-143 L29,-88 L118,-276 L58,-89 L91,-310 Z" stroke-width="0" fill="#fbd2ae" fill-opacity="0.1568627450980392" />
<path d="M100,-271 L91,-106 L26,-288 L109,-162 L56,-124 L91,-246 Z" stroke-width="0" fill="#000008" fill-opacity="0.8470588235294118" />
<path d="M201,-61 L131,-107 L91,-30 L53,-89 L131,-300 L82,-249 Z" stroke-width="0" fill="#f5b0f6" fill-opacity="0.996078431372549" />
<path d="M66,-35 L111,-103 L56,-143 L128,-238 L212,-212 L154,-285 Z" stroke-width="0" fill="#e2f6e5" fill-opacity="0.5686274509803921" />
<path d="M212,-182 L172,-220 L218,-287 L143,-57 L70,-283 L105,-300 Z" stroke-width="0" fill="#799ddb" fill-opacity="0.011764705882352941" />
<path d="M130,-193 L182,-44 L58,-308 L78,-32 L231,-126 L64,-201 Z" stroke-width="0" fill="#f5fbd5" fill-opacity="0.4549019607843137" />
<path d="M201,-314 L185,-285 L115,-51 L141,-121 L172,-182 L207,-243 Z" stroke-width="0" fill="#7c000d" fill-opacity="0.17254901960784313" />
<path d="M51,-237 L207,-147 L68,-286 L161,-27 L249,-43 L165,-291 Z" stroke-width="0" fill="#f7dfb4" fill-opacity="0.2196078431372549" />
<path d="M207,-244 L43,-279 L162,-244 L52,-296 L81,-176 L183,-162 Z" stroke-width="0" fill="#090400" fill-opacity="0.8313725490196079" />
<path d="M207,-305 L128,-73 L63,-55 L150,-307 L31,-212 L93,-286 Z" stroke-width="0" fill="#56efc1" fill-opacity="0.01568627450980392" />
<path d="M115,-187 L64,-207 L88,-30 L137,-255 L229,-188 L60,-170 Z" stroke-width="0" fill="#d7f6f8" fill-opacity="0.2549019607843137" />
<path d="M218,-69 L176,-214 L109,-319 L188,-83 L46,-142 L38,-274 Z" stroke-width="0" fill="#fee2fb" fill-opacity="0.027450980392156862" />
<path d="M161,-285 L78,-191 L66,-282 L153,-295 L144,-43 L137,-244 Z" stroke-width="0" fill="#050041" fill-opacity="0.2196078431372549" />
<path d="M77,-89 L45,-104 L183,-121 L128,-75 L60,-295 L149,-191 Z" stroke-width="0" fill="#f7e6b0" fill-opacity="0.07450980392156863" />
<path d="M38,-184 L144,-255 L105,-273 L39,-222 L112,-72 L25,-252 Z" stroke-width="0" fill="#2c0007" fill-opacity="0.7058823529411765" />
<path d="M102,-254 L168,-253 L223,-218 L192,-158 L111,-228 L48,-63 Z" stroke-width="0" fill="#c7dbd1" fill-opacity="0.4117647058823529" />
<path d="M33,-104 L133,-52 L196,-141 L47,-86 L123,-248 L49,-105 Z" stroke-width="0" fill="#f5e1ad" fill-opacity="0.00392156862745098" />
<path d="M113,-298 L90,-34 L69,-114 L219,-215 L109,-253 L118,-305 Z" stroke-width="0" fill="#e6d1e5" fill-opacity="0.00784313725490196" />
<path d="M175,-317 L147,-43 L178,-108 L122,-133 L83,-243 L66,-229 Z" stroke-width="0" fill="#e2c0be" fill-opacity="0.5098039215686274" />
<path d="M97,-209 L94,-157 L33,-78 L159,-246 L65,-255 L66,-44 Z" stroke-width="0" fill="#192095" fill-opacity="0.027450980392156862" />
<path d="M213,-301 L90,-33 L35,-234 L216,-208 L55,-251 L84,-165 Z" stroke-width="0" fill="#c5cf8f" fill-opacity="0.5725490196078431" />
<path d="M226,-46 L43,-218 L110,-280 L112,-40 L76,-287 L62,-215 Z" stroke-width="0" fill="#00efbd" fill-opacity="0.054901960784313725" />
<text x="137.5" y="12.5" font-size="20.0" fill="black" text-anchor="middle" transform="translate(0,5.0)">8 OF EARTH</text>
</svg>