<?xml version="1.0" encoding="UTF-8"?>
<svg xmlns="http://www.w3.org/2000/svg" xmlns:xlink="http://www.w3.org/1999/xlink"
     width="275" height="375" viewBox="0 -350 275 375">
<defs>
</defs>
<rect x="15" y="-335" width="245" height="320" stroke="black" stroke-width="4" fill="white" />
<path d="M128,-162 L47,-176 L37,-129 L99,-103 L90,-75 L184,-151 Z" stroke-width="0" fill="#020000" fill-opacity="0.8823529411764706" />
<path d="M144,-213 L205,-78 L80,-136 L30,-105 L143,-58 L80,-271 Z" stroke-width="0" fill="#000000" fill-opacity="0.9882352941176471" />
<path d="M198,-272 L105,-131 L103,-260 L173,-159 L112,-166 L214,-258 Z" stroke-width="0" fill="#77e4ec" fill-opacity="0.27058823529411763" />
<path d="M245,-324 L152,-273 L34,-58 L128,-125 L180,-151 L63,-288 Z" stroke-width="0" fill="#e615b1" fill-opacity="0.5098039215686274" />
<path d="M62,-29 L66,-168 L203,-267 L219,-178 L94,-106 L39,-321 Z" stroke-width="0" fill="#034c64" fill-opacity="0.8431372549019608" />
<path d="M171,-227 L139,-125 L183,-201 L155,-52 L117,-84 L182,-91 Z" stroke-width="0" fill="#bbc1bd" fill-opacity="0.34901960784313724" />
<path d="M95,-231 L228,-287 L155,-162 L175,-220 L246,-128 L152,-247 Z" stroke-width="0" fill="#462642" fill-opacity="0.3843137254901961" />
<path d="M60,-189 L63,-135 L249,-76 L170,-270 L216,-113 L51,-54 Z" stroke-width="0" fill="#65100f" fill-opacity="0.3176470588235294" />
<path d="M47,-97 L65,-314 L148,-256 L117,-109 L91,-314 L50,-271 Z" stroke-width="0" fill="#251811" fill-opacity="0.5137254901960784" />
<path d="M248,-154 L64,-116 L230,-253 L170,-114 L135,-174 L229,-209 Z" stroke-width="0" fill="#4d6372" fill-opacity="0.42745098039215684" />
<path d="M101,-73 L247,-79 L163,-103 L27,-29 L51,-53 L194,-53 Z" stroke-width="0" fill="#90aa92" fill-opacity="0.5568627450980392" />
<path d="M140,-235 L234,-243 L67,-253 L136,-217 L239,-284 L99,-136 Z" stroke-width="0" fill="#fdecfb" fill-opacity="0.6784313725490196" />
<path d="M86,-218 L193,-86 L93,-158 L156,-36 L116,-150 L150,-63 Z" stroke-width="0" fill="#070213" fill-opacity="0.9490196078431372" />
<path d="M151,-265 L33,-119 L200,-84 L51,-150 L206,-147 L30,-86 Z" stroke-width="0" fill="#000000" fill-opacity="0.7725490196078432" />
<path d="M26,-187 L36,-31 L238,-112 L83,-143 L208,-280 L155,-233 Z" stroke-width="0" fill="#000000" fill-opacity="0.9607843137254902" />
<path d="M29,-158 L94,-159 L43,-174 L111,-49 L171,-182 L99,-116 Z" stroke-width="0" fill="#5e5131" fill-opacity="0.5529411764705883" />
<path d="M75,-129 L142,-277 L232,-138 L169,-88 L63,-76 L138,-233 Z" stroke-width="0" fill="#921158" fill-opacity="0.5843137254901961" />
<path d="M148,-159 L95,-86 L229,-34 L191,-28 L190,-289 L173,-157 Z" stroke-width="0" fill="#462c0a" fill-opacity="0.23529411764705882" />
<path d="M116,-241 L145,-28 L44,-110 L104,-119 L75,-242 L67,-146 Z" stroke-width="0" fill="#050f0f" fill-opacity="0.9254901960784314" />
<path d="M134,-206 L85,-190 L227,-114 L204,-89 L141,-57 L61,-159 Z" stroke-width="0" fill="#0962c4" fill-opacity="0.9725490196078431" />
<path d="M241,-55 L129,-296 L243,-225 L157,-273 L43,-136 L89,-211 Z" stroke-width="0" fill="#f1bb9d" fill-opacity="0.592156862745098" />
<path d="M242,-188 L182,-171 L80,-190 L88,-279 L45,-272 L135,-230 Z" stroke-width="0" fill="#5331d5" fill-opacity="0.12941176470588237" />
<path d="M41,-209 L129,-204 L45,-145 L82,-210 L133,-198 L160,-35 Z" stroke-width="0" fill="#010319" fill-opacity="0.9686274509803922" />
<path d="M122,-222 L156,-109 L68,-296 L114,-78 L60,-185 L172,-250 Z" stroke-width="0" fill="#a5f1ff" fill-opacity="0.5058823529411764" />
<path d="M183,-269 L110,-188 L245,-319 L209,-133 L197,-210 L25,-232 Z" stroke-width="0" fill="#00000f" fill-opacity="0.5803921568627451" />
<path d="M238,-293 L72,-84 L233,-319 L193,-240 L35,-268 L136,-87 Z" stroke-width="0" fill="#9fc6f0" fill-opacity="0.7294117647058823" />
<path d="M107,-86 L170,-297 L150,-182 L133,-188 L204,-200 L134,-169 Z" stroke-width="0" fill="#5a550c" fill-opacity="0.6901960784313725" />
<path d="M101,-117 L233,-295 L104,-88 L246,-113 L149,-79 L93,-209 Z" stroke-width="0" fill="#8a94a8" fill-opacity="0.5529411764705883" />
<path d="M229,-121 L30,-186 L76,-157 L75,-37 L177,-103 L28,-247 Z" stroke-width="0" fill="#000000" fill-opacity="0.615686274509804" />
<path d="M144,-154 L184,-225 L68,-292 L40,-107 L205,-285 L33,-117 Z" stroke-width="0" fill="#c71638" fill-opacity="0.09803921568627451" />
<path d="M153,-141 L136,-131 L235,-51 L124,-30 L239,-56 L57,-81 Z" stroke-width="0" fill="#08050e" fill-opacity="0.09019607843137255" />
<path d="M90,-275 L243,-175 L214,-304 L106,-260 L71,-225 L127,-193 Z" stroke-width="0" fill="#928fa6" fill-opacity="0.6862745098039216" />
<path d="M31,-75 L177,-307 L115,-142 L176,-93 L203,-283 L168,-320 Z" stroke-width="0" fill="#e3379b" fill-opacity="0.4392156862745098" />
<path d="M222,-117 L89,-215 L169,-68 L40,-323 L141,-248 L177,-38 Z" stroke-width="0" fill="#0e1f26" fill-opacity="0.5882352941176471" />
<path d="M132,-263 L53,-147 L95,-179 L130,-233 L188,-231 L36,-234 Z" stroke-width="0" fill="#081f26" fill-opacity="0.7764705882352941" />
<path d="M193,-78 L186,-66 L126,-101 L218,-250 L171,-225 L43,-54 Z" stroke-width="0" fill="#605c01" fill-opacity="0.07058823529411765" />
<path d="M126,-315 L171,-95 L245,-71 L69,-158 L26,-26 L93,-147 Z" stroke-width="0" fill="#99906c" fill-opacity="0.8509803921568627" />
<path d="M235,-245 L150,-61 L205,-120 L88,-181 L85,-262 L201,-76 Z" stroke-width="0" fill="#758a9c" fill-opacity="0.9019607843137255" />
<path d="M160,-247 L86,-249 L191,-30 L89,-39 L44,-312 L117,-94 Z" stroke-width="0" fill="#000000" fill-opacity="0.5019607843137255" />
<path d="M82,-185 L141,-79 L196,-58 L27,-83 L214,-120 L38,-186 Z" stroke-width="0" fill="#000000" fill-opacity="0.9098039215686274" />
<path d="M185,-188 L241,-270 L41,-201 L211,-144 L96,-37 L48,-199 Z" stroke-width="0" fill="#dfedeb" fill-opacity="0.8509803921568627" />
<path d="M208,-103 L232,-150 L186,-209 L230,-112 L97,-141 L82,-322 Z" stroke-width="0" fill="#666653" fill-opacity="0.8588235294117647" />
<path d="M151,-221 L107,-299 L28,-110 L219,-188 L177,-244 L91,-96 Z" stroke-width="0" fill="#000000" fill-opacity="0.807843137254902" />
<path d="M144,-219 L169,-250 L244,-252 L153,-196 L45,-305 L201,-283 Z" stroke-width="0" fill="#b2c8da" fill-opacity="0.8862745098039215" />
<path d="M61,-54 L174,-182 L115,-53 L177,-153 L111,-169 L83,-312 Z" stroke-width="0" fill="#e4dedf" fill-opacity="0.8509803921568627" />
<path d="M30,-41 L107,-287 L55,-128 L101,-293 L98,-26 L94,-94 Z" stroke-width="0" fill="#000000" fill-opacity="0.9450980392156862" />
<path d="M59,-56 L170,-190 L220,-315 L236,-69 L97,-138 L70,-60 Z" stroke-width="0" fill="#a0f9f7" fill-opacity="0.2901960784313726" />
<path d="M51,-29 L39,-100 L88,-42 L151,-155 L81,-303 L54,-170 Z" stroke-width="0" fill="#000000" fill-opacity="0.2196078431372549" />
<path d="M232,-281 L226,-37 L33,-303 L213,-266 L100,-279 L222,-207 Z" stroke-width="0" fill="#c7bea5" fill-opacity="0.7294117647058823" />
<path d="M129,-215 L112,-305 L45,-199 L204,-178 L132,-247 L75,-144 Z" stroke-width="0" fill="#e1adf3" fill-opacity="0.807843137254902" />
<path d="M88,-300 L68,-164 L196,-136 L44,-191 L201,-28 L215,-161 Z" stroke-width="0" fill="#f4d9ee" fill-opacity="0.9333333333333333" />
<path d="M61,-106 L66,-53 L82,-217 L104,-156 L195,-166 L167,-285 Z" stroke-width="0" fill="#180000" fill-opacity="0.4392156862745098" />
<path d="M151,-232 L140,-107 L194,-292 L226,-40 L71,-130 L214,-64 Z" stroke-width="0" fill="#faf3ee" fill-opacity="0.8196078431372549" />
<path d="M92,-235 L195,-237 L170,-194 L140,-87 L248,-118 L62,-192 Z" stroke-width="0" fill="#a48d64" fill-opacity="0.3803921568627451" />
<path d="M46,-34 L195,-177 L66,-161 L76,-105 L78,-206 L113,-182 Z" stroke-width="0" fill="#000000" fill-opacity="0.9882352941176471" />
<path d="M158,-118 L146,-46 L78,-89 L152,-96 L48,-203 L53,-125 Z" stroke-width="0" fill="#000200" fill-opacity="0.796078431372549" />
<path d="M131,-112 L97,-228 L114,-195 L89,-276 L245,-226 L168,-184 Z" stroke-width="0" fill="#382544" fill-opacity="0.5882352941176471" />
<path d="M141,-179 L232,-107 L190,-227 L238,-258 L60,-312 L149,-279 Z" stroke-width="0" fill="#d4c7e9" fill-opacity="0.7215686274509804" />
<path d="M153,-272 L191,-248 L101,-32 L31,-47 L147,-181 L153,-302 Z" stroke-width="0" fill="#000000" fill-opacity="0.807843137254902" />
<path d="M128,-185 L109,-298 L48,-80 L188,-243 L130,-157 L129,-139 Z" stroke-width="0" fill="#060004" fill-opacity="0.12549019607843137" />
<path d="M238,-28 L169,-102 L114,-224 L118,-277 L153,-88 L126,-142 Z" stroke-width="0" fill="#b31c0b" fill-opacity="0.1803921568627451" />
<path d="M152,-161 L163,-250 L51,-171 L173,-209 L63,-281 L52,-131 Z" stroke-width="0" fill="#f2fe91" fill-opacity="0.047058823529411764" />
<path d="M100,-192 L95,-203 L211,-51 L71,-239 L216,-35 L68,-62 Z" stroke-width="0" fill="#2507fc" fill-opacity="0.00784313725490196" />
<path d="M154,-157 L240,-61 L110,-287 L130,-125 L113,-264 L68,-39 Z" stroke-width="0" fill="#456484" fill-opacity="0.023529411764705882" />
<path d="M166,-281 L34,-268 L35,-156 L102,-177 L121,-235 L199,-108 Z" stroke-width="0" fill="#2b2400" fill-opacity="0.8588235294117647" />
<path d="M213,-305 L154,-28 L109,-183 L193,-109 L101,-112 L130,-157 Z" stroke-width="0" fill="#9b64a9" fill-opacity="0.4470588235294118" />
<path d="M53,-254 L82,-176 L210,-143 L133,-198 L183,-253 L164,-198 Z" stroke-width="0" fill="#eeeaa7" fill-opacity="0.1411764705882353" />
<path d="M59,-137 L78,-279 L36,-97 L88,-125 L46,-78 L107,-50 Z" stroke-width="0" fill="#000000" fill-opacity="0.15294117647058825" />
<path d="M232,-32 L172,-164 L73,-107 L49,-190 L78,-237 L25,-34 Z" stroke-width="0" fill="#000000" fill-opacity="0.4666666666666667" />
<path d="M221,-259 L71,-74 L100,-56 L196,-149 L142,-288 L132,-269 Z" stroke-width="0" fill="#e2faf3" fill-opacity="0.08627450980392157" />
<path d="M219,-56 L122,-61 L56,-132 L108,-67 L58,-64 L190,-277 Z" stroke-width="0" fill="#8507cf" fill-opacity="0.043137254901960784" />
<path d="M151,-93 L49,-40 L140,-30 L100,-252 L34,-66 L59,-272 Z" stroke-width="0" fill="#000000" fill-opacity="0.9921568627450981" />
<path d="M32,-144 L55,-301 L147,-180 L97,-45 L233,-322 L34,-172 Z" stroke-width="0" fill="#286860" fill-opacity="0.5019607843137255" />
<path d="M84,-77 L148,-324 L97,-191 L141,-260 L53,-141 L116,-180 Z" stroke-width="0" fill="#d40c79" fill-opacity="0.5019607843137255" />
<path d="M197,-152 L30,-186 L120,-283 L61,-296 L234,-70 L56,-28 Z" stroke-width="0" fill="#5c4e09" fill-opacity="0.4392156862745098" />
<path d="M88,-289 L216,-316 L151,-114 L116,-119 L41,-75 L203,-292 Z" stroke-width="0" fill="#dde9d0" fill-opacity="0.4117647058823529" />
<path d="M217,-27 L81,-274 L219,-318 L129,-124 L236,-121 L212,-214 Z" stroke-width="0" fill="#cfb2aa" fill-opacity="1.0" />
<path d="M234,-134 L74,-314 L117,-157 L51,-168 L50,-186 L26,-295 Z" stroke-width="0" fill="#191a5c" fill-opacity="0.3254901960784314" />
<path d="M41,-277 L119,-45 L171,-216 L39,-181 L85,-147 L75,-173 Z" stroke-width="0" fill="#160312" fill-opacity="0.3058823529411765" />
<path d="M119,-323 L108,-99 L81,-191 L158,-115 L216,-66 L91,-195 Z" stroke-width="0" fill="#b591b9" fill-opacity="0.3411764705882353" />
<path d="M74,-97 L212,-297 L104,-181 L90,-220 L63,-69 L227,-200 Z" stroke-width="0" fill="#4d155c" fill-opacity="0.16470588235294117" />
<path d="M31,-50 L132,-321 L48,-47 L62,-65 L47,-258 L130,-33 Z" stroke-width="0" fill="#000000" fill-opacity="0.8235294117647058" />
<path d="M110,-49 L30,-172 L51,-317 L211,-139 L173,-59 L173,-238 Z" stroke-width="0" fill="#5d4d82" fill-opacity="0.28627450980392155" />
<path d="M77,-237 L216,-148 L207,-302 L172,-183 L197,-137 L175,-180 Z" stroke-width="0" fill="#258bc3" fill-opacity="0.06666666666666667" />
<path d="M34,-194 L232,-87 L82,-26 L168,-128 L218,-217 L142,-115 Z" stroke-width="0" fill="#010114" fill-opacity="0.41568627450980394" />
<path d="M122,-181 L86,-127 L222,-255 L148,-130 L200,-320 L217,-137 Z" stroke-width="0" fill="#d5d8bb" fill-opacity="0.6745098039215687" />
<path d="M84,-169 L219,-97 L186,-228 L237,-88 L240,-171 L135,-69 Z" stroke-width="0" fill="#31735b" fill-opacity="0.18823529411764706" />
<path d="M67,-253 L158,-106 L191,-51 L73,-40 L167,-186 L75,-165 Z" stroke-width="0" fill="#000003" fill-opacity="0.5019607843137255" />
<path d="M224,-172 L161,-41 L190,-161 L113,-167 L102,-177 L102,-92 Z" stroke-width="0" fill="#b2c4c2" fill-opacity="0.5019607843137255" />
<path d="M109,-258 L113,-296 L158,-114 L211,-88 L223,-53 L102,-221 Z" stroke-width="0" fill="#4295bf" fill-opacity="0.28627450980392155" />
<path d="M143,-298 L145,-246 L182,-199 L122,-190 L65,-259 L202,-231 Z" stroke-width="0" fill="#1e8395" fill-opacity="0.3215686274509804" />
<path d="M177,-123 L238,-55 L163,-287 L133,-78 L77,-102 L228,-252 Z" stroke-width="0" fill="#9a8d8e" fill-opacity="0.3568627450980392" />
<path d="M120,-160 L64,-76 L142,-181 L40,-175 L191,-35 L139,-210 Z" stroke-width="0" fill="#0a000e" fill-opacity="0.28627450980392155" />
<path d="M96,-83 L125,-93 L167,-174 L206,-96 L72,-254 L52,-177 Z" stroke-width="0" fill="#5a5452" fill-opacity="0.2980392156862745" />
<path d="M175,-158 L57,-33 L96,-107 L28,-222 L109,-63 L45,-111 Z" stroke-width="0" fill="#000000" fill-opacity="0.9098039215686274" />
<path d="M232,-312 L41,-317 L239,-195 L175,-208 L31,-128 L136,-218 Z" stroke-width="0" fill="#37ad99" fill-opacity="0.41568627450980394" />
<path d="M81,-305 L124,-218 L97,-264 L237,-161 L76,-178 L68,-264 Z" stroke-width="0" fill="#8e7e88" fill-opacity="0.39215686274509803" />
<path d="M166,-199 L52,-79 L233,-198 L31,-109 L95,-231 L208,-98 Z" stroke-width="0" fill="#57a672" fill-opacity="0.0" />
<path d="M79,-255 L244,-157 L120,-119 L69,-318 L53,-37 L83,-255 Z" stroke-width="0" fill="#4a4874" fill-opacity="0.06274509803921569" />
<path d="M83,-308 L97,-94 L211,-311 L232,-181 L131,-197 L102,-216 Z" stroke-width="0" fill="#00091a" fill-opacity="0.2823529411764706" />
<text x="137.5" y="12.5" font-size="20.0" fill="black" text-anchor="middle" transform="translate(0,5.0)">2 OF EARTH</text>
</svg>