<?xml version="1.0" encoding="UTF-8"?>
<svg xmlns="http://www.w3.org/2000/svg" xmlns:xlink="http://www.w3.org/1999/xlink"
     width="896" height="1496" viewBox="0 -1400 896 1496" style="font-size:70;font-family:Poor Richard, Times New Roman;stroke:black;stroke-width:1;fill:none">
<defs>
</defs>
<path d="M650,-922 L382,-590 L730,-330 L154,-982 L114,-1174 L402,-426 Z" stroke-width="0" fill="#d7e8cd" fill-opacity="0.11764705882352941" />
<path d="M122,-530 L770,-1006 L450,-302 L162,-738 L854,-446 L654,-774 Z" stroke-width="0" fill="#e8fbf2" fill-opacity="0.0196078431372549" />
<path d="M242,-530 L222,-546 L958,-258 L382,-370 L298,-970 L918,-438 Z" stroke-width="0" fill="#90dbe5" fill-opacity="0.054901960784313725" />
<path d="M170,-670 L466,-554 L282,-310 L654,-566 L714,-158 L966,-766 Z" stroke-width="0" fill="#c91515" fill-opacity="0.20784313725490197" />
<path d="M82,-878 L250,-178 L186,-1070 L390,-506 L726,-726 L666,-778 Z" stroke-width="0" fill="#eefdf3" fill-opacity="0.13333333333333333" />
<path d="M694,-394 L182,-102 L258,-598 L958,-298 L598,-438 L718,-878 Z" stroke-width="0" fill="#f4c9c6" fill-opacity="0.10980392156862745" />
<path d="M946,-1210 L142,-1070 L266,-282 L662,-234 L882,-566 L906,-1274 Z" stroke-width="0" fill="#02f2fa" fill-opacity="0.0" />
<path d="M842,-514 L882,-722 L614,-1138 L566,-542 L166,-114 L586,-730 Z" stroke-width="0" fill="#ecfbfd" fill-opacity="0.20784313725490197" />
<path d="M482,-646 L966,-638 L98,-86 L598,-166 L354,-790 L386,-898 Z" stroke-width="0" fill="#82b7b4" fill-opacity="0.07058823529411765" />
<path d="M386,-1238 L534,-1178 L294,-1098 L634,-482 L446,-642 L194,-202 Z" stroke-width="0" fill="#16f6f6" fill-opacity="0.023529411764705882" />
<path d="M202,-146 L518,-1218 L546,-318 L498,-726 L278,-846 L106,-834 Z" stroke-width="0" fill="#e5fcf9" fill-opacity="0.050980392156862744" />
<path d="M622,-86 L538,-670 L242,-402 L182,-442 L642,-618 L942,-638 Z" stroke-width="0" fill="#fddecb" fill-opacity="0.17254901960784313" />
<path d="M258,-390 L110,-374 L350,-374 L90,-294 L342,-366 L138,-570 Z" stroke-width="0" fill="#513a5f" fill-opacity="0.01568627450980392" />
<path d="M282,-230 L514,-1242 L682,-1262 L242,-506 L262,-526 L294,-842 Z" stroke-width="0" fill="#f3fffc" fill-opacity="0.611764705882353" />
<path d="M842,-834 L218,-742 L126,-834 L682,-1130 L662,-158 L90,-414 Z" stroke-width="0" fill="#d013cf" fill-opacity="0.00784313725490196" />
<path d="M290,-650 L82,-862 L590,-494 L150,-1102 L962,-834 L418,-670 Z" stroke-width="0" fill="#fffcff" fill-opacity="0.7098039215686275" />
<path d="M678,-98 L706,-114 L798,-738 L818,-970 L978,-602 L862,-198 Z" stroke-width="0" fill="#d8cbdd" fill-opacity="0.25882352941176473" />
<path d="M162,-962 L782,-130 L322,-794 L654,-954 L174,-334 L422,-490 Z" stroke-width="0" fill="#ecdae0" fill-opacity="0.12549019607843137" />
<path d="M770,-1154 L846,-818 L262,-598 L718,-490 L290,-982 L582,-562 Z" stroke-width="0" fill="#f5e8f4" fill-opacity="0.07058823529411765" />
<path d="M118,-1146 L422,-430 L518,-1062 L194,-226 L326,-362 L730,-578 Z" stroke-width="0" fill="#fcfbfc" fill-opacity="0.24705882352941178" />
<path d="M926,-518 L206,-714 L546,-770 L370,-1178 L414,-354 L266,-298 Z" stroke-width="0" fill="#f5c9f5" fill-opacity="0.3764705882352941" />
<path d="M106,-782 L430,-106 L438,-242 L922,-762 L954,-614 L750,-190 Z" stroke-width="0" fill="#762c8d" fill-opacity="0.4745098039215686" />
<path d="M506,-342 L202,-162 L354,-890 L622,-914 L274,-730 L146,-1278 Z" stroke-width="0" fill="#d4ecff" fill-opacity="0.03529411764705882" />
<path d="M650,-238 L310,-230 L566,-406 L198,-230 L846,-554 L970,-910 Z" stroke-width="0" fill="#e155bc" fill-opacity="0.08235294117647059" />
<path d="M782,-734 L218,-210 L910,-738 L522,-894 L898,-514 L398,-930 Z" stroke-width="0" fill="#e80e1e" fill-opacity="0.22745098039215686" />
<path d="M778,-106 L454,-350 L302,-342 L614,-474 L118,-1050 L942,-718 Z" stroke-width="0" fill="#f5dbf5" fill-opacity="0.13333333333333333" />
<path d="M698,-1086 L258,-90 L326,-1094 L570,-1182 L822,-234 L114,-598 Z" stroke-width="0" fill="#eafbf3" fill-opacity="0.01568627450980392" />
<path d="M602,-606 L266,-498 L482,-1230 L554,-1054 L286,-1270 L110,-618 Z" stroke-width="0" fill="#c1abc6" fill-opacity="0.00784313725490196" />
<path d="M490,-718 L778,-770 L798,-1014 L550,-242 L102,-1274 L186,-354 Z" stroke-width="0" fill="#d2d2f3" fill-opacity="0.1450980392156863" />
<path d="M486,-674 L886,-282 L398,-194 L358,-566 L650,-382 L586,-566 Z" stroke-width="0" fill="#f4f7e6" fill-opacity="0.615686274509804" />
<path d="M414,-982 L162,-198 L774,-254 L126,-974 L442,-790 L522,-130 Z" stroke-width="0" fill="#d1fafa" fill-opacity="0.011764705882352941" />
<path d="M802,-386 L106,-802 L482,-838 L590,-314 L722,-354 L586,-514 Z" stroke-width="0" fill="#bae608" fill-opacity="0.023529411764705882" />
<path d="M310,-582 L310,-1058 L574,-282 L422,-954 L474,-342 L322,-970 Z" stroke-width="0" fill="#fdfee2" fill-opacity="0.03137254901960784" />
<path d="M106,-530 L318,-854 L626,-610 L110,-378 L762,-1058 L774,-374 Z" stroke-width="0" fill="#f7f1c2" fill-opacity="0.19215686274509805" />
<path d="M562,-682 L770,-234 L314,-422 L106,-162 L954,-450 L942,-1118 Z" stroke-width="0" fill="#cb282b" fill-opacity="0.0392156862745098" />
<path d="M438,-330 L506,-582 L654,-718 L214,-206 L726,-426 L670,-326 Z" stroke-width="0" fill="#639cc2" fill-opacity="0.0" />
<path d="M338,-786 L166,-630 L890,-474 L894,-1218 L190,-1194 L326,-590 Z" stroke-width="0" fill="#b7f0c1" fill-opacity="0.054901960784313725" />
<path d="M894,-1190 L182,-734 L302,-90 L386,-922 L966,-1098 L94,-1058 Z" stroke-width="0" fill="#f3fdce" fill-opacity="0.12549019607843137" />
<path d="M878,-974 L258,-854 L406,-678 L638,-906 L430,-682 L778,-702 Z" stroke-width="0" fill="#eebbfb" fill-opacity="0.11372549019607843" />
<path d="M318,-310 L222,-890 L738,-450 L858,-1046 L294,-186 L678,-898 Z" stroke-width="0" fill="#d2e2ec" fill-opacity="0.12941176470588237" />
<path d="M950,-918 L238,-486 L230,-1210 L182,-482 L374,-662 L734,-870 Z" stroke-width="0" fill="#f7fef7" fill-opacity="0.7607843137254902" />
<path d="M458,-1170 L606,-550 L826,-1182 L486,-538 L542,-806 L602,-158 Z" stroke-width="0" fill="#fbf5fc" fill-opacity="0.6039215686274509" />
<path d="M614,-510 L266,-114 L858,-1058 L898,-362 L630,-234 L538,-186 Z" stroke-width="0" fill="#fbf2a4" fill-opacity="0.08235294117647059" />
<path d="M406,-1126 L798,-194 L334,-970 L894,-1126 L434,-862 L626,-694 Z" stroke-width="0" fill="#eeeef5" fill-opacity="0.6039215686274509" />
<path d="M282,-134 L626,-442 L958,-430 L158,-954 L342,-242 L538,-94 Z" stroke-width="0" fill="#c098c1" fill-opacity="0.07058823529411765" />
<path d="M202,-102 L174,-602 L186,-958 L810,-218 L258,-610 L170,-978 Z" stroke-width="0" fill="#faf6ff" fill-opacity="0.11372549019607843" />
<path d="M286,-182 L910,-170 L710,-554 L198,-278 L174,-758 L930,-506 Z" stroke-width="0" fill="#d8f5f0" fill-opacity="0.07058823529411765" />
<path d="M466,-638 L838,-606 L354,-458 L298,-774 L254,-138 L910,-638 Z" stroke-width="0" fill="#bfa4f9" fill-opacity="0.058823529411764705" />
<path d="M618,-158 L714,-854 L814,-1018 L302,-822 L938,-750 L110,-142 Z" stroke-width="0" fill="#f6a57f" fill-opacity="0.00392156862745098" />
<path d="M686,-242 L698,-102 L594,-150 L406,-406 L150,-694 L530,-426 Z" stroke-width="0" fill="#c8e9f2" fill-opacity="0.047058823529411764" />
<path d="M730,-530 L458,-646 L366,-302 L150,-166 L954,-962 L770,-262 Z" stroke-width="0" fill="#d7f0d0" fill-opacity="0.13333333333333333" />
<path d="M794,-1158 L554,-710 L102,-1130 L418,-602 L702,-410 L442,-218 Z" stroke-width="0" fill="#f8e5dc" fill-opacity="0.19215686274509805" />
<path d="M470,-1070 L774,-346 L326,-1246 L790,-1014 L786,-506 L482,-658 Z" stroke-width="0" fill="#f1ffe2" fill-opacity="0.0392156862745098" />
<path d="M606,-1002 L442,-130 L270,-350 L442,-490 L130,-274 L682,-1250 Z" stroke-width="0" fill="#d4fdf1" fill-opacity="0.24313725490196078" />
<path d="M178,-1058 L654,-598 L266,-942 L226,-134 L154,-802 L366,-86 Z" stroke-width="0" fill="#e0e4e8" fill-opacity="0.17647058823529413" />
<path d="M474,-1106 L694,-242 L562,-1222 L330,-206 L442,-686 L886,-426 Z" stroke-width="0" fill="#50703d" fill-opacity="0.00784313725490196" />
<path d="M394,-550 L314,-406 L350,-238 L474,-362 L94,-1078 L806,-218 Z" stroke-width="0" fill="#edf0eb" fill-opacity="0.33725490196078434" />
<path d="M666,-730 L806,-1138 L234,-1086 L958,-750 L226,-794 L398,-250 Z" stroke-width="0" fill="#f5f6ff" fill-opacity="0.9411764705882353" />
<path d="M410,-1162 L962,-230 L698,-630 L654,-242 L106,-482 L674,-670 Z" stroke-width="0" fill="#e2fdf0" fill-opacity="0.29411764705882354" />
<path d="M566,-366 L326,-1058 L110,-1230 L314,-610 L710,-398 L330,-942 Z" stroke-width="0" fill="#f0ade4" fill-opacity="0.043137254901960784" />
<path d="M838,-1242 L602,-218 L326,-714 L178,-438 L618,-190 L146,-1050 Z" stroke-width="0" fill="#a9e6fa" fill-opacity="0.0196078431372549" />
<path d="M282,-398 L438,-90 L966,-310 L418,-874 L838,-138 L530,-958 Z" stroke-width="0" fill="#fefac2" fill-opacity="0.0784313725490196" />
<path d="M466,-1102 L686,-158 L410,-322 L194,-394 L922,-734 L606,-482 Z" stroke-width="0" fill="#fae0da" fill-opacity="0.19215686274509805" />
<path d="M578,-238 L310,-106 L926,-718 L422,-238 L666,-1138 L614,-786 Z" stroke-width="0" fill="#baedf0" fill-opacity="0.027450980392156862" />
<path d="M802,-998 L714,-282 L450,-430 L226,-342 L818,-474 L242,-1046 Z" stroke-width="0" fill="#ccfef7" fill-opacity="0.06274509803921569" />
<path d="M422,-498 L738,-306 L634,-998 L642,-362 L322,-238 L746,-610 Z" stroke-width="0" fill="#ffcdfc" fill-opacity="0.47843137254901963" />
<path d="M326,-962 L334,-466 L430,-978 L402,-358 L950,-1098 L690,-414 Z" stroke-width="0" fill="#fce9fa" fill-opacity="0.30196078431372547" />
<path d="M342,-798 L838,-314 L230,-798 L238,-378 L658,-954 L550,-738 Z" stroke-width="0" fill="#cff8f0" fill-opacity="0.06666666666666667" />
<path d="M490,-122 L786,-526 L782,-86 L446,-726 L398,-150 L214,-274 Z" stroke-width="0" fill="#f1e2f5" fill-opacity="0.39215686274509803" />
<path d="M562,-430 L474,-454 L442,-1018 L890,-134 L286,-794 L182,-450 Z" stroke-width="0" fill="#d976de" fill-opacity="0.00392156862745098" />
<path d="M722,-1090 L690,-226 L878,-314 L234,-274 L354,-734 L398,-366 Z" stroke-width="0" fill="#e6fefb" fill-opacity="0.592156862745098" />
<path d="M566,-838 L710,-842 L810,-258 L122,-850 L610,-506 L906,-326 Z" stroke-width="0" fill="#f3e0fb" fill-opacity="0.4666666666666667" />
<path d="M298,-1154 L422,-102 L458,-442 L970,-422 L782,-762 L114,-1070 Z" stroke-width="0" fill="#eee6eb" fill-opacity="0.09019607843137255" />
<path d="M630,-1250 L94,-646 L198,-174 L262,-438 L586,-834 L802,-326 Z" stroke-width="0" fill="#f1f0d0" fill-opacity="0.06274509803921569" />
<path d="M610,-926 L562,-630 L190,-882 L230,-446 L586,-438 L98,-366 Z" stroke-width="0" fill="#fafcfb" fill-opacity="0.611764705882353" />
<path d="M722,-1278 L202,-130 L102,-766 L410,-586 L150,-882 L442,-578 Z" stroke-width="0" fill="#eacbfd" fill-opacity="0.16470588235294117" />
<path d="M370,-478 L534,-94 L266,-534 L382,-342 L118,-894 L762,-150 Z" stroke-width="0" fill="#fbf8ef" fill-opacity="0.7411764705882353" />
<path d="M462,-642 L778,-1054 L906,-350 L506,-282 L970,-490 L226,-854 Z" stroke-width="0" fill="#729fc2" fill-opacity="0.20784313725490197" />
<path d="M426,-206 L450,-1126 L774,-678 L366,-146 L738,-662 L510,-274 Z" stroke-width="0" fill="#fef4d2" fill-opacity="0.37254901960784315" />
<path d="M546,-198 L342,-966 L926,-374 L286,-474 L326,-870 L350,-738 Z" stroke-width="0" fill="#c78b01" fill-opacity="0.00784313725490196" />
<path d="M254,-582 L118,-574 L566,-194 L726,-198 L810,-1154 L782,-1054 Z" stroke-width="0" fill="#f8fff8" fill-opacity="0.6901960784313725" />
<path d="M790,-742 L594,-762 L398,-1010 L194,-646 L274,-886 L130,-166 Z" stroke-width="0" fill="#fbc7ec" fill-opacity="0.12941176470588237" />
<path d="M838,-310 L286,-554 L962,-866 L838,-634 L294,-742 L742,-350 Z" stroke-width="0" fill="#9e2ba0" fill-opacity="0.17647058823529413" />
<path d="M670,-774 L262,-1090 L410,-562 L690,-602 L398,-642 L862,-774 Z" stroke-width="0" fill="#d3f9cb" fill-opacity="0.03529411764705882" />
<path d="M350,-82 L698,-94 L654,-854 L586,-406 L578,-710 L490,-266 Z" stroke-width="0" fill="#b6ded9" fill-opacity="0.10196078431372549" />
<path d="M142,-910 L718,-238 L422,-182 L786,-418 L90,-94 L430,-598 Z" stroke-width="0" fill="#d2e5f9" fill-opacity="0.1803921568627451" />
<path d="M942,-350 L598,-1278 L106,-1234 L750,-470 L198,-234 L726,-550 Z" stroke-width="0" fill="#fabbe9" fill-opacity="0.11372549019607843" />
<path d="M266,-918 L302,-110 L786,-418 L830,-186 L706,-1122 L682,-194 Z" stroke-width="0" fill="#f7eff5" fill-opacity="0.23529411764705882" />
<path d="M202,-374 L374,-366 L606,-1174 L390,-1082 L150,-1046 L270,-1126 Z" stroke-width="0" fill="#e4a7fc" fill-opacity="0.07450980392156863" />
<path d="M274,-86 L358,-462 L810,-222 L126,-94 L554,-738 L330,-642 Z" stroke-width="0" fill="#faf7ff" fill-opacity="0.08235294117647059" />
<path d="M682,-886 L966,-642 L918,-1274 L134,-798 L162,-974 L354,-634 Z" stroke-width="0" fill="#cafee4" fill-opacity="0.10588235294117647" />
<path d="M286,-406 L270,-1202 L726,-866 L270,-222 L118,-606 L250,-790 Z" stroke-width="0" fill="#dbfdf2" fill-opacity="0.2235294117647059" />
<path d="M490,-282 L950,-378 L122,-1194 L850,-510 L938,-678 L154,-1234 Z" stroke-width="0" fill="#fbd1e6" fill-opacity="0.09411764705882353" />
<path d="M782,-310 L730,-582 L326,-714 L726,-354 L586,-514 L786,-138 Z" stroke-width="0" fill="#dc037c" fill-opacity="0.11764705882352941" />
<path d="M94,-1122 L390,-442 L914,-598 L626,-234 L414,-218 L750,-322 Z" stroke-width="0" fill="#ffdce2" fill-opacity="0.2823529411764706" />
<path d="M266,-178 L674,-994 L810,-110 L306,-678 L658,-978 L518,-174 Z" stroke-width="0" fill="#e5fcfd" fill-opacity="0.6078431372549019" />
<path d="M662,-754 L90,-502 L274,-1262 L974,-554 L370,-510 L282,-398 Z" stroke-width="0" fill="#7a7073" fill-opacity="0.00392156862745098" />
<path d="M954,-590 L498,-658 L882,-1170 L610,-1134 L134,-454 L434,-138 Z" stroke-width="0" fill="#c3f3ee" fill-opacity="0.19607843137254902" />
<path d="M622,-186 L902,-882 L270,-706 L494,-866 L410,-1262 L966,-238 Z" stroke-width="0" fill="#95f7b1" fill-opacity="0.03529411764705882" />
<path d="M210,-890 L266,-206 L730,-414 L314,-1254 L970,-890 L490,-506 Z" stroke-width="0" fill="#f5e79e" fill-opacity="0.13725490196078433" />
<text x="448.0" y="0" font-size="70.0" fill="black" text-anchor="middle" transform="translate(0,17.5)">2 OF EARTH</text>
</svg>