<?xml version="1.0" encoding="UTF-8"?>
<svg xmlns="http://www.w3.org/2000/svg" xmlns:xlink="http://www.w3.org/1999/xlink"
     width="275" height="375" viewBox="0 -350 275 375">
<defs>
</defs>
<rect x="15" y="-335" width="245" height="320" stroke="black" stroke-width="4" fill="white" />
<path d="M110,-221 L33,-166 L187,-116 L224,-319 L96,-315 L100,-143 Z" stroke-width="0" fill="#a5ac8f" fill-opacity="0.5019607843137255" />
<path d="M207,-95 L121,-51 L141,-264 L63,-65 L31,-299 L54,-213 Z" stroke-width="0" fill="#17d2e8" fill-opacity="0.2784313725490196" />
<path d="M220,-151 L26,-195 L34,-33 L66,-56 L194,-106 L220,-235 Z" stroke-width="0" fill="#313e08" fill-opacity="0.5019607843137255" />
<path d="M101,-213 L245,-147 L226,-304 L240,-47 L124,-30 L101,-212 Z" stroke-width="0" fill="#1e240b" fill-opacity="0.6862745098039216" />
<path d="M187,-30 L132,-164 L44,-91 L163,-163 L57,-86 L122,-100 Z" stroke-width="0" fill="#129986" fill-opacity="0.26666666666666666" />
<path d="M202,-132 L168,-187 L215,-55 L245,-295 L26,-177 L77,-125 Z" stroke-width="0" fill="#000100" fill-opacity="0.17254901960784313" />
<path d="M122,-107 L70,-207 L119,-285 L54,-61 L120,-298 L51,-35 Z" stroke-width="0" fill="#11c6fa" fill-opacity="0.23137254901960785" />
<path d="M224,-181 L190,-130 L150,-228 L142,-111 L215,-297 L35,-54 Z" stroke-width="0" fill="#8d9bcf" fill-opacity="0.15294117647058825" />
<path d="M132,-110 L109,-177 L120,-152 L116,-101 L83,-162 L57,-154 Z" stroke-width="0" fill="#fb8e52" fill-opacity="0.9607843137254902" />
<path d="M124,-64 L189,-262 L113,-47 L129,-115 L133,-59 L28,-177 Z" stroke-width="0" fill="#5c9977" fill-opacity="0.4392156862745098" />
<path d="M64,-212 L49,-106 L55,-267 L37,-278 L71,-221 L113,-88 Z" stroke-width="0" fill="#b8fdf5" fill-opacity="0.22745098039215686" />
<path d="M122,-100 L201,-130 L151,-186 L129,-225 L102,-62 L219,-45 Z" stroke-width="0" fill="#09003d" fill-opacity="0.6901960784313725" />
<path d="M55,-155 L57,-131 L140,-116 L116,-118 L79,-255 L198,-107 Z" stroke-width="0" fill="#cb57a3" fill-opacity="0.6862745098039216" />
<path d="M150,-179 L178,-279 L49,-160 L227,-66 L25,-74 L146,-296 Z" stroke-width="0" fill="#a1a3a7" fill-opacity="0.7686274509803922" />
<path d="M48,-168 L75,-161 L135,-276 L57,-42 L244,-43 L52,-91 Z" stroke-width="0" fill="#e0d45b" fill-opacity="0.9490196078431372" />
<path d="M114,-86 L104,-304 L163,-179 L194,-67 L240,-246 L110,-168 Z" stroke-width="0" fill="#00151e" fill-opacity="0.6980392156862745" />
<path d="M84,-196 L113,-88 L26,-255 L142,-95 L221,-222 L57,-37 Z" stroke-width="0" fill="#7ff0bc" fill-opacity="0.27450980392156865" />
<path d="M54,-141 L194,-125 L81,-277 L179,-308 L42,-219 L205,-143 Z" stroke-width="0" fill="#41ff7a" fill-opacity="0.00392156862745098" />
<path d="M160,-50 L119,-60 L60,-170 L83,-183 L225,-264 L220,-138 Z" stroke-width="0" fill="#021600" fill-opacity="0.9137254901960784" />
<path d="M30,-306 L34,-39 L201,-234 L40,-161 L36,-285 L171,-182 Z" stroke-width="0" fill="#317618" fill-opacity="0.24705882352941178" />
<path d="M131,-104 L60,-282 L183,-180 L139,-310 L41,-141 L140,-163 Z" stroke-width="0" fill="#e0d9d3" fill-opacity="0.23529411764705882" />
<path d="M106,-265 L155,-235 L122,-141 L58,-58 L122,-242 L182,-158 Z" stroke-width="0" fill="#bdccd1" fill-opacity="0.16470588235294117" />
<path d="M43,-168 L39,-282 L187,-317 L224,-148 L147,-50 L64,-92 Z" stroke-width="0" fill="#864ce9" fill-opacity="0.09019607843137255" />
<path d="M245,-212 L38,-55 L155,-42 L107,-72 L126,-228 L151,-113 Z" stroke-width="0" fill="#aec12d" fill-opacity="0.23137254901960785" />
<path d="M99,-158 L144,-177 L229,-197 L81,-295 L100,-116 L51,-95 Z" stroke-width="0" fill="#1db218" fill-opacity="0.5019607843137255" />
<path d="M55,-78 L187,-187 L94,-129 L91,-307 L221,-86 L236,-275 Z" stroke-width="0" fill="#000000" fill-opacity="0.35294117647058826" />
<path d="M143,-270 L170,-121 L202,-185 L119,-204 L166,-145 L133,-134 Z" stroke-width="0" fill="#c4a0ac" fill-opacity="0.1607843137254902" />
<path d="M144,-101 L53,-118 L155,-91 L229,-215 L148,-279 L249,-88 Z" stroke-width="0" fill="#414854" fill-opacity="0.8666666666666667" />
<path d="M35,-120 L177,-221 L211,-68 L49,-49 L210,-220 L38,-194 Z" stroke-width="0" fill="#8da66d" fill-opacity="0.34509803921568627" />
<path d="M96,-170 L157,-178 L111,-159 L220,-316 L58,-39 L183,-252 Z" stroke-width="0" fill="#fae1ce" fill-opacity="0.7294117647058823" />
<path d="M88,-53 L147,-221 L41,-66 L180,-247 L36,-220 L34,-26 Z" stroke-width="0" fill="#a27feb" fill-opacity="0.34901960784313724" />
<path d="M68,-174 L48,-145 L120,-105 L136,-184 L229,-93 L48,-33 Z" stroke-width="0" fill="#6b663d" fill-opacity="0.592156862745098" />
<path d="M37,-190 L29,-167 L167,-287 L76,-65 L52,-185 L71,-144 Z" stroke-width="0" fill="#bafae1" fill-opacity="0.2235294117647059" />
<path d="M236,-210 L46,-79 L172,-77 L38,-214 L244,-200 L101,-138 Z" stroke-width="0" fill="#32ee15" fill-opacity="0.1843137254901961" />
<path d="M166,-281 L242,-38 L190,-77 L114,-215 L118,-45 L164,-180 Z" stroke-width="0" fill="#c022f6" fill-opacity="0.023529411764705882" />
<path d="M234,-179 L139,-177 L76,-196 L49,-146 L58,-160 L141,-238 Z" stroke-width="0" fill="#000000" fill-opacity="0.5019607843137255" />
<path d="M123,-159 L40,-190 L73,-293 L29,-279 L203,-247 L100,-121 Z" stroke-width="0" fill="#000127" fill-opacity="0.17254901960784313" />
<path d="M138,-194 L215,-238 L62,-185 L38,-256 L170,-283 L83,-51 Z" stroke-width="0" fill="#37a8df" fill-opacity="0.17254901960784313" />
<path d="M122,-322 L58,-213 L117,-146 L58,-109 L134,-31 L246,-32 Z" stroke-width="0" fill="#120000" fill-opacity="0.6352941176470588" />
<path d="M149,-48 L177,-230 L183,-60 L85,-254 L185,-244 L70,-151 Z" stroke-width="0" fill="#bb0301" fill-opacity="0.8588235294117647" />
<path d="M93,-30 L134,-61 L240,-53 L26,-194 L190,-162 L98,-302 Z" stroke-width="0" fill="#c4e40a" fill-opacity="0.28627450980392155" />
<path d="M147,-224 L156,-101 L162,-237 L209,-269 L231,-202 L147,-302 Z" stroke-width="0" fill="#93b04c" fill-opacity="0.08235294117647059" />
<path d="M158,-71 L155,-166 L139,-73 L188,-184 L57,-291 L221,-111 Z" stroke-width="0" fill="#92bda4" fill-opacity="0.9137254901960784" />
<path d="M109,-60 L67,-227 L160,-140 L203,-65 L122,-169 L211,-184 Z" stroke-width="0" fill="#1fc58a" fill-opacity="0.5607843137254902" />
<path d="M66,-206 L42,-175 L148,-271 L210,-162 L220,-251 L78,-160 Z" stroke-width="0" fill="#0a0002" fill-opacity="0.9372549019607843" />
<path d="M99,-136 L162,-295 L73,-215 L58,-168 L151,-38 L182,-97 Z" stroke-width="0" fill="#e1f070" fill-opacity="0.34901960784313724" />
<path d="M166,-100 L30,-143 L188,-85 L191,-137 L242,-225 L80,-306 Z" stroke-width="0" fill="#373b2d" fill-opacity="0.18823529411764706" />
<path d="M237,-207 L68,-150 L223,-293 L104,-80 L240,-307 L25,-267 Z" stroke-width="0" fill="#c6aac4" fill-opacity="0.47058823529411764" />
<path d="M79,-67 L134,-169 L177,-145 L195,-180 L174,-43 L119,-83 Z" stroke-width="0" fill="#452a09" fill-opacity="0.7529411764705882" />
<path d="M189,-280 L105,-160 L127,-278 L46,-76 L183,-211 L82,-92 Z" stroke-width="0" fill="#92f1c4" fill-opacity="0.38823529411764707" />
<path d="M76,-154 L143,-25 L90,-76 L101,-202 L197,-91 L155,-102 Z" stroke-width="0" fill="#6b4d28" fill-opacity="1.0" />
<path d="M186,-306 L52,-161 L219,-171 L135,-219 L79,-187 L195,-105 Z" stroke-width="0" fill="#16c247" fill-opacity="0.0196078431372549" />
<path d="M73,-29 L235,-41 L205,-192 L103,-210 L217,-302 L33,-96 Z" stroke-width="0" fill="#32455d" fill-opacity="0.8392156862745098" />
<path d="M89,-158 L141,-221 L189,-204 L119,-138 L177,-138 L25,-293 Z" stroke-width="0" fill="#6049b0" fill-opacity="0.5803921568627451" />
<path d="M41,-190 L222,-158 L163,-227 L92,-246 L40,-276 L241,-81 Z" stroke-width="0" fill="#52007f" fill-opacity="0.396078431372549" />
<path d="M73,-42 L126,-111 L199,-303 L123,-182 L76,-234 L78,-41 Z" stroke-width="0" fill="#1d7526" fill-opacity="0.25098039215686274" />
<path d="M79,-61 L51,-41 L81,-265 L122,-97 L103,-249 L178,-164 Z" stroke-width="0" fill="#b25eb0" fill-opacity="0.4549019607843137" />
<path d="M134,-320 L138,-82 L39,-180 L247,-115 L25,-166 L126,-269 Z" stroke-width="0" fill="#a1acb4" fill-opacity="0.3333333333333333" />
<path d="M125,-70 L102,-272 L218,-303 L172,-79 L223,-285 L25,-285 Z" stroke-width="0" fill="#bfc199" fill-opacity="0.6196078431372549" />
<path d="M70,-172 L230,-117 L199,-197 L189,-98 L98,-219 L176,-323 Z" stroke-width="0" fill="#cde1db" fill-opacity="0.10588235294117647" />
<path d="M178,-274 L152,-61 L155,-94 L124,-56 L202,-228 L150,-124 Z" stroke-width="0" fill="#01080d" fill-opacity="0.9019607843137255" />
<path d="M51,-57 L137,-55 L79,-189 L94,-65 L202,-270 L86,-287 Z" stroke-width="0" fill="#c4feeb" fill-opacity="0.19607843137254902" />
<path d="M247,-185 L116,-323 L52,-138 L227,-232 L172,-159 L122,-186 Z" stroke-width="0" fill="#a5d6a6" fill-opacity="0.07058823529411765" />
<path d="M75,-57 L142,-288 L69,-177 L121,-321 L183,-93 L62,-37 Z" stroke-width="0" fill="#e0fcca" fill-opacity="0.7647058823529411" />
<path d="M177,-93 L28,-167 L46,-235 L114,-271 L86,-62 L86,-93 Z" stroke-width="0" fill="#de96d5" fill-opacity="0.15294117647058825" />
<path d="M216,-150 L209,-112 L47,-153 L78,-72 L228,-239 L28,-290 Z" stroke-width="0" fill="#939197" fill-opacity="0.058823529411764705" />
<path d="M192,-281 L157,-239 L190,-317 L169,-107 L149,-215 L40,-321 Z" stroke-width="0" fill="#c0a8c6" fill-opacity="0.6784313725490196" />
<path d="M151,-92 L119,-115 L148,-75 L172,-210 L137,-159 L81,-66 Z" stroke-width="0" fill="#b816ff" fill-opacity="0.9568627450980393" />
<path d="M85,-187 L237,-317 L177,-309 L115,-62 L119,-134 L246,-95 Z" stroke-width="0" fill="#b9ced8" fill-opacity="0.6901960784313725" />
<path d="M85,-284 L203,-239 L204,-150 L121,-57 L205,-251 L57,-45 Z" stroke-width="0" fill="#01232f" fill-opacity="0.054901960784313725" />
<path d="M157,-71 L224,-220 L30,-65 L196,-179 L228,-162 L213,-71 Z" stroke-width="0" fill="#db6a67" fill-opacity="0.35294117647058826" />
<path d="M71,-167 L38,-233 L26,-188 L68,-267 L53,-259 L44,-175 Z" stroke-width="0" fill="#a3d79d" fill-opacity="0.9372549019607843" />
<path d="M75,-93 L243,-166 L213,-156 L189,-78 L202,-125 L198,-155 Z" stroke-width="0" fill="#526eb7" fill-opacity="0.43137254901960786" />
<path d="M165,-94 L28,-262 L77,-96 L28,-74 L201,-240 L239,-185 Z" stroke-width="0" fill="#8f6626" fill-opacity="0.21568627450980393" />
<path d="M52,-188 L94,-241 L48,-44 L72,-190 L149,-183 L145,-105 Z" stroke-width="0" fill="#9f945f" fill-opacity="0.3764705882352941" />
<path d="M62,-114 L96,-199 L84,-26 L198,-149 L152,-254 L106,-138 Z" stroke-width="0" fill="#360b23" fill-opacity="0.8470588235294118" />
<path d="M102,-77 L41,-62 L92,-96 L54,-239 L237,-144 L137,-156 Z" stroke-width="0" fill="#89dc58" fill-opacity="0.21176470588235294" />
<path d="M129,-257 L49,-160 L228,-103 L232,-82 L48,-48 L34,-189 Z" stroke-width="0" fill="#a7a591" fill-opacity="0.5333333333333333" />
<path d="M149,-120 L145,-153 L81,-150 L209,-38 L167,-121 L177,-123 Z" stroke-width="0" fill="#cf7700" fill-opacity="0.0784313725490196" />
<path d="M41,-151 L57,-82 L107,-232 L34,-208 L63,-44 L83,-107 Z" stroke-width="0" fill="#999abc" fill-opacity="0.6549019607843137" />
<path d="M242,-121 L178,-185 L54,-196 L150,-174 L128,-64 L181,-58 Z" stroke-width="0" fill="#822c83" fill-opacity="0.5019607843137255" />
<path d="M30,-121 L42,-233 L198,-112 L52,-110 L185,-253 L40,-220 Z" stroke-width="0" fill="#a198a8" fill-opacity="0.5647058823529412" />
<path d="M133,-49 L136,-171 L248,-216 L86,-105 L47,-221 L177,-69 Z" stroke-width="0" fill="#e2f1c5" fill-opacity="0.054901960784313725" />
<path d="M149,-179 L102,-176 L30,-182 L117,-138 L145,-272 L148,-187 Z" stroke-width="0" fill="#937875" fill-opacity="0.23137254901960785" />
<path d="M211,-211 L190,-51 L206,-98 L142,-178 L80,-229 L213,-163 Z" stroke-width="0" fill="#939285" fill-opacity="0.08235294117647059" />
<path d="M188,-192 L167,-253 L196,-171 L151,-277 L229,-143 L149,-50 Z" stroke-width="0" fill="#8f4a62" fill-opacity="0.796078431372549" />
<path d="M151,-81 L177,-311 L219,-197 L99,-60 L248,-153 L50,-140 Z" stroke-width="0" fill="#220000" fill-opacity="0.42745098039215684" />
<path d="M124,-113 L125,-173 L192,-315 L166,-188 L140,-186 L208,-47 Z" stroke-width="0" fill="#4f2b62" fill-opacity="0.1411764705882353" />
<path d="M31,-98 L41,-109 L44,-127 L84,-96 L41,-185 L189,-200 Z" stroke-width="0" fill="#91d8c8" fill-opacity="0.16470588235294117" />
<path d="M90,-119 L87,-106 L121,-105 L180,-40 L114,-116 L130,-255 Z" stroke-width="0" fill="#452f2a" fill-opacity="0.8588235294117647" />
<path d="M106,-72 L68,-41 L119,-185 L101,-258 L156,-260 L192,-197 Z" stroke-width="0" fill="#1f0000" fill-opacity="0.984313725490196" />
<path d="M196,-118 L182,-88 L137,-256 L139,-39 L98,-199 L180,-114 Z" stroke-width="0" fill="#583348" fill-opacity="0.38823529411764707" />
<path d="M59,-283 L177,-169 L198,-205 L170,-42 L59,-261 L68,-83 Z" stroke-width="0" fill="#9d9fa3" fill-opacity="0.34901960784313724" />
<path d="M217,-57 L57,-164 L227,-93 L29,-103 L247,-67 L114,-86 Z" stroke-width="0" fill="#b44474" fill-opacity="0.18823529411764706" />
<path d="M107,-181 L59,-34 L222,-72 L220,-83 L246,-217 L102,-207 Z" stroke-width="0" fill="#326349" fill-opacity="0.5019607843137255" />
<path d="M171,-147 L246,-223 L96,-173 L174,-179 L237,-227 L92,-186 Z" stroke-width="0" fill="#00000b" fill-opacity="0.43137254901960786" />
<path d="M202,-142 L56,-64 L201,-225 L189,-275 L246,-258 L53,-143 Z" stroke-width="0" fill="#603e58" fill-opacity="0.3176470588235294" />
<path d="M102,-27 L182,-300 L118,-66 L42,-294 L69,-128 L244,-116 Z" stroke-width="0" fill="#525065" fill-opacity="0.2196078431372549" />
<path d="M146,-158 L118,-298 L96,-101 L187,-148 L173,-216 L59,-158 Z" stroke-width="0" fill="#2a3006" fill-opacity="0.12549019607843137" />
<path d="M165,-245 L182,-267 L135,-164 L58,-270 L112,-182 L196,-311 Z" stroke-width="0" fill="#190502" fill-opacity="0.4980392156862745" />
<text x="137.5" y="12.5" font-size="20.0" fill="black" text-anchor="middle" transform="translate(0,5.0)">QUEEN OF EARTH</text>
</svg>