<?xml version="1.0" encoding="UTF-8"?>
<svg xmlns="http://www.w3.org/2000/svg" xmlns:xlink="http://www.w3.org/1999/xlink"
     width="896" height="1496" viewBox="0 -1400 896 1496" style="font-size:70;font-family:Poor Richard, Times New Roman;stroke:black;stroke-width:1;fill:none">
<defs>
</defs>
<path d="M206,-422 L102,-1054 L354,-126 L790,-398 L562,-218 L206,-298 Z" stroke-width="0" fill="#830180" fill-opacity="0.6509803921568628" />
<path d="M86,-226 L366,-414 L798,-522 L362,-130 L578,-986 L650,-890 Z" stroke-width="0" fill="#193613" fill-opacity="0.8588235294117647" />
<path d="M422,-658 L290,-754 L230,-1210 L550,-1198 L242,-498 L558,-294 Z" stroke-width="0" fill="#29192d" fill-opacity="0.3254901960784314" />
<path d="M122,-1022 L618,-1186 L670,-582 L166,-1250 L130,-1202 L338,-346 Z" stroke-width="0" fill="#fc1fa8" fill-opacity="0.49411764705882355" />
<path d="M146,-1278 L794,-514 L662,-462 L514,-102 L806,-242 L598,-918 Z" stroke-width="0" fill="#1f002c" fill-opacity="0.7725490196078432" />
<path d="M422,-590 L454,-262 L190,-1038 L682,-226 L334,-626 L474,-630 Z" stroke-width="0" fill="#0527c0" fill-opacity="0.5568627450980392" />
<path d="M426,-1018 L274,-1218 L574,-262 L606,-718 L762,-410 L722,-350 Z" stroke-width="0" fill="#1c3538" fill-opacity="0.5294117647058824" />
<path d="M206,-1098 L806,-1034 L562,-618 L306,-1018 L566,-958 L794,-950 Z" stroke-width="0" fill="#13b1e9" fill-opacity="0.4823529411764706" />
<path d="M302,-866 L114,-414 L206,-474 L666,-286 L766,-758 L386,-362 Z" stroke-width="0" fill="#a075f3" fill-opacity="0.13333333333333333" />
<path d="M582,-714 L206,-1246 L314,-998 L530,-258 L306,-826 L758,-846 Z" stroke-width="0" fill="#e7eaea" fill-opacity="0.7137254901960784" />
<path d="M90,-930 L414,-398 L194,-1242 L242,-510 L710,-854 L694,-1038 Z" stroke-width="0" fill="#b7fbd2" fill-opacity="0.9607843137254902" />
<path d="M478,-1070 L558,-1294 L770,-366 L142,-322 L134,-1190 L538,-466 Z" stroke-width="0" fill="#430602" fill-opacity="0.39215686274509803" />
<path d="M190,-1274 L798,-386 L170,-130 L294,-398 L238,-534 L146,-986 Z" stroke-width="0" fill="#240000" fill-opacity="0.5725490196078431" />
<path d="M750,-626 L254,-434 L86,-838 L462,-294 L246,-1206 L686,-238 Z" stroke-width="0" fill="#050011" fill-opacity="0.32941176470588235" />
<path d="M634,-374 L270,-394 L466,-1010 L574,-598 L378,-982 L390,-342 Z" stroke-width="0" fill="#076993" fill-opacity="0.0196078431372549" />
<path d="M394,-238 L274,-1198 L418,-498 L378,-1110 L198,-1078 L654,-738 Z" stroke-width="0" fill="#b3ffe9" fill-opacity="0.7098039215686275" />
<path d="M806,-242 L494,-854 L578,-982 L354,-650 L438,-346 L186,-154 Z" stroke-width="0" fill="#2c4103" fill-opacity="0.4235294117647059" />
<path d="M374,-86 L194,-938 L166,-582 L214,-306 L338,-586 L690,-430 Z" stroke-width="0" fill="#6b0012" fill-opacity="0.8313725490196079" />
<path d="M618,-1122 L602,-1182 L570,-1010 L106,-1178 L150,-1302 L618,-574 Z" stroke-width="0" fill="#6a543c" fill-opacity="0.6470588235294118" />
<path d="M478,-1002 L182,-1070 L130,-698 L782,-406 L302,-1098 L282,-126 Z" stroke-width="0" fill="#190f03" fill-opacity="0.6431372549019608" />
<path d="M770,-430 L662,-1142 L610,-622 L522,-330 L122,-830 L806,-998 Z" stroke-width="0" fill="#86b9e0" fill-opacity="0.5019607843137255" />
<path d="M766,-182 L646,-526 L510,-1214 L694,-1206 L98,-1170 L346,-790 Z" stroke-width="0" fill="#601501" fill-opacity="0.615686274509804" />
<path d="M510,-762 L554,-862 L674,-562 L502,-354 L366,-322 L150,-186 Z" stroke-width="0" fill="#060025" fill-opacity="0.796078431372549" />
<path d="M398,-446 L618,-342 L306,-1178 L334,-746 L410,-1006 L98,-862 Z" stroke-width="0" fill="#8c9e6a" fill-opacity="0.8627450980392157" />
<path d="M650,-458 L790,-406 L126,-1126 L398,-362 L662,-734 L446,-1134 Z" stroke-width="0" fill="#7c0637" fill-opacity="0.2784313725490196" />
<path d="M374,-1110 L266,-206 L334,-286 L778,-558 L438,-170 L82,-1014 Z" stroke-width="0" fill="#54102d" fill-opacity="0.5411764705882353" />
<path d="M650,-466 L546,-642 L142,-754 L146,-642 L766,-326 L390,-90 Z" stroke-width="0" fill="#54000c" fill-opacity="0.7333333333333333" />
<path d="M210,-646 L146,-486 L422,-1278 L178,-670 L798,-790 L278,-158 Z" stroke-width="0" fill="#eac2fa" fill-opacity="0.5098039215686274" />
<path d="M434,-166 L626,-474 L758,-746 L578,-182 L462,-206 L530,-494 Z" stroke-width="0" fill="#2e04a5" fill-opacity="0.023529411764705882" />
<path d="M582,-530 L198,-118 L198,-534 L454,-390 L554,-1010 L414,-314 Z" stroke-width="0" fill="#010600" fill-opacity="0.807843137254902" />
<path d="M134,-706 L750,-934 L86,-490 L430,-966 L358,-130 L462,-302 Z" stroke-width="0" fill="#a4f6d2" fill-opacity="0.06274509803921569" />
<path d="M458,-194 L90,-158 L126,-330 L226,-1198 L502,-866 L94,-850 Z" stroke-width="0" fill="#462b2b" fill-opacity="0.7647058823529411" />
<path d="M194,-842 L610,-434 L138,-246 L526,-526 L642,-670 L442,-1174 Z" stroke-width="0" fill="#614508" fill-opacity="0.7843137254901961" />
<path d="M494,-1230 L106,-442 L170,-794 L510,-474 L130,-1142 L794,-154 Z" stroke-width="0" fill="#655444" fill-opacity="0.9450980392156862" />
<path d="M418,-1214 L610,-150 L558,-250 L370,-914 L146,-918 L150,-1218 Z" stroke-width="0" fill="#955b58" fill-opacity="0.796078431372549" />
<path d="M190,-438 L518,-986 L482,-710 L294,-1314 L498,-710 L510,-82 Z" stroke-width="0" fill="#bf0460" fill-opacity="0.11764705882352941" />
<path d="M302,-218 L318,-286 L90,-518 L754,-234 L270,-170 L342,-462 Z" stroke-width="0" fill="#8c155e" fill-opacity="0.9411764705882353" />
<path d="M798,-926 L722,-134 L262,-658 L206,-966 L358,-330 L682,-242 Z" stroke-width="0" fill="#ac3ac1" fill-opacity="0.2196078431372549" />
<path d="M554,-430 L634,-454 L134,-762 L470,-938 L150,-650 L598,-806 Z" stroke-width="0" fill="#b5223a" fill-opacity="0.8745098039215686" />
<path d="M438,-622 L658,-950 L470,-554 L422,-1082 L226,-950 L258,-954 Z" stroke-width="0" fill="#e0f3f0" fill-opacity="0.592156862745098" />
<path d="M318,-86 L262,-578 L798,-298 L346,-934 L778,-1006 L614,-206 Z" stroke-width="0" fill="#daf8ea" fill-opacity="0.07450980392156863" />
<path d="M206,-606 L542,-610 L218,-462 L106,-218 L714,-226 L222,-746 Z" stroke-width="0" fill="#cd65b1" fill-opacity="0.4980392156862745" />
<path d="M758,-102 L646,-602 L594,-318 L130,-1314 L318,-870 L174,-442 Z" stroke-width="0" fill="#472100" fill-opacity="0.8431372549019608" />
<path d="M178,-222 L210,-386 L282,-1174 L466,-902 L474,-522 L510,-318 Z" stroke-width="0" fill="#1d8a13" fill-opacity="0.7058823529411765" />
<path d="M290,-330 L98,-450 L802,-254 L602,-1258 L454,-998 L298,-806 Z" stroke-width="0" fill="#a10e4b" fill-opacity="0.0196078431372549" />
<path d="M322,-694 L142,-1178 L342,-394 L114,-1238 L498,-114 L570,-174 Z" stroke-width="0" fill="#71422d" fill-opacity="0.8117647058823529" />
<path d="M450,-290 L342,-430 L378,-506 L230,-1018 L394,-386 L310,-414 Z" stroke-width="0" fill="#20ecae" fill-opacity="0.8392156862745098" />
<path d="M142,-86 L262,-646 L130,-882 L718,-226 L450,-326 L430,-954 Z" stroke-width="0" fill="#7aecfc" fill-opacity="0.1450980392156863" />
<path d="M446,-314 L170,-214 L306,-274 L378,-998 L214,-802 L242,-202 Z" stroke-width="0" fill="#8dfb98" fill-opacity="0.6666666666666666" />
<path d="M82,-1074 L618,-754 L214,-1078 L646,-514 L318,-942 L422,-194 Z" stroke-width="0" fill="#968e6f" fill-opacity="0.8901960784313725" />
<path d="M274,-1254 L138,-506 L218,-1246 L270,-762 L634,-458 L666,-122 Z" stroke-width="0" fill="#87786b" fill-opacity="0.996078431372549" />
<path d="M150,-494 L82,-914 L570,-138 L398,-498 L650,-982 L554,-1010 Z" stroke-width="0" fill="#663422" fill-opacity="0.5647058823529412" />
<path d="M494,-166 L206,-974 L338,-1038 L766,-502 L406,-534 L798,-446 Z" stroke-width="0" fill="#39010d" fill-opacity="0.8156862745098039" />
<path d="M230,-558 L502,-1250 L646,-954 L358,-118 L274,-1110 L598,-930 Z" stroke-width="0" fill="#cc85e3" fill-opacity="0.8431372549019608" />
<path d="M438,-1034 L650,-354 L218,-350 L410,-710 L482,-1214 L354,-350 Z" stroke-width="0" fill="#510cbf" fill-opacity="0.5098039215686274" />
<path d="M770,-298 L506,-286 L250,-122 L438,-810 L770,-186 L362,-970 Z" stroke-width="0" fill="#433b00" fill-opacity="0.7843137254901961" />
<path d="M494,-1030 L254,-330 L746,-322 L514,-138 L746,-758 L714,-1166 Z" stroke-width="0" fill="#34bccc" fill-opacity="0.1607843137254902" />
<path d="M98,-326 L238,-1214 L154,-130 L214,-274 L442,-1170 L158,-1178 Z" stroke-width="0" fill="#a44a62" fill-opacity="0.6196078431372549" />
<path d="M750,-282 L310,-214 L366,-598 L738,-854 L434,-722 L370,-1146 Z" stroke-width="0" fill="#af5dcc" fill-opacity="0.5019607843137255" />
<path d="M470,-846 L390,-110 L246,-1274 L354,-594 L390,-858 L306,-530 Z" stroke-width="0" fill="#7f7356" fill-opacity="0.7176470588235294" />
<path d="M494,-542 L286,-690 L98,-306 L578,-446 L782,-342 L338,-826 Z" stroke-width="0" fill="#3f221c" fill-opacity="0.6392156862745098" />
<path d="M462,-318 L134,-102 L210,-1254 L326,-766 L154,-954 L574,-1046 Z" stroke-width="0" fill="#38b635" fill-opacity="0.27058823529411763" />
<path d="M538,-1274 L350,-1150 L142,-1058 L338,-550 L470,-542 L354,-286 Z" stroke-width="0" fill="#8d7e83" fill-opacity="0.8627450980392157" />
<path d="M730,-326 L454,-634 L430,-770 L478,-82 L194,-442 L794,-450 Z" stroke-width="0" fill="#535708" fill-opacity="0.1607843137254902" />
<path d="M502,-386 L670,-102 L130,-782 L706,-698 L670,-226 L98,-410 Z" stroke-width="0" fill="#6a4100" fill-opacity="0.2549019607843137" />
<path d="M426,-838 L810,-242 L330,-486 L314,-782 L618,-622 L678,-682 Z" stroke-width="0" fill="#147309" fill-opacity="0.3215686274509804" />
<path d="M786,-866 L502,-718 L334,-650 L678,-442 L522,-462 L146,-638 Z" stroke-width="0" fill="#d2e8e1" fill-opacity="0.6784313725490196" />
<path d="M118,-218 L326,-506 L406,-482 L410,-774 L214,-462 L674,-150 Z" stroke-width="0" fill="#663a42" fill-opacity="0.396078431372549" />
<path d="M734,-1030 L790,-202 L346,-886 L106,-790 L522,-766 L82,-378 Z" stroke-width="0" fill="#edeada" fill-opacity="0.1568627450980392" />
<path d="M114,-974 L574,-1258 L82,-1078 L502,-346 L682,-958 L390,-514 Z" stroke-width="0" fill="#917458" fill-opacity="0.7254901960784313" />
<path d="M478,-646 L254,-522 L346,-638 L346,-110 L166,-1258 L670,-254 Z" stroke-width="0" fill="#6b469e" fill-opacity="1.0" />
<path d="M534,-494 L622,-918 L370,-1226 L690,-698 L454,-846 L410,-850 Z" stroke-width="0" fill="#e39ccb" fill-opacity="0.08627450980392157" />
<path d="M770,-566 L222,-798 L566,-310 L498,-1314 L494,-226 L478,-810 Z" stroke-width="0" fill="#5d5632" fill-opacity="0.5176470588235295" />
<path d="M662,-294 L562,-202 L126,-562 L550,-866 L470,-1306 L438,-282 Z" stroke-width="0" fill="#599600" fill-opacity="0.2901960784313726" />
<path d="M674,-886 L550,-342 L670,-122 L438,-1118 L674,-1114 L286,-1082 Z" stroke-width="0" fill="#8be3cb" fill-opacity="0.16470588235294117" />
<path d="M750,-238 L578,-1022 L482,-374 L606,-198 L202,-882 L638,-166 Z" stroke-width="0" fill="#6d003b" fill-opacity="0.6784313725490196" />
<path d="M154,-146 L534,-110 L162,-1258 L138,-546 L370,-1078 L646,-838 Z" stroke-width="0" fill="#2b5b3e" fill-opacity="0.5372549019607843" />
<path d="M174,-710 L230,-418 L570,-514 L278,-222 L214,-1146 L106,-246 Z" stroke-width="0" fill="#7aa392" fill-opacity="0.6549019607843137" />
<path d="M234,-314 L366,-758 L86,-1286 L638,-762 L310,-290 L118,-798 Z" stroke-width="0" fill="#6a4950" fill-opacity="0.6588235294117647" />
<path d="M226,-590 L170,-1254 L666,-834 L282,-618 L338,-566 L126,-802 Z" stroke-width="0" fill="#e5c0cd" fill-opacity="0.29411764705882354" />
<path d="M598,-706 L670,-562 L486,-1002 L698,-178 L126,-1094 L646,-562 Z" stroke-width="0" fill="#a5364b" fill-opacity="0.2235294117647059" />
<path d="M794,-242 L374,-1134 L318,-166 L434,-586 L666,-114 L270,-842 Z" stroke-width="0" fill="#b51067" fill-opacity="0.3764705882352941" />
<path d="M98,-98 L250,-914 L726,-1274 L718,-1166 L554,-1166 L326,-1054 Z" stroke-width="0" fill="#91501f" fill-opacity="0.41568627450980394" />
<path d="M710,-1286 L526,-1230 L346,-194 L466,-1026 L254,-862 L666,-282 Z" stroke-width="0" fill="#80786f" fill-opacity="0.23921568627450981" />
<path d="M186,-410 L558,-894 L422,-1098 L266,-934 L290,-722 L438,-938 Z" stroke-width="0" fill="#a38383" fill-opacity="0.3843137254901961" />
<path d="M462,-1114 L338,-1214 L602,-126 L114,-1082 L502,-474 L282,-1242 Z" stroke-width="0" fill="#5f6f6e" fill-opacity="0.4470588235294118" />
<path d="M514,-358 L782,-1274 L570,-1258 L242,-318 L314,-598 L422,-910 Z" stroke-width="0" fill="#626f53" fill-opacity="0.5254901960784314" />
<path d="M562,-506 L598,-382 L782,-298 L346,-382 L554,-234 L142,-746 Z" stroke-width="0" fill="#5e3c79" fill-opacity="0.21568627450980393" />
<path d="M466,-846 L318,-1058 L362,-670 L598,-998 L326,-86 L282,-762 Z" stroke-width="0" fill="#8ba32d" fill-opacity="0.10980392156862745" />
<path d="M238,-1030 L210,-650 L98,-778 L414,-274 L690,-670 L310,-326 Z" stroke-width="0" fill="#811c6f" fill-opacity="0.3254901960784314" />
<path d="M190,-102 L222,-778 L414,-678 L430,-494 L234,-686 L590,-334 Z" stroke-width="0" fill="#782366" fill-opacity="0.43137254901960786" />
<path d="M362,-754 L198,-462 L162,-1266 L506,-606 L510,-478 L386,-674 Z" stroke-width="0" fill="#9f6c71" fill-opacity="0.5607843137254902" />
<path d="M266,-1038 L478,-1306 L90,-706 L130,-266 L94,-238 L250,-406 Z" stroke-width="0" fill="#695068" fill-opacity="0.9725490196078431" />
<path d="M354,-366 L586,-1146 L638,-1150 L258,-578 L142,-970 L614,-802 Z" stroke-width="0" fill="#3d571a" fill-opacity="0.054901960784313725" />
<path d="M794,-886 L234,-234 L498,-922 L350,-194 L174,-154 L742,-874 Z" stroke-width="0" fill="#765c17" fill-opacity="0.18823529411764706" />
<path d="M202,-426 L718,-682 L746,-114 L258,-506 L710,-982 L562,-1154 Z" stroke-width="0" fill="#4de056" fill-opacity="0.23137254901960785" />
<path d="M126,-478 L586,-1202 L522,-1066 L330,-678 L302,-154 L530,-410 Z" stroke-width="0" fill="#2e6969" fill-opacity="0.08235294117647059" />
<path d="M398,-1086 L718,-622 L326,-1054 L110,-502 L598,-274 L162,-1222 Z" stroke-width="0" fill="#806147" fill-opacity="0.5019607843137255" />
<path d="M374,-350 L506,-1054 L246,-718 L486,-282 L98,-378 L414,-502 Z" stroke-width="0" fill="#573e28" fill-opacity="0.23921568627450981" />
<path d="M166,-998 L322,-758 L202,-458 L490,-174 L198,-1182 L598,-626 Z" stroke-width="0" fill="#8e8c69" fill-opacity="0.3843137254901961" />
<text x="448.0" y="0" font-size="70.0" fill="black" text-anchor="middle" transform="translate(0,17.5)">4 OF EARTH</text>
</svg>