<?xml version="1.0" encoding="UTF-8"?>
<svg xmlns="http://www.w3.org/2000/svg" xmlns:xlink="http://www.w3.org/1999/xlink"
     width="896" height="1496" viewBox="0 -1400 896 1496" style="font-size:70;font-family:Poor Richard, Times New Roman;stroke:black;stroke-width:1;fill:none">
<defs>
</defs>
<path d="M174,-250 L218,-434 L442,-862 L850,-134 L478,-450 L374,-678 Z" stroke-width="0" fill="#f0ad07" fill-opacity="0.5647058823529412" />
<path d="M362,-182 L614,-810 L558,-1054 L674,-442 L710,-1234 L198,-1214 Z" stroke-width="0" fill="#2701ef" fill-opacity="0.32941176470588235" />
<path d="M494,-110 L206,-558 L230,-1102 L102,-362 L950,-918 L802,-610 Z" stroke-width="0" fill="#53ff0a" fill-opacity="0.40784313725490196" />
<path d="M866,-278 L174,-342 L126,-170 L106,-510 L138,-242 L86,-798 Z" stroke-width="0" fill="#902b66" fill-opacity="0.6313725490196078" />
<path d="M902,-590 L434,-1182 L966,-670 L338,-146 L562,-1222 L446,-430 Z" stroke-width="0" fill="#fed741" fill-opacity="0.6431372549019608" />
<path d="M762,-278 L582,-946 L526,-1234 L898,-850 L270,-546 L254,-130 Z" stroke-width="0" fill="#908ff0" fill-opacity="0.6039215686274509" />
<path d="M254,-322 L682,-310 L930,-410 L642,-1154 L354,-1010 L142,-958 Z" stroke-width="0" fill="#eec699" fill-opacity="0.023529411764705882" />
<path d="M366,-934 L338,-1046 L614,-450 L258,-502 L734,-762 L710,-674 Z" stroke-width="0" fill="#28e067" fill-opacity="0.38823529411764707" />
<path d="M846,-898 L506,-178 L402,-634 L538,-306 L634,-1058 L150,-698 Z" stroke-width="0" fill="#4913fe" fill-opacity="0.8980392156862745" />
<path d="M846,-1162 L434,-1094 L242,-126 L226,-582 L970,-86 L502,-338 Z" stroke-width="0" fill="#cb94dd" fill-opacity="0.4196078431372549" />
<path d="M390,-238 L478,-1082 L970,-482 L670,-610 L454,-962 L234,-778 Z" stroke-width="0" fill="#320000" fill-opacity="0.47058823529411764" />
<path d="M262,-610 L250,-1150 L738,-482 L690,-466 L402,-270 L494,-98 Z" stroke-width="0" fill="#c164d4" fill-opacity="0.6627450980392157" />
<path d="M150,-322 L866,-358 L154,-1102 L126,-586 L574,-290 L166,-130 Z" stroke-width="0" fill="#c3d7fd" fill-opacity="0.043137254901960784" />
<path d="M370,-1174 L650,-1062 L418,-170 L814,-562 L518,-454 L510,-1202 Z" stroke-width="0" fill="#68f1e4" fill-opacity="0.11372549019607843" />
<path d="M494,-182 L738,-990 L318,-554 L786,-714 L194,-862 L266,-1246 Z" stroke-width="0" fill="#767bfb" fill-opacity="0.36470588235294116" />
<path d="M682,-1266 L686,-1274 L266,-350 L298,-402 L934,-434 L978,-866 Z" stroke-width="0" fill="#585ebc" fill-opacity="0.5176470588235295" />
<path d="M482,-126 L918,-454 L638,-334 L762,-322 L254,-762 L190,-470 Z" stroke-width="0" fill="#7cfd19" fill-opacity="0.7450980392156863" />
<path d="M330,-1114 L378,-766 L270,-606 L922,-1214 L562,-830 L974,-686 Z" stroke-width="0" fill="#323286" fill-opacity="0.38823529411764707" />
<path d="M186,-798 L178,-226 L302,-146 L182,-574 L630,-294 L742,-182 Z" stroke-width="0" fill="#25425f" fill-opacity="0.4823529411764706" />
<path d="M230,-118 L874,-1162 L194,-458 L858,-598 L114,-222 L522,-154 Z" stroke-width="0" fill="#f66e5c" fill-opacity="0.4117647058823529" />
<path d="M290,-262 L618,-382 L770,-1154 L970,-1074 L894,-966 L550,-1130 Z" stroke-width="0" fill="#515ea4" fill-opacity="0.4196078431372549" />
<path d="M318,-662 L282,-1230 L974,-578 L178,-474 L250,-510 L618,-258 Z" stroke-width="0" fill="#ef7a80" fill-opacity="0.38823529411764707" />
<path d="M854,-954 L502,-426 L486,-258 L286,-1218 L258,-102 L710,-538 Z" stroke-width="0" fill="#46615b" fill-opacity="0.5882352941176471" />
<path d="M566,-514 L134,-130 L626,-926 L746,-398 L166,-274 L806,-446 Z" stroke-width="0" fill="#a86570" fill-opacity="0.7058823529411765" />
<path d="M654,-454 L494,-782 L958,-698 L298,-1186 L530,-862 L310,-98 Z" stroke-width="0" fill="#000011" fill-opacity="0.4392156862745098" />
<path d="M818,-578 L642,-874 L202,-574 L874,-534 L190,-1138 L330,-470 Z" stroke-width="0" fill="#8786f7" fill-opacity="0.796078431372549" />
<path d="M386,-798 L198,-1258 L926,-958 L474,-846 L790,-522 L942,-962 Z" stroke-width="0" fill="#97a6f3" fill-opacity="0.7176470588235294" />
<path d="M838,-506 L138,-86 L750,-958 L698,-166 L526,-154 L674,-1226 Z" stroke-width="0" fill="#ba98f9" fill-opacity="0.796078431372549" />
<path d="M422,-774 L934,-1082 L94,-406 L454,-422 L422,-1034 L210,-150 Z" stroke-width="0" fill="#a1a2d1" fill-opacity="0.8823529411764706" />
<path d="M214,-398 L254,-114 L102,-654 L298,-122 L866,-86 L770,-794 Z" stroke-width="0" fill="#534640" fill-opacity="0.6627450980392157" />
<path d="M506,-1034 L734,-442 L710,-138 L166,-214 L502,-966 L910,-122 Z" stroke-width="0" fill="#db9047" fill-opacity="0.6549019607843137" />
<path d="M514,-826 L766,-234 L90,-678 L910,-954 L586,-1062 L394,-958 Z" stroke-width="0" fill="#e5f2e9" fill-opacity="0.9176470588235294" />
<path d="M650,-106 L406,-1054 L122,-670 L158,-570 L262,-274 L346,-670 Z" stroke-width="0" fill="#f05460" fill-opacity="0.1411764705882353" />
<path d="M590,-586 L138,-710 L314,-1238 L866,-582 L802,-442 L502,-874 Z" stroke-width="0" fill="#dfd0fe" fill-opacity="0.6313725490196078" />
<path d="M890,-966 L858,-1186 L562,-482 L682,-1070 L674,-578 L754,-318 Z" stroke-width="0" fill="#97a2fb" fill-opacity="0.615686274509804" />
<path d="M406,-1102 L522,-758 L430,-638 L418,-558 L170,-1126 L282,-702 Z" stroke-width="0" fill="#f6f7ee" fill-opacity="0.35294117647058826" />
<path d="M742,-1162 L382,-638 L562,-1134 L222,-522 L802,-506 L534,-846 Z" stroke-width="0" fill="#c3c0c9" fill-opacity="0.24705882352941178" />
<path d="M818,-1246 L398,-1030 L594,-654 L906,-550 L338,-326 L342,-998 Z" stroke-width="0" fill="#8878ed" fill-opacity="0.7764705882352941" />
<path d="M686,-174 L170,-382 L842,-438 L130,-942 L178,-394 L282,-222 Z" stroke-width="0" fill="#fcd5ff" fill-opacity="0.34509803921568627" />
<path d="M338,-142 L838,-782 L262,-1030 L702,-422 L286,-598 L826,-754 Z" stroke-width="0" fill="#311b02" fill-opacity="0.9921568627450981" />
<path d="M362,-1270 L934,-462 L618,-1162 L106,-442 L826,-1070 L430,-494 Z" stroke-width="0" fill="#95a0ee" fill-opacity="0.8470588235294118" />
<path d="M270,-554 L370,-942 L662,-1094 L162,-106 L878,-830 L334,-550 Z" stroke-width="0" fill="#a3a35c" fill-opacity="0.4196078431372549" />
<path d="M554,-1154 L402,-230 L302,-1146 L782,-170 L94,-610 L294,-342 Z" stroke-width="0" fill="#55fbfd" fill-opacity="0.00784313725490196" />
<path d="M102,-330 L562,-158 L658,-962 L726,-322 L506,-990 L310,-186 Z" stroke-width="0" fill="#ee766b" fill-opacity="0.4980392156862745" />
<path d="M558,-258 L750,-426 L426,-218 L646,-394 L842,-114 L746,-206 Z" stroke-width="0" fill="#fd5c94" fill-opacity="0.5568627450980392" />
<path d="M530,-1150 L522,-962 L286,-306 L630,-458 L882,-878 L710,-1114 Z" stroke-width="0" fill="#f1c7f0" fill-opacity="0.13333333333333333" />
<path d="M270,-338 L746,-326 L470,-1254 L678,-854 L738,-114 L434,-194 Z" stroke-width="0" fill="#a9285d" fill-opacity="0.2823529411764706" />
<path d="M334,-890 L854,-538 L834,-882 L554,-1222 L442,-362 L410,-270 Z" stroke-width="0" fill="#827df8" fill-opacity="0.996078431372549" />
<path d="M138,-1034 L222,-802 L198,-346 L122,-902 L178,-258 L246,-526 Z" stroke-width="0" fill="#bae8eb" fill-opacity="0.396078431372549" />
<path d="M90,-694 L606,-1218 L290,-970 L750,-738 L414,-606 L642,-754 Z" stroke-width="0" fill="#3039e6" fill-opacity="0.2235294117647059" />
<path d="M290,-458 L594,-294 L290,-566 L790,-722 L554,-574 L310,-622 Z" stroke-width="0" fill="#79acb0" fill-opacity="0.3058823529411765" />
<path d="M182,-882 L954,-106 L358,-586 L582,-886 L738,-406 L610,-446 Z" stroke-width="0" fill="#10000e" fill-opacity="0.4235294117647059" />
<path d="M594,-382 L710,-886 L278,-990 L882,-170 L574,-226 L214,-694 Z" stroke-width="0" fill="#0c040a" fill-opacity="0.8705882352941177" />
<path d="M790,-122 L914,-482 L510,-950 L458,-1242 L110,-242 L254,-842 Z" stroke-width="0" fill="#726fbd" fill-opacity="0.29411764705882354" />
<path d="M898,-290 L866,-754 L746,-726 L554,-1002 L850,-886 L194,-706 Z" stroke-width="0" fill="#fefffb" fill-opacity="0.8509803921568627" />
<path d="M210,-510 L674,-794 L222,-314 L214,-626 L258,-866 L338,-626 Z" stroke-width="0" fill="#2fc679" fill-opacity="0.4196078431372549" />
<path d="M558,-1266 L494,-826 L394,-1126 L598,-562 L250,-558 L466,-718 Z" stroke-width="0" fill="#6853e5" fill-opacity="0.5019607843137255" />
<path d="M142,-82 L206,-486 L966,-1050 L518,-682 L362,-610 L118,-326 Z" stroke-width="0" fill="#8e783d" fill-opacity="0.6078431372549019" />
<path d="M534,-250 L534,-430 L822,-378 L178,-110 L894,-1214 L530,-142 Z" stroke-width="0" fill="#e0ae9e" fill-opacity="0.5529411764705883" />
<path d="M318,-466 L566,-1138 L598,-790 L358,-190 L534,-914 L470,-1270 Z" stroke-width="0" fill="#7260db" fill-opacity="0.34509803921568627" />
<path d="M350,-394 L162,-978 L582,-1210 L974,-378 L438,-82 L230,-926 Z" stroke-width="0" fill="#d2b0ee" fill-opacity="0.3254901960784314" />
<path d="M266,-242 L310,-1194 L670,-1034 L566,-902 L474,-770 L978,-202 Z" stroke-width="0" fill="#51a2f0" fill-opacity="0.17647058823529413" />
<path d="M862,-342 L506,-658 L514,-634 L98,-546 L698,-542 L478,-1070 Z" stroke-width="0" fill="#acc9f0" fill-opacity="0.30980392156862746" />
<path d="M398,-550 L746,-1050 L698,-774 L826,-106 L666,-370 L706,-1074 Z" stroke-width="0" fill="#280524" fill-opacity="0.011764705882352941" />
<path d="M662,-1206 L98,-202 L798,-754 L838,-570 L754,-402 L426,-938 Z" stroke-width="0" fill="#eaa0f6" fill-opacity="0.12941176470588237" />
<path d="M246,-390 L430,-190 L114,-1178 L794,-1238 L814,-174 L374,-294 Z" stroke-width="0" fill="#95d514" fill-opacity="0.30196078431372547" />
<path d="M482,-762 L654,-1130 L346,-554 L602,-626 L242,-114 L394,-438 Z" stroke-width="0" fill="#bcb47c" fill-opacity="0.4745098039215686" />
<path d="M94,-486 L266,-226 L154,-646 L834,-342 L662,-598 L82,-1094 Z" stroke-width="0" fill="#696474" fill-opacity="0.6078431372549019" />
<path d="M774,-878 L374,-278 L766,-942 L706,-322 L766,-690 L930,-1238 Z" stroke-width="0" fill="#0c2f2a" fill-opacity="0.16862745098039217" />
<path d="M334,-394 L734,-158 L522,-202 L686,-798 L278,-150 L98,-118 Z" stroke-width="0" fill="#c13d08" fill-opacity="0.17647058823529413" />
<path d="M626,-1182 L870,-270 L242,-1026 L854,-462 L578,-210 L358,-270 Z" stroke-width="0" fill="#8cb0eb" fill-opacity="0.17647058823529413" />
<path d="M550,-370 L262,-1138 L350,-1102 L182,-758 L486,-526 L438,-718 Z" stroke-width="0" fill="#243127" fill-opacity="0.6352941176470588" />
<path d="M406,-358 L818,-710 L442,-906 L138,-358 L674,-858 L842,-958 Z" stroke-width="0" fill="#f668d6" fill-opacity="0.20784313725490197" />
<path d="M214,-350 L274,-754 L322,-942 L90,-674 L910,-242 L258,-630 Z" stroke-width="0" fill="#87b7f8" fill-opacity="0.49411764705882355" />
<path d="M506,-982 L614,-354 L402,-166 L934,-586 L570,-954 L798,-466 Z" stroke-width="0" fill="#153b2a" fill-opacity="0.34509803921568627" />
<path d="M722,-826 L426,-474 L614,-766 L182,-926 L366,-586 L734,-390 Z" stroke-width="0" fill="#8da906" fill-opacity="0.6313725490196078" />
<path d="M886,-110 L754,-394 L366,-1218 L582,-234 L138,-682 L754,-178 Z" stroke-width="0" fill="#9b6fa4" fill-opacity="0.6784313725490196" />
<path d="M566,-434 L654,-642 L662,-702 L802,-186 L314,-502 L222,-966 Z" stroke-width="0" fill="#5e49ad" fill-opacity="0.13725490196078433" />
<path d="M586,-1190 L758,-142 L734,-570 L678,-354 L962,-778 L410,-986 Z" stroke-width="0" fill="#7af5dd" fill-opacity="0.07450980392156863" />
<path d="M334,-966 L254,-410 L218,-118 L506,-1166 L974,-126 L910,-1062 Z" stroke-width="0" fill="#90937e" fill-opacity="0.5803921568627451" />
<path d="M946,-358 L662,-802 L290,-202 L814,-526 L158,-302 L850,-1066 Z" stroke-width="0" fill="#cdb591" fill-opacity="0.5882352941176471" />
<path d="M314,-374 L962,-206 L486,-946 L318,-502 L846,-182 L110,-1182 Z" stroke-width="0" fill="#515968" fill-opacity="0.5019607843137255" />
<path d="M134,-462 L230,-306 L806,-438 L114,-1062 L658,-194 L730,-378 Z" stroke-width="0" fill="#a18eae" fill-opacity="0.807843137254902" />
<path d="M178,-930 L446,-874 L890,-222 L526,-818 L450,-914 L98,-490 Z" stroke-width="0" fill="#1c0000" fill-opacity="0.5019607843137255" />
<path d="M626,-514 L650,-842 L902,-678 L610,-186 L898,-258 L518,-558 Z" stroke-width="0" fill="#bdc472" fill-opacity="0.27450980392156865" />
<path d="M886,-262 L794,-130 L342,-522 L878,-1066 L850,-342 L522,-282 Z" stroke-width="0" fill="#8834ff" fill-opacity="0.5019607843137255" />
<path d="M850,-878 L182,-782 L898,-98 L94,-174 L250,-710 L190,-310 Z" stroke-width="0" fill="#6e8c93" fill-opacity="0.6549019607843137" />
<path d="M598,-338 L330,-1154 L118,-914 L94,-410 L574,-818 L614,-818 Z" stroke-width="0" fill="#09022b" fill-opacity="0.16862745098039217" />
<path d="M810,-298 L726,-298 L934,-298 L826,-1130 L90,-462 L190,-1062 Z" stroke-width="0" fill="#5b2e23" fill-opacity="0.27058823529411763" />
<path d="M634,-654 L494,-138 L162,-846 L262,-270 L570,-302 L734,-390 Z" stroke-width="0" fill="#b61595" fill-opacity="0.08627450980392157" />
<path d="M486,-286 L358,-662 L82,-594 L94,-566 L522,-822 L422,-858 Z" stroke-width="0" fill="#9899e2" fill-opacity="0.29411764705882354" />
<path d="M610,-866 L550,-970 L386,-1226 L478,-742 L254,-430 L406,-442 Z" stroke-width="0" fill="#ff9cc9" fill-opacity="0.11372549019607843" />
<path d="M806,-794 L870,-302 L318,-1262 L702,-486 L510,-462 L846,-118 Z" stroke-width="0" fill="#79ae72" fill-opacity="0.396078431372549" />
<path d="M518,-862 L406,-126 L330,-134 L350,-430 L922,-434 L270,-846 Z" stroke-width="0" fill="#96846c" fill-opacity="0.43137254901960786" />
<path d="M126,-254 L290,-1130 L302,-1274 L834,-102 L226,-334 L854,-618 Z" stroke-width="0" fill="#865843" fill-opacity="0.3058823529411765" />
<path d="M98,-326 L406,-418 L370,-978 L398,-1238 L734,-114 L94,-962 Z" stroke-width="0" fill="#2a9047" fill-opacity="0.1607843137254902" />
<path d="M702,-902 L670,-578 L170,-190 L150,-926 L402,-406 L198,-570 Z" stroke-width="0" fill="#af89a6" fill-opacity="0.011764705882352941" />
<path d="M834,-342 L950,-1274 L538,-674 L418,-470 L462,-246 L510,-150 Z" stroke-width="0" fill="#cebf95" fill-opacity="0.3333333333333333" />
<path d="M110,-458 L82,-810 L950,-434 L582,-622 L118,-822 L638,-518 Z" stroke-width="0" fill="#999974" fill-opacity="0.4235294117647059" />
<path d="M970,-1002 L946,-562 L690,-478 L454,-334 L258,-682 L342,-502 Z" stroke-width="0" fill="#546170" fill-opacity="0.1411764705882353" />
<text x="448.0" y="0" font-size="70.0" fill="black" text-anchor="middle" transform="translate(0,17.5)">3 OF EARTH</text>
</svg>