<?xml version="1.0" encoding="UTF-8"?>
<svg xmlns="http://www.w3.org/2000/svg" xmlns:xlink="http://www.w3.org/1999/xlink"
     width="275" height="375" viewBox="0 -350 275 375">
<defs>
</defs>
<rect x="15" y="-335" width="245" height="320" stroke="black" stroke-width="4" fill="white" />
<path d="M198,-200 L214,-172 L51,-244 L35,-306 L86,-172 L94,-44 Z" stroke-width="0" fill="#682d65" fill-opacity="0.00392156862745098" />
<path d="M60,-259 L93,-141 L112,-83 L102,-55 L239,-124 L100,-280 Z" stroke-width="0" fill="#b372df" fill-opacity="0.011764705882352941" />
<path d="M87,-157 L105,-212 L169,-211 L63,-143 L158,-100 L159,-38 Z" stroke-width="0" fill="#03ce8b" fill-opacity="0.9921568627450981" />
<path d="M130,-312 L78,-203 L91,-176 L241,-131 L51,-238 L200,-60 Z" stroke-width="0" fill="#96ba8e" fill-opacity="0.00392156862745098" />
<path d="M78,-118 L57,-53 L121,-134 L213,-310 L92,-242 L75,-111 Z" stroke-width="0" fill="#e5f6ec" fill-opacity="0.0784313725490196" />
<path d="M170,-190 L224,-182 L189,-100 L51,-28 L210,-110 L236,-273 Z" stroke-width="0" fill="#216d00" fill-opacity="0.7450980392156863" />
<path d="M140,-79 L218,-109 L225,-276 L155,-291 L95,-60 L190,-131 Z" stroke-width="0" fill="#f6ec00" fill-opacity="0.5176470588235295" />
<path d="M157,-188 L225,-216 L167,-63 L199,-91 L135,-244 L111,-167 Z" stroke-width="0" fill="#a3ebec" fill-opacity="0.4666666666666667" />
<path d="M123,-258 L134,-142 L144,-286 L247,-168 L143,-57 L172,-233 Z" stroke-width="0" fill="#1d8700" fill-opacity="0.8352941176470589" />
<path d="M184,-184 L190,-112 L42,-152 L149,-194 L202,-234 L157,-67 Z" stroke-width="0" fill="#2a1634" fill-opacity="0.9607843137254902" />
<path d="M28,-191 L87,-71 L117,-166 L232,-162 L62,-235 L95,-151 Z" stroke-width="0" fill="#ecd1e9" fill-opacity="0.2627450980392157" />
<path d="M86,-111 L35,-176 L95,-129 L176,-43 L108,-25 L247,-33 Z" stroke-width="0" fill="#004692" fill-opacity="0.8352941176470589" />
<path d="M39,-245 L95,-193 L70,-68 L119,-290 L128,-247 L209,-141 Z" stroke-width="0" fill="#a671c6" fill-opacity="0.3568627450980392" />
<path d="M134,-110 L202,-301 L93,-109 L40,-83 L199,-79 L44,-241 Z" stroke-width="0" fill="#32fbc7" fill-opacity="0.01568627450980392" />
<path d="M25,-165 L192,-187 L176,-140 L110,-198 L83,-246 L52,-279 Z" stroke-width="0" fill="#aa7e5a" fill-opacity="0.5176470588235295" />
<path d="M164,-171 L185,-193 L150,-203 L103,-207 L144,-122 L30,-159 Z" stroke-width="0" fill="#4b302f" fill-opacity="0.5058823529411764" />
<path d="M81,-137 L128,-249 L217,-176 L65,-245 L111,-288 L144,-319 Z" stroke-width="0" fill="#fefbf9" fill-opacity="0.40784313725490196" />
<path d="M43,-293 L172,-45 L28,-88 L164,-184 L46,-118 L61,-32 Z" stroke-width="0" fill="#2e3492" fill-opacity="0.5019607843137255" />
<path d="M238,-55 L48,-176 L79,-28 L133,-151 L86,-293 L34,-116 Z" stroke-width="0" fill="#cd6737" fill-opacity="0.5019607843137255" />
<path d="M195,-224 L43,-68 L146,-282 L34,-210 L73,-172 L227,-188 Z" stroke-width="0" fill="#dbdef5" fill-opacity="0.5019607843137255" />
<path d="M231,-143 L178,-219 L64,-266 L75,-86 L173,-51 L51,-257 Z" stroke-width="0" fill="#00f6bb" fill-opacity="0.9921568627450981" />
<path d="M143,-84 L235,-279 L115,-113 L248,-277 L64,-117 L39,-53 Z" stroke-width="0" fill="#ddbb13" fill-opacity="0.6549019607843137" />
<path d="M41,-301 L87,-202 L154,-64 L184,-158 L127,-111 L42,-53 Z" stroke-width="0" fill="#d5ea4d" fill-opacity="0.3333333333333333" />
<path d="M44,-136 L87,-151 L115,-147 L101,-227 L122,-83 L158,-199 Z" stroke-width="0" fill="#c85acd" fill-opacity="0.7607843137254902" />
<path d="M72,-205 L51,-310 L84,-97 L242,-232 L184,-90 L233,-136 Z" stroke-width="0" fill="#281f90" fill-opacity="0.6980392156862745" />
<path d="M73,-186 L80,-161 L215,-305 L202,-124 L34,-123 L122,-91 Z" stroke-width="0" fill="#bc55a4" fill-opacity="0.08235294117647059" />
<path d="M174,-60 L138,-132 L107,-238 L28,-130 L61,-30 L206,-297 Z" stroke-width="0" fill="#0045b4" fill-opacity="0.8627450980392157" />
<path d="M210,-122 L73,-300 L214,-43 L90,-288 L73,-195 L134,-173 Z" stroke-width="0" fill="#e7890e" fill-opacity="0.07058823529411765" />
<path d="M240,-212 L59,-230 L159,-280 L80,-79 L69,-306 L182,-229 Z" stroke-width="0" fill="#f06733" fill-opacity="0.027450980392156862" />
<path d="M184,-312 L93,-298 L83,-163 L97,-245 L222,-59 L129,-247 Z" stroke-width="0" fill="#e135b4" fill-opacity="0.0" />
<path d="M157,-230 L175,-145 L47,-313 L169,-141 L125,-97 L91,-102 Z" stroke-width="0" fill="#c5f523" fill-opacity="0.00392156862745098" />
<path d="M143,-223 L243,-40 L57,-37 L138,-107 L208,-87 L148,-293 Z" stroke-width="0" fill="#004582" fill-opacity="0.8156862745098039" />
<path d="M105,-298 L234,-174 L124,-81 L174,-203 L85,-55 L104,-31 Z" stroke-width="0" fill="#59a1fa" fill-opacity="0.20784313725490197" />
<path d="M81,-60 L87,-268 L68,-214 L137,-209 L214,-174 L88,-167 Z" stroke-width="0" fill="#0c1e15" fill-opacity="0.9215686274509803" />
<path d="M192,-109 L46,-301 L40,-76 L64,-86 L124,-256 L194,-112 Z" stroke-width="0" fill="#d8fce0" fill-opacity="0.13725490196078433" />
<path d="M211,-280 L207,-56 L163,-41 L66,-161 L224,-167 L182,-71 Z" stroke-width="0" fill="#00d171" fill-opacity="0.2" />
<path d="M103,-241 L29,-265 L209,-214 L130,-136 L87,-94 L49,-165 Z" stroke-width="0" fill="#ba6e2e" fill-opacity="0.5019607843137255" />
<path d="M113,-99 L109,-56 L111,-132 L121,-115 L121,-130 L204,-149 Z" stroke-width="0" fill="#0e88bd" fill-opacity="0.7176470588235294" />
<path d="M44,-177 L50,-153 L39,-62 L78,-255 L172,-121 L236,-249 Z" stroke-width="0" fill="#003732" fill-opacity="0.3176470588235294" />
<path d="M138,-129 L47,-96 L223,-81 L99,-235 L230,-240 L189,-158 Z" stroke-width="0" fill="#290528" fill-opacity="0.5019607843137255" />
<path d="M109,-309 L122,-283 L218,-210 L78,-216 L64,-276 L106,-70 Z" stroke-width="0" fill="#f3fafb" fill-opacity="0.4823529411764706" />
<path d="M45,-25 L109,-262 L227,-233 L191,-151 L246,-267 L100,-293 Z" stroke-width="0" fill="#673000" fill-opacity="0.5019607843137255" />
<path d="M118,-275 L237,-183 L78,-248 L150,-66 L121,-261 L142,-64 Z" stroke-width="0" fill="#000023" fill-opacity="0.9098039215686274" />
<path d="M57,-170 L163,-222 L147,-213 L108,-261 L100,-52 L246,-94 Z" stroke-width="0" fill="#fae4e4" fill-opacity="0.03529411764705882" />
<path d="M212,-46 L43,-39 L30,-148 L152,-38 L220,-121 L39,-74 Z" stroke-width="0" fill="#0062b8" fill-opacity="0.803921568627451" />
<path d="M209,-297 L40,-258 L140,-170 L160,-324 L248,-184 L244,-61 Z" stroke-width="0" fill="#d29571" fill-opacity="0.5019607843137255" />
<path d="M191,-258 L135,-144 L114,-77 L40,-324 L38,-208 L127,-161 Z" stroke-width="0" fill="#b73625" fill-opacity="0.00784313725490196" />
<path d="M144,-77 L226,-252 L244,-90 L207,-254 L97,-129 L79,-105 Z" stroke-width="0" fill="#53600c" fill-opacity="0.2235294117647059" />
<path d="M153,-56 L185,-256 L247,-84 L87,-191 L207,-26 L110,-199 Z" stroke-width="0" fill="#4bf4e7" fill-opacity="0.12549019607843137" />
<path d="M122,-206 L199,-275 L93,-100 L39,-134 L161,-255 L188,-62 Z" stroke-width="0" fill="#005b9c" fill-opacity="0.6862745098039216" />
<path d="M84,-120 L26,-231 L150,-106 L159,-82 L221,-179 L72,-73 Z" stroke-width="0" fill="#bc78b7" fill-opacity="0.6352941176470588" />
<path d="M111,-299 L66,-229 L215,-44 L198,-48 L119,-274 L48,-145 Z" stroke-width="0" fill="#2bdec2" fill-opacity="0.20784313725490197" />
<path d="M29,-128 L90,-126 L85,-44 L214,-278 L44,-188 L139,-299 Z" stroke-width="0" fill="#006a84" fill-opacity="0.0392156862745098" />
<path d="M132,-119 L68,-224 L219,-132 L42,-49 L167,-267 L110,-125 Z" stroke-width="0" fill="#00bab0" fill-opacity="0.9921568627450981" />
<path d="M203,-131 L187,-236 L109,-78 L249,-25 L241,-182 L214,-189 Z" stroke-width="0" fill="#004f63" fill-opacity="0.5019607843137255" />
<path d="M227,-70 L118,-277 L168,-296 L240,-51 L227,-215 L240,-51 Z" stroke-width="0" fill="#eb3a61" fill-opacity="0.10980392156862745" />
<path d="M119,-62 L194,-102 L154,-189 L82,-84 L73,-122 L233,-235 Z" stroke-width="0" fill="#eabfe7" fill-opacity="0.9450980392156862" />
<path d="M112,-187 L116,-159 L82,-74 L41,-100 L143,-190 L135,-298 Z" stroke-width="0" fill="#0072d7" fill-opacity="0.8549019607843137" />
<path d="M121,-64 L217,-187 L26,-34 L32,-48 L149,-37 L109,-260 Z" stroke-width="0" fill="#008d8d" fill-opacity="0.8117647058823529" />
<path d="M228,-71 L25,-200 L147,-129 L139,-194 L191,-324 L54,-242 Z" stroke-width="0" fill="#fcf2e9" fill-opacity="0.7764705882352941" />
<path d="M49,-37 L43,-166 L72,-217 L212,-166 L62,-130 L108,-205 Z" stroke-width="0" fill="#0048aa" fill-opacity="0.7294117647058823" />
<path d="M75,-256 L143,-81 L146,-52 L59,-143 L223,-77 L87,-117 Z" stroke-width="0" fill="#050677" fill-opacity="0.12941176470588237" />
<path d="M100,-94 L54,-188 L146,-73 L130,-199 L166,-203 L200,-168 Z" stroke-width="0" fill="#0d3c61" fill-opacity="0.5098039215686274" />
<path d="M115,-280 L230,-239 L34,-57 L184,-41 L244,-216 L35,-219 Z" stroke-width="0" fill="#0042e4" fill-opacity="0.3333333333333333" />
<path d="M179,-168 L174,-238 L181,-322 L100,-258 L66,-37 L70,-197 Z" stroke-width="0" fill="#e4b2e7" fill-opacity="0.023529411764705882" />
<path d="M67,-26 L142,-319 L106,-186 L56,-117 L72,-179 L29,-214 Z" stroke-width="0" fill="#0d89f5" fill-opacity="0.24313725490196078" />
<path d="M109,-28 L236,-171 L223,-270 L99,-232 L217,-232 L43,-214 Z" stroke-width="0" fill="#006681" fill-opacity="0.12941176470588237" />
<path d="M233,-278 L55,-271 L158,-147 L117,-315 L179,-253 L110,-182 Z" stroke-width="0" fill="#dac784" fill-opacity="0.2901960784313726" />
<path d="M148,-30 L135,-258 L126,-180 L168,-215 L95,-254 L133,-91 Z" stroke-width="0" fill="#0029a0" fill-opacity="0.5019607843137255" />
<path d="M153,-65 L234,-137 L59,-239 L153,-131 L190,-142 L60,-218 Z" stroke-width="0" fill="#0391cc" fill-opacity="0.6470588235294118" />
<path d="M192,-156 L95,-296 L115,-119 L121,-182 L123,-176 L169,-292 Z" stroke-width="0" fill="#084957" fill-opacity="0.11372549019607843" />
<path d="M104,-280 L120,-198 L248,-44 L154,-124 L120,-46 L124,-31 Z" stroke-width="0" fill="#337084" fill-opacity="0.6470588235294118" />
<path d="M224,-133 L45,-310 L116,-275 L228,-101 L168,-318 L115,-134 Z" stroke-width="0" fill="#cfd9ef" fill-opacity="0.34901960784313724" />
<path d="M150,-201 L180,-257 L218,-34 L158,-28 L212,-175 L108,-267 Z" stroke-width="0" fill="#005268" fill-opacity="0.6549019607843137" />
<path d="M74,-198 L43,-50 L117,-133 L168,-269 L57,-313 L140,-191 Z" stroke-width="0" fill="#d1d4f7" fill-opacity="0.011764705882352941" />
<path d="M113,-138 L122,-233 L169,-104 L129,-193 L114,-248 L84,-297 Z" stroke-width="0" fill="#a65719" fill-opacity="0.21176470588235294" />
<path d="M63,-140 L99,-47 L74,-168 L224,-93 L228,-264 L65,-143 Z" stroke-width="0" fill="#012b39" fill-opacity="0.01568627450980392" />
<path d="M122,-69 L147,-182 L206,-214 L111,-104 L103,-303 L129,-293 Z" stroke-width="0" fill="#feffdf" fill-opacity="0.054901960784313725" />
<path d="M166,-67 L102,-68 L70,-287 L109,-155 L85,-201 L104,-59 Z" stroke-width="0" fill="#00423e" fill-opacity="0.1607843137254902" />
<path d="M103,-180 L236,-133 L159,-103 L40,-206 L82,-96 L103,-323 Z" stroke-width="0" fill="#d0e8bf" fill-opacity="0.9411764705882353" />
<path d="M56,-64 L243,-107 L140,-192 L48,-198 L249,-239 L101,-321 Z" stroke-width="0" fill="#bb9286" fill-opacity="0.12549019607843137" />
<path d="M68,-239 L121,-109 L74,-176 L50,-316 L108,-186 L200,-156 Z" stroke-width="0" fill="#dcb988" fill-opacity="0.5019607843137255" />
<path d="M46,-90 L89,-188 L56,-222 L50,-132 L181,-304 L189,-194 Z" stroke-width="0" fill="#814382" fill-opacity="0.23921568627450981" />
<path d="M225,-42 L228,-75 L195,-322 L140,-206 L193,-236 L34,-292 Z" stroke-width="0" fill="#361b1f" fill-opacity="0.12549019607843137" />
<path d="M203,-175 L176,-36 L119,-242 L205,-80 L40,-286 L86,-295 Z" stroke-width="0" fill="#473f6f" fill-opacity="0.047058823529411764" />
<path d="M123,-104 L50,-257 L215,-45 L137,-201 L87,-35 L79,-134 Z" stroke-width="0" fill="#1a5216" fill-opacity="0.2627450980392157" />
<path d="M142,-43 L97,-36 L64,-65 L127,-63 L161,-162 L94,-222 Z" stroke-width="0" fill="#000eab" fill-opacity="0.23529411764705882" />
<path d="M168,-45 L73,-48 L245,-74 L148,-127 L35,-96 L201,-225 Z" stroke-width="0" fill="#0960a8" fill-opacity="0.4745098039215686" />
<path d="M100,-85 L80,-237 L226,-39 L215,-294 L126,-206 L139,-208 Z" stroke-width="0" fill="#67950b" fill-opacity="0.29411764705882354" />
<path d="M147,-48 L91,-258 L97,-29 L153,-293 L147,-306 L77,-303 Z" stroke-width="0" fill="#f2f9ad" fill-opacity="0.13333333333333333" />
<path d="M118,-103 L155,-209 L87,-251 L177,-55 L146,-268 L188,-98 Z" stroke-width="0" fill="#2d6844" fill-opacity="0.4823529411764706" />
<path d="M214,-324 L76,-259 L32,-184 L131,-74 L185,-126 L102,-132 Z" stroke-width="0" fill="#e6a9c8" fill-opacity="0.00784313725490196" />
<path d="M42,-276 L77,-176 L55,-184 L151,-233 L66,-38 L33,-207 Z" stroke-width="0" fill="#0a38a7" fill-opacity="0.09411764705882353" />
<path d="M194,-78 L186,-291 L116,-57 L122,-43 L182,-77 L107,-221 Z" stroke-width="0" fill="#0e5667" fill-opacity="0.2901960784313726" />
<path d="M236,-57 L204,-152 L208,-251 L237,-310 L93,-55 L40,-255 Z" stroke-width="0" fill="#4253c7" fill-opacity="0.1843137254901961" />
<path d="M131,-29 L240,-251 L229,-129 L69,-149 L55,-225 L191,-312 Z" stroke-width="0" fill="#47982f" fill-opacity="0.36470588235294116" />
<path d="M114,-128 L53,-271 L182,-168 L241,-297 L167,-118 L168,-227 Z" stroke-width="0" fill="#656539" fill-opacity="0.32941176470588235" />
<path d="M140,-97 L210,-55 L68,-71 L151,-108 L99,-292 L124,-187 Z" stroke-width="0" fill="#003b8c" fill-opacity="0.2235294117647059" />
<path d="M48,-72 L39,-232 L67,-320 L108,-146 L199,-214 L138,-170 Z" stroke-width="0" fill="#859879" fill-opacity="0.2549019607843137" />
<path d="M203,-34 L25,-93 L53,-28 L229,-184 L92,-207 L56,-152 Z" stroke-width="0" fill="#0b7e63" fill-opacity="0.20784313725490197" />
<text x="137.5" y="12.5" font-size="20.0" fill="black" text-anchor="middle" transform="translate(0,5.0)">6 OF EARTH</text>
</svg>