<?xml version="1.0" encoding="UTF-8"?>
<svg xmlns="http://www.w3.org/2000/svg" xmlns:xlink="http://www.w3.org/1999/xlink"
     width="896" height="1496" viewBox="0 -1400 896 1496" style="font-size:70;font-family:Poor Richard, Times New Roman;stroke:black;stroke-width:1;fill:none">
<defs>
</defs>
<path d="M854,-166 L906,-710 L298,-518 L234,-182 L826,-1026 L342,-382 Z" stroke-width="0" fill="#f40000" fill-opacity="0.9921568627450981" />
<path d="M898,-550 L126,-1014 L522,-1094 L810,-974 L190,-1054 L430,-462 Z" stroke-width="0" fill="#ff0000" fill-opacity="0.9019607843137255" />
<path d="M442,-1174 L926,-170 L974,-806 L506,-354 L718,-786 L574,-946 Z" stroke-width="0" fill="#042230" fill-opacity="0.07450980392156863" />
<path d="M650,-406 L174,-82 L98,-802 L278,-258 L174,-1022 L130,-1074 Z" stroke-width="0" fill="#ec0000" fill-opacity="0.8470588235294118" />
<path d="M90,-266 L138,-478 L330,-286 L946,-294 L222,-942 L686,-430 Z" stroke-width="0" fill="#ff7a7d" fill-opacity="0.054901960784313725" />
<path d="M222,-1082 L450,-438 L942,-1170 L570,-282 L206,-1126 L86,-306 Z" stroke-width="0" fill="#f2d8df" fill-opacity="0.08627450980392157" />
<path d="M782,-198 L874,-454 L114,-1182 L202,-1190 L82,-150 L302,-550 Z" stroke-width="0" fill="#e5000e" fill-opacity="0.9019607843137255" />
<path d="M206,-974 L922,-142 L194,-494 L478,-1046 L570,-134 L842,-762 Z" stroke-width="0" fill="#edf3e2" fill-opacity="0.6901960784313725" />
<path d="M502,-882 L818,-706 L866,-394 L546,-414 L770,-170 L950,-922 Z" stroke-width="0" fill="#b39f9d" fill-opacity="0.08627450980392157" />
<path d="M546,-882 L498,-218 L650,-674 L182,-830 L698,-1094 L810,-658 Z" stroke-width="0" fill="#fb0003" fill-opacity="0.8980392156862745" />
<path d="M878,-822 L346,-806 L294,-794 L446,-782 L666,-614 L718,-122 Z" stroke-width="0" fill="#fbe1d2" fill-opacity="0.09411764705882353" />
<path d="M90,-90 L670,-1102 L274,-1026 L594,-530 L250,-918 L154,-1138 Z" stroke-width="0" fill="#c50028" fill-opacity="0.8274509803921568" />
<path d="M526,-450 L150,-754 L282,-118 L354,-574 L782,-670 L554,-1198 Z" stroke-width="0" fill="#bb010c" fill-opacity="0.9098039215686274" />
<path d="M482,-750 L534,-1034 L850,-406 L550,-102 L598,-1082 L278,-106 Z" stroke-width="0" fill="#020000" fill-opacity="0.996078431372549" />
<path d="M662,-718 L214,-646 L150,-462 L534,-166 L378,-890 L886,-722 Z" stroke-width="0" fill="#a2050b" fill-opacity="0.9647058823529412" />
<path d="M930,-890 L946,-1154 L250,-866 L422,-1054 L578,-734 L522,-982 Z" stroke-width="0" fill="#1522d5" fill-opacity="0.01568627450980392" />
<path d="M262,-234 L182,-722 L438,-118 L114,-570 L954,-570 L262,-642 Z" stroke-width="0" fill="#bd033f" fill-opacity="0.0196078431372549" />
<path d="M422,-926 L526,-774 L82,-82 L518,-190 L374,-154 L946,-1134 Z" stroke-width="0" fill="#b8efb5" fill-opacity="0.03529411764705882" />
<path d="M822,-314 L546,-1258 L286,-1174 L98,-518 L270,-214 L142,-606 Z" stroke-width="0" fill="#e00007" fill-opacity="0.9294117647058824" />
<path d="M562,-1270 L134,-786 L670,-598 L914,-290 L314,-1198 L618,-238 Z" stroke-width="0" fill="#bd001d" fill-opacity="0.8431372549019608" />
<path d="M110,-294 L466,-694 L678,-362 L146,-414 L818,-1226 L410,-402 Z" stroke-width="0" fill="#a8cc93" fill-opacity="0.011764705882352941" />
<path d="M694,-198 L510,-626 L626,-346 L106,-582 L202,-406 L142,-858 Z" stroke-width="0" fill="#000914" fill-opacity="0.9882352941176471" />
<path d="M670,-226 L910,-142 L882,-1206 L690,-126 L290,-514 L838,-918 Z" stroke-width="0" fill="#0f2a90" fill-opacity="0.011764705882352941" />
<path d="M758,-110 L702,-358 L586,-1218 L702,-286 L834,-414 L730,-926 Z" stroke-width="0" fill="#260000" fill-opacity="0.5176470588235295" />
<path d="M694,-622 L478,-1178 L566,-158 L702,-1158 L586,-798 L810,-390 Z" stroke-width="0" fill="#5e96cb" fill-opacity="0.01568627450980392" />
<path d="M674,-498 L602,-94 L94,-162 L230,-1062 L522,-570 L906,-750 Z" stroke-width="0" fill="#d91d17" fill-opacity="0.8313725490196079" />
<path d="M302,-730 L838,-214 L514,-850 L758,-1138 L682,-478 L102,-1186 Z" stroke-width="0" fill="#f1061a" fill-opacity="0.8980392156862745" />
<path d="M506,-422 L258,-366 L942,-250 L386,-338 L698,-366 L626,-842 Z" stroke-width="0" fill="#6f639a" fill-opacity="0.00392156862745098" />
<path d="M258,-438 L954,-766 L422,-294 L974,-1218 L770,-830 L978,-134 Z" stroke-width="0" fill="#709c48" fill-opacity="0.00784313725490196" />
<path d="M142,-158 L418,-494 L630,-626 L638,-1046 L854,-1154 L334,-846 Z" stroke-width="0" fill="#ee94cf" fill-opacity="0.0392156862745098" />
<path d="M370,-502 L162,-830 L86,-642 L374,-154 L338,-438 L234,-278 Z" stroke-width="0" fill="#e0030a" fill-opacity="0.8941176470588236" />
<path d="M774,-1022 L562,-770 L494,-1270 L318,-930 L410,-1102 L690,-426 Z" stroke-width="0" fill="#f12b36" fill-opacity="0.9529411764705882" />
<path d="M682,-110 L778,-318 L98,-998 L702,-478 L450,-1198 L470,-342 Z" stroke-width="0" fill="#f51b31" fill-opacity="0.9490196078431372" />
<path d="M190,-110 L258,-446 L146,-806 L250,-346 L486,-1010 L702,-314 Z" stroke-width="0" fill="#fd1d47" fill-opacity="0.7686274509803922" />
<path d="M406,-806 L934,-150 L542,-162 L854,-378 L122,-658 L922,-918 Z" stroke-width="0" fill="#f9def5" fill-opacity="0.4392156862745098" />
<path d="M558,-1258 L734,-838 L374,-1038 L90,-1086 L330,-750 L538,-966 Z" stroke-width="0" fill="#ff0000" fill-opacity="0.8117647058823529" />
<path d="M482,-950 L426,-826 L714,-1222 L542,-1062 L610,-542 L478,-590 Z" stroke-width="0" fill="#ec0d01" fill-opacity="0.8705882352941177" />
<path d="M366,-442 L838,-186 L358,-258 L690,-410 L438,-686 L938,-866 Z" stroke-width="0" fill="#e2125f" fill-opacity="0.11372549019607843" />
<path d="M310,-1222 L674,-718 L158,-670 L666,-1026 L358,-874 L102,-682 Z" stroke-width="0" fill="#a0242a" fill-opacity="0.9098039215686274" />
<path d="M726,-94 L398,-966 L538,-1098 L486,-602 L466,-118 L578,-874 Z" stroke-width="0" fill="#c3276e" fill-opacity="0.9450980392156862" />
<path d="M934,-118 L842,-1270 L450,-466 L206,-638 L322,-318 L530,-818 Z" stroke-width="0" fill="#83be26" fill-opacity="0.00784313725490196" />
<path d="M890,-474 L870,-1142 L178,-918 L462,-202 L298,-314 L138,-1030 Z" stroke-width="0" fill="#e5f8f8" fill-opacity="0.10588235294117647" />
<path d="M914,-234 L818,-426 L294,-1054 L366,-198 L402,-646 L462,-934 Z" stroke-width="0" fill="#ea731d" fill-opacity="0.054901960784313725" />
<path d="M706,-1206 L82,-242 L306,-698 L438,-418 L234,-390 L654,-342 Z" stroke-width="0" fill="#f1191a" fill-opacity="0.5882352941176471" />
<path d="M842,-1182 L218,-650 L518,-890 L466,-842 L174,-1138 L562,-698 Z" stroke-width="0" fill="#85799e" fill-opacity="0.0392156862745098" />
<path d="M278,-822 L742,-1126 L646,-798 L382,-426 L854,-570 L218,-882 Z" stroke-width="0" fill="#ee1000" fill-opacity="0.9176470588235294" />
<path d="M918,-170 L526,-1010 L774,-990 L406,-114 L190,-434 L938,-298 Z" stroke-width="0" fill="#fce2d1" fill-opacity="0.15294117647058825" />
<path d="M894,-1178 L390,-238 L298,-898 L554,-1070 L974,-254 L522,-866 Z" stroke-width="0" fill="#c28db8" fill-opacity="0.050980392156862744" />
<path d="M330,-350 L162,-398 L314,-1082 L646,-314 L390,-914 L946,-782 Z" stroke-width="0" fill="#d5f2f7" fill-opacity="0.12156862745098039" />
<path d="M546,-230 L246,-294 L306,-582 L190,-122 L946,-1246 L582,-550 Z" stroke-width="0" fill="#fbfeff" fill-opacity="0.8196078431372549" />
<path d="M862,-830 L146,-766 L758,-90 L442,-214 L274,-206 L902,-986 Z" stroke-width="0" fill="#ebb8a6" fill-opacity="0.2235294117647059" />
<path d="M330,-654 L734,-686 L422,-886 L98,-1058 L890,-522 L514,-738 Z" stroke-width="0" fill="#ef0019" fill-opacity="0.5176470588235295" />
<path d="M146,-346 L306,-418 L950,-598 L906,-862 L434,-1194 L670,-466 Z" stroke-width="0" fill="#b558ea" fill-opacity="0.00784313725490196" />
<path d="M378,-146 L486,-1074 L178,-1150 L406,-126 L878,-1110 L934,-1258 Z" stroke-width="0" fill="#8a5b17" fill-opacity="0.047058823529411764" />
<path d="M518,-786 L434,-1122 L214,-334 L98,-838 L542,-1258 L546,-426 Z" stroke-width="0" fill="#9b070e" fill-opacity="0.9137254901960784" />
<path d="M158,-86 L286,-358 L530,-418 L250,-422 L342,-610 L850,-418 Z" stroke-width="0" fill="#f81525" fill-opacity="0.9647058823529412" />
<path d="M474,-638 L822,-662 L250,-538 L214,-198 L138,-930 L846,-978 Z" stroke-width="0" fill="#d7d6ef" fill-opacity="0.06666666666666667" />
<path d="M438,-1114 L938,-190 L570,-586 L390,-354 L630,-702 L858,-398 Z" stroke-width="0" fill="#fd8ae2" fill-opacity="0.09019607843137255" />
<path d="M514,-1270 L506,-490 L266,-994 L262,-962 L670,-186 L946,-886 Z" stroke-width="0" fill="#f8dbfb" fill-opacity="0.09803921568627451" />
<path d="M526,-486 L110,-618 L298,-486 L554,-194 L202,-870 L258,-962 Z" stroke-width="0" fill="#c9e07f" fill-opacity="0.0392156862745098" />
<path d="M906,-1214 L330,-1218 L710,-102 L150,-854 L946,-118 L122,-834 Z" stroke-width="0" fill="#828db0" fill-opacity="0.09411764705882353" />
<path d="M310,-130 L970,-1054 L478,-1230 L694,-1014 L886,-1234 L170,-758 Z" stroke-width="0" fill="#c8fdf6" fill-opacity="0.027450980392156862" />
<path d="M162,-1082 L818,-134 L342,-426 L598,-890 L222,-1038 L138,-362 Z" stroke-width="0" fill="#120208" fill-opacity="0.45098039215686275" />
<path d="M606,-442 L294,-590 L814,-1166 L502,-586 L698,-214 L218,-510 Z" stroke-width="0" fill="#ffcdfe" fill-opacity="0.8274509803921568" />
<path d="M390,-470 L818,-1038 L686,-518 L778,-678 L486,-386 L706,-1114 Z" stroke-width="0" fill="#a2c5ed" fill-opacity="0.12156862745098039" />
<path d="M558,-478 L434,-354 L190,-370 L222,-1062 L186,-318 L202,-90 Z" stroke-width="0" fill="#4bce84" fill-opacity="0.058823529411764705" />
<path d="M550,-318 L554,-970 L734,-186 L378,-670 L610,-986 L566,-222 Z" stroke-width="0" fill="#df0608" fill-opacity="0.5647058823529412" />
<path d="M118,-562 L418,-346 L974,-734 L370,-490 L698,-538 L274,-1270 Z" stroke-width="0" fill="#e81f23" fill-opacity="0.9764705882352941" />
<path d="M90,-1078 L386,-262 L478,-298 L518,-338 L166,-490 L562,-946 Z" stroke-width="0" fill="#b4091e" fill-opacity="0.8588235294117647" />
<path d="M162,-182 L542,-450 L922,-502 L394,-782 L182,-1178 L366,-994 Z" stroke-width="0" fill="#c50000" fill-opacity="0.6431372549019608" />
<path d="M686,-1246 L710,-930 L950,-1234 L202,-110 L450,-390 L926,-874 Z" stroke-width="0" fill="#f6f6f8" fill-opacity="0.9490196078431372" />
<path d="M594,-822 L102,-170 L850,-466 L958,-922 L298,-970 L818,-94 Z" stroke-width="0" fill="#b7beed" fill-opacity="0.00784313725490196" />
<path d="M518,-498 L690,-210 L634,-438 L726,-246 L382,-606 L842,-598 Z" stroke-width="0" fill="#fb1d46" fill-opacity="0.6745098039215687" />
<path d="M894,-258 L154,-1250 L106,-990 L970,-1198 L958,-322 L274,-418 Z" stroke-width="0" fill="#d9dfa6" fill-opacity="0.054901960784313725" />
<path d="M106,-986 L250,-1050 L762,-550 L282,-630 L170,-1054 L306,-1070 Z" stroke-width="0" fill="#862137" fill-opacity="0.47843137254901963" />
<path d="M526,-550 L162,-970 L186,-450 L162,-1210 L282,-482 L666,-730 Z" stroke-width="0" fill="#a50b00" fill-opacity="0.33725490196078434" />
<path d="M322,-594 L558,-954 L594,-190 L622,-682 L258,-742 L90,-186 Z" stroke-width="0" fill="#ef3132" fill-opacity="0.596078431372549" />
<path d="M734,-906 L850,-206 L390,-226 L218,-250 L234,-386 L106,-674 Z" stroke-width="0" fill="#dc3729" fill-opacity="0.8392156862745098" />
<path d="M738,-162 L382,-654 L506,-694 L882,-334 L246,-850 L538,-106 Z" stroke-width="0" fill="#a72841" fill-opacity="0.996078431372549" />
<path d="M866,-258 L246,-1122 L842,-526 L302,-446 L866,-834 L678,-766 Z" stroke-width="0" fill="#270008" fill-opacity="0.43137254901960786" />
<path d="M250,-338 L658,-642 L274,-162 L746,-470 L686,-1010 L246,-598 Z" stroke-width="0" fill="#f1060d" fill-opacity="0.3764705882352941" />
<path d="M338,-210 L190,-98 L670,-558 L842,-726 L230,-358 L646,-202 Z" stroke-width="0" fill="#d5092e" fill-opacity="0.4470588235294118" />
<path d="M146,-786 L618,-462 L86,-810 L194,-222 L426,-1166 L298,-210 Z" stroke-width="0" fill="#ac0028" fill-opacity="0.23529411764705882" />
<path d="M954,-942 L182,-1246 L262,-542 L110,-410 L438,-414 L694,-1178 Z" stroke-width="0" fill="#ee4763" fill-opacity="0.08235294117647059" />
<path d="M430,-406 L198,-1118 L498,-294 L438,-902 L282,-238 L770,-186 Z" stroke-width="0" fill="#7c3739" fill-opacity="0.3686274509803922" />
<path d="M270,-862 L822,-610 L614,-1190 L738,-1174 L626,-850 L118,-738 Z" stroke-width="0" fill="#c31012" fill-opacity="0.054901960784313725" />
<path d="M562,-914 L570,-778 L410,-954 L606,-842 L298,-1118 L698,-114 Z" stroke-width="0" fill="#c5182c" fill-opacity="0.6980392156862745" />
<path d="M538,-310 L690,-406 L910,-290 L670,-446 L506,-186 L422,-166 Z" stroke-width="0" fill="#b2283d" fill-opacity="0.9294117647058824" />
<path d="M134,-918 L878,-150 L346,-1086 L558,-1230 L582,-226 L518,-834 Z" stroke-width="0" fill="#ac1704" fill-opacity="0.3137254901960784" />
<path d="M930,-558 L326,-682 L706,-1034 L850,-478 L414,-1062 L558,-638 Z" stroke-width="0" fill="#f71c47" fill-opacity="0.043137254901960784" />
<path d="M590,-806 L762,-526 L646,-302 L474,-134 L762,-1102 L430,-1070 Z" stroke-width="0" fill="#233fdf" fill-opacity="0.00784313725490196" />
<path d="M726,-890 L522,-302 L574,-670 L658,-694 L670,-210 L654,-722 Z" stroke-width="0" fill="#ee0400" fill-opacity="0.0784313725490196" />
<path d="M426,-642 L414,-206 L506,-698 L886,-422 L262,-574 L450,-754 Z" stroke-width="0" fill="#f5998e" fill-opacity="0.054901960784313725" />
<path d="M238,-794 L634,-794 L842,-886 L874,-754 L234,-290 L154,-474 Z" stroke-width="0" fill="#e13100" fill-opacity="0.043137254901960784" />
<path d="M262,-506 L446,-534 L530,-818 L278,-266 L214,-114 L898,-122 Z" stroke-width="0" fill="#dd1010" fill-opacity="0.5019607843137255" />
<path d="M890,-98 L318,-526 L222,-998 L786,-698 L562,-838 L262,-930 Z" stroke-width="0" fill="#fd000d" fill-opacity="0.1450980392156863" />
<path d="M854,-186 L322,-934 L134,-594 L234,-182 L718,-1074 L670,-178 Z" stroke-width="0" fill="#96061c" fill-opacity="0.058823529411764705" />
<path d="M194,-466 L622,-858 L170,-1186 L758,-638 L150,-666 L258,-902 Z" stroke-width="0" fill="#e50432" fill-opacity="0.14901960784313725" />
<path d="M266,-578 L274,-758 L654,-286 L722,-358 L554,-906 L622,-1242 Z" stroke-width="0" fill="#e81a26" fill-opacity="0.4980392156862745" />
<path d="M234,-458 L90,-742 L622,-1186 L754,-518 L882,-670 L606,-866 Z" stroke-width="0" fill="#e2000b" fill-opacity="0.24313725490196078" />
<text x="448.0" y="0" font-size="70.0" fill="black" text-anchor="middle" transform="translate(0,17.5)">5 OF EARTH</text>
</svg>