<?xml version="1.0" encoding="UTF-8"?>
<svg xmlns="http://www.w3.org/2000/svg" xmlns:xlink="http://www.w3.org/1999/xlink"
     width="896" height="1496" viewBox="0 -1400 896 1496" style="font-size:70;font-family:Poor Richard, Times New Roman;stroke:black;stroke-width:1;fill:none">
<defs>
</defs>
<path d="M682,-382 L314,-758 L494,-1106 L94,-618 L762,-982 L382,-1038 Z" stroke-width="0" fill="#06633f" fill-opacity="0.1450980392156863" />
<path d="M766,-1030 L658,-778 L474,-190 L806,-434 L754,-782 L342,-302 Z" stroke-width="0" fill="#576b70" fill-opacity="0.3607843137254902" />
<path d="M186,-1246 L746,-1206 L574,-506 L142,-470 L186,-1018 L562,-566 Z" stroke-width="0" fill="#1d2800" fill-opacity="0.09803921568627451" />
<path d="M598,-122 L674,-746 L130,-910 L394,-394 L530,-1110 L754,-930 Z" stroke-width="0" fill="#022422" fill-opacity="0.9882352941176471" />
<path d="M362,-338 L674,-346 L222,-886 L182,-218 L86,-86 L338,-394 Z" stroke-width="0" fill="#0d0033" fill-opacity="0.09803921568627451" />
<path d="M262,-738 L250,-286 L210,-378 L590,-910 L242,-534 L366,-1130 Z" stroke-width="0" fill="#7b4cbd" fill-opacity="0.6274509803921569" />
<path d="M514,-1230 L798,-1098 L686,-810 L266,-1038 L110,-874 L166,-1190 Z" stroke-width="0" fill="#9189fe" fill-opacity="0.15294117647058825" />
<path d="M82,-430 L718,-206 L210,-186 L654,-1238 L498,-466 L642,-390 Z" stroke-width="0" fill="#a3eefc" fill-opacity="0.09019607843137255" />
<path d="M122,-330 L98,-634 L90,-578 L402,-694 L482,-818 L654,-486 Z" stroke-width="0" fill="#2a4d87" fill-opacity="0.1568627450980392" />
<path d="M490,-150 L194,-806 L122,-526 L178,-570 L122,-1186 L334,-982 Z" stroke-width="0" fill="#12ff23" fill-opacity="0.03137254901960784" />
<path d="M450,-378 L698,-382 L802,-894 L298,-278 L314,-746 L186,-430 Z" stroke-width="0" fill="#004a7f" fill-opacity="0.9686274509803922" />
<path d="M330,-1106 L474,-174 L438,-630 L390,-1122 L374,-1262 L82,-254 Z" stroke-width="0" fill="#679677" fill-opacity="0.12941176470588237" />
<path d="M510,-1114 L498,-478 L222,-410 L98,-890 L382,-970 L738,-794 Z" stroke-width="0" fill="#ffe7f3" fill-opacity="0.6470588235294118" />
<path d="M210,-310 L118,-1090 L314,-410 L722,-262 L182,-446 L206,-962 Z" stroke-width="0" fill="#f7edff" fill-opacity="0.7764705882352941" />
<path d="M258,-330 L590,-1270 L418,-1146 L710,-102 L542,-194 L326,-1158 Z" stroke-width="0" fill="#90b9b5" fill-opacity="0.21176470588235294" />
<path d="M370,-186 L458,-202 L650,-478 L214,-922 L438,-426 L138,-118 Z" stroke-width="0" fill="#b4e7cf" fill-opacity="0.14901960784313725" />
<path d="M154,-522 L726,-1142 L478,-246 L386,-306 L282,-450 L394,-782 Z" stroke-width="0" fill="#fbeefd" fill-opacity="0.8627450980392157" />
<path d="M666,-1038 L530,-1286 L226,-134 L246,-986 L378,-1310 L186,-454 Z" stroke-width="0" fill="#dfc1fc" fill-opacity="0.37254901960784315" />
<path d="M222,-526 L190,-566 L654,-362 L514,-706 L662,-898 L406,-518 Z" stroke-width="0" fill="#011803" fill-opacity="0.9686274509803922" />
<path d="M502,-886 L582,-122 L698,-930 L602,-1238 L506,-754 L94,-974 Z" stroke-width="0" fill="#def5d4" fill-opacity="0.2980392156862745" />
<path d="M142,-366 L722,-878 L514,-466 L446,-802 L666,-118 L626,-354 Z" stroke-width="0" fill="#0f0e17" fill-opacity="0.03137254901960784" />
<path d="M314,-694 L118,-982 L266,-906 L438,-318 L422,-186 L126,-1050 Z" stroke-width="0" fill="#d74d13" fill-opacity="0.011764705882352941" />
<path d="M546,-474 L734,-802 L254,-278 L522,-906 L654,-886 L630,-218 Z" stroke-width="0" fill="#0b0722" fill-opacity="0.9882352941176471" />
<path d="M394,-1258 L566,-542 L150,-346 L694,-186 L618,-338 L738,-414 Z" stroke-width="0" fill="#3777cd" fill-opacity="0.08235294117647059" />
<path d="M762,-698 L294,-246 L542,-694 L238,-258 L370,-966 L122,-566 Z" stroke-width="0" fill="#cdf6f6" fill-opacity="0.9411764705882353" />
<path d="M662,-250 L674,-610 L470,-994 L410,-846 L386,-290 L494,-1146 Z" stroke-width="0" fill="#2a62d3" fill-opacity="0.5686274509803921" />
<path d="M358,-1114 L630,-334 L270,-758 L202,-110 L310,-122 L474,-798 Z" stroke-width="0" fill="#b5d68a" fill-opacity="0.043137254901960784" />
<path d="M190,-1158 L790,-1106 L466,-126 L718,-314 L226,-698 L254,-446 Z" stroke-width="0" fill="#c5e0c5" fill-opacity="0.3411764705882353" />
<path d="M514,-218 L790,-666 L570,-758 L602,-846 L614,-870 L394,-270 Z" stroke-width="0" fill="#00746b" fill-opacity="0.9686274509803922" />
<path d="M114,-82 L706,-282 L734,-786 L350,-1094 L246,-682 L518,-338 Z" stroke-width="0" fill="#e8e63c" fill-opacity="0.0196078431372549" />
<path d="M366,-86 L158,-86 L774,-178 L98,-482 L498,-630 L630,-386 Z" stroke-width="0" fill="#0d4b5a" fill-opacity="0.1411764705882353" />
<path d="M394,-482 L510,-710 L94,-858 L682,-598 L482,-570 L178,-798 Z" stroke-width="0" fill="#d0b8df" fill-opacity="0.10980392156862745" />
<path d="M86,-626 L654,-514 L722,-882 L114,-1174 L638,-398 L330,-618 Z" stroke-width="0" fill="#1b0816" fill-opacity="0.08235294117647059" />
<path d="M162,-1198 L138,-178 L726,-846 L130,-478 L554,-274 L406,-1158 Z" stroke-width="0" fill="#cdd2cd" fill-opacity="0.12156862745098039" />
<path d="M154,-650 L410,-538 L274,-1010 L590,-1054 L422,-170 L498,-462 Z" stroke-width="0" fill="#d3ffe5" fill-opacity="0.792156862745098" />
<path d="M590,-1102 L138,-402 L430,-1082 L750,-1146 L690,-946 L734,-398 Z" stroke-width="0" fill="#e4e9f7" fill-opacity="0.32941176470588235" />
<path d="M302,-638 L322,-1050 L370,-970 L562,-494 L150,-522 L402,-1158 Z" stroke-width="0" fill="#c7ca50" fill-opacity="0.08627450980392157" />
<path d="M186,-754 L574,-938 L378,-354 L446,-1298 L278,-410 L394,-550 Z" stroke-width="0" fill="#00b1cd" fill-opacity="0.13725490196078433" />
<path d="M434,-566 L494,-614 L338,-434 L450,-794 L642,-470 L306,-818 Z" stroke-width="0" fill="#294280" fill-opacity="0.12941176470588237" />
<path d="M794,-1034 L330,-470 L518,-1010 L614,-1134 L210,-238 L654,-150 Z" stroke-width="0" fill="#6e847c" fill-opacity="0.9490196078431372" />
<path d="M582,-982 L750,-686 L90,-1098 L162,-842 L710,-1082 L670,-1078 Z" stroke-width="0" fill="#4c5181" fill-opacity="0.050980392156862744" />
<path d="M766,-634 L418,-870 L174,-994 L610,-790 L538,-1290 L490,-530 Z" stroke-width="0" fill="#e3ffee" fill-opacity="0.23137254901960785" />
<path d="M498,-282 L158,-798 L810,-518 L382,-542 L722,-602 L686,-526 Z" stroke-width="0" fill="#07a2f2" fill-opacity="0.00784313725490196" />
<path d="M258,-1158 L298,-1262 L490,-126 L250,-566 L734,-438 L106,-642 Z" stroke-width="0" fill="#c0c8f7" fill-opacity="0.26666666666666666" />
<path d="M366,-502 L618,-914 L514,-1042 L442,-982 L314,-1026 L730,-302 Z" stroke-width="0" fill="#81745f" fill-opacity="0.8627450980392157" />
<path d="M574,-710 L318,-934 L394,-286 L538,-810 L146,-702 L406,-1034 Z" stroke-width="0" fill="#ecebee" fill-opacity="0.7764705882352941" />
<path d="M230,-354 L326,-922 L210,-1018 L626,-378 L342,-1102 L126,-122 Z" stroke-width="0" fill="#dce28d" fill-opacity="0.9019607843137255" />
<path d="M130,-322 L438,-1050 L302,-1310 L286,-538 L702,-1046 L210,-270 Z" stroke-width="0" fill="#9cab94" fill-opacity="0.2901960784313726" />
<path d="M246,-1298 L570,-554 L190,-1062 L222,-518 L606,-778 L466,-214 Z" stroke-width="0" fill="#ebf0fa" fill-opacity="0.9137254901960784" />
<path d="M698,-406 L406,-110 L622,-562 L130,-430 L242,-1090 L522,-1030 Z" stroke-width="0" fill="#f4fbc3" fill-opacity="0.7529411764705882" />
<path d="M326,-246 L806,-510 L542,-1266 L274,-1158 L406,-1034 L474,-166 Z" stroke-width="0" fill="#e2ffc1" fill-opacity="0.17254901960784313" />
<path d="M186,-1186 L322,-394 L638,-1218 L302,-858 L734,-866 L274,-342 Z" stroke-width="0" fill="#cfd1f1" fill-opacity="0.13725490196078433" />
<path d="M562,-198 L350,-874 L150,-526 L718,-310 L722,-326 L274,-1082 Z" stroke-width="0" fill="#8fd6d7" fill-opacity="0.27058823529411763" />
<path d="M298,-242 L498,-674 L602,-410 L546,-1078 L506,-530 L714,-470 Z" stroke-width="0" fill="#f9daf1" fill-opacity="0.9764705882352941" />
<path d="M254,-1222 L350,-94 L558,-438 L414,-278 L322,-434 L670,-1070 Z" stroke-width="0" fill="#d7e2e6" fill-opacity="0.49019607843137253" />
<path d="M102,-1102 L106,-762 L542,-442 L570,-782 L362,-282 L582,-886 Z" stroke-width="0" fill="#23d187" fill-opacity="0.1568627450980392" />
<path d="M714,-138 L170,-610 L182,-598 L402,-826 L402,-230 L290,-642 Z" stroke-width="0" fill="#0a1f07" fill-opacity="0.06274509803921569" />
<path d="M406,-210 L266,-462 L518,-86 L134,-1306 L730,-950 L330,-418 Z" stroke-width="0" fill="#c7e9dc" fill-opacity="0.6705882352941176" />
<path d="M810,-798 L386,-462 L142,-818 L542,-758 L758,-402 L502,-746 Z" stroke-width="0" fill="#585caf" fill-opacity="0.1411764705882353" />
<path d="M678,-1254 L238,-130 L798,-222 L710,-338 L674,-654 L582,-194 Z" stroke-width="0" fill="#4b3fa0" fill-opacity="0.09411764705882353" />
<path d="M574,-990 L142,-562 L134,-130 L438,-582 L558,-282 L378,-178 Z" stroke-width="0" fill="#eef8ee" fill-opacity="0.7294117647058823" />
<path d="M658,-918 L786,-246 L634,-602 L478,-370 L330,-1294 L802,-798 Z" stroke-width="0" fill="#0e07ec" fill-opacity="0.03529411764705882" />
<path d="M578,-462 L706,-926 L318,-290 L606,-142 L254,-1302 L586,-278 Z" stroke-width="0" fill="#0c1010" fill-opacity="0.9882352941176471" />
<path d="M326,-426 L574,-262 L802,-350 L346,-150 L142,-982 L694,-634 Z" stroke-width="0" fill="#d7d8eb" fill-opacity="0.8470588235294118" />
<path d="M522,-982 L618,-358 L346,-958 L774,-614 L438,-1122 L538,-494 Z" stroke-width="0" fill="#070a5b" fill-opacity="0.1411764705882353" />
<path d="M142,-394 L410,-638 L646,-394 L494,-1146 L214,-110 L638,-170 Z" stroke-width="0" fill="#76d4e4" fill-opacity="0.10980392156862745" />
<path d="M482,-110 L510,-786 L186,-102 L682,-1142 L126,-282 L610,-442 Z" stroke-width="0" fill="#b3dbcb" fill-opacity="0.8823529411764706" />
<path d="M86,-282 L218,-1002 L222,-726 L186,-790 L262,-1086 L154,-758 Z" stroke-width="0" fill="#0e940b" fill-opacity="0.0" />
<path d="M234,-358 L162,-110 L150,-262 L334,-1278 L766,-118 L562,-502 Z" stroke-width="0" fill="#d6b8f6" fill-opacity="0.34509803921568627" />
<path d="M206,-866 L210,-1194 L798,-874 L590,-554 L690,-266 L270,-946 Z" stroke-width="0" fill="#df1cf3" fill-opacity="0.023529411764705882" />
<path d="M342,-418 L254,-402 L430,-1014 L446,-142 L190,-458 L402,-1278 Z" stroke-width="0" fill="#f0f0fc" fill-opacity="0.42745098039215684" />
<path d="M146,-634 L514,-770 L562,-522 L450,-774 L650,-526 L134,-270 Z" stroke-width="0" fill="#bcd7ef" fill-opacity="0.4235294117647059" />
<path d="M442,-214 L254,-1246 L474,-606 L82,-362 L418,-606 L94,-1234 Z" stroke-width="0" fill="#e4cbe9" fill-opacity="0.4980392156862745" />
<path d="M102,-1270 L250,-142 L750,-1266 L554,-398 L370,-450 L186,-630 Z" stroke-width="0" fill="#1d7af7" fill-opacity="0.06274509803921569" />
<path d="M202,-250 L130,-494 L342,-1222 L310,-242 L482,-1150 L730,-1022 Z" stroke-width="0" fill="#ecf2e5" fill-opacity="0.7686274509803922" />
<path d="M134,-710 L350,-818 L194,-226 L422,-346 L510,-446 L374,-898 Z" stroke-width="0" fill="#f6fafb" fill-opacity="0.8313725490196079" />
<path d="M666,-366 L150,-902 L426,-422 L742,-874 L738,-1178 L774,-394 Z" stroke-width="0" fill="#7baa99" fill-opacity="0.6196078431372549" />
<path d="M378,-834 L266,-330 L726,-226 L142,-250 L490,-806 L558,-366 Z" stroke-width="0" fill="#d4e1ee" fill-opacity="0.3058823529411765" />
<path d="M438,-310 L406,-698 L474,-1034 L122,-790 L574,-746 L302,-114 Z" stroke-width="0" fill="#d3ccd3" fill-opacity="0.16470588235294117" />
<path d="M274,-850 L330,-1082 L638,-214 L130,-366 L794,-434 L782,-346 Z" stroke-width="0" fill="#b9fde4" fill-opacity="0.9372549019607843" />
<path d="M470,-1102 L102,-534 L398,-1054 L270,-654 L330,-190 L414,-1210 Z" stroke-width="0" fill="#faf1c9" fill-opacity="0.4627450980392157" />
<path d="M414,-690 L154,-850 L374,-402 L166,-122 L518,-1078 L690,-174 Z" stroke-width="0" fill="#baede8" fill-opacity="0.8352941176470589" />
<path d="M390,-754 L142,-930 L590,-770 L562,-530 L86,-414 L522,-706 Z" stroke-width="0" fill="#e7f1e5" fill-opacity="0.45098039215686275" />
<path d="M398,-826 L538,-418 L422,-718 L458,-1118 L314,-1086 L266,-382 Z" stroke-width="0" fill="#50ae98" fill-opacity="0.00392156862745098" />
<path d="M354,-162 L510,-450 L514,-282 L306,-1270 L202,-114 L330,-810 Z" stroke-width="0" fill="#f0efd7" fill-opacity="0.7019607843137254" />
<path d="M574,-754 L338,-590 L262,-978 L278,-190 L338,-1198 L638,-846 Z" stroke-width="0" fill="#d3d0dd" fill-opacity="0.0196078431372549" />
<path d="M562,-486 L334,-1290 L746,-542 L798,-734 L638,-266 L210,-94 Z" stroke-width="0" fill="#f3cde9" fill-opacity="0.1450980392156863" />
<path d="M734,-238 L650,-434 L634,-450 L462,-246 L670,-714 L198,-542 Z" stroke-width="0" fill="#f3f4af" fill-opacity="0.03529411764705882" />
<path d="M674,-910 L258,-750 L442,-906 L430,-610 L178,-778 L318,-418 Z" stroke-width="0" fill="#e1d7eb" fill-opacity="0.17647058823529413" />
<path d="M318,-746 L90,-1198 L190,-214 L382,-714 L114,-1030 L222,-946 Z" stroke-width="0" fill="#f2c4c9" fill-opacity="0.1843137254901961" />
<path d="M86,-414 L214,-770 L550,-962 L450,-618 L326,-362 L318,-790 Z" stroke-width="0" fill="#eacef1" fill-opacity="0.2" />
<path d="M370,-1182 L314,-838 L538,-842 L562,-574 L610,-706 L230,-922 Z" stroke-width="0" fill="#d7d9dd" fill-opacity="0.15294117647058825" />
<path d="M186,-1154 L142,-810 L82,-1054 L730,-222 L638,-622 L210,-118 Z" stroke-width="0" fill="#fae9f0" fill-opacity="0.5607843137254902" />
<path d="M442,-466 L366,-1046 L430,-834 L322,-522 L414,-1054 L182,-346 Z" stroke-width="0" fill="#eaefe0" fill-opacity="0.45098039215686275" />
<path d="M226,-230 L222,-494 L590,-634 L386,-374 L242,-826 L302,-822 Z" stroke-width="0" fill="#e0daf8" fill-opacity="0.00784313725490196" />
<path d="M374,-178 L798,-262 L142,-610 L678,-614 L118,-690 L270,-462 Z" stroke-width="0" fill="#fdcbfd" fill-opacity="0.2823529411764706" />
<path d="M106,-462 L598,-690 L722,-406 L158,-902 L582,-422 L314,-346 Z" stroke-width="0" fill="#85ffea" fill-opacity="0.07058823529411765" />
<path d="M250,-230 L426,-318 L330,-1162 L110,-110 L614,-970 L502,-622 Z" stroke-width="0" fill="#d5ebf7" fill-opacity="0.5490196078431373" />
<path d="M446,-582 L654,-742 L578,-338 L234,-1034 L118,-338 L294,-942 Z" stroke-width="0" fill="#b4fcf1" fill-opacity="0.1450980392156863" />
<path d="M778,-1066 L358,-310 L222,-442 L586,-650 L354,-442 L742,-334 Z" stroke-width="0" fill="#f0cfff" fill-opacity="0.27450980392156865" />
<text x="448.0" y="0" font-size="70.0" fill="black" text-anchor="middle" transform="translate(0,17.5)">10 OF EARTH</text>
</svg>