<?xml version="1.0" encoding="UTF-8"?>
<svg xmlns="http://www.w3.org/2000/svg" xmlns:xlink="http://www.w3.org/1999/xlink"
     width="275" height="375" viewBox="0 -350 275 375">
<defs>
</defs>
<rect x="15" y="-335" width="245" height="320" stroke="black" stroke-width="4" fill="white" />
<path d="M110,-50 L58,-27 L220,-178 L163,-52 L38,-48 L34,-42 Z" stroke-width="0" fill="#0051ae" fill-opacity="0.611764705882353" />
<path d="M65,-25 L56,-249 L80,-123 L171,-89 L229,-29 L34,-147 Z" stroke-width="0" fill="#6b4a37" fill-opacity="0.0196078431372549" />
<path d="M36,-201 L227,-67 L54,-243 L38,-211 L108,-103 L193,-291 Z" stroke-width="0" fill="#07173a" fill-opacity="0.8274509803921568" />
<path d="M62,-217 L56,-117 L45,-213 L247,-281 L190,-118 L150,-145 Z" stroke-width="0" fill="#0b0d11" fill-opacity="0.5882352941176471" />
<path d="M168,-319 L42,-100 L204,-130 L96,-177 L63,-318 L61,-61 Z" stroke-width="0" fill="#2c9a84" fill-opacity="0.0" />
<path d="M30,-283 L166,-134 L190,-322 L174,-125 L37,-139 L158,-257 Z" stroke-width="0" fill="#060041" fill-opacity="0.6862745098039216" />
<path d="M157,-322 L159,-77 L245,-61 L132,-241 L195,-201 L117,-74 Z" stroke-width="0" fill="#fefaf7" fill-opacity="0.043137254901960784" />
<path d="M169,-231 L78,-82 L167,-186 L52,-217 L121,-186 L113,-126 Z" stroke-width="0" fill="#51aa20" fill-opacity="0.1607843137254902" />
<path d="M143,-61 L27,-37 L209,-282 L192,-106 L174,-304 L35,-49 Z" stroke-width="0" fill="#f7c1f5" fill-opacity="0.17254901960784313" />
<path d="M33,-100 L167,-196 L154,-73 L82,-73 L194,-101 L29,-172 Z" stroke-width="0" fill="#cbd885" fill-opacity="0.00392156862745098" />
<path d="M181,-219 L206,-202 L207,-298 L234,-188 L98,-48 L142,-182 Z" stroke-width="0" fill="#fcdaea" fill-opacity="0.11764705882352941" />
<path d="M53,-155 L156,-52 L74,-109 L160,-322 L231,-121 L112,-27 Z" stroke-width="0" fill="#0076c7" fill-opacity="0.7450980392156863" />
<path d="M94,-312 L180,-115 L88,-169 L49,-269 L104,-305 L123,-44 Z" stroke-width="0" fill="#f0e5e7" fill-opacity="0.7490196078431373" />
<path d="M26,-95 L189,-146 L71,-118 L124,-187 L132,-26 L136,-67 Z" stroke-width="0" fill="#eaf8ed" fill-opacity="0.0196078431372549" />
<path d="M85,-285 L126,-67 L140,-294 L163,-86 L231,-67 L90,-208 Z" stroke-width="0" fill="#0035bc" fill-opacity="0.9411764705882353" />
<path d="M110,-169 L96,-311 L99,-54 L128,-72 L87,-140 L112,-206 Z" stroke-width="0" fill="#d1fbdb" fill-opacity="0.08627450980392157" />
<path d="M156,-272 L160,-40 L122,-25 L180,-262 L32,-83 L88,-38 Z" stroke-width="0" fill="#0a3bb7" fill-opacity="0.7450980392156863" />
<path d="M121,-71 L214,-51 L212,-297 L43,-302 L184,-127 L74,-62 Z" stroke-width="0" fill="#e27a9c" fill-opacity="0.42745098039215684" />
<path d="M152,-56 L238,-88 L185,-230 L215,-59 L121,-311 L164,-189 Z" stroke-width="0" fill="#f9d7fe" fill-opacity="0.11372549019607843" />
<path d="M126,-67 L122,-315 L141,-86 L25,-237 L177,-176 L203,-214 Z" stroke-width="0" fill="#091405" fill-opacity="0.9176470588235294" />
<path d="M63,-44 L71,-249 L249,-274 L61,-244 L116,-294 L225,-117 Z" stroke-width="0" fill="#f8c4ce" fill-opacity="0.3176470588235294" />
<path d="M84,-323 L56,-28 L43,-104 L33,-222 L143,-262 L28,-32 Z" stroke-width="0" fill="#eef2ef" fill-opacity="0.03529411764705882" />
<path d="M197,-248 L145,-148 L166,-320 L212,-48 L89,-73 L61,-46 Z" stroke-width="0" fill="#c1dcc6" fill-opacity="0.5882352941176471" />
<path d="M105,-306 L246,-153 L209,-28 L118,-60 L135,-47 L85,-279 Z" stroke-width="0" fill="#f7fbf9" fill-opacity="0.9176470588235294" />
<path d="M182,-302 L130,-32 L111,-210 L153,-98 L222,-53 L176,-177 Z" stroke-width="0" fill="#1d09fb" fill-opacity="0.11372549019607843" />
<path d="M228,-112 L67,-25 L146,-154 L48,-100 L65,-124 L146,-146 Z" stroke-width="0" fill="#0054a6" fill-opacity="0.615686274509804" />
<path d="M68,-92 L153,-114 L178,-113 L165,-282 L101,-41 L92,-148 Z" stroke-width="0" fill="#fee5f2" fill-opacity="0.9411764705882353" />
<path d="M88,-229 L42,-77 L76,-306 L197,-76 L124,-66 L155,-46 Z" stroke-width="0" fill="#c4987a" fill-opacity="0.9450980392156862" />
<path d="M105,-275 L77,-56 L173,-201 L183,-287 L102,-82 L40,-165 Z" stroke-width="0" fill="#bb6866" fill-opacity="0.011764705882352941" />
<path d="M91,-227 L169,-155 L51,-51 L232,-87 L105,-231 L127,-160 Z" stroke-width="0" fill="#e5cce9" fill-opacity="0.01568627450980392" />
<path d="M180,-111 L161,-149 L42,-237 L216,-282 L68,-43 L104,-167 Z" stroke-width="0" fill="#060000" fill-opacity="0.8431372549019608" />
<path d="M193,-27 L26,-66 L112,-144 L136,-37 L55,-194 L146,-104 Z" stroke-width="0" fill="#ddedf3" fill-opacity="0.8274509803921568" />
<path d="M46,-102 L226,-27 L202,-209 L238,-72 L171,-317 L139,-132 Z" stroke-width="0" fill="#d1fcca" fill-opacity="0.03137254901960784" />
<path d="M248,-81 L141,-193 L88,-135 L249,-79 L121,-141 L161,-71 Z" stroke-width="0" fill="#f9e0fb" fill-opacity="0.08627450980392157" />
<path d="M229,-279 L205,-208 L200,-172 L152,-161 L27,-85 L123,-106 Z" stroke-width="0" fill="#0d1c38" fill-opacity="0.2235294117647059" />
<path d="M44,-239 L53,-235 L91,-164 L120,-163 L93,-290 L51,-166 Z" stroke-width="0" fill="#080000" fill-opacity="0.9725490196078431" />
<path d="M66,-42 L81,-76 L97,-255 L218,-71 L164,-301 L114,-108 Z" stroke-width="0" fill="#1d7237" fill-opacity="0.050980392156862744" />
<path d="M139,-179 L162,-51 L157,-213 L71,-209 L41,-268 L97,-42 Z" stroke-width="0" fill="#4b2000" fill-opacity="0.2823529411764706" />
<path d="M135,-304 L51,-186 L44,-75 L33,-213 L179,-97 L62,-198 Z" stroke-width="0" fill="#dbe7f6" fill-opacity="0.050980392156862744" />
<path d="M58,-312 L157,-231 L172,-160 L108,-163 L43,-42 L206,-114 Z" stroke-width="0" fill="#f7de9c" fill-opacity="0.8705882352941177" />
<path d="M189,-166 L226,-313 L123,-317 L83,-77 L200,-290 L72,-234 Z" stroke-width="0" fill="#2b1219" fill-opacity="0.9019607843137255" />
<path d="M70,-126 L236,-174 L166,-204 L178,-183 L42,-52 L45,-205 Z" stroke-width="0" fill="#f7e4fc" fill-opacity="0.6509803921568628" />
<path d="M85,-301 L50,-95 L35,-103 L54,-30 L60,-180 L183,-238 Z" stroke-width="0" fill="#f0ff4f" fill-opacity="0.3764705882352941" />
<path d="M88,-42 L185,-274 L218,-50 L168,-208 L58,-33 L44,-68 Z" stroke-width="0" fill="#abf5b0" fill-opacity="0.16862745098039217" />
<path d="M209,-161 L132,-307 L155,-238 L113,-183 L234,-103 L91,-34 Z" stroke-width="0" fill="#d8d2e9" fill-opacity="0.6745098039215687" />
<path d="M240,-70 L96,-118 L29,-267 L93,-201 L34,-43 L224,-146 Z" stroke-width="0" fill="#e7d9ec" fill-opacity="0.08235294117647059" />
<path d="M79,-193 L106,-51 L175,-51 L168,-243 L186,-287 L118,-102 Z" stroke-width="0" fill="#66ccff" fill-opacity="0.050980392156862744" />
<path d="M173,-297 L222,-56 L67,-225 L245,-116 L136,-154 L117,-164 Z" stroke-width="0" fill="#c9ecff" fill-opacity="0.08627450980392157" />
<path d="M195,-67 L249,-188 L177,-118 L184,-175 L240,-226 L147,-164 Z" stroke-width="0" fill="#d2acd7" fill-opacity="0.01568627450980392" />
<path d="M132,-218 L230,-273 L207,-119 L63,-170 L192,-82 L95,-170 Z" stroke-width="0" fill="#da8a55" fill-opacity="0.12156862745098039" />
<path d="M50,-209 L213,-32 L116,-134 L82,-259 L176,-238 L190,-117 Z" stroke-width="0" fill="#faffe6" fill-opacity="0.5019607843137255" />
<path d="M83,-92 L157,-31 L165,-233 L83,-205 L138,-157 L95,-124 Z" stroke-width="0" fill="#000018" fill-opacity="0.12549019607843137" />
<path d="M220,-174 L119,-181 L89,-243 L82,-117 L90,-229 L207,-99 Z" stroke-width="0" fill="#d3c9fa" fill-opacity="0.5019607843137255" />
<path d="M143,-219 L125,-177 L47,-30 L72,-221 L38,-279 L153,-201 Z" stroke-width="0" fill="#2a1600" fill-opacity="0.6980392156862745" />
<path d="M181,-141 L185,-190 L87,-181 L116,-40 L204,-243 L134,-170 Z" stroke-width="0" fill="#cc3ed0" fill-opacity="0.10588235294117647" />
<path d="M243,-78 L33,-28 L62,-89 L105,-247 L111,-120 L86,-110 Z" stroke-width="0" fill="#3996d5" fill-opacity="0.9019607843137255" />
<path d="M147,-84 L125,-98 L189,-211 L69,-265 L79,-107 L166,-57 Z" stroke-width="0" fill="#04353c" fill-opacity="0.8352941176470589" />
<path d="M115,-239 L139,-61 L45,-198 L126,-183 L144,-271 L121,-125 Z" stroke-width="0" fill="#014049" fill-opacity="0.027450980392156862" />
<path d="M68,-239 L243,-302 L70,-136 L162,-113 L124,-44 L69,-138 Z" stroke-width="0" fill="#45001b" fill-opacity="0.7843137254901961" />
<path d="M239,-25 L61,-41 L54,-187 L86,-287 L25,-135 L70,-63 Z" stroke-width="0" fill="#78bbe6" fill-opacity="0.6392156862745098" />
<path d="M202,-317 L167,-108 L226,-53 L188,-83 L222,-66 L135,-118 Z" stroke-width="0" fill="#00052a" fill-opacity="0.4470588235294118" />
<path d="M86,-61 L191,-200 L157,-269 L228,-221 L162,-135 L36,-106 Z" stroke-width="0" fill="#080e49" fill-opacity="0.1450980392156863" />
<path d="M184,-236 L113,-89 L128,-304 L229,-313 L195,-66 L174,-210 Z" stroke-width="0" fill="#a89300" fill-opacity="0.6627450980392157" />
<path d="M235,-68 L241,-94 L218,-123 L72,-122 L146,-275 L48,-38 Z" stroke-width="0" fill="#f1e4cc" fill-opacity="0.23137254901960785" />
<path d="M74,-72 L101,-151 L31,-297 L89,-64 L27,-241 L165,-46 Z" stroke-width="0" fill="#101024" fill-opacity="0.49411764705882355" />
<path d="M240,-84 L46,-124 L40,-155 L129,-163 L53,-173 L106,-66 Z" stroke-width="0" fill="#d0b1d4" fill-opacity="0.01568627450980392" />
<path d="M49,-31 L167,-316 L182,-181 L39,-140 L96,-94 L153,-57 Z" stroke-width="0" fill="#f5e7ec" fill-opacity="0.0" />
<path d="M136,-56 L241,-264 L240,-78 L199,-168 L95,-84 L189,-170 Z" stroke-width="0" fill="#fec2c7" fill-opacity="0.3764705882352941" />
<path d="M130,-285 L159,-114 L156,-219 L196,-182 L217,-154 L220,-146 Z" stroke-width="0" fill="#181006" fill-opacity="0.8274509803921568" />
<path d="M90,-102 L111,-99 L63,-294 L123,-83 L51,-132 L96,-129 Z" stroke-width="0" fill="#f58ad5" fill-opacity="0.1607843137254902" />
<path d="M222,-62 L231,-179 L27,-55 L65,-283 L187,-151 L34,-37 Z" stroke-width="0" fill="#fbe4d5" fill-opacity="0.9725490196078431" />
<path d="M107,-225 L159,-86 L218,-178 L96,-133 L47,-318 L221,-124 Z" stroke-width="0" fill="#7df0a8" fill-opacity="0.3411764705882353" />
<path d="M249,-150 L39,-290 L233,-131 L121,-300 L128,-159 L245,-285 Z" stroke-width="0" fill="#3a635d" fill-opacity="0.23529411764705882" />
<path d="M48,-316 L247,-146 L168,-175 L117,-276 L185,-105 L239,-308 Z" stroke-width="0" fill="#6674b7" fill-opacity="0.5019607843137255" />
<path d="M120,-99 L151,-165 L109,-210 L190,-28 L184,-245 L152,-243 Z" stroke-width="0" fill="#062614" fill-opacity="0.050980392156862744" />
<path d="M106,-99 L128,-218 L234,-144 L169,-49 L101,-170 L27,-29 Z" stroke-width="0" fill="#f4f3ed" fill-opacity="0.5137254901960784" />
<path d="M245,-70 L188,-113 L199,-216 L186,-142 L63,-285 L35,-78 Z" stroke-width="0" fill="#edecf5" fill-opacity="0.3176470588235294" />
<path d="M87,-60 L122,-156 L34,-88 L36,-135 L47,-105 L144,-95 Z" stroke-width="0" fill="#eeadf2" fill-opacity="0.01568627450980392" />
<path d="M184,-164 L190,-313 L235,-132 L191,-226 L97,-315 L52,-215 Z" stroke-width="0" fill="#fb1626" fill-opacity="0.08627450980392157" />
<path d="M210,-209 L114,-290 L96,-81 L237,-46 L28,-200 L94,-238 Z" stroke-width="0" fill="#187079" fill-opacity="0.20392156862745098" />
<path d="M115,-74 L87,-207 L166,-235 L130,-207 L201,-276 L225,-163 Z" stroke-width="0" fill="#6c8651" fill-opacity="0.19215686274509805" />
<path d="M73,-252 L191,-253 L218,-197 L119,-53 L55,-55 L225,-51 Z" stroke-width="0" fill="#0a2eed" fill-opacity="0.25098039215686274" />
<path d="M142,-232 L236,-106 L70,-25 L105,-183 L118,-234 L199,-103 Z" stroke-width="0" fill="#3ae0fb" fill-opacity="0.03137254901960784" />
<path d="M121,-61 L62,-117 L156,-235 L107,-184 L98,-301 L215,-175 Z" stroke-width="0" fill="#1217e9" fill-opacity="0.29411764705882354" />
<path d="M36,-260 L124,-281 L236,-71 L139,-62 L224,-257 L199,-63 Z" stroke-width="0" fill="#52b5ae" fill-opacity="0.5019607843137255" />
<path d="M216,-178 L29,-277 L36,-322 L169,-52 L27,-249 L55,-61 Z" stroke-width="0" fill="#eddbe5" fill-opacity="0.7803921568627451" />
<path d="M155,-49 L57,-242 L38,-34 L136,-95 L177,-143 L180,-99 Z" stroke-width="0" fill="#f3ebe4" fill-opacity="0.2196078431372549" />
<path d="M108,-314 L170,-241 L233,-215 L40,-40 L199,-152 L166,-142 Z" stroke-width="0" fill="#d0dbdb" fill-opacity="0.10980392156862745" />
<path d="M51,-208 L138,-74 L227,-292 L246,-267 L25,-87 L164,-175 Z" stroke-width="0" fill="#dadebc" fill-opacity="0.13725490196078433" />
<path d="M118,-134 L104,-60 L59,-88 L69,-180 L136,-290 L63,-53 Z" stroke-width="0" fill="#0f56c3" fill-opacity="0.3215686274509804" />
<path d="M108,-97 L36,-101 L162,-106 L225,-243 L108,-174 L194,-55 Z" stroke-width="0" fill="#dcf2bd" fill-opacity="0.06274509803921569" />
<path d="M142,-161 L90,-241 L117,-194 L208,-264 L208,-228 L214,-317 Z" stroke-width="0" fill="#00085c" fill-opacity="0.396078431372549" />
<path d="M39,-242 L26,-309 L86,-120 L72,-118 L148,-284 L163,-46 Z" stroke-width="0" fill="#577faf" fill-opacity="0.6509803921568628" />
<path d="M204,-244 L92,-106 L144,-153 L202,-87 L30,-292 L64,-286 Z" stroke-width="0" fill="#514f2c" fill-opacity="0.42745098039215684" />
<path d="M183,-142 L148,-138 L90,-271 L108,-275 L168,-276 L151,-32 Z" stroke-width="0" fill="#79452a" fill-opacity="0.22745098039215686" />
<path d="M70,-63 L28,-232 L156,-181 L161,-83 L63,-241 L145,-121 Z" stroke-width="0" fill="#ffeafc" fill-opacity="0.7215686274509804" />
<path d="M98,-267 L230,-130 L154,-141 L107,-96 L130,-182 L190,-49 Z" stroke-width="0" fill="#e1adb5" fill-opacity="0.28627450980392155" />
<path d="M92,-269 L127,-293 L134,-208 L182,-288 L91,-207 L102,-322 Z" stroke-width="0" fill="#080b00" fill-opacity="0.5019607843137255" />
<path d="M199,-44 L148,-144 L105,-182 L93,-234 L236,-212 L64,-304 Z" stroke-width="0" fill="#270029" fill-opacity="0.07058823529411765" />
<path d="M245,-179 L219,-31 L242,-72 L59,-178 L231,-61 L27,-163 Z" stroke-width="0" fill="#faf6fe" fill-opacity="0.8862745098039215" />
<text x="137.5" y="12.5" font-size="20.0" fill="black" text-anchor="middle" transform="translate(0,5.0)">KING OF EARTH</text>
</svg>