<?xml version="1.0" encoding="UTF-8"?>
<svg xmlns="http://www.w3.org/2000/svg" xmlns:xlink="http://www.w3.org/1999/xlink"
     width="896" height="1496" viewBox="0 -1400 896 1496" style="font-size:70;font-family:Poor Richard, Times New Roman;stroke:black;stroke-width:1;fill:none">
<defs>
</defs>
<path d="M166,-894 L730,-350 L258,-450 L334,-490 L490,-746 L294,-1142 Z" stroke-width="0" fill="#dee9fe" fill-opacity="0.06666666666666667" />
<path d="M290,-154 L486,-666 L146,-1026 L642,-414 L206,-310 L442,-546 Z" stroke-width="0" fill="#fdf3fc" fill-opacity="0.25098039215686274" />
<path d="M234,-138 L446,-166 L190,-582 L282,-650 L694,-702 L718,-686 Z" stroke-width="0" fill="#e2faf9" fill-opacity="0.08235294117647059" />
<path d="M118,-118 L790,-726 L718,-850 L810,-470 L566,-1082 L666,-1074 Z" stroke-width="0" fill="#ffcaf4" fill-opacity="0.027450980392156862" />
<path d="M330,-1102 L450,-1082 L710,-94 L618,-1174 L382,-1066 L334,-346 Z" stroke-width="0" fill="#edefc4" fill-opacity="0.00784313725490196" />
<path d="M494,-418 L386,-646 L794,-698 L410,-698 L374,-522 L278,-618 Z" stroke-width="0" fill="#eee2de" fill-opacity="0.047058823529411764" />
<path d="M718,-430 L394,-946 L662,-342 L514,-166 L754,-798 L214,-430 Z" stroke-width="0" fill="#eef3fe" fill-opacity="0.1843137254901961" />
<path d="M262,-1182 L234,-1182 L442,-206 L534,-1054 L106,-742 L554,-322 Z" stroke-width="0" fill="#d9f8f1" fill-opacity="0.03137254901960784" />
<path d="M598,-362 L318,-806 L278,-342 L122,-138 L186,-182 L302,-106 Z" stroke-width="0" fill="#e1f4f1" fill-opacity="0.043137254901960784" />
<path d="M422,-122 L554,-990 L686,-1222 L714,-946 L370,-494 L94,-214 Z" stroke-width="0" fill="#c6ebe2" fill-opacity="0.047058823529411764" />
<path d="M94,-674 L206,-726 L110,-90 L282,-266 L178,-938 L130,-162 Z" stroke-width="0" fill="#f4efff" fill-opacity="0.2549019607843137" />
<path d="M158,-998 L326,-238 L198,-626 L806,-182 L326,-210 L262,-762 Z" stroke-width="0" fill="#ebf6a7" fill-opacity="0.11764705882352941" />
<path d="M306,-926 L634,-150 L378,-1038 L358,-306 L798,-850 L370,-838 Z" stroke-width="0" fill="#ced6ed" fill-opacity="0.00784313725490196" />
<path d="M494,-910 L166,-1074 L234,-878 L362,-338 L390,-826 L642,-302 Z" stroke-width="0" fill="#f3f6da" fill-opacity="0.023529411764705882" />
<path d="M790,-1186 L338,-222 L466,-1198 L210,-914 L606,-278 L406,-798 Z" stroke-width="0" fill="#e4e0fa" fill-opacity="0.011764705882352941" />
<path d="M618,-394 L678,-870 L366,-646 L214,-478 L234,-154 L370,-1190 Z" stroke-width="0" fill="#fcf3df" fill-opacity="0.00392156862745098" />
<path d="M398,-1142 L590,-1202 L418,-962 L474,-246 L498,-474 L378,-538 Z" stroke-width="0" fill="#fff2ea" fill-opacity="0.06666666666666667" />
<path d="M594,-1146 L314,-1078 L442,-666 L662,-1038 L782,-942 L94,-422 Z" stroke-width="0" fill="#eff5b3" fill-opacity="0.01568627450980392" />
<path d="M658,-746 L338,-514 L234,-674 L594,-726 L106,-462 L414,-490 Z" stroke-width="0" fill="#b8ffc0" fill-opacity="0.0196078431372549" />
<path d="M282,-1270 L782,-1266 L370,-442 L706,-574 L698,-990 L806,-526 Z" stroke-width="0" fill="#f8adfa" fill-opacity="0.03529411764705882" />
<path d="M586,-86 L294,-302 L82,-126 L82,-1286 L386,-570 L266,-322 Z" stroke-width="0" fill="#f6e4e7" fill-opacity="0.13725490196078433" />
<path d="M386,-638 L522,-598 L98,-162 L678,-1022 L170,-362 L246,-394 Z" stroke-width="0" fill="#eee3e3" fill-opacity="0.027450980392156862" />
<path d="M738,-1174 L82,-702 L502,-1030 L650,-1274 L266,-1214 L566,-826 Z" stroke-width="0" fill="#ebe5eb" fill-opacity="0.023529411764705882" />
<path d="M554,-330 L366,-890 L650,-822 L626,-438 L306,-494 L642,-1090 Z" stroke-width="0" fill="#fac9f5" fill-opacity="0.0392156862745098" />
<path d="M338,-898 L202,-1238 L646,-974 L438,-790 L506,-262 L134,-346 Z" stroke-width="0" fill="#8addff" fill-opacity="0.06666666666666667" />
<path d="M642,-582 L402,-574 L134,-630 L278,-734 L186,-90 L466,-522 Z" stroke-width="0" fill="#e3fdf4" fill-opacity="0.043137254901960784" />
<path d="M778,-234 L486,-778 L174,-598 L530,-366 L762,-794 L410,-1042 Z" stroke-width="0" fill="#ede6eb" fill-opacity="0.011764705882352941" />
<path d="M210,-514 L342,-218 L418,-1118 L110,-250 L174,-194 L610,-718 Z" stroke-width="0" fill="#d5e7ee" fill-opacity="0.023529411764705882" />
<path d="M774,-482 L154,-1182 L146,-562 L90,-106 L86,-762 L370,-570 Z" stroke-width="0" fill="#daffe7" fill-opacity="0.09411764705882353" />
<path d="M594,-910 L366,-1262 L442,-386 L618,-150 L674,-382 L214,-1162 Z" stroke-width="0" fill="#fdeffa" fill-opacity="0.10588235294117647" />
<path d="M242,-798 L474,-606 L578,-918 L238,-866 L462,-1182 L394,-1150 Z" stroke-width="0" fill="#fcfce4" fill-opacity="0.15294117647058825" />
<path d="M538,-386 L414,-322 L122,-878 L702,-1146 L526,-290 L746,-770 Z" stroke-width="0" fill="#f2ffc7" fill-opacity="0.023529411764705882" />
<path d="M754,-510 L266,-750 L450,-286 L174,-146 L694,-562 L454,-1102 Z" stroke-width="0" fill="#f5fafd" fill-opacity="0.027450980392156862" />
<path d="M426,-146 L298,-582 L286,-402 L370,-462 L594,-978 L238,-542 Z" stroke-width="0" fill="#ffecf7" fill-opacity="0.5137254901960784" />
<path d="M82,-774 L510,-110 L254,-1010 L318,-374 L794,-1002 L558,-286 Z" stroke-width="0" fill="#fdc8cc" fill-opacity="0.043137254901960784" />
<path d="M130,-726 L462,-98 L598,-1066 L606,-306 L378,-1114 L678,-386 Z" stroke-width="0" fill="#fcfbfc" fill-opacity="0.7764705882352941" />
<path d="M550,-738 L666,-930 L466,-114 L82,-438 L630,-890 L306,-454 Z" stroke-width="0" fill="#f3f1fc" fill-opacity="0.615686274509804" />
<path d="M186,-854 L222,-1110 L802,-722 L454,-538 L86,-598 L694,-674 Z" stroke-width="0" fill="#f3d3f9" fill-opacity="0.00784313725490196" />
<path d="M254,-182 L778,-206 L366,-126 L466,-462 L210,-486 L786,-1090 Z" stroke-width="0" fill="#f5d8e9" fill-opacity="0.00784313725490196" />
<path d="M378,-226 L674,-670 L750,-658 L390,-1126 L642,-818 L666,-610 Z" stroke-width="0" fill="#e5ebcb" fill-opacity="0.2" />
<path d="M514,-650 L750,-874 L390,-830 L142,-874 L206,-1238 L782,-578 Z" stroke-width="0" fill="#d7d5cf" fill-opacity="0.00784313725490196" />
<path d="M350,-942 L250,-1146 L774,-342 L726,-850 L122,-762 L362,-386 Z" stroke-width="0" fill="#e3f7fc" fill-opacity="0.050980392156862744" />
<path d="M378,-142 L190,-890 L626,-546 L670,-1146 L242,-962 L582,-514 Z" stroke-width="0" fill="#d9f8fd" fill-opacity="0.06274509803921569" />
<path d="M518,-338 L146,-1054 L422,-202 L238,-302 L730,-870 L538,-1050 Z" stroke-width="0" fill="#f2f2fa" fill-opacity="0.15294117647058825" />
<path d="M790,-1062 L694,-470 L698,-1250 L90,-658 L290,-1154 L810,-678 Z" stroke-width="0" fill="#e5e3f4" fill-opacity="0.07450980392156863" />
<path d="M594,-330 L662,-214 L414,-1114 L206,-786 L434,-534 L202,-726 Z" stroke-width="0" fill="#fef7f2" fill-opacity="0.8705882352941177" />
<path d="M658,-566 L298,-462 L738,-666 L810,-234 L310,-834 L514,-550 Z" stroke-width="0" fill="#edc2f0" fill-opacity="0.10980392156862745" />
<path d="M322,-782 L266,-402 L806,-194 L562,-690 L158,-450 L574,-1046 Z" stroke-width="0" fill="#f4fef9" fill-opacity="0.027450980392156862" />
<path d="M186,-414 L454,-454 L726,-402 L538,-326 L238,-710 L130,-158 Z" stroke-width="0" fill="#ebfbdf" fill-opacity="0.23137254901960785" />
<path d="M502,-230 L426,-726 L558,-554 L306,-858 L554,-1058 L430,-254 Z" stroke-width="0" fill="#a4fd91" fill-opacity="0.00392156862745098" />
<path d="M630,-926 L242,-714 L590,-94 L770,-942 L142,-1234 L538,-190 Z" stroke-width="0" fill="#e7d2ff" fill-opacity="0.043137254901960784" />
<path d="M214,-1086 L414,-1070 L266,-186 L154,-226 L418,-758 L138,-958 Z" stroke-width="0" fill="#fafffc" fill-opacity="0.8196078431372549" />
<path d="M546,-626 L598,-602 L446,-350 L606,-766 L518,-654 L182,-1194 Z" stroke-width="0" fill="#f6e8fe" fill-opacity="0.23529411764705882" />
<path d="M498,-534 L674,-362 L674,-1046 L550,-958 L150,-166 L182,-1154 Z" stroke-width="0" fill="#c6dfd1" fill-opacity="0.00784313725490196" />
<path d="M334,-642 L262,-690 L806,-666 L202,-754 L130,-790 L770,-82 Z" stroke-width="0" fill="#f2f4da" fill-opacity="0.11372549019607843" />
<path d="M442,-318 L638,-510 L674,-1074 L314,-1302 L166,-1298 L506,-114 Z" stroke-width="0" fill="#f4fdc6" fill-opacity="0.043137254901960784" />
<path d="M738,-470 L598,-626 L218,-570 L582,-202 L522,-606 L238,-950 Z" stroke-width="0" fill="#d8dcd9" fill-opacity="0.011764705882352941" />
<path d="M582,-1010 L346,-1146 L206,-486 L410,-270 L270,-674 L762,-262 Z" stroke-width="0" fill="#e5d0f3" fill-opacity="0.00784313725490196" />
<path d="M278,-298 L610,-766 L290,-194 L650,-502 L698,-594 L378,-346 Z" stroke-width="0" fill="#fdfdf1" fill-opacity="0.6941176470588235" />
<path d="M498,-934 L242,-570 L98,-542 L90,-646 L810,-582 L174,-1074 Z" stroke-width="0" fill="#ffd7dc" fill-opacity="0.0784313725490196" />
<path d="M222,-742 L686,-978 L754,-958 L498,-858 L710,-990 L494,-578 Z" stroke-width="0" fill="#d5ecf5" fill-opacity="0.09019607843137255" />
<path d="M274,-666 L374,-1082 L502,-1178 L138,-1222 L438,-314 L226,-458 Z" stroke-width="0" fill="#dcedb9" fill-opacity="0.050980392156862744" />
<path d="M210,-86 L170,-682 L686,-858 L194,-618 L790,-170 L766,-1082 Z" stroke-width="0" fill="#f6d6f2" fill-opacity="0.00392156862745098" />
<path d="M98,-518 L722,-314 L130,-374 L702,-1278 L474,-1102 L746,-550 Z" stroke-width="0" fill="#fddebb" fill-opacity="0.01568627450980392" />
<path d="M658,-382 L390,-494 L670,-82 L386,-918 L606,-658 L710,-678 Z" stroke-width="0" fill="#fefbf6" fill-opacity="0.5686274509803921" />
<path d="M414,-926 L770,-802 L790,-974 L434,-826 L390,-934 L222,-202 Z" stroke-width="0" fill="#f4ecf1" fill-opacity="0.047058823529411764" />
<path d="M550,-1050 L114,-1146 L450,-814 L154,-346 L326,-1014 L414,-1250 Z" stroke-width="0" fill="#f7e5b4" fill-opacity="0.17254901960784313" />
<path d="M206,-850 L606,-906 L214,-322 L94,-470 L158,-294 L562,-146 Z" stroke-width="0" fill="#860e6d" fill-opacity="0.0" />
<path d="M146,-1026 L182,-594 L86,-586 L146,-870 L326,-98 L642,-642 Z" stroke-width="0" fill="#fdf7fa" fill-opacity="0.8941176470588236" />
<path d="M462,-594 L214,-590 L638,-982 L434,-1290 L314,-306 L530,-510 Z" stroke-width="0" fill="#f2e8e3" fill-opacity="0.00392156862745098" />
<path d="M770,-374 L502,-106 L378,-710 L710,-146 L486,-714 L762,-610 Z" stroke-width="0" fill="#eef57f" fill-opacity="0.0" />
<path d="M458,-1206 L626,-866 L474,-322 L430,-474 L158,-106 L526,-566 Z" stroke-width="0" fill="#f2f9fa" fill-opacity="0.8666666666666667" />
<path d="M326,-966 L510,-142 L370,-1158 L394,-378 L230,-666 L686,-282 Z" stroke-width="0" fill="#d5e8e9" fill-opacity="0.10588235294117647" />
<path d="M310,-962 L598,-746 L206,-286 L254,-250 L338,-226 L498,-1086 Z" stroke-width="0" fill="#daeb82" fill-opacity="0.00392156862745098" />
<path d="M202,-630 L250,-362 L214,-110 L590,-166 L794,-474 L346,-766 Z" stroke-width="0" fill="#fef5fa" fill-opacity="0.7019607843137254" />
<path d="M626,-546 L742,-1090 L306,-442 L726,-190 L174,-1274 L530,-578 Z" stroke-width="0" fill="#ffcbf9" fill-opacity="0.09019607843137255" />
<path d="M106,-482 L378,-998 L390,-610 L642,-166 L206,-258 L730,-218 Z" stroke-width="0" fill="#f3faf1" fill-opacity="0.09803921568627451" />
<path d="M510,-1286 L206,-398 L310,-534 L554,-1286 L350,-642 L358,-1178 Z" stroke-width="0" fill="#ffccc1" fill-opacity="0.1607843137254902" />
<path d="M606,-1062 L358,-726 L334,-1126 L98,-118 L222,-110 L506,-686 Z" stroke-width="0" fill="#eddd96" fill-opacity="0.027450980392156862" />
<path d="M446,-1222 L154,-282 L106,-802 L794,-922 L186,-526 L346,-162 Z" stroke-width="0" fill="#f4ffe8" fill-opacity="0.12156862745098039" />
<path d="M502,-606 L566,-406 L102,-278 L750,-1046 L402,-546 L222,-278 Z" stroke-width="0" fill="#e9efed" fill-opacity="0.00784313725490196" />
<path d="M210,-458 L162,-454 L182,-114 L90,-130 L110,-246 L210,-786 Z" stroke-width="0" fill="#f2f4c7" fill-opacity="0.18823529411764706" />
<path d="M270,-614 L622,-654 L194,-1122 L806,-1078 L470,-1066 L522,-870 Z" stroke-width="0" fill="#daebec" fill-opacity="0.043137254901960784" />
<path d="M406,-398 L490,-694 L482,-1282 L302,-1034 L778,-662 L382,-658 Z" stroke-width="0" fill="#f1f0e2" fill-opacity="0.08627450980392157" />
<path d="M262,-726 L350,-778 L270,-898 L206,-954 L366,-482 L794,-754 Z" stroke-width="0" fill="#f3f7fb" fill-opacity="0.807843137254902" />
<path d="M606,-674 L654,-358 L302,-218 L226,-606 L106,-186 L422,-910 Z" stroke-width="0" fill="#eab1ea" fill-opacity="0.023529411764705882" />
<path d="M618,-574 L630,-310 L602,-550 L330,-130 L734,-694 L674,-178 Z" stroke-width="0" fill="#f7eeec" fill-opacity="0.07450980392156863" />
<path d="M402,-674 L558,-1146 L310,-254 L382,-718 L282,-990 L694,-1246 Z" stroke-width="0" fill="#eeaaf4" fill-opacity="0.01568627450980392" />
<path d="M766,-970 L470,-846 L478,-1114 L314,-1182 L298,-906 L478,-562 Z" stroke-width="0" fill="#fdfdf6" fill-opacity="0.023529411764705882" />
<path d="M86,-770 L670,-618 L522,-1162 L342,-150 L314,-398 L350,-338 Z" stroke-width="0" fill="#e7dfd2" fill-opacity="0.1568627450980392" />
<path d="M382,-634 L94,-766 L134,-110 L514,-198 L302,-790 L178,-190 Z" stroke-width="0" fill="#edfaed" fill-opacity="0.08627450980392157" />
<path d="M574,-346 L730,-422 L282,-334 L114,-238 L206,-218 L82,-230 Z" stroke-width="0" fill="#f6bdba" fill-opacity="0.10196078431372549" />
<path d="M734,-674 L590,-158 L82,-790 L474,-130 L570,-1134 L662,-650 Z" stroke-width="0" fill="#dfd6e2" fill-opacity="0.17647058823529413" />
<path d="M694,-378 L390,-1270 L442,-866 L398,-850 L718,-1174 L774,-942 Z" stroke-width="0" fill="#eefada" fill-opacity="0.24313725490196078" />
<path d="M618,-706 L358,-458 L178,-354 L94,-778 L566,-110 L410,-562 Z" stroke-width="0" fill="#ceecb5" fill-opacity="0.08235294117647059" />
<path d="M246,-194 L394,-550 L586,-926 L378,-1070 L162,-738 L166,-1078 Z" stroke-width="0" fill="#efe2f4" fill-opacity="0.07058823529411765" />
<path d="M342,-170 L246,-730 L702,-214 L130,-758 L514,-690 L514,-1062 Z" stroke-width="0" fill="#d3cc7c" fill-opacity="0.03529411764705882" />
<path d="M638,-558 L122,-750 L438,-1138 L566,-86 L178,-1058 L330,-318 Z" stroke-width="0" fill="#fddece" fill-opacity="0.0392156862745098" />
<path d="M190,-1266 L586,-542 L506,-690 L794,-358 L370,-1214 L514,-274 Z" stroke-width="0" fill="#e4eaf4" fill-opacity="0.3137254901960784" />
<path d="M130,-1010 L166,-602 L266,-742 L486,-530 L478,-978 L638,-246 Z" stroke-width="0" fill="#f8fef5" fill-opacity="0.3686274509803922" />
<text x="448.0" y="0" font-size="70.0" fill="black" text-anchor="middle" transform="translate(0,17.5)">8 OF EARTH</text>
</svg>