<?xml version="1.0" encoding="UTF-8"?>
<svg xmlns="http://www.w3.org/2000/svg" xmlns:xlink="http://www.w3.org/1999/xlink"
     width="896" height="1496" viewBox="0 -1400 896 1496" style="font-size:70;font-family:Poor Richard, Times New Roman;stroke:black;stroke-width:1;fill:none">
<defs>
</defs>
<path d="M646,-374 L786,-1114 L682,-454 L230,-1042 L798,-1158 L598,-1102 Z" stroke-width="0" fill="#005ba3" fill-opacity="0.2627450980392157" />
<path d="M198,-290 L362,-542 L238,-1174 L134,-1142 L290,-874 L750,-1106 Z" stroke-width="0" fill="#f8472c" fill-opacity="0.7058823529411765" />
<path d="M506,-374 L714,-314 L190,-878 L490,-1150 L254,-218 L334,-1250 Z" stroke-width="0" fill="#fdf31d" fill-opacity="0.8352941176470589" />
<path d="M774,-614 L578,-842 L150,-382 L726,-86 L234,-402 L714,-534 Z" stroke-width="0" fill="#00000e" fill-opacity="0.788235294117647" />
<path d="M142,-110 L682,-678 L310,-666 L462,-510 L142,-202 L718,-1174 Z" stroke-width="0" fill="#000000" fill-opacity="0.8235294117647058" />
<path d="M534,-86 L694,-234 L654,-814 L206,-578 L350,-658 L398,-1014 Z" stroke-width="0" fill="#02000b" fill-opacity="0.8549019607843137" />
<path d="M238,-1162 L526,-770 L470,-438 L542,-1018 L222,-230 L614,-98 Z" stroke-width="0" fill="#25142a" fill-opacity="0.8274509803921568" />
<path d="M626,-654 L154,-174 L386,-490 L150,-246 L374,-518 L346,-1258 Z" stroke-width="0" fill="#570505" fill-opacity="0.9333333333333333" />
<path d="M326,-914 L394,-906 L186,-1014 L586,-178 L490,-1302 L542,-414 Z" stroke-width="0" fill="#000000" fill-opacity="0.803921568627451" />
<path d="M650,-1298 L626,-890 L622,-334 L250,-746 L326,-1246 L262,-318 Z" stroke-width="0" fill="#63f7fc" fill-opacity="0.39215686274509803" />
<path d="M758,-90 L262,-1022 L730,-870 L434,-690 L586,-538 L162,-418 Z" stroke-width="0" fill="#00385c" fill-opacity="0.7568627450980392" />
<path d="M454,-170 L274,-1298 L334,-850 L526,-474 L438,-1046 L146,-974 Z" stroke-width="0" fill="#030003" fill-opacity="0.8313725490196079" />
<path d="M94,-578 L334,-394 L402,-290 L222,-314 L602,-798 L390,-1310 Z" stroke-width="0" fill="#080006" fill-opacity="0.8901960784313725" />
<path d="M606,-1118 L622,-170 L370,-1282 L650,-658 L362,-742 L578,-522 Z" stroke-width="0" fill="#0c44ea" fill-opacity="0.5333333333333333" />
<path d="M710,-242 L294,-806 L226,-518 L354,-714 L458,-82 L494,-342 Z" stroke-width="0" fill="#030000" fill-opacity="0.8549019607843137" />
<path d="M218,-334 L554,-882 L342,-898 L514,-410 L254,-806 L246,-86 Z" stroke-width="0" fill="#000000" fill-opacity="0.7372549019607844" />
<path d="M514,-374 L794,-1010 L454,-1050 L306,-166 L170,-1078 L774,-722 Z" stroke-width="0" fill="#43a1cb" fill-opacity="0.2901960784313726" />
<path d="M766,-630 L610,-302 L698,-1298 L226,-1046 L266,-994 L718,-338 Z" stroke-width="0" fill="#0e002f" fill-opacity="0.5411764705882353" />
<path d="M354,-1262 L122,-894 L634,-1170 L402,-606 L138,-958 L794,-1202 Z" stroke-width="0" fill="#9f1300" fill-opacity="0.7764705882352941" />
<path d="M550,-190 L538,-378 L398,-946 L706,-358 L778,-902 L186,-738 Z" stroke-width="0" fill="#9c3d00" fill-opacity="0.4235294117647059" />
<path d="M326,-506 L714,-938 L418,-1262 L510,-1046 L334,-430 L466,-670 Z" stroke-width="0" fill="#940d00" fill-opacity="0.8588235294117647" />
<path d="M146,-442 L734,-262 L758,-338 L550,-910 L490,-998 L486,-442 Z" stroke-width="0" fill="#161a69" fill-opacity="0.8823529411764706" />
<path d="M438,-550 L522,-622 L602,-990 L694,-722 L634,-106 L790,-798 Z" stroke-width="0" fill="#0d0000" fill-opacity="0.5725490196078431" />
<path d="M414,-582 L710,-606 L170,-614 L102,-262 L186,-1194 L214,-746 Z" stroke-width="0" fill="#340300" fill-opacity="0.8666666666666667" />
<path d="M334,-250 L138,-958 L674,-1154 L118,-766 L214,-722 L626,-1042 Z" stroke-width="0" fill="#441f1a" fill-opacity="0.6313725490196078" />
<path d="M390,-310 L222,-230 L306,-378 L558,-590 L622,-186 L454,-454 Z" stroke-width="0" fill="#1249c6" fill-opacity="0.2627450980392157" />
<path d="M442,-398 L434,-1050 L102,-586 L374,-310 L154,-630 L430,-246 Z" stroke-width="0" fill="#26271e" fill-opacity="0.29411764705882354" />
<path d="M338,-422 L262,-1122 L394,-758 L298,-694 L590,-898 L278,-606 Z" stroke-width="0" fill="#20b4c2" fill-opacity="0.13725490196078433" />
<path d="M330,-778 L142,-346 L682,-942 L402,-386 L98,-342 L654,-1222 Z" stroke-width="0" fill="#46292c" fill-opacity="0.8549019607843137" />
<path d="M526,-526 L602,-610 L498,-1114 L458,-738 L726,-1118 L798,-682 Z" stroke-width="0" fill="#4b0c22" fill-opacity="0.5019607843137255" />
<path d="M706,-810 L698,-710 L550,-90 L590,-834 L182,-858 L406,-806 Z" stroke-width="0" fill="#222829" fill-opacity="0.8588235294117647" />
<path d="M594,-382 L130,-418 L494,-1262 L86,-446 L270,-1266 L422,-1230 Z" stroke-width="0" fill="#29251f" fill-opacity="0.9529411764705882" />
<path d="M190,-694 L810,-202 L186,-106 L598,-786 L178,-958 L614,-1030 Z" stroke-width="0" fill="#000000" fill-opacity="0.8392156862745098" />
<path d="M746,-1142 L794,-790 L386,-158 L682,-1062 L430,-638 L322,-1130 Z" stroke-width="0" fill="#1f5e43" fill-opacity="0.23921568627450981" />
<path d="M662,-1202 L250,-658 L654,-546 L390,-486 L438,-1298 L142,-974 Z" stroke-width="0" fill="#d14814" fill-opacity="1.0" />
<path d="M758,-82 L718,-1130 L746,-782 L290,-638 L450,-510 L394,-770 Z" stroke-width="0" fill="#4f4d29" fill-opacity="0.9176470588235294" />
<path d="M218,-518 L198,-746 L174,-234 L282,-806 L338,-886 L390,-742 Z" stroke-width="0" fill="#2c2c94" fill-opacity="0.5686274509803921" />
<path d="M542,-178 L126,-150 L602,-154 L334,-290 L214,-1082 L294,-130 Z" stroke-width="0" fill="#2a0017" fill-opacity="0.10588235294117647" />
<path d="M166,-874 L566,-1234 L806,-866 L438,-690 L354,-1066 L590,-930 Z" stroke-width="0" fill="#ceacac" fill-opacity="0.20784313725490197" />
<path d="M178,-970 L746,-674 L118,-230 L534,-450 L310,-450 L174,-550 Z" stroke-width="0" fill="#4c0e25" fill-opacity="0.16862745098039217" />
<path d="M726,-1230 L98,-206 L278,-998 L426,-1294 L486,-1010 L442,-358 Z" stroke-width="0" fill="#020323" fill-opacity="0.30196078431372547" />
<path d="M670,-370 L382,-846 L326,-546 L106,-1002 L578,-978 L222,-506 Z" stroke-width="0" fill="#95f2f8" fill-opacity="0.8745098039215686" />
<path d="M142,-1154 L326,-362 L98,-1002 L690,-958 L382,-434 L486,-1074 Z" stroke-width="0" fill="#cae1bb" fill-opacity="0.7450980392156863" />
<path d="M150,-514 L526,-82 L450,-354 L102,-162 L186,-1186 L630,-978 Z" stroke-width="0" fill="#062500" fill-opacity="0.6313725490196078" />
<path d="M190,-806 L362,-1098 L178,-334 L302,-966 L498,-290 L414,-1098 Z" stroke-width="0" fill="#00b61a" fill-opacity="0.8156862745098039" />
<path d="M478,-778 L130,-838 L398,-1070 L534,-1082 L466,-358 L714,-622 Z" stroke-width="0" fill="#0f015b" fill-opacity="0.2549019607843137" />
<path d="M426,-478 L646,-206 L546,-986 L150,-1210 L122,-1230 L214,-238 Z" stroke-width="0" fill="#220000" fill-opacity="0.5882352941176471" />
<path d="M338,-1310 L598,-922 L382,-698 L446,-102 L710,-234 L86,-198 Z" stroke-width="0" fill="#181328" fill-opacity="0.7725490196078432" />
<path d="M678,-150 L366,-526 L174,-186 L410,-330 L318,-278 L466,-290 Z" stroke-width="0" fill="#075cef" fill-opacity="0.6666666666666666" />
<path d="M582,-742 L474,-774 L194,-498 L262,-566 L222,-1090 L486,-450 Z" stroke-width="0" fill="#b5a01d" fill-opacity="0.6627450980392157" />
<path d="M266,-862 L162,-442 L466,-126 L786,-522 L302,-730 L390,-1202 Z" stroke-width="0" fill="#40270b" fill-opacity="0.5411764705882353" />
<path d="M238,-422 L274,-270 L270,-278 L414,-114 L462,-934 L778,-290 Z" stroke-width="0" fill="#2c2744" fill-opacity="0.7686274509803922" />
<path d="M426,-358 L474,-770 L350,-898 L342,-782 L318,-518 L438,-198 Z" stroke-width="0" fill="#7d7200" fill-opacity="0.6274509803921569" />
<path d="M146,-426 L342,-550 L786,-478 L146,-954 L326,-494 L526,-750 Z" stroke-width="0" fill="#610024" fill-opacity="0.5176470588235295" />
<path d="M158,-122 L98,-1058 L326,-582 L542,-962 L434,-714 L714,-1202 Z" stroke-width="0" fill="#000000" fill-opacity="0.7333333333333333" />
<path d="M86,-174 L350,-206 L102,-478 L178,-686 L502,-670 L650,-1306 Z" stroke-width="0" fill="#280900" fill-opacity="0.5568627450980392" />
<path d="M690,-822 L334,-434 L266,-422 L602,-114 L322,-798 L526,-1134 Z" stroke-width="0" fill="#3a3833" fill-opacity="0.6509803921568628" />
<path d="M190,-342 L430,-302 L550,-502 L114,-466 L566,-1154 L790,-1022 Z" stroke-width="0" fill="#047e4f" fill-opacity="0.20392156862745098" />
<path d="M378,-106 L350,-898 L782,-1254 L654,-414 L374,-250 L378,-934 Z" stroke-width="0" fill="#74b2cd" fill-opacity="0.9607843137254902" />
<path d="M394,-138 L326,-862 L594,-122 L734,-602 L766,-406 L810,-666 Z" stroke-width="0" fill="#000000" fill-opacity="0.596078431372549" />
<path d="M362,-1314 L710,-686 L570,-294 L370,-466 L734,-1014 L394,-538 Z" stroke-width="0" fill="#8f442a" fill-opacity="0.9725490196078431" />
<path d="M546,-882 L362,-562 L722,-938 L410,-1042 L226,-210 L730,-142 Z" stroke-width="0" fill="#2f4e61" fill-opacity="0.5647058823529412" />
<path d="M394,-886 L210,-534 L578,-162 L482,-1054 L218,-982 L362,-1106 Z" stroke-width="0" fill="#413b14" fill-opacity="0.5058823529411764" />
<path d="M458,-618 L206,-1098 L138,-662 L218,-118 L626,-794 L426,-1222 Z" stroke-width="0" fill="#40232c" fill-opacity="0.5019607843137255" />
<path d="M386,-654 L298,-454 L298,-906 L502,-942 L278,-1134 L130,-1038 Z" stroke-width="0" fill="#81752e" fill-opacity="0.6470588235294118" />
<path d="M530,-562 L230,-594 L610,-1294 L478,-794 L666,-330 L510,-490 Z" stroke-width="0" fill="#163a08" fill-opacity="0.5411764705882353" />
<path d="M334,-366 L498,-562 L398,-802 L622,-1022 L414,-94 L438,-1034 Z" stroke-width="0" fill="#150040" fill-opacity="0.9254901960784314" />
<path d="M482,-570 L510,-546 L194,-870 L710,-198 L462,-758 L134,-1198 Z" stroke-width="0" fill="#01d1e1" fill-opacity="0.5019607843137255" />
<path d="M746,-270 L126,-1258 L670,-990 L738,-650 L110,-1110 L170,-1050 Z" stroke-width="0" fill="#4a3824" fill-opacity="0.9647058823529412" />
<path d="M150,-242 L602,-1130 L774,-426 L590,-278 L770,-866 L474,-998 Z" stroke-width="0" fill="#366365" fill-opacity="0.7333333333333333" />
<path d="M350,-250 L342,-1210 L382,-106 L798,-638 L594,-602 L526,-914 Z" stroke-width="0" fill="#373a2f" fill-opacity="0.9764705882352941" />
<path d="M662,-786 L390,-206 L150,-218 L138,-234 L602,-718 L610,-310 Z" stroke-width="0" fill="#355401" fill-opacity="0.2196078431372549" />
<path d="M130,-1094 L298,-1290 L770,-334 L626,-1130 L646,-286 L662,-154 Z" stroke-width="0" fill="#2e2a24" fill-opacity="0.8627450980392157" />
<path d="M134,-982 L134,-1074 L262,-666 L454,-110 L174,-874 L610,-1146 Z" stroke-width="0" fill="#3d361b" fill-opacity="0.9686274509803922" />
<path d="M734,-942 L690,-1022 L238,-850 L494,-214 L170,-762 L142,-142 Z" stroke-width="0" fill="#4aa58f" fill-opacity="0.1843137254901961" />
<path d="M402,-874 L502,-398 L522,-562 L538,-742 L190,-546 L374,-314 Z" stroke-width="0" fill="#396588" fill-opacity="0.49019607843137253" />
<path d="M598,-610 L150,-850 L522,-1298 L802,-918 L634,-338 L278,-1142 Z" stroke-width="0" fill="#b16289" fill-opacity="0.26666666666666666" />
<path d="M178,-562 L370,-214 L110,-598 L450,-534 L766,-454 L306,-694 Z" stroke-width="0" fill="#0aaad3" fill-opacity="0.15294117647058825" />
<path d="M526,-674 L122,-306 L502,-1022 L138,-178 L174,-262 L574,-294 Z" stroke-width="0" fill="#2b1966" fill-opacity="0.19215686274509805" />
<path d="M674,-1102 L570,-666 L810,-950 L526,-342 L298,-694 L542,-222 Z" stroke-width="0" fill="#bce9d9" fill-opacity="0.7215686274509804" />
<path d="M282,-1106 L742,-134 L654,-650 L154,-622 L658,-246 L122,-434 Z" stroke-width="0" fill="#62e1d5" fill-opacity="0.1411764705882353" />
<path d="M334,-326 L270,-1010 L514,-998 L554,-474 L266,-914 L282,-758 Z" stroke-width="0" fill="#6f5822" fill-opacity="0.9921568627450981" />
<path d="M430,-954 L434,-1122 L414,-834 L318,-962 L706,-882 L254,-1190 Z" stroke-width="0" fill="#fd774a" fill-opacity="0.11764705882352941" />
<path d="M270,-482 L682,-922 L218,-578 L294,-1150 L138,-210 L306,-930 Z" stroke-width="0" fill="#313f22" fill-opacity="0.6666666666666666" />
<path d="M126,-190 L154,-994 L498,-254 L362,-858 L370,-366 L238,-310 Z" stroke-width="0" fill="#4c2a22" fill-opacity="0.4588235294117647" />
<path d="M394,-606 L770,-658 L514,-230 L306,-1118 L502,-82 L426,-1266 Z" stroke-width="0" fill="#1a6cc2" fill-opacity="0.2784313725490196" />
<path d="M442,-690 L674,-1150 L466,-358 L138,-1218 L350,-454 L582,-1194 Z" stroke-width="0" fill="#7a6394" fill-opacity="0.17647058823529413" />
<path d="M262,-1210 L130,-334 L586,-1078 L610,-210 L746,-554 L446,-602 Z" stroke-width="0" fill="#5783a8" fill-opacity="0.22745098039215686" />
<path d="M106,-814 L790,-234 L406,-150 L486,-218 L710,-1254 L558,-494 Z" stroke-width="0" fill="#224572" fill-opacity="0.34509803921568627" />
<path d="M186,-814 L630,-474 L182,-374 L686,-426 L298,-294 L806,-874 Z" stroke-width="0" fill="#9ad1ad" fill-opacity="0.6" />
<path d="M494,-1262 L98,-326 L214,-806 L450,-682 L542,-234 L670,-582 Z" stroke-width="0" fill="#0f94e6" fill-opacity="0.09411764705882353" />
<path d="M122,-546 L254,-994 L534,-306 L182,-114 L534,-454 L650,-394 Z" stroke-width="0" fill="#100519" fill-opacity="0.5019607843137255" />
<path d="M290,-818 L342,-810 L606,-706 L402,-842 L282,-402 L574,-558 Z" stroke-width="0" fill="#104492" fill-opacity="0.4549019607843137" />
<path d="M150,-1202 L202,-322 L446,-742 L314,-1054 L598,-198 L186,-254 Z" stroke-width="0" fill="#1b0a11" fill-opacity="0.3764705882352941" />
<path d="M774,-842 L494,-938 L250,-402 L182,-98 L102,-810 L710,-1234 Z" stroke-width="0" fill="#617574" fill-opacity="0.09019607843137255" />
<path d="M282,-1150 L342,-614 L514,-830 L226,-710 L134,-570 L686,-118 Z" stroke-width="0" fill="#796b00" fill-opacity="0.19607843137254902" />
<path d="M458,-1062 L586,-374 L322,-782 L202,-698 L794,-194 L90,-470 Z" stroke-width="0" fill="#203b63" fill-opacity="0.4470588235294118" />
<path d="M522,-1114 L490,-746 L450,-222 L722,-550 L298,-254 L710,-226 Z" stroke-width="0" fill="#35fad3" fill-opacity="0.1607843137254902" />
<path d="M526,-1134 L270,-1110 L346,-862 L198,-426 L666,-170 L274,-358 Z" stroke-width="0" fill="#33121a" fill-opacity="0.5019607843137255" />
<path d="M286,-1242 L350,-1126 L382,-890 L138,-506 L730,-674 L282,-558 Z" stroke-width="0" fill="#173e43" fill-opacity="0.39215686274509803" />
<text x="448.0" y="0" font-size="70.0" fill="black" text-anchor="middle" transform="translate(0,17.5)">7 OF EARTH</text>
</svg>