<?xml version="1.0" encoding="UTF-8"?>
<svg xmlns="http://www.w3.org/2000/svg" xmlns:xlink="http://www.w3.org/1999/xlink"
     width="896" height="1496" viewBox="0 -1400 896 1496" style="font-size:70;font-family:Poor Richard, Times New Roman;stroke:black;stroke-width:1;fill:none">
<defs>
</defs>
<path d="M442,-770 L662,-522 L798,-614 L506,-246 L342,-898 L530,-250 Z" stroke-width="0" fill="#031468" fill-opacity="0.596078431372549" />
<path d="M358,-686 L438,-1018 L646,-1178 L318,-626 L350,-598 L110,-314 Z" stroke-width="0" fill="#20083a" fill-opacity="0.596078431372549" />
<path d="M222,-494 L542,-450 L342,-1246 L314,-718 L418,-710 L486,-890 Z" stroke-width="0" fill="#e6fece" fill-opacity="0.27450980392156865" />
<path d="M162,-462 L154,-370 L506,-926 L798,-1206 L614,-294 L178,-438 Z" stroke-width="0" fill="#f35117" fill-opacity="0.24313725490196078" />
<path d="M730,-526 L630,-358 L590,-142 L306,-1158 L154,-1034 L98,-782 Z" stroke-width="0" fill="#e4fc37" fill-opacity="0.16862745098039217" />
<path d="M502,-130 L386,-558 L326,-1306 L806,-646 L330,-130 L342,-814 Z" stroke-width="0" fill="#ef9712" fill-opacity="0.20784313725490197" />
<path d="M162,-562 L642,-1298 L222,-1130 L246,-706 L206,-418 L394,-442 Z" stroke-width="0" fill="#b20600" fill-opacity="0.8745098039215686" />
<path d="M450,-590 L314,-698 L170,-1198 L82,-114 L210,-542 L350,-1150 Z" stroke-width="0" fill="#d94e00" fill-opacity="0.803921568627451" />
<path d="M246,-594 L722,-302 L210,-346 L682,-362 L118,-594 L646,-390 Z" stroke-width="0" fill="#0000cd" fill-opacity="0.9411764705882353" />
<path d="M406,-674 L318,-246 L494,-430 L242,-562 L622,-1294 L482,-318 Z" stroke-width="0" fill="#ca3a00" fill-opacity="0.7647058823529411" />
<path d="M442,-542 L498,-838 L190,-726 L342,-550 L582,-438 L746,-1110 Z" stroke-width="0" fill="#e99109" fill-opacity="0.4627450980392157" />
<path d="M182,-898 L218,-282 L162,-302 L506,-702 L102,-838 L210,-134 Z" stroke-width="0" fill="#f20a35" fill-opacity="0.027450980392156862" />
<path d="M294,-106 L470,-742 L462,-474 L434,-498 L478,-618 L658,-218 Z" stroke-width="0" fill="#180004" fill-opacity="0.9882352941176471" />
<path d="M90,-870 L738,-558 L258,-986 L554,-1278 L746,-538 L378,-1074 Z" stroke-width="0" fill="#fae600" fill-opacity="0.12549019607843137" />
<path d="M314,-658 L362,-238 L302,-450 L762,-362 L630,-734 L414,-802 Z" stroke-width="0" fill="#1a10fa" fill-opacity="0.8941176470588236" />
<path d="M410,-166 L262,-306 L558,-666 L470,-434 L114,-254 L370,-482 Z" stroke-width="0" fill="#24cb12" fill-opacity="0.9882352941176471" />
<path d="M418,-426 L394,-962 L778,-1098 L238,-602 L674,-1270 L98,-730 Z" stroke-width="0" fill="#ffd723" fill-opacity="0.5019607843137255" />
<path d="M294,-338 L466,-486 L802,-290 L742,-566 L338,-118 L510,-846 Z" stroke-width="0" fill="#00004d" fill-opacity="0.9607843137254902" />
<path d="M250,-522 L170,-294 L86,-766 L462,-834 L198,-1042 L538,-1234 Z" stroke-width="0" fill="#c8d817" fill-opacity="0.011764705882352941" />
<path d="M582,-602 L182,-822 L114,-682 L234,-522 L774,-394 L82,-146 Z" stroke-width="0" fill="#120815" fill-opacity="0.8549019607843137" />
<path d="M366,-934 L274,-222 L578,-234 L502,-922 L206,-838 L526,-482 Z" stroke-width="0" fill="#2c7a0d" fill-opacity="0.27058823529411763" />
<path d="M638,-990 L746,-126 L98,-714 L306,-426 L474,-318 L206,-1170 Z" stroke-width="0" fill="#0f0000" fill-opacity="0.5803921568627451" />
<path d="M634,-1094 L342,-466 L386,-958 L414,-510 L294,-282 L426,-1210 Z" stroke-width="0" fill="#5ca0e5" fill-opacity="0.011764705882352941" />
<path d="M722,-562 L98,-770 L610,-1202 L742,-250 L310,-934 L178,-374 Z" stroke-width="0" fill="#fcaa75" fill-opacity="0.23137254901960785" />
<path d="M82,-678 L634,-330 L622,-154 L710,-1154 L618,-994 L594,-1282 Z" stroke-width="0" fill="#f3cc2e" fill-opacity="0.2" />
<path d="M658,-546 L370,-470 L306,-494 L546,-354 L358,-1138 L82,-134 Z" stroke-width="0" fill="#e57029" fill-opacity="0.9686274509803922" />
<path d="M622,-530 L758,-206 L682,-430 L406,-138 L302,-146 L806,-466 Z" stroke-width="0" fill="#1a1b1d" fill-opacity="0.9176470588235294" />
<path d="M378,-198 L798,-542 L458,-1122 L198,-162 L362,-1250 L314,-1226 Z" stroke-width="0" fill="#f7f1bb" fill-opacity="0.9607843137254902" />
<path d="M702,-1246 L326,-1294 L494,-598 L214,-474 L678,-570 L242,-1210 Z" stroke-width="0" fill="#fe5500" fill-opacity="0.6588235294117647" />
<path d="M726,-390 L198,-578 L194,-318 L354,-254 L526,-502 L230,-1010 Z" stroke-width="0" fill="#30034a" fill-opacity="0.9098039215686274" />
<path d="M706,-842 L474,-782 L174,-510 L658,-134 L774,-426 L646,-482 Z" stroke-width="0" fill="#1f0002" fill-opacity="0.7450980392156863" />
<path d="M806,-1286 L738,-1070 L678,-650 L350,-426 L386,-846 L810,-110 Z" stroke-width="0" fill="#b16606" fill-opacity="0.6235294117647059" />
<path d="M698,-754 L486,-106 L666,-778 L718,-178 L294,-998 L294,-470 Z" stroke-width="0" fill="#05697e" fill-opacity="0.2823529411764706" />
<path d="M138,-1286 L162,-938 L98,-990 L186,-154 L438,-738 L562,-1130 Z" stroke-width="0" fill="#e2f795" fill-opacity="0.5137254901960784" />
<path d="M86,-1210 L506,-550 L406,-406 L534,-1190 L682,-1026 L234,-234 Z" stroke-width="0" fill="#efe5b4" fill-opacity="0.8666666666666667" />
<path d="M370,-490 L598,-634 L158,-510 L406,-686 L286,-1014 L90,-562 Z" stroke-width="0" fill="#b7bffb" fill-opacity="0.07450980392156863" />
<path d="M566,-974 L774,-610 L726,-882 L298,-610 L142,-478 L734,-242 Z" stroke-width="0" fill="#6543bb" fill-opacity="0.00392156862745098" />
<path d="M598,-542 L210,-1262 L726,-970 L238,-378 L530,-546 L394,-418 Z" stroke-width="0" fill="#e5d194" fill-opacity="0.29411764705882354" />
<path d="M266,-214 L346,-454 L366,-978 L214,-458 L518,-678 L110,-170 Z" stroke-width="0" fill="#0c062a" fill-opacity="0.4392156862745098" />
<path d="M710,-378 L582,-534 L430,-1154 L454,-814 L786,-966 L342,-162 Z" stroke-width="0" fill="#a7b255" fill-opacity="0.10196078431372549" />
<path d="M602,-474 L222,-1126 L218,-86 L438,-1142 L326,-666 L262,-1038 Z" stroke-width="0" fill="#25131f" fill-opacity="0.9607843137254902" />
<path d="M166,-950 L730,-150 L386,-558 L798,-354 L750,-626 L486,-534 Z" stroke-width="0" fill="#4e566b" fill-opacity="0.3568627450980392" />
<path d="M778,-950 L470,-346 L662,-430 L342,-526 L446,-702 L190,-562 Z" stroke-width="0" fill="#eff585" fill-opacity="0.6901960784313725" />
<path d="M166,-790 L686,-414 L462,-858 L294,-906 L318,-566 L238,-514 Z" stroke-width="0" fill="#f7ac50" fill-opacity="0.41568627450980394" />
<path d="M266,-566 L394,-462 L206,-1174 L482,-1162 L602,-1022 L478,-530 Z" stroke-width="0" fill="#f3edfe" fill-opacity="0.9254901960784314" />
<path d="M390,-618 L310,-274 L354,-1202 L414,-1014 L454,-1254 L414,-634 Z" stroke-width="0" fill="#fca069" fill-opacity="0.33725490196078434" />
<path d="M510,-410 L674,-438 L226,-550 L406,-786 L634,-762 L290,-1090 Z" stroke-width="0" fill="#20c4e9" fill-opacity="0.6274509803921569" />
<path d="M618,-458 L170,-102 L514,-1126 L394,-106 L690,-1026 L130,-1290 Z" stroke-width="0" fill="#f25e00" fill-opacity="0.5019607843137255" />
<path d="M450,-1110 L194,-922 L146,-1114 L502,-102 L390,-986 L714,-498 Z" stroke-width="0" fill="#eab6ec" fill-opacity="0.1450980392156863" />
<path d="M294,-170 L494,-974 L782,-286 L454,-1062 L170,-938 L378,-974 Z" stroke-width="0" fill="#00202e" fill-opacity="0.8509803921568627" />
<path d="M782,-186 L738,-206 L322,-394 L318,-634 L402,-446 L594,-310 Z" stroke-width="0" fill="#673d31" fill-opacity="0.984313725490196" />
<path d="M326,-834 L682,-882 L622,-698 L162,-478 L258,-474 L598,-142 Z" stroke-width="0" fill="#baad6e" fill-opacity="0.9254901960784314" />
<path d="M614,-742 L634,-606 L366,-346 L310,-970 L318,-634 L714,-550 Z" stroke-width="0" fill="#d89937" fill-opacity="0.984313725490196" />
<path d="M398,-1270 L430,-838 L262,-690 L138,-766 L174,-470 L126,-342 Z" stroke-width="0" fill="#e9e412" fill-opacity="0.09019607843137255" />
<path d="M286,-686 L746,-626 L434,-606 L394,-410 L322,-362 L434,-198 Z" stroke-width="0" fill="#c26e50" fill-opacity="0.23921568627450981" />
<path d="M474,-518 L354,-726 L650,-170 L558,-286 L686,-670 L230,-590 Z" stroke-width="0" fill="#f87724" fill-opacity="0.34509803921568627" />
<path d="M142,-178 L438,-950 L174,-210 L214,-1270 L666,-226 L202,-514 Z" stroke-width="0" fill="#f3f290" fill-opacity="0.792156862745098" />
<path d="M774,-122 L458,-434 L718,-382 L510,-86 L250,-242 L370,-1214 Z" stroke-width="0" fill="#14071c" fill-opacity="0.8862745098039215" />
<path d="M606,-258 L250,-1266 L446,-1306 L574,-1274 L466,-538 L762,-442 Z" stroke-width="0" fill="#ec6600" fill-opacity="0.6352941176470588" />
<path d="M118,-470 L162,-906 L138,-558 L294,-1198 L742,-1174 L502,-882 Z" stroke-width="0" fill="#fbce65" fill-opacity="0.9333333333333333" />
<path d="M646,-258 L450,-390 L490,-582 L510,-1238 L390,-518 L370,-790 Z" stroke-width="0" fill="#0f0019" fill-opacity="0.7607843137254902" />
<path d="M86,-402 L94,-618 L650,-1010 L390,-378 L94,-658 L594,-290 Z" stroke-width="0" fill="#f07519" fill-opacity="0.44313725490196076" />
<path d="M630,-1022 L358,-850 L574,-1302 L174,-1050 L782,-1058 L466,-722 Z" stroke-width="0" fill="#ebec8c" fill-opacity="0.6313725490196078" />
<path d="M414,-926 L778,-422 L326,-782 L678,-438 L250,-254 L98,-110 Z" stroke-width="0" fill="#815b26" fill-opacity="0.9568627450980393" />
<path d="M778,-1022 L434,-230 L90,-106 L562,-1042 L194,-314 L798,-346 Z" stroke-width="0" fill="#b2163a" fill-opacity="0.1843137254901961" />
<path d="M546,-978 L690,-1254 L170,-574 L490,-86 L574,-646 L266,-1010 Z" stroke-width="0" fill="#c90000" fill-opacity="0.09411764705882353" />
<path d="M138,-370 L510,-290 L718,-1014 L630,-526 L90,-638 L202,-434 Z" stroke-width="0" fill="#d5f84c" fill-opacity="0.10980392156862745" />
<path d="M390,-474 L634,-334 L274,-706 L186,-438 L210,-274 L258,-674 Z" stroke-width="0" fill="#7d2813" fill-opacity="0.27058823529411763" />
<path d="M314,-294 L534,-366 L342,-1162 L662,-826 L518,-1242 L350,-534 Z" stroke-width="0" fill="#f4d156" fill-opacity="0.8392156862745098" />
<path d="M662,-1114 L390,-474 L162,-242 L410,-954 L150,-674 L282,-142 Z" stroke-width="0" fill="#aa7031" fill-opacity="0.23529411764705882" />
<path d="M626,-1022 L474,-294 L250,-522 L166,-1158 L150,-954 L90,-410 Z" stroke-width="0" fill="#d9f9ae" fill-opacity="0.4549019607843137" />
<path d="M698,-606 L426,-130 L306,-290 L386,-878 L438,-902 L114,-970 Z" stroke-width="0" fill="#5f1e37" fill-opacity="0.4196078431372549" />
<path d="M466,-942 L110,-666 L630,-566 L146,-498 L330,-154 L182,-974 Z" stroke-width="0" fill="#87cc97" fill-opacity="0.00392156862745098" />
<path d="M554,-870 L154,-530 L194,-238 L178,-354 L438,-118 L486,-830 Z" stroke-width="0" fill="#130000" fill-opacity="0.17254901960784313" />
<path d="M494,-1082 L474,-374 L246,-1306 L702,-942 L266,-258 L774,-750 Z" stroke-width="0" fill="#e9e199" fill-opacity="0.7294117647058823" />
<path d="M474,-374 L790,-674 L698,-902 L250,-174 L462,-90 L530,-678 Z" stroke-width="0" fill="#c62f21" fill-opacity="0.03529411764705882" />
<path d="M474,-450 L438,-370 L602,-1258 L90,-494 L442,-758 L570,-1202 Z" stroke-width="0" fill="#d0d210" fill-opacity="0.16470588235294117" />
<path d="M622,-598 L146,-354 L674,-166 L782,-1038 L602,-250 L294,-314 Z" stroke-width="0" fill="#d3f790" fill-opacity="0.03137254901960784" />
<path d="M250,-438 L702,-198 L182,-390 L554,-586 L698,-518 L570,-1238 Z" stroke-width="0" fill="#faeea4" fill-opacity="0.3137254901960784" />
<path d="M650,-914 L142,-250 L118,-1038 L598,-1142 L494,-714 L250,-470 Z" stroke-width="0" fill="#fcf4cd" fill-opacity="0.5137254901960784" />
<path d="M658,-226 L686,-614 L466,-950 L702,-270 L410,-1006 L374,-514 Z" stroke-width="0" fill="#882d10" fill-opacity="0.1607843137254902" />
<path d="M410,-238 L430,-254 L242,-618 L358,-90 L282,-494 L274,-1126 Z" stroke-width="0" fill="#bf93bc" fill-opacity="0.12156862745098039" />
<path d="M186,-378 L138,-534 L370,-226 L554,-762 L450,-158 L402,-970 Z" stroke-width="0" fill="#9b0e12" fill-opacity="0.5019607843137255" />
<path d="M306,-706 L326,-1314 L82,-190 L254,-918 L346,-318 L278,-1190 Z" stroke-width="0" fill="#f8ddad" fill-opacity="0.11764705882352941" />
<path d="M250,-762 L622,-610 L398,-1242 L742,-1098 L590,-1098 L566,-1286 Z" stroke-width="0" fill="#f8eb71" fill-opacity="0.5019607843137255" />
<path d="M346,-246 L210,-314 L254,-954 L178,-666 L386,-214 L190,-1062 Z" stroke-width="0" fill="#87cbae" fill-opacity="0.00392156862745098" />
<path d="M82,-402 L534,-434 L254,-330 L422,-794 L510,-126 L86,-774 Z" stroke-width="0" fill="#ebce38" fill-opacity="0.3843137254901961" />
<path d="M570,-238 L382,-1198 L134,-862 L230,-678 L266,-862 L806,-534 Z" stroke-width="0" fill="#dfa9b2" fill-opacity="0.10980392156862745" />
<path d="M142,-746 L486,-682 L742,-1010 L366,-274 L494,-778 L366,-1138 Z" stroke-width="0" fill="#d2edbc" fill-opacity="0.054901960784313725" />
<path d="M378,-466 L298,-782 L370,-950 L370,-1110 L434,-1150 L190,-226 Z" stroke-width="0" fill="#f0da1c" fill-opacity="0.4470588235294118" />
<path d="M566,-1194 L730,-698 L478,-878 L402,-1250 L282,-570 L682,-382 Z" stroke-width="0" fill="#ffc4f3" fill-opacity="0.1843137254901961" />
<path d="M418,-162 L182,-470 L610,-554 L478,-342 L642,-462 L106,-1138 Z" stroke-width="0" fill="#e6ea35" fill-opacity="0.13333333333333333" />
<path d="M222,-1014 L158,-210 L762,-130 L198,-370 L326,-166 L502,-606 Z" stroke-width="0" fill="#c94a06" fill-opacity="0.07058823529411765" />
<path d="M206,-242 L326,-1306 L466,-194 L510,-1050 L658,-702 L330,-402 Z" stroke-width="0" fill="#e3d187" fill-opacity="0.25098039215686274" />
<path d="M666,-782 L126,-1062 L478,-850 L134,-586 L174,-718 L186,-998 Z" stroke-width="0" fill="#cdf6eb" fill-opacity="0.8313725490196079" />
<path d="M306,-1110 L242,-802 L526,-518 L186,-542 L310,-622 L458,-814 Z" stroke-width="0" fill="#faedc8" fill-opacity="0.8588235294117647" />
<path d="M450,-1218 L258,-558 L554,-630 L394,-274 L486,-1142 L162,-814 Z" stroke-width="0" fill="#fbefe8" fill-opacity="0.19215686274509805" />
<path d="M566,-1118 L374,-814 L418,-262 L734,-882 L146,-738 L370,-554 Z" stroke-width="0" fill="#f8cc7f" fill-opacity="0.39215686274509803" />
<path d="M306,-986 L230,-214 L522,-526 L170,-1198 L254,-1074 L654,-746 Z" stroke-width="0" fill="#bce35c" fill-opacity="0.00784313725490196" />
<path d="M162,-566 L430,-146 L318,-610 L350,-770 L394,-754 L382,-462 Z" stroke-width="0" fill="#daed1e" fill-opacity="0.11764705882352941" />
<text x="448.0" y="0" font-size="70.0" fill="black" text-anchor="middle" transform="translate(0,17.5)">2 OF EARTH</text>
</svg>