<?xml version="1.0" encoding="UTF-8"?>
<svg xmlns="http://www.w3.org/2000/svg" xmlns:xlink="http://www.w3.org/1999/xlink"
     width="275" height="375" viewBox="0 -350 275 375">
<defs>
</defs>
<rect x="15" y="-335" width="245" height="320" stroke="black" stroke-width="4" fill="white" />
<path d="M46,-118 L43,-61 L98,-233 L182,-181 L120,-55 L168,-231 Z" stroke-width="0" fill="#66ec05" fill-opacity="0.6941176470588235" />
<path d="M220,-37 L143,-132 L216,-276 L211,-31 L245,-301 L222,-39 Z" stroke-width="0" fill="#100000" fill-opacity="0.788235294117647" />
<path d="M179,-310 L246,-306 L101,-116 L219,-188 L161,-298 L190,-30 Z" stroke-width="0" fill="#270000" fill-opacity="0.9764705882352941" />
<path d="M29,-55 L210,-28 L155,-216 L171,-55 L85,-187 L156,-85 Z" stroke-width="0" fill="#b200a7" fill-opacity="0.7176470588235294" />
<path d="M199,-51 L52,-158 L131,-294 L195,-192 L137,-282 L191,-95 Z" stroke-width="0" fill="#208b17" fill-opacity="0.06274509803921569" />
<path d="M47,-124 L94,-293 L189,-119 L106,-58 L41,-57 L101,-199 Z" stroke-width="0" fill="#60283d" fill-opacity="0.592156862745098" />
<path d="M115,-67 L241,-254 L147,-142 L28,-79 L79,-32 L211,-269 Z" stroke-width="0" fill="#0f000b" fill-opacity="0.8509803921568627" />
<path d="M206,-50 L64,-70 L48,-218 L65,-145 L212,-41 L29,-195 Z" stroke-width="0" fill="#000000" fill-opacity="0.8588235294117647" />
<path d="M233,-47 L64,-312 L77,-34 L86,-180 L46,-295 L41,-72 Z" stroke-width="0" fill="#000000" fill-opacity="0.9764705882352941" />
<path d="M57,-300 L81,-118 L121,-47 L208,-135 L88,-192 L235,-309 Z" stroke-width="0" fill="#000002" fill-opacity="0.7764705882352941" />
<path d="M105,-195 L232,-164 L204,-186 L235,-320 L94,-178 L158,-104 Z" stroke-width="0" fill="#330625" fill-opacity="0.8941176470588236" />
<path d="M42,-119 L209,-47 L191,-241 L134,-202 L66,-270 L203,-112 Z" stroke-width="0" fill="#bd6f1b" fill-opacity="0.0392156862745098" />
<path d="M108,-59 L58,-181 L189,-309 L149,-33 L30,-169 L64,-163 Z" stroke-width="0" fill="#311610" fill-opacity="0.5411764705882353" />
<path d="M154,-148 L137,-244 L148,-271 L87,-175 L171,-197 L134,-238 Z" stroke-width="0" fill="#6e2b15" fill-opacity="0.8235294117647058" />
<path d="M217,-106 L140,-274 L142,-27 L164,-320 L61,-274 L56,-317 Z" stroke-width="0" fill="#090000" fill-opacity="0.9725490196078431" />
<path d="M167,-191 L240,-55 L35,-131 L75,-33 L214,-91 L121,-195 Z" stroke-width="0" fill="#0f001b" fill-opacity="0.8823529411764706" />
<path d="M100,-232 L63,-273 L170,-41 L178,-154 L184,-205 L25,-183 Z" stroke-width="0" fill="#000000" fill-opacity="1.0" />
<path d="M85,-141 L56,-154 L224,-265 L84,-162 L58,-65 L39,-80 Z" stroke-width="0" fill="#fb6de7" fill-opacity="0.8" />
<path d="M224,-197 L30,-54 L105,-315 L161,-94 L82,-314 L199,-72 Z" stroke-width="0" fill="#000400" fill-opacity="0.9176470588235294" />
<path d="M40,-228 L246,-324 L34,-93 L134,-49 L167,-281 L113,-167 Z" stroke-width="0" fill="#09000f" fill-opacity="0.9294117647058824" />
<path d="M216,-104 L141,-239 L95,-149 L63,-262 L111,-268 L137,-155 Z" stroke-width="0" fill="#5a80b6" fill-opacity="0.13725490196078433" />
<path d="M41,-76 L157,-93 L184,-148 L158,-120 L207,-167 L26,-134 Z" stroke-width="0" fill="#000000" fill-opacity="0.7725490196078432" />
<path d="M137,-55 L120,-74 L182,-268 L138,-253 L95,-53 L109,-99 Z" stroke-width="0" fill="#1b7aaa" fill-opacity="0.06666666666666667" />
<path d="M117,-101 L177,-148 L132,-125 L43,-158 L200,-56 L144,-132 Z" stroke-width="0" fill="#57f1aa" fill-opacity="0.2627450980392157" />
<path d="M65,-259 L145,-302 L138,-114 L162,-278 L75,-178 L198,-289 Z" stroke-width="0" fill="#102842" fill-opacity="0.2196078431372549" />
<path d="M144,-37 L192,-129 L105,-44 L137,-307 L97,-68 L124,-148 Z" stroke-width="0" fill="#08004f" fill-opacity="0.17254901960784313" />
<path d="M50,-204 L229,-53 L151,-113 L123,-214 L86,-142 L92,-184 Z" stroke-width="0" fill="#12e255" fill-opacity="0.7686274509803922" />
<path d="M207,-210 L106,-191 L207,-261 L36,-145 L81,-90 L60,-282 Z" stroke-width="0" fill="#90e83c" fill-opacity="0.6392156862745098" />
<path d="M161,-203 L79,-99 L182,-261 L99,-122 L224,-144 L107,-171 Z" stroke-width="0" fill="#b14a58" fill-opacity="0.07450980392156863" />
<path d="M159,-59 L156,-294 L112,-304 L153,-193 L47,-232 L192,-90 Z" stroke-width="0" fill="#09041a" fill-opacity="0.7098039215686275" />
<path d="M111,-244 L212,-235 L193,-277 L112,-113 L202,-179 L49,-177 Z" stroke-width="0" fill="#ecadb1" fill-opacity="0.7137254901960784" />
<path d="M92,-155 L223,-117 L191,-87 L135,-108 L133,-200 L143,-224 Z" stroke-width="0" fill="#d5d063" fill-opacity="0.8313725490196079" />
<path d="M215,-140 L92,-57 L32,-95 L35,-281 L91,-252 L124,-127 Z" stroke-width="0" fill="#000000" fill-opacity="0.996078431372549" />
<path d="M145,-140 L202,-65 L119,-128 L244,-207 L68,-164 L52,-52 Z" stroke-width="0" fill="#ed00ef" fill-opacity="0.6588235294117647" />
<path d="M30,-81 L55,-31 L136,-285 L56,-113 L59,-148 L153,-317 Z" stroke-width="0" fill="#000000" fill-opacity="0.9725490196078431" />
<path d="M120,-304 L230,-84 L66,-307 L77,-179 L175,-39 L182,-115 Z" stroke-width="0" fill="#5b2340" fill-opacity="0.2549019607843137" />
<path d="M103,-190 L45,-26 L181,-289 L149,-143 L62,-42 L90,-236 Z" stroke-width="0" fill="#000000" fill-opacity="0.6784313725490196" />
<path d="M182,-110 L98,-60 L41,-303 L56,-220 L87,-25 L133,-115 Z" stroke-width="0" fill="#000000" fill-opacity="0.9647058823529412" />
<path d="M31,-214 L75,-70 L125,-32 L245,-29 L189,-148 L125,-70 Z" stroke-width="0" fill="#020000" fill-opacity="0.8470588235294118" />
<path d="M126,-158 L75,-33 L217,-107 L116,-48 L158,-161 L67,-27 Z" stroke-width="0" fill="#000000" fill-opacity="0.9176470588235294" />
<path d="M180,-176 L242,-66 L64,-205 L84,-154 L77,-65 L47,-207 Z" stroke-width="0" fill="#81a2fa" fill-opacity="0.7843137254901961" />
<path d="M161,-121 L70,-226 L213,-290 L186,-61 L99,-221 L74,-298 Z" stroke-width="0" fill="#664090" fill-opacity="0.25882352941176473" />
<path d="M195,-195 L183,-214 L137,-249 L173,-169 L117,-286 L178,-226 Z" stroke-width="0" fill="#ff07cd" fill-opacity="0.011764705882352941" />
<path d="M185,-151 L53,-176 L64,-48 L192,-68 L79,-74 L26,-144 Z" stroke-width="0" fill="#000000" fill-opacity="0.8274509803921568" />
<path d="M99,-324 L226,-67 L46,-176 L96,-142 L55,-120 L171,-211 Z" stroke-width="0" fill="#00200d" fill-opacity="0.9019607843137255" />
<path d="M223,-197 L220,-77 L128,-306 L88,-179 L75,-70 L65,-81 Z" stroke-width="0" fill="#efdf94" fill-opacity="0.9333333333333333" />
<path d="M185,-293 L154,-62 L85,-302 L119,-29 L213,-37 L230,-135 Z" stroke-width="0" fill="#12003b" fill-opacity="0.40784313725490196" />
<path d="M176,-194 L123,-65 L28,-280 L203,-35 L138,-167 L236,-168 Z" stroke-width="0" fill="#000000" fill-opacity="0.984313725490196" />
<path d="M207,-251 L36,-110 L69,-190 L104,-306 L245,-304 L231,-300 Z" stroke-width="0" fill="#1b0005" fill-opacity="0.44313725490196076" />
<path d="M166,-167 L99,-108 L231,-27 L40,-107 L32,-45 L193,-51 Z" stroke-width="0" fill="#000000" fill-opacity="0.9058823529411765" />
<path d="M171,-120 L79,-304 L29,-176 L34,-200 L147,-34 L67,-160 Z" stroke-width="0" fill="#000000" fill-opacity="0.8196078431372549" />
<path d="M57,-321 L209,-145 L118,-183 L194,-79 L75,-219 L70,-66 Z" stroke-width="0" fill="#000000" fill-opacity="0.9607843137254902" />
<path d="M191,-277 L84,-198 L31,-75 L66,-248 L205,-135 L51,-275 Z" stroke-width="0" fill="#000016" fill-opacity="0.9215686274509803" />
<path d="M67,-37 L237,-246 L111,-217 L229,-105 L61,-296 L172,-118 Z" stroke-width="0" fill="#000000" fill-opacity="0.7450980392156863" />
<path d="M164,-111 L73,-135 L35,-181 L30,-231 L73,-276 L123,-94 Z" stroke-width="0" fill="#000000" fill-opacity="0.9882352941176471" />
<path d="M49,-242 L31,-42 L42,-273 L223,-267 L193,-27 L160,-259 Z" stroke-width="0" fill="#000000" fill-opacity="0.8392156862745098" />
<path d="M25,-42 L178,-123 L239,-152 L142,-93 L87,-90 L105,-43 Z" stroke-width="0" fill="#000000" fill-opacity="0.9058823529411765" />
<path d="M148,-198 L147,-101 L217,-142 L111,-147 L72,-29 L56,-155 Z" stroke-width="0" fill="#000000" fill-opacity="0.8274509803921568" />
<path d="M53,-296 L178,-131 L219,-152 L167,-209 L175,-41 L113,-100 Z" stroke-width="0" fill="#0a1000" fill-opacity="0.8588235294117647" />
<path d="M145,-201 L137,-153 L104,-239 L246,-94 L27,-207 L216,-277 Z" stroke-width="0" fill="#000092" fill-opacity="0.6509803921568628" />
<path d="M122,-104 L34,-254 L108,-175 L69,-95 L102,-324 L121,-102 Z" stroke-width="0" fill="#000000" fill-opacity="0.8705882352941177" />
<path d="M175,-127 L119,-122 L31,-322 L249,-112 L83,-45 L234,-141 Z" stroke-width="0" fill="#000000" fill-opacity="0.9803921568627451" />
<path d="M50,-106 L124,-293 L211,-134 L71,-240 L219,-319 L201,-164 Z" stroke-width="0" fill="#220e1e" fill-opacity="0.8156862745098039" />
<path d="M39,-101 L193,-168 L49,-63 L177,-281 L154,-209 L27,-94 Z" stroke-width="0" fill="#180024" fill-opacity="0.803921568627451" />
<path d="M29,-99 L213,-257 L171,-323 L50,-86 L35,-180 L234,-35 Z" stroke-width="0" fill="#000008" fill-opacity="0.7254901960784313" />
<path d="M202,-69 L170,-250 L246,-147 L32,-152 L79,-113 L51,-33 Z" stroke-width="0" fill="#030000" fill-opacity="0.8901960784313725" />
<path d="M210,-218 L53,-281 L81,-265 L83,-242 L145,-291 L107,-162 Z" stroke-width="0" fill="#000009" fill-opacity="0.27058823529411763" />
<path d="M90,-71 L208,-37 L229,-74 L241,-209 L95,-255 L63,-192 Z" stroke-width="0" fill="#8325c8" fill-opacity="0.403921568627451" />
<path d="M123,-90 L241,-277 L112,-131 L171,-61 L247,-169 L78,-66 Z" stroke-width="0" fill="#442159" fill-opacity="0.9921568627450981" />
<path d="M206,-180 L230,-207 L195,-106 L208,-101 L158,-74 L175,-303 Z" stroke-width="0" fill="#8e8588" fill-opacity="0.09411764705882353" />
<path d="M141,-127 L170,-259 L111,-129 L80,-28 L172,-198 L203,-82 Z" stroke-width="0" fill="#1b2f3b" fill-opacity="0.44313725490196076" />
<path d="M134,-272 L218,-149 L248,-217 L208,-229 L77,-62 L34,-37 Z" stroke-width="0" fill="#251300" fill-opacity="0.8352941176470589" />
<path d="M34,-41 L186,-111 L115,-226 L180,-296 L43,-91 L198,-168 Z" stroke-width="0" fill="#142157" fill-opacity="0.14901960784313725" />
<path d="M27,-39 L38,-63 L54,-273 L214,-206 L48,-188 L148,-73 Z" stroke-width="0" fill="#000000" fill-opacity="0.9607843137254902" />
<path d="M90,-209 L123,-249 L120,-184 L212,-136 L125,-321 L39,-84 Z" stroke-width="0" fill="#010014" fill-opacity="0.6588235294117647" />
<path d="M147,-282 L241,-202 L183,-195 L27,-118 L83,-34 L83,-321 Z" stroke-width="0" fill="#100008" fill-opacity="0.9333333333333333" />
<path d="M211,-234 L54,-125 L109,-38 L115,-271 L85,-123 L63,-169 Z" stroke-width="0" fill="#011b13" fill-opacity="0.2" />
<path d="M127,-227 L191,-96 L35,-218 L208,-188 L167,-214 L219,-192 Z" stroke-width="0" fill="#300e42" fill-opacity="0.5411764705882353" />
<path d="M128,-82 L105,-53 L158,-163 L71,-267 L163,-200 L103,-92 Z" stroke-width="0" fill="#000041" fill-opacity="0.12941176470588237" />
<path d="M239,-45 L38,-215 L80,-120 L103,-111 L149,-207 L91,-88 Z" stroke-width="0" fill="#4b003f" fill-opacity="0.27450980392156865" />
<path d="M235,-189 L36,-45 L47,-95 L176,-88 L104,-265 L163,-31 Z" stroke-width="0" fill="#170000" fill-opacity="0.10980392156862745" />
<path d="M136,-76 L247,-25 L39,-293 L189,-42 L33,-211 L40,-188 Z" stroke-width="0" fill="#021306" fill-opacity="0.4235294117647059" />
<path d="M126,-215 L149,-155 L130,-40 L111,-37 L112,-30 L122,-105 Z" stroke-width="0" fill="#110030" fill-opacity="0.9647058823529412" />
<path d="M105,-256 L101,-79 L169,-108 L159,-125 L222,-103 L87,-299 Z" stroke-width="0" fill="#02370f" fill-opacity="0.023529411764705882" />
<path d="M143,-165 L90,-149 L72,-202 L101,-224 L160,-69 L28,-134 Z" stroke-width="0" fill="#a795e1" fill-opacity="0.13725490196078433" />
<path d="M218,-118 L121,-307 L98,-106 L216,-26 L133,-280 L169,-99 Z" stroke-width="0" fill="#1b2456" fill-opacity="0.27450980392156865" />
<path d="M29,-76 L40,-78 L34,-148 L148,-29 L67,-159 L120,-193 Z" stroke-width="0" fill="#000000" fill-opacity="0.8352941176470589" />
<path d="M52,-105 L42,-195 L57,-54 L228,-138 L220,-86 L64,-280 Z" stroke-width="0" fill="#14001d" fill-opacity="0.1411764705882353" />
<path d="M170,-280 L91,-75 L112,-242 L176,-89 L135,-104 L78,-49 Z" stroke-width="0" fill="#050028" fill-opacity="0.1450980392156863" />
<path d="M102,-181 L57,-134 L249,-170 L76,-192 L52,-47 L50,-156 Z" stroke-width="0" fill="#351743" fill-opacity="0.9803921568627451" />
<path d="M58,-105 L164,-178 L73,-157 L136,-190 L77,-176 L113,-281 Z" stroke-width="0" fill="#200026" fill-opacity="0.16470588235294117" />
<path d="M73,-320 L142,-99 L82,-119 L96,-78 L115,-114 L33,-105 Z" stroke-width="0" fill="#000000" fill-opacity="0.8196078431372549" />
<path d="M227,-171 L232,-156 L92,-195 L49,-35 L48,-114 L39,-220 Z" stroke-width="0" fill="#000000" fill-opacity="0.6862745098039216" />
<path d="M85,-53 L234,-266 L115,-37 L104,-97 L107,-175 L205,-275 Z" stroke-width="0" fill="#2c1200" fill-opacity="0.5019607843137255" />
<path d="M113,-102 L73,-78 L224,-302 L120,-229 L129,-161 L48,-71 Z" stroke-width="0" fill="#500000" fill-opacity="0.14901960784313725" />
<path d="M26,-57 L169,-121 L220,-133 L162,-141 L55,-98 L137,-62 Z" stroke-width="0" fill="#151837" fill-opacity="0.050980392156862744" />
<path d="M185,-43 L39,-259 L89,-181 L122,-147 L155,-270 L67,-52 Z" stroke-width="0" fill="#000014" fill-opacity="0.6039215686274509" />
<path d="M159,-95 L32,-126 L103,-263 L225,-253 L56,-179 L100,-307 Z" stroke-width="0" fill="#00000c" fill-opacity="0.17254901960784313" />
<path d="M60,-230 L139,-43 L240,-140 L170,-206 L119,-62 L100,-68 Z" stroke-width="0" fill="#1f0014" fill-opacity="0.4" />
<path d="M66,-125 L185,-264 L140,-82 L145,-124 L51,-146 L212,-246 Z" stroke-width="0" fill="#050b00" fill-opacity="0.5019607843137255" />
<text x="137.5" y="12.5" font-size="20.0" fill="black" text-anchor="middle" transform="translate(0,5.0)">KNIGHT OF EARTH</text>
</svg>