<?xml version="1.0" encoding="UTF-8"?>
<svg xmlns="http://www.w3.org/2000/svg" xmlns:xlink="http://www.w3.org/1999/xlink"
     width="896" height="1496" viewBox="0 -1400 896 1496" style="font-size:70;font-family:Poor Richard, Times New Roman;stroke:black;stroke-width:1;fill:none">
<defs>
</defs>
<path d="M414,-590 L798,-886 L370,-462 L506,-82 L682,-610 L566,-662 Z" stroke-width="0" fill="#000807" fill-opacity="0.8549019607843137" />
<path d="M318,-414 L858,-1006 L306,-1262 L762,-794 L966,-686 L942,-318 Z" stroke-width="0" fill="#672926" fill-opacity="0.3803921568627451" />
<path d="M798,-690 L526,-934 L94,-142 L958,-170 L130,-654 L542,-286 Z" stroke-width="0" fill="#000000" fill-opacity="0.7294117647058823" />
<path d="M210,-966 L698,-766 L754,-874 L162,-1238 L894,-222 L270,-1194 Z" stroke-width="0" fill="#23b751" fill-opacity="0.1843137254901961" />
<path d="M334,-110 L770,-630 L118,-366 L746,-298 L354,-510 L106,-194 Z" stroke-width="0" fill="#2a4277" fill-opacity="0.592156862745098" />
<path d="M158,-646 L138,-1118 L290,-1258 L550,-1034 L306,-762 L798,-646 Z" stroke-width="0" fill="#f454a7" fill-opacity="0.027450980392156862" />
<path d="M686,-410 L550,-954 L826,-858 L250,-286 L654,-334 L226,-922 Z" stroke-width="0" fill="#e674b9" fill-opacity="0.5176470588235295" />
<path d="M210,-754 L546,-918 L106,-414 L506,-746 L734,-762 L198,-466 Z" stroke-width="0" fill="#3c226d" fill-opacity="0.8156862745098039" />
<path d="M110,-430 L142,-1038 L178,-230 L82,-1074 L710,-898 L474,-634 Z" stroke-width="0" fill="#620813" fill-opacity="0.5019607843137255" />
<path d="M142,-1210 L194,-298 L946,-574 L606,-106 L470,-410 L842,-250 Z" stroke-width="0" fill="#776f8c" fill-opacity="0.9686274509803922" />
<path d="M374,-166 L182,-254 L158,-450 L938,-1126 L622,-994 L202,-210 Z" stroke-width="0" fill="#bbed10" fill-opacity="0.023529411764705882" />
<path d="M774,-1234 L358,-1034 L690,-302 L706,-846 L798,-242 L106,-1274 Z" stroke-width="0" fill="#150046" fill-opacity="0.5098039215686274" />
<path d="M762,-122 L210,-958 L954,-954 L350,-534 L478,-218 L746,-290 Z" stroke-width="0" fill="#6b3856" fill-opacity="0.615686274509804" />
<path d="M898,-1278 L378,-494 L790,-194 L902,-322 L938,-482 L482,-294 Z" stroke-width="0" fill="#1e2022" fill-opacity="0.5019607843137255" />
<path d="M954,-834 L526,-102 L130,-306 L770,-822 L958,-758 L766,-822 Z" stroke-width="0" fill="#41294a" fill-opacity="0.09411764705882353" />
<path d="M406,-846 L422,-574 L550,-622 L686,-1182 L226,-146 L470,-418 Z" stroke-width="0" fill="#aee810" fill-opacity="0.26666666666666666" />
<path d="M242,-978 L150,-362 L554,-606 L138,-154 L594,-210 L450,-602 Z" stroke-width="0" fill="#051059" fill-opacity="0.07450980392156863" />
<path d="M950,-938 L226,-1066 L522,-1102 L134,-222 L818,-286 L150,-1074 Z" stroke-width="0" fill="#143049" fill-opacity="0.7647058823529411" />
<path d="M650,-354 L758,-534 L110,-586 L402,-878 L174,-494 L358,-910 Z" stroke-width="0" fill="#4d1126" fill-opacity="0.8980392156862745" />
<path d="M842,-598 L222,-138 L322,-222 L638,-790 L766,-514 L106,-778 Z" stroke-width="0" fill="#191e36" fill-opacity="0.996078431372549" />
<path d="M494,-274 L578,-266 L534,-346 L314,-990 L574,-458 L378,-158 Z" stroke-width="0" fill="#000a3a" fill-opacity="0.8941176470588236" />
<path d="M574,-490 L334,-982 L914,-1034 L826,-150 L238,-690 L590,-906 Z" stroke-width="0" fill="#e53a74" fill-opacity="0.17647058823529413" />
<path d="M314,-638 L562,-822 L450,-758 L794,-838 L262,-498 L962,-514 Z" stroke-width="0" fill="#482b06" fill-opacity="0.5019607843137255" />
<path d="M506,-906 L550,-554 L922,-518 L642,-390 L962,-286 L462,-430 Z" stroke-width="0" fill="#529f55" fill-opacity="0.9254901960784314" />
<path d="M706,-278 L554,-722 L414,-206 L282,-1258 L214,-274 L458,-882 Z" stroke-width="0" fill="#976ce0" fill-opacity="0.26666666666666666" />
<path d="M466,-322 L574,-130 L574,-1206 L230,-146 L354,-414 L278,-470 Z" stroke-width="0" fill="#794753" fill-opacity="0.996078431372549" />
<path d="M422,-750 L202,-386 L150,-574 L350,-1166 L102,-942 L294,-86 Z" stroke-width="0" fill="#511b40" fill-opacity="0.8901960784313725" />
<path d="M250,-830 L106,-1126 L494,-1182 L902,-158 L250,-886 L326,-606 Z" stroke-width="0" fill="#987c8b" fill-opacity="0.6745098039215687" />
<path d="M114,-482 L258,-106 L550,-522 L278,-1182 L262,-866 L642,-114 Z" stroke-width="0" fill="#0e1950" fill-opacity="0.7607843137254902" />
<path d="M234,-166 L434,-1082 L142,-266 L722,-370 L570,-1278 L702,-746 Z" stroke-width="0" fill="#0c2948" fill-opacity="0.8509803921568627" />
<path d="M326,-186 L866,-1122 L462,-394 L202,-866 L194,-506 L854,-1066 Z" stroke-width="0" fill="#231a16" fill-opacity="0.9490196078431372" />
<path d="M830,-1274 L938,-838 L746,-858 L158,-378 L750,-546 L530,-1234 Z" stroke-width="0" fill="#9b6388" fill-opacity="0.7764705882352941" />
<path d="M442,-166 L926,-734 L670,-1002 L342,-198 L278,-402 L262,-786 Z" stroke-width="0" fill="#c6c3b4" fill-opacity="0.788235294117647" />
<path d="M630,-1162 L250,-506 L526,-390 L142,-422 L802,-262 L214,-710 Z" stroke-width="0" fill="#11443c" fill-opacity="0.17254901960784313" />
<path d="M334,-634 L478,-862 L758,-422 L150,-730 L214,-734 L802,-890 Z" stroke-width="0" fill="#10b0da" fill-opacity="0.4196078431372549" />
<path d="M682,-386 L110,-438 L834,-298 L538,-602 L386,-374 L834,-702 Z" stroke-width="0" fill="#c53d00" fill-opacity="0.9411764705882353" />
<path d="M786,-814 L802,-182 L278,-802 L394,-1166 L154,-270 L374,-430 Z" stroke-width="0" fill="#987776" fill-opacity="0.28627450980392155" />
<path d="M562,-390 L546,-578 L258,-1146 L86,-1166 L490,-726 L822,-1066 Z" stroke-width="0" fill="#b08ab0" fill-opacity="0.8274509803921568" />
<path d="M930,-486 L230,-934 L614,-1118 L930,-1266 L94,-642 L254,-918 Z" stroke-width="0" fill="#080a22" fill-opacity="0.5215686274509804" />
<path d="M610,-934 L622,-1098 L598,-238 L122,-1246 L598,-758 L710,-934 Z" stroke-width="0" fill="#c193c4" fill-opacity="0.7843137254901961" />
<path d="M246,-938 L714,-530 L514,-1074 L158,-1074 L370,-350 L262,-1118 Z" stroke-width="0" fill="#4e3c06" fill-opacity="0.47843137254901963" />
<path d="M814,-690 L926,-258 L186,-518 L902,-1158 L230,-206 L786,-1210 Z" stroke-width="0" fill="#463d39" fill-opacity="0.8705882352941177" />
<path d="M254,-550 L978,-566 L562,-150 L570,-586 L546,-1078 L390,-1214 Z" stroke-width="0" fill="#241905" fill-opacity="0.37254901960784315" />
<path d="M398,-1058 L386,-506 L958,-302 L866,-666 L550,-278 L86,-410 Z" stroke-width="0" fill="#280d03" fill-opacity="0.6823529411764706" />
<path d="M962,-590 L318,-402 L866,-1134 L106,-346 L406,-86 L170,-538 Z" stroke-width="0" fill="#25295a" fill-opacity="0.6549019607843137" />
<path d="M262,-810 L442,-542 L798,-302 L350,-330 L230,-962 L154,-346 Z" stroke-width="0" fill="#fa0913" fill-opacity="0.1843137254901961" />
<path d="M238,-214 L950,-714 L434,-950 L314,-854 L722,-166 L342,-890 Z" stroke-width="0" fill="#edfed8" fill-opacity="0.07058823529411765" />
<path d="M218,-1070 L698,-882 L970,-274 L290,-874 L734,-666 L254,-878 Z" stroke-width="0" fill="#1d74a6" fill-opacity="0.21568627450980393" />
<path d="M350,-102 L594,-554 L542,-358 L842,-710 L274,-90 L862,-418 Z" stroke-width="0" fill="#001b28" fill-opacity="0.8549019607843137" />
<path d="M642,-1054 L846,-886 L842,-610 L570,-110 L818,-434 L198,-1226 Z" stroke-width="0" fill="#b7f3e5" fill-opacity="0.023529411764705882" />
<path d="M566,-410 L182,-922 L526,-782 L822,-854 L866,-710 L566,-826 Z" stroke-width="0" fill="#d9a5a0" fill-opacity="0.23529411764705882" />
<path d="M510,-674 L906,-210 L442,-890 L438,-562 L634,-1150 L318,-502 Z" stroke-width="0" fill="#0b020c" fill-opacity="0.8431372549019608" />
<path d="M854,-450 L578,-190 L438,-318 L226,-482 L810,-1274 L258,-438 Z" stroke-width="0" fill="#000217" fill-opacity="0.403921568627451" />
<path d="M286,-1034 L322,-402 L506,-238 L738,-394 L866,-174 L426,-630 Z" stroke-width="0" fill="#905547" fill-opacity="0.403921568627451" />
<path d="M546,-234 L730,-126 L206,-866 L742,-298 L190,-458 L714,-954 Z" stroke-width="0" fill="#7e8793" fill-opacity="0.7725490196078432" />
<path d="M318,-598 L346,-1154 L854,-210 L714,-1062 L518,-770 L562,-398 Z" stroke-width="0" fill="#5e3b50" fill-opacity="0.5019607843137255" />
<path d="M154,-1246 L558,-278 L826,-1118 L174,-590 L194,-166 L490,-718 Z" stroke-width="0" fill="#00736f" fill-opacity="0.050980392156862744" />
<path d="M330,-730 L154,-786 L526,-282 L838,-890 L146,-534 L470,-778 Z" stroke-width="0" fill="#1a62a9" fill-opacity="0.11764705882352941" />
<path d="M846,-718 L546,-174 L754,-406 L614,-1190 L342,-898 L574,-602 Z" stroke-width="0" fill="#320b39" fill-opacity="0.7411764705882353" />
<path d="M158,-254 L710,-1018 L154,-866 L798,-498 L734,-546 L230,-926 Z" stroke-width="0" fill="#040c37" fill-opacity="0.4980392156862745" />
<path d="M466,-590 L318,-342 L674,-486 L178,-622 L394,-978 L538,-478 Z" stroke-width="0" fill="#010000" fill-opacity="0.9333333333333333" />
<path d="M334,-506 L714,-418 L646,-290 L226,-566 L886,-514 L886,-1198 Z" stroke-width="0" fill="#dcefbd" fill-opacity="0.48627450980392156" />
<path d="M306,-170 L718,-698 L618,-582 L190,-482 L394,-522 L122,-990 Z" stroke-width="0" fill="#363466" fill-opacity="0.27450980392156865" />
<path d="M322,-522 L98,-682 L318,-634 L830,-922 L186,-734 L366,-138 Z" stroke-width="0" fill="#030844" fill-opacity="0.49019607843137253" />
<path d="M966,-1150 L934,-1254 L414,-1182 L306,-1142 L406,-922 L722,-690 Z" stroke-width="0" fill="#866cab" fill-opacity="0.8392156862745098" />
<path d="M566,-514 L114,-454 L394,-170 L222,-374 L586,-518 L682,-610 Z" stroke-width="0" fill="#0a62b3" fill-opacity="0.18823529411764706" />
<path d="M934,-222 L894,-718 L318,-1042 L754,-150 L678,-1014 L142,-926 Z" stroke-width="0" fill="#752f66" fill-opacity="0.3607843137254902" />
<path d="M282,-174 L254,-506 L206,-406 L462,-1058 L222,-1262 L594,-794 Z" stroke-width="0" fill="#a6e2f5" fill-opacity="0.13333333333333333" />
<path d="M702,-586 L634,-302 L966,-930 L434,-646 L98,-798 L538,-634 Z" stroke-width="0" fill="#fbdfb3" fill-opacity="0.8980392156862745" />
<path d="M430,-114 L102,-670 L290,-862 L514,-842 L574,-1190 L158,-1158 Z" stroke-width="0" fill="#d13d3b" fill-opacity="0.1843137254901961" />
<path d="M946,-158 L110,-1242 L530,-490 L602,-470 L470,-190 L582,-570 Z" stroke-width="0" fill="#675a72" fill-opacity="0.5019607843137255" />
<path d="M362,-666 L750,-930 L230,-1166 L594,-110 L414,-690 L638,-94 Z" stroke-width="0" fill="#977791" fill-opacity="0.9490196078431372" />
<path d="M462,-470 L866,-370 L702,-146 L694,-290 L442,-482 L454,-470 Z" stroke-width="0" fill="#164b21" fill-opacity="0.3411764705882353" />
<path d="M894,-1026 L294,-1046 L334,-898 L234,-598 L510,-1194 L482,-858 Z" stroke-width="0" fill="#ca6eb0" fill-opacity="0.42745098039215684" />
<path d="M714,-390 L594,-886 L242,-1218 L682,-950 L290,-470 L158,-378 Z" stroke-width="0" fill="#3f0f2a" fill-opacity="0.12156862745098039" />
<path d="M702,-886 L106,-1094 L526,-930 L470,-166 L750,-538 L222,-942 Z" stroke-width="0" fill="#44000d" fill-opacity="0.8666666666666667" />
<path d="M798,-1122 L82,-634 L562,-94 L186,-1154 L814,-662 L686,-498 Z" stroke-width="0" fill="#c9828c" fill-opacity="0.4392156862745098" />
<path d="M238,-442 L558,-86 L226,-334 L962,-286 L354,-530 L618,-494 Z" stroke-width="0" fill="#070079" fill-opacity="0.34901960784313724" />
<path d="M486,-566 L154,-242 L518,-382 L654,-1074 L714,-514 L818,-970 Z" stroke-width="0" fill="#9be1ee" fill-opacity="0.41568627450980394" />
<path d="M102,-558 L394,-370 L318,-82 L570,-642 L918,-1054 L634,-1218 Z" stroke-width="0" fill="#fbf3b2" fill-opacity="0.19607843137254902" />
<path d="M334,-398 L650,-518 L938,-674 L662,-602 L434,-694 L382,-1026 Z" stroke-width="0" fill="#ae390b" fill-opacity="0.16862745098039217" />
<path d="M558,-730 L126,-1262 L870,-786 L390,-794 L454,-454 L354,-878 Z" stroke-width="0" fill="#ed8cd0" fill-opacity="0.3176470588235294" />
<path d="M654,-1218 L590,-146 L654,-1058 L946,-1190 L330,-1174 L278,-538 Z" stroke-width="0" fill="#95b8be" fill-opacity="0.2980392156862745" />
<path d="M514,-274 L762,-410 L114,-1026 L114,-982 L742,-914 L86,-658 Z" stroke-width="0" fill="#321932" fill-opacity="0.7490196078431373" />
<path d="M510,-934 L86,-1082 L270,-610 L646,-1042 L182,-1206 L390,-378 Z" stroke-width="0" fill="#c8e6f0" fill-opacity="0.14901960784313725" />
<path d="M826,-922 L186,-198 L534,-858 L546,-590 L838,-386 L594,-922 Z" stroke-width="0" fill="#152646" fill-opacity="0.38823529411764707" />
<path d="M386,-202 L334,-534 L958,-1126 L578,-674 L742,-642 L570,-278 Z" stroke-width="0" fill="#cdb3df" fill-opacity="0.34901960784313724" />
<path d="M178,-426 L706,-302 L422,-142 L610,-882 L930,-910 L762,-1242 Z" stroke-width="0" fill="#e3bfc9" fill-opacity="0.615686274509804" />
<path d="M278,-1034 L162,-350 L886,-838 L302,-642 L558,-770 L822,-1242 Z" stroke-width="0" fill="#b474a0" fill-opacity="0.2784313725490196" />
<path d="M730,-286 L90,-1030 L862,-646 L694,-1014 L834,-510 L242,-370 Z" stroke-width="0" fill="#a60403" fill-opacity="0.09019607843137255" />
<path d="M278,-486 L218,-390 L254,-482 L538,-746 L418,-514 L126,-586 Z" stroke-width="0" fill="#430000" fill-opacity="0.36470588235294116" />
<path d="M622,-730 L210,-582 L866,-962 L406,-354 L298,-858 L382,-102 Z" stroke-width="0" fill="#ccd9d2" fill-opacity="0.1803921568627451" />
<path d="M510,-910 L594,-98 L506,-98 L122,-518 L134,-730 L422,-1038 Z" stroke-width="0" fill="#0c0f1d" fill-opacity="0.5098039215686274" />
<path d="M310,-462 L766,-446 L342,-670 L462,-462 L278,-682 L178,-510 Z" stroke-width="0" fill="#0d004b" fill-opacity="0.3137254901960784" />
<path d="M682,-886 L418,-118 L326,-1050 L838,-814 L854,-306 L802,-466 Z" stroke-width="0" fill="#c0a0c1" fill-opacity="0.33725490196078434" />
<path d="M602,-350 L334,-102 L978,-886 L830,-250 L370,-998 L858,-634 Z" stroke-width="0" fill="#e64548" fill-opacity="0.054901960784313725" />
<path d="M334,-226 L670,-294 L230,-558 L454,-1182 L230,-422 L602,-654 Z" stroke-width="0" fill="#544a30" fill-opacity="0.4" />
<path d="M270,-494 L170,-662 L786,-962 L562,-1030 L650,-502 L158,-414 Z" stroke-width="0" fill="#002910" fill-opacity="0.07450980392156863" />
<path d="M674,-202 L98,-378 L482,-854 L430,-1130 L810,-582 L122,-394 Z" stroke-width="0" fill="#091e22" fill-opacity="0.4980392156862745" />
<path d="M82,-178 L214,-170 L898,-990 L474,-1106 L510,-998 L274,-642 Z" stroke-width="0" fill="#cd6b65" fill-opacity="0.16470588235294117" />
<text x="448.0" y="0" font-size="70.0" fill="black" text-anchor="middle" transform="translate(0,17.5)">1 OF EARTH</text>
</svg>