<?xml version="1.0" encoding="UTF-8"?>
<svg xmlns="http://www.w3.org/2000/svg" xmlns:xlink="http://www.w3.org/1999/xlink"
     width="896" height="1496" viewBox="0 -1400 896 1496" style="font-size:70;font-family:Poor Richard, Times New Roman;stroke:black;stroke-width:1;fill:none">
<defs>
</defs>
<path d="M546,-466 L926,-902 L518,-746 L778,-1174 L334,-418 L786,-586 Z" stroke-width="0" fill="#f7dff2" fill-opacity="0.047058823529411764" />
<path d="M658,-578 L462,-274 L698,-90 L710,-138 L954,-1162 L946,-246 Z" stroke-width="0" fill="#9f3800" fill-opacity="0.5019607843137255" />
<path d="M142,-342 L582,-526 L162,-114 L94,-990 L722,-530 L646,-310 Z" stroke-width="0" fill="#000000" fill-opacity="0.9254901960784314" />
<path d="M870,-874 L654,-454 L922,-186 L806,-934 L374,-510 L386,-1262 Z" stroke-width="0" fill="#000000" fill-opacity="0.6313725490196078" />
<path d="M130,-406 L234,-142 L858,-330 L950,-1110 L82,-482 L502,-702 Z" stroke-width="0" fill="#f65a09" fill-opacity="0.34901960784313724" />
<path d="M382,-186 L458,-542 L662,-522 L666,-1178 L114,-158 L518,-822 Z" stroke-width="0" fill="#000000" fill-opacity="0.8784313725490196" />
<path d="M622,-434 L142,-82 L874,-866 L338,-1062 L458,-370 L254,-546 Z" stroke-width="0" fill="#000000" fill-opacity="0.8" />
<path d="M138,-770 L914,-238 L666,-330 L398,-1078 L458,-918 L486,-218 Z" stroke-width="0" fill="#061300" fill-opacity="0.8941176470588236" />
<path d="M250,-190 L874,-1118 L522,-558 L450,-598 L534,-754 L358,-610 Z" stroke-width="0" fill="#d8eeba" fill-opacity="0.0196078431372549" />
<path d="M190,-1250 L306,-858 L426,-298 L946,-642 L850,-550 L938,-174 Z" stroke-width="0" fill="#0f0000" fill-opacity="0.9490196078431372" />
<path d="M554,-878 L358,-134 L418,-214 L694,-834 L406,-590 L166,-554 Z" stroke-width="0" fill="#3a1c56" fill-opacity="0.5686274509803921" />
<path d="M134,-498 L582,-422 L638,-866 L550,-226 L494,-474 L174,-170 Z" stroke-width="0" fill="#000000" fill-opacity="0.9333333333333333" />
<path d="M806,-362 L690,-114 L310,-522 L814,-442 L166,-574 L170,-326 Z" stroke-width="0" fill="#000009" fill-opacity="0.9686274509803922" />
<path d="M598,-774 L970,-594 L298,-594 L462,-142 L338,-474 L86,-974 Z" stroke-width="0" fill="#000000" fill-opacity="0.7568627450980392" />
<path d="M786,-734 L570,-82 L814,-490 L802,-286 L234,-802 L530,-266 Z" stroke-width="0" fill="#000000" fill-opacity="0.7764705882352941" />
<path d="M510,-342 L502,-490 L150,-790 L146,-178 L414,-770 L530,-374 Z" stroke-width="0" fill="#000000" fill-opacity="0.9921568627450981" />
<path d="M902,-346 L938,-874 L738,-766 L498,-106 L354,-842 L814,-954 Z" stroke-width="0" fill="#eedeb5" fill-opacity="0.596078431372549" />
<path d="M862,-162 L626,-878 L326,-614 L802,-358 L806,-358 L410,-838 Z" stroke-width="0" fill="#010128" fill-opacity="0.9019607843137255" />
<path d="M390,-938 L774,-790 L262,-226 L246,-1074 L346,-942 L94,-830 Z" stroke-width="0" fill="#000000" fill-opacity="0.9607843137254902" />
<path d="M254,-542 L882,-798 L298,-534 L966,-734 L590,-978 L938,-562 Z" stroke-width="0" fill="#f7bd7f" fill-opacity="1.0" />
<path d="M138,-402 L426,-362 L162,-622 L438,-538 L254,-1006 L310,-706 Z" stroke-width="0" fill="#c9686b" fill-opacity="0.16862745098039217" />
<path d="M366,-802 L874,-1058 L558,-438 L830,-322 L730,-146 L358,-714 Z" stroke-width="0" fill="#f6feee" fill-opacity="0.15294117647058825" />
<path d="M918,-850 L286,-738 L650,-146 L506,-1086 L958,-454 L130,-166 Z" stroke-width="0" fill="#000000" fill-opacity="0.9215686274509803" />
<path d="M350,-810 L338,-582 L382,-126 L294,-382 L218,-378 L970,-146 Z" stroke-width="0" fill="#000000" fill-opacity="0.8705882352941177" />
<path d="M438,-1014 L178,-354 L326,-126 L698,-758 L726,-318 L178,-626 Z" stroke-width="0" fill="#000000" fill-opacity="0.9058823529411765" />
<path d="M602,-1242 L574,-650 L426,-286 L214,-958 L290,-1206 L974,-214 Z" stroke-width="0" fill="#2a0000" fill-opacity="0.6352941176470588" />
<path d="M890,-270 L678,-282 L334,-346 L150,-278 L174,-1110 L186,-842 Z" stroke-width="0" fill="#000000" fill-opacity="0.8901960784313725" />
<path d="M278,-430 L290,-578 L486,-1130 L878,-834 L234,-1062 L218,-238 Z" stroke-width="0" fill="#204e00" fill-opacity="0.047058823529411764" />
<path d="M538,-1102 L302,-982 L702,-918 L158,-250 L850,-1254 L126,-422 Z" stroke-width="0" fill="#b90000" fill-opacity="0.44313725490196076" />
<path d="M538,-1178 L82,-1258 L898,-286 L410,-442 L282,-934 L370,-750 Z" stroke-width="0" fill="#000000" fill-opacity="0.9098039215686274" />
<path d="M90,-642 L570,-798 L574,-926 L446,-1238 L978,-446 L330,-370 Z" stroke-width="0" fill="#d9194d" fill-opacity="0.7019607843137254" />
<path d="M538,-242 L334,-738 L110,-606 L878,-1234 L374,-430 L218,-1266 Z" stroke-width="0" fill="#ad0000" fill-opacity="0.5607843137254902" />
<path d="M502,-98 L718,-1114 L282,-1134 L250,-750 L618,-234 L870,-114 Z" stroke-width="0" fill="#000000" fill-opacity="0.9176470588235294" />
<path d="M978,-778 L586,-858 L146,-886 L922,-710 L550,-622 L642,-222 Z" stroke-width="0" fill="#e98c84" fill-opacity="0.9803921568627451" />
<path d="M142,-666 L338,-306 L582,-410 L458,-1182 L534,-642 L682,-850 Z" stroke-width="0" fill="#000100" fill-opacity="0.8509803921568627" />
<path d="M558,-178 L538,-422 L822,-1134 L326,-246 L838,-878 L98,-602 Z" stroke-width="0" fill="#000000" fill-opacity="0.9294117647058824" />
<path d="M290,-1014 L90,-754 L322,-1150 L806,-198 L958,-1074 L786,-218 Z" stroke-width="0" fill="#074d02" fill-opacity="0.19607843137254902" />
<path d="M754,-1082 L750,-538 L430,-750 L790,-1038 L554,-418 L438,-114 Z" stroke-width="0" fill="#7ff7da" fill-opacity="0.5294117647058824" />
<path d="M210,-670 L578,-1022 L786,-514 L686,-706 L778,-374 L366,-942 Z" stroke-width="0" fill="#243370" fill-opacity="0.06666666666666667" />
<path d="M410,-542 L742,-306 L282,-1178 L286,-1074 L678,-1254 L574,-566 Z" stroke-width="0" fill="#490000" fill-opacity="0.5019607843137255" />
<path d="M810,-934 L374,-178 L282,-190 L946,-998 L662,-186 L310,-994 Z" stroke-width="0" fill="#d5e982" fill-opacity="0.6235294117647059" />
<path d="M610,-966 L914,-206 L546,-458 L250,-474 L542,-730 L782,-570 Z" stroke-width="0" fill="#00000d" fill-opacity="0.984313725490196" />
<path d="M578,-374 L242,-1158 L438,-714 L278,-798 L826,-486 L538,-994 Z" stroke-width="0" fill="#003433" fill-opacity="0.38823529411764707" />
<path d="M182,-686 L466,-206 L562,-574 L594,-222 L794,-382 L462,-566 Z" stroke-width="0" fill="#f0405f" fill-opacity="0.09803921568627451" />
<path d="M526,-462 L658,-554 L890,-958 L106,-466 L86,-346 L462,-262 Z" stroke-width="0" fill="#000000" fill-opacity="0.8784313725490196" />
<path d="M754,-690 L222,-666 L874,-1082 L470,-1278 L202,-906 L906,-94 Z" stroke-width="0" fill="#000000" fill-opacity="0.9764705882352941" />
<path d="M90,-398 L830,-930 L450,-978 L810,-598 L150,-818 L770,-138 Z" stroke-width="0" fill="#000000" fill-opacity="0.9529411764705882" />
<path d="M366,-290 L358,-510 L930,-602 L922,-366 L534,-106 L198,-190 Z" stroke-width="0" fill="#fc3664" fill-opacity="0.12549019607843137" />
<path d="M298,-362 L702,-678 L198,-942 L474,-182 L190,-666 L510,-906 Z" stroke-width="0" fill="#f7e4e6" fill-opacity="0.7568627450980392" />
<path d="M762,-106 L246,-618 L226,-758 L518,-982 L442,-338 L114,-366 Z" stroke-width="0" fill="#000002" fill-opacity="0.9411764705882353" />
<path d="M510,-758 L766,-442 L450,-262 L638,-794 L302,-674 L222,-662 Z" stroke-width="0" fill="#135bfa" fill-opacity="0.8196078431372549" />
<path d="M738,-506 L430,-934 L542,-822 L218,-150 L906,-606 L810,-930 Z" stroke-width="0" fill="#000806" fill-opacity="0.19607843137254902" />
<path d="M178,-982 L702,-862 L278,-850 L426,-234 L690,-286 L806,-686 Z" stroke-width="0" fill="#080063" fill-opacity="0.6980392156862745" />
<path d="M454,-330 L370,-346 L450,-466 L126,-786 L818,-474 L130,-622 Z" stroke-width="0" fill="#000a0b" fill-opacity="0.5019607843137255" />
<path d="M954,-1150 L814,-434 L838,-646 L574,-282 L182,-210 L562,-766 Z" stroke-width="0" fill="#510600" fill-opacity="0.1843137254901961" />
<path d="M890,-1102 L302,-126 L954,-214 L938,-890 L758,-534 L806,-714 Z" stroke-width="0" fill="#cd4310" fill-opacity="0.37254901960784315" />
<path d="M974,-654 L834,-1050 L550,-1026 L310,-350 L86,-938 L338,-174 Z" stroke-width="0" fill="#fa9380" fill-opacity="0.6823529411764706" />
<path d="M90,-526 L834,-466 L526,-502 L154,-1030 L218,-414 L514,-454 Z" stroke-width="0" fill="#000302" fill-opacity="0.7254901960784313" />
<path d="M430,-358 L734,-282 L890,-498 L674,-446 L422,-1238 L890,-290 Z" stroke-width="0" fill="#020000" fill-opacity="0.30196078431372547" />
<path d="M594,-522 L414,-962 L266,-242 L382,-218 L878,-1090 L546,-1230 Z" stroke-width="0" fill="#fb6f31" fill-opacity="0.32941176470588235" />
<path d="M154,-146 L598,-234 L798,-118 L566,-282 L306,-946 L834,-650 Z" stroke-width="0" fill="#000000" fill-opacity="0.9450980392156862" />
<path d="M594,-1002 L394,-322 L670,-722 L706,-670 L302,-110 L462,-794 Z" stroke-width="0" fill="#2c4361" fill-opacity="0.9450980392156862" />
<path d="M670,-334 L234,-1246 L130,-338 L638,-1022 L486,-922 L594,-294 Z" stroke-width="0" fill="#000000" fill-opacity="0.9215686274509803" />
<path d="M862,-362 L382,-162 L662,-342 L246,-434 L906,-886 L86,-770 Z" stroke-width="0" fill="#0f0106" fill-opacity="0.2235294117647059" />
<path d="M582,-1114 L506,-286 L738,-1078 L894,-434 L566,-434 L922,-586 Z" stroke-width="0" fill="#6d1113" fill-opacity="0.5450980392156862" />
<path d="M470,-238 L690,-1098 L362,-1146 L242,-798 L602,-1202 L830,-838 Z" stroke-width="0" fill="#000a00" fill-opacity="0.5019607843137255" />
<path d="M942,-238 L582,-210 L286,-630 L782,-1178 L90,-662 L586,-710 Z" stroke-width="0" fill="#3b0308" fill-opacity="0.7176470588235294" />
<path d="M846,-438 L318,-182 L562,-338 L86,-450 L426,-370 L378,-330 Z" stroke-width="0" fill="#000000" fill-opacity="0.8705882352941177" />
<path d="M690,-294 L294,-218 L938,-454 L258,-706 L750,-226 L586,-1066 Z" stroke-width="0" fill="#df0680" fill-opacity="0.3137254901960784" />
<path d="M274,-90 L438,-526 L202,-1058 L674,-574 L474,-290 L754,-130 Z" stroke-width="0" fill="#000000" fill-opacity="0.9882352941176471" />
<path d="M954,-514 L382,-266 L458,-614 L934,-258 L734,-1270 L750,-186 Z" stroke-width="0" fill="#ad632a" fill-opacity="0.3254901960784314" />
<path d="M970,-862 L654,-1002 L778,-1194 L194,-534 L618,-526 L478,-794 Z" stroke-width="0" fill="#e5f3a4" fill-opacity="0.6274509803921569" />
<path d="M266,-466 L926,-578 L730,-270 L650,-402 L126,-1134 L614,-910 Z" stroke-width="0" fill="#0f0016" fill-opacity="0.8784313725490196" />
<path d="M846,-1178 L138,-270 L102,-1026 L590,-410 L810,-918 L862,-346 Z" stroke-width="0" fill="#000000" fill-opacity="0.596078431372549" />
<path d="M898,-938 L414,-1130 L582,-558 L534,-818 L370,-478 L310,-238 Z" stroke-width="0" fill="#fffc97" fill-opacity="0.7450980392156863" />
<path d="M742,-610 L546,-642 L82,-546 L962,-450 L398,-98 L650,-658 Z" stroke-width="0" fill="#000000" fill-opacity="0.8549019607843137" />
<path d="M366,-562 L670,-690 L170,-418 L262,-566 L858,-182 L82,-738 Z" stroke-width="0" fill="#000000" fill-opacity="0.9294117647058824" />
<path d="M402,-90 L254,-250 L970,-762 L254,-638 L274,-530 L646,-1014 Z" stroke-width="0" fill="#000000" fill-opacity="0.00784313725490196" />
<path d="M702,-1174 L946,-582 L938,-438 L146,-346 L534,-1166 L818,-142 Z" stroke-width="0" fill="#97d2a9" fill-opacity="0.4196078431372549" />
<path d="M518,-318 L310,-390 L450,-118 L542,-1034 L106,-222 L414,-450 Z" stroke-width="0" fill="#000000" fill-opacity="0.9098039215686274" />
<path d="M734,-1046 L798,-118 L126,-190 L482,-406 L498,-674 L914,-770 Z" stroke-width="0" fill="#000000" fill-opacity="0.20784313725490197" />
<path d="M354,-598 L682,-1074 L122,-838 L506,-1078 L578,-1082 L302,-662 Z" stroke-width="0" fill="#000000" fill-opacity="0.7254901960784313" />
<path d="M310,-734 L314,-454 L782,-538 L318,-1010 L242,-842 L774,-834 Z" stroke-width="0" fill="#000002" fill-opacity="0.9803921568627451" />
<path d="M794,-226 L502,-162 L934,-686 L298,-830 L114,-506 L518,-754 Z" stroke-width="0" fill="#030000" fill-opacity="0.30980392156862746" />
<path d="M362,-1226 L366,-538 L694,-1194 L950,-234 L746,-566 L190,-494 Z" stroke-width="0" fill="#bc2452" fill-opacity="0.4117647058823529" />
<path d="M870,-374 L602,-650 L318,-306 L170,-518 L202,-650 L402,-226 Z" stroke-width="0" fill="#000000" fill-opacity="0.8980392156862745" />
<path d="M950,-430 L334,-322 L618,-818 L442,-398 L830,-646 L714,-594 Z" stroke-width="0" fill="#c94170" fill-opacity="0.8509803921568627" />
<path d="M210,-1270 L146,-1078 L690,-522 L834,-458 L826,-714 L142,-1010 Z" stroke-width="0" fill="#67150c" fill-opacity="0.3215686274509804" />
<path d="M730,-678 L122,-322 L814,-126 L590,-506 L226,-818 L702,-958 Z" stroke-width="0" fill="#000000" fill-opacity="0.8745098039215686" />
<path d="M242,-202 L438,-822 L466,-866 L150,-434 L810,-906 L914,-426 Z" stroke-width="0" fill="#a29e00" fill-opacity="0.35294117647058826" />
<path d="M402,-978 L798,-898 L546,-202 L586,-966 L954,-598 L610,-318 Z" stroke-width="0" fill="#d859bc" fill-opacity="0.16862745098039217" />
<path d="M254,-838 L102,-442 L690,-686 L378,-162 L970,-1246 L410,-622 Z" stroke-width="0" fill="#000000" fill-opacity="0.6352941176470588" />
<path d="M290,-1098 L470,-1206 L294,-746 L546,-518 L506,-1226 L410,-266 Z" stroke-width="0" fill="#000000" fill-opacity="0.8980392156862745" />
<path d="M730,-358 L142,-1102 L262,-166 L82,-542 L554,-98 L798,-382 Z" stroke-width="0" fill="#000000" fill-opacity="0.8549019607843137" />
<path d="M338,-1106 L170,-162 L306,-1142 L438,-278 L702,-422 L382,-606 Z" stroke-width="0" fill="#000200" fill-opacity="0.7607843137254902" />
<path d="M890,-1218 L874,-1146 L386,-146 L186,-1050 L802,-1226 L830,-962 Z" stroke-width="0" fill="#000000" fill-opacity="0.6" />
<path d="M350,-1086 L398,-818 L442,-230 L450,-250 L234,-274 L746,-90 Z" stroke-width="0" fill="#000000" fill-opacity="0.9921568627450981" />
<path d="M394,-850 L818,-906 L462,-858 L822,-690 L550,-198 L738,-1210 Z" stroke-width="0" fill="#090000" fill-opacity="0.1607843137254902" />
<path d="M122,-1234 L434,-442 L654,-858 L910,-678 L574,-1230 L854,-862 Z" stroke-width="0" fill="#000000" fill-opacity="0.43137254901960786" />
<path d="M850,-174 L410,-354 L662,-250 L366,-166 L194,-226 L786,-310 Z" stroke-width="0" fill="#000000" fill-opacity="0.9882352941176471" />
<text x="448.0" y="0" font-size="70.0" fill="black" text-anchor="middle" transform="translate(0,17.5)">8 OF FIRE</text>
</svg>