<?xml version="1.0" encoding="UTF-8"?>
<svg xmlns="http://www.w3.org/2000/svg" xmlns:xlink="http://www.w3.org/1999/xlink"
     width="896" height="1496" viewBox="0 -1400 896 1496" style="font-size:70;font-family:Poor Richard, Times New Roman;stroke:black;stroke-width:1;fill:none">
<defs>
</defs>
<path d="M354,-1138 L358,-430 L134,-706 L226,-182 L438,-1206 L418,-890 Z" stroke-width="0" fill="#2af688" fill-opacity="0.20784313725490197" />
<path d="M210,-694 L190,-470 L162,-194 L794,-846 L726,-462 L642,-278 Z" stroke-width="0" fill="#e9ae20" fill-opacity="0.5019607843137255" />
<path d="M194,-658 L366,-194 L434,-370 L290,-474 L582,-154 L246,-1118 Z" stroke-width="0" fill="#24e5d9" fill-opacity="0.8235294117647058" />
<path d="M630,-394 L506,-1150 L774,-330 L718,-406 L402,-538 L350,-438 Z" stroke-width="0" fill="#402f03" fill-opacity="0.9058823529411765" />
<path d="M758,-522 L214,-314 L354,-310 L662,-1086 L742,-478 L502,-894 Z" stroke-width="0" fill="#310d8f" fill-opacity="0.2" />
<path d="M114,-1050 L342,-774 L558,-454 L254,-590 L542,-390 L790,-1226 Z" stroke-width="0" fill="#84445f" fill-opacity="0.9725490196078431" />
<path d="M90,-794 L734,-138 L194,-554 L450,-682 L690,-334 L226,-1186 Z" stroke-width="0" fill="#d1d300" fill-opacity="0.0392156862745098" />
<path d="M230,-742 L754,-726 L562,-790 L126,-1054 L286,-718 L82,-1306 Z" stroke-width="0" fill="#3b321d" fill-opacity="0.8" />
<path d="M330,-1062 L542,-986 L658,-1222 L486,-658 L250,-350 L146,-666 Z" stroke-width="0" fill="#7d2e0c" fill-opacity="0.611764705882353" />
<path d="M378,-846 L786,-530 L186,-590 L514,-334 L442,-242 L690,-258 Z" stroke-width="0" fill="#8b4514" fill-opacity="0.7450980392156863" />
<path d="M146,-194 L638,-446 L214,-290 L302,-298 L270,-266 L170,-322 Z" stroke-width="0" fill="#05d509" fill-opacity="0.984313725490196" />
<path d="M670,-594 L738,-982 L302,-1086 L274,-242 L402,-178 L794,-510 Z" stroke-width="0" fill="#d87f56" fill-opacity="0.7019607843137254" />
<path d="M726,-142 L530,-150 L202,-846 L306,-1154 L110,-1290 L622,-826 Z" stroke-width="0" fill="#007917" fill-opacity="0.5529411764705883" />
<path d="M166,-662 L274,-1222 L406,-942 L338,-674 L510,-938 L390,-206 Z" stroke-width="0" fill="#8cefdd" fill-opacity="0.24705882352941178" />
<path d="M570,-750 L710,-1146 L378,-166 L238,-162 L178,-770 L162,-510 Z" stroke-width="0" fill="#396211" fill-opacity="0.13333333333333333" />
<path d="M294,-278 L258,-170 L254,-494 L126,-410 L86,-1278 L114,-1126 Z" stroke-width="0" fill="#000000" fill-opacity="0.5568627450980392" />
<path d="M318,-238 L122,-670 L546,-1038 L702,-862 L346,-718 L750,-726 Z" stroke-width="0" fill="#975ff8" fill-opacity="0.01568627450980392" />
<path d="M558,-618 L302,-1286 L122,-1166 L374,-614 L102,-158 L130,-290 Z" stroke-width="0" fill="#37270f" fill-opacity="0.7019607843137254" />
<path d="M390,-610 L162,-906 L286,-666 L586,-738 L170,-770 L94,-922 Z" stroke-width="0" fill="#8d4f29" fill-opacity="0.6196078431372549" />
<path d="M418,-270 L162,-750 L754,-526 L426,-190 L690,-606 L166,-210 Z" stroke-width="0" fill="#83572d" fill-opacity="0.5686274509803921" />
<path d="M302,-1002 L98,-1114 L330,-1166 L106,-978 L726,-362 L210,-1018 Z" stroke-width="0" fill="#8d3a3e" fill-opacity="0.06274509803921569" />
<path d="M782,-162 L126,-1266 L170,-138 L326,-750 L634,-1254 L578,-154 Z" stroke-width="0" fill="#6a1e00" fill-opacity="0.6352941176470588" />
<path d="M698,-778 L194,-766 L466,-634 L370,-402 L546,-174 L718,-1178 Z" stroke-width="0" fill="#8f37ff" fill-opacity="0.1843137254901961" />
<path d="M694,-1046 L646,-458 L106,-614 L106,-314 L706,-1158 L138,-1126 Z" stroke-width="0" fill="#b19185" fill-opacity="0.42745098039215684" />
<path d="M82,-1050 L102,-542 L250,-430 L118,-950 L358,-1038 L322,-350 Z" stroke-width="0" fill="#612300" fill-opacity="0.5607843137254902" />
<path d="M662,-114 L150,-870 L274,-750 L82,-1006 L234,-342 L454,-386 Z" stroke-width="0" fill="#6f7351" fill-opacity="0.6078431372549019" />
<path d="M494,-1222 L534,-154 L534,-782 L190,-718 L302,-210 L138,-922 Z" stroke-width="0" fill="#02e8d7" fill-opacity="0.027450980392156862" />
<path d="M250,-470 L154,-766 L466,-790 L738,-1242 L794,-1034 L546,-286 Z" stroke-width="0" fill="#be3a3b" fill-opacity="0.3058823529411765" />
<path d="M806,-926 L790,-730 L574,-914 L530,-1282 L138,-1270 L482,-1314 Z" stroke-width="0" fill="#d37c00" fill-opacity="0.44313725490196076" />
<path d="M370,-378 L82,-530 L174,-374 L406,-382 L414,-1134 L470,-82 Z" stroke-width="0" fill="#360b00" fill-opacity="0.6745098039215687" />
<path d="M590,-414 L242,-390 L458,-1198 L550,-790 L90,-134 L442,-386 Z" stroke-width="0" fill="#901901" fill-opacity="0.6352941176470588" />
<path d="M290,-834 L334,-470 L370,-502 L570,-766 L798,-1198 L642,-614 Z" stroke-width="0" fill="#d7bb71" fill-opacity="0.9294117647058824" />
<path d="M214,-1254 L326,-1050 L190,-94 L174,-238 L426,-758 L122,-830 Z" stroke-width="0" fill="#595543" fill-opacity="0.9529411764705882" />
<path d="M94,-874 L678,-590 L342,-1250 L162,-310 L722,-838 L766,-710 Z" stroke-width="0" fill="#fad863" fill-opacity="0.7725490196078432" />
<path d="M458,-826 L82,-1222 L518,-654 L678,-1218 L290,-962 L446,-626 Z" stroke-width="0" fill="#55440f" fill-opacity="0.4" />
<path d="M366,-690 L346,-142 L106,-182 L394,-1042 L154,-626 L402,-1026 Z" stroke-width="0" fill="#160004" fill-opacity="0.5019607843137255" />
<path d="M798,-1190 L398,-170 L250,-582 L526,-994 L354,-710 L222,-518 Z" stroke-width="0" fill="#b2915c" fill-opacity="0.26666666666666666" />
<path d="M110,-1118 L290,-778 L114,-1170 L158,-730 L266,-102 L430,-838 Z" stroke-width="0" fill="#67403b" fill-opacity="0.8627450980392157" />
<path d="M406,-686 L590,-506 L406,-110 L554,-454 L338,-842 L638,-634 Z" stroke-width="0" fill="#050404" fill-opacity="0.9450980392156862" />
<path d="M170,-1226 L342,-518 L514,-346 L658,-190 L582,-334 L186,-1234 Z" stroke-width="0" fill="#6f1310" fill-opacity="0.5333333333333333" />
<path d="M410,-206 L346,-166 L446,-1190 L194,-558 L426,-282 L290,-1082 Z" stroke-width="0" fill="#d6ddda" fill-opacity="0.9019607843137255" />
<path d="M282,-270 L362,-486 L414,-534 L534,-842 L86,-382 L670,-1102 Z" stroke-width="0" fill="#9aa632" fill-opacity="0.7686274509803922" />
<path d="M254,-1034 L418,-842 L414,-1162 L570,-850 L294,-1302 L358,-110 Z" stroke-width="0" fill="#c0c2a9" fill-opacity="0.8196078431372549" />
<path d="M98,-918 L682,-458 L126,-230 L810,-654 L326,-946 L542,-1166 Z" stroke-width="0" fill="#fdd48f" fill-opacity="0.807843137254902" />
<path d="M510,-302 L762,-82 L406,-486 L706,-338 L98,-914 L214,-562 Z" stroke-width="0" fill="#1dfb92" fill-opacity="0.5294117647058824" />
<path d="M190,-890 L186,-594 L390,-718 L294,-174 L254,-94 L638,-342 Z" stroke-width="0" fill="#302800" fill-opacity="0.7019607843137254" />
<path d="M566,-1006 L390,-222 L590,-906 L570,-1262 L250,-1306 L486,-842 Z" stroke-width="0" fill="#130000" fill-opacity="0.5019607843137255" />
<path d="M410,-278 L662,-538 L734,-690 L338,-102 L450,-98 L130,-386 Z" stroke-width="0" fill="#884843" fill-opacity="0.8509803921568627" />
<path d="M218,-270 L430,-842 L86,-318 L98,-150 L270,-1242 L238,-978 Z" stroke-width="0" fill="#412700" fill-opacity="0.8" />
<path d="M622,-1166 L482,-242 L190,-734 L498,-1210 L562,-310 L242,-490 Z" stroke-width="0" fill="#69bf1e" fill-opacity="0.058823529411764705" />
<path d="M810,-386 L594,-434 L522,-234 L90,-1010 L438,-1114 L394,-134 Z" stroke-width="0" fill="#554728" fill-opacity="0.9490196078431372" />
<path d="M786,-210 L182,-238 L422,-910 L714,-786 L442,-518 L438,-854 Z" stroke-width="0" fill="#f03b39" fill-opacity="0.5254901960784314" />
<path d="M326,-1246 L558,-1238 L310,-130 L282,-590 L322,-1174 L278,-94 Z" stroke-width="0" fill="#8b5143" fill-opacity="0.7764705882352941" />
<path d="M202,-806 L246,-722 L150,-654 L402,-158 L534,-554 L86,-310 Z" stroke-width="0" fill="#7b5e2c" fill-opacity="0.7843137254901961" />
<path d="M442,-146 L650,-1166 L358,-1078 L350,-658 L674,-942 L762,-898 Z" stroke-width="0" fill="#ffdfa0" fill-opacity="0.5019607843137255" />
<path d="M734,-306 L106,-322 L742,-1134 L194,-110 L498,-966 L790,-350 Z" stroke-width="0" fill="#a48146" fill-opacity="0.9921568627450981" />
<path d="M334,-1110 L254,-670 L450,-326 L338,-1082 L618,-1054 L470,-130 Z" stroke-width="0" fill="#2e2bc6" fill-opacity="0.09803921568627451" />
<path d="M474,-250 L590,-1074 L350,-594 L570,-282 L342,-358 L550,-194 Z" stroke-width="0" fill="#0b3007" fill-opacity="1.0" />
<path d="M330,-354 L518,-414 L294,-882 L114,-1258 L154,-142 L610,-1302 Z" stroke-width="0" fill="#689c54" fill-opacity="0.9764705882352941" />
<path d="M438,-726 L154,-94 L110,-154 L702,-914 L582,-634 L114,-246 Z" stroke-width="0" fill="#7a5848" fill-opacity="0.8627450980392157" />
<path d="M514,-1030 L214,-518 L390,-706 L770,-230 L238,-134 L506,-98 Z" stroke-width="0" fill="#489d64" fill-opacity="0.5372549019607843" />
<path d="M122,-758 L110,-242 L262,-682 L98,-318 L558,-1150 L270,-518 Z" stroke-width="0" fill="#87774b" fill-opacity="0.8941176470588236" />
<path d="M506,-1106 L758,-254 L302,-142 L662,-286 L118,-130 L286,-1186 Z" stroke-width="0" fill="#794e26" fill-opacity="0.5333333333333333" />
<path d="M550,-622 L130,-1262 L674,-686 L806,-550 L178,-1170 L258,-962 Z" stroke-width="0" fill="#6a8980" fill-opacity="0.4392156862745098" />
<path d="M646,-590 L614,-374 L278,-278 L150,-122 L590,-334 L506,-1102 Z" stroke-width="0" fill="#b06a46" fill-opacity="0.5019607843137255" />
<path d="M162,-942 L210,-1066 L170,-606 L542,-266 L754,-438 L766,-654 Z" stroke-width="0" fill="#e9b77c" fill-opacity="0.44313725490196076" />
<path d="M466,-706 L314,-1102 L326,-1082 L382,-738 L358,-410 L582,-262 Z" stroke-width="0" fill="#0f8c52" fill-opacity="0.9294117647058824" />
<path d="M110,-1062 L98,-442 L98,-398 L354,-958 L666,-138 L682,-142 Z" stroke-width="0" fill="#a5874d" fill-opacity="0.8588235294117647" />
<path d="M462,-618 L306,-366 L162,-1098 L498,-322 L646,-170 L190,-842 Z" stroke-width="0" fill="#f2dc50" fill-opacity="0.6588235294117647" />
<path d="M278,-422 L782,-1094 L102,-386 L142,-962 L438,-146 L710,-110 Z" stroke-width="0" fill="#700a0b" fill-opacity="0.10196078431372549" />
<path d="M498,-414 L594,-1174 L282,-510 L602,-1014 L206,-774 L266,-722 Z" stroke-width="0" fill="#0ddcfb" fill-opacity="0.011764705882352941" />
<path d="M490,-630 L598,-834 L330,-606 L678,-614 L326,-706 L634,-526 Z" stroke-width="0" fill="#86372d" fill-opacity="0.592156862745098" />
<path d="M726,-734 L434,-642 L542,-190 L370,-558 L202,-1314 L554,-790 Z" stroke-width="0" fill="#6f5857" fill-opacity="0.9568627450980393" />
<path d="M118,-298 L214,-262 L458,-1090 L454,-310 L306,-1106 L706,-246 Z" stroke-width="0" fill="#febaef" fill-opacity="0.09803921568627451" />
<path d="M306,-534 L450,-958 L178,-814 L118,-1138 L562,-738 L594,-1074 Z" stroke-width="0" fill="#c1217e" fill-opacity="0.20784313725490197" />
<path d="M282,-102 L542,-1230 L102,-630 L730,-286 L318,-646 L614,-118 Z" stroke-width="0" fill="#b0b159" fill-opacity="0.5019607843137255" />
<path d="M286,-134 L278,-658 L610,-126 L678,-90 L322,-626 L470,-198 Z" stroke-width="0" fill="#a0b8b1" fill-opacity="0.5529411764705883" />
<path d="M146,-206 L518,-566 L446,-590 L418,-938 L406,-338 L298,-1118 Z" stroke-width="0" fill="#f9efe2" fill-opacity="0.06274509803921569" />
<path d="M474,-814 L82,-470 L702,-406 L310,-322 L370,-570 L334,-730 Z" stroke-width="0" fill="#806f57" fill-opacity="0.807843137254902" />
<path d="M502,-1058 L166,-938 L714,-238 L766,-94 L206,-130 L418,-334 Z" stroke-width="0" fill="#a14023" fill-opacity="0.7058823529411765" />
<path d="M478,-422 L494,-1186 L574,-606 L258,-242 L670,-190 L266,-606 Z" stroke-width="0" fill="#160739" fill-opacity="0.49019607843137253" />
<path d="M382,-530 L198,-966 L94,-594 L658,-270 L114,-1050 L262,-630 Z" stroke-width="0" fill="#f9837c" fill-opacity="0.24705882352941178" />
<path d="M186,-182 L102,-294 L790,-450 L250,-134 L286,-190 L782,-458 Z" stroke-width="0" fill="#02002a" fill-opacity="0.1450980392156863" />
<path d="M206,-102 L642,-326 L106,-682 L298,-426 L106,-394 L614,-898 Z" stroke-width="0" fill="#956a3a" fill-opacity="0.8588235294117647" />
<path d="M514,-534 L742,-1054 L190,-246 L158,-298 L330,-482 L446,-1046 Z" stroke-width="0" fill="#c16577" fill-opacity="0.03529411764705882" />
<path d="M706,-1150 L222,-1134 L202,-298 L762,-1042 L770,-1274 L94,-814 Z" stroke-width="0" fill="#f7b78c" fill-opacity="0.48627450980392156" />
<path d="M542,-834 L402,-118 L82,-846 L686,-378 L558,-830 L362,-1310 Z" stroke-width="0" fill="#b98d39" fill-opacity="0.10196078431372549" />
<path d="M614,-166 L154,-286 L174,-274 L626,-1198 L154,-578 L594,-1162 Z" stroke-width="0" fill="#561d00" fill-opacity="0.4980392156862745" />
<path d="M398,-1066 L494,-658 L490,-534 L578,-938 L110,-310 L194,-1262 Z" stroke-width="0" fill="#72e9ff" fill-opacity="0.06666666666666667" />
<path d="M262,-354 L558,-566 L434,-742 L298,-562 L762,-954 L114,-854 Z" stroke-width="0" fill="#edf233" fill-opacity="0.1411764705882353" />
<path d="M306,-306 L206,-814 L638,-246 L434,-966 L502,-710 L362,-530 Z" stroke-width="0" fill="#079627" fill-opacity="0.3058823529411765" />
<path d="M454,-1202 L150,-554 L242,-810 L202,-374 L438,-414 L682,-1182 Z" stroke-width="0" fill="#a14383" fill-opacity="0.16862745098039217" />
<path d="M294,-166 L678,-642 L370,-506 L722,-250 L554,-210 L86,-206 Z" stroke-width="0" fill="#b29a46" fill-opacity="0.4823529411764706" />
<path d="M482,-1002 L782,-722 L666,-686 L366,-150 L782,-1098 L234,-1030 Z" stroke-width="0" fill="#cacd95" fill-opacity="0.25098039215686274" />
<path d="M558,-1046 L462,-822 L282,-674 L90,-950 L126,-410 L210,-838 Z" stroke-width="0" fill="#f3ce9f" fill-opacity="0.22745098039215686" />
<path d="M242,-446 L102,-326 L218,-746 L638,-210 L566,-1174 L134,-1134 Z" stroke-width="0" fill="#6e5310" fill-opacity="0.44313725490196076" />
<path d="M222,-290 L310,-1170 L334,-1182 L414,-1266 L194,-494 L298,-1106 Z" stroke-width="0" fill="#90a39a" fill-opacity="0.25882352941176473" />
<path d="M350,-614 L282,-470 L626,-290 L482,-638 L698,-1166 L106,-662 Z" stroke-width="0" fill="#d395aa" fill-opacity="0.0392156862745098" />
<path d="M322,-402 L670,-482 L430,-362 L346,-1226 L522,-238 L198,-162 Z" stroke-width="0" fill="#8c515f" fill-opacity="0.5019607843137255" />
<path d="M122,-1022 L202,-686 L174,-714 L202,-430 L174,-1178 L370,-518 Z" stroke-width="0" fill="#c28d9a" fill-opacity="0.40784313725490196" />
<text x="448.0" y="0" font-size="70.0" fill="black" text-anchor="middle" transform="translate(0,17.5)">1 OF FIRE</text>
</svg>