<?xml version="1.0" encoding="UTF-8"?>
<svg xmlns="http://www.w3.org/2000/svg" xmlns:xlink="http://www.w3.org/1999/xlink"
     width="896" height="1496" viewBox="0 -1400 896 1496" style="font-size:70;font-family:Poor Richard, Times New Roman;stroke:black;stroke-width:1;fill:none">
<defs>
</defs>
<path d="M398,-202 L286,-426 L782,-686 L98,-1102 L290,-346 L158,-142 Z" stroke-width="0" fill="#eae594" fill-opacity="0.12549019607843137" />
<path d="M430,-862 L514,-1090 L794,-274 L334,-770 L110,-226 L390,-1170 Z" stroke-width="0" fill="#3d0913" fill-opacity="0.2980392156862745" />
<path d="M310,-170 L406,-666 L606,-810 L430,-390 L82,-786 L390,-462 Z" stroke-width="0" fill="#07b009" fill-opacity="0.023529411764705882" />
<path d="M342,-790 L162,-922 L550,-410 L438,-754 L742,-750 L378,-542 Z" stroke-width="0" fill="#a09181" fill-opacity="0.0196078431372549" />
<path d="M194,-842 L158,-1174 L90,-798 L458,-1122 L374,-978 L206,-554 Z" stroke-width="0" fill="#307719" fill-opacity="0.13725490196078433" />
<path d="M166,-862 L770,-498 L94,-222 L258,-310 L674,-482 L226,-554 Z" stroke-width="0" fill="#97e9f6" fill-opacity="0.5647058823529412" />
<path d="M690,-634 L470,-518 L266,-934 L510,-142 L142,-770 L694,-794 Z" stroke-width="0" fill="#f5d580" fill-opacity="0.19607843137254902" />
<path d="M706,-270 L286,-1190 L574,-814 L698,-254 L518,-846 L778,-774 Z" stroke-width="0" fill="#2bcc98" fill-opacity="0.0" />
<path d="M202,-738 L422,-94 L458,-102 L206,-902 L550,-130 L266,-1074 Z" stroke-width="0" fill="#967998" fill-opacity="0.49411764705882355" />
<path d="M178,-970 L570,-110 L470,-822 L558,-934 L270,-862 L366,-218 Z" stroke-width="0" fill="#89a097" fill-opacity="0.5019607843137255" />
<path d="M266,-734 L418,-286 L750,-82 L482,-1062 L258,-1138 L786,-658 Z" stroke-width="0" fill="#1f0129" fill-opacity="0.1568627450980392" />
<path d="M150,-82 L514,-1034 L262,-170 L278,-602 L718,-642 L354,-634 Z" stroke-width="0" fill="#8298a8" fill-opacity="0.5019607843137255" />
<path d="M494,-678 L198,-642 L642,-806 L134,-958 L658,-890 L482,-1298 Z" stroke-width="0" fill="#1ce0c3" fill-opacity="0.23529411764705882" />
<path d="M370,-198 L186,-1306 L346,-170 L146,-202 L282,-130 L338,-1162 Z" stroke-width="0" fill="#f8ffdc" fill-opacity="0.19215686274509805" />
<path d="M626,-1306 L406,-218 L170,-1286 L246,-1026 L254,-98 L454,-1286 Z" stroke-width="0" fill="#3c4b56" fill-opacity="0.45098039215686275" />
<path d="M606,-606 L754,-526 L110,-554 L386,-878 L234,-766 L622,-242 Z" stroke-width="0" fill="#0bede9" fill-opacity="0.5058823529411764" />
<path d="M474,-622 L358,-750 L710,-882 L158,-1214 L706,-902 L346,-1262 Z" stroke-width="0" fill="#050015" fill-opacity="0.8431372549019608" />
<path d="M186,-1234 L398,-770 L266,-90 L422,-638 L574,-566 L174,-590 Z" stroke-width="0" fill="#c9bfc5" fill-opacity="0.5019607843137255" />
<path d="M146,-1134 L574,-702 L90,-854 L98,-322 L410,-662 L474,-558 Z" stroke-width="0" fill="#52936d" fill-opacity="0.2784313725490196" />
<path d="M646,-406 L686,-258 L458,-186 L754,-938 L510,-538 L266,-854 Z" stroke-width="0" fill="#db21f7" fill-opacity="0.48627450980392156" />
<path d="M382,-1250 L338,-638 L158,-298 L206,-770 L182,-958 L426,-402 Z" stroke-width="0" fill="#f1e3dc" fill-opacity="0.7764705882352941" />
<path d="M650,-1266 L338,-906 L626,-362 L134,-258 L90,-758 L574,-306 Z" stroke-width="0" fill="#3d674b" fill-opacity="0.4588235294117647" />
<path d="M670,-174 L282,-1070 L290,-1218 L506,-1254 L378,-606 L370,-1098 Z" stroke-width="0" fill="#000010" fill-opacity="0.7137254901960784" />
<path d="M214,-646 L526,-1170 L106,-1026 L298,-162 L614,-350 L242,-1114 Z" stroke-width="0" fill="#feefc0" fill-opacity="0.11764705882352941" />
<path d="M490,-254 L558,-1102 L462,-166 L666,-294 L670,-190 L186,-430 Z" stroke-width="0" fill="#9df0d7" fill-opacity="0.2980392156862745" />
<path d="M790,-418 L438,-322 L230,-1138 L114,-106 L118,-1158 L94,-190 Z" stroke-width="0" fill="#6fcada" fill-opacity="0.07058823529411765" />
<path d="M490,-462 L698,-470 L714,-1230 L322,-374 L634,-382 L346,-386 Z" stroke-width="0" fill="#82aec0" fill-opacity="0.6627450980392157" />
<path d="M430,-722 L134,-386 L102,-1302 L278,-1262 L418,-806 L346,-886 Z" stroke-width="0" fill="#475c6b" fill-opacity="0.4666666666666667" />
<path d="M242,-354 L186,-778 L810,-194 L190,-522 L654,-394 L326,-210 Z" stroke-width="0" fill="#c2e593" fill-opacity="0.08235294117647059" />
<path d="M586,-1062 L294,-606 L82,-1050 L334,-1278 L478,-638 L774,-570 Z" stroke-width="0" fill="#8a949d" fill-opacity="0.5372549019607843" />
<path d="M630,-174 L246,-402 L666,-898 L106,-158 L802,-966 L142,-526 Z" stroke-width="0" fill="#6fc456" fill-opacity="0.23529411764705882" />
<path d="M790,-1118 L674,-286 L454,-202 L178,-574 L266,-254 L182,-434 Z" stroke-width="0" fill="#006ec7" fill-opacity="0.6392156862745098" />
<path d="M810,-158 L222,-670 L574,-1282 L274,-142 L406,-1214 L718,-642 Z" stroke-width="0" fill="#030e34" fill-opacity="0.1450980392156863" />
<path d="M718,-994 L266,-278 L450,-230 L258,-194 L338,-734 L794,-1250 Z" stroke-width="0" fill="#21759b" fill-opacity="0.38823529411764707" />
<path d="M618,-306 L710,-346 L310,-702 L626,-474 L202,-850 L238,-242 Z" stroke-width="0" fill="#e7defd" fill-opacity="0.7764705882352941" />
<path d="M354,-230 L702,-918 L606,-698 L338,-150 L694,-210 L718,-862 Z" stroke-width="0" fill="#06eeb7" fill-opacity="0.011764705882352941" />
<path d="M630,-550 L490,-1126 L550,-1050 L94,-934 L198,-218 L246,-726 Z" stroke-width="0" fill="#7bc076" fill-opacity="0.4235294117647059" />
<path d="M310,-778 L286,-562 L494,-754 L270,-562 L246,-150 L614,-526 Z" stroke-width="0" fill="#f4d3f8" fill-opacity="0.8274509803921568" />
<path d="M478,-590 L530,-474 L514,-426 L478,-498 L790,-1262 L490,-966 Z" stroke-width="0" fill="#5b6382" fill-opacity="0.3411764705882353" />
<path d="M394,-826 L442,-522 L142,-574 L458,-1286 L282,-1202 L422,-1150 Z" stroke-width="0" fill="#0a0f10" fill-opacity="0.8588235294117647" />
<path d="M734,-242 L634,-222 L810,-1094 L418,-246 L166,-1086 L158,-438 Z" stroke-width="0" fill="#3891b4" fill-opacity="0.6274509803921569" />
<path d="M330,-326 L294,-1174 L234,-542 L162,-1082 L126,-678 L198,-202 Z" stroke-width="0" fill="#d1fbe6" fill-opacity="0.7294117647058823" />
<path d="M202,-178 L190,-270 L346,-210 L214,-418 L338,-666 L202,-630 Z" stroke-width="0" fill="#eafbeb" fill-opacity="0.5137254901960784" />
<path d="M518,-226 L130,-1262 L590,-694 L222,-434 L198,-854 L194,-934 Z" stroke-width="0" fill="#0c703a" fill-opacity="0.4549019607843137" />
<path d="M782,-1206 L622,-214 L542,-458 L478,-498 L350,-158 L262,-534 Z" stroke-width="0" fill="#0579a5" fill-opacity="0.6980392156862745" />
<path d="M386,-1090 L190,-330 L722,-414 L722,-1042 L326,-670 L286,-962 Z" stroke-width="0" fill="#f9f0e8" fill-opacity="0.7254901960784313" />
<path d="M742,-822 L474,-770 L534,-1134 L542,-550 L502,-598 L766,-90 Z" stroke-width="0" fill="#e0e1fd" fill-opacity="0.9568627450980393" />
<path d="M454,-1178 L186,-534 L82,-458 L130,-934 L386,-138 L562,-438 Z" stroke-width="0" fill="#e3f6ba" fill-opacity="0.25098039215686274" />
<path d="M222,-1078 L538,-706 L470,-238 L554,-958 L170,-310 L682,-434 Z" stroke-width="0" fill="#cafafc" fill-opacity="0.9372549019607843" />
<path d="M554,-166 L390,-1058 L206,-318 L286,-478 L154,-962 L598,-966 Z" stroke-width="0" fill="#d8a4d7" fill-opacity="0.7607843137254902" />
<path d="M222,-634 L778,-1006 L666,-1302 L522,-522 L722,-562 L366,-1038 Z" stroke-width="0" fill="#416495" fill-opacity="0.38823529411764707" />
<path d="M426,-1294 L638,-1190 L718,-958 L794,-222 L806,-418 L694,-1114 Z" stroke-width="0" fill="#8c95b3" fill-opacity="0.26666666666666666" />
<path d="M378,-98 L730,-730 L394,-1138 L146,-506 L222,-1126 L510,-738 Z" stroke-width="0" fill="#0d400f" fill-opacity="0.1843137254901961" />
<path d="M214,-150 L98,-714 L98,-98 L474,-634 L190,-462 L798,-866 Z" stroke-width="0" fill="#977ec2" fill-opacity="0.3254901960784314" />
<path d="M166,-642 L422,-1194 L290,-502 L462,-1014 L670,-202 L198,-430 Z" stroke-width="0" fill="#1b1d50" fill-opacity="0.043137254901960784" />
<path d="M330,-482 L202,-362 L490,-206 L338,-1066 L794,-1086 L270,-622 Z" stroke-width="0" fill="#4a7759" fill-opacity="0.5019607843137255" />
<path d="M182,-1038 L342,-678 L238,-426 L714,-322 L462,-486 L158,-374 Z" stroke-width="0" fill="#fadee6" fill-opacity="0.9686274509803922" />
<path d="M558,-978 L222,-1146 L314,-110 L590,-1074 L526,-690 L538,-746 Z" stroke-width="0" fill="#e9d798" fill-opacity="0.050980392156862744" />
<path d="M314,-482 L254,-810 L718,-1070 L386,-362 L682,-826 L586,-158 Z" stroke-width="0" fill="#57130f" fill-opacity="0.3058823529411765" />
<path d="M154,-698 L534,-606 L682,-306 L206,-930 L342,-554 L754,-1122 Z" stroke-width="0" fill="#3b587e" fill-opacity="0.5019607843137255" />
<path d="M682,-1166 L430,-450 L94,-242 L174,-402 L214,-618 L798,-462 Z" stroke-width="0" fill="#f8ecca" fill-opacity="0.5294117647058824" />
<path d="M410,-798 L670,-418 L434,-478 L90,-1162 L538,-742 L318,-782 Z" stroke-width="0" fill="#cb4d68" fill-opacity="0.13333333333333333" />
<path d="M178,-302 L94,-1118 L346,-1258 L454,-490 L94,-690 L606,-650 Z" stroke-width="0" fill="#9ffca0" fill-opacity="0.18823529411764706" />
<path d="M454,-1098 L246,-466 L330,-1150 L110,-554 L574,-194 L222,-834 Z" stroke-width="0" fill="#cbffc2" fill-opacity="0.1607843137254902" />
<path d="M94,-822 L646,-1166 L398,-810 L182,-946 L218,-202 L694,-366 Z" stroke-width="0" fill="#2a3119" fill-opacity="0.011764705882352941" />
<path d="M458,-1138 L394,-914 L310,-214 L122,-650 L338,-1006 L302,-922 Z" stroke-width="0" fill="#98c70b" fill-opacity="0.00392156862745098" />
<path d="M298,-462 L374,-734 L194,-638 L558,-1234 L562,-922 L194,-1286 Z" stroke-width="0" fill="#6b6188" fill-opacity="0.8862745098039215" />
<path d="M782,-718 L330,-262 L438,-1066 L518,-498 L734,-1010 L642,-410 Z" stroke-width="0" fill="#f0fffd" fill-opacity="0.14901960784313725" />
<path d="M502,-598 L410,-754 L594,-222 L538,-150 L586,-450 L782,-1114 Z" stroke-width="0" fill="#f7b5f0" fill-opacity="0.047058823529411764" />
<path d="M90,-322 L114,-558 L402,-1030 L646,-802 L86,-942 L542,-598 Z" stroke-width="0" fill="#d2d7b2" fill-opacity="0.5843137254901961" />
<path d="M254,-426 L710,-474 L726,-950 L498,-1062 L270,-278 L198,-1262 Z" stroke-width="0" fill="#d1fb6f" fill-opacity="0.1607843137254902" />
<path d="M566,-942 L634,-214 L542,-1126 L806,-250 L458,-582 L466,-350 Z" stroke-width="0" fill="#703266" fill-opacity="0.09411764705882353" />
<path d="M558,-382 L210,-486 L134,-522 L90,-254 L278,-854 L218,-366 Z" stroke-width="0" fill="#ddd2d7" fill-opacity="0.9137254901960784" />
<path d="M298,-86 L686,-242 L302,-558 L514,-1170 L210,-1238 L182,-1054 Z" stroke-width="0" fill="#684575" fill-opacity="0.41568627450980394" />
<path d="M358,-258 L106,-558 L566,-466 L378,-422 L758,-514 L634,-134 Z" stroke-width="0" fill="#efadff" fill-opacity="0.4196078431372549" />
<path d="M154,-178 L250,-1174 L290,-830 L346,-646 L614,-510 L82,-950 Z" stroke-width="0" fill="#348fb9" fill-opacity="0.13725490196078433" />
<path d="M754,-270 L470,-746 L302,-1198 L170,-814 L610,-770 L130,-1190 Z" stroke-width="0" fill="#1c1d24" fill-opacity="0.9529411764705882" />
<path d="M310,-1034 L274,-398 L154,-450 L210,-1298 L558,-462 L94,-1314 Z" stroke-width="0" fill="#f6ddf2" fill-opacity="0.5058823529411764" />
<path d="M122,-1190 L638,-1222 L106,-1242 L466,-326 L186,-266 L546,-1234 Z" stroke-width="0" fill="#000f18" fill-opacity="0.5019607843137255" />
<path d="M654,-890 L138,-602 L122,-242 L638,-150 L238,-914 L770,-90 Z" stroke-width="0" fill="#d9ecd3" fill-opacity="0.9294117647058824" />
<path d="M294,-170 L114,-302 L190,-1018 L294,-482 L502,-1154 L122,-1102 Z" stroke-width="0" fill="#91c2bd" fill-opacity="0.2196078431372549" />
<path d="M690,-834 L182,-534 L150,-1158 L650,-418 L382,-630 L270,-858 Z" stroke-width="0" fill="#f1e7fd" fill-opacity="0.6431372549019608" />
<path d="M114,-478 L202,-342 L710,-730 L150,-318 L230,-138 L82,-262 Z" stroke-width="0" fill="#ddcce4" fill-opacity="0.8745098039215686" />
<path d="M310,-642 L390,-458 L278,-142 L366,-1134 L498,-130 L710,-550 Z" stroke-width="0" fill="#b4a3c4" fill-opacity="0.30980392156862746" />
<path d="M702,-670 L478,-726 L690,-826 L474,-162 L610,-890 L614,-242 Z" stroke-width="0" fill="#0133d5" fill-opacity="0.11372549019607843" />
<path d="M346,-430 L318,-266 L210,-958 L250,-1046 L382,-1126 L486,-294 Z" stroke-width="0" fill="#2b2c0b" fill-opacity="0.796078431372549" />
<path d="M286,-934 L378,-462 L754,-118 L758,-1230 L406,-134 L390,-1038 Z" stroke-width="0" fill="#97aed2" fill-opacity="0.03137254901960784" />
<path d="M230,-210 L550,-570 L126,-1010 L658,-90 L262,-1286 L618,-322 Z" stroke-width="0" fill="#6c978a" fill-opacity="0.5372549019607843" />
<path d="M190,-1190 L382,-902 L666,-162 L182,-966 L190,-362 L434,-786 Z" stroke-width="0" fill="#faf4e5" fill-opacity="0.6862745098039216" />
<path d="M766,-382 L734,-866 L354,-98 L498,-1186 L702,-990 L646,-382 Z" stroke-width="0" fill="#f3efe7" fill-opacity="0.4117647058823529" />
<path d="M102,-1002 L394,-1146 L330,-1118 L410,-110 L498,-694 L350,-1046 Z" stroke-width="0" fill="#000a00" fill-opacity="1.0" />
<path d="M166,-1238 L282,-742 L438,-738 L214,-726 L134,-638 L350,-474 Z" stroke-width="0" fill="#e1dafe" fill-opacity="0.20392156862745098" />
<path d="M418,-730 L338,-834 L82,-778 L514,-294 L198,-1102 L706,-350 Z" stroke-width="0" fill="#aeda29" fill-opacity="0.14901960784313725" />
<path d="M198,-1210 L266,-142 L678,-790 L658,-642 L654,-234 L446,-166 Z" stroke-width="0" fill="#f4fbd0" fill-opacity="0.4745098039215686" />
<path d="M602,-122 L110,-854 L222,-1154 L726,-794 L398,-378 L506,-750 Z" stroke-width="0" fill="#8478d5" fill-opacity="0.24705882352941178" />
<path d="M774,-158 L382,-458 L446,-606 L294,-654 L166,-1198 L318,-334 Z" stroke-width="0" fill="#d48ba5" fill-opacity="0.07450980392156863" />
<path d="M198,-546 L266,-830 L722,-322 L382,-114 L282,-338 L690,-814 Z" stroke-width="0" fill="#dedaf1" fill-opacity="0.4823529411764706" />
<path d="M426,-130 L418,-626 L502,-606 L166,-478 L782,-334 L498,-294 Z" stroke-width="0" fill="#a171ad" fill-opacity="0.20784313725490197" />
<path d="M262,-506 L178,-246 L82,-746 L158,-1126 L190,-434 L98,-342 Z" stroke-width="0" fill="#ceb4ce" fill-opacity="0.5882352941176471" />
<path d="M246,-426 L542,-814 L322,-286 L610,-710 L322,-958 L762,-334 Z" stroke-width="0" fill="#e2c075" fill-opacity="0.21176470588235294" />
<text x="448.0" y="0" font-size="70.0" fill="black" text-anchor="middle" transform="translate(0,17.5)">PAGE OF FIRE</text>
</svg>