<?xml version="1.0" encoding="UTF-8"?>
<svg xmlns="http://www.w3.org/2000/svg" xmlns:xlink="http://www.w3.org/1999/xlink"
     width="896" height="1496" viewBox="0 -1400 896 1496" style="font-size:70;font-family:Poor Richard, Times New Roman;stroke:black;stroke-width:1;fill:none">
<defs>
</defs>
<path d="M194,-402 L218,-738 L470,-882 L114,-574 L642,-478 L710,-698 Z" stroke-width="0" fill="#fc0b32" fill-opacity="0.07058823529411765" />
<path d="M486,-734 L490,-974 L342,-1082 L598,-1298 L810,-590 L750,-306 Z" stroke-width="0" fill="#4a385d" fill-opacity="0.1411764705882353" />
<path d="M118,-1162 L450,-230 L714,-358 L258,-502 L314,-310 L118,-1018 Z" stroke-width="0" fill="#717768" fill-opacity="0.2196078431372549" />
<path d="M462,-338 L666,-1266 L214,-574 L606,-1062 L302,-518 L802,-742 Z" stroke-width="0" fill="#6d552d" fill-opacity="0.30196078431372547" />
<path d="M310,-1294 L694,-810 L350,-206 L622,-1230 L262,-170 L466,-1090 Z" stroke-width="0" fill="#fbebf3" fill-opacity="0.8549019607843137" />
<path d="M122,-330 L286,-274 L306,-958 L330,-594 L466,-486 L306,-478 Z" stroke-width="0" fill="#eaebf8" fill-opacity="0.01568627450980392" />
<path d="M294,-1030 L450,-514 L374,-554 L142,-426 L118,-958 L646,-1042 Z" stroke-width="0" fill="#b70818" fill-opacity="0.09411764705882353" />
<path d="M374,-1194 L534,-758 L626,-662 L578,-598 L330,-302 L782,-874 Z" stroke-width="0" fill="#c8e0ae" fill-opacity="0.5372549019607843" />
<path d="M742,-334 L502,-358 L510,-622 L794,-366 L254,-430 L454,-1186 Z" stroke-width="0" fill="#c4b3bb" fill-opacity="0.5843137254901961" />
<path d="M554,-1138 L438,-642 L702,-978 L430,-262 L786,-1034 L486,-598 Z" stroke-width="0" fill="#e9c960" fill-opacity="0.43529411764705883" />
<path d="M218,-218 L286,-650 L262,-742 L362,-738 L622,-1026 L442,-1026 Z" stroke-width="0" fill="#e3efe1" fill-opacity="0.12156862745098039" />
<path d="M502,-290 L338,-362 L366,-1246 L422,-1126 L762,-502 L570,-134 Z" stroke-width="0" fill="#7399f0" fill-opacity="0.027450980392156862" />
<path d="M370,-402 L182,-494 L266,-1222 L454,-410 L322,-1218 L322,-274 Z" stroke-width="0" fill="#e5eaef" fill-opacity="0.023529411764705882" />
<path d="M570,-482 L86,-254 L194,-518 L534,-894 L210,-674 L238,-350 Z" stroke-width="0" fill="#947751" fill-opacity="0.12156862745098039" />
<path d="M118,-198 L118,-586 L302,-422 L210,-798 L638,-846 L334,-154 Z" stroke-width="0" fill="#147d95" fill-opacity="0.0" />
<path d="M298,-202 L286,-858 L678,-142 L682,-746 L178,-246 L490,-814 Z" stroke-width="0" fill="#e22590" fill-opacity="0.788235294117647" />
<path d="M558,-782 L742,-290 L746,-310 L670,-526 L806,-602 L454,-378 Z" stroke-width="0" fill="#f1ccec" fill-opacity="0.10588235294117647" />
<path d="M666,-1018 L730,-1190 L626,-302 L186,-950 L298,-234 L566,-578 Z" stroke-width="0" fill="#f3f6e2" fill-opacity="0.050980392156862744" />
<path d="M298,-434 L378,-238 L578,-394 L250,-1178 L330,-914 L782,-94 Z" stroke-width="0" fill="#140100" fill-opacity="0.1607843137254902" />
<path d="M238,-818 L706,-1094 L194,-1250 L362,-518 L338,-142 L230,-1206 Z" stroke-width="0" fill="#eaf7d7" fill-opacity="0.06274509803921569" />
<path d="M530,-622 L146,-450 L274,-390 L362,-290 L134,-590 L498,-670 Z" stroke-width="0" fill="#fdeee6" fill-opacity="0.2196078431372549" />
<path d="M262,-462 L166,-1146 L710,-890 L738,-526 L194,-246 L214,-1062 Z" stroke-width="0" fill="#dedaf1" fill-opacity="0.10980392156862745" />
<path d="M322,-550 L174,-702 L382,-162 L282,-1190 L558,-430 L222,-346 Z" stroke-width="0" fill="#d6dfd7" fill-opacity="0.011764705882352941" />
<path d="M474,-438 L210,-890 L398,-1218 L354,-1010 L670,-906 L266,-410 Z" stroke-width="0" fill="#eaf5f3" fill-opacity="0.3803921568627451" />
<path d="M470,-214 L466,-822 L230,-82 L138,-318 L202,-770 L318,-434 Z" stroke-width="0" fill="#b975f0" fill-opacity="0.058823529411764705" />
<path d="M450,-1278 L782,-722 L210,-682 L782,-894 L150,-362 L330,-1202 Z" stroke-width="0" fill="#f1d0d4" fill-opacity="0.06274509803921569" />
<path d="M686,-874 L162,-142 L650,-862 L218,-726 L542,-350 L398,-694 Z" stroke-width="0" fill="#f0f4e4" fill-opacity="0.043137254901960784" />
<path d="M102,-654 L742,-762 L146,-646 L126,-442 L102,-246 L286,-954 Z" stroke-width="0" fill="#c8dae6" fill-opacity="0.10588235294117647" />
<path d="M434,-626 L618,-410 L778,-770 L538,-1038 L338,-102 L626,-866 Z" stroke-width="0" fill="#e5b3c4" fill-opacity="0.09803921568627451" />
<path d="M134,-154 L614,-1162 L394,-350 L510,-294 L230,-670 L758,-786 Z" stroke-width="0" fill="#d9cdf8" fill-opacity="0.16862745098039217" />
<path d="M714,-558 L706,-94 L578,-558 L378,-858 L274,-858 L494,-1242 Z" stroke-width="0" fill="#f2e7e2" fill-opacity="0.996078431372549" />
<path d="M242,-1046 L386,-894 L662,-894 L702,-1030 L218,-186 L170,-318 Z" stroke-width="0" fill="#fff4e5" fill-opacity="0.054901960784313725" />
<path d="M566,-242 L86,-714 L358,-1062 L642,-206 L638,-798 L442,-698 Z" stroke-width="0" fill="#9f8ebd" fill-opacity="0.23529411764705882" />
<path d="M734,-1102 L226,-114 L450,-570 L658,-310 L706,-358 L658,-1294 Z" stroke-width="0" fill="#020941" fill-opacity="0.01568627450980392" />
<path d="M418,-1022 L810,-1026 L702,-1226 L82,-426 L590,-1046 L534,-202 Z" stroke-width="0" fill="#e08a75" fill-opacity="0.37254901960784315" />
<path d="M426,-630 L442,-558 L318,-658 L214,-794 L230,-634 L618,-990 Z" stroke-width="0" fill="#2c27ba" fill-opacity="0.9137254901960784" />
<path d="M586,-1130 L446,-1170 L586,-898 L118,-342 L150,-226 L718,-294 Z" stroke-width="0" fill="#f8e9d3" fill-opacity="0.10588235294117647" />
<path d="M486,-1094 L550,-490 L326,-574 L710,-858 L290,-934 L538,-706 Z" stroke-width="0" fill="#ffebec" fill-opacity="0.9333333333333333" />
<path d="M146,-446 L134,-470 L542,-134 L770,-222 L462,-894 L806,-786 Z" stroke-width="0" fill="#7e9ba2" fill-opacity="0.9921568627450981" />
<path d="M350,-374 L142,-258 L678,-1002 L262,-942 L242,-646 L586,-874 Z" stroke-width="0" fill="#212016" fill-opacity="0.1450980392156863" />
<path d="M542,-282 L170,-230 L142,-510 L746,-1010 L386,-746 L522,-402 Z" stroke-width="0" fill="#f3e3fd" fill-opacity="0.7803921568627451" />
<path d="M402,-1142 L594,-810 L206,-350 L530,-718 L118,-954 L118,-894 Z" stroke-width="0" fill="#fee79a" fill-opacity="0.19215686274509805" />
<path d="M390,-362 L286,-450 L158,-994 L702,-578 L350,-982 L314,-134 Z" stroke-width="0" fill="#fcbff8" fill-opacity="0.3333333333333333" />
<path d="M806,-274 L222,-1070 L438,-378 L486,-794 L810,-842 L670,-322 Z" stroke-width="0" fill="#cdccc3" fill-opacity="0.8784313725490196" />
<path d="M582,-270 L722,-1046 L98,-898 L534,-94 L582,-522 L694,-462 Z" stroke-width="0" fill="#6c7153" fill-opacity="0.2980392156862745" />
<path d="M542,-318 L210,-174 L470,-1098 L102,-1286 L418,-346 L150,-1114 Z" stroke-width="0" fill="#d1fee8" fill-opacity="0.09019607843137255" />
<path d="M766,-1246 L90,-758 L198,-598 L282,-814 L690,-1154 L698,-230 Z" stroke-width="0" fill="#01d7fe" fill-opacity="0.09411764705882353" />
<path d="M306,-1302 L594,-714 L346,-1150 L378,-646 L98,-1142 L722,-302 Z" stroke-width="0" fill="#f8df78" fill-opacity="0.0196078431372549" />
<path d="M390,-1230 L338,-454 L810,-158 L438,-434 L174,-222 L386,-594 Z" stroke-width="0" fill="#e6d1fd" fill-opacity="0.42745098039215684" />
<path d="M466,-178 L382,-1110 L338,-254 L302,-1170 L294,-998 L286,-1082 Z" stroke-width="0" fill="#b7f5fc" fill-opacity="0.2980392156862745" />
<path d="M326,-682 L474,-1206 L242,-1130 L430,-438 L262,-1162 L546,-1138 Z" stroke-width="0" fill="#f7fbff" fill-opacity="0.5019607843137255" />
<path d="M570,-130 L142,-330 L766,-926 L442,-206 L558,-394 L142,-678 Z" stroke-width="0" fill="#1ac1c2" fill-opacity="0.21568627450980393" />
<path d="M106,-498 L506,-458 L654,-342 L346,-758 L170,-602 L162,-842 Z" stroke-width="0" fill="#c7e2c7" fill-opacity="0.6431372549019608" />
<path d="M342,-578 L146,-1254 L506,-454 L806,-1034 L590,-502 L214,-1298 Z" stroke-width="0" fill="#e9efee" fill-opacity="0.28627450980392155" />
<path d="M726,-282 L462,-554 L714,-614 L282,-606 L550,-1102 L302,-534 Z" stroke-width="0" fill="#f3c4c1" fill-opacity="0.42745098039215684" />
<path d="M526,-1222 L282,-162 L302,-934 L210,-826 L298,-586 L286,-214 Z" stroke-width="0" fill="#ebfcf6" fill-opacity="0.596078431372549" />
<path d="M118,-634 L610,-154 L142,-278 L794,-574 L322,-1066 L506,-918 Z" stroke-width="0" fill="#9958df" fill-opacity="0.011764705882352941" />
<path d="M462,-566 L394,-330 L762,-794 L330,-1098 L550,-942 L446,-1070 Z" stroke-width="0" fill="#000000" fill-opacity="0.8431372549019608" />
<path d="M338,-402 L594,-1142 L558,-530 L242,-314 L574,-466 L482,-1226 Z" stroke-width="0" fill="#f9dcdb" fill-opacity="0.11372549019607843" />
<path d="M482,-470 L650,-210 L674,-86 L254,-694 L722,-450 L134,-562 Z" stroke-width="0" fill="#000000" fill-opacity="0.9098039215686274" />
<path d="M786,-1006 L94,-382 L790,-462 L302,-846 L718,-1218 L326,-1238 Z" stroke-width="0" fill="#e9d6e4" fill-opacity="0.7450980392156863" />
<path d="M342,-726 L458,-522 L422,-966 L630,-1202 L678,-698 L334,-334 Z" stroke-width="0" fill="#ebfcf5" fill-opacity="0.6039215686274509" />
<path d="M286,-258 L362,-226 L714,-366 L750,-98 L714,-314 L162,-82 Z" stroke-width="0" fill="#f9f8c1" fill-opacity="0.3843137254901961" />
<path d="M326,-626 L534,-1130 L198,-230 L530,-490 L398,-206 L786,-214 Z" stroke-width="0" fill="#e9ddd7" fill-opacity="0.6274509803921569" />
<path d="M246,-1310 L366,-598 L362,-406 L162,-958 L386,-194 L342,-1118 Z" stroke-width="0" fill="#ffd2f9" fill-opacity="0.08235294117647059" />
<path d="M610,-426 L674,-622 L702,-1050 L402,-1018 L618,-922 L738,-1150 Z" stroke-width="0" fill="#82d2ee" fill-opacity="0.011764705882352941" />
<path d="M478,-306 L678,-1170 L470,-578 L746,-258 L554,-634 L774,-546 Z" stroke-width="0" fill="#d1becb" fill-opacity="0.788235294117647" />
<path d="M806,-870 L134,-898 L666,-594 L94,-614 L642,-366 L530,-678 Z" stroke-width="0" fill="#a3fae6" fill-opacity="0.22745098039215686" />
<path d="M686,-558 L746,-606 L634,-1294 L118,-698 L306,-642 L806,-374 Z" stroke-width="0" fill="#e4f6e5" fill-opacity="0.5529411764705883" />
<path d="M750,-830 L190,-846 L138,-362 L646,-722 L650,-806 L166,-1230 Z" stroke-width="0" fill="#b0fbc1" fill-opacity="0.23529411764705882" />
<path d="M246,-310 L506,-1282 L510,-1178 L326,-790 L690,-1110 L290,-126 Z" stroke-width="0" fill="#d7dfc1" fill-opacity="0.5058823529411764" />
<path d="M266,-926 L486,-1114 L446,-282 L450,-862 L750,-802 L622,-542 Z" stroke-width="0" fill="#980476" fill-opacity="0.00392156862745098" />
<path d="M346,-186 L278,-386 L534,-218 L386,-622 L682,-1014 L86,-814 Z" stroke-width="0" fill="#996791" fill-opacity="0.07058823529411765" />
<path d="M138,-974 L178,-706 L242,-718 L654,-698 L514,-1030 L542,-418 Z" stroke-width="0" fill="#eaf8f8" fill-opacity="0.3215686274509804" />
<path d="M378,-454 L450,-874 L602,-570 L134,-694 L634,-454 L358,-246 Z" stroke-width="0" fill="#47c47c" fill-opacity="0.07058823529411765" />
<path d="M602,-626 L210,-1266 L150,-674 L774,-1202 L430,-206 L122,-694 Z" stroke-width="0" fill="#fadae7" fill-opacity="0.18823529411764706" />
<path d="M338,-726 L442,-202 L690,-814 L534,-578 L142,-726 L626,-1122 Z" stroke-width="0" fill="#f4e5f9" fill-opacity="0.5019607843137255" />
<path d="M570,-670 L102,-402 L322,-746 L322,-1014 L238,-990 L118,-242 Z" stroke-width="0" fill="#d2edea" fill-opacity="0.27058823529411763" />
<path d="M198,-402 L798,-1046 L594,-406 L114,-1094 L402,-794 L478,-474 Z" stroke-width="0" fill="#cbcdfe" fill-opacity="0.30196078431372547" />
<path d="M242,-94 L310,-1038 L598,-218 L374,-1238 L270,-662 L362,-762 Z" stroke-width="0" fill="#fff0e5" fill-opacity="0.027450980392156862" />
<path d="M406,-1134 L138,-1182 L702,-382 L454,-490 L486,-498 L214,-510 Z" stroke-width="0" fill="#f5f4d5" fill-opacity="0.10980392156862745" />
<path d="M274,-930 L690,-310 L182,-1086 L354,-846 L318,-678 L126,-658 Z" stroke-width="0" fill="#e7edcd" fill-opacity="0.09019607843137255" />
<path d="M294,-142 L314,-402 L234,-98 L270,-782 L130,-182 L202,-434 Z" stroke-width="0" fill="#dcfef3" fill-opacity="0.06666666666666667" />
<path d="M338,-1154 L214,-562 L646,-662 L434,-462 L442,-334 L810,-502 Z" stroke-width="0" fill="#f6e2d9" fill-opacity="0.34901960784313724" />
<path d="M794,-958 L538,-1014 L138,-822 L434,-386 L558,-674 L290,-618 Z" stroke-width="0" fill="#c8e3f2" fill-opacity="0.37254901960784315" />
<path d="M198,-166 L330,-1070 L106,-514 L774,-238 L318,-698 L474,-334 Z" stroke-width="0" fill="#e9f949" fill-opacity="0.01568627450980392" />
<path d="M226,-870 L134,-394 L326,-1210 L754,-534 L274,-226 L102,-450 Z" stroke-width="0" fill="#fbcdea" fill-opacity="0.20784313725490197" />
<path d="M154,-1010 L226,-814 L174,-118 L394,-1014 L390,-1254 L582,-706 Z" stroke-width="0" fill="#edfbe2" fill-opacity="0.9490196078431372" />
<path d="M390,-478 L742,-726 L590,-746 L174,-1054 L586,-470 L326,-762 Z" stroke-width="0" fill="#fff9f1" fill-opacity="0.09411764705882353" />
<path d="M554,-514 L474,-502 L214,-1046 L90,-1074 L222,-518 L254,-918 Z" stroke-width="0" fill="#fe7cec" fill-opacity="0.011764705882352941" />
<path d="M126,-558 L282,-490 L498,-706 L642,-526 L758,-730 L674,-478 Z" stroke-width="0" fill="#a2c79b" fill-opacity="0.11372549019607843" />
<path d="M678,-1214 L802,-714 L282,-698 L370,-1262 L330,-998 L354,-914 Z" stroke-width="0" fill="#dcaec5" fill-opacity="0.3686274509803922" />
<path d="M366,-1102 L158,-1146 L286,-1006 L302,-954 L750,-930 L602,-450 Z" stroke-width="0" fill="#dde1bb" fill-opacity="0.058823529411764705" />
<path d="M362,-462 L302,-154 L698,-106 L406,-370 L682,-1262 L94,-866 Z" stroke-width="0" fill="#dfd6f3" fill-opacity="0.08627450980392157" />
<path d="M442,-910 L594,-86 L586,-158 L326,-702 L762,-626 L658,-762 Z" stroke-width="0" fill="#d9e1cb" fill-opacity="0.5450980392156862" />
<path d="M390,-710 L678,-370 L658,-1018 L338,-1178 L742,-474 L266,-1258 Z" stroke-width="0" fill="#c5fddf" fill-opacity="0.19215686274509805" />
<path d="M502,-514 L266,-754 L134,-230 L278,-718 L158,-770 L514,-474 Z" stroke-width="0" fill="#c9c4d0" fill-opacity="0.5137254901960784" />
<path d="M702,-938 L234,-126 L282,-654 L290,-418 L350,-554 L474,-566 Z" stroke-width="0" fill="#a0bfd5" fill-opacity="0.10980392156862745" />
<path d="M434,-954 L206,-1046 L238,-146 L166,-86 L746,-450 L630,-230 Z" stroke-width="0" fill="#f1fdfe" fill-opacity="0.050980392156862744" />
<path d="M574,-502 L98,-546 L474,-106 L234,-822 L582,-894 L510,-766 Z" stroke-width="0" fill="#e8bdd3" fill-opacity="0.21176470588235294" />
<text x="448.0" y="0" font-size="70.0" fill="black" text-anchor="middle" transform="translate(0,17.5)">4 OF FIRE</text>
</svg>