<?xml version="1.0" encoding="UTF-8"?>
<svg xmlns="http://www.w3.org/2000/svg" xmlns:xlink="http://www.w3.org/1999/xlink"
     width="275" height="375" viewBox="0 -350 275 375">
<defs>
</defs>
<rect x="15" y="-335" width="245" height="320" stroke="black" stroke-width="4" fill="white" />
<path d="M75,-273 L58,-27 L101,-57 L38,-208 L196,-58 L192,-65 Z" stroke-width="0" fill="#fcf0e4" fill-opacity="0.08235294117647059" />
<path d="M49,-269 L150,-129 L95,-91 L187,-58 L29,-313 L164,-254 Z" stroke-width="0" fill="#f8f4dd" fill-opacity="0.011764705882352941" />
<path d="M197,-127 L122,-120 L166,-101 L37,-283 L231,-150 L54,-123 Z" stroke-width="0" fill="#ffffff" fill-opacity="0.8156862745098039" />
<path d="M174,-237 L85,-262 L191,-32 L128,-220 L138,-181 L120,-124 Z" stroke-width="0" fill="#f4f3ea" fill-opacity="0.07058823529411765" />
<path d="M112,-64 L234,-157 L86,-173 L55,-71 L71,-55 L153,-125 Z" stroke-width="0" fill="#d206be" fill-opacity="0.03137254901960784" />
<path d="M188,-72 L225,-246 L138,-129 L61,-159 L142,-280 L208,-129 Z" stroke-width="0" fill="#f0f0eb" fill-opacity="0.17254901960784313" />
<path d="M180,-195 L209,-32 L51,-158 L215,-95 L64,-103 L83,-109 Z" stroke-width="0" fill="#f7fce5" fill-opacity="0.054901960784313725" />
<path d="M174,-159 L88,-97 L74,-64 L131,-130 L44,-36 L111,-207 Z" stroke-width="0" fill="#e4f6ec" fill-opacity="0.01568627450980392" />
<path d="M56,-207 L192,-221 L50,-43 L231,-169 L108,-131 L97,-130 Z" stroke-width="0" fill="#fbdeea" fill-opacity="0.08235294117647059" />
<path d="M164,-134 L182,-308 L206,-261 L142,-118 L142,-215 L145,-73 Z" stroke-width="0" fill="#fcfdc7" fill-opacity="0.0196078431372549" />
<path d="M30,-33 L60,-194 L83,-49 L240,-98 L155,-138 L32,-243 Z" stroke-width="0" fill="#648f8f" fill-opacity="0.0" />
<path d="M60,-251 L104,-303 L45,-295 L95,-106 L113,-201 L46,-174 Z" stroke-width="0" fill="#e3fcec" fill-opacity="0.22745098039215686" />
<path d="M112,-145 L66,-99 L39,-168 L72,-308 L31,-129 L49,-246 Z" stroke-width="0" fill="#c4f5ea" fill-opacity="0.01568627450980392" />
<path d="M80,-36 L182,-79 L152,-28 L43,-62 L47,-29 L142,-37 Z" stroke-width="0" fill="#c2ebeb" fill-opacity="0.1568627450980392" />
<path d="M113,-244 L76,-233 L115,-50 L65,-301 L148,-76 L110,-308 Z" stroke-width="0" fill="#f895f3" fill-opacity="0.17254901960784313" />
<path d="M200,-314 L161,-29 L56,-185 L104,-170 L28,-28 L139,-55 Z" stroke-width="0" fill="#f9ecc5" fill-opacity="0.14901960784313725" />
<path d="M46,-178 L132,-77 L145,-146 L110,-245 L63,-31 L33,-141 Z" stroke-width="0" fill="#f3cafb" fill-opacity="0.03529411764705882" />
<path d="M210,-267 L82,-156 L56,-310 L91,-303 L94,-186 L87,-183 Z" stroke-width="0" fill="#ddf8e4" fill-opacity="0.0196078431372549" />
<path d="M171,-176 L33,-308 L37,-279 L161,-238 L247,-127 L97,-25 Z" stroke-width="0" fill="#ecfedd" fill-opacity="0.1411764705882353" />
<path d="M73,-101 L197,-245 L150,-50 L135,-99 L87,-306 L190,-139 Z" stroke-width="0" fill="#fcf0f5" fill-opacity="0.2235294117647059" />
<path d="M209,-174 L157,-190 L26,-83 L48,-202 L131,-119 L237,-264 Z" stroke-width="0" fill="#fef6c2" fill-opacity="0.2" />
<path d="M151,-223 L82,-59 L144,-185 L122,-146 L63,-170 L122,-206 Z" stroke-width="0" fill="#bfd8cb" fill-opacity="0.043137254901960784" />
<path d="M81,-240 L145,-62 L218,-127 L57,-61 L196,-40 L37,-115 Z" stroke-width="0" fill="#dcfaf9" fill-opacity="0.07450980392156863" />
<path d="M57,-43 L70,-240 L57,-94 L179,-231 L115,-297 L225,-40 Z" stroke-width="0" fill="#fafaf0" fill-opacity="0.17254901960784313" />
<path d="M244,-27 L222,-88 L177,-137 L91,-46 L172,-240 L190,-187 Z" stroke-width="0" fill="#62679d" fill-opacity="0.0" />
<path d="M183,-93 L56,-69 L149,-63 L120,-44 L61,-305 L33,-138 Z" stroke-width="0" fill="#facaf5" fill-opacity="0.07450980392156863" />
<path d="M59,-44 L215,-102 L126,-204 L152,-204 L244,-90 L241,-48 Z" stroke-width="0" fill="#e6f5d9" fill-opacity="0.1803921568627451" />
<path d="M117,-52 L188,-290 L96,-276 L182,-176 L213,-243 L154,-141 Z" stroke-width="0" fill="#fbd6f3" fill-opacity="0.12156862745098039" />
<path d="M95,-138 L102,-269 L118,-169 L84,-53 L27,-292 L82,-27 Z" stroke-width="0" fill="#ebf0f0" fill-opacity="0.050980392156862744" />
<path d="M161,-228 L112,-253 L106,-288 L78,-166 L194,-66 L44,-238 Z" stroke-width="0" fill="#fcf6d3" fill-opacity="0.054901960784313725" />
<path d="M201,-127 L138,-194 L113,-101 L170,-130 L83,-257 L103,-49 Z" stroke-width="0" fill="#f9d4de" fill-opacity="0.19215686274509805" />
<path d="M52,-307 L196,-165 L101,-40 L114,-112 L147,-236 L149,-140 Z" stroke-width="0" fill="#f5ebff" fill-opacity="0.22745098039215686" />
<path d="M147,-64 L153,-130 L210,-324 L205,-179 L216,-225 L180,-170 Z" stroke-width="0" fill="#ebe9c0" fill-opacity="0.043137254901960784" />
<path d="M200,-84 L130,-282 L98,-193 L36,-200 L57,-308 L136,-227 Z" stroke-width="0" fill="#f4d3fe" fill-opacity="0.3568627450980392" />
<path d="M138,-245 L69,-140 L61,-75 L104,-44 L64,-186 L133,-32 Z" stroke-width="0" fill="#f3f5fc" fill-opacity="0.5019607843137255" />
<path d="M218,-119 L100,-73 L242,-306 L62,-288 L39,-47 L84,-219 Z" stroke-width="0" fill="#9cdbd6" fill-opacity="0.011764705882352941" />
<path d="M36,-254 L101,-237 L138,-166 L175,-276 L64,-140 L238,-233 Z" stroke-width="0" fill="#fbf2ee" fill-opacity="0.08627450980392157" />
<path d="M167,-295 L132,-135 L171,-91 L77,-193 L60,-127 L165,-133 Z" stroke-width="0" fill="#bfa680" fill-opacity="0.00784313725490196" />
<path d="M25,-133 L175,-66 L238,-202 L152,-317 L230,-25 L172,-259 Z" stroke-width="0" fill="#d6f4e7" fill-opacity="0.03137254901960784" />
<path d="M172,-42 L89,-142 L183,-233 L200,-312 L213,-270 L43,-117 Z" stroke-width="0" fill="#e7f6f2" fill-opacity="0.00784313725490196" />
<path d="M211,-81 L207,-126 L148,-173 L39,-221 L85,-289 L140,-278 Z" stroke-width="0" fill="#f9f5a4" fill-opacity="0.00392156862745098" />
<path d="M178,-166 L228,-58 L64,-189 L232,-27 L56,-119 L108,-257 Z" stroke-width="0" fill="#e9ecf1" fill-opacity="0.027450980392156862" />
<path d="M122,-74 L65,-70 L247,-79 L125,-182 L201,-216 L203,-84 Z" stroke-width="0" fill="#eee182" fill-opacity="0.06274509803921569" />
<path d="M107,-108 L33,-278 L44,-98 L90,-228 L56,-245 L228,-264 Z" stroke-width="0" fill="#f2e3ff" fill-opacity="0.13725490196078433" />
<path d="M167,-168 L135,-125 L64,-285 L142,-233 L213,-234 L139,-231 Z" stroke-width="0" fill="#f8e9c5" fill-opacity="0.08627450980392157" />
<path d="M159,-75 L214,-42 L156,-306 L211,-152 L149,-297 L147,-65 Z" stroke-width="0" fill="#ecfae3" fill-opacity="0.08627450980392157" />
<path d="M63,-132 L64,-318 L51,-234 L65,-36 L159,-53 L98,-89 Z" stroke-width="0" fill="#f4c6fe" fill-opacity="0.16862745098039217" />
<path d="M211,-239 L200,-89 L228,-149 L188,-162 L53,-307 L136,-137 Z" stroke-width="0" fill="#effbfb" fill-opacity="0.7568627450980392" />
<path d="M44,-209 L127,-198 L149,-219 L136,-30 L92,-186 L62,-217 Z" stroke-width="0" fill="#ffeedc" fill-opacity="0.10588235294117647" />
<path d="M229,-111 L36,-185 L53,-272 L32,-254 L246,-242 L129,-200 Z" stroke-width="0" fill="#b8e8db" fill-opacity="0.047058823529411764" />
<path d="M157,-108 L191,-82 L92,-86 L33,-137 L167,-118 L241,-46 Z" stroke-width="0" fill="#bfebd4" fill-opacity="0.08235294117647059" />
<path d="M204,-88 L104,-171 L124,-246 L78,-296 L171,-291 L178,-101 Z" stroke-width="0" fill="#eaf8f8" fill-opacity="0.09803921568627451" />
<path d="M162,-172 L28,-269 L29,-190 L135,-202 L222,-87 L246,-266 Z" stroke-width="0" fill="#d1e4f5" fill-opacity="0.054901960784313725" />
<path d="M60,-242 L97,-115 L62,-159 L171,-238 L184,-268 L209,-129 Z" stroke-width="0" fill="#fac5f6" fill-opacity="0.023529411764705882" />
<path d="M93,-55 L202,-87 L151,-86 L171,-230 L182,-226 L183,-308 Z" stroke-width="0" fill="#f7efcb" fill-opacity="0.8509803921568627" />
<path d="M123,-225 L46,-201 L99,-261 L112,-292 L53,-249 L150,-29 Z" stroke-width="0" fill="#f3f4fc" fill-opacity="0.5019607843137255" />
<path d="M158,-303 L135,-146 L40,-94 L131,-281 L54,-47 L105,-121 Z" stroke-width="0" fill="#9f0d3c" fill-opacity="0.0" />
<path d="M131,-283 L210,-213 L241,-101 L58,-286 L190,-130 L164,-320 Z" stroke-width="0" fill="#d5f2ec" fill-opacity="0.1450980392156863" />
<path d="M172,-42 L234,-42 L223,-148 L68,-60 L179,-136 L120,-199 Z" stroke-width="0" fill="#ffe7ff" fill-opacity="0.9294117647058824" />
<path d="M108,-83 L27,-131 L200,-289 L221,-136 L213,-105 L134,-308 Z" stroke-width="0" fill="#fcfcf4" fill-opacity="0.9215686274509803" />
<path d="M198,-108 L57,-143 L32,-62 L40,-34 L69,-232 L148,-171 Z" stroke-width="0" fill="#1c1311" fill-opacity="0.0" />
<path d="M190,-278 L227,-185 L71,-93 L127,-131 L138,-78 L185,-273 Z" stroke-width="0" fill="#a1f5dd" fill-opacity="0.21568627450980393" />
<path d="M179,-192 L64,-96 L243,-66 L89,-168 L173,-135 L161,-108 Z" stroke-width="0" fill="#e1d1ff" fill-opacity="0.0392156862745098" />
<path d="M63,-106 L189,-321 L75,-102 L122,-309 L89,-146 L39,-76 Z" stroke-width="0" fill="#fbf5b7" fill-opacity="0.01568627450980392" />
<path d="M148,-131 L165,-37 L214,-120 L231,-56 L75,-274 L174,-154 Z" stroke-width="0" fill="#e4e6f3" fill-opacity="0.1607843137254902" />
<path d="M228,-253 L129,-97 L212,-269 L116,-94 L84,-45 L120,-241 Z" stroke-width="0" fill="#fce0fe" fill-opacity="0.4392156862745098" />
<path d="M192,-155 L166,-143 L149,-92 L199,-84 L49,-103 L80,-248 Z" stroke-width="0" fill="#ececfa" fill-opacity="0.058823529411764705" />
<path d="M209,-167 L76,-213 L41,-94 L53,-34 L211,-78 L168,-301 Z" stroke-width="0" fill="#f1f9f5" fill-opacity="0.7529411764705882" />
<path d="M190,-56 L82,-278 L158,-228 L166,-169 L224,-237 L73,-53 Z" stroke-width="0" fill="#afedd5" fill-opacity="0.08235294117647059" />
<path d="M131,-212 L122,-94 L159,-114 L143,-219 L54,-116 L225,-182 Z" stroke-width="0" fill="#cdefd6" fill-opacity="0.11764705882352941" />
<path d="M176,-41 L113,-79 L206,-152 L128,-115 L118,-103 L234,-250 Z" stroke-width="0" fill="#c7fae9" fill-opacity="0.058823529411764705" />
<path d="M249,-52 L198,-52 L147,-290 L220,-87 L205,-44 L248,-138 Z" stroke-width="0" fill="#f9fcfe" fill-opacity="0.7843137254901961" />
<path d="M130,-93 L90,-80 L235,-290 L150,-65 L244,-151 L71,-324 Z" stroke-width="0" fill="#facaf1" fill-opacity="0.043137254901960784" />
<path d="M95,-322 L176,-210 L120,-323 L204,-287 L174,-44 L77,-53 Z" stroke-width="0" fill="#c2d0f2" fill-opacity="0.0196078431372549" />
<path d="M93,-160 L125,-71 L36,-129 L237,-191 L82,-77 L50,-113 Z" stroke-width="0" fill="#d0fbf5" fill-opacity="0.4588235294117647" />
<path d="M99,-319 L246,-94 L197,-202 L102,-85 L120,-81 L211,-294 Z" stroke-width="0" fill="#bbf4db" fill-opacity="0.10196078431372549" />
<path d="M58,-127 L228,-218 L57,-100 L108,-226 L176,-271 L32,-28 Z" stroke-width="0" fill="#f9f2f9" fill-opacity="0.9725490196078431" />
<path d="M150,-281 L112,-113 L70,-37 L108,-146 L101,-55 L196,-70 Z" stroke-width="0" fill="#c9d8da" fill-opacity="0.21568627450980393" />
<path d="M175,-156 L176,-72 L69,-114 L160,-137 L198,-40 L203,-153 Z" stroke-width="0" fill="#efe5e6" fill-opacity="0.2196078431372549" />
<path d="M35,-105 L124,-183 L47,-145 L38,-205 L139,-173 L28,-25 Z" stroke-width="0" fill="#f6fcc0" fill-opacity="0.050980392156862744" />
<path d="M63,-155 L47,-299 L52,-104 L172,-130 L50,-130 L86,-260 Z" stroke-width="0" fill="#f0fcb9" fill-opacity="0.011764705882352941" />
<path d="M172,-276 L97,-236 L150,-149 L203,-226 L203,-307 L140,-318 Z" stroke-width="0" fill="#b4fcc8" fill-opacity="0.027450980392156862" />
<path d="M238,-187 L134,-209 L158,-251 L97,-89 L211,-61 L117,-108 Z" stroke-width="0" fill="#eefdba" fill-opacity="0.19215686274509805" />
<path d="M193,-66 L85,-144 L25,-207 L55,-278 L111,-45 L198,-175 Z" stroke-width="0" fill="#d7fafc" fill-opacity="0.6431372549019608" />
<path d="M151,-312 L224,-68 L87,-109 L117,-162 L134,-273 L71,-297 Z" stroke-width="0" fill="#d7f4d7" fill-opacity="0.5882352941176471" />
<path d="M150,-51 L35,-183 L196,-48 L212,-27 L152,-228 L101,-128 Z" stroke-width="0" fill="#fdf6fc" fill-opacity="0.4980392156862745" />
<path d="M62,-211 L33,-211 L36,-45 L77,-178 L27,-142 L124,-168 Z" stroke-width="0" fill="#fbd6ff" fill-opacity="0.2549019607843137" />
<path d="M74,-291 L188,-133 L91,-195 L69,-138 L203,-160 L203,-48 Z" stroke-width="0" fill="#d7f2ff" fill-opacity="0.36470588235294116" />
<path d="M136,-233 L99,-187 L168,-178 L110,-248 L147,-145 L37,-320 Z" stroke-width="0" fill="#e4dcc8" fill-opacity="0.2549019607843137" />
<path d="M240,-84 L138,-218 L147,-130 L33,-267 L112,-114 L137,-33 Z" stroke-width="0" fill="#fee5ea" fill-opacity="0.34901960784313724" />
<path d="M163,-298 L240,-146 L103,-50 L123,-259 L78,-137 L134,-111 Z" stroke-width="0" fill="#e6f1ef" fill-opacity="0.5019607843137255" />
<path d="M162,-74 L58,-161 L204,-260 L77,-50 L245,-291 L217,-320 Z" stroke-width="0" fill="#def6f7" fill-opacity="0.11764705882352941" />
<path d="M52,-203 L213,-314 L66,-232 L69,-272 L241,-272 L188,-141 Z" stroke-width="0" fill="#eff3cb" fill-opacity="0.08627450980392157" />
<path d="M65,-230 L239,-202 L118,-145 L130,-289 L117,-290 L45,-34 Z" stroke-width="0" fill="#f5ffcf" fill-opacity="0.32941176470588235" />
<path d="M176,-113 L212,-295 L182,-307 L34,-114 L79,-202 L224,-151 Z" stroke-width="0" fill="#fbd9ed" fill-opacity="0.03137254901960784" />
<path d="M51,-25 L100,-86 L100,-287 L39,-171 L39,-80 L237,-319 Z" stroke-width="0" fill="#ffcff2" fill-opacity="0.36470588235294116" />
<path d="M234,-31 L173,-204 L248,-319 L70,-235 L79,-224 L40,-214 Z" stroke-width="0" fill="#c7f6c9" fill-opacity="0.01568627450980392" />
<path d="M74,-152 L241,-88 L191,-218 L97,-278 L201,-324 L141,-76 Z" stroke-width="0" fill="#e8e1ef" fill-opacity="0.1607843137254902" />
<path d="M68,-88 L53,-77 L196,-165 L87,-192 L143,-191 L103,-252 Z" stroke-width="0" fill="#c80929" fill-opacity="0.0" />
<path d="M75,-227 L33,-74 L52,-252 L151,-283 L124,-99 L132,-225 Z" stroke-width="0" fill="#d4e1ec" fill-opacity="0.1607843137254902" />
<text x="137.5" y="12.5" font-size="20.0" fill="black" text-anchor="middle" transform="translate(0,5.0)">2 OF FIRE</text>
</svg>