<?xml version="1.0" encoding="UTF-8"?>
<svg xmlns="http://www.w3.org/2000/svg" xmlns:xlink="http://www.w3.org/1999/xlink"
     width="896" height="1496" viewBox="0 -1400 896 1496" style="font-size:70;font-family:Poor Richard, Times New Roman;stroke:black;stroke-width:1;fill:none">
<defs>
</defs>
<path d="M218,-214 L266,-486 L878,-194 L270,-1026 L294,-522 L542,-938 Z" stroke-width="0" fill="#44d224" fill-opacity="0.5882352941176471" />
<path d="M162,-110 L810,-286 L182,-874 L674,-542 L158,-494 L134,-218 Z" stroke-width="0" fill="#007061" fill-opacity="0.7372549019607844" />
<path d="M174,-110 L814,-334 L842,-1138 L550,-562 L742,-902 L694,-922 Z" stroke-width="0" fill="#9bb8ee" fill-opacity="0.8392156862745098" />
<path d="M534,-1014 L842,-822 L562,-906 L662,-710 L166,-1162 L438,-802 Z" stroke-width="0" fill="#033213" fill-opacity="0.8588235294117647" />
<path d="M366,-1154 L302,-318 L454,-150 L634,-214 L226,-90 L194,-234 Z" stroke-width="0" fill="#002ea6" fill-opacity="0.9882352941176471" />
<path d="M918,-418 L458,-366 L434,-394 L350,-734 L918,-1234 L302,-746 Z" stroke-width="0" fill="#afe2e0" fill-opacity="0.023529411764705882" />
<path d="M926,-1078 L906,-342 L290,-202 L170,-494 L506,-1038 L258,-246 Z" stroke-width="0" fill="#9a22dd" fill-opacity="0.6039215686274509" />
<path d="M214,-1046 L482,-1198 L954,-274 L446,-282 L110,-1194 L378,-502 Z" stroke-width="0" fill="#000044" fill-opacity="0.9372549019607843" />
<path d="M666,-866 L366,-338 L722,-502 L518,-782 L266,-998 L910,-110 Z" stroke-width="0" fill="#00289c" fill-opacity="0.984313725490196" />
<path d="M798,-1098 L450,-570 L818,-902 L342,-1002 L950,-438 L590,-586 Z" stroke-width="0" fill="#000003" fill-opacity="0.9921568627450981" />
<path d="M694,-358 L254,-846 L266,-590 L302,-926 L90,-810 L930,-1274 Z" stroke-width="0" fill="#000d8d" fill-opacity="0.8352941176470589" />
<path d="M246,-206 L298,-706 L430,-870 L270,-810 L642,-1114 L162,-310 Z" stroke-width="0" fill="#00001d" fill-opacity="0.8196078431372549" />
<path d="M442,-310 L738,-1066 L462,-810 L430,-118 L502,-966 L722,-162 Z" stroke-width="0" fill="#e9dce6" fill-opacity="0.6784313725490196" />
<path d="M174,-90 L190,-902 L534,-490 L158,-462 L906,-654 L486,-566 Z" stroke-width="0" fill="#0648c3" fill-opacity="0.8470588235294118" />
<path d="M258,-386 L182,-314 L394,-1074 L730,-1122 L574,-786 L546,-1042 Z" stroke-width="0" fill="#cce47c" fill-opacity="0.9568627450980393" />
<path d="M738,-354 L462,-994 L118,-174 L158,-1058 L590,-622 L242,-170 Z" stroke-width="0" fill="#000047" fill-opacity="0.7529411764705882" />
<path d="M798,-538 L218,-1222 L366,-158 L810,-826 L90,-282 L194,-510 Z" stroke-width="0" fill="#17649e" fill-opacity="0.8823529411764706" />
<path d="M190,-318 L650,-834 L294,-850 L298,-558 L970,-1122 L814,-582 Z" stroke-width="0" fill="#0b0079" fill-opacity="0.4549019607843137" />
<path d="M530,-426 L394,-870 L338,-998 L622,-86 L106,-630 L630,-1110 Z" stroke-width="0" fill="#116d4c" fill-opacity="0.9490196078431372" />
<path d="M638,-1238 L386,-1098 L790,-190 L422,-882 L706,-1082 L826,-574 Z" stroke-width="0" fill="#2179b1" fill-opacity="0.6941176470588235" />
<path d="M378,-282 L306,-114 L746,-1250 L422,-194 L742,-218 L926,-146 Z" stroke-width="0" fill="#0026a0" fill-opacity="0.6980392156862745" />
<path d="M158,-1138 L542,-158 L738,-1030 L846,-182 L298,-686 L122,-910 Z" stroke-width="0" fill="#000770" fill-opacity="0.7843137254901961" />
<path d="M442,-198 L882,-1102 L154,-1090 L978,-1218 L714,-978 L766,-182 Z" stroke-width="0" fill="#002bb5" fill-opacity="0.49019607843137253" />
<path d="M738,-102 L874,-230 L126,-662 L734,-1062 L442,-182 L566,-86 Z" stroke-width="0" fill="#003abb" fill-opacity="0.7803921568627451" />
<path d="M486,-734 L134,-934 L522,-550 L606,-138 L970,-274 L442,-418 Z" stroke-width="0" fill="#002361" fill-opacity="0.9176470588235294" />
<path d="M434,-802 L142,-706 L130,-1194 L418,-718 L810,-394 L374,-1238 Z" stroke-width="0" fill="#000038" fill-opacity="0.8980392156862745" />
<path d="M582,-1186 L314,-374 L578,-1054 L162,-286 L606,-442 L94,-614 Z" stroke-width="0" fill="#2a52ad" fill-opacity="0.7803921568627451" />
<path d="M850,-506 L142,-478 L386,-1046 L830,-158 L654,-754 L698,-318 Z" stroke-width="0" fill="#00389c" fill-opacity="0.984313725490196" />
<path d="M474,-106 L350,-134 L822,-986 L130,-766 L710,-838 L442,-298 Z" stroke-width="0" fill="#1791d7" fill-opacity="0.7019607843137254" />
<path d="M258,-650 L374,-694 L474,-1250 L766,-90 L198,-1090 L946,-1246 Z" stroke-width="0" fill="#0a54ca" fill-opacity="0.807843137254902" />
<path d="M754,-934 L634,-322 L94,-1082 L414,-1034 L354,-1114 L438,-690 Z" stroke-width="0" fill="#00344a" fill-opacity="0.8941176470588236" />
<path d="M162,-634 L190,-458 L646,-1198 L962,-442 L946,-754 L278,-1250 Z" stroke-width="0" fill="#00002f" fill-opacity="0.9568627450980393" />
<path d="M450,-1054 L110,-886 L442,-746 L182,-114 L98,-598 L790,-642 Z" stroke-width="0" fill="#185a93" fill-opacity="0.9098039215686274" />
<path d="M534,-490 L202,-302 L170,-202 L854,-514 L610,-934 L162,-606 Z" stroke-width="0" fill="#0960a7" fill-opacity="0.792156862745098" />
<path d="M426,-870 L94,-106 L398,-1170 L470,-578 L594,-194 L678,-502 Z" stroke-width="0" fill="#245890" fill-opacity="0.9254901960784314" />
<path d="M326,-186 L546,-630 L530,-542 L542,-290 L578,-314 L130,-878 Z" stroke-width="0" fill="#166688" fill-opacity="0.9607843137254902" />
<path d="M594,-430 L466,-618 L894,-930 L270,-762 L554,-1002 L810,-410 Z" stroke-width="0" fill="#f45eda" fill-opacity="0.9137254901960784" />
<path d="M174,-178 L382,-402 L754,-610 L722,-742 L570,-1134 L182,-850 Z" stroke-width="0" fill="#62c4f1" fill-opacity="0.9764705882352941" />
<path d="M302,-1122 L970,-382 L90,-406 L306,-862 L310,-550 L718,-910 Z" stroke-width="0" fill="#003a69" fill-opacity="0.6823529411764706" />
<path d="M330,-918 L642,-850 L398,-634 L810,-178 L246,-1158 L242,-814 Z" stroke-width="0" fill="#46c1b1" fill-opacity="0.5176470588235295" />
<path d="M962,-810 L282,-866 L874,-530 L490,-194 L658,-526 L214,-278 Z" stroke-width="0" fill="#b9008d" fill-opacity="0.6078431372549019" />
<path d="M258,-142 L938,-598 L510,-554 L906,-566 L438,-254 L222,-502 Z" stroke-width="0" fill="#00013b" fill-opacity="0.9490196078431372" />
<path d="M626,-638 L518,-846 L902,-238 L946,-450 L798,-1030 L634,-114 Z" stroke-width="0" fill="#000019" fill-opacity="0.8588235294117647" />
<path d="M918,-330 L870,-590 L486,-634 L938,-1042 L546,-526 L618,-470 Z" stroke-width="0" fill="#e917e8" fill-opacity="0.0392156862745098" />
<path d="M218,-1078 L794,-110 L598,-690 L958,-366 L322,-830 L314,-1034 Z" stroke-width="0" fill="#008bf8" fill-opacity="0.9647058823529412" />
<path d="M874,-602 L650,-758 L250,-522 L662,-394 L486,-186 L654,-1098 Z" stroke-width="0" fill="#bbf5cc" fill-opacity="0.9411764705882353" />
<path d="M214,-1034 L266,-498 L338,-462 L350,-158 L374,-1266 L646,-534 Z" stroke-width="0" fill="#091e45" fill-opacity="0.9019607843137255" />
<path d="M718,-1006 L450,-902 L246,-530 L386,-302 L766,-338 L490,-422 Z" stroke-width="0" fill="#056d19" fill-opacity="0.058823529411764705" />
<path d="M310,-458 L314,-550 L674,-254 L494,-594 L182,-802 L802,-118 Z" stroke-width="0" fill="#0c81d0" fill-opacity="0.9294117647058824" />
<path d="M686,-710 L466,-222 L918,-570 L514,-1266 L666,-650 L786,-894 Z" stroke-width="0" fill="#00086c" fill-opacity="0.7764705882352941" />
<path d="M906,-242 L586,-342 L642,-854 L390,-766 L822,-622 L670,-502 Z" stroke-width="0" fill="#001a36" fill-opacity="0.8509803921568627" />
<path d="M526,-322 L726,-1010 L326,-386 L282,-938 L446,-450 L486,-118 Z" stroke-width="0" fill="#658ff4" fill-opacity="0.9607843137254902" />
<path d="M250,-490 L782,-362 L938,-246 L290,-1066 L86,-790 L354,-486 Z" stroke-width="0" fill="#0c5789" fill-opacity="0.8980392156862745" />
<path d="M578,-358 L314,-898 L358,-234 L978,-366 L502,-1026 L326,-342 Z" stroke-width="0" fill="#000000" fill-opacity="0.984313725490196" />
<path d="M730,-490 L618,-866 L398,-782 L582,-466 L406,-606 L966,-846 Z" stroke-width="0" fill="#362546" fill-opacity="0.4549019607843137" />
<path d="M594,-350 L394,-358 L874,-726 L522,-602 L234,-534 L458,-790 Z" stroke-width="0" fill="#38163d" fill-opacity="0.01568627450980392" />
<path d="M406,-994 L574,-1210 L694,-762 L266,-274 L646,-518 L86,-810 Z" stroke-width="0" fill="#205ea6" fill-opacity="0.9411764705882353" />
<path d="M558,-502 L626,-246 L238,-634 L170,-562 L738,-530 L674,-82 Z" stroke-width="0" fill="#0581fc" fill-opacity="0.36470588235294116" />
<path d="M646,-418 L382,-170 L538,-1214 L110,-498 L258,-342 L626,-218 Z" stroke-width="0" fill="#8fcef0" fill-opacity="0.43137254901960786" />
<path d="M766,-206 L386,-406 L398,-314 L290,-1270 L354,-166 L450,-962 Z" stroke-width="0" fill="#004d86" fill-opacity="0.8313725490196079" />
<path d="M278,-954 L706,-582 L150,-1186 L962,-462 L762,-806 L758,-258 Z" stroke-width="0" fill="#000027" fill-opacity="0.8" />
<path d="M326,-1150 L646,-794 L854,-810 L326,-230 L270,-198 L98,-510 Z" stroke-width="0" fill="#3c8ffa" fill-opacity="0.4627450980392157" />
<path d="M414,-350 L510,-698 L562,-98 L534,-478 L626,-606 L750,-806 Z" stroke-width="0" fill="#1da0a8" fill-opacity="0.2235294117647059" />
<path d="M366,-782 L886,-1162 L234,-622 L930,-1206 L82,-134 L562,-646 Z" stroke-width="0" fill="#05219b" fill-opacity="0.6470588235294118" />
<path d="M126,-1078 L634,-946 L486,-362 L282,-162 L282,-598 L794,-814 Z" stroke-width="0" fill="#000118" fill-opacity="0.9137254901960784" />
<path d="M678,-570 L110,-366 L586,-942 L370,-82 L598,-742 L274,-450 Z" stroke-width="0" fill="#2c8ed4" fill-opacity="0.7019607843137254" />
<path d="M606,-770 L506,-754 L594,-898 L174,-318 L510,-266 L614,-742 Z" stroke-width="0" fill="#004d55" fill-opacity="0.01568627450980392" />
<path d="M294,-230 L166,-1194 L942,-538 L910,-178 L134,-138 L182,-674 Z" stroke-width="0" fill="#000da1" fill-opacity="0.4627450980392157" />
<path d="M334,-758 L934,-402 L646,-426 L758,-622 L398,-222 L362,-902 Z" stroke-width="0" fill="#000025" fill-opacity="0.5137254901960784" />
<path d="M626,-278 L430,-1190 L130,-1270 L194,-1122 L802,-946 L686,-418 Z" stroke-width="0" fill="#00002f" fill-opacity="0.8862745098039215" />
<path d="M806,-306 L254,-442 L914,-682 L278,-110 L690,-586 L666,-186 Z" stroke-width="0" fill="#00008a" fill-opacity="0.5333333333333333" />
<path d="M950,-622 L154,-1078 L362,-1106 L322,-1242 L754,-338 L510,-942 Z" stroke-width="0" fill="#379b6e" fill-opacity="0.2549019607843137" />
<path d="M394,-670 L494,-190 L914,-546 L682,-726 L658,-962 L342,-462 Z" stroke-width="0" fill="#000014" fill-opacity="0.5254901960784314" />
<path d="M274,-1082 L214,-1014 L310,-646 L298,-262 L758,-1042 L574,-794 Z" stroke-width="0" fill="#c4feec" fill-opacity="0.27450980392156865" />
<path d="M966,-1278 L422,-742 L418,-454 L646,-118 L430,-886 L314,-162 Z" stroke-width="0" fill="#0078a4" fill-opacity="0.6980392156862745" />
<path d="M298,-466 L958,-326 L622,-438 L930,-578 L578,-822 L706,-298 Z" stroke-width="0" fill="#000049" fill-opacity="0.7333333333333333" />
<path d="M850,-1202 L142,-366 L166,-198 L654,-722 L426,-130 L602,-1018 Z" stroke-width="0" fill="#86a4f6" fill-opacity="0.2" />
<path d="M746,-850 L882,-630 L250,-710 L94,-1026 L790,-922 L850,-542 Z" stroke-width="0" fill="#6bbbf8" fill-opacity="0.27450980392156865" />
<path d="M314,-1026 L698,-1146 L514,-274 L662,-1222 L882,-986 L858,-190 Z" stroke-width="0" fill="#00007f" fill-opacity="0.4745098039215686" />
<path d="M762,-378 L814,-786 L894,-626 L754,-478 L378,-202 L774,-218 Z" stroke-width="0" fill="#000005" fill-opacity="0.5019607843137255" />
<path d="M90,-1246 L902,-898 L394,-158 L738,-1198 L222,-1050 L662,-842 Z" stroke-width="0" fill="#311fa9" fill-opacity="0.43529411764705883" />
<path d="M642,-1262 L810,-234 L242,-574 L782,-814 L606,-1022 L670,-470 Z" stroke-width="0" fill="#001ab7" fill-opacity="0.592156862745098" />
<path d="M754,-534 L254,-490 L558,-602 L390,-462 L482,-198 L978,-1042 Z" stroke-width="0" fill="#00005b" fill-opacity="0.34509803921568627" />
<path d="M326,-534 L750,-1222 L262,-94 L346,-926 L718,-646 L398,-438 Z" stroke-width="0" fill="#000064" fill-opacity="0.32941176470588235" />
<path d="M382,-1078 L314,-222 L590,-614 L386,-554 L958,-234 L358,-154 Z" stroke-width="0" fill="#0044b5" fill-opacity="0.9372549019607843" />
<path d="M926,-942 L402,-994 L750,-614 L826,-302 L394,-318 L450,-166 Z" stroke-width="0" fill="#b71048" fill-opacity="0.00392156862745098" />
<path d="M434,-1102 L886,-1218 L770,-618 L742,-98 L434,-326 L614,-134 Z" stroke-width="0" fill="#0a50bb" fill-opacity="0.796078431372549" />
<path d="M102,-610 L550,-238 L578,-1254 L574,-538 L494,-1110 L518,-1122 Z" stroke-width="0" fill="#00c4db" fill-opacity="0.10196078431372549" />
<path d="M670,-1142 L490,-98 L130,-1070 L638,-178 L522,-514 L734,-1058 Z" stroke-width="0" fill="#afebdc" fill-opacity="0.2901960784313726" />
<path d="M490,-154 L862,-158 L922,-182 L386,-194 L126,-98 L894,-1006 Z" stroke-width="0" fill="#192bab" fill-opacity="0.19607843137254902" />
<path d="M558,-770 L962,-1106 L402,-686 L682,-130 L722,-102 L378,-934 Z" stroke-width="0" fill="#0055d4" fill-opacity="0.5333333333333333" />
<path d="M802,-794 L382,-1186 L706,-834 L822,-158 L518,-338 L554,-634 Z" stroke-width="0" fill="#0015f6" fill-opacity="0.26666666666666666" />
<path d="M774,-1134 L238,-1226 L566,-642 L482,-422 L838,-506 L286,-698 Z" stroke-width="0" fill="#3282b0" fill-opacity="0.4392156862745098" />
<path d="M286,-866 L406,-746 L914,-582 L150,-986 L210,-338 L522,-1126 Z" stroke-width="0" fill="#baedde" fill-opacity="0.2784313725490196" />
<path d="M770,-322 L170,-418 L770,-206 L374,-1222 L338,-418 L410,-1214 Z" stroke-width="0" fill="#2371cb" fill-opacity="0.592156862745098" />
<path d="M710,-482 L446,-1262 L654,-1166 L870,-458 L234,-1270 L594,-154 Z" stroke-width="0" fill="#1252b2" fill-opacity="0.27058823529411763" />
<path d="M170,-1130 L398,-214 L518,-258 L826,-810 L210,-946 L850,-670 Z" stroke-width="0" fill="#0d68d7" fill-opacity="0.44313725490196076" />
<path d="M234,-550 L402,-906 L98,-1134 L882,-546 L658,-1154 L234,-174 Z" stroke-width="0" fill="#00147a" fill-opacity="0.21568627450980393" />
<path d="M706,-754 L818,-238 L454,-646 L846,-382 L230,-1066 L466,-806 Z" stroke-width="0" fill="#0015f5" fill-opacity="0.047058823529411764" />
<path d="M870,-910 L622,-462 L350,-462 L442,-978 L190,-1214 L402,-1078 Z" stroke-width="0" fill="#0100a3" fill-opacity="0.5019607843137255" />
<text x="448.0" y="0" font-size="70.0" fill="black" text-anchor="middle" transform="translate(0,17.5)">9 OF FIRE</text>
</svg>