<?xml version="1.0" encoding="UTF-8"?>
<svg xmlns="http://www.w3.org/2000/svg" xmlns:xlink="http://www.w3.org/1999/xlink"
     width="275" height="375" viewBox="0 -350 275 375">
<defs>
</defs>
<rect x="15" y="-335" width="245" height="320" stroke="black" stroke-width="4" fill="white" />
<path d="M58,-39 L241,-70 L72,-83 L124,-53 L211,-146 L73,-322 Z" stroke-width="0" fill="#000000" fill-opacity="0.9215686274509803" />
<path d="M115,-227 L63,-247 L217,-54 L64,-75 L248,-296 L71,-148 Z" stroke-width="0" fill="#d21d46" fill-opacity="0.011764705882352941" />
<path d="M147,-217 L70,-139 L48,-276 L147,-162 L119,-133 L89,-273 Z" stroke-width="0" fill="#121100" fill-opacity="0.9607843137254902" />
<path d="M112,-267 L169,-161 L36,-149 L39,-196 L175,-112 L140,-202 Z" stroke-width="0" fill="#000000" fill-opacity="0.7333333333333333" />
<path d="M79,-131 L112,-225 L119,-99 L110,-87 L166,-142 L188,-77 Z" stroke-width="0" fill="#5bd2dd" fill-opacity="0.043137254901960784" />
<path d="M205,-210 L187,-144 L28,-146 L88,-140 L220,-196 L99,-148 Z" stroke-width="0" fill="#020000" fill-opacity="0.7843137254901961" />
<path d="M99,-162 L141,-171 L152,-221 L37,-225 L48,-154 L214,-29 Z" stroke-width="0" fill="#020331" fill-opacity="0.9686274509803922" />
<path d="M106,-197 L170,-208 L235,-25 L132,-39 L222,-208 L67,-125 Z" stroke-width="0" fill="#000000" fill-opacity="0.9098039215686274" />
<path d="M43,-317 L225,-174 L130,-260 L48,-242 L177,-103 L72,-90 Z" stroke-width="0" fill="#1b2f1f" fill-opacity="0.9882352941176471" />
<path d="M79,-245 L209,-77 L239,-158 L122,-38 L132,-323 L216,-57 Z" stroke-width="0" fill="#000000" fill-opacity="0.8784313725490196" />
<path d="M185,-319 L112,-268 L230,-142 L54,-242 L200,-229 L189,-312 Z" stroke-width="0" fill="#000004" fill-opacity="0.8627450980392157" />
<path d="M37,-39 L66,-252 L249,-319 L37,-124 L177,-44 L159,-101 Z" stroke-width="0" fill="#03071f" fill-opacity="0.8" />
<path d="M233,-279 L71,-249 L52,-307 L238,-189 L95,-131 L144,-291 Z" stroke-width="0" fill="#fda0ee" fill-opacity="0.9725490196078431" />
<path d="M47,-50 L67,-150 L246,-263 L221,-213 L64,-157 L84,-25 Z" stroke-width="0" fill="#000900" fill-opacity="0.803921568627451" />
<path d="M72,-271 L182,-84 L42,-150 L101,-47 L122,-141 L173,-87 Z" stroke-width="0" fill="#978012" fill-opacity="0.6784313725490196" />
<path d="M26,-312 L152,-200 L95,-254 L229,-158 L140,-37 L61,-254 Z" stroke-width="0" fill="#000000" fill-opacity="0.9411764705882353" />
<path d="M75,-134 L208,-59 L196,-324 L145,-133 L162,-29 L156,-184 Z" stroke-width="0" fill="#54575c" fill-opacity="0.7450980392156863" />
<path d="M172,-107 L38,-74 L137,-179 L33,-178 L229,-100 L97,-127 Z" stroke-width="0" fill="#000027" fill-opacity="0.996078431372549" />
<path d="M86,-175 L227,-211 L107,-75 L30,-323 L176,-243 L161,-270 Z" stroke-width="0" fill="#000000" fill-opacity="0.7686274509803922" />
<path d="M205,-48 L51,-314 L171,-93 L183,-245 L88,-41 L30,-158 Z" stroke-width="0" fill="#000007" fill-opacity="0.9254901960784314" />
<path d="M147,-261 L233,-25 L104,-105 L137,-243 L96,-68 L160,-121 Z" stroke-width="0" fill="#000000" fill-opacity="0.8313725490196079" />
<path d="M89,-88 L99,-223 L212,-247 L72,-279 L109,-191 L61,-27 Z" stroke-width="0" fill="#232615" fill-opacity="0.9607843137254902" />
<path d="M103,-183 L77,-38 L105,-68 L85,-50 L220,-117 L54,-247 Z" stroke-width="0" fill="#627584" fill-opacity="0.7098039215686275" />
<path d="M216,-156 L212,-181 L223,-139 L33,-239 L45,-67 L207,-83 Z" stroke-width="0" fill="#000b2e" fill-opacity="0.9647058823529412" />
<path d="M90,-263 L204,-91 L68,-97 L48,-81 L49,-51 L42,-168 Z" stroke-width="0" fill="#0b19fc" fill-opacity="0.9215686274509803" />
<path d="M55,-222 L183,-306 L76,-128 L125,-175 L157,-60 L173,-239 Z" stroke-width="0" fill="#520e65" fill-opacity="0.1607843137254902" />
<path d="M97,-30 L119,-35 L243,-135 L162,-154 L184,-44 L177,-112 Z" stroke-width="0" fill="#000c33" fill-opacity="0.17254901960784313" />
<path d="M86,-173 L188,-190 L100,-101 L170,-66 L83,-55 L209,-269 Z" stroke-width="0" fill="#01d373" fill-opacity="0.12941176470588237" />
<path d="M134,-188 L207,-35 L40,-267 L129,-62 L167,-292 L58,-210 Z" stroke-width="0" fill="#000004" fill-opacity="0.9686274509803922" />
<path d="M110,-246 L192,-197 L114,-301 L138,-126 L56,-42 L98,-120 Z" stroke-width="0" fill="#170827" fill-opacity="0.9607843137254902" />
<path d="M186,-156 L169,-301 L150,-28 L40,-117 L64,-68 L60,-263 Z" stroke-width="0" fill="#768a9a" fill-opacity="0.3764705882352941" />
<path d="M135,-52 L224,-25 L28,-32 L103,-35 L103,-89 L167,-305 Z" stroke-width="0" fill="#000000" fill-opacity="0.592156862745098" />
<path d="M73,-142 L129,-99 L235,-165 L36,-74 L45,-270 L147,-50 Z" stroke-width="0" fill="#00010f" fill-opacity="0.8823529411764706" />
<path d="M212,-309 L185,-324 L167,-103 L95,-148 L34,-33 L39,-47 Z" stroke-width="0" fill="#0c0410" fill-opacity="0.8509803921568627" />
<path d="M29,-127 L103,-182 L182,-76 L228,-105 L109,-225 L236,-76 Z" stroke-width="0" fill="#00039a" fill-opacity="0.9215686274509803" />
<path d="M182,-72 L221,-50 L113,-295 L67,-211 L202,-82 L83,-54 Z" stroke-width="0" fill="#180c4b" fill-opacity="0.14901960784313725" />
<path d="M96,-260 L88,-26 L77,-253 L200,-146 L231,-70 L127,-206 Z" stroke-width="0" fill="#000000" fill-opacity="0.7372549019607844" />
<path d="M170,-79 L167,-267 L105,-113 L113,-127 L198,-208 L86,-237 Z" stroke-width="0" fill="#2436cf" fill-opacity="0.17647058823529413" />
<path d="M236,-119 L135,-65 L139,-133 L160,-214 L176,-195 L114,-99 Z" stroke-width="0" fill="#6960d8" fill-opacity="0.8901960784313725" />
<path d="M103,-93 L152,-139 L194,-179 L239,-127 L159,-176 L224,-114 Z" stroke-width="0" fill="#090040" fill-opacity="0.8392156862745098" />
<path d="M58,-179 L92,-83 L117,-234 L34,-67 L124,-227 L215,-127 Z" stroke-width="0" fill="#000000" fill-opacity="0.8980392156862745" />
<path d="M142,-308 L60,-305 L121,-241 L45,-317 L120,-90 L124,-167 Z" stroke-width="0" fill="#000002" fill-opacity="0.9215686274509803" />
<path d="M202,-320 L26,-158 L146,-249 L71,-39 L62,-251 L218,-240 Z" stroke-width="0" fill="#0f0d49" fill-opacity="0.8784313725490196" />
<path d="M106,-259 L61,-130 L114,-191 L123,-153 L42,-97 L74,-273 Z" stroke-width="0" fill="#c0a5c1" fill-opacity="0.5294117647058824" />
<path d="M138,-297 L92,-236 L210,-321 L104,-90 L110,-173 L46,-53 Z" stroke-width="0" fill="#1b1f37" fill-opacity="0.7254901960784313" />
<path d="M105,-323 L109,-117 L26,-121 L240,-195 L201,-267 L118,-213 Z" stroke-width="0" fill="#000000" fill-opacity="0.9333333333333333" />
<path d="M89,-76 L99,-120 L30,-225 L187,-293 L244,-101 L136,-180 Z" stroke-width="0" fill="#102b7e" fill-opacity="0.9764705882352941" />
<path d="M97,-186 L95,-285 L102,-210 L229,-41 L231,-243 L55,-67 Z" stroke-width="0" fill="#040018" fill-opacity="0.9764705882352941" />
<path d="M227,-130 L69,-126 L146,-101 L74,-68 L78,-253 L119,-275 Z" stroke-width="0" fill="#0d5d3d" fill-opacity="0.5568627450980392" />
<path d="M106,-262 L106,-104 L92,-166 L74,-69 L187,-230 L234,-139 Z" stroke-width="0" fill="#0d9ae3" fill-opacity="0.5568627450980392" />
<path d="M137,-50 L54,-134 L29,-240 L223,-285 L179,-65 L104,-269 Z" stroke-width="0" fill="#260e2f" fill-opacity="0.9882352941176471" />
<path d="M223,-181 L189,-46 L235,-220 L98,-142 L173,-197 L52,-307 Z" stroke-width="0" fill="#08002e" fill-opacity="0.9333333333333333" />
<path d="M246,-246 L101,-313 L168,-89 L117,-150 L174,-252 L43,-70 Z" stroke-width="0" fill="#001b00" fill-opacity="0.596078431372549" />
<path d="M52,-204 L200,-182 L38,-188 L218,-323 L119,-40 L78,-93 Z" stroke-width="0" fill="#4a5122" fill-opacity="0.6039215686274509" />
<path d="M117,-90 L101,-292 L117,-122 L58,-279 L64,-110 L178,-244 Z" stroke-width="0" fill="#221802" fill-opacity="0.40784313725490196" />
<path d="M81,-133 L32,-224 L130,-113 L45,-115 L46,-41 L175,-150 Z" stroke-width="0" fill="#020554" fill-opacity="0.803921568627451" />
<path d="M77,-124 L113,-306 L28,-232 L89,-160 L26,-91 L211,-277 Z" stroke-width="0" fill="#000000" fill-opacity="0.984313725490196" />
<path d="M59,-69 L110,-99 L114,-156 L40,-75 L187,-102 L59,-105 Z" stroke-width="0" fill="#4dfb29" fill-opacity="0.30980392156862746" />
<path d="M169,-98 L32,-47 L99,-284 L125,-52 L243,-258 L112,-314 Z" stroke-width="0" fill="#1c4001" fill-opacity="0.9803921568627451" />
<path d="M86,-161 L74,-106 L87,-45 L151,-100 L181,-203 L234,-221 Z" stroke-width="0" fill="#fceff8" fill-opacity="0.5019607843137255" />
<path d="M202,-120 L54,-134 L28,-142 L135,-241 L30,-101 L47,-42 Z" stroke-width="0" fill="#130910" fill-opacity="0.9137254901960784" />
<path d="M90,-277 L49,-303 L190,-43 L50,-310 L87,-322 L60,-145 Z" stroke-width="0" fill="#00000b" fill-opacity="1.0" />
<path d="M126,-47 L48,-47 L133,-106 L99,-157 L149,-51 L177,-116 Z" stroke-width="0" fill="#c4816d" fill-opacity="0.3254901960784314" />
<path d="M215,-294 L76,-128 L175,-208 L62,-316 L133,-49 L210,-226 Z" stroke-width="0" fill="#473f20" fill-opacity="0.27450980392156865" />
<path d="M88,-237 L65,-124 L84,-79 L25,-227 L64,-251 L127,-115 Z" stroke-width="0" fill="#00000a" fill-opacity="0.6352941176470588" />
<path d="M28,-254 L93,-75 L195,-254 L78,-92 L174,-187 L157,-299 Z" stroke-width="0" fill="#10000f" fill-opacity="0.996078431372549" />
<path d="M148,-78 L93,-116 L64,-67 L52,-172 L139,-94 L213,-193 Z" stroke-width="0" fill="#e06b78" fill-opacity="0.7450980392156863" />
<path d="M72,-98 L71,-92 L244,-304 L228,-53 L86,-306 L240,-82 Z" stroke-width="0" fill="#000012" fill-opacity="0.7294117647058823" />
<path d="M165,-159 L223,-284 L117,-287 L211,-101 L213,-274 L132,-147 Z" stroke-width="0" fill="#5c53b9" fill-opacity="0.5019607843137255" />
<path d="M238,-214 L55,-172 L169,-100 L201,-182 L73,-294 L233,-94 Z" stroke-width="0" fill="#090817" fill-opacity="0.8941176470588236" />
<path d="M160,-306 L195,-77 L210,-200 L236,-167 L124,-256 L200,-180 Z" stroke-width="0" fill="#240576" fill-opacity="0.43137254901960786" />
<path d="M207,-280 L76,-173 L215,-60 L133,-96 L46,-230 L150,-309 Z" stroke-width="0" fill="#21240d" fill-opacity="0.5019607843137255" />
<path d="M228,-239 L223,-126 L187,-270 L153,-297 L87,-46 L139,-130 Z" stroke-width="0" fill="#466c62" fill-opacity="0.19215686274509805" />
<path d="M36,-209 L144,-56 L245,-285 L35,-275 L64,-147 L58,-306 Z" stroke-width="0" fill="#2f3100" fill-opacity="0.33725490196078434" />
<path d="M137,-44 L95,-130 L190,-127 L140,-150 L186,-221 L82,-40 Z" stroke-width="0" fill="#5f5b7d" fill-opacity="0.803921568627451" />
<path d="M151,-283 L131,-125 L184,-195 L115,-196 L241,-300 L67,-139 Z" stroke-width="0" fill="#32464d" fill-opacity="0.7490196078431373" />
<path d="M214,-209 L31,-266 L201,-45 L234,-196 L143,-143 L177,-181 Z" stroke-width="0" fill="#10000b" fill-opacity="0.8156862745098039" />
<path d="M34,-208 L237,-191 L136,-247 L62,-109 L58,-166 L50,-95 Z" stroke-width="0" fill="#3200cf" fill-opacity="0.13333333333333333" />
<path d="M63,-36 L39,-264 L213,-236 L240,-279 L141,-78 L126,-100 Z" stroke-width="0" fill="#3a6d00" fill-opacity="0.12941176470588237" />
<path d="M202,-176 L137,-297 L97,-260 L129,-269 L246,-263 L116,-110 Z" stroke-width="0" fill="#5c9bce" fill-opacity="0.3254901960784314" />
<path d="M56,-187 L200,-64 L108,-248 L170,-117 L174,-106 L106,-190 Z" stroke-width="0" fill="#3a0cb6" fill-opacity="0.19215686274509805" />
<path d="M46,-211 L36,-165 L45,-204 L210,-271 L103,-39 L80,-168 Z" stroke-width="0" fill="#9bdcdc" fill-opacity="0.13333333333333333" />
<path d="M141,-57 L215,-265 L246,-100 L127,-39 L190,-60 L43,-229 Z" stroke-width="0" fill="#040200" fill-opacity="0.8980392156862745" />
<path d="M49,-164 L175,-96 L241,-257 L167,-248 L135,-323 L53,-245 Z" stroke-width="0" fill="#25101f" fill-opacity="0.8392156862745098" />
<path d="M111,-128 L51,-108 L99,-45 L58,-223 L216,-253 L134,-178 Z" stroke-width="0" fill="#6e77cf" fill-opacity="0.5019607843137255" />
<path d="M39,-118 L127,-301 L249,-46 L147,-73 L27,-33 L59,-45 Z" stroke-width="0" fill="#001501" fill-opacity="0.19215686274509805" />
<path d="M187,-272 L210,-288 L36,-189 L166,-100 L225,-115 L67,-78 Z" stroke-width="0" fill="#05308f" fill-opacity="0.20392156862745098" />
<path d="M184,-89 L165,-156 L165,-173 L141,-248 L85,-318 L26,-105 Z" stroke-width="0" fill="#1b2201" fill-opacity="0.8156862745098039" />
<path d="M107,-152 L234,-68 L213,-259 L66,-74 L109,-78 L127,-266 Z" stroke-width="0" fill="#000208" fill-opacity="0.807843137254902" />
<path d="M154,-47 L172,-306 L188,-121 L208,-160 L197,-30 L141,-145 Z" stroke-width="0" fill="#222e00" fill-opacity="0.3333333333333333" />
<path d="M142,-72 L71,-164 L83,-66 L246,-32 L28,-103 L177,-153 Z" stroke-width="0" fill="#7d9bdd" fill-opacity="0.14901960784313725" />
<path d="M213,-143 L105,-297 L112,-278 L133,-244 L163,-224 L39,-55 Z" stroke-width="0" fill="#4c7b73" fill-opacity="0.7725490196078432" />
<path d="M210,-216 L152,-177 L70,-261 L128,-95 L214,-90 L215,-129 Z" stroke-width="0" fill="#1a2428" fill-opacity="0.5019607843137255" />
<path d="M123,-190 L65,-297 L214,-181 L229,-78 L27,-87 L44,-98 Z" stroke-width="0" fill="#000019" fill-opacity="0.16470588235294117" />
<path d="M166,-243 L119,-164 L48,-37 L143,-108 L84,-277 L244,-166 Z" stroke-width="0" fill="#591f1a" fill-opacity="0.047058823529411764" />
<path d="M113,-172 L147,-312 L74,-138 L54,-80 L40,-128 L110,-110 Z" stroke-width="0" fill="#101927" fill-opacity="0.6392156862745098" />
<path d="M103,-306 L173,-173 L181,-42 L65,-130 L87,-167 L79,-118 Z" stroke-width="0" fill="#a39f8e" fill-opacity="0.49019607843137253" />
<path d="M130,-159 L195,-31 L128,-307 L117,-114 L40,-55 L146,-264 Z" stroke-width="0" fill="#efc8f8" fill-opacity="0.1843137254901961" />
<path d="M126,-38 L85,-199 L144,-104 L61,-28 L30,-291 L112,-255 Z" stroke-width="0" fill="#000f2a" fill-opacity="0.3176470588235294" />
<path d="M87,-174 L29,-148 L237,-291 L124,-145 L25,-241 L34,-85 Z" stroke-width="0" fill="#2a2500" fill-opacity="0.5215686274509804" />
<text x="137.5" y="12.5" font-size="20.0" fill="black" text-anchor="middle" transform="translate(0,5.0)">5 OF FIRE</text>
</svg>