<?xml version="1.0" encoding="UTF-8"?>
<svg xmlns="http://www.w3.org/2000/svg" xmlns:xlink="http://www.w3.org/1999/xlink"
     width="275" height="375" viewBox="0 -350 275 375">
<defs>
</defs>
<rect x="15" y="-335" width="245" height="320" stroke="black" stroke-width="4" fill="white" />
<path d="M145,-181 L34,-43 L164,-182 L98,-187 L83,-40 L193,-118 Z" stroke-width="0" fill="#428fd9" fill-opacity="0.06274509803921569" />
<path d="M111,-223 L172,-249 L175,-129 L46,-74 L143,-212 L175,-241 Z" stroke-width="0" fill="#f7fbba" fill-opacity="0.0392156862745098" />
<path d="M174,-157 L239,-62 L205,-165 L236,-98 L94,-144 L36,-60 Z" stroke-width="0" fill="#ede7a1" fill-opacity="0.027450980392156862" />
<path d="M180,-89 L156,-297 L182,-285 L224,-309 L28,-184 L25,-202 Z" stroke-width="0" fill="#159992" fill-opacity="0.023529411764705882" />
<path d="M99,-227 L154,-113 L171,-146 L176,-197 L165,-39 L83,-230 Z" stroke-width="0" fill="#e1fbd6" fill-opacity="0.050980392156862744" />
<path d="M129,-127 L40,-292 L36,-60 L137,-231 L159,-317 L54,-196 Z" stroke-width="0" fill="#edfef8" fill-opacity="0.03529411764705882" />
<path d="M170,-177 L202,-167 L150,-128 L196,-235 L154,-43 L75,-204 Z" stroke-width="0" fill="#e8de40" fill-opacity="0.023529411764705882" />
<path d="M112,-233 L116,-39 L36,-126 L94,-71 L216,-199 L171,-199 Z" stroke-width="0" fill="#fef796" fill-opacity="0.058823529411764705" />
<path d="M27,-251 L111,-117 L133,-318 L114,-257 L70,-169 L192,-269 Z" stroke-width="0" fill="#f9e8d2" fill-opacity="0.1411764705882353" />
<path d="M32,-208 L196,-164 L206,-311 L95,-255 L201,-175 L159,-48 Z" stroke-width="0" fill="#f6eefe" fill-opacity="0.1450980392156863" />
<path d="M208,-66 L129,-300 L142,-119 L73,-186 L225,-145 L75,-259 Z" stroke-width="0" fill="#bcd160" fill-opacity="0.011764705882352941" />
<path d="M94,-211 L190,-47 L151,-42 L94,-263 L179,-73 L33,-199 Z" stroke-width="0" fill="#09f80f" fill-opacity="0.01568627450980392" />
<path d="M238,-159 L165,-34 L41,-217 L115,-222 L30,-248 L114,-159 Z" stroke-width="0" fill="#ebdbe9" fill-opacity="0.0392156862745098" />
<path d="M41,-237 L231,-32 L187,-140 L159,-254 L213,-182 L191,-240 Z" stroke-width="0" fill="#4c4731" fill-opacity="0.08627450980392157" />
<path d="M184,-170 L79,-62 L102,-37 L206,-236 L222,-267 L62,-183 Z" stroke-width="0" fill="#191801" fill-opacity="0.0392156862745098" />
<path d="M131,-126 L61,-52 L226,-217 L89,-83 L142,-302 L233,-289 Z" stroke-width="0" fill="#e57982" fill-opacity="0.07058823529411765" />
<path d="M205,-58 L106,-52 L241,-32 L194,-77 L240,-276 L200,-115 Z" stroke-width="0" fill="#effcf2" fill-opacity="0.8509803921568627" />
<path d="M214,-223 L202,-251 L147,-245 L96,-69 L89,-233 L174,-237 Z" stroke-width="0" fill="#ffeda9" fill-opacity="0.09803921568627451" />
<path d="M101,-108 L72,-247 L184,-203 L89,-25 L168,-299 L237,-276 Z" stroke-width="0" fill="#f5f7d5" fill-opacity="0.3333333333333333" />
<path d="M164,-71 L42,-135 L186,-305 L46,-31 L51,-69 L191,-102 Z" stroke-width="0" fill="#7dcdef" fill-opacity="0.07450980392156863" />
<path d="M180,-305 L31,-225 L212,-119 L32,-195 L188,-128 L207,-40 Z" stroke-width="0" fill="#8ddac7" fill-opacity="0.07058823529411765" />
<path d="M27,-156 L121,-146 L126,-245 L111,-78 L32,-45 L246,-244 Z" stroke-width="0" fill="#b42ff0" fill-opacity="0.00784313725490196" />
<path d="M80,-229 L105,-145 L25,-209 L58,-314 L32,-135 L83,-259 Z" stroke-width="0" fill="#8feaa0" fill-opacity="0.03137254901960784" />
<path d="M34,-91 L127,-191 L229,-317 L118,-229 L99,-217 L159,-322 Z" stroke-width="0" fill="#d0dcc0" fill-opacity="0.2" />
<path d="M146,-137 L214,-44 L170,-87 L52,-51 L37,-85 L178,-189 Z" stroke-width="0" fill="#f8e691" fill-opacity="0.12549019607843137" />
<path d="M31,-214 L171,-176 L66,-210 L147,-266 L115,-287 L170,-181 Z" stroke-width="0" fill="#e2bef8" fill-opacity="0.09019607843137255" />
<path d="M244,-164 L48,-199 L215,-161 L208,-176 L30,-83 L113,-193 Z" stroke-width="0" fill="#fceef3" fill-opacity="0.07450980392156863" />
<path d="M29,-259 L28,-133 L25,-41 L95,-77 L228,-276 L207,-53 Z" stroke-width="0" fill="#bf9893" fill-opacity="0.13725490196078433" />
<path d="M170,-300 L75,-70 L247,-243 L130,-261 L134,-93 L27,-115 Z" stroke-width="0" fill="#e2b590" fill-opacity="0.1411764705882353" />
<path d="M223,-102 L114,-75 L214,-283 L89,-267 L156,-62 L85,-221 Z" stroke-width="0" fill="#edf5e3" fill-opacity="0.18823529411764706" />
<path d="M48,-115 L168,-302 L93,-151 L114,-87 L177,-161 L199,-243 Z" stroke-width="0" fill="#ffeee6" fill-opacity="0.8901960784313725" />
<path d="M125,-152 L136,-55 L201,-66 L97,-240 L60,-36 L196,-144 Z" stroke-width="0" fill="#c0ba2d" fill-opacity="0.00784313725490196" />
<path d="M211,-237 L129,-62 L52,-299 L237,-127 L121,-106 L137,-294 Z" stroke-width="0" fill="#efedec" fill-opacity="0.01568627450980392" />
<path d="M221,-102 L234,-218 L64,-54 L214,-42 L76,-266 L98,-62 Z" stroke-width="0" fill="#e9e3e1" fill-opacity="0.058823529411764705" />
<path d="M55,-224 L56,-43 L36,-189 L74,-234 L237,-284 L157,-188 Z" stroke-width="0" fill="#f1acfc" fill-opacity="0.16862745098039217" />
<path d="M163,-171 L230,-63 L93,-199 L171,-309 L78,-121 L36,-103 Z" stroke-width="0" fill="#ead0c5" fill-opacity="0.011764705882352941" />
<path d="M91,-135 L98,-52 L54,-324 L203,-262 L200,-320 L103,-179 Z" stroke-width="0" fill="#417e74" fill-opacity="0.07450980392156863" />
<path d="M86,-92 L119,-87 L227,-75 L135,-237 L169,-145 L117,-308 Z" stroke-width="0" fill="#81d6a6" fill-opacity="0.047058823529411764" />
<path d="M242,-165 L34,-58 L72,-297 L98,-38 L26,-283 L119,-33 Z" stroke-width="0" fill="#e1f7e5" fill-opacity="0.27450980392156865" />
<path d="M40,-116 L248,-56 L249,-217 L187,-32 L26,-205 L181,-233 Z" stroke-width="0" fill="#d6e7ee" fill-opacity="0.5019607843137255" />
<path d="M37,-60 L97,-76 L58,-39 L103,-265 L93,-236 L155,-106 Z" stroke-width="0" fill="#f86d73" fill-opacity="0.0" />
<path d="M189,-220 L164,-299 L216,-123 L47,-78 L36,-28 L108,-87 Z" stroke-width="0" fill="#dde5ea" fill-opacity="0.4196078431372549" />
<path d="M175,-165 L231,-51 L139,-146 L159,-321 L207,-230 L188,-142 Z" stroke-width="0" fill="#4dcfc7" fill-opacity="0.054901960784313725" />
<path d="M164,-103 L240,-218 L80,-136 L76,-281 L233,-181 L234,-142 Z" stroke-width="0" fill="#fef9ee" fill-opacity="0.9882352941176471" />
<path d="M29,-309 L102,-64 L201,-108 L244,-84 L43,-270 L167,-244 Z" stroke-width="0" fill="#efe3e4" fill-opacity="0.42745098039215684" />
<path d="M149,-165 L219,-181 L159,-88 L168,-160 L70,-269 L170,-71 Z" stroke-width="0" fill="#fbfbf5" fill-opacity="0.08235294117647059" />
<path d="M197,-261 L128,-231 L104,-34 L62,-80 L29,-108 L113,-166 Z" stroke-width="0" fill="#ebe6fe" fill-opacity="0.26666666666666666" />
<path d="M120,-35 L74,-160 L130,-49 L27,-255 L138,-151 L195,-254 Z" stroke-width="0" fill="#f3f2ff" fill-opacity="0.8705882352941177" />
<path d="M189,-60 L203,-198 L195,-92 L135,-165 L191,-191 L67,-219 Z" stroke-width="0" fill="#fff4ef" fill-opacity="0.054901960784313725" />
<path d="M27,-220 L162,-205 L197,-179 L181,-289 L216,-262 L193,-314 Z" stroke-width="0" fill="#f2eeae" fill-opacity="0.5215686274509804" />
<path d="M219,-55 L157,-76 L192,-97 L217,-210 L83,-28 L136,-182 Z" stroke-width="0" fill="#fff7f5" fill-opacity="0.611764705882353" />
<path d="M148,-66 L165,-179 L88,-80 L125,-100 L26,-168 L167,-84 Z" stroke-width="0" fill="#fcebc6" fill-opacity="0.03137254901960784" />
<path d="M60,-180 L78,-207 L227,-302 L42,-190 L101,-302 L73,-321 Z" stroke-width="0" fill="#bcaebe" fill-opacity="0.10196078431372549" />
<path d="M29,-94 L140,-125 L168,-93 L190,-190 L181,-297 L31,-123 Z" stroke-width="0" fill="#f5ecd2" fill-opacity="0.043137254901960784" />
<path d="M77,-193 L47,-103 L98,-302 L109,-177 L148,-76 L86,-166 Z" stroke-width="0" fill="#f094bd" fill-opacity="0.054901960784313725" />
<path d="M225,-207 L236,-166 L107,-176 L77,-56 L96,-149 L182,-248 Z" stroke-width="0" fill="#eaf3f3" fill-opacity="0.00392156862745098" />
<path d="M177,-175 L101,-136 L84,-78 L199,-131 L115,-276 L230,-253 Z" stroke-width="0" fill="#9fe5f1" fill-opacity="0.19215686274509805" />
<path d="M80,-85 L108,-171 L78,-131 L65,-89 L37,-268 L211,-70 Z" stroke-width="0" fill="#eefaf0" fill-opacity="0.6823529411764706" />
<path d="M36,-311 L48,-140 L176,-32 L149,-44 L200,-304 L82,-75 Z" stroke-width="0" fill="#e0cfd6" fill-opacity="0.011764705882352941" />
<path d="M122,-186 L105,-240 L193,-105 L87,-194 L63,-122 L66,-192 Z" stroke-width="0" fill="#cdeefb" fill-opacity="0.10588235294117647" />
<path d="M45,-239 L85,-115 L87,-203 L43,-77 L214,-159 L231,-284 Z" stroke-width="0" fill="#b8e8fc" fill-opacity="0.12941176470588237" />
<path d="M56,-255 L43,-60 L30,-34 L141,-191 L186,-261 L85,-286 Z" stroke-width="0" fill="#f4fcf6" fill-opacity="0.7568627450980392" />
<path d="M158,-290 L130,-76 L111,-216 L112,-51 L126,-310 L80,-88 Z" stroke-width="0" fill="#e0dfeb" fill-opacity="0.16470588235294117" />
<path d="M97,-212 L62,-66 L115,-72 L226,-292 L108,-79 L136,-179 Z" stroke-width="0" fill="#d605ab" fill-opacity="0.0" />
<path d="M203,-286 L86,-263 L129,-225 L83,-206 L115,-75 L175,-117 Z" stroke-width="0" fill="#d3e1ff" fill-opacity="0.01568627450980392" />
<path d="M197,-97 L98,-137 L231,-195 L112,-35 L103,-105 L114,-121 Z" stroke-width="0" fill="#f9dbf8" fill-opacity="0.6313725490196078" />
<path d="M118,-140 L69,-60 L126,-156 L176,-163 L174,-285 L177,-259 Z" stroke-width="0" fill="#efecc7" fill-opacity="0.08627450980392157" />
<path d="M206,-112 L144,-314 L227,-77 L153,-86 L157,-263 L196,-120 Z" stroke-width="0" fill="#fdd5f7" fill-opacity="0.5372549019607843" />
<path d="M107,-197 L115,-244 L170,-134 L230,-57 L162,-212 L133,-282 Z" stroke-width="0" fill="#edc7f0" fill-opacity="0.13725490196078433" />
<path d="M219,-84 L197,-142 L128,-308 L76,-103 L147,-225 L85,-108 Z" stroke-width="0" fill="#ddfbd9" fill-opacity="0.14901960784313725" />
<path d="M88,-171 L63,-83 L236,-55 L249,-79 L88,-119 L145,-27 Z" stroke-width="0" fill="#eff7c4" fill-opacity="0.03529411764705882" />
<path d="M56,-205 L115,-143 L133,-154 L145,-130 L92,-180 L88,-248 Z" stroke-width="0" fill="#cfe5f8" fill-opacity="0.043137254901960784" />
<path d="M53,-255 L150,-79 L29,-133 L48,-322 L171,-176 L193,-245 Z" stroke-width="0" fill="#def2ce" fill-opacity="0.11372549019607843" />
<path d="M158,-68 L199,-173 L49,-188 L96,-116 L77,-230 L239,-62 Z" stroke-width="0" fill="#f8fbdc" fill-opacity="0.403921568627451" />
<path d="M86,-309 L103,-160 L42,-64 L169,-60 L99,-291 L115,-71 Z" stroke-width="0" fill="#d6c5e7" fill-opacity="0.043137254901960784" />
<path d="M190,-55 L209,-266 L246,-263 L190,-100 L148,-256 L46,-191 Z" stroke-width="0" fill="#ffdee2" fill-opacity="0.0392156862745098" />
<path d="M165,-258 L33,-32 L32,-72 L145,-214 L101,-296 L168,-244 Z" stroke-width="0" fill="#d5e0b9" fill-opacity="0.047058823529411764" />
<path d="M65,-176 L161,-104 L190,-143 L176,-150 L168,-203 L132,-122 Z" stroke-width="0" fill="#dbeae8" fill-opacity="0.42745098039215684" />
<path d="M42,-43 L183,-123 L156,-41 L37,-88 L76,-138 L126,-146 Z" stroke-width="0" fill="#e6f5eb" fill-opacity="0.19215686274509805" />
<path d="M125,-207 L212,-110 L244,-237 L202,-92 L47,-131 L109,-81 Z" stroke-width="0" fill="#b7b4fb" fill-opacity="0.00784313725490196" />
<path d="M183,-180 L57,-139 L56,-46 L59,-178 L212,-107 L118,-41 Z" stroke-width="0" fill="#d6dffb" fill-opacity="0.1803921568627451" />
<path d="M48,-73 L161,-71 L36,-227 L153,-201 L210,-249 L181,-227 Z" stroke-width="0" fill="#e6eafe" fill-opacity="0.14901960784313725" />
<path d="M161,-277 L62,-32 L28,-141 L72,-29 L151,-155 L76,-77 Z" stroke-width="0" fill="#d0f5ca" fill-opacity="0.18823529411764706" />
<path d="M207,-142 L83,-248 L216,-246 L152,-223 L163,-238 L119,-229 Z" stroke-width="0" fill="#c2eced" fill-opacity="0.09411764705882353" />
<path d="M156,-45 L106,-205 L170,-291 L138,-258 L234,-275 L82,-260 Z" stroke-width="0" fill="#c2aaf6" fill-opacity="0.0392156862745098" />
<path d="M135,-52 L107,-234 L223,-173 L172,-266 L67,-148 L217,-174 Z" stroke-width="0" fill="#e6fbfd" fill-opacity="0.6274509803921569" />
<path d="M206,-142 L105,-29 L203,-320 L244,-118 L66,-138 L161,-52 Z" stroke-width="0" fill="#c4d2d1" fill-opacity="0.058823529411764705" />
<path d="M58,-183 L100,-209 L75,-96 L132,-126 L146,-126 L36,-210 Z" stroke-width="0" fill="#f0fdec" fill-opacity="0.5019607843137255" />
<path d="M25,-102 L176,-106 L74,-131 L209,-137 L232,-45 L155,-272 Z" stroke-width="0" fill="#e3c7dd" fill-opacity="0.00784313725490196" />
<path d="M51,-304 L61,-234 L70,-254 L229,-296 L212,-54 L210,-198 Z" stroke-width="0" fill="#e7fcfc" fill-opacity="0.41568627450980394" />
<path d="M158,-187 L39,-201 L210,-176 L187,-152 L95,-60 L177,-67 Z" stroke-width="0" fill="#d5f2ec" fill-opacity="0.4627450980392157" />
<path d="M173,-69 L249,-104 L174,-196 L55,-251 L162,-222 L135,-267 Z" stroke-width="0" fill="#dce8d4" fill-opacity="0.34509803921568627" />
<path d="M222,-213 L120,-171 L146,-97 L78,-99 L173,-220 L97,-102 Z" stroke-width="0" fill="#d2f4ae" fill-opacity="0.07058823529411765" />
<path d="M79,-31 L152,-59 L38,-39 L166,-43 L143,-213 L104,-317 Z" stroke-width="0" fill="#819b77" fill-opacity="0.0" />
<path d="M167,-77 L71,-41 L168,-116 L26,-258 L56,-192 L113,-75 Z" stroke-width="0" fill="#beffb2" fill-opacity="0.06666666666666667" />
<path d="M186,-281 L74,-35 L90,-120 L127,-239 L70,-177 L43,-301 Z" stroke-width="0" fill="#fee0f3" fill-opacity="0.23529411764705882" />
<path d="M187,-240 L132,-63 L226,-33 L124,-287 L87,-48 L38,-200 Z" stroke-width="0" fill="#fdccf0" fill-opacity="0.27058823529411763" />
<path d="M212,-25 L45,-93 L185,-239 L97,-211 L30,-35 L134,-297 Z" stroke-width="0" fill="#e2f8f4" fill-opacity="0.050980392156862744" />
<path d="M78,-102 L99,-78 L151,-43 L146,-238 L145,-309 L211,-137 Z" stroke-width="0" fill="#ebc2fd" fill-opacity="0.0392156862745098" />
<path d="M27,-68 L45,-313 L150,-126 L99,-209 L105,-43 L159,-213 Z" stroke-width="0" fill="#b4dffb" fill-opacity="0.08627450980392157" />
<text x="137.5" y="12.5" font-size="20.0" fill="black" text-anchor="middle" transform="translate(0,5.0)">QUEEN OF FIRE</text>
</svg>