<?xml version="1.0" encoding="UTF-8"?>
<svg xmlns="http://www.w3.org/2000/svg" xmlns:xlink="http://www.w3.org/1999/xlink"
     width="896" height="1496" viewBox="0 -1400 896 1496" style="font-size:70;font-family:Poor Richard, Times New Roman;stroke:black;stroke-width:1;fill:none">
<defs>
</defs>
<path d="M474,-1198 L498,-1282 L310,-526 L238,-126 L650,-590 L758,-86 Z" stroke-width="0" fill="#f7f3e7" fill-opacity="0.12156862745098039" />
<path d="M118,-1206 L194,-198 L86,-290 L174,-1014 L598,-1126 L674,-310 Z" stroke-width="0" fill="#b6c5b2" fill-opacity="0.1803921568627451" />
<path d="M210,-106 L90,-878 L634,-246 L754,-790 L370,-378 L86,-454 Z" stroke-width="0" fill="#9fc665" fill-opacity="0.023529411764705882" />
<path d="M250,-550 L342,-710 L574,-1146 L626,-454 L706,-118 L518,-538 Z" stroke-width="0" fill="#f939df" fill-opacity="0.06274509803921569" />
<path d="M782,-406 L138,-414 L506,-562 L778,-1262 L598,-1234 L462,-1286 Z" stroke-width="0" fill="#5e229c" fill-opacity="0.06274509803921569" />
<path d="M370,-998 L578,-822 L490,-626 L542,-942 L326,-618 L166,-526 Z" stroke-width="0" fill="#c2fee5" fill-opacity="0.0784313725490196" />
<path d="M702,-1198 L586,-206 L182,-906 L266,-1190 L346,-150 L794,-334 Z" stroke-width="0" fill="#30d426" fill-opacity="0.058823529411764705" />
<path d="M566,-774 L798,-170 L650,-1294 L406,-1118 L494,-610 L782,-1074 Z" stroke-width="0" fill="#eafeea" fill-opacity="0.0392156862745098" />
<path d="M766,-818 L602,-478 L190,-678 L158,-278 L702,-942 L486,-1310 Z" stroke-width="0" fill="#dfe8ee" fill-opacity="0.10980392156862745" />
<path d="M170,-1242 L426,-530 L222,-710 L126,-310 L118,-1102 L474,-926 Z" stroke-width="0" fill="#dcdde7" fill-opacity="0.06666666666666667" />
<path d="M714,-1198 L586,-266 L714,-1266 L330,-718 L258,-1302 L690,-1294 Z" stroke-width="0" fill="#ddecd9" fill-opacity="0.30196078431372547" />
<path d="M598,-470 L802,-1250 L174,-302 L274,-294 L314,-910 L282,-406 Z" stroke-width="0" fill="#dfaebc" fill-opacity="0.3843137254901961" />
<path d="M450,-1094 L222,-1246 L230,-314 L514,-178 L598,-118 L746,-946 Z" stroke-width="0" fill="#dfddea" fill-opacity="0.3764705882352941" />
<path d="M162,-1162 L542,-114 L578,-170 L738,-682 L370,-778 L750,-622 Z" stroke-width="0" fill="#87db7b" fill-opacity="0.00392156862745098" />
<path d="M606,-150 L730,-570 L162,-202 L366,-326 L242,-726 L490,-90 Z" stroke-width="0" fill="#d0bdf3" fill-opacity="0.10196078431372549" />
<path d="M698,-834 L434,-498 L662,-1246 L378,-114 L146,-630 L182,-922 Z" stroke-width="0" fill="#fbf6f6" fill-opacity="0.047058823529411764" />
<path d="M382,-230 L778,-198 L398,-706 L474,-318 L350,-854 L298,-614 Z" stroke-width="0" fill="#ffe6a8" fill-opacity="0.27058823529411763" />
<path d="M182,-406 L714,-890 L662,-738 L198,-1066 L566,-674 L286,-986 Z" stroke-width="0" fill="#bce32d" fill-opacity="0.0" />
<path d="M254,-1158 L198,-414 L782,-1182 L622,-246 L278,-986 L306,-1022 Z" stroke-width="0" fill="#d2eef3" fill-opacity="0.45098039215686275" />
<path d="M490,-330 L254,-1150 L686,-898 L638,-610 L410,-1298 L414,-1082 Z" stroke-width="0" fill="#667dbb" fill-opacity="0.08235294117647059" />
<path d="M286,-254 L494,-482 L330,-322 L398,-1234 L546,-1262 L622,-1174 Z" stroke-width="0" fill="#73ad8d" fill-opacity="0.00392156862745098" />
<path d="M150,-842 L166,-862 L178,-398 L626,-670 L262,-114 L142,-1162 Z" stroke-width="0" fill="#f8fbde" fill-opacity="0.11764705882352941" />
<path d="M418,-442 L158,-358 L742,-278 L410,-762 L730,-562 L810,-614 Z" stroke-width="0" fill="#ffe359" fill-opacity="0.10980392156862745" />
<path d="M546,-1070 L326,-282 L326,-470 L590,-1086 L302,-598 L554,-434 Z" stroke-width="0" fill="#e81ab1" fill-opacity="0.8549019607843137" />
<path d="M138,-814 L554,-258 L242,-890 L706,-674 L722,-1290 L86,-826 Z" stroke-width="0" fill="#5314b9" fill-opacity="0.0" />
<path d="M126,-142 L358,-230 L214,-986 L362,-518 L678,-690 L314,-422 Z" stroke-width="0" fill="#caee64" fill-opacity="0.0392156862745098" />
<path d="M282,-1082 L550,-1086 L542,-834 L242,-1202 L594,-838 L422,-334 Z" stroke-width="0" fill="#7348e9" fill-opacity="0.0" />
<path d="M238,-266 L258,-190 L290,-918 L226,-234 L354,-662 L542,-402 Z" stroke-width="0" fill="#f5e2c2" fill-opacity="0.027450980392156862" />
<path d="M170,-386 L238,-850 L802,-578 L402,-118 L330,-254 L202,-622 Z" stroke-width="0" fill="#faf2f5" fill-opacity="0.5490196078431373" />
<path d="M506,-170 L306,-318 L286,-82 L330,-410 L458,-1270 L658,-846 Z" stroke-width="0" fill="#e9edfd" fill-opacity="0.13725490196078433" />
<path d="M146,-622 L498,-654 L202,-258 L778,-962 L94,-1226 L98,-730 Z" stroke-width="0" fill="#566463" fill-opacity="0.07450980392156863" />
<path d="M686,-810 L430,-1190 L282,-702 L398,-1194 L522,-102 L354,-638 Z" stroke-width="0" fill="#f3f1b4" fill-opacity="0.12549019607843137" />
<path d="M698,-110 L734,-882 L154,-250 L282,-970 L390,-1250 L450,-206 Z" stroke-width="0" fill="#e6fbfa" fill-opacity="0.5647058823529412" />
<path d="M746,-458 L530,-478 L398,-946 L662,-510 L282,-778 L162,-890 Z" stroke-width="0" fill="#d4d7b7" fill-opacity="0.043137254901960784" />
<path d="M534,-594 L674,-794 L270,-518 L178,-186 L774,-238 L234,-198 Z" stroke-width="0" fill="#f0dca2" fill-opacity="0.10196078431372549" />
<path d="M466,-494 L502,-406 L286,-1250 L234,-474 L378,-590 L198,-946 Z" stroke-width="0" fill="#ed75e7" fill-opacity="0.12156862745098039" />
<path d="M618,-526 L574,-910 L454,-1158 L298,-1038 L194,-1226 L614,-546 Z" stroke-width="0" fill="#f2f0ff" fill-opacity="0.5725490196078431" />
<path d="M138,-242 L222,-666 L246,-1302 L162,-1114 L770,-450 L674,-954 Z" stroke-width="0" fill="#bac38d" fill-opacity="0.12549019607843137" />
<path d="M326,-934 L674,-386 L426,-426 L462,-170 L382,-278 L454,-786 Z" stroke-width="0" fill="#efe1d6" fill-opacity="0.03137254901960784" />
<path d="M506,-446 L778,-182 L190,-466 L198,-954 L674,-842 L430,-738 Z" stroke-width="0" fill="#e4ed5e" fill-opacity="0.011764705882352941" />
<path d="M754,-1210 L306,-1062 L578,-642 L306,-970 L254,-870 L214,-810 Z" stroke-width="0" fill="#9d81e0" fill-opacity="0.00784313725490196" />
<path d="M398,-1046 L478,-350 L714,-522 L754,-798 L138,-870 L514,-930 Z" stroke-width="0" fill="#c6b3d6" fill-opacity="0.7411764705882353" />
<path d="M378,-1046 L214,-1074 L162,-646 L550,-1142 L94,-714 L362,-86 Z" stroke-width="0" fill="#fcb4ef" fill-opacity="0.050980392156862744" />
<path d="M582,-1078 L542,-546 L802,-574 L278,-982 L382,-978 L730,-218 Z" stroke-width="0" fill="#e7b87e" fill-opacity="0.06666666666666667" />
<path d="M198,-82 L238,-1266 L206,-290 L94,-510 L602,-990 L278,-442 Z" stroke-width="0" fill="#e9dde4" fill-opacity="0.20392156862745098" />
<path d="M790,-534 L390,-582 L550,-142 L310,-178 L410,-210 L638,-982 Z" stroke-width="0" fill="#d0b9bd" fill-opacity="0.10196078431372549" />
<path d="M182,-426 L186,-286 L750,-618 L510,-154 L738,-226 L798,-138 Z" stroke-width="0" fill="#effddc" fill-opacity="0.41568627450980394" />
<path d="M758,-466 L498,-786 L330,-462 L262,-262 L322,-550 L630,-846 Z" stroke-width="0" fill="#f062a9" fill-opacity="0.14901960784313725" />
<path d="M690,-1074 L314,-330 L466,-186 L642,-846 L522,-874 L138,-130 Z" stroke-width="0" fill="#f2f8eb" fill-opacity="0.8666666666666667" />
<path d="M746,-830 L502,-298 L462,-554 L222,-970 L90,-962 L378,-470 Z" stroke-width="0" fill="#f8ebf7" fill-opacity="0.615686274509804" />
<path d="M386,-458 L730,-298 L282,-1262 L630,-1166 L210,-794 L418,-286 Z" stroke-width="0" fill="#f5c2eb" fill-opacity="0.03137254901960784" />
<path d="M242,-846 L686,-598 L466,-130 L322,-534 L138,-1186 L150,-650 Z" stroke-width="0" fill="#dee8fb" fill-opacity="0.03137254901960784" />
<path d="M618,-682 L330,-698 L166,-1034 L518,-1182 L446,-1298 L362,-166 Z" stroke-width="0" fill="#849c81" fill-opacity="0.06274509803921569" />
<path d="M306,-378 L290,-586 L774,-230 L282,-306 L506,-1278 L110,-1114 Z" stroke-width="0" fill="#fff6f8" fill-opacity="0.2196078431372549" />
<path d="M594,-1070 L222,-1042 L190,-610 L110,-798 L370,-1186 L658,-98 Z" stroke-width="0" fill="#ffecfc" fill-opacity="0.16862745098039217" />
<path d="M438,-134 L498,-958 L666,-902 L250,-390 L530,-870 L442,-602 Z" stroke-width="0" fill="#fd3ffb" fill-opacity="0.14901960784313725" />
<path d="M658,-122 L578,-706 L174,-246 L742,-994 L806,-270 L274,-546 Z" stroke-width="0" fill="#6d1f3e" fill-opacity="0.03137254901960784" />
<path d="M186,-482 L182,-370 L410,-778 L254,-1002 L618,-1094 L338,-798 Z" stroke-width="0" fill="#e9d8f6" fill-opacity="0.6313725490196078" />
<path d="M162,-286 L422,-242 L782,-986 L730,-122 L370,-854 L114,-1194 Z" stroke-width="0" fill="#0fc2d5" fill-opacity="0.0" />
<path d="M318,-906 L330,-150 L374,-830 L342,-1274 L162,-994 L426,-1278 Z" stroke-width="0" fill="#e9e7cc" fill-opacity="0.13333333333333333" />
<path d="M102,-222 L546,-642 L454,-1006 L510,-98 L682,-858 L738,-866 Z" stroke-width="0" fill="#2cac55" fill-opacity="0.0" />
<path d="M570,-198 L218,-86 L206,-98 L562,-546 L142,-194 L478,-338 Z" stroke-width="0" fill="#dffdd7" fill-opacity="0.4117647058823529" />
<path d="M726,-1106 L190,-726 L510,-930 L794,-914 L578,-354 L230,-1194 Z" stroke-width="0" fill="#e6efc7" fill-opacity="0.10980392156862745" />
<path d="M538,-510 L518,-554 L258,-414 L218,-378 L334,-290 L450,-666 Z" stroke-width="0" fill="#e1f785" fill-opacity="0.2901960784313726" />
<path d="M622,-366 L686,-314 L382,-998 L466,-454 L558,-1254 L490,-194 Z" stroke-width="0" fill="#faddd6" fill-opacity="0.03137254901960784" />
<path d="M306,-458 L106,-690 L454,-170 L294,-306 L706,-534 L266,-550 Z" stroke-width="0" fill="#e8f9f9" fill-opacity="0.03137254901960784" />
<path d="M774,-258 L694,-878 L754,-742 L162,-918 L682,-430 L470,-538 Z" stroke-width="0" fill="#daf5f1" fill-opacity="0.2627450980392157" />
<path d="M782,-82 L230,-454 L218,-1086 L614,-694 L242,-798 L542,-582 Z" stroke-width="0" fill="#dba944" fill-opacity="0.0196078431372549" />
<path d="M370,-502 L138,-1118 L318,-230 L358,-794 L298,-742 L690,-290 Z" stroke-width="0" fill="#eaefbf" fill-opacity="0.23137254901960785" />
<path d="M414,-678 L758,-874 L142,-594 L310,-830 L446,-1130 L250,-198 Z" stroke-width="0" fill="#71fde0" fill-opacity="0.043137254901960784" />
<path d="M390,-1062 L482,-214 L282,-90 L510,-1002 L198,-746 L482,-962 Z" stroke-width="0" fill="#f3d3d1" fill-opacity="0.16862745098039217" />
<path d="M522,-842 L482,-230 L338,-286 L122,-1146 L458,-1006 L270,-442 Z" stroke-width="0" fill="#f9f3fd" fill-opacity="0.5254901960784314" />
<path d="M498,-238 L686,-1014 L106,-650 L574,-778 L526,-726 L594,-678 Z" stroke-width="0" fill="#e0f4f3" fill-opacity="0.5529411764705883" />
<path d="M334,-86 L622,-1054 L690,-1078 L154,-510 L742,-1054 L606,-562 Z" stroke-width="0" fill="#d61d85" fill-opacity="0.03529411764705882" />
<path d="M526,-202 L86,-1278 L130,-650 L250,-730 L334,-302 L458,-602 Z" stroke-width="0" fill="#dfd5d9" fill-opacity="0.11764705882352941" />
<path d="M390,-222 L142,-1110 L794,-278 L618,-138 L210,-298 L454,-630 Z" stroke-width="0" fill="#f1c257" fill-opacity="0.054901960784313725" />
<path d="M486,-326 L402,-1210 L546,-742 L322,-570 L578,-750 L666,-550 Z" stroke-width="0" fill="#f5f0fd" fill-opacity="0.36470588235294116" />
<path d="M306,-854 L182,-1078 L246,-1118 L650,-402 L202,-134 L138,-218 Z" stroke-width="0" fill="#f5caed" fill-opacity="0.24705882352941178" />
<path d="M506,-1106 L254,-774 L514,-314 L786,-1158 L366,-1034 L142,-342 Z" stroke-width="0" fill="#f2fdf1" fill-opacity="0.7058823529411765" />
<path d="M294,-886 L550,-142 L130,-1070 L282,-286 L122,-1130 L394,-742 Z" stroke-width="0" fill="#dcfdce" fill-opacity="0.01568627450980392" />
<path d="M782,-418 L214,-122 L306,-294 L474,-1274 L446,-698 L306,-674 Z" stroke-width="0" fill="#fddd94" fill-opacity="0.16470588235294117" />
<path d="M658,-1062 L462,-1262 L190,-726 L370,-1062 L586,-798 L582,-210 Z" stroke-width="0" fill="#fa39cb" fill-opacity="0.023529411764705882" />
<path d="M222,-802 L110,-310 L638,-1006 L294,-130 L562,-422 L270,-1070 Z" stroke-width="0" fill="#fffbd5" fill-opacity="0.2823529411764706" />
<path d="M466,-198 L582,-186 L274,-530 L86,-214 L502,-302 L270,-234 Z" stroke-width="0" fill="#ddfefc" fill-opacity="0.01568627450980392" />
<path d="M614,-302 L414,-162 L178,-466 L242,-410 L154,-102 L206,-722 Z" stroke-width="0" fill="#f196f6" fill-opacity="0.11764705882352941" />
<path d="M798,-882 L786,-238 L126,-546 L242,-482 L462,-206 L762,-1190 Z" stroke-width="0" fill="#f7e0f7" fill-opacity="0.39215686274509803" />
<path d="M142,-826 L750,-734 L698,-502 L226,-194 L666,-638 L454,-918 Z" stroke-width="0" fill="#eeedf7" fill-opacity="0.5843137254901961" />
<path d="M162,-338 L418,-138 L474,-270 L802,-110 L318,-330 L778,-466 Z" stroke-width="0" fill="#e5c9fb" fill-opacity="0.0784313725490196" />
<path d="M574,-1282 L722,-562 L522,-1286 L354,-794 L118,-1202 L302,-118 Z" stroke-width="0" fill="#e5e6f6" fill-opacity="0.047058823529411764" />
<path d="M410,-130 L778,-442 L538,-514 L178,-298 L794,-922 L686,-662 Z" stroke-width="0" fill="#eff7e2" fill-opacity="0.8392156862745098" />
<path d="M606,-470 L598,-638 L202,-610 L266,-894 L442,-970 L238,-1002 Z" stroke-width="0" fill="#fff2ea" fill-opacity="0.30196078431372547" />
<path d="M522,-702 L754,-410 L258,-862 L134,-802 L482,-842 L366,-458 Z" stroke-width="0" fill="#e4d6f3" fill-opacity="0.2196078431372549" />
<path d="M654,-774 L430,-590 L518,-642 L394,-918 L230,-134 L526,-342 Z" stroke-width="0" fill="#b1f7cc" fill-opacity="0.09803921568627451" />
<path d="M714,-466 L118,-1146 L710,-654 L706,-586 L170,-270 L146,-1126 Z" stroke-width="0" fill="#c1e6e2" fill-opacity="0.5019607843137255" />
<path d="M706,-1138 L794,-510 L102,-250 L222,-646 L138,-1046 L618,-494 Z" stroke-width="0" fill="#f7f6f5" fill-opacity="0.6196078431372549" />
<path d="M262,-610 L322,-746 L426,-274 L310,-386 L610,-594 L126,-542 Z" stroke-width="0" fill="#fabd04" fill-opacity="0.0196078431372549" />
<path d="M426,-806 L774,-194 L450,-198 L242,-202 L670,-606 L130,-430 Z" stroke-width="0" fill="#a1b6f4" fill-opacity="0.12549019607843137" />
<path d="M630,-786 L150,-270 L798,-902 L318,-842 L338,-794 L138,-1082 Z" stroke-width="0" fill="#bedef6" fill-opacity="0.3411764705882353" />
<path d="M798,-178 L298,-294 L670,-178 L222,-162 L310,-742 L398,-834 Z" stroke-width="0" fill="#e4f2fc" fill-opacity="0.4627450980392157" />
<path d="M186,-190 L250,-126 L222,-182 L278,-146 L594,-246 L554,-82 Z" stroke-width="0" fill="#e0eaee" fill-opacity="0.5529411764705883" />
<text x="448.0" y="0" font-size="70.0" fill="black" text-anchor="middle" transform="translate(0,17.5)">QUEEN OF FIRE</text>
</svg>