<?xml version="1.0" encoding="UTF-8"?>
<svg xmlns="http://www.w3.org/2000/svg" xmlns:xlink="http://www.w3.org/1999/xlink"
     width="896" height="1496" viewBox="0 -1400 896 1496" style="font-size:70;font-family:Poor Richard, Times New Roman;stroke:black;stroke-width:1;fill:none">
<defs>
</defs>
<path d="M210,-1206 L638,-298 L254,-490 L198,-342 L178,-1206 L306,-1266 Z" stroke-width="0" fill="#000053" fill-opacity="0.8274509803921568" />
<path d="M310,-494 L186,-910 L650,-1106 L118,-542 L106,-474 L198,-998 Z" stroke-width="0" fill="#03003b" fill-opacity="0.9411764705882353" />
<path d="M174,-374 L702,-1226 L406,-122 L102,-798 L506,-458 L598,-86 Z" stroke-width="0" fill="#00123b" fill-opacity="0.5411764705882353" />
<path d="M186,-470 L234,-858 L702,-742 L642,-626 L82,-946 L526,-1146 Z" stroke-width="0" fill="#00786e" fill-opacity="0.9568627450980393" />
<path d="M582,-266 L518,-394 L222,-234 L258,-326 L194,-938 L578,-450 Z" stroke-width="0" fill="#cb99cb" fill-opacity="0.4117647058823529" />
<path d="M698,-1306 L390,-566 L702,-410 L426,-426 L574,-134 L242,-94 Z" stroke-width="0" fill="#00007c" fill-opacity="0.8745098039215686" />
<path d="M506,-862 L622,-1154 L130,-886 L142,-346 L190,-250 L502,-562 Z" stroke-width="0" fill="#190cec" fill-opacity="0.3411764705882353" />
<path d="M246,-1206 L274,-374 L678,-1282 L186,-82 L318,-874 L490,-942 Z" stroke-width="0" fill="#013ab2" fill-opacity="0.8823529411764706" />
<path d="M578,-638 L102,-1110 L458,-1282 L810,-446 L578,-430 L118,-734 Z" stroke-width="0" fill="#001039" fill-opacity="0.8823529411764706" />
<path d="M90,-862 L286,-1298 L690,-166 L766,-430 L358,-1302 L266,-182 Z" stroke-width="0" fill="#00033c" fill-opacity="0.8235294117647058" />
<path d="M206,-766 L290,-882 L114,-94 L462,-422 L422,-90 L118,-430 Z" stroke-width="0" fill="#00002c" fill-opacity="0.7176470588235294" />
<path d="M270,-594 L258,-638 L578,-362 L274,-902 L490,-234 L142,-226 Z" stroke-width="0" fill="#1b2a33" fill-opacity="0.9647058823529412" />
<path d="M802,-98 L410,-1118 L334,-446 L682,-986 L210,-630 L458,-1286 Z" stroke-width="0" fill="#0e445c" fill-opacity="0.6901960784313725" />
<path d="M374,-1202 L530,-390 L306,-550 L446,-94 L702,-970 L626,-666 Z" stroke-width="0" fill="#34a87c" fill-opacity="0.403921568627451" />
<path d="M626,-398 L294,-86 L750,-1038 L454,-578 L270,-1214 L210,-450 Z" stroke-width="0" fill="#139bfe" fill-opacity="0.7137254901960784" />
<path d="M182,-454 L446,-502 L342,-906 L158,-1126 L562,-858 L506,-1234 Z" stroke-width="0" fill="#1d705a" fill-opacity="0.7411764705882353" />
<path d="M86,-110 L698,-418 L254,-662 L618,-706 L350,-370 L498,-98 Z" stroke-width="0" fill="#000000" fill-opacity="0.6039215686274509" />
<path d="M138,-558 L442,-598 L478,-598 L650,-318 L310,-386 L722,-814 Z" stroke-width="0" fill="#7b6241" fill-opacity="0.4392156862745098" />
<path d="M458,-190 L722,-774 L462,-382 L366,-98 L502,-558 L338,-278 Z" stroke-width="0" fill="#02001f" fill-opacity="0.7372549019607844" />
<path d="M202,-278 L338,-118 L590,-910 L778,-518 L622,-470 L290,-170 Z" stroke-width="0" fill="#002054" fill-opacity="0.9254901960784314" />
<path d="M110,-586 L174,-1190 L118,-306 L182,-334 L134,-446 L122,-690 Z" stroke-width="0" fill="#053acf" fill-opacity="0.8705882352941177" />
<path d="M386,-554 L334,-622 L366,-514 L554,-198 L458,-922 L446,-1106 Z" stroke-width="0" fill="#e86176" fill-opacity="0.8117647058823529" />
<path d="M666,-950 L542,-122 L462,-554 L490,-658 L202,-202 L726,-614 Z" stroke-width="0" fill="#5d8790" fill-opacity="0.5568627450980392" />
<path d="M322,-1206 L318,-202 L114,-590 L614,-94 L90,-1266 L574,-742 Z" stroke-width="0" fill="#000000" fill-opacity="0.6509803921568628" />
<path d="M194,-754 L738,-774 L486,-886 L554,-334 L402,-442 L650,-950 Z" stroke-width="0" fill="#3b164c" fill-opacity="0.2235294117647059" />
<path d="M778,-402 L562,-258 L546,-458 L730,-838 L206,-718 L726,-86 Z" stroke-width="0" fill="#00e5f7" fill-opacity="0.7176470588235294" />
<path d="M246,-962 L810,-1218 L354,-214 L86,-902 L330,-378 L646,-798 Z" stroke-width="0" fill="#0076e1" fill-opacity="0.6588235294117647" />
<path d="M598,-918 L126,-478 L606,-506 L654,-450 L410,-474 L678,-1166 Z" stroke-width="0" fill="#5ccff8" fill-opacity="0.9411764705882353" />
<path d="M474,-154 L766,-114 L658,-370 L146,-834 L658,-390 L710,-1086 Z" stroke-width="0" fill="#091b65" fill-opacity="0.5058823529411764" />
<path d="M662,-506 L234,-1158 L374,-522 L206,-1054 L610,-898 L118,-1298 Z" stroke-width="0" fill="#000016" fill-opacity="0.9450980392156862" />
<path d="M730,-830 L666,-994 L218,-578 L302,-602 L202,-1082 L270,-1094 Z" stroke-width="0" fill="#e3edf4" fill-opacity="0.984313725490196" />
<path d="M562,-710 L414,-274 L654,-634 L214,-962 L758,-726 L406,-1078 Z" stroke-width="0" fill="#e3f062" fill-opacity="0.8235294117647058" />
<path d="M154,-1114 L186,-910 L182,-882 L494,-382 L510,-894 L150,-102 Z" stroke-width="0" fill="#00022d" fill-opacity="0.6470588235294118" />
<path d="M474,-194 L470,-886 L378,-1226 L690,-1150 L402,-1290 L206,-818 Z" stroke-width="0" fill="#005462" fill-opacity="0.6196078431372549" />
<path d="M166,-710 L150,-522 L778,-1158 L722,-86 L250,-910 L250,-434 Z" stroke-width="0" fill="#0aaae8" fill-opacity="0.596078431372549" />
<path d="M86,-438 L190,-350 L538,-730 L146,-526 L362,-1190 L530,-1046 Z" stroke-width="0" fill="#000936" fill-opacity="0.9490196078431372" />
<path d="M742,-94 L590,-366 L690,-222 L90,-1138 L666,-90 L410,-1206 Z" stroke-width="0" fill="#015c89" fill-opacity="0.8509803921568627" />
<path d="M570,-1198 L170,-778 L86,-134 L666,-1198 L794,-770 L162,-202 Z" stroke-width="0" fill="#5a71bf" fill-opacity="0.5372549019607843" />
<path d="M726,-474 L474,-886 L690,-322 L622,-866 L298,-1174 L626,-554 Z" stroke-width="0" fill="#436fc9" fill-opacity="0.0196078431372549" />
<path d="M534,-334 L786,-154 L314,-486 L266,-618 L718,-1198 L462,-862 Z" stroke-width="0" fill="#3a9bd8" fill-opacity="0.9137254901960784" />
<path d="M154,-826 L254,-698 L518,-934 L214,-726 L530,-770 L186,-942 Z" stroke-width="0" fill="#d0630d" fill-opacity="0.7019607843137254" />
<path d="M106,-290 L422,-346 L178,-1010 L354,-818 L658,-874 L190,-1122 Z" stroke-width="0" fill="#000029" fill-opacity="0.7607843137254902" />
<path d="M302,-866 L294,-190 L110,-594 L90,-518 L446,-1102 L138,-1310 Z" stroke-width="0" fill="#18123a" fill-opacity="0.996078431372549" />
<path d="M298,-1210 L650,-566 L222,-658 L734,-410 L762,-950 L798,-342 Z" stroke-width="0" fill="#0f2a97" fill-opacity="0.9058823529411765" />
<path d="M122,-758 L202,-1302 L634,-134 L394,-886 L762,-214 L158,-426 Z" stroke-width="0" fill="#00215d" fill-opacity="0.8196078431372549" />
<path d="M674,-1050 L170,-178 L606,-986 L622,-954 L714,-1234 L546,-462 Z" stroke-width="0" fill="#31b1eb" fill-opacity="0.8627450980392157" />
<path d="M586,-1214 L246,-486 L574,-718 L182,-326 L230,-618 L806,-582 Z" stroke-width="0" fill="#2ca5ea" fill-opacity="0.7764705882352941" />
<path d="M538,-450 L398,-274 L346,-218 L302,-346 L482,-222 L446,-898 Z" stroke-width="0" fill="#06040d" fill-opacity="0.8705882352941177" />
<path d="M186,-846 L170,-1078 L242,-362 L406,-298 L410,-118 L534,-638 Z" stroke-width="0" fill="#144241" fill-opacity="0.25098039215686274" />
<path d="M726,-118 L350,-1066 L134,-1098 L762,-162 L574,-790 L178,-262 Z" stroke-width="0" fill="#0e486b" fill-opacity="0.49411764705882355" />
<path d="M522,-150 L418,-1218 L486,-342 L442,-934 L646,-114 L582,-1182 Z" stroke-width="0" fill="#93b8db" fill-opacity="0.08235294117647059" />
<path d="M86,-942 L590,-1150 L142,-350 L214,-298 L726,-926 L478,-498 Z" stroke-width="0" fill="#192158" fill-opacity="0.2627450980392157" />
<path d="M678,-490 L146,-1026 L766,-746 L262,-418 L218,-582 L150,-866 Z" stroke-width="0" fill="#8da7f6" fill-opacity="0.6235294117647059" />
<path d="M482,-1210 L730,-270 L402,-1194 L598,-366 L346,-906 L806,-702 Z" stroke-width="0" fill="#54a9fe" fill-opacity="1.0" />
<path d="M226,-870 L330,-898 L506,-862 L262,-862 L618,-430 L586,-154 Z" stroke-width="0" fill="#918696" fill-opacity="0.16862745098039217" />
<path d="M298,-550 L458,-454 L306,-1170 L170,-1038 L158,-218 L146,-426 Z" stroke-width="0" fill="#561d19" fill-opacity="0.09019607843137255" />
<path d="M174,-1034 L222,-886 L134,-1286 L502,-486 L774,-942 L562,-374 Z" stroke-width="0" fill="#002154" fill-opacity="0.596078431372549" />
<path d="M110,-954 L578,-238 L194,-302 L614,-1162 L230,-250 L182,-694 Z" stroke-width="0" fill="#0c9e33" fill-opacity="0.11764705882352941" />
<path d="M430,-1042 L198,-838 L358,-778 L366,-650 L186,-250 L626,-866 Z" stroke-width="0" fill="#4589e9" fill-opacity="0.43137254901960786" />
<path d="M454,-1210 L362,-1190 L418,-202 L734,-938 L542,-926 L790,-442 Z" stroke-width="0" fill="#edeaf8" fill-opacity="0.0784313725490196" />
<path d="M310,-174 L782,-794 L734,-162 L230,-238 L782,-542 L274,-574 Z" stroke-width="0" fill="#181450" fill-opacity="0.8823529411764706" />
<path d="M450,-298 L546,-938 L706,-970 L794,-1154 L558,-1166 L718,-1226 Z" stroke-width="0" fill="#3caddc" fill-opacity="0.7490196078431373" />
<path d="M290,-1230 L494,-1082 L158,-758 L486,-714 L242,-742 L134,-498 Z" stroke-width="0" fill="#131e3c" fill-opacity="0.5764705882352941" />
<path d="M110,-542 L90,-1070 L214,-1098 L426,-422 L678,-334 L518,-530 Z" stroke-width="0" fill="#000e11" fill-opacity="0.8862745098039215" />
<path d="M406,-190 L370,-266 L182,-386 L330,-206 L598,-194 L138,-1094 Z" stroke-width="0" fill="#111a25" fill-opacity="0.44313725490196076" />
<path d="M190,-158 L94,-310 L306,-962 L562,-350 L550,-298 L686,-418 Z" stroke-width="0" fill="#000039" fill-opacity="0.9176470588235294" />
<path d="M810,-250 L698,-834 L414,-358 L98,-806 L518,-122 L174,-662 Z" stroke-width="0" fill="#00005c" fill-opacity="0.6431372549019608" />
<path d="M418,-1006 L110,-410 L222,-962 L398,-514 L122,-622 L106,-758 Z" stroke-width="0" fill="#004f69" fill-opacity="0.4549019607843137" />
<path d="M774,-186 L742,-622 L526,-1018 L562,-1258 L266,-1214 L354,-286 Z" stroke-width="0" fill="#0050eb" fill-opacity="0.3568627450980392" />
<path d="M282,-498 L118,-878 L170,-1206 L110,-998 L310,-358 L206,-606 Z" stroke-width="0" fill="#000045" fill-opacity="0.5019607843137255" />
<path d="M606,-90 L670,-730 L530,-1110 L178,-1090 L650,-942 L774,-322 Z" stroke-width="0" fill="#006bf4" fill-opacity="0.08627450980392157" />
<path d="M454,-414 L538,-342 L374,-618 L626,-346 L490,-542 L154,-238 Z" stroke-width="0" fill="#148851" fill-opacity="0.2235294117647059" />
<path d="M578,-614 L626,-694 L218,-618 L498,-934 L774,-742 L558,-1018 Z" stroke-width="0" fill="#75daf8" fill-opacity="0.30980392156862746" />
<path d="M718,-362 L122,-422 L742,-1094 L450,-1054 L682,-842 L118,-898 Z" stroke-width="0" fill="#e9f6e4" fill-opacity="0.0392156862745098" />
<path d="M210,-1134 L374,-1182 L230,-914 L510,-474 L698,-302 L198,-810 Z" stroke-width="0" fill="#0e3c64" fill-opacity="0.403921568627451" />
<path d="M718,-222 L178,-362 L794,-194 L98,-678 L778,-638 L382,-634 Z" stroke-width="0" fill="#148d91" fill-opacity="0.4549019607843137" />
<path d="M710,-1302 L110,-942 L174,-394 L442,-386 L702,-406 L338,-958 Z" stroke-width="0" fill="#1845e1" fill-opacity="0.2549019607843137" />
<path d="M582,-714 L790,-930 L674,-130 L286,-298 L478,-818 L786,-1254 Z" stroke-width="0" fill="#df2aff" fill-opacity="0.07058823529411765" />
<path d="M802,-186 L702,-1042 L262,-1206 L94,-106 L730,-862 L438,-450 Z" stroke-width="0" fill="#008b4f" fill-opacity="0.09411764705882353" />
<path d="M366,-498 L106,-878 L162,-394 L622,-814 L430,-422 L670,-374 Z" stroke-width="0" fill="#0d1e47" fill-opacity="0.5019607843137255" />
<path d="M530,-502 L710,-166 L746,-318 L442,-82 L678,-506 L282,-1302 Z" stroke-width="0" fill="#1780d5" fill-opacity="0.4392156862745098" />
<path d="M330,-438 L402,-126 L574,-794 L554,-706 L330,-774 L286,-350 Z" stroke-width="0" fill="#00009a" fill-opacity="0.3607843137254902" />
<path d="M370,-1282 L122,-346 L690,-990 L518,-1002 L210,-286 L538,-1142 Z" stroke-width="0" fill="#3a5f7e" fill-opacity="0.1803921568627451" />
<path d="M262,-470 L498,-326 L226,-294 L598,-122 L686,-998 L738,-1134 Z" stroke-width="0" fill="#34cfef" fill-opacity="0.30980392156862746" />
<path d="M362,-514 L202,-642 L414,-810 L406,-418 L182,-862 L574,-1218 Z" stroke-width="0" fill="#1dc3bd" fill-opacity="0.1607843137254902" />
<path d="M598,-1058 L118,-502 L166,-442 L634,-1090 L214,-94 L522,-1274 Z" stroke-width="0" fill="#0e3dae" fill-opacity="0.16862745098039217" />
<path d="M154,-1050 L202,-610 L506,-830 L358,-1154 L670,-1162 L306,-510 Z" stroke-width="0" fill="#2d65ac" fill-opacity="0.30980392156862746" />
<path d="M754,-122 L430,-894 L446,-278 L262,-634 L122,-282 L322,-1206 Z" stroke-width="0" fill="#210045" fill-opacity="0.13725490196078433" />
<path d="M686,-222 L590,-1146 L486,-398 L430,-1194 L794,-1046 L306,-1086 Z" stroke-width="0" fill="#729bbe" fill-opacity="0.1411764705882353" />
<path d="M186,-1034 L502,-902 L666,-342 L242,-402 L606,-398 L690,-534 Z" stroke-width="0" fill="#81d3ae" fill-opacity="0.09411764705882353" />
<path d="M294,-122 L618,-302 L398,-210 L570,-314 L194,-726 L674,-86 Z" stroke-width="0" fill="#0b408b" fill-opacity="0.5019607843137255" />
<path d="M390,-378 L282,-1086 L522,-322 L278,-1006 L454,-894 L142,-242 Z" stroke-width="0" fill="#08436d" fill-opacity="0.28627450980392155" />
<path d="M758,-262 L474,-1154 L574,-178 L678,-334 L562,-122 L698,-418 Z" stroke-width="0" fill="#46adee" fill-opacity="0.3568627450980392" />
<path d="M430,-378 L282,-534 L190,-294 L422,-102 L662,-1070 L270,-642 Z" stroke-width="0" fill="#a238de" fill-opacity="0.03529411764705882" />
<path d="M146,-414 L98,-278 L202,-502 L178,-602 L414,-942 L714,-406 Z" stroke-width="0" fill="#1048b7" fill-opacity="0.047058823529411764" />
<path d="M462,-246 L262,-638 L618,-790 L646,-374 L194,-574 L270,-522 Z" stroke-width="0" fill="#94e6ff" fill-opacity="0.1803921568627451" />
<path d="M322,-790 L790,-738 L358,-418 L586,-126 L318,-698 L558,-1150 Z" stroke-width="0" fill="#43b3b4" fill-opacity="0.11372549019607843" />
<path d="M422,-226 L794,-774 L618,-422 L790,-514 L754,-762 L458,-698 Z" stroke-width="0" fill="#06b1fa" fill-opacity="0.043137254901960784" />
<path d="M218,-1238 L670,-90 L582,-118 L326,-998 L194,-1110 L346,-550 Z" stroke-width="0" fill="#32668d" fill-opacity="0.25882352941176473" />
<path d="M266,-310 L122,-790 L414,-118 L446,-694 L330,-650 L390,-1234 Z" stroke-width="0" fill="#28543e" fill-opacity="0.12941176470588237" />
<text x="448.0" y="0" font-size="70.0" fill="black" text-anchor="middle" transform="translate(0,17.5)">9 OF FIRE</text>
</svg>