<?xml version="1.0" encoding="UTF-8"?>
<svg xmlns="http://www.w3.org/2000/svg" xmlns:xlink="http://www.w3.org/1999/xlink"
     width="896" height="1496" viewBox="0 -1400 896 1496" style="font-size:70;font-family:Poor Richard, Times New Roman;stroke:black;stroke-width:1;fill:none">
<defs>
</defs>
<path d="M406,-874 L726,-958 L90,-978 L194,-1038 L298,-278 L418,-710 Z" stroke-width="0" fill="#3b3d32" fill-opacity="0.7803921568627451" />
<path d="M118,-462 L538,-450 L222,-226 L378,-726 L150,-282 L450,-550 Z" stroke-width="0" fill="#a8cff5" fill-opacity="0.03137254901960784" />
<path d="M242,-158 L966,-198 L162,-122 L642,-134 L382,-646 L330,-646 Z" stroke-width="0" fill="#051120" fill-opacity="0.6431372549019608" />
<path d="M914,-694 L886,-222 L126,-82 L938,-554 L222,-314 L538,-950 Z" stroke-width="0" fill="#5c867e" fill-opacity="0.5372549019607843" />
<path d="M806,-494 L822,-978 L874,-662 L810,-442 L550,-566 L614,-110 Z" stroke-width="0" fill="#fbf7f2" fill-opacity="0.48627450980392156" />
<path d="M734,-162 L558,-266 L834,-314 L482,-370 L102,-770 L530,-362 Z" stroke-width="0" fill="#7c8b56" fill-opacity="0.050980392156862744" />
<path d="M686,-1086 L594,-782 L514,-966 L914,-906 L470,-790 L862,-610 Z" stroke-width="0" fill="#127e14" fill-opacity="0.4196078431372549" />
<path d="M302,-1198 L682,-890 L670,-442 L874,-838 L486,-1054 L790,-638 Z" stroke-width="0" fill="#a59682" fill-opacity="0.011764705882352941" />
<path d="M138,-178 L334,-446 L846,-482 L234,-690 L674,-590 L854,-674 Z" stroke-width="0" fill="#2ad296" fill-opacity="0.7529411764705882" />
<path d="M218,-618 L390,-1238 L830,-798 L758,-562 L214,-338 L786,-386 Z" stroke-width="0" fill="#63d09f" fill-opacity="0.21176470588235294" />
<path d="M290,-274 L470,-1090 L554,-1082 L674,-926 L666,-978 L622,-410 Z" stroke-width="0" fill="#f75d2c" fill-opacity="0.796078431372549" />
<path d="M510,-702 L110,-1034 L430,-170 L138,-554 L498,-302 L226,-594 Z" stroke-width="0" fill="#060e17" fill-opacity="0.6352941176470588" />
<path d="M442,-98 L798,-1182 L226,-1038 L794,-1078 L742,-698 L310,-622 Z" stroke-width="0" fill="#32405b" fill-opacity="0.8901960784313725" />
<path d="M654,-474 L598,-758 L458,-210 L262,-1042 L274,-694 L258,-102 Z" stroke-width="0" fill="#78d2eb" fill-opacity="1.0" />
<path d="M90,-178 L906,-714 L342,-394 L350,-202 L882,-454 L358,-162 Z" stroke-width="0" fill="#042939" fill-opacity="0.6901960784313725" />
<path d="M754,-146 L194,-134 L126,-898 L134,-1186 L542,-774 L706,-466 Z" stroke-width="0" fill="#2d633d" fill-opacity="0.792156862745098" />
<path d="M794,-1254 L830,-114 L98,-286 L410,-898 L138,-930 L626,-210 Z" stroke-width="0" fill="#5d656d" fill-opacity="0.9019607843137255" />
<path d="M190,-906 L902,-750 L318,-878 L230,-698 L638,-930 L490,-938 Z" stroke-width="0" fill="#f548fd" fill-opacity="0.49411764705882355" />
<path d="M922,-378 L446,-190 L310,-786 L198,-718 L934,-534 L790,-626 Z" stroke-width="0" fill="#8dd76f" fill-opacity="0.9725490196078431" />
<path d="M550,-1070 L222,-918 L538,-438 L446,-606 L438,-1106 L166,-122 Z" stroke-width="0" fill="#5bc753" fill-opacity="0.26666666666666666" />
<path d="M190,-822 L238,-570 L310,-346 L950,-946 L762,-1198 L730,-966 Z" stroke-width="0" fill="#001209" fill-opacity="0.803921568627451" />
<path d="M930,-1182 L450,-442 L798,-166 L742,-346 L162,-590 L242,-1030 Z" stroke-width="0" fill="#000e17" fill-opacity="0.615686274509804" />
<path d="M698,-942 L614,-306 L498,-186 L122,-258 L442,-414 L294,-86 Z" stroke-width="0" fill="#1c343e" fill-opacity="0.7686274509803922" />
<path d="M210,-474 L334,-350 L186,-718 L534,-622 L654,-426 L610,-326 Z" stroke-width="0" fill="#7c7831" fill-opacity="0.2980392156862745" />
<path d="M534,-698 L146,-98 L154,-662 L410,-678 L470,-558 L530,-766 Z" stroke-width="0" fill="#000f10" fill-opacity="0.6313725490196078" />
<path d="M82,-758 L674,-1190 L290,-166 L550,-746 L458,-1198 L318,-310 Z" stroke-width="0" fill="#063133" fill-opacity="0.7137254901960784" />
<path d="M302,-86 L466,-1230 L362,-1218 L334,-410 L798,-282 L658,-342 Z" stroke-width="0" fill="#91c2bf" fill-opacity="0.9058823529411765" />
<path d="M214,-166 L946,-1070 L122,-294 L122,-102 L730,-1022 L874,-190 Z" stroke-width="0" fill="#4d655a" fill-opacity="0.9372549019607843" />
<path d="M454,-706 L662,-774 L202,-1010 L946,-302 L318,-550 L538,-1110 Z" stroke-width="0" fill="#000000" fill-opacity="0.9333333333333333" />
<path d="M582,-1278 L250,-1054 L230,-682 L966,-494 L534,-670 L114,-906 Z" stroke-width="0" fill="#416568" fill-opacity="0.8745098039215686" />
<path d="M126,-410 L258,-82 L354,-878 L482,-138 L926,-746 L210,-254 Z" stroke-width="0" fill="#93d8cb" fill-opacity="0.8" />
<path d="M522,-970 L578,-458 L750,-214 L334,-1030 L946,-782 L486,-138 Z" stroke-width="0" fill="#f1bdf2" fill-opacity="0.6313725490196078" />
<path d="M894,-366 L202,-166 L602,-514 L350,-1254 L158,-1050 L654,-218 Z" stroke-width="0" fill="#3c73e1" fill-opacity="0.7372549019607844" />
<path d="M866,-294 L758,-470 L542,-242 L726,-370 L482,-1214 L246,-854 Z" stroke-width="0" fill="#dafde0" fill-opacity="0.9058823529411765" />
<path d="M786,-734 L154,-1130 L674,-162 L958,-978 L418,-362 L582,-530 Z" stroke-width="0" fill="#011012" fill-opacity="0.7490196078431373" />
<path d="M842,-1250 L370,-82 L534,-1182 L306,-1154 L330,-942 L714,-230 Z" stroke-width="0" fill="#203530" fill-opacity="0.7333333333333333" />
<path d="M234,-138 L670,-746 L706,-1142 L746,-298 L802,-570 L106,-730 Z" stroke-width="0" fill="#56afd2" fill-opacity="0.6823529411764706" />
<path d="M506,-794 L210,-1022 L210,-806 L470,-746 L934,-790 L462,-166 Z" stroke-width="0" fill="#f8d8c5" fill-opacity="0.9882352941176471" />
<path d="M86,-122 L830,-962 L558,-690 L326,-1198 L210,-626 L954,-794 Z" stroke-width="0" fill="#07572f" fill-opacity="0.6862745098039216" />
<path d="M246,-618 L150,-182 L446,-666 L98,-354 L110,-570 L630,-698 Z" stroke-width="0" fill="#001517" fill-opacity="0.6392156862745098" />
<path d="M674,-874 L434,-1154 L866,-1106 L278,-742 L262,-262 L126,-922 Z" stroke-width="0" fill="#221136" fill-opacity="0.5215686274509804" />
<path d="M930,-986 L342,-294 L678,-1070 L546,-258 L566,-186 L606,-190 Z" stroke-width="0" fill="#2a3c1f" fill-opacity="0.611764705882353" />
<path d="M662,-1074 L590,-326 L942,-222 L610,-518 L782,-326 L190,-842 Z" stroke-width="0" fill="#344745" fill-opacity="0.8196078431372549" />
<path d="M898,-1146 L838,-214 L526,-250 L646,-390 L294,-1198 L102,-366 Z" stroke-width="0" fill="#f4ffed" fill-opacity="0.8117647058823529" />
<path d="M830,-438 L598,-1234 L958,-910 L638,-806 L370,-398 L870,-174 Z" stroke-width="0" fill="#6d9617" fill-opacity="0.0" />
<path d="M166,-922 L206,-98 L354,-250 L558,-1218 L706,-1202 L922,-682 Z" stroke-width="0" fill="#fcd8f0" fill-opacity="0.09411764705882353" />
<path d="M122,-722 L106,-594 L514,-614 L310,-822 L558,-350 L326,-1278 Z" stroke-width="0" fill="#88745f" fill-opacity="0.9137254901960784" />
<path d="M290,-226 L770,-782 L246,-530 L722,-122 L554,-574 L558,-1258 Z" stroke-width="0" fill="#5d6f6c" fill-opacity="0.9058823529411765" />
<path d="M486,-1186 L558,-1034 L206,-1270 L746,-694 L382,-1186 L822,-682 Z" stroke-width="0" fill="#4e5835" fill-opacity="0.9137254901960784" />
<path d="M898,-918 L826,-870 L294,-886 L522,-698 L370,-194 L458,-570 Z" stroke-width="0" fill="#ffb8fb" fill-opacity="0.12941176470588237" />
<path d="M146,-394 L306,-86 L498,-778 L162,-902 L814,-118 L938,-434 Z" stroke-width="0" fill="#677399" fill-opacity="0.9490196078431372" />
<path d="M218,-506 L454,-778 L774,-1214 L442,-1274 L306,-598 L850,-1230 Z" stroke-width="0" fill="#064b41" fill-opacity="0.7019607843137254" />
<path d="M470,-698 L254,-170 L586,-454 L146,-1250 L478,-1002 L282,-998 Z" stroke-width="0" fill="#001304" fill-opacity="0.6705882352941176" />
<path d="M650,-1006 L694,-178 L398,-198 L454,-238 L106,-262 L134,-442 Z" stroke-width="0" fill="#bad8cc" fill-opacity="0.9686274509803922" />
<path d="M314,-386 L306,-922 L170,-730 L978,-274 L222,-726 L378,-274 Z" stroke-width="0" fill="#8de4b1" fill-opacity="0.9372549019607843" />
<path d="M202,-766 L910,-670 L98,-262 L550,-194 L166,-602 L110,-738 Z" stroke-width="0" fill="#9da444" fill-opacity="0.11764705882352941" />
<path d="M486,-1034 L334,-742 L314,-894 L86,-686 L918,-446 L458,-434 Z" stroke-width="0" fill="#462878" fill-opacity="0.19215686274509805" />
<path d="M370,-706 L586,-758 L590,-918 L510,-838 L382,-126 L182,-746 Z" stroke-width="0" fill="#86d4fa" fill-opacity="0.7411764705882353" />
<path d="M738,-366 L322,-674 L198,-1226 L778,-150 L690,-1274 L350,-1170 Z" stroke-width="0" fill="#4e3539" fill-opacity="0.5764705882352941" />
<path d="M162,-150 L582,-594 L118,-994 L482,-930 L482,-510 L522,-890 Z" stroke-width="0" fill="#2f4e65" fill-opacity="0.7294117647058823" />
<path d="M974,-838 L470,-638 L498,-146 L546,-1246 L826,-1142 L750,-294 Z" stroke-width="0" fill="#dcfcf0" fill-opacity="0.2823529411764706" />
<path d="M634,-562 L690,-490 L758,-490 L686,-1094 L94,-434 L754,-538 Z" stroke-width="0" fill="#253038" fill-opacity="0.7098039215686275" />
<path d="M686,-818 L438,-1114 L570,-498 L474,-374 L238,-150 L402,-818 Z" stroke-width="0" fill="#a7fbed" fill-opacity="0.43137254901960786" />
<path d="M766,-914 L258,-1018 L318,-574 L190,-762 L222,-550 L962,-266 Z" stroke-width="0" fill="#fcf4f8" fill-opacity="0.6431372549019608" />
<path d="M318,-1026 L850,-606 L246,-1158 L142,-834 L886,-1078 L374,-666 Z" stroke-width="0" fill="#fafd54" fill-opacity="0.37254901960784315" />
<path d="M862,-986 L86,-390 L126,-878 L82,-266 L134,-138 L94,-102 Z" stroke-width="0" fill="#00241c" fill-opacity="0.6705882352941176" />
<path d="M746,-630 L434,-954 L222,-618 L938,-566 L354,-554 L94,-1194 Z" stroke-width="0" fill="#6f938e" fill-opacity="0.984313725490196" />
<path d="M322,-146 L582,-514 L482,-382 L702,-146 L386,-678 L262,-1086 Z" stroke-width="0" fill="#acb4ee" fill-opacity="0.10980392156862745" />
<path d="M538,-874 L858,-590 L558,-622 L306,-118 L362,-318 L346,-1186 Z" stroke-width="0" fill="#fafafe" fill-opacity="0.27450980392156865" />
<path d="M430,-478 L822,-934 L538,-1238 L110,-470 L486,-298 L602,-634 Z" stroke-width="0" fill="#f6f8e7" fill-opacity="0.13333333333333333" />
<path d="M802,-1202 L230,-870 L338,-710 L482,-426 L422,-422 L98,-1162 Z" stroke-width="0" fill="#02214a" fill-opacity="0.27058823529411763" />
<path d="M702,-602 L374,-274 L490,-782 L750,-910 L850,-230 L310,-230 Z" stroke-width="0" fill="#f0f9ee" fill-opacity="0.9333333333333333" />
<path d="M850,-434 L410,-610 L86,-82 L826,-1050 L538,-714 L642,-766 Z" stroke-width="0" fill="#bebcc2" fill-opacity="0.12156862745098039" />
<path d="M626,-1090 L270,-362 L86,-714 L546,-94 L242,-574 L182,-778 Z" stroke-width="0" fill="#efebf3" fill-opacity="0.9176470588235294" />
<path d="M694,-1058 L238,-82 L118,-370 L138,-950 L390,-106 L974,-510 Z" stroke-width="0" fill="#9b91fb" fill-opacity="0.054901960784313725" />
<path d="M574,-998 L526,-1242 L206,-1262 L906,-854 L386,-790 L722,-186 Z" stroke-width="0" fill="#524c4b" fill-opacity="1.0" />
<path d="M398,-1162 L754,-826 L934,-862 L374,-1258 L98,-1186 L726,-410 Z" stroke-width="0" fill="#4b6f88" fill-opacity="0.5764705882352941" />
<path d="M162,-622 L538,-666 L170,-1182 L310,-690 L218,-190 L526,-310 Z" stroke-width="0" fill="#95a66c" fill-opacity="0.1607843137254902" />
<path d="M754,-258 L390,-238 L82,-926 L222,-106 L798,-206 L258,-586 Z" stroke-width="0" fill="#2b2718" fill-opacity="0.6039215686274509" />
<path d="M298,-1182 L870,-310 L846,-118 L434,-194 L494,-598 L142,-566 Z" stroke-width="0" fill="#d36280" fill-opacity="0.03137254901960784" />
<path d="M538,-562 L142,-550 L118,-118 L838,-1114 L950,-1126 L846,-506 Z" stroke-width="0" fill="#f1dff0" fill-opacity="0.23137254901960785" />
<path d="M406,-802 L294,-1202 L430,-926 L218,-926 L458,-1146 L194,-1030 Z" stroke-width="0" fill="#3c5a4e" fill-opacity="0.3607843137254902" />
<path d="M302,-710 L226,-1086 L718,-138 L570,-1082 L614,-322 L850,-678 Z" stroke-width="0" fill="#e9eae6" fill-opacity="0.8784313725490196" />
<path d="M370,-826 L814,-654 L226,-702 L426,-110 L302,-682 L850,-354 Z" stroke-width="0" fill="#bf9eae" fill-opacity="0.00784313725490196" />
<path d="M130,-1146 L406,-694 L654,-1150 L226,-546 L670,-866 L298,-602 Z" stroke-width="0" fill="#a60833" fill-opacity="0.0392156862745098" />
<path d="M334,-310 L874,-850 L702,-298 L166,-182 L746,-818 L886,-918 Z" stroke-width="0" fill="#f7fdfb" fill-opacity="0.12549019607843137" />
<path d="M414,-842 L970,-118 L258,-346 L766,-974 L486,-302 L422,-190 Z" stroke-width="0" fill="#4e675f" fill-opacity="0.8627450980392157" />
<path d="M494,-1026 L230,-1090 L422,-162 L350,-1054 L182,-410 L674,-1102 Z" stroke-width="0" fill="#e8fef5" fill-opacity="0.5843137254901961" />
<path d="M746,-1078 L246,-134 L818,-850 L570,-190 L646,-518 L814,-986 Z" stroke-width="0" fill="#d8d7d2" fill-opacity="0.10196078431372549" />
<path d="M330,-1058 L122,-538 L270,-778 L890,-1050 L266,-174 L578,-294 Z" stroke-width="0" fill="#f8fdfb" fill-opacity="0.0392156862745098" />
<path d="M658,-90 L302,-206 L114,-802 L606,-386 L274,-714 L286,-614 Z" stroke-width="0" fill="#4b7470" fill-opacity="0.7803921568627451" />
<path d="M778,-1018 L386,-710 L970,-798 L846,-694 L902,-198 L586,-130 Z" stroke-width="0" fill="#e6f7bf" fill-opacity="0.054901960784313725" />
<path d="M94,-986 L406,-638 L170,-202 L546,-1054 L390,-330 L350,-1054 Z" stroke-width="0" fill="#f1d3d6" fill-opacity="0.803921568627451" />
<path d="M334,-398 L126,-434 L370,-834 L974,-98 L670,-922 L266,-150 Z" stroke-width="0" fill="#d93abd" fill-opacity="0.03137254901960784" />
<path d="M630,-694 L446,-1198 L750,-1130 L958,-1022 L250,-1130 L810,-770 Z" stroke-width="0" fill="#287d70" fill-opacity="0.06666666666666667" />
<path d="M706,-1042 L174,-550 L478,-702 L670,-842 L618,-718 L182,-1186 Z" stroke-width="0" fill="#c86771" fill-opacity="0.011764705882352941" />
<path d="M474,-230 L366,-422 L934,-658 L274,-786 L150,-914 L850,-1178 Z" stroke-width="0" fill="#7fc1b6" fill-opacity="0.0392156862745098" />
<path d="M214,-830 L562,-638 L482,-162 L82,-234 L378,-998 L470,-378 Z" stroke-width="0" fill="#fea8f0" fill-opacity="0.08627450980392157" />
<path d="M382,-438 L126,-1066 L934,-754 L550,-158 L786,-762 L166,-270 Z" stroke-width="0" fill="#d1bdf8" fill-opacity="0.0196078431372549" />
<path d="M106,-254 L354,-1050 L510,-334 L434,-206 L306,-590 L682,-374 Z" stroke-width="0" fill="#e2f9ef" fill-opacity="0.807843137254902" />
<text x="448.0" y="0" font-size="70.0" fill="black" text-anchor="middle" transform="translate(0,17.5)">2 OF FIRE</text>
</svg>