<?xml version="1.0" encoding="UTF-8"?>
<svg xmlns="http://www.w3.org/2000/svg" xmlns:xlink="http://www.w3.org/1999/xlink"
     width="275" height="375" viewBox="0 -350 275 375">
<defs>
</defs>
<rect x="15" y="-335" width="245" height="320" stroke="black" stroke-width="4" fill="white" />
<path d="M177,-299 L27,-204 L220,-173 L69,-65 L38,-225 L119,-277 Z" stroke-width="0" fill="#1e9bb3" fill-opacity="0.5058823529411764" />
<path d="M95,-217 L131,-120 L160,-135 L106,-42 L91,-58 L79,-25 Z" stroke-width="0" fill="#2e6e90" fill-opacity="0.5019607843137255" />
<path d="M182,-249 L167,-33 L117,-121 L203,-28 L95,-150 L221,-29 Z" stroke-width="0" fill="#004376" fill-opacity="0.3686274509803922" />
<path d="M74,-164 L107,-51 L246,-319 L115,-61 L66,-186 L184,-59 Z" stroke-width="0" fill="#052e50" fill-opacity="0.5176470588235295" />
<path d="M135,-123 L165,-83 L216,-321 L147,-43 L78,-229 L44,-309 Z" stroke-width="0" fill="#510e02" fill-opacity="0.3568627450980392" />
<path d="M82,-138 L175,-61 L135,-262 L28,-238 L39,-226 L73,-109 Z" stroke-width="0" fill="#590724" fill-opacity="0.5215686274509804" />
<path d="M134,-199 L29,-110 L65,-229 L46,-223 L26,-27 L159,-293 Z" stroke-width="0" fill="#00715e" fill-opacity="0.5450980392156862" />
<path d="M147,-105 L59,-42 L179,-244 L227,-159 L136,-47 L78,-199 Z" stroke-width="0" fill="#41f7e1" fill-opacity="0.6078431372549019" />
<path d="M166,-212 L124,-203 L87,-36 L112,-132 L186,-168 L59,-129 Z" stroke-width="0" fill="#0abed9" fill-opacity="0.4235294117647059" />
<path d="M116,-284 L222,-98 L46,-239 L121,-168 L160,-237 L39,-152 Z" stroke-width="0" fill="#854aa8" fill-opacity="0.09411764705882353" />
<path d="M56,-213 L234,-194 L27,-305 L71,-168 L54,-151 L207,-266 Z" stroke-width="0" fill="#821102" fill-opacity="0.5019607843137255" />
<path d="M174,-222 L222,-298 L121,-288 L109,-261 L99,-36 L143,-274 Z" stroke-width="0" fill="#cb2900" fill-opacity="0.3607843137254902" />
<path d="M205,-275 L227,-92 L57,-307 L179,-90 L238,-231 L187,-157 Z" stroke-width="0" fill="#d8ecfe" fill-opacity="0.30980392156862746" />
<path d="M83,-278 L212,-101 L31,-135 L90,-97 L144,-115 L185,-81 Z" stroke-width="0" fill="#187482" fill-opacity="0.5490196078431373" />
<path d="M76,-48 L196,-121 L248,-113 L246,-94 L52,-74 L27,-196 Z" stroke-width="0" fill="#675a37" fill-opacity="0.5019607843137255" />
<path d="M228,-28 L53,-241 L76,-317 L217,-115 L63,-177 L182,-201 Z" stroke-width="0" fill="#8b2a1c" fill-opacity="0.43137254901960786" />
<path d="M78,-235 L113,-143 L159,-254 L49,-315 L105,-132 L148,-116 Z" stroke-width="0" fill="#34c561" fill-opacity="0.3137254901960784" />
<path d="M125,-70 L236,-71 L45,-181 L81,-230 L185,-180 L218,-240 Z" stroke-width="0" fill="#5d0600" fill-opacity="0.7333333333333333" />
<path d="M165,-149 L125,-298 L229,-78 L31,-196 L225,-265 L211,-111 Z" stroke-width="0" fill="#d8278f" fill-opacity="0.8156862745098039" />
<path d="M215,-277 L115,-63 L167,-55 L197,-323 L193,-196 L114,-76 Z" stroke-width="0" fill="#86424a" fill-opacity="0.5019607843137255" />
<path d="M151,-175 L248,-318 L161,-209 L231,-221 L68,-128 L117,-122 Z" stroke-width="0" fill="#7d3126" fill-opacity="0.6588235294117647" />
<path d="M131,-40 L236,-232 L232,-29 L57,-54 L169,-136 L210,-96 Z" stroke-width="0" fill="#19314e" fill-opacity="0.29411764705882354" />
<path d="M98,-101 L239,-56 L73,-183 L117,-27 L172,-189 L237,-229 Z" stroke-width="0" fill="#3e6253" fill-opacity="0.48627450980392156" />
<path d="M237,-234 L145,-185 L208,-100 L191,-118 L53,-206 L85,-304 Z" stroke-width="0" fill="#4a0440" fill-opacity="0.21176470588235294" />
<path d="M103,-286 L64,-42 L214,-63 L110,-25 L153,-96 L181,-254 Z" stroke-width="0" fill="#006771" fill-opacity="0.5019607843137255" />
<path d="M180,-98 L108,-193 L219,-96 L160,-213 L210,-110 L160,-290 Z" stroke-width="0" fill="#ed8fe2" fill-opacity="0.9529411764705882" />
<path d="M145,-95 L193,-54 L118,-239 L68,-66 L84,-203 L93,-202 Z" stroke-width="0" fill="#000403" fill-opacity="0.792156862745098" />
<path d="M56,-118 L160,-217 L223,-151 L232,-249 L47,-115 L188,-85 Z" stroke-width="0" fill="#8e0673" fill-opacity="0.7647058823529411" />
<path d="M69,-199 L169,-141 L61,-57 L132,-235 L90,-247 L50,-226 Z" stroke-width="0" fill="#fe3742" fill-opacity="0.6274509803921569" />
<path d="M73,-28 L64,-31 L143,-149 L101,-299 L195,-274 L242,-120 Z" stroke-width="0" fill="#688a68" fill-opacity="0.5019607843137255" />
<path d="M57,-281 L100,-256 L142,-76 L63,-116 L196,-255 L160,-155 Z" stroke-width="0" fill="#e0477a" fill-opacity="0.8313725490196079" />
<path d="M54,-304 L154,-140 L38,-112 L55,-41 L69,-267 L168,-175 Z" stroke-width="0" fill="#9bd0d4" fill-opacity="0.2823529411764706" />
<path d="M137,-220 L80,-205 L106,-218 L149,-303 L138,-56 L75,-322 Z" stroke-width="0" fill="#7f2820" fill-opacity="0.5019607843137255" />
<path d="M69,-46 L48,-194 L71,-187 L62,-314 L227,-42 L28,-244 Z" stroke-width="0" fill="#6ebda1" fill-opacity="0.5019607843137255" />
<path d="M67,-120 L195,-74 L230,-213 L118,-171 L117,-104 L67,-276 Z" stroke-width="0" fill="#ac1a4a" fill-opacity="0.7764705882352941" />
<path d="M128,-291 L162,-174 L60,-31 L199,-139 L89,-182 L125,-113 Z" stroke-width="0" fill="#068f5d" fill-opacity="0.5019607843137255" />
<path d="M175,-195 L59,-66 L226,-35 L111,-180 L45,-31 L45,-244 Z" stroke-width="0" fill="#659a91" fill-opacity="0.8745098039215686" />
<path d="M158,-60 L152,-263 L49,-54 L98,-142 L88,-93 L189,-167 Z" stroke-width="0" fill="#afeefd" fill-opacity="0.9450980392156862" />
<path d="M155,-173 L236,-277 L170,-224 L219,-97 L217,-40 L247,-219 Z" stroke-width="0" fill="#309caf" fill-opacity="0.29411764705882354" />
<path d="M87,-113 L36,-55 L82,-90 L103,-95 L158,-226 L168,-199 Z" stroke-width="0" fill="#e65586" fill-opacity="0.27450980392156865" />
<path d="M210,-259 L106,-324 L143,-178 L232,-284 L100,-115 L112,-75 Z" stroke-width="0" fill="#f3dbba" fill-opacity="0.9254901960784314" />
<path d="M179,-149 L208,-48 L47,-147 L92,-89 L206,-103 L180,-284 Z" stroke-width="0" fill="#a72c10" fill-opacity="0.37254901960784315" />
<path d="M220,-110 L199,-84 L202,-157 L28,-218 L160,-196 L133,-106 Z" stroke-width="0" fill="#a80475" fill-opacity="0.20784313725490197" />
<path d="M228,-221 L81,-71 L93,-318 L180,-288 L113,-62 L141,-158 Z" stroke-width="0" fill="#25dded" fill-opacity="0.45098039215686275" />
<path d="M131,-158 L237,-274 L62,-63 L113,-317 L83,-74 L187,-84 Z" stroke-width="0" fill="#b460bc" fill-opacity="0.5019607843137255" />
<path d="M63,-131 L27,-70 L244,-121 L237,-94 L28,-91 L197,-162 Z" stroke-width="0" fill="#a7c9e6" fill-opacity="0.2901960784313726" />
<path d="M172,-122 L175,-303 L34,-303 L215,-266 L86,-153 L217,-95 Z" stroke-width="0" fill="#df01e7" fill-opacity="0.0784313725490196" />
<path d="M234,-187 L90,-322 L65,-219 L47,-169 L226,-28 L98,-212 Z" stroke-width="0" fill="#9f5647" fill-opacity="0.3843137254901961" />
<path d="M124,-321 L114,-266 L34,-103 L197,-30 L127,-75 L66,-80 Z" stroke-width="0" fill="#519f79" fill-opacity="0.6235294117647059" />
<path d="M81,-39 L28,-156 L220,-49 L136,-203 L96,-80 L209,-197 Z" stroke-width="0" fill="#99594e" fill-opacity="0.45098039215686275" />
<path d="M246,-314 L85,-113 L206,-214 L48,-58 L39,-222 L87,-104 Z" stroke-width="0" fill="#86dee8" fill-opacity="0.5254901960784314" />
<path d="M61,-117 L76,-144 L83,-146 L231,-28 L182,-67 L81,-121 Z" stroke-width="0" fill="#549287" fill-opacity="0.5529411764705883" />
<path d="M56,-206 L97,-157 L208,-80 L204,-190 L52,-318 L88,-102 Z" stroke-width="0" fill="#dc4751" fill-opacity="0.49019607843137253" />
<path d="M171,-38 L151,-178 L114,-192 L44,-75 L179,-30 L57,-55 Z" stroke-width="0" fill="#6dae9b" fill-opacity="0.9803921568627451" />
<path d="M27,-188 L86,-227 L68,-90 L53,-103 L190,-74 L83,-58 Z" stroke-width="0" fill="#8ad0e1" fill-opacity="0.9882352941176471" />
<path d="M191,-242 L230,-67 L32,-175 L107,-221 L122,-135 L153,-232 Z" stroke-width="0" fill="#ae1917" fill-opacity="0.3803921568627451" />
<path d="M77,-227 L160,-252 L201,-60 L87,-115 L68,-177 L194,-172 Z" stroke-width="0" fill="#630600" fill-opacity="0.8705882352941177" />
<path d="M210,-247 L228,-53 L120,-34 L136,-94 L240,-118 L240,-93 Z" stroke-width="0" fill="#cfa232" fill-opacity="0.011764705882352941" />
<path d="M199,-106 L156,-109 L150,-69 L101,-318 L223,-36 L122,-221 Z" stroke-width="0" fill="#80715d" fill-opacity="0.3686274509803922" />
<path d="M222,-285 L79,-120 L233,-139 L192,-119 L232,-233 L97,-142 Z" stroke-width="0" fill="#8f4165" fill-opacity="0.592156862745098" />
<path d="M41,-195 L79,-115 L66,-236 L199,-295 L195,-231 L147,-89 Z" stroke-width="0" fill="#cdcabb" fill-opacity="0.3333333333333333" />
<path d="M46,-38 L118,-193 L95,-262 L119,-310 L96,-117 L105,-248 Z" stroke-width="0" fill="#8bc4d2" fill-opacity="0.3411764705882353" />
<path d="M33,-252 L212,-96 L126,-126 L125,-62 L133,-268 L171,-34 Z" stroke-width="0" fill="#a39cc6" fill-opacity="0.5803921568627451" />
<path d="M179,-105 L129,-143 L56,-39 L140,-123 L119,-226 L134,-258 Z" stroke-width="0" fill="#c4c3f5" fill-opacity="0.8156862745098039" />
<path d="M37,-224 L40,-198 L243,-144 L73,-126 L176,-156 L65,-152 Z" stroke-width="0" fill="#b76053" fill-opacity="0.15294117647058825" />
<path d="M40,-203 L49,-63 L213,-178 L109,-111 L164,-34 L35,-67 Z" stroke-width="0" fill="#80c6ac" fill-opacity="0.8666666666666667" />
<path d="M93,-202 L186,-169 L122,-67 L155,-71 L179,-196 L200,-230 Z" stroke-width="0" fill="#89edaf" fill-opacity="0.8862745098039215" />
<path d="M65,-239 L169,-77 L159,-251 L132,-92 L204,-166 L175,-267 Z" stroke-width="0" fill="#7c64cd" fill-opacity="0.4235294117647059" />
<path d="M226,-151 L176,-27 L196,-45 L125,-316 L123,-286 L169,-306 Z" stroke-width="0" fill="#eb399a" fill-opacity="0.2901960784313726" />
<path d="M26,-252 L66,-201 L188,-179 L195,-139 L100,-284 L164,-98 Z" stroke-width="0" fill="#580600" fill-opacity="0.6862745098039216" />
<path d="M59,-303 L88,-262 L246,-59 L231,-106 L98,-99 L109,-273 Z" stroke-width="0" fill="#8b392c" fill-opacity="0.4980392156862745" />
<path d="M124,-242 L218,-60 L249,-277 L101,-226 L115,-236 L51,-64 Z" stroke-width="0" fill="#4d8b0c" fill-opacity="0.36470588235294116" />
<path d="M25,-280 L79,-142 L79,-68 L70,-129 L36,-80 L137,-162 Z" stroke-width="0" fill="#9a0019" fill-opacity="0.6745098039215687" />
<path d="M169,-238 L133,-159 L227,-179 L131,-30 L114,-71 L178,-70 Z" stroke-width="0" fill="#698d17" fill-opacity="0.03137254901960784" />
<path d="M62,-49 L94,-136 L87,-69 L224,-303 L95,-69 L70,-203 Z" stroke-width="0" fill="#911631" fill-opacity="0.5019607843137255" />
<path d="M46,-41 L187,-147 L111,-35 L144,-308 L118,-281 L50,-67 Z" stroke-width="0" fill="#786eb8" fill-opacity="0.09019607843137255" />
<path d="M207,-294 L86,-317 L191,-208 L145,-115 L51,-25 L46,-236 Z" stroke-width="0" fill="#48b07f" fill-opacity="0.5019607843137255" />
<path d="M134,-175 L25,-78 L156,-184 L146,-215 L177,-92 L97,-176 Z" stroke-width="0" fill="#89e0ed" fill-opacity="0.5019607843137255" />
<path d="M95,-320 L144,-121 L74,-293 L123,-62 L193,-56 L52,-277 Z" stroke-width="0" fill="#a0cb93" fill-opacity="0.4196078431372549" />
<path d="M41,-217 L57,-215 L179,-248 L212,-36 L238,-258 L97,-60 Z" stroke-width="0" fill="#982c5b" fill-opacity="0.2235294117647059" />
<path d="M112,-74 L107,-167 L208,-163 L73,-106 L212,-64 L86,-80 Z" stroke-width="0" fill="#284fb1" fill-opacity="0.11764705882352941" />
<path d="M202,-321 L114,-125 L41,-35 L58,-304 L43,-317 L160,-47 Z" stroke-width="0" fill="#80716f" fill-opacity="0.14901960784313725" />
<path d="M76,-165 L68,-234 L47,-45 L232,-39 L206,-106 L83,-307 Z" stroke-width="0" fill="#6d99dc" fill-opacity="0.1803921568627451" />
<path d="M134,-78 L169,-318 L196,-174 L149,-206 L225,-150 L57,-30 Z" stroke-width="0" fill="#867f78" fill-opacity="0.4980392156862745" />
<path d="M186,-255 L90,-115 L153,-149 L141,-139 L188,-160 L73,-298 Z" stroke-width="0" fill="#7ccdcd" fill-opacity="0.4745098039215686" />
<path d="M138,-231 L222,-310 L80,-74 L124,-173 L87,-166 L120,-204 Z" stroke-width="0" fill="#a67a7c" fill-opacity="0.5019607843137255" />
<path d="M106,-75 L71,-43 L56,-41 L84,-75 L116,-241 L49,-43 Z" stroke-width="0" fill="#9f8286" fill-opacity="0.4980392156862745" />
<path d="M63,-164 L74,-169 L127,-204 L213,-147 L29,-185 L166,-216 Z" stroke-width="0" fill="#50d27a" fill-opacity="0.09411764705882353" />
<path d="M31,-56 L167,-258 L156,-275 L45,-168 L79,-208 L123,-47 Z" stroke-width="0" fill="#50e3b4" fill-opacity="0.43137254901960786" />
<path d="M150,-213 L85,-175 L154,-227 L141,-97 L33,-81 L59,-232 Z" stroke-width="0" fill="#0a4e1f" fill-opacity="0.10196078431372549" />
<path d="M173,-301 L202,-61 L220,-109 L146,-50 L212,-294 L48,-136 Z" stroke-width="0" fill="#ad4434" fill-opacity="0.17254901960784313" />
<path d="M184,-96 L68,-69 L248,-51 L84,-117 L218,-135 L26,-26 Z" stroke-width="0" fill="#6c69a6" fill-opacity="0.10196078431372549" />
<path d="M59,-278 L219,-113 L233,-87 L78,-254 L162,-35 L63,-152 Z" stroke-width="0" fill="#c2d2cd" fill-opacity="0.058823529411764705" />
<path d="M57,-234 L168,-228 L244,-235 L47,-257 L75,-209 L85,-163 Z" stroke-width="0" fill="#7c2423" fill-opacity="0.26666666666666666" />
<path d="M118,-209 L233,-108 L122,-177 L77,-235 L234,-53 L157,-39 Z" stroke-width="0" fill="#4dc194" fill-opacity="0.2196078431372549" />
<path d="M100,-39 L72,-27 L179,-173 L158,-48 L29,-312 L30,-168 Z" stroke-width="0" fill="#739a7f" fill-opacity="0.5019607843137255" />
<path d="M41,-41 L200,-226 L64,-163 L185,-85 L61,-299 L72,-248 Z" stroke-width="0" fill="#930019" fill-opacity="0.2627450980392157" />
<path d="M137,-46 L37,-286 L40,-226 L136,-175 L102,-25 L64,-216 Z" stroke-width="0" fill="#7b5c7b" fill-opacity="0.38823529411764707" />
<path d="M214,-252 L99,-235 L186,-26 L130,-160 L183,-296 L244,-255 Z" stroke-width="0" fill="#1a0039" fill-opacity="0.17254901960784313" />
<path d="M75,-288 L42,-87 L95,-64 L85,-79 L134,-98 L36,-79 Z" stroke-width="0" fill="#c88de0" fill-opacity="0.10588235294117647" />
<text x="137.5" y="12.5" font-size="20.0" fill="black" text-anchor="middle" transform="translate(0,5.0)">PAGE OF FIRE</text>
</svg>