<?xml version="1.0" encoding="UTF-8"?>
<svg xmlns="http://www.w3.org/2000/svg" xmlns:xlink="http://www.w3.org/1999/xlink"
     width="896" height="1496" viewBox="0 -1400 896 1496" style="font-size:70;font-family:Poor Richard, Times New Roman;stroke:black;stroke-width:1;fill:none">
<defs>
</defs>
<path d="M218,-898 L774,-494 L222,-1194 L618,-990 L590,-358 L698,-1118 Z" stroke-width="0" fill="#0c1080" fill-opacity="0.6862745098039216" />
<path d="M234,-438 L106,-1114 L790,-618 L614,-330 L718,-486 L398,-1026 Z" stroke-width="0" fill="#1a6766" fill-opacity="0.4470588235294118" />
<path d="M582,-342 L506,-218 L258,-238 L746,-414 L878,-874 L94,-822 Z" stroke-width="0" fill="#03e2cf" fill-opacity="0.10196078431372549" />
<path d="M330,-334 L874,-358 L814,-1070 L590,-238 L974,-642 L658,-266 Z" stroke-width="0" fill="#10313f" fill-opacity="0.5058823529411764" />
<path d="M806,-1274 L586,-842 L394,-1130 L662,-982 L226,-1058 L602,-174 Z" stroke-width="0" fill="#05045f" fill-opacity="0.47843137254901963" />
<path d="M278,-514 L266,-582 L370,-786 L926,-314 L906,-498 L430,-1082 Z" stroke-width="0" fill="#3bf91b" fill-opacity="0.1843137254901961" />
<path d="M842,-522 L526,-638 L702,-878 L566,-374 L554,-526 L650,-466 Z" stroke-width="0" fill="#21d672" fill-opacity="0.9450980392156862" />
<path d="M822,-1030 L866,-86 L702,-366 L406,-134 L262,-282 L598,-586 Z" stroke-width="0" fill="#9db315" fill-opacity="0.5882352941176471" />
<path d="M594,-150 L970,-90 L818,-1122 L326,-234 L186,-386 L98,-750 Z" stroke-width="0" fill="#4d1e00" fill-opacity="0.5411764705882353" />
<path d="M458,-642 L194,-1086 L202,-1002 L618,-286 L270,-938 L586,-566 Z" stroke-width="0" fill="#dc67ea" fill-opacity="0.6352941176470588" />
<path d="M118,-402 L154,-90 L322,-730 L718,-886 L158,-242 L466,-554 Z" stroke-width="0" fill="#674f33" fill-opacity="0.8509803921568627" />
<path d="M214,-698 L542,-910 L398,-1090 L442,-694 L458,-106 L642,-798 Z" stroke-width="0" fill="#d3c5b7" fill-opacity="0.403921568627451" />
<path d="M494,-510 L450,-662 L446,-266 L486,-402 L454,-802 L350,-934 Z" stroke-width="0" fill="#1aa5b3" fill-opacity="0.8431372549019608" />
<path d="M86,-374 L282,-330 L950,-778 L538,-358 L354,-1058 L878,-630 Z" stroke-width="0" fill="#987672" fill-opacity="0.8588235294117647" />
<path d="M890,-934 L622,-250 L130,-322 L886,-258 L230,-358 L630,-290 Z" stroke-width="0" fill="#00b3e1" fill-opacity="0.803921568627451" />
<path d="M530,-766 L362,-202 L334,-218 L346,-634 L138,-202 L646,-218 Z" stroke-width="0" fill="#000000" fill-opacity="0.8392156862745098" />
<path d="M794,-246 L474,-542 L454,-634 L678,-838 L842,-726 L438,-150 Z" stroke-width="0" fill="#066bfd" fill-opacity="0.08235294117647059" />
<path d="M438,-174 L414,-578 L774,-458 L578,-818 L334,-638 L870,-754 Z" stroke-width="0" fill="#91ffbd" fill-opacity="0.39215686274509803" />
<path d="M694,-970 L126,-1098 L426,-1214 L694,-1058 L138,-126 L494,-498 Z" stroke-width="0" fill="#debb85" fill-opacity="0.984313725490196" />
<path d="M154,-630 L954,-1178 L454,-186 L230,-1226 L646,-1010 L794,-258 Z" stroke-width="0" fill="#398d15" fill-opacity="0.403921568627451" />
<path d="M882,-1090 L634,-842 L338,-1190 L594,-626 L734,-114 L862,-1250 Z" stroke-width="0" fill="#1a0019" fill-opacity="0.6196078431372549" />
<path d="M686,-458 L718,-718 L770,-898 L222,-566 L742,-1070 L206,-850 Z" stroke-width="0" fill="#b2f7f8" fill-opacity="0.9647058823529412" />
<path d="M342,-722 L426,-898 L442,-538 L134,-1118 L534,-302 L886,-446 Z" stroke-width="0" fill="#325f9c" fill-opacity="0.5490196078431373" />
<path d="M574,-90 L326,-566 L214,-430 L98,-1270 L98,-794 L426,-794 Z" stroke-width="0" fill="#260082" fill-opacity="0.5019607843137255" />
<path d="M394,-1206 L526,-1218 L758,-750 L638,-142 L238,-938 L610,-702 Z" stroke-width="0" fill="#19079b" fill-opacity="0.7647058823529411" />
<path d="M118,-826 L930,-110 L210,-282 L478,-874 L462,-454 L198,-1118 Z" stroke-width="0" fill="#16ce8d" fill-opacity="0.12549019607843137" />
<path d="M426,-974 L274,-182 L114,-750 L430,-802 L406,-422 L878,-854 Z" stroke-width="0" fill="#000000" fill-opacity="0.8745098039215686" />
<path d="M322,-1254 L886,-690 L194,-142 L738,-226 L722,-82 L162,-722 Z" stroke-width="0" fill="#5e1a3c" fill-opacity="0.5882352941176471" />
<path d="M154,-338 L350,-734 L602,-314 L542,-1178 L510,-1110 L346,-598 Z" stroke-width="0" fill="#c3e2fd" fill-opacity="0.6549019607843137" />
<path d="M134,-630 L294,-730 L590,-1202 L914,-378 L410,-506 L366,-522 Z" stroke-width="0" fill="#a700e0" fill-opacity="0.43137254901960786" />
<path d="M194,-110 L310,-954 L670,-1062 L322,-98 L498,-82 L218,-442 Z" stroke-width="0" fill="#582500" fill-opacity="0.6196078431372549" />
<path d="M506,-690 L478,-750 L458,-418 L422,-642 L206,-562 L466,-674 Z" stroke-width="0" fill="#16892e" fill-opacity="0.14901960784313725" />
<path d="M866,-526 L386,-1034 L734,-1046 L250,-130 L422,-1054 L586,-302 Z" stroke-width="0" fill="#081c00" fill-opacity="0.3686274509803922" />
<path d="M138,-426 L802,-338 L194,-562 L922,-562 L422,-190 L302,-1186 Z" stroke-width="0" fill="#50794e" fill-opacity="0.4823529411764706" />
<path d="M666,-910 L194,-86 L250,-494 L542,-242 L614,-378 L382,-654 Z" stroke-width="0" fill="#000000" fill-opacity="0.48627450980392156" />
<path d="M730,-498 L802,-630 L514,-690 L758,-854 L550,-782 L310,-542 Z" stroke-width="0" fill="#c1f22f" fill-opacity="0.2196078431372549" />
<path d="M806,-730 L458,-318 L370,-846 L670,-1038 L822,-142 L110,-270 Z" stroke-width="0" fill="#04070d" fill-opacity="0.4823529411764706" />
<path d="M146,-682 L770,-1110 L174,-1054 L306,-346 L370,-426 L426,-754 Z" stroke-width="0" fill="#4974ea" fill-opacity="0.2784313725490196" />
<path d="M782,-830 L114,-722 L838,-626 L278,-422 L358,-122 L190,-218 Z" stroke-width="0" fill="#342e50" fill-opacity="0.050980392156862744" />
<path d="M754,-246 L954,-650 L402,-314 L274,-582 L382,-714 L470,-890 Z" stroke-width="0" fill="#397996" fill-opacity="0.6980392156862745" />
<path d="M642,-242 L522,-1082 L274,-546 L482,-1238 L506,-134 L670,-130 Z" stroke-width="0" fill="#d7cdc8" fill-opacity="0.9568627450980393" />
<path d="M750,-834 L866,-206 L138,-722 L82,-1202 L698,-942 L342,-310 Z" stroke-width="0" fill="#005d2d" fill-opacity="0.5019607843137255" />
<path d="M454,-430 L330,-1198 L830,-474 L958,-506 L166,-126 L602,-518 Z" stroke-width="0" fill="#98813a" fill-opacity="0.43529411764705883" />
<path d="M774,-718 L510,-166 L342,-854 L394,-286 L838,-630 L434,-1106 Z" stroke-width="0" fill="#a1426c" fill-opacity="0.054901960784313725" />
<path d="M734,-262 L162,-506 L462,-670 L842,-902 L966,-1202 L690,-1002 Z" stroke-width="0" fill="#043d80" fill-opacity="0.7254901960784313" />
<path d="M814,-226 L326,-682 L154,-930 L382,-674 L958,-894 L490,-86 Z" stroke-width="0" fill="#f6b096" fill-opacity="0.8352941176470589" />
<path d="M554,-370 L802,-94 L974,-334 L902,-442 L114,-818 L654,-674 Z" stroke-width="0" fill="#0c0000" fill-opacity="0.5019607843137255" />
<path d="M926,-486 L818,-82 L382,-294 L554,-910 L574,-762 L250,-658 Z" stroke-width="0" fill="#f3fbb4" fill-opacity="0.7568627450980392" />
<path d="M510,-1166 L726,-802 L126,-478 L462,-330 L258,-358 L946,-478 Z" stroke-width="0" fill="#d5abfe" fill-opacity="0.7098039215686275" />
<path d="M214,-674 L922,-1274 L730,-198 L454,-886 L698,-770 L478,-730 Z" stroke-width="0" fill="#3174b6" fill-opacity="0.9176470588235294" />
<path d="M962,-850 L162,-890 L894,-962 L706,-550 L390,-782 L674,-550 Z" stroke-width="0" fill="#1063cf" fill-opacity="0.7529411764705882" />
<path d="M222,-1162 L810,-730 L154,-358 L878,-570 L130,-122 L426,-578 Z" stroke-width="0" fill="#b1610f" fill-opacity="0.34509803921568627" />
<path d="M890,-942 L86,-1258 L882,-754 L262,-782 L942,-146 L606,-1038 Z" stroke-width="0" fill="#847d53" fill-opacity="0.8941176470588236" />
<path d="M254,-1050 L182,-790 L394,-586 L86,-326 L670,-610 L582,-94 Z" stroke-width="0" fill="#6fc8f2" fill-opacity="0.3254901960784314" />
<path d="M606,-534 L502,-450 L458,-898 L794,-470 L898,-694 L422,-1178 Z" stroke-width="0" fill="#bea6f3" fill-opacity="0.403921568627451" />
<path d="M954,-722 L114,-646 L502,-742 L354,-970 L142,-642 L690,-1102 Z" stroke-width="0" fill="#5484f2" fill-opacity="0.9294117647058824" />
<path d="M806,-246 L270,-482 L178,-390 L802,-126 L234,-1138 L314,-834 Z" stroke-width="0" fill="#faa8f8" fill-opacity="0.10588235294117647" />
<path d="M686,-306 L822,-598 L102,-462 L370,-878 L506,-590 L126,-1042 Z" stroke-width="0" fill="#3e8352" fill-opacity="0.7215686274509804" />
<path d="M506,-1130 L278,-610 L882,-754 L322,-718 L222,-270 L202,-230 Z" stroke-width="0" fill="#261702" fill-opacity="0.14901960784313725" />
<path d="M242,-98 L942,-582 L878,-850 L382,-598 L358,-810 L478,-506 Z" stroke-width="0" fill="#4a9bd7" fill-opacity="0.9176470588235294" />
<path d="M630,-658 L602,-1054 L650,-390 L482,-154 L974,-410 L338,-314 Z" stroke-width="0" fill="#5c3e1a" fill-opacity="0.8274509803921568" />
<path d="M654,-1154 L454,-486 L674,-1030 L454,-1086 L462,-706 L654,-382 Z" stroke-width="0" fill="#8465e0" fill-opacity="0.8784313725490196" />
<path d="M874,-314 L942,-674 L430,-570 L850,-854 L210,-510 L282,-1130 Z" stroke-width="0" fill="#65848b" fill-opacity="0.5019607843137255" />
<path d="M450,-878 L530,-1170 L902,-258 L182,-170 L938,-382 L650,-310 Z" stroke-width="0" fill="#241a3d" fill-opacity="0.403921568627451" />
<path d="M658,-814 L134,-806 L618,-934 L442,-654 L910,-1246 L510,-146 Z" stroke-width="0" fill="#6d9bf0" fill-opacity="0.4117647058823529" />
<path d="M474,-146 L138,-1226 L710,-598 L610,-478 L174,-1262 L110,-818 Z" stroke-width="0" fill="#646ec4" fill-opacity="0.5019607843137255" />
<path d="M390,-842 L766,-714 L206,-426 L638,-274 L498,-318 L398,-834 Z" stroke-width="0" fill="#d4d217" fill-opacity="0.8980392156862745" />
<path d="M486,-434 L90,-890 L434,-1146 L158,-146 L538,-290 L178,-1078 Z" stroke-width="0" fill="#3182d9" fill-opacity="0.20392156862745098" />
<path d="M922,-546 L642,-626 L354,-114 L690,-818 L166,-110 L878,-954 Z" stroke-width="0" fill="#ece1da" fill-opacity="0.1843137254901961" />
<path d="M830,-818 L890,-398 L238,-842 L134,-198 L606,-794 L646,-882 Z" stroke-width="0" fill="#111604" fill-opacity="0.4980392156862745" />
<path d="M286,-1210 L742,-226 L274,-726 L270,-770 L270,-246 L494,-402 Z" stroke-width="0" fill="#2d2c00" fill-opacity="0.4235294117647059" />
<path d="M706,-418 L182,-154 L546,-118 L90,-766 L130,-398 L554,-322 Z" stroke-width="0" fill="#703837" fill-opacity="0.9176470588235294" />
<path d="M394,-790 L138,-246 L838,-738 L326,-750 L934,-650 L742,-458 Z" stroke-width="0" fill="#253c10" fill-opacity="0.11372549019607843" />
<path d="M970,-846 L370,-330 L766,-590 L198,-778 L374,-422 L150,-318 Z" stroke-width="0" fill="#471d42" fill-opacity="0.09019607843137255" />
<path d="M326,-574 L850,-994 L730,-698 L298,-1038 L666,-1274 L330,-178 Z" stroke-width="0" fill="#01064e" fill-opacity="0.5019607843137255" />
<path d="M518,-410 L910,-302 L174,-1150 L726,-326 L610,-190 L622,-278 Z" stroke-width="0" fill="#270100" fill-opacity="0.4196078431372549" />
<path d="M314,-318 L854,-1118 L166,-1242 L210,-1078 L442,-754 L554,-82 Z" stroke-width="0" fill="#003ac8" fill-opacity="0.5019607843137255" />
<path d="M942,-926 L602,-966 L978,-710 L302,-1206 L682,-214 L362,-90 Z" stroke-width="0" fill="#4984cc" fill-opacity="0.5411764705882353" />
<path d="M226,-454 L458,-314 L398,-330 L626,-1206 L462,-98 L826,-334 Z" stroke-width="0" fill="#31d97d" fill-opacity="0.22745098039215686" />
<path d="M714,-578 L110,-782 L358,-754 L210,-186 L822,-198 L810,-478 Z" stroke-width="0" fill="#750201" fill-opacity="0.08235294117647059" />
<path d="M818,-818 L434,-510 L190,-794 L362,-1274 L710,-1114 L926,-218 Z" stroke-width="0" fill="#5da9c0" fill-opacity="0.5019607843137255" />
<path d="M630,-750 L334,-894 L602,-1030 L234,-510 L818,-190 L782,-142 Z" stroke-width="0" fill="#310026" fill-opacity="0.24313725490196078" />
<path d="M466,-946 L338,-458 L906,-190 L170,-218 L98,-182 L322,-258 Z" stroke-width="0" fill="#bfc7a5" fill-opacity="0.6666666666666666" />
<path d="M90,-266 L678,-970 L462,-94 L938,-946 L562,-610 L782,-610 Z" stroke-width="0" fill="#140e3e" fill-opacity="0.17254901960784313" />
<path d="M614,-818 L510,-202 L134,-910 L366,-350 L626,-794 L282,-410 Z" stroke-width="0" fill="#1b6673" fill-opacity="0.07058823529411765" />
<path d="M902,-342 L138,-770 L114,-110 L246,-522 L606,-922 L326,-902 Z" stroke-width="0" fill="#624b1a" fill-opacity="0.5450980392156862" />
<path d="M614,-1090 L382,-1186 L170,-622 L274,-602 L946,-330 L210,-518 Z" stroke-width="0" fill="#585a25" fill-opacity="0.12941176470588237" />
<path d="M478,-110 L274,-302 L102,-486 L246,-894 L698,-730 L554,-98 Z" stroke-width="0" fill="#7e591e" fill-opacity="0.4745098039215686" />
<path d="M278,-98 L734,-278 L110,-430 L426,-550 L362,-1270 L630,-934 Z" stroke-width="0" fill="#8273d4" fill-opacity="0.3254901960784314" />
<path d="M570,-1234 L850,-666 L682,-410 L298,-838 L938,-754 L414,-274 Z" stroke-width="0" fill="#56aecf" fill-opacity="0.21176470588235294" />
<path d="M394,-114 L298,-682 L682,-842 L630,-322 L898,-1258 L594,-118 Z" stroke-width="0" fill="#968c34" fill-opacity="0.43529411764705883" />
<path d="M810,-902 L90,-910 L122,-514 L466,-1034 L782,-1070 L274,-102 Z" stroke-width="0" fill="#89f8ad" fill-opacity="0.08235294117647059" />
<path d="M398,-1130 L826,-178 L82,-338 L142,-310 L222,-222 L498,-542 Z" stroke-width="0" fill="#5d7f01" fill-opacity="0.01568627450980392" />
<path d="M150,-838 L578,-994 L386,-142 L598,-1142 L662,-722 L486,-682 Z" stroke-width="0" fill="#27010a" fill-opacity="0.40784313725490196" />
<path d="M158,-982 L170,-950 L158,-814 L318,-738 L582,-246 L714,-1122 Z" stroke-width="0" fill="#8a6088" fill-opacity="0.21176470588235294" />
<path d="M578,-1038 L742,-450 L490,-754 L554,-710 L434,-1058 L406,-1266 Z" stroke-width="0" fill="#9329ec" fill-opacity="0.043137254901960784" />
<path d="M322,-734 L942,-166 L786,-230 L946,-910 L698,-366 L966,-1034 Z" stroke-width="0" fill="#5a6038" fill-opacity="0.3803921568627451" />
<path d="M878,-350 L774,-926 L814,-574 L486,-470 L274,-602 L590,-522 Z" stroke-width="0" fill="#1c0d18" fill-opacity="0.5254901960784314" />
<path d="M234,-86 L842,-866 L326,-530 L838,-426 L926,-1174 L518,-954 Z" stroke-width="0" fill="#795556" fill-opacity="0.2823529411764706" />
<path d="M406,-1026 L294,-1278 L802,-1198 L910,-214 L658,-846 L386,-902 Z" stroke-width="0" fill="#29564f" fill-opacity="0.36470588235294116" />
<text x="448.0" y="0" font-size="70.0" fill="black" text-anchor="middle" transform="translate(0,17.5)">1 OF FIRE</text>
</svg>