<?xml version="1.0" encoding="UTF-8"?>
<svg xmlns="http://www.w3.org/2000/svg" xmlns:xlink="http://www.w3.org/1999/xlink"
     width="275" height="375" viewBox="0 -350 275 375">
<defs>
</defs>
<rect x="15" y="-335" width="245" height="320" stroke="black" stroke-width="4" fill="white" />
<path d="M65,-84 L207,-236 L140,-105 L245,-116 L247,-130 L122,-159 Z" stroke-width="0" fill="#000000" fill-opacity="0.6274509803921569" />
<path d="M223,-150 L222,-25 L119,-144 L65,-245 L220,-96 L151,-169 Z" stroke-width="0" fill="#501705" fill-opacity="0.5019607843137255" />
<path d="M98,-174 L49,-137 L222,-102 L103,-28 L146,-256 L96,-152 Z" stroke-width="0" fill="#907c69" fill-opacity="0.5137254901960784" />
<path d="M123,-143 L97,-124 L230,-242 L227,-30 L197,-169 L72,-233 Z" stroke-width="0" fill="#643e3e" fill-opacity="0.6274509803921569" />
<path d="M70,-292 L92,-133 L98,-83 L59,-41 L161,-32 L75,-223 Z" stroke-width="0" fill="#897674" fill-opacity="0.6274509803921569" />
<path d="M138,-169 L144,-227 L171,-161 L200,-53 L228,-105 L34,-45 Z" stroke-width="0" fill="#b2552c" fill-opacity="0.5647058823529412" />
<path d="M183,-220 L80,-248 L53,-261 L56,-299 L149,-273 L65,-191 Z" stroke-width="0" fill="#42fadc" fill-opacity="0.03529411764705882" />
<path d="M173,-225 L129,-123 L109,-177 L80,-253 L40,-35 L90,-98 Z" stroke-width="0" fill="#463c2a" fill-opacity="0.5019607843137255" />
<path d="M27,-310 L37,-156 L182,-86 L113,-164 L224,-207 L193,-277 Z" stroke-width="0" fill="#6270d4" fill-opacity="0.0392156862745098" />
<path d="M96,-264 L177,-142 L72,-144 L39,-129 L46,-46 L245,-148 Z" stroke-width="0" fill="#7f7532" fill-opacity="0.5215686274509804" />
<path d="M43,-136 L97,-184 L100,-307 L129,-92 L154,-168 L215,-79 Z" stroke-width="0" fill="#cdeef3" fill-opacity="0.011764705882352941" />
<path d="M146,-111 L190,-32 L53,-234 L179,-215 L92,-284 L178,-267 Z" stroke-width="0" fill="#2f0639" fill-opacity="0.20784313725490197" />
<path d="M78,-151 L235,-54 L63,-80 L114,-245 L150,-323 L186,-138 Z" stroke-width="0" fill="#1d6cd5" fill-opacity="0.3058823529411765" />
<path d="M71,-247 L93,-253 L119,-262 L107,-136 L119,-46 L216,-266 Z" stroke-width="0" fill="#27ec10" fill-opacity="0.0196078431372549" />
<path d="M195,-58 L220,-156 L108,-218 L175,-95 L71,-163 L58,-186 Z" stroke-width="0" fill="#e53989" fill-opacity="0.8980392156862745" />
<path d="M33,-92 L95,-233 L68,-247 L78,-73 L185,-248 L160,-135 Z" stroke-width="0" fill="#00090f" fill-opacity="0.8980392156862745" />
<path d="M129,-229 L173,-29 L177,-123 L27,-312 L176,-179 L239,-285 Z" stroke-width="0" fill="#c48552" fill-opacity="0.8196078431372549" />
<path d="M155,-223 L193,-72 L199,-292 L192,-195 L241,-149 L134,-95 Z" stroke-width="0" fill="#9dad68" fill-opacity="0.5294117647058824" />
<path d="M98,-309 L92,-203 L205,-272 L223,-198 L94,-158 L248,-42 Z" stroke-width="0" fill="#122d0a" fill-opacity="0.5803921568627451" />
<path d="M171,-185 L225,-304 L105,-193 L184,-88 L149,-43 L118,-189 Z" stroke-width="0" fill="#a58c06" fill-opacity="0.611764705882353" />
<path d="M41,-42 L130,-219 L41,-146 L26,-268 L28,-267 L233,-223 Z" stroke-width="0" fill="#69c8ff" fill-opacity="0.07058823529411765" />
<path d="M169,-120 L229,-178 L54,-161 L201,-241 L209,-241 L184,-41 Z" stroke-width="0" fill="#7d450b" fill-opacity="0.42745098039215684" />
<path d="M130,-276 L53,-54 L113,-43 L43,-254 L194,-225 L115,-221 Z" stroke-width="0" fill="#fcc6d5" fill-opacity="0.16862745098039217" />
<path d="M215,-152 L52,-119 L171,-59 L174,-245 L60,-317 L220,-63 Z" stroke-width="0" fill="#fefbff" fill-opacity="0.5607843137254902" />
<path d="M103,-167 L42,-43 L59,-154 L55,-261 L79,-94 L124,-215 Z" stroke-width="0" fill="#0c3173" fill-opacity="0.027450980392156862" />
<path d="M71,-132 L151,-118 L57,-117 L233,-39 L138,-237 L220,-218 Z" stroke-width="0" fill="#05231c" fill-opacity="0.4470588235294118" />
<path d="M224,-232 L92,-77 L32,-146 L181,-30 L82,-147 L174,-88 Z" stroke-width="0" fill="#538678" fill-opacity="0.27058823529411763" />
<path d="M71,-40 L117,-94 L126,-33 L149,-229 L121,-175 L69,-186 Z" stroke-width="0" fill="#b1e668" fill-opacity="0.12156862745098039" />
<path d="M28,-267 L84,-105 L103,-258 L231,-139 L117,-180 L183,-163 Z" stroke-width="0" fill="#a7899f" fill-opacity="0.14901960784313725" />
<path d="M243,-233 L81,-74 L225,-84 L137,-131 L73,-283 L242,-141 Z" stroke-width="0" fill="#00002f" fill-opacity="0.6823529411764706" />
<path d="M146,-153 L147,-151 L237,-50 L120,-312 L90,-149 L124,-84 Z" stroke-width="0" fill="#b1e9fa" fill-opacity="0.33725490196078434" />
<path d="M59,-98 L40,-49 L140,-162 L169,-131 L142,-127 L202,-153 Z" stroke-width="0" fill="#44263b" fill-opacity="0.7098039215686275" />
<path d="M242,-78 L240,-49 L25,-310 L47,-101 L88,-96 L209,-100 Z" stroke-width="0" fill="#0039f8" fill-opacity="0.1607843137254902" />
<path d="M229,-197 L189,-222 L54,-181 L47,-210 L71,-247 L147,-235 Z" stroke-width="0" fill="#8afeef" fill-opacity="0.43137254901960786" />
<path d="M85,-90 L184,-153 L157,-266 L223,-231 L103,-163 L51,-93 Z" stroke-width="0" fill="#54bbe9" fill-opacity="0.9058823529411765" />
<path d="M37,-66 L52,-266 L198,-204 L133,-243 L115,-193 L183,-246 Z" stroke-width="0" fill="#cb3d94" fill-opacity="0.023529411764705882" />
<path d="M129,-56 L212,-79 L78,-302 L136,-124 L144,-87 L161,-240 Z" stroke-width="0" fill="#ffd5af" fill-opacity="0.6823529411764706" />
<path d="M136,-172 L65,-123 L100,-162 L115,-99 L167,-196 L162,-209 Z" stroke-width="0" fill="#97c461" fill-opacity="0.6" />
<path d="M34,-231 L168,-105 L180,-324 L129,-40 L148,-234 L209,-324 Z" stroke-width="0" fill="#314ad7" fill-opacity="0.3333333333333333" />
<path d="M81,-241 L179,-137 L95,-39 L230,-318 L49,-195 L64,-139 Z" stroke-width="0" fill="#01001b" fill-opacity="0.5647058823529412" />
<path d="M107,-273 L38,-107 L68,-147 L102,-174 L59,-89 L168,-257 Z" stroke-width="0" fill="#afe9f6" fill-opacity="0.7568627450980392" />
<path d="M87,-171 L121,-164 L106,-133 L151,-190 L117,-82 L179,-266 Z" stroke-width="0" fill="#0f6de8" fill-opacity="0.5333333333333333" />
<path d="M73,-215 L59,-140 L162,-116 L96,-147 L75,-142 L216,-165 Z" stroke-width="0" fill="#e5fbb4" fill-opacity="0.7490196078431373" />
<path d="M235,-32 L142,-323 L57,-311 L142,-35 L116,-234 L181,-324 Z" stroke-width="0" fill="#0058f2" fill-opacity="0.24705882352941178" />
<path d="M83,-310 L77,-70 L199,-88 L82,-311 L149,-108 L141,-72 Z" stroke-width="0" fill="#b2aff4" fill-opacity="0.23137254901960785" />
<path d="M230,-104 L232,-106 L25,-309 L198,-74 L223,-73 L198,-53 Z" stroke-width="0" fill="#e394bf" fill-opacity="0.21568627450980393" />
<path d="M143,-176 L103,-92 L40,-234 L34,-37 L179,-257 L247,-96 Z" stroke-width="0" fill="#28323a" fill-opacity="0.5176470588235295" />
<path d="M199,-47 L157,-39 L220,-288 L69,-202 L105,-108 L191,-150 Z" stroke-width="0" fill="#616a46" fill-opacity="0.7137254901960784" />
<path d="M31,-152 L28,-175 L124,-107 L29,-267 L118,-119 L34,-227 Z" stroke-width="0" fill="#0b1e13" fill-opacity="0.803921568627451" />
<path d="M47,-244 L25,-42 L59,-80 L109,-223 L64,-248 L81,-198 Z" stroke-width="0" fill="#122800" fill-opacity="0.8313725490196079" />
<path d="M181,-227 L159,-101 L237,-98 L202,-241 L67,-56 L149,-281 Z" stroke-width="0" fill="#512c17" fill-opacity="0.5058823529411764" />
<path d="M176,-205 L83,-54 L69,-255 L176,-240 L192,-57 L195,-310 Z" stroke-width="0" fill="#494044" fill-opacity="0.403921568627451" />
<path d="M107,-30 L70,-266 L124,-321 L109,-178 L103,-56 L96,-29 Z" stroke-width="0" fill="#b4b3f6" fill-opacity="0.5019607843137255" />
<path d="M35,-121 L46,-99 L180,-43 L68,-236 L147,-253 L95,-85 Z" stroke-width="0" fill="#196a0a" fill-opacity="0.03137254901960784" />
<path d="M117,-279 L103,-50 L66,-222 L50,-143 L112,-310 L108,-51 Z" stroke-width="0" fill="#09b9db" fill-opacity="0.023529411764705882" />
<path d="M110,-261 L177,-45 L167,-137 L158,-178 L68,-130 L133,-273 Z" stroke-width="0" fill="#9fabd6" fill-opacity="0.1568627450980392" />
<path d="M171,-275 L96,-278 L141,-209 L135,-83 L92,-244 L166,-127 Z" stroke-width="0" fill="#b3ebbb" fill-opacity="0.07450980392156863" />
<path d="M189,-173 L36,-49 L236,-192 L95,-237 L166,-209 L51,-131 Z" stroke-width="0" fill="#344c06" fill-opacity="0.6392156862745098" />
<path d="M35,-192 L245,-92 L212,-289 L226,-262 L78,-227 L99,-121 Z" stroke-width="0" fill="#16283c" fill-opacity="0.5019607843137255" />
<path d="M25,-226 L229,-236 L177,-52 L241,-132 L97,-61 L58,-158 Z" stroke-width="0" fill="#625b2f" fill-opacity="0.19215686274509805" />
<path d="M169,-246 L143,-290 L97,-318 L153,-130 L154,-304 L139,-62 Z" stroke-width="0" fill="#8dbeec" fill-opacity="0.3843137254901961" />
<path d="M62,-125 L51,-51 L191,-162 L179,-192 L245,-64 L196,-138 Z" stroke-width="0" fill="#120008" fill-opacity="0.5764705882352941" />
<path d="M198,-81 L106,-264 L89,-203 L89,-30 L47,-106 L116,-55 Z" stroke-width="0" fill="#624331" fill-opacity="0.25882352941176473" />
<path d="M82,-102 L61,-178 L51,-125 L157,-33 L32,-324 L37,-72 Z" stroke-width="0" fill="#b2d5e3" fill-opacity="0.40784313725490196" />
<path d="M177,-95 L231,-151 L82,-263 L95,-81 L96,-282 L99,-276 Z" stroke-width="0" fill="#042400" fill-opacity="0.3568627450980392" />
<path d="M151,-30 L113,-160 L78,-60 L65,-172 L244,-282 L216,-266 Z" stroke-width="0" fill="#cdacf4" fill-opacity="0.29411764705882354" />
<path d="M232,-250 L101,-162 L99,-96 L67,-42 L132,-166 L228,-238 Z" stroke-width="0" fill="#270207" fill-opacity="0.5254901960784314" />
<path d="M194,-170 L129,-53 L90,-46 L153,-102 L133,-239 L30,-139 Z" stroke-width="0" fill="#c69dac" fill-opacity="0.8862745098039215" />
<path d="M28,-193 L233,-197 L169,-198 L45,-122 L198,-232 L186,-49 Z" stroke-width="0" fill="#436034" fill-opacity="0.7333333333333333" />
<path d="M136,-238 L75,-315 L98,-199 L52,-152 L138,-176 L30,-164 Z" stroke-width="0" fill="#a5d6ff" fill-opacity="0.8156862745098039" />
<path d="M176,-268 L191,-83 L120,-196 L158,-48 L185,-324 L107,-155 Z" stroke-width="0" fill="#504725" fill-opacity="0.38823529411764707" />
<path d="M96,-131 L178,-197 L60,-68 L164,-319 L169,-49 L51,-215 Z" stroke-width="0" fill="#0b3a72" fill-opacity="0.34901960784313724" />
<path d="M134,-153 L41,-229 L86,-44 L148,-74 L152,-137 L64,-89 Z" stroke-width="0" fill="#88b07a" fill-opacity="0.3411764705882353" />
<path d="M28,-156 L118,-245 L239,-106 L92,-32 L163,-92 L88,-50 Z" stroke-width="0" fill="#cac8cd" fill-opacity="0.3686274509803922" />
<path d="M32,-296 L91,-177 L193,-291 L81,-186 L96,-276 L28,-295 Z" stroke-width="0" fill="#dcedfe" fill-opacity="0.23529411764705882" />
<path d="M238,-240 L246,-262 L59,-303 L42,-49 L175,-33 L214,-202 Z" stroke-width="0" fill="#a59dff" fill-opacity="0.054901960784313725" />
<path d="M215,-112 L65,-184 L144,-61 L44,-155 L130,-27 L66,-272 Z" stroke-width="0" fill="#bcabf2" fill-opacity="0.7294117647058823" />
<path d="M167,-211 L78,-184 L48,-74 L65,-294 L25,-177 L210,-183 Z" stroke-width="0" fill="#af89d5" fill-opacity="0.1568627450980392" />
<path d="M57,-157 L69,-257 L102,-116 L116,-78 L91,-202 L230,-103 Z" stroke-width="0" fill="#bcfdf3" fill-opacity="0.9372549019607843" />
<path d="M132,-235 L182,-179 L245,-131 L43,-169 L206,-50 L109,-25 Z" stroke-width="0" fill="#0b453f" fill-opacity="0.050980392156862744" />
<path d="M185,-117 L158,-75 L150,-74 L82,-220 L135,-322 L48,-219 Z" stroke-width="0" fill="#bebbeb" fill-opacity="0.5843137254901961" />
<path d="M139,-94 L117,-141 L42,-52 L109,-241 L52,-129 L175,-267 Z" stroke-width="0" fill="#d7f7fb" fill-opacity="0.050980392156862744" />
<path d="M110,-278 L136,-197 L161,-132 L42,-244 L76,-140 L82,-242 Z" stroke-width="0" fill="#9cd9fd" fill-opacity="0.592156862745098" />
<path d="M156,-52 L49,-158 L148,-93 L56,-135 L50,-54 L153,-102 Z" stroke-width="0" fill="#5a5300" fill-opacity="0.5019607843137255" />
<path d="M221,-188 L218,-182 L99,-83 L26,-262 L26,-111 L182,-234 Z" stroke-width="0" fill="#74a3dc" fill-opacity="0.2901960784313726" />
<path d="M171,-188 L81,-182 L96,-176 L181,-35 L152,-275 L192,-92 Z" stroke-width="0" fill="#953d05" fill-opacity="0.6196078431372549" />
<path d="M234,-132 L61,-189 L48,-309 L154,-198 L165,-60 L71,-104 Z" stroke-width="0" fill="#94f3ef" fill-opacity="0.4745098039215686" />
<path d="M202,-40 L31,-223 L79,-273 L97,-150 L232,-271 L190,-164 Z" stroke-width="0" fill="#96adf3" fill-opacity="0.22745098039215686" />
<path d="M172,-185 L221,-159 L49,-152 L123,-105 L218,-178 L133,-74 Z" stroke-width="0" fill="#f8e179" fill-opacity="0.10980392156862745" />
<path d="M166,-297 L160,-203 L152,-146 L224,-29 L160,-60 L70,-217 Z" stroke-width="0" fill="#3f4dd9" fill-opacity="0.20784313725490197" />
<path d="M214,-90 L41,-302 L195,-76 L198,-53 L223,-178 L68,-314 Z" stroke-width="0" fill="#6a30f2" fill-opacity="0.0196078431372549" />
<path d="M171,-252 L195,-78 L197,-89 L106,-294 L149,-209 L122,-270 Z" stroke-width="0" fill="#36182c" fill-opacity="0.09803921568627451" />
<path d="M247,-59 L59,-114 L121,-97 L134,-61 L177,-150 L127,-298 Z" stroke-width="0" fill="#305544" fill-opacity="0.7019607843137254" />
<path d="M219,-183 L175,-220 L134,-90 L239,-283 L89,-306 L176,-225 Z" stroke-width="0" fill="#0e00cb" fill-opacity="0.043137254901960784" />
<path d="M198,-28 L40,-225 L75,-187 L74,-161 L55,-44 L167,-236 Z" stroke-width="0" fill="#8c1512" fill-opacity="0.054901960784313725" />
<path d="M134,-180 L131,-48 L190,-169 L51,-39 L190,-94 L134,-206 Z" stroke-width="0" fill="#432a1f" fill-opacity="0.5019607843137255" />
<path d="M100,-143 L44,-112 L90,-39 L32,-245 L220,-148 L220,-256 Z" stroke-width="0" fill="#aa95d2" fill-opacity="0.07450980392156863" />
<path d="M104,-211 L158,-113 L208,-114 L137,-146 L162,-101 L101,-214 Z" stroke-width="0" fill="#211b0a" fill-opacity="0.35294117647058826" />
<path d="M51,-317 L79,-286 L176,-207 L38,-223 L44,-43 L190,-213 Z" stroke-width="0" fill="#ece6e7" fill-opacity="0.01568627450980392" />
<path d="M94,-192 L230,-294 L149,-74 L70,-87 L90,-73 L57,-52 Z" stroke-width="0" fill="#265361" fill-opacity="0.47843137254901963" />
<text x="137.5" y="12.5" font-size="20.0" fill="black" text-anchor="middle" transform="translate(0,5.0)">10 OF FIRE</text>
</svg>