<?xml version="1.0" encoding="UTF-8"?>
<svg xmlns="http://www.w3.org/2000/svg" xmlns:xlink="http://www.w3.org/1999/xlink"
     width="896" height="1496" viewBox="0 -1400 896 1496" style="font-size:70;font-family:Poor Richard, Times New Roman;stroke:black;stroke-width:1;fill:none">
<defs>
</defs>
<path d="M742,-814 L498,-406 L786,-178 L342,-546 L710,-1198 L114,-722 Z" stroke-width="0" fill="#00000b" fill-opacity="0.5607843137254902" />
<path d="M250,-830 L754,-738 L598,-914 L210,-354 L370,-450 L570,-410 Z" stroke-width="0" fill="#1e09b0" fill-opacity="0.06274509803921569" />
<path d="M634,-478 L618,-690 L250,-626 L530,-482 L238,-438 L118,-710 Z" stroke-width="0" fill="#ce9cf1" fill-opacity="0.0196078431372549" />
<path d="M226,-1042 L350,-838 L498,-146 L402,-962 L134,-582 L414,-658 Z" stroke-width="0" fill="#f7e1f4" fill-opacity="0.011764705882352941" />
<path d="M678,-558 L330,-1162 L498,-478 L794,-870 L218,-562 L726,-82 Z" stroke-width="0" fill="#020004" fill-opacity="0.6274509803921569" />
<path d="M778,-1058 L142,-722 L98,-1278 L222,-178 L242,-690 L690,-1198 Z" stroke-width="0" fill="#0f2f09" fill-opacity="0.13725490196078433" />
<path d="M362,-806 L274,-246 L366,-278 L686,-798 L274,-1214 L730,-294 Z" stroke-width="0" fill="#d5f5e4" fill-opacity="0.09803921568627451" />
<path d="M134,-714 L210,-1094 L422,-726 L110,-738 L418,-1142 L766,-934 Z" stroke-width="0" fill="#232c2c" fill-opacity="0.9725490196078431" />
<path d="M510,-694 L158,-122 L442,-622 L94,-578 L646,-918 L266,-298 Z" stroke-width="0" fill="#3cf952" fill-opacity="0.011764705882352941" />
<path d="M98,-842 L682,-1054 L582,-298 L614,-1198 L654,-1054 L698,-374 Z" stroke-width="0" fill="#5a1652" fill-opacity="0.2627450980392157" />
<path d="M450,-606 L146,-778 L386,-94 L354,-950 L554,-86 L298,-662 Z" stroke-width="0" fill="#68787e" fill-opacity="0.1411764705882353" />
<path d="M746,-442 L346,-862 L366,-190 L146,-126 L542,-278 L142,-1058 Z" stroke-width="0" fill="#fcb9da" fill-opacity="0.06274509803921569" />
<path d="M470,-790 L262,-1030 L466,-250 L498,-586 L634,-666 L622,-814 Z" stroke-width="0" fill="#80a93f" fill-opacity="0.06274509803921569" />
<path d="M658,-602 L166,-342 L118,-226 L370,-770 L354,-554 L662,-442 Z" stroke-width="0" fill="#dde9df" fill-opacity="0.6431372549019608" />
<path d="M590,-238 L774,-702 L290,-1290 L446,-1182 L286,-134 L142,-1114 Z" stroke-width="0" fill="#d3b7d3" fill-opacity="0.16470588235294117" />
<path d="M702,-270 L438,-670 L322,-654 L366,-258 L794,-1006 L610,-370 Z" stroke-width="0" fill="#000007" fill-opacity="0.8156862745098039" />
<path d="M450,-314 L506,-1270 L218,-210 L306,-426 L330,-374 L586,-454 Z" stroke-width="0" fill="#d473bb" fill-opacity="0.050980392156862744" />
<path d="M722,-1186 L210,-822 L106,-1182 L94,-1214 L186,-346 L726,-110 Z" stroke-width="0" fill="#a8a3bd" fill-opacity="0.19215686274509805" />
<path d="M174,-334 L602,-254 L470,-946 L630,-618 L474,-562 L546,-174 Z" stroke-width="0" fill="#028c31" fill-opacity="0.0784313725490196" />
<path d="M238,-670 L602,-254 L458,-810 L450,-306 L210,-730 L586,-362 Z" stroke-width="0" fill="#ccd50a" fill-opacity="0.09019607843137255" />
<path d="M82,-502 L326,-1250 L394,-114 L502,-218 L134,-1134 L410,-442 Z" stroke-width="0" fill="#ccaccf" fill-opacity="0.2784313725490196" />
<path d="M258,-1030 L602,-382 L314,-770 L230,-442 L602,-390 L214,-1306 Z" stroke-width="0" fill="#626780" fill-opacity="0.12941176470588237" />
<path d="M206,-222 L334,-310 L286,-134 L418,-1126 L654,-1086 L542,-1234 Z" stroke-width="0" fill="#7849d4" fill-opacity="0.0784313725490196" />
<path d="M302,-438 L762,-570 L350,-850 L294,-818 L130,-646 L466,-1282 Z" stroke-width="0" fill="#f7fddc" fill-opacity="0.09019607843137255" />
<path d="M466,-390 L622,-722 L366,-702 L118,-186 L290,-298 L550,-114 Z" stroke-width="0" fill="#aa82f7" fill-opacity="0.08235294117647059" />
<path d="M298,-342 L666,-1258 L362,-810 L606,-662 L306,-378 L754,-1154 Z" stroke-width="0" fill="#000000" fill-opacity="0.49411764705882355" />
<path d="M798,-382 L674,-978 L254,-258 L178,-654 L162,-1170 L794,-322 Z" stroke-width="0" fill="#30181a" fill-opacity="0.807843137254902" />
<path d="M458,-322 L674,-654 L618,-546 L794,-590 L162,-746 L338,-634 Z" stroke-width="0" fill="#2b4400" fill-opacity="0.5882352941176471" />
<path d="M606,-1210 L418,-198 L486,-810 L134,-890 L542,-222 L626,-706 Z" stroke-width="0" fill="#50db0e" fill-opacity="0.023529411764705882" />
<path d="M722,-1022 L362,-130 L158,-330 L506,-382 L98,-594 L526,-1170 Z" stroke-width="0" fill="#2b0e18" fill-opacity="0.07450980392156863" />
<path d="M254,-570 L262,-122 L518,-166 L554,-966 L766,-1314 L374,-1122 Z" stroke-width="0" fill="#000000" fill-opacity="0.8862745098039215" />
<path d="M254,-538 L602,-474 L242,-322 L102,-862 L310,-1278 L658,-790 Z" stroke-width="0" fill="#a38bd2" fill-opacity="0.08627450980392157" />
<path d="M346,-262 L382,-118 L586,-802 L482,-1002 L346,-118 L158,-694 Z" stroke-width="0" fill="#f5e9f5" fill-opacity="0.9529411764705882" />
<path d="M410,-446 L426,-1082 L210,-282 L190,-494 L174,-1226 L130,-738 Z" stroke-width="0" fill="#f0fbd1" fill-opacity="0.9647058823529412" />
<path d="M194,-490 L582,-910 L614,-1210 L458,-1102 L110,-858 L134,-1158 Z" stroke-width="0" fill="#286422" fill-opacity="0.0" />
<path d="M330,-194 L538,-1138 L466,-1190 L618,-834 L206,-586 L170,-126 Z" stroke-width="0" fill="#b06f6c" fill-opacity="0.00392156862745098" />
<path d="M514,-342 L130,-526 L98,-410 L726,-266 L574,-330 L642,-690 Z" stroke-width="0" fill="#8e9da1" fill-opacity="0.09411764705882353" />
<path d="M302,-1218 L442,-482 L534,-226 L206,-430 L330,-1062 L494,-1030 Z" stroke-width="0" fill="#000000" fill-opacity="0.8823529411764706" />
<path d="M770,-358 L110,-306 L130,-1254 L722,-390 L770,-886 L430,-1234 Z" stroke-width="0" fill="#546122" fill-opacity="0.058823529411764705" />
<path d="M394,-150 L518,-1274 L490,-1222 L590,-1078 L718,-862 L110,-94 Z" stroke-width="0" fill="#b294e6" fill-opacity="0.19215686274509805" />
<path d="M202,-618 L722,-174 L434,-538 L274,-422 L590,-654 L418,-322 Z" stroke-width="0" fill="#19011c" fill-opacity="0.8470588235294118" />
<path d="M478,-166 L310,-938 L122,-1098 L90,-1270 L610,-394 L586,-126 Z" stroke-width="0" fill="#caeaea" fill-opacity="0.8745098039215686" />
<path d="M638,-1154 L306,-826 L154,-234 L394,-470 L206,-862 L458,-1014 Z" stroke-width="0" fill="#0c3c18" fill-opacity="0.03529411764705882" />
<path d="M106,-434 L250,-1262 L266,-82 L350,-290 L146,-142 L490,-698 Z" stroke-width="0" fill="#ecf1ef" fill-opacity="0.9490196078431372" />
<path d="M182,-730 L542,-94 L562,-506 L282,-338 L502,-1278 L102,-250 Z" stroke-width="0" fill="#070e16" fill-opacity="0.01568627450980392" />
<path d="M230,-234 L566,-786 L590,-898 L346,-330 L102,-994 L662,-1198 Z" stroke-width="0" fill="#0a030f" fill-opacity="0.023529411764705882" />
<path d="M94,-742 L578,-178 L802,-370 L254,-334 L470,-1290 L170,-438 Z" stroke-width="0" fill="#030200" fill-opacity="0.5058823529411764" />
<path d="M322,-878 L510,-322 L490,-830 L234,-694 L278,-1150 L250,-582 Z" stroke-width="0" fill="#d6f2de" fill-opacity="0.7568627450980392" />
<path d="M458,-422 L354,-150 L302,-1246 L462,-1054 L602,-446 L694,-470 Z" stroke-width="0" fill="#020a04" fill-opacity="0.03137254901960784" />
<path d="M126,-782 L666,-186 L154,-626 L230,-202 L762,-86 L434,-134 Z" stroke-width="0" fill="#ece0f2" fill-opacity="0.3803921568627451" />
<path d="M370,-166 L622,-94 L770,-370 L406,-982 L282,-682 L118,-890 Z" stroke-width="0" fill="#0f0706" fill-opacity="0.06274509803921569" />
<path d="M522,-426 L486,-394 L594,-418 L298,-118 L146,-890 L786,-662 Z" stroke-width="0" fill="#e7ea8d" fill-opacity="0.8588235294117647" />
<path d="M538,-354 L334,-198 L378,-882 L478,-1146 L166,-406 L526,-1070 Z" stroke-width="0" fill="#396180" fill-opacity="0.0" />
<path d="M134,-122 L170,-286 L662,-714 L666,-726 L746,-702 L638,-938 Z" stroke-width="0" fill="#0f0d0d" fill-opacity="0.0196078431372549" />
<path d="M486,-306 L662,-246 L238,-830 L570,-1150 L514,-382 L194,-402 Z" stroke-width="0" fill="#081000" fill-opacity="0.8784313725490196" />
<path d="M514,-174 L378,-782 L582,-366 L326,-1222 L466,-134 L362,-778 Z" stroke-width="0" fill="#d8cbf7" fill-opacity="0.8862745098039215" />
<path d="M646,-1110 L146,-942 L418,-506 L102,-646 L714,-974 L466,-1134 Z" stroke-width="0" fill="#170003" fill-opacity="0.11764705882352941" />
<path d="M226,-142 L302,-1238 L334,-678 L190,-254 L458,-138 L426,-850 Z" stroke-width="0" fill="#fefeec" fill-opacity="0.8901960784313725" />
<path d="M366,-766 L714,-442 L406,-494 L602,-1086 L642,-118 L142,-990 Z" stroke-width="0" fill="#e5caf2" fill-opacity="0.00784313725490196" />
<path d="M502,-998 L226,-1130 L446,-506 L106,-642 L270,-318 L170,-666 Z" stroke-width="0" fill="#1a1588" fill-opacity="0.047058823529411764" />
<path d="M398,-950 L138,-1054 L442,-1014 L418,-986 L490,-538 L202,-286 Z" stroke-width="0" fill="#64d6d8" fill-opacity="0.03137254901960784" />
<path d="M374,-690 L566,-394 L286,-770 L302,-602 L386,-354 L526,-534 Z" stroke-width="0" fill="#d5eef0" fill-opacity="0.25882352941176473" />
<path d="M430,-146 L750,-926 L342,-130 L206,-402 L630,-722 L398,-554 Z" stroke-width="0" fill="#407626" fill-opacity="0.13333333333333333" />
<path d="M750,-426 L206,-650 L598,-514 L710,-1154 L770,-542 L566,-1102 Z" stroke-width="0" fill="#241210" fill-opacity="0.8196078431372549" />
<path d="M734,-886 L542,-998 L566,-142 L94,-126 L450,-1038 L174,-166 Z" stroke-width="0" fill="#dbdede" fill-opacity="0.4392156862745098" />
<path d="M190,-542 L278,-722 L554,-978 L774,-754 L666,-262 L674,-450 Z" stroke-width="0" fill="#0f0418" fill-opacity="0.6392156862745098" />
<path d="M422,-602 L366,-118 L150,-334 L406,-770 L194,-310 L710,-502 Z" stroke-width="0" fill="#ecf6fb" fill-opacity="0.8313725490196079" />
<path d="M234,-874 L626,-1306 L274,-1062 L558,-954 L154,-1170 L794,-1122 Z" stroke-width="0" fill="#111605" fill-opacity="0.0196078431372549" />
<path d="M234,-662 L482,-362 L698,-378 L402,-494 L762,-542 L190,-230 Z" stroke-width="0" fill="#6a6464" fill-opacity="0.9058823529411765" />
<path d="M450,-362 L762,-694 L206,-974 L378,-358 L522,-810 L146,-846 Z" stroke-width="0" fill="#46723f" fill-opacity="0.17254901960784313" />
<path d="M314,-742 L786,-122 L210,-1090 L134,-606 L238,-814 L190,-1202 Z" stroke-width="0" fill="#aabe8e" fill-opacity="0.25882352941176473" />
<path d="M714,-954 L750,-1274 L210,-438 L178,-186 L634,-698 L106,-822 Z" stroke-width="0" fill="#281503" fill-opacity="0.9803921568627451" />
<path d="M394,-422 L658,-1118 L290,-154 L510,-406 L798,-406 L534,-906 Z" stroke-width="0" fill="#050e05" fill-opacity="0.8509803921568627" />
<path d="M250,-326 L582,-770 L258,-622 L338,-470 L514,-246 L110,-682 Z" stroke-width="0" fill="#638bf1" fill-opacity="0.792156862745098" />
<path d="M170,-1058 L762,-322 L186,-702 L662,-530 L198,-282 L106,-250 Z" stroke-width="0" fill="#b8a6f8" fill-opacity="0.13333333333333333" />
<path d="M466,-650 L86,-1206 L762,-154 L182,-202 L158,-678 L182,-350 Z" stroke-width="0" fill="#eff7f8" fill-opacity="0.9294117647058824" />
<path d="M742,-146 L238,-538 L106,-922 L534,-1018 L442,-1058 L266,-554 Z" stroke-width="0" fill="#dee9ed" fill-opacity="0.611764705882353" />
<path d="M266,-186 L342,-638 L338,-1314 L138,-590 L438,-294 L158,-1226 Z" stroke-width="0" fill="#e9f6ec" fill-opacity="0.9098039215686274" />
<path d="M214,-154 L418,-738 L346,-766 L154,-758 L642,-1174 L94,-938 Z" stroke-width="0" fill="#f1c1e5" fill-opacity="0.09019607843137255" />
<path d="M770,-266 L550,-1250 L530,-1066 L598,-454 L498,-90 L566,-906 Z" stroke-width="0" fill="#201a1f" fill-opacity="0.7764705882352941" />
<path d="M666,-766 L370,-306 L798,-1094 L222,-1042 L202,-714 L458,-762 Z" stroke-width="0" fill="#ead4d3" fill-opacity="0.27450980392156865" />
<path d="M450,-178 L586,-278 L422,-150 L130,-454 L102,-986 L678,-486 Z" stroke-width="0" fill="#eae0f7" fill-opacity="0.7686274509803922" />
<path d="M434,-862 L518,-766 L202,-1142 L770,-706 L438,-782 L766,-886 Z" stroke-width="0" fill="#aaea89" fill-opacity="0.07058823529411765" />
<path d="M322,-210 L94,-1170 L254,-218 L218,-90 L318,-798 L538,-258 Z" stroke-width="0" fill="#f6c9d8" fill-opacity="0.18823529411764706" />
<path d="M518,-510 L446,-214 L554,-450 L538,-202 L254,-1262 L662,-654 Z" stroke-width="0" fill="#263011" fill-opacity="0.0784313725490196" />
<path d="M186,-302 L286,-410 L510,-510 L738,-846 L598,-1278 L586,-190 Z" stroke-width="0" fill="#000e08" fill-opacity="0.20392156862745098" />
<path d="M582,-750 L254,-326 L278,-906 L318,-574 L146,-1098 L806,-318 Z" stroke-width="0" fill="#f2f0e2" fill-opacity="0.15294117647058825" />
<path d="M546,-282 L90,-646 L382,-1110 L450,-386 L674,-614 L498,-778 Z" stroke-width="0" fill="#f1fdf8" fill-opacity="0.0784313725490196" />
<path d="M446,-1310 L594,-942 L714,-1222 L366,-194 L710,-558 L274,-146 Z" stroke-width="0" fill="#000800" fill-opacity="0.023529411764705882" />
<path d="M262,-334 L482,-926 L102,-838 L446,-1022 L234,-322 L206,-270 Z" stroke-width="0" fill="#f6f8df" fill-opacity="0.0392156862745098" />
<path d="M270,-338 L546,-738 L138,-446 L498,-578 L510,-170 L442,-410 Z" stroke-width="0" fill="#000000" fill-opacity="0.9686274509803922" />
<path d="M158,-1278 L650,-190 L102,-790 L114,-982 L146,-326 L738,-94 Z" stroke-width="0" fill="#fbf3cd" fill-opacity="0.7843137254901961" />
<path d="M82,-1082 L794,-806 L758,-1134 L122,-530 L114,-1210 L574,-850 Z" stroke-width="0" fill="#776332" fill-opacity="0.0" />
<path d="M794,-1206 L314,-1002 L506,-214 L222,-182 L762,-1046 L682,-870 Z" stroke-width="0" fill="#040017" fill-opacity="0.43529411764705883" />
<path d="M790,-834 L234,-362 L374,-422 L746,-318 L358,-1054 L310,-178 Z" stroke-width="0" fill="#000000" fill-opacity="0.9254901960784314" />
<path d="M318,-398 L450,-578 L510,-370 L470,-950 L438,-1142 L174,-674 Z" stroke-width="0" fill="#9597c9" fill-opacity="0.13725490196078433" />
<path d="M218,-1294 L538,-970 L646,-798 L698,-1238 L510,-1250 L358,-1222 Z" stroke-width="0" fill="#083200" fill-opacity="0.06666666666666667" />
<path d="M586,-626 L514,-534 L346,-210 L106,-1174 L250,-294 L606,-618 Z" stroke-width="0" fill="#dccbea" fill-opacity="0.03137254901960784" />
<path d="M82,-602 L254,-870 L538,-270 L518,-338 L534,-890 L450,-842 Z" stroke-width="0" fill="#412724" fill-opacity="0.03137254901960784" />
<path d="M178,-526 L182,-838 L550,-486 L562,-114 L698,-626 L670,-934 Z" stroke-width="0" fill="#b8dfc3" fill-opacity="0.0392156862745098" />
<text x="448.0" y="0" font-size="70.0" fill="black" text-anchor="middle" transform="translate(0,17.5)">5 OF FIRE</text>
</svg>