<?xml version="1.0" encoding="UTF-8"?>
<svg xmlns="http://www.w3.org/2000/svg" xmlns:xlink="http://www.w3.org/1999/xlink"
     width="275" height="375" viewBox="0 -350 275 375">
<defs>
</defs>
<rect x="15" y="-335" width="245" height="320" stroke="black" stroke-width="4" fill="white" />
<path d="M175,-113 L105,-166 L99,-311 L183,-229 L111,-301 L56,-46 Z" stroke-width="0" fill="#00f594" fill-opacity="0.13333333333333333" />
<path d="M232,-58 L114,-52 L28,-229 L221,-291 L204,-178 L31,-258 Z" stroke-width="0" fill="#007176" fill-opacity="0.9450980392156862" />
<path d="M228,-173 L173,-180 L160,-295 L245,-172 L221,-175 L166,-261 Z" stroke-width="0" fill="#280000" fill-opacity="0.8" />
<path d="M55,-47 L30,-118 L224,-156 L186,-76 L26,-121 L115,-38 Z" stroke-width="0" fill="#0085de" fill-opacity="0.7490196078431373" />
<path d="M38,-169 L124,-228 L165,-44 L148,-102 L64,-43 L83,-308 Z" stroke-width="0" fill="#0000a2" fill-opacity="0.6352941176470588" />
<path d="M34,-258 L140,-70 L124,-111 L91,-175 L57,-226 L83,-249 Z" stroke-width="0" fill="#040015" fill-opacity="0.8274509803921568" />
<path d="M93,-101 L206,-31 L106,-250 L150,-145 L195,-318 L151,-204 Z" stroke-width="0" fill="#0061d7" fill-opacity="0.9294117647058824" />
<path d="M247,-36 L229,-131 L200,-148 L84,-305 L64,-139 L218,-25 Z" stroke-width="0" fill="#000078" fill-opacity="0.7843137254901961" />
<path d="M75,-172 L134,-102 L172,-163 L71,-324 L122,-289 L109,-187 Z" stroke-width="0" fill="#090051" fill-opacity="0.9568627450980393" />
<path d="M32,-171 L82,-162 L240,-178 L88,-188 L137,-64 L196,-204 Z" stroke-width="0" fill="#301329" fill-opacity="0.27058823529411763" />
<path d="M37,-147 L30,-178 L39,-321 L111,-92 L107,-146 L103,-142 Z" stroke-width="0" fill="#00193d" fill-opacity="0.9607843137254902" />
<path d="M45,-196 L68,-58 L45,-48 L142,-93 L120,-294 L149,-308 Z" stroke-width="0" fill="#184c4e" fill-opacity="0.8901960784313725" />
<path d="M70,-65 L46,-124 L213,-190 L203,-129 L241,-197 L71,-98 Z" stroke-width="0" fill="#83160b" fill-opacity="0.8823529411764706" />
<path d="M185,-70 L113,-130 L30,-25 L156,-93 L90,-241 L125,-289 Z" stroke-width="0" fill="#000150" fill-opacity="0.611764705882353" />
<path d="M134,-143 L234,-137 L113,-228 L198,-123 L229,-174 L120,-85 Z" stroke-width="0" fill="#000017" fill-opacity="0.9921568627450981" />
<path d="M75,-207 L230,-158 L125,-33 L68,-131 L136,-229 L128,-102 Z" stroke-width="0" fill="#3e54fd" fill-opacity="0.22745098039215686" />
<path d="M187,-50 L139,-104 L97,-208 L204,-104 L131,-152 L118,-77 Z" stroke-width="0" fill="#11f8fe" fill-opacity="0.5725490196078431" />
<path d="M113,-210 L169,-280 L46,-254 L35,-292 L217,-289 L110,-260 Z" stroke-width="0" fill="#004148" fill-opacity="0.8549019607843137" />
<path d="M69,-113 L50,-167 L106,-282 L45,-241 L158,-137 L79,-96 Z" stroke-width="0" fill="#86d457" fill-opacity="0.25882352941176473" />
<path d="M37,-95 L48,-142 L94,-281 L178,-211 L74,-48 L63,-118 Z" stroke-width="0" fill="#00042c" fill-opacity="0.4549019607843137" />
<path d="M62,-210 L57,-201 L133,-278 L153,-143 L159,-130 L188,-67 Z" stroke-width="0" fill="#123e56" fill-opacity="0.14901960784313725" />
<path d="M69,-163 L43,-296 L122,-132 L108,-300 L90,-80 L244,-299 Z" stroke-width="0" fill="#0059cf" fill-opacity="0.8274509803921568" />
<path d="M109,-270 L74,-79 L169,-264 L111,-150 L127,-25 L176,-50 Z" stroke-width="0" fill="#00389d" fill-opacity="0.47058823529411764" />
<path d="M141,-189 L42,-144 L236,-180 L116,-183 L32,-52 L86,-69 Z" stroke-width="0" fill="#000093" fill-opacity="0.6784313725490196" />
<path d="M222,-82 L45,-266 L94,-253 L131,-178 L138,-145 L182,-228 Z" stroke-width="0" fill="#110a09" fill-opacity="0.9764705882352941" />
<path d="M139,-60 L82,-254 L207,-238 L32,-287 L165,-33 L100,-169 Z" stroke-width="0" fill="#363365" fill-opacity="0.7725490196078432" />
<path d="M235,-164 L246,-84 L65,-140 L196,-68 L162,-308 L191,-78 Z" stroke-width="0" fill="#000000" fill-opacity="0.9647058823529412" />
<path d="M58,-195 L229,-321 L37,-109 L191,-69 L121,-189 L103,-268 Z" stroke-width="0" fill="#003eb6" fill-opacity="0.9098039215686274" />
<path d="M187,-43 L131,-60 L232,-296 L189,-205 L100,-107 L118,-104 Z" stroke-width="0" fill="#1054db" fill-opacity="0.9254901960784314" />
<path d="M76,-219 L212,-244 L68,-237 L133,-41 L159,-171 L140,-145 Z" stroke-width="0" fill="#62d7f9" fill-opacity="0.21176470588235294" />
<path d="M46,-221 L234,-170 L184,-292 L42,-121 L197,-44 L181,-48 Z" stroke-width="0" fill="#2a3593" fill-opacity="0.1843137254901961" />
<path d="M53,-202 L70,-217 L246,-49 L248,-82 L57,-322 L105,-109 Z" stroke-width="0" fill="#00002a" fill-opacity="0.8509803921568627" />
<path d="M84,-221 L46,-143 L39,-106 L169,-65 L31,-81 L55,-203 Z" stroke-width="0" fill="#0df1e5" fill-opacity="0.5607843137254902" />
<path d="M171,-134 L224,-83 L76,-33 L127,-274 L139,-222 L127,-58 Z" stroke-width="0" fill="#002bea" fill-opacity="0.4666666666666667" />
<path d="M220,-212 L81,-313 L109,-126 L185,-73 L129,-291 L171,-67 Z" stroke-width="0" fill="#005176" fill-opacity="0.5019607843137255" />
<path d="M117,-112 L169,-318 L130,-169 L221,-96 L121,-172 L62,-88 Z" stroke-width="0" fill="#240039" fill-opacity="0.7764705882352941" />
<path d="M66,-306 L48,-99 L69,-162 L145,-295 L185,-89 L91,-155 Z" stroke-width="0" fill="#005571" fill-opacity="0.39215686274509803" />
<path d="M226,-216 L185,-182 L79,-290 L133,-52 L154,-49 L64,-314 Z" stroke-width="0" fill="#0e146e" fill-opacity="0.9568627450980393" />
<path d="M171,-172 L148,-271 L138,-188 L187,-166 L136,-103 L145,-268 Z" stroke-width="0" fill="#e240a9" fill-opacity="0.03529411764705882" />
<path d="M161,-312 L159,-296 L69,-25 L187,-74 L191,-320 L56,-324 Z" stroke-width="0" fill="#00005a" fill-opacity="0.7803921568627451" />
<path d="M181,-258 L109,-92 L150,-57 L49,-168 L79,-211 L124,-283 Z" stroke-width="0" fill="#b2c3fc" fill-opacity="0.8235294117647058" />
<path d="M126,-157 L218,-89 L97,-321 L73,-132 L84,-114 L92,-71 Z" stroke-width="0" fill="#061d6d" fill-opacity="0.8862745098039215" />
<path d="M248,-236 L64,-82 L49,-204 L167,-298 L180,-96 L50,-164 Z" stroke-width="0" fill="#d198ed" fill-opacity="0.4392156862745098" />
<path d="M43,-318 L74,-272 L95,-275 L218,-142 L149,-188 L119,-99 Z" stroke-width="0" fill="#00002f" fill-opacity="0.8117647058823529" />
<path d="M52,-189 L95,-244 L228,-26 L158,-117 L145,-85 L25,-174 Z" stroke-width="0" fill="#1d4ea3" fill-opacity="0.9686274509803922" />
<path d="M135,-260 L41,-44 L26,-161 L106,-52 L35,-295 L193,-240 Z" stroke-width="0" fill="#6f3c56" fill-opacity="0.6901960784313725" />
<path d="M132,-49 L27,-175 L226,-180 L220,-64 L49,-285 L42,-149 Z" stroke-width="0" fill="#1597b2" fill-opacity="0.047058823529411764" />
<path d="M75,-206 L114,-174 L164,-126 L143,-82 L73,-121 L85,-146 Z" stroke-width="0" fill="#9147b7" fill-opacity="0.4627450980392157" />
<path d="M125,-81 L25,-146 L158,-36 L152,-61 L205,-324 L114,-65 Z" stroke-width="0" fill="#0047b6" fill-opacity="0.8352941176470589" />
<path d="M194,-124 L59,-112 L180,-272 L86,-298 L126,-308 L170,-35 Z" stroke-width="0" fill="#084b8d" fill-opacity="0.8901960784313725" />
<path d="M199,-55 L44,-270 L59,-159 L230,-100 L95,-141 L236,-139 Z" stroke-width="0" fill="#000058" fill-opacity="0.8941176470588236" />
<path d="M120,-46 L83,-55 L141,-223 L30,-278 L52,-139 L93,-71 Z" stroke-width="0" fill="#38ddd5" fill-opacity="0.3137254901960784" />
<path d="M109,-76 L216,-162 L55,-173 L156,-245 L151,-194 L136,-94 Z" stroke-width="0" fill="#4752ca" fill-opacity="0.7176470588235294" />
<path d="M222,-168 L200,-75 L223,-85 L217,-265 L127,-100 L121,-275 Z" stroke-width="0" fill="#00027e" fill-opacity="0.20392156862745098" />
<path d="M89,-310 L234,-171 L236,-149 L34,-85 L171,-114 L166,-81 Z" stroke-width="0" fill="#001571" fill-opacity="0.9529411764705882" />
<path d="M114,-70 L44,-53 L190,-214 L152,-174 L27,-58 L48,-63 Z" stroke-width="0" fill="#175a9e" fill-opacity="0.9490196078431372" />
<path d="M142,-218 L241,-222 L128,-128 L41,-56 L130,-199 L144,-282 Z" stroke-width="0" fill="#ff88d7" fill-opacity="0.3058823529411765" />
<path d="M48,-163 L202,-36 L247,-43 L61,-199 L179,-175 L38,-174 Z" stroke-width="0" fill="#0000b1" fill-opacity="0.7607843137254902" />
<path d="M247,-262 L227,-77 L211,-178 L34,-181 L43,-137 L184,-78 Z" stroke-width="0" fill="#1b000e" fill-opacity="0.29411764705882354" />
<path d="M103,-168 L122,-290 L159,-122 L134,-267 L102,-317 L231,-193 Z" stroke-width="0" fill="#1d1554" fill-opacity="0.7529411764705882" />
<path d="M102,-119 L58,-169 L28,-292 L104,-62 L51,-104 L200,-78 Z" stroke-width="0" fill="#2d784e" fill-opacity="0.9254901960784314" />
<path d="M86,-57 L75,-146 L40,-78 L101,-175 L30,-248 L216,-75 Z" stroke-width="0" fill="#0048ac" fill-opacity="0.7372549019607844" />
<path d="M119,-154 L85,-287 L153,-287 L75,-179 L223,-42 L113,-123 Z" stroke-width="0" fill="#457ec7" fill-opacity="0.3176470588235294" />
<path d="M175,-40 L87,-133 L55,-133 L112,-76 L246,-320 L60,-206 Z" stroke-width="0" fill="#002ac2" fill-opacity="0.7607843137254902" />
<path d="M235,-112 L211,-154 L208,-53 L242,-318 L171,-208 L50,-198 Z" stroke-width="0" fill="#00005f" fill-opacity="0.47843137254901963" />
<path d="M111,-37 L137,-320 L176,-87 L125,-320 L138,-115 L171,-137 Z" stroke-width="0" fill="#286ac6" fill-opacity="0.9490196078431372" />
<path d="M168,-64 L32,-48 L218,-98 L52,-68 L86,-128 L100,-76 Z" stroke-width="0" fill="#000563" fill-opacity="0.6823529411764706" />
<path d="M84,-99 L198,-264 L52,-286 L126,-141 L33,-136 L69,-205 Z" stroke-width="0" fill="#091d87" fill-opacity="0.4117647058823529" />
<path d="M212,-320 L57,-119 L160,-29 L129,-127 L59,-266 L65,-164 Z" stroke-width="0" fill="#0012c1" fill-opacity="0.6823529411764706" />
<path d="M53,-82 L87,-59 L156,-149 L176,-134 L167,-152 L94,-287 Z" stroke-width="0" fill="#000000" fill-opacity="0.8470588235294118" />
<path d="M121,-95 L64,-220 L116,-267 L120,-116 L226,-223 L61,-241 Z" stroke-width="0" fill="#070320" fill-opacity="0.5019607843137255" />
<path d="M66,-188 L176,-59 L80,-181 L168,-182 L126,-183 L107,-299 Z" stroke-width="0" fill="#305889" fill-opacity="0.6980392156862745" />
<path d="M175,-41 L87,-72 L177,-124 L127,-114 L233,-211 L171,-313 Z" stroke-width="0" fill="#5633f6" fill-opacity="0.08235294117647059" />
<path d="M113,-40 L106,-181 L223,-56 L219,-286 L70,-110 L194,-275 Z" stroke-width="0" fill="#00006f" fill-opacity="0.09019607843137255" />
<path d="M138,-208 L204,-95 L143,-288 L126,-87 L143,-225 L52,-152 Z" stroke-width="0" fill="#000082" fill-opacity="0.4980392156862745" />
<path d="M145,-140 L93,-237 L63,-283 L26,-178 L92,-81 L246,-114 Z" stroke-width="0" fill="#0914d8" fill-opacity="0.3803921568627451" />
<path d="M81,-198 L184,-280 L151,-202 L194,-80 L131,-81 L39,-87 Z" stroke-width="0" fill="#1f6ed3" fill-opacity="0.5490196078431373" />
<path d="M36,-118 L101,-81 L206,-44 L82,-316 L139,-76 L183,-129 Z" stroke-width="0" fill="#2f9ff0" fill-opacity="0.3568627450980392" />
<path d="M53,-291 L86,-87 L184,-175 L136,-140 L177,-138 L166,-83 Z" stroke-width="0" fill="#927cc8" fill-opacity="0.4666666666666667" />
<path d="M29,-69 L27,-296 L140,-275 L126,-192 L101,-28 L96,-79 Z" stroke-width="0" fill="#10619d" fill-opacity="0.8862745098039215" />
<path d="M69,-223 L165,-181 L163,-101 L34,-96 L87,-300 L139,-35 Z" stroke-width="0" fill="#3a92a2" fill-opacity="0.9019607843137255" />
<path d="M27,-280 L89,-71 L52,-232 L162,-203 L104,-139 L174,-125 Z" stroke-width="0" fill="#2932d4" fill-opacity="0.20784313725490197" />
<path d="M28,-116 L191,-74 L157,-123 L56,-121 L118,-57 L182,-35 Z" stroke-width="0" fill="#061eef" fill-opacity="0.3058823529411765" />
<path d="M142,-221 L173,-324 L155,-316 L99,-289 L215,-275 L66,-108 Z" stroke-width="0" fill="#2177e4" fill-opacity="0.7568627450980392" />
<path d="M66,-99 L173,-252 L166,-311 L60,-188 L174,-322 L200,-203 Z" stroke-width="0" fill="#0fadb9" fill-opacity="0.48627450980392156" />
<path d="M107,-269 L94,-74 L207,-106 L114,-61 L131,-120 L112,-273 Z" stroke-width="0" fill="#002385" fill-opacity="0.5058823529411764" />
<path d="M87,-120 L123,-232 L247,-241 L126,-255 L41,-142 L188,-67 Z" stroke-width="0" fill="#1185c2" fill-opacity="0.12941176470588237" />
<path d="M106,-253 L37,-258 L163,-194 L43,-271 L155,-114 L74,-151 Z" stroke-width="0" fill="#562000" fill-opacity="0.0196078431372549" />
<path d="M62,-33 L190,-181 L226,-260 L65,-64 L74,-174 L95,-240 Z" stroke-width="0" fill="#001daa" fill-opacity="0.5058823529411764" />
<path d="M130,-206 L119,-39 L119,-56 L149,-46 L51,-205 L158,-226 Z" stroke-width="0" fill="#43c9b9" fill-opacity="0.7254901960784313" />
<path d="M86,-47 L80,-117 L83,-108 L216,-44 L156,-260 L161,-109 Z" stroke-width="0" fill="#001afb" fill-opacity="0.3215686274509804" />
<path d="M142,-221 L103,-66 L241,-157 L109,-196 L128,-285 L39,-59 Z" stroke-width="0" fill="#0002aa" fill-opacity="0.36470588235294116" />
<path d="M103,-225 L180,-88 L78,-309 L217,-39 L30,-179 L127,-35 Z" stroke-width="0" fill="#00c0b0" fill-opacity="0.2784313725490196" />
<path d="M140,-304 L41,-80 L130,-47 L108,-319 L119,-198 L27,-238 Z" stroke-width="0" fill="#1966c6" fill-opacity="0.9294117647058824" />
<path d="M156,-208 L242,-274 L245,-79 L147,-212 L97,-38 L227,-269 Z" stroke-width="0" fill="#00005a" fill-opacity="0.5019607843137255" />
<path d="M178,-127 L215,-230 L194,-252 L75,-256 L116,-183 L40,-263 Z" stroke-width="0" fill="#0016a8" fill-opacity="0.7725490196078432" />
<path d="M175,-53 L74,-279 L44,-69 L194,-47 L188,-70 L44,-227 Z" stroke-width="0" fill="#3052ab" fill-opacity="0.27450980392156865" />
<path d="M84,-156 L180,-313 L114,-154 L215,-75 L73,-290 L88,-118 Z" stroke-width="0" fill="#286fbd" fill-opacity="0.2235294117647059" />
<path d="M139,-195 L132,-110 L208,-115 L48,-297 L132,-209 L58,-32 Z" stroke-width="0" fill="#094fd5" fill-opacity="0.48627450980392156" />
<path d="M138,-132 L43,-265 L49,-208 L84,-253 L197,-241 L92,-288 Z" stroke-width="0" fill="#2159d8" fill-opacity="0.2901960784313726" />
<text x="137.5" y="12.5" font-size="20.0" fill="black" text-anchor="middle" transform="translate(0,5.0)">9 OF FIRE</text>
</svg>