<?xml version="1.0" encoding="UTF-8"?>
<svg xmlns="http://www.w3.org/2000/svg" xmlns:xlink="http://www.w3.org/1999/xlink"
     width="896" height="1496" viewBox="0 -1400 896 1496" style="font-size:70;font-family:Poor Richard, Times New Roman;stroke:black;stroke-width:1;fill:none">
<defs>
</defs>
<path d="M482,-474 L714,-1286 L662,-166 L670,-130 L86,-934 L118,-278 Z" stroke-width="0" fill="#52514a" fill-opacity="0.807843137254902" />
<path d="M550,-1162 L154,-274 L94,-1118 L538,-354 L270,-614 L402,-542 Z" stroke-width="0" fill="#1b167f" fill-opacity="0.6823529411764706" />
<path d="M194,-178 L802,-702 L250,-606 L754,-450 L606,-218 L406,-394 Z" stroke-width="0" fill="#f8e4f3" fill-opacity="0.10196078431372549" />
<path d="M386,-462 L274,-158 L226,-342 L542,-726 L634,-694 L386,-1178 Z" stroke-width="0" fill="#325764" fill-opacity="0.6666666666666666" />
<path d="M362,-406 L246,-1262 L450,-350 L238,-1110 L570,-566 L458,-506 Z" stroke-width="0" fill="#c0f795" fill-opacity="0.2235294117647059" />
<path d="M610,-498 L214,-258 L330,-462 L370,-514 L674,-746 L566,-182 Z" stroke-width="0" fill="#c0ee96" fill-opacity="0.25098039215686274" />
<path d="M582,-510 L210,-286 L222,-526 L534,-154 L390,-198 L258,-1194 Z" stroke-width="0" fill="#55c8ea" fill-opacity="0.0" />
<path d="M658,-854 L446,-254 L422,-222 L334,-154 L114,-306 L130,-1238 Z" stroke-width="0" fill="#dff6af" fill-opacity="0.3333333333333333" />
<path d="M702,-478 L114,-654 L86,-1286 L642,-814 L186,-1006 L470,-538 Z" stroke-width="0" fill="#137081" fill-opacity="0.5098039215686274" />
<path d="M786,-690 L742,-674 L482,-158 L566,-362 L506,-806 L310,-290 Z" stroke-width="0" fill="#badccc" fill-opacity="0.03529411764705882" />
<path d="M746,-722 L538,-334 L698,-838 L510,-410 L450,-1126 L386,-446 Z" stroke-width="0" fill="#fbb0e3" fill-opacity="0.3176470588235294" />
<path d="M82,-1250 L318,-366 L206,-226 L202,-1174 L82,-1002 L190,-746 Z" stroke-width="0" fill="#3c2209" fill-opacity="0.5019607843137255" />
<path d="M718,-1290 L218,-1270 L366,-1094 L498,-1166 L134,-1250 L98,-198 Z" stroke-width="0" fill="#121d38" fill-opacity="0.5254901960784314" />
<path d="M474,-282 L798,-738 L346,-554 L434,-862 L366,-258 L478,-726 Z" stroke-width="0" fill="#120017" fill-opacity="0.5372549019607843" />
<path d="M114,-586 L426,-474 L730,-498 L750,-238 L242,-154 L522,-478 Z" stroke-width="0" fill="#d7b4db" fill-opacity="0.8823529411764706" />
<path d="M134,-978 L138,-742 L130,-842 L774,-706 L194,-578 L446,-1038 Z" stroke-width="0" fill="#2dd3c4" fill-opacity="0.29411764705882354" />
<path d="M522,-834 L778,-586 L262,-526 L782,-1054 L678,-410 L490,-478 Z" stroke-width="0" fill="#000000" fill-opacity="0.6078431372549019" />
<path d="M394,-722 L126,-198 L382,-778 L122,-94 L402,-938 L142,-578 Z" stroke-width="0" fill="#000000" fill-opacity="0.6509803921568628" />
<path d="M146,-262 L178,-658 L626,-390 L750,-246 L498,-794 L226,-634 Z" stroke-width="0" fill="#230a68" fill-opacity="0.984313725490196" />
<path d="M418,-902 L434,-854 L342,-898 L274,-1182 L330,-690 L458,-138 Z" stroke-width="0" fill="#a29aa0" fill-opacity="0.8" />
<path d="M254,-402 L774,-1126 L218,-270 L294,-342 L234,-590 L666,-1202 Z" stroke-width="0" fill="#edf7c1" fill-opacity="0.2980392156862745" />
<path d="M126,-966 L642,-630 L622,-1218 L374,-310 L422,-530 L362,-774 Z" stroke-width="0" fill="#058b44" fill-opacity="0.47058823529411764" />
<path d="M738,-1278 L618,-622 L370,-1250 L542,-722 L574,-634 L102,-958 Z" stroke-width="0" fill="#637580" fill-opacity="0.8745098039215686" />
<path d="M774,-1278 L298,-274 L522,-550 L486,-1230 L458,-194 L714,-418 Z" stroke-width="0" fill="#065e65" fill-opacity="0.1568627450980392" />
<path d="M590,-270 L770,-998 L318,-398 L138,-654 L438,-842 L578,-866 Z" stroke-width="0" fill="#988643" fill-opacity="0.17254901960784313" />
<path d="M586,-930 L770,-434 L686,-314 L726,-218 L138,-370 L802,-190 Z" stroke-width="0" fill="#f4b4f9" fill-opacity="0.3568627450980392" />
<path d="M570,-590 L706,-346 L574,-586 L462,-194 L762,-762 L714,-618 Z" stroke-width="0" fill="#000000" fill-opacity="0.5529411764705883" />
<path d="M786,-418 L626,-994 L394,-266 L270,-1034 L678,-938 L86,-990 Z" stroke-width="0" fill="#b2d58f" fill-opacity="0.00392156862745098" />
<path d="M90,-802 L578,-458 L278,-730 L634,-274 L434,-1070 L574,-546 Z" stroke-width="0" fill="#1e2363" fill-opacity="0.41568627450980394" />
<path d="M498,-990 L330,-1022 L122,-738 L94,-246 L586,-842 L454,-86 Z" stroke-width="0" fill="#4d2717" fill-opacity="0.6980392156862745" />
<path d="M186,-262 L702,-238 L422,-282 L338,-638 L462,-298 L690,-1250 Z" stroke-width="0" fill="#0c8472" fill-opacity="0.9019607843137255" />
<path d="M514,-962 L130,-254 L422,-346 L622,-742 L154,-866 L366,-126 Z" stroke-width="0" fill="#1c2a00" fill-opacity="0.5882352941176471" />
<path d="M286,-530 L138,-1194 L506,-818 L98,-338 L570,-246 L574,-1238 Z" stroke-width="0" fill="#a86d9d" fill-opacity="0.6823529411764706" />
<path d="M570,-202 L298,-390 L550,-698 L682,-718 L266,-334 L590,-1250 Z" stroke-width="0" fill="#5f8358" fill-opacity="0.5019607843137255" />
<path d="M158,-738 L486,-1246 L482,-710 L210,-142 L562,-466 L162,-330 Z" stroke-width="0" fill="#4f80b1" fill-opacity="0.4392156862745098" />
<path d="M374,-426 L238,-626 L734,-658 L138,-286 L502,-158 L222,-510 Z" stroke-width="0" fill="#4e42a3" fill-opacity="0.7411764705882353" />
<path d="M398,-882 L162,-1162 L438,-754 L470,-646 L714,-802 L494,-1314 Z" stroke-width="0" fill="#80976f" fill-opacity="0.7137254901960784" />
<path d="M630,-618 L322,-950 L122,-1246 L622,-238 L638,-258 L802,-222 Z" stroke-width="0" fill="#efeefc" fill-opacity="0.8588235294117647" />
<path d="M642,-962 L446,-490 L150,-166 L178,-1098 L422,-934 L442,-278 Z" stroke-width="0" fill="#2a2712" fill-opacity="0.8509803921568627" />
<path d="M126,-446 L186,-166 L370,-702 L138,-414 L374,-266 L770,-342 Z" stroke-width="0" fill="#1e1a17" fill-opacity="0.8392156862745098" />
<path d="M82,-702 L486,-774 L494,-398 L506,-1062 L662,-1126 L702,-1046 Z" stroke-width="0" fill="#00e6c7" fill-opacity="0.17254901960784313" />
<path d="M250,-894 L554,-446 L694,-814 L486,-1278 L566,-862 L554,-98 Z" stroke-width="0" fill="#8f6a58" fill-opacity="0.17647058823529413" />
<path d="M734,-422 L806,-194 L170,-270 L378,-1030 L750,-666 L474,-618 Z" stroke-width="0" fill="#b0bea0" fill-opacity="0.5607843137254902" />
<path d="M142,-634 L334,-466 L242,-1106 L486,-1006 L810,-1174 L770,-1046 Z" stroke-width="0" fill="#000001" fill-opacity="0.5411764705882353" />
<path d="M722,-350 L378,-462 L410,-586 L594,-194 L338,-594 L666,-502 Z" stroke-width="0" fill="#640095" fill-opacity="0.9607843137254902" />
<path d="M458,-398 L794,-314 L298,-486 L678,-114 L538,-862 L414,-794 Z" stroke-width="0" fill="#355c01" fill-opacity="0.39215686274509803" />
<path d="M122,-310 L322,-134 L370,-522 L738,-466 L614,-402 L594,-306 Z" stroke-width="0" fill="#074c4d" fill-opacity="0.42745098039215684" />
<path d="M342,-170 L650,-942 L286,-1102 L174,-190 L234,-810 L590,-602 Z" stroke-width="0" fill="#d07a2e" fill-opacity="0.5803921568627451" />
<path d="M434,-190 L726,-642 L358,-206 L102,-926 L98,-1186 L458,-162 Z" stroke-width="0" fill="#697daf" fill-opacity="0.8470588235294118" />
<path d="M654,-314 L562,-174 L238,-1166 L554,-118 L718,-862 L330,-466 Z" stroke-width="0" fill="#1d3a8f" fill-opacity="0.25882352941176473" />
<path d="M146,-674 L506,-118 L746,-418 L298,-1150 L506,-666 L274,-702 Z" stroke-width="0" fill="#43372c" fill-opacity="0.9137254901960784" />
<path d="M518,-650 L242,-274 L554,-206 L638,-622 L170,-1302 L462,-1178 Z" stroke-width="0" fill="#847a82" fill-opacity="0.5019607843137255" />
<path d="M138,-546 L442,-462 L686,-1314 L622,-962 L518,-374 L238,-1066 Z" stroke-width="0" fill="#505810" fill-opacity="0.20392156862745098" />
<path d="M130,-406 L578,-150 L790,-598 L526,-1006 L210,-206 L574,-810 Z" stroke-width="0" fill="#bb74f2" fill-opacity="0.6392156862745098" />
<path d="M214,-338 L798,-342 L618,-1234 L582,-174 L710,-82 L734,-1238 Z" stroke-width="0" fill="#a082bb" fill-opacity="0.2235294117647059" />
<path d="M510,-430 L754,-702 L630,-698 L766,-1246 L174,-714 L122,-890 Z" stroke-width="0" fill="#52593c" fill-opacity="0.7490196078431373" />
<path d="M702,-322 L382,-318 L446,-382 L426,-250 L118,-978 L186,-710 Z" stroke-width="0" fill="#1789fb" fill-opacity="0.9725490196078431" />
<path d="M118,-642 L438,-498 L386,-542 L782,-1286 L146,-110 L242,-246 Z" stroke-width="0" fill="#4f4a40" fill-opacity="0.3686274509803922" />
<path d="M266,-754 L350,-890 L150,-770 L354,-338 L358,-702 L414,-954 Z" stroke-width="0" fill="#064e20" fill-opacity="0.1450980392156863" />
<path d="M438,-846 L466,-486 L290,-1106 L474,-1018 L434,-410 L426,-242 Z" stroke-width="0" fill="#ddaef5" fill-opacity="0.8862745098039215" />
<path d="M642,-846 L650,-1034 L470,-550 L542,-782 L570,-434 L510,-1190 Z" stroke-width="0" fill="#bc6afd" fill-opacity="0.10980392156862745" />
<path d="M250,-602 L346,-962 L506,-870 L382,-706 L474,-430 L526,-338 Z" stroke-width="0" fill="#9f9ce1" fill-opacity="0.7490196078431373" />
<path d="M178,-390 L738,-562 L258,-758 L470,-850 L206,-658 L246,-106 Z" stroke-width="0" fill="#88b3aa" fill-opacity="0.3058823529411765" />
<path d="M202,-598 L690,-434 L618,-1078 L602,-850 L142,-978 L234,-630 Z" stroke-width="0" fill="#eade5a" fill-opacity="0.047058823529411764" />
<path d="M238,-870 L410,-818 L478,-482 L410,-778 L738,-198 L302,-218 Z" stroke-width="0" fill="#87e136" fill-opacity="0.12549019607843137" />
<path d="M230,-1086 L330,-1202 L90,-170 L246,-690 L154,-350 L330,-1246 Z" stroke-width="0" fill="#384e64" fill-opacity="0.3686274509803922" />
<path d="M150,-314 L210,-642 L458,-870 L454,-646 L570,-838 L610,-514 Z" stroke-width="0" fill="#402635" fill-opacity="0.7294117647058823" />
<path d="M522,-1282 L406,-142 L238,-250 L502,-1054 L286,-1058 L374,-938 Z" stroke-width="0" fill="#515e90" fill-opacity="0.34509803921568627" />
<path d="M226,-110 L750,-742 L418,-338 L554,-446 L154,-698 L174,-818 Z" stroke-width="0" fill="#7772b6" fill-opacity="0.45098039215686275" />
<path d="M382,-506 L142,-110 L278,-110 L86,-394 L354,-1066 L610,-578 Z" stroke-width="0" fill="#182f1d" fill-opacity="0.5019607843137255" />
<path d="M562,-498 L590,-202 L458,-830 L126,-830 L554,-454 L618,-1086 Z" stroke-width="0" fill="#2c6378" fill-opacity="0.00392156862745098" />
<path d="M326,-334 L734,-1250 L542,-122 L222,-530 L246,-1006 L482,-802 Z" stroke-width="0" fill="#5a7ee1" fill-opacity="0.2549019607843137" />
<path d="M610,-294 L166,-282 L722,-502 L202,-802 L350,-590 L530,-438 Z" stroke-width="0" fill="#2f16b6" fill-opacity="0.043137254901960784" />
<path d="M634,-286 L366,-894 L710,-1262 L590,-830 L282,-310 L170,-206 Z" stroke-width="0" fill="#9b4f72" fill-opacity="0.4470588235294118" />
<path d="M418,-142 L402,-274 L162,-174 L82,-666 L98,-766 L94,-878 Z" stroke-width="0" fill="#84868a" fill-opacity="0.5019607843137255" />
<path d="M190,-586 L206,-214 L722,-1186 L614,-474 L642,-518 L686,-882 Z" stroke-width="0" fill="#de6337" fill-opacity="0.14901960784313725" />
<path d="M206,-550 L318,-322 L274,-426 L546,-458 L754,-154 L222,-802 Z" stroke-width="0" fill="#4e920e" fill-opacity="0.0" />
<path d="M610,-786 L166,-530 L682,-858 L462,-938 L698,-1042 L546,-862 Z" stroke-width="0" fill="#0132da" fill-opacity="0.10980392156862745" />
<path d="M730,-166 L530,-1202 L658,-190 L222,-246 L810,-574 L218,-998 Z" stroke-width="0" fill="#3542a0" fill-opacity="0.2901960784313726" />
<path d="M534,-234 L530,-94 L786,-86 L790,-702 L122,-1066 L454,-1038 Z" stroke-width="0" fill="#000000" fill-opacity="0.7333333333333333" />
<path d="M774,-206 L94,-102 L586,-534 L714,-634 L338,-418 L90,-990 Z" stroke-width="0" fill="#332205" fill-opacity="0.6078431372549019" />
<path d="M678,-914 L282,-394 L778,-190 L662,-242 L310,-770 L166,-258 Z" stroke-width="0" fill="#264b42" fill-opacity="0.25098039215686274" />
<path d="M670,-770 L182,-138 L254,-1166 L506,-154 L778,-146 L86,-686 Z" stroke-width="0" fill="#3e4953" fill-opacity="0.5450980392156862" />
<path d="M810,-522 L142,-890 L314,-1162 L538,-1010 L778,-1006 L630,-958 Z" stroke-width="0" fill="#6c746b" fill-opacity="0.7725490196078432" />
<path d="M370,-562 L590,-182 L510,-886 L234,-1026 L554,-846 L782,-118 Z" stroke-width="0" fill="#414463" fill-opacity="0.27450980392156865" />
<path d="M386,-1226 L142,-670 L378,-146 L710,-346 L274,-322 L222,-862 Z" stroke-width="0" fill="#586639" fill-opacity="0.2784313725490196" />
<path d="M334,-1238 L226,-518 L502,-758 L702,-1310 L682,-930 L370,-1278 Z" stroke-width="0" fill="#958a89" fill-opacity="0.49019607843137253" />
<path d="M402,-682 L82,-502 L162,-898 L102,-346 L98,-1274 L598,-682 Z" stroke-width="0" fill="#8e796c" fill-opacity="0.7254901960784313" />
<path d="M90,-234 L162,-782 L206,-882 L718,-622 L630,-706 L182,-602 Z" stroke-width="0" fill="#11256a" fill-opacity="0.03529411764705882" />
<path d="M566,-670 L758,-294 L566,-630 L242,-1142 L358,-1130 L430,-474 Z" stroke-width="0" fill="#b1e4b6" fill-opacity="0.2235294117647059" />
<path d="M762,-546 L534,-514 L278,-1194 L666,-578 L94,-1070 L310,-218 Z" stroke-width="0" fill="#a85c2b" fill-opacity="0.2980392156862745" />
<path d="M526,-1170 L522,-294 L642,-250 L674,-674 L770,-1146 L254,-342 Z" stroke-width="0" fill="#5c5c53" fill-opacity="0.4196078431372549" />
<path d="M178,-1278 L82,-1082 L198,-842 L98,-1186 L338,-114 L470,-698 Z" stroke-width="0" fill="#4b8aa7" fill-opacity="0.5019607843137255" />
<path d="M302,-1174 L286,-570 L790,-946 L518,-330 L134,-658 L430,-550 Z" stroke-width="0" fill="#643757" fill-opacity="0.18823529411764706" />
<path d="M194,-290 L350,-514 L238,-462 L278,-1130 L242,-346 L146,-1026 Z" stroke-width="0" fill="#714e62" fill-opacity="0.26666666666666666" />
<path d="M478,-1278 L330,-150 L358,-290 L422,-150 L418,-238 L598,-622 Z" stroke-width="0" fill="#936f81" fill-opacity="0.2901960784313726" />
<path d="M258,-678 L730,-250 L730,-594 L318,-186 L162,-434 L730,-534 Z" stroke-width="0" fill="#515f4c" fill-opacity="0.6039215686274509" />
<path d="M246,-734 L350,-930 L394,-294 L498,-1166 L166,-722 L90,-558 Z" stroke-width="0" fill="#6b866d" fill-opacity="0.30980392156862746" />
<path d="M130,-1178 L710,-302 L466,-1218 L726,-886 L262,-882 L410,-1094 Z" stroke-width="0" fill="#617472" fill-opacity="0.3686274509803922" />
<path d="M314,-578 L278,-498 L142,-210 L450,-994 L118,-1094 L754,-106 Z" stroke-width="0" fill="#e500e8" fill-opacity="0.00392156862745098" />
<text x="448.0" y="0" font-size="70.0" fill="black" text-anchor="middle" transform="translate(0,17.5)">8 OF FIRE</text>
</svg>