<?xml version="1.0" encoding="UTF-8"?>
<svg xmlns="http://www.w3.org/2000/svg" xmlns:xlink="http://www.w3.org/1999/xlink"
     width="275" height="375" viewBox="0 -350 275 375">
<defs>
</defs>
<rect x="15" y="-335" width="245" height="320" stroke="black" stroke-width="4" fill="white" />
<path d="M94,-110 L76,-115 L75,-125 L66,-271 L80,-260 L195,-53 Z" stroke-width="0" fill="#0a9123" fill-opacity="0.6509803921568628" />
<path d="M54,-128 L26,-316 L93,-273 L221,-131 L220,-91 L136,-251 Z" stroke-width="0" fill="#00001d" fill-opacity="0.5686274509803921" />
<path d="M182,-118 L29,-91 L157,-238 L237,-183 L103,-113 L103,-75 Z" stroke-width="0" fill="#2f3d0c" fill-opacity="0.08627450980392157" />
<path d="M121,-121 L148,-87 L59,-155 L195,-125 L32,-206 L69,-201 Z" stroke-width="0" fill="#f3eee4" fill-opacity="0.4588235294117647" />
<path d="M190,-172 L34,-53 L97,-126 L141,-94 L112,-235 L178,-100 Z" stroke-width="0" fill="#a9ab80" fill-opacity="0.7176470588235294" />
<path d="M99,-145 L152,-161 L124,-81 L128,-155 L57,-116 L28,-124 Z" stroke-width="0" fill="#061205" fill-opacity="0.21176470588235294" />
<path d="M148,-217 L127,-168 L68,-133 L179,-298 L89,-52 L222,-199 Z" stroke-width="0" fill="#f3f4bd" fill-opacity="0.08235294117647059" />
<path d="M209,-172 L90,-120 L31,-61 L72,-87 L119,-73 L183,-231 Z" stroke-width="0" fill="#810200" fill-opacity="0.27058823529411763" />
<path d="M92,-54 L118,-156 L30,-80 L141,-264 L184,-58 L109,-309 Z" stroke-width="0" fill="#94047b" fill-opacity="0.16470588235294117" />
<path d="M211,-106 L120,-27 L187,-70 L59,-71 L85,-73 L172,-83 Z" stroke-width="0" fill="#9a705d" fill-opacity="0.5725490196078431" />
<path d="M46,-254 L95,-159 L225,-90 L152,-31 L79,-77 L207,-223 Z" stroke-width="0" fill="#a5835c" fill-opacity="0.5019607843137255" />
<path d="M89,-56 L140,-159 L177,-73 L217,-202 L189,-208 L81,-223 Z" stroke-width="0" fill="#2d381a" fill-opacity="0.13725490196078433" />
<path d="M119,-237 L109,-112 L60,-231 L28,-134 L172,-300 L111,-171 Z" stroke-width="0" fill="#924f2c" fill-opacity="0.2235294117647059" />
<path d="M164,-295 L116,-314 L111,-293 L143,-249 L150,-260 L65,-175 Z" stroke-width="0" fill="#61281d" fill-opacity="0.43529411764705883" />
<path d="M247,-150 L206,-52 L61,-126 L154,-52 L133,-30 L158,-180 Z" stroke-width="0" fill="#753210" fill-opacity="0.42745098039215684" />
<path d="M229,-145 L100,-140 L169,-238 L41,-41 L249,-300 L43,-244 Z" stroke-width="0" fill="#149ae3" fill-opacity="0.1843137254901961" />
<path d="M43,-290 L173,-168 L115,-65 L207,-289 L177,-113 L198,-119 Z" stroke-width="0" fill="#8fd9e5" fill-opacity="0.8862745098039215" />
<path d="M181,-47 L115,-191 L197,-99 L165,-136 L223,-60 L134,-244 Z" stroke-width="0" fill="#7eede7" fill-opacity="0.42745098039215684" />
<path d="M49,-172 L52,-31 L69,-69 L150,-230 L161,-39 L47,-191 Z" stroke-width="0" fill="#a7bf9f" fill-opacity="0.3607843137254902" />
<path d="M32,-61 L232,-31 L47,-81 L146,-160 L88,-101 L66,-29 Z" stroke-width="0" fill="#724e53" fill-opacity="0.2823529411764706" />
<path d="M193,-233 L185,-112 L148,-187 L74,-109 L230,-232 L243,-277 Z" stroke-width="0" fill="#1ad5fe" fill-opacity="0.7686274509803922" />
<path d="M150,-117 L236,-42 L155,-186 L163,-98 L40,-87 L99,-256 Z" stroke-width="0" fill="#a1bae0" fill-opacity="0.058823529411764705" />
<path d="M193,-245 L180,-208 L191,-309 L199,-252 L82,-63 L118,-74 Z" stroke-width="0" fill="#f0dccf" fill-opacity="0.027450980392156862" />
<path d="M79,-37 L119,-77 L138,-86 L95,-69 L88,-171 L143,-132 Z" stroke-width="0" fill="#6a2701" fill-opacity="0.3686274509803922" />
<path d="M157,-256 L88,-246 L61,-242 L177,-271 L203,-69 L208,-34 Z" stroke-width="0" fill="#f1c2fc" fill-opacity="0.3843137254901961" />
<path d="M216,-99 L40,-100 L114,-120 L210,-124 L30,-41 L153,-138 Z" stroke-width="0" fill="#af927b" fill-opacity="0.592156862745098" />
<path d="M34,-224 L199,-254 L130,-50 L185,-226 L52,-198 L54,-34 Z" stroke-width="0" fill="#fda6d2" fill-opacity="0.0392156862745098" />
<path d="M111,-153 L79,-141 L46,-124 L67,-95 L80,-125 L165,-85 Z" stroke-width="0" fill="#ed24ef" fill-opacity="0.8235294117647058" />
<path d="M134,-240 L43,-265 L167,-35 L98,-174 L51,-204 L70,-32 Z" stroke-width="0" fill="#c2c1b0" fill-opacity="0.8627450980392157" />
<path d="M38,-42 L45,-322 L128,-100 L226,-243 L66,-212 L100,-291 Z" stroke-width="0" fill="#a3ebdb" fill-opacity="0.23921568627450981" />
<path d="M184,-244 L129,-100 L235,-56 L138,-234 L147,-168 L161,-193 Z" stroke-width="0" fill="#079edc" fill-opacity="0.8509803921568627" />
<path d="M43,-149 L120,-202 L114,-94 L50,-320 L207,-122 L87,-192 Z" stroke-width="0" fill="#aff6e4" fill-opacity="0.8666666666666667" />
<path d="M30,-234 L35,-211 L89,-100 L122,-315 L25,-244 L219,-37 Z" stroke-width="0" fill="#bad3b7" fill-opacity="0.9725490196078431" />
<path d="M193,-131 L79,-134 L128,-321 L62,-46 L245,-26 L241,-105 Z" stroke-width="0" fill="#8d755b" fill-opacity="0.6392156862745098" />
<path d="M187,-142 L26,-233 L112,-232 L77,-43 L78,-116 L206,-70 Z" stroke-width="0" fill="#e9f9fb" fill-opacity="0.7254901960784313" />
<path d="M101,-147 L235,-195 L96,-79 L191,-242 L27,-249 L126,-254 Z" stroke-width="0" fill="#f5f8e7" fill-opacity="0.803921568627451" />
<path d="M109,-232 L46,-147 L31,-63 L82,-50 L117,-140 L173,-165 Z" stroke-width="0" fill="#491400" fill-opacity="0.39215686274509803" />
<path d="M187,-232 L28,-262 L101,-160 L120,-72 L111,-92 L210,-195 Z" stroke-width="0" fill="#64dbdb" fill-opacity="0.2" />
<path d="M85,-153 L71,-206 L56,-97 L100,-211 L40,-52 L136,-43 Z" stroke-width="0" fill="#a57053" fill-opacity="0.3568627450980392" />
<path d="M52,-275 L57,-84 L53,-47 L92,-72 L48,-133 L90,-194 Z" stroke-width="0" fill="#4fb3f4" fill-opacity="0.3686274509803922" />
<path d="M179,-82 L76,-225 L161,-312 L34,-116 L119,-108 L77,-66 Z" stroke-width="0" fill="#f8f1ed" fill-opacity="0.9647058823529412" />
<path d="M205,-308 L224,-117 L132,-47 L50,-169 L138,-258 L222,-71 Z" stroke-width="0" fill="#00caea" fill-opacity="0.027450980392156862" />
<path d="M112,-49 L187,-51 L244,-133 L203,-33 L180,-197 L58,-68 Z" stroke-width="0" fill="#031448" fill-opacity="0.6352941176470588" />
<path d="M41,-118 L143,-167 L62,-75 L152,-69 L209,-304 L133,-138 Z" stroke-width="0" fill="#ffdfff" fill-opacity="0.10980392156862745" />
<path d="M111,-41 L180,-171 L112,-208 L45,-279 L56,-48 L72,-52 Z" stroke-width="0" fill="#f0e6e4" fill-opacity="0.6588235294117647" />
<path d="M65,-254 L161,-197 L249,-137 L176,-213 L214,-139 L104,-73 Z" stroke-width="0" fill="#e9e2eb" fill-opacity="0.7725490196078432" />
<path d="M207,-215 L53,-247 L70,-147 L198,-136 L33,-187 L169,-73 Z" stroke-width="0" fill="#4f5bac" fill-opacity="0.03137254901960784" />
<path d="M44,-172 L182,-139 L170,-84 L197,-105 L30,-160 L157,-288 Z" stroke-width="0" fill="#f7f7b2" fill-opacity="0.5372549019607843" />
<path d="M200,-121 L113,-300 L77,-94 L116,-142 L183,-165 L153,-267 Z" stroke-width="0" fill="#530740" fill-opacity="0.6509803921568628" />
<path d="M82,-295 L64,-67 L50,-75 L220,-225 L136,-172 L166,-237 Z" stroke-width="0" fill="#342689" fill-opacity="0.08627450980392157" />
<path d="M144,-244 L121,-202 L215,-41 L46,-45 L113,-160 L103,-124 Z" stroke-width="0" fill="#c89f8c" fill-opacity="0.796078431372549" />
<path d="M35,-211 L107,-185 L238,-175 L93,-105 L177,-217 L71,-59 Z" stroke-width="0" fill="#fad5fa" fill-opacity="0.5098039215686274" />
<path d="M228,-37 L165,-196 L66,-99 L173,-31 L189,-276 L91,-86 Z" stroke-width="0" fill="#c6f1bd" fill-opacity="0.9215686274509803" />
<path d="M132,-196 L177,-95 L218,-210 L124,-232 L95,-118 L75,-171 Z" stroke-width="0" fill="#0f5262" fill-opacity="0.6901960784313725" />
<path d="M201,-46 L44,-94 L110,-63 L59,-34 L27,-254 L78,-70 Z" stroke-width="0" fill="#ef8a74" fill-opacity="0.27058823529411763" />
<path d="M69,-226 L36,-110 L31,-120 L141,-296 L157,-179 L195,-26 Z" stroke-width="0" fill="#100209" fill-opacity="0.0784313725490196" />
<path d="M93,-124 L104,-115 L69,-171 L232,-182 L237,-33 L168,-68 Z" stroke-width="0" fill="#4b99a4" fill-opacity="0.08235294117647059" />
<path d="M189,-129 L123,-224 L248,-291 L239,-143 L73,-77 L161,-302 Z" stroke-width="0" fill="#05014f" fill-opacity="0.2549019607843137" />
<path d="M90,-57 L166,-29 L90,-272 L46,-115 L224,-219 L164,-72 Z" stroke-width="0" fill="#d7bfd8" fill-opacity="0.5176470588235295" />
<path d="M31,-127 L220,-250 L94,-102 L110,-292 L228,-80 L64,-93 Z" stroke-width="0" fill="#2d515e" fill-opacity="0.09803921568627451" />
<path d="M162,-297 L29,-205 L92,-218 L207,-49 L139,-92 L129,-113 Z" stroke-width="0" fill="#ebfdf1" fill-opacity="0.9019607843137255" />
<path d="M183,-41 L39,-83 L38,-48 L116,-32 L180,-223 L186,-67 Z" stroke-width="0" fill="#a38814" fill-opacity="0.09411764705882353" />
<path d="M144,-32 L203,-301 L174,-185 L111,-50 L115,-231 L57,-211 Z" stroke-width="0" fill="#eaebd9" fill-opacity="0.615686274509804" />
<path d="M185,-71 L60,-44 L64,-231 L139,-251 L246,-70 L25,-244 Z" stroke-width="0" fill="#050262" fill-opacity="0.3254901960784314" />
<path d="M53,-35 L196,-180 L153,-251 L124,-53 L237,-89 L196,-38 Z" stroke-width="0" fill="#b9a1d4" fill-opacity="0.5019607843137255" />
<path d="M112,-74 L111,-293 L51,-207 L171,-43 L104,-197 L54,-72 Z" stroke-width="0" fill="#6577bb" fill-opacity="0.5019607843137255" />
<path d="M29,-226 L197,-79 L85,-162 L161,-196 L248,-168 L61,-54 Z" stroke-width="0" fill="#8dfefd" fill-opacity="0.42745098039215684" />
<path d="M134,-46 L35,-94 L155,-49 L186,-146 L141,-54 L83,-134 Z" stroke-width="0" fill="#eef3f5" fill-opacity="0.5019607843137255" />
<path d="M91,-53 L200,-103 L89,-290 L139,-232 L82,-175 L183,-256 Z" stroke-width="0" fill="#e8e6fd" fill-opacity="0.7843137254901961" />
<path d="M108,-309 L56,-284 L123,-159 L192,-264 L26,-187 L186,-121 Z" stroke-width="0" fill="#cff9ea" fill-opacity="0.5843137254901961" />
<path d="M108,-226 L72,-242 L214,-27 L96,-158 L91,-190 L79,-89 Z" stroke-width="0" fill="#b6ebb8" fill-opacity="0.5019607843137255" />
<path d="M59,-57 L201,-43 L141,-240 L163,-237 L238,-274 L62,-155 Z" stroke-width="0" fill="#eb7a82" fill-opacity="0.3333333333333333" />
<path d="M55,-197 L132,-85 L141,-85 L197,-103 L149,-261 L227,-249 Z" stroke-width="0" fill="#fef2bb" fill-opacity="0.19607843137254902" />
<path d="M60,-57 L205,-215 L174,-309 L134,-220 L189,-215 L164,-141 Z" stroke-width="0" fill="#fefcff" fill-opacity="0.5333333333333333" />
<path d="M43,-280 L26,-93 L146,-98 L138,-47 L58,-208 L243,-313 Z" stroke-width="0" fill="#f4d5dc" fill-opacity="0.49411764705882355" />
<path d="M44,-129 L78,-70 L102,-135 L171,-313 L235,-272 L226,-261 Z" stroke-width="0" fill="#acefdf" fill-opacity="0.0196078431372549" />
<path d="M110,-46 L164,-81 L135,-229 L42,-182 L203,-126 L78,-151 Z" stroke-width="0" fill="#d35e11" fill-opacity="0.5607843137254902" />
<path d="M173,-232 L49,-226 L219,-250 L74,-201 L142,-35 L54,-314 Z" stroke-width="0" fill="#b4e029" fill-opacity="0.14901960784313725" />
<path d="M232,-123 L43,-112 L153,-128 L242,-30 L78,-100 L101,-182 Z" stroke-width="0" fill="#611836" fill-opacity="0.09019607843137255" />
<path d="M154,-192 L188,-240 L77,-237 L236,-177 L187,-77 L207,-120 Z" stroke-width="0" fill="#9e5a72" fill-opacity="0.19607843137254902" />
<path d="M46,-63 L123,-120 L85,-28 L165,-187 L33,-194 L83,-83 Z" stroke-width="0" fill="#ead6c5" fill-opacity="0.6941176470588235" />
<path d="M143,-163 L161,-156 L75,-45 L71,-147 L149,-141 L91,-50 Z" stroke-width="0" fill="#100001" fill-opacity="0.36470588235294116" />
<path d="M160,-319 L174,-45 L71,-318 L64,-260 L184,-219 L148,-214 Z" stroke-width="0" fill="#e9f9f2" fill-opacity="0.611764705882353" />
<path d="M30,-218 L32,-190 L47,-176 L248,-313 L181,-204 L138,-169 Z" stroke-width="0" fill="#e1fbe9" fill-opacity="0.25098039215686274" />
<path d="M243,-254 L188,-206 L199,-298 L128,-276 L116,-42 L53,-305 Z" stroke-width="0" fill="#faa3cf" fill-opacity="0.25882352941176473" />
<path d="M100,-86 L240,-96 L191,-159 L127,-135 L141,-53 L108,-284 Z" stroke-width="0" fill="#730358" fill-opacity="0.0" />
<path d="M109,-180 L93,-177 L57,-131 L32,-269 L79,-52 L123,-31 Z" stroke-width="0" fill="#503298" fill-opacity="0.00784313725490196" />
<path d="M170,-69 L101,-249 L160,-268 L75,-277 L71,-127 L243,-63 Z" stroke-width="0" fill="#d0d4cc" fill-opacity="0.41568627450980394" />
<path d="M145,-142 L113,-301 L50,-77 L154,-165 L196,-282 L201,-151 Z" stroke-width="0" fill="#d28cdc" fill-opacity="0.6039215686274509" />
<path d="M78,-275 L134,-229 L42,-110 L191,-301 L135,-224 L169,-132 Z" stroke-width="0" fill="#f8b9e4" fill-opacity="0.3333333333333333" />
<path d="M41,-133 L238,-32 L225,-75 L54,-266 L242,-138 L46,-96 Z" stroke-width="0" fill="#d5ba78" fill-opacity="0.27450980392156865" />
<path d="M90,-59 L65,-158 L31,-243 L155,-127 L225,-201 L196,-232 Z" stroke-width="0" fill="#f8cec8" fill-opacity="0.1607843137254902" />
<path d="M52,-116 L182,-244 L48,-130 L193,-43 L29,-255 L193,-271 Z" stroke-width="0" fill="#c3eded" fill-opacity="0.15294117647058825" />
<path d="M155,-212 L115,-169 L109,-297 L141,-123 L131,-251 L225,-27 Z" stroke-width="0" fill="#d7d2ff" fill-opacity="0.14901960784313725" />
<path d="M114,-237 L122,-37 L51,-33 L78,-280 L82,-161 L69,-166 Z" stroke-width="0" fill="#3c375f" fill-opacity="0.03137254901960784" />
<path d="M30,-170 L82,-214 L65,-312 L171,-313 L229,-114 L218,-52 Z" stroke-width="0" fill="#c0a4f1" fill-opacity="0.2196078431372549" />
<path d="M108,-60 L157,-59 L142,-183 L222,-162 L213,-82 L205,-322 Z" stroke-width="0" fill="#31b2dd" fill-opacity="0.21176470588235294" />
<path d="M60,-47 L142,-66 L68,-136 L103,-318 L195,-197 L207,-180 Z" stroke-width="0" fill="#e4faf5" fill-opacity="0.5019607843137255" />
<path d="M215,-241 L33,-236 L111,-51 L44,-225 L135,-90 L32,-95 Z" stroke-width="0" fill="#f1ecae" fill-opacity="0.16470588235294117" />
<path d="M61,-193 L52,-31 L132,-34 L80,-150 L165,-211 L63,-195 Z" stroke-width="0" fill="#ffe2a6" fill-opacity="0.24313725490196078" />
<text x="137.5" y="12.5" font-size="20.0" fill="black" text-anchor="middle" transform="translate(0,5.0)">KNIGHT OF FIRE</text>
</svg>