<?xml version="1.0" encoding="UTF-8"?>
<svg xmlns="http://www.w3.org/2000/svg" xmlns:xlink="http://www.w3.org/1999/xlink"
     width="275" height="375" viewBox="0 -350 275 375">
<defs>
</defs>
<rect x="15" y="-335" width="245" height="320" stroke="black" stroke-width="4" fill="white" />
<path d="M78,-71 L28,-200 L49,-169 L197,-157 L156,-216 L168,-114 Z" stroke-width="0" fill="#0c70f9" fill-opacity="0.2549019607843137" />
<path d="M61,-92 L27,-82 L58,-276 L117,-73 L125,-99 L49,-186 Z" stroke-width="0" fill="#111fe7" fill-opacity="0.2" />
<path d="M26,-110 L203,-254 L88,-62 L95,-195 L46,-218 L119,-300 Z" stroke-width="0" fill="#24a7e9" fill-opacity="0.0784313725490196" />
<path d="M168,-320 L44,-53 L51,-156 L33,-143 L134,-125 L249,-48 Z" stroke-width="0" fill="#05b9f8" fill-opacity="0.396078431372549" />
<path d="M170,-124 L215,-270 L167,-31 L63,-227 L98,-96 L96,-82 Z" stroke-width="0" fill="#0a0013" fill-opacity="0.6705882352941176" />
<path d="M80,-199 L28,-43 L172,-318 L156,-53 L186,-299 L139,-25 Z" stroke-width="0" fill="#050dfb" fill-opacity="0.4470588235294118" />
<path d="M54,-163 L242,-71 L154,-200 L232,-57 L173,-87 L67,-178 Z" stroke-width="0" fill="#e755e5" fill-opacity="0.00784313725490196" />
<path d="M212,-305 L214,-300 L25,-73 L160,-89 L177,-208 L233,-115 Z" stroke-width="0" fill="#1f49d9" fill-opacity="0.26666666666666666" />
<path d="M107,-285 L105,-52 L44,-27 L210,-168 L170,-206 L52,-31 Z" stroke-width="0" fill="#7403d3" fill-opacity="0.8196078431372549" />
<path d="M134,-285 L30,-139 L169,-286 L47,-317 L103,-181 L248,-270 Z" stroke-width="0" fill="#b5fad3" fill-opacity="0.1411764705882353" />
<path d="M149,-113 L32,-203 L54,-45 L48,-200 L133,-236 L133,-39 Z" stroke-width="0" fill="#0c1df4" fill-opacity="0.03529411764705882" />
<path d="M141,-192 L246,-162 L182,-306 L174,-104 L179,-324 L66,-242 Z" stroke-width="0" fill="#173eec" fill-opacity="0.5019607843137255" />
<path d="M88,-106 L213,-35 L90,-324 L212,-211 L214,-194 L30,-96 Z" stroke-width="0" fill="#279ae5" fill-opacity="0.2784313725490196" />
<path d="M87,-66 L35,-126 L70,-134 L100,-265 L131,-88 L218,-42 Z" stroke-width="0" fill="#2bbad9" fill-opacity="0.1568627450980392" />
<path d="M104,-306 L72,-285 L167,-77 L63,-153 L170,-315 L170,-319 Z" stroke-width="0" fill="#00299d" fill-opacity="0.3686274509803922" />
<path d="M98,-324 L39,-73 L99,-279 L132,-164 L148,-208 L174,-307 Z" stroke-width="0" fill="#9fb3d0" fill-opacity="0.26666666666666666" />
<path d="M238,-312 L156,-166 L83,-162 L63,-172 L188,-144 L237,-201 Z" stroke-width="0" fill="#5083cf" fill-opacity="0.06274509803921569" />
<path d="M44,-65 L236,-179 L152,-234 L62,-66 L165,-150 L149,-86 Z" stroke-width="0" fill="#4ec6ef" fill-opacity="0.5019607843137255" />
<path d="M55,-36 L37,-92 L30,-28 L153,-217 L39,-37 L144,-186 Z" stroke-width="0" fill="#000018" fill-opacity="0.6745098039215687" />
<path d="M53,-267 L163,-205 L42,-104 L132,-115 L106,-276 L157,-278 Z" stroke-width="0" fill="#79bfd4" fill-opacity="0.611764705882353" />
<path d="M224,-229 L68,-101 L80,-60 L106,-192 L94,-70 L215,-34 Z" stroke-width="0" fill="#383500" fill-opacity="0.9686274509803922" />
<path d="M249,-137 L78,-290 L117,-185 L117,-177 L89,-98 L225,-65 Z" stroke-width="0" fill="#4689ff" fill-opacity="0.4745098039215686" />
<path d="M64,-197 L131,-121 L131,-312 L130,-289 L175,-75 L39,-287 Z" stroke-width="0" fill="#0019bb" fill-opacity="0.41568627450980394" />
<path d="M216,-92 L179,-139 L229,-267 L78,-302 L160,-139 L51,-97 Z" stroke-width="0" fill="#1a60f4" fill-opacity="0.5882352941176471" />
<path d="M47,-310 L138,-247 L102,-124 L44,-303 L43,-120 L89,-60 Z" stroke-width="0" fill="#3872f5" fill-opacity="0.37254901960784315" />
<path d="M167,-293 L147,-279 L116,-136 L153,-173 L76,-216 L240,-299 Z" stroke-width="0" fill="#4322b4" fill-opacity="0.12156862745098039" />
<path d="M214,-153 L238,-78 L126,-262 L183,-249 L143,-237 L227,-250 Z" stroke-width="0" fill="#c7fade" fill-opacity="0.2823529411764706" />
<path d="M53,-130 L73,-125 L105,-261 L44,-253 L130,-122 L196,-27 Z" stroke-width="0" fill="#0a0000" fill-opacity="0.6901960784313725" />
<path d="M36,-93 L155,-265 L149,-179 L209,-183 L38,-149 L177,-96 Z" stroke-width="0" fill="#44e9a4" fill-opacity="0.06666666666666667" />
<path d="M116,-113 L135,-162 L144,-134 L189,-148 L141,-196 L66,-58 Z" stroke-width="0" fill="#53c33d" fill-opacity="0.4" />
<path d="M152,-193 L33,-152 L178,-234 L32,-239 L122,-81 L133,-283 Z" stroke-width="0" fill="#9563cc" fill-opacity="0.6941176470588235" />
<path d="M177,-30 L213,-191 L67,-274 L121,-156 L190,-218 L89,-115 Z" stroke-width="0" fill="#2c0000" fill-opacity="0.5568627450980392" />
<path d="M35,-235 L198,-111 L74,-67 L235,-206 L98,-292 L117,-34 Z" stroke-width="0" fill="#f2e9f5" fill-opacity="0.9490196078431372" />
<path d="M238,-179 L75,-54 L239,-227 L58,-64 L126,-260 L75,-145 Z" stroke-width="0" fill="#4bf68a" fill-opacity="0.0392156862745098" />
<path d="M198,-69 L99,-174 L115,-38 L144,-112 L99,-67 L215,-137 Z" stroke-width="0" fill="#9fefbf" fill-opacity="0.8901960784313725" />
<path d="M96,-38 L65,-90 L83,-147 L189,-230 L111,-78 L245,-61 Z" stroke-width="0" fill="#a02b70" fill-opacity="0.047058823529411764" />
<path d="M105,-246 L139,-37 L202,-110 L63,-48 L201,-246 L147,-191 Z" stroke-width="0" fill="#c7aae4" fill-opacity="0.5215686274509804" />
<path d="M85,-68 L84,-87 L192,-40 L89,-234 L199,-155 L237,-187 Z" stroke-width="0" fill="#b82025" fill-opacity="0.12549019607843137" />
<path d="M189,-195 L194,-110 L235,-165 L96,-282 L170,-304 L62,-186 Z" stroke-width="0" fill="#ade2f1" fill-opacity="0.9764705882352941" />
<path d="M30,-36 L133,-81 L176,-144 L114,-211 L27,-252 L216,-74 Z" stroke-width="0" fill="#252abd" fill-opacity="0.6980392156862745" />
<path d="M107,-86 L56,-123 L87,-41 L229,-51 L29,-302 L156,-88 Z" stroke-width="0" fill="#2755d4" fill-opacity="0.4823529411764706" />
<path d="M150,-134 L66,-192 L41,-35 L240,-274 L243,-303 L128,-28 Z" stroke-width="0" fill="#fdbcda" fill-opacity="0.1568627450980392" />
<path d="M131,-74 L51,-100 L25,-104 L110,-89 L149,-315 L38,-318 Z" stroke-width="0" fill="#777eff" fill-opacity="0.6705882352941176" />
<path d="M154,-180 L233,-95 L111,-107 L221,-55 L162,-126 L167,-226 Z" stroke-width="0" fill="#f0fbf4" fill-opacity="0.5019607843137255" />
<path d="M196,-209 L247,-222 L61,-317 L26,-99 L29,-236 L227,-84 Z" stroke-width="0" fill="#275de5" fill-opacity="0.34509803921568627" />
<path d="M108,-58 L50,-147 L122,-195 L224,-77 L211,-110 L215,-105 Z" stroke-width="0" fill="#23c0f5" fill-opacity="0.6352941176470588" />
<path d="M127,-270 L190,-265 L160,-155 L137,-176 L131,-91 L82,-72 Z" stroke-width="0" fill="#0c16fe" fill-opacity="0.5254901960784314" />
<path d="M43,-45 L220,-251 L106,-128 L126,-249 L178,-33 L216,-268 Z" stroke-width="0" fill="#726edb" fill-opacity="0.023529411764705882" />
<path d="M43,-225 L153,-27 L108,-102 L197,-26 L222,-210 L91,-286 Z" stroke-width="0" fill="#1f07c8" fill-opacity="0.28627450980392155" />
<path d="M107,-131 L186,-195 L135,-139 L89,-44 L141,-67 L240,-228 Z" stroke-width="0" fill="#f550e4" fill-opacity="0.30196078431372547" />
<path d="M94,-31 L105,-63 L116,-84 L248,-229 L156,-108 L95,-52 Z" stroke-width="0" fill="#2718e5" fill-opacity="0.5333333333333333" />
<path d="M134,-174 L79,-217 L246,-82 L220,-26 L106,-284 L142,-91 Z" stroke-width="0" fill="#aa94e0" fill-opacity="0.8588235294117647" />
<path d="M32,-64 L163,-26 L249,-164 L75,-224 L68,-156 L201,-179 Z" stroke-width="0" fill="#7bbafa" fill-opacity="0.8745098039215686" />
<path d="M88,-64 L177,-167 L126,-39 L164,-173 L166,-266 L249,-103 Z" stroke-width="0" fill="#73d2d7" fill-opacity="0.17647058823529413" />
<path d="M60,-303 L108,-299 L27,-204 L145,-195 L173,-313 L51,-157 Z" stroke-width="0" fill="#75d2e0" fill-opacity="0.5333333333333333" />
<path d="M85,-173 L243,-28 L107,-185 L80,-141 L89,-247 L210,-123 Z" stroke-width="0" fill="#759bfb" fill-opacity="0.9215686274509803" />
<path d="M117,-288 L190,-156 L67,-294 L213,-189 L57,-83 L84,-231 Z" stroke-width="0" fill="#16adeb" fill-opacity="0.1607843137254902" />
<path d="M162,-261 L97,-123 L40,-73 L214,-71 L167,-39 L248,-37 Z" stroke-width="0" fill="#a1dff5" fill-opacity="0.4980392156862745" />
<path d="M93,-114 L106,-182 L173,-43 L78,-73 L89,-219 L28,-245 Z" stroke-width="0" fill="#cfb6fd" fill-opacity="0.5019607843137255" />
<path d="M219,-132 L125,-44 L70,-143 L96,-46 L63,-56 L151,-27 Z" stroke-width="0" fill="#5751ac" fill-opacity="0.611764705882353" />
<path d="M77,-242 L182,-131 L64,-301 L161,-165 L167,-253 L210,-253 Z" stroke-width="0" fill="#e1f0df" fill-opacity="0.7333333333333333" />
<path d="M103,-295 L91,-69 L96,-176 L135,-60 L208,-144 L57,-195 Z" stroke-width="0" fill="#daf0e1" fill-opacity="0.5254901960784314" />
<path d="M106,-120 L79,-168 L34,-281 L47,-25 L202,-103 L168,-93 Z" stroke-width="0" fill="#5cc4f8" fill-opacity="0.9137254901960784" />
<path d="M181,-86 L101,-61 L58,-55 L92,-66 L131,-26 L73,-211 Z" stroke-width="0" fill="#8b20bd" fill-opacity="0.6666666666666666" />
<path d="M52,-269 L124,-214 L222,-301 L202,-213 L79,-213 L60,-276 Z" stroke-width="0" fill="#4aeafe" fill-opacity="0.18823529411764706" />
<path d="M211,-324 L172,-32 L194,-130 L48,-215 L238,-221 L142,-31 Z" stroke-width="0" fill="#67f1eb" fill-opacity="0.592156862745098" />
<path d="M42,-63 L41,-71 L142,-99 L35,-131 L86,-141 L200,-218 Z" stroke-width="0" fill="#b6fff4" fill-opacity="0.5333333333333333" />
<path d="M26,-184 L225,-31 L189,-92 L32,-78 L101,-147 L177,-97 Z" stroke-width="0" fill="#b2d1ed" fill-opacity="0.7176470588235294" />
<path d="M68,-225 L74,-53 L218,-107 L32,-159 L86,-321 L74,-245 Z" stroke-width="0" fill="#294bdc" fill-opacity="0.12941176470588237" />
<path d="M149,-61 L74,-184 L96,-90 L86,-192 L57,-108 L80,-27 Z" stroke-width="0" fill="#07000d" fill-opacity="0.5019607843137255" />
<path d="M216,-159 L87,-157 L207,-151 L133,-314 L95,-122 L111,-241 Z" stroke-width="0" fill="#9b96f5" fill-opacity="0.4" />
<path d="M85,-215 L189,-303 L27,-145 L88,-45 L163,-42 L130,-307 Z" stroke-width="0" fill="#ce6aef" fill-opacity="0.03137254901960784" />
<path d="M145,-71 L155,-173 L216,-213 L231,-117 L94,-39 L107,-176 Z" stroke-width="0" fill="#e9d6fb" fill-opacity="0.25098039215686274" />
<path d="M160,-96 L242,-248 L97,-224 L55,-163 L51,-154 L163,-36 Z" stroke-width="0" fill="#dbf0dc" fill-opacity="0.5019607843137255" />
<path d="M61,-304 L73,-239 L222,-196 L118,-134 L218,-50 L201,-56 Z" stroke-width="0" fill="#a8edf7" fill-opacity="0.5764705882352941" />
<path d="M154,-202 L132,-166 L105,-186 L148,-231 L51,-205 L25,-61 Z" stroke-width="0" fill="#ebd0a7" fill-opacity="0.047058823529411764" />
<path d="M216,-109 L215,-101 L132,-228 L243,-266 L119,-195 L196,-287 Z" stroke-width="0" fill="#79c9f7" fill-opacity="0.3686274509803922" />
<path d="M128,-166 L227,-277 L239,-158 L84,-114 L76,-164 L88,-36 Z" stroke-width="0" fill="#df91ef" fill-opacity="0.30980392156862746" />
<path d="M61,-244 L64,-312 L50,-67 L83,-180 L40,-199 L101,-61 Z" stroke-width="0" fill="#c8d0eb" fill-opacity="0.3843137254901961" />
<path d="M53,-66 L169,-50 L67,-68 L42,-64 L172,-235 L148,-206 Z" stroke-width="0" fill="#c2ddfc" fill-opacity="0.2784313725490196" />
<path d="M204,-249 L249,-71 L105,-114 L38,-72 L44,-277 L183,-124 Z" stroke-width="0" fill="#80d471" fill-opacity="0.08627450980392157" />
<path d="M64,-157 L104,-274 L49,-75 L168,-52 L98,-256 L59,-315 Z" stroke-width="0" fill="#5916fb" fill-opacity="0.10588235294117647" />
<path d="M88,-81 L110,-138 L101,-119 L136,-154 L153,-88 L168,-174 Z" stroke-width="0" fill="#9f0608" fill-opacity="0.5176470588235295" />
<path d="M235,-231 L71,-232 L59,-225 L76,-139 L243,-80 L30,-175 Z" stroke-width="0" fill="#96dadd" fill-opacity="0.23529411764705882" />
<path d="M109,-313 L52,-87 L231,-165 L133,-177 L220,-276 L244,-216 Z" stroke-width="0" fill="#74c1c8" fill-opacity="0.2235294117647059" />
<path d="M176,-254 L31,-213 L74,-221 L88,-303 L54,-284 L213,-48 Z" stroke-width="0" fill="#e8e2f1" fill-opacity="0.0784313725490196" />
<path d="M238,-242 L106,-185 L124,-177 L26,-62 L159,-148 L154,-123 Z" stroke-width="0" fill="#8ca9fe" fill-opacity="0.1803921568627451" />
<path d="M101,-223 L139,-104 L241,-236 L109,-38 L188,-172 L231,-82 Z" stroke-width="0" fill="#b0ebf6" fill-opacity="0.7843137254901961" />
<path d="M43,-134 L242,-230 L150,-210 L26,-169 L66,-303 L198,-144 Z" stroke-width="0" fill="#a0bfff" fill-opacity="0.8549019607843137" />
<path d="M76,-97 L182,-317 L127,-193 L43,-146 L197,-157 L123,-294 Z" stroke-width="0" fill="#ebeff3" fill-opacity="0.1450980392156863" />
<path d="M105,-74 L228,-158 L186,-90 L26,-90 L80,-321 L70,-182 Z" stroke-width="0" fill="#99bde5" fill-opacity="0.2549019607843137" />
<path d="M220,-131 L235,-70 L137,-238 L153,-80 L112,-146 L191,-76 Z" stroke-width="0" fill="#a4c0f2" fill-opacity="0.5607843137254902" />
<path d="M117,-244 L228,-174 L113,-52 L60,-48 L240,-131 L81,-213 Z" stroke-width="0" fill="#876cf9" fill-opacity="0.12156862745098039" />
<path d="M144,-233 L81,-298 L178,-213 L239,-288 L227,-103 L227,-111 Z" stroke-width="0" fill="#98e6ee" fill-opacity="0.3058823529411765" />
<path d="M72,-58 L204,-253 L110,-82 L192,-211 L142,-31 L47,-29 Z" stroke-width="0" fill="#143221" fill-opacity="0.5294117647058824" />
<path d="M69,-136 L60,-37 L200,-260 L127,-123 L147,-104 L226,-287 Z" stroke-width="0" fill="#ac84fb" fill-opacity="0.33725490196078434" />
<path d="M109,-117 L154,-296 L238,-133 L187,-211 L233,-292 L83,-250 Z" stroke-width="0" fill="#cecbd1" fill-opacity="0.2627450980392157" />
<path d="M94,-46 L145,-241 L187,-123 L232,-284 L145,-178 L56,-188 Z" stroke-width="0" fill="#c6b6f6" fill-opacity="0.5254901960784314" />
<path d="M67,-280 L204,-298 L94,-86 L201,-71 L47,-143 L72,-276 Z" stroke-width="0" fill="#9fc8b2" fill-opacity="0.03529411764705882" />
<path d="M77,-208 L50,-191 L76,-253 L245,-231 L101,-37 L47,-158 Z" stroke-width="0" fill="#3d93e6" fill-opacity="0.33725490196078434" />
<text x="137.5" y="12.5" font-size="20.0" fill="black" text-anchor="middle" transform="translate(0,5.0)">3 OF FIRE</text>
</svg>