<?xml version="1.0" encoding="UTF-8"?>
<svg xmlns="http://www.w3.org/2000/svg" xmlns:xlink="http://www.w3.org/1999/xlink"
     width="896" height="1496" viewBox="0 -1400 896 1496" style="font-size:70;font-family:Poor Richard, Times New Roman;stroke:black;stroke-width:1;fill:none">
<defs>
</defs>
<path d="M242,-466 L90,-1214 L950,-738 L354,-386 L474,-1274 L458,-234 Z" stroke-width="0" fill="#493806" fill-opacity="0.12156862745098039" />
<path d="M434,-86 L498,-418 L958,-1174 L218,-118 L474,-674 L838,-338 Z" stroke-width="0" fill="#4f137a" fill-opacity="0.8588235294117647" />
<path d="M398,-822 L510,-518 L234,-98 L670,-458 L346,-406 L794,-938 Z" stroke-width="0" fill="#040d19" fill-opacity="0.7137254901960784" />
<path d="M742,-474 L174,-1246 L522,-190 L594,-250 L854,-654 L634,-1074 Z" stroke-width="0" fill="#c46918" fill-opacity="0.20392156862745098" />
<path d="M702,-1142 L126,-1206 L874,-1030 L246,-838 L782,-558 L278,-666 Z" stroke-width="0" fill="#ab62bd" fill-opacity="0.0784313725490196" />
<path d="M262,-982 L334,-834 L774,-706 L854,-674 L86,-410 L274,-126 Z" stroke-width="0" fill="#150c08" fill-opacity="0.8117647058823529" />
<path d="M530,-678 L902,-426 L294,-218 L926,-998 L586,-1006 L514,-186 Z" stroke-width="0" fill="#a70e27" fill-opacity="0.9294117647058824" />
<path d="M466,-862 L882,-570 L366,-398 L890,-1058 L570,-338 L518,-282 Z" stroke-width="0" fill="#db0504" fill-opacity="0.9098039215686274" />
<path d="M454,-1258 L482,-562 L326,-174 L174,-638 L598,-338 L154,-1166 Z" stroke-width="0" fill="#d39961" fill-opacity="0.2549019607843137" />
<path d="M82,-174 L950,-550 L382,-262 L502,-214 L230,-514 L602,-886 Z" stroke-width="0" fill="#000000" fill-opacity="0.5803921568627451" />
<path d="M214,-102 L90,-494 L122,-1094 L818,-1158 L190,-426 L594,-290 Z" stroke-width="0" fill="#dcd8d6" fill-opacity="0.7843137254901961" />
<path d="M778,-758 L674,-830 L114,-374 L330,-930 L814,-474 L438,-154 Z" stroke-width="0" fill="#282d1a" fill-opacity="0.9333333333333333" />
<path d="M774,-1262 L942,-366 L454,-1130 L178,-782 L746,-178 L786,-726 Z" stroke-width="0" fill="#ef4a00" fill-opacity="0.41568627450980394" />
<path d="M442,-1098 L946,-790 L550,-998 L350,-494 L626,-434 L610,-1210 Z" stroke-width="0" fill="#dac5e2" fill-opacity="0.13725490196078433" />
<path d="M926,-482 L434,-946 L434,-270 L734,-1162 L734,-1002 L718,-546 Z" stroke-width="0" fill="#ff2c00" fill-opacity="0.6784313725490196" />
<path d="M566,-1126 L546,-314 L530,-626 L226,-230 L738,-1038 L126,-202 Z" stroke-width="0" fill="#dfaa15" fill-opacity="0.1568627450980392" />
<path d="M454,-374 L554,-1110 L774,-766 L550,-94 L266,-950 L922,-102 Z" stroke-width="0" fill="#000603" fill-opacity="0.7098039215686275" />
<path d="M714,-606 L178,-822 L650,-354 L82,-178 L518,-314 L382,-850 Z" stroke-width="0" fill="#270600" fill-opacity="0.6549019607843137" />
<path d="M866,-606 L974,-906 L474,-1254 L662,-218 L946,-994 L650,-146 Z" stroke-width="0" fill="#db1747" fill-opacity="0.30196078431372547" />
<path d="M642,-982 L274,-342 L654,-614 L106,-518 L962,-498 L302,-110 Z" stroke-width="0" fill="#3c2800" fill-opacity="0.7764705882352941" />
<path d="M594,-1270 L718,-482 L558,-438 L954,-106 L262,-430 L798,-206 Z" stroke-width="0" fill="#170329" fill-opacity="0.29411764705882354" />
<path d="M362,-238 L814,-838 L370,-138 L778,-438 L562,-1278 L410,-1110 Z" stroke-width="0" fill="#ddffe8" fill-opacity="0.6" />
<path d="M742,-566 L170,-154 L822,-814 L890,-1138 L594,-1090 L874,-178 Z" stroke-width="0" fill="#e6fd10" fill-opacity="0.2" />
<path d="M378,-782 L234,-794 L702,-1206 L838,-90 L798,-434 L518,-786 Z" stroke-width="0" fill="#c2d403" fill-opacity="0.0196078431372549" />
<path d="M154,-254 L238,-154 L638,-418 L366,-354 L582,-478 L658,-242 Z" stroke-width="0" fill="#f49e1b" fill-opacity="0.22745098039215686" />
<path d="M402,-302 L178,-722 L150,-298 L670,-562 L962,-702 L106,-742 Z" stroke-width="0" fill="#cfa7e0" fill-opacity="0.3058823529411765" />
<path d="M170,-298 L186,-634 L370,-1278 L526,-582 L226,-598 L526,-638 Z" stroke-width="0" fill="#e3d0d1" fill-opacity="0.615686274509804" />
<path d="M630,-378 L278,-126 L534,-470 L726,-1078 L978,-666 L306,-862 Z" stroke-width="0" fill="#1d1c00" fill-opacity="0.20784313725490197" />
<path d="M710,-610 L614,-266 L642,-746 L558,-518 L134,-190 L650,-82 Z" stroke-width="0" fill="#241b00" fill-opacity="0.9450980392156862" />
<path d="M878,-754 L534,-826 L534,-634 L898,-206 L582,-354 L366,-998 Z" stroke-width="0" fill="#020600" fill-opacity="0.807843137254902" />
<path d="M346,-646 L118,-674 L274,-986 L654,-494 L382,-1106 L466,-1226 Z" stroke-width="0" fill="#d76772" fill-opacity="0.011764705882352941" />
<path d="M850,-482 L142,-434 L86,-1274 L814,-126 L226,-510 L586,-494 Z" stroke-width="0" fill="#e10622" fill-opacity="0.12156862745098039" />
<path d="M738,-982 L102,-186 L510,-686 L798,-518 L170,-214 L646,-426 Z" stroke-width="0" fill="#422f12" fill-opacity="0.9176470588235294" />
<path d="M678,-1218 L334,-726 L866,-542 L362,-898 L906,-866 L606,-818 Z" stroke-width="0" fill="#fd5c19" fill-opacity="0.054901960784313725" />
<path d="M102,-1166 L838,-1174 L474,-1270 L322,-1118 L502,-518 L206,-342 Z" stroke-width="0" fill="#f9f6e9" fill-opacity="0.6352941176470588" />
<path d="M546,-598 L682,-1126 L538,-258 L878,-794 L626,-1014 L170,-246 Z" stroke-width="0" fill="#f5be62" fill-opacity="0.9019607843137255" />
<path d="M450,-438 L182,-630 L254,-630 L502,-742 L426,-346 L126,-502 Z" stroke-width="0" fill="#0bfde7" fill-opacity="0.9333333333333333" />
<path d="M942,-430 L346,-722 L214,-518 L362,-570 L418,-398 L438,-878 Z" stroke-width="0" fill="#933007" fill-opacity="0.7254901960784313" />
<path d="M314,-934 L790,-1154 L226,-1014 L394,-794 L226,-294 L602,-1146 Z" stroke-width="0" fill="#ecf7fc" fill-opacity="0.9372549019607843" />
<path d="M610,-342 L234,-138 L474,-282 L454,-950 L182,-622 L934,-970 Z" stroke-width="0" fill="#c35f14" fill-opacity="0.9803921568627451" />
<path d="M942,-854 L362,-626 L406,-942 L606,-574 L590,-722 L154,-170 Z" stroke-width="0" fill="#faf58d" fill-opacity="0.984313725490196" />
<path d="M158,-1054 L670,-618 L706,-770 L638,-186 L370,-542 L166,-486 Z" stroke-width="0" fill="#060b6c" fill-opacity="0.0" />
<path d="M278,-102 L518,-346 L126,-858 L142,-822 L134,-162 L510,-674 Z" stroke-width="0" fill="#18213d" fill-opacity="0.5529411764705883" />
<path d="M934,-258 L638,-414 L178,-430 L590,-682 L602,-358 L146,-134 Z" stroke-width="0" fill="#0f1800" fill-opacity="0.6941176470588235" />
<path d="M902,-118 L246,-306 L498,-334 L814,-1174 L342,-694 L434,-90 Z" stroke-width="0" fill="#60247a" fill-opacity="0.9568627450980393" />
<path d="M422,-566 L154,-402 L238,-1130 L458,-578 L706,-754 L98,-634 Z" stroke-width="0" fill="#b1d9eb" fill-opacity="0.12549019607843137" />
<path d="M550,-818 L318,-622 L634,-694 L90,-1230 L570,-462 L158,-498 Z" stroke-width="0" fill="#f5c1b6" fill-opacity="0.4666666666666667" />
<path d="M406,-86 L590,-638 L886,-938 L90,-714 L382,-86 L110,-766 Z" stroke-width="0" fill="#e1895f" fill-opacity="0.8431372549019608" />
<path d="M574,-750 L122,-318 L810,-342 L422,-318 L450,-306 L506,-614 Z" stroke-width="0" fill="#16d6bf" fill-opacity="0.5019607843137255" />
<path d="M794,-198 L650,-406 L302,-326 L198,-338 L638,-574 L762,-154 Z" stroke-width="0" fill="#072d27" fill-opacity="0.5019607843137255" />
<path d="M690,-642 L874,-630 L182,-830 L474,-278 L706,-454 L230,-966 Z" stroke-width="0" fill="#429ace" fill-opacity="0.15294117647058825" />
<path d="M518,-1082 L690,-1202 L358,-202 L202,-1254 L890,-310 L410,-598 Z" stroke-width="0" fill="#e6e125" fill-opacity="0.14901960784313725" />
<path d="M450,-898 L966,-958 L586,-854 L934,-1242 L414,-1006 L378,-958 Z" stroke-width="0" fill="#fee4d1" fill-opacity="0.596078431372549" />
<path d="M250,-214 L394,-378 L174,-510 L390,-482 L318,-250 L382,-1262 Z" stroke-width="0" fill="#eeeade" fill-opacity="0.8352941176470589" />
<path d="M330,-670 L458,-302 L498,-414 L510,-298 L242,-1202 L454,-814 Z" stroke-width="0" fill="#eeebcc" fill-opacity="0.7647058823529411" />
<path d="M678,-694 L614,-1182 L614,-886 L226,-862 L958,-230 L870,-838 Z" stroke-width="0" fill="#0a0d00" fill-opacity="0.5019607843137255" />
<path d="M278,-226 L850,-1130 L562,-1258 L826,-170 L922,-418 L854,-390 Z" stroke-width="0" fill="#556e21" fill-opacity="0.06274509803921569" />
<path d="M674,-750 L646,-1134 L514,-310 L822,-1122 L418,-866 L626,-1162 Z" stroke-width="0" fill="#ffe520" fill-opacity="0.9803921568627451" />
<path d="M106,-1062 L342,-230 L202,-406 L290,-506 L102,-842 L954,-1066 Z" stroke-width="0" fill="#e7f0c9" fill-opacity="0.03529411764705882" />
<path d="M514,-386 L282,-270 L90,-598 L486,-1142 L666,-286 L678,-1034 Z" stroke-width="0" fill="#27857a" fill-opacity="0.09803921568627451" />
<path d="M438,-534 L238,-950 L582,-1202 L798,-278 L138,-198 L158,-566 Z" stroke-width="0" fill="#8cdbe8" fill-opacity="0.09019607843137255" />
<path d="M166,-322 L394,-830 L902,-338 L282,-758 L422,-466 L202,-290 Z" stroke-width="0" fill="#09a487" fill-opacity="0.19607843137254902" />
<path d="M206,-1042 L862,-294 L386,-1234 L254,-350 L222,-898 L910,-1110 Z" stroke-width="0" fill="#a5d4d9" fill-opacity="0.13333333333333333" />
<path d="M270,-858 L314,-1062 L918,-290 L122,-1054 L378,-874 L954,-830 Z" stroke-width="0" fill="#fd0106" fill-opacity="0.07058823529411765" />
<path d="M114,-966 L622,-1234 L710,-1022 L278,-818 L874,-718 L890,-278 Z" stroke-width="0" fill="#f5efae" fill-opacity="0.1411764705882353" />
<path d="M482,-298 L658,-182 L318,-682 L194,-1246 L478,-1118 L82,-314 Z" stroke-width="0" fill="#b4afb5" fill-opacity="0.0392156862745098" />
<path d="M94,-174 L510,-694 L454,-522 L174,-1098 L734,-98 L614,-230 Z" stroke-width="0" fill="#5596bc" fill-opacity="0.5019607843137255" />
<path d="M258,-946 L286,-1038 L190,-530 L422,-158 L382,-134 L238,-554 Z" stroke-width="0" fill="#c6dfd0" fill-opacity="0.7607843137254902" />
<path d="M938,-258 L890,-1266 L178,-250 L438,-126 L554,-474 L626,-138 Z" stroke-width="0" fill="#130500" fill-opacity="0.5019607843137255" />
<path d="M254,-610 L94,-818 L662,-1202 L490,-314 L114,-602 L734,-338 Z" stroke-width="0" fill="#fdcdec" fill-opacity="0.6549019607843137" />
<path d="M618,-114 L626,-550 L170,-214 L946,-1150 L974,-1102 L246,-962 Z" stroke-width="0" fill="#e3cfeb" fill-opacity="0.11372549019607843" />
<path d="M274,-622 L466,-266 L650,-1150 L214,-1270 L630,-546 L114,-186 Z" stroke-width="0" fill="#efde77" fill-opacity="0.1411764705882353" />
<path d="M858,-1106 L586,-1054 L654,-286 L450,-1030 L410,-1206 L586,-250 Z" stroke-width="0" fill="#c86c4a" fill-opacity="0.0" />
<path d="M742,-554 L494,-866 L86,-1246 L514,-810 L910,-126 L246,-1090 Z" stroke-width="0" fill="#290104" fill-opacity="0.0784313725490196" />
<path d="M650,-430 L158,-498 L290,-606 L818,-226 L218,-778 L290,-830 Z" stroke-width="0" fill="#461210" fill-opacity="0.09019607843137255" />
<path d="M302,-106 L634,-722 L830,-606 L186,-1274 L738,-546 L146,-162 Z" stroke-width="0" fill="#ae969e" fill-opacity="0.3215686274509804" />
<path d="M958,-602 L662,-1246 L370,-526 L606,-142 L870,-834 L198,-198 Z" stroke-width="0" fill="#aa6637" fill-opacity="0.2196078431372549" />
<path d="M166,-494 L506,-618 L630,-562 L666,-402 L374,-278 L498,-474 Z" stroke-width="0" fill="#c3cbe8" fill-opacity="0.3176470588235294" />
<path d="M218,-702 L562,-714 L370,-666 L918,-690 L146,-650 L750,-466 Z" stroke-width="0" fill="#1b3f46" fill-opacity="0.23529411764705882" />
<path d="M930,-810 L666,-1110 L302,-678 L910,-390 L322,-622 L890,-578 Z" stroke-width="0" fill="#db4a07" fill-opacity="0.4627450980392157" />
<path d="M198,-418 L182,-226 L870,-922 L626,-634 L582,-370 L602,-726 Z" stroke-width="0" fill="#e2f2e3" fill-opacity="0.1411764705882353" />
<path d="M534,-1238 L498,-1078 L598,-454 L150,-882 L514,-310 L234,-434 Z" stroke-width="0" fill="#e7f1be" fill-opacity="0.8823529411764706" />
<path d="M254,-554 L642,-954 L966,-598 L918,-1010 L726,-1242 L370,-954 Z" stroke-width="0" fill="#ffe896" fill-opacity="0.5019607843137255" />
<path d="M202,-490 L294,-1090 L962,-1238 L926,-818 L106,-750 L94,-214 Z" stroke-width="0" fill="#ebbbc5" fill-opacity="0.4392156862745098" />
<path d="M778,-766 L334,-522 L210,-682 L606,-890 L398,-542 L446,-734 Z" stroke-width="0" fill="#b9c8d5" fill-opacity="0.32941176470588235" />
<path d="M206,-734 L550,-494 L598,-1066 L498,-310 L322,-262 L546,-522 Z" stroke-width="0" fill="#1216a3" fill-opacity="0.14901960784313725" />
<path d="M98,-310 L958,-426 L262,-850 L838,-1218 L786,-638 L438,-954 Z" stroke-width="0" fill="#db1000" fill-opacity="0.2196078431372549" />
<path d="M154,-1138 L614,-1018 L534,-798 L734,-498 L386,-1198 L598,-646 Z" stroke-width="0" fill="#e9f5cc" fill-opacity="0.8823529411764706" />
<path d="M254,-378 L302,-806 L910,-1198 L126,-806 L322,-390 L442,-162 Z" stroke-width="0" fill="#b4e758" fill-opacity="0.1843137254901961" />
<path d="M730,-538 L566,-438 L674,-674 L930,-862 L394,-422 L710,-206 Z" stroke-width="0" fill="#1e0705" fill-opacity="0.2784313725490196" />
<path d="M326,-498 L318,-1054 L966,-582 L406,-374 L694,-950 L190,-302 Z" stroke-width="0" fill="#ffdbf3" fill-opacity="0.06274509803921569" />
<path d="M278,-1114 L606,-314 L898,-230 L358,-958 L294,-990 L718,-734 Z" stroke-width="0" fill="#d6581d" fill-opacity="0.34509803921568627" />
<path d="M126,-494 L82,-710 L650,-334 L202,-442 L206,-382 L726,-442 Z" stroke-width="0" fill="#ae7859" fill-opacity="0.592156862745098" />
<path d="M858,-622 L214,-182 L570,-150 L978,-370 L942,-122 L142,-114 Z" stroke-width="0" fill="#111319" fill-opacity="0.9294117647058824" />
<path d="M642,-542 L230,-734 L318,-498 L210,-946 L518,-102 L298,-502 Z" stroke-width="0" fill="#e7b37f" fill-opacity="0.3137254901960784" />
<path d="M714,-502 L134,-362 L758,-254 L674,-774 L518,-274 L226,-942 Z" stroke-width="0" fill="#456956" fill-opacity="0.0784313725490196" />
<path d="M702,-1110 L270,-298 L114,-498 L378,-594 L730,-762 L670,-254 Z" stroke-width="0" fill="#b66429" fill-opacity="0.3137254901960784" />
<path d="M498,-314 L658,-874 L126,-574 L462,-218 L118,-994 L662,-854 Z" stroke-width="0" fill="#e9a4a3" fill-opacity="0.43137254901960786" />
<path d="M686,-762 L786,-754 L946,-426 L154,-634 L250,-302 L926,-506 Z" stroke-width="0" fill="#2d5589" fill-opacity="0.17254901960784313" />
<path d="M514,-1082 L578,-1010 L198,-1186 L310,-986 L890,-586 L782,-622 Z" stroke-width="0" fill="#d48f85" fill-opacity="0.19607843137254902" />
<text x="448.0" y="0" font-size="70.0" fill="black" text-anchor="middle" transform="translate(0,17.5)">7 OF FIRE</text>
</svg>