<?xml version="1.0" encoding="UTF-8"?>
<svg xmlns="http://www.w3.org/2000/svg" xmlns:xlink="http://www.w3.org/1999/xlink"
     width="896" height="1496" viewBox="0 -1400 896 1496" style="font-size:70;font-family:Poor Richard, Times New Roman;stroke:black;stroke-width:1;fill:none">
<defs>
</defs>
<path d="M794,-294 L242,-306 L118,-730 L206,-1170 L154,-498 L286,-746 Z" stroke-width="0" fill="#000d0c" fill-opacity="0.8666666666666667" />
<path d="M798,-182 L526,-578 L94,-422 L342,-438 L706,-934 L762,-262 Z" stroke-width="0" fill="#003c07" fill-opacity="0.7568627450980392" />
<path d="M94,-1118 L566,-490 L810,-342 L502,-702 L174,-1034 L590,-1054 Z" stroke-width="0" fill="#004d2e" fill-opacity="0.8431372549019608" />
<path d="M86,-510 L110,-538 L362,-726 L610,-934 L606,-238 L82,-1178 Z" stroke-width="0" fill="#00211f" fill-opacity="0.9098039215686274" />
<path d="M310,-1166 L506,-658 L98,-850 L510,-378 L370,-262 L470,-446 Z" stroke-width="0" fill="#000034" fill-opacity="0.7215686274509804" />
<path d="M298,-806 L298,-186 L538,-838 L642,-1162 L322,-274 L126,-342 Z" stroke-width="0" fill="#81c0e4" fill-opacity="0.9882352941176471" />
<path d="M574,-250 L166,-298 L210,-642 L766,-202 L578,-202 L426,-738 Z" stroke-width="0" fill="#00ecd6" fill-opacity="0.5019607843137255" />
<path d="M686,-186 L162,-438 L106,-998 L694,-946 L226,-258 L198,-250 Z" stroke-width="0" fill="#000089" fill-opacity="0.08627450980392157" />
<path d="M670,-518 L346,-738 L326,-1038 L574,-854 L598,-762 L598,-470 Z" stroke-width="0" fill="#5fdb54" fill-opacity="0.20392156862745098" />
<path d="M762,-574 L790,-882 L174,-242 L310,-938 L546,-310 L118,-454 Z" stroke-width="0" fill="#002d10" fill-opacity="0.7607843137254902" />
<path d="M446,-742 L242,-742 L234,-534 L98,-906 L570,-394 L546,-706 Z" stroke-width="0" fill="#00013c" fill-opacity="0.3843137254901961" />
<path d="M226,-606 L466,-1134 L402,-406 L366,-382 L334,-786 L810,-1278 Z" stroke-width="0" fill="#003a00" fill-opacity="0.8470588235294118" />
<path d="M318,-1006 L134,-666 L438,-466 L122,-1090 L518,-98 L390,-878 Z" stroke-width="0" fill="#002b1c" fill-opacity="0.8941176470588236" />
<path d="M406,-370 L342,-298 L546,-1034 L486,-474 L766,-1306 L806,-910 Z" stroke-width="0" fill="#003f2f" fill-opacity="0.8431372549019608" />
<path d="M426,-82 L322,-494 L154,-526 L146,-1102 L114,-1194 L246,-718 Z" stroke-width="0" fill="#001000" fill-opacity="0.792156862745098" />
<path d="M102,-490 L670,-498 L98,-702 L478,-378 L110,-222 L750,-394 Z" stroke-width="0" fill="#008249" fill-opacity="0.9411764705882353" />
<path d="M518,-546 L250,-350 L610,-342 L146,-482 L426,-1170 L150,-154 Z" stroke-width="0" fill="#5176a7" fill-opacity="0.7607843137254902" />
<path d="M458,-342 L146,-662 L614,-1190 L158,-138 L162,-294 L350,-274 Z" stroke-width="0" fill="#05eaec" fill-opacity="0.8431372549019608" />
<path d="M318,-1162 L438,-1314 L306,-854 L518,-542 L466,-318 L290,-502 Z" stroke-width="0" fill="#005100" fill-opacity="0.9450980392156862" />
<path d="M670,-878 L470,-930 L502,-474 L682,-590 L114,-218 L318,-558 Z" stroke-width="0" fill="#009b00" fill-opacity="0.5647058823529412" />
<path d="M202,-1182 L270,-186 L378,-1046 L490,-690 L806,-1286 L286,-222 Z" stroke-width="0" fill="#053c2f" fill-opacity="0.8470588235294118" />
<path d="M498,-1270 L570,-390 L546,-730 L338,-998 L538,-770 L642,-918 Z" stroke-width="0" fill="#925722" fill-opacity="0.5529411764705883" />
<path d="M218,-786 L518,-994 L186,-410 L366,-898 L542,-702 L566,-730 Z" stroke-width="0" fill="#46055b" fill-opacity="0.054901960784313725" />
<path d="M330,-222 L142,-382 L598,-746 L466,-1090 L694,-994 L258,-606 Z" stroke-width="0" fill="#f69c69" fill-opacity="0.3215686274509804" />
<path d="M466,-1222 L602,-858 L438,-1162 L534,-250 L342,-450 L398,-358 Z" stroke-width="0" fill="#2fa3b4" fill-opacity="0.47843137254901963" />
<path d="M146,-506 L638,-962 L142,-150 L794,-146 L490,-842 L538,-834 Z" stroke-width="0" fill="#001b00" fill-opacity="0.5411764705882353" />
<path d="M382,-438 L86,-730 L214,-622 L570,-934 L370,-1090 L250,-454 Z" stroke-width="0" fill="#001922" fill-opacity="0.32941176470588235" />
<path d="M566,-890 L546,-670 L522,-146 L82,-894 L638,-1106 L514,-1110 Z" stroke-width="0" fill="#004f08" fill-opacity="0.09803921568627451" />
<path d="M350,-306 L190,-962 L178,-110 L694,-990 L130,-838 L746,-978 Z" stroke-width="0" fill="#1c2a6d" fill-opacity="0.996078431372549" />
<path d="M382,-158 L554,-350 L566,-422 L202,-414 L634,-426 L354,-558 Z" stroke-width="0" fill="#18f8f3" fill-opacity="0.8313725490196079" />
<path d="M198,-490 L682,-614 L422,-230 L302,-706 L698,-482 L514,-1230 Z" stroke-width="0" fill="#bed1b6" fill-opacity="0.30980392156862746" />
<path d="M390,-462 L526,-294 L294,-362 L322,-434 L662,-790 L766,-310 Z" stroke-width="0" fill="#0e6a5f" fill-opacity="0.7568627450980392" />
<path d="M218,-678 L454,-306 L206,-958 L158,-402 L142,-190 L126,-850 Z" stroke-width="0" fill="#00467e" fill-opacity="0.5019607843137255" />
<path d="M258,-474 L302,-138 L350,-386 L514,-630 L706,-1066 L474,-854 Z" stroke-width="0" fill="#1c00be" fill-opacity="0.36470588235294116" />
<path d="M270,-1118 L318,-858 L398,-1138 L710,-590 L354,-1274 L534,-658 Z" stroke-width="0" fill="#020405" fill-opacity="0.615686274509804" />
<path d="M150,-634 L354,-94 L374,-530 L406,-1122 L714,-246 L610,-666 Z" stroke-width="0" fill="#003437" fill-opacity="0.9607843137254902" />
<path d="M290,-138 L710,-766 L138,-1106 L430,-522 L514,-890 L134,-738 Z" stroke-width="0" fill="#008d6d" fill-opacity="0.3764705882352941" />
<path d="M230,-442 L258,-518 L158,-918 L698,-1058 L742,-806 L370,-430 Z" stroke-width="0" fill="#22001d" fill-opacity="0.8431372549019608" />
<path d="M266,-366 L118,-1230 L610,-438 L626,-910 L238,-662 L130,-1086 Z" stroke-width="0" fill="#000300" fill-opacity="0.8117647058823529" />
<path d="M518,-1134 L470,-1042 L122,-594 L482,-1218 L362,-1166 L206,-522 Z" stroke-width="0" fill="#009787" fill-opacity="0.7450980392156863" />
<path d="M590,-898 L538,-334 L462,-1058 L178,-542 L378,-346 L138,-1082 Z" stroke-width="0" fill="#000f08" fill-opacity="0.8352941176470589" />
<path d="M482,-1126 L442,-638 L202,-1206 L318,-1134 L130,-954 L242,-742 Z" stroke-width="0" fill="#002000" fill-opacity="0.8196078431372549" />
<path d="M610,-514 L602,-342 L418,-458 L706,-1022 L86,-214 L490,-838 Z" stroke-width="0" fill="#000000" fill-opacity="0.7764705882352941" />
<path d="M706,-182 L546,-342 L286,-806 L582,-118 L342,-230 L634,-986 Z" stroke-width="0" fill="#00300a" fill-opacity="0.5019607843137255" />
<path d="M778,-758 L562,-802 L530,-442 L722,-682 L802,-902 L514,-186 Z" stroke-width="0" fill="#005f2b" fill-opacity="0.8509803921568627" />
<path d="M202,-418 L734,-982 L806,-502 L106,-514 L250,-226 L642,-666 Z" stroke-width="0" fill="#004b33" fill-opacity="0.792156862745098" />
<path d="M630,-1182 L746,-830 L282,-1006 L578,-350 L118,-698 L322,-746 Z" stroke-width="0" fill="#9e87c0" fill-opacity="0.14901960784313725" />
<path d="M238,-430 L302,-146 L242,-982 L346,-1250 L674,-1286 L338,-642 Z" stroke-width="0" fill="#004732" fill-opacity="0.9921568627450981" />
<path d="M486,-1286 L126,-422 L714,-878 L474,-566 L426,-350 L146,-154 Z" stroke-width="0" fill="#04573b" fill-opacity="0.8" />
<path d="M90,-634 L254,-726 L378,-758 L150,-1050 L318,-454 L702,-866 Z" stroke-width="0" fill="#1ada63" fill-opacity="0.07450980392156863" />
<path d="M558,-702 L518,-150 L722,-1274 L214,-814 L214,-374 L410,-610 Z" stroke-width="0" fill="#01262a" fill-opacity="0.8666666666666667" />
<path d="M502,-194 L82,-1102 L270,-274 L614,-102 L458,-926 L82,-290 Z" stroke-width="0" fill="#00061a" fill-opacity="0.7529411764705882" />
<path d="M674,-594 L310,-910 L370,-366 L346,-278 L190,-854 L782,-98 Z" stroke-width="0" fill="#001b12" fill-opacity="0.6274509803921569" />
<path d="M266,-1306 L526,-806 L326,-230 L802,-938 L442,-122 L794,-254 Z" stroke-width="0" fill="#006a2e" fill-opacity="0.5294117647058824" />
<path d="M250,-1078 L142,-770 L774,-550 L150,-350 L454,-318 L366,-1026 Z" stroke-width="0" fill="#296e79" fill-opacity="0.3176470588235294" />
<path d="M758,-1238 L210,-1126 L234,-318 L226,-490 L150,-126 L650,-226 Z" stroke-width="0" fill="#0d604c" fill-opacity="0.5568627450980392" />
<path d="M86,-650 L126,-186 L254,-226 L510,-566 L94,-1014 L594,-594 Z" stroke-width="0" fill="#000000" fill-opacity="0.6862745098039216" />
<path d="M758,-850 L146,-1170 L550,-406 L746,-546 L698,-518 L298,-122 Z" stroke-width="0" fill="#00390a" fill-opacity="0.7254901960784313" />
<path d="M130,-574 L458,-394 L490,-854 L810,-282 L94,-406 L794,-262 Z" stroke-width="0" fill="#073629" fill-opacity="0.9019607843137255" />
<path d="M250,-1290 L158,-270 L490,-822 L230,-646 L278,-682 L206,-1034 Z" stroke-width="0" fill="#00452d" fill-opacity="0.996078431372549" />
<path d="M694,-838 L398,-590 L722,-754 L270,-334 L118,-866 L346,-1302 Z" stroke-width="0" fill="#00423b" fill-opacity="0.9764705882352941" />
<path d="M374,-126 L530,-606 L366,-910 L510,-506 L438,-854 L730,-234 Z" stroke-width="0" fill="#507d81" fill-opacity="0.22745098039215686" />
<path d="M714,-950 L110,-702 L530,-1066 L478,-1250 L650,-150 L678,-538 Z" stroke-width="0" fill="#3fd560" fill-opacity="0.00392156862745098" />
<path d="M626,-902 L138,-970 L166,-690 L534,-702 L686,-190 L466,-878 Z" stroke-width="0" fill="#001f10" fill-opacity="0.7686274509803922" />
<path d="M678,-1238 L250,-538 L402,-474 L518,-278 L218,-822 L766,-630 Z" stroke-width="0" fill="#1f744b" fill-opacity="0.5215686274509804" />
<path d="M514,-118 L482,-858 L394,-754 L610,-138 L426,-318 L250,-274 Z" stroke-width="0" fill="#32d8f1" fill-opacity="0.8901960784313725" />
<path d="M250,-322 L618,-934 L722,-698 L454,-962 L354,-158 L618,-726 Z" stroke-width="0" fill="#109a38" fill-opacity="0.13725490196078433" />
<path d="M538,-1034 L154,-390 L670,-306 L190,-270 L358,-118 L614,-214 Z" stroke-width="0" fill="#02a9fc" fill-opacity="0.27058823529411763" />
<path d="M250,-1106 L798,-274 L470,-1194 L342,-142 L410,-302 L482,-994 Z" stroke-width="0" fill="#166b35" fill-opacity="0.4235294117647059" />
<path d="M514,-1222 L542,-298 L570,-922 L154,-94 L382,-242 L630,-934 Z" stroke-width="0" fill="#16633a" fill-opacity="0.6666666666666666" />
<path d="M450,-262 L170,-166 L418,-426 L622,-214 L450,-1242 L494,-90 Z" stroke-width="0" fill="#0e8042" fill-opacity="0.28627450980392155" />
<path d="M450,-938 L498,-686 L682,-894 L522,-982 L806,-834 L482,-770 Z" stroke-width="0" fill="#1c8459" fill-opacity="0.8156862745098039" />
<path d="M550,-822 L122,-562 L670,-106 L230,-114 L346,-1206 L106,-442 Z" stroke-width="0" fill="#003902" fill-opacity="0.6274509803921569" />
<path d="M502,-806 L162,-606 L558,-970 L614,-814 L238,-666 L318,-846 Z" stroke-width="0" fill="#19bb7a" fill-opacity="0.5725490196078431" />
<path d="M298,-678 L782,-742 L662,-858 L398,-658 L262,-614 L690,-850 Z" stroke-width="0" fill="#4ad136" fill-opacity="0.4627450980392157" />
<path d="M594,-286 L562,-782 L642,-978 L406,-678 L534,-194 L274,-454 Z" stroke-width="0" fill="#27add8" fill-opacity="0.5019607843137255" />
<path d="M398,-194 L510,-294 L486,-694 L98,-254 L94,-1038 L358,-194 Z" stroke-width="0" fill="#004d25" fill-opacity="0.42745098039215684" />
<path d="M498,-986 L734,-666 L598,-1230 L410,-966 L642,-230 L142,-626 Z" stroke-width="0" fill="#124240" fill-opacity="0.1803921568627451" />
<path d="M230,-846 L206,-986 L242,-918 L350,-1198 L110,-326 L582,-682 Z" stroke-width="0" fill="#071945" fill-opacity="0.2627450980392157" />
<path d="M442,-1182 L238,-1206 L254,-1174 L598,-438 L418,-446 L134,-486 Z" stroke-width="0" fill="#066269" fill-opacity="0.2627450980392157" />
<path d="M578,-934 L154,-674 L118,-326 L418,-386 L126,-82 L310,-990 Z" stroke-width="0" fill="#00491b" fill-opacity="0.6862745098039216" />
<path d="M362,-898 L786,-762 L694,-390 L158,-582 L222,-422 L242,-1086 Z" stroke-width="0" fill="#00d0a0" fill-opacity="0.12156862745098039" />
<path d="M406,-986 L166,-230 L330,-702 L470,-554 L618,-766 L462,-342 Z" stroke-width="0" fill="#155857" fill-opacity="0.13725490196078433" />
<path d="M662,-414 L794,-498 L538,-742 L638,-118 L82,-562 L250,-1246 Z" stroke-width="0" fill="#003316" fill-opacity="0.5019607843137255" />
<path d="M182,-1006 L446,-658 L214,-734 L670,-494 L650,-518 L102,-438 Z" stroke-width="0" fill="#0a302c" fill-opacity="0.3411764705882353" />
<path d="M482,-894 L338,-538 L618,-618 L286,-170 L658,-494 L798,-146 Z" stroke-width="0" fill="#0ab7a6" fill-opacity="0.5019607843137255" />
<path d="M706,-706 L250,-338 L706,-810 L626,-610 L734,-754 L786,-642 Z" stroke-width="0" fill="#3abd5f" fill-opacity="0.4745098039215686" />
<path d="M198,-638 L462,-966 L574,-206 L306,-614 L450,-534 L494,-334 Z" stroke-width="0" fill="#89fd75" fill-opacity="0.06666666666666667" />
<path d="M206,-766 L774,-318 L654,-446 L286,-422 L146,-1006 L766,-718 Z" stroke-width="0" fill="#006a2e" fill-opacity="0.19215686274509805" />
<path d="M130,-98 L394,-906 L346,-118 L86,-1070 L178,-1098 L538,-514 Z" stroke-width="0" fill="#036247" fill-opacity="0.5019607843137255" />
<path d="M578,-102 L86,-1034 L578,-86 L270,-786 L282,-614 L342,-1126 Z" stroke-width="0" fill="#009130" fill-opacity="0.33725490196078434" />
<path d="M670,-466 L234,-250 L470,-1202 L346,-386 L770,-894 L302,-410 Z" stroke-width="0" fill="#09a288" fill-opacity="0.2901960784313726" />
<path d="M630,-610 L478,-430 L470,-342 L226,-190 L330,-322 L802,-250 Z" stroke-width="0" fill="#258f64" fill-opacity="0.4627450980392157" />
<path d="M686,-874 L198,-990 L410,-866 L238,-1054 L462,-634 L810,-422 Z" stroke-width="0" fill="#37735e" fill-opacity="0.36470588235294116" />
<path d="M202,-846 L550,-594 L110,-562 L586,-1006 L334,-442 L242,-722 Z" stroke-width="0" fill="#197732" fill-opacity="0.24705882352941178" />
<path d="M394,-646 L574,-478 L390,-198 L334,-1110 L498,-442 L418,-1142 Z" stroke-width="0" fill="#47477c" fill-opacity="0.15294117647058825" />
<path d="M470,-462 L202,-1138 L142,-854 L486,-338 L86,-974 L154,-878 Z" stroke-width="0" fill="#1d8a45" fill-opacity="0.19215686274509805" />
<path d="M342,-562 L130,-662 L718,-234 L298,-322 L506,-454 L330,-218 Z" stroke-width="0" fill="#0f7470" fill-opacity="0.2627450980392157" />
<path d="M586,-1078 L286,-454 L506,-762 L122,-118 L686,-154 L618,-410 Z" stroke-width="0" fill="#001e00" fill-opacity="0.4549019607843137" />
<path d="M266,-522 L710,-958 L418,-1218 L654,-1110 L798,-586 L162,-986 Z" stroke-width="0" fill="#043236" fill-opacity="0.43529411764705883" />
<text x="448.0" y="0" font-size="70.0" fill="black" text-anchor="middle" transform="translate(0,17.5)">6 OF FIRE</text>
</svg>