<?xml version="1.0" encoding="UTF-8"?>
<svg xmlns="http://www.w3.org/2000/svg" xmlns:xlink="http://www.w3.org/1999/xlink"
     width="896" height="1496" viewBox="0 -1400 896 1496" style="font-size:70;font-family:Poor Richard, Times New Roman;stroke:black;stroke-width:1;fill:none">
<defs>
</defs>
<path d="M366,-658 L118,-114 L714,-370 L82,-174 L502,-410 L126,-914 Z" stroke-width="0" fill="#9c8d77" fill-opacity="0.796078431372549" />
<path d="M418,-394 L458,-1262 L770,-458 L714,-150 L478,-930 L170,-582 Z" stroke-width="0" fill="#133d00" fill-opacity="0.5607843137254902" />
<path d="M490,-1302 L510,-454 L178,-534 L686,-1186 L130,-214 L426,-590 Z" stroke-width="0" fill="#d3bc5a" fill-opacity="0.29411764705882354" />
<path d="M482,-394 L642,-1270 L182,-186 L450,-254 L370,-1166 L110,-114 Z" stroke-width="0" fill="#5d0100" fill-opacity="0.27450980392156865" />
<path d="M150,-750 L190,-450 L566,-270 L262,-886 L434,-446 L358,-110 Z" stroke-width="0" fill="#5052b0" fill-opacity="0.5098039215686274" />
<path d="M354,-1202 L398,-974 L250,-390 L354,-970 L118,-334 L354,-718 Z" stroke-width="0" fill="#1a1e00" fill-opacity="0.9529411764705882" />
<path d="M394,-238 L522,-1238 L322,-1294 L470,-838 L362,-690 L166,-1186 Z" stroke-width="0" fill="#4a4d3d" fill-opacity="0.9411764705882353" />
<path d="M598,-1154 L334,-910 L162,-438 L594,-1046 L794,-338 L582,-306 Z" stroke-width="0" fill="#e0c096" fill-opacity="0.8549019607843137" />
<path d="M154,-162 L382,-814 L734,-1162 L666,-174 L378,-222 L530,-262 Z" stroke-width="0" fill="#e6b3f4" fill-opacity="0.050980392156862744" />
<path d="M606,-226 L250,-442 L250,-990 L646,-998 L414,-922 L718,-386 Z" stroke-width="0" fill="#201712" fill-opacity="0.8392156862745098" />
<path d="M722,-494 L782,-310 L206,-526 L678,-1210 L774,-514 L334,-1182 Z" stroke-width="0" fill="#f7e0b4" fill-opacity="0.12549019607843137" />
<path d="M82,-414 L782,-486 L322,-1054 L670,-502 L558,-934 L514,-882 Z" stroke-width="0" fill="#41fe0c" fill-opacity="0.3137254901960784" />
<path d="M742,-810 L670,-802 L238,-282 L578,-606 L646,-86 L194,-854 Z" stroke-width="0" fill="#124c49" fill-opacity="0.4823529411764706" />
<path d="M426,-714 L450,-210 L582,-890 L602,-486 L558,-106 L374,-442 Z" stroke-width="0" fill="#086c29" fill-opacity="0.6196078431372549" />
<path d="M698,-398 L558,-1082 L502,-750 L462,-782 L262,-370 L806,-394 Z" stroke-width="0" fill="#1a1b11" fill-opacity="0.5019607843137255" />
<path d="M750,-854 L806,-894 L606,-1102 L354,-382 L90,-406 L362,-314 Z" stroke-width="0" fill="#010c00" fill-opacity="0.5019607843137255" />
<path d="M238,-358 L478,-226 L550,-414 L366,-106 L262,-590 L766,-670 Z" stroke-width="0" fill="#98d745" fill-opacity="0.0" />
<path d="M406,-150 L122,-734 L494,-322 L242,-186 L170,-602 L214,-534 Z" stroke-width="0" fill="#ef0fff" fill-opacity="0.22745098039215686" />
<path d="M774,-598 L110,-426 L318,-814 L698,-486 L370,-334 L378,-206 Z" stroke-width="0" fill="#1b1f19" fill-opacity="0.5490196078431373" />
<path d="M382,-1102 L214,-230 L102,-110 L474,-658 L530,-914 L534,-798 Z" stroke-width="0" fill="#c9b862" fill-opacity="0.3607843137254902" />
<path d="M374,-394 L598,-582 L262,-958 L598,-1154 L210,-258 L502,-374 Z" stroke-width="0" fill="#0556b8" fill-opacity="0.34509803921568627" />
<path d="M194,-150 L226,-614 L622,-954 L134,-706 L82,-994 L578,-842 Z" stroke-width="0" fill="#000000" fill-opacity="0.8313725490196079" />
<path d="M178,-158 L242,-518 L450,-470 L406,-486 L570,-294 L362,-154 Z" stroke-width="0" fill="#cfabbd" fill-opacity="0.6352941176470588" />
<path d="M218,-242 L318,-654 L430,-274 L114,-734 L282,-842 L562,-1090 Z" stroke-width="0" fill="#390b06" fill-opacity="0.8941176470588236" />
<path d="M358,-1090 L262,-682 L274,-182 L162,-170 L710,-246 L490,-646 Z" stroke-width="0" fill="#001d00" fill-opacity="0.6431372549019608" />
<path d="M398,-246 L190,-1002 L674,-678 L762,-1046 L442,-978 L266,-638 Z" stroke-width="0" fill="#132008" fill-opacity="0.5254901960784314" />
<path d="M410,-594 L242,-1314 L386,-630 L258,-138 L246,-626 L554,-1134 Z" stroke-width="0" fill="#016b05" fill-opacity="0.7411764705882353" />
<path d="M166,-298 L538,-430 L462,-426 L110,-598 L754,-706 L390,-122 Z" stroke-width="0" fill="#3f0538" fill-opacity="0.24313725490196078" />
<path d="M674,-306 L182,-538 L550,-1186 L602,-1298 L414,-298 L102,-746 Z" stroke-width="0" fill="#443f43" fill-opacity="0.5019607843137255" />
<path d="M698,-634 L474,-214 L522,-574 L342,-726 L118,-382 L418,-146 Z" stroke-width="0" fill="#1f846d" fill-opacity="0.13333333333333333" />
<path d="M154,-490 L766,-514 L266,-1182 L270,-742 L98,-918 L550,-490 Z" stroke-width="0" fill="#0d0601" fill-opacity="0.10196078431372549" />
<path d="M386,-190 L350,-394 L290,-94 L642,-1094 L554,-470 L786,-514 Z" stroke-width="0" fill="#78d139" fill-opacity="0.5019607843137255" />
<path d="M742,-1070 L322,-102 L602,-854 L190,-362 L294,-906 L590,-534 Z" stroke-width="0" fill="#104016" fill-opacity="0.23529411764705882" />
<path d="M322,-1078 L146,-982 L650,-1298 L422,-490 L338,-1270 L322,-514 Z" stroke-width="0" fill="#25431c" fill-opacity="0.5019607843137255" />
<path d="M562,-1002 L810,-826 L806,-830 L250,-1178 L166,-618 L206,-1030 Z" stroke-width="0" fill="#001c10" fill-opacity="0.8" />
<path d="M738,-1230 L138,-542 L690,-958 L502,-942 L82,-794 L102,-474 Z" stroke-width="0" fill="#000000" fill-opacity="0.611764705882353" />
<path d="M598,-934 L182,-378 L622,-702 L402,-502 L218,-770 L318,-350 Z" stroke-width="0" fill="#97e9fe" fill-opacity="0.9098039215686274" />
<path d="M302,-342 L174,-1234 L542,-530 L242,-350 L634,-478 L378,-254 Z" stroke-width="0" fill="#234e00" fill-opacity="0.6980392156862745" />
<path d="M582,-1106 L226,-410 L774,-794 L142,-186 L514,-942 L354,-238 Z" stroke-width="0" fill="#5c80d8" fill-opacity="0.20392156862745098" />
<path d="M650,-386 L350,-606 L646,-1134 L250,-622 L558,-902 L242,-194 Z" stroke-width="0" fill="#d8cf98" fill-opacity="0.2627450980392157" />
<path d="M614,-1158 L406,-874 L406,-518 L522,-726 L302,-654 L738,-798 Z" stroke-width="0" fill="#221b06" fill-opacity="0.4117647058823529" />
<path d="M626,-594 L298,-386 L714,-1314 L210,-930 L310,-398 L190,-906 Z" stroke-width="0" fill="#eeb2af" fill-opacity="0.01568627450980392" />
<path d="M174,-1098 L302,-106 L246,-578 L374,-994 L334,-338 L534,-86 Z" stroke-width="0" fill="#5b4841" fill-opacity="0.5019607843137255" />
<path d="M290,-782 L110,-1074 L186,-322 L582,-734 L634,-226 L446,-978 Z" stroke-width="0" fill="#0c0506" fill-opacity="0.43137254901960786" />
<path d="M566,-694 L538,-238 L314,-310 L102,-506 L230,-602 L270,-1282 Z" stroke-width="0" fill="#000000" fill-opacity="0.7058823529411765" />
<path d="M338,-174 L478,-1006 L210,-958 L674,-986 L658,-462 L714,-386 Z" stroke-width="0" fill="#2a4a3b" fill-opacity="0.5058823529411764" />
<path d="M434,-370 L230,-1134 L90,-598 L506,-606 L198,-922 L330,-810 Z" stroke-width="0" fill="#07001b" fill-opacity="0.5333333333333333" />
<path d="M98,-262 L458,-358 L166,-818 L806,-1194 L454,-322 L778,-1118 Z" stroke-width="0" fill="#fcecf4" fill-opacity="0.0392156862745098" />
<path d="M98,-1166 L438,-1054 L722,-822 L114,-902 L382,-466 L506,-878 Z" stroke-width="0" fill="#1a1740" fill-opacity="0.6470588235294118" />
<path d="M490,-434 L386,-586 L302,-1122 L294,-1270 L546,-482 L470,-134 Z" stroke-width="0" fill="#263e26" fill-opacity="0.8666666666666667" />
<path d="M570,-202 L594,-1102 L666,-286 L266,-270 L294,-1086 L194,-630 Z" stroke-width="0" fill="#141600" fill-opacity="0.5803921568627451" />
<path d="M426,-286 L742,-938 L618,-862 L690,-686 L238,-290 L614,-286 Z" stroke-width="0" fill="#01000b" fill-opacity="0.9254901960784314" />
<path d="M166,-126 L510,-910 L250,-638 L110,-610 L538,-422 L138,-870 Z" stroke-width="0" fill="#b09d56" fill-opacity="0.3254901960784314" />
<path d="M346,-434 L322,-454 L346,-466 L414,-174 L558,-954 L534,-818 Z" stroke-width="0" fill="#eeed4b" fill-opacity="0.8941176470588236" />
<path d="M94,-262 L526,-1206 L470,-734 L310,-1034 L422,-574 L578,-1170 Z" stroke-width="0" fill="#001719" fill-opacity="0.5058823529411764" />
<path d="M258,-402 L302,-458 L262,-98 L594,-1186 L550,-1046 L150,-850 Z" stroke-width="0" fill="#1d271f" fill-opacity="0.34509803921568627" />
<path d="M82,-266 L138,-1162 L498,-162 L226,-774 L678,-922 L326,-386 Z" stroke-width="0" fill="#000000" fill-opacity="0.5019607843137255" />
<path d="M286,-814 L434,-346 L622,-390 L86,-1310 L230,-790 L626,-334 Z" stroke-width="0" fill="#0c2304" fill-opacity="0.8156862745098039" />
<path d="M270,-1130 L250,-758 L122,-366 L194,-206 L758,-106 L306,-578 Z" stroke-width="0" fill="#f47e42" fill-opacity="0.7411764705882353" />
<path d="M506,-546 L610,-158 L430,-194 L90,-358 L282,-974 L310,-98 Z" stroke-width="0" fill="#aad5a0" fill-opacity="0.5019607843137255" />
<path d="M654,-810 L478,-194 L346,-1274 L262,-746 L690,-974 L410,-338 Z" stroke-width="0" fill="#163c3a" fill-opacity="0.6901960784313725" />
<path d="M398,-174 L202,-94 L286,-90 L674,-142 L354,-550 L726,-1070 Z" stroke-width="0" fill="#8f523d" fill-opacity="0.596078431372549" />
<path d="M182,-1258 L602,-550 L266,-118 L566,-1150 L118,-346 L274,-1162 Z" stroke-width="0" fill="#6c4b33" fill-opacity="0.7490196078431373" />
<path d="M82,-1106 L254,-586 L406,-1062 L182,-674 L706,-646 L110,-1158 Z" stroke-width="0" fill="#00001f" fill-opacity="0.792156862745098" />
<path d="M658,-318 L346,-1062 L694,-570 L366,-174 L374,-214 L738,-538 Z" stroke-width="0" fill="#141a36" fill-opacity="0.5490196078431373" />
<path d="M330,-910 L230,-502 L142,-386 L410,-714 L482,-1298 L410,-774 Z" stroke-width="0" fill="#1e2630" fill-opacity="0.5803921568627451" />
<path d="M494,-1026 L794,-906 L382,-622 L86,-446 L146,-634 L794,-938 Z" stroke-width="0" fill="#345329" fill-opacity="0.4980392156862745" />
<path d="M770,-1162 L418,-258 L282,-866 L114,-1182 L142,-262 L274,-1190 Z" stroke-width="0" fill="#1dc09a" fill-opacity="0.03137254901960784" />
<path d="M238,-754 L94,-378 L782,-1146 L178,-206 L742,-1006 L574,-110 Z" stroke-width="0" fill="#95e36a" fill-opacity="0.13333333333333333" />
<path d="M506,-150 L306,-578 L354,-578 L586,-1298 L102,-554 L374,-874 Z" stroke-width="0" fill="#23061f" fill-opacity="0.15294117647058825" />
<path d="M738,-974 L362,-574 L214,-310 L226,-1146 L598,-906 L342,-350 Z" stroke-width="0" fill="#1c0226" fill-opacity="0.3803921568627451" />
<path d="M142,-934 L158,-314 L166,-162 L114,-382 L130,-858 L194,-118 Z" stroke-width="0" fill="#0d6d6f" fill-opacity="0.10196078431372549" />
<path d="M306,-754 L214,-1082 L142,-274 L478,-626 L162,-1262 L198,-210 Z" stroke-width="0" fill="#431461" fill-opacity="0.5137254901960784" />
<path d="M534,-1302 L566,-1294 L414,-486 L378,-794 L642,-98 L250,-162 Z" stroke-width="0" fill="#83d7a5" fill-opacity="0.26666666666666666" />
<path d="M578,-338 L770,-658 L654,-1242 L538,-234 L530,-774 L502,-690 Z" stroke-width="0" fill="#420d68" fill-opacity="0.15294117647058825" />
<path d="M654,-1106 L514,-1226 L526,-542 L734,-994 L634,-970 L98,-738 Z" stroke-width="0" fill="#1b1e13" fill-opacity="0.19215686274509805" />
<path d="M326,-546 L354,-950 L658,-558 L202,-686 L222,-978 L526,-94 Z" stroke-width="0" fill="#1d2edb" fill-opacity="0.0392156862745098" />
<path d="M354,-82 L670,-858 L158,-270 L522,-1282 L270,-294 L110,-778 Z" stroke-width="0" fill="#d7e468" fill-opacity="0.20392156862745098" />
<path d="M114,-758 L714,-158 L298,-210 L438,-1314 L194,-1118 L226,-330 Z" stroke-width="0" fill="#231631" fill-opacity="0.011764705882352941" />
<path d="M198,-798 L538,-726 L650,-534 L590,-910 L142,-510 L206,-954 Z" stroke-width="0" fill="#0e2a2b" fill-opacity="0.7058823529411765" />
<path d="M678,-886 L514,-758 L418,-982 L122,-786 L782,-1254 L150,-442 Z" stroke-width="0" fill="#8bc8e0" fill-opacity="0.0196078431372549" />
<path d="M602,-542 L106,-322 L570,-430 L354,-338 L242,-294 L530,-518 Z" stroke-width="0" fill="#71c284" fill-opacity="0.9450980392156862" />
<path d="M722,-326 L146,-730 L230,-390 L462,-650 L446,-982 L170,-562 Z" stroke-width="0" fill="#0b1668" fill-opacity="0.07058823529411765" />
<path d="M738,-1086 L306,-782 L186,-594 L578,-646 L426,-950 L122,-370 Z" stroke-width="0" fill="#eef619" fill-opacity="0.03529411764705882" />
<path d="M202,-1190 L310,-594 L186,-226 L302,-858 L550,-830 L434,-362 Z" stroke-width="0" fill="#3c642d" fill-opacity="0.29411764705882354" />
<path d="M310,-942 L718,-838 L190,-1114 L750,-1150 L462,-674 L322,-974 Z" stroke-width="0" fill="#f33cda" fill-opacity="0.0196078431372549" />
<path d="M734,-758 L186,-522 L638,-838 L450,-154 L126,-858 L678,-906 Z" stroke-width="0" fill="#3c7a4c" fill-opacity="0.14901960784313725" />
<path d="M274,-430 L634,-538 L610,-966 L622,-90 L810,-442 L646,-870 Z" stroke-width="0" fill="#071b0e" fill-opacity="0.47058823529411764" />
<path d="M562,-294 L750,-294 L122,-546 L606,-382 L566,-1106 L282,-770 Z" stroke-width="0" fill="#bfa0bc" fill-opacity="0.07450980392156863" />
<path d="M642,-666 L458,-494 L310,-482 L518,-342 L810,-1150 L806,-478 Z" stroke-width="0" fill="#12340f" fill-opacity="0.5019607843137255" />
<path d="M538,-910 L442,-550 L214,-138 L178,-1098 L234,-906 L146,-402 Z" stroke-width="0" fill="#cfc2b6" fill-opacity="0.08235294117647059" />
<path d="M562,-1102 L558,-602 L798,-910 L726,-562 L122,-270 L122,-1146 Z" stroke-width="0" fill="#2a4600" fill-opacity="0.48627450980392156" />
<path d="M402,-754 L630,-222 L490,-138 L190,-974 L258,-322 L510,-1138 Z" stroke-width="0" fill="#eddec2" fill-opacity="0.0392156862745098" />
<path d="M294,-218 L286,-690 L778,-402 L706,-442 L462,-1054 L638,-606 Z" stroke-width="0" fill="#a2a874" fill-opacity="0.5843137254901961" />
<path d="M414,-394 L598,-474 L762,-1042 L670,-1214 L94,-770 L274,-1102 Z" stroke-width="0" fill="#ecfbd8" fill-opacity="0.03137254901960784" />
<path d="M810,-610 L82,-286 L178,-278 L310,-1106 L326,-774 L130,-434 Z" stroke-width="0" fill="#413051" fill-opacity="0.5019607843137255" />
<path d="M190,-126 L494,-798 L262,-958 L506,-478 L186,-570 L490,-398 Z" stroke-width="0" fill="#75e28a" fill-opacity="0.10588235294117647" />
<path d="M198,-1074 L222,-150 L190,-634 L194,-838 L318,-1102 L254,-942 Z" stroke-width="0" fill="#009d26" fill-opacity="0.00784313725490196" />
<path d="M790,-978 L682,-1306 L506,-586 L750,-762 L250,-1234 L582,-698 Z" stroke-width="0" fill="#767881" fill-opacity="0.12156862745098039" />
<path d="M98,-682 L102,-270 L338,-162 L246,-922 L598,-198 L366,-562 Z" stroke-width="0" fill="#b1c383" fill-opacity="0.5019607843137255" />
<text x="448.0" y="0" font-size="70.0" fill="black" text-anchor="middle" transform="translate(0,17.5)">10 OF FIRE</text>
</svg>