<?xml version="1.0" encoding="UTF-8"?>
<svg xmlns="http://www.w3.org/2000/svg" xmlns:xlink="http://www.w3.org/1999/xlink"
     width="896" height="1496" viewBox="0 -1400 896 1496" style="font-size:70;font-family:Poor Richard, Times New Roman;stroke:black;stroke-width:1;fill:none">
<defs>
</defs>
<path d="M302,-858 L374,-1086 L194,-1274 L426,-926 L494,-974 L582,-786 Z" stroke-width="0" fill="#fdd11b" fill-opacity="0.03529411764705882" />
<path d="M390,-366 L338,-1162 L610,-346 L686,-858 L418,-190 L766,-866 Z" stroke-width="0" fill="#3cb608" fill-opacity="0.7058823529411765" />
<path d="M554,-914 L698,-750 L454,-854 L342,-258 L150,-490 L122,-346 Z" stroke-width="0" fill="#fce7c7" fill-opacity="0.03529411764705882" />
<path d="M182,-434 L522,-1194 L302,-602 L150,-382 L658,-814 L98,-362 Z" stroke-width="0" fill="#d87d4c" fill-opacity="0.0196078431372549" />
<path d="M626,-542 L626,-946 L298,-174 L314,-314 L398,-894 L570,-942 Z" stroke-width="0" fill="#fefcde" fill-opacity="0.12156862745098039" />
<path d="M634,-622 L258,-378 L414,-686 L286,-786 L130,-186 L222,-526 Z" stroke-width="0" fill="#f9edd6" fill-opacity="0.2901960784313726" />
<path d="M722,-1230 L378,-1214 L286,-294 L182,-266 L738,-622 L358,-230 Z" stroke-width="0" fill="#fdfce0" fill-opacity="0.11764705882352941" />
<path d="M126,-130 L730,-302 L178,-1030 L710,-874 L682,-846 L370,-610 Z" stroke-width="0" fill="#f1c82c" fill-opacity="0.07450980392156863" />
<path d="M458,-1154 L182,-282 L802,-182 L662,-1218 L110,-842 L446,-578 Z" stroke-width="0" fill="#09036e" fill-opacity="0.2235294117647059" />
<path d="M186,-482 L262,-86 L514,-222 L258,-310 L306,-878 L502,-630 Z" stroke-width="0" fill="#cd814c" fill-opacity="0.43137254901960786" />
<path d="M282,-1002 L726,-210 L398,-150 L294,-1282 L330,-910 L430,-710 Z" stroke-width="0" fill="#0f1c20" fill-opacity="0.403921568627451" />
<path d="M766,-978 L226,-698 L126,-166 L506,-1114 L794,-534 L166,-154 Z" stroke-width="0" fill="#e6e2e4" fill-opacity="0.5725490196078431" />
<path d="M522,-830 L458,-1254 L370,-646 L602,-870 L82,-538 L326,-814 Z" stroke-width="0" fill="#d591b8" fill-opacity="0.15294117647058825" />
<path d="M122,-86 L122,-938 L174,-382 L150,-374 L778,-690 L358,-866 Z" stroke-width="0" fill="#bad4ae" fill-opacity="0.44313725490196076" />
<path d="M706,-638 L762,-778 L494,-1302 L766,-1270 L142,-502 L438,-830 Z" stroke-width="0" fill="#001408" fill-opacity="0.06666666666666667" />
<path d="M398,-258 L362,-706 L394,-1166 L190,-806 L230,-206 L170,-522 Z" stroke-width="0" fill="#fef9f5" fill-opacity="0.6392156862745098" />
<path d="M154,-1146 L422,-982 L250,-1050 L434,-150 L338,-426 L650,-270 Z" stroke-width="0" fill="#e5f5ff" fill-opacity="0.01568627450980392" />
<path d="M110,-914 L642,-1074 L586,-634 L158,-510 L106,-178 L290,-94 Z" stroke-width="0" fill="#f6cde8" fill-opacity="0.5372549019607843" />
<path d="M446,-546 L310,-314 L738,-626 L330,-670 L226,-710 L402,-386 Z" stroke-width="0" fill="#9c1566" fill-opacity="0.8196078431372549" />
<path d="M706,-630 L146,-814 L150,-406 L734,-546 L186,-974 L582,-214 Z" stroke-width="0" fill="#f3eace" fill-opacity="0.08627450980392157" />
<path d="M322,-382 L794,-710 L522,-350 L306,-458 L298,-982 L430,-510 Z" stroke-width="0" fill="#071750" fill-opacity="0.22745098039215686" />
<path d="M186,-1018 L314,-290 L494,-566 L142,-1302 L242,-1030 L214,-510 Z" stroke-width="0" fill="#92ce73" fill-opacity="0.027450980392156862" />
<path d="M514,-938 L234,-726 L162,-122 L538,-438 L734,-922 L706,-994 Z" stroke-width="0" fill="#f7d67e" fill-opacity="0.16862745098039217" />
<path d="M410,-946 L422,-646 L206,-918 L578,-1118 L298,-1186 L250,-1146 Z" stroke-width="0" fill="#ebcee3" fill-opacity="0.0196078431372549" />
<path d="M178,-198 L186,-666 L114,-150 L586,-446 L702,-562 L174,-1054 Z" stroke-width="0" fill="#c5dada" fill-opacity="0.4" />
<path d="M114,-394 L426,-174 L314,-166 L590,-198 L242,-322 L374,-1062 Z" stroke-width="0" fill="#decbf5" fill-opacity="0.29411764705882354" />
<path d="M170,-1194 L182,-1186 L278,-398 L310,-842 L342,-346 L754,-866 Z" stroke-width="0" fill="#eaf6dd" fill-opacity="0.023529411764705882" />
<path d="M218,-1250 L782,-374 L730,-142 L518,-550 L554,-166 L594,-814 Z" stroke-width="0" fill="#3bc7c4" fill-opacity="0.7058823529411765" />
<path d="M586,-462 L738,-1026 L362,-1102 L462,-894 L778,-690 L214,-466 Z" stroke-width="0" fill="#e3b160" fill-opacity="0.023529411764705882" />
<path d="M630,-1274 L162,-1278 L578,-174 L250,-318 L462,-498 L342,-1294 Z" stroke-width="0" fill="#98a3c5" fill-opacity="0.19215686274509805" />
<path d="M270,-734 L318,-758 L146,-342 L810,-314 L118,-526 L502,-494 Z" stroke-width="0" fill="#d81235" fill-opacity="0.0392156862745098" />
<path d="M778,-910 L694,-306 L106,-278 L110,-314 L470,-1290 L98,-1114 Z" stroke-width="0" fill="#f79f99" fill-opacity="0.12156862745098039" />
<path d="M422,-342 L86,-950 L542,-390 L370,-690 L322,-322 L558,-1238 Z" stroke-width="0" fill="#5b6850" fill-opacity="0.16862745098039217" />
<path d="M718,-798 L134,-834 L350,-606 L234,-906 L238,-106 L126,-574 Z" stroke-width="0" fill="#f6f0ed" fill-opacity="0.11372549019607843" />
<path d="M310,-794 L702,-970 L642,-194 L362,-282 L182,-966 L86,-182 Z" stroke-width="0" fill="#caa7d5" fill-opacity="0.2980392156862745" />
<path d="M266,-258 L482,-806 L406,-1070 L646,-322 L226,-598 L790,-306 Z" stroke-width="0" fill="#7edbdc" fill-opacity="0.11764705882352941" />
<path d="M134,-1142 L738,-202 L418,-626 L226,-854 L450,-1306 L266,-254 Z" stroke-width="0" fill="#f6fbdf" fill-opacity="0.043137254901960784" />
<path d="M622,-410 L238,-1294 L506,-414 L342,-618 L426,-846 L766,-1178 Z" stroke-width="0" fill="#7f1d1e" fill-opacity="0.27058823529411763" />
<path d="M762,-622 L610,-230 L390,-110 L546,-114 L306,-434 L98,-706 Z" stroke-width="0" fill="#38608a" fill-opacity="0.8196078431372549" />
<path d="M234,-550 L638,-478 L762,-630 L182,-1002 L82,-534 L698,-90 Z" stroke-width="0" fill="#e2fac8" fill-opacity="0.6352941176470588" />
<path d="M382,-426 L494,-382 L266,-914 L738,-906 L330,-218 L402,-138 Z" stroke-width="0" fill="#250203" fill-opacity="0.6352941176470588" />
<path d="M94,-658 L486,-1166 L318,-1170 L166,-598 L350,-1018 L486,-994 Z" stroke-width="0" fill="#fcf9eb" fill-opacity="0.6313725490196078" />
<path d="M534,-410 L442,-846 L314,-750 L526,-870 L558,-1026 L238,-698 Z" stroke-width="0" fill="#3db679" fill-opacity="0.058823529411764705" />
<path d="M106,-574 L318,-374 L194,-398 L694,-294 L138,-246 L466,-114 Z" stroke-width="0" fill="#cf5f05" fill-opacity="0.023529411764705882" />
<path d="M374,-914 L422,-126 L122,-94 L302,-514 L762,-450 L554,-302 Z" stroke-width="0" fill="#9abac4" fill-opacity="0.5019607843137255" />
<path d="M178,-466 L710,-1138 L222,-546 L442,-630 L274,-470 L414,-162 Z" stroke-width="0" fill="#e63c65" fill-opacity="0.403921568627451" />
<path d="M382,-358 L714,-810 L198,-318 L714,-210 L470,-118 L670,-774 Z" stroke-width="0" fill="#476384" fill-opacity="0.49019607843137253" />
<path d="M622,-346 L698,-98 L290,-990 L578,-706 L598,-846 L114,-734 Z" stroke-width="0" fill="#65879b" fill-opacity="0.6823529411764706" />
<path d="M778,-202 L678,-594 L686,-270 L710,-990 L730,-1278 L354,-206 Z" stroke-width="0" fill="#b816be" fill-opacity="0.03529411764705882" />
<path d="M730,-754 L386,-686 L570,-546 L98,-282 L162,-1258 L194,-1218 Z" stroke-width="0" fill="#ffe1f6" fill-opacity="0.19607843137254902" />
<path d="M498,-1278 L282,-630 L606,-650 L170,-878 L794,-270 L630,-722 Z" stroke-width="0" fill="#7c70e7" fill-opacity="0.12941176470588237" />
<path d="M742,-502 L334,-746 L522,-82 L722,-238 L142,-330 L718,-242 Z" stroke-width="0" fill="#20869c" fill-opacity="0.5372549019607843" />
<path d="M130,-242 L378,-574 L706,-1006 L366,-182 L430,-770 L230,-1058 Z" stroke-width="0" fill="#d3be6a" fill-opacity="0.027450980392156862" />
<path d="M742,-894 L502,-130 L258,-882 L434,-738 L282,-334 L790,-438 Z" stroke-width="0" fill="#00076e" fill-opacity="0.20784313725490197" />
<path d="M462,-490 L210,-1246 L530,-1214 L738,-618 L438,-1010 L182,-662 Z" stroke-width="0" fill="#fff3ec" fill-opacity="0.7725490196078432" />
<path d="M90,-878 L386,-350 L414,-778 L538,-1162 L678,-614 L162,-1226 Z" stroke-width="0" fill="#f2fba1" fill-opacity="0.10196078431372549" />
<path d="M622,-546 L358,-186 L266,-86 L586,-326 L546,-822 L770,-1050 Z" stroke-width="0" fill="#090500" fill-opacity="0.2823529411764706" />
<path d="M226,-730 L762,-1218 L438,-174 L338,-250 L494,-82 L274,-1014 Z" stroke-width="0" fill="#536b82" fill-opacity="0.9137254901960784" />
<path d="M562,-178 L298,-170 L594,-1166 L206,-570 L298,-842 L606,-1298 Z" stroke-width="0" fill="#9f5bd2" fill-opacity="0.054901960784313725" />
<path d="M798,-746 L614,-578 L742,-1222 L214,-962 L662,-666 L354,-874 Z" stroke-width="0" fill="#ffeed1" fill-opacity="0.6784313725490196" />
<path d="M702,-466 L538,-382 L378,-846 L166,-306 L602,-298 L698,-490 Z" stroke-width="0" fill="#9cbebe" fill-opacity="0.09803921568627451" />
<path d="M654,-886 L778,-1270 L122,-546 L186,-398 L726,-138 L482,-1086 Z" stroke-width="0" fill="#add2ee" fill-opacity="0.43137254901960786" />
<path d="M266,-1174 L106,-250 L798,-774 L502,-998 L526,-410 L330,-1266 Z" stroke-width="0" fill="#beedd7" fill-opacity="0.19215686274509805" />
<path d="M174,-426 L254,-286 L714,-694 L182,-590 L106,-886 L754,-426 Z" stroke-width="0" fill="#dffacc" fill-opacity="0.5843137254901961" />
<path d="M486,-438 L390,-146 L390,-906 L530,-218 L374,-502 L302,-250 Z" stroke-width="0" fill="#4e1a1b" fill-opacity="0.5254901960784314" />
<path d="M222,-738 L122,-682 L94,-586 L174,-854 L538,-182 L202,-430 Z" stroke-width="0" fill="#f7f36f" fill-opacity="0.09019607843137255" />
<path d="M334,-1066 L346,-246 L494,-102 L122,-1142 L314,-370 L162,-754 Z" stroke-width="0" fill="#06010e" fill-opacity="0.023529411764705882" />
<path d="M662,-178 L154,-542 L498,-522 L314,-1066 L374,-118 L790,-654 Z" stroke-width="0" fill="#32999c" fill-opacity="0.13725490196078433" />
<path d="M794,-114 L234,-198 L806,-422 L210,-1178 L766,-950 L322,-342 Z" stroke-width="0" fill="#1f96c6" fill-opacity="0.18823529411764706" />
<path d="M374,-402 L250,-910 L694,-770 L434,-422 L182,-294 L438,-526 Z" stroke-width="0" fill="#c9c19d" fill-opacity="0.9647058823529412" />
<path d="M794,-974 L242,-802 L514,-414 L698,-878 L626,-602 L710,-302 Z" stroke-width="0" fill="#9fa5da" fill-opacity="0.9529411764705882" />
<path d="M582,-350 L214,-94 L702,-366 L602,-406 L146,-1262 L162,-570 Z" stroke-width="0" fill="#cdc9e3" fill-opacity="0.35294117647058826" />
<path d="M790,-1018 L314,-1058 L726,-798 L106,-794 L626,-658 L538,-538 Z" stroke-width="0" fill="#a4a19d" fill-opacity="0.45098039215686275" />
<path d="M410,-626 L242,-418 L498,-514 L770,-1098 L662,-910 L502,-722 Z" stroke-width="0" fill="#0fe664" fill-opacity="0.09411764705882353" />
<path d="M90,-234 L370,-354 L102,-302 L282,-1290 L530,-934 L126,-562 Z" stroke-width="0" fill="#f1f2d6" fill-opacity="0.6352941176470588" />
<path d="M622,-970 L422,-802 L314,-614 L442,-742 L662,-582 L518,-902 Z" stroke-width="0" fill="#14edbe" fill-opacity="0.4549019607843137" />
<path d="M418,-278 L638,-1050 L86,-474 L142,-1142 L266,-310 L450,-250 Z" stroke-width="0" fill="#a882d0" fill-opacity="0.2549019607843137" />
<path d="M518,-1094 L326,-810 L130,-366 L170,-658 L330,-718 L214,-90 Z" stroke-width="0" fill="#d79061" fill-opacity="0.07450980392156863" />
<path d="M266,-658 L98,-1138 L122,-1022 L702,-334 L278,-502 L554,-918 Z" stroke-width="0" fill="#0a3b41" fill-opacity="0.07450980392156863" />
<path d="M126,-210 L798,-1126 L450,-866 L450,-614 L470,-102 L610,-478 Z" stroke-width="0" fill="#5690aa" fill-opacity="0.3058823529411765" />
<path d="M650,-490 L254,-610 L486,-1042 L102,-426 L174,-982 L330,-526 Z" stroke-width="0" fill="#d9e0c9" fill-opacity="0.32941176470588235" />
<path d="M118,-266 L786,-1010 L722,-174 L674,-630 L598,-710 L298,-498 Z" stroke-width="0" fill="#43dfd2" fill-opacity="0.5137254901960784" />
<path d="M482,-502 L278,-278 L774,-846 L442,-270 L242,-106 L710,-658 Z" stroke-width="0" fill="#fef0ed" fill-opacity="0.023529411764705882" />
<path d="M786,-362 L310,-1206 L514,-122 L270,-1310 L426,-582 L350,-1134 Z" stroke-width="0" fill="#fb8ed7" fill-opacity="0.047058823529411764" />
<path d="M230,-790 L666,-1146 L286,-1266 L158,-454 L546,-846 L806,-486 Z" stroke-width="0" fill="#cae4e3" fill-opacity="0.09019607843137255" />
<path d="M394,-898 L158,-254 L166,-510 L706,-1050 L290,-1230 L694,-430 Z" stroke-width="0" fill="#beced6" fill-opacity="0.43137254901960786" />
<path d="M350,-834 L690,-1094 L234,-558 L270,-954 L206,-1178 L562,-166 Z" stroke-width="0" fill="#eb5e5a" fill-opacity="0.21176470588235294" />
<path d="M94,-334 L362,-1298 L350,-542 L726,-1094 L650,-1082 L426,-602 Z" stroke-width="0" fill="#86cac4" fill-opacity="0.2784313725490196" />
<path d="M562,-1106 L370,-1066 L794,-1062 L206,-886 L190,-1202 L198,-874 Z" stroke-width="0" fill="#eeb5ad" fill-opacity="0.3411764705882353" />
<path d="M414,-1210 L322,-626 L306,-102 L706,-646 L170,-958 L438,-850 Z" stroke-width="0" fill="#0a827b" fill-opacity="0.3176470588235294" />
<path d="M378,-250 L358,-1006 L674,-526 L298,-278 L190,-898 L546,-562 Z" stroke-width="0" fill="#597f8d" fill-opacity="0.21568627450980393" />
<path d="M762,-614 L774,-630 L518,-902 L530,-86 L202,-526 L534,-678 Z" stroke-width="0" fill="#58a7cb" fill-opacity="0.12549019607843137" />
<path d="M338,-530 L274,-642 L246,-1246 L290,-346 L522,-1082 L446,-834 Z" stroke-width="0" fill="#e5d7f9" fill-opacity="0.10980392156862745" />
<path d="M190,-722 L586,-1126 L522,-686 L490,-502 L754,-814 L446,-422 Z" stroke-width="0" fill="#16284a" fill-opacity="0.18823529411764706" />
<path d="M462,-1130 L470,-166 L398,-726 L794,-978 L798,-162 L594,-262 Z" stroke-width="0" fill="#00247d" fill-opacity="0.21568627450980393" />
<path d="M142,-138 L102,-354 L114,-1034 L378,-470 L718,-1094 L318,-454 Z" stroke-width="0" fill="#38596c" fill-opacity="0.00392156862745098" />
<path d="M666,-290 L746,-302 L358,-734 L558,-1310 L214,-942 L562,-778 Z" stroke-width="0" fill="#cfacd2" fill-opacity="0.09019607843137255" />
<path d="M518,-562 L494,-854 L266,-346 L314,-202 L238,-1178 L102,-1058 Z" stroke-width="0" fill="#7e8193" fill-opacity="0.3137254901960784" />
<path d="M178,-614 L102,-538 L262,-430 L446,-570 L242,-238 L534,-194 Z" stroke-width="0" fill="#758f83" fill-opacity="0.1803921568627451" />
<path d="M510,-278 L246,-498 L498,-478 L270,-850 L398,-830 L382,-682 Z" stroke-width="0" fill="#353973" fill-opacity="0.3254901960784314" />
<text x="448.0" y="0" font-size="70.0" fill="black" text-anchor="middle" transform="translate(0,17.5)">2 OF FIRE</text>
</svg>