<?xml version="1.0" encoding="UTF-8"?>
<svg xmlns="http://www.w3.org/2000/svg" xmlns:xlink="http://www.w3.org/1999/xlink"
     width="275" height="375" viewBox="0 -350 275 375">
<defs>
</defs>
<rect x="15" y="-335" width="245" height="320" stroke="black" stroke-width="4" fill="white" />
<path d="M30,-255 L197,-138 L95,-309 L26,-74 L238,-90 L208,-83 Z" stroke-width="0" fill="#070000" fill-opacity="0.6196078431372549" />
<path d="M200,-80 L68,-79 L128,-183 L164,-37 L48,-241 L221,-324 Z" stroke-width="0" fill="#140000" fill-opacity="0.7568627450980392" />
<path d="M65,-65 L208,-315 L84,-261 L106,-181 L76,-151 L212,-133 Z" stroke-width="0" fill="#b5922e" fill-opacity="0.03137254901960784" />
<path d="M214,-189 L220,-38 L247,-137 L56,-132 L86,-62 L65,-126 Z" stroke-width="0" fill="#e8ccc6" fill-opacity="0.5019607843137255" />
<path d="M119,-68 L237,-161 L197,-253 L174,-233 L126,-43 L99,-243 Z" stroke-width="0" fill="#ef80d9" fill-opacity="0.09411764705882353" />
<path d="M141,-263 L82,-88 L209,-313 L201,-56 L135,-198 L101,-284 Z" stroke-width="0" fill="#635a16" fill-opacity="0.30196078431372547" />
<path d="M70,-284 L176,-307 L123,-246 L81,-294 L143,-324 L156,-233 Z" stroke-width="0" fill="#4e0000" fill-opacity="0.6705882352941176" />
<path d="M54,-90 L25,-25 L147,-274 L121,-33 L162,-185 L94,-118 Z" stroke-width="0" fill="#1c0000" fill-opacity="0.807843137254902" />
<path d="M115,-198 L64,-152 L39,-149 L123,-53 L63,-159 L160,-295 Z" stroke-width="0" fill="#dcce14" fill-opacity="0.20784313725490197" />
<path d="M192,-214 L66,-272 L90,-53 L137,-212 L43,-274 L64,-108 Z" stroke-width="0" fill="#1d0000" fill-opacity="0.8" />
<path d="M53,-90 L147,-116 L158,-49 L216,-39 L130,-183 L114,-55 Z" stroke-width="0" fill="#0e0000" fill-opacity="0.9333333333333333" />
<path d="M153,-33 L190,-247 L225,-224 L189,-208 L177,-102 L148,-198 Z" stroke-width="0" fill="#931600" fill-opacity="0.792156862745098" />
<path d="M118,-148 L62,-193 L160,-225 L173,-122 L41,-48 L204,-103 Z" stroke-width="0" fill="#0b56f3" fill-opacity="0.6705882352941176" />
<path d="M152,-296 L159,-69 L142,-165 L241,-141 L62,-275 L245,-237 Z" stroke-width="0" fill="#aa3823" fill-opacity="0.13333333333333333" />
<path d="M63,-61 L43,-321 L220,-308 L122,-76 L201,-167 L131,-121 Z" stroke-width="0" fill="#000000" fill-opacity="0.7607843137254902" />
<path d="M76,-28 L137,-180 L87,-311 L171,-165 L107,-231 L81,-238 Z" stroke-width="0" fill="#3e1a4f" fill-opacity="0.47058823529411764" />
<path d="M128,-46 L105,-74 L37,-264 L48,-228 L227,-75 L200,-71 Z" stroke-width="0" fill="#f94860" fill-opacity="0.9019607843137255" />
<path d="M208,-98 L37,-154 L105,-302 L45,-192 L217,-242 L42,-140 Z" stroke-width="0" fill="#c60000" fill-opacity="0.30980392156862746" />
<path d="M188,-275 L41,-128 L200,-118 L132,-114 L240,-49 L62,-167 Z" stroke-width="0" fill="#000000" fill-opacity="0.8901960784313725" />
<path d="M188,-162 L57,-43 L244,-219 L106,-39 L246,-104 L56,-298 Z" stroke-width="0" fill="#d0b200" fill-opacity="0.043137254901960784" />
<path d="M69,-303 L110,-97 L203,-264 L104,-61 L84,-174 L248,-231 Z" stroke-width="0" fill="#d9bbb6" fill-opacity="0.4549019607843137" />
<path d="M79,-276 L199,-231 L195,-54 L114,-128 L158,-142 L50,-70 Z" stroke-width="0" fill="#eca5d2" fill-opacity="0.7803921568627451" />
<path d="M72,-254 L113,-110 L101,-58 L117,-91 L121,-290 L159,-316 Z" stroke-width="0" fill="#38451d" fill-opacity="0.9294117647058824" />
<path d="M231,-180 L228,-286 L95,-206 L116,-149 L79,-143 L63,-96 Z" stroke-width="0" fill="#2d2501" fill-opacity="0.9529411764705882" />
<path d="M71,-278 L228,-312 L58,-73 L238,-32 L144,-242 L42,-111 Z" stroke-width="0" fill="#563947" fill-opacity="0.9647058823529412" />
<path d="M189,-50 L167,-147 L36,-241 L104,-105 L85,-141 L248,-168 Z" stroke-width="0" fill="#840044" fill-opacity="0.054901960784313725" />
<path d="M113,-160 L108,-259 L238,-235 L200,-32 L185,-146 L208,-130 Z" stroke-width="0" fill="#fcfaa6" fill-opacity="1.0" />
<path d="M121,-268 L64,-80 L55,-62 L68,-196 L135,-181 L66,-227 Z" stroke-width="0" fill="#86eee6" fill-opacity="0.6313725490196078" />
<path d="M146,-194 L113,-41 L149,-323 L34,-258 L77,-209 L33,-197 Z" stroke-width="0" fill="#464e38" fill-opacity="0.8156862745098039" />
<path d="M216,-34 L48,-31 L69,-102 L200,-41 L175,-273 L34,-62 Z" stroke-width="0" fill="#000000" fill-opacity="0.9450980392156862" />
<path d="M29,-42 L236,-66 L176,-42 L157,-226 L139,-123 L141,-141 Z" stroke-width="0" fill="#150713" fill-opacity="0.803921568627451" />
<path d="M158,-116 L115,-296 L60,-207 L157,-294 L68,-109 L48,-173 Z" stroke-width="0" fill="#070300" fill-opacity="0.8941176470588236" />
<path d="M240,-222 L238,-187 L213,-47 L95,-267 L207,-272 L153,-283 Z" stroke-width="0" fill="#f6f3a0" fill-opacity="0.8392156862745098" />
<path d="M77,-289 L84,-248 L49,-126 L125,-252 L64,-222 L69,-205 Z" stroke-width="0" fill="#9c2c71" fill-opacity="0.7254901960784313" />
<path d="M240,-142 L200,-40 L141,-95 L64,-122 L191,-61 L41,-224 Z" stroke-width="0" fill="#b9afeb" fill-opacity="0.0196078431372549" />
<path d="M75,-234 L204,-300 L152,-35 L154,-233 L105,-181 L49,-58 Z" stroke-width="0" fill="#483d91" fill-opacity="0.6784313725490196" />
<path d="M174,-313 L160,-35 L197,-146 L226,-133 L156,-70 L247,-163 Z" stroke-width="0" fill="#d5bead" fill-opacity="0.2549019607843137" />
<path d="M60,-124 L59,-149 L125,-149 L237,-134 L136,-158 L101,-91 Z" stroke-width="0" fill="#a0e375" fill-opacity="0.09411764705882353" />
<path d="M105,-156 L181,-159 L138,-242 L199,-184 L227,-35 L53,-171 Z" stroke-width="0" fill="#fed7e3" fill-opacity="0.49019607843137253" />
<path d="M107,-207 L161,-131 L111,-70 L152,-180 L41,-196 L235,-226 Z" stroke-width="0" fill="#dc6e7a" fill-opacity="0.7372549019607844" />
<path d="M170,-185 L125,-138 L129,-313 L44,-279 L123,-141 L101,-203 Z" stroke-width="0" fill="#2426c3" fill-opacity="0.41568627450980394" />
<path d="M108,-95 L170,-61 L39,-230 L208,-95 L78,-140 L48,-91 Z" stroke-width="0" fill="#7c191d" fill-opacity="0.9254901960784314" />
<path d="M33,-173 L101,-57 L50,-249 L40,-292 L127,-157 L146,-236 Z" stroke-width="0" fill="#642200" fill-opacity="0.8196078431372549" />
<path d="M243,-272 L192,-72 L228,-268 L191,-315 L209,-221 L35,-41 Z" stroke-width="0" fill="#8eb10b" fill-opacity="0.16862745098039217" />
<path d="M106,-276 L177,-136 L49,-43 L29,-94 L215,-217 L136,-298 Z" stroke-width="0" fill="#70601f" fill-opacity="0.5215686274509804" />
<path d="M138,-33 L249,-196 L139,-121 L128,-120 L45,-162 L162,-43 Z" stroke-width="0" fill="#360102" fill-opacity="0.10588235294117647" />
<path d="M57,-83 L119,-38 L48,-313 L159,-72 L122,-130 L201,-65 Z" stroke-width="0" fill="#be74a2" fill-opacity="0.4627450980392157" />
<path d="M118,-246 L115,-169 L93,-71 L77,-158 L227,-229 L160,-40 Z" stroke-width="0" fill="#eca015" fill-opacity="0.11372549019607843" />
<path d="M66,-158 L194,-94 L104,-164 L108,-173 L177,-193 L97,-250 Z" stroke-width="0" fill="#faf5f8" fill-opacity="0.3176470588235294" />
<path d="M160,-84 L176,-109 L84,-107 L239,-239 L94,-124 L76,-37 Z" stroke-width="0" fill="#d20c98" fill-opacity="0.12549019607843137" />
<path d="M232,-153 L202,-77 L97,-115 L54,-281 L54,-41 L121,-212 Z" stroke-width="0" fill="#c26e59" fill-opacity="0.23921568627450981" />
<path d="M189,-323 L187,-30 L247,-27 L83,-211 L36,-114 L242,-114 Z" stroke-width="0" fill="#000000" fill-opacity="0.9411764705882353" />
<path d="M220,-165 L44,-230 L68,-131 L187,-219 L73,-251 L162,-287 Z" stroke-width="0" fill="#121f13" fill-opacity="0.8627450980392157" />
<path d="M74,-314 L193,-94 L184,-67 L206,-243 L55,-156 L69,-273 Z" stroke-width="0" fill="#4e0bcb" fill-opacity="0.12941176470588237" />
<path d="M205,-82 L46,-106 L195,-211 L59,-237 L189,-42 L179,-82 Z" stroke-width="0" fill="#00041e" fill-opacity="0.5607843137254902" />
<path d="M29,-321 L227,-299 L55,-118 L64,-295 L136,-40 L216,-78 Z" stroke-width="0" fill="#59431e" fill-opacity="0.7764705882352941" />
<path d="M197,-133 L56,-115 L133,-48 L79,-115 L94,-86 L79,-132 Z" stroke-width="0" fill="#000002" fill-opacity="0.9764705882352941" />
<path d="M228,-259 L53,-78 L208,-78 L40,-32 L100,-114 L184,-253 Z" stroke-width="0" fill="#370335" fill-opacity="0.6313725490196078" />
<path d="M152,-198 L204,-72 L72,-25 L51,-60 L83,-50 L54,-100 Z" stroke-width="0" fill="#021e04" fill-opacity="0.615686274509804" />
<path d="M142,-262 L58,-228 L222,-306 L206,-112 L149,-303 L156,-112 Z" stroke-width="0" fill="#150000" fill-opacity="0.792156862745098" />
<path d="M42,-263 L140,-147 L142,-102 L186,-50 L98,-224 L199,-256 Z" stroke-width="0" fill="#6114f8" fill-opacity="0.0" />
<path d="M225,-82 L90,-59 L45,-182 L243,-90 L225,-221 L177,-232 Z" stroke-width="0" fill="#d6a7d1" fill-opacity="0.6392156862745098" />
<path d="M225,-111 L135,-201 L57,-72 L76,-304 L228,-27 L31,-98 Z" stroke-width="0" fill="#940c19" fill-opacity="0.13725490196078433" />
<path d="M40,-161 L88,-138 L161,-201 L129,-137 L107,-156 L185,-178 Z" stroke-width="0" fill="#e2f4f9" fill-opacity="0.9372549019607843" />
<path d="M38,-261 L157,-208 L52,-143 L48,-136 L102,-77 L120,-50 Z" stroke-width="0" fill="#66015b" fill-opacity="0.47058823529411764" />
<path d="M93,-309 L57,-204 L69,-218 L25,-186 L118,-320 L173,-185 Z" stroke-width="0" fill="#584638" fill-opacity="0.788235294117647" />
<path d="M93,-107 L197,-259 L125,-54 L144,-222 L82,-26 L223,-47 Z" stroke-width="0" fill="#000000" fill-opacity="0.8588235294117647" />
<path d="M148,-102 L182,-182 L131,-209 L53,-107 L43,-318 L164,-45 Z" stroke-width="0" fill="#1a1140" fill-opacity="0.5490196078431373" />
<path d="M221,-239 L229,-27 L232,-193 L67,-273 L160,-190 L55,-290 Z" stroke-width="0" fill="#f15302" fill-opacity="0.058823529411764705" />
<path d="M115,-148 L126,-149 L225,-58 L114,-35 L197,-114 L226,-143 Z" stroke-width="0" fill="#f8c945" fill-opacity="0.5764705882352941" />
<path d="M97,-41 L42,-247 L184,-143 L180,-274 L84,-237 L132,-256 Z" stroke-width="0" fill="#611a54" fill-opacity="0.0392156862745098" />
<path d="M152,-42 L122,-75 L66,-293 L145,-260 L76,-234 L84,-202 Z" stroke-width="0" fill="#040000" fill-opacity="0.6627450980392157" />
<path d="M111,-36 L41,-34 L175,-222 L242,-166 L127,-64 L209,-263 Z" stroke-width="0" fill="#ad8048" fill-opacity="0.396078431372549" />
<path d="M244,-35 L35,-152 L104,-157 L109,-237 L123,-267 L45,-167 Z" stroke-width="0" fill="#420006" fill-opacity="0.27058823529411763" />
<path d="M168,-241 L217,-261 L168,-76 L167,-283 L150,-42 L218,-31 Z" stroke-width="0" fill="#330176" fill-opacity="0.16470588235294117" />
<path d="M173,-222 L179,-171 L132,-225 L148,-302 L43,-239 L136,-272 Z" stroke-width="0" fill="#1b092a" fill-opacity="0.3607843137254902" />
<path d="M163,-46 L161,-73 L29,-107 L48,-302 L133,-172 L170,-202 Z" stroke-width="0" fill="#0b0a00" fill-opacity="0.6352941176470588" />
<path d="M90,-104 L192,-248 L206,-39 L199,-234 L225,-245 L201,-75 Z" stroke-width="0" fill="#e5dcfe" fill-opacity="0.9568627450980393" />
<path d="M218,-219 L59,-165 L109,-164 L199,-269 L86,-69 L135,-110 Z" stroke-width="0" fill="#ea95a3" fill-opacity="0.5882352941176471" />
<path d="M57,-206 L156,-316 L184,-96 L61,-135 L121,-314 L200,-97 Z" stroke-width="0" fill="#b6bc7d" fill-opacity="0.1450980392156863" />
<path d="M217,-122 L34,-144 L41,-77 L100,-135 L64,-82 L246,-278 Z" stroke-width="0" fill="#e1fa9f" fill-opacity="0.33725490196078434" />
<path d="M245,-118 L143,-251 L66,-36 L225,-177 L82,-280 L131,-127 Z" stroke-width="0" fill="#d7d1d8" fill-opacity="0.058823529411764705" />
<path d="M87,-269 L53,-293 L203,-253 L123,-203 L73,-153 L60,-180 Z" stroke-width="0" fill="#380000" fill-opacity="0.403921568627451" />
<path d="M45,-172 L45,-308 L116,-218 L126,-191 L155,-183 L209,-90 Z" stroke-width="0" fill="#666c27" fill-opacity="0.4745098039215686" />
<path d="M227,-38 L177,-232 L182,-222 L184,-239 L168,-228 L197,-34 Z" stroke-width="0" fill="#e53d19" fill-opacity="0.00784313725490196" />
<path d="M205,-175 L65,-194 L197,-146 L208,-202 L28,-83 L152,-126 Z" stroke-width="0" fill="#5e8f5b" fill-opacity="0.44313725490196076" />
<path d="M149,-29 L159,-219 L95,-97 L182,-304 L119,-166 L147,-160 Z" stroke-width="0" fill="#d5f8fc" fill-opacity="0.9098039215686274" />
<path d="M137,-36 L98,-249 L159,-42 L88,-28 L116,-320 L103,-100 Z" stroke-width="0" fill="#000000" fill-opacity="0.9490196078431372" />
<path d="M42,-234 L96,-38 L153,-161 L122,-211 L105,-177 L48,-123 Z" stroke-width="0" fill="#644a4a" fill-opacity="0.5019607843137255" />
<path d="M103,-101 L33,-130 L185,-304 L194,-146 L99,-73 L79,-134 Z" stroke-width="0" fill="#faaa6f" fill-opacity="0.49019607843137253" />
<path d="M193,-280 L168,-47 L138,-108 L163,-29 L165,-226 L181,-119 Z" stroke-width="0" fill="#ece8b9" fill-opacity="0.09411764705882353" />
<path d="M223,-83 L114,-58 L48,-245 L139,-169 L216,-228 L50,-304 Z" stroke-width="0" fill="#dcf2dc" fill-opacity="0.28627450980392155" />
<path d="M210,-141 L149,-298 L110,-260 L31,-76 L216,-204 L85,-313 Z" stroke-width="0" fill="#7b5123" fill-opacity="0.21176470588235294" />
<path d="M93,-74 L135,-60 L47,-107 L84,-194 L244,-318 L233,-68 Z" stroke-width="0" fill="#a3d0f4" fill-opacity="0.7490196078431373" />
<path d="M72,-110 L127,-293 L233,-185 L238,-102 L206,-87 L155,-303 Z" stroke-width="0" fill="#c7f7c9" fill-opacity="0.14901960784313725" />
<path d="M165,-217 L229,-110 L38,-95 L107,-139 L153,-47 L119,-237 Z" stroke-width="0" fill="#eafe7c" fill-opacity="0.22745098039215686" />
<path d="M34,-172 L226,-51 L235,-81 L73,-95 L125,-166 L123,-248 Z" stroke-width="0" fill="#d584e1" fill-opacity="0.00392156862745098" />
<path d="M98,-264 L56,-322 L44,-136 L123,-52 L41,-149 L80,-295 Z" stroke-width="0" fill="#610405" fill-opacity="0.2784313725490196" />
<path d="M166,-316 L216,-306 L73,-281 L96,-94 L62,-162 L69,-297 Z" stroke-width="0" fill="#5b3010" fill-opacity="0.5098039215686274" />
<path d="M152,-256 L229,-38 L236,-105 L104,-302 L38,-292 L145,-67 Z" stroke-width="0" fill="#e8f3fe" fill-opacity="0.1607843137254902" />
<text x="137.5" y="12.5" font-size="20.0" fill="black" text-anchor="middle" transform="translate(0,5.0)">4 OF FIRE</text>
</svg>