<?xml version="1.0" encoding="UTF-8"?>
<svg xmlns="http://www.w3.org/2000/svg" xmlns:xlink="http://www.w3.org/1999/xlink"
     width="896" height="1496" viewBox="0 -1400 896 1496" style="font-size:70;font-family:Poor Richard, Times New Roman;stroke:black;stroke-width:1;fill:none">
<defs>
</defs>
<path d="M474,-458 L702,-490 L406,-146 L226,-598 L106,-366 L530,-870 Z" stroke-width="0" fill="#4600f6" fill-opacity="0.2901960784313726" />
<path d="M558,-1102 L790,-634 L502,-1050 L198,-762 L170,-1158 L210,-834 Z" stroke-width="0" fill="#171d0d" fill-opacity="0.34901960784313724" />
<path d="M214,-1086 L658,-914 L426,-126 L438,-90 L106,-1258 L82,-418 Z" stroke-width="0" fill="#000000" fill-opacity="0.1843137254901961" />
<path d="M262,-310 L698,-1214 L174,-1266 L790,-530 L822,-662 L262,-994 Z" stroke-width="0" fill="#757773" fill-opacity="0.47058823529411764" />
<path d="M734,-1114 L938,-1174 L710,-158 L110,-226 L362,-382 L238,-318 Z" stroke-width="0" fill="#728591" fill-opacity="0.23137254901960785" />
<path d="M874,-530 L590,-498 L622,-554 L766,-602 L838,-662 L122,-242 Z" stroke-width="0" fill="#15fcfb" fill-opacity="0.27450980392156865" />
<path d="M914,-958 L762,-322 L354,-342 L102,-1238 L542,-694 L766,-762 Z" stroke-width="0" fill="#807167" fill-opacity="0.23921568627450981" />
<path d="M398,-858 L574,-130 L122,-434 L874,-1042 L422,-898 L510,-138 Z" stroke-width="0" fill="#c23dc7" fill-opacity="0.12549019607843137" />
<path d="M110,-562 L138,-1070 L606,-1102 L814,-270 L394,-122 L762,-174 Z" stroke-width="0" fill="#97b71b" fill-opacity="0.08235294117647059" />
<path d="M86,-1034 L422,-502 L778,-242 L770,-1038 L666,-586 L886,-1162 Z" stroke-width="0" fill="#17342d" fill-opacity="0.10588235294117647" />
<path d="M202,-958 L842,-638 L534,-746 L286,-402 L190,-162 L742,-902 Z" stroke-width="0" fill="#f1b4a2" fill-opacity="0.3137254901960784" />
<path d="M274,-470 L106,-710 L506,-818 L110,-818 L238,-478 L250,-762 Z" stroke-width="0" fill="#c3e8d1" fill-opacity="0.28627450980392155" />
<path d="M454,-850 L174,-578 L366,-734 L118,-510 L146,-134 L98,-670 Z" stroke-width="0" fill="#c893d4" fill-opacity="0.3843137254901961" />
<path d="M450,-934 L510,-138 L250,-506 L130,-802 L298,-202 L958,-514 Z" stroke-width="0" fill="#8992b9" fill-opacity="0.27450980392156865" />
<path d="M510,-758 L710,-170 L198,-106 L622,-638 L678,-466 L470,-314 Z" stroke-width="0" fill="#212403" fill-opacity="0.8" />
<path d="M838,-510 L378,-434 L114,-730 L330,-1238 L146,-250 L530,-662 Z" stroke-width="0" fill="#ced8de" fill-opacity="0.6549019607843137" />
<path d="M562,-394 L910,-1146 L942,-958 L258,-1070 L762,-618 L226,-242 Z" stroke-width="0" fill="#c5e6e2" fill-opacity="0.3176470588235294" />
<path d="M762,-850 L302,-542 L366,-898 L682,-966 L554,-338 L178,-378 Z" stroke-width="0" fill="#eefef4" fill-opacity="0.4823529411764706" />
<path d="M526,-606 L350,-202 L942,-226 L358,-382 L942,-286 L286,-1150 Z" stroke-width="0" fill="#b740f9" fill-opacity="0.0" />
<path d="M246,-166 L162,-578 L918,-630 L494,-234 L618,-1110 L686,-590 Z" stroke-width="0" fill="#644c84" fill-opacity="0.2" />
<path d="M558,-714 L650,-1058 L454,-1082 L774,-650 L442,-454 L370,-486 Z" stroke-width="0" fill="#1c1ff1" fill-opacity="0.5843137254901961" />
<path d="M858,-170 L802,-646 L850,-1106 L502,-1102 L426,-278 L842,-822 Z" stroke-width="0" fill="#a3d1b0" fill-opacity="0.03137254901960784" />
<path d="M150,-818 L194,-94 L458,-122 L710,-1222 L182,-694 L406,-410 Z" stroke-width="0" fill="#23211c" fill-opacity="0.48627450980392156" />
<path d="M178,-98 L82,-838 L302,-1062 L442,-530 L122,-234 L546,-214 Z" stroke-width="0" fill="#c460ad" fill-opacity="0.2196078431372549" />
<path d="M290,-614 L254,-906 L822,-126 L414,-754 L222,-870 L806,-342 Z" stroke-width="0" fill="#b98caa" fill-opacity="0.011764705882352941" />
<path d="M770,-110 L670,-1066 L602,-394 L110,-1050 L98,-466 L506,-966 Z" stroke-width="0" fill="#8ebc90" fill-opacity="0.2901960784313726" />
<path d="M926,-1266 L118,-778 L886,-410 L858,-714 L390,-1050 L594,-550 Z" stroke-width="0" fill="#cebeaa" fill-opacity="0.37254901960784315" />
<path d="M190,-606 L734,-626 L450,-1006 L426,-386 L906,-686 L222,-770 Z" stroke-width="0" fill="#63b27a" fill-opacity="0.11764705882352941" />
<path d="M182,-1042 L442,-722 L206,-878 L202,-1138 L258,-114 L662,-158 Z" stroke-width="0" fill="#080611" fill-opacity="0.996078431372549" />
<path d="M386,-1030 L406,-338 L558,-898 L562,-502 L618,-742 L270,-390 Z" stroke-width="0" fill="#12f0e1" fill-opacity="0.3411764705882353" />
<path d="M86,-1074 L762,-598 L374,-458 L174,-806 L154,-834 L314,-930 Z" stroke-width="0" fill="#74800b" fill-opacity="0.43137254901960786" />
<path d="M222,-1262 L554,-662 L142,-1014 L826,-418 L406,-190 L114,-138 Z" stroke-width="0" fill="#c19c9e" fill-opacity="0.17647058823529413" />
<path d="M294,-166 L338,-506 L318,-346 L546,-962 L866,-822 L842,-1170 Z" stroke-width="0" fill="#e4d2d9" fill-opacity="0.5137254901960784" />
<path d="M634,-1254 L422,-1054 L774,-890 L494,-850 L922,-1074 L614,-290 Z" stroke-width="0" fill="#fee2f4" fill-opacity="0.6745098039215687" />
<path d="M866,-1006 L306,-774 L834,-930 L366,-326 L382,-150 L262,-930 Z" stroke-width="0" fill="#c4f4e8" fill-opacity="0.027450980392156862" />
<path d="M274,-1230 L330,-1018 L722,-946 L854,-602 L950,-674 L806,-846 Z" stroke-width="0" fill="#b588a4" fill-opacity="0.2980392156862745" />
<path d="M798,-742 L194,-846 L206,-410 L406,-822 L802,-646 L126,-646 Z" stroke-width="0" fill="#a2c332" fill-opacity="0.8627450980392157" />
<path d="M794,-170 L930,-810 L202,-502 L246,-322 L326,-186 L650,-838 Z" stroke-width="0" fill="#ddffe1" fill-opacity="0.47843137254901963" />
<path d="M694,-526 L642,-82 L430,-102 L470,-1030 L310,-306 L338,-514 Z" stroke-width="0" fill="#3b433f" fill-opacity="0.6235294117647059" />
<path d="M314,-822 L406,-294 L874,-766 L706,-666 L498,-110 L878,-526 Z" stroke-width="0" fill="#3bb346" fill-opacity="0.4549019607843137" />
<path d="M438,-606 L190,-422 L974,-710 L926,-1158 L246,-978 L850,-1258 Z" stroke-width="0" fill="#cec9c4" fill-opacity="0.592156862745098" />
<path d="M278,-1134 L118,-1214 L634,-246 L302,-758 L702,-746 L634,-362 Z" stroke-width="0" fill="#18344b" fill-opacity="0.28627450980392155" />
<path d="M606,-202 L266,-1222 L294,-318 L970,-486 L178,-1142 L654,-810 Z" stroke-width="0" fill="#d4ccdf" fill-opacity="0.8117647058823529" />
<path d="M834,-298 L102,-258 L418,-962 L438,-706 L610,-650 L418,-270 Z" stroke-width="0" fill="#ded1b4" fill-opacity="0.9019607843137255" />
<path d="M762,-914 L950,-1014 L98,-202 L818,-358 L150,-506 L414,-366 Z" stroke-width="0" fill="#defce5" fill-opacity="0.11372549019607843" />
<path d="M174,-922 L370,-174 L226,-722 L418,-238 L306,-310 L334,-470 Z" stroke-width="0" fill="#000002" fill-opacity="0.9450980392156862" />
<path d="M562,-578 L394,-1094 L410,-490 L682,-746 L846,-154 L834,-650 Z" stroke-width="0" fill="#cce4fd" fill-opacity="0.19215686274509805" />
<path d="M594,-854 L690,-498 L302,-130 L942,-782 L562,-686 L962,-1266 Z" stroke-width="0" fill="#e5ccf8" fill-opacity="0.16470588235294117" />
<path d="M890,-850 L670,-1050 L850,-810 L346,-578 L874,-1154 L410,-502 Z" stroke-width="0" fill="#e0f9a4" fill-opacity="0.22745098039215686" />
<path d="M742,-1030 L218,-1210 L826,-782 L282,-1034 L670,-802 L222,-474 Z" stroke-width="0" fill="#5863d9" fill-opacity="0.13725490196078433" />
<path d="M322,-1218 L330,-386 L810,-910 L818,-578 L454,-342 L306,-878 Z" stroke-width="0" fill="#374a02" fill-opacity="0.03529411764705882" />
<path d="M770,-1058 L882,-82 L486,-1030 L730,-1126 L202,-1182 L646,-642 Z" stroke-width="0" fill="#c6d2cd" fill-opacity="0.47843137254901963" />
<path d="M370,-282 L926,-382 L782,-114 L574,-398 L382,-390 L594,-698 Z" stroke-width="0" fill="#b5f8d0" fill-opacity="0.13333333333333333" />
<path d="M894,-166 L334,-274 L94,-458 L130,-330 L846,-482 L102,-1058 Z" stroke-width="0" fill="#1faa8a" fill-opacity="0.10196078431372549" />
<path d="M290,-858 L546,-550 L230,-138 L950,-1246 L634,-1238 L414,-230 Z" stroke-width="0" fill="#d5535a" fill-opacity="0.11372549019607843" />
<path d="M582,-1114 L358,-1082 L746,-590 L710,-270 L134,-418 L310,-1142 Z" stroke-width="0" fill="#d9b5e9" fill-opacity="0.12549019607843137" />
<path d="M726,-1034 L190,-110 L278,-974 L594,-378 L214,-390 L346,-734 Z" stroke-width="0" fill="#d6b71a" fill-opacity="0.5176470588235295" />
<path d="M594,-334 L474,-738 L934,-234 L126,-234 L298,-1046 L334,-90 Z" stroke-width="0" fill="#eff028" fill-opacity="0.10196078431372549" />
<path d="M538,-1262 L942,-462 L910,-378 L962,-690 L786,-190 L430,-734 Z" stroke-width="0" fill="#dbcbc3" fill-opacity="0.5058823529411764" />
<path d="M926,-522 L814,-298 L602,-478 L442,-710 L138,-658 L302,-854 Z" stroke-width="0" fill="#d2f9e0" fill-opacity="0.23921568627450981" />
<path d="M286,-1270 L630,-598 L366,-566 L138,-914 L810,-954 L930,-926 Z" stroke-width="0" fill="#ce7623" fill-opacity="0.0392156862745098" />
<path d="M742,-690 L98,-1050 L962,-138 L774,-798 L558,-174 L198,-814 Z" stroke-width="0" fill="#a6a7b8" fill-opacity="0.4980392156862745" />
<path d="M918,-1278 L522,-262 L806,-962 L90,-374 L782,-1094 L270,-1194 Z" stroke-width="0" fill="#94c8c5" fill-opacity="0.41568627450980394" />
<path d="M414,-1242 L354,-738 L510,-1130 L250,-1118 L838,-906 L442,-1038 Z" stroke-width="0" fill="#9eafca" fill-opacity="0.36470588235294116" />
<path d="M538,-634 L426,-478 L466,-1082 L934,-350 L538,-194 L746,-574 Z" stroke-width="0" fill="#ebdec6" fill-opacity="0.396078431372549" />
<path d="M610,-418 L326,-754 L574,-386 L338,-458 L934,-206 L238,-582 Z" stroke-width="0" fill="#f6cc9c" fill-opacity="0.03137254901960784" />
<path d="M650,-618 L162,-466 L934,-114 L90,-974 L662,-970 L782,-498 Z" stroke-width="0" fill="#fcf192" fill-opacity="0.09803921568627451" />
<path d="M346,-150 L846,-286 L858,-1186 L714,-1130 L686,-762 L362,-470 Z" stroke-width="0" fill="#e4f1f8" fill-opacity="0.4235294117647059" />
<path d="M126,-682 L578,-354 L598,-1014 L586,-1238 L286,-502 L798,-690 Z" stroke-width="0" fill="#34c3c5" fill-opacity="0.11372549019607843" />
<path d="M138,-950 L402,-250 L114,-1246 L434,-770 L326,-302 L854,-618 Z" stroke-width="0" fill="#c2c7d9" fill-opacity="0.7568627450980392" />
<path d="M670,-906 L486,-674 L322,-442 L438,-534 L138,-1190 L274,-1038 Z" stroke-width="0" fill="#e3edb3" fill-opacity="0.10588235294117647" />
<path d="M106,-130 L226,-902 L634,-1054 L522,-1254 L346,-254 L770,-186 Z" stroke-width="0" fill="#ad889d" fill-opacity="0.5294117647058824" />
<path d="M622,-334 L370,-154 L506,-434 L942,-234 L734,-214 L770,-386 Z" stroke-width="0" fill="#8dc8e9" fill-opacity="0.23529411764705882" />
<path d="M178,-122 L818,-994 L450,-562 L766,-882 L494,-602 L834,-438 Z" stroke-width="0" fill="#323641" fill-opacity="0.30980392156862746" />
<path d="M346,-550 L790,-478 L598,-130 L118,-630 L890,-606 L174,-122 Z" stroke-width="0" fill="#0377b9" fill-opacity="0.4196078431372549" />
<path d="M738,-1238 L206,-810 L378,-878 L886,-442 L342,-934 L726,-954 Z" stroke-width="0" fill="#dcd0da" fill-opacity="0.5411764705882353" />
<path d="M894,-790 L486,-602 L394,-1074 L194,-86 L426,-162 L158,-126 Z" stroke-width="0" fill="#eacecd" fill-opacity="0.5019607843137255" />
<path d="M386,-454 L510,-922 L578,-890 L846,-942 L126,-1038 L330,-242 Z" stroke-width="0" fill="#fd8451" fill-opacity="0.3176470588235294" />
<path d="M842,-1090 L86,-530 L194,-102 L330,-634 L146,-1150 L346,-834 Z" stroke-width="0" fill="#adbf93" fill-opacity="0.5725490196078431" />
<path d="M262,-586 L886,-134 L458,-638 L782,-1246 L282,-702 L434,-242 Z" stroke-width="0" fill="#00a3a8" fill-opacity="0.19215686274509805" />
<path d="M738,-942 L730,-854 L110,-1022 L742,-690 L294,-1182 L782,-1174 Z" stroke-width="0" fill="#ddfbf6" fill-opacity="0.1607843137254902" />
<path d="M118,-1002 L534,-962 L458,-598 L738,-902 L882,-302 L482,-166 Z" stroke-width="0" fill="#3d8757" fill-opacity="0.03529411764705882" />
<path d="M706,-862 L306,-1230 L282,-82 L382,-1262 L918,-990 L486,-582 Z" stroke-width="0" fill="#cac6c7" fill-opacity="0.5686274509803921" />
<path d="M754,-502 L298,-870 L842,-682 L450,-1258 L946,-1090 L362,-894 Z" stroke-width="0" fill="#dbc8c8" fill-opacity="0.47058823529411764" />
<path d="M126,-594 L326,-1262 L394,-806 L398,-766 L722,-922 L194,-1198 Z" stroke-width="0" fill="#b5b895" fill-opacity="0.1607843137254902" />
<path d="M370,-1182 L458,-126 L406,-1198 L418,-1050 L398,-122 L130,-966 Z" stroke-width="0" fill="#689b86" fill-opacity="0.19215686274509805" />
<path d="M586,-954 L434,-1182 L750,-666 L910,-834 L402,-154 L742,-834 Z" stroke-width="0" fill="#c9a8ef" fill-opacity="0.2823529411764706" />
<path d="M890,-334 L874,-474 L110,-666 L506,-962 L526,-278 L546,-450 Z" stroke-width="0" fill="#85d4a9" fill-opacity="0.01568627450980392" />
<path d="M638,-1046 L534,-342 L610,-634 L346,-530 L486,-1214 L562,-906 Z" stroke-width="0" fill="#e1c7dd" fill-opacity="0.6745098039215687" />
<path d="M94,-106 L874,-194 L494,-626 L534,-558 L858,-690 L234,-514 Z" stroke-width="0" fill="#1aaa43" fill-opacity="0.25882352941176473" />
<path d="M410,-738 L398,-682 L802,-650 L278,-174 L578,-822 L202,-246 Z" stroke-width="0" fill="#006b91" fill-opacity="0.1411764705882353" />
<path d="M634,-1130 L526,-498 L610,-630 L622,-350 L426,-1162 L746,-826 Z" stroke-width="0" fill="#ddddcf" fill-opacity="0.2901960784313726" />
<path d="M894,-810 L726,-366 L402,-1246 L622,-510 L110,-330 L834,-578 Z" stroke-width="0" fill="#c1b996" fill-opacity="0.058823529411764705" />
<path d="M134,-518 L642,-478 L370,-214 L706,-1114 L306,-882 L546,-1210 Z" stroke-width="0" fill="#e8cfad" fill-opacity="0.18823529411764706" />
<path d="M478,-722 L942,-98 L494,-154 L346,-502 L330,-218 L394,-702 Z" stroke-width="0" fill="#141885" fill-opacity="0.4588235294117647" />
<path d="M118,-1082 L226,-146 L446,-746 L182,-1066 L314,-202 L186,-1058 Z" stroke-width="0" fill="#cacde8" fill-opacity="0.5686274509803921" />
<path d="M470,-1234 L418,-406 L630,-1270 L174,-242 L482,-278 L578,-1066 Z" stroke-width="0" fill="#416cc5" fill-opacity="0.12941176470588237" />
<path d="M122,-538 L922,-222 L530,-330 L466,-230 L854,-1182 L494,-530 Z" stroke-width="0" fill="#35b7da" fill-opacity="0.027450980392156862" />
<path d="M722,-1042 L270,-566 L162,-474 L302,-830 L302,-906 L918,-1038 Z" stroke-width="0" fill="#b1dbaa" fill-opacity="0.19215686274509805" />
<path d="M718,-614 L390,-842 L858,-94 L638,-262 L810,-142 L538,-846 Z" stroke-width="0" fill="#b5dbb9" fill-opacity="0.3254901960784314" />
<text x="448.0" y="0" font-size="70.0" fill="black" text-anchor="middle" transform="translate(0,17.5)">PAGE OF FIRE</text>
</svg>