<?xml version="1.0" encoding="UTF-8"?>
<svg xmlns="http://www.w3.org/2000/svg" xmlns:xlink="http://www.w3.org/1999/xlink"
     width="896" height="1496" viewBox="0 -1400 896 1496" style="font-size:70;font-family:Poor Richard, Times New Roman;stroke:black;stroke-width:1;fill:none">
<defs>
</defs>
<path d="M634,-598 L514,-650 L286,-346 L410,-1118 L362,-98 L762,-302 Z" stroke-width="0" fill="#3f06db" fill-opacity="0.0196078431372549" />
<path d="M98,-690 L142,-1066 L274,-1242 L862,-954 L298,-1010 L526,-262 Z" stroke-width="0" fill="#f1eef6" fill-opacity="0.08627450980392157" />
<path d="M166,-774 L746,-858 L274,-1018 L146,-1266 L570,-586 L262,-806 Z" stroke-width="0" fill="#9db9b8" fill-opacity="0.09411764705882353" />
<path d="M698,-342 L814,-770 L382,-402 L290,-482 L430,-858 L818,-566 Z" stroke-width="0" fill="#a354ad" fill-opacity="0.1607843137254902" />
<path d="M222,-630 L618,-382 L426,-882 L198,-1150 L622,-878 L470,-506 Z" stroke-width="0" fill="#effef8" fill-opacity="0.03137254901960784" />
<path d="M374,-606 L342,-970 L154,-986 L438,-810 L882,-286 L538,-394 Z" stroke-width="0" fill="#021600" fill-opacity="0.9450980392156862" />
<path d="M698,-166 L298,-358 L838,-1022 L110,-246 L654,-890 L150,-262 Z" stroke-width="0" fill="#4b8dec" fill-opacity="0.11372549019607843" />
<path d="M842,-1090 L930,-134 L550,-1018 L298,-1214 L330,-482 L230,-1038 Z" stroke-width="0" fill="#636f29" fill-opacity="0.6509803921568628" />
<path d="M138,-302 L690,-426 L522,-1110 L454,-334 L686,-986 L474,-858 Z" stroke-width="0" fill="#599cb1" fill-opacity="0.8313725490196079" />
<path d="M334,-354 L942,-658 L678,-810 L694,-934 L166,-386 L470,-550 Z" stroke-width="0" fill="#1a0587" fill-opacity="0.35294117647058826" />
<path d="M690,-582 L562,-1234 L946,-1070 L938,-762 L802,-138 L454,-758 Z" stroke-width="0" fill="#14a362" fill-opacity="0.14901960784313725" />
<path d="M666,-538 L214,-478 L706,-994 L694,-1034 L538,-862 L158,-1206 Z" stroke-width="0" fill="#b0f6ca" fill-opacity="0.14901960784313725" />
<path d="M666,-750 L758,-98 L150,-478 L250,-1166 L390,-274 L258,-470 Z" stroke-width="0" fill="#a597b3" fill-opacity="0.25098039215686274" />
<path d="M754,-94 L222,-1142 L234,-466 L846,-242 L614,-586 L366,-314 Z" stroke-width="0" fill="#eceadd" fill-opacity="0.3058823529411765" />
<path d="M458,-398 L786,-998 L802,-1230 L82,-450 L574,-354 L850,-398 Z" stroke-width="0" fill="#111400" fill-opacity="0.8745098039215686" />
<path d="M958,-502 L662,-198 L582,-94 L826,-178 L554,-598 L862,-882 Z" stroke-width="0" fill="#d8dce8" fill-opacity="0.5882352941176471" />
<path d="M718,-218 L294,-726 L974,-438 L918,-482 L274,-1194 L858,-914 Z" stroke-width="0" fill="#a4a5b8" fill-opacity="0.9568627450980393" />
<path d="M82,-1150 L198,-442 L838,-686 L686,-474 L222,-622 L86,-246 Z" stroke-width="0" fill="#a8b487" fill-opacity="0.9647058823529412" />
<path d="M958,-102 L582,-386 L170,-666 L950,-1006 L162,-522 L702,-1270 Z" stroke-width="0" fill="#78788d" fill-opacity="0.39215686274509803" />
<path d="M482,-242 L718,-242 L742,-198 L386,-686 L938,-1138 L910,-122 Z" stroke-width="0" fill="#000700" fill-opacity="0.2549019607843137" />
<path d="M422,-610 L90,-1182 L670,-402 L734,-1054 L406,-930 L462,-446 Z" stroke-width="0" fill="#011503" fill-opacity="0.023529411764705882" />
<path d="M114,-146 L370,-898 L446,-378 L938,-638 L550,-198 L214,-214 Z" stroke-width="0" fill="#fdf5f5" fill-opacity="0.6941176470588235" />
<path d="M282,-862 L122,-926 L318,-834 L238,-486 L550,-190 L290,-586 Z" stroke-width="0" fill="#f0dcda" fill-opacity="0.13725490196078433" />
<path d="M522,-1254 L270,-902 L706,-514 L442,-394 L586,-1046 L770,-830 Z" stroke-width="0" fill="#fafcf6" fill-opacity="0.9921568627450981" />
<path d="M626,-850 L110,-118 L114,-106 L682,-1086 L738,-886 L110,-586 Z" stroke-width="0" fill="#b5adcb" fill-opacity="0.12156862745098039" />
<path d="M294,-642 L894,-594 L978,-1018 L218,-1054 L262,-142 L110,-770 Z" stroke-width="0" fill="#364c12" fill-opacity="0.8274509803921568" />
<path d="M238,-174 L98,-598 L654,-666 L642,-174 L522,-250 L686,-206 Z" stroke-width="0" fill="#f3f9f9" fill-opacity="0.9254901960784314" />
<path d="M822,-122 L878,-1202 L234,-886 L614,-234 L954,-1142 L210,-326 Z" stroke-width="0" fill="#f9fafb" fill-opacity="0.8117647058823529" />
<path d="M562,-126 L954,-522 L374,-886 L814,-438 L358,-294 L738,-318 Z" stroke-width="0" fill="#35155a" fill-opacity="0.3176470588235294" />
<path d="M482,-1014 L722,-838 L838,-1246 L326,-202 L590,-686 L866,-682 Z" stroke-width="0" fill="#3c5015" fill-opacity="0.6470588235294118" />
<path d="M610,-522 L202,-94 L938,-602 L538,-190 L170,-254 L806,-422 Z" stroke-width="0" fill="#fefcfa" fill-opacity="0.7215686274509804" />
<path d="M110,-950 L138,-714 L666,-462 L502,-1158 L206,-306 L758,-250 Z" stroke-width="0" fill="#f6f1fb" fill-opacity="0.7098039215686275" />
<path d="M190,-418 L154,-590 L822,-806 L690,-1058 L354,-750 L942,-670 Z" stroke-width="0" fill="#afb9e7" fill-opacity="0.00784313725490196" />
<path d="M938,-686 L294,-298 L298,-1138 L82,-442 L610,-650 L474,-834 Z" stroke-width="0" fill="#fdf5fa" fill-opacity="0.6392156862745098" />
<path d="M278,-1074 L510,-450 L662,-266 L658,-186 L338,-170 L210,-634 Z" stroke-width="0" fill="#f5fcf5" fill-opacity="0.5450980392156862" />
<path d="M942,-522 L766,-822 L926,-1038 L910,-1058 L630,-618 L186,-1018 Z" stroke-width="0" fill="#a3a5d4" fill-opacity="0.796078431372549" />
<path d="M134,-262 L806,-262 L662,-346 L394,-374 L98,-370 L502,-270 Z" stroke-width="0" fill="#f9ffff" fill-opacity="0.8823529411764706" />
<path d="M382,-318 L318,-82 L846,-598 L170,-626 L714,-710 L430,-1274 Z" stroke-width="0" fill="#fdf8f4" fill-opacity="0.043137254901960784" />
<path d="M134,-858 L122,-346 L110,-250 L586,-86 L502,-830 L690,-854 Z" stroke-width="0" fill="#dad8eb" fill-opacity="0.01568627450980392" />
<path d="M698,-186 L686,-1070 L258,-778 L686,-646 L298,-898 L230,-366 Z" stroke-width="0" fill="#effdd9" fill-opacity="0.011764705882352941" />
<path d="M742,-938 L654,-354 L302,-258 L426,-602 L562,-366 L650,-1010 Z" stroke-width="0" fill="#04000f" fill-opacity="0.9803921568627451" />
<path d="M518,-358 L978,-654 L82,-998 L154,-138 L750,-574 L326,-1038 Z" stroke-width="0" fill="#bfe9e4" fill-opacity="0.1450980392156863" />
<path d="M234,-558 L174,-1198 L122,-762 L426,-398 L106,-278 L526,-694 Z" stroke-width="0" fill="#e2a55e" fill-opacity="0.13725490196078433" />
<path d="M214,-1062 L682,-706 L222,-610 L462,-846 L90,-306 L174,-194 Z" stroke-width="0" fill="#284c02" fill-opacity="0.6745098039215687" />
<path d="M210,-226 L130,-1090 L870,-882 L922,-1238 L118,-770 L462,-874 Z" stroke-width="0" fill="#d8cdeb" fill-opacity="0.8901960784313725" />
<path d="M942,-1122 L230,-570 L126,-462 L318,-742 L910,-886 L358,-1278 Z" stroke-width="0" fill="#100d01" fill-opacity="0.25098039215686274" />
<path d="M590,-1274 L474,-394 L254,-490 L130,-310 L646,-1250 L774,-762 Z" stroke-width="0" fill="#778755" fill-opacity="0.8117647058823529" />
<path d="M414,-1134 L698,-1054 L142,-146 L394,-86 L430,-438 L614,-142 Z" stroke-width="0" fill="#f6f7e9" fill-opacity="0.054901960784313725" />
<path d="M714,-1126 L882,-574 L318,-1218 L186,-158 L498,-922 L462,-330 Z" stroke-width="0" fill="#f7fff9" fill-opacity="0.8745098039215686" />
<path d="M266,-422 L286,-606 L106,-934 L170,-618 L730,-986 L382,-146 Z" stroke-width="0" fill="#4fa0ea" fill-opacity="0.0196078431372549" />
<path d="M190,-186 L210,-782 L210,-718 L790,-190 L650,-362 L934,-606 Z" stroke-width="0" fill="#314e02" fill-opacity="0.7764705882352941" />
<path d="M762,-490 L962,-962 L262,-722 L226,-722 L754,-1010 L654,-170 Z" stroke-width="0" fill="#4e4b1c" fill-opacity="0.5372549019607843" />
<path d="M126,-1174 L746,-622 L370,-1134 L158,-626 L314,-462 L806,-554 Z" stroke-width="0" fill="#e7d8f0" fill-opacity="0.4392156862745098" />
<path d="M534,-1190 L222,-714 L518,-338 L462,-350 L618,-442 L874,-138 Z" stroke-width="0" fill="#88cd98" fill-opacity="0.00392156862745098" />
<path d="M278,-174 L586,-658 L234,-970 L670,-182 L482,-554 L446,-154 Z" stroke-width="0" fill="#ecf0fc" fill-opacity="0.0196078431372549" />
<path d="M286,-750 L630,-266 L966,-1178 L802,-570 L686,-882 L682,-822 Z" stroke-width="0" fill="#516f1a" fill-opacity="0.6509803921568628" />
<path d="M930,-82 L706,-786 L98,-1174 L934,-350 L406,-138 L270,-270 Z" stroke-width="0" fill="#716e93" fill-opacity="0.00392156862745098" />
<path d="M326,-134 L814,-654 L654,-582 L274,-166 L778,-258 L150,-710 Z" stroke-width="0" fill="#e7f9ef" fill-opacity="0.0196078431372549" />
<path d="M690,-454 L750,-774 L178,-718 L682,-926 L106,-510 L806,-478 Z" stroke-width="0" fill="#fcffe3" fill-opacity="0.9294117647058824" />
<path d="M970,-1110 L474,-886 L958,-602 L346,-786 L542,-866 L350,-822 Z" stroke-width="0" fill="#bdaae4" fill-opacity="0.9764705882352941" />
<path d="M790,-1034 L162,-210 L398,-470 L426,-210 L106,-158 L742,-730 Z" stroke-width="0" fill="#e2f5e1" fill-opacity="0.0196078431372549" />
<path d="M342,-842 L130,-294 L666,-1126 L646,-894 L626,-278 L690,-458 Z" stroke-width="0" fill="#fdfffb" fill-opacity="0.5176470588235295" />
<path d="M930,-826 L530,-842 L222,-1146 L790,-930 L186,-378 L550,-958 Z" stroke-width="0" fill="#f0ecfb" fill-opacity="0.5607843137254902" />
<path d="M874,-362 L834,-682 L966,-834 L290,-890 L550,-578 L614,-222 Z" stroke-width="0" fill="#225269" fill-opacity="0.6823529411764706" />
<path d="M978,-898 L242,-106 L530,-126 L674,-590 L682,-774 L278,-878 Z" stroke-width="0" fill="#e1e3e1" fill-opacity="0.058823529411764705" />
<path d="M834,-282 L926,-750 L102,-86 L370,-534 L902,-970 L442,-362 Z" stroke-width="0" fill="#06001c" fill-opacity="0.0392156862745098" />
<path d="M450,-486 L830,-374 L538,-674 L482,-1198 L734,-758 L278,-1078 Z" stroke-width="0" fill="#efeff9" fill-opacity="0.44313725490196076" />
<path d="M966,-442 L698,-566 L154,-646 L246,-690 L518,-510 L338,-682 Z" stroke-width="0" fill="#001d06" fill-opacity="0.2235294117647059" />
<path d="M898,-222 L162,-326 L526,-514 L858,-994 L434,-534 L586,-630 Z" stroke-width="0" fill="#b2f652" fill-opacity="0.16862745098039217" />
<path d="M262,-818 L350,-122 L942,-406 L574,-446 L190,-126 L554,-806 Z" stroke-width="0" fill="#faf1e9" fill-opacity="0.0196078431372549" />
<path d="M334,-254 L334,-1222 L174,-1170 L314,-694 L266,-502 L590,-966 Z" stroke-width="0" fill="#fae4f7" fill-opacity="0.48627450980392156" />
<path d="M318,-454 L438,-746 L766,-1078 L646,-354 L98,-802 L442,-602 Z" stroke-width="0" fill="#2a4d20" fill-opacity="0.20784313725490197" />
<path d="M306,-546 L790,-250 L198,-342 L150,-242 L738,-258 L730,-354 Z" stroke-width="0" fill="#9dc3be" fill-opacity="0.00392156862745098" />
<path d="M610,-450 L874,-846 L342,-514 L298,-534 L314,-1010 L878,-846 Z" stroke-width="0" fill="#001b00" fill-opacity="0.803921568627451" />
<path d="M286,-782 L842,-862 L102,-1054 L310,-154 L98,-402 L862,-1026 Z" stroke-width="0" fill="#38fe4f" fill-opacity="0.06274509803921569" />
<path d="M558,-530 L418,-670 L762,-922 L414,-1174 L238,-434 L518,-1126 Z" stroke-width="0" fill="#e5f4e6" fill-opacity="0.023529411764705882" />
<path d="M770,-1070 L770,-190 L458,-402 L854,-190 L214,-942 L346,-346 Z" stroke-width="0" fill="#0d1308" fill-opacity="0.5019607843137255" />
<path d="M494,-122 L530,-806 L270,-1070 L942,-686 L838,-566 L626,-178 Z" stroke-width="0" fill="#eae3ef" fill-opacity="0.17254901960784313" />
<path d="M90,-134 L942,-646 L786,-382 L542,-530 L282,-326 L942,-350 Z" stroke-width="0" fill="#e2d3f9" fill-opacity="0.01568627450980392" />
<path d="M182,-682 L442,-98 L342,-374 L366,-314 L90,-758 L834,-1134 Z" stroke-width="0" fill="#372907" fill-opacity="0.3137254901960784" />
<path d="M378,-138 L254,-1078 L526,-598 L214,-894 L506,-866 L162,-230 Z" stroke-width="0" fill="#a27bbd" fill-opacity="0.043137254901960784" />
<path d="M402,-1278 L214,-138 L190,-1082 L386,-1006 L346,-214 L494,-798 Z" stroke-width="0" fill="#ede6ef" fill-opacity="0.011764705882352941" />
<path d="M602,-150 L574,-94 L846,-702 L610,-866 L266,-742 L806,-246 Z" stroke-width="0" fill="#08023b" fill-opacity="0.03529411764705882" />
<path d="M962,-910 L558,-398 L810,-1090 L406,-294 L558,-330 L654,-1246 Z" stroke-width="0" fill="#629144" fill-opacity="0.41568627450980394" />
<path d="M834,-342 L750,-334 L362,-114 L802,-306 L94,-850 L582,-550 Z" stroke-width="0" fill="#e8deea" fill-opacity="0.3215686274509804" />
<path d="M702,-282 L302,-290 L386,-362 L454,-170 L734,-282 L286,-1082 Z" stroke-width="0" fill="#fef5e0" fill-opacity="0.10980392156862745" />
<path d="M574,-230 L186,-758 L550,-838 L830,-698 L798,-1182 L498,-974 Z" stroke-width="0" fill="#564c08" fill-opacity="0.06274509803921569" />
<path d="M442,-534 L946,-658 L886,-226 L454,-414 L858,-382 L770,-562 Z" stroke-width="0" fill="#3a0a36" fill-opacity="0.3176470588235294" />
<path d="M678,-1082 L562,-358 L454,-370 L150,-774 L334,-362 L274,-1034 Z" stroke-width="0" fill="#ecf2dc" fill-opacity="0.00784313725490196" />
<path d="M694,-262 L86,-894 L86,-1074 L530,-198 L586,-1114 L670,-1222 Z" stroke-width="0" fill="#f9d7f1" fill-opacity="0.07058823529411765" />
<path d="M442,-1150 L530,-582 L402,-406 L726,-430 L246,-598 L174,-1210 Z" stroke-width="0" fill="#f6fccc" fill-opacity="0.01568627450980392" />
<path d="M410,-502 L586,-634 L134,-154 L354,-174 L198,-1006 L534,-1026 Z" stroke-width="0" fill="#f5f5eb" fill-opacity="0.08235294117647059" />
<path d="M630,-778 L722,-426 L890,-850 L618,-570 L882,-762 L930,-558 Z" stroke-width="0" fill="#221120" fill-opacity="0.2235294117647059" />
<path d="M402,-1254 L658,-562 L526,-338 L338,-238 L110,-394 L398,-942 Z" stroke-width="0" fill="#6fd31c" fill-opacity="0.13725490196078433" />
<path d="M210,-638 L806,-746 L682,-154 L82,-578 L162,-738 L398,-82 Z" stroke-width="0" fill="#fdf1f8" fill-opacity="0.09803921568627451" />
<path d="M786,-1270 L258,-1002 L746,-962 L710,-762 L574,-754 L278,-470 Z" stroke-width="0" fill="#e5cddb" fill-opacity="0.03137254901960784" />
<path d="M750,-822 L594,-222 L934,-1154 L226,-706 L442,-94 L318,-1158 Z" stroke-width="0" fill="#ddd0e2" fill-opacity="0.10196078431372549" />
<path d="M482,-582 L190,-950 L414,-882 L150,-266 L682,-242 L194,-222 Z" stroke-width="0" fill="#c5dde9" fill-opacity="0.027450980392156862" />
<path d="M562,-498 L214,-170 L770,-1130 L454,-1054 L598,-138 L414,-298 Z" stroke-width="0" fill="#f5f3f7" fill-opacity="0.12549019607843137" />
<path d="M822,-626 L258,-746 L238,-330 L930,-710 L906,-442 L550,-694 Z" stroke-width="0" fill="#9ef1a5" fill-opacity="0.18823529411764706" />
<text x="448.0" y="0" font-size="70.0" fill="black" text-anchor="middle" transform="translate(0,17.5)">10 OF FIRE</text>
</svg>