<?xml version="1.0" encoding="UTF-8"?>
<svg xmlns="http://www.w3.org/2000/svg" xmlns:xlink="http://www.w3.org/1999/xlink"
     width="896" height="1496" viewBox="0 -1400 896 1496" style="font-size:70;font-family:Poor Richard, Times New Roman;stroke:black;stroke-width:1;fill:none">
<defs>
</defs>
<path d="M222,-218 L674,-930 L622,-1002 L602,-902 L546,-590 L622,-90 Z" stroke-width="0" fill="#000100" fill-opacity="0.9725490196078431" />
<path d="M370,-614 L766,-834 L106,-974 L242,-666 L118,-1298 L714,-186 Z" stroke-width="0" fill="#efe7ef" fill-opacity="0.011764705882352941" />
<path d="M490,-726 L554,-650 L382,-642 L302,-994 L626,-862 L750,-334 Z" stroke-width="0" fill="#b98118" fill-opacity="0.0" />
<path d="M622,-790 L342,-874 L714,-1290 L286,-1262 L162,-1290 L222,-154 Z" stroke-width="0" fill="#a6e0d7" fill-opacity="0.9215686274509803" />
<path d="M262,-1146 L114,-894 L490,-142 L106,-162 L298,-786 L626,-618 Z" stroke-width="0" fill="#401482" fill-opacity="0.050980392156862744" />
<path d="M290,-1306 L622,-550 L494,-486 L650,-758 L294,-470 L374,-570 Z" stroke-width="0" fill="#5652ad" fill-opacity="0.08235294117647059" />
<path d="M338,-1114 L194,-1214 L106,-626 L298,-750 L98,-566 L398,-162 Z" stroke-width="0" fill="#e0f9f8" fill-opacity="0.01568627450980392" />
<path d="M310,-590 L250,-346 L562,-726 L90,-130 L714,-398 L654,-494 Z" stroke-width="0" fill="#b9ced6" fill-opacity="0.5254901960784314" />
<path d="M482,-1142 L638,-786 L254,-102 L226,-466 L106,-1258 L678,-158 Z" stroke-width="0" fill="#eff1f8" fill-opacity="0.10196078431372549" />
<path d="M562,-446 L538,-594 L582,-674 L322,-562 L194,-522 L150,-134 Z" stroke-width="0" fill="#fdcdd5" fill-opacity="0.12941176470588237" />
<path d="M266,-570 L458,-238 L330,-878 L766,-382 L190,-942 L394,-1302 Z" stroke-width="0" fill="#83807f" fill-opacity="0.2627450980392157" />
<path d="M438,-1114 L718,-854 L790,-1014 L786,-738 L518,-202 L726,-954 Z" stroke-width="0" fill="#42cf25" fill-opacity="0.00392156862745098" />
<path d="M122,-1074 L278,-718 L378,-878 L506,-338 L554,-774 L614,-1210 Z" stroke-width="0" fill="#ede4f3" fill-opacity="0.6196078431372549" />
<path d="M582,-1010 L370,-810 L618,-490 L806,-806 L310,-302 L174,-850 Z" stroke-width="0" fill="#f5f1ff" fill-opacity="0.01568627450980392" />
<path d="M590,-162 L438,-1230 L150,-166 L326,-114 L662,-650 L774,-706 Z" stroke-width="0" fill="#e5f0e3" fill-opacity="0.5803921568627451" />
<path d="M302,-594 L182,-474 L426,-430 L106,-1114 L302,-286 L234,-182 Z" stroke-width="0" fill="#fefffb" fill-opacity="0.8235294117647058" />
<path d="M518,-94 L198,-774 L478,-366 L638,-1038 L462,-150 L282,-758 Z" stroke-width="0" fill="#01f300" fill-opacity="0.1568627450980392" />
<path d="M382,-574 L410,-650 L530,-894 L230,-330 L606,-518 L342,-242 Z" stroke-width="0" fill="#062f13" fill-opacity="0.9921568627450981" />
<path d="M102,-490 L738,-978 L374,-542 L630,-686 L310,-1010 L714,-1142 Z" stroke-width="0" fill="#063023" fill-opacity="0.12941176470588237" />
<path d="M414,-358 L770,-530 L150,-1218 L690,-966 L502,-946 L302,-1262 Z" stroke-width="0" fill="#e1b4c9" fill-opacity="0.09803921568627451" />
<path d="M682,-210 L154,-674 L234,-390 L446,-446 L486,-338 L758,-458 Z" stroke-width="0" fill="#f4e2dc" fill-opacity="0.0196078431372549" />
<path d="M774,-146 L302,-266 L418,-394 L742,-882 L366,-654 L770,-1026 Z" stroke-width="0" fill="#b2b4e6" fill-opacity="0.12941176470588237" />
<path d="M550,-1074 L374,-1058 L490,-422 L354,-906 L166,-794 L302,-186 Z" stroke-width="0" fill="#f12cde" fill-opacity="0.058823529411764705" />
<path d="M334,-630 L670,-978 L514,-170 L518,-498 L726,-574 L206,-626 Z" stroke-width="0" fill="#000001" fill-opacity="0.996078431372549" />
<path d="M646,-370 L262,-1130 L234,-786 L150,-842 L438,-262 L454,-1170 Z" stroke-width="0" fill="#f7f5d3" fill-opacity="0.1411764705882353" />
<path d="M94,-230 L322,-878 L674,-642 L686,-206 L402,-758 L662,-1270 Z" stroke-width="0" fill="#eafdff" fill-opacity="0.1450980392156863" />
<path d="M270,-234 L290,-706 L198,-474 L730,-1054 L574,-110 L186,-442 Z" stroke-width="0" fill="#f8faac" fill-opacity="0.0784313725490196" />
<path d="M242,-1198 L558,-458 L394,-418 L314,-294 L418,-502 L486,-338 Z" stroke-width="0" fill="#0b0003" fill-opacity="0.984313725490196" />
<path d="M90,-726 L238,-566 L258,-1094 L358,-706 L550,-570 L190,-842 Z" stroke-width="0" fill="#e7f5e8" fill-opacity="0.14901960784313725" />
<path d="M526,-278 L354,-690 L242,-782 L606,-102 L578,-1002 L454,-1018 Z" stroke-width="0" fill="#99f225" fill-opacity="0.8705882352941177" />
<path d="M638,-1290 L454,-1002 L150,-1234 L710,-118 L166,-1122 L530,-718 Z" stroke-width="0" fill="#fdf9d6" fill-opacity="0.984313725490196" />
<path d="M190,-1186 L350,-330 L386,-994 L290,-1054 L494,-418 L522,-154 Z" stroke-width="0" fill="#2ea901" fill-opacity="0.8784313725490196" />
<path d="M170,-126 L458,-1174 L642,-694 L786,-1202 L178,-1034 L790,-290 Z" stroke-width="0" fill="#283d7a" fill-opacity="0.00392156862745098" />
<path d="M306,-1098 L538,-754 L394,-702 L422,-658 L462,-306 L618,-626 Z" stroke-width="0" fill="#553f4b" fill-opacity="0.42745098039215684" />
<path d="M534,-830 L678,-850 L278,-522 L202,-1026 L130,-386 L742,-586 Z" stroke-width="0" fill="#dea3e8" fill-opacity="0.07450980392156863" />
<path d="M86,-750 L598,-990 L606,-386 L786,-254 L90,-1142 L446,-610 Z" stroke-width="0" fill="#fffff0" fill-opacity="0.12941176470588237" />
<path d="M434,-290 L514,-690 L306,-830 L298,-282 L202,-1074 L562,-1178 Z" stroke-width="0" fill="#0f0709" fill-opacity="0.9764705882352941" />
<path d="M750,-954 L422,-238 L98,-822 L726,-1274 L178,-386 L210,-586 Z" stroke-width="0" fill="#fbe8e7" fill-opacity="0.10980392156862745" />
<path d="M462,-594 L330,-386 L122,-734 L182,-682 L470,-518 L378,-826 Z" stroke-width="0" fill="#e8f4f0" fill-opacity="0.0196078431372549" />
<path d="M646,-502 L262,-774 L210,-994 L426,-162 L222,-1030 L702,-98 Z" stroke-width="0" fill="#09b000" fill-opacity="0.9254901960784314" />
<path d="M590,-158 L182,-374 L750,-198 L178,-650 L370,-214 L394,-782 Z" stroke-width="0" fill="#0d8900" fill-opacity="0.5568627450980392" />
<path d="M238,-654 L210,-1062 L214,-166 L566,-214 L590,-194 L370,-430 Z" stroke-width="0" fill="#98f870" fill-opacity="0.07058823529411765" />
<path d="M586,-1254 L126,-1218 L374,-306 L598,-282 L462,-1010 L282,-426 Z" stroke-width="0" fill="#f7f4ff" fill-opacity="0.8352941176470589" />
<path d="M618,-558 L166,-478 L614,-362 L522,-934 L674,-370 L730,-90 Z" stroke-width="0" fill="#bbcade" fill-opacity="0.5019607843137255" />
<path d="M314,-94 L326,-790 L446,-530 L334,-514 L738,-654 L478,-510 Z" stroke-width="0" fill="#acafbc" fill-opacity="0.3411764705882353" />
<path d="M686,-754 L598,-194 L670,-274 L374,-266 L438,-298 L170,-954 Z" stroke-width="0" fill="#1eb70c" fill-opacity="0.9882352941176471" />
<path d="M510,-442 L674,-298 L450,-422 L378,-670 L794,-246 L466,-390 Z" stroke-width="0" fill="#014b4e" fill-opacity="0.047058823529411764" />
<path d="M394,-318 L402,-902 L274,-1150 L694,-766 L90,-1130 L162,-730 Z" stroke-width="0" fill="#fceff5" fill-opacity="0.2235294117647059" />
<path d="M790,-990 L522,-958 L418,-1190 L562,-1114 L286,-262 L530,-214 Z" stroke-width="0" fill="#bae121" fill-opacity="0.01568627450980392" />
<path d="M254,-714 L246,-174 L202,-1226 L634,-778 L234,-322 L518,-390 Z" stroke-width="0" fill="#080d33" fill-opacity="0.9254901960784314" />
<path d="M522,-818 L714,-122 L158,-322 L438,-370 L234,-142 L410,-234 Z" stroke-width="0" fill="#076700" fill-opacity="0.4823529411764706" />
<path d="M386,-166 L390,-642 L146,-94 L258,-1190 L310,-254 L678,-766 Z" stroke-width="0" fill="#b9c3ef" fill-opacity="0.08235294117647059" />
<path d="M254,-574 L538,-402 L338,-682 L166,-994 L90,-742 L534,-150 Z" stroke-width="0" fill="#80737e" fill-opacity="0.00392156862745098" />
<path d="M474,-1038 L262,-526 L438,-446 L642,-802 L174,-186 L190,-238 Z" stroke-width="0" fill="#cf9fe2" fill-opacity="0.023529411764705882" />
<path d="M674,-562 L82,-742 L738,-1094 L102,-1146 L174,-870 L334,-446 Z" stroke-width="0" fill="#fffaf0" fill-opacity="0.8313725490196079" />
<path d="M290,-1070 L150,-118 L102,-866 L90,-1022 L690,-674 L142,-558 Z" stroke-width="0" fill="#dee2d5" fill-opacity="0.12156862745098039" />
<path d="M454,-726 L650,-554 L162,-846 L642,-1050 L754,-854 L726,-806 Z" stroke-width="0" fill="#e25ac3" fill-opacity="0.00784313725490196" />
<path d="M418,-562 L398,-394 L226,-262 L370,-146 L370,-462 L310,-902 Z" stroke-width="0" fill="#334fc7" fill-opacity="0.12549019607843137" />
<path d="M750,-1054 L86,-638 L170,-82 L190,-1054 L138,-1038 L402,-1242 Z" stroke-width="0" fill="#f9f8fa" fill-opacity="0.8627450980392157" />
<path d="M534,-874 L202,-122 L346,-1054 L134,-118 L406,-886 L574,-1162 Z" stroke-width="0" fill="#f8d9fe" fill-opacity="0.6784313725490196" />
<path d="M522,-458 L590,-922 L434,-870 L334,-630 L782,-818 L790,-826 Z" stroke-width="0" fill="#feebf4" fill-opacity="0.01568627450980392" />
<path d="M606,-1294 L602,-1118 L142,-518 L622,-1006 L798,-166 L234,-986 Z" stroke-width="0" fill="#efaae4" fill-opacity="0.10196078431372549" />
<path d="M258,-934 L146,-678 L386,-490 L486,-466 L454,-806 L418,-1274 Z" stroke-width="0" fill="#b0c989" fill-opacity="0.00392156862745098" />
<path d="M234,-730 L738,-242 L142,-858 L102,-634 L354,-194 L210,-478 Z" stroke-width="0" fill="#ededf1" fill-opacity="0.07058823529411765" />
<path d="M250,-642 L130,-1138 L694,-514 L638,-1210 L590,-186 L586,-562 Z" stroke-width="0" fill="#f0d3f8" fill-opacity="0.0" />
<path d="M386,-638 L354,-350 L686,-1222 L394,-614 L370,-246 L770,-846 Z" stroke-width="0" fill="#da939f" fill-opacity="0.023529411764705882" />
<path d="M258,-906 L338,-938 L550,-130 L286,-1218 L766,-134 L350,-1306 Z" stroke-width="0" fill="#7cf6b3" fill-opacity="0.00392156862745098" />
<path d="M166,-750 L618,-146 L442,-258 L418,-210 L718,-250 L478,-374 Z" stroke-width="0" fill="#33c500" fill-opacity="0.41568627450980394" />
<path d="M590,-550 L278,-134 L766,-474 L238,-998 L666,-850 L706,-870 Z" stroke-width="0" fill="#311315" fill-opacity="0.10588235294117647" />
<path d="M166,-362 L470,-878 L170,-938 L470,-322 L202,-1270 L502,-246 Z" stroke-width="0" fill="#fef8f7" fill-opacity="0.2980392156862745" />
<path d="M234,-106 L190,-374 L526,-222 L642,-162 L402,-462 L218,-278 Z" stroke-width="0" fill="#10df80" fill-opacity="0.0196078431372549" />
<path d="M294,-902 L718,-410 L494,-1066 L190,-574 L242,-814 L146,-822 Z" stroke-width="0" fill="#040000" fill-opacity="0.9019607843137255" />
<path d="M586,-734 L214,-450 L458,-770 L306,-142 L538,-250 L342,-482 Z" stroke-width="0" fill="#009200" fill-opacity="0.9372549019607843" />
<path d="M414,-666 L702,-610 L302,-738 L258,-162 L346,-394 L426,-1130 Z" stroke-width="0" fill="#1d1fee" fill-opacity="0.054901960784313725" />
<path d="M586,-854 L130,-350 L382,-950 L342,-902 L606,-82 L786,-410 Z" stroke-width="0" fill="#0bca00" fill-opacity="0.13333333333333333" />
<path d="M630,-174 L198,-426 L246,-598 L230,-626 L442,-1278 L790,-1034 Z" stroke-width="0" fill="#d8ff98" fill-opacity="0.03529411764705882" />
<path d="M474,-674 L806,-338 L218,-418 L94,-510 L190,-242 L610,-190 Z" stroke-width="0" fill="#f7e6bb" fill-opacity="0.21568627450980393" />
<path d="M758,-146 L778,-798 L306,-634 L398,-318 L630,-614 L166,-534 Z" stroke-width="0" fill="#d50685" fill-opacity="0.01568627450980392" />
<path d="M386,-734 L538,-818 L650,-882 L154,-630 L178,-426 L626,-194 Z" stroke-width="0" fill="#ccf582" fill-opacity="0.03137254901960784" />
<path d="M702,-746 L314,-1086 L638,-1082 L410,-822 L530,-190 L574,-1130 Z" stroke-width="0" fill="#fcdff1" fill-opacity="0.06274509803921569" />
<path d="M594,-662 L550,-1266 L302,-558 L750,-1046 L82,-446 L310,-778 Z" stroke-width="0" fill="#d0d9be" fill-opacity="0.27450980392156865" />
<path d="M634,-710 L294,-938 L770,-394 L178,-974 L358,-1190 L402,-962 Z" stroke-width="0" fill="#fdf5c7" fill-opacity="0.09019607843137255" />
<path d="M242,-1302 L286,-358 L154,-274 L270,-1034 L458,-298 L134,-258 Z" stroke-width="0" fill="#e2f5f7" fill-opacity="0.3803921568627451" />
<path d="M526,-686 L710,-834 L86,-866 L582,-202 L246,-486 L162,-706 Z" stroke-width="0" fill="#f9faf0" fill-opacity="0.07058823529411765" />
<path d="M190,-254 L274,-342 L354,-1222 L246,-206 L230,-106 L418,-602 Z" stroke-width="0" fill="#f3dff5" fill-opacity="0.8901960784313725" />
<path d="M274,-86 L714,-694 L630,-938 L282,-958 L266,-538 L274,-126 Z" stroke-width="0" fill="#000000" fill-opacity="0.9176470588235294" />
<path d="M450,-530 L238,-1086 L278,-1086 L786,-206 L346,-254 L194,-546 Z" stroke-width="0" fill="#08c500" fill-opacity="0.30980392156862746" />
<path d="M390,-370 L446,-538 L430,-142 L574,-1242 L442,-310 L250,-826 Z" stroke-width="0" fill="#00c700" fill-opacity="0.4117647058823529" />
<path d="M166,-682 L426,-502 L334,-126 L454,-658 L470,-162 L670,-162 Z" stroke-width="0" fill="#00a800" fill-opacity="0.7215686274509804" />
<path d="M238,-94 L178,-214 L406,-574 L146,-510 L126,-814 L462,-518 Z" stroke-width="0" fill="#e30f74" fill-opacity="0.011764705882352941" />
<path d="M762,-174 L238,-654 L478,-370 L110,-110 L458,-174 L598,-790 Z" stroke-width="0" fill="#03f600" fill-opacity="0.08627450980392157" />
<path d="M462,-134 L238,-266 L394,-1082 L330,-226 L134,-382 L582,-818 Z" stroke-width="0" fill="#46f200" fill-opacity="0.10588235294117647" />
<path d="M150,-518 L94,-1054 L730,-922 L222,-258 L342,-666 L150,-266 Z" stroke-width="0" fill="#7b8686" fill-opacity="0.00392156862745098" />
<path d="M666,-802 L278,-294 L154,-386 L178,-238 L402,-666 L702,-1106 Z" stroke-width="0" fill="#2a570f" fill-opacity="0.01568627450980392" />
<path d="M614,-1134 L274,-294 L350,-882 L250,-562 L806,-606 L386,-746 Z" stroke-width="0" fill="#000000" fill-opacity="0.5019607843137255" />
<path d="M534,-1254 L218,-986 L314,-522 L82,-294 L678,-830 L714,-190 Z" stroke-width="0" fill="#4b1d1d" fill-opacity="0.0196078431372549" />
<path d="M726,-962 L810,-1178 L346,-902 L494,-294 L154,-162 L730,-566 Z" stroke-width="0" fill="#75b914" fill-opacity="0.13333333333333333" />
<path d="M114,-794 L238,-358 L710,-358 L390,-546 L810,-850 L754,-174 Z" stroke-width="0" fill="#38af1f" fill-opacity="0.06274509803921569" />
<path d="M542,-694 L262,-550 L270,-494 L126,-434 L638,-1170 L674,-206 Z" stroke-width="0" fill="#730b09" fill-opacity="0.20392156862745098" />
<path d="M654,-526 L126,-410 L510,-694 L654,-798 L122,-1150 L518,-578 Z" stroke-width="0" fill="#afd62f" fill-opacity="0.3254901960784314" />
<text x="448.0" y="0" font-size="70.0" fill="black" text-anchor="middle" transform="translate(0,17.5)">3 OF FIRE</text>
</svg>