<?xml version="1.0" encoding="UTF-8"?>
<svg xmlns="http://www.w3.org/2000/svg" xmlns:xlink="http://www.w3.org/1999/xlink"
     width="275" height="375" viewBox="0 -350 275 375">
<defs>
</defs>
<rect x="15" y="-335" width="245" height="320" stroke="black" stroke-width="4" fill="white" />
<path d="M128,-226 L85,-138 L157,-56 L190,-309 L249,-224 L131,-181 Z" stroke-width="0" fill="#000000" fill-opacity="0.8941176470588236" />
<path d="M133,-120 L146,-109 L176,-166 L167,-123 L131,-179 L147,-228 Z" stroke-width="0" fill="#78da51" fill-opacity="0.043137254901960784" />
<path d="M190,-159 L108,-55 L183,-185 L188,-210 L28,-123 L203,-35 Z" stroke-width="0" fill="#174138" fill-opacity="0.9686274509803922" />
<path d="M238,-197 L107,-116 L57,-91 L81,-62 L142,-316 L78,-134 Z" stroke-width="0" fill="#000000" fill-opacity="0.8901960784313725" />
<path d="M44,-184 L30,-168 L226,-312 L212,-175 L183,-245 L201,-25 Z" stroke-width="0" fill="#000000" fill-opacity="0.9294117647058824" />
<path d="M197,-241 L178,-27 L156,-92 L52,-322 L156,-324 L35,-111 Z" stroke-width="0" fill="#000000" fill-opacity="0.8941176470588236" />
<path d="M140,-213 L181,-201 L117,-37 L43,-287 L172,-28 L233,-41 Z" stroke-width="0" fill="#000000" fill-opacity="0.6901960784313725" />
<path d="M75,-198 L161,-213 L45,-31 L130,-62 L56,-166 L85,-258 Z" stroke-width="0" fill="#000000" fill-opacity="0.9490196078431372" />
<path d="M162,-40 L156,-120 L47,-170 L54,-280 L244,-148 L168,-130 Z" stroke-width="0" fill="#000000" fill-opacity="0.8823529411764706" />
<path d="M66,-192 L90,-112 L139,-208 L127,-124 L78,-145 L134,-102 Z" stroke-width="0" fill="#16aebf" fill-opacity="0.0392156862745098" />
<path d="M64,-48 L93,-76 L218,-219 L34,-82 L113,-189 L75,-231 Z" stroke-width="0" fill="#77b411" fill-opacity="0.7098039215686275" />
<path d="M53,-187 L115,-264 L90,-202 L225,-300 L32,-241 L97,-297 Z" stroke-width="0" fill="#000000" fill-opacity="0.7411764705882353" />
<path d="M184,-302 L121,-213 L228,-80 L130,-279 L111,-129 L195,-129 Z" stroke-width="0" fill="#74435d" fill-opacity="0.6941176470588235" />
<path d="M140,-226 L241,-292 L181,-207 L129,-75 L65,-57 L142,-191 Z" stroke-width="0" fill="#000000" fill-opacity="0.9372549019607843" />
<path d="M45,-258 L154,-150 L165,-286 L222,-246 L112,-72 L133,-263 Z" stroke-width="0" fill="#5fdff0" fill-opacity="0.7529411764705882" />
<path d="M58,-86 L100,-213 L62,-249 L119,-111 L213,-49 L161,-221 Z" stroke-width="0" fill="#a0364f" fill-opacity="0.7411764705882353" />
<path d="M245,-150 L220,-116 L65,-324 L218,-236 L165,-222 L72,-164 Z" stroke-width="0" fill="#000000" fill-opacity="0.9450980392156862" />
<path d="M211,-292 L80,-190 L231,-321 L52,-225 L25,-75 L106,-251 Z" stroke-width="0" fill="#000000" fill-opacity="0.984313725490196" />
<path d="M111,-72 L61,-147 L205,-36 L111,-38 L206,-154 L50,-236 Z" stroke-width="0" fill="#000000" fill-opacity="0.8980392156862745" />
<path d="M227,-234 L231,-195 L219,-126 L134,-254 L129,-35 L208,-203 Z" stroke-width="0" fill="#13e0c9" fill-opacity="0.00784313725490196" />
<path d="M99,-125 L92,-132 L29,-27 L27,-101 L58,-189 L233,-320 Z" stroke-width="0" fill="#110000" fill-opacity="0.984313725490196" />
<path d="M161,-79 L215,-164 L56,-127 L180,-232 L88,-202 L156,-49 Z" stroke-width="0" fill="#c87d22" fill-opacity="0.30980392156862746" />
<path d="M67,-323 L114,-86 L91,-69 L175,-223 L111,-262 L76,-126 Z" stroke-width="0" fill="#000000" fill-opacity="0.8941176470588236" />
<path d="M194,-156 L77,-263 L56,-80 L75,-213 L43,-181 L155,-99 Z" stroke-width="0" fill="#c01c71" fill-opacity="0.7647058823529411" />
<path d="M86,-228 L75,-72 L39,-88 L118,-224 L87,-243 L141,-42 Z" stroke-width="0" fill="#590000" fill-opacity="0.3843137254901961" />
<path d="M98,-227 L87,-35 L219,-234 L146,-275 L158,-30 L66,-215 Z" stroke-width="0" fill="#000000" fill-opacity="0.9921568627450981" />
<path d="M233,-103 L48,-169 L149,-43 L59,-260 L104,-214 L37,-226 Z" stroke-width="0" fill="#052c43" fill-opacity="0.6392156862745098" />
<path d="M72,-286 L197,-132 L182,-264 L98,-200 L240,-45 L222,-38 Z" stroke-width="0" fill="#000000" fill-opacity="0.8274509803921568" />
<path d="M185,-170 L142,-127 L168,-111 L190,-70 L90,-69 L211,-269 Z" stroke-width="0" fill="#57ce11" fill-opacity="0.49411764705882355" />
<path d="M127,-252 L37,-115 L116,-61 L41,-49 L91,-210 L248,-247 Z" stroke-width="0" fill="#000000" fill-opacity="0.9921568627450981" />
<path d="M55,-98 L217,-181 L181,-164 L27,-130 L40,-319 L145,-72 Z" stroke-width="0" fill="#000000" fill-opacity="0.8431372549019608" />
<path d="M211,-103 L241,-303 L54,-85 L113,-29 L78,-234 L70,-271 Z" stroke-width="0" fill="#000000" fill-opacity="0.807843137254902" />
<path d="M35,-103 L25,-146 L105,-88 L106,-253 L102,-43 L217,-40 Z" stroke-width="0" fill="#000000" fill-opacity="0.7764705882352941" />
<path d="M238,-291 L51,-306 L108,-40 L117,-188 L28,-29 L93,-161 Z" stroke-width="0" fill="#000000" fill-opacity="0.8745098039215686" />
<path d="M62,-188 L143,-170 L128,-78 L107,-232 L81,-198 L168,-111 Z" stroke-width="0" fill="#bf2b59" fill-opacity="0.43529411764705883" />
<path d="M186,-59 L119,-201 L207,-112 L189,-243 L213,-46 L151,-111 Z" stroke-width="0" fill="#000000" fill-opacity="0.984313725490196" />
<path d="M216,-40 L107,-154 L105,-97 L39,-157 L196,-232 L186,-95 Z" stroke-width="0" fill="#000000" fill-opacity="0.9647058823529412" />
<path d="M123,-113 L241,-304 L125,-196 L201,-117 L34,-292 L163,-65 Z" stroke-width="0" fill="#000000" fill-opacity="0.9254901960784314" />
<path d="M115,-242 L230,-111 L185,-109 L151,-77 L105,-66 L49,-64 Z" stroke-width="0" fill="#b38ff4" fill-opacity="0.6862745098039216" />
<path d="M27,-150 L235,-215 L176,-321 L119,-217 L101,-186 L102,-224 Z" stroke-width="0" fill="#000000" fill-opacity="0.9411764705882353" />
<path d="M220,-183 L130,-28 L144,-239 L88,-126 L109,-152 L91,-135 Z" stroke-width="0" fill="#000000" fill-opacity="0.6431372549019608" />
<path d="M96,-190 L127,-245 L48,-111 L161,-203 L29,-257 L166,-236 Z" stroke-width="0" fill="#0b0000" fill-opacity="0.788235294117647" />
<path d="M59,-42 L218,-272 L41,-33 L191,-127 L237,-28 L180,-234 Z" stroke-width="0" fill="#000000" fill-opacity="0.9921568627450981" />
<path d="M148,-262 L44,-314 L62,-288 L94,-50 L245,-65 L70,-239 Z" stroke-width="0" fill="#000000" fill-opacity="0.8" />
<path d="M128,-41 L32,-277 L54,-145 L238,-231 L157,-134 L28,-213 Z" stroke-width="0" fill="#2d2e38" fill-opacity="0.611764705882353" />
<path d="M96,-287 L205,-217 L235,-107 L160,-118 L156,-37 L247,-265 Z" stroke-width="0" fill="#000000" fill-opacity="0.7568627450980392" />
<path d="M50,-138 L135,-163 L195,-256 L42,-165 L41,-181 L189,-135 Z" stroke-width="0" fill="#f111df" fill-opacity="0.8352941176470589" />
<path d="M219,-243 L87,-215 L63,-263 L85,-50 L72,-245 L127,-25 Z" stroke-width="0" fill="#000000" fill-opacity="0.8549019607843137" />
<path d="M204,-145 L59,-69 L183,-170 L118,-105 L42,-116 L165,-236 Z" stroke-width="0" fill="#b3003f" fill-opacity="0.5294117647058824" />
<path d="M143,-132 L133,-225 L78,-172 L237,-142 L200,-265 L39,-271 Z" stroke-width="0" fill="#dd6099" fill-opacity="0.12156862745098039" />
<path d="M82,-265 L112,-25 L91,-292 L56,-31 L176,-188 L90,-121 Z" stroke-width="0" fill="#000000" fill-opacity="0.792156862745098" />
<path d="M128,-308 L182,-156 L107,-63 L85,-89 L249,-56 L221,-299 Z" stroke-width="0" fill="#000000" fill-opacity="0.7490196078431373" />
<path d="M156,-102 L139,-64 L114,-245 L229,-89 L68,-269 L43,-203 Z" stroke-width="0" fill="#004980" fill-opacity="0.050980392156862744" />
<path d="M187,-142 L51,-170 L58,-263 L37,-224 L109,-193 L64,-181 Z" stroke-width="0" fill="#5741a1" fill-opacity="0.4745098039215686" />
<path d="M28,-191 L249,-40 L74,-189 L226,-133 L169,-268 L213,-308 Z" stroke-width="0" fill="#000009" fill-opacity="0.9921568627450981" />
<path d="M55,-263 L33,-50 L87,-292 L129,-267 L65,-295 L220,-175 Z" stroke-width="0" fill="#1c0000" fill-opacity="0.8" />
<path d="M56,-317 L232,-60 L183,-284 L58,-299 L63,-249 L217,-200 Z" stroke-width="0" fill="#000000" fill-opacity="0.984313725490196" />
<path d="M233,-50 L237,-75 L210,-112 L171,-186 L111,-123 L64,-222 Z" stroke-width="0" fill="#000000" fill-opacity="0.9803921568627451" />
<path d="M233,-192 L62,-119 L61,-133 L236,-83 L35,-292 L163,-292 Z" stroke-width="0" fill="#000000" fill-opacity="0.9372549019607843" />
<path d="M89,-150 L212,-153 L65,-79 L239,-280 L129,-112 L112,-113 Z" stroke-width="0" fill="#595c86" fill-opacity="0.9882352941176471" />
<path d="M196,-218 L194,-238 L167,-292 L30,-44 L182,-297 L49,-295 Z" stroke-width="0" fill="#000000" fill-opacity="0.7725490196078432" />
<path d="M81,-207 L52,-228 L58,-195 L197,-79 L28,-176 L111,-227 Z" stroke-width="0" fill="#f987d1" fill-opacity="0.4823529411764706" />
<path d="M102,-103 L95,-268 L63,-100 L187,-181 L232,-100 L187,-30 Z" stroke-width="0" fill="#000000" fill-opacity="0.8980392156862745" />
<path d="M179,-203 L195,-150 L202,-128 L218,-32 L25,-204 L49,-28 Z" stroke-width="0" fill="#000200" fill-opacity="0.8156862745098039" />
<path d="M235,-303 L160,-253 L125,-209 L74,-160 L79,-175 L233,-195 Z" stroke-width="0" fill="#000000" fill-opacity="0.7607843137254902" />
<path d="M93,-65 L96,-106 L116,-39 L92,-108 L146,-51 L102,-115 Z" stroke-width="0" fill="#000000" fill-opacity="0.6941176470588235" />
<path d="M203,-78 L185,-149 L25,-291 L84,-62 L113,-103 L131,-287 Z" stroke-width="0" fill="#5f0891" fill-opacity="0.803921568627451" />
<path d="M217,-189 L34,-192 L213,-193 L47,-84 L174,-109 L71,-86 Z" stroke-width="0" fill="#90033d" fill-opacity="0.2235294117647059" />
<path d="M153,-43 L210,-183 L32,-255 L141,-139 L179,-76 L61,-55 Z" stroke-width="0" fill="#000000" fill-opacity="0.8156862745098039" />
<path d="M116,-103 L204,-140 L188,-88 L153,-123 L67,-31 L25,-29 Z" stroke-width="0" fill="#000000" fill-opacity="0.5843137254901961" />
<path d="M224,-206 L179,-298 L90,-308 L30,-179 L58,-80 L167,-28 Z" stroke-width="0" fill="#000000" fill-opacity="0.592156862745098" />
<path d="M61,-82 L29,-48 L41,-153 L28,-174 L47,-224 L150,-293 Z" stroke-width="0" fill="#778583" fill-opacity="0.5019607843137255" />
<path d="M239,-299 L167,-211 L100,-299 L63,-306 L135,-312 L100,-114 Z" stroke-width="0" fill="#000000" fill-opacity="0.9411764705882353" />
<path d="M169,-216 L241,-106 L197,-37 L50,-267 L155,-272 L28,-162 Z" stroke-width="0" fill="#000000" fill-opacity="0.9921568627450981" />
<path d="M125,-72 L102,-59 L81,-274 L73,-278 L178,-56 L235,-231 Z" stroke-width="0" fill="#000000" fill-opacity="0.20784313725490197" />
<path d="M70,-157 L212,-232 L135,-169 L39,-162 L44,-206 L132,-248 Z" stroke-width="0" fill="#6f8942" fill-opacity="0.5647058823529412" />
<path d="M131,-62 L81,-112 L53,-61 L133,-120 L125,-45 L222,-177 Z" stroke-width="0" fill="#42e2bd" fill-opacity="0.16470588235294117" />
<path d="M128,-131 L159,-228 L70,-143 L160,-130 L188,-127 L107,-284 Z" stroke-width="0" fill="#000100" fill-opacity="0.08235294117647059" />
<path d="M58,-220 L142,-242 L65,-120 L64,-30 L97,-78 L198,-174 Z" stroke-width="0" fill="#372a34" fill-opacity="0.47058823529411764" />
<path d="M211,-60 L103,-62 L70,-258 L140,-98 L61,-95 L162,-99 Z" stroke-width="0" fill="#000000" fill-opacity="0.23529411764705882" />
<path d="M199,-71 L61,-282 L207,-261 L162,-184 L74,-33 L121,-136 Z" stroke-width="0" fill="#001900" fill-opacity="0.8862745098039215" />
<path d="M103,-220 L159,-59 L82,-40 L86,-147 L203,-249 L71,-158 Z" stroke-width="0" fill="#000000" fill-opacity="0.8156862745098039" />
<path d="M161,-190 L27,-52 L216,-142 L144,-63 L241,-221 L158,-109 Z" stroke-width="0" fill="#4c573e" fill-opacity="0.5764705882352941" />
<path d="M33,-240 L217,-269 L231,-132 L91,-186 L121,-290 L78,-119 Z" stroke-width="0" fill="#000000" fill-opacity="0.29411764705882354" />
<path d="M173,-122 L45,-304 L171,-96 L196,-139 L84,-137 L206,-228 Z" stroke-width="0" fill="#000100" fill-opacity="0.9450980392156862" />
<path d="M201,-134 L199,-171 L47,-288 L159,-159 L27,-267 L102,-157 Z" stroke-width="0" fill="#000000" fill-opacity="0.7647058823529411" />
<path d="M202,-148 L54,-274 L134,-125 L25,-42 L184,-169 L182,-210 Z" stroke-width="0" fill="#000000" fill-opacity="0.3764705882352941" />
<path d="M212,-90 L55,-109 L210,-105 L34,-136 L45,-152 L90,-45 Z" stroke-width="0" fill="#e0cefe" fill-opacity="0.01568627450980392" />
<path d="M30,-266 L151,-36 L28,-194 L217,-110 L33,-117 L179,-210 Z" stroke-width="0" fill="#1b0425" fill-opacity="0.06666666666666667" />
<path d="M120,-241 L213,-300 L46,-130 L59,-142 L248,-115 L114,-60 Z" stroke-width="0" fill="#000000" fill-opacity="0.6431372549019608" />
<path d="M165,-108 L136,-173 L186,-177 L40,-207 L25,-139 L179,-147 Z" stroke-width="0" fill="#685c47" fill-opacity="0.5019607843137255" />
<path d="M209,-80 L36,-140 L66,-238 L186,-137 L42,-262 L218,-292 Z" stroke-width="0" fill="#000000" fill-opacity="0.3568627450980392" />
<path d="M74,-132 L166,-55 L73,-89 L95,-114 L200,-316 L64,-171 Z" stroke-width="0" fill="#dc6f86" fill-opacity="0.2235294117647059" />
<path d="M51,-25 L115,-131 L35,-169 L194,-57 L58,-212 L74,-90 Z" stroke-width="0" fill="#7f3a65" fill-opacity="0.1803921568627451" />
<path d="M180,-118 L171,-302 L27,-176 L188,-44 L100,-153 L152,-203 Z" stroke-width="0" fill="#000030" fill-opacity="0.3568627450980392" />
<path d="M217,-313 L187,-265 L41,-279 L26,-297 L64,-137 L184,-312 Z" stroke-width="0" fill="#0d250e" fill-opacity="0.8980392156862745" />
<path d="M105,-317 L214,-215 L120,-148 L79,-209 L177,-242 L99,-267 Z" stroke-width="0" fill="#000000" fill-opacity="0.9725490196078431" />
<path d="M47,-311 L47,-198 L192,-204 L45,-180 L202,-155 L104,-298 Z" stroke-width="0" fill="#771d65" fill-opacity="0.38823529411764707" />
<path d="M149,-272 L28,-287 L56,-129 L248,-41 L119,-172 L120,-165 Z" stroke-width="0" fill="#64f465" fill-opacity="0.1450980392156863" />
<path d="M171,-116 L135,-31 L84,-210 L216,-94 L68,-82 L78,-100 Z" stroke-width="0" fill="#000000" fill-opacity="0.29411764705882354" />
<text x="137.5" y="12.5" font-size="20.0" fill="black" text-anchor="middle" transform="translate(0,5.0)">8 OF FIRE</text>
</svg>