<?xml version="1.0" encoding="UTF-8"?>
<svg xmlns="http://www.w3.org/2000/svg" xmlns:xlink="http://www.w3.org/1999/xlink"
     width="896" height="1496" viewBox="0 -1400 896 1496" style="font-size:70;font-family:Poor Richard, Times New Roman;stroke:black;stroke-width:1;fill:none">
<defs>
</defs>
<path d="M290,-374 L406,-118 L718,-534 L154,-166 L150,-1050 L866,-446 Z" stroke-width="0" fill="#062064" fill-opacity="0.984313725490196" />
<path d="M214,-1058 L130,-506 L138,-1246 L222,-398 L410,-562 L474,-898 Z" stroke-width="0" fill="#f6cfdb" fill-opacity="0.047058823529411764" />
<path d="M794,-338 L254,-490 L414,-330 L386,-198 L526,-674 L702,-614 Z" stroke-width="0" fill="#a12ae7" fill-opacity="0.41568627450980394" />
<path d="M510,-594 L750,-198 L98,-786 L786,-1066 L114,-746 L278,-266 Z" stroke-width="0" fill="#70241d" fill-opacity="0.8392156862745098" />
<path d="M370,-218 L694,-834 L446,-122 L382,-206 L658,-542 L910,-430 Z" stroke-width="0" fill="#4dc847" fill-opacity="0.0" />
<path d="M114,-282 L154,-1022 L274,-598 L534,-754 L154,-818 L574,-406 Z" stroke-width="0" fill="#073b4c" fill-opacity="0.8509803921568627" />
<path d="M714,-798 L678,-1066 L322,-174 L358,-170 L534,-986 L858,-866 Z" stroke-width="0" fill="#119e4c" fill-opacity="0.3411764705882353" />
<path d="M910,-178 L898,-482 L930,-626 L770,-614 L354,-366 L490,-730 Z" stroke-width="0" fill="#1b0a22" fill-opacity="0.5019607843137255" />
<path d="M366,-298 L98,-1086 L250,-1066 L510,-190 L578,-698 L118,-1010 Z" stroke-width="0" fill="#f8f1d9" fill-opacity="0.09019607843137255" />
<path d="M318,-318 L294,-418 L634,-138 L258,-754 L874,-566 L638,-334 Z" stroke-width="0" fill="#a228ed" fill-opacity="0.00392156862745098" />
<path d="M782,-1242 L186,-290 L742,-142 L402,-750 L474,-102 L318,-362 Z" stroke-width="0" fill="#d8ab38" fill-opacity="0.08235294117647059" />
<path d="M486,-110 L134,-222 L162,-1062 L234,-626 L978,-590 L598,-162 Z" stroke-width="0" fill="#6f4b4b" fill-opacity="0.8588235294117647" />
<path d="M602,-762 L234,-546 L386,-862 L150,-446 L954,-226 L614,-670 Z" stroke-width="0" fill="#3e1918" fill-opacity="0.21568627450980393" />
<path d="M166,-986 L914,-718 L266,-142 L970,-714 L522,-274 L354,-102 Z" stroke-width="0" fill="#020013" fill-opacity="0.44313725490196076" />
<path d="M838,-1026 L350,-982 L346,-90 L502,-882 L366,-494 L722,-702 Z" stroke-width="0" fill="#2a0304" fill-opacity="0.6274509803921569" />
<path d="M662,-114 L682,-1062 L186,-742 L538,-318 L250,-166 L386,-226 Z" stroke-width="0" fill="#ecfd8e" fill-opacity="0.011764705882352941" />
<path d="M478,-166 L494,-638 L558,-1190 L306,-882 L210,-594 L298,-1022 Z" stroke-width="0" fill="#03bef0" fill-opacity="0.4" />
<path d="M826,-486 L322,-1142 L606,-1150 L894,-1098 L458,-474 L330,-870 Z" stroke-width="0" fill="#86a8a0" fill-opacity="0.027450980392156862" />
<path d="M410,-1010 L222,-274 L650,-94 L374,-1102 L650,-918 L502,-350 Z" stroke-width="0" fill="#ecfdf6" fill-opacity="0.5686274509803921" />
<path d="M466,-282 L226,-874 L374,-466 L530,-1006 L938,-910 L450,-382 Z" stroke-width="0" fill="#111615" fill-opacity="0.7725490196078432" />
<path d="M210,-362 L666,-382 L878,-734 L150,-202 L238,-638 L762,-434 Z" stroke-width="0" fill="#13372b" fill-opacity="0.8588235294117647" />
<path d="M118,-494 L290,-686 L338,-490 L230,-262 L226,-446 L490,-610 Z" stroke-width="0" fill="#02091a" fill-opacity="0.8117647058823529" />
<path d="M386,-1166 L146,-466 L774,-338 L654,-278 L818,-818 L394,-574 Z" stroke-width="0" fill="#030c08" fill-opacity="0.9803921568627451" />
<path d="M278,-258 L286,-554 L114,-362 L306,-1274 L218,-986 L222,-506 Z" stroke-width="0" fill="#845c40" fill-opacity="0.9568627450980393" />
<path d="M314,-854 L686,-562 L630,-946 L814,-494 L942,-798 L954,-1226 Z" stroke-width="0" fill="#000002" fill-opacity="0.7058823529411765" />
<path d="M382,-834 L350,-1126 L618,-1190 L106,-1146 L518,-1162 L134,-1162 Z" stroke-width="0" fill="#000c0f" fill-opacity="0.5764705882352941" />
<path d="M246,-914 L154,-550 L714,-466 L646,-1086 L98,-658 L890,-174 Z" stroke-width="0" fill="#00040d" fill-opacity="0.9215686274509803" />
<path d="M882,-886 L462,-1258 L762,-542 L674,-822 L270,-842 L446,-926 Z" stroke-width="0" fill="#000906" fill-opacity="0.9254901960784314" />
<path d="M698,-422 L326,-350 L430,-678 L266,-778 L678,-994 L554,-1026 Z" stroke-width="0" fill="#4a1a40" fill-opacity="0.984313725490196" />
<path d="M734,-606 L226,-934 L386,-634 L270,-654 L442,-242 L90,-290 Z" stroke-width="0" fill="#1b243e" fill-opacity="0.9764705882352941" />
<path d="M738,-738 L722,-790 L130,-206 L266,-158 L886,-766 L242,-838 Z" stroke-width="0" fill="#1fb586" fill-opacity="0.054901960784313725" />
<path d="M694,-438 L890,-958 L814,-1154 L642,-1106 L198,-146 L358,-1138 Z" stroke-width="0" fill="#0a031d" fill-opacity="0.3411764705882353" />
<path d="M574,-410 L126,-698 L782,-374 L842,-438 L230,-270 L614,-442 Z" stroke-width="0" fill="#fb7182" fill-opacity="0.7098039215686275" />
<path d="M134,-102 L506,-1258 L910,-518 L774,-850 L438,-1190 L210,-954 Z" stroke-width="0" fill="#01232d" fill-opacity="0.996078431372549" />
<path d="M534,-1098 L354,-1226 L734,-446 L450,-606 L926,-910 L694,-446 Z" stroke-width="0" fill="#191b26" fill-opacity="0.0" />
<path d="M554,-1138 L534,-378 L178,-722 L278,-566 L870,-522 L658,-538 Z" stroke-width="0" fill="#100b24" fill-opacity="0.3686274509803922" />
<path d="M122,-354 L274,-930 L330,-970 L478,-714 L906,-1086 L818,-678 Z" stroke-width="0" fill="#0f3d4d" fill-opacity="0.0196078431372549" />
<path d="M198,-450 L234,-678 L674,-782 L374,-906 L262,-634 L422,-770 Z" stroke-width="0" fill="#fdc4f7" fill-opacity="0.23137254901960785" />
<path d="M930,-410 L470,-986 L558,-1186 L498,-1006 L254,-738 L138,-670 Z" stroke-width="0" fill="#fdf9e4" fill-opacity="0.984313725490196" />
<path d="M114,-1210 L978,-1118 L422,-162 L690,-1270 L246,-606 L854,-906 Z" stroke-width="0" fill="#421015" fill-opacity="0.2980392156862745" />
<path d="M310,-522 L102,-1182 L550,-778 L846,-602 L214,-490 L226,-338 Z" stroke-width="0" fill="#0c0000" fill-opacity="0.6941176470588235" />
<path d="M682,-854 L238,-1118 L234,-370 L322,-94 L94,-358 L706,-1174 Z" stroke-width="0" fill="#072720" fill-opacity="0.7411764705882353" />
<path d="M118,-738 L818,-882 L178,-1002 L458,-1162 L342,-894 L626,-838 Z" stroke-width="0" fill="#02192d" fill-opacity="0.9647058823529412" />
<path d="M130,-402 L922,-542 L466,-854 L714,-818 L598,-986 L238,-154 Z" stroke-width="0" fill="#d7e2e9" fill-opacity="0.9215686274509803" />
<path d="M950,-222 L394,-1142 L210,-594 L158,-1242 L974,-1262 L514,-966 Z" stroke-width="0" fill="#0b1303" fill-opacity="0.8627450980392157" />
<path d="M894,-370 L154,-426 L626,-250 L430,-618 L330,-1046 L278,-882 Z" stroke-width="0" fill="#5992fd" fill-opacity="0.35294117647058826" />
<path d="M906,-1058 L958,-814 L802,-1150 L746,-798 L942,-970 L82,-754 Z" stroke-width="0" fill="#1e2a0e" fill-opacity="0.28627450980392155" />
<path d="M518,-86 L278,-394 L418,-778 L234,-1146 L822,-94 L186,-270 Z" stroke-width="0" fill="#1e0003" fill-opacity="0.8784313725490196" />
<path d="M242,-842 L454,-190 L778,-330 L910,-818 L154,-226 L102,-586 Z" stroke-width="0" fill="#6f6676" fill-opacity="0.9921568627450981" />
<path d="M914,-194 L746,-194 L202,-382 L662,-1158 L870,-526 L678,-758 Z" stroke-width="0" fill="#1c2027" fill-opacity="0.996078431372549" />
<path d="M534,-850 L106,-662 L570,-994 L738,-1086 L378,-454 L550,-806 Z" stroke-width="0" fill="#d9a9c2" fill-opacity="0.7843137254901961" />
<path d="M398,-94 L566,-570 L266,-394 L326,-458 L86,-434 L846,-1066 Z" stroke-width="0" fill="#6d5757" fill-opacity="0.7372549019607844" />
<path d="M634,-1274 L146,-1046 L942,-1234 L470,-654 L810,-842 L726,-854 Z" stroke-width="0" fill="#3c4a47" fill-opacity="0.9254901960784314" />
<path d="M718,-674 L846,-330 L334,-890 L602,-798 L310,-222 L178,-922 Z" stroke-width="0" fill="#faf6f4" fill-opacity="0.9568627450980393" />
<path d="M602,-742 L766,-898 L374,-730 L290,-110 L126,-834 L198,-1274 Z" stroke-width="0" fill="#a8a83c" fill-opacity="0.14901960784313725" />
<path d="M222,-110 L594,-206 L242,-782 L602,-650 L402,-202 L826,-238 Z" stroke-width="0" fill="#10110e" fill-opacity="0.4823529411764706" />
<path d="M854,-894 L642,-90 L346,-174 L862,-494 L490,-414 L878,-870 Z" stroke-width="0" fill="#f6e790" fill-opacity="0.050980392156862744" />
<path d="M234,-390 L454,-218 L382,-470 L606,-410 L526,-870 L562,-1114 Z" stroke-width="0" fill="#af7bd8" fill-opacity="0.9254901960784314" />
<path d="M122,-206 L374,-146 L710,-1122 L282,-730 L306,-626 L918,-1234 Z" stroke-width="0" fill="#5a9489" fill-opacity="0.5058823529411764" />
<path d="M574,-634 L502,-362 L622,-806 L362,-154 L314,-1258 L314,-298 Z" stroke-width="0" fill="#e8f3a7" fill-opacity="0.09803921568627451" />
<path d="M126,-702 L662,-146 L94,-106 L298,-414 L310,-890 L342,-1022 Z" stroke-width="0" fill="#ad7968" fill-opacity="0.7294117647058823" />
<path d="M94,-614 L718,-202 L846,-90 L230,-950 L598,-770 L414,-82 Z" stroke-width="0" fill="#7e4348" fill-opacity="0.9803921568627451" />
<path d="M470,-354 L106,-690 L894,-1022 L830,-634 L294,-1098 L214,-402 Z" stroke-width="0" fill="#1e2e5b" fill-opacity="0.027450980392156862" />
<path d="M214,-242 L786,-210 L102,-1074 L782,-1238 L414,-786 L422,-898 Z" stroke-width="0" fill="#f2f4cb" fill-opacity="0.5647058823529412" />
<path d="M814,-958 L718,-850 L86,-1018 L658,-582 L890,-286 L90,-630 Z" stroke-width="0" fill="#f5fefe" fill-opacity="0.984313725490196" />
<path d="M590,-586 L474,-190 L150,-662 L558,-614 L786,-90 L498,-126 Z" stroke-width="0" fill="#f8efe5" fill-opacity="0.8313725490196079" />
<path d="M194,-866 L118,-126 L830,-994 L414,-442 L786,-218 L374,-174 Z" stroke-width="0" fill="#202749" fill-opacity="0.9294117647058824" />
<path d="M658,-290 L82,-714 L494,-326 L110,-1166 L310,-306 L778,-950 Z" stroke-width="0" fill="#fbfbf4" fill-opacity="0.9803921568627451" />
<path d="M346,-786 L254,-602 L370,-1178 L806,-498 L750,-666 L634,-366 Z" stroke-width="0" fill="#21180f" fill-opacity="0.17254901960784313" />
<path d="M498,-490 L650,-958 L578,-922 L210,-530 L474,-182 L274,-466 Z" stroke-width="0" fill="#020100" fill-opacity="0.9725490196078431" />
<path d="M234,-1198 L838,-1226 L590,-294 L474,-262 L774,-722 L94,-1150 Z" stroke-width="0" fill="#211938" fill-opacity="0.6" />
<path d="M826,-942 L382,-830 L678,-366 L438,-562 L358,-1210 L538,-326 Z" stroke-width="0" fill="#12050f" fill-opacity="0.9411764705882353" />
<path d="M294,-1110 L774,-546 L738,-1150 L874,-342 L922,-258 L894,-158 Z" stroke-width="0" fill="#0e110b" fill-opacity="0.4627450980392157" />
<path d="M890,-1030 L710,-310 L414,-394 L642,-946 L882,-598 L86,-218 Z" stroke-width="0" fill="#7c57c0" fill-opacity="0.0" />
<path d="M154,-990 L450,-98 L774,-278 L462,-186 L838,-330 L82,-558 Z" stroke-width="0" fill="#f8f5e3" fill-opacity="0.9450980392156862" />
<path d="M254,-146 L434,-714 L474,-1042 L214,-838 L674,-494 L126,-1090 Z" stroke-width="0" fill="#fef4f5" fill-opacity="0.23529411764705882" />
<path d="M510,-298 L550,-370 L306,-938 L186,-1254 L310,-814 L946,-1082 Z" stroke-width="0" fill="#340823" fill-opacity="0.12156862745098039" />
<path d="M790,-706 L462,-394 L570,-986 L226,-278 L538,-1094 L138,-90 Z" stroke-width="0" fill="#361627" fill-opacity="0.4627450980392157" />
<path d="M886,-1110 L558,-186 L866,-1230 L238,-266 L126,-658 L206,-1074 Z" stroke-width="0" fill="#c4b6bc" fill-opacity="0.00392156862745098" />
<path d="M906,-1062 L318,-662 L482,-134 L554,-694 L118,-310 L482,-366 Z" stroke-width="0" fill="#000435" fill-opacity="0.0196078431372549" />
<path d="M946,-138 L778,-530 L694,-346 L846,-738 L402,-714 L978,-538 Z" stroke-width="0" fill="#00080b" fill-opacity="0.8823529411764706" />
<path d="M370,-114 L654,-374 L746,-734 L542,-434 L846,-370 L230,-498 Z" stroke-width="0" fill="#fefed4" fill-opacity="0.5725490196078431" />
<path d="M302,-910 L650,-1038 L922,-346 L690,-874 L234,-410 L806,-922 Z" stroke-width="0" fill="#0b2b37" fill-opacity="0.5803921568627451" />
<path d="M646,-606 L418,-866 L898,-438 L406,-622 L734,-326 L478,-162 Z" stroke-width="0" fill="#bbecdb" fill-opacity="0.01568627450980392" />
<path d="M154,-302 L914,-98 L586,-522 L254,-902 L690,-1226 L98,-942 Z" stroke-width="0" fill="#eef4f1" fill-opacity="0.35294117647058826" />
<path d="M490,-1182 L518,-926 L594,-1162 L254,-554 L286,-194 L506,-510 Z" stroke-width="0" fill="#071e10" fill-opacity="0.5843137254901961" />
<path d="M402,-866 L490,-1270 L346,-598 L178,-830 L146,-134 L798,-206 Z" stroke-width="0" fill="#edf1d7" fill-opacity="0.09411764705882353" />
<path d="M702,-990 L582,-302 L254,-122 L414,-1254 L942,-102 L414,-890 Z" stroke-width="0" fill="#501523" fill-opacity="0.27450980392156865" />
<path d="M122,-186 L634,-1154 L578,-702 L834,-954 L742,-226 L262,-250 Z" stroke-width="0" fill="#c1e476" fill-opacity="0.0784313725490196" />
<path d="M418,-602 L150,-538 L86,-170 L454,-610 L826,-334 L554,-218 Z" stroke-width="0" fill="#58e606" fill-opacity="0.03137254901960784" />
<path d="M434,-726 L206,-194 L606,-442 L106,-334 L726,-642 L274,-330 Z" stroke-width="0" fill="#06202f" fill-opacity="0.4588235294117647" />
<path d="M922,-858 L274,-1102 L870,-682 L442,-294 L162,-326 L890,-686 Z" stroke-width="0" fill="#030722" fill-opacity="0.44313725490196076" />
<path d="M618,-406 L654,-162 L250,-86 L178,-106 L750,-262 L170,-638 Z" stroke-width="0" fill="#e4fbfc" fill-opacity="0.023529411764705882" />
<path d="M250,-114 L386,-246 L270,-262 L914,-450 L554,-210 L526,-622 Z" stroke-width="0" fill="#cf7090" fill-opacity="0.03529411764705882" />
<path d="M690,-562 L410,-422 L878,-382 L146,-334 L146,-174 L250,-1134 Z" stroke-width="0" fill="#010011" fill-opacity="0.00784313725490196" />
<path d="M690,-350 L842,-390 L898,-506 L782,-1202 L266,-1050 L782,-1246 Z" stroke-width="0" fill="#d2eaed" fill-opacity="0.592156862745098" />
<path d="M930,-686 L342,-814 L674,-734 L630,-994 L654,-994 L586,-910 Z" stroke-width="0" fill="#334a4c" fill-opacity="0.6588235294117647" />
<path d="M450,-842 L766,-998 L142,-390 L214,-98 L754,-950 L950,-774 Z" stroke-width="0" fill="#3e2133" fill-opacity="0.5019607843137255" />
<path d="M254,-1046 L570,-1222 L742,-302 L618,-830 L842,-470 L482,-106 Z" stroke-width="0" fill="#203b73" fill-opacity="0.03137254901960784" />
<path d="M222,-1154 L274,-878 L798,-934 L670,-374 L538,-174 L654,-702 Z" stroke-width="0" fill="#f9a4ae" fill-opacity="0.2549019607843137" />
<text x="448.0" y="0" font-size="70.0" fill="black" text-anchor="middle" transform="translate(0,17.5)">KING OF FIRE</text>
</svg>