<?xml version="1.0" encoding="UTF-8"?>
<svg xmlns="http://www.w3.org/2000/svg" xmlns:xlink="http://www.w3.org/1999/xlink"
     width="896" height="1496" viewBox="0 -1400 896 1496" style="font-size:70;font-family:Poor Richard, Times New Roman;stroke:black;stroke-width:1;fill:none">
<defs>
</defs>
<path d="M538,-1206 L554,-474 L186,-866 L326,-362 L346,-474 L194,-738 Z" stroke-width="0" fill="#bca80f" fill-opacity="0.788235294117647" />
<path d="M730,-358 L590,-766 L374,-1042 L394,-274 L654,-422 L518,-466 Z" stroke-width="0" fill="#d4af10" fill-opacity="0.1607843137254902" />
<path d="M382,-1178 L194,-82 L682,-398 L454,-450 L854,-86 L886,-314 Z" stroke-width="0" fill="#080034" fill-opacity="0.7411764705882353" />
<path d="M266,-1086 L654,-338 L434,-746 L674,-678 L866,-250 L310,-994 Z" stroke-width="0" fill="#cc64e7" fill-opacity="0.8196078431372549" />
<path d="M406,-914 L494,-1034 L342,-818 L778,-994 L414,-1026 L278,-670 Z" stroke-width="0" fill="#05bd59" fill-opacity="0.28627450980392155" />
<path d="M490,-882 L310,-850 L226,-434 L430,-738 L626,-426 L326,-1274 Z" stroke-width="0" fill="#20002c" fill-opacity="0.9450980392156862" />
<path d="M446,-302 L634,-342 L194,-174 L794,-518 L334,-738 L486,-478 Z" stroke-width="0" fill="#886d88" fill-opacity="0.8901960784313725" />
<path d="M666,-734 L322,-606 L138,-1134 L566,-1118 L122,-742 L386,-698 Z" stroke-width="0" fill="#170312" fill-opacity="0.8745098039215686" />
<path d="M118,-866 L326,-570 L242,-962 L674,-390 L462,-1154 L722,-1082 Z" stroke-width="0" fill="#d544bb" fill-opacity="0.3568627450980392" />
<path d="M362,-502 L662,-722 L890,-514 L158,-970 L838,-134 L174,-1142 Z" stroke-width="0" fill="#bc719d" fill-opacity="0.00784313725490196" />
<path d="M666,-702 L498,-230 L526,-318 L358,-1254 L386,-1082 L890,-718 Z" stroke-width="0" fill="#080057" fill-opacity="0.9686274509803922" />
<path d="M322,-374 L82,-518 L666,-1054 L358,-146 L466,-578 L742,-370 Z" stroke-width="0" fill="#020026" fill-opacity="0.7450980392156863" />
<path d="M870,-934 L358,-498 L162,-982 L142,-1054 L118,-258 L102,-922 Z" stroke-width="0" fill="#220044" fill-opacity="0.8823529411764706" />
<path d="M450,-802 L502,-82 L838,-906 L190,-554 L562,-382 L586,-890 Z" stroke-width="0" fill="#ec73ee" fill-opacity="0.35294117647058826" />
<path d="M310,-226 L166,-630 L606,-722 L754,-490 L110,-878 L554,-922 Z" stroke-width="0" fill="#1d0d1c" fill-opacity="0.5019607843137255" />
<path d="M114,-922 L534,-714 L882,-970 L322,-170 L678,-630 L682,-302 Z" stroke-width="0" fill="#320e41" fill-opacity="0.9098039215686274" />
<path d="M230,-142 L846,-826 L654,-1138 L854,-710 L258,-650 L534,-122 Z" stroke-width="0" fill="#501980" fill-opacity="0.9568627450980393" />
<path d="M326,-1150 L618,-198 L374,-246 L98,-386 L110,-706 L94,-822 Z" stroke-width="0" fill="#34004d" fill-opacity="0.7450980392156863" />
<path d="M930,-258 L654,-334 L198,-486 L882,-822 L414,-130 L818,-1234 Z" stroke-width="0" fill="#aa22e1" fill-opacity="0.39215686274509803" />
<path d="M334,-634 L518,-682 L322,-474 L746,-454 L798,-1234 L118,-1166 Z" stroke-width="0" fill="#1c0838" fill-opacity="0.9764705882352941" />
<path d="M310,-166 L250,-334 L758,-354 L630,-930 L146,-654 L442,-1074 Z" stroke-width="0" fill="#ec6401" fill-opacity="0.01568627450980392" />
<path d="M738,-694 L242,-822 L282,-982 L362,-390 L894,-918 L822,-490 Z" stroke-width="0" fill="#069a05" fill-opacity="0.9882352941176471" />
<path d="M170,-450 L870,-170 L150,-230 L114,-234 L518,-1046 L362,-446 Z" stroke-width="0" fill="#022f0f" fill-opacity="0.9803921568627451" />
<path d="M386,-678 L954,-1038 L174,-1254 L498,-894 L946,-90 L630,-158 Z" stroke-width="0" fill="#500797" fill-opacity="0.7803921568627451" />
<path d="M722,-706 L486,-474 L650,-206 L882,-106 L134,-546 L778,-1130 Z" stroke-width="0" fill="#773f3d" fill-opacity="0.10980392156862745" />
<path d="M958,-750 L214,-374 L550,-658 L654,-1098 L294,-318 L930,-326 Z" stroke-width="0" fill="#7800b5" fill-opacity="0.7333333333333333" />
<path d="M546,-298 L750,-454 L198,-302 L174,-694 L158,-314 L702,-718 Z" stroke-width="0" fill="#07013c" fill-opacity="0.9372549019607843" />
<path d="M270,-494 L94,-442 L658,-1062 L534,-958 L694,-982 L550,-1182 Z" stroke-width="0" fill="#1b001b" fill-opacity="1.0" />
<path d="M754,-394 L182,-138 L370,-486 L502,-1182 L790,-470 L634,-530 Z" stroke-width="0" fill="#390034" fill-opacity="0.7372549019607844" />
<path d="M498,-1034 L962,-622 L466,-410 L722,-282 L874,-542 L318,-94 Z" stroke-width="0" fill="#6902a4" fill-opacity="0.6862745098039216" />
<path d="M598,-566 L730,-442 L82,-866 L434,-554 L230,-262 L638,-638 Z" stroke-width="0" fill="#280035" fill-opacity="0.7215686274509804" />
<path d="M938,-290 L158,-634 L626,-710 L422,-218 L834,-254 L278,-594 Z" stroke-width="0" fill="#f798bf" fill-opacity="0.9607843137254902" />
<path d="M354,-610 L230,-302 L326,-158 L474,-822 L910,-726 L626,-142 Z" stroke-width="0" fill="#775559" fill-opacity="0.12156862745098039" />
<path d="M922,-1158 L174,-422 L130,-754 L758,-410 L666,-506 L162,-366 Z" stroke-width="0" fill="#381b50" fill-opacity="0.792156862745098" />
<path d="M898,-894 L778,-1070 L146,-1198 L118,-806 L270,-754 L382,-754 Z" stroke-width="0" fill="#261035" fill-opacity="0.996078431372549" />
<path d="M294,-326 L726,-610 L282,-1266 L226,-1186 L234,-842 L686,-414 Z" stroke-width="0" fill="#b45ae0" fill-opacity="0.9647058823529412" />
<path d="M442,-114 L82,-114 L414,-90 L802,-122 L962,-1154 L414,-298 Z" stroke-width="0" fill="#c469e1" fill-opacity="0.9215686274509803" />
<path d="M130,-622 L282,-434 L814,-750 L162,-830 L878,-746 L746,-918 Z" stroke-width="0" fill="#fac0f5" fill-opacity="0.807843137254902" />
<path d="M162,-858 L146,-1234 L874,-766 L310,-794 L326,-666 L506,-326 Z" stroke-width="0" fill="#320e28" fill-opacity="0.9176470588235294" />
<path d="M722,-298 L706,-274 L298,-1166 L106,-514 L478,-1230 L150,-1250 Z" stroke-width="0" fill="#11001d" fill-opacity="0.8666666666666667" />
<path d="M762,-594 L138,-562 L178,-454 L370,-666 L214,-342 L594,-978 Z" stroke-width="0" fill="#030020" fill-opacity="0.9098039215686274" />
<path d="M718,-966 L158,-686 L334,-538 L618,-798 L322,-390 L122,-530 Z" stroke-width="0" fill="#0c337b" fill-opacity="0.06274509803921569" />
<path d="M662,-234 L322,-1130 L766,-170 L346,-182 L482,-162 L286,-122 Z" stroke-width="0" fill="#f3dbe9" fill-opacity="0.23921568627450981" />
<path d="M158,-982 L154,-1142 L942,-930 L678,-1146 L202,-186 L410,-558 Z" stroke-width="0" fill="#17033a" fill-opacity="0.7568627450980392" />
<path d="M822,-1098 L550,-1130 L270,-546 L658,-610 L578,-990 L746,-758 Z" stroke-width="0" fill="#3e0b10" fill-opacity="0.5725490196078431" />
<path d="M266,-422 L186,-578 L682,-94 L946,-1186 L378,-1114 L698,-1242 Z" stroke-width="0" fill="#0a0024" fill-opacity="0.615686274509804" />
<path d="M518,-318 L250,-462 L354,-742 L406,-446 L926,-954 L394,-374 Z" stroke-width="0" fill="#39037b" fill-opacity="0.7019607843137254" />
<path d="M726,-658 L202,-362 L394,-234 L898,-110 L302,-494 L438,-310 Z" stroke-width="0" fill="#d977e1" fill-opacity="0.5019607843137255" />
<path d="M894,-246 L266,-670 L718,-82 L766,-574 L606,-998 L822,-450 Z" stroke-width="0" fill="#f094f8" fill-opacity="1.0" />
<path d="M586,-602 L638,-1142 L590,-398 L662,-1206 L874,-974 L758,-670 Z" stroke-width="0" fill="#6327e0" fill-opacity="0.3803921568627451" />
<path d="M418,-830 L246,-682 L170,-810 L510,-1030 L530,-950 L662,-1030 Z" stroke-width="0" fill="#b5139c" fill-opacity="0.2627450980392157" />
<path d="M86,-678 L842,-1242 L778,-294 L230,-802 L298,-102 L318,-338 Z" stroke-width="0" fill="#31074f" fill-opacity="0.9568627450980393" />
<path d="M634,-442 L850,-286 L138,-934 L734,-402 L110,-1254 L470,-666 Z" stroke-width="0" fill="#471223" fill-opacity="0.7333333333333333" />
<path d="M778,-706 L530,-1138 L566,-874 L238,-86 L846,-970 L474,-814 Z" stroke-width="0" fill="#561d81" fill-opacity="0.8235294117647058" />
<path d="M274,-934 L422,-998 L486,-106 L206,-530 L730,-1190 L250,-306 Z" stroke-width="0" fill="#671fff" fill-opacity="0.12549019607843137" />
<path d="M246,-1134 L258,-546 L414,-462 L366,-202 L566,-526 L530,-514 Z" stroke-width="0" fill="#11009e" fill-opacity="0.11764705882352941" />
<path d="M178,-518 L630,-1130 L346,-1214 L626,-834 L518,-402 L758,-98 Z" stroke-width="0" fill="#fbecbc" fill-opacity="0.0392156862745098" />
<path d="M502,-458 L926,-514 L390,-694 L702,-598 L98,-122 L654,-478 Z" stroke-width="0" fill="#620867" fill-opacity="0.7686274509803922" />
<path d="M662,-802 L718,-342 L338,-198 L546,-998 L846,-742 L430,-878 Z" stroke-width="0" fill="#f6dcf5" fill-opacity="0.9215686274509803" />
<path d="M618,-1086 L674,-1098 L734,-870 L434,-526 L382,-1086 L590,-118 Z" stroke-width="0" fill="#fbbca5" fill-opacity="0.12941176470588237" />
<path d="M294,-794 L622,-1002 L134,-330 L374,-1026 L254,-882 L330,-986 Z" stroke-width="0" fill="#2f109f" fill-opacity="0.5372549019607843" />
<path d="M438,-882 L846,-1270 L126,-646 L402,-318 L222,-554 L138,-338 Z" stroke-width="0" fill="#14004a" fill-opacity="0.6627450980392157" />
<path d="M458,-322 L850,-490 L530,-1218 L278,-1142 L730,-910 L974,-286 Z" stroke-width="0" fill="#220072" fill-opacity="0.3607843137254902" />
<path d="M430,-118 L102,-558 L490,-690 L602,-474 L654,-506 L150,-1254 Z" stroke-width="0" fill="#3329e6" fill-opacity="0.00784313725490196" />
<path d="M690,-1262 L306,-186 L522,-650 L334,-506 L746,-86 L370,-790 Z" stroke-width="0" fill="#884a66" fill-opacity="0.058823529411764705" />
<path d="M318,-998 L566,-130 L750,-374 L358,-442 L830,-606 L262,-654 Z" stroke-width="0" fill="#ecc3f5" fill-opacity="0.9019607843137255" />
<path d="M806,-246 L966,-1034 L490,-350 L826,-486 L654,-1250 L538,-526 Z" stroke-width="0" fill="#540aa9" fill-opacity="0.6235294117647059" />
<path d="M454,-834 L198,-358 L602,-194 L762,-674 L954,-1034 L322,-530 Z" stroke-width="0" fill="#ba5fd6" fill-opacity="0.3411764705882353" />
<path d="M350,-526 L894,-454 L446,-82 L426,-810 L378,-638 L490,-210 Z" stroke-width="0" fill="#ffcdfa" fill-opacity="0.803921568627451" />
<path d="M90,-822 L118,-886 L338,-382 L142,-742 L470,-102 L622,-394 Z" stroke-width="0" fill="#ead6e3" fill-opacity="0.050980392156862744" />
<path d="M394,-1106 L910,-1074 L334,-338 L382,-266 L414,-1266 L750,-586 Z" stroke-width="0" fill="#26155b" fill-opacity="0.34509803921568627" />
<path d="M734,-302 L210,-450 L774,-1150 L522,-606 L482,-358 L142,-258 Z" stroke-width="0" fill="#c5bd79" fill-opacity="0.0392156862745098" />
<path d="M926,-114 L526,-942 L814,-258 L766,-1110 L594,-610 L870,-198 Z" stroke-width="0" fill="#ac6ffc" fill-opacity="0.35294117647058826" />
<path d="M238,-262 L698,-886 L166,-706 L578,-298 L686,-338 L82,-646 Z" stroke-width="0" fill="#9458b7" fill-opacity="0.23137254901960785" />
<path d="M806,-330 L966,-1022 L830,-386 L494,-546 L370,-762 L330,-1014 Z" stroke-width="0" fill="#b7b5fc" fill-opacity="0.23529411764705882" />
<path d="M762,-574 L946,-402 L862,-1006 L266,-1186 L706,-1182 L358,-510 Z" stroke-width="0" fill="#dd70ff" fill-opacity="0.07450980392156863" />
<path d="M314,-798 L614,-226 L238,-646 L366,-394 L422,-1038 L454,-790 Z" stroke-width="0" fill="#ed0dfa" fill-opacity="0.0784313725490196" />
<path d="M462,-298 L734,-398 L258,-1022 L110,-290 L422,-634 L206,-674 Z" stroke-width="0" fill="#f12fea" fill-opacity="0.25098039215686274" />
<path d="M762,-886 L370,-582 L830,-938 L722,-174 L906,-302 L858,-358 Z" stroke-width="0" fill="#cb67de" fill-opacity="0.6627450980392157" />
<path d="M614,-414 L338,-962 L126,-422 L150,-118 L218,-378 L758,-602 Z" stroke-width="0" fill="#ba2fbd" fill-opacity="0.4470588235294118" />
<path d="M90,-366 L314,-290 L690,-1146 L382,-494 L106,-642 L886,-250 Z" stroke-width="0" fill="#ffb1e5" fill-opacity="0.3764705882352941" />
<path d="M366,-1042 L590,-714 L466,-562 L246,-954 L450,-438 L858,-1002 Z" stroke-width="0" fill="#4b235d" fill-opacity="0.5647058823529412" />
<path d="M866,-562 L666,-718 L734,-306 L866,-482 L422,-1034 L846,-174 Z" stroke-width="0" fill="#c755c5" fill-opacity="0.43529411764705883" />
<path d="M206,-250 L466,-1006 L278,-962 L186,-1246 L866,-502 L182,-350 Z" stroke-width="0" fill="#f668f0" fill-opacity="0.4" />
<path d="M230,-134 L190,-1054 L766,-614 L962,-134 L754,-702 L830,-1146 Z" stroke-width="0" fill="#a15afa" fill-opacity="0.21176470588235294" />
<path d="M534,-1062 L346,-786 L118,-1058 L862,-342 L630,-514 L642,-566 Z" stroke-width="0" fill="#ae09fc" fill-opacity="0.06274509803921569" />
<path d="M786,-1130 L622,-538 L730,-570 L302,-458 L726,-1222 L426,-794 Z" stroke-width="0" fill="#b97391" fill-opacity="0.06666666666666667" />
<path d="M702,-1174 L838,-478 L698,-150 L210,-778 L382,-1162 L182,-1106 Z" stroke-width="0" fill="#e306db" fill-opacity="0.01568627450980392" />
<path d="M350,-106 L794,-574 L158,-490 L706,-682 L118,-254 L210,-718 Z" stroke-width="0" fill="#feeeff" fill-opacity="0.5019607843137255" />
<path d="M290,-142 L326,-866 L802,-226 L398,-570 L162,-970 L114,-302 Z" stroke-width="0" fill="#9a12fb" fill-opacity="0.10196078431372549" />
<path d="M278,-294 L106,-450 L386,-1166 L662,-906 L670,-318 L842,-470 Z" stroke-width="0" fill="#f5c4f0" fill-opacity="0.12549019607843137" />
<path d="M562,-1150 L198,-674 L230,-590 L966,-1254 L606,-1018 L954,-518 Z" stroke-width="0" fill="#563a93" fill-opacity="0.25882352941176473" />
<path d="M530,-1142 L810,-410 L430,-1082 L702,-866 L178,-1150 L410,-422 Z" stroke-width="0" fill="#611346" fill-opacity="0.01568627450980392" />
<path d="M178,-530 L414,-558 L530,-546 L390,-170 L534,-1262 L778,-950 Z" stroke-width="0" fill="#9d08ec" fill-opacity="0.050980392156862744" />
<path d="M166,-698 L378,-798 L342,-1002 L374,-1194 L406,-950 L186,-1242 Z" stroke-width="0" fill="#000038" fill-opacity="0.41568627450980394" />
<path d="M538,-274 L326,-350 L374,-378 L798,-550 L238,-706 L810,-790 Z" stroke-width="0" fill="#97eeea" fill-opacity="0.08235294117647059" />
<path d="M478,-278 L246,-150 L930,-442 L922,-182 L434,-386 L114,-526 Z" stroke-width="0" fill="#aa90e6" fill-opacity="0.27450980392156865" />
<path d="M654,-394 L190,-1118 L98,-114 L570,-422 L282,-638 L586,-614 Z" stroke-width="0" fill="#ac4ebf" fill-opacity="0.27058823529411763" />
<path d="M358,-642 L534,-126 L454,-210 L546,-798 L502,-354 L938,-1234 Z" stroke-width="0" fill="#dc9bf4" fill-opacity="0.0784313725490196" />
<path d="M650,-1014 L238,-230 L170,-582 L622,-798 L642,-1258 L622,-558 Z" stroke-width="0" fill="#f296c8" fill-opacity="0.788235294117647" />
<text x="448.0" y="0" font-size="70.0" fill="black" text-anchor="middle" transform="translate(0,17.5)">KNIGHT OF FIRE</text>
</svg>