<?xml version="1.0" encoding="UTF-8"?>
<svg xmlns="http://www.w3.org/2000/svg" xmlns:xlink="http://www.w3.org/1999/xlink"
     width="896" height="1496" viewBox="0 -1400 896 1496" style="font-size:70;font-family:Poor Richard, Times New Roman;stroke:black;stroke-width:1;fill:none">
<defs>
</defs>
<path d="M306,-354 L450,-926 L530,-94 L942,-590 L414,-586 L486,-194 Z" stroke-width="0" fill="#b2d5c2" fill-opacity="0.17647058823529413" />
<path d="M582,-194 L526,-1130 L322,-934 L310,-402 L518,-1246 L82,-954 Z" stroke-width="0" fill="#fd679d" fill-opacity="0.09803921568627451" />
<path d="M246,-438 L442,-870 L142,-398 L326,-398 L214,-1062 L858,-638 Z" stroke-width="0" fill="#59fffd" fill-opacity="0.0392156862745098" />
<path d="M194,-266 L662,-522 L422,-550 L942,-562 L790,-222 L170,-810 Z" stroke-width="0" fill="#676556" fill-opacity="0.8862745098039215" />
<path d="M246,-82 L118,-530 L198,-470 L566,-646 L354,-622 L666,-366 Z" stroke-width="0" fill="#f5ebc2" fill-opacity="0.3058823529411765" />
<path d="M178,-386 L122,-914 L470,-1138 L154,-1074 L306,-1118 L978,-482 Z" stroke-width="0" fill="#cce4d6" fill-opacity="0.6078431372549019" />
<path d="M478,-754 L806,-650 L394,-794 L102,-358 L822,-1070 L146,-490 Z" stroke-width="0" fill="#421536" fill-opacity="0.07058823529411765" />
<path d="M862,-914 L294,-966 L194,-678 L942,-618 L82,-650 L862,-1062 Z" stroke-width="0" fill="#fdffdd" fill-opacity="0.023529411764705882" />
<path d="M374,-422 L806,-366 L942,-242 L498,-486 L634,-154 L142,-326 Z" stroke-width="0" fill="#cfd369" fill-opacity="0.011764705882352941" />
<path d="M194,-1214 L826,-714 L318,-846 L646,-1178 L330,-386 L190,-354 Z" stroke-width="0" fill="#8f637a" fill-opacity="0.17254901960784313" />
<path d="M366,-450 L938,-510 L870,-1178 L370,-930 L342,-730 L334,-486 Z" stroke-width="0" fill="#f4f5ec" fill-opacity="0.03529411764705882" />
<path d="M506,-670 L614,-814 L442,-1098 L858,-318 L406,-1178 L682,-434 Z" stroke-width="0" fill="#fcf4f9" fill-opacity="0.0784313725490196" />
<path d="M386,-778 L450,-410 L702,-90 L310,-946 L790,-474 L614,-1182 Z" stroke-width="0" fill="#d560fb" fill-opacity="0.01568627450980392" />
<path d="M246,-526 L610,-214 L670,-282 L318,-262 L422,-846 L258,-526 Z" stroke-width="0" fill="#d0384b" fill-opacity="0.08627450980392157" />
<path d="M386,-426 L830,-934 L462,-314 L862,-822 L702,-1146 L314,-446 Z" stroke-width="0" fill="#fdeaf7" fill-opacity="0.058823529411764705" />
<path d="M114,-994 L618,-1038 L778,-110 L422,-1026 L402,-742 L706,-790 Z" stroke-width="0" fill="#f6d3f0" fill-opacity="0.9254901960784314" />
<path d="M614,-1214 L166,-1178 L822,-894 L582,-1074 L690,-806 L82,-1270 Z" stroke-width="0" fill="#dddbc1" fill-opacity="0.611764705882353" />
<path d="M462,-126 L978,-466 L462,-718 L590,-670 L210,-230 L122,-1038 Z" stroke-width="0" fill="#02041d" fill-opacity="0.611764705882353" />
<path d="M98,-1162 L962,-278 L786,-394 L654,-878 L826,-670 L674,-126 Z" stroke-width="0" fill="#caa1c1" fill-opacity="0.3607843137254902" />
<path d="M926,-662 L414,-138 L282,-194 L154,-310 L534,-366 L282,-610 Z" stroke-width="0" fill="#9ffc7f" fill-opacity="0.00392156862745098" />
<path d="M194,-602 L778,-98 L514,-246 L974,-906 L262,-606 L794,-598 Z" stroke-width="0" fill="#e0fcfd" fill-opacity="0.011764705882352941" />
<path d="M858,-214 L330,-942 L510,-222 L902,-1150 L546,-430 L558,-434 Z" stroke-width="0" fill="#95b0e4" fill-opacity="0.0196078431372549" />
<path d="M142,-446 L526,-534 L962,-578 L102,-270 L674,-202 L246,-374 Z" stroke-width="0" fill="#d3bce0" fill-opacity="0.25882352941176473" />
<path d="M446,-970 L214,-482 L442,-394 L302,-518 L174,-894 L850,-998 Z" stroke-width="0" fill="#f1eef0" fill-opacity="0.07058823529411765" />
<path d="M882,-906 L274,-182 L346,-810 L470,-466 L178,-586 L86,-650 Z" stroke-width="0" fill="#b9318c" fill-opacity="0.0392156862745098" />
<path d="M402,-1006 L682,-714 L718,-430 L466,-190 L318,-422 L830,-290 Z" stroke-width="0" fill="#68fda0" fill-opacity="0.9294117647058824" />
<path d="M722,-1194 L190,-254 L322,-950 L214,-998 L466,-374 L754,-1054 Z" stroke-width="0" fill="#fcaafc" fill-opacity="0.058823529411764705" />
<path d="M518,-946 L410,-582 L910,-938 L446,-702 L222,-866 L182,-398 Z" stroke-width="0" fill="#fcf8f3" fill-opacity="0.11764705882352941" />
<path d="M754,-1166 L746,-330 L542,-670 L682,-162 L630,-530 L114,-182 Z" stroke-width="0" fill="#f3fff8" fill-opacity="0.12941176470588237" />
<path d="M954,-230 L378,-1278 L734,-718 L358,-642 L194,-598 L518,-726 Z" stroke-width="0" fill="#f5d9cd" fill-opacity="0.9686274509803922" />
<path d="M786,-158 L426,-726 L458,-1238 L642,-894 L106,-150 L466,-546 Z" stroke-width="0" fill="#f1f7ee" fill-opacity="0.7019607843137254" />
<path d="M726,-746 L830,-1122 L702,-674 L782,-526 L550,-542 L130,-442 Z" stroke-width="0" fill="#dffff6" fill-opacity="0.25098039215686274" />
<path d="M390,-238 L522,-518 L774,-710 L870,-378 L250,-1150 L390,-550 Z" stroke-width="0" fill="#fcf8f8" fill-opacity="0.984313725490196" />
<path d="M302,-894 L530,-1238 L462,-1170 L402,-274 L782,-446 L658,-210 Z" stroke-width="0" fill="#dde165" fill-opacity="0.00392156862745098" />
<path d="M518,-1218 L850,-974 L530,-1106 L218,-470 L610,-190 L274,-1042 Z" stroke-width="0" fill="#f9fbf2" fill-opacity="0.43137254901960786" />
<path d="M734,-222 L250,-110 L694,-514 L666,-214 L814,-430 L858,-602 Z" stroke-width="0" fill="#fd184f" fill-opacity="0.1411764705882353" />
<path d="M726,-986 L518,-142 L310,-314 L582,-118 L518,-386 L114,-182 Z" stroke-width="0" fill="#e4afd6" fill-opacity="0.2" />
<path d="M650,-666 L158,-1254 L126,-298 L874,-794 L510,-1242 L942,-502 Z" stroke-width="0" fill="#fceff6" fill-opacity="0.9254901960784314" />
<path d="M378,-682 L758,-978 L190,-378 L514,-1034 L170,-310 L802,-170 Z" stroke-width="0" fill="#fbebee" fill-opacity="0.792156862745098" />
<path d="M146,-974 L794,-786 L494,-598 L306,-394 L86,-158 L558,-726 Z" stroke-width="0" fill="#d197a6" fill-opacity="0.1607843137254902" />
<path d="M466,-222 L418,-114 L914,-166 L278,-386 L862,-474 L270,-774 Z" stroke-width="0" fill="#f1ddd7" fill-opacity="0.7372549019607844" />
<path d="M122,-378 L750,-814 L714,-758 L338,-770 L390,-174 L826,-130 Z" stroke-width="0" fill="#ededf9" fill-opacity="0.8627450980392157" />
<path d="M374,-370 L554,-470 L486,-326 L182,-354 L482,-902 L838,-862 Z" stroke-width="0" fill="#031840" fill-opacity="0.796078431372549" />
<path d="M482,-350 L762,-822 L410,-538 L690,-722 L778,-554 L626,-390 Z" stroke-width="0" fill="#fce7a7" fill-opacity="0.7176470588235294" />
<path d="M830,-242 L838,-798 L278,-690 L278,-1246 L818,-262 L206,-278 Z" stroke-width="0" fill="#e1ddd1" fill-opacity="0.023529411764705882" />
<path d="M390,-102 L622,-446 L554,-370 L798,-946 L510,-1126 L842,-1090 Z" stroke-width="0" fill="#f3fda2" fill-opacity="0.058823529411764705" />
<path d="M614,-82 L802,-102 L870,-450 L674,-1090 L246,-414 L186,-530 Z" stroke-width="0" fill="#5a1c32" fill-opacity="0.9686274509803922" />
<path d="M506,-86 L698,-318 L938,-1034 L582,-390 L702,-550 L794,-790 Z" stroke-width="0" fill="#f7fbf9" fill-opacity="0.9176470588235294" />
<path d="M282,-526 L298,-570 L678,-522 L870,-1274 L942,-398 L606,-1042 Z" stroke-width="0" fill="#fffde0" fill-opacity="0.08235294117647059" />
<path d="M490,-1222 L834,-374 L550,-334 L610,-1274 L726,-646 L94,-1230 Z" stroke-width="0" fill="#ebebea" fill-opacity="0.7333333333333333" />
<path d="M554,-982 L710,-1014 L698,-330 L150,-1002 L570,-1066 L914,-382 Z" stroke-width="0" fill="#f0eee0" fill-opacity="0.9686274509803922" />
<path d="M682,-622 L402,-426 L830,-758 L606,-498 L518,-946 L374,-658 Z" stroke-width="0" fill="#faf2c7" fill-opacity="0.01568627450980392" />
<path d="M958,-926 L698,-266 L466,-766 L698,-678 L210,-1086 L346,-830 Z" stroke-width="0" fill="#e8ead0" fill-opacity="0.023529411764705882" />
<path d="M958,-90 L614,-982 L314,-150 L566,-258 L374,-570 L678,-306 Z" stroke-width="0" fill="#fe8bc2" fill-opacity="0.6784313725490196" />
<path d="M814,-1054 L314,-538 L474,-1182 L306,-822 L774,-134 L126,-858 Z" stroke-width="0" fill="#fde8da" fill-opacity="0.48627450980392156" />
<path d="M806,-786 L486,-1006 L282,-1050 L886,-850 L234,-750 L122,-1134 Z" stroke-width="0" fill="#0dd518" fill-opacity="0.0392156862745098" />
<path d="M350,-522 L442,-638 L158,-898 L190,-942 L174,-386 L910,-102 Z" stroke-width="0" fill="#ddd8f7" fill-opacity="0.7843137254901961" />
<path d="M826,-190 L378,-458 L738,-246 L498,-634 L726,-442 L178,-98 Z" stroke-width="0" fill="#ff8d4d" fill-opacity="0.0" />
<path d="M278,-534 L282,-1058 L582,-294 L538,-190 L862,-858 L250,-486 Z" stroke-width="0" fill="#fde7ef" fill-opacity="0.043137254901960784" />
<path d="M158,-494 L314,-554 L470,-178 L226,-202 L858,-378 L402,-818 Z" stroke-width="0" fill="#ea90f5" fill-opacity="0.06274509803921569" />
<path d="M358,-118 L286,-314 L102,-1054 L546,-714 L794,-238 L710,-810 Z" stroke-width="0" fill="#f3ebed" fill-opacity="0.9725490196078431" />
<path d="M282,-314 L874,-218 L386,-102 L290,-846 L858,-898 L294,-1174 Z" stroke-width="0" fill="#ebfafc" fill-opacity="0.8862745098039215" />
<path d="M246,-446 L558,-598 L286,-966 L690,-170 L662,-422 L282,-210 Z" stroke-width="0" fill="#0cd69c" fill-opacity="0.0" />
<path d="M130,-234 L490,-358 L846,-394 L206,-690 L650,-750 L222,-322 Z" stroke-width="0" fill="#faf6f2" fill-opacity="0.9647058823529412" />
<path d="M98,-1186 L178,-270 L654,-962 L378,-1214 L774,-310 L130,-154 Z" stroke-width="0" fill="#357600" fill-opacity="0.043137254901960784" />
<path d="M294,-586 L806,-618 L938,-1122 L294,-1274 L294,-258 L786,-242 Z" stroke-width="0" fill="#c3b29a" fill-opacity="0.0" />
<path d="M398,-194 L558,-990 L838,-438 L290,-166 L782,-286 L762,-818 Z" stroke-width="0" fill="#fcf9e4" fill-opacity="0.6745098039215687" />
<path d="M258,-302 L542,-390 L670,-806 L290,-690 L774,-906 L894,-638 Z" stroke-width="0" fill="#dbf8b6" fill-opacity="0.00392156862745098" />
<path d="M110,-154 L570,-406 L706,-658 L266,-1102 L842,-1194 L686,-222 Z" stroke-width="0" fill="#fde3fe" fill-opacity="0.9254901960784314" />
<path d="M358,-394 L262,-938 L786,-738 L686,-130 L114,-750 L414,-918 Z" stroke-width="0" fill="#e1b8eb" fill-opacity="0.00784313725490196" />
<path d="M614,-754 L178,-242 L302,-1262 L250,-662 L430,-610 L930,-1226 Z" stroke-width="0" fill="#f4f6fa" fill-opacity="0.8431372549019608" />
<path d="M270,-806 L694,-1210 L294,-1066 L670,-538 L110,-742 L646,-854 Z" stroke-width="0" fill="#ebf7d9" fill-opacity="0.06274509803921569" />
<path d="M194,-466 L402,-1106 L930,-342 L346,-790 L518,-494 L914,-106 Z" stroke-width="0" fill="#fffbe4" fill-opacity="0.5294117647058824" />
<path d="M414,-338 L926,-1066 L230,-1130 L710,-730 L402,-430 L630,-994 Z" stroke-width="0" fill="#f5f9f4" fill-opacity="0.8705882352941177" />
<path d="M190,-550 L586,-434 L222,-970 L638,-334 L494,-682 L714,-858 Z" stroke-width="0" fill="#ffe6f6" fill-opacity="0.7058823529411765" />
<path d="M86,-94 L730,-430 L614,-278 L838,-614 L474,-906 L758,-158 Z" stroke-width="0" fill="#ebfdfb" fill-opacity="0.8627450980392157" />
<path d="M446,-406 L442,-598 L510,-338 L686,-1258 L530,-558 L714,-190 Z" stroke-width="0" fill="#f7ebfd" fill-opacity="0.996078431372549" />
<path d="M266,-586 L598,-154 L534,-1098 L650,-378 L586,-1254 L114,-958 Z" stroke-width="0" fill="#ede6ff" fill-opacity="0.34509803921568627" />
<path d="M686,-570 L618,-362 L650,-166 L706,-430 L90,-810 L858,-666 Z" stroke-width="0" fill="#f5d0c2" fill-opacity="0.011764705882352941" />
<path d="M122,-914 L242,-802 L350,-222 L182,-1030 L650,-394 L802,-1242 Z" stroke-width="0" fill="#e6f8db" fill-opacity="0.10980392156862745" />
<path d="M678,-618 L854,-162 L286,-314 L914,-654 L410,-262 L126,-94 Z" stroke-width="0" fill="#f8f9e9" fill-opacity="0.8627450980392157" />
<path d="M254,-474 L526,-534 L698,-1046 L486,-1050 L194,-822 L534,-1186 Z" stroke-width="0" fill="#dffdde" fill-opacity="0.21176470588235294" />
<path d="M750,-742 L470,-490 L198,-838 L190,-986 L822,-622 L130,-310 Z" stroke-width="0" fill="#f4eec7" fill-opacity="0.06666666666666667" />
<path d="M598,-434 L534,-1202 L122,-442 L126,-162 L854,-102 L790,-270 Z" stroke-width="0" fill="#effcf4" fill-opacity="0.12941176470588237" />
<path d="M806,-842 L586,-926 L326,-778 L194,-154 L674,-426 L734,-534 Z" stroke-width="0" fill="#b9cace" fill-opacity="0.00392156862745098" />
<path d="M174,-146 L570,-622 L302,-610 L254,-514 L710,-202 L230,-458 Z" stroke-width="0" fill="#fdfdf7" fill-opacity="0.9254901960784314" />
<path d="M646,-754 L154,-474 L866,-1118 L458,-686 L434,-1206 L754,-1002 Z" stroke-width="0" fill="#c1b7f5" fill-opacity="0.03529411764705882" />
<path d="M726,-294 L834,-114 L274,-786 L434,-1202 L374,-502 L942,-1098 Z" stroke-width="0" fill="#e6ecf5" fill-opacity="0.08235294117647059" />
<path d="M310,-1134 L238,-742 L386,-102 L722,-1206 L714,-1250 L358,-930 Z" stroke-width="0" fill="#e9f6fd" fill-opacity="0.8823529411764706" />
<path d="M342,-1038 L286,-1214 L262,-474 L926,-294 L950,-326 L506,-250 Z" stroke-width="0" fill="#d17da9" fill-opacity="0.00392156862745098" />
<path d="M974,-478 L718,-466 L758,-694 L974,-158 L178,-794 L206,-830 Z" stroke-width="0" fill="#f2f6ef" fill-opacity="0.9176470588235294" />
<path d="M750,-1202 L738,-338 L558,-814 L374,-866 L478,-454 L894,-854 Z" stroke-width="0" fill="#fbf0e6" fill-opacity="0.17254901960784313" />
<path d="M898,-210 L582,-146 L82,-214 L822,-446 L730,-914 L154,-534 Z" stroke-width="0" fill="#d6f8fc" fill-opacity="0.00784313725490196" />
<path d="M834,-550 L90,-1138 L714,-458 L294,-534 L226,-386 L134,-706 Z" stroke-width="0" fill="#fbd3f2" fill-opacity="0.1607843137254902" />
<path d="M142,-218 L162,-318 L470,-210 L270,-1150 L138,-1046 L246,-858 Z" stroke-width="0" fill="#ebf7ea" fill-opacity="0.03137254901960784" />
<path d="M366,-586 L850,-338 L194,-862 L514,-994 L194,-1194 L270,-1070 Z" stroke-width="0" fill="#f8f5ed" fill-opacity="0.3137254901960784" />
<path d="M146,-946 L278,-934 L158,-586 L490,-110 L198,-534 L494,-554 Z" stroke-width="0" fill="#c8f2f8" fill-opacity="0.06274509803921569" />
<path d="M494,-98 L478,-678 L594,-362 L334,-646 L818,-1238 L702,-202 Z" stroke-width="0" fill="#c6f9fd" fill-opacity="0.1411764705882353" />
<path d="M494,-646 L514,-794 L614,-234 L158,-338 L786,-566 L462,-762 Z" stroke-width="0" fill="#f8e3ec" fill-opacity="0.027450980392156862" />
<path d="M602,-426 L690,-1254 L550,-1114 L338,-682 L302,-870 L242,-958 Z" stroke-width="0" fill="#e4b0fd" fill-opacity="0.06274509803921569" />
<text x="448.0" y="0" font-size="70.0" fill="black" text-anchor="middle" transform="translate(0,17.5)">4 OF FIRE</text>
</svg>