<?xml version="1.0" encoding="UTF-8"?>
<svg xmlns="http://www.w3.org/2000/svg" xmlns:xlink="http://www.w3.org/1999/xlink"
     width="275" height="375" viewBox="0 -350 275 375">
<defs>
</defs>
<rect x="15" y="-335" width="245" height="320" stroke="black" stroke-width="4" fill="white" />
<path d="M100,-61 L91,-56 L87,-183 L105,-26 L135,-89 L62,-131 Z" stroke-width="0" fill="#000006" fill-opacity="0.9647058823529412" />
<path d="M116,-152 L42,-94 L195,-203 L70,-312 L28,-246 L152,-216 Z" stroke-width="0" fill="#000300" fill-opacity="0.9647058823529412" />
<path d="M81,-295 L209,-120 L157,-102 L156,-131 L183,-165 L235,-173 Z" stroke-width="0" fill="#d4dcfc" fill-opacity="0.13725490196078433" />
<path d="M51,-115 L41,-58 L248,-250 L114,-125 L208,-232 L108,-254 Z" stroke-width="0" fill="#011600" fill-opacity="0.8823529411764706" />
<path d="M68,-101 L158,-185 L161,-311 L245,-211 L219,-118 L27,-184 Z" stroke-width="0" fill="#3b5e7e" fill-opacity="0.7019607843137254" />
<path d="M41,-251 L163,-230 L167,-264 L115,-187 L76,-154 L244,-185 Z" stroke-width="0" fill="#a18f95" fill-opacity="0.45098039215686275" />
<path d="M41,-158 L178,-150 L117,-288 L97,-134 L50,-110 L59,-314 Z" stroke-width="0" fill="#000000" fill-opacity="0.788235294117647" />
<path d="M228,-173 L218,-176 L154,-52 L116,-280 L192,-141 L78,-129 Z" stroke-width="0" fill="#6e9e37" fill-opacity="0.1411764705882353" />
<path d="M116,-126 L213,-58 L213,-253 L89,-51 L240,-208 L133,-162 Z" stroke-width="0" fill="#86ac82" fill-opacity="0.9686274509803922" />
<path d="M124,-114 L114,-268 L156,-197 L73,-112 L96,-187 L236,-93 Z" stroke-width="0" fill="#f8e8ed" fill-opacity="0.09411764705882353" />
<path d="M230,-81 L123,-118 L200,-259 L38,-139 L127,-230 L65,-217 Z" stroke-width="0" fill="#bdc4a2" fill-opacity="0.35294117647058826" />
<path d="M66,-200 L97,-186 L108,-86 L115,-44 L146,-124 L122,-69 Z" stroke-width="0" fill="#d2fdbf" fill-opacity="0.8156862745098039" />
<path d="M107,-143 L57,-110 L56,-111 L216,-259 L29,-136 L227,-27 Z" stroke-width="0" fill="#103208" fill-opacity="0.8235294117647058" />
<path d="M140,-54 L163,-90 L80,-242 L127,-257 L140,-175 L217,-282 Z" stroke-width="0" fill="#f2f2ec" fill-opacity="0.09019607843137255" />
<path d="M152,-30 L134,-195 L35,-119 L82,-303 L59,-128 L150,-32 Z" stroke-width="0" fill="#000000" fill-opacity="0.7529411764705882" />
<path d="M93,-131 L203,-168 L208,-82 L97,-122 L97,-204 L168,-222 Z" stroke-width="0" fill="#bebee3" fill-opacity="0.6823529411764706" />
<path d="M235,-188 L87,-68 L209,-160 L126,-67 L152,-144 L38,-102 Z" stroke-width="0" fill="#1b353a" fill-opacity="0.996078431372549" />
<path d="M91,-196 L248,-308 L47,-32 L67,-265 L135,-86 L212,-244 Z" stroke-width="0" fill="#57df70" fill-opacity="0.5254901960784314" />
<path d="M239,-76 L59,-243 L224,-183 L63,-33 L194,-254 L237,-314 Z" stroke-width="0" fill="#6b0059" fill-opacity="0.396078431372549" />
<path d="M75,-324 L39,-41 L97,-269 L38,-214 L190,-168 L202,-229 Z" stroke-width="0" fill="#280000" fill-opacity="0.9647058823529412" />
<path d="M202,-100 L170,-290 L162,-315 L153,-199 L104,-69 L165,-108 Z" stroke-width="0" fill="#57a9cf" fill-opacity="0.8941176470588236" />
<path d="M178,-262 L179,-70 L77,-276 L52,-38 L52,-304 L110,-63 Z" stroke-width="0" fill="#000000" fill-opacity="0.6823529411764706" />
<path d="M179,-81 L139,-132 L62,-286 L148,-150 L157,-203 L207,-154 Z" stroke-width="0" fill="#07000e" fill-opacity="0.984313725490196" />
<path d="M116,-272 L186,-198 L71,-193 L145,-224 L76,-36 L238,-188 Z" stroke-width="0" fill="#000044" fill-opacity="0.9490196078431372" />
<path d="M104,-161 L194,-178 L184,-63 L232,-43 L99,-115 L37,-192 Z" stroke-width="0" fill="#643845" fill-opacity="0.796078431372549" />
<path d="M33,-256 L120,-303 L151,-181 L97,-145 L121,-28 L117,-213 Z" stroke-width="0" fill="#d4d3ea" fill-opacity="0.9450980392156862" />
<path d="M195,-119 L108,-44 L55,-260 L186,-60 L60,-215 L236,-38 Z" stroke-width="0" fill="#172709" fill-opacity="0.32941176470588235" />
<path d="M169,-138 L108,-184 L44,-244 L235,-96 L128,-292 L116,-55 Z" stroke-width="0" fill="#f5faf1" fill-opacity="0.807843137254902" />
<path d="M241,-126 L222,-59 L90,-133 L110,-142 L171,-60 L225,-193 Z" stroke-width="0" fill="#e1f7cc" fill-opacity="0.7294117647058823" />
<path d="M242,-188 L147,-38 L30,-86 L91,-61 L210,-184 L181,-293 Z" stroke-width="0" fill="#bfb7c3" fill-opacity="0.9372549019607843" />
<path d="M125,-112 L121,-234 L34,-273 L210,-109 L64,-145 L228,-139 Z" stroke-width="0" fill="#343100" fill-opacity="0.9215686274509803" />
<path d="M145,-181 L115,-252 L117,-29 L150,-43 L123,-151 L66,-120 Z" stroke-width="0" fill="#000a00" fill-opacity="0.5215686274509804" />
<path d="M229,-258 L234,-66 L116,-278 L92,-178 L29,-49 L25,-304 Z" stroke-width="0" fill="#d1ae86" fill-opacity="0.7843137254901961" />
<path d="M229,-218 L68,-98 L75,-197 L60,-80 L110,-144 L190,-118 Z" stroke-width="0" fill="#000000" fill-opacity="0.7294117647058823" />
<path d="M173,-187 L137,-41 L220,-122 L133,-74 L139,-195 L160,-232 Z" stroke-width="0" fill="#fcf9fa" fill-opacity="0.8392156862745098" />
<path d="M105,-194 L190,-203 L59,-30 L69,-243 L182,-74 L108,-219 Z" stroke-width="0" fill="#000000" fill-opacity="0.9490196078431372" />
<path d="M195,-155 L147,-153 L180,-98 L131,-130 L246,-32 L195,-229 Z" stroke-width="0" fill="#5c342c" fill-opacity="0.48627450980392156" />
<path d="M47,-97 L143,-82 L219,-111 L165,-238 L151,-37 L47,-199 Z" stroke-width="0" fill="#a2c5d1" fill-opacity="0.6980392156862745" />
<path d="M228,-107 L206,-98 L43,-273 L78,-265 L220,-304 L130,-108 Z" stroke-width="0" fill="#b2cea5" fill-opacity="0.788235294117647" />
<path d="M30,-304 L25,-76 L33,-152 L222,-30 L183,-92 L218,-277 Z" stroke-width="0" fill="#80576b" fill-opacity="0.3411764705882353" />
<path d="M158,-188 L32,-300 L43,-97 L108,-32 L105,-104 L166,-163 Z" stroke-width="0" fill="#e5aade" fill-opacity="0.26666666666666666" />
<path d="M155,-108 L243,-84 L176,-263 L47,-91 L49,-98 L111,-299 Z" stroke-width="0" fill="#d7d0e2" fill-opacity="0.6745098039215687" />
<path d="M81,-279 L180,-223 L202,-255 L172,-205 L105,-245 L160,-104 Z" stroke-width="0" fill="#000000" fill-opacity="0.9568627450980393" />
<path d="M48,-50 L224,-308 L188,-198 L97,-261 L203,-186 L149,-155 Z" stroke-width="0" fill="#998c71" fill-opacity="0.5019607843137255" />
<path d="M53,-38 L102,-223 L113,-145 L112,-137 L235,-134 L134,-180 Z" stroke-width="0" fill="#00000a" fill-opacity="0.792156862745098" />
<path d="M247,-79 L60,-179 L224,-61 L220,-131 L45,-87 L59,-37 Z" stroke-width="0" fill="#133118" fill-opacity="0.8470588235294118" />
<path d="M57,-51 L37,-105 L72,-250 L93,-31 L77,-185 L44,-86 Z" stroke-width="0" fill="#001f12" fill-opacity="0.984313725490196" />
<path d="M139,-47 L66,-264 L120,-82 L40,-63 L196,-260 L168,-182 Z" stroke-width="0" fill="#21002e" fill-opacity="0.5882352941176471" />
<path d="M113,-54 L219,-39 L242,-29 L31,-77 L34,-56 L213,-180 Z" stroke-width="0" fill="#000500" fill-opacity="0.6588235294117647" />
<path d="M192,-323 L93,-109 L43,-109 L232,-312 L147,-195 L245,-83 Z" stroke-width="0" fill="#d56045" fill-opacity="0.2823529411764706" />
<path d="M99,-314 L71,-185 L155,-179 L120,-291 L42,-72 L143,-140 Z" stroke-width="0" fill="#b98373" fill-opacity="0.40784313725490196" />
<path d="M80,-64 L48,-156 L94,-186 L110,-66 L30,-252 L29,-36 Z" stroke-width="0" fill="#4a0300" fill-opacity="0.7647058823529411" />
<path d="M142,-47 L48,-290 L147,-200 L197,-78 L218,-167 L129,-79 Z" stroke-width="0" fill="#e6f12f" fill-opacity="0.49411764705882355" />
<path d="M173,-301 L240,-70 L50,-153 L109,-140 L138,-205 L29,-159 Z" stroke-width="0" fill="#e39cf5" fill-opacity="0.48627450980392156" />
<path d="M63,-106 L61,-38 L190,-222 L39,-258 L196,-114 L48,-117 Z" stroke-width="0" fill="#7d4b06" fill-opacity="0.0196078431372549" />
<path d="M71,-307 L88,-282 L135,-39 L173,-38 L46,-201 L109,-118 Z" stroke-width="0" fill="#f6becb" fill-opacity="0.0392156862745098" />
<path d="M136,-207 L178,-138 L116,-234 L37,-277 L69,-168 L126,-160 Z" stroke-width="0" fill="#a7c900" fill-opacity="0.7647058823529411" />
<path d="M103,-36 L158,-100 L56,-106 L193,-65 L113,-210 L51,-209 Z" stroke-width="0" fill="#0b172c" fill-opacity="0.8313725490196079" />
<path d="M129,-67 L42,-167 L140,-82 L246,-264 L148,-224 L169,-321 Z" stroke-width="0" fill="#073f00" fill-opacity="0.5019607843137255" />
<path d="M90,-155 L168,-130 L183,-213 L190,-45 L219,-234 L206,-59 Z" stroke-width="0" fill="#2da260" fill-opacity="0.0" />
<path d="M88,-266 L116,-146 L82,-171 L63,-161 L220,-123 L231,-200 Z" stroke-width="0" fill="#234816" fill-opacity="0.8392156862745098" />
<path d="M59,-266 L133,-266 L94,-316 L160,-113 L210,-89 L102,-195 Z" stroke-width="0" fill="#5a1301" fill-opacity="0.9294117647058824" />
<path d="M127,-236 L170,-179 L79,-137 L198,-235 L120,-52 L162,-237 Z" stroke-width="0" fill="#82804c" fill-opacity="0.7490196078431373" />
<path d="M61,-101 L44,-50 L138,-202 L83,-85 L134,-284 L173,-196 Z" stroke-width="0" fill="#11130d" fill-opacity="0.011764705882352941" />
<path d="M83,-308 L130,-264 L144,-241 L90,-276 L240,-134 L212,-25 Z" stroke-width="0" fill="#bdbdad" fill-opacity="0.7372549019607844" />
<path d="M184,-38 L29,-66 L169,-314 L94,-130 L81,-37 L73,-101 Z" stroke-width="0" fill="#095d3c" fill-opacity="0.19215686274509805" />
<path d="M159,-279 L108,-138 L163,-70 L79,-75 L61,-180 L147,-189 Z" stroke-width="0" fill="#001d15" fill-opacity="0.5803921568627451" />
<path d="M30,-262 L129,-103 L169,-143 L109,-191 L83,-219 L122,-249 Z" stroke-width="0" fill="#e5ac79" fill-opacity="0.37254901960784315" />
<path d="M176,-121 L181,-107 L81,-296 L77,-29 L132,-193 L128,-302 Z" stroke-width="0" fill="#0c1717" fill-opacity="0.6823529411764706" />
<path d="M143,-153 L31,-189 L196,-282 L74,-79 L128,-133 L154,-91 Z" stroke-width="0" fill="#e5ca3f" fill-opacity="0.11372549019607843" />
<path d="M98,-119 L92,-68 L55,-192 L111,-275 L224,-233 L155,-205 Z" stroke-width="0" fill="#1e6af0" fill-opacity="0.23137254901960785" />
<path d="M51,-208 L222,-303 L214,-286 L77,-90 L54,-41 L45,-179 Z" stroke-width="0" fill="#0b1a5c" fill-opacity="0.15294117647058825" />
<path d="M128,-238 L46,-260 L142,-309 L124,-80 L225,-97 L29,-263 Z" stroke-width="0" fill="#7a9ba3" fill-opacity="0.8274509803921568" />
<path d="M136,-266 L66,-311 L71,-109 L150,-154 L152,-38 L186,-161 Z" stroke-width="0" fill="#5c5621" fill-opacity="0.3686274509803922" />
<path d="M178,-195 L138,-204 L235,-211 L148,-167 L195,-140 L248,-300 Z" stroke-width="0" fill="#153f0d" fill-opacity="0.3333333333333333" />
<path d="M205,-26 L167,-147 L180,-171 L115,-60 L45,-39 L30,-64 Z" stroke-width="0" fill="#1b2d19" fill-opacity="0.8274509803921568" />
<path d="M85,-272 L129,-115 L159,-296 L169,-28 L248,-295 L139,-111 Z" stroke-width="0" fill="#1c0f3d" fill-opacity="0.5019607843137255" />
<path d="M177,-72 L104,-78 L211,-27 L160,-314 L120,-47 L25,-302 Z" stroke-width="0" fill="#efb4ec" fill-opacity="0.5843137254901961" />
<path d="M118,-105 L119,-33 L115,-29 L240,-178 L185,-199 L159,-54 Z" stroke-width="0" fill="#9ab1d6" fill-opacity="0.054901960784313725" />
<path d="M242,-291 L200,-300 L83,-238 L165,-201 L145,-183 L56,-224 Z" stroke-width="0" fill="#b28aaf" fill-opacity="0.26666666666666666" />
<path d="M136,-108 L78,-190 L61,-37 L60,-39 L218,-179 L106,-106 Z" stroke-width="0" fill="#150000" fill-opacity="0.8980392156862745" />
<path d="M115,-316 L53,-275 L45,-320 L105,-213 L63,-260 L137,-143 Z" stroke-width="0" fill="#0b0600" fill-opacity="0.5019607843137255" />
<path d="M151,-45 L92,-130 L142,-201 L113,-45 L57,-170 L32,-139 Z" stroke-width="0" fill="#000200" fill-opacity="0.5098039215686274" />
<path d="M115,-228 L81,-185 L71,-68 L72,-136 L87,-167 L61,-255 Z" stroke-width="0" fill="#420e02" fill-opacity="0.8392156862745098" />
<path d="M62,-172 L186,-187 L223,-108 L235,-115 L28,-217 L184,-74 Z" stroke-width="0" fill="#f8ebb1" fill-opacity="0.43137254901960786" />
<path d="M45,-186 L157,-132 L161,-237 L182,-79 L249,-117 L89,-309 Z" stroke-width="0" fill="#cbd8f0" fill-opacity="0.0784313725490196" />
<path d="M40,-50 L179,-242 L76,-202 L249,-79 L225,-131 L206,-304 Z" stroke-width="0" fill="#947bb8" fill-opacity="0.24313725490196078" />
<path d="M98,-166 L108,-323 L97,-310 L210,-31 L43,-214 L209,-309 Z" stroke-width="0" fill="#97a5cd" fill-opacity="0.6941176470588235" />
<path d="M150,-134 L135,-173 L75,-250 L156,-232 L121,-31 L131,-61 Z" stroke-width="0" fill="#a198f7" fill-opacity="0.803921568627451" />
<path d="M211,-263 L186,-318 L26,-33 L30,-175 L48,-144 L37,-43 Z" stroke-width="0" fill="#66c59d" fill-opacity="0.3137254901960784" />
<path d="M70,-186 L78,-171 L27,-315 L59,-169 L82,-27 L187,-97 Z" stroke-width="0" fill="#430d00" fill-opacity="0.2196078431372549" />
<path d="M33,-123 L40,-200 L146,-298 L100,-100 L141,-302 L215,-108 Z" stroke-width="0" fill="#8dd9a1" fill-opacity="0.21176470588235294" />
<path d="M176,-152 L111,-226 L38,-305 L81,-135 L30,-218 L205,-77 Z" stroke-width="0" fill="#623b38" fill-opacity="0.23529411764705882" />
<path d="M136,-277 L214,-104 L59,-52 L90,-140 L162,-232 L216,-91 Z" stroke-width="0" fill="#bad8f7" fill-opacity="0.1843137254901961" />
<path d="M75,-175 L34,-264 L92,-99 L220,-128 L87,-27 L212,-223 Z" stroke-width="0" fill="#aff1ec" fill-opacity="0.12156862745098039" />
<path d="M236,-83 L31,-89 L243,-234 L175,-42 L206,-148 L87,-40 Z" stroke-width="0" fill="#02341d" fill-opacity="0.2196078431372549" />
<path d="M35,-284 L121,-263 L77,-312 L40,-205 L26,-113 L153,-119 Z" stroke-width="0" fill="#260000" fill-opacity="0.5019607843137255" />
<path d="M142,-255 L36,-307 L56,-74 L178,-49 L101,-243 L52,-192 Z" stroke-width="0" fill="#100100" fill-opacity="0.5019607843137255" />
<path d="M91,-198 L204,-196 L160,-117 L117,-141 L181,-68 L123,-37 Z" stroke-width="0" fill="#afbad4" fill-opacity="0.8862745098039215" />
<path d="M110,-34 L103,-201 L190,-175 L173,-96 L231,-93 L31,-197 Z" stroke-width="0" fill="#3949af" fill-opacity="0.10588235294117647" />
<text x="137.5" y="12.5" font-size="20.0" fill="black" text-anchor="middle" transform="translate(0,5.0)">6 OF FIRE</text>
</svg>