<?xml version="1.0" encoding="UTF-8"?>
<svg xmlns="http://www.w3.org/2000/svg" xmlns:xlink="http://www.w3.org/1999/xlink"
     width="896" height="1496" viewBox="0 -1400 896 1496" style="font-size:70;font-family:Poor Richard, Times New Roman;stroke:black;stroke-width:1;fill:none">
<defs>
</defs>
<path d="M838,-930 L586,-446 L502,-274 L414,-1166 L766,-286 L170,-450 Z" stroke-width="0" fill="#d22e75" fill-opacity="0.4823529411764706" />
<path d="M234,-82 L490,-874 L918,-346 L894,-626 L134,-218 L662,-626 Z" stroke-width="0" fill="#4a0c00" fill-opacity="0.9725490196078431" />
<path d="M162,-610 L822,-818 L358,-198 L662,-754 L694,-1134 L98,-346 Z" stroke-width="0" fill="#2a7900" fill-opacity="0.8980392156862745" />
<path d="M82,-138 L418,-618 L790,-898 L418,-202 L610,-262 L610,-222 Z" stroke-width="0" fill="#0a0000" fill-opacity="0.9529411764705882" />
<path d="M366,-98 L550,-878 L842,-814 L526,-718 L866,-1226 L506,-142 Z" stroke-width="0" fill="#3b0000" fill-opacity="0.8901960784313725" />
<path d="M442,-670 L418,-238 L110,-514 L542,-566 L318,-1270 L514,-574 Z" stroke-width="0" fill="#6d5900" fill-opacity="0.6980392156862745" />
<path d="M662,-802 L426,-106 L822,-1198 L474,-1194 L118,-298 L290,-978 Z" stroke-width="0" fill="#e3d62c" fill-opacity="0.20392156862745098" />
<path d="M850,-822 L854,-326 L906,-366 L814,-998 L690,-966 L954,-838 Z" stroke-width="0" fill="#ba4900" fill-opacity="0.7411764705882353" />
<path d="M482,-826 L94,-1202 L114,-934 L910,-166 L470,-978 L462,-210 Z" stroke-width="0" fill="#000000" fill-opacity="0.8509803921568627" />
<path d="M386,-230 L450,-694 L290,-882 L418,-1102 L246,-1110 L426,-658 Z" stroke-width="0" fill="#61bf16" fill-opacity="0.8470588235294118" />
<path d="M598,-678 L966,-838 L686,-534 L894,-454 L710,-878 L866,-146 Z" stroke-width="0" fill="#7a3500" fill-opacity="0.9450980392156862" />
<path d="M442,-702 L314,-1214 L722,-626 L238,-594 L146,-554 L178,-686 Z" stroke-width="0" fill="#455490" fill-opacity="0.8117647058823529" />
<path d="M110,-134 L566,-710 L642,-274 L678,-730 L814,-94 L530,-318 Z" stroke-width="0" fill="#6f4504" fill-opacity="0.9686274509803922" />
<path d="M602,-1234 L746,-126 L90,-190 L458,-566 L870,-174 L490,-974 Z" stroke-width="0" fill="#591d00" fill-opacity="0.9411764705882353" />
<path d="M106,-958 L142,-966 L562,-638 L382,-246 L586,-122 L614,-1010 Z" stroke-width="0" fill="#472600" fill-opacity="0.7098039215686275" />
<path d="M790,-1022 L478,-166 L150,-298 L338,-734 L934,-1258 L958,-1186 Z" stroke-width="0" fill="#2e0200" fill-opacity="0.7450980392156863" />
<path d="M122,-806 L938,-318 L390,-114 L590,-882 L638,-282 L662,-258 Z" stroke-width="0" fill="#4d1000" fill-opacity="0.8431372549019608" />
<path d="M478,-490 L286,-750 L410,-478 L482,-902 L650,-130 L334,-450 Z" stroke-width="0" fill="#0ff722" fill-opacity="0.047058823529411764" />
<path d="M186,-706 L518,-546 L598,-90 L522,-562 L234,-1022 L182,-930 Z" stroke-width="0" fill="#1b0000" fill-opacity="0.8" />
<path d="M858,-326 L122,-910 L498,-1082 L882,-1054 L154,-138 L602,-254 Z" stroke-width="0" fill="#110000" fill-opacity="0.8980392156862745" />
<path d="M610,-382 L330,-162 L98,-510 L318,-438 L878,-194 L486,-274 Z" stroke-width="0" fill="#7a0c1d" fill-opacity="0.996078431372549" />
<path d="M326,-666 L730,-414 L110,-358 L490,-246 L622,-654 L818,-614 Z" stroke-width="0" fill="#5ab52d" fill-opacity="0.6078431372549019" />
<path d="M234,-710 L762,-326 L674,-986 L650,-1106 L578,-278 L802,-810 Z" stroke-width="0" fill="#d68c26" fill-opacity="0.5568627450980392" />
<path d="M474,-886 L914,-170 L518,-1126 L458,-610 L502,-578 L186,-866 Z" stroke-width="0" fill="#632300" fill-opacity="0.7333333333333333" />
<path d="M814,-1090 L978,-518 L842,-298 L918,-710 L190,-362 L654,-1194 Z" stroke-width="0" fill="#000000" fill-opacity="0.7058823529411765" />
<path d="M602,-678 L602,-650 L574,-1022 L870,-346 L154,-306 L330,-718 Z" stroke-width="0" fill="#cc2682" fill-opacity="0.13333333333333333" />
<path d="M610,-534 L490,-666 L122,-1238 L318,-710 L526,-82 L226,-850 Z" stroke-width="0" fill="#160000" fill-opacity="0.8352941176470589" />
<path d="M918,-114 L654,-382 L726,-594 L658,-98 L918,-342 L338,-662 Z" stroke-width="0" fill="#806021" fill-opacity="0.788235294117647" />
<path d="M266,-1234 L546,-370 L838,-190 L866,-1070 L518,-654 L610,-398 Z" stroke-width="0" fill="#2d001f" fill-opacity="0.8509803921568627" />
<path d="M262,-662 L98,-626 L346,-1218 L562,-430 L774,-370 L650,-974 Z" stroke-width="0" fill="#0d0000" fill-opacity="0.803921568627451" />
<path d="M750,-594 L246,-1158 L694,-1278 L690,-454 L86,-238 L218,-714 Z" stroke-width="0" fill="#1f0000" fill-opacity="0.9607843137254902" />
<path d="M762,-1134 L138,-1098 L482,-294 L98,-798 L786,-938 L954,-874 Z" stroke-width="0" fill="#332e00" fill-opacity="0.8549019607843137" />
<path d="M274,-406 L658,-682 L238,-1146 L682,-1234 L246,-386 L142,-106 Z" stroke-width="0" fill="#da3300" fill-opacity="0.9254901960784314" />
<path d="M514,-578 L162,-1054 L586,-566 L442,-234 L462,-1194 L302,-934 Z" stroke-width="0" fill="#377b1d" fill-opacity="0.18823529411764706" />
<path d="M610,-1010 L350,-1230 L430,-214 L174,-794 L326,-314 L298,-722 Z" stroke-width="0" fill="#82bc28" fill-opacity="0.5019607843137255" />
<path d="M766,-1066 L130,-646 L342,-470 L202,-1238 L282,-382 L262,-422 Z" stroke-width="0" fill="#19dcb4" fill-opacity="0.7215686274509804" />
<path d="M438,-298 L970,-446 L202,-222 L662,-1130 L518,-130 L174,-398 Z" stroke-width="0" fill="#90a507" fill-opacity="0.9450980392156862" />
<path d="M682,-90 L538,-1006 L542,-1050 L222,-1214 L106,-410 L98,-470 Z" stroke-width="0" fill="#370002" fill-opacity="0.8588235294117647" />
<path d="M686,-906 L546,-854 L550,-1246 L482,-898 L962,-1074 L526,-326 Z" stroke-width="0" fill="#330000" fill-opacity="0.6274509803921569" />
<path d="M362,-1242 L362,-670 L574,-1006 L398,-722 L466,-354 L262,-182 Z" stroke-width="0" fill="#b332d7" fill-opacity="0.00392156862745098" />
<path d="M666,-478 L318,-706 L414,-266 L834,-258 L934,-998 L98,-522 Z" stroke-width="0" fill="#806500" fill-opacity="0.9058823529411765" />
<path d="M158,-1062 L414,-538 L190,-1270 L966,-958 L510,-1230 L114,-350 Z" stroke-width="0" fill="#6e3e00" fill-opacity="0.7803921568627451" />
<path d="M150,-474 L350,-746 L522,-1254 L326,-698 L146,-158 L162,-482 Z" stroke-width="0" fill="#050000" fill-opacity="0.8431372549019608" />
<path d="M394,-170 L270,-98 L862,-806 L618,-298 L522,-990 L358,-706 Z" stroke-width="0" fill="#1f0000" fill-opacity="0.8470588235294118" />
<path d="M262,-722 L238,-970 L746,-930 L430,-682 L346,-258 L114,-282 Z" stroke-width="0" fill="#000000" fill-opacity="0.8745098039215686" />
<path d="M778,-1194 L210,-974 L170,-354 L594,-586 L702,-734 L602,-238 Z" stroke-width="0" fill="#cffb62" fill-opacity="0.6431372549019608" />
<path d="M574,-910 L98,-694 L282,-730 L158,-170 L278,-634 L766,-582 Z" stroke-width="0" fill="#451b00" fill-opacity="0.8745098039215686" />
<path d="M214,-1022 L790,-214 L466,-962 L158,-1186 L310,-902 L230,-130 Z" stroke-width="0" fill="#1e0e01" fill-opacity="0.9568627450980393" />
<path d="M562,-550 L550,-1170 L374,-90 L122,-682 L86,-282 L814,-850 Z" stroke-width="0" fill="#3f0000" fill-opacity="0.9098039215686274" />
<path d="M938,-470 L430,-434 L190,-702 L82,-114 L290,-810 L118,-386 Z" stroke-width="0" fill="#000000" fill-opacity="0.6470588235294118" />
<path d="M730,-1054 L318,-274 L698,-494 L494,-194 L434,-550 L138,-550 Z" stroke-width="0" fill="#db6995" fill-opacity="0.5019607843137255" />
<path d="M386,-614 L698,-314 L222,-810 L294,-1030 L602,-834 L658,-1266 Z" stroke-width="0" fill="#eaea4a" fill-opacity="0.7607843137254902" />
<path d="M666,-814 L394,-466 L814,-1126 L262,-1018 L742,-510 L442,-274 Z" stroke-width="0" fill="#e9df00" fill-opacity="0.9372549019607843" />
<path d="M442,-966 L690,-342 L910,-1182 L458,-522 L818,-474 L978,-298 Z" stroke-width="0" fill="#686115" fill-opacity="0.8470588235294118" />
<path d="M622,-110 L154,-590 L158,-186 L934,-606 L194,-646 L786,-242 Z" stroke-width="0" fill="#b06d0f" fill-opacity="0.3568627450980392" />
<path d="M514,-498 L158,-914 L230,-1278 L274,-266 L666,-490 L522,-118 Z" stroke-width="0" fill="#311d17" fill-opacity="0.7764705882352941" />
<path d="M782,-498 L274,-754 L378,-542 L330,-882 L618,-550 L554,-458 Z" stroke-width="0" fill="#1752e9" fill-opacity="0.42745098039215684" />
<path d="M98,-638 L950,-178 L390,-1022 L382,-878 L178,-130 L910,-818 Z" stroke-width="0" fill="#711e09" fill-opacity="0.8117647058823529" />
<path d="M546,-458 L526,-262 L278,-470 L554,-862 L706,-1062 L542,-142 Z" stroke-width="0" fill="#de0f00" fill-opacity="0.24313725490196078" />
<path d="M646,-790 L262,-702 L450,-982 L826,-478 L750,-334 L822,-954 Z" stroke-width="0" fill="#8eba1b" fill-opacity="0.6980392156862745" />
<path d="M158,-1210 L358,-926 L622,-490 L554,-734 L142,-1126 L218,-366 Z" stroke-width="0" fill="#322a0b" fill-opacity="0.6666666666666666" />
<path d="M386,-322 L694,-810 L946,-842 L610,-678 L82,-706 L342,-1274 Z" stroke-width="0" fill="#4b1b00" fill-opacity="0.8117647058823529" />
<path d="M314,-1206 L802,-214 L414,-542 L642,-90 L266,-222 L210,-818 Z" stroke-width="0" fill="#410500" fill-opacity="0.8235294117647058" />
<path d="M414,-146 L594,-854 L514,-946 L602,-350 L578,-98 L486,-710 Z" stroke-width="0" fill="#543400" fill-opacity="0.8823529411764706" />
<path d="M566,-858 L98,-174 L726,-398 L162,-578 L110,-522 L770,-442 Z" stroke-width="0" fill="#000000" fill-opacity="0.996078431372549" />
<path d="M774,-102 L118,-310 L222,-638 L510,-486 L822,-490 L250,-346 Z" stroke-width="0" fill="#3c0004" fill-opacity="0.6039215686274509" />
<path d="M246,-1270 L114,-390 L150,-270 L682,-890 L266,-390 L942,-1254 Z" stroke-width="0" fill="#655100" fill-opacity="0.7176470588235294" />
<path d="M454,-438 L702,-462 L954,-470 L778,-306 L498,-786 L358,-954 Z" stroke-width="0" fill="#6d1d00" fill-opacity="0.5019607843137255" />
<path d="M814,-1094 L522,-142 L486,-586 L350,-174 L538,-550 L862,-134 Z" stroke-width="0" fill="#946908" fill-opacity="0.6352941176470588" />
<path d="M818,-226 L314,-622 L314,-1090 L814,-774 L370,-506 L654,-538 Z" stroke-width="0" fill="#a12a44" fill-opacity="0.19215686274509805" />
<path d="M118,-614 L706,-842 L590,-546 L522,-162 L818,-1258 L302,-90 Z" stroke-width="0" fill="#312900" fill-opacity="0.7215686274509804" />
<path d="M666,-94 L246,-718 L926,-474 L138,-354 L346,-1074 L966,-638 Z" stroke-width="0" fill="#6f210a" fill-opacity="0.6980392156862745" />
<path d="M570,-246 L674,-634 L218,-454 L142,-242 L766,-118 L394,-690 Z" stroke-width="0" fill="#371f05" fill-opacity="0.17647058823529413" />
<path d="M698,-722 L550,-82 L310,-794 L678,-682 L362,-466 L214,-322 Z" stroke-width="0" fill="#6e390a" fill-opacity="1.0" />
<path d="M582,-710 L358,-330 L118,-854 L666,-218 L394,-174 L502,-546 Z" stroke-width="0" fill="#4e2e20" fill-opacity="0.9450980392156862" />
<path d="M206,-670 L194,-150 L218,-1002 L662,-1250 L362,-154 L766,-386 Z" stroke-width="0" fill="#ad5d0f" fill-opacity="0.27450980392156865" />
<path d="M894,-1062 L390,-106 L926,-750 L458,-298 L306,-222 L330,-482 Z" stroke-width="0" fill="#500b00" fill-opacity="0.5294117647058824" />
<path d="M690,-570 L446,-962 L610,-558 L446,-238 L378,-1030 L218,-166 Z" stroke-width="0" fill="#160b00" fill-opacity="0.5019607843137255" />
<path d="M322,-102 L938,-598 L442,-938 L410,-774 L146,-162 L278,-1158 Z" stroke-width="0" fill="#164200" fill-opacity="0.2549019607843137" />
<path d="M214,-262 L946,-210 L514,-190 L950,-478 L114,-678 L306,-1198 Z" stroke-width="0" fill="#5a091d" fill-opacity="0.28627450980392155" />
<path d="M930,-378 L630,-814 L950,-782 L466,-330 L230,-530 L654,-810 Z" stroke-width="0" fill="#d94b09" fill-opacity="0.9333333333333333" />
<path d="M410,-818 L598,-482 L954,-394 L106,-1234 L522,-1266 L94,-374 Z" stroke-width="0" fill="#7c4400" fill-opacity="0.8901960784313725" />
<path d="M118,-1146 L870,-1198 L182,-442 L454,-626 L214,-298 L134,-1098 Z" stroke-width="0" fill="#890f00" fill-opacity="0.12941176470588237" />
<path d="M738,-1066 L790,-294 L474,-134 L294,-202 L662,-238 L642,-250 Z" stroke-width="0" fill="#2e1e00" fill-opacity="0.30980392156862746" />
<path d="M246,-210 L322,-374 L198,-794 L150,-546 L682,-930 L978,-670 Z" stroke-width="0" fill="#854000" fill-opacity="0.6392156862745098" />
<path d="M918,-474 L94,-134 L918,-1274 L142,-1274 L666,-434 L870,-1182 Z" stroke-width="0" fill="#1b000c" fill-opacity="0.5490196078431373" />
<path d="M874,-390 L346,-998 L882,-226 L546,-706 L558,-166 L478,-218 Z" stroke-width="0" fill="#a25d7b" fill-opacity="0.23137254901960785" />
<path d="M274,-934 L702,-886 L770,-930 L802,-1146 L334,-430 L286,-374 Z" stroke-width="0" fill="#813907" fill-opacity="0.6470588235294118" />
<path d="M86,-834 L538,-482 L322,-442 L174,-338 L906,-626 L802,-582 Z" stroke-width="0" fill="#784a09" fill-opacity="0.6941176470588235" />
<path d="M210,-330 L682,-114 L494,-198 L374,-310 L494,-326 L562,-390 Z" stroke-width="0" fill="#ebc07c" fill-opacity="0.058823529411764705" />
<path d="M898,-858 L242,-690 L950,-966 L294,-902 L774,-778 L766,-310 Z" stroke-width="0" fill="#b3480a" fill-opacity="0.49019607843137253" />
<path d="M722,-998 L254,-434 L710,-1054 L94,-198 L826,-266 L578,-1190 Z" stroke-width="0" fill="#5e4100" fill-opacity="0.3333333333333333" />
<path d="M542,-598 L930,-238 L306,-370 L846,-814 L778,-1154 L958,-822 Z" stroke-width="0" fill="#8c4c18" fill-opacity="0.7490196078431373" />
<path d="M758,-118 L558,-718 L230,-606 L762,-798 L910,-254 L314,-270 Z" stroke-width="0" fill="#ce9851" fill-opacity="0.15294117647058825" />
<path d="M734,-102 L618,-618 L866,-174 L502,-942 L130,-266 L370,-550 Z" stroke-width="0" fill="#8c470b" fill-opacity="0.13333333333333333" />
<path d="M298,-522 L266,-1274 L950,-354 L246,-530 L354,-606 L198,-614 Z" stroke-width="0" fill="#4c1c05" fill-opacity="0.5490196078431373" />
<path d="M426,-158 L614,-526 L942,-346 L642,-874 L386,-1046 L338,-1078 Z" stroke-width="0" fill="#406f19" fill-opacity="0.2" />
<path d="M850,-530 L506,-586 L222,-766 L210,-378 L154,-446 L962,-538 Z" stroke-width="0" fill="#fec2c7" fill-opacity="0.00784313725490196" />
<path d="M422,-138 L422,-682 L878,-634 L102,-258 L558,-1230 L394,-262 Z" stroke-width="0" fill="#3a3700" fill-opacity="0.5019607843137255" />
<path d="M390,-758 L434,-898 L950,-566 L562,-518 L126,-730 L934,-614 Z" stroke-width="0" fill="#893b0b" fill-opacity="0.611764705882353" />
<text x="448.0" y="0" font-size="70.0" fill="black" text-anchor="middle" transform="translate(0,17.5)">3 OF FIRE</text>
</svg>