<?xml version="1.0" encoding="UTF-8"?>
<svg xmlns="http://www.w3.org/2000/svg" xmlns:xlink="http://www.w3.org/1999/xlink"
     width="275" height="375" viewBox="0 -350 275 375">
<defs>
</defs>
<rect x="15" y="-335" width="245" height="320" stroke="black" stroke-width="4" fill="white" />
<path d="M184,-200 L159,-198 L28,-247 L184,-39 L200,-49 L123,-57 Z" stroke-width="0" fill="#673d65" fill-opacity="0.07058823529411765" />
<path d="M101,-56 L66,-318 L219,-178 L38,-237 L78,-320 L247,-263 Z" stroke-width="0" fill="#14e1be" fill-opacity="0.011764705882352941" />
<path d="M27,-258 L31,-289 L75,-37 L135,-163 L100,-265 L163,-131 Z" stroke-width="0" fill="#0d0016" fill-opacity="0.10980392156862745" />
<path d="M114,-241 L175,-229 L181,-315 L91,-289 L64,-189 L62,-66 Z" stroke-width="0" fill="#adbabf" fill-opacity="0.22745098039215686" />
<path d="M207,-109 L29,-227 L213,-76 L137,-143 L85,-278 L227,-185 Z" stroke-width="0" fill="#0b0b00" fill-opacity="0.9294117647058824" />
<path d="M41,-309 L105,-298 L181,-265 L171,-220 L85,-209 L185,-320 Z" stroke-width="0" fill="#242325" fill-opacity="0.12156862745098039" />
<path d="M154,-223 L93,-283 L57,-154 L29,-246 L85,-100 L168,-115 Z" stroke-width="0" fill="#e0faf3" fill-opacity="0.9019607843137255" />
<path d="M181,-243 L40,-302 L132,-178 L232,-95 L70,-290 L110,-48 Z" stroke-width="0" fill="#aef3d5" fill-opacity="0.34901960784313724" />
<path d="M84,-255 L131,-143 L93,-150 L132,-103 L241,-194 L163,-290 Z" stroke-width="0" fill="#013316" fill-opacity="0.6901960784313725" />
<path d="M65,-269 L146,-43 L171,-324 L58,-50 L128,-58 L136,-58 Z" stroke-width="0" fill="#e6e6f2" fill-opacity="0.8980392156862745" />
<path d="M218,-185 L107,-306 L199,-35 L82,-96 L65,-181 L77,-98 Z" stroke-width="0" fill="#270e02" fill-opacity="0.047058823529411764" />
<path d="M100,-138 L121,-51 L146,-117 L127,-241 L41,-61 L206,-231 Z" stroke-width="0" fill="#488923" fill-opacity="0.3686274509803922" />
<path d="M185,-188 L199,-256 L41,-113 L133,-91 L76,-170 L79,-142 Z" stroke-width="0" fill="#0c9feb" fill-opacity="0.14901960784313725" />
<path d="M134,-182 L89,-76 L152,-59 L82,-181 L226,-141 L234,-46 Z" stroke-width="0" fill="#542440" fill-opacity="0.48627450980392156" />
<path d="M101,-145 L122,-138 L65,-266 L235,-133 L39,-101 L123,-276 Z" stroke-width="0" fill="#160801" fill-opacity="0.611764705882353" />
<path d="M182,-105 L180,-244 L131,-172 L231,-296 L172,-83 L158,-86 Z" stroke-width="0" fill="#acc4e2" fill-opacity="0.09411764705882353" />
<path d="M62,-28 L204,-69 L153,-84 L31,-129 L181,-161 L187,-120 Z" stroke-width="0" fill="#3e4b81" fill-opacity="0.1450980392156863" />
<path d="M82,-154 L162,-137 L122,-92 L232,-53 L56,-184 L135,-179 Z" stroke-width="0" fill="#52f82b" fill-opacity="0.9921568627450981" />
<path d="M81,-84 L164,-186 L80,-309 L145,-191 L172,-57 L186,-228 Z" stroke-width="0" fill="#ecfcf4" fill-opacity="0.43137254901960786" />
<path d="M29,-255 L53,-207 L146,-52 L208,-232 L98,-51 L96,-179 Z" stroke-width="0" fill="#689362" fill-opacity="0.1411764705882353" />
<path d="M95,-127 L100,-161 L121,-133 L84,-253 L35,-258 L101,-143 Z" stroke-width="0" fill="#d4fafb" fill-opacity="0.15294117647058825" />
<path d="M39,-246 L63,-265 L45,-41 L32,-132 L37,-235 L82,-118 Z" stroke-width="0" fill="#292149" fill-opacity="0.12156862745098039" />
<path d="M229,-298 L188,-221 L31,-296 L222,-130 L182,-71 L206,-208 Z" stroke-width="0" fill="#ff5707" fill-opacity="0.07450980392156863" />
<path d="M201,-77 L185,-26 L184,-88 L66,-54 L188,-211 L72,-320 Z" stroke-width="0" fill="#988fe2" fill-opacity="0.30980392156862746" />
<path d="M109,-65 L198,-45 L48,-80 L28,-145 L60,-282 L206,-185 Z" stroke-width="0" fill="#e4bc31" fill-opacity="0.0196078431372549" />
<path d="M155,-155 L217,-272 L58,-33 L126,-227 L110,-267 L69,-156 Z" stroke-width="0" fill="#f3e88b" fill-opacity="0.1803921568627451" />
<path d="M168,-181 L93,-95 L170,-157 L191,-137 L133,-56 L129,-233 Z" stroke-width="0" fill="#dbd6ff" fill-opacity="0.996078431372549" />
<path d="M181,-76 L108,-245 L137,-81 L34,-131 L85,-26 L205,-307 Z" stroke-width="0" fill="#c8e9c3" fill-opacity="0.11372549019607843" />
<path d="M198,-29 L31,-73 L204,-170 L212,-147 L184,-222 L39,-176 Z" stroke-width="0" fill="#584710" fill-opacity="0.18823529411764706" />
<path d="M32,-139 L131,-48 L78,-271 L138,-292 L140,-266 L146,-132 Z" stroke-width="0" fill="#ead0cb" fill-opacity="0.36470588235294116" />
<path d="M207,-67 L30,-273 L135,-57 L178,-276 L69,-208 L216,-51 Z" stroke-width="0" fill="#f8d3ea" fill-opacity="0.14901960784313725" />
<path d="M230,-45 L92,-103 L211,-317 L86,-78 L31,-316 L54,-194 Z" stroke-width="0" fill="#1093fd" fill-opacity="0.043137254901960784" />
<path d="M112,-58 L186,-58 L220,-193 L130,-144 L46,-184 L29,-100 Z" stroke-width="0" fill="#5b072a" fill-opacity="0.18823529411764706" />
<path d="M88,-255 L116,-282 L60,-101 L81,-306 L144,-126 L110,-312 Z" stroke-width="0" fill="#ddd7fd" fill-opacity="0.07450980392156863" />
<path d="M92,-294 L186,-149 L234,-245 L123,-72 L56,-108 L173,-273 Z" stroke-width="0" fill="#def4f6" fill-opacity="0.8705882352941177" />
<path d="M227,-188 L99,-265 L206,-108 L95,-188 L61,-100 L97,-219 Z" stroke-width="0" fill="#af0408" fill-opacity="0.12549019607843137" />
<path d="M123,-110 L105,-308 L73,-210 L32,-218 L69,-68 L124,-92 Z" stroke-width="0" fill="#d4f0db" fill-opacity="0.6078431372549019" />
<path d="M170,-157 L93,-285 L136,-151 L26,-132 L175,-174 L60,-65 Z" stroke-width="0" fill="#bfc25e" fill-opacity="0.24313725490196078" />
<path d="M201,-120 L70,-150 L190,-272 L76,-304 L193,-109 L54,-198 Z" stroke-width="0" fill="#efd5d8" fill-opacity="0.7019607843137254" />
<path d="M48,-221 L129,-219 L108,-193 L71,-198 L74,-280 L82,-82 Z" stroke-width="0" fill="#d9fcdb" fill-opacity="0.8862745098039215" />
<path d="M85,-318 L215,-176 L227,-309 L243,-163 L111,-185 L57,-237 Z" stroke-width="0" fill="#514d14" fill-opacity="0.2" />
<path d="M71,-256 L197,-268 L170,-145 L121,-236 L103,-151 L95,-165 Z" stroke-width="0" fill="#e71738" fill-opacity="0.10196078431372549" />
<path d="M98,-77 L46,-123 L176,-283 L189,-114 L111,-80 L165,-257 Z" stroke-width="0" fill="#f5fce2" fill-opacity="0.8352941176470589" />
<path d="M169,-89 L30,-71 L177,-317 L238,-126 L174,-252 L146,-91 Z" stroke-width="0" fill="#cac4ca" fill-opacity="0.396078431372549" />
<path d="M67,-270 L151,-125 L176,-127 L107,-217 L168,-105 L187,-64 Z" stroke-width="0" fill="#e5cbb3" fill-opacity="0.9647058823529412" />
<path d="M170,-48 L248,-244 L154,-45 L71,-128 L151,-39 L46,-51 Z" stroke-width="0" fill="#373702" fill-opacity="0.37254901960784315" />
<path d="M38,-122 L215,-66 L86,-145 L159,-98 L136,-87 L141,-85 Z" stroke-width="0" fill="#481c66" fill-opacity="0.7843137254901961" />
<path d="M36,-239 L52,-43 L136,-35 L154,-227 L192,-205 L195,-92 Z" stroke-width="0" fill="#efe4f3" fill-opacity="0.7215686274509804" />
<path d="M74,-132 L248,-54 L152,-36 L130,-90 L192,-314 L180,-111 Z" stroke-width="0" fill="#e9dde7" fill-opacity="0.596078431372549" />
<path d="M43,-121 L60,-239 L124,-192 L45,-237 L153,-253 L95,-93 Z" stroke-width="0" fill="#eb2926" fill-opacity="0.8705882352941177" />
<path d="M47,-89 L231,-322 L52,-182 L195,-242 L221,-75 L108,-141 Z" stroke-width="0" fill="#7c2a55" fill-opacity="0.25098039215686274" />
<path d="M210,-269 L102,-299 L201,-133 L161,-319 L216,-101 L193,-190 Z" stroke-width="0" fill="#f5f0fc" fill-opacity="0.403921568627451" />
<path d="M51,-152 L225,-214 L86,-251 L180,-100 L140,-254 L247,-57 Z" stroke-width="0" fill="#011615" fill-opacity="0.7019607843137254" />
<path d="M58,-285 L56,-61 L150,-43 L29,-109 L122,-143 L30,-42 Z" stroke-width="0" fill="#f4fbf0" fill-opacity="0.8392156862745098" />
<path d="M134,-267 L68,-129 L25,-87 L96,-294 L68,-150 L71,-152 Z" stroke-width="0" fill="#d2fef7" fill-opacity="0.6862745098039216" />
<path d="M86,-112 L163,-221 L236,-102 L131,-81 L149,-119 L39,-136 Z" stroke-width="0" fill="#62840e" fill-opacity="0.03529411764705882" />
<path d="M233,-143 L112,-234 L125,-104 L128,-238 L217,-298 L212,-53 Z" stroke-width="0" fill="#90613c" fill-opacity="0.25882352941176473" />
<path d="M86,-222 L186,-31 L171,-105 L115,-50 L78,-149 L95,-274 Z" stroke-width="0" fill="#61aec9" fill-opacity="0.16470588235294117" />
<path d="M145,-107 L92,-286 L85,-68 L52,-248 L78,-152 L87,-53 Z" stroke-width="0" fill="#fdd6f2" fill-opacity="0.792156862745098" />
<path d="M167,-86 L51,-261 L208,-67 L59,-264 L58,-34 L74,-57 Z" stroke-width="0" fill="#feedee" fill-opacity="0.9372549019607843" />
<path d="M77,-69 L112,-57 L198,-89 L104,-90 L96,-31 L238,-44 Z" stroke-width="0" fill="#5f6772" fill-opacity="0.19215686274509805" />
<path d="M183,-221 L120,-179 L83,-102 L138,-169 L164,-89 L69,-181 Z" stroke-width="0" fill="#c1d1fd" fill-opacity="0.6901960784313725" />
<path d="M187,-281 L132,-260 L81,-38 L115,-254 L87,-315 L56,-39 Z" stroke-width="0" fill="#fdeed8" fill-opacity="0.5607843137254902" />
<path d="M32,-318 L54,-94 L82,-246 L124,-44 L153,-145 L130,-75 Z" stroke-width="0" fill="#ddd6c9" fill-opacity="0.5254901960784314" />
<path d="M185,-162 L168,-57 L51,-198 L185,-233 L33,-144 L64,-33 Z" stroke-width="0" fill="#67cad3" fill-opacity="0.19215686274509805" />
<path d="M61,-116 L71,-153 L238,-30 L212,-272 L215,-94 L227,-65 Z" stroke-width="0" fill="#665899" fill-opacity="0.3803921568627451" />
<path d="M32,-111 L118,-28 L83,-319 L121,-129 L79,-269 L59,-278 Z" stroke-width="0" fill="#e8dafe" fill-opacity="0.7137254901960784" />
<path d="M213,-166 L78,-109 L189,-233 L30,-66 L181,-311 L97,-42 Z" stroke-width="0" fill="#c5e9fc" fill-opacity="0.03529411764705882" />
<path d="M77,-184 L28,-54 L64,-152 L72,-257 L63,-175 L227,-293 Z" stroke-width="0" fill="#e7f5cb" fill-opacity="0.10980392156862745" />
<path d="M36,-169 L147,-205 L117,-193 L120,-314 L162,-126 L93,-256 Z" stroke-width="0" fill="#23d61f" fill-opacity="0.0392156862745098" />
<path d="M243,-126 L125,-171 L93,-31 L99,-214 L40,-283 L136,-30 Z" stroke-width="0" fill="#d4f3fb" fill-opacity="0.5019607843137255" />
<path d="M184,-112 L90,-312 L78,-100 L83,-226 L38,-33 L26,-174 Z" stroke-width="0" fill="#e4ffe9" fill-opacity="0.2784313725490196" />
<path d="M248,-173 L84,-259 L183,-68 L181,-134 L34,-231 L55,-238 Z" stroke-width="0" fill="#cff0e1" fill-opacity="0.15294117647058825" />
<path d="M56,-297 L45,-156 L102,-63 L79,-40 L103,-120 L93,-202 Z" stroke-width="0" fill="#e5e0f3" fill-opacity="0.47843137254901963" />
<path d="M140,-208 L139,-140 L191,-123 L30,-58 L152,-41 L153,-45 Z" stroke-width="0" fill="#f5d2c3" fill-opacity="0.27058823529411763" />
<path d="M154,-63 L134,-112 L222,-279 L224,-256 L127,-36 L41,-57 Z" stroke-width="0" fill="#ebecfe" fill-opacity="0.9176470588235294" />
<path d="M155,-99 L119,-59 L180,-290 L230,-137 L95,-27 L189,-171 Z" stroke-width="0" fill="#102610" fill-opacity="0.0196078431372549" />
<path d="M47,-140 L241,-238 L72,-29 L150,-199 L50,-26 L249,-171 Z" stroke-width="0" fill="#bbd6c4" fill-opacity="0.1411764705882353" />
<path d="M56,-31 L100,-280 L27,-157 L120,-166 L87,-280 L211,-232 Z" stroke-width="0" fill="#d4f6e1" fill-opacity="0.7686274509803922" />
<path d="M211,-39 L213,-247 L84,-70 L174,-213 L221,-52 L51,-213 Z" stroke-width="0" fill="#901c14" fill-opacity="0.023529411764705882" />
<path d="M223,-59 L201,-48 L30,-103 L88,-84 L66,-173 L193,-28 Z" stroke-width="0" fill="#e4c0d2" fill-opacity="0.10980392156862745" />
<path d="M76,-117 L240,-173 L156,-34 L77,-280 L247,-99 L114,-312 Z" stroke-width="0" fill="#e5cef2" fill-opacity="0.23137254901960785" />
<path d="M185,-29 L122,-110 L190,-314 L82,-102 L207,-147 L182,-180 Z" stroke-width="0" fill="#8590d0" fill-opacity="0.09019607843137255" />
<path d="M196,-287 L183,-201 L129,-176 L180,-75 L157,-29 L204,-314 Z" stroke-width="0" fill="#ecfaf1" fill-opacity="0.10980392156862745" />
<path d="M200,-187 L136,-221 L197,-284 L132,-220 L52,-139 L248,-303 Z" stroke-width="0" fill="#ccb9c0" fill-opacity="0.6549019607843137" />
<path d="M53,-129 L31,-135 L109,-64 L209,-30 L42,-85 L80,-260 Z" stroke-width="0" fill="#d7fedc" fill-opacity="0.06666666666666667" />
<path d="M93,-167 L147,-322 L134,-122 L40,-137 L88,-246 L174,-75 Z" stroke-width="0" fill="#6f776a" fill-opacity="0.00392156862745098" />
<path d="M139,-94 L142,-104 L94,-111 L57,-92 L47,-75 L196,-105 Z" stroke-width="0" fill="#d8f4d4" fill-opacity="0.17254901960784313" />
<path d="M238,-196 L131,-59 L73,-147 L191,-52 L171,-102 L161,-49 Z" stroke-width="0" fill="#cee1d8" fill-opacity="0.07450980392156863" />
<path d="M77,-324 L39,-315 L122,-47 L212,-220 L151,-68 L28,-209 Z" stroke-width="0" fill="#eee1dc" fill-opacity="0.6588235294117647" />
<path d="M229,-97 L197,-261 L238,-155 L160,-29 L25,-103 L122,-267 Z" stroke-width="0" fill="#fdd7ca" fill-opacity="0.18823529411764706" />
<path d="M29,-212 L41,-183 L53,-118 L64,-154 L179,-241 L136,-168 Z" stroke-width="0" fill="#e7feeb" fill-opacity="0.1843137254901961" />
<path d="M154,-28 L142,-239 L168,-246 L227,-136 L186,-294 L193,-264 Z" stroke-width="0" fill="#ecd1fc" fill-opacity="0.10196078431372549" />
<path d="M28,-107 L80,-26 L113,-205 L83,-164 L124,-68 L78,-84 Z" stroke-width="0" fill="#f9d5bc" fill-opacity="0.19215686274509805" />
<path d="M158,-162 L178,-204 L239,-156 L210,-72 L73,-46 L61,-73 Z" stroke-width="0" fill="#dbb9d3" fill-opacity="0.09019607843137255" />
<path d="M170,-246 L62,-118 L28,-310 L230,-99 L65,-54 L170,-51 Z" stroke-width="0" fill="#7182e1" fill-opacity="0.023529411764705882" />
<path d="M248,-44 L191,-62 L45,-50 L60,-132 L185,-135 L114,-273 Z" stroke-width="0" fill="#a8de1f" fill-opacity="0.047058823529411764" />
<path d="M64,-170 L114,-31 L138,-92 L216,-215 L70,-62 L45,-312 Z" stroke-width="0" fill="#abe4d5" fill-opacity="0.027450980392156862" />
<path d="M147,-166 L190,-93 L142,-61 L52,-135 L177,-202 L79,-260 Z" stroke-width="0" fill="#f5f5e7" fill-opacity="0.23529411764705882" />
<path d="M147,-75 L44,-75 L45,-323 L164,-211 L240,-287 L35,-258 Z" stroke-width="0" fill="#f9bec5" fill-opacity="0.08235294117647059" />
<text x="137.5" y="12.5" font-size="20.0" fill="black" text-anchor="middle" transform="translate(0,5.0)">1 OF FIRE</text>
</svg>