<?xml version="1.0" encoding="UTF-8"?>
<svg xmlns="http://www.w3.org/2000/svg" xmlns:xlink="http://www.w3.org/1999/xlink"
     width="896" height="1496" viewBox="0 -1400 896 1496" style="font-size:70;font-family:Poor Richard, Times New Roman;stroke:black;stroke-width:1;fill:none">
<defs>
</defs>
<path d="M530,-342 L914,-626 L802,-486 L394,-122 L966,-634 L762,-294 Z" stroke-width="0" fill="#032100" fill-opacity="0.8627450980392157" />
<path d="M194,-398 L342,-530 L146,-554 L306,-218 L90,-542 L198,-1074 Z" stroke-width="0" fill="#fce8c6" fill-opacity="0.4470588235294118" />
<path d="M494,-738 L270,-1230 L898,-198 L150,-846 L518,-906 L866,-602 Z" stroke-width="0" fill="#7c79ae" fill-opacity="0.6196078431372549" />
<path d="M670,-998 L774,-494 L462,-1250 L914,-1014 L690,-494 L102,-962 Z" stroke-width="0" fill="#a88b50" fill-opacity="0.30980392156862746" />
<path d="M774,-686 L738,-594 L302,-390 L274,-850 L506,-734 L458,-230 Z" stroke-width="0" fill="#f66f19" fill-opacity="0.611764705882353" />
<path d="M458,-694 L670,-426 L502,-946 L726,-338 L214,-138 L102,-1266 Z" stroke-width="0" fill="#9f0e20" fill-opacity="0.08627450980392157" />
<path d="M334,-178 L426,-654 L330,-698 L666,-470 L618,-274 L482,-362 Z" stroke-width="0" fill="#69d7c4" fill-opacity="0.11372549019607843" />
<path d="M574,-702 L558,-294 L522,-378 L222,-922 L706,-1218 L926,-150 Z" stroke-width="0" fill="#243d14" fill-opacity="0.5137254901960784" />
<path d="M406,-174 L474,-474 L898,-878 L650,-170 L574,-106 L642,-1086 Z" stroke-width="0" fill="#651500" fill-opacity="0.047058823529411764" />
<path d="M590,-766 L106,-1158 L834,-134 L606,-926 L690,-178 L282,-254 Z" stroke-width="0" fill="#c9c77c" fill-opacity="0.21568627450980393" />
<path d="M414,-554 L150,-194 L318,-450 L438,-1062 L194,-786 L102,-318 Z" stroke-width="0" fill="#66fcfd" fill-opacity="0.027450980392156862" />
<path d="M582,-918 L310,-626 L682,-602 L842,-1090 L930,-1158 L338,-282 Z" stroke-width="0" fill="#000000" fill-opacity="0.47843137254901963" />
<path d="M618,-586 L562,-442 L198,-94 L482,-954 L566,-1246 L734,-310 Z" stroke-width="0" fill="#f1ff04" fill-opacity="0.08235294117647059" />
<path d="M814,-394 L250,-778 L90,-1034 L810,-286 L594,-402 L142,-274 Z" stroke-width="0" fill="#e4ac29" fill-opacity="0.2" />
<path d="M434,-282 L194,-250 L350,-478 L702,-982 L650,-682 L186,-630 Z" stroke-width="0" fill="#9d3736" fill-opacity="0.1411764705882353" />
<path d="M754,-1050 L662,-134 L154,-1182 L166,-110 L94,-330 L274,-1126 Z" stroke-width="0" fill="#d17710" fill-opacity="0.14901960784313725" />
<path d="M294,-194 L430,-1162 L386,-458 L686,-582 L390,-542 L342,-242 Z" stroke-width="0" fill="#c97453" fill-opacity="0.11372549019607843" />
<path d="M606,-1146 L394,-834 L882,-490 L682,-142 L290,-810 L410,-1146 Z" stroke-width="0" fill="#ececfa" fill-opacity="0.06666666666666667" />
<path d="M922,-122 L398,-1038 L714,-578 L478,-810 L82,-758 L862,-702 Z" stroke-width="0" fill="#c8dfc2" fill-opacity="0.5882352941176471" />
<path d="M802,-1038 L422,-422 L338,-102 L394,-1114 L414,-1078 L826,-898 Z" stroke-width="0" fill="#f0ef48" fill-opacity="0.14901960784313725" />
<path d="M822,-370 L206,-310 L650,-1278 L550,-114 L318,-386 L330,-1146 Z" stroke-width="0" fill="#930001" fill-opacity="0.09019607843137255" />
<path d="M622,-1062 L846,-298 L442,-182 L850,-966 L850,-1218 L290,-246 Z" stroke-width="0" fill="#311b07" fill-opacity="0.5019607843137255" />
<path d="M554,-978 L798,-182 L302,-1230 L550,-1026 L86,-1158 L862,-726 Z" stroke-width="0" fill="#bf5139" fill-opacity="0.27058823529411763" />
<path d="M490,-682 L626,-610 L410,-794 L270,-974 L314,-666 L630,-718 Z" stroke-width="0" fill="#68f11f" fill-opacity="0.996078431372549" />
<path d="M206,-978 L794,-202 L874,-222 L782,-1190 L618,-142 L186,-398 Z" stroke-width="0" fill="#f0c797" fill-opacity="0.4" />
<path d="M626,-1218 L242,-674 L118,-206 L882,-354 L198,-614 L842,-478 Z" stroke-width="0" fill="#0b0c14" fill-opacity="0.396078431372549" />
<path d="M378,-414 L730,-174 L406,-730 L422,-454 L202,-214 L850,-626 Z" stroke-width="0" fill="#664c78" fill-opacity="0.047058823529411764" />
<path d="M718,-250 L318,-1254 L134,-366 L358,-486 L318,-298 L474,-1042 Z" stroke-width="0" fill="#1b2808" fill-opacity="0.39215686274509803" />
<path d="M342,-1102 L606,-362 L166,-590 L862,-922 L230,-762 L866,-338 Z" stroke-width="0" fill="#2462f2" fill-opacity="0.3686274509803922" />
<path d="M778,-1266 L434,-698 L94,-826 L290,-278 L250,-750 L838,-338 Z" stroke-width="0" fill="#360500" fill-opacity="0.2235294117647059" />
<path d="M954,-382 L546,-926 L290,-1270 L350,-90 L202,-82 L650,-926 Z" stroke-width="0" fill="#ceada7" fill-opacity="0.3215686274509804" />
<path d="M338,-218 L530,-1142 L226,-414 L962,-606 L550,-1078 L838,-166 Z" stroke-width="0" fill="#211107" fill-opacity="0.48627450980392156" />
<path d="M794,-330 L674,-938 L258,-362 L886,-854 L574,-1214 L878,-470 Z" stroke-width="0" fill="#aa8ba8" fill-opacity="0.7176470588235294" />
<path d="M514,-122 L850,-1274 L342,-550 L386,-162 L294,-438 L558,-514 Z" stroke-width="0" fill="#53614d" fill-opacity="0.3137254901960784" />
<path d="M638,-730 L550,-1114 L646,-946 L530,-1198 L458,-154 L550,-370 Z" stroke-width="0" fill="#f1f3e2" fill-opacity="0.7294117647058823" />
<path d="M450,-1262 L766,-978 L958,-266 L702,-1002 L438,-1058 L230,-162 Z" stroke-width="0" fill="#332704" fill-opacity="0.49019607843137253" />
<path d="M822,-698 L282,-214 L610,-606 L698,-538 L298,-754 L306,-814 Z" stroke-width="0" fill="#6e51c9" fill-opacity="0.6549019607843137" />
<path d="M762,-878 L286,-138 L666,-274 L746,-678 L162,-926 L530,-166 Z" stroke-width="0" fill="#f6b564" fill-opacity="0.14901960784313725" />
<path d="M618,-458 L706,-938 L914,-590 L922,-418 L314,-554 L462,-170 Z" stroke-width="0" fill="#000004" fill-opacity="0.596078431372549" />
<path d="M182,-1202 L334,-150 L746,-702 L322,-358 L458,-866 L818,-1050 Z" stroke-width="0" fill="#858575" fill-opacity="0.9254901960784314" />
<path d="M974,-254 L626,-838 L202,-302 L654,-834 L710,-1234 L802,-194 Z" stroke-width="0" fill="#3d1b00" fill-opacity="0.5882352941176471" />
<path d="M806,-374 L430,-978 L454,-494 L926,-490 L190,-318 L586,-930 Z" stroke-width="0" fill="#fbf6b6" fill-opacity="0.8745098039215686" />
<path d="M978,-786 L534,-882 L934,-1030 L730,-334 L290,-290 L826,-678 Z" stroke-width="0" fill="#570700" fill-opacity="0.4627450980392157" />
<path d="M94,-846 L266,-686 L970,-766 L598,-586 L690,-622 L862,-446 Z" stroke-width="0" fill="#722b12" fill-opacity="0.18823529411764706" />
<path d="M566,-962 L126,-670 L894,-210 L102,-298 L330,-686 L598,-558 Z" stroke-width="0" fill="#2f224e" fill-opacity="0.21568627450980393" />
<path d="M118,-726 L258,-1174 L762,-306 L650,-322 L174,-510 L562,-1078 Z" stroke-width="0" fill="#103643" fill-opacity="0.5803921568627451" />
<path d="M358,-378 L514,-226 L154,-1186 L874,-850 L442,-150 L474,-194 Z" stroke-width="0" fill="#833b4a" fill-opacity="0.9215686274509803" />
<path d="M98,-1114 L450,-870 L658,-1170 L774,-630 L862,-158 L942,-150 Z" stroke-width="0" fill="#d7a042" fill-opacity="0.2196078431372549" />
<path d="M374,-210 L898,-670 L474,-786 L450,-346 L938,-98 L598,-318 Z" stroke-width="0" fill="#f0dfac" fill-opacity="0.5019607843137255" />
<path d="M934,-270 L646,-482 L518,-306 L110,-82 L346,-646 L250,-874 Z" stroke-width="0" fill="#c56613" fill-opacity="0.16470588235294117" />
<path d="M422,-990 L278,-570 L366,-210 L434,-82 L198,-1230 L522,-862 Z" stroke-width="0" fill="#de797e" fill-opacity="0.23137254901960785" />
<path d="M890,-358 L666,-1238 L650,-462 L174,-674 L650,-718 L230,-1070 Z" stroke-width="0" fill="#9b8088" fill-opacity="0.40784313725490196" />
<path d="M594,-1038 L554,-470 L962,-1158 L770,-254 L794,-778 L910,-266 Z" stroke-width="0" fill="#000708" fill-opacity="0.5372549019607843" />
<path d="M826,-230 L334,-606 L646,-366 L970,-522 L114,-438 L230,-1090 Z" stroke-width="0" fill="#004a00" fill-opacity="0.14901960784313725" />
<path d="M590,-950 L102,-198 L886,-298 L358,-946 L754,-974 L250,-1054 Z" stroke-width="0" fill="#ebe5fa" fill-opacity="0.5058823529411764" />
<path d="M182,-186 L522,-622 L342,-1118 L266,-846 L686,-582 L774,-774 Z" stroke-width="0" fill="#dafcd3" fill-opacity="0.8156862745098039" />
<path d="M702,-894 L802,-546 L658,-962 L610,-722 L570,-718 L682,-374 Z" stroke-width="0" fill="#727c5a" fill-opacity="0.3137254901960784" />
<path d="M314,-518 L654,-918 L302,-190 L582,-998 L262,-1162 L654,-1014 Z" stroke-width="0" fill="#5e66b3" fill-opacity="0.20392156862745098" />
<path d="M586,-1118 L686,-126 L538,-962 L422,-1238 L342,-1234 L318,-482 Z" stroke-width="0" fill="#1d2416" fill-opacity="0.23529411764705882" />
<path d="M338,-266 L958,-642 L834,-286 L810,-342 L818,-446 L490,-1002 Z" stroke-width="0" fill="#664b40" fill-opacity="0.6549019607843137" />
<path d="M358,-294 L298,-542 L546,-1250 L346,-378 L646,-234 L954,-958 Z" stroke-width="0" fill="#4a2a16" fill-opacity="0.7764705882352941" />
<path d="M618,-802 L410,-1090 L830,-134 L662,-402 L538,-378 L110,-894 Z" stroke-width="0" fill="#cbd33b" fill-opacity="0.11764705882352941" />
<path d="M298,-1158 L122,-538 L390,-590 L762,-154 L258,-806 L718,-98 Z" stroke-width="0" fill="#d2c593" fill-opacity="0.0196078431372549" />
<path d="M470,-1094 L862,-978 L186,-722 L558,-326 L182,-726 L798,-1130 Z" stroke-width="0" fill="#e9e6d3" fill-opacity="0.5019607843137255" />
<path d="M222,-166 L610,-986 L90,-186 L302,-498 L718,-302 L810,-1018 Z" stroke-width="0" fill="#61533f" fill-opacity="0.16470588235294117" />
<path d="M946,-1002 L358,-1110 L298,-1110 L358,-1070 L654,-1246 L570,-898 Z" stroke-width="0" fill="#455027" fill-opacity="0.3333333333333333" />
<path d="M602,-818 L450,-850 L242,-1098 L566,-906 L126,-294 L162,-666 Z" stroke-width="0" fill="#030228" fill-opacity="0.13725490196078433" />
<path d="M402,-674 L258,-802 L234,-1258 L606,-166 L654,-942 L458,-102 Z" stroke-width="0" fill="#957529" fill-opacity="0.1568627450980392" />
<path d="M654,-474 L814,-94 L262,-294 L574,-266 L702,-274 L874,-414 Z" stroke-width="0" fill="#e7d498" fill-opacity="0.4549019607843137" />
<path d="M506,-354 L138,-530 L390,-1006 L574,-470 L562,-974 L358,-518 Z" stroke-width="0" fill="#00170e" fill-opacity="0.9490196078431372" />
<path d="M206,-206 L514,-778 L942,-634 L378,-1102 L114,-1242 L870,-266 Z" stroke-width="0" fill="#5d5940" fill-opacity="0.5843137254901961" />
<path d="M626,-302 L94,-942 L550,-906 L614,-974 L218,-1142 L162,-962 Z" stroke-width="0" fill="#2e8f53" fill-opacity="0.2784313725490196" />
<path d="M90,-1030 L646,-458 L178,-422 L166,-170 L670,-542 L626,-270 Z" stroke-width="0" fill="#010800" fill-opacity="0.047058823529411764" />
<path d="M414,-882 L642,-402 L758,-146 L170,-246 L882,-258 L462,-298 Z" stroke-width="0" fill="#ffddd6" fill-opacity="0.5843137254901961" />
<path d="M486,-590 L566,-322 L90,-654 L178,-382 L354,-1210 L342,-170 Z" stroke-width="0" fill="#ba202a" fill-opacity="0.06274509803921569" />
<path d="M774,-234 L334,-146 L974,-766 L750,-1018 L218,-694 L838,-490 Z" stroke-width="0" fill="#96a783" fill-opacity="0.6823529411764706" />
<path d="M722,-778 L822,-754 L406,-834 L414,-1190 L494,-598 L298,-462 Z" stroke-width="0" fill="#5b6b21" fill-opacity="0.8196078431372549" />
<path d="M714,-986 L222,-638 L718,-434 L370,-590 L730,-806 L270,-1250 Z" stroke-width="0" fill="#bcc86e" fill-opacity="0.7568627450980392" />
<path d="M210,-582 L554,-930 L262,-334 L562,-526 L166,-1118 L350,-446 Z" stroke-width="0" fill="#3c1b13" fill-opacity="0.3137254901960784" />
<path d="M82,-1266 L450,-470 L226,-870 L170,-434 L106,-690 L338,-1134 Z" stroke-width="0" fill="#204e1f" fill-opacity="0.054901960784313725" />
<path d="M138,-154 L602,-646 L746,-1278 L190,-266 L378,-1150 L830,-790 Z" stroke-width="0" fill="#c95a79" fill-opacity="0.27450980392156865" />
<path d="M342,-246 L422,-410 L158,-194 L546,-834 L250,-1086 L206,-442 Z" stroke-width="0" fill="#7d6f63" fill-opacity="0.5019607843137255" />
<path d="M422,-658 L210,-694 L226,-118 L682,-858 L450,-1050 L394,-250 Z" stroke-width="0" fill="#b5daa9" fill-opacity="0.49019607843137253" />
<path d="M890,-198 L706,-250 L326,-210 L586,-226 L442,-178 L254,-482 Z" stroke-width="0" fill="#47775a" fill-opacity="0.3764705882352941" />
<path d="M558,-418 L686,-190 L938,-270 L410,-534 L742,-1146 L794,-510 Z" stroke-width="0" fill="#554640" fill-opacity="0.7176470588235294" />
<path d="M670,-226 L314,-274 L210,-498 L378,-214 L526,-678 L646,-834 Z" stroke-width="0" fill="#3f4236" fill-opacity="0.5019607843137255" />
<path d="M374,-318 L806,-330 L198,-590 L618,-382 L318,-1222 L370,-426 Z" stroke-width="0" fill="#1c2c21" fill-opacity="0.16470588235294117" />
<path d="M106,-566 L730,-462 L854,-1010 L462,-1222 L702,-366 L542,-718 Z" stroke-width="0" fill="#abdd86" fill-opacity="0.43137254901960786" />
<path d="M406,-670 L310,-438 L434,-110 L502,-142 L626,-938 L366,-486 Z" stroke-width="0" fill="#e2beb5" fill-opacity="0.48627450980392156" />
<path d="M98,-326 L266,-1026 L286,-514 L978,-746 L514,-1194 L562,-346 Z" stroke-width="0" fill="#433263" fill-opacity="0.20392156862745098" />
<path d="M894,-486 L562,-1266 L286,-170 L434,-1042 L750,-1166 L842,-866 Z" stroke-width="0" fill="#c895b3" fill-opacity="0.38823529411764707" />
<path d="M602,-1214 L826,-394 L602,-914 L270,-898 L570,-850 L178,-194 Z" stroke-width="0" fill="#fd8ce9" fill-opacity="0.13333333333333333" />
<path d="M742,-350 L786,-478 L690,-1214 L806,-574 L218,-502 L134,-210 Z" stroke-width="0" fill="#765066" fill-opacity="0.26666666666666666" />
<path d="M754,-454 L970,-758 L694,-826 L218,-482 L722,-94 L418,-462 Z" stroke-width="0" fill="#0e2204" fill-opacity="0.30196078431372547" />
<path d="M478,-958 L714,-1178 L822,-1254 L126,-706 L294,-538 L430,-770 Z" stroke-width="0" fill="#869a4a" fill-opacity="0.3333333333333333" />
<path d="M678,-546 L398,-910 L586,-518 L618,-306 L130,-534 L126,-166 Z" stroke-width="0" fill="#74e30f" fill-opacity="0.09019607843137255" />
<path d="M694,-938 L254,-282 L306,-654 L454,-450 L602,-934 L790,-534 Z" stroke-width="0" fill="#7f2d1d" fill-opacity="0.1843137254901961" />
<path d="M414,-622 L194,-470 L126,-998 L890,-434 L342,-294 L602,-182 Z" stroke-width="0" fill="#47493c" fill-opacity="0.26666666666666666" />
<path d="M966,-1090 L106,-606 L146,-1174 L914,-986 L470,-538 L418,-1154 Z" stroke-width="0" fill="#681455" fill-opacity="0.1607843137254902" />
<path d="M638,-126 L366,-686 L150,-514 L618,-698 L386,-450 L706,-1130 Z" stroke-width="0" fill="#707481" fill-opacity="0.3137254901960784" />
<text x="448.0" y="0" font-size="70.0" fill="black" text-anchor="middle" transform="translate(0,17.5)">5 OF FIRE</text>
</svg>