<?xml version="1.0" encoding="UTF-8"?>
<svg xmlns="http://www.w3.org/2000/svg" xmlns:xlink="http://www.w3.org/1999/xlink"
     width="896" height="1496" viewBox="0 -1400 896 1496" style="font-size:70;font-family:Poor Richard, Times New Roman;stroke:black;stroke-width:1;fill:none">
<defs>
</defs>
<path d="M658,-530 L98,-722 L974,-298 L550,-406 L930,-1082 L750,-1226 Z" stroke-width="0" fill="#780000" fill-opacity="0.9764705882352941" />
<path d="M946,-734 L518,-754 L98,-638 L514,-830 L98,-826 L466,-482 Z" stroke-width="0" fill="#655998" fill-opacity="0.3686274509803922" />
<path d="M606,-174 L394,-266 L530,-1086 L198,-1002 L586,-842 L658,-1226 Z" stroke-width="0" fill="#631f20" fill-opacity="0.9803921568627451" />
<path d="M222,-126 L218,-838 L222,-350 L478,-278 L470,-950 L866,-1114 Z" stroke-width="0" fill="#81fdeb" fill-opacity="0.8705882352941177" />
<path d="M770,-578 L150,-134 L962,-434 L114,-382 L126,-1106 L802,-890 Z" stroke-width="0" fill="#300000" fill-opacity="0.8941176470588236" />
<path d="M238,-158 L522,-566 L346,-662 L374,-534 L114,-1010 L118,-950 Z" stroke-width="0" fill="#000055" fill-opacity="0.9058823529411765" />
<path d="M782,-694 L746,-702 L350,-938 L750,-854 L722,-358 L706,-1126 Z" stroke-width="0" fill="#c38bac" fill-opacity="0.37254901960784315" />
<path d="M698,-902 L334,-134 L622,-250 L198,-654 L466,-634 L502,-206 Z" stroke-width="0" fill="#fcc5e2" fill-opacity="0.027450980392156862" />
<path d="M806,-154 L498,-946 L178,-866 L198,-1058 L178,-1046 L478,-270 Z" stroke-width="0" fill="#202a1c" fill-opacity="0.6078431372549019" />
<path d="M846,-150 L262,-538 L342,-746 L330,-834 L134,-566 L638,-166 Z" stroke-width="0" fill="#000000" fill-opacity="0.9333333333333333" />
<path d="M522,-1014 L98,-722 L134,-174 L538,-742 L514,-178 L366,-730 Z" stroke-width="0" fill="#1d0000" fill-opacity="0.8235294117647058" />
<path d="M850,-158 L262,-378 L454,-550 L174,-250 L742,-558 L450,-498 Z" stroke-width="0" fill="#100000" fill-opacity="0.7607843137254902" />
<path d="M398,-1046 L538,-682 L822,-530 L170,-674 L718,-846 L746,-818 Z" stroke-width="0" fill="#47b3e2" fill-opacity="0.9882352941176471" />
<path d="M670,-350 L318,-754 L118,-782 L118,-1006 L790,-314 L214,-458 Z" stroke-width="0" fill="#000039" fill-opacity="0.7843137254901961" />
<path d="M366,-302 L370,-834 L230,-414 L706,-338 L362,-794 L958,-222 Z" stroke-width="0" fill="#690000" fill-opacity="0.9137254901960784" />
<path d="M606,-1186 L562,-226 L926,-422 L926,-402 L710,-482 L150,-154 Z" stroke-width="0" fill="#000000" fill-opacity="0.6745098039215687" />
<path d="M898,-1006 L202,-186 L890,-1270 L654,-826 L638,-682 L542,-962 Z" stroke-width="0" fill="#681011" fill-opacity="0.996078431372549" />
<path d="M922,-602 L726,-610 L482,-994 L654,-1026 L246,-722 L478,-350 Z" stroke-width="0" fill="#07b6b0" fill-opacity="0.6352941176470588" />
<path d="M798,-942 L462,-958 L954,-1242 L678,-1066 L218,-374 L794,-946 Z" stroke-width="0" fill="#600200" fill-opacity="0.8745098039215686" />
<path d="M538,-462 L906,-138 L758,-710 L466,-754 L826,-1278 L450,-746 Z" stroke-width="0" fill="#5e0e00" fill-opacity="0.984313725490196" />
<path d="M338,-506 L634,-942 L766,-238 L534,-590 L178,-862 L482,-218 Z" stroke-width="0" fill="#245096" fill-opacity="0.9529411764705882" />
<path d="M546,-142 L294,-106 L790,-918 L610,-650 L946,-942 L642,-562 Z" stroke-width="0" fill="#deded5" fill-opacity="0.00784313725490196" />
<path d="M818,-1034 L894,-1114 L286,-1226 L334,-1150 L118,-550 L642,-390 Z" stroke-width="0" fill="#390000" fill-opacity="0.8901960784313725" />
<path d="M666,-222 L150,-690 L262,-406 L122,-1214 L562,-430 L198,-278 Z" stroke-width="0" fill="#3c0018" fill-opacity="0.7764705882352941" />
<path d="M334,-662 L158,-922 L94,-474 L186,-902 L594,-714 L758,-582 Z" stroke-width="0" fill="#330000" fill-opacity="0.9333333333333333" />
<path d="M722,-226 L346,-778 L86,-682 L314,-790 L914,-114 L890,-666 Z" stroke-width="0" fill="#2c0710" fill-opacity="0.8823529411764706" />
<path d="M730,-598 L382,-438 L90,-570 L910,-490 L258,-482 L622,-774 Z" stroke-width="0" fill="#630500" fill-opacity="0.8745098039215686" />
<path d="M294,-1190 L626,-922 L198,-202 L346,-758 L630,-1070 L674,-542 Z" stroke-width="0" fill="#e9f4c6" fill-opacity="0.3411764705882353" />
<path d="M658,-218 L222,-470 L686,-1266 L286,-110 L150,-474 L442,-982 Z" stroke-width="0" fill="#560e09" fill-opacity="0.9411764705882353" />
<path d="M534,-246 L498,-1126 L354,-586 L578,-514 L322,-666 L114,-130 Z" stroke-width="0" fill="#fafef1" fill-opacity="0.2549019607843137" />
<path d="M634,-698 L306,-1214 L386,-370 L202,-858 L402,-962 L286,-770 Z" stroke-width="0" fill="#5c1100" fill-opacity="0.5254901960784314" />
<path d="M226,-246 L454,-1070 L746,-734 L586,-1114 L798,-618 L966,-414 Z" stroke-width="0" fill="#a91c00" fill-opacity="0.9098039215686274" />
<path d="M850,-182 L598,-350 L402,-1118 L726,-222 L278,-886 L142,-1074 Z" stroke-width="0" fill="#190000" fill-opacity="0.9333333333333333" />
<path d="M438,-1182 L374,-622 L482,-930 L402,-250 L254,-1166 L322,-246 Z" stroke-width="0" fill="#3ae4f7" fill-opacity="0.8980392156862745" />
<path d="M202,-654 L922,-766 L722,-874 L710,-922 L438,-910 L150,-1218 Z" stroke-width="0" fill="#1e0089" fill-opacity="0.7137254901960784" />
<path d="M930,-1062 L746,-898 L470,-118 L438,-1110 L258,-186 L682,-934 Z" stroke-width="0" fill="#a42f5a" fill-opacity="0.5019607843137255" />
<path d="M394,-1094 L134,-266 L86,-1142 L134,-806 L818,-398 L194,-610 Z" stroke-width="0" fill="#04002e" fill-opacity="0.8705882352941177" />
<path d="M814,-178 L798,-386 L98,-538 L634,-1110 L850,-414 L206,-266 Z" stroke-width="0" fill="#090000" fill-opacity="0.9098039215686274" />
<path d="M98,-1238 L798,-1070 L474,-494 L942,-394 L210,-154 L442,-222 Z" stroke-width="0" fill="#490304" fill-opacity="0.9333333333333333" />
<path d="M902,-694 L302,-110 L690,-670 L562,-790 L478,-1130 L682,-650 Z" stroke-width="0" fill="#fff1ff" fill-opacity="0.14901960784313725" />
<path d="M838,-350 L186,-98 L582,-726 L794,-858 L198,-862 L454,-814 Z" stroke-width="0" fill="#feffc1" fill-opacity="0.9647058823529412" />
<path d="M186,-546 L878,-782 L378,-1242 L130,-170 L850,-334 L318,-938 Z" stroke-width="0" fill="#5e1003" fill-opacity="0.9137254901960784" />
<path d="M926,-242 L506,-86 L242,-438 L458,-990 L430,-1230 L394,-710 Z" stroke-width="0" fill="#f7f4dc" fill-opacity="0.13725490196078433" />
<path d="M438,-926 L774,-694 L378,-950 L334,-626 L102,-710 L414,-398 Z" stroke-width="0" fill="#460ab8" fill-opacity="0.28627450980392155" />
<path d="M966,-386 L566,-818 L322,-1174 L854,-882 L742,-858 L906,-106 Z" stroke-width="0" fill="#a41606" fill-opacity="0.9098039215686274" />
<path d="M906,-142 L610,-1030 L266,-394 L922,-694 L198,-1090 L386,-1182 Z" stroke-width="0" fill="#622c09" fill-opacity="0.5176470588235295" />
<path d="M190,-438 L122,-326 L938,-1202 L850,-686 L722,-618 L706,-706 Z" stroke-width="0" fill="#670309" fill-opacity="0.8941176470588236" />
<path d="M86,-570 L666,-286 L822,-1254 L806,-478 L478,-162 L678,-126 Z" stroke-width="0" fill="#c7f1bf" fill-opacity="0.1803921568627451" />
<path d="M894,-102 L730,-522 L502,-1082 L418,-758 L482,-642 L122,-82 Z" stroke-width="0" fill="#fef1ee" fill-opacity="0.44313725490196076" />
<path d="M454,-834 L418,-706 L234,-842 L642,-746 L554,-886 L498,-802 Z" stroke-width="0" fill="#8a02f3" fill-opacity="0.12549019607843137" />
<path d="M162,-1122 L950,-614 L222,-222 L442,-698 L650,-538 L978,-270 Z" stroke-width="0" fill="#3f0603" fill-opacity="0.8941176470588236" />
<path d="M310,-870 L170,-742 L202,-1158 L370,-682 L298,-334 L670,-506 Z" stroke-width="0" fill="#64e7e0" fill-opacity="0.4235294117647059" />
<path d="M850,-1002 L450,-706 L490,-222 L126,-322 L354,-662 L410,-718 Z" stroke-width="0" fill="#00201e" fill-opacity="0.24705882352941178" />
<path d="M210,-554 L422,-1134 L886,-670 L494,-1078 L734,-1062 L242,-946 Z" stroke-width="0" fill="#f7572a" fill-opacity="0.8745098039215686" />
<path d="M206,-934 L434,-1006 L730,-842 L582,-98 L690,-750 L614,-906 Z" stroke-width="0" fill="#83e737" fill-opacity="0.09803921568627451" />
<path d="M294,-1134 L654,-334 L130,-1210 L750,-934 L794,-530 L354,-522 Z" stroke-width="0" fill="#3e0a00" fill-opacity="0.7607843137254902" />
<path d="M370,-130 L226,-682 L446,-770 L834,-950 L882,-938 L394,-578 Z" stroke-width="0" fill="#ffc0f6" fill-opacity="0.10588235294117647" />
<path d="M934,-282 L562,-514 L882,-702 L482,-958 L534,-602 L566,-1022 Z" stroke-width="0" fill="#f7836a" fill-opacity="0.1607843137254902" />
<path d="M234,-170 L586,-1078 L218,-562 L102,-326 L962,-930 L882,-1126 Z" stroke-width="0" fill="#a22805" fill-opacity="0.9215686274509803" />
<path d="M266,-1030 L634,-366 L798,-314 L922,-770 L226,-974 L126,-1086 Z" stroke-width="0" fill="#12130a" fill-opacity="0.8784313725490196" />
<path d="M442,-462 L254,-462 L718,-1150 L734,-998 L166,-810 L426,-186 Z" stroke-width="0" fill="#97372f" fill-opacity="0.9333333333333333" />
<path d="M934,-654 L530,-694 L722,-90 L762,-1090 L422,-950 L298,-1014 Z" stroke-width="0" fill="#050619" fill-opacity="0.30196078431372547" />
<path d="M270,-1146 L186,-386 L942,-670 L154,-86 L758,-434 L118,-826 Z" stroke-width="0" fill="#dfefc0" fill-opacity="0.12941176470588237" />
<path d="M586,-258 L654,-1126 L946,-622 L478,-1258 L138,-774 L666,-446 Z" stroke-width="0" fill="#1e0008" fill-opacity="0.8117647058823529" />
<path d="M702,-1114 L114,-898 L118,-94 L378,-1222 L426,-990 L882,-170 Z" stroke-width="0" fill="#e90e27" fill-opacity="0.09019607843137255" />
<path d="M658,-546 L494,-410 L194,-642 L186,-198 L330,-1066 L458,-466 Z" stroke-width="0" fill="#03041d" fill-opacity="0.11764705882352941" />
<path d="M318,-1014 L890,-862 L754,-782 L522,-382 L170,-246 L922,-1210 Z" stroke-width="0" fill="#720000" fill-opacity="0.8862745098039215" />
<path d="M730,-1102 L926,-526 L818,-626 L698,-1170 L586,-886 L518,-982 Z" stroke-width="0" fill="#201f14" fill-opacity="0.9490196078431372" />
<path d="M90,-206 L450,-1142 L342,-662 L886,-674 L758,-206 L398,-586 Z" stroke-width="0" fill="#7b3724" fill-opacity="0.8352941176470589" />
<path d="M630,-174 L230,-578 L758,-1042 L446,-878 L250,-890 L466,-1058 Z" stroke-width="0" fill="#775b00" fill-opacity="0.08627450980392157" />
<path d="M746,-430 L866,-926 L354,-914 L130,-502 L426,-458 L818,-146 Z" stroke-width="0" fill="#0a031d" fill-opacity="0.6745098039215687" />
<path d="M450,-1030 L630,-322 L318,-998 L686,-966 L174,-326 L478,-570 Z" stroke-width="0" fill="#c44b0a" fill-opacity="0.26666666666666666" />
<path d="M314,-386 L110,-1254 L462,-478 L734,-354 L378,-434 L978,-978 Z" stroke-width="0" fill="#6c0f1c" fill-opacity="0.8901960784313725" />
<path d="M774,-438 L178,-218 L586,-286 L378,-154 L390,-98 L154,-922 Z" stroke-width="0" fill="#3c182a" fill-opacity="0.9372549019607843" />
<path d="M630,-230 L838,-1238 L90,-174 L326,-206 L446,-354 L314,-586 Z" stroke-width="0" fill="#8a274a" fill-opacity="0.8431372549019608" />
<path d="M222,-194 L106,-778 L842,-742 L602,-150 L106,-302 L362,-498 Z" stroke-width="0" fill="#3e2a31" fill-opacity="0.9058823529411765" />
<path d="M262,-526 L90,-342 L294,-502 L658,-1166 L242,-250 L178,-574 Z" stroke-width="0" fill="#5c3a53" fill-opacity="0.5215686274509804" />
<path d="M258,-558 L402,-606 L838,-926 L934,-942 L90,-142 L318,-426 Z" stroke-width="0" fill="#002b1a" fill-opacity="0.5019607843137255" />
<path d="M186,-238 L446,-522 L918,-1166 L114,-582 L478,-778 L634,-626 Z" stroke-width="0" fill="#ed1816" fill-opacity="0.5411764705882353" />
<path d="M98,-1082 L198,-1114 L662,-486 L130,-554 L358,-526 L122,-338 Z" stroke-width="0" fill="#300d00" fill-opacity="0.6235294117647059" />
<path d="M218,-470 L950,-202 L306,-962 L358,-166 L186,-158 L962,-1038 Z" stroke-width="0" fill="#941c13" fill-opacity="0.9058823529411765" />
<path d="M198,-342 L726,-326 L126,-502 L314,-766 L502,-158 L638,-702 Z" stroke-width="0" fill="#8f4252" fill-opacity="0.36470588235294116" />
<path d="M406,-946 L294,-1182 L802,-218 L414,-82 L854,-170 L110,-826 Z" stroke-width="0" fill="#fe69ca" fill-opacity="0.01568627450980392" />
<path d="M174,-158 L890,-630 L786,-554 L390,-610 L918,-514 L194,-1266 Z" stroke-width="0" fill="#740004" fill-opacity="0.6" />
<path d="M630,-1118 L906,-478 L398,-478 L774,-326 L774,-1050 L822,-362 Z" stroke-width="0" fill="#f54712" fill-opacity="0.3843137254901961" />
<path d="M306,-986 L322,-462 L442,-478 L114,-618 L258,-650 L262,-730 Z" stroke-width="0" fill="#2f0f0c" fill-opacity="0.42745098039215684" />
<path d="M718,-278 L590,-498 L350,-578 L202,-770 L98,-762 L490,-1230 Z" stroke-width="0" fill="#b52f31" fill-opacity="0.3568627450980392" />
<path d="M678,-878 L502,-802 L250,-682 L118,-1074 L190,-138 L222,-1106 Z" stroke-width="0" fill="#540429" fill-opacity="0.2901960784313726" />
<path d="M250,-866 L702,-926 L242,-1190 L134,-942 L394,-462 L118,-598 Z" stroke-width="0" fill="#c35a49" fill-opacity="0.07450980392156863" />
<path d="M906,-610 L170,-450 L958,-1166 L106,-410 L158,-190 L942,-118 Z" stroke-width="0" fill="#5e0e22" fill-opacity="0.2901960784313726" />
<path d="M298,-866 L502,-514 L578,-362 L810,-1122 L106,-1110 L618,-1162 Z" stroke-width="0" fill="#ad3b2f" fill-opacity="0.47058823529411764" />
<path d="M454,-106 L90,-646 L534,-430 L734,-582 L926,-466 L498,-398 Z" stroke-width="0" fill="#9b8b04" fill-opacity="0.03529411764705882" />
<path d="M90,-1106 L658,-218 L558,-782 L118,-562 L230,-418 L106,-654 Z" stroke-width="0" fill="#b91c02" fill-opacity="0.4117647058823529" />
<path d="M794,-126 L546,-1154 L522,-354 L598,-1214 L906,-458 L158,-270 Z" stroke-width="0" fill="#9e1c2c" fill-opacity="0.5019607843137255" />
<path d="M798,-294 L570,-678 L254,-154 L502,-138 L838,-226 L122,-610 Z" stroke-width="0" fill="#820c08" fill-opacity="0.38823529411764707" />
<path d="M638,-934 L490,-566 L326,-426 L386,-218 L346,-870 L186,-174 Z" stroke-width="0" fill="#ad3121" fill-opacity="0.09803921568627451" />
<path d="M910,-702 L338,-130 L506,-162 L254,-194 L558,-702 L102,-114 Z" stroke-width="0" fill="#002c00" fill-opacity="0.06666666666666667" />
<path d="M746,-290 L234,-354 L714,-478 L826,-1230 L530,-874 L586,-714 Z" stroke-width="0" fill="#d92124" fill-opacity="0.29411764705882354" />
<path d="M534,-538 L786,-234 L426,-130 L342,-458 L258,-862 L886,-1230 Z" stroke-width="0" fill="#8a0005" fill-opacity="0.16862745098039217" />
<path d="M86,-394 L94,-114 L418,-618 L554,-482 L334,-870 L790,-1154 Z" stroke-width="0" fill="#801618" fill-opacity="0.6274509803921569" />
<text x="448.0" y="0" font-size="70.0" fill="black" text-anchor="middle" transform="translate(0,17.5)">6 OF FIRE</text>
</svg>