<?xml version="1.0" encoding="UTF-8"?>
<svg xmlns="http://www.w3.org/2000/svg" xmlns:xlink="http://www.w3.org/1999/xlink"
     width="896" height="1496" viewBox="0 -1400 896 1496" style="font-size:70;font-family:Poor Richard, Times New Roman;stroke:black;stroke-width:1;fill:none">
<defs>
</defs>
<path d="M90,-506 L782,-126 L674,-422 L158,-206 L298,-1102 L466,-374 Z" stroke-width="0" fill="#0d0000" fill-opacity="0.6705882352941176" />
<path d="M382,-282 L186,-966 L678,-238 L602,-598 L626,-374 L150,-790 Z" stroke-width="0" fill="#ff75c8" fill-opacity="0.6352941176470588" />
<path d="M346,-258 L318,-1282 L750,-410 L602,-130 L170,-902 L466,-950 Z" stroke-width="0" fill="#332342" fill-opacity="0.8705882352941177" />
<path d="M262,-622 L386,-534 L266,-246 L246,-226 L446,-194 L242,-170 Z" stroke-width="0" fill="#0672e7" fill-opacity="0.5176470588235295" />
<path d="M90,-834 L346,-294 L274,-586 L182,-1278 L406,-338 L450,-558 Z" stroke-width="0" fill="#010c00" fill-opacity="0.6627450980392157" />
<path d="M498,-570 L190,-750 L290,-466 L270,-174 L758,-598 L254,-882 Z" stroke-width="0" fill="#dce19e" fill-opacity="0.12156862745098039" />
<path d="M778,-874 L750,-838 L114,-1122 L326,-242 L206,-386 L562,-730 Z" stroke-width="0" fill="#19000e" fill-opacity="0.592156862745098" />
<path d="M526,-270 L490,-138 L162,-806 L346,-202 L686,-1206 L286,-582 Z" stroke-width="0" fill="#dcf93d" fill-opacity="0.5529411764705883" />
<path d="M114,-1114 L402,-102 L626,-86 L442,-974 L134,-1002 L766,-438 Z" stroke-width="0" fill="#3a0016" fill-opacity="0.7725490196078432" />
<path d="M694,-466 L434,-1050 L686,-290 L442,-558 L750,-650 L186,-850 Z" stroke-width="0" fill="#e6a6fc" fill-opacity="0.4117647058823529" />
<path d="M798,-422 L318,-478 L770,-1118 L330,-1226 L562,-1226 L446,-946 Z" stroke-width="0" fill="#000200" fill-opacity="0.5333333333333333" />
<path d="M230,-586 L354,-270 L398,-782 L622,-90 L494,-630 L130,-426 Z" stroke-width="0" fill="#39a4b2" fill-opacity="0.27450980392156865" />
<path d="M674,-322 L686,-546 L658,-1118 L210,-354 L502,-1194 L738,-542 Z" stroke-width="0" fill="#dda0c4" fill-opacity="0.396078431372549" />
<path d="M454,-714 L338,-442 L246,-910 L686,-414 L426,-1110 L674,-206 Z" stroke-width="0" fill="#a54b49" fill-opacity="0.5254901960784314" />
<path d="M426,-134 L610,-1218 L286,-714 L178,-1066 L626,-1242 L686,-598 Z" stroke-width="0" fill="#384736" fill-opacity="0.8156862745098039" />
<path d="M338,-246 L406,-1046 L258,-374 L134,-538 L330,-94 L446,-1066 Z" stroke-width="0" fill="#000000" fill-opacity="0.7137254901960784" />
<path d="M410,-242 L166,-546 L290,-246 L646,-398 L678,-478 L98,-494 Z" stroke-width="0" fill="#f7ba8f" fill-opacity="0.9215686274509803" />
<path d="M318,-754 L530,-322 L278,-702 L422,-674 L718,-362 L282,-226 Z" stroke-width="0" fill="#0320e4" fill-opacity="0.5686274509803921" />
<path d="M646,-1070 L702,-714 L498,-170 L662,-390 L430,-398 L550,-698 Z" stroke-width="0" fill="#ea9527" fill-opacity="0.29411764705882354" />
<path d="M458,-654 L262,-646 L594,-1054 L774,-1054 L694,-678 L270,-1118 Z" stroke-width="0" fill="#e30b00" fill-opacity="0.592156862745098" />
<path d="M382,-402 L810,-758 L270,-1302 L482,-774 L714,-1202 L114,-306 Z" stroke-width="0" fill="#4a2700" fill-opacity="0.7686274509803922" />
<path d="M414,-1214 L418,-790 L282,-138 L506,-98 L486,-554 L438,-142 Z" stroke-width="0" fill="#010a48" fill-opacity="0.9254901960784314" />
<path d="M302,-554 L762,-786 L190,-238 L310,-658 L542,-626 L562,-470 Z" stroke-width="0" fill="#a3d97e" fill-opacity="0.8588235294117647" />
<path d="M262,-534 L446,-462 L522,-202 L638,-738 L150,-118 L710,-286 Z" stroke-width="0" fill="#050048" fill-opacity="0.7725490196078432" />
<path d="M286,-530 L218,-1094 L326,-378 L218,-90 L142,-770 L706,-930 Z" stroke-width="0" fill="#080879" fill-opacity="0.803921568627451" />
<path d="M170,-906 L610,-98 L218,-418 L722,-1146 L798,-450 L638,-818 Z" stroke-width="0" fill="#981523" fill-opacity="0.6549019607843137" />
<path d="M798,-978 L650,-1258 L254,-1050 L282,-766 L378,-670 L194,-946 Z" stroke-width="0" fill="#57843b" fill-opacity="0.8235294117647058" />
<path d="M174,-714 L310,-1274 L602,-338 L466,-306 L190,-342 L142,-726 Z" stroke-width="0" fill="#46737d" fill-opacity="0.7803921568627451" />
<path d="M210,-630 L590,-154 L122,-314 L414,-1182 L574,-1006 L518,-1198 Z" stroke-width="0" fill="#1a2751" fill-opacity="0.43137254901960786" />
<path d="M170,-706 L766,-1018 L446,-426 L326,-174 L638,-618 L174,-602 Z" stroke-width="0" fill="#040f3b" fill-opacity="0.5294117647058824" />
<path d="M486,-790 L114,-94 L238,-318 L538,-410 L746,-930 L514,-102 Z" stroke-width="0" fill="#3c292c" fill-opacity="0.796078431372549" />
<path d="M102,-382 L554,-714 L766,-982 L414,-870 L322,-438 L710,-234 Z" stroke-width="0" fill="#7f7655" fill-opacity="0.7294117647058823" />
<path d="M118,-778 L138,-722 L706,-1302 L610,-1034 L706,-782 L714,-990 Z" stroke-width="0" fill="#2f6f4e" fill-opacity="0.7333333333333333" />
<path d="M514,-702 L190,-614 L686,-630 L614,-1258 L498,-1082 L422,-494 Z" stroke-width="0" fill="#6e757d" fill-opacity="0.6549019607843137" />
<path d="M730,-430 L482,-310 L726,-1114 L786,-590 L594,-466 L286,-1282 Z" stroke-width="0" fill="#ef8800" fill-opacity="0.8117647058823529" />
<path d="M430,-142 L294,-846 L782,-734 L326,-1170 L270,-258 L218,-874 Z" stroke-width="0" fill="#df6800" fill-opacity="0.5019607843137255" />
<path d="M686,-934 L154,-226 L334,-934 L346,-1182 L338,-474 L714,-726 Z" stroke-width="0" fill="#090552" fill-opacity="0.8666666666666667" />
<path d="M474,-1054 L702,-122 L550,-638 L202,-790 L374,-578 L754,-342 Z" stroke-width="0" fill="#000001" fill-opacity="0.5843137254901961" />
<path d="M130,-1066 L706,-1134 L246,-810 L154,-682 L126,-94 L198,-974 Z" stroke-width="0" fill="#5b4766" fill-opacity="0.9490196078431372" />
<path d="M754,-1174 L646,-186 L526,-246 L278,-906 L118,-142 L178,-546 Z" stroke-width="0" fill="#552f44" fill-opacity="0.9607843137254902" />
<path d="M302,-442 L158,-1162 L390,-982 L594,-558 L270,-470 L194,-142 Z" stroke-width="0" fill="#1b0d3e" fill-opacity="0.9803921568627451" />
<path d="M122,-546 L258,-1074 L230,-942 L686,-902 L342,-142 L718,-406 Z" stroke-width="0" fill="#01b6c6" fill-opacity="0.8392156862745098" />
<path d="M634,-794 L254,-1110 L358,-174 L622,-806 L726,-790 L434,-398 Z" stroke-width="0" fill="#0712b0" fill-opacity="0.9803921568627451" />
<path d="M206,-386 L318,-762 L134,-390 L606,-170 L146,-722 L774,-702 Z" stroke-width="0" fill="#2d3500" fill-opacity="0.3568627450980392" />
<path d="M322,-206 L242,-574 L182,-386 L638,-670 L462,-330 L278,-1162 Z" stroke-width="0" fill="#cdf8fa" fill-opacity="0.7411764705882353" />
<path d="M262,-954 L590,-1082 L274,-914 L450,-238 L462,-774 L618,-418 Z" stroke-width="0" fill="#57bfef" fill-opacity="0.9098039215686274" />
<path d="M414,-246 L430,-1286 L250,-598 L802,-630 L618,-318 L794,-1262 Z" stroke-width="0" fill="#43253c" fill-opacity="0.6078431372549019" />
<path d="M122,-498 L142,-542 L506,-366 L750,-674 L442,-874 L478,-1070 Z" stroke-width="0" fill="#5afbf2" fill-opacity="0.6313725490196078" />
<path d="M538,-1106 L234,-462 L594,-86 L670,-802 L226,-1018 L650,-618 Z" stroke-width="0" fill="#1c3347" fill-opacity="0.615686274509804" />
<path d="M402,-470 L222,-558 L558,-410 L314,-1086 L170,-646 L222,-1038 Z" stroke-width="0" fill="#dcfcc1" fill-opacity="0.996078431372549" />
<path d="M146,-942 L442,-538 L646,-998 L626,-1310 L486,-838 L322,-102 Z" stroke-width="0" fill="#3f3446" fill-opacity="0.7098039215686275" />
<path d="M262,-766 L190,-938 L578,-862 L150,-334 L554,-350 L718,-310 Z" stroke-width="0" fill="#9c71fd" fill-opacity="0.17254901960784313" />
<path d="M94,-342 L314,-494 L426,-230 L466,-734 L166,-1078 L694,-562 Z" stroke-width="0" fill="#08062f" fill-opacity="0.792156862745098" />
<path d="M602,-390 L286,-230 L302,-446 L622,-782 L550,-734 L154,-386 Z" stroke-width="0" fill="#13001b" fill-opacity="0.8392156862745098" />
<path d="M182,-486 L542,-266 L414,-686 L210,-898 L138,-474 L218,-218 Z" stroke-width="0" fill="#46d345" fill-opacity="0.011764705882352941" />
<path d="M566,-578 L730,-118 L662,-826 L170,-422 L582,-1110 L206,-1274 Z" stroke-width="0" fill="#047985" fill-opacity="0.8901960784313725" />
<path d="M206,-194 L762,-98 L346,-126 L678,-946 L154,-906 L102,-1078 Z" stroke-width="0" fill="#4a062d" fill-opacity="0.2901960784313726" />
<path d="M614,-350 L586,-658 L426,-330 L698,-398 L422,-766 L138,-1206 Z" stroke-width="0" fill="#01052f" fill-opacity="0.5843137254901961" />
<path d="M558,-1198 L698,-738 L94,-1110 L86,-326 L426,-862 L462,-1018 Z" stroke-width="0" fill="#870e00" fill-opacity="0.7686274509803922" />
<path d="M154,-1070 L514,-1158 L578,-982 L790,-582 L654,-810 L638,-1066 Z" stroke-width="0" fill="#b24471" fill-opacity="0.5294117647058824" />
<path d="M762,-222 L790,-654 L430,-542 L358,-578 L98,-210 L726,-1294 Z" stroke-width="0" fill="#744d01" fill-opacity="0.6784313725490196" />
<path d="M158,-586 L494,-630 L318,-690 L82,-790 L566,-706 L778,-242 Z" stroke-width="0" fill="#c34300" fill-opacity="0.8588235294117647" />
<path d="M230,-446 L698,-290 L366,-210 L318,-314 L450,-142 L354,-202 Z" stroke-width="0" fill="#ee6560" fill-opacity="0.8352941176470589" />
<path d="M766,-1142 L570,-418 L674,-254 L270,-534 L142,-938 L346,-350 Z" stroke-width="0" fill="#e9b436" fill-opacity="0.5803921568627451" />
<path d="M306,-838 L194,-222 L362,-742 L274,-802 L366,-474 L618,-110 Z" stroke-width="0" fill="#864536" fill-opacity="0.32941176470588235" />
<path d="M626,-1154 L222,-1154 L410,-506 L134,-458 L438,-1238 L514,-854 Z" stroke-width="0" fill="#756f54" fill-opacity="0.7529411764705882" />
<path d="M698,-1266 L762,-634 L242,-134 L658,-246 L650,-1174 L158,-994 Z" stroke-width="0" fill="#5f515b" fill-opacity="0.5803921568627451" />
<path d="M310,-126 L770,-942 L494,-1238 L330,-358 L630,-1070 L446,-150 Z" stroke-width="0" fill="#5d4d60" fill-opacity="0.42745098039215684" />
<path d="M522,-934 L486,-850 L162,-142 L314,-198 L202,-466 L686,-614 Z" stroke-width="0" fill="#405185" fill-opacity="0.9803921568627451" />
<path d="M422,-1038 L250,-650 L626,-942 L250,-1058 L650,-910 L638,-686 Z" stroke-width="0" fill="#f3eb00" fill-opacity="0.9568627450980393" />
<path d="M330,-222 L166,-426 L166,-1150 L334,-718 L394,-862 L358,-266 Z" stroke-width="0" fill="#ecc484" fill-opacity="0.5764705882352941" />
<path d="M582,-1014 L670,-370 L346,-534 L158,-126 L678,-954 L318,-910 Z" stroke-width="0" fill="#471661" fill-opacity="0.9372549019607843" />
<path d="M322,-338 L470,-82 L502,-130 L170,-630 L90,-1002 L354,-230 Z" stroke-width="0" fill="#7d5d60" fill-opacity="0.17254901960784313" />
<path d="M434,-294 L790,-350 L522,-370 L238,-454 L106,-678 L318,-974 Z" stroke-width="0" fill="#2e0406" fill-opacity="0.14901960784313725" />
<path d="M458,-478 L546,-578 L238,-426 L230,-506 L118,-342 L806,-1270 Z" stroke-width="0" fill="#bda33d" fill-opacity="0.396078431372549" />
<path d="M306,-994 L262,-1226 L170,-82 L622,-446 L178,-502 L250,-1038 Z" stroke-width="0" fill="#3f1d00" fill-opacity="0.5686274509803921" />
<path d="M742,-1094 L482,-550 L182,-270 L370,-802 L318,-558 L582,-838 Z" stroke-width="0" fill="#610495" fill-opacity="0.34901960784313724" />
<path d="M314,-534 L438,-658 L302,-350 L514,-146 L82,-474 L614,-142 Z" stroke-width="0" fill="#3f3869" fill-opacity="0.5215686274509804" />
<path d="M622,-1014 L770,-1070 L298,-498 L366,-994 L342,-1158 L738,-190 Z" stroke-width="0" fill="#d29764" fill-opacity="0.17647058823529413" />
<path d="M178,-182 L226,-1166 L482,-510 L626,-162 L606,-390 L246,-1034 Z" stroke-width="0" fill="#da783f" fill-opacity="0.24705882352941178" />
<path d="M238,-1270 L702,-1006 L802,-82 L722,-1286 L754,-454 L342,-134 Z" stroke-width="0" fill="#894921" fill-opacity="0.45098039215686275" />
<path d="M474,-1066 L662,-1222 L126,-730 L434,-530 L406,-1034 L346,-306 Z" stroke-width="0" fill="#d13d05" fill-opacity="0.5647058823529412" />
<path d="M278,-398 L590,-522 L658,-514 L434,-870 L746,-298 L330,-862 Z" stroke-width="0" fill="#050494" fill-opacity="0.7294117647058823" />
<path d="M554,-1302 L334,-1022 L734,-294 L638,-1138 L214,-190 L98,-226 Z" stroke-width="0" fill="#553920" fill-opacity="0.39215686274509803" />
<path d="M490,-530 L94,-818 L218,-814 L582,-578 L458,-894 L182,-1274 Z" stroke-width="0" fill="#c05f08" fill-opacity="0.5333333333333333" />
<path d="M494,-150 L322,-886 L286,-242 L406,-1242 L646,-94 L602,-998 Z" stroke-width="0" fill="#663a3e" fill-opacity="0.47058823529411764" />
<path d="M558,-218 L766,-866 L622,-1122 L282,-938 L286,-174 L454,-526 Z" stroke-width="0" fill="#dfb74f" fill-opacity="0.39215686274509803" />
<path d="M382,-1226 L82,-242 L238,-434 L538,-982 L302,-1154 L230,-510 Z" stroke-width="0" fill="#953850" fill-opacity="0.4235294117647059" />
<path d="M770,-366 L174,-806 L446,-706 L638,-1106 L222,-418 L522,-1150 Z" stroke-width="0" fill="#e89583" fill-opacity="0.22745098039215686" />
<path d="M586,-594 L362,-282 L270,-790 L126,-1282 L706,-462 L122,-1110 Z" stroke-width="0" fill="#948e4b" fill-opacity="0.8745098039215686" />
<path d="M586,-338 L758,-234 L282,-942 L370,-1222 L274,-1098 L326,-242 Z" stroke-width="0" fill="#632000" fill-opacity="0.5803921568627451" />
<path d="M510,-270 L482,-302 L458,-426 L534,-402 L130,-426 L550,-398 Z" stroke-width="0" fill="#745341" fill-opacity="0.5019607843137255" />
<path d="M714,-698 L750,-98 L662,-246 L714,-802 L678,-578 L682,-886 Z" stroke-width="0" fill="#89402b" fill-opacity="0.5450980392156862" />
<path d="M638,-658 L206,-654 L190,-330 L686,-982 L154,-446 L670,-470 Z" stroke-width="0" fill="#933c7a" fill-opacity="0.23529411764705882" />
<path d="M218,-702 L358,-1302 L442,-1098 L686,-90 L374,-834 L690,-278 Z" stroke-width="0" fill="#9d9f91" fill-opacity="0.21176470588235294" />
<path d="M602,-870 L594,-482 L254,-826 L334,-1026 L494,-1110 L534,-670 Z" stroke-width="0" fill="#feaa3e" fill-opacity="0.5019607843137255" />
<path d="M146,-1050 L710,-902 L578,-898 L582,-466 L722,-246 L314,-1014 Z" stroke-width="0" fill="#e4c149" fill-opacity="0.6509803921568628" />
<path d="M258,-774 L710,-822 L738,-822 L702,-370 L94,-926 L534,-250 Z" stroke-width="0" fill="#c95000" fill-opacity="0.5019607843137255" />
<path d="M170,-258 L90,-122 L742,-902 L174,-1262 L398,-1038 L710,-458 Z" stroke-width="0" fill="#001c72" fill-opacity="0.13725490196078433" />
<path d="M118,-446 L150,-138 L542,-970 L666,-926 L498,-990 L538,-1002 Z" stroke-width="0" fill="#444500" fill-opacity="0.1803921568627451" />
<text x="448.0" y="0" font-size="70.0" fill="black" text-anchor="middle" transform="translate(0,17.5)">7 OF FIRE</text>
</svg>