<?xml version="1.0" encoding="UTF-8"?>
<svg xmlns="http://www.w3.org/2000/svg" xmlns:xlink="http://www.w3.org/1999/xlink"
     width="275" height="375" viewBox="0 -350 275 375">
<defs>
</defs>
<rect x="15" y="-335" width="245" height="320" stroke="black" stroke-width="4" fill="white" />
<path d="M148,-166 L208,-249 L91,-201 L104,-166 L119,-175 L91,-33 Z" stroke-width="0" fill="#d75ec6" fill-opacity="0.054901960784313725" />
<path d="M151,-165 L60,-86 L99,-25 L68,-273 L44,-86 L112,-179 Z" stroke-width="0" fill="#004b92" fill-opacity="0.3686274509803922" />
<path d="M131,-175 L130,-96 L232,-169 L30,-204 L214,-245 L145,-94 Z" stroke-width="0" fill="#c27697" fill-opacity="0.6784313725490196" />
<path d="M28,-292 L156,-248 L165,-301 L210,-259 L209,-243 L163,-86 Z" stroke-width="0" fill="#006788" fill-opacity="0.9450980392156862" />
<path d="M178,-128 L137,-175 L177,-211 L90,-203 L247,-233 L102,-62 Z" stroke-width="0" fill="#d8f9ce" fill-opacity="0.01568627450980392" />
<path d="M246,-108 L102,-166 L203,-38 L106,-257 L36,-272 L197,-235 Z" stroke-width="0" fill="#000000" fill-opacity="0.8431372549019608" />
<path d="M160,-56 L218,-218 L84,-27 L244,-45 L209,-147 L81,-73 Z" stroke-width="0" fill="#00001d" fill-opacity="0.8509803921568627" />
<path d="M59,-252 L196,-81 L200,-279 L143,-32 L91,-109 L231,-296 Z" stroke-width="0" fill="#1ce8bd" fill-opacity="0.49019607843137253" />
<path d="M191,-118 L183,-45 L228,-148 L153,-109 L173,-286 L128,-32 Z" stroke-width="0" fill="#1b0315" fill-opacity="0.8470588235294118" />
<path d="M31,-263 L171,-113 L32,-94 L33,-174 L72,-123 L32,-125 Z" stroke-width="0" fill="#004f8d" fill-opacity="0.6862745098039216" />
<path d="M193,-319 L69,-71 L178,-277 L53,-52 L77,-315 L167,-258 Z" stroke-width="0" fill="#000077" fill-opacity="0.7372549019607844" />
<path d="M125,-259 L109,-84 L84,-137 L157,-317 L44,-210 L112,-97 Z" stroke-width="0" fill="#000b6e" fill-opacity="0.5019607843137255" />
<path d="M211,-146 L126,-262 L226,-266 L131,-306 L39,-84 L228,-200 Z" stroke-width="0" fill="#065780" fill-opacity="0.32941176470588235" />
<path d="M203,-305 L234,-263 L134,-146 L106,-103 L54,-151 L194,-183 Z" stroke-width="0" fill="#afbce3" fill-opacity="0.2980392156862745" />
<path d="M40,-94 L190,-215 L124,-122 L65,-314 L89,-40 L242,-284 Z" stroke-width="0" fill="#e0f4fd" fill-opacity="0.8705882352941177" />
<path d="M220,-62 L185,-39 L61,-55 L205,-36 L240,-48 L122,-313 Z" stroke-width="0" fill="#000000" fill-opacity="0.9137254901960784" />
<path d="M204,-214 L29,-30 L54,-279 L165,-284 L99,-205 L160,-191 Z" stroke-width="0" fill="#0047cc" fill-opacity="0.5411764705882353" />
<path d="M25,-77 L230,-244 L152,-155 L131,-167 L109,-311 L71,-25 Z" stroke-width="0" fill="#0032ae" fill-opacity="0.24705882352941178" />
<path d="M36,-139 L108,-43 L206,-30 L32,-198 L62,-242 L180,-124 Z" stroke-width="0" fill="#000000" fill-opacity="0.9372549019607843" />
<path d="M143,-168 L61,-177 L56,-148 L62,-26 L110,-144 L133,-254 Z" stroke-width="0" fill="#97d8ed" fill-opacity="0.6705882352941176" />
<path d="M206,-116 L80,-48 L219,-254 L150,-69 L49,-275 L243,-166 Z" stroke-width="0" fill="#01080e" fill-opacity="0.5019607843137255" />
<path d="M223,-63 L51,-293 L129,-75 L192,-214 L43,-85 L61,-32 Z" stroke-width="0" fill="#6fbeae" fill-opacity="0.5019607843137255" />
<path d="M114,-113 L165,-74 L140,-39 L41,-121 L25,-141 L132,-300 Z" stroke-width="0" fill="#0059a9" fill-opacity="0.8117647058823529" />
<path d="M94,-284 L54,-281 L35,-247 L100,-259 L59,-41 L125,-47 Z" stroke-width="0" fill="#008573" fill-opacity="0.7843137254901961" />
<path d="M44,-186 L244,-137 L249,-145 L80,-158 L82,-158 L78,-125 Z" stroke-width="0" fill="#00001b" fill-opacity="0.9803921568627451" />
<path d="M61,-125 L108,-76 L66,-235 L26,-174 L69,-49 L241,-257 Z" stroke-width="0" fill="#f1f0c4" fill-opacity="0.4470588235294118" />
<path d="M95,-197 L185,-64 L188,-65 L47,-157 L30,-60 L129,-291 Z" stroke-width="0" fill="#5596dc" fill-opacity="0.5411764705882353" />
<path d="M80,-240 L110,-113 L237,-252 L136,-150 L141,-213 L53,-286 Z" stroke-width="0" fill="#edf5cd" fill-opacity="0.25882352941176473" />
<path d="M112,-305 L70,-205 L215,-264 L171,-180 L111,-293 L67,-251 Z" stroke-width="0" fill="#000000" fill-opacity="0.8823529411764706" />
<path d="M144,-57 L31,-153 L174,-183 L195,-281 L27,-150 L112,-287 Z" stroke-width="0" fill="#0000ae" fill-opacity="0.5019607843137255" />
<path d="M214,-289 L137,-28 L215,-146 L45,-43 L27,-143 L146,-26 Z" stroke-width="0" fill="#6998d6" fill-opacity="0.8156862745098039" />
<path d="M139,-51 L137,-133 L234,-71 L36,-139 L220,-212 L169,-81 Z" stroke-width="0" fill="#023e18" fill-opacity="0.35294117647058826" />
<path d="M132,-45 L77,-259 L63,-313 L63,-250 L78,-74 L99,-211 Z" stroke-width="0" fill="#0010e8" fill-opacity="0.6392156862745098" />
<path d="M49,-86 L225,-96 L43,-55 L153,-151 L76,-48 L159,-44 Z" stroke-width="0" fill="#4de8b3" fill-opacity="0.5411764705882353" />
<path d="M192,-79 L143,-150 L156,-141 L189,-92 L211,-171 L235,-272 Z" stroke-width="0" fill="#c3c5e8" fill-opacity="0.07450980392156863" />
<path d="M146,-70 L188,-156 L78,-228 L167,-314 L35,-47 L56,-285 Z" stroke-width="0" fill="#019eeb" fill-opacity="0.5019607843137255" />
<path d="M135,-136 L113,-84 L177,-40 L59,-234 L249,-57 L63,-212 Z" stroke-width="0" fill="#000000" fill-opacity="0.7529411764705882" />
<path d="M172,-278 L143,-217 L65,-318 L230,-31 L153,-249 L50,-103 Z" stroke-width="0" fill="#0040b0" fill-opacity="0.9490196078431372" />
<path d="M232,-153 L64,-88 L223,-282 L156,-269 L93,-244 L111,-71 Z" stroke-width="0" fill="#24cfe9" fill-opacity="0.2" />
<path d="M177,-232 L29,-225 L124,-269 L149,-67 L211,-73 L121,-152 Z" stroke-width="0" fill="#be1135" fill-opacity="0.403921568627451" />
<path d="M185,-230 L35,-145 L157,-189 L232,-107 L122,-290 L123,-216 Z" stroke-width="0" fill="#67aaeb" fill-opacity="0.5882352941176471" />
<path d="M63,-29 L206,-216 L81,-109 L128,-136 L234,-103 L107,-211 Z" stroke-width="0" fill="#06064a" fill-opacity="0.10588235294117647" />
<path d="M87,-285 L88,-87 L105,-143 L73,-101 L55,-210 L161,-318 Z" stroke-width="0" fill="#0050af" fill-opacity="0.7803921568627451" />
<path d="M99,-235 L136,-78 L83,-62 L29,-295 L28,-163 L193,-91 Z" stroke-width="0" fill="#004d91" fill-opacity="0.6745098039215687" />
<path d="M42,-295 L197,-63 L45,-294 L142,-97 L171,-318 L223,-147 Z" stroke-width="0" fill="#000041" fill-opacity="0.6549019607843137" />
<path d="M57,-39 L60,-74 L220,-97 L54,-85 L145,-310 L106,-29 Z" stroke-width="0" fill="#72a0e0" fill-opacity="0.9803921568627451" />
<path d="M176,-216 L194,-215 L161,-175 L44,-27 L150,-180 L166,-196 Z" stroke-width="0" fill="#05107a" fill-opacity="0.21176470588235294" />
<path d="M32,-242 L121,-55 L95,-41 L36,-249 L79,-53 L127,-193 Z" stroke-width="0" fill="#236e9f" fill-opacity="0.4235294117647059" />
<path d="M81,-259 L88,-95 L92,-112 L80,-281 L205,-129 L120,-226 Z" stroke-width="0" fill="#889fdf" fill-opacity="0.2549019607843137" />
<path d="M142,-73 L80,-191 L52,-58 L152,-317 L86,-244 L64,-195 Z" stroke-width="0" fill="#3885bd" fill-opacity="0.6235294117647059" />
<path d="M141,-258 L230,-40 L67,-290 L110,-256 L190,-243 L132,-151 Z" stroke-width="0" fill="#0000f2" fill-opacity="0.7254901960784313" />
<path d="M89,-300 L199,-63 L156,-265 L208,-31 L38,-124 L79,-164 Z" stroke-width="0" fill="#000000" fill-opacity="1.0" />
<path d="M111,-192 L101,-84 L237,-197 L59,-194 L109,-214 L114,-76 Z" stroke-width="0" fill="#ce4518" fill-opacity="0.22745098039215686" />
<path d="M91,-278 L110,-233 L38,-234 L128,-99 L109,-265 L140,-104 Z" stroke-width="0" fill="#0a3c88" fill-opacity="0.4470588235294118" />
<path d="M168,-227 L201,-49 L106,-205 L61,-101 L54,-255 L38,-39 Z" stroke-width="0" fill="#cb7bbe" fill-opacity="0.10980392156862745" />
<path d="M197,-109 L209,-276 L91,-95 L97,-207 L141,-107 L199,-232 Z" stroke-width="0" fill="#f887d6" fill-opacity="0.4627450980392157" />
<path d="M191,-78 L41,-224 L129,-222 L214,-88 L207,-144 L225,-31 Z" stroke-width="0" fill="#000000" fill-opacity="0.9294117647058824" />
<path d="M123,-211 L124,-216 L217,-42 L89,-293 L39,-143 L63,-278 Z" stroke-width="0" fill="#85d2d4" fill-opacity="0.1607843137254902" />
<path d="M143,-60 L97,-27 L146,-319 L70,-41 L143,-156 L113,-298 Z" stroke-width="0" fill="#3693de" fill-opacity="0.4666666666666667" />
<path d="M172,-77 L82,-321 L125,-209 L234,-42 L49,-315 L209,-151 Z" stroke-width="0" fill="#004799" fill-opacity="0.807843137254902" />
<path d="M133,-79 L133,-227 L80,-145 L153,-184 L225,-52 L173,-87 Z" stroke-width="0" fill="#000000" fill-opacity="0.9137254901960784" />
<path d="M224,-269 L243,-200 L215,-214 L67,-214 L239,-207 L118,-208 Z" stroke-width="0" fill="#e3fbc9" fill-opacity="0.1411764705882353" />
<path d="M25,-186 L241,-139 L148,-180 L143,-56 L95,-218 L76,-243 Z" stroke-width="0" fill="#553eb5" fill-opacity="0.4666666666666667" />
<path d="M49,-169 L124,-233 L71,-67 L67,-78 L184,-166 L92,-225 Z" stroke-width="0" fill="#bdcef6" fill-opacity="0.9568627450980393" />
<path d="M51,-183 L232,-252 L151,-66 L86,-74 L98,-206 L57,-274 Z" stroke-width="0" fill="#f7e9b5" fill-opacity="0.00784313725490196" />
<path d="M48,-209 L204,-155 L52,-75 L192,-148 L36,-119 L46,-145 Z" stroke-width="0" fill="#bd42d4" fill-opacity="0.5019607843137255" />
<path d="M110,-310 L179,-94 L186,-199 L40,-142 L127,-68 L84,-136 Z" stroke-width="0" fill="#000000" fill-opacity="0.8470588235294118" />
<path d="M143,-25 L148,-73 L98,-196 L161,-302 L166,-67 L26,-169 Z" stroke-width="0" fill="#bfe3d2" fill-opacity="0.5019607843137255" />
<path d="M130,-90 L47,-179 L118,-101 L243,-150 L242,-315 L178,-135 Z" stroke-width="0" fill="#e5fcc0" fill-opacity="0.043137254901960784" />
<path d="M51,-61 L152,-182 L173,-206 L236,-315 L158,-191 L166,-189 Z" stroke-width="0" fill="#0dd6ef" fill-opacity="0.5019607843137255" />
<path d="M158,-28 L89,-271 L203,-131 L207,-199 L42,-90 L115,-179 Z" stroke-width="0" fill="#0e124e" fill-opacity="0.03529411764705882" />
<path d="M94,-221 L72,-129 L222,-124 L67,-245 L167,-232 L101,-71 Z" stroke-width="0" fill="#14336d" fill-opacity="0.9372549019607843" />
<path d="M218,-66 L46,-166 L76,-216 L95,-228 L156,-271 L75,-199 Z" stroke-width="0" fill="#001f14" fill-opacity="0.0784313725490196" />
<path d="M193,-309 L59,-108 L152,-35 L146,-110 L163,-100 L113,-197 Z" stroke-width="0" fill="#b1fb8e" fill-opacity="0.4" />
<path d="M223,-164 L239,-51 L218,-124 L110,-47 L170,-50 L78,-146 Z" stroke-width="0" fill="#000000" fill-opacity="0.7098039215686275" />
<path d="M222,-309 L36,-135 L42,-202 L123,-149 L69,-46 L212,-84 Z" stroke-width="0" fill="#24cf8f" fill-opacity="0.0" />
<path d="M94,-46 L201,-167 L48,-182 L123,-36 L121,-50 L63,-133 Z" stroke-width="0" fill="#bbffe7" fill-opacity="0.8117647058823529" />
<path d="M238,-179 L103,-222 L164,-42 L56,-90 L119,-47 L220,-246 Z" stroke-width="0" fill="#fdeccb" fill-opacity="0.47058823529411764" />
<path d="M122,-235 L61,-169 L49,-56 L158,-27 L55,-153 L89,-59 Z" stroke-width="0" fill="#7096cd" fill-opacity="0.9725490196078431" />
<path d="M98,-106 L228,-256 L149,-193 L37,-232 L179,-82 L106,-70 Z" stroke-width="0" fill="#cff8f7" fill-opacity="0.33725490196078434" />
<path d="M120,-198 L210,-44 L170,-250 L246,-76 L60,-228 L111,-278 Z" stroke-width="0" fill="#000000" fill-opacity="0.6" />
<path d="M60,-124 L189,-87 L64,-125 L154,-92 L197,-257 L116,-223 Z" stroke-width="0" fill="#f8eec7" fill-opacity="0.20392156862745098" />
<path d="M230,-94 L206,-57 L172,-163 L150,-315 L33,-28 L201,-164 Z" stroke-width="0" fill="#1571de" fill-opacity="0.13725490196078433" />
<path d="M46,-267 L96,-57 L57,-48 L216,-64 L29,-114 L104,-292 Z" stroke-width="0" fill="#008adb" fill-opacity="0.5019607843137255" />
<path d="M196,-62 L198,-249 L98,-112 L170,-26 L113,-230 L75,-108 Z" stroke-width="0" fill="#4456fe" fill-opacity="0.00784313725490196" />
<path d="M44,-36 L195,-296 L46,-29 L141,-174 L225,-297 L113,-159 Z" stroke-width="0" fill="#1c7269" fill-opacity="0.011764705882352941" />
<path d="M204,-188 L228,-116 L53,-106 L38,-240 L47,-221 L42,-35 Z" stroke-width="0" fill="#12c746" fill-opacity="0.03529411764705882" />
<path d="M210,-100 L62,-87 L219,-59 L194,-287 L109,-158 L57,-76 Z" stroke-width="0" fill="#000000" fill-opacity="0.5019607843137255" />
<path d="M229,-141 L25,-235 L174,-298 L46,-254 L90,-198 L171,-196 Z" stroke-width="0" fill="#0010bd" fill-opacity="0.06274509803921569" />
<path d="M67,-194 L83,-172 L142,-248 L62,-69 L220,-52 L99,-186 Z" stroke-width="0" fill="#674c0b" fill-opacity="0.00392156862745098" />
<path d="M75,-121 L97,-170 L98,-33 L204,-98 L228,-167 L27,-147 Z" stroke-width="0" fill="#3a9ed1" fill-opacity="0.9725490196078431" />
<path d="M223,-58 L192,-112 L45,-105 L132,-179 L65,-262 L111,-296 Z" stroke-width="0" fill="#a6deb2" fill-opacity="0.08235294117647059" />
<path d="M91,-266 L204,-242 L39,-100 L88,-206 L241,-134 L101,-32 Z" stroke-width="0" fill="#eff1c9" fill-opacity="0.3058823529411765" />
<path d="M89,-270 L70,-46 L56,-208 L46,-263 L66,-315 L28,-51 Z" stroke-width="0" fill="#255d97" fill-opacity="0.5568627450980392" />
<path d="M238,-293 L203,-131 L233,-235 L47,-230 L66,-40 L172,-215 Z" stroke-width="0" fill="#8cccc7" fill-opacity="0.5215686274509804" />
<path d="M244,-129 L95,-82 L99,-259 L111,-94 L79,-170 L125,-221 Z" stroke-width="0" fill="#e5f8d6" fill-opacity="0.03529411764705882" />
<path d="M186,-50 L212,-146 L49,-220 L214,-314 L69,-145 L198,-190 Z" stroke-width="0" fill="#000048" fill-opacity="0.16862745098039217" />
<path d="M178,-144 L25,-296 L36,-161 L127,-80 L116,-191 L225,-303 Z" stroke-width="0" fill="#0063d3" fill-opacity="0.5019607843137255" />
<path d="M99,-27 L54,-242 L227,-239 L178,-256 L227,-99 L101,-166 Z" stroke-width="0" fill="#49c1d1" fill-opacity="0.2196078431372549" />
<path d="M227,-98 L117,-105 L229,-266 L216,-315 L105,-102 L43,-55 Z" stroke-width="0" fill="#6983eb" fill-opacity="0.4823529411764706" />
<text x="137.5" y="12.5" font-size="20.0" fill="black" text-anchor="middle" transform="translate(0,5.0)">7 OF FIRE</text>
</svg>