<?xml version="1.0" encoding="UTF-8"?>
<svg xmlns="http://www.w3.org/2000/svg" xmlns:xlink="http://www.w3.org/1999/xlink"
     width="275" height="375" viewBox="0 -350 275 375">
<defs>
</defs>
<rect x="15" y="-335" width="245" height="320" stroke="black" stroke-width="4" fill="white" />
<path d="M152,-89 L27,-235 L56,-226 L242,-219 L180,-249 L118,-77 Z" stroke-width="0" fill="#abb5d8" fill-opacity="0.047058823529411764" />
<path d="M86,-75 L38,-238 L108,-324 L98,-33 L198,-251 L171,-138 Z" stroke-width="0" fill="#0f1301" fill-opacity="0.06666666666666667" />
<path d="M215,-214 L142,-30 L208,-138 L56,-49 L46,-324 L51,-97 Z" stroke-width="0" fill="#cfbb81" fill-opacity="0.1843137254901961" />
<path d="M159,-67 L161,-198 L105,-191 L46,-113 L122,-44 L196,-63 Z" stroke-width="0" fill="#ebe2dd" fill-opacity="0.11764705882352941" />
<path d="M203,-260 L101,-45 L227,-61 L146,-118 L43,-225 L185,-41 Z" stroke-width="0" fill="#e20801" fill-opacity="0.09411764705882353" />
<path d="M44,-97 L117,-233 L39,-58 L148,-172 L96,-37 L116,-99 Z" stroke-width="0" fill="#edefd1" fill-opacity="0.1568627450980392" />
<path d="M156,-280 L173,-46 L30,-184 L179,-77 L158,-104 L33,-272 Z" stroke-width="0" fill="#be7b14" fill-opacity="0.23137254901960785" />
<path d="M127,-273 L189,-109 L27,-52 L38,-258 L190,-212 L57,-146 Z" stroke-width="0" fill="#c2943f" fill-opacity="0.3058823529411765" />
<path d="M174,-203 L175,-209 L43,-256 L112,-193 L115,-304 L127,-54 Z" stroke-width="0" fill="#b59a59" fill-opacity="0.35294117647058826" />
<path d="M95,-207 L53,-309 L211,-124 L75,-47 L56,-46 L101,-52 Z" stroke-width="0" fill="#cfbc94" fill-opacity="0.5372549019607843" />
<path d="M178,-135 L245,-189 L227,-96 L198,-248 L213,-231 L129,-41 Z" stroke-width="0" fill="#140e00" fill-opacity="0.41568627450980394" />
<path d="M70,-235 L136,-39 L158,-165 L178,-136 L212,-225 L201,-261 Z" stroke-width="0" fill="#fda9e8" fill-opacity="0.9098039215686274" />
<path d="M36,-144 L201,-141 L150,-129 L61,-126 L107,-179 L66,-277 Z" stroke-width="0" fill="#d6de99" fill-opacity="0.21176470588235294" />
<path d="M99,-106 L77,-170 L184,-284 L193,-87 L90,-293 L77,-293 Z" stroke-width="0" fill="#f79349" fill-opacity="0.3686274509803922" />
<path d="M35,-76 L138,-87 L37,-252 L42,-257 L66,-54 L124,-135 Z" stroke-width="0" fill="#d3cda1" fill-opacity="0.16862745098039217" />
<path d="M66,-194 L114,-57 L97,-108 L215,-215 L141,-98 L114,-49 Z" stroke-width="0" fill="#b4c4bd" fill-opacity="0.2980392156862745" />
<path d="M28,-157 L223,-49 L121,-225 L145,-76 L65,-145 L32,-98 Z" stroke-width="0" fill="#c1c084" fill-opacity="0.28627450980392155" />
<path d="M162,-163 L198,-76 L43,-186 L66,-300 L39,-200 L218,-100 Z" stroke-width="0" fill="#93ebd1" fill-opacity="0.054901960784313725" />
<path d="M142,-229 L53,-151 L176,-189 L170,-46 L27,-263 L103,-134 Z" stroke-width="0" fill="#d8b9b1" fill-opacity="0.4196078431372549" />
<path d="M161,-189 L155,-302 L130,-191 L187,-84 L174,-155 L82,-87 Z" stroke-width="0" fill="#635202" fill-opacity="0.2235294117647059" />
<path d="M190,-156 L26,-148 L235,-32 L112,-104 L121,-255 L219,-131 Z" stroke-width="0" fill="#f0af82" fill-opacity="0.37254901960784315" />
<path d="M166,-281 L57,-53 L198,-162 L92,-132 L161,-64 L171,-107 Z" stroke-width="0" fill="#f0efd3" fill-opacity="0.08235294117647059" />
<path d="M228,-140 L222,-213 L160,-111 L28,-132 L232,-127 L239,-150 Z" stroke-width="0" fill="#441018" fill-opacity="0.9607843137254902" />
<path d="M83,-256 L111,-250 L138,-50 L232,-111 L51,-295 L110,-124 Z" stroke-width="0" fill="#e8b26d" fill-opacity="0.1803921568627451" />
<path d="M237,-312 L29,-109 L75,-221 L30,-199 L184,-182 L86,-224 Z" stroke-width="0" fill="#6f5d13" fill-opacity="0.20784313725490197" />
<path d="M160,-76 L106,-75 L74,-197 L110,-57 L76,-152 L40,-295 Z" stroke-width="0" fill="#6d0608" fill-opacity="0.13725490196078433" />
<path d="M77,-74 L198,-195 L154,-49 L185,-172 L113,-206 L81,-267 Z" stroke-width="0" fill="#f88b68" fill-opacity="0.6509803921568628" />
<path d="M68,-121 L227,-88 L169,-207 L163,-85 L53,-161 L48,-313 Z" stroke-width="0" fill="#1e05d6" fill-opacity="0.03529411764705882" />
<path d="M105,-282 L207,-238 L63,-300 L240,-57 L238,-122 L208,-129 Z" stroke-width="0" fill="#5e8d9c" fill-opacity="0.1843137254901961" />
<path d="M54,-122 L81,-253 L46,-166 L210,-227 L209,-267 L76,-179 Z" stroke-width="0" fill="#d1e8e9" fill-opacity="0.050980392156862744" />
<path d="M62,-41 L61,-57 L64,-258 L197,-86 L166,-202 L59,-227 Z" stroke-width="0" fill="#f5ffe4" fill-opacity="0.8980392156862745" />
<path d="M108,-145 L57,-182 L213,-98 L140,-279 L182,-171 L118,-276 Z" stroke-width="0" fill="#af3cc5" fill-opacity="0.9215686274509803" />
<path d="M79,-159 L204,-76 L104,-275 L127,-315 L134,-103 L245,-312 Z" stroke-width="0" fill="#8c7c38" fill-opacity="0.30980392156862746" />
<path d="M109,-48 L147,-159 L140,-243 L186,-61 L81,-49 L181,-208 Z" stroke-width="0" fill="#ede8fd" fill-opacity="0.8901960784313725" />
<path d="M141,-64 L101,-81 L66,-260 L208,-228 L114,-238 L73,-214 Z" stroke-width="0" fill="#fdfff2" fill-opacity="0.8901960784313725" />
<path d="M176,-104 L43,-141 L129,-191 L77,-58 L43,-249 L70,-131 Z" stroke-width="0" fill="#fad895" fill-opacity="0.5058823529411764" />
<path d="M180,-94 L230,-235 L202,-179 L90,-289 L73,-271 L195,-289 Z" stroke-width="0" fill="#ea1df9" fill-opacity="0.09803921568627451" />
<path d="M51,-129 L68,-79 L29,-140 L106,-276 L120,-76 L62,-47 Z" stroke-width="0" fill="#f2f9ee" fill-opacity="0.5019607843137255" />
<path d="M143,-65 L160,-257 L25,-143 L131,-142 L29,-84 L136,-106 Z" stroke-width="0" fill="#a57dd6" fill-opacity="0.07058823529411765" />
<path d="M163,-209 L95,-45 L156,-263 L91,-258 L178,-146 L82,-279 Z" stroke-width="0" fill="#c0f0fc" fill-opacity="0.4823529411764706" />
<path d="M61,-175 L57,-88 L157,-162 L212,-49 L220,-194 L112,-37 Z" stroke-width="0" fill="#e1102b" fill-opacity="0.13725490196078433" />
<path d="M159,-125 L173,-220 L79,-152 L52,-254 L187,-223 L101,-196 Z" stroke-width="0" fill="#9ff1fb" fill-opacity="0.8313725490196079" />
<path d="M42,-136 L118,-42 L45,-38 L111,-94 L156,-69 L204,-118 Z" stroke-width="0" fill="#f2b07b" fill-opacity="0.49019607843137253" />
<path d="M60,-157 L46,-321 L124,-197 L114,-34 L171,-113 L204,-60 Z" stroke-width="0" fill="#cbba7a" fill-opacity="0.40784313725490196" />
<path d="M30,-151 L86,-247 L37,-185 L84,-264 L103,-140 L66,-267 Z" stroke-width="0" fill="#e5d1b3" fill-opacity="0.6549019607843137" />
<path d="M117,-32 L25,-83 L134,-118 L148,-177 L224,-30 L104,-44 Z" stroke-width="0" fill="#8ca33c" fill-opacity="0.2235294117647059" />
<path d="M27,-203 L177,-40 L215,-224 L80,-120 L133,-33 L53,-128 Z" stroke-width="0" fill="#29044c" fill-opacity="0.0" />
<path d="M194,-96 L173,-189 L80,-175 L237,-60 L148,-219 L123,-115 Z" stroke-width="0" fill="#afbc9d" fill-opacity="0.596078431372549" />
<path d="M247,-116 L208,-255 L214,-202 L40,-223 L185,-288 L45,-49 Z" stroke-width="0" fill="#4e071f" fill-opacity="0.15294117647058825" />
<path d="M241,-284 L225,-75 L234,-96 L178,-217 L46,-321 L125,-289 Z" stroke-width="0" fill="#1b2314" fill-opacity="0.10980392156862745" />
<path d="M248,-278 L238,-25 L233,-122 L62,-277 L47,-43 L51,-187 Z" stroke-width="0" fill="#996413" fill-opacity="0.27058823529411763" />
<path d="M193,-196 L125,-97 L109,-101 L218,-215 L108,-290 L215,-107 Z" stroke-width="0" fill="#19a7b9" fill-opacity="0.043137254901960784" />
<path d="M218,-234 L235,-187 L142,-136 L107,-104 L216,-83 L66,-216 Z" stroke-width="0" fill="#fff8d6" fill-opacity="0.5333333333333333" />
<path d="M83,-170 L81,-96 L118,-178 L215,-63 L146,-48 L137,-177 Z" stroke-width="0" fill="#d4dbd3" fill-opacity="0.6862745098039216" />
<path d="M199,-259 L223,-35 L106,-92 L76,-123 L120,-137 L97,-176 Z" stroke-width="0" fill="#daddb4" fill-opacity="0.5529411764705883" />
<path d="M43,-246 L132,-196 L65,-39 L160,-259 L76,-59 L34,-100 Z" stroke-width="0" fill="#f2d9c8" fill-opacity="0.8588235294117647" />
<path d="M114,-196 L159,-133 L69,-121 L151,-298 L40,-139 L109,-293 Z" stroke-width="0" fill="#ffdeef" fill-opacity="0.09803921568627451" />
<path d="M25,-77 L117,-159 L63,-172 L188,-188 L144,-155 L221,-304 Z" stroke-width="0" fill="#dae2ba" fill-opacity="0.4470588235294118" />
<path d="M202,-260 L115,-32 L105,-124 L92,-316 L64,-216 L54,-78 Z" stroke-width="0" fill="#e5dbf4" fill-opacity="0.6784313725490196" />
<path d="M86,-159 L221,-58 L134,-313 L80,-266 L194,-273 L215,-136 Z" stroke-width="0" fill="#c1c4b4" fill-opacity="0.5019607843137255" />
<path d="M58,-247 L215,-52 L89,-198 L30,-30 L133,-290 L216,-224 Z" stroke-width="0" fill="#f3eef3" fill-opacity="0.5450980392156862" />
<path d="M132,-160 L77,-41 L228,-155 L161,-98 L208,-315 L56,-81 Z" stroke-width="0" fill="#c5d4fa" fill-opacity="0.6745098039215687" />
<path d="M121,-42 L28,-304 L114,-166 L184,-140 L204,-129 L87,-217 Z" stroke-width="0" fill="#efd8c6" fill-opacity="0.8705882352941177" />
<path d="M207,-264 L113,-215 L78,-191 L240,-218 L217,-306 L125,-151 Z" stroke-width="0" fill="#feeeee" fill-opacity="0.1450980392156863" />
<path d="M78,-28 L84,-109 L48,-203 L44,-296 L44,-309 L43,-295 Z" stroke-width="0" fill="#93cda1" fill-opacity="0.0392156862745098" />
<path d="M221,-81 L96,-263 L75,-143 L71,-65 L134,-53 L65,-41 Z" stroke-width="0" fill="#fefbcb" fill-opacity="0.7843137254901961" />
<path d="M231,-167 L36,-242 L68,-36 L122,-217 L66,-214 L45,-166 Z" stroke-width="0" fill="#fd25fb" fill-opacity="0.0196078431372549" />
<path d="M140,-255 L158,-284 L94,-92 L53,-272 L32,-268 L185,-265 Z" stroke-width="0" fill="#efe5e0" fill-opacity="0.7803921568627451" />
<path d="M174,-172 L98,-74 L212,-61 L195,-115 L36,-110 L145,-134 Z" stroke-width="0" fill="#47a6ff" fill-opacity="0.12549019607843137" />
<path d="M71,-181 L242,-69 L31,-62 L135,-305 L94,-238 L86,-156 Z" stroke-width="0" fill="#f1e2e0" fill-opacity="0.4470588235294118" />
<path d="M137,-36 L231,-130 L89,-70 L185,-196 L206,-312 L234,-118 Z" stroke-width="0" fill="#6998cb" fill-opacity="0.01568627450980392" />
<path d="M70,-233 L72,-106 L90,-54 L89,-33 L142,-294 L90,-164 Z" stroke-width="0" fill="#da91d1" fill-opacity="0.24313725490196078" />
<path d="M58,-257 L154,-259 L58,-147 L111,-200 L149,-316 L149,-57 Z" stroke-width="0" fill="#e4c39d" fill-opacity="0.3215686274509804" />
<path d="M76,-216 L42,-67 L104,-190 L85,-133 L229,-217 L111,-45 Z" stroke-width="0" fill="#ba448b" fill-opacity="0.10588235294117647" />
<path d="M173,-53 L30,-90 L216,-202 L136,-168 L67,-110 L220,-151 Z" stroke-width="0" fill="#f8f296" fill-opacity="0.07450980392156863" />
<path d="M89,-296 L237,-238 L224,-314 L196,-234 L201,-246 L130,-216 Z" stroke-width="0" fill="#dae9ea" fill-opacity="0.21568627450980393" />
<path d="M53,-54 L52,-189 L189,-322 L223,-27 L145,-214 L128,-264 Z" stroke-width="0" fill="#e4d564" fill-opacity="0.3058823529411765" />
<path d="M199,-52 L97,-132 L65,-103 L152,-248 L180,-223 L139,-189 Z" stroke-width="0" fill="#f7e1e2" fill-opacity="0.20392156862745098" />
<path d="M86,-105 L43,-40 L183,-181 L176,-59 L196,-191 L72,-207 Z" stroke-width="0" fill="#c85b1c" fill-opacity="0.2" />
<path d="M220,-113 L38,-185 L35,-189 L63,-36 L144,-157 L146,-28 Z" stroke-width="0" fill="#c6ddaf" fill-opacity="0.12156862745098039" />
<path d="M94,-189 L99,-67 L63,-196 L110,-236 L131,-143 L138,-218 Z" stroke-width="0" fill="#cdbeda" fill-opacity="0.1411764705882353" />
<path d="M82,-129 L90,-63 L202,-256 L78,-45 L236,-78 L227,-170 Z" stroke-width="0" fill="#f7bc73" fill-opacity="0.5019607843137255" />
<path d="M64,-85 L49,-137 L221,-104 L149,-46 L138,-317 L210,-234 Z" stroke-width="0" fill="#fbe1ea" fill-opacity="0.06274509803921569" />
<path d="M138,-106 L166,-185 L223,-132 L125,-73 L129,-240 L121,-111 Z" stroke-width="0" fill="#7c130a" fill-opacity="0.7764705882352941" />
<path d="M77,-297 L104,-192 L213,-82 L203,-230 L120,-39 L200,-27 Z" stroke-width="0" fill="#cb2195" fill-opacity="0.027450980392156862" />
<path d="M140,-83 L107,-239 L210,-44 L202,-259 L160,-90 L185,-58 Z" stroke-width="0" fill="#c6e6f2" fill-opacity="0.16470588235294117" />
<path d="M34,-150 L35,-130 L42,-233 L93,-246 L29,-278 L72,-60 Z" stroke-width="0" fill="#afdcb1" fill-opacity="0.12549019607843137" />
<path d="M50,-127 L149,-305 L32,-221 L59,-162 L217,-87 L83,-256 Z" stroke-width="0" fill="#aef785" fill-opacity="0.058823529411764705" />
<path d="M191,-128 L38,-79 L118,-150 L101,-233 L110,-79 L170,-60 Z" stroke-width="0" fill="#eae2b8" fill-opacity="0.9333333333333333" />
<path d="M187,-278 L37,-84 L36,-160 L141,-247 L223,-193 L106,-77 Z" stroke-width="0" fill="#b0e6c9" fill-opacity="0.047058823529411764" />
<path d="M111,-52 L106,-253 L30,-269 L180,-275 L242,-90 L111,-244 Z" stroke-width="0" fill="#cac6af" fill-opacity="0.2235294117647059" />
<path d="M75,-236 L114,-192 L90,-50 L215,-125 L99,-314 L32,-70 Z" stroke-width="0" fill="#ffb283" fill-opacity="0.12549019607843137" />
<path d="M184,-42 L36,-220 L27,-250 L196,-87 L85,-171 L192,-26 Z" stroke-width="0" fill="#e7c8bf" fill-opacity="0.5647058823529412" />
<path d="M149,-84 L71,-39 L150,-70 L51,-250 L84,-89 L30,-258 Z" stroke-width="0" fill="#c2f7a6" fill-opacity="0.050980392156862744" />
<path d="M123,-206 L202,-196 L135,-195 L51,-31 L153,-40 L223,-139 Z" stroke-width="0" fill="#bbaa90" fill-opacity="0.2823529411764706" />
<path d="M119,-128 L101,-263 L44,-198 L64,-222 L145,-38 L110,-297 Z" stroke-width="0" fill="#e2eff4" fill-opacity="0.10588235294117647" />
<path d="M109,-241 L52,-174 L73,-218 L109,-249 L65,-88 L86,-59 Z" stroke-width="0" fill="#d2e9b3" fill-opacity="0.20392156862745098" />
<path d="M205,-118 L78,-278 L238,-195 L115,-213 L206,-230 L120,-157 Z" stroke-width="0" fill="#e8d0ab" fill-opacity="0.20392156862745098" />
<path d="M72,-180 L83,-65 L187,-127 L151,-88 L55,-216 L69,-208 Z" stroke-width="0" fill="#d2e9dc" fill-opacity="0.3803921568627451" />
<path d="M211,-300 L41,-76 L150,-260 L244,-96 L172,-106 L64,-242 Z" stroke-width="0" fill="#5d2359" fill-opacity="0.011764705882352941" />
<text x="137.5" y="12.5" font-size="20.0" fill="black" text-anchor="middle" transform="translate(0,5.0)">KING OF FIRE</text>
</svg>