<?xml version="1.0" encoding="UTF-8"?>
<svg xmlns="http://www.w3.org/2000/svg" xmlns:xlink="http://www.w3.org/1999/xlink"
     width="896" height="1496" viewBox="0 -1400 896 1496" style="font-size:70;font-family:Poor Richard, Times New Roman;stroke:black;stroke-width:1;fill:none">
<defs>
</defs>
<path d="M478,-458 L666,-278 L322,-874 L594,-414 L350,-650 L314,-1154 Z" stroke-width="0" fill="#cb3b15" fill-opacity="0.6627450980392157" />
<path d="M378,-122 L150,-446 L490,-386 L134,-286 L602,-370 L166,-782 Z" stroke-width="0" fill="#000300" fill-opacity="0.9568627450980393" />
<path d="M770,-1110 L370,-122 L306,-426 L146,-998 L326,-566 L94,-838 Z" stroke-width="0" fill="#000012" fill-opacity="0.8901960784313725" />
<path d="M450,-918 L634,-778 L134,-494 L598,-846 L790,-1242 L162,-150 Z" stroke-width="0" fill="#291600" fill-opacity="0.8823529411764706" />
<path d="M362,-790 L110,-762 L134,-1218 L170,-854 L514,-218 L194,-242 Z" stroke-width="0" fill="#090700" fill-opacity="0.9803921568627451" />
<path d="M338,-262 L274,-750 L334,-266 L566,-994 L258,-482 L298,-402 Z" stroke-width="0" fill="#174e83" fill-opacity="0.8235294117647058" />
<path d="M774,-874 L274,-1190 L202,-674 L450,-110 L206,-698 L122,-878 Z" stroke-width="0" fill="#000000" fill-opacity="0.8627450980392157" />
<path d="M362,-1134 L94,-986 L746,-402 L390,-382 L262,-1038 L470,-106 Z" stroke-width="0" fill="#000000" fill-opacity="0.8901960784313725" />
<path d="M710,-282 L182,-1030 L706,-894 L466,-866 L462,-542 L426,-930 Z" stroke-width="0" fill="#66e9ca" fill-opacity="0.2901960784313726" />
<path d="M594,-1206 L614,-466 L114,-1054 L434,-526 L390,-622 L150,-726 Z" stroke-width="0" fill="#138958" fill-opacity="0.6705882352941176" />
<path d="M322,-662 L458,-770 L506,-942 L238,-558 L194,-918 L142,-518 Z" stroke-width="0" fill="#895e79" fill-opacity="0.22745098039215686" />
<path d="M362,-930 L634,-366 L114,-1086 L82,-1106 L378,-298 L122,-390 Z" stroke-width="0" fill="#000000" fill-opacity="0.9450980392156862" />
<path d="M574,-382 L146,-258 L490,-354 L510,-462 L358,-374 L306,-1078 Z" stroke-width="0" fill="#001f00" fill-opacity="0.9019607843137255" />
<path d="M654,-398 L666,-566 L90,-1114 L590,-338 L418,-86 L486,-474 Z" stroke-width="0" fill="#0a0000" fill-opacity="0.9647058823529412" />
<path d="M694,-574 L514,-1262 L158,-502 L598,-1278 L478,-1042 L598,-174 Z" stroke-width="0" fill="#000000" fill-opacity="0.8666666666666667" />
<path d="M642,-738 L166,-410 L90,-750 L418,-1106 L390,-122 L86,-314 Z" stroke-width="0" fill="#1a0013" fill-opacity="0.9372549019607843" />
<path d="M378,-246 L90,-750 L366,-90 L98,-126 L730,-790 L646,-242 Z" stroke-width="0" fill="#000000" fill-opacity="0.796078431372549" />
<path d="M338,-1126 L490,-542 L470,-374 L774,-1178 L106,-82 L530,-822 Z" stroke-width="0" fill="#070000" fill-opacity="0.9176470588235294" />
<path d="M102,-498 L354,-930 L238,-822 L562,-438 L514,-890 L358,-778 Z" stroke-width="0" fill="#69ae4f" fill-opacity="0.058823529411764705" />
<path d="M410,-162 L106,-386 L178,-942 L350,-438 L358,-118 L550,-190 Z" stroke-width="0" fill="#000006" fill-opacity="0.9529411764705882" />
<path d="M290,-250 L226,-374 L478,-1130 L98,-1154 L682,-562 L366,-646 Z" stroke-width="0" fill="#0c0011" fill-opacity="1.0" />
<path d="M414,-538 L274,-978 L726,-1086 L502,-694 L366,-1198 L262,-814 Z" stroke-width="0" fill="#1fc1d5" fill-opacity="0.996078431372549" />
<path d="M122,-446 L170,-474 L398,-1298 L430,-106 L542,-510 L722,-1122 Z" stroke-width="0" fill="#040000" fill-opacity="0.792156862745098" />
<path d="M590,-150 L502,-962 L194,-250 L810,-614 L554,-278 L82,-746 Z" stroke-width="0" fill="#452108" fill-opacity="0.4588235294117647" />
<path d="M182,-690 L534,-542 L386,-170 L126,-810 L214,-202 L770,-494 Z" stroke-width="0" fill="#4e3102" fill-opacity="0.5019607843137255" />
<path d="M430,-918 L566,-1118 L130,-790 L494,-262 L634,-294 L330,-154 Z" stroke-width="0" fill="#d4a4a4" fill-opacity="0.9607843137254902" />
<path d="M494,-1310 L258,-126 L506,-1238 L762,-694 L614,-710 L254,-1202 Z" stroke-width="0" fill="#000000" fill-opacity="0.9490196078431372" />
<path d="M238,-470 L774,-1226 L698,-102 L258,-498 L414,-750 L98,-1110 Z" stroke-width="0" fill="#11140b" fill-opacity="0.9647058823529412" />
<path d="M438,-546 L286,-154 L538,-886 L178,-110 L686,-922 L302,-990 Z" stroke-width="0" fill="#080035" fill-opacity="0.8509803921568627" />
<path d="M422,-1186 L378,-1290 L206,-1210 L374,-274 L750,-242 L122,-1134 Z" stroke-width="0" fill="#000000" fill-opacity="0.796078431372549" />
<path d="M710,-438 L406,-518 L546,-134 L694,-1090 L82,-754 L746,-538 Z" stroke-width="0" fill="#4a233a" fill-opacity="0.9294117647058824" />
<path d="M418,-806 L222,-262 L434,-482 L326,-1254 L586,-822 L666,-1014 Z" stroke-width="0" fill="#090e00" fill-opacity="0.8549019607843137" />
<path d="M806,-146 L694,-862 L750,-1314 L330,-1038 L110,-814 L758,-218 Z" stroke-width="0" fill="#3f5213" fill-opacity="0.996078431372549" />
<path d="M602,-274 L546,-990 L706,-370 L230,-1002 L134,-230 L670,-562 Z" stroke-width="0" fill="#061300" fill-opacity="0.8784313725490196" />
<path d="M706,-94 L334,-1162 L530,-886 L646,-1222 L582,-154 L246,-190 Z" stroke-width="0" fill="#000000" fill-opacity="0.9333333333333333" />
<path d="M738,-978 L154,-634 L562,-578 L314,-338 L466,-598 L266,-1086 Z" stroke-width="0" fill="#fe198f" fill-opacity="0.9764705882352941" />
<path d="M446,-318 L570,-518 L690,-1194 L558,-1166 L230,-462 L102,-282 Z" stroke-width="0" fill="#000c08" fill-opacity="0.9529411764705882" />
<path d="M382,-714 L126,-466 L202,-286 L558,-694 L574,-854 L370,-1150 Z" stroke-width="0" fill="#d675e3" fill-opacity="0.5372549019607843" />
<path d="M506,-1086 L126,-406 L582,-726 L382,-546 L330,-746 L750,-526 Z" stroke-width="0" fill="#935b19" fill-opacity="0.5686274509803921" />
<path d="M154,-1006 L242,-290 L230,-478 L206,-570 L326,-658 L346,-398 Z" stroke-width="0" fill="#0222ef" fill-opacity="1.0" />
<path d="M86,-642 L614,-414 L566,-790 L682,-1202 L458,-978 L82,-226 Z" stroke-width="0" fill="#000c00" fill-opacity="0.7411764705882353" />
<path d="M430,-1042 L366,-550 L782,-1070 L174,-1174 L526,-1166 L366,-142 Z" stroke-width="0" fill="#0c0900" fill-opacity="0.9019607843137255" />
<path d="M150,-406 L286,-150 L102,-970 L110,-690 L350,-290 L762,-998 Z" stroke-width="0" fill="#171e0a" fill-opacity="0.9215686274509803" />
<path d="M346,-938 L210,-970 L170,-694 L358,-482 L278,-838 L434,-498 Z" stroke-width="0" fill="#b23458" fill-opacity="0.6470588235294118" />
<path d="M230,-670 L218,-118 L566,-530 L654,-726 L314,-1070 L226,-862 Z" stroke-width="0" fill="#160017" fill-opacity="0.47843137254901963" />
<path d="M294,-742 L366,-610 L562,-686 L262,-806 L458,-690 L166,-474 Z" stroke-width="0" fill="#e4ee39" fill-opacity="0.6941176470588235" />
<path d="M754,-522 L446,-254 L358,-390 L314,-918 L126,-518 L90,-774 Z" stroke-width="0" fill="#566254" fill-opacity="0.7568627450980392" />
<path d="M710,-170 L538,-430 L474,-570 L806,-598 L374,-170 L186,-946 Z" stroke-width="0" fill="#a18367" fill-opacity="0.8509803921568627" />
<path d="M710,-418 L538,-114 L118,-218 L538,-478 L638,-734 L274,-342 Z" stroke-width="0" fill="#070910" fill-opacity="0.9803921568627451" />
<path d="M170,-558 L514,-938 L222,-658 L750,-338 L446,-1262 L118,-1102 Z" stroke-width="0" fill="#140c0d" fill-opacity="0.8156862745098039" />
<path d="M94,-138 L210,-494 L330,-1242 L310,-730 L550,-326 L646,-162 Z" stroke-width="0" fill="#0e0300" fill-opacity="0.7254901960784313" />
<path d="M610,-290 L310,-558 L562,-510 L182,-1246 L490,-222 L706,-1174 Z" stroke-width="0" fill="#0b0827" fill-opacity="0.8901960784313725" />
<path d="M102,-502 L162,-290 L90,-230 L234,-298 L102,-298 L374,-434 Z" stroke-width="0" fill="#000047" fill-opacity="0.9882352941176471" />
<path d="M470,-550 L798,-98 L190,-566 L254,-686 L662,-1282 L750,-946 Z" stroke-width="0" fill="#001003" fill-opacity="0.9647058823529412" />
<path d="M218,-366 L426,-1114 L302,-1146 L722,-926 L258,-966 L666,-1294 Z" stroke-width="0" fill="#11090d" fill-opacity="1.0" />
<path d="M142,-1246 L742,-1178 L658,-578 L542,-1158 L286,-914 L578,-122 Z" stroke-width="0" fill="#090800" fill-opacity="0.9568627450980393" />
<path d="M142,-846 L210,-742 L286,-642 L534,-498 L210,-1090 L782,-910 Z" stroke-width="0" fill="#160024" fill-opacity="0.9294117647058824" />
<path d="M498,-246 L82,-950 L402,-1190 L686,-434 L478,-814 L546,-570 Z" stroke-width="0" fill="#000c00" fill-opacity="0.9372549019607843" />
<path d="M710,-434 L594,-1218 L190,-718 L418,-658 L506,-398 L490,-798 Z" stroke-width="0" fill="#2e2a1d" fill-opacity="0.5058823529411764" />
<path d="M322,-838 L122,-1070 L478,-1102 L666,-826 L266,-1226 L318,-114 Z" stroke-width="0" fill="#1e0912" fill-opacity="0.8431372549019608" />
<path d="M678,-486 L502,-634 L458,-1098 L410,-886 L302,-994 L366,-394 Z" stroke-width="0" fill="#091600" fill-opacity="0.9098039215686274" />
<path d="M418,-1114 L378,-1118 L94,-414 L334,-142 L218,-954 L290,-138 Z" stroke-width="0" fill="#1d1009" fill-opacity="0.4235294117647059" />
<path d="M318,-1214 L574,-402 L322,-1062 L442,-222 L286,-1098 L614,-170 Z" stroke-width="0" fill="#181a33" fill-opacity="0.2" />
<path d="M490,-1266 L750,-898 L550,-922 L506,-854 L194,-614 L530,-622 Z" stroke-width="0" fill="#0f0b05" fill-opacity="0.9607843137254902" />
<path d="M766,-254 L810,-130 L474,-370 L114,-426 L338,-470 L290,-1114 Z" stroke-width="0" fill="#11080b" fill-opacity="0.9529411764705882" />
<path d="M250,-122 L678,-242 L338,-170 L362,-798 L470,-314 L438,-170 Z" stroke-width="0" fill="#0a0200" fill-opacity="0.8" />
<path d="M622,-170 L118,-754 L762,-1310 L502,-170 L258,-1186 L146,-266 Z" stroke-width="0" fill="#0b120b" fill-opacity="0.9254901960784314" />
<path d="M230,-350 L530,-750 L362,-1254 L110,-458 L542,-442 L526,-714 Z" stroke-width="0" fill="#510256" fill-opacity="0.43529411764705883" />
<path d="M718,-1086 L98,-182 L330,-626 L758,-90 L566,-1018 L534,-986 Z" stroke-width="0" fill="#100b0a" fill-opacity="0.8745098039215686" />
<path d="M750,-666 L530,-918 L358,-870 L166,-622 L82,-210 L170,-206 Z" stroke-width="0" fill="#858c65" fill-opacity="0.25882352941176473" />
<path d="M654,-598 L266,-806 L238,-938 L390,-398 L142,-666 L258,-1138 Z" stroke-width="0" fill="#7d2630" fill-opacity="0.1843137254901961" />
<path d="M322,-294 L730,-830 L374,-1098 L526,-182 L450,-302 L142,-262 Z" stroke-width="0" fill="#848b69" fill-opacity="0.21568627450980393" />
<path d="M606,-698 L590,-902 L790,-578 L310,-298 L450,-598 L250,-890 Z" stroke-width="0" fill="#b0b688" fill-opacity="0.9294117647058824" />
<path d="M142,-282 L390,-1294 L310,-598 L110,-110 L502,-1198 L262,-850 Z" stroke-width="0" fill="#040900" fill-opacity="0.5411764705882353" />
<path d="M410,-438 L410,-494 L522,-1314 L286,-678 L250,-1242 L734,-890 Z" stroke-width="0" fill="#001201" fill-opacity="0.3764705882352941" />
<path d="M578,-838 L398,-650 L718,-934 L650,-810 L298,-314 L374,-922 Z" stroke-width="0" fill="#cdeec4" fill-opacity="0.00784313725490196" />
<path d="M234,-466 L370,-1194 L170,-846 L82,-186 L158,-794 L394,-130 Z" stroke-width="0" fill="#000202" fill-opacity="0.6549019607843137" />
<path d="M286,-258 L494,-190 L410,-186 L246,-722 L654,-462 L638,-650 Z" stroke-width="0" fill="#288a02" fill-opacity="0.011764705882352941" />
<path d="M394,-282 L378,-1230 L354,-786 L314,-198 L194,-1214 L558,-438 Z" stroke-width="0" fill="#000000" fill-opacity="0.30196078431372547" />
<path d="M398,-742 L398,-514 L530,-334 L138,-526 L434,-478 L674,-998 Z" stroke-width="0" fill="#993e20" fill-opacity="0.16862745098039217" />
<path d="M502,-998 L750,-270 L210,-534 L138,-982 L574,-538 L110,-1106 Z" stroke-width="0" fill="#912532" fill-opacity="0.09803921568627451" />
<path d="M774,-974 L278,-962 L630,-826 L306,-546 L286,-1182 L126,-850 Z" stroke-width="0" fill="#250013" fill-opacity="0.1607843137254902" />
<path d="M370,-446 L270,-230 L598,-822 L378,-538 L378,-1050 L102,-826 Z" stroke-width="0" fill="#49e1db" fill-opacity="0.00392156862745098" />
<path d="M522,-470 L754,-410 L550,-330 L390,-226 L390,-522 L446,-350 Z" stroke-width="0" fill="#003300" fill-opacity="0.3215686274509804" />
<path d="M670,-262 L722,-614 L210,-818 L446,-1122 L642,-262 L806,-502 Z" stroke-width="0" fill="#6a7356" fill-opacity="0.1607843137254902" />
<path d="M86,-118 L166,-378 L754,-754 L722,-746 L422,-342 L98,-786 Z" stroke-width="0" fill="#57371b" fill-opacity="1.0" />
<path d="M574,-882 L542,-950 L146,-1270 L574,-442 L230,-494 L762,-1206 Z" stroke-width="0" fill="#000000" fill-opacity="0.5176470588235295" />
<path d="M94,-190 L218,-86 L190,-854 L486,-374 L354,-114 L430,-482 Z" stroke-width="0" fill="#0d1900" fill-opacity="0.8784313725490196" />
<path d="M290,-1162 L306,-1098 L542,-330 L658,-1090 L226,-1150 L674,-306 Z" stroke-width="0" fill="#5c5220" fill-opacity="0.0784313725490196" />
<path d="M430,-298 L122,-194 L490,-526 L362,-482 L510,-694 L310,-1050 Z" stroke-width="0" fill="#451624" fill-opacity="0.1607843137254902" />
<path d="M802,-278 L710,-598 L402,-698 L638,-1250 L594,-830 L122,-298 Z" stroke-width="0" fill="#936f62" fill-opacity="0.3176470588235294" />
<path d="M638,-1010 L702,-606 L698,-766 L350,-698 L374,-174 L298,-282 Z" stroke-width="0" fill="#e6c26d" fill-opacity="0.5019607843137255" />
<path d="M674,-346 L298,-482 L102,-746 L334,-262 L726,-1174 L226,-1194 Z" stroke-width="0" fill="#030005" fill-opacity="0.5019607843137255" />
<path d="M674,-514 L634,-1086 L354,-1146 L250,-454 L314,-850 L310,-546 Z" stroke-width="0" fill="#1a080c" fill-opacity="0.08627450980392157" />
<path d="M474,-102 L178,-658 L314,-1030 L650,-542 L590,-510 L446,-442 Z" stroke-width="0" fill="#b3a4a5" fill-opacity="0.23529411764705882" />
<path d="M154,-334 L802,-794 L126,-702 L606,-1098 L586,-1150 L250,-1166 Z" stroke-width="0" fill="#455840" fill-opacity="0.0784313725490196" />
<path d="M258,-774 L674,-382 L326,-838 L194,-866 L290,-498 L766,-210 Z" stroke-width="0" fill="#b08e6a" fill-opacity="0.4666666666666667" />
<path d="M338,-462 L534,-234 L298,-418 L314,-310 L510,-702 L330,-138 Z" stroke-width="0" fill="#00180f" fill-opacity="0.6588235294117647" />
<path d="M330,-566 L782,-1086 L330,-362 L214,-390 L162,-622 L762,-470 Z" stroke-width="0" fill="#846434" fill-opacity="0.23137254901960785" />
<path d="M754,-534 L446,-474 L250,-314 L782,-422 L582,-162 L178,-474 Z" stroke-width="0" fill="#471418" fill-opacity="0.2549019607843137" />
<text x="448.0" y="0" font-size="70.0" fill="black" text-anchor="middle" transform="translate(0,17.5)">KING OF FIRE</text>
</svg>