<?xml version="1.0" encoding="UTF-8"?>
<svg xmlns="http://www.w3.org/2000/svg" xmlns:xlink="http://www.w3.org/1999/xlink"
     width="896" height="1496" viewBox="0 -1400 896 1496" style="font-size:70;font-family:Poor Richard, Times New Roman;stroke:black;stroke-width:1;fill:none">
<defs>
</defs>
<path d="M606,-502 L758,-974 L322,-622 L258,-226 L362,-1078 L226,-174 Z" stroke-width="0" fill="#703e99" fill-opacity="0.11764705882352941" />
<path d="M234,-918 L562,-658 L382,-874 L602,-670 L190,-926 L214,-702 Z" stroke-width="0" fill="#d12b89" fill-opacity="0.03529411764705882" />
<path d="M342,-354 L478,-394 L490,-634 L722,-1090 L534,-1118 L222,-374 Z" stroke-width="0" fill="#1f5c0d" fill-opacity="0.7215686274509804" />
<path d="M706,-1014 L402,-154 L542,-578 L626,-834 L534,-134 L342,-518 Z" stroke-width="0" fill="#34840c" fill-opacity="0.7450980392156863" />
<path d="M510,-246 L122,-994 L234,-1270 L370,-850 L98,-198 L122,-406 Z" stroke-width="0" fill="#3a0000" fill-opacity="0.803921568627451" />
<path d="M618,-298 L402,-174 L154,-186 L670,-94 L94,-818 L230,-382 Z" stroke-width="0" fill="#151d13" fill-opacity="0.9725490196078431" />
<path d="M718,-482 L802,-662 L134,-674 L666,-642 L590,-586 L634,-474 Z" stroke-width="0" fill="#0028dd" fill-opacity="0.9764705882352941" />
<path d="M258,-934 L494,-162 L498,-830 L386,-190 L290,-1278 L642,-426 Z" stroke-width="0" fill="#000000" fill-opacity="0.8156862745098039" />
<path d="M794,-598 L414,-578 L226,-1194 L522,-122 L414,-186 L774,-1158 Z" stroke-width="0" fill="#583f38" fill-opacity="0.4980392156862745" />
<path d="M186,-1034 L86,-306 L474,-946 L454,-90 L522,-674 L218,-110 Z" stroke-width="0" fill="#000029" fill-opacity="0.9215686274509803" />
<path d="M462,-950 L154,-1062 L162,-442 L122,-510 L742,-374 L270,-706 Z" stroke-width="0" fill="#0e620c" fill-opacity="0.0784313725490196" />
<path d="M710,-290 L674,-334 L162,-270 L662,-994 L650,-454 L210,-1058 Z" stroke-width="0" fill="#7e2021" fill-opacity="0.050980392156862744" />
<path d="M530,-706 L334,-390 L582,-986 L802,-1142 L698,-278 L314,-842 Z" stroke-width="0" fill="#000000" fill-opacity="0.7333333333333333" />
<path d="M446,-510 L294,-566 L98,-498 L546,-618 L94,-854 L394,-570 Z" stroke-width="0" fill="#000000" fill-opacity="0.7843137254901961" />
<path d="M206,-666 L182,-718 L146,-310 L350,-618 L474,-1178 L318,-1170 Z" stroke-width="0" fill="#4647ff" fill-opacity="0.00784313725490196" />
<path d="M290,-346 L322,-482 L358,-798 L426,-346 L462,-906 L502,-162 Z" stroke-width="0" fill="#08e6ab" fill-opacity="0.011764705882352941" />
<path d="M118,-474 L114,-1242 L198,-666 L334,-398 L358,-710 L774,-638 Z" stroke-width="0" fill="#000000" fill-opacity="0.9333333333333333" />
<path d="M226,-1070 L466,-814 L682,-818 L466,-286 L646,-298 L122,-1226 Z" stroke-width="0" fill="#000000" fill-opacity="0.8313725490196079" />
<path d="M694,-802 L190,-554 L226,-790 L370,-942 L534,-722 L382,-946 Z" stroke-width="0" fill="#77ae0e" fill-opacity="0.043137254901960784" />
<path d="M134,-1186 L246,-654 L430,-1246 L726,-150 L110,-110 L418,-798 Z" stroke-width="0" fill="#110d00" fill-opacity="0.984313725490196" />
<path d="M206,-702 L86,-818 L302,-782 L426,-826 L598,-1090 L170,-506 Z" stroke-width="0" fill="#182725" fill-opacity="0.9647058823529412" />
<path d="M806,-1290 L518,-138 L178,-742 L634,-898 L502,-866 L386,-122 Z" stroke-width="0" fill="#2c0000" fill-opacity="0.8823529411764706" />
<path d="M98,-382 L786,-794 L634,-374 L170,-362 L198,-1290 L590,-870 Z" stroke-width="0" fill="#0c2416" fill-opacity="0.7098039215686275" />
<path d="M202,-190 L674,-482 L254,-1102 L262,-658 L170,-154 L202,-546 Z" stroke-width="0" fill="#0279a6" fill-opacity="0.07450980392156863" />
<path d="M290,-1098 L294,-1074 L498,-542 L262,-890 L606,-914 L506,-222 Z" stroke-width="0" fill="#234d10" fill-opacity="0.21568627450980393" />
<path d="M638,-534 L318,-766 L106,-406 L534,-142 L86,-1058 L522,-678 Z" stroke-width="0" fill="#000007" fill-opacity="0.9098039215686274" />
<path d="M114,-394 L154,-134 L690,-750 L590,-1302 L786,-278 L622,-910 Z" stroke-width="0" fill="#613d0e" fill-opacity="0.4470588235294118" />
<path d="M758,-982 L134,-1058 L310,-254 L614,-830 L94,-1094 L582,-1106 Z" stroke-width="0" fill="#0e0006" fill-opacity="0.9176470588235294" />
<path d="M270,-1110 L366,-158 L474,-350 L578,-786 L534,-1022 L582,-770 Z" stroke-width="0" fill="#2d0601" fill-opacity="0.8156862745098039" />
<path d="M334,-1094 L510,-1146 L194,-822 L98,-1006 L554,-902 L226,-930 Z" stroke-width="0" fill="#020b20" fill-opacity="0.8117647058823529" />
<path d="M202,-934 L202,-350 L326,-734 L514,-986 L426,-518 L466,-890 Z" stroke-width="0" fill="#080eec" fill-opacity="0.592156862745098" />
<path d="M470,-962 L230,-922 L94,-194 L534,-1114 L738,-90 L622,-490 Z" stroke-width="0" fill="#130c1d" fill-opacity="0.8313725490196079" />
<path d="M182,-466 L394,-478 L306,-498 L298,-366 L370,-510 L250,-1218 Z" stroke-width="0" fill="#0b0300" fill-opacity="0.6784313725490196" />
<path d="M286,-578 L138,-378 L230,-146 L230,-858 L322,-1254 L794,-966 Z" stroke-width="0" fill="#56c3bf" fill-opacity="0.03529411764705882" />
<path d="M278,-710 L638,-398 L486,-718 L134,-582 L166,-242 L302,-466 Z" stroke-width="0" fill="#eaac46" fill-opacity="0.9607843137254902" />
<path d="M642,-218 L274,-982 L390,-410 L310,-346 L86,-374 L358,-866 Z" stroke-width="0" fill="#000849" fill-opacity="0.9019607843137255" />
<path d="M798,-722 L94,-382 L722,-146 L362,-1014 L258,-90 L118,-378 Z" stroke-width="0" fill="#b1e6f9" fill-opacity="0.9529411764705882" />
<path d="M462,-642 L374,-1030 L458,-466 L554,-466 L570,-738 L258,-1270 Z" stroke-width="0" fill="#000000" fill-opacity="0.6745098039215687" />
<path d="M742,-982 L446,-1062 L362,-186 L498,-1150 L498,-966 L690,-1146 Z" stroke-width="0" fill="#00001a" fill-opacity="0.9529411764705882" />
<path d="M642,-1030 L118,-178 L162,-626 L238,-638 L690,-410 L526,-342 Z" stroke-width="0" fill="#eda72e" fill-opacity="0.9372549019607843" />
<path d="M478,-362 L790,-1098 L218,-1118 L126,-1026 L382,-842 L330,-202 Z" stroke-width="0" fill="#5b0000" fill-opacity="0.49411764705882355" />
<path d="M194,-1142 L530,-286 L158,-770 L266,-434 L666,-846 L562,-1218 Z" stroke-width="0" fill="#648cd5" fill-opacity="0.027450980392156862" />
<path d="M286,-234 L86,-606 L422,-726 L126,-786 L274,-110 L82,-842 Z" stroke-width="0" fill="#050023" fill-opacity="0.8705882352941177" />
<path d="M322,-1262 L358,-926 L166,-974 L538,-910 L278,-418 L362,-1118 Z" stroke-width="0" fill="#000f0b" fill-opacity="0.9019607843137255" />
<path d="M86,-226 L410,-870 L146,-786 L130,-1010 L574,-886 L590,-274 Z" stroke-width="0" fill="#000c18" fill-opacity="1.0" />
<path d="M402,-1038 L610,-126 L234,-642 L90,-1074 L302,-198 L646,-494 Z" stroke-width="0" fill="#122d15" fill-opacity="0.788235294117647" />
<path d="M702,-810 L278,-534 L594,-338 L114,-374 L730,-386 L94,-830 Z" stroke-width="0" fill="#000000" fill-opacity="0.8156862745098039" />
<path d="M110,-1254 L374,-834 L810,-1146 L186,-694 L522,-574 L534,-546 Z" stroke-width="0" fill="#000000" fill-opacity="0.8352941176470589" />
<path d="M118,-150 L130,-594 L682,-286 L286,-1018 L646,-346 L474,-626 Z" stroke-width="0" fill="#000509" fill-opacity="0.9647058823529412" />
<path d="M470,-534 L214,-178 L602,-742 L494,-810 L294,-1006 L262,-238 Z" stroke-width="0" fill="#04241f" fill-opacity="0.5058823529411764" />
<path d="M366,-962 L390,-786 L450,-1010 L310,-570 L574,-334 L122,-98 Z" stroke-width="0" fill="#0c0f0b" fill-opacity="0.9607843137254902" />
<path d="M810,-402 L434,-326 L798,-586 L670,-510 L346,-430 L634,-670 Z" stroke-width="0" fill="#a25b00" fill-opacity="0.6352941176470588" />
<path d="M370,-414 L162,-1074 L706,-1246 L170,-682 L758,-430 L502,-290 Z" stroke-width="0" fill="#f9eedd" fill-opacity="0.5019607843137255" />
<path d="M118,-706 L538,-1198 L466,-306 L574,-1038 L706,-554 L770,-342 Z" stroke-width="0" fill="#085801" fill-opacity="0.12941176470588237" />
<path d="M418,-586 L218,-602 L418,-1042 L758,-1102 L502,-670 L110,-174 Z" stroke-width="0" fill="#4a0000" fill-opacity="0.803921568627451" />
<path d="M662,-258 L114,-578 L474,-1070 L158,-1010 L346,-234 L82,-642 Z" stroke-width="0" fill="#363439" fill-opacity="0.9215686274509803" />
<path d="M610,-550 L514,-354 L410,-258 L690,-302 L662,-598 L446,-1294 Z" stroke-width="0" fill="#5b564e" fill-opacity="0.8392156862745098" />
<path d="M778,-286 L406,-806 L262,-182 L394,-1302 L266,-386 L162,-838 Z" stroke-width="0" fill="#6e4944" fill-opacity="0.5450980392156862" />
<path d="M326,-1306 L418,-550 L122,-922 L502,-1118 L758,-198 L698,-1238 Z" stroke-width="0" fill="#000006" fill-opacity="0.8196078431372549" />
<path d="M102,-414 L334,-566 L514,-630 L710,-342 L278,-506 L454,-1030 Z" stroke-width="0" fill="#2d1467" fill-opacity="0.24313725490196078" />
<path d="M786,-334 L274,-478 L110,-646 L266,-662 L214,-490 L250,-326 Z" stroke-width="0" fill="#ae5d74" fill-opacity="0.8627450980392157" />
<path d="M678,-942 L222,-990 L378,-98 L98,-1214 L670,-450 L498,-1302 Z" stroke-width="0" fill="#18111c" fill-opacity="0.8588235294117647" />
<path d="M286,-346 L450,-154 L734,-626 L394,-142 L574,-570 L246,-386 Z" stroke-width="0" fill="#062319" fill-opacity="0.8901960784313725" />
<path d="M406,-1018 L214,-1050 L230,-1034 L614,-846 L210,-638 L106,-830 Z" stroke-width="0" fill="#7c6510" fill-opacity="0.33725490196078434" />
<path d="M362,-734 L142,-978 L206,-734 L646,-570 L578,-734 L298,-806 Z" stroke-width="0" fill="#11b503" fill-opacity="0.08235294117647059" />
<path d="M82,-718 L330,-1274 L666,-358 L714,-234 L610,-682 L622,-1126 Z" stroke-width="0" fill="#2f4230" fill-opacity="0.9882352941176471" />
<path d="M482,-438 L386,-1038 L234,-622 L334,-254 L426,-810 L522,-710 Z" stroke-width="0" fill="#399862" fill-opacity="0.615686274509804" />
<path d="M802,-90 L410,-118 L150,-842 L98,-610 L150,-1046 L174,-602 Z" stroke-width="0" fill="#000000" fill-opacity="0.8666666666666667" />
<path d="M586,-450 L282,-538 L374,-854 L134,-1250 L582,-706 L238,-674 Z" stroke-width="0" fill="#24402c" fill-opacity="0.8901960784313725" />
<path d="M238,-294 L742,-334 L518,-910 L234,-222 L562,-834 L730,-238 Z" stroke-width="0" fill="#d4e0d4" fill-opacity="0.8901960784313725" />
<path d="M646,-1034 L438,-854 L158,-1022 L578,-738 L238,-166 L234,-738 Z" stroke-width="0" fill="#628cc6" fill-opacity="0.2980392156862745" />
<path d="M110,-270 L794,-762 L230,-646 L630,-1002 L606,-514 L606,-94 Z" stroke-width="0" fill="#13bd63" fill-opacity="0.07058823529411765" />
<path d="M570,-738 L754,-1262 L634,-294 L230,-1314 L806,-254 L154,-298 Z" stroke-width="0" fill="#93553f" fill-opacity="0.5098039215686274" />
<path d="M594,-830 L502,-678 L678,-898 L230,-1210 L542,-1054 L538,-198 Z" stroke-width="0" fill="#1f163b" fill-opacity="0.3333333333333333" />
<path d="M714,-306 L798,-698 L670,-694 L670,-534 L462,-810 L102,-318 Z" stroke-width="0" fill="#feca5d" fill-opacity="0.8549019607843137" />
<path d="M382,-590 L702,-874 L754,-1230 L454,-322 L218,-210 L138,-898 Z" stroke-width="0" fill="#240010" fill-opacity="0.6901960784313725" />
<path d="M566,-1082 L686,-930 L526,-534 L498,-386 L458,-558 L538,-806 Z" stroke-width="0" fill="#071811" fill-opacity="0.6784313725490196" />
<path d="M246,-382 L642,-334 L522,-826 L198,-1246 L298,-594 L226,-82 Z" stroke-width="0" fill="#bb30a4" fill-opacity="0.12941176470588237" />
<path d="M666,-534 L382,-570 L778,-294 L782,-450 L350,-134 L150,-914 Z" stroke-width="0" fill="#ca9f48" fill-opacity="0.023529411764705882" />
<path d="M286,-590 L470,-798 L738,-810 L122,-658 L206,-1226 L290,-854 Z" stroke-width="0" fill="#052f13" fill-opacity="0.6509803921568628" />
<path d="M762,-898 L206,-874 L722,-530 L694,-1178 L462,-1278 L198,-402 Z" stroke-width="0" fill="#b7e0f2" fill-opacity="0.08627450980392157" />
<path d="M726,-910 L242,-866 L390,-98 L146,-618 L290,-198 L302,-510 Z" stroke-width="0" fill="#5a1e06" fill-opacity="0.1843137254901961" />
<path d="M270,-122 L106,-322 L322,-470 L134,-446 L438,-514 L666,-990 Z" stroke-width="0" fill="#200200" fill-opacity="0.8745098039215686" />
<path d="M610,-278 L110,-186 L462,-1242 L598,-674 L698,-666 L154,-598 Z" stroke-width="0" fill="#445330" fill-opacity="0.27058823529411763" />
<path d="M698,-418 L286,-126 L750,-102 L270,-838 L446,-418 L362,-1170 Z" stroke-width="0" fill="#170344" fill-opacity="0.07058823529411765" />
<path d="M694,-458 L422,-834 L194,-298 L618,-518 L674,-686 L610,-582 Z" stroke-width="0" fill="#a877b0" fill-opacity="0.6078431372549019" />
<path d="M526,-638 L358,-570 L714,-1102 L706,-570 L98,-354 L602,-706 Z" stroke-width="0" fill="#5ca8f8" fill-opacity="0.10196078431372549" />
<path d="M390,-1046 L782,-218 L502,-858 L142,-506 L274,-150 L418,-154 Z" stroke-width="0" fill="#001724" fill-opacity="0.5450980392156862" />
<path d="M126,-778 L138,-530 L402,-1174 L230,-166 L126,-238 L262,-602 Z" stroke-width="0" fill="#01092a" fill-opacity="0.09803921568627451" />
<path d="M250,-438 L274,-1306 L106,-206 L186,-1246 L626,-1266 L386,-214 Z" stroke-width="0" fill="#070001" fill-opacity="0.5686274509803921" />
<path d="M658,-266 L402,-866 L550,-814 L518,-474 L242,-846 L426,-522 Z" stroke-width="0" fill="#b66001" fill-opacity="0.34901960784313724" />
<path d="M498,-622 L678,-774 L702,-654 L710,-1262 L302,-342 L626,-446 Z" stroke-width="0" fill="#4c330f" fill-opacity="0.5058823529411764" />
<path d="M286,-1178 L482,-1086 L418,-1018 L398,-858 L338,-518 L634,-994 Z" stroke-width="0" fill="#604d06" fill-opacity="0.5019607843137255" />
<path d="M402,-170 L682,-626 L142,-482 L538,-958 L586,-806 L98,-262 Z" stroke-width="0" fill="#b83f00" fill-opacity="0.0392156862745098" />
<path d="M186,-1102 L90,-198 L406,-314 L518,-310 L142,-950 L106,-982 Z" stroke-width="0" fill="#1e2c1f" fill-opacity="0.592156862745098" />
<path d="M574,-942 L790,-618 L94,-942 L446,-278 L702,-1222 L646,-718 Z" stroke-width="0" fill="#1f2154" fill-opacity="0.25882352941176473" />
<path d="M678,-162 L810,-186 L470,-466 L634,-334 L530,-126 L630,-1254 Z" stroke-width="0" fill="#452a2a" fill-opacity="0.5647058823529412" />
<path d="M118,-1230 L270,-302 L406,-542 L702,-926 L202,-318 L82,-98 Z" stroke-width="0" fill="#1c182a" fill-opacity="0.8549019607843137" />
<path d="M730,-1198 L354,-102 L690,-178 L622,-902 L790,-82 L638,-350 Z" stroke-width="0" fill="#6b3633" fill-opacity="0.27450980392156865" />
<path d="M662,-746 L678,-838 L178,-902 L502,-270 L506,-174 L742,-946 Z" stroke-width="0" fill="#7b481a" fill-opacity="0.1803921568627451" />
<text x="448.0" y="0" font-size="70.0" fill="black" text-anchor="middle" transform="translate(0,17.5)">KNIGHT OF FIRE</text>
</svg>