<?xml version="1.0" encoding="UTF-8"?>
<svg xmlns="http://www.w3.org/2000/svg" xmlns:xlink="http://www.w3.org/1999/xlink"
     width="896" height="1496" viewBox="0 -1400 896 1496" style="font-size:70;font-family:Poor Richard, Times New Roman;stroke:black;stroke-width:1;fill:none">
<defs>
</defs>
<path d="M258,-190 L210,-450 L298,-822 L586,-1146 L494,-438 L670,-254 Z" stroke-width="0" fill="#445514" fill-opacity="0.4980392156862745" />
<path d="M278,-754 L858,-182 L894,-574 L358,-718 L190,-190 L490,-662 Z" stroke-width="0" fill="#442f05" fill-opacity="0.19607843137254902" />
<path d="M126,-358 L766,-474 L574,-450 L734,-786 L898,-562 L574,-194 Z" stroke-width="0" fill="#fa9268" fill-opacity="0.01568627450980392" />
<path d="M742,-1142 L454,-386 L462,-442 L258,-598 L838,-882 L206,-674 Z" stroke-width="0" fill="#2e1359" fill-opacity="0.7333333333333333" />
<path d="M578,-926 L330,-1094 L306,-926 L410,-298 L402,-966 L118,-242 Z" stroke-width="0" fill="#fb38b0" fill-opacity="0.5607843137254902" />
<path d="M98,-726 L286,-1146 L598,-858 L210,-1178 L934,-662 L354,-802 Z" stroke-width="0" fill="#000900" fill-opacity="0.6980392156862745" />
<path d="M126,-354 L370,-246 L562,-230 L602,-470 L342,-1166 L298,-278 Z" stroke-width="0" fill="#1b3d0b" fill-opacity="0.8235294117647058" />
<path d="M330,-722 L298,-166 L838,-354 L386,-1106 L558,-346 L262,-402 Z" stroke-width="0" fill="#d64275" fill-opacity="0.5882352941176471" />
<path d="M230,-826 L338,-558 L830,-198 L934,-614 L806,-722 L954,-546 Z" stroke-width="0" fill="#fef65b" fill-opacity="0.1607843137254902" />
<path d="M658,-570 L526,-1190 L934,-386 L754,-134 L446,-290 L390,-726 Z" stroke-width="0" fill="#1d0052" fill-opacity="0.23921568627450981" />
<path d="M818,-1246 L674,-922 L546,-1106 L626,-202 L430,-1230 L366,-426 Z" stroke-width="0" fill="#000003" fill-opacity="0.8705882352941177" />
<path d="M490,-702 L570,-1194 L182,-362 L306,-1010 L426,-438 L790,-574 Z" stroke-width="0" fill="#11171a" fill-opacity="0.9725490196078431" />
<path d="M126,-102 L494,-442 L298,-806 L570,-106 L946,-630 L326,-834 Z" stroke-width="0" fill="#9c815f" fill-opacity="0.9725490196078431" />
<path d="M902,-1246 L834,-570 L966,-110 L974,-910 L266,-694 L106,-118 Z" stroke-width="0" fill="#5a2b2d" fill-opacity="0.6" />
<path d="M198,-1138 L886,-578 L502,-94 L946,-266 L366,-650 L170,-1166 Z" stroke-width="0" fill="#2e084a" fill-opacity="0.6196078431372549" />
<path d="M174,-530 L578,-886 L194,-422 L246,-390 L566,-1102 L290,-498 Z" stroke-width="0" fill="#042fd6" fill-opacity="0.25882352941176473" />
<path d="M338,-482 L278,-442 L646,-822 L178,-358 L242,-826 L442,-942 Z" stroke-width="0" fill="#ef7767" fill-opacity="0.5882352941176471" />
<path d="M242,-546 L394,-514 L690,-298 L878,-510 L666,-90 L574,-954 Z" stroke-width="0" fill="#6c8558" fill-opacity="0.7725490196078432" />
<path d="M150,-1082 L262,-178 L802,-690 L210,-126 L422,-690 L818,-714 Z" stroke-width="0" fill="#000001" fill-opacity="0.9333333333333333" />
<path d="M750,-142 L766,-298 L166,-962 L758,-690 L154,-1062 L378,-374 Z" stroke-width="0" fill="#230f03" fill-opacity="0.11764705882352941" />
<path d="M486,-1262 L526,-142 L86,-946 L462,-354 L562,-102 L398,-242 Z" stroke-width="0" fill="#000000" fill-opacity="0.803921568627451" />
<path d="M866,-394 L334,-1094 L302,-334 L358,-742 L546,-334 L834,-518 Z" stroke-width="0" fill="#d96fd4" fill-opacity="0.38823529411764707" />
<path d="M310,-954 L346,-142 L442,-234 L446,-306 L154,-566 L734,-582 Z" stroke-width="0" fill="#b02d00" fill-opacity="0.03529411764705882" />
<path d="M638,-362 L158,-730 L130,-278 L458,-606 L330,-86 L694,-1102 Z" stroke-width="0" fill="#2a4f3b" fill-opacity="0.8980392156862745" />
<path d="M206,-378 L486,-238 L382,-298 L838,-1194 L342,-82 L174,-522 Z" stroke-width="0" fill="#000000" fill-opacity="0.5450980392156862" />
<path d="M534,-754 L958,-158 L662,-118 L130,-154 L118,-550 L482,-950 Z" stroke-width="0" fill="#0a3e10" fill-opacity="0.7254901960784313" />
<path d="M418,-282 L298,-498 L578,-598 L326,-1070 L126,-850 L390,-974 Z" stroke-width="0" fill="#40502c" fill-opacity="0.807843137254902" />
<path d="M138,-394 L442,-938 L806,-254 L810,-546 L858,-206 L762,-1026 Z" stroke-width="0" fill="#917bb7" fill-opacity="0.8862745098039215" />
<path d="M118,-726 L466,-230 L110,-230 L234,-770 L610,-1062 L554,-222 Z" stroke-width="0" fill="#31064b" fill-opacity="0.5764705882352941" />
<path d="M942,-966 L362,-986 L730,-418 L950,-882 L870,-986 L630,-746 Z" stroke-width="0" fill="#395218" fill-opacity="0.6352941176470588" />
<path d="M170,-1094 L258,-586 L234,-138 L414,-746 L210,-742 L890,-1206 Z" stroke-width="0" fill="#4b205c" fill-opacity="0.8235294117647058" />
<path d="M374,-162 L526,-202 L370,-574 L798,-1210 L606,-214 L926,-658 Z" stroke-width="0" fill="#c6cae5" fill-opacity="0.43137254901960786" />
<path d="M590,-130 L190,-94 L238,-1194 L854,-1114 L446,-770 L486,-658 Z" stroke-width="0" fill="#000006" fill-opacity="0.7215686274509804" />
<path d="M114,-846 L398,-626 L654,-1150 L378,-962 L350,-978 L642,-458 Z" stroke-width="0" fill="#0c170d" fill-opacity="0.7176470588235294" />
<path d="M130,-834 L106,-666 L942,-1026 L210,-374 L634,-978 L86,-578 Z" stroke-width="0" fill="#1b2e21" fill-opacity="0.9803921568627451" />
<path d="M130,-430 L610,-734 L506,-966 L622,-1098 L602,-1114 L930,-90 Z" stroke-width="0" fill="#b8aedf" fill-opacity="0.8235294117647058" />
<path d="M210,-166 L638,-630 L886,-554 L638,-526 L622,-858 L94,-778 Z" stroke-width="0" fill="#04000b" fill-opacity="0.6823529411764706" />
<path d="M162,-1234 L578,-378 L266,-646 L102,-946 L274,-874 L602,-286 Z" stroke-width="0" fill="#00000b" fill-opacity="0.8509803921568627" />
<path d="M902,-1174 L314,-190 L178,-302 L358,-482 L298,-278 L694,-890 Z" stroke-width="0" fill="#b68f42" fill-opacity="0.23921568627450981" />
<path d="M282,-1054 L474,-282 L302,-650 L434,-834 L850,-1058 L118,-1250 Z" stroke-width="0" fill="#000000" fill-opacity="0.6941176470588235" />
<path d="M98,-666 L714,-366 L910,-110 L430,-970 L682,-854 L942,-910 Z" stroke-width="0" fill="#fbfed3" fill-opacity="0.3607843137254902" />
<path d="M274,-818 L342,-678 L190,-1198 L358,-294 L642,-406 L114,-850 Z" stroke-width="0" fill="#002423" fill-opacity="0.7058823529411765" />
<path d="M510,-190 L190,-438 L666,-922 L398,-430 L154,-278 L330,-378 Z" stroke-width="0" fill="#bfdafa" fill-opacity="0.8941176470588236" />
<path d="M970,-974 L594,-334 L386,-134 L170,-462 L198,-486 L522,-494 Z" stroke-width="0" fill="#463d36" fill-opacity="1.0" />
<path d="M770,-238 L302,-902 L682,-638 L766,-298 L210,-490 L786,-118 Z" stroke-width="0" fill="#c2bebe" fill-opacity="0.9725490196078431" />
<path d="M258,-642 L398,-626 L590,-522 L514,-234 L738,-426 L766,-974 Z" stroke-width="0" fill="#d4f4b8" fill-opacity="0.9333333333333333" />
<path d="M606,-514 L194,-290 L722,-810 L758,-362 L614,-782 L470,-306 Z" stroke-width="0" fill="#00170a" fill-opacity="0.8627450980392157" />
<path d="M850,-894 L278,-270 L82,-1162 L470,-430 L950,-982 L498,-870 Z" stroke-width="0" fill="#120720" fill-opacity="0.9019607843137255" />
<path d="M398,-810 L462,-790 L750,-1110 L122,-146 L474,-734 L626,-986 Z" stroke-width="0" fill="#391d79" fill-opacity="0.6941176470588235" />
<path d="M534,-718 L102,-98 L790,-1246 L794,-1258 L522,-1062 L190,-1038 Z" stroke-width="0" fill="#2c2721" fill-opacity="0.7411764705882353" />
<path d="M282,-222 L658,-454 L158,-470 L882,-878 L926,-994 L930,-602 Z" stroke-width="0" fill="#7f6c23" fill-opacity="0.8705882352941177" />
<path d="M106,-142 L646,-678 L378,-1062 L114,-502 L146,-374 L274,-342 Z" stroke-width="0" fill="#0b0400" fill-opacity="0.5019607843137255" />
<path d="M730,-378 L150,-686 L270,-370 L126,-634 L242,-354 L346,-882 Z" stroke-width="0" fill="#967072" fill-opacity="0.4470588235294118" />
<path d="M802,-662 L330,-1054 L522,-182 L206,-874 L970,-502 L558,-1266 Z" stroke-width="0" fill="#9d9d7b" fill-opacity="0.8117647058823529" />
<path d="M730,-654 L494,-622 L294,-950 L558,-910 L418,-142 L390,-1034 Z" stroke-width="0" fill="#af9c84" fill-opacity="0.5019607843137255" />
<path d="M578,-1082 L278,-270 L442,-606 L154,-322 L294,-314 L650,-646 Z" stroke-width="0" fill="#9e920d" fill-opacity="1.0" />
<path d="M182,-1206 L582,-738 L174,-126 L926,-426 L266,-422 L918,-902 Z" stroke-width="0" fill="#3c6088" fill-opacity="0.5019607843137255" />
<path d="M222,-1266 L554,-1218 L618,-1134 L358,-834 L122,-94 L850,-1222 Z" stroke-width="0" fill="#000000" fill-opacity="0.7254901960784313" />
<path d="M778,-358 L934,-1042 L870,-482 L478,-310 L278,-378 L254,-1230 Z" stroke-width="0" fill="#e8ddfb" fill-opacity="0.2549019607843137" />
<path d="M674,-1270 L490,-190 L134,-1250 L926,-994 L442,-1202 L910,-562 Z" stroke-width="0" fill="#001200" fill-opacity="0.592156862745098" />
<path d="M970,-982 L118,-574 L538,-1042 L654,-746 L898,-154 L474,-82 Z" stroke-width="0" fill="#4a224b" fill-opacity="0.5019607843137255" />
<path d="M250,-1126 L490,-634 L202,-1026 L602,-1054 L282,-90 L670,-930 Z" stroke-width="0" fill="#160000" fill-opacity="0.7176470588235294" />
<path d="M734,-1102 L466,-1198 L266,-362 L574,-126 L194,-446 L514,-1118 Z" stroke-width="0" fill="#231f20" fill-opacity="0.9372549019607843" />
<path d="M546,-1014 L750,-322 L222,-1050 L82,-178 L810,-814 L718,-582 Z" stroke-width="0" fill="#113739" fill-opacity="0.9882352941176471" />
<path d="M914,-878 L362,-1078 L974,-1278 L110,-698 L574,-574 L850,-550 Z" stroke-width="0" fill="#3c4774" fill-opacity="0.5019607843137255" />
<path d="M910,-922 L338,-226 L630,-326 L870,-394 L478,-878 L706,-810 Z" stroke-width="0" fill="#b48b95" fill-opacity="0.5490196078431373" />
<path d="M298,-1134 L966,-698 L366,-338 L290,-446 L750,-1082 L626,-906 Z" stroke-width="0" fill="#b2a4a6" fill-opacity="0.9450980392156862" />
<path d="M222,-306 L802,-766 L546,-514 L410,-794 L798,-546 L118,-230 Z" stroke-width="0" fill="#4497f6" fill-opacity="0.5333333333333333" />
<path d="M874,-1142 L714,-582 L398,-1014 L334,-806 L886,-822 L974,-242 Z" stroke-width="0" fill="#e9d1c8" fill-opacity="0.7647058823529411" />
<path d="M846,-546 L422,-630 L530,-1190 L830,-198 L86,-202 L390,-646 Z" stroke-width="0" fill="#625c46" fill-opacity="0.5058823529411764" />
<path d="M366,-882 L254,-482 L246,-766 L310,-898 L130,-758 L614,-250 Z" stroke-width="0" fill="#6c0152" fill-opacity="0.2980392156862745" />
<path d="M970,-1186 L102,-266 L678,-534 L270,-302 L798,-822 L94,-718 Z" stroke-width="0" fill="#9bcacf" fill-opacity="0.25882352941176473" />
<path d="M306,-738 L706,-662 L130,-998 L710,-182 L466,-1234 L142,-354 Z" stroke-width="0" fill="#001b17" fill-opacity="0.6470588235294118" />
<path d="M586,-970 L634,-966 L714,-794 L394,-1090 L554,-394 L586,-722 Z" stroke-width="0" fill="#69a57a" fill-opacity="0.8431372549019608" />
<path d="M294,-142 L146,-470 L806,-658 L530,-998 L486,-318 L578,-194 Z" stroke-width="0" fill="#15283b" fill-opacity="0.47058823529411764" />
<path d="M170,-1170 L830,-406 L146,-318 L150,-754 L278,-682 L926,-362 Z" stroke-width="0" fill="#96436f" fill-opacity="0.09411764705882353" />
<path d="M258,-834 L490,-118 L486,-490 L250,-1002 L766,-510 L154,-386 Z" stroke-width="0" fill="#4a043b" fill-opacity="0.5098039215686274" />
<path d="M770,-1098 L294,-1062 L754,-690 L378,-1166 L950,-990 L646,-1134 Z" stroke-width="0" fill="#413533" fill-opacity="0.5529411764705883" />
<path d="M750,-506 L582,-682 L306,-1238 L482,-254 L374,-818 L658,-1098 Z" stroke-width="0" fill="#482458" fill-opacity="0.6745098039215687" />
<path d="M842,-542 L86,-322 L154,-514 L426,-246 L134,-314 L706,-718 Z" stroke-width="0" fill="#8a6b54" fill-opacity="0.49019607843137253" />
<path d="M518,-182 L794,-594 L266,-1054 L234,-142 L166,-154 L134,-430 Z" stroke-width="0" fill="#2d364d" fill-opacity="0.4117647058823529" />
<path d="M378,-406 L246,-634 L154,-594 L770,-1214 L558,-222 L174,-1050 Z" stroke-width="0" fill="#293233" fill-opacity="0.5019607843137255" />
<path d="M106,-834 L394,-1258 L274,-942 L130,-406 L118,-1130 L86,-578 Z" stroke-width="0" fill="#130018" fill-opacity="0.8431372549019608" />
<path d="M938,-890 L178,-338 L506,-850 L298,-1262 L510,-106 L610,-702 Z" stroke-width="0" fill="#224f18" fill-opacity="0.3803921568627451" />
<path d="M154,-406 L534,-706 L550,-390 L366,-466 L238,-314 L518,-222 Z" stroke-width="0" fill="#152a3c" fill-opacity="0.4" />
<path d="M286,-1050 L322,-498 L662,-1178 L282,-1170 L374,-118 L290,-346 Z" stroke-width="0" fill="#000111" fill-opacity="0.44313725490196076" />
<path d="M282,-554 L102,-538 L486,-122 L98,-278 L734,-1122 L222,-350 Z" stroke-width="0" fill="#140e3e" fill-opacity="0.3215686274509804" />
<path d="M146,-830 L438,-822 L642,-458 L682,-342 L338,-602 L258,-1190 Z" stroke-width="0" fill="#673030" fill-opacity="0.10980392156862745" />
<path d="M770,-326 L182,-150 L346,-302 L554,-366 L654,-394 L218,-146 Z" stroke-width="0" fill="#181f21" fill-opacity="0.5294117647058824" />
<path d="M762,-562 L210,-490 L526,-358 L186,-458 L690,-354 L214,-994 Z" stroke-width="0" fill="#4e3a3f" fill-opacity="0.5019607843137255" />
<path d="M166,-482 L378,-1054 L614,-274 L602,-806 L198,-482 L286,-130 Z" stroke-width="0" fill="#1e4902" fill-opacity="0.23137254901960785" />
<path d="M310,-806 L430,-922 L858,-218 L610,-866 L586,-334 L474,-614 Z" stroke-width="0" fill="#ddaade" fill-opacity="0.19215686274509805" />
<path d="M430,-242 L514,-630 L866,-750 L870,-434 L930,-1206 L238,-118 Z" stroke-width="0" fill="#6a6454" fill-opacity="0.6196078431372549" />
<path d="M418,-554 L358,-834 L650,-722 L482,-278 L422,-782 L758,-338 Z" stroke-width="0" fill="#56655e" fill-opacity="0.5882352941176471" />
<path d="M218,-850 L918,-1018 L290,-1214 L734,-638 L314,-114 L394,-782 Z" stroke-width="0" fill="#302a2f" fill-opacity="0.5019607843137255" />
<path d="M390,-142 L530,-182 L738,-506 L394,-114 L430,-846 L402,-1254 Z" stroke-width="0" fill="#41004d" fill-opacity="0.27450980392156865" />
<path d="M470,-706 L666,-318 L238,-522 L102,-1130 L750,-958 L754,-218 Z" stroke-width="0" fill="#112523" fill-opacity="0.5490196078431373" />
<path d="M126,-410 L270,-682 L138,-350 L198,-482 L406,-702 L226,-234 Z" stroke-width="0" fill="#121e2c" fill-opacity="0.47058823529411764" />
<path d="M222,-1174 L546,-1082 L294,-518 L718,-82 L554,-706 L326,-510 Z" stroke-width="0" fill="#322457" fill-opacity="0.1803921568627451" />
<path d="M282,-454 L502,-246 L182,-1046 L394,-526 L962,-914 L686,-422 Z" stroke-width="0" fill="#403d64" fill-opacity="0.20784313725490197" />
<text x="448.0" y="0" font-size="70.0" fill="black" text-anchor="middle" transform="translate(0,17.5)">QUEEN OF FIRE</text>
</svg>