<?xml version="1.0" encoding="UTF-8"?>
<svg xmlns="http://www.w3.org/2000/svg" xmlns:xlink="http://www.w3.org/1999/xlink"
     width="896" height="1496" viewBox="0 -1400 896 1496" style="font-size:70;font-family:Poor Richard, Times New Roman;stroke:black;stroke-width:1;fill:none">
<defs>
</defs>
<path d="M438,-1082 L290,-290 L482,-454 L530,-310 L386,-1022 L154,-1154 Z" stroke-width="0" fill="#c9dcfe" fill-opacity="0.054901960784313725" />
<path d="M574,-746 L222,-86 L286,-990 L298,-190 L170,-114 L394,-742 Z" stroke-width="0" fill="#4a65b6" fill-opacity="0.16862745098039217" />
<path d="M518,-706 L734,-282 L338,-1202 L218,-498 L486,-778 L90,-1258 Z" stroke-width="0" fill="#3665f9" fill-opacity="0.043137254901960784" />
<path d="M102,-90 L502,-474 L258,-430 L658,-1154 L562,-1018 L318,-874 Z" stroke-width="0" fill="#fd8a00" fill-opacity="0.9019607843137255" />
<path d="M326,-314 L470,-122 L390,-266 L606,-730 L270,-98 L606,-762 Z" stroke-width="0" fill="#dabfd7" fill-opacity="0.3137254901960784" />
<path d="M162,-1110 L630,-730 L346,-502 L746,-466 L698,-378 L402,-302 Z" stroke-width="0" fill="#f2352f" fill-opacity="0.6862745098039216" />
<path d="M130,-570 L434,-518 L86,-746 L250,-610 L278,-442 L778,-294 Z" stroke-width="0" fill="#904805" fill-opacity="0.10980392156862745" />
<path d="M114,-410 L174,-1142 L470,-406 L286,-538 L82,-1090 L466,-1098 Z" stroke-width="0" fill="#00f7e3" fill-opacity="0.07450980392156863" />
<path d="M558,-710 L90,-934 L674,-1002 L602,-862 L342,-1018 L302,-1222 Z" stroke-width="0" fill="#89f5e4" fill-opacity="0.1568627450980392" />
<path d="M562,-582 L174,-138 L502,-1074 L546,-758 L398,-890 L150,-366 Z" stroke-width="0" fill="#ebe9ef" fill-opacity="0.9490196078431372" />
<path d="M630,-342 L102,-1102 L378,-378 L662,-1166 L402,-638 L530,-482 Z" stroke-width="0" fill="#c7feed" fill-opacity="0.054901960784313725" />
<path d="M382,-398 L706,-314 L322,-902 L266,-894 L514,-206 L98,-346 Z" stroke-width="0" fill="#fbf200" fill-opacity="0.9725490196078431" />
<path d="M190,-798 L266,-594 L678,-414 L466,-186 L310,-598 L102,-1162 Z" stroke-width="0" fill="#02d8e2" fill-opacity="0.08627450980392157" />
<path d="M302,-926 L326,-254 L110,-394 L654,-1234 L90,-566 L678,-174 Z" stroke-width="0" fill="#f8151d" fill-opacity="0.08627450980392157" />
<path d="M358,-1086 L162,-826 L322,-618 L638,-1094 L190,-802 L354,-802 Z" stroke-width="0" fill="#eb0c3f" fill-opacity="0.9725490196078431" />
<path d="M362,-282 L458,-1262 L94,-370 L114,-534 L738,-674 L706,-522 Z" stroke-width="0" fill="#0ef5f6" fill-opacity="0.00784313725490196" />
<path d="M158,-518 L150,-414 L658,-886 L586,-1270 L382,-130 L138,-534 Z" stroke-width="0" fill="#fc0c09" fill-opacity="0.7098039215686275" />
<path d="M778,-806 L578,-182 L90,-90 L358,-1234 L438,-350 L422,-542 Z" stroke-width="0" fill="#f2ea00" fill-opacity="0.36470588235294116" />
<path d="M270,-498 L318,-426 L558,-214 L214,-538 L410,-182 L254,-146 Z" stroke-width="0" fill="#a79cfe" fill-opacity="0.10588235294117647" />
<path d="M314,-1066 L802,-602 L406,-858 L314,-394 L190,-466 L562,-574 Z" stroke-width="0" fill="#fe7d00" fill-opacity="0.7215686274509804" />
<path d="M682,-918 L262,-278 L294,-958 L758,-998 L710,-1258 L726,-770 Z" stroke-width="0" fill="#f83a00" fill-opacity="0.5450980392156862" />
<path d="M266,-858 L414,-1278 L330,-458 L398,-1278 L538,-1258 L82,-758 Z" stroke-width="0" fill="#0feec1" fill-opacity="0.08627450980392157" />
<path d="M626,-458 L206,-986 L626,-154 L198,-1294 L342,-266 L618,-654 Z" stroke-width="0" fill="#59e1be" fill-opacity="0.0784313725490196" />
<path d="M318,-798 L374,-1194 L642,-746 L414,-246 L266,-750 L238,-1074 Z" stroke-width="0" fill="#67f6e4" fill-opacity="0.043137254901960784" />
<path d="M766,-1014 L430,-1094 L166,-954 L470,-874 L458,-934 L162,-878 Z" stroke-width="0" fill="#f8041e" fill-opacity="0.4117647058823529" />
<path d="M470,-518 L714,-242 L526,-634 L198,-702 L294,-750 L330,-1174 Z" stroke-width="0" fill="#d29483" fill-opacity="0.0196078431372549" />
<path d="M410,-858 L654,-1062 L170,-826 L678,-90 L534,-1114 L782,-402 Z" stroke-width="0" fill="#9cad93" fill-opacity="0.2980392156862745" />
<path d="M518,-902 L330,-510 L514,-346 L398,-1050 L446,-162 L478,-802 Z" stroke-width="0" fill="#fcfe97" fill-opacity="0.20392156862745098" />
<path d="M230,-478 L778,-926 L442,-666 L258,-682 L798,-978 L734,-454 Z" stroke-width="0" fill="#fb3900" fill-opacity="0.7294117647058823" />
<path d="M666,-622 L94,-470 L538,-386 L454,-1074 L310,-546 L498,-734 Z" stroke-width="0" fill="#e5933c" fill-opacity="0.13333333333333333" />
<path d="M274,-818 L634,-546 L686,-322 L714,-266 L162,-1218 L218,-434 Z" stroke-width="0" fill="#a1efe2" fill-opacity="0.1568627450980392" />
<path d="M238,-658 L94,-566 L458,-898 L186,-1262 L262,-1314 L82,-870 Z" stroke-width="0" fill="#5eb4fa" fill-opacity="0.1607843137254902" />
<path d="M470,-538 L158,-586 L382,-614 L750,-258 L562,-142 L138,-374 Z" stroke-width="0" fill="#adc5dd" fill-opacity="0.3058823529411765" />
<path d="M714,-666 L210,-1262 L338,-230 L206,-410 L734,-686 L262,-730 Z" stroke-width="0" fill="#edb5dc" fill-opacity="0.15294117647058825" />
<path d="M154,-782 L218,-122 L302,-862 L110,-538 L442,-598 L114,-774 Z" stroke-width="0" fill="#e4fcf4" fill-opacity="0.7450980392156863" />
<path d="M694,-1054 L502,-502 L170,-346 L530,-730 L442,-174 L386,-662 Z" stroke-width="0" fill="#e67203" fill-opacity="0.25882352941176473" />
<path d="M786,-826 L470,-774 L306,-758 L86,-458 L194,-302 L714,-830 Z" stroke-width="0" fill="#f14b00" fill-opacity="0.4470588235294118" />
<path d="M182,-322 L558,-218 L534,-494 L422,-854 L86,-678 L390,-566 Z" stroke-width="0" fill="#fefeb6" fill-opacity="0.788235294117647" />
<path d="M650,-362 L754,-270 L594,-250 L582,-926 L606,-214 L550,-402 Z" stroke-width="0" fill="#edfcfa" fill-opacity="0.9254901960784314" />
<path d="M278,-914 L182,-150 L634,-906 L86,-714 L230,-722 L494,-1018 Z" stroke-width="0" fill="#49045f" fill-opacity="0.0784313725490196" />
<path d="M786,-526 L474,-1090 L562,-1134 L462,-758 L698,-234 L518,-994 Z" stroke-width="0" fill="#e1dfdf" fill-opacity="0.13725490196078433" />
<path d="M558,-1082 L498,-530 L258,-1242 L454,-374 L102,-826 L130,-686 Z" stroke-width="0" fill="#255a8d" fill-opacity="0.06274509803921569" />
<path d="M198,-642 L494,-798 L510,-222 L758,-958 L338,-826 L662,-1182 Z" stroke-width="0" fill="#f1463b" fill-opacity="0.8549019607843137" />
<path d="M142,-1118 L302,-1218 L602,-1142 L738,-510 L358,-914 L106,-906 Z" stroke-width="0" fill="#61f6f3" fill-opacity="0.12941176470588237" />
<path d="M526,-906 L598,-870 L698,-866 L638,-382 L282,-1154 L810,-702 Z" stroke-width="0" fill="#e33c15" fill-opacity="0.5882352941176471" />
<path d="M234,-1022 L734,-234 L682,-766 L234,-1186 L382,-754 L694,-170 Z" stroke-width="0" fill="#f1f8e0" fill-opacity="0.011764705882352941" />
<path d="M802,-286 L278,-882 L786,-250 L318,-438 L146,-650 L414,-1018 Z" stroke-width="0" fill="#f4d28d" fill-opacity="0.2980392156862745" />
<path d="M374,-186 L138,-1126 L314,-478 L398,-1078 L166,-378 L626,-638 Z" stroke-width="0" fill="#bdefa5" fill-opacity="0.33725490196078434" />
<path d="M230,-282 L638,-590 L638,-986 L214,-878 L190,-966 L178,-914 Z" stroke-width="0" fill="#fd81c4" fill-opacity="0.8901960784313725" />
<path d="M90,-938 L334,-482 L342,-226 L146,-126 L790,-498 L594,-378 Z" stroke-width="0" fill="#ee0ee9" fill-opacity="0.03137254901960784" />
<path d="M238,-638 L258,-938 L106,-958 L430,-590 L406,-1270 L334,-430 Z" stroke-width="0" fill="#2cebe3" fill-opacity="0.08235294117647059" />
<path d="M150,-522 L230,-414 L258,-926 L434,-758 L558,-254 L450,-102 Z" stroke-width="0" fill="#510554" fill-opacity="0.1411764705882353" />
<path d="M230,-162 L794,-242 L710,-146 L110,-990 L394,-1230 L258,-694 Z" stroke-width="0" fill="#e0f7e7" fill-opacity="0.6588235294117647" />
<path d="M366,-694 L634,-818 L526,-230 L378,-1302 L94,-346 L514,-230 Z" stroke-width="0" fill="#64d3bc" fill-opacity="0.10588235294117647" />
<path d="M714,-890 L110,-190 L614,-514 L274,-334 L614,-1018 L302,-314 Z" stroke-width="0" fill="#e1ab00" fill-opacity="0.3333333333333333" />
<path d="M410,-702 L142,-566 L802,-434 L114,-1310 L326,-534 L578,-302 Z" stroke-width="0" fill="#afe3e6" fill-opacity="0.23529411764705882" />
<path d="M474,-298 L286,-746 L190,-178 L174,-930 L586,-98 L658,-670 Z" stroke-width="0" fill="#bca23c" fill-opacity="0.07058823529411765" />
<path d="M278,-586 L358,-554 L546,-578 L746,-106 L790,-446 L94,-430 Z" stroke-width="0" fill="#bb686a" fill-opacity="0.16470588235294117" />
<path d="M194,-1030 L98,-302 L542,-306 L614,-794 L566,-318 L174,-422 Z" stroke-width="0" fill="#eb7700" fill-opacity="0.5529411764705883" />
<path d="M438,-574 L802,-274 L114,-450 L326,-998 L82,-990 L666,-470 Z" stroke-width="0" fill="#d6ecbf" fill-opacity="0.16862745098039217" />
<path d="M102,-1050 L358,-846 L638,-410 L214,-182 L570,-662 L202,-534 Z" stroke-width="0" fill="#fcf8f9" fill-opacity="0.47058823529411764" />
<path d="M606,-398 L618,-198 L394,-1010 L282,-554 L290,-282 L722,-482 Z" stroke-width="0" fill="#e262ac" fill-opacity="0.027450980392156862" />
<path d="M750,-1086 L434,-106 L458,-246 L82,-1242 L278,-1166 L242,-694 Z" stroke-width="0" fill="#c4ecf1" fill-opacity="0.11764705882352941" />
<path d="M294,-426 L366,-466 L118,-82 L442,-162 L562,-186 L562,-1078 Z" stroke-width="0" fill="#e2eee8" fill-opacity="0.9803921568627451" />
<path d="M338,-246 L690,-234 L606,-1018 L306,-294 L166,-190 L782,-810 Z" stroke-width="0" fill="#f1faf9" fill-opacity="0.11372549019607843" />
<path d="M426,-114 L86,-386 L210,-1078 L202,-474 L206,-486 L322,-1194 Z" stroke-width="0" fill="#f7d900" fill-opacity="0.6627450980392157" />
<path d="M114,-738 L718,-446 L654,-842 L354,-238 L150,-430 L710,-662 Z" stroke-width="0" fill="#eff23e" fill-opacity="0.403921568627451" />
<path d="M442,-170 L710,-946 L470,-1022 L158,-186 L538,-402 L250,-242 Z" stroke-width="0" fill="#f9fcec" fill-opacity="0.3176470588235294" />
<path d="M158,-1194 L678,-1230 L414,-1090 L150,-598 L122,-446 L550,-526 Z" stroke-width="0" fill="#aaf2d3" fill-opacity="0.1450980392156863" />
<path d="M154,-742 L186,-770 L198,-542 L238,-534 L174,-482 L702,-1222 Z" stroke-width="0" fill="#fd2405" fill-opacity="0.7450980392156863" />
<path d="M714,-150 L194,-886 L330,-734 L406,-490 L198,-586 L226,-1310 Z" stroke-width="0" fill="#cbf8eb" fill-opacity="0.4117647058823529" />
<path d="M282,-390 L354,-1310 L578,-958 L770,-842 L758,-298 L550,-786 Z" stroke-width="0" fill="#f9ebf8" fill-opacity="0.23921568627450981" />
<path d="M786,-638 L610,-462 L206,-154 L186,-234 L242,-890 L282,-430 Z" stroke-width="0" fill="#ae979c" fill-opacity="0.027450980392156862" />
<path d="M262,-226 L90,-266 L586,-426 L114,-1150 L86,-474 L106,-482 Z" stroke-width="0" fill="#fdc4de" fill-opacity="0.1607843137254902" />
<path d="M362,-246 L318,-658 L166,-934 L430,-814 L630,-306 L222,-942 Z" stroke-width="0" fill="#eff6f7" fill-opacity="0.6431372549019608" />
<path d="M130,-610 L554,-330 L230,-446 L182,-806 L90,-1030 L214,-290 Z" stroke-width="0" fill="#b2f5f5" fill-opacity="0.23137254901960785" />
<path d="M398,-1270 L678,-370 L550,-1022 L322,-298 L658,-1142 L786,-1250 Z" stroke-width="0" fill="#9ab8c9" fill-opacity="0.14901960784313725" />
<path d="M482,-1090 L706,-450 L726,-602 L262,-914 L714,-186 L346,-418 Z" stroke-width="0" fill="#ecf5d0" fill-opacity="0.043137254901960784" />
<path d="M310,-558 L726,-1102 L746,-98 L438,-294 L350,-866 L618,-582 Z" stroke-width="0" fill="#e0afb9" fill-opacity="0.03137254901960784" />
<path d="M626,-1138 L94,-882 L498,-882 L142,-894 L618,-494 L790,-410 Z" stroke-width="0" fill="#f5b620" fill-opacity="0.7568627450980392" />
<path d="M174,-166 L94,-942 L558,-594 L638,-834 L90,-134 L374,-806 Z" stroke-width="0" fill="#b5e527" fill-opacity="0.07058823529411765" />
<path d="M494,-750 L706,-974 L794,-982 L522,-90 L190,-754 L378,-714 Z" stroke-width="0" fill="#fdc7ae" fill-opacity="0.38823529411764707" />
<path d="M294,-974 L186,-754 L102,-794 L330,-122 L142,-1174 L722,-578 Z" stroke-width="0" fill="#f6efde" fill-opacity="0.21176470588235294" />
<path d="M534,-678 L202,-338 L298,-462 L802,-1286 L702,-846 L714,-194 Z" stroke-width="0" fill="#ef1f0a" fill-opacity="0.37254901960784315" />
<path d="M478,-290 L446,-966 L274,-682 L266,-786 L734,-618 L570,-158 Z" stroke-width="0" fill="#fb489d" fill-opacity="0.23137254901960785" />
<path d="M618,-1294 L614,-586 L462,-1014 L154,-806 L206,-862 L542,-386 Z" stroke-width="0" fill="#ed0623" fill-opacity="0.3568627450980392" />
<path d="M378,-1034 L662,-290 L162,-1290 L354,-306 L214,-986 L758,-630 Z" stroke-width="0" fill="#75fac7" fill-opacity="0.00392156862745098" />
<path d="M110,-574 L426,-826 L94,-802 L194,-1062 L534,-422 L110,-794 Z" stroke-width="0" fill="#edccea" fill-opacity="0.4666666666666667" />
<path d="M466,-1042 L806,-86 L226,-478 L434,-158 L242,-710 L666,-1106 Z" stroke-width="0" fill="#ffe164" fill-opacity="0.12156862745098039" />
<path d="M122,-718 L182,-1186 L410,-1214 L394,-626 L738,-874 L334,-522 Z" stroke-width="0" fill="#f3ece5" fill-opacity="0.07450980392156863" />
<path d="M810,-846 L374,-1210 L266,-1242 L426,-1110 L390,-170 L166,-786 Z" stroke-width="0" fill="#d63165" fill-opacity="0.11372549019607843" />
<path d="M498,-258 L250,-230 L482,-914 L258,-1218 L742,-1150 L142,-494 Z" stroke-width="0" fill="#f1ebda" fill-opacity="0.13725490196078433" />
<path d="M98,-642 L334,-98 L746,-302 L334,-1070 L286,-270 L398,-1214 Z" stroke-width="0" fill="#ec95e5" fill-opacity="0.2549019607843137" />
<path d="M170,-750 L230,-282 L766,-846 L722,-222 L706,-754 L230,-470 Z" stroke-width="0" fill="#daa971" fill-opacity="0.10588235294117647" />
<path d="M714,-954 L438,-330 L138,-670 L574,-314 L586,-1166 L338,-330 Z" stroke-width="0" fill="#ed8e62" fill-opacity="0.7764705882352941" />
<path d="M170,-410 L578,-686 L82,-1238 L298,-954 L150,-166 L446,-1242 Z" stroke-width="0" fill="#fe9136" fill-opacity="0.5019607843137255" />
<path d="M502,-794 L674,-750 L142,-770 L526,-774 L650,-414 L314,-370 Z" stroke-width="0" fill="#ed826f" fill-opacity="0.08627450980392157" />
<path d="M198,-698 L606,-394 L482,-438 L694,-774 L186,-126 L550,-1250 Z" stroke-width="0" fill="#eda895" fill-opacity="0.09411764705882353" />
<path d="M210,-1138 L202,-406 L626,-414 L118,-354 L370,-182 L338,-290 Z" stroke-width="0" fill="#fafcf5" fill-opacity="0.3333333333333333" />
<path d="M766,-946 L142,-414 L682,-666 L178,-1162 L442,-910 L318,-866 Z" stroke-width="0" fill="#fca686" fill-opacity="0.7607843137254902" />
<text x="448.0" y="0" font-size="70.0" fill="black" text-anchor="middle" transform="translate(0,17.5)">3 OF WATER</text>
</svg>