<?xml version="1.0" encoding="UTF-8"?>
<svg xmlns="http://www.w3.org/2000/svg" xmlns:xlink="http://www.w3.org/1999/xlink"
     width="896" height="1496" viewBox="0 -1400 896 1496" style="font-size:70;font-family:Poor Richard, Times New Roman;stroke:black;stroke-width:1;fill:none">
<defs>
</defs>
<path d="M530,-210 L366,-438 L714,-282 L270,-142 L202,-1030 L286,-830 Z" stroke-width="0" fill="#71c9c6" fill-opacity="0.10196078431372549" />
<path d="M470,-218 L150,-102 L566,-1038 L902,-866 L342,-1130 L738,-758 Z" stroke-width="0" fill="#220002" fill-opacity="0.8117647058823529" />
<path d="M662,-1166 L86,-358 L566,-798 L626,-890 L254,-718 L702,-646 Z" stroke-width="0" fill="#381e28" fill-opacity="0.9725490196078431" />
<path d="M846,-1202 L530,-662 L266,-146 L922,-814 L494,-894 L538,-1142 Z" stroke-width="0" fill="#5a0d08" fill-opacity="0.796078431372549" />
<path d="M122,-198 L434,-610 L294,-778 L842,-958 L966,-258 L858,-1090 Z" stroke-width="0" fill="#1f0000" fill-opacity="0.8901960784313725" />
<path d="M846,-530 L598,-590 L246,-174 L814,-366 L826,-462 L834,-162 Z" stroke-width="0" fill="#d4a712" fill-opacity="0.23921568627450981" />
<path d="M154,-158 L102,-998 L858,-1250 L558,-334 L870,-350 L486,-1050 Z" stroke-width="0" fill="#210000" fill-opacity="0.8823529411764706" />
<path d="M454,-434 L410,-634 L646,-338 L214,-326 L410,-1062 L142,-718 Z" stroke-width="0" fill="#48adef" fill-opacity="0.9019607843137255" />
<path d="M382,-358 L978,-226 L606,-310 L366,-626 L750,-258 L346,-358 Z" stroke-width="0" fill="#340500" fill-opacity="0.9215686274509803" />
<path d="M250,-470 L146,-166 L826,-1038 L502,-938 L746,-242 L906,-502 Z" stroke-width="0" fill="#181900" fill-opacity="0.8666666666666667" />
<path d="M498,-238 L310,-1066 L210,-602 L470,-702 L914,-646 L402,-806 Z" stroke-width="0" fill="#274a08" fill-opacity="0.996078431372549" />
<path d="M758,-506 L826,-370 L354,-1066 L862,-102 L706,-1066 L498,-1026 Z" stroke-width="0" fill="#0a0000" fill-opacity="0.8745098039215686" />
<path d="M226,-1122 L642,-990 L414,-926 L738,-170 L966,-322 L298,-418 Z" stroke-width="0" fill="#060000" fill-opacity="0.8352941176470589" />
<path d="M354,-310 L278,-1114 L130,-946 L166,-982 L758,-926 L614,-1078 Z" stroke-width="0" fill="#704b3e" fill-opacity="0.22745098039215686" />
<path d="M838,-958 L118,-474 L82,-962 L142,-514 L970,-478 L190,-290 Z" stroke-width="0" fill="#792600" fill-opacity="0.7803921568627451" />
<path d="M614,-374 L542,-234 L558,-814 L766,-1158 L782,-142 L354,-514 Z" stroke-width="0" fill="#f4d7f4" fill-opacity="0.8745098039215686" />
<path d="M386,-1270 L706,-1162 L394,-154 L562,-598 L190,-1138 L702,-142 Z" stroke-width="0" fill="#b92600" fill-opacity="0.8196078431372549" />
<path d="M470,-314 L170,-1034 L262,-434 L454,-1166 L254,-278 L206,-1050 Z" stroke-width="0" fill="#210200" fill-opacity="0.611764705882353" />
<path d="M806,-1090 L686,-222 L306,-194 L550,-342 L462,-474 L710,-338 Z" stroke-width="0" fill="#f3ebed" fill-opacity="0.807843137254902" />
<path d="M490,-274 L338,-402 L230,-710 L538,-246 L246,-826 L406,-194 Z" stroke-width="0" fill="#094d46" fill-opacity="0.5529411764705883" />
<path d="M470,-674 L258,-498 L486,-858 L134,-258 L438,-166 L442,-654 Z" stroke-width="0" fill="#13252c" fill-opacity="0.9921568627450981" />
<path d="M114,-1050 L546,-1198 L238,-134 L170,-514 L878,-1126 L610,-534 Z" stroke-width="0" fill="#4b3214" fill-opacity="0.7490196078431373" />
<path d="M918,-974 L538,-590 L226,-254 L446,-590 L286,-206 L170,-570 Z" stroke-width="0" fill="#2d1100" fill-opacity="0.9294117647058824" />
<path d="M574,-406 L510,-482 L762,-142 L222,-566 L978,-662 L706,-218 Z" stroke-width="0" fill="#1a0000" fill-opacity="0.8156862745098039" />
<path d="M914,-1278 L722,-206 L734,-530 L86,-498 L366,-1058 L318,-1134 Z" stroke-width="0" fill="#aa4b05" fill-opacity="0.7843137254901961" />
<path d="M150,-682 L734,-642 L546,-1278 L810,-1150 L694,-286 L842,-122 Z" stroke-width="0" fill="#b93019" fill-opacity="0.7058823529411765" />
<path d="M438,-694 L82,-758 L642,-442 L578,-222 L634,-490 L878,-354 Z" stroke-width="0" fill="#e4bc83" fill-opacity="0.9019607843137255" />
<path d="M94,-594 L746,-362 L90,-730 L510,-1122 L226,-138 L594,-906 Z" stroke-width="0" fill="#f3fad1" fill-opacity="0.8666666666666667" />
<path d="M226,-162 L462,-450 L526,-242 L146,-806 L522,-558 L918,-110 Z" stroke-width="0" fill="#1a0000" fill-opacity="0.9215686274509803" />
<path d="M338,-438 L298,-146 L710,-422 L814,-566 L626,-146 L774,-222 Z" stroke-width="0" fill="#10358a" fill-opacity="0.24705882352941178" />
<path d="M402,-334 L262,-634 L558,-810 L278,-666 L306,-718 L426,-822 Z" stroke-width="0" fill="#2f02bb" fill-opacity="0.2196078431372549" />
<path d="M218,-362 L890,-142 L294,-930 L658,-226 L862,-358 L834,-386 Z" stroke-width="0" fill="#070220" fill-opacity="0.9882352941176471" />
<path d="M410,-442 L134,-186 L926,-522 L126,-434 L102,-130 L206,-634 Z" stroke-width="0" fill="#010000" fill-opacity="0.7215686274509804" />
<path d="M906,-1014 L642,-1062 L614,-446 L790,-582 L806,-210 L522,-942 Z" stroke-width="0" fill="#d28a48" fill-opacity="1.0" />
<path d="M274,-990 L222,-706 L114,-530 L698,-710 L442,-746 L694,-234 Z" stroke-width="0" fill="#c2b8e4" fill-opacity="0.44313725490196076" />
<path d="M158,-1022 L506,-1270 L562,-434 L574,-134 L342,-82 L686,-758 Z" stroke-width="0" fill="#bf5239" fill-opacity="0.9176470588235294" />
<path d="M382,-350 L402,-270 L338,-1210 L602,-322 L134,-474 L342,-1042 Z" stroke-width="0" fill="#923e2c" fill-opacity="0.6549019607843137" />
<path d="M482,-1226 L226,-374 L286,-766 L286,-1198 L670,-790 L446,-978 Z" stroke-width="0" fill="#b32118" fill-opacity="0.6509803921568628" />
<path d="M550,-434 L202,-222 L314,-246 L358,-538 L822,-954 L514,-302 Z" stroke-width="0" fill="#d8fc8e" fill-opacity="0.9176470588235294" />
<path d="M186,-446 L750,-790 L826,-438 L686,-542 L726,-238 L638,-230 Z" stroke-width="0" fill="#080b25" fill-opacity="0.9529411764705882" />
<path d="M622,-842 L914,-710 L650,-942 L482,-222 L206,-554 L818,-290 Z" stroke-width="0" fill="#9f061b" fill-opacity="0.8392156862745098" />
<path d="M922,-474 L618,-1150 L570,-626 L158,-1050 L818,-806 L414,-514 Z" stroke-width="0" fill="#370918" fill-opacity="0.807843137254902" />
<path d="M650,-694 L842,-694 L510,-890 L422,-874 L202,-278 L90,-150 Z" stroke-width="0" fill="#2d3102" fill-opacity="0.7843137254901961" />
<path d="M398,-726 L510,-1086 L906,-762 L506,-854 L746,-310 L538,-398 Z" stroke-width="0" fill="#2a4e49" fill-opacity="0.7254901960784313" />
<path d="M654,-846 L906,-286 L782,-362 L306,-1138 L470,-1182 L590,-794 Z" stroke-width="0" fill="#a8879d" fill-opacity="0.4196078431372549" />
<path d="M610,-186 L514,-134 L246,-914 L162,-670 L610,-490 L578,-210 Z" stroke-width="0" fill="#9ddef8" fill-opacity="0.3686274509803922" />
<path d="M614,-1178 L838,-518 L558,-1042 L294,-230 L134,-974 L406,-454 Z" stroke-width="0" fill="#212428" fill-opacity="0.4588235294117647" />
<path d="M774,-190 L454,-910 L102,-166 L414,-906 L794,-778 L794,-958 Z" stroke-width="0" fill="#1f2300" fill-opacity="0.9058823529411765" />
<path d="M326,-810 L466,-410 L938,-486 L174,-230 L586,-1190 L126,-1194 Z" stroke-width="0" fill="#912400" fill-opacity="0.6" />
<path d="M382,-302 L642,-1042 L394,-926 L278,-918 L634,-930 L146,-1102 Z" stroke-width="0" fill="#8e2014" fill-opacity="0.9568627450980393" />
<path d="M546,-758 L250,-870 L542,-402 L838,-686 L682,-858 L122,-526 Z" stroke-width="0" fill="#edf6ba" fill-opacity="0.9372549019607843" />
<path d="M702,-598 L438,-1110 L106,-670 L894,-774 L870,-974 L238,-626 Z" stroke-width="0" fill="#a74816" fill-opacity="0.8313725490196079" />
<path d="M182,-314 L498,-374 L530,-414 L974,-562 L818,-534 L94,-778 Z" stroke-width="0" fill="#a3f8ee" fill-opacity="0.09411764705882353" />
<path d="M454,-582 L346,-610 L558,-106 L134,-614 L558,-834 L290,-390 Z" stroke-width="0" fill="#6dc48b" fill-opacity="0.058823529411764705" />
<path d="M358,-710 L346,-286 L230,-794 L558,-770 L478,-486 L278,-1234 Z" stroke-width="0" fill="#c34906" fill-opacity="0.8313725490196079" />
<path d="M430,-454 L462,-174 L270,-602 L202,-426 L858,-278 L426,-294 Z" stroke-width="0" fill="#97180f" fill-opacity="0.1803921568627451" />
<path d="M594,-262 L106,-1174 L238,-778 L94,-978 L930,-1090 L146,-170 Z" stroke-width="0" fill="#580200" fill-opacity="0.6823529411764706" />
<path d="M294,-762 L866,-226 L450,-986 L154,-902 L90,-854 L706,-814 Z" stroke-width="0" fill="#000000" fill-opacity="0.9058823529411765" />
<path d="M750,-722 L190,-1010 L866,-610 L330,-566 L478,-654 L134,-1002 Z" stroke-width="0" fill="#a24b5a" fill-opacity="0.023529411764705882" />
<path d="M154,-202 L146,-1078 L710,-574 L426,-862 L394,-662 L142,-406 Z" stroke-width="0" fill="#3d646a" fill-opacity="0.058823529411764705" />
<path d="M130,-410 L494,-790 L566,-186 L486,-362 L934,-678 L270,-1186 Z" stroke-width="0" fill="#89201a" fill-opacity="0.9019607843137255" />
<path d="M210,-1014 L542,-110 L926,-210 L438,-1086 L854,-1042 L82,-490 Z" stroke-width="0" fill="#802000" fill-opacity="0.6392156862745098" />
<path d="M626,-222 L498,-90 L690,-1078 L546,-1138 L470,-454 L146,-1130 Z" stroke-width="0" fill="#741822" fill-opacity="0.8470588235294118" />
<path d="M702,-798 L670,-210 L490,-726 L98,-814 L246,-498 L378,-846 Z" stroke-width="0" fill="#fff16c" fill-opacity="0.9215686274509803" />
<path d="M222,-554 L842,-766 L158,-638 L498,-990 L114,-190 L242,-930 Z" stroke-width="0" fill="#908776" fill-opacity="0.2901960784313726" />
<path d="M310,-206 L698,-582 L886,-430 L442,-958 L874,-978 L470,-1050 Z" stroke-width="0" fill="#380c0c" fill-opacity="0.6784313725490196" />
<path d="M342,-282 L958,-290 L862,-438 L726,-414 L414,-314 L558,-434 Z" stroke-width="0" fill="#311000" fill-opacity="0.9764705882352941" />
<path d="M770,-418 L814,-1070 L614,-894 L422,-706 L178,-818 L790,-306 Z" stroke-width="0" fill="#5b352c" fill-opacity="0.07058823529411765" />
<path d="M182,-382 L174,-110 L150,-1002 L114,-982 L238,-630 L562,-678 Z" stroke-width="0" fill="#964b05" fill-opacity="0.12549019607843137" />
<path d="M582,-842 L398,-438 L586,-1138 L610,-386 L950,-110 L606,-1154 Z" stroke-width="0" fill="#3e0e00" fill-opacity="0.9686274509803922" />
<path d="M574,-254 L782,-974 L290,-494 L186,-582 L154,-882 L898,-122 Z" stroke-width="0" fill="#a8262d" fill-opacity="0.06666666666666667" />
<path d="M798,-986 L642,-150 L490,-158 L370,-206 L98,-914 L390,-254 Z" stroke-width="0" fill="#65361b" fill-opacity="0.35294117647058826" />
<path d="M826,-122 L450,-1126 L590,-90 L154,-106 L706,-734 L582,-854 Z" stroke-width="0" fill="#290000" fill-opacity="0.9333333333333333" />
<path d="M590,-130 L602,-474 L302,-254 L270,-698 L978,-134 L230,-1058 Z" stroke-width="0" fill="#2f0002" fill-opacity="0.9215686274509803" />
<path d="M554,-790 L726,-710 L426,-1054 L966,-86 L442,-1030 L694,-146 Z" stroke-width="0" fill="#1d0900" fill-opacity="0.8745098039215686" />
<path d="M534,-234 L390,-102 L494,-262 L234,-762 L510,-910 L294,-1098 Z" stroke-width="0" fill="#e3ccde" fill-opacity="0.7764705882352941" />
<path d="M550,-978 L234,-1154 L174,-1018 L306,-758 L914,-1066 L366,-1006 Z" stroke-width="0" fill="#9b2f27" fill-opacity="0.9686274509803922" />
<path d="M350,-1158 L382,-742 L794,-262 L462,-618 L322,-1114 L670,-238 Z" stroke-width="0" fill="#5b0b1a" fill-opacity="0.6627450980392157" />
<path d="M742,-834 L278,-470 L430,-102 L506,-842 L466,-874 L290,-694 Z" stroke-width="0" fill="#7c47b7" fill-opacity="0.08627450980392157" />
<path d="M546,-778 L354,-1254 L570,-378 L746,-102 L158,-286 L686,-806 Z" stroke-width="0" fill="#371b2a" fill-opacity="0.9490196078431372" />
<path d="M542,-998 L298,-326 L610,-354 L378,-1210 L442,-518 L258,-1194 Z" stroke-width="0" fill="#8e3a25" fill-opacity="0.6627450980392157" />
<path d="M470,-326 L390,-1010 L518,-118 L626,-906 L430,-306 L738,-366 Z" stroke-width="0" fill="#4d543b" fill-opacity="0.5450980392156862" />
<path d="M234,-650 L654,-158 L110,-822 L98,-162 L494,-138 L970,-610 Z" stroke-width="0" fill="#4e0b00" fill-opacity="0.6274509803921569" />
<path d="M170,-138 L934,-1250 L554,-854 L530,-514 L810,-642 L870,-114 Z" stroke-width="0" fill="#151c08" fill-opacity="0.5529411764705883" />
<path d="M730,-422 L662,-422 L842,-1030 L854,-814 L226,-850 L738,-738 Z" stroke-width="0" fill="#687b1a" fill-opacity="0.00392156862745098" />
<path d="M578,-954 L454,-326 L342,-626 L426,-1186 L198,-1086 L402,-458 Z" stroke-width="0" fill="#671600" fill-opacity="0.4823529411764706" />
<path d="M170,-182 L514,-1134 L486,-494 L126,-1210 L822,-106 L774,-602 Z" stroke-width="0" fill="#0a0017" fill-opacity="0.3764705882352941" />
<path d="M122,-1002 L250,-638 L810,-894 L762,-306 L394,-462 L734,-162 Z" stroke-width="0" fill="#48e735" fill-opacity="0.0" />
<path d="M766,-158 L186,-614 L750,-502 L546,-502 L298,-310 L646,-1018 Z" stroke-width="0" fill="#047312" fill-opacity="0.027450980392156862" />
<path d="M806,-410 L466,-570 L234,-442 L870,-1130 L110,-350 L898,-522 Z" stroke-width="0" fill="#251c08" fill-opacity="0.39215686274509803" />
<path d="M198,-606 L362,-570 L134,-1002 L942,-158 L170,-1202 L450,-198 Z" stroke-width="0" fill="#1d1a07" fill-opacity="0.21568627450980393" />
<path d="M758,-678 L90,-518 L390,-594 L970,-514 L222,-518 L158,-354 Z" stroke-width="0" fill="#311616" fill-opacity="0.43529411764705883" />
<path d="M950,-930 L478,-554 L230,-390 L278,-538 L198,-582 L718,-842 Z" stroke-width="0" fill="#9e1328" fill-opacity="0.21568627450980393" />
<path d="M370,-210 L902,-182 L786,-86 L182,-1074 L394,-98 L282,-374 Z" stroke-width="0" fill="#842f08" fill-opacity="0.09803921568627451" />
<path d="M154,-818 L334,-534 L506,-594 L870,-166 L666,-918 L878,-1238 Z" stroke-width="0" fill="#b9983e" fill-opacity="0.25098039215686274" />
<path d="M414,-422 L178,-954 L750,-1050 L730,-262 L822,-134 L658,-170 Z" stroke-width="0" fill="#48000b" fill-opacity="0.1411764705882353" />
<path d="M410,-366 L846,-226 L134,-954 L934,-654 L510,-138 L362,-1022 Z" stroke-width="0" fill="#7b0e00" fill-opacity="0.0" />
<path d="M846,-490 L366,-822 L930,-1026 L834,-614 L882,-562 L130,-826 Z" stroke-width="0" fill="#d54929" fill-opacity="0.5019607843137255" />
<path d="M422,-926 L246,-406 L86,-1078 L210,-526 L630,-158 L562,-90 Z" stroke-width="0" fill="#697616" fill-opacity="0.050980392156862744" />
<path d="M850,-1186 L442,-178 L466,-494 L442,-910 L154,-126 L778,-726 Z" stroke-width="0" fill="#6b2817" fill-opacity="0.3058823529411765" />
<text x="448.0" y="0" font-size="70.0" fill="black" text-anchor="middle" transform="translate(0,17.5)">QUEEN OF WATER</text>
</svg>