<?xml version="1.0" encoding="UTF-8"?>
<svg xmlns="http://www.w3.org/2000/svg" xmlns:xlink="http://www.w3.org/1999/xlink"
     width="896" height="1496" viewBox="0 -1400 896 1496" style="font-size:70;font-family:Poor Richard, Times New Roman;stroke:black;stroke-width:1;fill:none">
<defs>
</defs>
<path d="M474,-498 L762,-994 L430,-110 L198,-1238 L354,-1194 L642,-458 Z" stroke-width="0" fill="#bba996" fill-opacity="0.23137254901960785" />
<path d="M698,-862 L230,-1250 L270,-82 L662,-194 L262,-430 L194,-198 Z" stroke-width="0" fill="#f6ffab" fill-opacity="0.023529411764705882" />
<path d="M262,-638 L226,-202 L598,-634 L338,-738 L550,-674 L138,-254 Z" stroke-width="0" fill="#161e6a" fill-opacity="0.9490196078431372" />
<path d="M322,-490 L670,-650 L478,-130 L246,-634 L374,-634 L546,-1122 Z" stroke-width="0" fill="#17961c" fill-opacity="0.00392156862745098" />
<path d="M722,-342 L502,-738 L774,-1274 L510,-514 L718,-258 L314,-478 Z" stroke-width="0" fill="#00000c" fill-opacity="0.19607843137254902" />
<path d="M490,-1042 L126,-194 L386,-1214 L318,-1306 L486,-674 L718,-402 Z" stroke-width="0" fill="#91e890" fill-opacity="0.3058823529411765" />
<path d="M514,-978 L474,-226 L610,-238 L458,-878 L154,-538 L142,-306 Z" stroke-width="0" fill="#b217bb" fill-opacity="0.7294117647058823" />
<path d="M514,-94 L134,-222 L786,-518 L170,-198 L314,-362 L458,-310 Z" stroke-width="0" fill="#f3e5f9" fill-opacity="0.10196078431372549" />
<path d="M466,-1230 L126,-554 L630,-890 L490,-166 L614,-1302 L198,-638 Z" stroke-width="0" fill="#8dbd6a" fill-opacity="0.23529411764705882" />
<path d="M282,-470 L270,-1038 L530,-150 L198,-82 L462,-286 L254,-198 Z" stroke-width="0" fill="#f0f8f7" fill-opacity="0.03137254901960784" />
<path d="M202,-366 L234,-1162 L426,-294 L390,-178 L810,-1206 L658,-294 Z" stroke-width="0" fill="#039349" fill-opacity="0.3215686274509804" />
<path d="M298,-910 L506,-502 L638,-182 L210,-758 L602,-1242 L602,-754 Z" stroke-width="0" fill="#e8dff6" fill-opacity="0.6549019607843137" />
<path d="M342,-234 L426,-486 L282,-650 L582,-770 L246,-718 L454,-470 Z" stroke-width="0" fill="#f19203" fill-opacity="0.8117647058823529" />
<path d="M606,-1290 L622,-430 L706,-142 L130,-902 L750,-622 L86,-202 Z" stroke-width="0" fill="#2692e0" fill-opacity="0.4117647058823529" />
<path d="M366,-358 L94,-990 L806,-930 L278,-474 L462,-506 L514,-98 Z" stroke-width="0" fill="#07e7cc" fill-opacity="0.06666666666666667" />
<path d="M738,-694 L326,-910 L646,-354 L522,-318 L250,-786 L310,-934 Z" stroke-width="0" fill="#f70069" fill-opacity="0.6509803921568628" />
<path d="M86,-550 L154,-94 L518,-734 L490,-478 L274,-438 L82,-474 Z" stroke-width="0" fill="#19092b" fill-opacity="0.7019607843137254" />
<path d="M194,-906 L458,-378 L402,-102 L610,-550 L434,-714 L630,-1226 Z" stroke-width="0" fill="#fcdfd7" fill-opacity="0.9529411764705882" />
<path d="M234,-714 L550,-954 L110,-1130 L298,-1030 L346,-986 L382,-498 Z" stroke-width="0" fill="#22721d" fill-opacity="0.03529411764705882" />
<path d="M718,-486 L430,-862 L330,-378 L694,-566 L442,-930 L482,-726 Z" stroke-width="0" fill="#260a46" fill-opacity="0.8941176470588236" />
<path d="M362,-1210 L82,-326 L338,-1106 L130,-106 L590,-206 L174,-758 Z" stroke-width="0" fill="#ecddf7" fill-opacity="0.611764705882353" />
<path d="M682,-318 L346,-1246 L314,-902 L730,-362 L618,-1166 L314,-406 Z" stroke-width="0" fill="#dbeae8" fill-opacity="0.6235294117647059" />
<path d="M314,-714 L210,-1210 L386,-742 L150,-106 L122,-594 L386,-894 Z" stroke-width="0" fill="#0541d9" fill-opacity="0.3254901960784314" />
<path d="M414,-906 L530,-534 L710,-1094 L370,-906 L218,-142 L658,-318 Z" stroke-width="0" fill="#1bacf5" fill-opacity="0.17254901960784313" />
<path d="M770,-1146 L262,-834 L662,-518 L82,-266 L586,-434 L434,-390 Z" stroke-width="0" fill="#ebd6e3" fill-opacity="0.3843137254901961" />
<path d="M214,-442 L118,-1230 L414,-254 L234,-1238 L754,-350 L406,-574 Z" stroke-width="0" fill="#70d6b4" fill-opacity="0.5019607843137255" />
<path d="M534,-246 L734,-1254 L450,-314 L222,-262 L414,-182 L722,-1190 Z" stroke-width="0" fill="#2a9b5b" fill-opacity="0.3058823529411765" />
<path d="M634,-870 L714,-94 L670,-1086 L446,-878 L666,-1070 L626,-802 Z" stroke-width="0" fill="#ceae6f" fill-opacity="0.06274509803921569" />
<path d="M642,-694 L182,-174 L690,-1246 L558,-970 L478,-458 L462,-726 Z" stroke-width="0" fill="#88e5e7" fill-opacity="0.3843137254901961" />
<path d="M246,-386 L114,-1166 L410,-646 L390,-638 L362,-702 L434,-446 Z" stroke-width="0" fill="#021390" fill-opacity="0.17647058823529413" />
<path d="M714,-330 L446,-1026 L414,-390 L714,-1054 L718,-438 L738,-566 Z" stroke-width="0" fill="#f7cf74" fill-opacity="0.47843137254901963" />
<path d="M106,-1014 L786,-1010 L702,-902 L98,-1282 L502,-830 L770,-1090 Z" stroke-width="0" fill="#b8f6c0" fill-opacity="0.5764705882352941" />
<path d="M706,-786 L598,-1118 L130,-858 L766,-410 L262,-722 L494,-330 Z" stroke-width="0" fill="#fbe2bb" fill-opacity="0.2823529411764706" />
<path d="M762,-690 L226,-574 L710,-266 L538,-154 L594,-746 L334,-118 Z" stroke-width="0" fill="#2e3c37" fill-opacity="0.44313725490196076" />
<path d="M546,-934 L518,-538 L558,-362 L238,-986 L702,-434 L250,-346 Z" stroke-width="0" fill="#cae9a7" fill-opacity="0.9764705882352941" />
<path d="M354,-538 L438,-102 L430,-106 L750,-110 L338,-1134 L374,-674 Z" stroke-width="0" fill="#e4e9fe" fill-opacity="0.08235294117647059" />
<path d="M622,-350 L666,-1254 L154,-618 L122,-282 L474,-398 L282,-1270 Z" stroke-width="0" fill="#1fe5ab" fill-opacity="0.1411764705882353" />
<path d="M370,-1154 L722,-790 L490,-450 L546,-538 L438,-1210 L478,-782 Z" stroke-width="0" fill="#45b6be" fill-opacity="0.2980392156862745" />
<path d="M258,-490 L98,-926 L614,-298 L714,-158 L614,-490 L94,-90 Z" stroke-width="0" fill="#d7eee4" fill-opacity="0.28627450980392155" />
<path d="M490,-802 L466,-846 L334,-566 L562,-466 L278,-646 L726,-818 Z" stroke-width="0" fill="#3c0e0f" fill-opacity="0.10980392156862745" />
<path d="M414,-906 L194,-142 L678,-490 L194,-278 L522,-162 L454,-510 Z" stroke-width="0" fill="#3c95a7" fill-opacity="0.8627450980392157" />
<path d="M358,-1290 L246,-474 L538,-1262 L718,-1218 L222,-674 L482,-1046 Z" stroke-width="0" fill="#27d6a2" fill-opacity="0.07450980392156863" />
<path d="M482,-1242 L570,-150 L602,-102 L574,-822 L594,-802 L258,-394 Z" stroke-width="0" fill="#fbf38e" fill-opacity="0.5607843137254902" />
<path d="M426,-942 L118,-762 L730,-106 L742,-1222 L618,-770 L266,-1006 Z" stroke-width="0" fill="#608798" fill-opacity="0.5019607843137255" />
<path d="M150,-634 L766,-270 L118,-314 L442,-606 L190,-254 L134,-162 Z" stroke-width="0" fill="#414570" fill-opacity="0.8980392156862745" />
<path d="M90,-1222 L246,-970 L426,-798 L122,-338 L202,-482 L446,-874 Z" stroke-width="0" fill="#1e8390" fill-opacity="0.41568627450980394" />
<path d="M538,-666 L506,-1026 L94,-362 L194,-954 L126,-678 L154,-622 Z" stroke-width="0" fill="#151752" fill-opacity="0.7137254901960784" />
<path d="M806,-1282 L718,-586 L362,-238 L506,-1142 L710,-142 L506,-514 Z" stroke-width="0" fill="#93acd6" fill-opacity="0.7137254901960784" />
<path d="M466,-898 L326,-482 L790,-490 L82,-430 L730,-394 L350,-334 Z" stroke-width="0" fill="#8c7a1c" fill-opacity="0.7411764705882353" />
<path d="M318,-770 L786,-562 L278,-418 L594,-262 L366,-1078 L726,-454 Z" stroke-width="0" fill="#231d3d" fill-opacity="0.8431372549019608" />
<path d="M354,-922 L82,-790 L410,-114 L198,-882 L534,-562 L602,-214 Z" stroke-width="0" fill="#3ea6a0" fill-opacity="0.35294117647058826" />
<path d="M142,-154 L594,-802 L138,-130 L174,-530 L138,-602 L702,-638 Z" stroke-width="0" fill="#000b15" fill-opacity="0.5019607843137255" />
<path d="M186,-394 L666,-622 L374,-158 L162,-802 L702,-706 L122,-422 Z" stroke-width="0" fill="#155476" fill-opacity="0.8941176470588236" />
<path d="M82,-706 L358,-494 L358,-394 L490,-914 L658,-442 L334,-674 Z" stroke-width="0" fill="#33f9e0" fill-opacity="0.5529411764705883" />
<path d="M434,-950 L326,-370 L526,-222 L306,-318 L130,-770 L230,-1134 Z" stroke-width="0" fill="#abd9d9" fill-opacity="0.5019607843137255" />
<path d="M194,-418 L282,-174 L454,-274 L546,-590 L274,-374 L794,-506 Z" stroke-width="0" fill="#01443a" fill-opacity="0.7607843137254902" />
<path d="M142,-674 L462,-266 L314,-650 L354,-962 L590,-782 L546,-610 Z" stroke-width="0" fill="#bbf9e2" fill-opacity="0.3568627450980392" />
<path d="M574,-346 L302,-986 L362,-94 L126,-802 L794,-830 L478,-866 Z" stroke-width="0" fill="#62f9cd" fill-opacity="0.3843137254901961" />
<path d="M250,-350 L86,-530 L114,-342 L426,-1098 L486,-730 L126,-222 Z" stroke-width="0" fill="#00184f" fill-opacity="0.5490196078431373" />
<path d="M166,-878 L546,-514 L94,-238 L198,-166 L210,-314 L114,-1110 Z" stroke-width="0" fill="#05328f" fill-opacity="0.4196078431372549" />
<path d="M626,-790 L386,-82 L418,-970 L370,-426 L614,-594 L542,-582 Z" stroke-width="0" fill="#b5627b" fill-opacity="0.0196078431372549" />
<path d="M554,-982 L550,-94 L446,-906 L474,-266 L90,-478 L590,-286 Z" stroke-width="0" fill="#7ef92c" fill-opacity="0.09803921568627451" />
<path d="M318,-490 L162,-1230 L782,-430 L130,-1090 L574,-354 L98,-378 Z" stroke-width="0" fill="#32d4be" fill-opacity="0.2235294117647059" />
<path d="M582,-498 L666,-1026 L502,-1114 L106,-306 L254,-94 L722,-442 Z" stroke-width="0" fill="#24f871" fill-opacity="0.11764705882352941" />
<path d="M222,-446 L730,-634 L230,-278 L290,-850 L470,-442 L466,-750 Z" stroke-width="0" fill="#070208" fill-opacity="0.8470588235294118" />
<path d="M522,-1006 L278,-418 L226,-314 L658,-222 L82,-1006 L326,-154 Z" stroke-width="0" fill="#1ced97" fill-opacity="0.14901960784313725" />
<path d="M486,-878 L386,-1190 L446,-598 L522,-162 L490,-882 L194,-1262 Z" stroke-width="0" fill="#83e7fa" fill-opacity="0.3764705882352941" />
<path d="M622,-506 L442,-934 L430,-582 L662,-398 L534,-922 L174,-442 Z" stroke-width="0" fill="#72e5b8" fill-opacity="0.8705882352941177" />
<path d="M146,-422 L542,-642 L418,-346 L306,-394 L122,-314 L422,-274 Z" stroke-width="0" fill="#400033" fill-opacity="0.23529411764705882" />
<path d="M246,-730 L518,-806 L322,-526 L362,-410 L294,-626 L550,-998 Z" stroke-width="0" fill="#f2ffeb" fill-opacity="0.20784313725490197" />
<path d="M402,-226 L110,-1070 L114,-650 L598,-1298 L114,-130 L546,-294 Z" stroke-width="0" fill="#71c5b7" fill-opacity="0.1568627450980392" />
<path d="M486,-1094 L774,-198 L482,-846 L586,-986 L306,-1202 L810,-314 Z" stroke-width="0" fill="#7bdfca" fill-opacity="0.7647058823529411" />
<path d="M166,-706 L522,-278 L338,-626 L578,-690 L302,-690 L662,-1282 Z" stroke-width="0" fill="#73dbd4" fill-opacity="0.1607843137254902" />
<path d="M622,-198 L606,-1042 L794,-974 L114,-1154 L326,-1290 L586,-1306 Z" stroke-width="0" fill="#539fb5" fill-opacity="0.4470588235294118" />
<path d="M626,-894 L258,-214 L202,-698 L346,-858 L338,-122 L274,-790 Z" stroke-width="0" fill="#4b6905" fill-opacity="0.03529411764705882" />
<path d="M274,-686 L698,-450 L154,-742 L582,-178 L270,-774 L654,-358 Z" stroke-width="0" fill="#23cb87" fill-opacity="0.6313725490196078" />
<path d="M694,-998 L590,-1222 L738,-254 L286,-114 L714,-554 L774,-158 Z" stroke-width="0" fill="#507bb1" fill-opacity="0.3843137254901961" />
<path d="M766,-1186 L178,-310 L578,-198 L126,-1026 L426,-174 L414,-774 Z" stroke-width="0" fill="#240210" fill-opacity="0.1411764705882353" />
<path d="M618,-130 L214,-894 L330,-1286 L214,-1274 L110,-766 L250,-158 Z" stroke-width="0" fill="#a7dcd0" fill-opacity="0.5019607843137255" />
<path d="M626,-558 L98,-274 L618,-914 L598,-718 L558,-198 L406,-934 Z" stroke-width="0" fill="#ab3f2c" fill-opacity="0.25098039215686274" />
<path d="M562,-882 L314,-562 L494,-954 L298,-886 L334,-282 L582,-178 Z" stroke-width="0" fill="#2aeace" fill-opacity="0.6352941176470588" />
<path d="M114,-1062 L118,-118 L238,-258 L558,-614 L210,-554 L166,-674 Z" stroke-width="0" fill="#190c44" fill-opacity="0.32941176470588235" />
<path d="M566,-1166 L354,-754 L294,-902 L406,-194 L246,-970 L374,-1070 Z" stroke-width="0" fill="#87c0bb" fill-opacity="0.8274509803921568" />
<path d="M662,-470 L102,-670 L478,-362 L706,-1166 L630,-978 L638,-618 Z" stroke-width="0" fill="#00d8d6" fill-opacity="0.2823529411764706" />
<path d="M386,-434 L318,-1078 L270,-1082 L690,-814 L798,-522 L298,-914 Z" stroke-width="0" fill="#97b1d0" fill-opacity="0.7529411764705882" />
<path d="M422,-222 L706,-170 L742,-786 L218,-778 L570,-230 L562,-926 Z" stroke-width="0" fill="#42ccb6" fill-opacity="0.47058823529411764" />
<path d="M738,-714 L614,-162 L646,-866 L150,-974 L302,-450 L454,-962 Z" stroke-width="0" fill="#4dc4ba" fill-opacity="0.23921568627450981" />
<path d="M606,-142 L218,-294 L618,-394 L350,-750 L750,-594 L418,-842 Z" stroke-width="0" fill="#006876" fill-opacity="0.3215686274509804" />
<path d="M286,-170 L730,-1058 L566,-1210 L450,-342 L762,-278 L306,-542 Z" stroke-width="0" fill="#5eb1eb" fill-opacity="0.054901960784313725" />
<path d="M362,-978 L486,-634 L170,-550 L394,-698 L278,-830 L202,-878 Z" stroke-width="0" fill="#94ce1d" fill-opacity="0.18823529411764706" />
<path d="M678,-546 L722,-902 L610,-110 L642,-286 L470,-1010 L458,-754 Z" stroke-width="0" fill="#31bc8c" fill-opacity="0.09803921568627451" />
<path d="M434,-406 L550,-1294 L462,-702 L366,-678 L294,-870 L290,-318 Z" stroke-width="0" fill="#3ebd69" fill-opacity="0.47058823529411764" />
<path d="M274,-1054 L158,-178 L190,-470 L86,-910 L418,-474 L418,-386 Z" stroke-width="0" fill="#839ddd" fill-opacity="0.09019607843137255" />
<path d="M598,-746 L502,-574 L134,-490 L578,-1250 L406,-1122 L722,-534 Z" stroke-width="0" fill="#ff4642" fill-opacity="0.011764705882352941" />
<path d="M606,-1314 L334,-550 L118,-442 L86,-490 L546,-1226 L746,-866 Z" stroke-width="0" fill="#b0eda3" fill-opacity="0.09411764705882353" />
<path d="M550,-910 L258,-186 L454,-682 L610,-1290 L798,-278 L790,-1214 Z" stroke-width="0" fill="#0d8e9e" fill-opacity="0.2235294117647059" />
<path d="M118,-730 L526,-750 L126,-1138 L434,-226 L666,-714 L270,-82 Z" stroke-width="0" fill="#287170" fill-opacity="0.11764705882352941" />
<path d="M714,-198 L606,-906 L726,-934 L362,-674 L250,-1118 L766,-562 Z" stroke-width="0" fill="#5ae0f8" fill-opacity="0.40784313725490196" />
<path d="M806,-178 L178,-114 L762,-526 L370,-966 L318,-186 L538,-194 Z" stroke-width="0" fill="#bd72a3" fill-opacity="0.34901960784313724" />
<path d="M690,-1242 L278,-442 L718,-1050 L402,-1278 L206,-398 L254,-1138 Z" stroke-width="0" fill="#92a6d2" fill-opacity="0.5411764705882353" />
<text x="448.0" y="0" font-size="70.0" fill="black" text-anchor="middle" transform="translate(0,17.5)">5 OF WATER</text>
</svg>