<?xml version="1.0" encoding="UTF-8"?>
<svg xmlns="http://www.w3.org/2000/svg" xmlns:xlink="http://www.w3.org/1999/xlink"
     width="275" height="375" viewBox="0 -350 275 375">
<defs>
</defs>
<rect x="15" y="-335" width="245" height="320" stroke="black" stroke-width="4" fill="white" />
<path d="M166,-203 L63,-280 L99,-94 L153,-84 L128,-64 L243,-288 Z" stroke-width="0" fill="#fcf895" fill-opacity="0.23921568627450981" />
<path d="M196,-133 L100,-250 L173,-139 L136,-44 L89,-85 L31,-72 Z" stroke-width="0" fill="#4f7a94" fill-opacity="0.8941176470588236" />
<path d="M183,-212 L121,-239 L87,-159 L195,-72 L221,-43 L36,-283 Z" stroke-width="0" fill="#33100d" fill-opacity="0.6078431372549019" />
<path d="M133,-102 L77,-262 L187,-71 L225,-131 L44,-207 L83,-202 Z" stroke-width="0" fill="#5d226d" fill-opacity="0.00392156862745098" />
<path d="M69,-52 L46,-50 L109,-146 L177,-77 L208,-169 L204,-309 Z" stroke-width="0" fill="#f462ea" fill-opacity="0.4196078431372549" />
<path d="M158,-46 L180,-307 L199,-227 L194,-248 L207,-88 L65,-171 Z" stroke-width="0" fill="#34e49f" fill-opacity="0.10980392156862745" />
<path d="M152,-125 L144,-62 L189,-228 L96,-209 L137,-133 L39,-128 Z" stroke-width="0" fill="#3a0b80" fill-opacity="0.8196078431372549" />
<path d="M143,-100 L83,-187 L127,-138 L209,-190 L191,-216 L239,-126 Z" stroke-width="0" fill="#82714b" fill-opacity="0.9803921568627451" />
<path d="M116,-94 L167,-296 L38,-50 L128,-36 L114,-171 L208,-247 Z" stroke-width="0" fill="#00083c" fill-opacity="0.7529411764705882" />
<path d="M42,-31 L95,-201 L246,-258 L80,-176 L187,-249 L25,-225 Z" stroke-width="0" fill="#091a00" fill-opacity="0.7411764705882353" />
<path d="M91,-274 L218,-113 L64,-129 L169,-243 L197,-122 L209,-84 Z" stroke-width="0" fill="#26c4c0" fill-opacity="0.5058823529411764" />
<path d="M60,-273 L164,-186 L84,-226 L116,-165 L146,-154 L232,-264 Z" stroke-width="0" fill="#c3c0c8" fill-opacity="0.0392156862745098" />
<path d="M141,-314 L39,-272 L157,-322 L33,-276 L105,-242 L157,-89 Z" stroke-width="0" fill="#747f42" fill-opacity="0.5019607843137255" />
<path d="M76,-119 L66,-161 L27,-265 L68,-189 L160,-106 L91,-144 Z" stroke-width="0" fill="#e29a00" fill-opacity="0.36470588235294116" />
<path d="M222,-243 L200,-49 L92,-130 L104,-298 L66,-274 L60,-248 Z" stroke-width="0" fill="#02f5b8" fill-opacity="0.058823529411764705" />
<path d="M214,-258 L34,-126 L159,-261 L200,-108 L125,-117 L44,-132 Z" stroke-width="0" fill="#030069" fill-opacity="0.7372549019607844" />
<path d="M151,-262 L39,-268 L158,-93 L204,-130 L55,-83 L206,-185 Z" stroke-width="0" fill="#1a3608" fill-opacity="0.7490196078431373" />
<path d="M150,-144 L214,-71 L143,-242 L233,-144 L216,-307 L207,-310 Z" stroke-width="0" fill="#b89ebe" fill-opacity="0.5450980392156862" />
<path d="M164,-307 L107,-79 L103,-195 L52,-251 L217,-91 L229,-200 Z" stroke-width="0" fill="#edaef7" fill-opacity="0.050980392156862744" />
<path d="M83,-151 L25,-302 L92,-112 L75,-257 L125,-195 L83,-176 Z" stroke-width="0" fill="#1d0c4a" fill-opacity="0.6313725490196078" />
<path d="M159,-202 L210,-45 L245,-86 L247,-271 L235,-282 L90,-235 Z" stroke-width="0" fill="#bd3600" fill-opacity="0.25098039215686274" />
<path d="M51,-146 L34,-113 L110,-281 L120,-281 L101,-150 L186,-308 Z" stroke-width="0" fill="#0194c5" fill-opacity="0.09019607843137255" />
<path d="M76,-321 L158,-135 L245,-318 L191,-278 L164,-266 L205,-296 Z" stroke-width="0" fill="#a08470" fill-opacity="0.6627450980392157" />
<path d="M215,-317 L106,-35 L64,-246 L35,-135 L89,-240 L68,-255 Z" stroke-width="0" fill="#84adeb" fill-opacity="0.6470588235294118" />
<path d="M79,-294 L98,-187 L179,-257 L30,-138 L112,-155 L247,-62 Z" stroke-width="0" fill="#a3004e" fill-opacity="0.19607843137254902" />
<path d="M71,-169 L76,-156 L238,-199 L128,-202 L86,-45 L49,-138 Z" stroke-width="0" fill="#573f0b" fill-opacity="0.3176470588235294" />
<path d="M43,-121 L209,-315 L98,-37 L181,-52 L163,-256 L207,-272 Z" stroke-width="0" fill="#b3bdf9" fill-opacity="0.8980392156862745" />
<path d="M183,-197 L129,-136 L86,-46 L199,-193 L208,-131 L123,-204 Z" stroke-width="0" fill="#000004" fill-opacity="0.9803921568627451" />
<path d="M168,-26 L68,-267 L182,-217 L35,-105 L41,-256 L144,-274 Z" stroke-width="0" fill="#050523" fill-opacity="0.49411764705882355" />
<path d="M226,-133 L120,-182 L102,-198 L25,-139 L138,-59 L238,-255 Z" stroke-width="0" fill="#e30ce2" fill-opacity="0.23529411764705882" />
<path d="M41,-86 L27,-324 L56,-307 L145,-92 L119,-222 L59,-194 Z" stroke-width="0" fill="#090000" fill-opacity="0.5019607843137255" />
<path d="M213,-102 L240,-82 L68,-229 L248,-108 L132,-36 L124,-62 Z" stroke-width="0" fill="#dfde5c" fill-opacity="0.2627450980392157" />
<path d="M103,-169 L81,-99 L54,-85 L64,-131 L132,-255 L48,-132 Z" stroke-width="0" fill="#00014c" fill-opacity="0.8392156862745098" />
<path d="M212,-264 L129,-273 L232,-131 L213,-208 L100,-266 L87,-43 Z" stroke-width="0" fill="#408317" fill-opacity="0.2627450980392157" />
<path d="M31,-48 L246,-259 L63,-155 L140,-172 L27,-192 L118,-74 Z" stroke-width="0" fill="#da7c99" fill-opacity="0.19215686274509805" />
<path d="M247,-177 L55,-131 L244,-27 L78,-283 L72,-83 L65,-105 Z" stroke-width="0" fill="#d29e6a" fill-opacity="0.9411764705882353" />
<path d="M47,-77 L95,-172 L237,-76 L73,-76 L55,-138 L217,-132 Z" stroke-width="0" fill="#f2e0ed" fill-opacity="0.9215686274509803" />
<path d="M82,-135 L114,-315 L93,-205 L155,-152 L193,-133 L69,-301 Z" stroke-width="0" fill="#f3b37d" fill-opacity="0.03137254901960784" />
<path d="M227,-292 L184,-317 L184,-157 L121,-35 L55,-25 L245,-157 Z" stroke-width="0" fill="#f0d23a" fill-opacity="0.4196078431372549" />
<path d="M234,-121 L150,-130 L243,-323 L141,-176 L66,-276 L180,-236 Z" stroke-width="0" fill="#e6d1bb" fill-opacity="0.9529411764705882" />
<path d="M218,-243 L56,-33 L111,-75 L184,-176 L170,-225 L50,-134 Z" stroke-width="0" fill="#050348" fill-opacity="0.8862745098039215" />
<path d="M222,-247 L69,-269 L148,-215 L208,-198 L158,-181 L147,-162 Z" stroke-width="0" fill="#1d9503" fill-opacity="0.7568627450980392" />
<path d="M155,-116 L242,-161 L48,-226 L96,-64 L112,-110 L181,-321 Z" stroke-width="0" fill="#dba340" fill-opacity="0.12549019607843137" />
<path d="M191,-139 L242,-270 L103,-99 L162,-230 L38,-232 L38,-77 Z" stroke-width="0" fill="#2615ac" fill-opacity="0.16470588235294117" />
<path d="M116,-163 L216,-86 L91,-319 L172,-122 L29,-52 L162,-108 Z" stroke-width="0" fill="#a97b7d" fill-opacity="0.6823529411764706" />
<path d="M115,-226 L124,-313 L217,-229 L181,-322 L93,-270 L26,-48 Z" stroke-width="0" fill="#94a698" fill-opacity="0.6509803921568628" />
<path d="M143,-93 L220,-106 L220,-241 L30,-39 L51,-151 L130,-47 Z" stroke-width="0" fill="#445b65" fill-opacity="0.8745098039215686" />
<path d="M203,-59 L149,-121 L75,-232 L109,-317 L174,-232 L216,-228 Z" stroke-width="0" fill="#94819c" fill-opacity="0.49411764705882355" />
<path d="M46,-73 L175,-267 L44,-110 L243,-202 L213,-172 L84,-49 Z" stroke-width="0" fill="#1314a4" fill-opacity="0.15294117647058825" />
<path d="M178,-262 L73,-267 L191,-143 L60,-251 L25,-193 L65,-253 Z" stroke-width="0" fill="#aabe48" fill-opacity="0.4980392156862745" />
<path d="M136,-70 L186,-38 L96,-289 L120,-158 L154,-65 L231,-77 Z" stroke-width="0" fill="#054803" fill-opacity="0.29411764705882354" />
<path d="M38,-303 L131,-28 L111,-42 L214,-90 L206,-185 L231,-79 Z" stroke-width="0" fill="#585e00" fill-opacity="0.043137254901960784" />
<path d="M154,-148 L225,-64 L100,-264 L144,-205 L219,-106 L106,-233 Z" stroke-width="0" fill="#f487f3" fill-opacity="0.1568627450980392" />
<path d="M173,-51 L142,-49 L137,-85 L170,-195 L178,-121 L219,-107 Z" stroke-width="0" fill="#39769f" fill-opacity="0.33725490196078434" />
<path d="M28,-249 L33,-153 L119,-223 L164,-301 L90,-29 L199,-75 Z" stroke-width="0" fill="#936849" fill-opacity="0.8823529411764706" />
<path d="M201,-153 L116,-274 L205,-115 L117,-219 L35,-161 L204,-64 Z" stroke-width="0" fill="#000885" fill-opacity="0.33725490196078434" />
<path d="M162,-212 L134,-115 L82,-290 L108,-291 L193,-44 L215,-67 Z" stroke-width="0" fill="#967e50" fill-opacity="0.32941176470588235" />
<path d="M67,-99 L49,-274 L196,-31 L34,-203 L132,-47 L164,-251 Z" stroke-width="0" fill="#694e16" fill-opacity="0.4666666666666667" />
<path d="M132,-222 L124,-118 L71,-321 L54,-184 L164,-85 L206,-166 Z" stroke-width="0" fill="#69552b" fill-opacity="0.5019607843137255" />
<path d="M200,-240 L146,-274 L132,-163 L167,-219 L90,-49 L168,-97 Z" stroke-width="0" fill="#244a86" fill-opacity="0.5803921568627451" />
<path d="M34,-238 L225,-139 L39,-130 L226,-289 L235,-56 L25,-221 Z" stroke-width="0" fill="#e1d75c" fill-opacity="0.4470588235294118" />
<path d="M150,-57 L117,-180 L69,-263 L72,-291 L103,-189 L202,-223 Z" stroke-width="0" fill="#f39b29" fill-opacity="0.5215686274509804" />
<path d="M69,-297 L152,-72 L70,-254 L239,-150 L227,-82 L59,-192 Z" stroke-width="0" fill="#d33838" fill-opacity="0.1450980392156863" />
<path d="M86,-213 L185,-106 L234,-260 L230,-80 L31,-133 L141,-277 Z" stroke-width="0" fill="#ecb8a0" fill-opacity="0.1450980392156863" />
<path d="M92,-299 L131,-111 L102,-124 L60,-114 L99,-200 L64,-134 Z" stroke-width="0" fill="#393015" fill-opacity="0.4392156862745098" />
<path d="M103,-40 L103,-217 L186,-36 L140,-272 L94,-193 L95,-285 Z" stroke-width="0" fill="#908068" fill-opacity="0.6823529411764706" />
<path d="M149,-229 L96,-260 L239,-48 L39,-261 L137,-45 L163,-51 Z" stroke-width="0" fill="#95867a" fill-opacity="0.5215686274509804" />
<path d="M25,-219 L187,-198 L140,-240 L124,-67 L83,-276 L69,-165 Z" stroke-width="0" fill="#a46c50" fill-opacity="0.5686274509803921" />
<path d="M76,-80 L216,-289 L119,-288 L168,-75 L103,-174 L147,-202 Z" stroke-width="0" fill="#f9d2aa" fill-opacity="0.5137254901960784" />
<path d="M154,-316 L193,-191 L34,-38 L146,-166 L37,-240 L105,-184 Z" stroke-width="0" fill="#b18179" fill-opacity="0.35294117647058826" />
<path d="M104,-66 L61,-216 L149,-160 L197,-158 L225,-292 L226,-111 Z" stroke-width="0" fill="#f6a634" fill-opacity="0.11764705882352941" />
<path d="M195,-160 L68,-155 L116,-80 L164,-156 L221,-113 L83,-249 Z" stroke-width="0" fill="#2a2f21" fill-opacity="0.49411764705882355" />
<path d="M105,-191 L239,-30 L171,-199 L115,-295 L92,-42 L142,-260 Z" stroke-width="0" fill="#96b296" fill-opacity="0.10196078431372549" />
<path d="M140,-231 L90,-194 L161,-66 L84,-209 L91,-186 L39,-96 Z" stroke-width="0" fill="#043601" fill-opacity="0.9137254901960784" />
<path d="M164,-192 L59,-224 L135,-195 L198,-124 L32,-255 L92,-224 Z" stroke-width="0" fill="#6c2e0b" fill-opacity="0.615686274509804" />
<path d="M157,-198 L157,-244 L148,-96 L184,-144 L248,-196 L191,-260 Z" stroke-width="0" fill="#dde325" fill-opacity="0.3137254901960784" />
<path d="M37,-79 L167,-156 L33,-124 L44,-188 L92,-34 L84,-259 Z" stroke-width="0" fill="#001b2c" fill-opacity="0.42745098039215684" />
<path d="M69,-166 L139,-101 L115,-111 L140,-252 L167,-257 L166,-140 Z" stroke-width="0" fill="#751a5d" fill-opacity="0.2980392156862745" />
<path d="M89,-212 L190,-265 L91,-176 L210,-123 L235,-176 L148,-209 Z" stroke-width="0" fill="#fce413" fill-opacity="0.20392156862745098" />
<path d="M245,-297 L100,-34 L174,-25 L132,-49 L133,-167 L30,-52 Z" stroke-width="0" fill="#302a44" fill-opacity="0.6039215686274509" />
<path d="M170,-124 L127,-185 L134,-258 L82,-49 L98,-137 L42,-168 Z" stroke-width="0" fill="#01005d" fill-opacity="0.9333333333333333" />
<path d="M182,-166 L221,-26 L152,-190 L207,-298 L139,-148 L133,-194 Z" stroke-width="0" fill="#e1c58a" fill-opacity="0.7490196078431373" />
<path d="M89,-141 L109,-285 L168,-297 L127,-141 L231,-204 L227,-278 Z" stroke-width="0" fill="#d9c6af" fill-opacity="0.7058823529411765" />
<path d="M60,-297 L220,-32 L137,-65 L115,-132 L233,-158 L211,-36 Z" stroke-width="0" fill="#bcaec2" fill-opacity="0.3568627450980392" />
<path d="M136,-174 L87,-175 L26,-285 L224,-256 L224,-140 L199,-57 Z" stroke-width="0" fill="#ecc5d7" fill-opacity="0.5019607843137255" />
<path d="M92,-40 L198,-46 L173,-190 L54,-222 L201,-236 L223,-103 Z" stroke-width="0" fill="#f5a260" fill-opacity="0.23921568627450981" />
<path d="M61,-258 L229,-174 L164,-170 L192,-238 L166,-291 L195,-168 Z" stroke-width="0" fill="#ca9000" fill-opacity="0.1450980392156863" />
<path d="M76,-82 L196,-66 L181,-194 L36,-185 L72,-211 L50,-55 Z" stroke-width="0" fill="#6c37cd" fill-opacity="0.29411764705882354" />
<path d="M26,-83 L123,-116 L83,-172 L146,-126 L188,-183 L99,-41 Z" stroke-width="0" fill="#8d96e0" fill-opacity="0.6588235294117647" />
<path d="M230,-308 L187,-155 L39,-96 L181,-45 L135,-56 L108,-215 Z" stroke-width="0" fill="#ffd4a9" fill-opacity="0.38823529411764707" />
<path d="M123,-33 L32,-29 L122,-296 L216,-157 L199,-29 L61,-273 Z" stroke-width="0" fill="#74990f" fill-opacity="0.25098039215686274" />
<path d="M67,-213 L68,-228 L198,-314 L97,-108 L207,-150 L40,-160 Z" stroke-width="0" fill="#bf9a68" fill-opacity="0.27450980392156865" />
<path d="M167,-133 L120,-245 L135,-167 L105,-130 L48,-191 L165,-213 Z" stroke-width="0" fill="#ee8300" fill-opacity="0.33725490196078434" />
<path d="M89,-90 L153,-271 L53,-154 L114,-97 L88,-225 L26,-198 Z" stroke-width="0" fill="#a2220d" fill-opacity="0.023529411764705882" />
<path d="M38,-172 L214,-191 L168,-188 L149,-229 L55,-59 L39,-192 Z" stroke-width="0" fill="#6e22e4" fill-opacity="0.011764705882352941" />
<path d="M132,-210 L126,-218 L83,-27 L157,-55 L25,-34 L211,-73 Z" stroke-width="0" fill="#a498a1" fill-opacity="0.4588235294117647" />
<path d="M165,-314 L27,-136 L25,-83 L175,-102 L249,-267 L60,-139 Z" stroke-width="0" fill="#c29d3e" fill-opacity="0.2823529411764706" />
<path d="M88,-179 L105,-110 L72,-316 L49,-286 L172,-133 L72,-244 Z" stroke-width="0" fill="#5a7255" fill-opacity="0.3411764705882353" />
<path d="M126,-288 L32,-119 L205,-279 L238,-275 L86,-44 L134,-203 Z" stroke-width="0" fill="#d09023" fill-opacity="0.08627450980392157" />
<path d="M224,-27 L29,-149 L212,-103 L205,-240 L219,-34 L78,-321 Z" stroke-width="0" fill="#e2e8b3" fill-opacity="0.2980392156862745" />
<text x="137.5" y="12.5" font-size="20.0" fill="black" text-anchor="middle" transform="translate(0,5.0)">PAGE OF WATER</text>
</svg>