<?xml version="1.0" encoding="UTF-8"?>
<svg xmlns="http://www.w3.org/2000/svg" xmlns:xlink="http://www.w3.org/1999/xlink"
     width="896" height="1496" viewBox="0 -1400 896 1496" style="font-size:70;font-family:Poor Richard, Times New Roman;stroke:black;stroke-width:1;fill:none">
<defs>
</defs>
<path d="M274,-506 L966,-686 L834,-490 L814,-410 L462,-1238 L302,-482 Z" stroke-width="0" fill="#2c6c8d" fill-opacity="0.43137254901960786" />
<path d="M550,-254 L738,-278 L254,-594 L518,-170 L350,-886 L766,-738 Z" stroke-width="0" fill="#fbd1e6" fill-opacity="0.03137254901960784" />
<path d="M570,-190 L342,-818 L494,-726 L274,-326 L342,-698 L734,-390 Z" stroke-width="0" fill="#fdecf5" fill-opacity="0.10980392156862745" />
<path d="M318,-1182 L198,-206 L182,-1194 L406,-1110 L150,-1146 L794,-86 Z" stroke-width="0" fill="#f6f6fc" fill-opacity="0.788235294117647" />
<path d="M814,-506 L446,-1178 L222,-1114 L782,-730 L326,-498 L650,-106 Z" stroke-width="0" fill="#eeb7f6" fill-opacity="0.054901960784313725" />
<path d="M678,-954 L858,-1146 L570,-1050 L134,-242 L838,-910 L126,-1054 Z" stroke-width="0" fill="#2eb7fb" fill-opacity="0.09803921568627451" />
<path d="M374,-1182 L802,-1198 L902,-1086 L326,-1150 L126,-718 L910,-482 Z" stroke-width="0" fill="#7a7a22" fill-opacity="0.6274509803921569" />
<path d="M122,-482 L510,-562 L510,-630 L202,-654 L454,-138 L258,-1026 Z" stroke-width="0" fill="#f6f4fc" fill-opacity="0.23921568627450981" />
<path d="M270,-1222 L386,-374 L170,-134 L654,-106 L890,-638 L458,-846 Z" stroke-width="0" fill="#e6eeea" fill-opacity="0.047058823529411764" />
<path d="M278,-414 L298,-574 L226,-466 L950,-90 L710,-606 L310,-1038 Z" stroke-width="0" fill="#e60783" fill-opacity="0.027450980392156862" />
<path d="M502,-266 L518,-246 L918,-254 L190,-986 L94,-254 L722,-870 Z" stroke-width="0" fill="#e8f5de" fill-opacity="0.13333333333333333" />
<path d="M246,-890 L110,-806 L738,-794 L666,-842 L114,-714 L970,-126 Z" stroke-width="0" fill="#e3746d" fill-opacity="0.027450980392156862" />
<path d="M718,-966 L854,-382 L846,-698 L862,-902 L226,-746 L238,-1070 Z" stroke-width="0" fill="#7c65c8" fill-opacity="0.23137254901960785" />
<path d="M518,-1034 L490,-618 L378,-506 L454,-582 L578,-1106 L382,-766 Z" stroke-width="0" fill="#942964" fill-opacity="0.4235294117647059" />
<path d="M686,-222 L498,-366 L622,-966 L898,-294 L470,-722 L870,-110 Z" stroke-width="0" fill="#fec7eb" fill-opacity="0.06274509803921569" />
<path d="M270,-574 L454,-942 L934,-714 L594,-1150 L538,-962 L714,-790 Z" stroke-width="0" fill="#04b528" fill-opacity="0.07058823529411765" />
<path d="M122,-942 L954,-578 L886,-798 L878,-682 L978,-906 L270,-1134 Z" stroke-width="0" fill="#020900" fill-opacity="0.5254901960784314" />
<path d="M626,-238 L618,-394 L182,-422 L886,-858 L314,-266 L914,-366 Z" stroke-width="0" fill="#813cf0" fill-opacity="0.10196078431372549" />
<path d="M922,-130 L894,-1030 L750,-242 L326,-1042 L566,-622 L362,-422 Z" stroke-width="0" fill="#cebcfd" fill-opacity="0.043137254901960784" />
<path d="M578,-222 L894,-958 L118,-1274 L558,-1050 L550,-1054 L470,-890 Z" stroke-width="0" fill="#958d5d" fill-opacity="0.8627450980392157" />
<path d="M682,-494 L370,-974 L250,-1218 L818,-794 L234,-1078 L690,-662 Z" stroke-width="0" fill="#d7d4bd" fill-opacity="0.9803921568627451" />
<path d="M798,-698 L762,-462 L202,-330 L466,-854 L498,-638 L822,-386 Z" stroke-width="0" fill="#0d010a" fill-opacity="0.9647058823529412" />
<path d="M430,-734 L722,-418 L102,-538 L274,-1010 L778,-98 L778,-402 Z" stroke-width="0" fill="#fcb8f3" fill-opacity="0.03137254901960784" />
<path d="M106,-478 L522,-854 L358,-842 L842,-850 L466,-574 L234,-1210 Z" stroke-width="0" fill="#54680d" fill-opacity="0.2" />
<path d="M302,-922 L290,-1082 L582,-322 L366,-1154 L486,-670 L126,-182 Z" stroke-width="0" fill="#a66be9" fill-opacity="0.07450980392156863" />
<path d="M178,-538 L802,-538 L838,-578 L158,-1186 L542,-758 L970,-206 Z" stroke-width="0" fill="#f4e2da" fill-opacity="0.050980392156862744" />
<path d="M438,-562 L282,-534 L218,-1178 L126,-1242 L82,-970 L270,-414 Z" stroke-width="0" fill="#e1f000" fill-opacity="0.24313725490196078" />
<path d="M350,-830 L834,-682 L458,-406 L870,-1162 L358,-554 L650,-982 Z" stroke-width="0" fill="#958a26" fill-opacity="0.7607843137254902" />
<path d="M446,-738 L326,-258 L762,-1130 L514,-338 L842,-454 L722,-614 Z" stroke-width="0" fill="#000010" fill-opacity="0.3058823529411765" />
<path d="M382,-722 L946,-802 L782,-430 L386,-906 L662,-298 L246,-182 Z" stroke-width="0" fill="#3d97a1" fill-opacity="0.6705882352941176" />
<path d="M122,-1126 L334,-258 L478,-166 L98,-578 L406,-806 L842,-790 Z" stroke-width="0" fill="#e7cd59" fill-opacity="0.9882352941176471" />
<path d="M242,-398 L106,-1030 L390,-934 L334,-1202 L398,-826 L294,-278 Z" stroke-width="0" fill="#ebfe01" fill-opacity="0.2235294117647059" />
<path d="M366,-646 L578,-450 L626,-98 L870,-406 L282,-314 L134,-198 Z" stroke-width="0" fill="#f6d6f6" fill-opacity="0.3686274509803922" />
<path d="M326,-746 L178,-890 L306,-450 L310,-966 L230,-1010 L438,-910 Z" stroke-width="0" fill="#022f00" fill-opacity="0.33725490196078434" />
<path d="M150,-958 L182,-114 L438,-1274 L730,-678 L286,-1150 L922,-310 Z" stroke-width="0" fill="#1ba783" fill-opacity="0.00392156862745098" />
<path d="M798,-658 L730,-374 L614,-158 L962,-750 L354,-798 L726,-578 Z" stroke-width="0" fill="#3a6340" fill-opacity="0.3176470588235294" />
<path d="M918,-378 L702,-1254 L294,-490 L962,-166 L378,-286 L554,-322 Z" stroke-width="0" fill="#0206db" fill-opacity="0.1568627450980392" />
<path d="M262,-958 L490,-1138 L614,-542 L258,-538 L554,-974 L402,-458 Z" stroke-width="0" fill="#13130a" fill-opacity="0.9490196078431372" />
<path d="M746,-542 L914,-310 L894,-526 L206,-1170 L394,-502 L158,-962 Z" stroke-width="0" fill="#aa97b6" fill-opacity="0.23529411764705882" />
<path d="M398,-954 L442,-862 L806,-210 L502,-986 L114,-1210 L854,-154 Z" stroke-width="0" fill="#972d04" fill-opacity="0.49411764705882355" />
<path d="M134,-1194 L850,-370 L110,-238 L226,-870 L690,-570 L206,-1026 Z" stroke-width="0" fill="#c3efea" fill-opacity="0.23921568627450981" />
<path d="M310,-198 L710,-1082 L922,-174 L446,-250 L238,-570 L514,-690 Z" stroke-width="0" fill="#e4ded4" fill-opacity="0.03529411764705882" />
<path d="M718,-1222 L374,-270 L318,-738 L814,-494 L674,-110 L462,-654 Z" stroke-width="0" fill="#ebe3f4" fill-opacity="0.03529411764705882" />
<path d="M374,-1138 L262,-802 L494,-1266 L654,-414 L526,-946 L450,-178 Z" stroke-width="0" fill="#9e353f" fill-opacity="0.9490196078431372" />
<path d="M114,-902 L138,-818 L462,-598 L462,-558 L178,-1058 L86,-562 Z" stroke-width="0" fill="#dec6d3" fill-opacity="0.10588235294117647" />
<path d="M678,-326 L530,-982 L822,-350 L866,-230 L170,-1058 L578,-454 Z" stroke-width="0" fill="#f9fed9" fill-opacity="0.396078431372549" />
<path d="M790,-214 L342,-282 L950,-226 L962,-202 L678,-446 L106,-602 Z" stroke-width="0" fill="#e8faff" fill-opacity="0.9019607843137255" />
<path d="M578,-1110 L938,-378 L622,-650 L938,-1266 L626,-910 L110,-562 Z" stroke-width="0" fill="#431d3f" fill-opacity="0.6784313725490196" />
<path d="M82,-162 L922,-886 L970,-566 L614,-410 L478,-1258 L86,-1226 Z" stroke-width="0" fill="#71150b" fill-opacity="0.3058823529411765" />
<path d="M406,-358 L558,-1138 L866,-1230 L622,-806 L814,-910 L362,-466 Z" stroke-width="0" fill="#254149" fill-opacity="0.9333333333333333" />
<path d="M306,-1174 L882,-418 L598,-806 L642,-906 L722,-866 L882,-622 Z" stroke-width="0" fill="#f6cc69" fill-opacity="0.1411764705882353" />
<path d="M270,-1134 L122,-1210 L442,-922 L170,-402 L254,-778 L146,-638 Z" stroke-width="0" fill="#ee5141" fill-opacity="0.18823529411764706" />
<path d="M454,-94 L658,-858 L518,-1086 L414,-230 L210,-178 L834,-406 Z" stroke-width="0" fill="#eff8f9" fill-opacity="0.16862745098039217" />
<path d="M558,-110 L802,-258 L590,-674 L294,-82 L858,-722 L318,-202 Z" stroke-width="0" fill="#d4cbf9" fill-opacity="0.00392156862745098" />
<path d="M574,-882 L630,-518 L434,-130 L386,-782 L310,-770 L374,-246 Z" stroke-width="0" fill="#ebe6f8" fill-opacity="0.8117647058823529" />
<path d="M454,-790 L478,-682 L186,-778 L490,-722 L674,-554 L570,-334 Z" stroke-width="0" fill="#0a0204" fill-opacity="0.8549019607843137" />
<path d="M262,-1038 L842,-622 L398,-1082 L818,-1254 L446,-402 L298,-1006 Z" stroke-width="0" fill="#80515b" fill-opacity="0.7294117647058823" />
<path d="M238,-114 L578,-362 L498,-594 L662,-82 L614,-242 L550,-1258 Z" stroke-width="0" fill="#e9eaf0" fill-opacity="0.4549019607843137" />
<path d="M126,-598 L130,-902 L498,-474 L434,-618 L278,-630 L558,-582 Z" stroke-width="0" fill="#3c993e" fill-opacity="0.7058823529411765" />
<path d="M502,-1202 L230,-258 L114,-454 L214,-818 L542,-646 L494,-742 Z" stroke-width="0" fill="#ccd7ad" fill-opacity="0.20784313725490197" />
<path d="M318,-886 L86,-154 L358,-674 L494,-138 L286,-902 L930,-1278 Z" stroke-width="0" fill="#c0d4eb" fill-opacity="0.2784313725490196" />
<path d="M862,-1250 L186,-226 L790,-1022 L190,-958 L906,-166 L602,-266 Z" stroke-width="0" fill="#db0124" fill-opacity="0.13725490196078433" />
<path d="M454,-862 L186,-410 L726,-798 L262,-886 L262,-770 L618,-230 Z" stroke-width="0" fill="#fbd4bf" fill-opacity="0.9686274509803922" />
<path d="M262,-742 L310,-454 L606,-774 L150,-762 L866,-790 L450,-934 Z" stroke-width="0" fill="#dec8c5" fill-opacity="0.596078431372549" />
<path d="M662,-342 L410,-178 L146,-114 L306,-802 L762,-990 L622,-1238 Z" stroke-width="0" fill="#2cf5b2" fill-opacity="0.054901960784313725" />
<path d="M334,-774 L498,-86 L674,-90 L626,-102 L110,-218 L122,-1162 Z" stroke-width="0" fill="#fbcbf1" fill-opacity="0.5019607843137255" />
<path d="M322,-1054 L142,-614 L310,-1010 L314,-1146 L946,-554 L618,-450 Z" stroke-width="0" fill="#7a7067" fill-opacity="0.4666666666666667" />
<path d="M762,-1098 L702,-338 L82,-386 L514,-1098 L742,-470 L270,-742 Z" stroke-width="0" fill="#fd6f82" fill-opacity="0.08627450980392157" />
<path d="M290,-190 L106,-294 L890,-618 L742,-110 L870,-1102 L314,-1082 Z" stroke-width="0" fill="#899aa8" fill-opacity="0.2" />
<path d="M782,-498 L318,-662 L210,-118 L686,-190 L622,-350 L662,-1106 Z" stroke-width="0" fill="#c4c5f9" fill-opacity="0.1450980392156863" />
<path d="M394,-822 L214,-1162 L690,-1190 L154,-158 L718,-742 L474,-1258 Z" stroke-width="0" fill="#f89a75" fill-opacity="0.18823529411764706" />
<path d="M506,-838 L962,-1006 L474,-566 L158,-762 L830,-86 L458,-878 Z" stroke-width="0" fill="#d29bea" fill-opacity="0.1803921568627451" />
<path d="M522,-98 L406,-90 L950,-162 L318,-566 L690,-778 L130,-970 Z" stroke-width="0" fill="#cdfde8" fill-opacity="0.21568627450980393" />
<path d="M566,-1254 L94,-622 L242,-646 L366,-1026 L894,-238 L402,-446 Z" stroke-width="0" fill="#f89b9a" fill-opacity="0.16862745098039217" />
<path d="M442,-114 L198,-690 L298,-610 L782,-750 L678,-406 L938,-894 Z" stroke-width="0" fill="#7ad5f8" fill-opacity="0.00392156862745098" />
<path d="M934,-1098 L694,-506 L666,-574 L246,-250 L494,-862 L422,-870 Z" stroke-width="0" fill="#010004" fill-opacity="0.6078431372549019" />
<path d="M466,-334 L290,-1266 L322,-394 L586,-134 L566,-950 L942,-814 Z" stroke-width="0" fill="#f896b4" fill-opacity="0.03529411764705882" />
<path d="M322,-482 L338,-1022 L574,-1002 L710,-390 L550,-1226 L510,-1102 Z" stroke-width="0" fill="#e06f4f" fill-opacity="0.12156862745098039" />
<path d="M566,-206 L118,-326 L846,-770 L818,-1222 L82,-206 L94,-170 Z" stroke-width="0" fill="#ebd8b4" fill-opacity="0.2823529411764706" />
<path d="M302,-1062 L334,-694 L970,-678 L290,-270 L546,-578 L342,-930 Z" stroke-width="0" fill="#61478c" fill-opacity="0.18823529411764706" />
<path d="M942,-910 L458,-486 L242,-922 L682,-122 L798,-202 L582,-158 Z" stroke-width="0" fill="#2028af" fill-opacity="0.00784313725490196" />
<path d="M214,-1134 L386,-750 L898,-942 L326,-190 L414,-266 L650,-610 Z" stroke-width="0" fill="#e55ad1" fill-opacity="0.09411764705882353" />
<path d="M274,-1122 L298,-142 L622,-382 L510,-918 L662,-1118 L134,-1230 Z" stroke-width="0" fill="#f59245" fill-opacity="0.09019607843137255" />
<path d="M174,-558 L858,-806 L678,-1182 L350,-810 L646,-90 L458,-194 Z" stroke-width="0" fill="#e4d5f0" fill-opacity="0.03137254901960784" />
<path d="M170,-1194 L290,-974 L390,-958 L542,-210 L750,-422 L834,-178 Z" stroke-width="0" fill="#f00e5d" fill-opacity="0.023529411764705882" />
<path d="M394,-706 L546,-90 L782,-702 L398,-1246 L758,-430 L750,-482 Z" stroke-width="0" fill="#010a46" fill-opacity="0.11764705882352941" />
<path d="M146,-362 L898,-514 L298,-406 L850,-590 L346,-298 L142,-878 Z" stroke-width="0" fill="#befbf9" fill-opacity="0.011764705882352941" />
<path d="M898,-238 L502,-1078 L222,-534 L698,-1222 L330,-510 L286,-706 Z" stroke-width="0" fill="#1c096c" fill-opacity="0.23921568627450981" />
<path d="M614,-1262 L82,-358 L290,-482 L338,-918 L706,-930 L674,-866 Z" stroke-width="0" fill="#e18b7e" fill-opacity="0.5254901960784314" />
<path d="M490,-914 L962,-238 L510,-154 L806,-134 L742,-1190 L106,-270 Z" stroke-width="0" fill="#fafcde" fill-opacity="0.0784313725490196" />
<path d="M926,-618 L690,-122 L466,-418 L202,-206 L902,-1030 L514,-1158 Z" stroke-width="0" fill="#79754d" fill-opacity="0.2196078431372549" />
<path d="M830,-886 L518,-1122 L690,-138 L862,-198 L602,-586 L534,-854 Z" stroke-width="0" fill="#739e7e" fill-opacity="0.1568627450980392" />
<path d="M954,-254 L654,-282 L862,-326 L230,-810 L230,-1066 L346,-714 Z" stroke-width="0" fill="#bce09f" fill-opacity="0.027450980392156862" />
<path d="M794,-858 L318,-442 L226,-366 L526,-782 L786,-1270 L630,-374 Z" stroke-width="0" fill="#000244" fill-opacity="0.28627450980392155" />
<path d="M214,-890 L450,-262 L638,-398 L102,-450 L806,-886 L954,-650 Z" stroke-width="0" fill="#955789" fill-opacity="0.23137254901960785" />
<path d="M166,-126 L150,-170 L974,-254 L602,-986 L766,-838 L246,-1174 Z" stroke-width="0" fill="#dced71" fill-opacity="0.21176470588235294" />
<path d="M318,-942 L450,-854 L914,-1014 L778,-514 L170,-926 L926,-90 Z" stroke-width="0" fill="#140e14" fill-opacity="0.058823529411764705" />
<path d="M426,-294 L758,-374 L502,-726 L102,-1006 L134,-1086 L346,-342 Z" stroke-width="0" fill="#bd2268" fill-opacity="0.0" />
<path d="M146,-438 L534,-502 L346,-294 L454,-226 L814,-122 L478,-490 Z" stroke-width="0" fill="#fdf0cf" fill-opacity="0.6509803921568628" />
<path d="M182,-870 L234,-146 L466,-102 L302,-822 L298,-214 L150,-1238 Z" stroke-width="0" fill="#f0defb" fill-opacity="0.3137254901960784" />
<text x="448.0" y="0" font-size="70.0" fill="black" text-anchor="middle" transform="translate(0,17.5)">8 OF WATER</text>
</svg>