<?xml version="1.0" encoding="UTF-8"?>
<svg xmlns="http://www.w3.org/2000/svg" xmlns:xlink="http://www.w3.org/1999/xlink"
     width="896" height="1496" viewBox="0 -1400 896 1496" style="font-size:70;font-family:Poor Richard, Times New Roman;stroke:black;stroke-width:1;fill:none">
<defs>
</defs>
<path d="M702,-230 L778,-258 L150,-702 L530,-194 L410,-318 L194,-1114 Z" stroke-width="0" fill="#bafa26" fill-opacity="0.20392156862745098" />
<path d="M330,-462 L282,-474 L946,-1114 L250,-786 L258,-1274 L398,-1202 Z" stroke-width="0" fill="#00008b" fill-opacity="0.2980392156862745" />
<path d="M346,-778 L298,-270 L554,-442 L842,-306 L866,-342 L450,-226 Z" stroke-width="0" fill="#2fe638" fill-opacity="0.7607843137254902" />
<path d="M818,-482 L838,-930 L346,-338 L182,-1042 L634,-342 L246,-414 Z" stroke-width="0" fill="#346720" fill-opacity="0.7647058823529411" />
<path d="M318,-558 L850,-334 L278,-518 L958,-314 L338,-1274 L342,-342 Z" stroke-width="0" fill="#dd62fd" fill-opacity="0.5803921568627451" />
<path d="M98,-818 L146,-794 L406,-1058 L350,-146 L582,-670 L766,-578 Z" stroke-width="0" fill="#133902" fill-opacity="0.8784313725490196" />
<path d="M610,-1266 L322,-706 L106,-586 L686,-458 L514,-1006 L570,-990 Z" stroke-width="0" fill="#291f96" fill-opacity="0.47058823529411764" />
<path d="M790,-126 L758,-250 L322,-110 L422,-650 L310,-482 L498,-306 Z" stroke-width="0" fill="#260d00" fill-opacity="0.7647058823529411" />
<path d="M422,-182 L686,-590 L310,-862 L690,-854 L314,-618 L866,-1178 Z" stroke-width="0" fill="#592cd9" fill-opacity="0.20392156862745098" />
<path d="M422,-370 L802,-814 L162,-966 L438,-746 L598,-746 L450,-214 Z" stroke-width="0" fill="#0a2509" fill-opacity="0.8235294117647058" />
<path d="M270,-506 L102,-634 L702,-1198 L622,-722 L342,-170 L602,-490 Z" stroke-width="0" fill="#06f012" fill-opacity="0.43529411764705883" />
<path d="M346,-646 L146,-1218 L238,-1050 L166,-142 L842,-190 L94,-554 Z" stroke-width="0" fill="#54a09a" fill-opacity="0.4470588235294118" />
<path d="M402,-874 L490,-142 L894,-1058 L202,-590 L358,-754 L410,-910 Z" stroke-width="0" fill="#10e1fa" fill-opacity="0.011764705882352941" />
<path d="M754,-274 L282,-734 L550,-1006 L422,-482 L806,-1162 L506,-570 Z" stroke-width="0" fill="#151dfc" fill-opacity="0.2235294117647059" />
<path d="M862,-402 L738,-1214 L542,-454 L970,-398 L298,-874 L206,-402 Z" stroke-width="0" fill="#1446d4" fill-opacity="0.5411764705882353" />
<path d="M230,-814 L282,-882 L742,-334 L894,-1122 L850,-298 L130,-602 Z" stroke-width="0" fill="#c0f4ff" fill-opacity="0.21568627450980393" />
<path d="M302,-274 L590,-594 L858,-230 L362,-1002 L578,-590 L866,-662 Z" stroke-width="0" fill="#b433d7" fill-opacity="0.0392156862745098" />
<path d="M542,-270 L338,-1010 L142,-566 L290,-706 L774,-538 L254,-326 Z" stroke-width="0" fill="#08179b" fill-opacity="0.9882352941176471" />
<path d="M918,-370 L822,-710 L262,-1066 L222,-298 L242,-994 L946,-1162 Z" stroke-width="0" fill="#0038b2" fill-opacity="0.3058823529411765" />
<path d="M834,-1026 L558,-126 L770,-474 L826,-614 L174,-1062 L402,-1278 Z" stroke-width="0" fill="#0d1ea1" fill-opacity="0.4470588235294118" />
<path d="M154,-1142 L430,-418 L278,-1242 L194,-670 L874,-1198 L930,-334 Z" stroke-width="0" fill="#1c77d5" fill-opacity="0.20784313725490197" />
<path d="M242,-462 L930,-258 L974,-610 L638,-630 L674,-674 L482,-730 Z" stroke-width="0" fill="#010009" fill-opacity="0.8901960784313725" />
<path d="M130,-922 L914,-514 L782,-154 L590,-138 L714,-1018 L662,-954 Z" stroke-width="0" fill="#010000" fill-opacity="0.4" />
<path d="M506,-510 L362,-510 L554,-602 L690,-278 L386,-978 L214,-270 Z" stroke-width="0" fill="#8b087b" fill-opacity="0.1803921568627451" />
<path d="M862,-670 L970,-742 L462,-90 L238,-778 L606,-982 L214,-874 Z" stroke-width="0" fill="#383c2a" fill-opacity="0.9372549019607843" />
<path d="M86,-278 L542,-318 L966,-1166 L834,-346 L450,-914 L902,-214 Z" stroke-width="0" fill="#02483f" fill-opacity="0.4117647058823529" />
<path d="M482,-1234 L514,-170 L438,-1002 L750,-486 L742,-218 L938,-386 Z" stroke-width="0" fill="#7b63dc" fill-opacity="0.23137254901960785" />
<path d="M110,-1266 L478,-554 L386,-250 L174,-158 L886,-554 L626,-386 Z" stroke-width="0" fill="#1106a5" fill-opacity="0.40784313725490196" />
<path d="M522,-118 L834,-990 L86,-1202 L966,-130 L186,-534 L902,-1054 Z" stroke-width="0" fill="#0730c3" fill-opacity="0.4470588235294118" />
<path d="M538,-654 L166,-370 L198,-1266 L186,-234 L246,-170 L842,-710 Z" stroke-width="0" fill="#0005cf" fill-opacity="0.40784313725490196" />
<path d="M318,-186 L170,-1122 L238,-102 L774,-1026 L270,-410 L666,-654 Z" stroke-width="0" fill="#ae0001" fill-opacity="0.5882352941176471" />
<path d="M206,-982 L978,-770 L674,-1070 L434,-90 L710,-1046 L258,-770 Z" stroke-width="0" fill="#144600" fill-opacity="0.788235294117647" />
<path d="M654,-402 L818,-1174 L222,-382 L890,-1002 L810,-1254 L594,-1118 Z" stroke-width="0" fill="#6885fd" fill-opacity="0.2901960784313726" />
<path d="M766,-490 L550,-274 L226,-642 L174,-846 L218,-622 L626,-270 Z" stroke-width="0" fill="#be4354" fill-opacity="0.25882352941176473" />
<path d="M462,-1050 L434,-1266 L466,-894 L938,-178 L186,-890 L974,-398 Z" stroke-width="0" fill="#6d523e" fill-opacity="0.5019607843137255" />
<path d="M106,-1110 L446,-1098 L322,-1130 L494,-222 L926,-1246 L950,-930 Z" stroke-width="0" fill="#f57bf9" fill-opacity="0.4627450980392157" />
<path d="M458,-322 L130,-450 L522,-238 L422,-878 L926,-174 L230,-130 Z" stroke-width="0" fill="#ecca22" fill-opacity="0.12156862745098039" />
<path d="M726,-374 L266,-1262 L414,-610 L306,-382 L722,-538 L758,-474 Z" stroke-width="0" fill="#ac9ae7" fill-opacity="0.6666666666666666" />
<path d="M606,-142 L422,-502 L386,-470 L630,-466 L510,-466 L510,-1178 Z" stroke-width="0" fill="#8e9ae0" fill-opacity="0.9137254901960784" />
<path d="M646,-1134 L886,-286 L214,-990 L210,-582 L646,-1106 L494,-82 Z" stroke-width="0" fill="#1b0e2c" fill-opacity="0.611764705882353" />
<path d="M218,-194 L562,-358 L326,-918 L942,-226 L570,-402 L866,-958 Z" stroke-width="0" fill="#693c65" fill-opacity="0.9921568627450981" />
<path d="M830,-466 L794,-494 L858,-1034 L518,-298 L170,-250 L330,-1270 Z" stroke-width="0" fill="#bbe3e3" fill-opacity="0.6196078431372549" />
<path d="M278,-438 L194,-662 L114,-458 L90,-86 L518,-506 L282,-98 Z" stroke-width="0" fill="#080000" fill-opacity="0.8" />
<path d="M98,-522 L918,-950 L834,-498 L534,-1054 L102,-822 L166,-298 Z" stroke-width="0" fill="#001400" fill-opacity="0.7686274509803922" />
<path d="M750,-402 L434,-734 L598,-802 L638,-914 L466,-314 L82,-294 Z" stroke-width="0" fill="#260b0f" fill-opacity="0.9137254901960784" />
<path d="M310,-374 L86,-802 L114,-270 L146,-462 L334,-242 L410,-770 Z" stroke-width="0" fill="#001200" fill-opacity="0.8941176470588236" />
<path d="M630,-358 L578,-666 L206,-410 L274,-362 L138,-1058 L242,-618 Z" stroke-width="0" fill="#567e09" fill-opacity="0.6588235294117647" />
<path d="M706,-114 L98,-890 L650,-1162 L870,-750 L722,-254 L594,-330 Z" stroke-width="0" fill="#34460d" fill-opacity="0.8549019607843137" />
<path d="M350,-970 L458,-1118 L946,-962 L734,-850 L846,-794 L610,-1230 Z" stroke-width="0" fill="#898ff7" fill-opacity="0.996078431372549" />
<path d="M862,-726 L130,-814 L694,-406 L734,-510 L254,-626 L586,-658 Z" stroke-width="0" fill="#173002" fill-opacity="0.9921568627450981" />
<path d="M454,-598 L434,-130 L810,-622 L106,-838 L694,-242 L610,-246 Z" stroke-width="0" fill="#0a0200" fill-opacity="0.9137254901960784" />
<path d="M242,-306 L418,-398 L454,-438 L910,-106 L690,-1010 L426,-670 Z" stroke-width="0" fill="#6d1b2f" fill-opacity="0.6941176470588235" />
<path d="M254,-962 L378,-170 L938,-562 L682,-782 L122,-126 L918,-966 Z" stroke-width="0" fill="#0b1913" fill-opacity="0.4196078431372549" />
<path d="M270,-906 L398,-490 L674,-1150 L922,-962 L962,-810 L242,-582 Z" stroke-width="0" fill="#49977f" fill-opacity="0.9686274509803922" />
<path d="M682,-1266 L910,-598 L626,-738 L314,-474 L526,-802 L190,-310 Z" stroke-width="0" fill="#6b36d8" fill-opacity="0.5019607843137255" />
<path d="M750,-690 L178,-366 L414,-862 L582,-178 L890,-770 L746,-1066 Z" stroke-width="0" fill="#038221" fill-opacity="0.2627450980392157" />
<path d="M786,-1270 L238,-1146 L774,-1214 L186,-482 L470,-790 L398,-94 Z" stroke-width="0" fill="#728dcd" fill-opacity="0.6666666666666666" />
<path d="M566,-182 L98,-318 L186,-1090 L666,-590 L410,-342 L402,-914 Z" stroke-width="0" fill="#342a09" fill-opacity="0.8313725490196079" />
<path d="M322,-522 L262,-1186 L266,-1234 L82,-322 L686,-1082 L82,-114 Z" stroke-width="0" fill="#6d4539" fill-opacity="0.803921568627451" />
<path d="M126,-86 L382,-262 L654,-238 L598,-322 L390,-1034 L798,-578 Z" stroke-width="0" fill="#1a0000" fill-opacity="0.9490196078431372" />
<path d="M426,-754 L170,-1078 L190,-702 L534,-438 L362,-1002 L778,-850 Z" stroke-width="0" fill="#00d83d" fill-opacity="0.2784313725490196" />
<path d="M482,-602 L414,-438 L198,-854 L850,-1066 L914,-798 L438,-502 Z" stroke-width="0" fill="#99b1e1" fill-opacity="0.5333333333333333" />
<path d="M366,-322 L110,-1162 L774,-994 L822,-266 L114,-762 L674,-174 Z" stroke-width="0" fill="#c9dcd1" fill-opacity="0.9803921568627451" />
<path d="M178,-190 L770,-1262 L566,-138 L262,-1002 L186,-926 L430,-1110 Z" stroke-width="0" fill="#9770c4" fill-opacity="0.1411764705882353" />
<path d="M90,-158 L946,-1230 L846,-426 L950,-382 L586,-442 L402,-602 Z" stroke-width="0" fill="#1e527c" fill-opacity="0.00392156862745098" />
<path d="M418,-762 L102,-418 L194,-686 L826,-526 L478,-254 L202,-446 Z" stroke-width="0" fill="#192d1a" fill-opacity="0.7058823529411765" />
<path d="M198,-94 L130,-570 L562,-1230 L714,-1178 L978,-1150 L90,-294 Z" stroke-width="0" fill="#e8c7eb" fill-opacity="0.26666666666666666" />
<path d="M302,-302 L678,-498 L258,-94 L602,-506 L102,-306 L234,-626 Z" stroke-width="0" fill="#f95212" fill-opacity="0.25882352941176473" />
<path d="M158,-806 L678,-454 L174,-830 L770,-82 L234,-374 L730,-234 Z" stroke-width="0" fill="#322c00" fill-opacity="0.788235294117647" />
<path d="M626,-598 L546,-534 L786,-470 L814,-486 L646,-154 L426,-778 Z" stroke-width="0" fill="#55125a" fill-opacity="0.8901960784313725" />
<path d="M890,-86 L90,-630 L142,-1126 L646,-1058 L654,-978 L826,-206 Z" stroke-width="0" fill="#1118d6" fill-opacity="0.23921568627450981" />
<path d="M342,-1182 L286,-894 L298,-210 L414,-130 L910,-586 L510,-942 Z" stroke-width="0" fill="#c694dd" fill-opacity="0.18823529411764706" />
<path d="M574,-614 L318,-598 L550,-910 L882,-290 L590,-150 L354,-146 Z" stroke-width="0" fill="#1f0304" fill-opacity="0.5411764705882353" />
<path d="M202,-770 L434,-750 L130,-146 L646,-202 L570,-826 L722,-246 Z" stroke-width="0" fill="#7e3720" fill-opacity="0.7568627450980392" />
<path d="M342,-742 L762,-654 L598,-530 L794,-982 L210,-222 L162,-706 Z" stroke-width="0" fill="#0f2700" fill-opacity="0.1450980392156863" />
<path d="M522,-602 L666,-210 L146,-610 L754,-478 L554,-1058 L634,-822 Z" stroke-width="0" fill="#dac7a5" fill-opacity="0.5019607843137255" />
<path d="M174,-530 L930,-1074 L150,-122 L234,-930 L798,-414 L238,-94 Z" stroke-width="0" fill="#434616" fill-opacity="0.6901960784313725" />
<path d="M662,-506 L766,-878 L390,-782 L870,-122 L518,-746 L942,-974 Z" stroke-width="0" fill="#007238" fill-opacity="0.6470588235294118" />
<path d="M622,-630 L170,-834 L558,-398 L542,-802 L658,-114 L694,-290 Z" stroke-width="0" fill="#09161f" fill-opacity="0.5686274509803921" />
<path d="M110,-282 L758,-1050 L174,-802 L698,-366 L482,-518 L138,-1154 Z" stroke-width="0" fill="#012500" fill-opacity="0.13333333333333333" />
<path d="M450,-798 L530,-242 L802,-410 L298,-1202 L898,-310 L378,-478 Z" stroke-width="0" fill="#28070f" fill-opacity="0.08235294117647059" />
<path d="M782,-662 L670,-754 L286,-674 L242,-242 L118,-130 L614,-154 Z" stroke-width="0" fill="#4a1523" fill-opacity="0.5686274509803921" />
<path d="M318,-462 L438,-318 L386,-1238 L590,-518 L894,-102 L922,-958 Z" stroke-width="0" fill="#227714" fill-opacity="0.18823529411764706" />
<path d="M114,-610 L326,-250 L282,-950 L370,-454 L710,-786 L282,-118 Z" stroke-width="0" fill="#504c22" fill-opacity="0.6274509803921569" />
<path d="M886,-578 L250,-454 L334,-858 L758,-1198 L270,-126 L586,-106 Z" stroke-width="0" fill="#756000" fill-opacity="0.2549019607843137" />
<path d="M242,-854 L834,-1026 L190,-510 L650,-586 L850,-438 L86,-594 Z" stroke-width="0" fill="#082914" fill-opacity="0.6745098039215687" />
<path d="M442,-450 L538,-446 L966,-470 L314,-182 L426,-1006 L386,-570 Z" stroke-width="0" fill="#1a0000" fill-opacity="0.3686274509803922" />
<path d="M842,-910 L434,-1158 L558,-790 L386,-262 L90,-370 L758,-778 Z" stroke-width="0" fill="#708d6a" fill-opacity="0.38823529411764707" />
<path d="M614,-950 L282,-330 L338,-582 L546,-990 L230,-734 L442,-234 Z" stroke-width="0" fill="#3f5621" fill-opacity="0.10588235294117647" />
<path d="M330,-1202 L430,-406 L434,-434 L594,-1166 L590,-106 L966,-610 Z" stroke-width="0" fill="#2fa8cd" fill-opacity="0.00392156862745098" />
<path d="M430,-798 L314,-1078 L786,-394 L466,-798 L126,-254 L510,-378 Z" stroke-width="0" fill="#96141a" fill-opacity="0.050980392156862744" />
<path d="M166,-698 L154,-386 L438,-450 L706,-390 L186,-194 L634,-1274 Z" stroke-width="0" fill="#402022" fill-opacity="0.0392156862745098" />
<path d="M334,-1098 L538,-138 L318,-594 L266,-142 L310,-958 L902,-1050 Z" stroke-width="0" fill="#677fb0" fill-opacity="0.06274509803921569" />
<path d="M502,-598 L558,-478 L122,-698 L722,-110 L826,-950 L470,-1170 Z" stroke-width="0" fill="#b49e5f" fill-opacity="0.25098039215686274" />
<path d="M206,-170 L458,-930 L938,-1146 L174,-986 L690,-426 L866,-266 Z" stroke-width="0" fill="#d6bda8" fill-opacity="0.043137254901960784" />
<path d="M802,-254 L758,-234 L734,-1058 L630,-1178 L114,-790 L886,-770 Z" stroke-width="0" fill="#769f9a" fill-opacity="0.16470588235294117" />
<path d="M662,-690 L106,-594 L142,-894 L334,-438 L394,-746 L494,-466 Z" stroke-width="0" fill="#293d19" fill-opacity="0.12941176470588237" />
<path d="M550,-770 L174,-210 L678,-890 L766,-866 L598,-574 L602,-706 Z" stroke-width="0" fill="#558953" fill-opacity="0.20392156862745098" />
<path d="M534,-102 L954,-138 L934,-734 L910,-1030 L222,-406 L922,-522 Z" stroke-width="0" fill="#522800" fill-opacity="0.5019607843137255" />
<path d="M390,-1118 L350,-938 L486,-818 L350,-338 L798,-898 L826,-434 Z" stroke-width="0" fill="#8dd586" fill-opacity="0.1411764705882353" />
<text x="448.0" y="0" font-size="70.0" fill="black" text-anchor="middle" transform="translate(0,17.5)">4 OF WATER</text>
</svg>