<?xml version="1.0" encoding="UTF-8"?>
<svg xmlns="http://www.w3.org/2000/svg" xmlns:xlink="http://www.w3.org/1999/xlink"
     width="275" height="375" viewBox="0 -350 275 375">
<defs>
</defs>
<rect x="15" y="-335" width="245" height="320" stroke="black" stroke-width="4" fill="white" />
<path d="M40,-183 L161,-169 L248,-253 L186,-96 L152,-198 L55,-157 Z" stroke-width="0" fill="#0cb2c2" fill-opacity="0.4666666666666667" />
<path d="M41,-129 L104,-201 L39,-195 L25,-152 L168,-251 L160,-50 Z" stroke-width="0" fill="#08495f" fill-opacity="0.9019607843137255" />
<path d="M222,-146 L222,-289 L42,-211 L83,-264 L240,-246 L49,-143 Z" stroke-width="0" fill="#0ba3ea" fill-opacity="0.5019607843137255" />
<path d="M137,-185 L126,-261 L137,-157 L188,-81 L136,-34 L64,-60 Z" stroke-width="0" fill="#55d7f4" fill-opacity="0.35294117647058826" />
<path d="M132,-312 L132,-198 L177,-63 L71,-57 L215,-251 L47,-293 Z" stroke-width="0" fill="#00acad" fill-opacity="1.0" />
<path d="M174,-148 L212,-120 L90,-77 L243,-251 L180,-226 L99,-274 Z" stroke-width="0" fill="#00bae0" fill-opacity="0.5019607843137255" />
<path d="M220,-91 L131,-150 L185,-31 L26,-194 L234,-253 L217,-129 Z" stroke-width="0" fill="#031d05" fill-opacity="0.9450980392156862" />
<path d="M198,-166 L69,-192 L34,-179 L233,-194 L36,-161 L107,-102 Z" stroke-width="0" fill="#000861" fill-opacity="0.996078431372549" />
<path d="M246,-182 L132,-205 L173,-230 L134,-30 L222,-239 L235,-181 Z" stroke-width="0" fill="#000000" fill-opacity="0.7411764705882353" />
<path d="M57,-251 L159,-209 L72,-85 L209,-73 L218,-56 L125,-243 Z" stroke-width="0" fill="#1e4f84" fill-opacity="0.12941176470588237" />
<path d="M39,-144 L51,-272 L76,-203 L238,-28 L174,-148 L73,-222 Z" stroke-width="0" fill="#003baf" fill-opacity="0.9607843137254902" />
<path d="M145,-51 L221,-45 L248,-75 L66,-157 L224,-324 L49,-292 Z" stroke-width="0" fill="#0099cc" fill-opacity="0.8431372549019608" />
<path d="M83,-105 L239,-149 L170,-89 L49,-28 L212,-146 L31,-282 Z" stroke-width="0" fill="#00fdff" fill-opacity="0.7294117647058823" />
<path d="M167,-146 L234,-138 L144,-100 L141,-96 L115,-180 L120,-294 Z" stroke-width="0" fill="#062222" fill-opacity="0.9607843137254902" />
<path d="M188,-171 L120,-77 L67,-78 L83,-204 L49,-75 L140,-212 Z" stroke-width="0" fill="#00102b" fill-opacity="0.807843137254902" />
<path d="M29,-30 L162,-143 L127,-117 L230,-99 L62,-168 L195,-36 Z" stroke-width="0" fill="#004e74" fill-opacity="0.8" />
<path d="M94,-25 L33,-98 L118,-261 L174,-141 L173,-271 L180,-212 Z" stroke-width="0" fill="#057397" fill-opacity="0.8588235294117647" />
<path d="M45,-74 L94,-156 L138,-85 L222,-213 L213,-295 L208,-244 Z" stroke-width="0" fill="#008ea2" fill-opacity="0.23137254901960785" />
<path d="M212,-156 L150,-135 L129,-142 L45,-253 L154,-36 L93,-206 Z" stroke-width="0" fill="#4633f5" fill-opacity="0.592156862745098" />
<path d="M72,-214 L132,-200 L154,-114 L43,-257 L60,-199 L109,-104 Z" stroke-width="0" fill="#0acec9" fill-opacity="0.011764705882352941" />
<path d="M181,-34 L222,-266 L190,-52 L219,-84 L94,-57 L185,-248 Z" stroke-width="0" fill="#02915d" fill-opacity="0.40784313725490196" />
<path d="M158,-272 L146,-155 L121,-96 L121,-197 L52,-120 L146,-70 Z" stroke-width="0" fill="#a2f84a" fill-opacity="0.13725490196078433" />
<path d="M134,-104 L234,-161 L222,-68 L173,-186 L176,-59 L190,-67 Z" stroke-width="0" fill="#000300" fill-opacity="0.9058823529411765" />
<path d="M39,-85 L170,-99 L87,-152 L39,-305 L68,-201 L128,-259 Z" stroke-width="0" fill="#000017" fill-opacity="0.8431372549019608" />
<path d="M124,-141 L204,-309 L211,-203 L104,-110 L130,-36 L227,-91 Z" stroke-width="0" fill="#006de7" fill-opacity="0.796078431372549" />
<path d="M47,-215 L166,-121 L158,-297 L158,-193 L104,-117 L228,-165 Z" stroke-width="0" fill="#090d22" fill-opacity="0.9333333333333333" />
<path d="M161,-232 L172,-71 L114,-35 L186,-40 L200,-223 L154,-123 Z" stroke-width="0" fill="#418c92" fill-opacity="0.47058823529411764" />
<path d="M149,-170 L41,-282 L123,-162 L248,-66 L233,-66 L32,-276 Z" stroke-width="0" fill="#00001a" fill-opacity="0.9686274509803922" />
<path d="M179,-235 L200,-29 L180,-181 L185,-292 L249,-184 L192,-296 Z" stroke-width="0" fill="#0008c5" fill-opacity="0.30980392156862746" />
<path d="M203,-267 L140,-187 L32,-215 L171,-38 L206,-265 L113,-87 Z" stroke-width="0" fill="#366459" fill-opacity="0.23921568627450981" />
<path d="M201,-46 L205,-25 L218,-280 L167,-213 L94,-271 L216,-96 Z" stroke-width="0" fill="#000b06" fill-opacity="0.9764705882352941" />
<path d="M65,-226 L50,-170 L26,-237 L198,-95 L132,-252 L54,-158 Z" stroke-width="0" fill="#00b5a7" fill-opacity="0.5098039215686274" />
<path d="M215,-90 L215,-66 L69,-271 L122,-323 L205,-164 L198,-195 Z" stroke-width="0" fill="#00a5d4" fill-opacity="0.9490196078431372" />
<path d="M189,-52 L161,-111 L94,-85 L130,-73 L39,-210 L109,-313 Z" stroke-width="0" fill="#5879f6" fill-opacity="0.21568627450980393" />
<path d="M145,-183 L30,-210 L78,-212 L51,-318 L104,-70 L177,-34 Z" stroke-width="0" fill="#fadac5" fill-opacity="1.0" />
<path d="M130,-182 L147,-222 L27,-293 L147,-138 L115,-296 L35,-307 Z" stroke-width="0" fill="#00c0ff" fill-opacity="0.8549019607843137" />
<path d="M83,-128 L119,-253 L127,-187 L65,-63 L244,-255 L159,-306 Z" stroke-width="0" fill="#2ed7fc" fill-opacity="0.9529411764705882" />
<path d="M38,-243 L157,-181 L207,-192 L247,-192 L117,-99 L129,-264 Z" stroke-width="0" fill="#27d46a" fill-opacity="0.011764705882352941" />
<path d="M104,-271 L33,-252 L171,-164 L63,-88 L94,-87 L56,-253 Z" stroke-width="0" fill="#22f1f8" fill-opacity="0.9490196078431372" />
<path d="M126,-232 L79,-93 L79,-279 L195,-220 L72,-137 L163,-268 Z" stroke-width="0" fill="#31875e" fill-opacity="0.6901960784313725" />
<path d="M171,-96 L71,-309 L91,-252 L98,-187 L115,-256 L161,-26 Z" stroke-width="0" fill="#137298" fill-opacity="0.9058823529411765" />
<path d="M141,-164 L206,-232 L172,-28 L51,-213 L31,-322 L156,-252 Z" stroke-width="0" fill="#01e6c3" fill-opacity="0.7647058823529411" />
<path d="M178,-190 L158,-225 L99,-156 L113,-183 L64,-138 L87,-304 Z" stroke-width="0" fill="#9aed17" fill-opacity="0.027450980392156862" />
<path d="M239,-261 L230,-112 L100,-84 L77,-107 L215,-85 L95,-205 Z" stroke-width="0" fill="#e8dd28" fill-opacity="0.1411764705882353" />
<path d="M223,-163 L54,-277 L67,-255 L232,-44 L129,-168 L84,-137 Z" stroke-width="0" fill="#090500" fill-opacity="1.0" />
<path d="M203,-148 L116,-28 L97,-197 L142,-307 L53,-63 L195,-200 Z" stroke-width="0" fill="#78dbd7" fill-opacity="0.6392156862745098" />
<path d="M109,-96 L162,-298 L93,-127 L166,-146 L48,-294 L214,-223 Z" stroke-width="0" fill="#28bde7" fill-opacity="0.8666666666666667" />
<path d="M46,-157 L167,-30 L106,-88 L132,-93 L242,-146 L210,-291 Z" stroke-width="0" fill="#6638a2" fill-opacity="0.24705882352941178" />
<path d="M195,-207 L112,-157 L204,-138 L152,-268 L137,-234 L125,-122 Z" stroke-width="0" fill="#9eeae0" fill-opacity="0.47058823529411764" />
<path d="M110,-208 L67,-179 L170,-26 L151,-75 L114,-101 L98,-216 Z" stroke-width="0" fill="#f0e4df" fill-opacity="0.9176470588235294" />
<path d="M35,-223 L27,-316 L213,-147 L104,-318 L56,-228 L180,-294 Z" stroke-width="0" fill="#00659d" fill-opacity="0.6039215686274509" />
<path d="M45,-81 L211,-50 L151,-164 L128,-297 L92,-134 L101,-184 Z" stroke-width="0" fill="#a69f2c" fill-opacity="0.01568627450980392" />
<path d="M168,-182 L111,-222 L237,-145 L213,-141 L160,-92 L103,-195 Z" stroke-width="0" fill="#000000" fill-opacity="0.996078431372549" />
<path d="M152,-43 L170,-67 L149,-101 L225,-208 L184,-81 L243,-210 Z" stroke-width="0" fill="#010001" fill-opacity="0.07450980392156863" />
<path d="M207,-227 L103,-53 L127,-123 L59,-179 L150,-249 L116,-189 Z" stroke-width="0" fill="#f1bc7f" fill-opacity="0.4117647058823529" />
<path d="M92,-30 L26,-136 L101,-148 L63,-244 L75,-179 L52,-291 Z" stroke-width="0" fill="#000684" fill-opacity="0.803921568627451" />
<path d="M73,-68 L195,-97 L205,-92 L116,-147 L127,-277 L144,-143 Z" stroke-width="0" fill="#ebd16c" fill-opacity="0.8549019607843137" />
<path d="M67,-90 L160,-250 L59,-30 L37,-141 L197,-102 L36,-92 Z" stroke-width="0" fill="#000671" fill-opacity="0.7254901960784313" />
<path d="M81,-176 L102,-95 L53,-217 L103,-238 L74,-38 L37,-154 Z" stroke-width="0" fill="#003c18" fill-opacity="0.792156862745098" />
<path d="M130,-243 L88,-33 L40,-151 L73,-145 L229,-133 L59,-104 Z" stroke-width="0" fill="#006371" fill-opacity="0.6313725490196078" />
<path d="M96,-94 L121,-134 L137,-35 L85,-145 L92,-69 L56,-198 Z" stroke-width="0" fill="#e769a1" fill-opacity="0.1568627450980392" />
<path d="M164,-228 L238,-147 L144,-152 L172,-104 L29,-250 L181,-101 Z" stroke-width="0" fill="#110002" fill-opacity="0.8901960784313725" />
<path d="M156,-91 L70,-109 L37,-130 L249,-241 L57,-210 L156,-172 Z" stroke-width="0" fill="#e1dff3" fill-opacity="0.30196078431372547" />
<path d="M59,-301 L76,-47 L160,-278 L218,-250 L40,-319 L84,-94 Z" stroke-width="0" fill="#0599cd" fill-opacity="0.9568627450980393" />
<path d="M192,-31 L139,-272 L97,-68 L54,-65 L235,-134 L152,-238 Z" stroke-width="0" fill="#00a700" fill-opacity="0.5725490196078431" />
<path d="M35,-217 L115,-295 L92,-302 L64,-175 L39,-54 L174,-36 Z" stroke-width="0" fill="#0087aa" fill-opacity="0.5019607843137255" />
<path d="M106,-304 L55,-121 L229,-127 L81,-88 L232,-165 L53,-67 Z" stroke-width="0" fill="#d20a8d" fill-opacity="0.07058823529411765" />
<path d="M157,-44 L51,-275 L85,-156 L219,-248 L221,-180 L205,-279 Z" stroke-width="0" fill="#d7fbe1" fill-opacity="0.3686274509803922" />
<path d="M225,-27 L152,-74 L71,-113 L184,-210 L239,-48 L248,-43 Z" stroke-width="0" fill="#000000" fill-opacity="0.8588235294117647" />
<path d="M80,-291 L138,-82 L198,-315 L182,-37 L69,-203 L71,-53 Z" stroke-width="0" fill="#4ed8df" fill-opacity="0.5372549019607843" />
<path d="M236,-266 L234,-212 L68,-255 L139,-94 L164,-161 L175,-195 Z" stroke-width="0" fill="#d4e1d4" fill-opacity="0.7764705882352941" />
<path d="M161,-68 L83,-322 L36,-84 L197,-36 L161,-266 L190,-319 Z" stroke-width="0" fill="#204ad1" fill-opacity="0.2235294117647059" />
<path d="M221,-312 L122,-31 L71,-174 L243,-306 L102,-51 L194,-91 Z" stroke-width="0" fill="#43b6cf" fill-opacity="0.7254901960784313" />
<path d="M80,-322 L52,-138 L186,-243 L219,-60 L89,-38 L171,-64 Z" stroke-width="0" fill="#50c7e3" fill-opacity="0.054901960784313725" />
<path d="M152,-257 L217,-202 L174,-166 L34,-243 L78,-167 L195,-265 Z" stroke-width="0" fill="#9980f4" fill-opacity="0.36470588235294116" />
<path d="M66,-105 L85,-64 L29,-292 L126,-203 L93,-67 L246,-216 Z" stroke-width="0" fill="#004a86" fill-opacity="0.43529411764705883" />
<path d="M29,-133 L103,-36 L107,-185 L52,-229 L149,-154 L102,-181 Z" stroke-width="0" fill="#b76221" fill-opacity="0.22745098039215686" />
<path d="M89,-61 L72,-297 L57,-133 L147,-130 L87,-59 L130,-272 Z" stroke-width="0" fill="#025ca3" fill-opacity="0.792156862745098" />
<path d="M49,-27 L140,-140 L119,-172 L225,-92 L59,-173 L198,-82 Z" stroke-width="0" fill="#baaede" fill-opacity="0.15294117647058825" />
<path d="M89,-297 L138,-174 L43,-258 L184,-283 L80,-206 L238,-47 Z" stroke-width="0" fill="#1247f7" fill-opacity="0.3686274509803922" />
<path d="M247,-82 L74,-260 L101,-255 L157,-86 L145,-113 L236,-285 Z" stroke-width="0" fill="#000001" fill-opacity="0.6078431372549019" />
<path d="M169,-101 L226,-193 L33,-179 L48,-195 L228,-127 L146,-46 Z" stroke-width="0" fill="#dbc481" fill-opacity="0.09411764705882353" />
<path d="M155,-87 L210,-279 L138,-205 L164,-55 L185,-79 L105,-77 Z" stroke-width="0" fill="#b3fede" fill-opacity="0.5019607843137255" />
<path d="M232,-313 L189,-190 L249,-185 L127,-221 L83,-61 L166,-103 Z" stroke-width="0" fill="#f2f2ac" fill-opacity="0.26666666666666666" />
<path d="M127,-84 L56,-228 L165,-105 L79,-105 L234,-59 L33,-268 Z" stroke-width="0" fill="#20bfd1" fill-opacity="0.09803921568627451" />
<path d="M25,-172 L103,-131 L190,-113 L40,-228 L242,-33 L174,-169 Z" stroke-width="0" fill="#00132d" fill-opacity="0.023529411764705882" />
<path d="M46,-46 L106,-75 L238,-208 L229,-61 L140,-92 L230,-190 Z" stroke-width="0" fill="#000000" fill-opacity="0.7411764705882353" />
<path d="M88,-38 L86,-26 L147,-257 L64,-78 L157,-133 L41,-175 Z" stroke-width="0" fill="#b36bc6" fill-opacity="0.30196078431372547" />
<path d="M36,-72 L52,-316 L137,-186 L79,-66 L214,-97 L26,-261 Z" stroke-width="0" fill="#007ece" fill-opacity="0.9490196078431372" />
<path d="M170,-260 L32,-282 L112,-260 L99,-133 L121,-174 L154,-166 Z" stroke-width="0" fill="#c4c0a9" fill-opacity="0.13333333333333333" />
<path d="M35,-69 L171,-124 L99,-150 L105,-122 L226,-309 L61,-267 Z" stroke-width="0" fill="#2beac5" fill-opacity="0.5019607843137255" />
<path d="M132,-156 L54,-190 L180,-237 L212,-46 L43,-171 L157,-231 Z" stroke-width="0" fill="#dbe3dd" fill-opacity="0.5529411764705883" />
<path d="M161,-216 L106,-26 L39,-142 L171,-295 L87,-34 L117,-230 Z" stroke-width="0" fill="#7eb4eb" fill-opacity="0.6549019607843137" />
<path d="M119,-36 L141,-204 L241,-208 L229,-87 L34,-55 L192,-290 Z" stroke-width="0" fill="#ecd1f6" fill-opacity="0.10196078431372549" />
<path d="M129,-141 L197,-89 L248,-222 L140,-323 L98,-84 L101,-220 Z" stroke-width="0" fill="#a7c6e5" fill-opacity="0.058823529411764705" />
<path d="M177,-148 L52,-309 L138,-201 L83,-269 L169,-66 L137,-173 Z" stroke-width="0" fill="#d8c259" fill-opacity="0.03137254901960784" />
<path d="M226,-128 L27,-129 L151,-58 L27,-120 L171,-117 L226,-149 Z" stroke-width="0" fill="#f9edcc" fill-opacity="0.13725490196078433" />
<path d="M68,-127 L59,-272 L150,-62 L69,-141 L245,-132 L125,-171 Z" stroke-width="0" fill="#f2ddbc" fill-opacity="0.12941176470588237" />
<path d="M141,-130 L45,-99 L108,-74 L231,-174 L179,-95 L64,-41 Z" stroke-width="0" fill="#cebaff" fill-opacity="0.3058823529411765" />
<path d="M192,-100 L82,-134 L247,-315 L92,-123 L201,-117 L177,-149 Z" stroke-width="0" fill="#d6bdf4" fill-opacity="0.2196078431372549" />
<text x="137.5" y="12.5" font-size="20.0" fill="black" text-anchor="middle" transform="translate(0,5.0)">7 OF WATER</text>
</svg>