<?xml version="1.0" encoding="UTF-8"?>
<svg xmlns="http://www.w3.org/2000/svg" xmlns:xlink="http://www.w3.org/1999/xlink"
     width="896" height="1496" viewBox="0 -1400 896 1496" style="font-size:70;font-family:Poor Richard, Times New Roman;stroke:black;stroke-width:1;fill:none">
<defs>
</defs>
<path d="M594,-750 L806,-954 L102,-570 L206,-1034 L470,-906 L526,-650 Z" stroke-width="0" fill="#e8f2f5" fill-opacity="0.03529411764705882" />
<path d="M466,-1158 L506,-186 L778,-594 L866,-494 L302,-874 L182,-814 Z" stroke-width="0" fill="#ece1ff" fill-opacity="0.01568627450980392" />
<path d="M734,-250 L118,-1254 L606,-822 L878,-1270 L322,-206 L742,-466 Z" stroke-width="0" fill="#f8fff5" fill-opacity="0.043137254901960784" />
<path d="M474,-690 L626,-246 L538,-1062 L934,-202 L310,-314 L498,-718 Z" stroke-width="0" fill="#cabb94" fill-opacity="0.00392156862745098" />
<path d="M170,-82 L462,-470 L206,-1014 L446,-910 L354,-934 L414,-250 Z" stroke-width="0" fill="#f8fef5" fill-opacity="0.054901960784313725" />
<path d="M818,-186 L958,-1070 L930,-658 L314,-1118 L398,-506 L206,-670 Z" stroke-width="0" fill="#eef2f5" fill-opacity="0.1607843137254902" />
<path d="M106,-946 L442,-438 L642,-1050 L134,-674 L226,-538 L214,-386 Z" stroke-width="0" fill="#23a25b" fill-opacity="0.0" />
<path d="M810,-734 L234,-234 L782,-130 L794,-950 L838,-1094 L206,-1070 Z" stroke-width="0" fill="#f9c9e1" fill-opacity="0.00392156862745098" />
<path d="M574,-634 L202,-790 L870,-902 L658,-686 L534,-618 L962,-434 Z" stroke-width="0" fill="#e79fd3" fill-opacity="0.08235294117647059" />
<path d="M434,-1018 L870,-302 L234,-678 L802,-282 L722,-606 L198,-526 Z" stroke-width="0" fill="#d6eee9" fill-opacity="0.06666666666666667" />
<path d="M782,-730 L798,-746 L342,-982 L142,-998 L574,-426 L178,-226 Z" stroke-width="0" fill="#e6f7ea" fill-opacity="0.10588235294117647" />
<path d="M678,-218 L138,-1138 L110,-310 L318,-806 L254,-814 L710,-406 Z" stroke-width="0" fill="#d6f7ed" fill-opacity="0.13725490196078433" />
<path d="M410,-234 L594,-90 L86,-870 L866,-874 L242,-258 L582,-1014 Z" stroke-width="0" fill="#eaf7ea" fill-opacity="0.30196078431372547" />
<path d="M510,-1158 L186,-478 L854,-342 L450,-1206 L522,-422 L606,-574 Z" stroke-width="0" fill="#af4908" fill-opacity="0.49411764705882355" />
<path d="M166,-502 L582,-750 L318,-498 L382,-966 L538,-258 L94,-686 Z" stroke-width="0" fill="#b5eee0" fill-opacity="0.011764705882352941" />
<path d="M502,-670 L830,-602 L246,-698 L362,-118 L750,-222 L722,-586 Z" stroke-width="0" fill="#d15b02" fill-opacity="0.8" />
<path d="M258,-1138 L754,-438 L270,-1174 L442,-762 L774,-198 L170,-634 Z" stroke-width="0" fill="#e2e7cb" fill-opacity="0.00784313725490196" />
<path d="M122,-1010 L946,-1094 L250,-266 L386,-754 L518,-158 L190,-610 Z" stroke-width="0" fill="#ece8e8" fill-opacity="0.027450980392156862" />
<path d="M638,-966 L634,-618 L450,-222 L314,-678 L582,-782 L686,-134 Z" stroke-width="0" fill="#480502" fill-opacity="0.9254901960784314" />
<path d="M194,-1274 L534,-650 L734,-426 L106,-678 L606,-866 L734,-1242 Z" stroke-width="0" fill="#fde0fb" fill-opacity="0.03137254901960784" />
<path d="M978,-1002 L150,-494 L478,-130 L902,-182 L242,-374 L298,-1106 Z" stroke-width="0" fill="#d9ba79" fill-opacity="0.0" />
<path d="M950,-342 L206,-90 L126,-878 L186,-1126 L82,-674 L650,-658 Z" stroke-width="0" fill="#f7faf7" fill-opacity="0.03529411764705882" />
<path d="M378,-278 L498,-754 L102,-378 L226,-102 L154,-638 L142,-378 Z" stroke-width="0" fill="#fbe8eb" fill-opacity="0.023529411764705882" />
<path d="M186,-722 L678,-750 L930,-190 L526,-646 L214,-446 L830,-262 Z" stroke-width="0" fill="#f7f9e6" fill-opacity="0.09803921568627451" />
<path d="M290,-434 L226,-354 L110,-1026 L142,-170 L654,-1238 L298,-1234 Z" stroke-width="0" fill="#fffcfe" fill-opacity="0.4980392156862745" />
<path d="M698,-990 L278,-186 L138,-438 L946,-798 L970,-590 L738,-386 Z" stroke-width="0" fill="#210900" fill-opacity="0.6274509803921569" />
<path d="M598,-346 L486,-158 L182,-482 L562,-1154 L290,-698 L138,-886 Z" stroke-width="0" fill="#fbf7c5" fill-opacity="0.9450980392156862" />
<path d="M846,-150 L522,-486 L954,-666 L874,-266 L438,-390 L242,-1202 Z" stroke-width="0" fill="#fefda6" fill-opacity="0.0784313725490196" />
<path d="M182,-190 L410,-862 L130,-546 L422,-682 L602,-714 L394,-478 Z" stroke-width="0" fill="#efecd2" fill-opacity="0.01568627450980392" />
<path d="M406,-894 L946,-310 L926,-1022 L554,-322 L254,-454 L134,-550 Z" stroke-width="0" fill="#fdcfcf" fill-opacity="0.03137254901960784" />
<path d="M546,-702 L238,-1094 L458,-726 L194,-310 L110,-850 L702,-358 Z" stroke-width="0" fill="#f5fea1" fill-opacity="0.043137254901960784" />
<path d="M902,-86 L450,-202 L222,-970 L406,-170 L366,-110 L510,-198 Z" stroke-width="0" fill="#66009f" fill-opacity="0.0" />
<path d="M226,-406 L146,-250 L794,-1098 L810,-402 L234,-330 L434,-894 Z" stroke-width="0" fill="#c0f1e3" fill-opacity="0.17647058823529413" />
<path d="M942,-110 L702,-390 L450,-898 L226,-794 L150,-1234 L394,-582 Z" stroke-width="0" fill="#d1eafe" fill-opacity="0.00784313725490196" />
<path d="M806,-1258 L458,-250 L246,-1126 L442,-910 L786,-674 L446,-286 Z" stroke-width="0" fill="#fcf2da" fill-opacity="0.054901960784313725" />
<path d="M862,-90 L146,-834 L962,-714 L194,-458 L726,-614 L910,-1214 Z" stroke-width="0" fill="#e1fdf9" fill-opacity="0.047058823529411764" />
<path d="M86,-294 L278,-510 L486,-90 L118,-1130 L826,-682 L726,-94 Z" stroke-width="0" fill="#9e18dd" fill-opacity="0.0" />
<path d="M662,-1238 L222,-414 L418,-1062 L838,-646 L870,-178 L526,-734 Z" stroke-width="0" fill="#fcfdcb" fill-opacity="0.043137254901960784" />
<path d="M834,-354 L142,-262 L510,-538 L558,-850 L622,-366 L410,-502 Z" stroke-width="0" fill="#fafedd" fill-opacity="0.9803921568627451" />
<path d="M222,-934 L622,-658 L594,-518 L718,-698 L394,-490 L578,-898 Z" stroke-width="0" fill="#240d03" fill-opacity="0.8117647058823529" />
<path d="M166,-906 L842,-814 L774,-1034 L602,-266 L902,-1162 L474,-598 Z" stroke-width="0" fill="#d1f4fb" fill-opacity="0.11372549019607843" />
<path d="M102,-282 L974,-330 L862,-118 L614,-258 L558,-902 L310,-1138 Z" stroke-width="0" fill="#f2d4fd" fill-opacity="0.027450980392156862" />
<path d="M254,-466 L674,-1110 L94,-1234 L802,-358 L198,-1106 L318,-354 Z" stroke-width="0" fill="#8eebfb" fill-opacity="0.0196078431372549" />
<path d="M702,-190 L522,-770 L814,-866 L818,-170 L918,-750 L306,-218 Z" stroke-width="0" fill="#ffff54" fill-opacity="0.10980392156862745" />
<path d="M230,-190 L346,-1006 L570,-118 L734,-370 L934,-690 L610,-990 Z" stroke-width="0" fill="#e2bd05" fill-opacity="0.17647058823529413" />
<path d="M434,-150 L950,-890 L310,-678 L626,-918 L890,-478 L290,-218 Z" stroke-width="0" fill="#900901" fill-opacity="0.43529411764705883" />
<path d="M162,-610 L910,-374 L542,-914 L266,-494 L106,-798 L542,-154 Z" stroke-width="0" fill="#f7fded" fill-opacity="0.10588235294117647" />
<path d="M426,-922 L590,-622 L138,-458 L450,-942 L962,-846 L174,-318 Z" stroke-width="0" fill="#24060b" fill-opacity="0.11764705882352941" />
<path d="M418,-546 L814,-586 L674,-894 L806,-922 L214,-1278 L342,-1182 Z" stroke-width="0" fill="#e6b4dd" fill-opacity="0.12156862745098039" />
<path d="M622,-1242 L362,-138 L554,-354 L846,-1190 L546,-586 L226,-582 Z" stroke-width="0" fill="#7de299" fill-opacity="0.0" />
<path d="M886,-658 L186,-1194 L110,-718 L326,-738 L910,-978 L858,-86 Z" stroke-width="0" fill="#dfe1ff" fill-opacity="0.058823529411764705" />
<path d="M706,-518 L894,-270 L166,-486 L322,-262 L142,-614 L810,-374 Z" stroke-width="0" fill="#f9fffe" fill-opacity="0.6980392156862745" />
<path d="M178,-678 L938,-574 L706,-282 L774,-946 L590,-122 L166,-426 Z" stroke-width="0" fill="#feeaf0" fill-opacity="0.9529411764705882" />
<path d="M506,-498 L462,-494 L494,-366 L838,-346 L978,-102 L314,-242 Z" stroke-width="0" fill="#76c115" fill-opacity="0.0" />
<path d="M242,-1066 L506,-354 L930,-1142 L834,-534 L450,-418 L258,-726 Z" stroke-width="0" fill="#cde7e3" fill-opacity="0.06666666666666667" />
<path d="M842,-350 L670,-782 L398,-1078 L190,-278 L318,-938 L114,-458 Z" stroke-width="0" fill="#fbd6f4" fill-opacity="0.1411764705882353" />
<path d="M562,-642 L694,-1166 L794,-1274 L278,-166 L134,-114 L382,-450 Z" stroke-width="0" fill="#b6f8fc" fill-opacity="0.10980392156862745" />
<path d="M218,-1090 L262,-274 L638,-158 L686,-878 L186,-790 L178,-962 Z" stroke-width="0" fill="#edf9e2" fill-opacity="0.027450980392156862" />
<path d="M450,-82 L454,-314 L478,-850 L454,-1038 L310,-306 L414,-534 Z" stroke-width="0" fill="#000000" fill-opacity="0.8705882352941177" />
<path d="M386,-94 L714,-1230 L614,-826 L238,-694 L894,-574 L142,-1002 Z" stroke-width="0" fill="#eeffff" fill-opacity="0.8941176470588236" />
<path d="M554,-834 L774,-638 L314,-846 L178,-938 L838,-1202 L214,-670 Z" stroke-width="0" fill="#f7d3fd" fill-opacity="0.043137254901960784" />
<path d="M242,-426 L918,-358 L438,-890 L386,-154 L826,-706 L178,-714 Z" stroke-width="0" fill="#f14600" fill-opacity="0.8941176470588236" />
<path d="M666,-658 L806,-942 L590,-1246 L266,-366 L786,-814 L126,-758 Z" stroke-width="0" fill="#a85f00" fill-opacity="0.796078431372549" />
<path d="M550,-934 L466,-438 L170,-450 L770,-118 L686,-1234 L454,-938 Z" stroke-width="0" fill="#f2f6fe" fill-opacity="0.043137254901960784" />
<path d="M166,-490 L782,-154 L570,-866 L286,-682 L310,-586 L274,-178 Z" stroke-width="0" fill="#b8e0dc" fill-opacity="0.01568627450980392" />
<path d="M250,-1082 L170,-886 L966,-282 L198,-158 L458,-138 L802,-626 Z" stroke-width="0" fill="#fbbbf2" fill-opacity="0.11764705882352941" />
<path d="M558,-306 L802,-122 L94,-202 L946,-590 L130,-606 L862,-178 Z" stroke-width="0" fill="#f6efe9" fill-opacity="0.027450980392156862" />
<path d="M366,-582 L686,-762 L438,-1270 L158,-698 L382,-698 L346,-106 Z" stroke-width="0" fill="#f9fcf8" fill-opacity="0.17647058823529413" />
<path d="M498,-558 L530,-258 L718,-326 L150,-514 L694,-1250 L850,-1002 Z" stroke-width="0" fill="#fefcf8" fill-opacity="0.396078431372549" />
<path d="M934,-262 L510,-870 L414,-410 L190,-1182 L446,-914 L86,-430 Z" stroke-width="0" fill="#fae1f3" fill-opacity="0.7490196078431373" />
<path d="M154,-202 L194,-434 L742,-158 L422,-242 L518,-1190 L806,-342 Z" stroke-width="0" fill="#ecdddd" fill-opacity="0.3137254901960784" />
<path d="M450,-494 L390,-1138 L346,-522 L562,-614 L314,-1010 L194,-598 Z" stroke-width="0" fill="#cafebd" fill-opacity="0.6313725490196078" />
<path d="M594,-518 L250,-1170 L218,-454 L190,-466 L286,-986 L166,-350 Z" stroke-width="0" fill="#fdf0ec" fill-opacity="0.996078431372549" />
<path d="M666,-982 L234,-698 L190,-658 L606,-698 L602,-898 L970,-146 Z" stroke-width="0" fill="#2a3437" fill-opacity="0.23137254901960785" />
<path d="M634,-878 L842,-766 L698,-690 L146,-926 L82,-462 L210,-466 Z" stroke-width="0" fill="#f5dae7" fill-opacity="0.07058823529411765" />
<path d="M914,-1002 L522,-366 L294,-138 L254,-830 L518,-710 L458,-310 Z" stroke-width="0" fill="#ec7061" fill-opacity="0.0" />
<path d="M310,-450 L662,-946 L954,-1270 L642,-406 L786,-286 L626,-1038 Z" stroke-width="0" fill="#f2f9b6" fill-opacity="0.06666666666666667" />
<path d="M638,-1118 L258,-662 L934,-1198 L406,-1170 L270,-870 L218,-1118 Z" stroke-width="0" fill="#f3dfd7" fill-opacity="0.1607843137254902" />
<path d="M426,-434 L242,-154 L158,-158 L330,-1014 L110,-1138 L434,-342 Z" stroke-width="0" fill="#fcdfeb" fill-opacity="0.7764705882352941" />
<path d="M602,-370 L226,-674 L630,-722 L614,-698 L686,-886 L694,-938 Z" stroke-width="0" fill="#884b2d" fill-opacity="0.792156862745098" />
<path d="M222,-666 L138,-122 L98,-882 L682,-386 L762,-550 L802,-154 Z" stroke-width="0" fill="#ecf7e4" fill-opacity="0.14901960784313725" />
<path d="M962,-294 L974,-242 L282,-726 L318,-82 L282,-826 L250,-554 Z" stroke-width="0" fill="#061d33" fill-opacity="0.0" />
<path d="M670,-738 L382,-942 L238,-238 L206,-490 L954,-366 L846,-730 Z" stroke-width="0" fill="#92926d" fill-opacity="0.3254901960784314" />
<path d="M314,-146 L618,-926 L274,-1046 L146,-698 L218,-550 L606,-226 Z" stroke-width="0" fill="#d4ecfc" fill-opacity="0.09411764705882353" />
<path d="M518,-458 L142,-942 L470,-238 L330,-110 L182,-1134 L322,-434 Z" stroke-width="0" fill="#e1f4fe" fill-opacity="0.07450980392156863" />
<path d="M266,-202 L710,-1002 L446,-990 L494,-598 L522,-646 L662,-854 Z" stroke-width="0" fill="#008edc" fill-opacity="0.7568627450980392" />
<path d="M950,-262 L226,-974 L890,-550 L126,-758 L710,-218 L354,-1246 Z" stroke-width="0" fill="#adb9c7" fill-opacity="0.45098039215686275" />
<path d="M410,-486 L346,-438 L230,-414 L478,-598 L526,-626 L538,-1122 Z" stroke-width="0" fill="#0a99db" fill-opacity="0.7372549019607844" />
<path d="M858,-714 L506,-318 L630,-662 L470,-1026 L598,-1106 L182,-146 Z" stroke-width="0" fill="#d8fcf8" fill-opacity="0.011764705882352941" />
<path d="M946,-294 L870,-1006 L746,-458 L638,-1110 L906,-858 L574,-542 Z" stroke-width="0" fill="#867745" fill-opacity="0.7843137254901961" />
<path d="M346,-598 L898,-710 L194,-486 L186,-730 L798,-970 L786,-266 Z" stroke-width="0" fill="#1f230e" fill-opacity="0.03137254901960784" />
<path d="M126,-666 L834,-126 L798,-214 L346,-850 L522,-278 L242,-1090 Z" stroke-width="0" fill="#d3b8a2" fill-opacity="0.10196078431372549" />
<path d="M142,-926 L326,-538 L886,-726 L578,-498 L218,-530 L358,-434 Z" stroke-width="0" fill="#014cfa" fill-opacity="0.1568627450980392" />
<path d="M638,-186 L454,-582 L106,-1238 L890,-1002 L522,-358 L458,-1170 Z" stroke-width="0" fill="#edeac8" fill-opacity="0.047058823529411764" />
<path d="M82,-650 L326,-346 L206,-1006 L978,-854 L950,-1086 L230,-394 Z" stroke-width="0" fill="#f0dbd1" fill-opacity="0.027450980392156862" />
<path d="M766,-710 L186,-1262 L294,-638 L498,-290 L978,-534 L386,-326 Z" stroke-width="0" fill="#f1f4d2" fill-opacity="0.050980392156862744" />
<path d="M318,-422 L514,-1242 L606,-750 L234,-182 L706,-574 L306,-786 Z" stroke-width="0" fill="#66a9be" fill-opacity="0.4" />
<path d="M346,-966 L434,-1174 L150,-634 L158,-818 L610,-990 L362,-702 Z" stroke-width="0" fill="#e2bfb8" fill-opacity="0.027450980392156862" />
<path d="M654,-638 L186,-246 L262,-406 L146,-998 L502,-1146 L390,-446 Z" stroke-width="0" fill="#e9fbfb" fill-opacity="0.5764705882352941" />
<path d="M90,-998 L242,-638 L314,-166 L282,-1034 L194,-726 L306,-846 Z" stroke-width="0" fill="#e1d0c3" fill-opacity="0.1843137254901961" />
<text x="448.0" y="0" font-size="70.0" fill="black" text-anchor="middle" transform="translate(0,17.5)">2 OF WATER</text>
</svg>