<?xml version="1.0" encoding="UTF-8"?>
<svg xmlns="http://www.w3.org/2000/svg" xmlns:xlink="http://www.w3.org/1999/xlink"
     width="896" height="1496" viewBox="0 -1400 896 1496" style="font-size:70;font-family:Poor Richard, Times New Roman;stroke:black;stroke-width:1;fill:none">
<defs>
</defs>
<path d="M546,-566 L82,-518 L578,-238 L786,-406 L270,-194 L366,-918 Z" stroke-width="0" fill="#6d3f14" fill-opacity="0.7372549019607844" />
<path d="M210,-674 L242,-658 L366,-754 L110,-798 L338,-846 L150,-122 Z" stroke-width="0" fill="#075c70" fill-opacity="0.9254901960784314" />
<path d="M134,-338 L678,-914 L766,-610 L186,-518 L622,-142 L710,-314 Z" stroke-width="0" fill="#000006" fill-opacity="0.6862745098039216" />
<path d="M470,-1006 L766,-546 L658,-994 L742,-694 L174,-866 L346,-246 Z" stroke-width="0" fill="#e1e40b" fill-opacity="0.7333333333333333" />
<path d="M106,-1306 L310,-1242 L806,-250 L262,-686 L358,-154 L566,-882 Z" stroke-width="0" fill="#625400" fill-opacity="0.5843137254901961" />
<path d="M278,-202 L278,-450 L538,-590 L638,-326 L170,-570 L170,-1042 Z" stroke-width="0" fill="#3d289a" fill-opacity="0.3411764705882353" />
<path d="M386,-410 L238,-410 L350,-674 L638,-778 L786,-570 L690,-1286 Z" stroke-width="0" fill="#b3ce00" fill-opacity="0.5019607843137255" />
<path d="M638,-210 L742,-942 L670,-1142 L450,-638 L178,-406 L458,-370 Z" stroke-width="0" fill="#6dfe54" fill-opacity="0.027450980392156862" />
<path d="M262,-386 L422,-350 L774,-990 L318,-826 L106,-434 L230,-222 Z" stroke-width="0" fill="#bb6a16" fill-opacity="0.3333333333333333" />
<path d="M614,-626 L262,-506 L438,-782 L162,-1246 L290,-946 L246,-1034 Z" stroke-width="0" fill="#5e3e24" fill-opacity="0.4627450980392157" />
<path d="M106,-962 L262,-1038 L734,-406 L694,-494 L366,-978 L626,-854 Z" stroke-width="0" fill="#76f6b9" fill-opacity="0.2235294117647059" />
<path d="M510,-998 L250,-222 L178,-1118 L606,-698 L666,-1226 L274,-734 Z" stroke-width="0" fill="#37fb58" fill-opacity="0.8196078431372549" />
<path d="M202,-614 L570,-862 L462,-146 L142,-670 L594,-790 L138,-822 Z" stroke-width="0" fill="#090d19" fill-opacity="0.5843137254901961" />
<path d="M90,-950 L170,-1294 L506,-1274 L378,-118 L514,-730 L86,-766 Z" stroke-width="0" fill="#000000" fill-opacity="0.6313725490196078" />
<path d="M554,-422 L330,-886 L274,-414 L170,-1102 L434,-454 L526,-846 Z" stroke-width="0" fill="#8da665" fill-opacity="0.4627450980392157" />
<path d="M358,-98 L810,-562 L590,-1198 L742,-286 L586,-718 L198,-974 Z" stroke-width="0" fill="#9a4e19" fill-opacity="0.8" />
<path d="M94,-1134 L546,-962 L130,-602 L582,-734 L678,-1262 L206,-838 Z" stroke-width="0" fill="#1a380a" fill-opacity="0.6705882352941176" />
<path d="M386,-574 L758,-682 L454,-1010 L202,-1310 L470,-750 L106,-298 Z" stroke-width="0" fill="#504b1e" fill-opacity="0.9019607843137255" />
<path d="M578,-1230 L466,-114 L786,-1098 L638,-534 L346,-610 L810,-1110 Z" stroke-width="0" fill="#0d3331" fill-opacity="0.5450980392156862" />
<path d="M562,-586 L238,-462 L98,-1042 L522,-818 L122,-1058 L766,-318 Z" stroke-width="0" fill="#e39fa2" fill-opacity="0.5607843137254902" />
<path d="M810,-1094 L370,-998 L202,-202 L622,-970 L542,-862 L810,-590 Z" stroke-width="0" fill="#000000" fill-opacity="0.6352941176470588" />
<path d="M134,-378 L390,-854 L618,-190 L798,-1314 L670,-1226 L138,-194 Z" stroke-width="0" fill="#000000" fill-opacity="0.6784313725490196" />
<path d="M186,-1114 L430,-122 L810,-846 L94,-958 L278,-1198 L802,-1118 Z" stroke-width="0" fill="#6f5c2d" fill-opacity="0.5294117647058824" />
<path d="M518,-158 L170,-1038 L798,-134 L562,-302 L598,-178 L218,-298 Z" stroke-width="0" fill="#35732d" fill-opacity="0.5019607843137255" />
<path d="M750,-558 L466,-878 L766,-1054 L98,-190 L666,-782 L274,-894 Z" stroke-width="0" fill="#5a8f2b" fill-opacity="0.5019607843137255" />
<path d="M534,-930 L466,-514 L702,-1250 L114,-246 L110,-394 L162,-394 Z" stroke-width="0" fill="#4e46c9" fill-opacity="0.32941176470588235" />
<path d="M150,-946 L638,-466 L698,-710 L546,-838 L242,-590 L494,-206 Z" stroke-width="0" fill="#d33dd4" fill-opacity="0.2" />
<path d="M306,-446 L410,-286 L286,-386 L94,-1090 L210,-750 L518,-154 Z" stroke-width="0" fill="#8a6240" fill-opacity="0.5294117647058824" />
<path d="M258,-594 L410,-534 L322,-1150 L250,-918 L166,-262 L146,-582 Z" stroke-width="0" fill="#d9f949" fill-opacity="0.7411764705882353" />
<path d="M514,-246 L710,-438 L406,-338 L538,-126 L254,-1154 L470,-346 Z" stroke-width="0" fill="#2c2900" fill-opacity="0.30980392156862746" />
<path d="M354,-822 L246,-1174 L346,-534 L414,-550 L186,-338 L498,-962 Z" stroke-width="0" fill="#220d3b" fill-opacity="0.7333333333333333" />
<path d="M666,-1062 L734,-438 L86,-1114 L174,-1310 L166,-202 L554,-430 Z" stroke-width="0" fill="#3d131c" fill-opacity="0.7647058823529411" />
<path d="M490,-454 L722,-786 L118,-1166 L138,-518 L90,-1130 L426,-110 Z" stroke-width="0" fill="#142518" fill-opacity="0.5411764705882353" />
<path d="M570,-326 L790,-298 L330,-934 L218,-722 L258,-946 L350,-1178 Z" stroke-width="0" fill="#15aa9b" fill-opacity="0.592156862745098" />
<path d="M286,-1226 L98,-710 L194,-838 L642,-874 L454,-1274 L382,-82 Z" stroke-width="0" fill="#4c2847" fill-opacity="0.5058823529411764" />
<path d="M574,-722 L554,-1030 L474,-134 L430,-514 L278,-942 L342,-622 Z" stroke-width="0" fill="#516e67" fill-opacity="0.4549019607843137" />
<path d="M394,-846 L386,-834 L742,-258 L150,-606 L574,-858 L182,-586 Z" stroke-width="0" fill="#00ea4a" fill-opacity="0.27450980392156865" />
<path d="M650,-306 L454,-482 L282,-734 L134,-998 L210,-498 L786,-778 Z" stroke-width="0" fill="#543528" fill-opacity="0.3215686274509804" />
<path d="M138,-626 L378,-422 L102,-594 L222,-874 L646,-1050 L602,-974 Z" stroke-width="0" fill="#34445b" fill-opacity="0.6901960784313725" />
<path d="M406,-106 L414,-794 L778,-174 L646,-86 L722,-670 L182,-214 Z" stroke-width="0" fill="#000000" fill-opacity="0.6784313725490196" />
<path d="M474,-694 L678,-774 L630,-278 L526,-554 L790,-1090 L710,-958 Z" stroke-width="0" fill="#0f71ae" fill-opacity="0.5019607843137255" />
<path d="M246,-882 L514,-598 L182,-1066 L450,-1046 L310,-650 L638,-326 Z" stroke-width="0" fill="#11148f" fill-opacity="0.38823529411764707" />
<path d="M258,-474 L370,-302 L602,-1306 L238,-750 L506,-438 L158,-606 Z" stroke-width="0" fill="#000000" fill-opacity="0.5450980392156862" />
<path d="M414,-442 L366,-514 L362,-538 L178,-1110 L586,-826 L646,-514 Z" stroke-width="0" fill="#0aadfe" fill-opacity="0.3803921568627451" />
<path d="M646,-550 L138,-822 L146,-774 L478,-398 L706,-234 L810,-162 Z" stroke-width="0" fill="#000000" fill-opacity="0.4392156862745098" />
<path d="M218,-874 L574,-222 L138,-158 L338,-878 L98,-1234 L402,-962 Z" stroke-width="0" fill="#193894" fill-opacity="0.7294117647058823" />
<path d="M198,-114 L222,-566 L102,-122 L746,-854 L122,-178 L690,-1034 Z" stroke-width="0" fill="#007088" fill-opacity="0.7333333333333333" />
<path d="M202,-634 L326,-870 L482,-974 L658,-418 L150,-1134 L94,-174 Z" stroke-width="0" fill="#00294f" fill-opacity="0.6705882352941176" />
<path d="M574,-330 L438,-466 L690,-350 L466,-546 L86,-1162 L358,-1202 Z" stroke-width="0" fill="#585325" fill-opacity="0.6549019607843137" />
<path d="M266,-410 L802,-314 L278,-1206 L86,-1166 L162,-1210 L154,-854 Z" stroke-width="0" fill="#677f34" fill-opacity="0.5607843137254902" />
<path d="M786,-290 L774,-586 L550,-122 L182,-138 L130,-670 L366,-94 Z" stroke-width="0" fill="#000000" fill-opacity="0.5254901960784314" />
<path d="M750,-334 L710,-662 L626,-290 L502,-166 L158,-218 L350,-466 Z" stroke-width="0" fill="#504a63" fill-opacity="0.3254901960784314" />
<path d="M746,-1094 L554,-810 L682,-490 L502,-718 L238,-1258 L126,-138 Z" stroke-width="0" fill="#3bbf4b" fill-opacity="0.39215686274509803" />
<path d="M634,-146 L206,-1054 L306,-794 L306,-1094 L170,-242 L126,-902 Z" stroke-width="0" fill="#639c2d" fill-opacity="0.4117647058823529" />
<path d="M790,-770 L306,-578 L558,-1238 L330,-394 L98,-1026 L382,-86 Z" stroke-width="0" fill="#533545" fill-opacity="0.5019607843137255" />
<path d="M182,-838 L254,-130 L806,-202 L382,-1258 L422,-186 L402,-1062 Z" stroke-width="0" fill="#392513" fill-opacity="0.5411764705882353" />
<path d="M154,-1262 L630,-434 L722,-950 L574,-402 L126,-150 L630,-1142 Z" stroke-width="0" fill="#8a72bb" fill-opacity="0.23137254901960785" />
<path d="M234,-186 L222,-758 L326,-174 L246,-1154 L526,-778 L522,-1250 Z" stroke-width="0" fill="#12206c" fill-opacity="0.8" />
<path d="M146,-1046 L298,-934 L194,-1242 L306,-558 L394,-714 L586,-1066 Z" stroke-width="0" fill="#7d6087" fill-opacity="0.09411764705882353" />
<path d="M502,-1238 L530,-610 L774,-346 L226,-186 L670,-1230 L686,-150 Z" stroke-width="0" fill="#469835" fill-opacity="0.4392156862745098" />
<path d="M674,-222 L378,-886 L174,-142 L418,-218 L290,-514 L162,-110 Z" stroke-width="0" fill="#778d78" fill-opacity="0.3176470588235294" />
<path d="M502,-618 L534,-378 L282,-606 L394,-846 L110,-790 L578,-94 Z" stroke-width="0" fill="#2b2f31" fill-opacity="0.7176470588235294" />
<path d="M606,-398 L482,-750 L326,-1002 L262,-1206 L586,-910 L710,-1054 Z" stroke-width="0" fill="#278c6d" fill-opacity="0.09803921568627451" />
<path d="M370,-842 L730,-142 L210,-266 L94,-122 L546,-630 L382,-1170 Z" stroke-width="0" fill="#430c1d" fill-opacity="0.09411764705882353" />
<path d="M570,-682 L94,-410 L106,-126 L286,-154 L266,-594 L206,-798 Z" stroke-width="0" fill="#6a3f2d" fill-opacity="0.7058823529411765" />
<path d="M226,-282 L306,-1222 L606,-426 L350,-702 L214,-590 L250,-954 Z" stroke-width="0" fill="#a291c1" fill-opacity="0.00392156862745098" />
<path d="M354,-1286 L446,-750 L718,-322 L726,-994 L406,-222 L326,-866 Z" stroke-width="0" fill="#2f6014" fill-opacity="0.30196078431372547" />
<path d="M586,-802 L666,-666 L378,-1042 L694,-994 L730,-810 L418,-1278 Z" stroke-width="0" fill="#d7a470" fill-opacity="0.06274509803921569" />
<path d="M754,-698 L322,-586 L406,-1142 L258,-86 L190,-826 L510,-530 Z" stroke-width="0" fill="#584177" fill-opacity="0.5882352941176471" />
<path d="M134,-1130 L266,-922 L234,-226 L454,-1278 L634,-478 L654,-666 Z" stroke-width="0" fill="#2e6115" fill-opacity="0.30980392156862746" />
<path d="M374,-762 L266,-850 L654,-402 L410,-374 L350,-186 L658,-450 Z" stroke-width="0" fill="#22498f" fill-opacity="0.6745098039215687" />
<path d="M682,-242 L538,-258 L566,-794 L378,-1090 L198,-490 L682,-1282 Z" stroke-width="0" fill="#c8155a" fill-opacity="0.2235294117647059" />
<path d="M374,-898 L690,-618 L402,-810 L746,-826 L538,-994 L218,-174 Z" stroke-width="0" fill="#314039" fill-opacity="0.24313725490196078" />
<path d="M266,-226 L670,-310 L782,-750 L518,-458 L214,-1138 L202,-890 Z" stroke-width="0" fill="#354332" fill-opacity="0.5019607843137255" />
<path d="M430,-1114 L126,-1178 L170,-1034 L578,-338 L246,-506 L486,-990 Z" stroke-width="0" fill="#6a3956" fill-opacity="0.5647058823529412" />
<path d="M374,-1098 L806,-298 L598,-182 L210,-458 L810,-106 L370,-354 Z" stroke-width="0" fill="#6a5775" fill-opacity="0.5019607843137255" />
<path d="M278,-322 L594,-310 L494,-1162 L238,-1014 L714,-886 L642,-722 Z" stroke-width="0" fill="#6b6126" fill-opacity="0.21176470588235294" />
<path d="M762,-418 L570,-550 L326,-1142 L214,-242 L402,-386 L534,-278 Z" stroke-width="0" fill="#2a6a3f" fill-opacity="0.4196078431372549" />
<path d="M446,-902 L386,-414 L510,-882 L114,-854 L174,-114 L302,-738 Z" stroke-width="0" fill="#3d264a" fill-opacity="0.8274509803921568" />
<path d="M434,-1066 L134,-1234 L726,-810 L770,-578 L566,-126 L246,-450 Z" stroke-width="0" fill="#6d7c22" fill-opacity="0.2627450980392157" />
<path d="M654,-582 L634,-118 L218,-958 L266,-410 L802,-118 L138,-866 Z" stroke-width="0" fill="#515054" fill-opacity="0.7647058823529411" />
<path d="M570,-374 L694,-358 L98,-150 L734,-286 L334,-394 L798,-666 Z" stroke-width="0" fill="#4d5f23" fill-opacity="0.2627450980392157" />
<path d="M738,-758 L614,-358 L646,-198 L182,-1258 L254,-1094 L122,-558 Z" stroke-width="0" fill="#3f2d07" fill-opacity="0.23529411764705882" />
<path d="M658,-882 L374,-218 L82,-842 L262,-590 L562,-1278 L434,-418 Z" stroke-width="0" fill="#574442" fill-opacity="0.5019607843137255" />
<path d="M750,-1034 L230,-1046 L398,-618 L486,-394 L658,-670 L154,-894 Z" stroke-width="0" fill="#275250" fill-opacity="0.2549019607843137" />
<path d="M190,-1226 L350,-1222 L318,-746 L418,-358 L454,-794 L562,-890 Z" stroke-width="0" fill="#415461" fill-opacity="0.5019607843137255" />
<path d="M362,-938 L226,-262 L262,-974 L558,-850 L698,-146 L706,-766 Z" stroke-width="0" fill="#4b0a43" fill-opacity="0.03137254901960784" />
<path d="M706,-1238 L778,-426 L514,-162 L406,-310 L546,-382 L402,-410 Z" stroke-width="0" fill="#513d99" fill-opacity="0.3686274509803922" />
<path d="M270,-1078 L498,-1182 L166,-1198 L522,-882 L698,-1018 L538,-714 Z" stroke-width="0" fill="#411c36" fill-opacity="0.3137254901960784" />
<path d="M246,-1226 L510,-738 L558,-198 L218,-278 L642,-258 L446,-398 Z" stroke-width="0" fill="#4b3c45" fill-opacity="0.6274509803921569" />
<path d="M262,-1090 L90,-1190 L670,-126 L194,-1002 L158,-414 L226,-1314 Z" stroke-width="0" fill="#534d4f" fill-opacity="0.8784313725490196" />
<path d="M338,-894 L218,-838 L518,-458 L546,-90 L246,-1006 L482,-1130 Z" stroke-width="0" fill="#490652" fill-opacity="0.1843137254901961" />
<path d="M738,-806 L222,-446 L298,-122 L426,-482 L302,-754 L266,-778 Z" stroke-width="0" fill="#934774" fill-opacity="0.5019607843137255" />
<path d="M322,-222 L130,-82 L622,-902 L446,-286 L206,-918 L210,-402 Z" stroke-width="0" fill="#3f4b0a" fill-opacity="0.1803921568627451" />
<path d="M542,-854 L454,-1062 L310,-870 L342,-1278 L498,-98 L422,-422 Z" stroke-width="0" fill="#4b4e40" fill-opacity="0.6509803921568628" />
<path d="M282,-1154 L742,-434 L302,-326 L106,-598 L142,-1154 L118,-786 Z" stroke-width="0" fill="#585d52" fill-opacity="0.6274509803921569" />
<path d="M806,-486 L238,-750 L90,-1194 L518,-82 L158,-218 L150,-890 Z" stroke-width="0" fill="#543d84" fill-opacity="0.10980392156862745" />
<path d="M90,-1050 L514,-126 L482,-522 L130,-170 L118,-634 L738,-322 Z" stroke-width="0" fill="#68053a" fill-opacity="0.17254901960784313" />
<path d="M238,-934 L462,-714 L82,-374 L686,-422 L622,-1110 L578,-682 Z" stroke-width="0" fill="#3d5e63" fill-opacity="0.25882352941176473" />
<path d="M402,-634 L110,-826 L750,-750 L402,-98 L114,-298 L550,-530 Z" stroke-width="0" fill="#585c36" fill-opacity="0.40784313725490196" />
<text x="448.0" y="0" font-size="70.0" fill="black" text-anchor="middle" transform="translate(0,17.5)">10 OF WATER</text>
</svg>