<?xml version="1.0" encoding="UTF-8"?>
<svg xmlns="http://www.w3.org/2000/svg" xmlns:xlink="http://www.w3.org/1999/xlink"
     width="275" height="375" viewBox="0 -350 275 375">
<defs>
</defs>
<rect x="15" y="-335" width="245" height="320" stroke="black" stroke-width="4" fill="white" />
<path d="M168,-194 L133,-310 L172,-189 L63,-195 L245,-277 L58,-30 Z" stroke-width="0" fill="#9c1100" fill-opacity="0.5490196078431373" />
<path d="M148,-60 L211,-267 L28,-299 L136,-183 L223,-306 L35,-40 Z" stroke-width="0" fill="#000000" fill-opacity="0.7137254901960784" />
<path d="M33,-161 L109,-220 L120,-282 L192,-303 L115,-104 L206,-40 Z" stroke-width="0" fill="#23b8ce" fill-opacity="0.2980392156862745" />
<path d="M104,-161 L234,-153 L136,-148 L145,-166 L121,-230 L186,-55 Z" stroke-width="0" fill="#ad3be0" fill-opacity="0.050980392156862744" />
<path d="M220,-144 L32,-199 L44,-175 L94,-319 L100,-111 L105,-263 Z" stroke-width="0" fill="#004b33" fill-opacity="0.6980392156862745" />
<path d="M98,-313 L157,-323 L67,-93 L229,-92 L136,-206 L134,-158 Z" stroke-width="0" fill="#000015" fill-opacity="0.592156862745098" />
<path d="M25,-210 L214,-35 L151,-27 L67,-135 L110,-81 L226,-104 Z" stroke-width="0" fill="#b23c26" fill-opacity="0.24313725490196078" />
<path d="M248,-168 L201,-230 L128,-169 L92,-233 L228,-129 L233,-308 Z" stroke-width="0" fill="#0d456b" fill-opacity="0.5176470588235295" />
<path d="M223,-238 L49,-214 L149,-259 L210,-28 L149,-59 L152,-251 Z" stroke-width="0" fill="#c6c253" fill-opacity="0.47843137254901963" />
<path d="M44,-161 L69,-173 L247,-142 L146,-271 L129,-120 L158,-318 Z" stroke-width="0" fill="#000040" fill-opacity="0.5294117647058824" />
<path d="M245,-238 L58,-294 L134,-301 L193,-104 L106,-157 L185,-46 Z" stroke-width="0" fill="#aeb14c" fill-opacity="0.403921568627451" />
<path d="M34,-304 L67,-306 L161,-161 L150,-83 L192,-148 L36,-245 Z" stroke-width="0" fill="#0c23a5" fill-opacity="0.6392156862745098" />
<path d="M135,-55 L187,-160 L125,-251 L247,-220 L63,-75 L136,-270 Z" stroke-width="0" fill="#79a057" fill-opacity="0.6431372549019608" />
<path d="M77,-116 L164,-273 L201,-285 L217,-279 L45,-60 L29,-29 Z" stroke-width="0" fill="#3e2834" fill-opacity="0.9607843137254902" />
<path d="M206,-172 L206,-105 L120,-108 L128,-57 L121,-128 L236,-161 Z" stroke-width="0" fill="#d0cc02" fill-opacity="0.7843137254901961" />
<path d="M107,-153 L132,-241 L56,-218 L40,-193 L249,-261 L158,-27 Z" stroke-width="0" fill="#695b71" fill-opacity="0.35294117647058826" />
<path d="M217,-53 L98,-41 L208,-312 L233,-154 L44,-286 L61,-136 Z" stroke-width="0" fill="#569eba" fill-opacity="0.4823529411764706" />
<path d="M146,-60 L74,-105 L83,-38 L92,-150 L94,-96 L30,-247 Z" stroke-width="0" fill="#0e18df" fill-opacity="0.4549019607843137" />
<path d="M25,-32 L167,-166 L73,-266 L28,-249 L126,-51 L149,-147 Z" stroke-width="0" fill="#2d2361" fill-opacity="0.7254901960784313" />
<path d="M26,-44 L47,-75 L47,-112 L234,-184 L50,-302 L74,-199 Z" stroke-width="0" fill="#000000" fill-opacity="0.7058823529411765" />
<path d="M192,-139 L208,-92 L42,-142 L93,-52 L78,-108 L161,-69 Z" stroke-width="0" fill="#000000" fill-opacity="0.9333333333333333" />
<path d="M248,-30 L62,-79 L167,-100 L118,-249 L59,-191 L129,-153 Z" stroke-width="0" fill="#502400" fill-opacity="0.4823529411764706" />
<path d="M91,-39 L85,-319 L58,-116 L196,-256 L51,-249 L205,-86 Z" stroke-width="0" fill="#595ce8" fill-opacity="0.7803921568627451" />
<path d="M146,-181 L138,-56 L95,-64 L111,-125 L85,-37 L234,-212 Z" stroke-width="0" fill="#590109" fill-opacity="0.7843137254901961" />
<path d="M127,-232 L144,-133 L61,-91 L26,-202 L243,-190 L240,-145 Z" stroke-width="0" fill="#265282" fill-opacity="0.796078431372549" />
<path d="M110,-120 L231,-132 L47,-125 L124,-74 L59,-27 L144,-75 Z" stroke-width="0" fill="#040000" fill-opacity="0.8745098039215686" />
<path d="M31,-296 L145,-285 L100,-112 L136,-105 L143,-168 L232,-66 Z" stroke-width="0" fill="#eda544" fill-opacity="0.5019607843137255" />
<path d="M66,-295 L143,-108 L119,-164 L151,-30 L130,-235 L94,-302 Z" stroke-width="0" fill="#d7e43d" fill-opacity="0.41568627450980394" />
<path d="M194,-68 L57,-235 L57,-27 L107,-146 L93,-167 L206,-204 Z" stroke-width="0" fill="#2f1b1d" fill-opacity="0.9294117647058824" />
<path d="M246,-282 L245,-177 L154,-146 L108,-188 L87,-212 L44,-303 Z" stroke-width="0" fill="#235d94" fill-opacity="0.7529411764705882" />
<path d="M246,-222 L45,-239 L162,-117 L60,-29 L199,-167 L220,-50 Z" stroke-width="0" fill="#496e8e" fill-opacity="0.6901960784313725" />
<path d="M181,-248 L82,-119 L208,-199 L160,-265 L117,-66 L100,-70 Z" stroke-width="0" fill="#eaecdc" fill-opacity="0.9294117647058824" />
<path d="M146,-208 L28,-141 L116,-247 L37,-61 L97,-167 L122,-234 Z" stroke-width="0" fill="#736968" fill-opacity="0.7215686274509804" />
<path d="M100,-183 L144,-236 L186,-61 L163,-72 L195,-103 L150,-174 Z" stroke-width="0" fill="#ffee97" fill-opacity="0.8235294117647058" />
<path d="M97,-152 L202,-91 L227,-239 L174,-264 L33,-197 L170,-220 Z" stroke-width="0" fill="#141b7a" fill-opacity="0.2235294117647059" />
<path d="M104,-68 L112,-59 L68,-74 L225,-60 L57,-55 L155,-259 Z" stroke-width="0" fill="#622213" fill-opacity="0.38823529411764707" />
<path d="M81,-32 L177,-234 L44,-70 L57,-317 L222,-122 L49,-271 Z" stroke-width="0" fill="#959454" fill-opacity="0.7294117647058823" />
<path d="M145,-190 L80,-177 L39,-126 L121,-48 L131,-253 L145,-41 Z" stroke-width="0" fill="#162400" fill-opacity="0.2235294117647059" />
<path d="M117,-86 L57,-216 L39,-291 L54,-49 L175,-301 L106,-292 Z" stroke-width="0" fill="#2a1f0e" fill-opacity="0.24705882352941178" />
<path d="M39,-255 L43,-57 L195,-152 L67,-176 L225,-104 L136,-117 Z" stroke-width="0" fill="#54058b" fill-opacity="0.611764705882353" />
<path d="M81,-62 L153,-307 L148,-148 L107,-286 L80,-78 L214,-125 Z" stroke-width="0" fill="#f0d551" fill-opacity="0.9450980392156862" />
<path d="M188,-168 L213,-190 L178,-314 L102,-287 L100,-234 L114,-174 Z" stroke-width="0" fill="#a3a8aa" fill-opacity="0.8823529411764706" />
<path d="M42,-110 L188,-283 L124,-250 L45,-270 L178,-32 L244,-275 Z" stroke-width="0" fill="#437368" fill-opacity="0.2823529411764706" />
<path d="M84,-152 L116,-113 L196,-168 L209,-298 L176,-145 L122,-318 Z" stroke-width="0" fill="#31bd84" fill-opacity="0.403921568627451" />
<path d="M179,-90 L41,-69 L95,-30 L91,-112 L245,-44 L190,-202 Z" stroke-width="0" fill="#000304" fill-opacity="0.4823529411764706" />
<path d="M217,-105 L207,-143 L76,-113 L222,-155 L149,-150 L158,-135 Z" stroke-width="0" fill="#e2f3d4" fill-opacity="0.9176470588235294" />
<path d="M99,-299 L232,-141 L130,-33 L50,-294 L73,-31 L121,-310 Z" stroke-width="0" fill="#597d33" fill-opacity="0.34901960784313724" />
<path d="M81,-180 L108,-155 L240,-143 L100,-310 L144,-213 L25,-79 Z" stroke-width="0" fill="#84716f" fill-opacity="0.7058823529411765" />
<path d="M103,-132 L85,-148 L37,-228 L85,-64 L64,-211 L84,-210 Z" stroke-width="0" fill="#5710a4" fill-opacity="0.9490196078431372" />
<path d="M107,-237 L53,-309 L149,-66 L184,-97 L201,-288 L178,-298 Z" stroke-width="0" fill="#d3aafe" fill-opacity="0.7647058823529411" />
<path d="M182,-75 L53,-290 L71,-42 L154,-265 L80,-82 L205,-199 Z" stroke-width="0" fill="#92aced" fill-opacity="0.30196078431372547" />
<path d="M184,-27 L171,-225 L181,-148 L73,-43 L89,-119 L196,-141 Z" stroke-width="0" fill="#b24c07" fill-opacity="0.0" />
<path d="M31,-82 L62,-89 L117,-170 L110,-230 L102,-119 L144,-251 Z" stroke-width="0" fill="#000004" fill-opacity="1.0" />
<path d="M43,-156 L98,-36 L177,-142 L38,-212 L44,-129 L174,-57 Z" stroke-width="0" fill="#8b02c1" fill-opacity="0.027450980392156862" />
<path d="M76,-156 L161,-191 L207,-54 L139,-101 L201,-64 L133,-49 Z" stroke-width="0" fill="#feeccc" fill-opacity="0.9333333333333333" />
<path d="M149,-89 L138,-171 L219,-202 L236,-199 L117,-240 L71,-66 Z" stroke-width="0" fill="#3c593f" fill-opacity="0.396078431372549" />
<path d="M71,-183 L38,-148 L134,-41 L34,-211 L221,-190 L71,-99 Z" stroke-width="0" fill="#0314e7" fill-opacity="0.06274509803921569" />
<path d="M211,-176 L225,-108 L125,-43 L113,-103 L181,-83 L71,-266 Z" stroke-width="0" fill="#cd907c" fill-opacity="0.1450980392156863" />
<path d="M114,-71 L114,-257 L121,-177 L237,-215 L218,-58 L77,-216 Z" stroke-width="0" fill="#548fe5" fill-opacity="0.19607843137254902" />
<path d="M59,-183 L104,-53 L191,-44 L88,-69 L75,-251 L219,-270 Z" stroke-width="0" fill="#12143c" fill-opacity="0.5176470588235295" />
<path d="M231,-219 L183,-256 L26,-214 L43,-99 L65,-129 L90,-34 Z" stroke-width="0" fill="#4f5f83" fill-opacity="0.803921568627451" />
<path d="M153,-43 L136,-244 L234,-308 L133,-269 L86,-121 L157,-60 Z" stroke-width="0" fill="#1b0a32" fill-opacity="0.5450980392156862" />
<path d="M119,-118 L84,-244 L99,-108 L111,-261 L67,-53 L42,-198 Z" stroke-width="0" fill="#510000" fill-opacity="0.7372549019607844" />
<path d="M156,-116 L64,-208 L116,-28 L86,-106 L81,-193 L112,-295 Z" stroke-width="0" fill="#80230b" fill-opacity="0.27450980392156865" />
<path d="M220,-202 L107,-123 L143,-304 L42,-225 L59,-227 L168,-122 Z" stroke-width="0" fill="#17342f" fill-opacity="0.027450980392156862" />
<path d="M91,-241 L56,-54 L216,-143 L190,-267 L117,-136 L234,-299 Z" stroke-width="0" fill="#3d251f" fill-opacity="0.43137254901960786" />
<path d="M62,-222 L226,-76 L165,-231 L146,-48 L186,-102 L96,-235 Z" stroke-width="0" fill="#fd2d2d" fill-opacity="0.16862745098039217" />
<path d="M67,-205 L110,-88 L101,-56 L94,-28 L215,-186 L168,-255 Z" stroke-width="0" fill="#da8141" fill-opacity="0.4117647058823529" />
<path d="M158,-47 L181,-119 L141,-183 L69,-115 L156,-166 L54,-306 Z" stroke-width="0" fill="#c3ebf0" fill-opacity="0.5450980392156862" />
<path d="M86,-25 L109,-267 L58,-312 L25,-311 L78,-276 L137,-268 Z" stroke-width="0" fill="#000632" fill-opacity="0.4745098039215686" />
<path d="M227,-315 L34,-307 L133,-89 L39,-182 L109,-182 L43,-220 Z" stroke-width="0" fill="#020692" fill-opacity="0.4549019607843137" />
<path d="M46,-227 L219,-153 L166,-89 L179,-38 L198,-29 L67,-54 Z" stroke-width="0" fill="#a33300" fill-opacity="0.16862745098039217" />
<path d="M116,-120 L148,-302 L80,-140 L196,-64 L61,-259 L248,-186 Z" stroke-width="0" fill="#70a914" fill-opacity="0.06274509803921569" />
<path d="M125,-272 L196,-168 L241,-258 L85,-178 L154,-167 L175,-321 Z" stroke-width="0" fill="#8799e9" fill-opacity="0.14901960784313725" />
<path d="M74,-203 L123,-29 L143,-139 L136,-286 L220,-193 L141,-113 Z" stroke-width="0" fill="#d4362f" fill-opacity="0.17254901960784313" />
<path d="M169,-203 L74,-167 L193,-236 L187,-79 L239,-94 L59,-252 Z" stroke-width="0" fill="#6e5e36" fill-opacity="0.7803921568627451" />
<path d="M64,-146 L199,-305 L226,-137 L74,-229 L137,-245 L52,-167 Z" stroke-width="0" fill="#b2bd89" fill-opacity="0.49411764705882355" />
<path d="M210,-35 L65,-275 L193,-247 L118,-210 L38,-127 L171,-42 Z" stroke-width="0" fill="#54c3a0" fill-opacity="0.11764705882352941" />
<path d="M78,-233 L35,-252 L28,-316 L142,-291 L89,-176 L37,-145 Z" stroke-width="0" fill="#00536d" fill-opacity="0.49411764705882355" />
<path d="M92,-139 L190,-202 L131,-268 L216,-209 L182,-268 L109,-256 Z" stroke-width="0" fill="#b96780" fill-opacity="0.2235294117647059" />
<path d="M107,-221 L80,-203 L85,-153 L134,-262 L90,-136 L89,-232 Z" stroke-width="0" fill="#5a4009" fill-opacity="0.996078431372549" />
<path d="M167,-315 L30,-58 L90,-212 L182,-115 L41,-186 L43,-136 Z" stroke-width="0" fill="#266e78" fill-opacity="0.5137254901960784" />
<path d="M176,-214 L80,-52 L236,-110 L25,-268 L38,-52 L37,-167 Z" stroke-width="0" fill="#216b7c" fill-opacity="0.6980392156862745" />
<path d="M145,-195 L197,-69 L102,-265 L185,-288 L157,-322 L36,-176 Z" stroke-width="0" fill="#5b8b2c" fill-opacity="0.25882352941176473" />
<path d="M86,-43 L45,-79 L28,-98 L59,-114 L88,-48 L109,-261 Z" stroke-width="0" fill="#0e2013" fill-opacity="0.6705882352941176" />
<path d="M203,-174 L149,-260 L154,-43 L176,-54 L156,-290 L31,-82 Z" stroke-width="0" fill="#dd8700" fill-opacity="0.12156862745098039" />
<path d="M116,-105 L244,-29 L87,-121 L181,-251 L39,-204 L167,-154 Z" stroke-width="0" fill="#242f76" fill-opacity="0.3607843137254902" />
<path d="M111,-270 L238,-185 L34,-127 L124,-210 L141,-271 L85,-179 Z" stroke-width="0" fill="#bb775f" fill-opacity="0.06274509803921569" />
<path d="M222,-217 L102,-219 L33,-175 L130,-147 L100,-265 L96,-303 Z" stroke-width="0" fill="#4c738a" fill-opacity="0.4980392156862745" />
<path d="M183,-212 L240,-55 L89,-30 L176,-152 L90,-119 L227,-84 Z" stroke-width="0" fill="#ea9d49" fill-opacity="0.34901960784313724" />
<path d="M197,-30 L113,-311 L62,-37 L47,-128 L197,-198 L29,-168 Z" stroke-width="0" fill="#f480e4" fill-opacity="0.0196078431372549" />
<path d="M68,-269 L42,-108 L136,-275 L39,-303 L194,-155 L176,-102 Z" stroke-width="0" fill="#3769ac" fill-opacity="0.4549019607843137" />
<path d="M152,-260 L161,-221 L46,-166 L42,-114 L140,-225 L190,-249 Z" stroke-width="0" fill="#3ec2be" fill-opacity="0.23921568627450981" />
<path d="M211,-309 L143,-303 L160,-82 L158,-115 L28,-89 L69,-197 Z" stroke-width="0" fill="#151016" fill-opacity="0.43137254901960786" />
<path d="M194,-117 L178,-281 L75,-181 L134,-132 L69,-171 L212,-80 Z" stroke-width="0" fill="#8c5012" fill-opacity="0.5019607843137255" />
<path d="M123,-222 L190,-124 L149,-117 L107,-188 L181,-130 L70,-53 Z" stroke-width="0" fill="#400921" fill-opacity="0.4117647058823529" />
<path d="M123,-34 L109,-302 L231,-176 L75,-92 L134,-308 L77,-133 Z" stroke-width="0" fill="#993c3d" fill-opacity="0.1803921568627451" />
<path d="M83,-177 L70,-278 L202,-274 L214,-205 L70,-52 L186,-233 Z" stroke-width="0" fill="#6e4d40" fill-opacity="0.26666666666666666" />
<path d="M246,-96 L229,-158 L102,-198 L131,-283 L83,-179 L35,-157 Z" stroke-width="0" fill="#754c48" fill-opacity="0.5019607843137255" />
<path d="M95,-284 L52,-226 L119,-171 L169,-162 L156,-145 L169,-40 Z" stroke-width="0" fill="#2b4770" fill-opacity="0.3215686274509804" />
<text x="137.5" y="12.5" font-size="20.0" fill="black" text-anchor="middle" transform="translate(0,5.0)">10 OF WATER</text>
</svg>