<?xml version="1.0" encoding="UTF-8"?>
<svg xmlns="http://www.w3.org/2000/svg" xmlns:xlink="http://www.w3.org/1999/xlink"
     width="896" height="1496" viewBox="0 -1400 896 1496" style="font-size:70;font-family:Poor Richard, Times New Roman;stroke:black;stroke-width:1;fill:none">
<defs>
</defs>
<path d="M574,-586 L678,-658 L114,-1194 L322,-526 L114,-626 L326,-570 Z" stroke-width="0" fill="#3dec34" fill-opacity="0.27450980392156865" />
<path d="M98,-1242 L234,-1282 L790,-534 L770,-854 L534,-1190 L146,-198 Z" stroke-width="0" fill="#001120" fill-opacity="0.8117647058823529" />
<path d="M150,-122 L214,-82 L582,-286 L138,-494 L550,-318 L502,-258 Z" stroke-width="0" fill="#02ce95" fill-opacity="0.4196078431372549" />
<path d="M498,-534 L502,-134 L118,-934 L198,-634 L498,-138 L338,-782 Z" stroke-width="0" fill="#fdc761" fill-opacity="0.8941176470588236" />
<path d="M178,-510 L506,-1118 L234,-158 L434,-894 L214,-866 L510,-326 Z" stroke-width="0" fill="#723611" fill-opacity="0.03137254901960784" />
<path d="M438,-814 L458,-1266 L610,-662 L266,-986 L694,-534 L594,-634 Z" stroke-width="0" fill="#bc85db" fill-opacity="0.5686274509803921" />
<path d="M650,-526 L478,-642 L390,-94 L502,-834 L226,-746 L226,-594 Z" stroke-width="0" fill="#d0db00" fill-opacity="0.6784313725490196" />
<path d="M618,-1290 L298,-582 L338,-398 L274,-290 L474,-278 L306,-1110 Z" stroke-width="0" fill="#03373d" fill-opacity="0.8549019607843137" />
<path d="M766,-310 L222,-690 L630,-102 L538,-82 L446,-834 L394,-114 Z" stroke-width="0" fill="#00b1ba" fill-opacity="0.5019607843137255" />
<path d="M678,-1294 L186,-930 L642,-1274 L102,-894 L694,-486 L178,-158 Z" stroke-width="0" fill="#00596b" fill-opacity="0.8901960784313725" />
<path d="M590,-482 L770,-498 L394,-1194 L362,-910 L694,-894 L426,-474 Z" stroke-width="0" fill="#a3ec71" fill-opacity="0.00392156862745098" />
<path d="M486,-914 L374,-130 L442,-382 L794,-342 L102,-938 L538,-182 Z" stroke-width="0" fill="#187304" fill-opacity="0.7333333333333333" />
<path d="M522,-86 L242,-626 L86,-574 L114,-130 L126,-418 L306,-246 Z" stroke-width="0" fill="#00001f" fill-opacity="0.7607843137254902" />
<path d="M618,-478 L662,-658 L386,-778 L526,-394 L650,-86 L250,-906 Z" stroke-width="0" fill="#34cb04" fill-opacity="0.6980392156862745" />
<path d="M106,-1058 L550,-774 L118,-490 L126,-850 L562,-1106 L578,-398 Z" stroke-width="0" fill="#287f2a" fill-opacity="0.4549019607843137" />
<path d="M346,-742 L410,-86 L278,-98 L366,-110 L610,-126 L150,-778 Z" stroke-width="0" fill="#00b8d4" fill-opacity="0.7176470588235294" />
<path d="M678,-622 L646,-690 L106,-126 L434,-290 L110,-794 L438,-262 Z" stroke-width="0" fill="#1e7a8a" fill-opacity="0.9803921568627451" />
<path d="M622,-282 L750,-770 L378,-362 L358,-82 L434,-270 L114,-270 Z" stroke-width="0" fill="#67e310" fill-opacity="0.3803921568627451" />
<path d="M190,-402 L578,-806 L274,-1070 L434,-130 L310,-526 L410,-214 Z" stroke-width="0" fill="#00c9be" fill-opacity="0.8156862745098039" />
<path d="M122,-570 L630,-682 L110,-590 L134,-950 L538,-622 L470,-342 Z" stroke-width="0" fill="#003e29" fill-opacity="0.8313725490196079" />
<path d="M498,-446 L730,-1130 L774,-386 L518,-1250 L114,-94 L346,-122 Z" stroke-width="0" fill="#61e55e" fill-opacity="0.34509803921568627" />
<path d="M306,-874 L310,-694 L302,-1310 L150,-334 L586,-370 L478,-654 Z" stroke-width="0" fill="#09001e" fill-opacity="0.9764705882352941" />
<path d="M258,-642 L670,-346 L274,-262 L750,-1030 L750,-546 L458,-1170 Z" stroke-width="0" fill="#e4efe7" fill-opacity="0.3568627450980392" />
<path d="M630,-1306 L522,-1170 L542,-698 L98,-650 L150,-742 L358,-322 Z" stroke-width="0" fill="#073038" fill-opacity="0.803921568627451" />
<path d="M634,-398 L298,-594 L422,-370 L298,-1142 L590,-962 L574,-954 Z" stroke-width="0" fill="#150cf0" fill-opacity="0.8117647058823529" />
<path d="M342,-1290 L346,-1074 L766,-970 L730,-366 L606,-494 L506,-166 Z" stroke-width="0" fill="#9ba565" fill-opacity="0.6705882352941176" />
<path d="M510,-1214 L518,-482 L318,-134 L274,-710 L390,-750 L126,-414 Z" stroke-width="0" fill="#1884d0" fill-opacity="0.8745098039215686" />
<path d="M674,-734 L110,-174 L794,-1190 L746,-1278 L338,-538 L746,-262 Z" stroke-width="0" fill="#f90800" fill-opacity="0.7764705882352941" />
<path d="M254,-258 L742,-718 L422,-394 L690,-1198 L386,-738 L102,-446 Z" stroke-width="0" fill="#13581e" fill-opacity="0.22745098039215686" />
<path d="M294,-1306 L694,-758 L758,-846 L638,-718 L270,-714 L542,-178 Z" stroke-width="0" fill="#4b7c03" fill-opacity="0.8431372549019608" />
<path d="M762,-1142 L754,-494 L390,-1006 L182,-562 L594,-294 L338,-754 Z" stroke-width="0" fill="#f8db78" fill-opacity="0.44313725490196076" />
<path d="M194,-150 L506,-390 L658,-770 L390,-1050 L606,-730 L162,-762 Z" stroke-width="0" fill="#82b9ba" fill-opacity="0.43529411764705883" />
<path d="M614,-542 L162,-106 L610,-974 L682,-646 L458,-514 L502,-646 Z" stroke-width="0" fill="#78d4f7" fill-opacity="0.7215686274509804" />
<path d="M538,-494 L678,-822 L262,-862 L442,-682 L798,-770 L702,-1314 Z" stroke-width="0" fill="#062137" fill-opacity="0.6666666666666666" />
<path d="M774,-234 L254,-142 L102,-702 L270,-334 L426,-694 L582,-1226 Z" stroke-width="0" fill="#0989a8" fill-opacity="0.9333333333333333" />
<path d="M274,-146 L426,-1038 L86,-498 L502,-858 L278,-298 L310,-850 Z" stroke-width="0" fill="#7f2802" fill-opacity="0.5058823529411764" />
<path d="M442,-278 L158,-1078 L346,-922 L474,-1302 L538,-706 L630,-850 Z" stroke-width="0" fill="#000022" fill-opacity="0.6980392156862745" />
<path d="M238,-710 L158,-838 L374,-622 L550,-1046 L282,-798 L266,-350 Z" stroke-width="0" fill="#181c08" fill-opacity="0.7372549019607844" />
<path d="M402,-682 L422,-1006 L194,-102 L170,-778 L718,-886 L446,-654 Z" stroke-width="0" fill="#35ecdb" fill-opacity="0.7843137254901961" />
<path d="M562,-1190 L354,-434 L566,-570 L714,-334 L262,-234 L338,-170 Z" stroke-width="0" fill="#fdfc01" fill-opacity="0.9568627450980393" />
<path d="M790,-274 L710,-722 L298,-458 L586,-790 L86,-1186 L774,-1226 Z" stroke-width="0" fill="#336866" fill-opacity="0.5019607843137255" />
<path d="M474,-618 L370,-306 L686,-1150 L322,-674 L322,-586 L98,-642 Z" stroke-width="0" fill="#00350b" fill-opacity="0.8509803921568627" />
<path d="M522,-550 L410,-998 L194,-926 L482,-1026 L130,-150 L190,-1018 Z" stroke-width="0" fill="#3378f8" fill-opacity="0.8431372549019608" />
<path d="M650,-694 L334,-1262 L538,-1206 L682,-970 L294,-190 L714,-1262 Z" stroke-width="0" fill="#3fce93" fill-opacity="0.8196078431372549" />
<path d="M126,-466 L438,-494 L266,-1214 L166,-222 L174,-382 L702,-458 Z" stroke-width="0" fill="#000f78" fill-opacity="0.4470588235294118" />
<path d="M178,-646 L254,-962 L506,-470 L402,-190 L738,-174 L746,-950 Z" stroke-width="0" fill="#1d0efe" fill-opacity="0.8196078431372549" />
<path d="M534,-682 L506,-426 L458,-430 L306,-646 L242,-934 L466,-938 Z" stroke-width="0" fill="#53f859" fill-opacity="0.792156862745098" />
<path d="M114,-310 L786,-494 L318,-274 L666,-470 L86,-422 L810,-630 Z" stroke-width="0" fill="#2c423c" fill-opacity="0.8666666666666667" />
<path d="M402,-454 L546,-250 L578,-654 L438,-862 L478,-1262 L486,-910 Z" stroke-width="0" fill="#06583c" fill-opacity="0.4588235294117647" />
<path d="M794,-654 L598,-410 L438,-134 L686,-754 L258,-778 L122,-1286 Z" stroke-width="0" fill="#005a9f" fill-opacity="0.6470588235294118" />
<path d="M626,-470 L490,-178 L98,-146 L166,-702 L118,-1218 L706,-1094 Z" stroke-width="0" fill="#095665" fill-opacity="0.403921568627451" />
<path d="M374,-342 L474,-450 L122,-890 L434,-1146 L170,-738 L270,-458 Z" stroke-width="0" fill="#1e553c" fill-opacity="0.7803921568627451" />
<path d="M802,-1282 L782,-846 L598,-794 L426,-1178 L570,-82 L154,-1074 Z" stroke-width="0" fill="#132c34" fill-opacity="0.6352941176470588" />
<path d="M426,-750 L738,-1158 L282,-610 L214,-1218 L510,-158 L90,-714 Z" stroke-width="0" fill="#00583c" fill-opacity="0.8549019607843137" />
<path d="M610,-130 L710,-1250 L806,-246 L418,-886 L210,-594 L410,-474 Z" stroke-width="0" fill="#1f4169" fill-opacity="0.9372549019607843" />
<path d="M586,-1154 L486,-358 L470,-86 L414,-590 L318,-1134 L298,-1286 Z" stroke-width="0" fill="#020a50" fill-opacity="0.5843137254901961" />
<path d="M122,-770 L174,-198 L682,-198 L118,-1282 L274,-186 L226,-142 Z" stroke-width="0" fill="#004ab4" fill-opacity="0.38823529411764707" />
<path d="M106,-1030 L134,-906 L798,-566 L278,-998 L350,-1198 L482,-162 Z" stroke-width="0" fill="#008a77" fill-opacity="0.25098039215686274" />
<path d="M702,-518 L82,-478 L566,-98 L290,-922 L810,-590 L386,-182 Z" stroke-width="0" fill="#4beee7" fill-opacity="0.9921568627450981" />
<path d="M630,-794 L130,-250 L578,-810 L346,-914 L418,-802 L266,-810 Z" stroke-width="0" fill="#828d7c" fill-opacity="0.5019607843137255" />
<path d="M402,-566 L606,-790 L686,-286 L418,-1210 L766,-130 L718,-990 Z" stroke-width="0" fill="#091847" fill-opacity="0.5764705882352941" />
<path d="M726,-1206 L182,-882 L522,-786 L334,-1074 L622,-1310 L734,-398 Z" stroke-width="0" fill="#796927" fill-opacity="0.3176470588235294" />
<path d="M470,-1022 L298,-1002 L134,-622 L494,-126 L754,-158 L358,-662 Z" stroke-width="0" fill="#00c6a4" fill-opacity="0.7372549019607844" />
<path d="M622,-910 L626,-782 L86,-858 L518,-902 L82,-938 L322,-690 Z" stroke-width="0" fill="#1f3951" fill-opacity="0.9411764705882353" />
<path d="M766,-178 L202,-762 L302,-1022 L594,-1054 L354,-250 L390,-1246 Z" stroke-width="0" fill="#036c9a" fill-opacity="0.996078431372549" />
<path d="M606,-906 L762,-342 L218,-982 L614,-678 L754,-86 L630,-378 Z" stroke-width="0" fill="#205519" fill-opacity="0.4588235294117647" />
<path d="M642,-538 L126,-502 L294,-1082 L318,-738 L370,-1130 L438,-270 Z" stroke-width="0" fill="#1a0ab0" fill-opacity="0.6352941176470588" />
<path d="M474,-166 L594,-374 L810,-362 L486,-194 L298,-1030 L586,-318 Z" stroke-width="0" fill="#30290d" fill-opacity="0.24313725490196078" />
<path d="M158,-958 L802,-1302 L470,-154 L570,-258 L662,-534 L738,-782 Z" stroke-width="0" fill="#346e45" fill-opacity="0.5019607843137255" />
<path d="M118,-490 L238,-526 L162,-962 L98,-1270 L470,-154 L258,-1042 Z" stroke-width="0" fill="#0038e7" fill-opacity="0.09019607843137255" />
<path d="M226,-1070 L782,-442 L810,-742 L222,-670 L250,-246 L442,-802 Z" stroke-width="0" fill="#03233b" fill-opacity="0.7137254901960784" />
<path d="M246,-702 L350,-218 L318,-698 L602,-546 L642,-814 L178,-278 Z" stroke-width="0" fill="#087e9a" fill-opacity="0.09803921568627451" />
<path d="M566,-458 L598,-446 L214,-1174 L610,-762 L686,-674 L810,-270 Z" stroke-width="0" fill="#40542e" fill-opacity="0.4117647058823529" />
<path d="M306,-1150 L126,-1058 L114,-270 L386,-1202 L150,-570 L186,-762 Z" stroke-width="0" fill="#0c5cbc" fill-opacity="0.5764705882352941" />
<path d="M214,-954 L198,-702 L542,-638 L82,-758 L166,-686 L442,-902 Z" stroke-width="0" fill="#0c2c39" fill-opacity="0.611764705882353" />
<path d="M102,-474 L362,-330 L478,-414 L510,-262 L742,-230 L410,-202 Z" stroke-width="0" fill="#19d2ee" fill-opacity="0.1607843137254902" />
<path d="M542,-1010 L98,-538 L102,-226 L522,-410 L162,-1046 L682,-1218 Z" stroke-width="0" fill="#006cdf" fill-opacity="0.37254901960784315" />
<path d="M410,-1046 L646,-718 L154,-594 L426,-1042 L282,-818 L430,-370 Z" stroke-width="0" fill="#5c3129" fill-opacity="0.09803921568627451" />
<path d="M406,-1078 L330,-1206 L90,-82 L662,-102 L794,-386 L398,-1218 Z" stroke-width="0" fill="#005fad" fill-opacity="0.7176470588235294" />
<path d="M766,-1134 L530,-942 L566,-242 L738,-1198 L370,-390 L94,-694 Z" stroke-width="0" fill="#00329a" fill-opacity="0.23137254901960785" />
<path d="M458,-1090 L502,-1030 L106,-1074 L534,-1114 L554,-438 L122,-830 Z" stroke-width="0" fill="#238b46" fill-opacity="0.1843137254901961" />
<path d="M278,-890 L82,-102 L166,-498 L758,-1246 L542,-130 L126,-1246 Z" stroke-width="0" fill="#703e00" fill-opacity="0.1411764705882353" />
<path d="M582,-398 L466,-506 L286,-926 L86,-490 L166,-402 L630,-234 Z" stroke-width="0" fill="#007ef7" fill-opacity="0.3215686274509804" />
<path d="M538,-130 L606,-698 L730,-526 L198,-1050 L582,-250 L630,-750 Z" stroke-width="0" fill="#002e66" fill-opacity="0.1568627450980392" />
<path d="M382,-1078 L642,-714 L438,-878 L802,-722 L126,-162 L654,-1018 Z" stroke-width="0" fill="#25760b" fill-opacity="0.043137254901960784" />
<path d="M526,-698 L138,-786 L366,-546 L782,-114 L366,-902 L386,-670 Z" stroke-width="0" fill="#006cb1" fill-opacity="0.6784313725490196" />
<path d="M118,-734 L342,-1134 L694,-1026 L306,-306 L330,-370 L662,-234 Z" stroke-width="0" fill="#00c0cc" fill-opacity="0.16862745098039217" />
<path d="M766,-1058 L454,-946 L238,-1126 L618,-1098 L618,-418 L354,-282 Z" stroke-width="0" fill="#184044" fill-opacity="0.16470588235294117" />
<path d="M302,-1058 L682,-902 L282,-994 L374,-902 L382,-1302 L762,-1110 Z" stroke-width="0" fill="#1a5e8a" fill-opacity="0.3058823529411765" />
<path d="M722,-798 L238,-530 L678,-510 L318,-226 L270,-1246 L338,-722 Z" stroke-width="0" fill="#0d4967" fill-opacity="0.047058823529411764" />
<path d="M346,-194 L214,-862 L266,-530 L414,-1314 L562,-318 L162,-1102 Z" stroke-width="0" fill="#06678a" fill-opacity="0.8313725490196079" />
<path d="M634,-1038 L534,-726 L546,-742 L250,-486 L638,-882 L226,-610 Z" stroke-width="0" fill="#724065" fill-opacity="0.20392156862745098" />
<path d="M386,-614 L310,-1054 L310,-926 L266,-130 L698,-202 L378,-1186 Z" stroke-width="0" fill="#14f1b3" fill-opacity="0.13725490196078433" />
<path d="M606,-162 L190,-90 L218,-626 L206,-1294 L230,-1118 L350,-678 Z" stroke-width="0" fill="#0171ce" fill-opacity="0.37254901960784315" />
<path d="M110,-626 L502,-262 L126,-982 L362,-418 L594,-254 L698,-314 Z" stroke-width="0" fill="#328b40" fill-opacity="0.00392156862745098" />
<path d="M430,-1238 L678,-1006 L310,-1298 L154,-818 L86,-126 L618,-358 Z" stroke-width="0" fill="#006370" fill-opacity="0.35294117647058826" />
<path d="M330,-562 L718,-894 L386,-418 L622,-862 L206,-870 L466,-946 Z" stroke-width="0" fill="#063b2f" fill-opacity="0.1607843137254902" />
<path d="M294,-558 L670,-262 L298,-538 L442,-1154 L586,-638 L258,-422 Z" stroke-width="0" fill="#3d7967" fill-opacity="0.18823529411764706" />
<path d="M362,-158 L750,-414 L486,-406 L658,-558 L318,-666 L490,-730 Z" stroke-width="0" fill="#187781" fill-opacity="0.2196078431372549" />
<path d="M430,-606 L450,-1002 L358,-1290 L662,-1274 L102,-334 L434,-378 Z" stroke-width="0" fill="#006b91" fill-opacity="0.6980392156862745" />
<text x="448.0" y="0" font-size="70.0" fill="black" text-anchor="middle" transform="translate(0,17.5)">2 OF WATER</text>
</svg>