<?xml version="1.0" encoding="UTF-8"?>
<svg xmlns="http://www.w3.org/2000/svg" xmlns:xlink="http://www.w3.org/1999/xlink"
     width="275" height="375" viewBox="0 -350 275 375">
<defs>
</defs>
<rect x="15" y="-335" width="245" height="320" stroke="black" stroke-width="4" fill="white" />
<path d="M63,-199 L197,-141 L103,-295 L66,-98 L203,-296 L192,-245 Z" stroke-width="0" fill="#fbf9f3" fill-opacity="0.16470588235294117" />
<path d="M167,-105 L198,-305 L194,-250 L201,-208 L225,-137 L247,-152 Z" stroke-width="0" fill="#fdd8c5" fill-opacity="0.03137254901960784" />
<path d="M29,-61 L125,-138 L134,-67 L175,-166 L194,-106 L167,-154 Z" stroke-width="0" fill="#fe84ee" fill-opacity="0.0196078431372549" />
<path d="M47,-321 L100,-153 L94,-142 L207,-321 L51,-279 L239,-32 Z" stroke-width="0" fill="#f9fbf6" fill-opacity="0.2196078431372549" />
<path d="M89,-151 L239,-73 L241,-89 L200,-73 L247,-244 L114,-142 Z" stroke-width="0" fill="#babff2" fill-opacity="0.09411764705882353" />
<path d="M121,-110 L47,-212 L40,-61 L139,-208 L218,-120 L222,-73 Z" stroke-width="0" fill="#f6fce6" fill-opacity="0.07058823529411765" />
<path d="M236,-64 L217,-243 L245,-188 L126,-243 L211,-234 L114,-54 Z" stroke-width="0" fill="#dbd1e5" fill-opacity="0.0784313725490196" />
<path d="M51,-132 L72,-122 L178,-163 L147,-68 L165,-42 L42,-41 Z" stroke-width="0" fill="#f9ccf5" fill-opacity="0.14901960784313725" />
<path d="M86,-176 L181,-299 L35,-35 L99,-51 L124,-53 L67,-162 Z" stroke-width="0" fill="#fecdf6" fill-opacity="0.1843137254901961" />
<path d="M95,-86 L78,-310 L32,-174 L180,-168 L174,-280 L236,-126 Z" stroke-width="0" fill="#bef7ce" fill-opacity="0.21568627450980393" />
<path d="M67,-263 L177,-55 L186,-275 L89,-240 L69,-272 L47,-34 Z" stroke-width="0" fill="#eae4cc" fill-opacity="0.0784313725490196" />
<path d="M195,-211 L43,-75 L112,-77 L32,-88 L119,-33 L77,-245 Z" stroke-width="0" fill="#e2f6bf" fill-opacity="0.16862745098039217" />
<path d="M132,-242 L98,-274 L123,-51 L180,-260 L129,-25 L58,-97 Z" stroke-width="0" fill="#e4fc6d" fill-opacity="0.011764705882352941" />
<path d="M178,-105 L135,-314 L139,-297 L220,-300 L150,-305 L176,-218 Z" stroke-width="0" fill="#fce5d5" fill-opacity="0.054901960784313725" />
<path d="M81,-278 L111,-163 L188,-37 L51,-258 L216,-119 L123,-139 Z" stroke-width="0" fill="#961aef" fill-opacity="0.0" />
<path d="M38,-218 L202,-298 L168,-233 L163,-111 L244,-219 L118,-56 Z" stroke-width="0" fill="#dae4ec" fill-opacity="0.023529411764705882" />
<path d="M166,-27 L54,-32 L235,-100 L206,-202 L152,-196 L210,-63 Z" stroke-width="0" fill="#c47095" fill-opacity="0.06666666666666667" />
<path d="M81,-180 L231,-88 L188,-238 L130,-214 L85,-320 L94,-234 Z" stroke-width="0" fill="#fbf3ee" fill-opacity="0.1411764705882353" />
<path d="M109,-192 L142,-175 L131,-201 L158,-207 L204,-307 L62,-83 Z" stroke-width="0" fill="#f3f775" fill-opacity="0.03137254901960784" />
<path d="M38,-186 L210,-314 L38,-241 L102,-300 L78,-174 L87,-206 Z" stroke-width="0" fill="#ffe7fc" fill-opacity="0.10588235294117647" />
<path d="M150,-175 L134,-176 L92,-158 L26,-57 L196,-88 L159,-91 Z" stroke-width="0" fill="#e3f9f2" fill-opacity="0.15294117647058825" />
<path d="M173,-163 L233,-230 L116,-157 L203,-144 L210,-275 L213,-179 Z" stroke-width="0" fill="#e6fdd1" fill-opacity="0.03137254901960784" />
<path d="M186,-236 L171,-49 L166,-105 L68,-292 L33,-186 L123,-126 Z" stroke-width="0" fill="#bdf1e7" fill-opacity="0.03529411764705882" />
<path d="M144,-90 L166,-147 L150,-193 L31,-130 L130,-213 L105,-128 Z" stroke-width="0" fill="#c5fbdc" fill-opacity="0.023529411764705882" />
<path d="M211,-261 L83,-118 L95,-246 L177,-176 L150,-279 L63,-208 Z" stroke-width="0" fill="#ee0c00" fill-opacity="0.6470588235294118" />
<path d="M73,-230 L26,-303 L173,-120 L82,-224 L151,-183 L61,-145 Z" stroke-width="0" fill="#f8f6eb" fill-opacity="0.10588235294117647" />
<path d="M51,-310 L158,-41 L144,-105 L118,-79 L108,-27 L105,-110 Z" stroke-width="0" fill="#f0eee3" fill-opacity="0.03529411764705882" />
<path d="M167,-73 L163,-274 L237,-291 L99,-154 L135,-105 L184,-44 Z" stroke-width="0" fill="#e6f4e3" fill-opacity="0.050980392156862744" />
<path d="M164,-221 L91,-34 L32,-145 L41,-268 L153,-214 L145,-62 Z" stroke-width="0" fill="#d8fecf" fill-opacity="0.15294117647058825" />
<path d="M120,-71 L86,-231 L91,-191 L146,-226 L115,-123 L107,-276 Z" stroke-width="0" fill="#c7fff6" fill-opacity="0.7490196078431373" />
<path d="M121,-212 L239,-105 L73,-133 L109,-221 L233,-303 L45,-50 Z" stroke-width="0" fill="#e7f2ef" fill-opacity="0.043137254901960784" />
<path d="M219,-74 L97,-160 L54,-197 L215,-278 L60,-173 L247,-163 Z" stroke-width="0" fill="#e3a9fb" fill-opacity="0.15294117647058825" />
<path d="M52,-80 L53,-284 L108,-184 L64,-97 L199,-297 L48,-109 Z" stroke-width="0" fill="#faf6e9" fill-opacity="0.09411764705882353" />
<path d="M144,-42 L25,-264 L108,-85 L26,-65 L112,-313 L36,-314 Z" stroke-width="0" fill="#e79fe8" fill-opacity="0.011764705882352941" />
<path d="M249,-270 L148,-152 L35,-127 L75,-189 L99,-218 L160,-154 Z" stroke-width="0" fill="#d5cbfe" fill-opacity="0.12549019607843137" />
<path d="M42,-66 L31,-167 L37,-323 L173,-27 L156,-49 L193,-64 Z" stroke-width="0" fill="#feefe1" fill-opacity="0.1411764705882353" />
<path d="M164,-264 L70,-184 L92,-99 L228,-176 L174,-248 L26,-153 Z" stroke-width="0" fill="#eccbc1" fill-opacity="0.00784313725490196" />
<path d="M165,-321 L181,-130 L42,-55 L28,-192 L84,-41 L101,-324 Z" stroke-width="0" fill="#ebfede" fill-opacity="0.1803921568627451" />
<path d="M144,-220 L194,-42 L138,-310 L167,-106 L36,-174 L181,-50 Z" stroke-width="0" fill="#add5cc" fill-opacity="0.3058823529411765" />
<path d="M73,-234 L41,-267 L166,-217 L95,-135 L130,-173 L128,-201 Z" stroke-width="0" fill="#affafb" fill-opacity="0.12549019607843137" />
<path d="M245,-121 L215,-275 L59,-311 L174,-83 L127,-165 L96,-55 Z" stroke-width="0" fill="#d3f6d0" fill-opacity="0.027450980392156862" />
<path d="M135,-100 L132,-88 L37,-35 L233,-197 L79,-89 L203,-264 Z" stroke-width="0" fill="#dcfbeb" fill-opacity="0.07450980392156863" />
<path d="M247,-87 L26,-100 L205,-285 L127,-209 L235,-322 L71,-26 Z" stroke-width="0" fill="#f4f5bf" fill-opacity="0.07450980392156863" />
<path d="M62,-193 L168,-266 L119,-152 L69,-181 L53,-25 L124,-185 Z" stroke-width="0" fill="#fcf6ce" fill-opacity="0.023529411764705882" />
<path d="M110,-309 L244,-267 L181,-257 L90,-114 L127,-94 L231,-77 Z" stroke-width="0" fill="#f9e0e0" fill-opacity="0.12156862745098039" />
<path d="M165,-198 L69,-243 L193,-247 L127,-270 L64,-86 L25,-47 Z" stroke-width="0" fill="#e659ed" fill-opacity="0.03529411764705882" />
<path d="M63,-108 L84,-250 L108,-239 L118,-29 L95,-86 L80,-99 Z" stroke-width="0" fill="#f3ded8" fill-opacity="0.08627450980392157" />
<path d="M185,-168 L34,-263 L151,-114 L163,-183 L238,-203 L27,-130 Z" stroke-width="0" fill="#e7f8f3" fill-opacity="0.0392156862745098" />
<path d="M134,-235 L65,-279 L129,-54 L175,-104 L41,-216 L151,-190 Z" stroke-width="0" fill="#c33325" fill-opacity="0.0" />
<path d="M84,-119 L70,-98 L51,-307 L54,-84 L60,-268 L198,-269 Z" stroke-width="0" fill="#ecd7e2" fill-opacity="0.1607843137254902" />
<path d="M214,-164 L126,-187 L29,-107 L106,-224 L104,-114 L183,-86 Z" stroke-width="0" fill="#c6e16d" fill-opacity="0.0" />
<path d="M153,-79 L28,-179 L244,-93 L60,-247 L135,-234 L137,-204 Z" stroke-width="0" fill="#fff7ac" fill-opacity="0.596078431372549" />
<path d="M179,-314 L216,-307 L68,-301 L134,-169 L79,-158 L87,-133 Z" stroke-width="0" fill="#fdfdd4" fill-opacity="0.14901960784313725" />
<path d="M227,-265 L52,-235 L227,-114 L93,-101 L144,-124 L207,-297 Z" stroke-width="0" fill="#f0f0e3" fill-opacity="0.25098039215686274" />
<path d="M109,-172 L205,-314 L55,-120 L45,-101 L74,-266 L68,-137 Z" stroke-width="0" fill="#4ceee7" fill-opacity="0.054901960784313725" />
<path d="M88,-322 L36,-105 L171,-61 L245,-121 L215,-34 L170,-169 Z" stroke-width="0" fill="#c0ecf5" fill-opacity="0.06666666666666667" />
<path d="M135,-288 L183,-240 L114,-308 L45,-141 L240,-27 L68,-287 Z" stroke-width="0" fill="#c6dd52" fill-opacity="0.2196078431372549" />
<path d="M85,-143 L159,-91 L238,-146 L89,-246 L238,-176 L130,-76 Z" stroke-width="0" fill="#dffff8" fill-opacity="0.7843137254901961" />
<path d="M141,-316 L61,-59 L138,-226 L183,-186 L129,-170 L149,-320 Z" stroke-width="0" fill="#ecf8ed" fill-opacity="0.5019607843137255" />
<path d="M36,-125 L156,-286 L28,-225 L103,-56 L149,-231 L29,-118 Z" stroke-width="0" fill="#cca5f2" fill-opacity="0.12549019607843137" />
<path d="M25,-200 L47,-88 L180,-304 L155,-151 L123,-209 L236,-187 Z" stroke-width="0" fill="#d5fed9" fill-opacity="0.08235294117647059" />
<path d="M104,-143 L144,-193 L64,-147 L104,-64 L72,-198 L91,-26 Z" stroke-width="0" fill="#dbcfe1" fill-opacity="0.07450980392156863" />
<path d="M105,-235 L62,-104 L212,-45 L190,-71 L138,-137 L190,-282 Z" stroke-width="0" fill="#d7f3f6" fill-opacity="0.2627450980392157" />
<path d="M95,-32 L182,-263 L78,-115 L59,-214 L132,-197 L104,-219 Z" stroke-width="0" fill="#d7f4ff" fill-opacity="0.9921568627450981" />
<path d="M155,-35 L182,-60 L165,-33 L38,-245 L186,-139 L35,-171 Z" stroke-width="0" fill="#95f9d0" fill-opacity="0.10588235294117647" />
<path d="M213,-202 L245,-63 L235,-35 L38,-304 L125,-118 L90,-84 Z" stroke-width="0" fill="#cd9c94" fill-opacity="0.06666666666666667" />
<path d="M218,-130 L137,-57 L162,-277 L247,-51 L213,-134 L156,-107 Z" stroke-width="0" fill="#fbf2da" fill-opacity="0.9882352941176471" />
<path d="M143,-310 L88,-42 L39,-111 L244,-150 L62,-157 L113,-146 Z" stroke-width="0" fill="#f3fbf6" fill-opacity="0.10196078431372549" />
<path d="M228,-66 L241,-124 L212,-184 L92,-43 L174,-35 L121,-319 Z" stroke-width="0" fill="#fff0b4" fill-opacity="0.07058823529411765" />
<path d="M196,-95 L62,-83 L117,-91 L60,-40 L236,-170 L176,-217 Z" stroke-width="0" fill="#faede4" fill-opacity="0.2627450980392157" />
<path d="M195,-182 L102,-186 L127,-63 L78,-261 L152,-267 L93,-271 Z" stroke-width="0" fill="#f4dafb" fill-opacity="0.39215686274509803" />
<path d="M154,-273 L104,-212 L88,-114 L101,-240 L135,-162 L119,-263 Z" stroke-width="0" fill="#740702" fill-opacity="0.9803921568627451" />
<path d="M47,-90 L214,-179 L59,-130 L81,-167 L128,-119 L148,-130 Z" stroke-width="0" fill="#e8dff8" fill-opacity="0.592156862745098" />
<path d="M81,-165 L138,-101 L33,-181 L149,-183 L94,-258 L33,-166 Z" stroke-width="0" fill="#dff5ff" fill-opacity="0.403921568627451" />
<path d="M216,-304 L47,-86 L169,-249 L45,-280 L158,-211 L228,-43 Z" stroke-width="0" fill="#b4c779" fill-opacity="0.00392156862745098" />
<path d="M140,-257 L176,-134 L142,-209 L80,-66 L39,-236 L177,-305 Z" stroke-width="0" fill="#d9d9f4" fill-opacity="0.1803921568627451" />
<path d="M31,-302 L87,-189 L137,-180 L110,-320 L174,-201 L181,-259 Z" stroke-width="0" fill="#fbdeda" fill-opacity="0.043137254901960784" />
<path d="M39,-235 L224,-312 L214,-249 L26,-127 L32,-192 L52,-285 Z" stroke-width="0" fill="#e689fb" fill-opacity="0.1607843137254902" />
<path d="M27,-220 L72,-223 L29,-212 L166,-233 L240,-175 L106,-264 Z" stroke-width="0" fill="#befad6" fill-opacity="0.03529411764705882" />
<path d="M94,-55 L107,-73 L136,-321 L58,-196 L59,-290 L79,-261 Z" stroke-width="0" fill="#deedda" fill-opacity="0.1607843137254902" />
<path d="M128,-222 L81,-173 L36,-122 L33,-299 L79,-35 L122,-222 Z" stroke-width="0" fill="#f2b6ed" fill-opacity="0.10588235294117647" />
<path d="M55,-276 L94,-120 L219,-71 L46,-41 L58,-132 L179,-181 Z" stroke-width="0" fill="#e7fbb9" fill-opacity="0.43137254901960786" />
<path d="M57,-308 L58,-172 L107,-260 L198,-307 L75,-73 L223,-34 Z" stroke-width="0" fill="#ffcbdd" fill-opacity="0.07058823529411765" />
<path d="M132,-208 L167,-133 L192,-254 L111,-229 L30,-314 L130,-270 Z" stroke-width="0" fill="#d4eff6" fill-opacity="0.0784313725490196" />
<path d="M132,-181 L170,-323 L108,-209 L178,-69 L207,-202 L138,-77 Z" stroke-width="0" fill="#f3ffcb" fill-opacity="0.9803921568627451" />
<path d="M111,-192 L112,-148 L40,-30 L94,-119 L40,-179 L200,-222 Z" stroke-width="0" fill="#f0fdf4" fill-opacity="0.07058823529411765" />
<path d="M72,-179 L94,-49 L36,-118 L215,-165 L117,-105 L43,-44 Z" stroke-width="0" fill="#ffa9f5" fill-opacity="0.13333333333333333" />
<path d="M155,-87 L185,-141 L237,-60 L93,-110 L115,-62 L113,-55 Z" stroke-width="0" fill="#d7e4d4" fill-opacity="0.10196078431372549" />
<path d="M85,-64 L247,-140 L49,-288 L116,-32 L239,-92 L89,-308 Z" stroke-width="0" fill="#e0f7fe" fill-opacity="0.20392156862745098" />
<path d="M191,-71 L127,-99 L201,-113 L162,-249 L48,-165 L207,-280 Z" stroke-width="0" fill="#dee5f3" fill-opacity="0.30196078431372547" />
<path d="M85,-298 L36,-192 L99,-311 L37,-288 L139,-33 L120,-121 Z" stroke-width="0" fill="#e4ece7" fill-opacity="0.10588235294117647" />
<path d="M56,-269 L46,-166 L42,-128 L108,-67 L102,-147 L101,-261 Z" stroke-width="0" fill="#f4dcc1" fill-opacity="0.023529411764705882" />
<path d="M245,-293 L86,-79 L212,-25 L125,-284 L100,-170 L70,-166 Z" stroke-width="0" fill="#f4f1e2" fill-opacity="0.08627450980392157" />
<path d="M115,-294 L124,-183 L90,-88 L167,-84 L192,-227 L227,-89 Z" stroke-width="0" fill="#ffddd8" fill-opacity="0.5803921568627451" />
<path d="M114,-40 L103,-115 L88,-30 L174,-154 L216,-75 L149,-88 Z" stroke-width="0" fill="#f8e6db" fill-opacity="0.9019607843137255" />
<path d="M193,-153 L107,-192 L184,-36 L28,-185 L120,-244 L86,-46 Z" stroke-width="0" fill="#d9ebf2" fill-opacity="0.06666666666666667" />
<path d="M31,-96 L48,-220 L30,-223 L208,-170 L199,-51 L73,-152 Z" stroke-width="0" fill="#f7ca9f" fill-opacity="0.12941176470588237" />
<path d="M119,-175 L164,-224 L55,-270 L91,-158 L139,-152 L120,-49 Z" stroke-width="0" fill="#f0eddf" fill-opacity="0.11764705882352941" />
<path d="M145,-224 L90,-137 L75,-283 L144,-90 L29,-222 L244,-44 Z" stroke-width="0" fill="#a7e9fa" fill-opacity="0.027450980392156862" />
<path d="M192,-31 L42,-111 L202,-138 L244,-128 L30,-300 L172,-136 Z" stroke-width="0" fill="#c2f2bf" fill-opacity="0.5019607843137255" />
<text x="137.5" y="12.5" font-size="20.0" fill="black" text-anchor="middle" transform="translate(0,5.0)">8 OF WATER</text>
</svg>