<?xml version="1.0" encoding="UTF-8"?>
<svg xmlns="http://www.w3.org/2000/svg" xmlns:xlink="http://www.w3.org/1999/xlink"
     width="896" height="1496" viewBox="0 -1400 896 1496" style="font-size:70;font-family:Poor Richard, Times New Roman;stroke:black;stroke-width:1;fill:none">
<defs>
</defs>
<path d="M394,-426 L230,-234 L874,-406 L90,-1170 L662,-458 L198,-510 Z" stroke-width="0" fill="#16171d" fill-opacity="0.9176470588235294" />
<path d="M614,-110 L586,-334 L714,-1262 L858,-1002 L650,-150 L706,-594 Z" stroke-width="0" fill="#000004" fill-opacity="0.5215686274509804" />
<path d="M378,-550 L130,-830 L426,-170 L274,-1114 L822,-150 L346,-966 Z" stroke-width="0" fill="#009c4b" fill-opacity="0.5490196078431373" />
<path d="M742,-334 L142,-686 L914,-722 L238,-826 L202,-822 L822,-754 Z" stroke-width="0" fill="#f5b71a" fill-opacity="0.9333333333333333" />
<path d="M114,-690 L374,-170 L906,-998 L822,-310 L670,-350 L98,-418 Z" stroke-width="0" fill="#7c37e5" fill-opacity="0.6274509803921569" />
<path d="M770,-1122 L114,-674 L94,-318 L802,-170 L526,-670 L462,-230 Z" stroke-width="0" fill="#001100" fill-opacity="0.7647058823529411" />
<path d="M186,-418 L278,-586 L170,-298 L238,-342 L714,-862 L714,-1266 Z" stroke-width="0" fill="#050602" fill-opacity="0.6549019607843137" />
<path d="M898,-1270 L942,-830 L210,-1134 L614,-1214 L230,-1150 L570,-330 Z" stroke-width="0" fill="#04031c" fill-opacity="0.8352941176470589" />
<path d="M138,-314 L270,-198 L898,-654 L354,-1238 L750,-382 L914,-410 Z" stroke-width="0" fill="#a03300" fill-opacity="0.611764705882353" />
<path d="M730,-886 L642,-1162 L258,-142 L730,-82 L218,-210 L382,-386 Z" stroke-width="0" fill="#102926" fill-opacity="0.9568627450980393" />
<path d="M510,-214 L142,-230 L570,-538 L370,-406 L614,-538 L950,-858 Z" stroke-width="0" fill="#b5cfcf" fill-opacity="0.13333333333333333" />
<path d="M410,-102 L174,-466 L906,-262 L102,-466 L586,-150 L926,-922 Z" stroke-width="0" fill="#10293d" fill-opacity="0.7254901960784313" />
<path d="M606,-318 L926,-1198 L230,-454 L170,-382 L250,-690 L170,-942 Z" stroke-width="0" fill="#382323" fill-opacity="0.8705882352941177" />
<path d="M210,-242 L134,-1182 L894,-1166 L618,-1270 L954,-746 L454,-594 Z" stroke-width="0" fill="#130f1d" fill-opacity="0.8862745098039215" />
<path d="M878,-234 L790,-546 L298,-226 L266,-158 L478,-902 L978,-1122 Z" stroke-width="0" fill="#00021d" fill-opacity="0.8470588235294118" />
<path d="M90,-830 L598,-506 L382,-1062 L658,-170 L574,-178 L482,-166 Z" stroke-width="0" fill="#8bbaeb" fill-opacity="0.5098039215686274" />
<path d="M118,-130 L962,-994 L542,-974 L130,-850 L194,-326 L290,-878 Z" stroke-width="0" fill="#00190d" fill-opacity="0.8745098039215686" />
<path d="M746,-1010 L610,-114 L362,-154 L410,-574 L318,-634 L874,-318 Z" stroke-width="0" fill="#c0d5ff" fill-opacity="0.4392156862745098" />
<path d="M562,-1278 L354,-1214 L890,-682 L242,-1098 L294,-790 L614,-958 Z" stroke-width="0" fill="#100000" fill-opacity="0.7725490196078432" />
<path d="M546,-306 L246,-1226 L770,-182 L246,-718 L858,-758 L326,-882 Z" stroke-width="0" fill="#073d02" fill-opacity="0.9686274509803922" />
<path d="M318,-786 L430,-494 L962,-190 L410,-818 L566,-546 L666,-778 Z" stroke-width="0" fill="#96c69b" fill-opacity="0.5450980392156862" />
<path d="M370,-762 L114,-1166 L250,-794 L118,-430 L714,-554 L162,-1026 Z" stroke-width="0" fill="#0e1a15" fill-opacity="0.9058823529411765" />
<path d="M214,-1278 L846,-630 L402,-546 L426,-710 L454,-470 L734,-722 Z" stroke-width="0" fill="#060000" fill-opacity="0.7568627450980392" />
<path d="M666,-350 L866,-586 L402,-806 L162,-634 L330,-406 L526,-1058 Z" stroke-width="0" fill="#7ddf2f" fill-opacity="0.16470588235294117" />
<path d="M302,-1154 L734,-718 L618,-806 L626,-878 L178,-366 L266,-614 Z" stroke-width="0" fill="#0b0a01" fill-opacity="0.9647058823529412" />
<path d="M890,-538 L190,-578 L362,-1238 L210,-290 L154,-558 L906,-770 Z" stroke-width="0" fill="#46281b" fill-opacity="0.9764705882352941" />
<path d="M790,-806 L186,-526 L158,-1018 L238,-1258 L262,-1086 L638,-698 Z" stroke-width="0" fill="#2f2215" fill-opacity="0.9372549019607843" />
<path d="M674,-102 L598,-194 L738,-1214 L326,-478 L418,-646 L902,-270 Z" stroke-width="0" fill="#54147a" fill-opacity="0.5333333333333333" />
<path d="M386,-86 L610,-726 L734,-694 L330,-566 L486,-918 L274,-262 Z" stroke-width="0" fill="#29324c" fill-opacity="0.984313725490196" />
<path d="M382,-174 L194,-1002 L358,-98 L218,-90 L754,-1218 L662,-274 Z" stroke-width="0" fill="#000009" fill-opacity="0.803921568627451" />
<path d="M942,-1054 L490,-1238 L574,-302 L538,-474 L810,-114 L954,-134 Z" stroke-width="0" fill="#000000" fill-opacity="0.7843137254901961" />
<path d="M650,-158 L238,-978 L458,-578 L122,-234 L150,-254 L98,-830 Z" stroke-width="0" fill="#000000" fill-opacity="0.788235294117647" />
<path d="M178,-582 L214,-554 L130,-414 L302,-1002 L258,-582 L286,-506 Z" stroke-width="0" fill="#ec1f3e" fill-opacity="0.996078431372549" />
<path d="M630,-738 L138,-798 L198,-842 L750,-750 L286,-346 L158,-754 Z" stroke-width="0" fill="#0fec3d" fill-opacity="0.0784313725490196" />
<path d="M886,-414 L194,-1042 L354,-478 L442,-1206 L330,-110 L678,-730 Z" stroke-width="0" fill="#283b93" fill-opacity="0.027450980392156862" />
<path d="M742,-598 L850,-550 L410,-146 L198,-1178 L190,-1086 L590,-506 Z" stroke-width="0" fill="#6d5ca0" fill-opacity="0.8784313725490196" />
<path d="M482,-722 L842,-878 L706,-310 L254,-954 L294,-82 L746,-306 Z" stroke-width="0" fill="#312f40" fill-opacity="0.8196078431372549" />
<path d="M838,-578 L630,-934 L418,-1210 L342,-206 L818,-398 L162,-198 Z" stroke-width="0" fill="#7d070f" fill-opacity="0.24313725490196078" />
<path d="M770,-570 L358,-234 L414,-294 L662,-394 L118,-1030 L642,-1222 Z" stroke-width="0" fill="#435b3f" fill-opacity="0.8352941176470589" />
<path d="M498,-246 L838,-786 L954,-166 L910,-806 L582,-290 L638,-1090 Z" stroke-width="0" fill="#001028" fill-opacity="0.41568627450980394" />
<path d="M106,-1230 L946,-526 L934,-1130 L278,-482 L334,-170 L798,-558 Z" stroke-width="0" fill="#332b32" fill-opacity="0.8509803921568627" />
<path d="M338,-374 L222,-586 L386,-938 L110,-502 L166,-106 L546,-1250 Z" stroke-width="0" fill="#2b2137" fill-opacity="0.9411764705882353" />
<path d="M446,-546 L414,-166 L794,-350 L894,-562 L142,-1118 L146,-182 Z" stroke-width="0" fill="#213742" fill-opacity="0.8823529411764706" />
<path d="M174,-262 L914,-1254 L470,-622 L774,-862 L442,-822 L470,-138 Z" stroke-width="0" fill="#16c069" fill-opacity="0.9607843137254902" />
<path d="M962,-726 L322,-142 L342,-1130 L210,-1114 L938,-766 L358,-558 Z" stroke-width="0" fill="#18124f" fill-opacity="0.8" />
<path d="M874,-450 L526,-86 L562,-714 L550,-1006 L618,-830 L450,-630 Z" stroke-width="0" fill="#043c11" fill-opacity="0.8274509803921568" />
<path d="M618,-946 L466,-122 L422,-886 L858,-330 L938,-626 L666,-1158 Z" stroke-width="0" fill="#121800" fill-opacity="0.0784313725490196" />
<path d="M558,-886 L130,-334 L730,-1190 L826,-398 L618,-158 L210,-874 Z" stroke-width="0" fill="#a42c0b" fill-opacity="0.2235294117647059" />
<path d="M314,-834 L194,-606 L822,-106 L594,-1022 L914,-714 L554,-122 Z" stroke-width="0" fill="#57373f" fill-opacity="0.9254901960784314" />
<path d="M114,-574 L402,-574 L186,-134 L250,-398 L722,-182 L170,-862 Z" stroke-width="0" fill="#144828" fill-opacity="0.8392156862745098" />
<path d="M122,-770 L378,-318 L650,-170 L230,-102 L674,-890 L898,-374 Z" stroke-width="0" fill="#486883" fill-opacity="0.06274509803921569" />
<path d="M154,-1118 L350,-394 L922,-1234 L566,-1218 L138,-390 L134,-562 Z" stroke-width="0" fill="#340721" fill-opacity="0.7843137254901961" />
<path d="M898,-1226 L902,-162 L882,-322 L250,-514 L510,-1050 L142,-134 Z" stroke-width="0" fill="#2f4970" fill-opacity="0.29411764705882354" />
<path d="M534,-1210 L694,-538 L114,-526 L806,-286 L654,-94 L86,-194 Z" stroke-width="0" fill="#46253e" fill-opacity="0.8313725490196079" />
<path d="M526,-566 L878,-746 L950,-346 L150,-974 L282,-1034 L730,-1262 Z" stroke-width="0" fill="#273d4d" fill-opacity="0.5725490196078431" />
<path d="M830,-1162 L814,-614 L562,-374 L202,-238 L422,-658 L218,-1126 Z" stroke-width="0" fill="#01c123" fill-opacity="0.16470588235294117" />
<path d="M442,-890 L418,-946 L566,-478 L466,-650 L338,-390 L322,-1214 Z" stroke-width="0" fill="#3a110b" fill-opacity="0.9372549019607843" />
<path d="M534,-194 L530,-274 L382,-906 L98,-1138 L710,-1154 L978,-654 Z" stroke-width="0" fill="#492b0d" fill-opacity="0.8823529411764706" />
<path d="M286,-554 L618,-234 L622,-322 L262,-622 L658,-742 L414,-1018 Z" stroke-width="0" fill="#f20d23" fill-opacity="0.023529411764705882" />
<path d="M574,-210 L114,-230 L978,-866 L290,-102 L662,-886 L314,-578 Z" stroke-width="0" fill="#563e2f" fill-opacity="0.7843137254901961" />
<path d="M98,-602 L198,-546 L754,-794 L726,-110 L362,-510 L266,-958 Z" stroke-width="0" fill="#594362" fill-opacity="0.38823529411764707" />
<path d="M354,-242 L90,-370 L370,-446 L134,-202 L810,-86 L702,-642 Z" stroke-width="0" fill="#102124" fill-opacity="0.7529411764705882" />
<path d="M850,-422 L598,-530 L426,-874 L766,-122 L466,-1094 L846,-118 Z" stroke-width="0" fill="#002847" fill-opacity="0.5215686274509804" />
<path d="M970,-978 L250,-222 L266,-546 L326,-1182 L486,-862 L838,-142 Z" stroke-width="0" fill="#9d4438" fill-opacity="0.6235294117647059" />
<path d="M246,-406 L694,-978 L434,-970 L142,-1158 L526,-858 L146,-134 Z" stroke-width="0" fill="#292d3d" fill-opacity="0.8313725490196079" />
<path d="M534,-134 L882,-754 L510,-662 L446,-142 L130,-90 L838,-666 Z" stroke-width="0" fill="#2a2741" fill-opacity="0.9607843137254902" />
<path d="M794,-1138 L914,-966 L354,-834 L530,-282 L342,-202 L334,-342 Z" stroke-width="0" fill="#04236a" fill-opacity="0.12941176470588237" />
<path d="M130,-338 L846,-714 L850,-1278 L206,-874 L622,-182 L870,-790 Z" stroke-width="0" fill="#2b2e3d" fill-opacity="0.9725490196078431" />
<path d="M922,-534 L298,-758 L202,-510 L418,-410 L874,-506 L926,-330 Z" stroke-width="0" fill="#3b251d" fill-opacity="0.7254901960784313" />
<path d="M550,-1250 L590,-482 L282,-1034 L882,-138 L878,-1114 L874,-442 Z" stroke-width="0" fill="#2d455a" fill-opacity="0.20784313725490197" />
<path d="M406,-1138 L506,-306 L958,-322 L158,-166 L794,-470 L782,-482 Z" stroke-width="0" fill="#253612" fill-opacity="0.5686274509803921" />
<path d="M950,-350 L502,-1178 L886,-198 L578,-626 L898,-230 L258,-778 Z" stroke-width="0" fill="#1b7821" fill-opacity="0.5647058823529412" />
<path d="M374,-450 L102,-406 L890,-286 L202,-1218 L478,-738 L122,-482 Z" stroke-width="0" fill="#332a3e" fill-opacity="0.9137254901960784" />
<path d="M458,-374 L506,-1138 L414,-458 L166,-254 L974,-198 L330,-278 Z" stroke-width="0" fill="#273a1f" fill-opacity="0.5568627450980392" />
<path d="M274,-194 L350,-686 L374,-746 L682,-454 L570,-634 L742,-182 Z" stroke-width="0" fill="#1c2d78" fill-opacity="0.3137254901960784" />
<path d="M582,-906 L946,-434 L922,-810 L242,-386 L454,-358 L686,-1162 Z" stroke-width="0" fill="#b4a150" fill-opacity="0.00784313725490196" />
<path d="M406,-850 L554,-418 L630,-826 L398,-346 L642,-810 L342,-382 Z" stroke-width="0" fill="#030652" fill-opacity="0.6078431372549019" />
<path d="M494,-934 L202,-978 L310,-782 L262,-230 L706,-830 L318,-326 Z" stroke-width="0" fill="#172645" fill-opacity="0.5098039215686274" />
<path d="M738,-802 L638,-454 L874,-526 L602,-366 L306,-838 L90,-942 Z" stroke-width="0" fill="#e878e5" fill-opacity="0.7254901960784313" />
<path d="M374,-646 L814,-270 L378,-266 L926,-542 L670,-1114 L470,-358 Z" stroke-width="0" fill="#523138" fill-opacity="0.07450980392156863" />
<path d="M158,-966 L190,-1130 L298,-90 L86,-470 L322,-342 L574,-766 Z" stroke-width="0" fill="#2b313c" fill-opacity="0.7686274509803922" />
<path d="M94,-650 L286,-798 L466,-1206 L90,-1050 L702,-342 L602,-486 Z" stroke-width="0" fill="#272d36" fill-opacity="0.8784313725490196" />
<path d="M354,-86 L774,-542 L390,-1014 L894,-706 L458,-226 L626,-618 Z" stroke-width="0" fill="#637616" fill-opacity="0.2549019607843137" />
<path d="M622,-154 L698,-418 L454,-998 L370,-174 L474,-850 L506,-1046 Z" stroke-width="0" fill="#2a1f3c" fill-opacity="0.03137254901960784" />
<path d="M82,-846 L522,-382 L702,-958 L450,-1230 L226,-910 L322,-742 Z" stroke-width="0" fill="#4e253c" fill-opacity="0.5019607843137255" />
<path d="M418,-482 L386,-1122 L402,-462 L138,-986 L654,-230 L622,-210 Z" stroke-width="0" fill="#070000" fill-opacity="0.20784313725490197" />
<path d="M442,-814 L418,-942 L294,-994 L438,-266 L526,-842 L254,-342 Z" stroke-width="0" fill="#000000" fill-opacity="0.396078431372549" />
<path d="M406,-194 L482,-626 L182,-1254 L574,-1250 L670,-458 L378,-698 Z" stroke-width="0" fill="#183457" fill-opacity="0.48627450980392156" />
<path d="M458,-202 L358,-454 L598,-1026 L434,-238 L934,-822 L754,-1022 Z" stroke-width="0" fill="#f08e33" fill-opacity="0.21568627450980393" />
<path d="M934,-746 L362,-730 L82,-1110 L110,-990 L218,-814 L218,-654 Z" stroke-width="0" fill="#22323f" fill-opacity="0.9294117647058824" />
<path d="M202,-1122 L706,-754 L954,-642 L914,-406 L558,-402 L802,-470 Z" stroke-width="0" fill="#583680" fill-opacity="0.36470588235294116" />
<path d="M618,-374 L846,-974 L354,-670 L386,-238 L258,-486 L682,-1050 Z" stroke-width="0" fill="#cf5090" fill-opacity="0.1843137254901961" />
<path d="M358,-126 L690,-1170 L930,-846 L470,-134 L246,-154 L646,-130 Z" stroke-width="0" fill="#dfd415" fill-opacity="0.027450980392156862" />
<path d="M398,-526 L822,-174 L766,-594 L918,-1038 L274,-510 L158,-658 Z" stroke-width="0" fill="#bf944b" fill-opacity="0.1607843137254902" />
<path d="M794,-470 L822,-814 L542,-326 L770,-978 L606,-218 L178,-1114 Z" stroke-width="0" fill="#515c49" fill-opacity="0.23529411764705882" />
<path d="M230,-1250 L438,-678 L322,-626 L590,-514 L642,-346 L710,-650 Z" stroke-width="0" fill="#74dccf" fill-opacity="0.2901960784313726" />
<path d="M822,-1074 L938,-94 L946,-86 L650,-394 L94,-218 L802,-654 Z" stroke-width="0" fill="#252531" fill-opacity="0.592156862745098" />
<path d="M934,-502 L514,-246 L194,-574 L610,-250 L674,-606 L318,-982 Z" stroke-width="0" fill="#b7dd5c" fill-opacity="0.047058823529411764" />
<path d="M250,-174 L138,-910 L238,-626 L926,-1006 L310,-454 L238,-582 Z" stroke-width="0" fill="#561e3c" fill-opacity="0.1607843137254902" />
<path d="M106,-298 L210,-990 L530,-250 L590,-786 L502,-358 L938,-566 Z" stroke-width="0" fill="#1a373f" fill-opacity="0.5686274509803921" />
<text x="448.0" y="0" font-size="70.0" fill="black" text-anchor="middle" transform="translate(0,17.5)">10 OF WATER</text>
</svg>