<?xml version="1.0" encoding="UTF-8"?>
<svg xmlns="http://www.w3.org/2000/svg" xmlns:xlink="http://www.w3.org/1999/xlink"
     width="275" height="375" viewBox="0 -350 275 375">
<defs>
</defs>
<rect x="15" y="-335" width="245" height="320" stroke="black" stroke-width="4" fill="white" />
<path d="M174,-95 L49,-157 L205,-116 L106,-232 L34,-174 L62,-51 Z" stroke-width="0" fill="#bca900" fill-opacity="0.788235294117647" />
<path d="M230,-27 L202,-276 L169,-230 L203,-250 L242,-36 L160,-150 Z" stroke-width="0" fill="#000000" fill-opacity="0.8470588235294118" />
<path d="M36,-161 L136,-43 L96,-104 L212,-192 L74,-186 L217,-148 Z" stroke-width="0" fill="#810600" fill-opacity="0.5686274509803921" />
<path d="M163,-324 L71,-105 L154,-42 L65,-58 L60,-65 L245,-294 Z" stroke-width="0" fill="#9fdf49" fill-opacity="0.2901960784313726" />
<path d="M107,-102 L96,-113 L95,-258 L131,-211 L196,-141 L75,-94 Z" stroke-width="0" fill="#345c07" fill-opacity="0.5647058823529412" />
<path d="M202,-322 L36,-143 L224,-197 L109,-42 L71,-302 L133,-301 Z" stroke-width="0" fill="#004c51" fill-opacity="0.25098039215686274" />
<path d="M29,-70 L189,-204 L60,-111 L180,-164 L98,-65 L247,-34 Z" stroke-width="0" fill="#000000" fill-opacity="0.9254901960784314" />
<path d="M98,-114 L222,-228 L51,-56 L81,-152 L98,-190 L83,-160 Z" stroke-width="0" fill="#0ae6d2" fill-opacity="0.3058823529411765" />
<path d="M196,-181 L116,-214 L206,-105 L170,-73 L247,-189 L117,-230 Z" stroke-width="0" fill="#244a00" fill-opacity="0.8784313725490196" />
<path d="M124,-273 L187,-190 L50,-127 L187,-78 L78,-154 L189,-119 Z" stroke-width="0" fill="#1fbd57" fill-opacity="0.49019607843137253" />
<path d="M33,-161 L25,-37 L39,-264 L198,-81 L98,-202 L72,-236 Z" stroke-width="0" fill="#060300" fill-opacity="0.7019607843137254" />
<path d="M144,-112 L244,-160 L225,-245 L245,-139 L235,-293 L63,-67 Z" stroke-width="0" fill="#308300" fill-opacity="0.396078431372549" />
<path d="M119,-101 L117,-292 L198,-251 L170,-46 L240,-123 L95,-223 Z" stroke-width="0" fill="#e09711" fill-opacity="0.9882352941176471" />
<path d="M60,-148 L43,-42 L232,-287 L50,-46 L65,-44 L194,-278 Z" stroke-width="0" fill="#00002d" fill-opacity="0.8470588235294118" />
<path d="M106,-114 L82,-52 L184,-270 L130,-39 L83,-39 L245,-224 Z" stroke-width="0" fill="#c6c3b0" fill-opacity="0.8196078431372549" />
<path d="M191,-211 L81,-206 L134,-311 L237,-37 L79,-117 L71,-52 Z" stroke-width="0" fill="#1d0019" fill-opacity="0.8313725490196079" />
<path d="M109,-43 L59,-114 L144,-247 L125,-58 L54,-225 L58,-174 Z" stroke-width="0" fill="#6210b9" fill-opacity="0.7490196078431373" />
<path d="M97,-176 L231,-178 L63,-152 L243,-309 L194,-157 L114,-63 Z" stroke-width="0" fill="#135459" fill-opacity="0.5725490196078431" />
<path d="M119,-214 L163,-176 L206,-255 L155,-107 L119,-63 L117,-104 Z" stroke-width="0" fill="#f0fced" fill-opacity="0.9176470588235294" />
<path d="M208,-41 L89,-126 L176,-188 L167,-50 L83,-81 L94,-79 Z" stroke-width="0" fill="#000000" fill-opacity="0.8980392156862745" />
<path d="M85,-200 L123,-205 L63,-303 L54,-39 L68,-198 L26,-190 Z" stroke-width="0" fill="#080031" fill-opacity="0.8823529411764706" />
<path d="M149,-197 L190,-258 L75,-210 L146,-51 L57,-101 L97,-229 Z" stroke-width="0" fill="#8000ab" fill-opacity="0.7176470588235294" />
<path d="M207,-42 L241,-154 L64,-247 L47,-52 L237,-285 L98,-283 Z" stroke-width="0" fill="#7e3e0f" fill-opacity="0.7372549019607844" />
<path d="M124,-48 L107,-192 L128,-220 L157,-149 L25,-46 L85,-76 Z" stroke-width="0" fill="#000000" fill-opacity="0.5764705882352941" />
<path d="M48,-195 L118,-133 L200,-93 L175,-100 L131,-228 L223,-63 Z" stroke-width="0" fill="#e89c01" fill-opacity="0.4196078431372549" />
<path d="M69,-189 L87,-65 L59,-253 L190,-46 L163,-121 L228,-37 Z" stroke-width="0" fill="#341c12" fill-opacity="0.6666666666666666" />
<path d="M124,-67 L103,-108 L87,-101 L194,-130 L49,-104 L77,-318 Z" stroke-width="0" fill="#000000" fill-opacity="0.8274509803921568" />
<path d="M85,-103 L113,-314 L193,-139 L238,-193 L120,-32 L43,-286 Z" stroke-width="0" fill="#001a2f" fill-opacity="0.8823529411764706" />
<path d="M111,-282 L84,-143 L61,-195 L79,-192 L104,-175 L122,-58 Z" stroke-width="0" fill="#48e9b0" fill-opacity="0.09019607843137255" />
<path d="M155,-203 L162,-215 L219,-80 L66,-141 L44,-305 L113,-71 Z" stroke-width="0" fill="#001600" fill-opacity="0.796078431372549" />
<path d="M55,-74 L143,-247 L234,-253 L107,-233 L242,-124 L77,-63 Z" stroke-width="0" fill="#e87231" fill-opacity="0.9058823529411765" />
<path d="M118,-187 L45,-253 L166,-163 L226,-229 L174,-159 L228,-197 Z" stroke-width="0" fill="#f7b2f8" fill-opacity="0.6823529411764706" />
<path d="M30,-237 L232,-161 L76,-112 L159,-209 L49,-143 L229,-126 Z" stroke-width="0" fill="#030021" fill-opacity="0.7294117647058823" />
<path d="M60,-249 L94,-188 L163,-51 L227,-225 L25,-132 L173,-131 Z" stroke-width="0" fill="#352a17" fill-opacity="0.9215686274509803" />
<path d="M124,-174 L53,-109 L67,-309 L239,-255 L62,-156 L143,-317 Z" stroke-width="0" fill="#001145" fill-opacity="0.8666666666666667" />
<path d="M114,-178 L150,-309 L175,-73 L150,-128 L66,-210 L206,-171 Z" stroke-width="0" fill="#a6061b" fill-opacity="0.19215686274509805" />
<path d="M116,-92 L132,-162 L221,-162 L170,-130 L192,-239 L32,-33 Z" stroke-width="0" fill="#040011" fill-opacity="0.9764705882352941" />
<path d="M37,-254 L232,-183 L155,-167 L168,-33 L166,-228 L31,-240 Z" stroke-width="0" fill="#03002b" fill-opacity="0.7294117647058823" />
<path d="M64,-224 L85,-277 L244,-272 L209,-257 L69,-33 L39,-173 Z" stroke-width="0" fill="#bca1b3" fill-opacity="0.8549019607843137" />
<path d="M127,-119 L144,-29 L132,-218 L216,-228 L37,-51 L138,-78 Z" stroke-width="0" fill="#000008" fill-opacity="0.984313725490196" />
<path d="M28,-82 L102,-56 L139,-226 L227,-93 L94,-201 L220,-320 Z" stroke-width="0" fill="#d2dc84" fill-opacity="0.5450980392156862" />
<path d="M117,-91 L56,-297 L77,-51 L51,-122 L94,-156 L246,-159 Z" stroke-width="0" fill="#000017" fill-opacity="0.9019607843137255" />
<path d="M161,-78 L32,-107 L230,-169 L123,-89 L55,-166 L80,-110 Z" stroke-width="0" fill="#050000" fill-opacity="0.9176470588235294" />
<path d="M152,-173 L223,-278 L115,-57 L179,-228 L217,-268 L178,-53 Z" stroke-width="0" fill="#9dfa8c" fill-opacity="0.7647058823529411" />
<path d="M181,-223 L203,-181 L109,-236 L156,-83 L70,-32 L79,-90 Z" stroke-width="0" fill="#1300ed" fill-opacity="0.9568627450980393" />
<path d="M166,-66 L43,-95 L51,-132 L34,-166 L167,-317 L88,-159 Z" stroke-width="0" fill="#1b2f51" fill-opacity="0.3568627450980392" />
<path d="M63,-119 L57,-205 L120,-171 L28,-64 L217,-121 L64,-42 Z" stroke-width="0" fill="#5a001b" fill-opacity="0.996078431372549" />
<path d="M129,-161 L102,-310 L248,-284 L219,-143 L52,-305 L105,-59 Z" stroke-width="0" fill="#00c7e3" fill-opacity="0.4588235294117647" />
<path d="M31,-242 L177,-27 L39,-32 L91,-99 L46,-55 L160,-195 Z" stroke-width="0" fill="#000000" fill-opacity="0.9019607843137255" />
<path d="M180,-269 L82,-76 L160,-276 L84,-84 L95,-311 L139,-241 Z" stroke-width="0" fill="#000535" fill-opacity="0.9215686274509803" />
<path d="M39,-79 L43,-228 L189,-289 L177,-208 L86,-135 L179,-65 Z" stroke-width="0" fill="#347c81" fill-opacity="0.8862745098039215" />
<path d="M181,-274 L60,-269 L42,-304 L126,-34 L113,-92 L131,-106 Z" stroke-width="0" fill="#052e71" fill-opacity="0.7019607843137254" />
<path d="M63,-63 L210,-86 L130,-308 L191,-216 L114,-220 L109,-139 Z" stroke-width="0" fill="#e39ead" fill-opacity="0.29411764705882354" />
<path d="M158,-32 L237,-162 L231,-194 L130,-292 L69,-203 L154,-111 Z" stroke-width="0" fill="#03021e" fill-opacity="0.6196078431372549" />
<path d="M195,-284 L68,-121 L116,-54 L33,-107 L177,-34 L154,-265 Z" stroke-width="0" fill="#100000" fill-opacity="0.9764705882352941" />
<path d="M116,-51 L165,-77 L98,-184 L211,-190 L141,-25 L246,-28 Z" stroke-width="0" fill="#0c0a13" fill-opacity="0.9882352941176471" />
<path d="M119,-92 L139,-203 L138,-306 L159,-186 L112,-166 L33,-123 Z" stroke-width="0" fill="#5d73b4" fill-opacity="0.33725490196078434" />
<path d="M83,-197 L47,-130 L228,-226 L64,-234 L39,-64 L108,-257 Z" stroke-width="0" fill="#00005a" fill-opacity="0.8980392156862745" />
<path d="M124,-203 L30,-176 L202,-196 L65,-55 L230,-266 L203,-107 Z" stroke-width="0" fill="#6ee0bc" fill-opacity="0.8862745098039215" />
<path d="M226,-320 L137,-260 L84,-57 L54,-281 L82,-153 L46,-296 Z" stroke-width="0" fill="#665b0b" fill-opacity="0.3686274509803922" />
<path d="M155,-83 L84,-165 L31,-247 L96,-36 L136,-246 L52,-118 Z" stroke-width="0" fill="#1f3164" fill-opacity="0.6509803921568628" />
<path d="M114,-59 L115,-221 L137,-69 L119,-135 L146,-276 L220,-89 Z" stroke-width="0" fill="#c0f40a" fill-opacity="0.2823529411764706" />
<path d="M239,-187 L88,-108 L52,-252 L239,-310 L64,-113 L211,-107 Z" stroke-width="0" fill="#74d960" fill-opacity="0.37254901960784315" />
<path d="M232,-42 L247,-275 L38,-188 L150,-85 L70,-195 L175,-321 Z" stroke-width="0" fill="#dfd578" fill-opacity="0.5019607843137255" />
<path d="M83,-93 L110,-308 L123,-222 L210,-320 L232,-76 L171,-73 Z" stroke-width="0" fill="#f2a7dc" fill-opacity="0.1568627450980392" />
<path d="M175,-65 L166,-112 L108,-313 L131,-31 L134,-60 L48,-66 Z" stroke-width="0" fill="#120531" fill-opacity="0.6078431372549019" />
<path d="M179,-132 L43,-116 L42,-229 L182,-161 L85,-100 L152,-153 Z" stroke-width="0" fill="#3c472c" fill-opacity="0.8431372549019608" />
<path d="M195,-115 L229,-231 L121,-29 L146,-241 L53,-208 L63,-56 Z" stroke-width="0" fill="#221289" fill-opacity="0.011764705882352941" />
<path d="M59,-178 L124,-52 L172,-312 L46,-160 L85,-99 L116,-35 Z" stroke-width="0" fill="#7597a4" fill-opacity="0.5019607843137255" />
<path d="M152,-143 L81,-98 L246,-191 L160,-198 L168,-245 L180,-55 Z" stroke-width="0" fill="#6a6f14" fill-opacity="0.7176470588235294" />
<path d="M249,-73 L98,-148 L190,-230 L132,-135 L208,-158 L116,-238 Z" stroke-width="0" fill="#734e27" fill-opacity="0.7764705882352941" />
<path d="M100,-233 L58,-240 L102,-246 L104,-106 L169,-119 L73,-90 Z" stroke-width="0" fill="#8117bd" fill-opacity="0.1803921568627451" />
<path d="M47,-51 L46,-42 L128,-94 L104,-67 L174,-263 L177,-237 Z" stroke-width="0" fill="#18004d" fill-opacity="0.396078431372549" />
<path d="M115,-50 L63,-112 L220,-179 L87,-250 L181,-45 L98,-271 Z" stroke-width="0" fill="#0a2200" fill-opacity="0.28627450980392155" />
<path d="M85,-41 L129,-130 L158,-233 L108,-86 L247,-112 L98,-298 Z" stroke-width="0" fill="#386a80" fill-opacity="0.23921568627450981" />
<path d="M109,-263 L58,-188 L126,-39 L162,-43 L238,-120 L181,-150 Z" stroke-width="0" fill="#b33c48" fill-opacity="0.1568627450980392" />
<path d="M72,-207 L158,-233 L45,-146 L190,-46 L189,-313 L28,-51 Z" stroke-width="0" fill="#e9fae1" fill-opacity="0.32941176470588235" />
<path d="M178,-164 L117,-35 L65,-72 L66,-281 L153,-29 L142,-71 Z" stroke-width="0" fill="#290024" fill-opacity="0.5019607843137255" />
<path d="M249,-130 L174,-39 L58,-151 L214,-235 L127,-190 L35,-247 Z" stroke-width="0" fill="#f1b500" fill-opacity="0.1607843137254902" />
<path d="M94,-141 L62,-251 L141,-39 L43,-260 L183,-278 L164,-164 Z" stroke-width="0" fill="#bdecdc" fill-opacity="0.10588235294117647" />
<path d="M122,-75 L170,-43 L69,-141 L107,-101 L228,-43 L100,-175 Z" stroke-width="0" fill="#8d0000" fill-opacity="0.13725490196078433" />
<path d="M98,-97 L104,-190 L227,-239 L75,-155 L186,-252 L219,-237 Z" stroke-width="0" fill="#fbe5dd" fill-opacity="0.5882352941176471" />
<path d="M161,-51 L204,-265 L183,-52 L110,-54 L129,-153 L30,-216 Z" stroke-width="0" fill="#161700" fill-opacity="0.20784313725490197" />
<path d="M193,-241 L109,-197 L49,-289 L94,-302 L81,-132 L96,-55 Z" stroke-width="0" fill="#000739" fill-opacity="0.47843137254901963" />
<path d="M237,-116 L30,-131 L91,-104 L180,-258 L135,-264 L199,-240 Z" stroke-width="0" fill="#746c22" fill-opacity="0.3686274509803922" />
<path d="M112,-249 L41,-117 L27,-184 L136,-40 L113,-200 L137,-324 Z" stroke-width="0" fill="#1a2a46" fill-opacity="0.6431372549019608" />
<path d="M86,-244 L135,-56 L142,-77 L127,-25 L134,-113 L98,-43 Z" stroke-width="0" fill="#0b0000" fill-opacity="0.5019607843137255" />
<path d="M94,-230 L95,-224 L215,-200 L168,-27 L118,-168 L68,-87 Z" stroke-width="0" fill="#160030" fill-opacity="0.32941176470588235" />
<path d="M85,-44 L119,-284 L242,-282 L188,-171 L97,-233 L209,-151 Z" stroke-width="0" fill="#ccd29f" fill-opacity="0.2235294117647059" />
<path d="M77,-138 L56,-319 L40,-164 L29,-34 L59,-196 L37,-145 Z" stroke-width="0" fill="#375325" fill-opacity="0.8627450980392157" />
<path d="M40,-323 L206,-225 L156,-178 L194,-69 L102,-284 L142,-253 Z" stroke-width="0" fill="#e6e9f5" fill-opacity="0.09803921568627451" />
<path d="M28,-288 L150,-34 L67,-299 L113,-29 L41,-119 L232,-66 Z" stroke-width="0" fill="#4f3a46" fill-opacity="0.8705882352941177" />
<path d="M158,-106 L120,-171 L177,-103 L215,-127 L64,-230 L55,-252 Z" stroke-width="0" fill="#cc9056" fill-opacity="0.5803921568627451" />
<path d="M100,-51 L231,-135 L52,-232 L57,-158 L38,-57 L170,-97 Z" stroke-width="0" fill="#8e6226" fill-opacity="0.5019607843137255" />
<path d="M87,-30 L91,-53 L127,-66 L142,-239 L158,-319 L75,-29 Z" stroke-width="0" fill="#3e0e00" fill-opacity="0.15294117647058825" />
<path d="M82,-125 L55,-235 L196,-149 L96,-57 L235,-59 L87,-127 Z" stroke-width="0" fill="#152a24" fill-opacity="0.5607843137254902" />
<path d="M232,-198 L58,-54 L40,-109 L53,-87 L132,-188 L177,-129 Z" stroke-width="0" fill="#04001a" fill-opacity="0.38823529411764707" />
<path d="M81,-35 L152,-265 L77,-67 L209,-25 L140,-231 L233,-258 Z" stroke-width="0" fill="#55452f" fill-opacity="0.30980392156862746" />
<path d="M148,-206 L40,-55 L37,-174 L121,-197 L104,-267 L156,-258 Z" stroke-width="0" fill="#3a280a" fill-opacity="0.3215686274509804" />
<path d="M137,-271 L28,-186 L98,-179 L47,-41 L229,-246 L84,-102 Z" stroke-width="0" fill="#81cdc5" fill-opacity="0.00784313725490196" />
<text x="137.5" y="12.5" font-size="20.0" fill="black" text-anchor="middle" transform="translate(0,5.0)">4 OF WATER</text>
</svg>