<?xml version="1.0" encoding="UTF-8"?>
<svg xmlns="http://www.w3.org/2000/svg" xmlns:xlink="http://www.w3.org/1999/xlink"
     width="275" height="375" viewBox="0 -350 275 375">
<defs>
</defs>
<rect x="15" y="-335" width="245" height="320" stroke="black" stroke-width="4" fill="white" />
<path d="M74,-235 L81,-202 L70,-321 L51,-36 L232,-141 L157,-244 Z" stroke-width="0" fill="#fe9900" fill-opacity="0.8431372549019608" />
<path d="M169,-314 L182,-181 L193,-124 L37,-75 L63,-38 L153,-298 Z" stroke-width="0" fill="#d75a00" fill-opacity="0.5803921568627451" />
<path d="M60,-165 L185,-223 L119,-48 L234,-115 L137,-261 L187,-70 Z" stroke-width="0" fill="#5d0e63" fill-opacity="0.9176470588235294" />
<path d="M118,-196 L232,-257 L239,-182 L118,-231 L164,-137 L189,-108 Z" stroke-width="0" fill="#dd0000" fill-opacity="0.8392156862745098" />
<path d="M231,-90 L203,-109 L102,-172 L152,-167 L67,-268 L239,-44 Z" stroke-width="0" fill="#f63100" fill-opacity="0.8941176470588236" />
<path d="M241,-321 L93,-184 L207,-38 L40,-293 L127,-265 L185,-296 Z" stroke-width="0" fill="#c31000" fill-opacity="0.8823529411764706" />
<path d="M209,-83 L104,-121 L62,-178 L177,-59 L238,-89 L77,-96 Z" stroke-width="0" fill="#ea2e05" fill-opacity="0.6745098039215687" />
<path d="M60,-176 L92,-73 L116,-84 L33,-142 L228,-112 L31,-199 Z" stroke-width="0" fill="#e83d00" fill-opacity="0.807843137254902" />
<path d="M33,-172 L139,-317 L95,-133 L144,-170 L100,-85 L243,-233 Z" stroke-width="0" fill="#d41b00" fill-opacity="0.8196078431372549" />
<path d="M92,-220 L114,-92 L135,-192 L155,-189 L125,-31 L229,-50 Z" stroke-width="0" fill="#e77000" fill-opacity="0.6235294117647059" />
<path d="M39,-112 L117,-44 L184,-302 L68,-315 L240,-212 L129,-59 Z" stroke-width="0" fill="#d22600" fill-opacity="0.9058823529411765" />
<path d="M50,-232 L170,-236 L223,-59 L83,-77 L90,-226 L52,-54 Z" stroke-width="0" fill="#730000" fill-opacity="0.8745098039215686" />
<path d="M200,-53 L233,-44 L100,-126 L39,-256 L44,-103 L104,-230 Z" stroke-width="0" fill="#f25900" fill-opacity="1.0" />
<path d="M213,-49 L198,-76 L70,-53 L165,-170 L142,-47 L206,-194 Z" stroke-width="0" fill="#75d16a" fill-opacity="0.7568627450980392" />
<path d="M189,-146 L90,-169 L201,-124 L240,-139 L214,-244 L183,-186 Z" stroke-width="0" fill="#0dd4b6" fill-opacity="0.06274509803921569" />
<path d="M212,-203 L175,-236 L106,-109 L141,-76 L156,-50 L180,-227 Z" stroke-width="0" fill="#2b8f1e" fill-opacity="0.7686274509803922" />
<path d="M89,-315 L195,-111 L233,-222 L54,-58 L200,-316 L171,-269 Z" stroke-width="0" fill="#eb6500" fill-opacity="0.8196078431372549" />
<path d="M89,-243 L192,-62 L177,-110 L102,-268 L69,-312 L32,-62 Z" stroke-width="0" fill="#e19b00" fill-opacity="0.9529411764705882" />
<path d="M249,-224 L104,-293 L203,-137 L39,-83 L138,-268 L186,-142 Z" stroke-width="0" fill="#816e24" fill-opacity="0.996078431372549" />
<path d="M100,-102 L199,-105 L42,-51 L216,-157 L116,-181 L213,-61 Z" stroke-width="0" fill="#c6f568" fill-opacity="0.6470588235294118" />
<path d="M79,-119 L157,-60 L158,-207 L192,-308 L193,-77 L84,-179 Z" stroke-width="0" fill="#f1da00" fill-opacity="0.9254901960784314" />
<path d="M70,-137 L195,-215 L228,-244 L90,-140 L168,-241 L103,-293 Z" stroke-width="0" fill="#df1200" fill-opacity="0.5098039215686274" />
<path d="M73,-73 L193,-284 L148,-71 L140,-29 L239,-92 L82,-195 Z" stroke-width="0" fill="#ed8900" fill-opacity="0.9921568627450981" />
<path d="M137,-144 L170,-184 L28,-306 L152,-160 L25,-237 L199,-202 Z" stroke-width="0" fill="#e9f501" fill-opacity="0.9568627450980393" />
<path d="M117,-43 L213,-129 L87,-322 L165,-200 L78,-272 L109,-245 Z" stroke-width="0" fill="#f33500" fill-opacity="0.6588235294117647" />
<path d="M26,-54 L189,-109 L82,-296 L123,-33 L82,-35 L138,-40 Z" stroke-width="0" fill="#e5c800" fill-opacity="0.9882352941176471" />
<path d="M249,-206 L90,-176 L235,-188 L123,-251 L146,-45 L156,-318 Z" stroke-width="0" fill="#e41a00" fill-opacity="0.9372549019607843" />
<path d="M209,-183 L146,-183 L124,-125 L192,-34 L102,-181 L26,-201 Z" stroke-width="0" fill="#f35b00" fill-opacity="0.7686274509803922" />
<path d="M101,-164 L86,-41 L101,-51 L95,-103 L167,-159 L210,-166 Z" stroke-width="0" fill="#f2aacc" fill-opacity="0.8901960784313725" />
<path d="M88,-245 L134,-45 L128,-130 L77,-220 L32,-312 L37,-242 Z" stroke-width="0" fill="#f56f00" fill-opacity="0.6784313725490196" />
<path d="M74,-118 L117,-122 L119,-114 L27,-163 L41,-162 L115,-120 Z" stroke-width="0" fill="#fdb200" fill-opacity="0.9176470588235294" />
<path d="M131,-105 L146,-169 L152,-160 L100,-264 L189,-91 L164,-187 Z" stroke-width="0" fill="#045907" fill-opacity="0.6274509803921569" />
<path d="M73,-189 L67,-126 L235,-61 L117,-73 L92,-95 L115,-299 Z" stroke-width="0" fill="#df4b00" fill-opacity="0.7686274509803922" />
<path d="M237,-58 L146,-110 L125,-301 L120,-75 L122,-78 L94,-128 Z" stroke-width="0" fill="#7f2e00" fill-opacity="0.3254901960784314" />
<path d="M94,-153 L73,-303 L115,-220 L179,-166 L67,-68 L190,-146 Z" stroke-width="0" fill="#c57118" fill-opacity="0.5019607843137255" />
<path d="M118,-48 L184,-138 L112,-33 L70,-86 L211,-71 L122,-302 Z" stroke-width="0" fill="#f5f200" fill-opacity="0.6705882352941176" />
<path d="M143,-98 L127,-143 L54,-199 L185,-273 L183,-177 L176,-77 Z" stroke-width="0" fill="#862b0c" fill-opacity="0.8941176470588236" />
<path d="M181,-170 L101,-133 L238,-146 L98,-183 L65,-291 L203,-27 Z" stroke-width="0" fill="#fbc541" fill-opacity="0.9803921568627451" />
<path d="M166,-243 L39,-314 L152,-262 L167,-237 L236,-310 L218,-50 Z" stroke-width="0" fill="#be4100" fill-opacity="0.8431372549019608" />
<path d="M225,-31 L151,-149 L64,-54 L159,-29 L197,-274 L232,-189 Z" stroke-width="0" fill="#f55500" fill-opacity="0.7607843137254902" />
<path d="M131,-58 L214,-227 L225,-116 L85,-55 L64,-28 L202,-150 Z" stroke-width="0" fill="#f05f00" fill-opacity="0.6549019607843137" />
<path d="M38,-78 L145,-281 L228,-198 L67,-168 L60,-153 L169,-40 Z" stroke-width="0" fill="#f4f2f0" fill-opacity="0.9490196078431372" />
<path d="M229,-27 L120,-324 L113,-28 L63,-223 L88,-173 L55,-183 Z" stroke-width="0" fill="#cd3900" fill-opacity="0.8509803921568627" />
<path d="M105,-59 L164,-29 L145,-195 L196,-236 L154,-53 L38,-111 Z" stroke-width="0" fill="#fd9900" fill-opacity="0.7019607843137254" />
<path d="M88,-57 L237,-116 L90,-73 L234,-186 L44,-241 L156,-316 Z" stroke-width="0" fill="#9f3a00" fill-opacity="0.9254901960784314" />
<path d="M239,-69 L239,-90 L194,-69 L195,-35 L54,-98 L132,-222 Z" stroke-width="0" fill="#d18d00" fill-opacity="0.8862745098039215" />
<path d="M154,-241 L116,-315 L49,-300 L222,-285 L152,-257 L207,-299 Z" stroke-width="0" fill="#df5f00" fill-opacity="0.8549019607843137" />
<path d="M215,-294 L156,-56 L145,-104 L92,-274 L76,-131 L32,-173 Z" stroke-width="0" fill="#393200" fill-opacity="0.9725490196078431" />
<path d="M119,-123 L168,-192 L205,-248 L43,-258 L135,-141 L218,-242 Z" stroke-width="0" fill="#df0007" fill-opacity="0.49019607843137253" />
<path d="M142,-73 L176,-72 L81,-199 L90,-317 L49,-204 L90,-257 Z" stroke-width="0" fill="#e47501" fill-opacity="0.3058823529411765" />
<path d="M79,-167 L31,-60 L144,-54 L59,-69 L240,-130 L179,-33 Z" stroke-width="0" fill="#e2ce00" fill-opacity="0.8705882352941177" />
<path d="M121,-43 L48,-124 L158,-209 L30,-163 L98,-95 L168,-65 Z" stroke-width="0" fill="#fd1b01" fill-opacity="0.5215686274509804" />
<path d="M32,-139 L131,-129 L206,-57 L27,-95 L172,-105 L205,-47 Z" stroke-width="0" fill="#da9615" fill-opacity="0.9882352941176471" />
<path d="M88,-41 L215,-227 L133,-62 L68,-37 L77,-114 L192,-278 Z" stroke-width="0" fill="#eb6900" fill-opacity="0.8431372549019608" />
<path d="M164,-225 L248,-69 L89,-92 L25,-314 L38,-125 L202,-42 Z" stroke-width="0" fill="#f44300" fill-opacity="0.8352941176470589" />
<path d="M57,-198 L142,-269 L33,-126 L60,-73 L200,-83 L115,-283 Z" stroke-width="0" fill="#fe3f00" fill-opacity="0.792156862745098" />
<path d="M102,-172 L48,-111 L133,-41 L123,-35 L224,-75 L226,-133 Z" stroke-width="0" fill="#cc1300" fill-opacity="0.7372549019607844" />
<path d="M58,-71 L87,-186 L79,-225 L232,-36 L63,-305 L121,-160 Z" stroke-width="0" fill="#c37804" fill-opacity="0.8823529411764706" />
<path d="M100,-82 L60,-189 L167,-132 L172,-286 L150,-168 L160,-78 Z" stroke-width="0" fill="#2b00de" fill-opacity="0.9882352941176471" />
<path d="M249,-133 L33,-229 L175,-141 L40,-160 L69,-65 L29,-55 Z" stroke-width="0" fill="#760000" fill-opacity="0.17647058823529413" />
<path d="M84,-196 L112,-120 L107,-72 L110,-285 L91,-83 L79,-285 Z" stroke-width="0" fill="#c63900" fill-opacity="0.8588235294117647" />
<path d="M180,-150 L239,-63 L166,-126 L239,-245 L234,-73 L65,-175 Z" stroke-width="0" fill="#dd9c80" fill-opacity="0.06666666666666667" />
<path d="M202,-189 L43,-204 L211,-321 L90,-106 L61,-186 L157,-262 Z" stroke-width="0" fill="#e70600" fill-opacity="0.8588235294117647" />
<path d="M239,-139 L37,-318 L48,-189 L182,-115 L94,-233 L112,-113 Z" stroke-width="0" fill="#b03600" fill-opacity="0.7254901960784313" />
<path d="M52,-83 L149,-147 L44,-264 L67,-236 L220,-54 L210,-303 Z" stroke-width="0" fill="#936710" fill-opacity="0.08235294117647059" />
<path d="M41,-210 L133,-117 L55,-286 L130,-115 L216,-291 L207,-239 Z" stroke-width="0" fill="#8e0eba" fill-opacity="0.09803921568627451" />
<path d="M180,-259 L129,-52 L135,-169 L233,-45 L32,-26 L129,-31 Z" stroke-width="0" fill="#f35500" fill-opacity="0.8901960784313725" />
<path d="M72,-83 L209,-99 L130,-125 L200,-70 L88,-185 L176,-277 Z" stroke-width="0" fill="#c2ee07" fill-opacity="0.29411764705882354" />
<path d="M113,-169 L181,-68 L89,-152 L55,-242 L48,-285 L181,-25 Z" stroke-width="0" fill="#ab1800" fill-opacity="0.5411764705882353" />
<path d="M190,-71 L70,-154 L116,-41 L231,-170 L174,-166 L112,-107 Z" stroke-width="0" fill="#f49733" fill-opacity="0.9882352941176471" />
<path d="M114,-81 L48,-126 L113,-31 L96,-175 L210,-151 L73,-209 Z" stroke-width="0" fill="#f6de37" fill-opacity="0.9803921568627451" />
<path d="M123,-125 L29,-175 L45,-156 L53,-146 L176,-277 L85,-67 Z" stroke-width="0" fill="#d70000" fill-opacity="0.6666666666666666" />
<path d="M40,-53 L196,-310 L26,-139 L49,-259 L192,-42 L192,-130 Z" stroke-width="0" fill="#e02800" fill-opacity="0.792156862745098" />
<path d="M206,-134 L37,-27 L231,-107 L142,-51 L189,-164 L87,-39 Z" stroke-width="0" fill="#d96c04" fill-opacity="0.9568627450980393" />
<path d="M211,-270 L27,-99 L77,-124 L73,-75 L73,-141 L116,-298 Z" stroke-width="0" fill="#b80e12" fill-opacity="0.41568627450980394" />
<path d="M189,-155 L169,-159 L118,-280 L123,-160 L96,-322 L69,-289 Z" stroke-width="0" fill="#d90f00" fill-opacity="0.5725490196078431" />
<path d="M69,-198 L106,-289 L83,-175 L79,-260 L27,-27 L89,-79 Z" stroke-width="0" fill="#f51700" fill-opacity="0.5098039215686274" />
<path d="M166,-284 L232,-119 L166,-242 L94,-47 L141,-121 L90,-187 Z" stroke-width="0" fill="#baf7ef" fill-opacity="0.9019607843137255" />
<path d="M177,-80 L33,-183 L240,-88 L209,-200 L184,-87 L140,-63 Z" stroke-width="0" fill="#e70000" fill-opacity="0.8509803921568627" />
<path d="M217,-206 L92,-29 L112,-102 L54,-137 L88,-36 L105,-135 Z" stroke-width="0" fill="#f88803" fill-opacity="0.9490196078431372" />
<path d="M34,-109 L197,-166 L60,-319 L108,-278 L245,-305 L157,-40 Z" stroke-width="0" fill="#e21300" fill-opacity="0.9607843137254902" />
<path d="M222,-283 L181,-215 L166,-111 L216,-224 L215,-25 L144,-281 Z" stroke-width="0" fill="#e81103" fill-opacity="0.396078431372549" />
<path d="M47,-222 L74,-49 L173,-46 L110,-33 L120,-139 L51,-169 Z" stroke-width="0" fill="#9e0000" fill-opacity="0.17647058823529413" />
<path d="M48,-321 L98,-193 L238,-120 L245,-258 L62,-126 L85,-203 Z" stroke-width="0" fill="#d5bcb9" fill-opacity="0.9686274509803922" />
<path d="M32,-45 L131,-159 L73,-200 L214,-112 L191,-247 L139,-33 Z" stroke-width="0" fill="#f47800" fill-opacity="0.8156862745098039" />
<path d="M236,-65 L52,-32 L41,-119 L229,-196 L187,-298 L31,-184 Z" stroke-width="0" fill="#f96600" fill-opacity="0.3058823529411765" />
<path d="M174,-187 L111,-156 L135,-165 L51,-305 L28,-310 L99,-285 Z" stroke-width="0" fill="#dcbd00" fill-opacity="0.11764705882352941" />
<path d="M69,-55 L115,-38 L170,-116 L166,-286 L110,-41 L204,-96 Z" stroke-width="0" fill="#f79907" fill-opacity="0.21568627450980393" />
<path d="M180,-112 L151,-141 L184,-101 L54,-92 L120,-267 L99,-200 Z" stroke-width="0" fill="#feb5cd" fill-opacity="0.9803921568627451" />
<path d="M217,-287 L53,-288 L172,-130 L243,-231 L181,-276 L89,-71 Z" stroke-width="0" fill="#db0000" fill-opacity="0.6352941176470588" />
<path d="M173,-230 L78,-155 L208,-323 L94,-212 L132,-92 L201,-138 Z" stroke-width="0" fill="#b37d85" fill-opacity="0.5019607843137255" />
<path d="M155,-103 L72,-78 L157,-228 L186,-98 L60,-44 L117,-73 Z" stroke-width="0" fill="#f80d00" fill-opacity="0.7803921568627451" />
<path d="M158,-55 L232,-48 L169,-57 L140,-131 L90,-119 L91,-296 Z" stroke-width="0" fill="#68f76f" fill-opacity="0.058823529411764705" />
<path d="M143,-48 L92,-38 L40,-191 L38,-277 L44,-234 L63,-43 Z" stroke-width="0" fill="#eea411" fill-opacity="0.611764705882353" />
<path d="M90,-136 L248,-116 L86,-300 L113,-39 L35,-179 L138,-89 Z" stroke-width="0" fill="#f4034c" fill-opacity="0.07058823529411765" />
<path d="M220,-109 L212,-29 L178,-263 L182,-123 L180,-95 L42,-242 Z" stroke-width="0" fill="#e21305" fill-opacity="0.25882352941176473" />
<path d="M148,-39 L62,-77 L120,-104 L59,-206 L131,-149 L42,-104 Z" stroke-width="0" fill="#ea5e00" fill-opacity="0.26666666666666666" />
<path d="M159,-222 L100,-78 L60,-76 L72,-195 L94,-225 L44,-152 Z" stroke-width="0" fill="#ec4b00" fill-opacity="0.24313725490196078" />
<path d="M173,-165 L182,-116 L122,-290 L171,-163 L30,-105 L174,-28 Z" stroke-width="0" fill="#e36500" fill-opacity="0.7294117647058823" />
<path d="M86,-274 L169,-57 L148,-45 L94,-170 L56,-90 L31,-206 Z" stroke-width="0" fill="#d53a86" fill-opacity="0.01568627450980392" />
<text x="137.5" y="12.5" font-size="20.0" fill="black" text-anchor="middle" transform="translate(0,5.0)">KNIGHT OF WATER</text>
</svg>