<?xml version="1.0" encoding="UTF-8"?>
<svg xmlns="http://www.w3.org/2000/svg" xmlns:xlink="http://www.w3.org/1999/xlink"
     width="896" height="1496" viewBox="0 -1400 896 1496" style="font-size:70;font-family:Poor Richard, Times New Roman;stroke:black;stroke-width:1;fill:none">
<defs>
</defs>
<path d="M798,-1102 L186,-558 L150,-234 L658,-422 L358,-926 L666,-1210 Z" stroke-width="0" fill="#c5d0f1" fill-opacity="0.03137254901960784" />
<path d="M814,-914 L150,-926 L566,-370 L946,-542 L218,-214 L534,-1038 Z" stroke-width="0" fill="#eb94d2" fill-opacity="0.09803921568627451" />
<path d="M306,-994 L354,-98 L454,-422 L706,-518 L538,-1258 L290,-986 Z" stroke-width="0" fill="#06c2f5" fill-opacity="0.8431372549019608" />
<path d="M634,-798 L82,-878 L554,-602 L774,-98 L126,-338 L490,-538 Z" stroke-width="0" fill="#003e71" fill-opacity="0.9019607843137255" />
<path d="M502,-406 L222,-1078 L866,-158 L682,-926 L526,-118 L922,-206 Z" stroke-width="0" fill="#0265fc" fill-opacity="0.6627450980392157" />
<path d="M846,-374 L558,-1010 L122,-350 L518,-1186 L822,-206 L298,-142 Z" stroke-width="0" fill="#8bc9f6" fill-opacity="0.9607843137254902" />
<path d="M466,-946 L690,-458 L118,-474 L166,-82 L718,-314 L598,-94 Z" stroke-width="0" fill="#01a9ff" fill-opacity="0.9019607843137255" />
<path d="M466,-590 L818,-410 L722,-1190 L226,-902 L466,-526 L666,-962 Z" stroke-width="0" fill="#cfd5fd" fill-opacity="0.2549019607843137" />
<path d="M762,-490 L82,-230 L550,-286 L150,-542 L650,-1190 L514,-782 Z" stroke-width="0" fill="#00dde8" fill-opacity="0.8705882352941177" />
<path d="M846,-690 L614,-698 L130,-114 L114,-458 L222,-870 L322,-378 Z" stroke-width="0" fill="#00efec" fill-opacity="0.8980392156862745" />
<path d="M502,-170 L922,-1098 L238,-798 L478,-1022 L446,-230 L522,-274 Z" stroke-width="0" fill="#260b04" fill-opacity="0.5176470588235295" />
<path d="M690,-1082 L162,-218 L838,-1082 L106,-358 L106,-414 L366,-1186 Z" stroke-width="0" fill="#0b0014" fill-opacity="0.8901960784313725" />
<path d="M686,-962 L118,-238 L610,-114 L466,-698 L482,-86 L918,-362 Z" stroke-width="0" fill="#008bbc" fill-opacity="0.7058823529411765" />
<path d="M266,-706 L198,-642 L266,-734 L382,-294 L110,-586 L858,-1158 Z" stroke-width="0" fill="#00c9af" fill-opacity="0.9019607843137255" />
<path d="M938,-1030 L606,-194 L386,-434 L394,-166 L854,-298 L322,-438 Z" stroke-width="0" fill="#c613c6" fill-opacity="0.27058823529411763" />
<path d="M742,-446 L142,-458 L558,-294 L114,-1054 L330,-138 L534,-874 Z" stroke-width="0" fill="#00f0d4" fill-opacity="0.8156862745098039" />
<path d="M98,-542 L858,-606 L650,-146 L586,-746 L750,-1058 L534,-702 Z" stroke-width="0" fill="#0066b2" fill-opacity="0.615686274509804" />
<path d="M966,-694 L610,-1178 L526,-930 L122,-274 L634,-942 L586,-574 Z" stroke-width="0" fill="#62f841" fill-opacity="0.23921568627450981" />
<path d="M458,-854 L246,-402 L626,-810 L474,-434 L182,-730 L630,-194 Z" stroke-width="0" fill="#265308" fill-opacity="0.3764705882352941" />
<path d="M250,-414 L686,-438 L602,-994 L442,-942 L326,-894 L330,-170 Z" stroke-width="0" fill="#ea3b3c" fill-opacity="0.13333333333333333" />
<path d="M902,-394 L562,-226 L622,-210 L710,-670 L106,-334 L282,-334 Z" stroke-width="0" fill="#e6f2cf" fill-opacity="0.8784313725490196" />
<path d="M162,-542 L318,-338 L454,-1138 L322,-666 L418,-522 L530,-822 Z" stroke-width="0" fill="#f31ef4" fill-opacity="0.9215686274509803" />
<path d="M586,-854 L942,-466 L138,-746 L390,-158 L310,-98 L966,-174 Z" stroke-width="0" fill="#000202" fill-opacity="0.9803921568627451" />
<path d="M510,-938 L218,-302 L146,-182 L402,-202 L782,-262 L926,-1162 Z" stroke-width="0" fill="#d429f9" fill-opacity="0.14901960784313725" />
<path d="M738,-446 L98,-318 L434,-634 L206,-1046 L462,-706 L306,-686 Z" stroke-width="0" fill="#00fcf6" fill-opacity="0.8980392156862745" />
<path d="M174,-1114 L326,-966 L614,-110 L178,-558 L606,-690 L682,-230 Z" stroke-width="0" fill="#0e90f5" fill-opacity="0.8" />
<path d="M634,-350 L614,-1066 L966,-114 L914,-554 L978,-110 L694,-874 Z" stroke-width="0" fill="#00bfd9" fill-opacity="0.7647058823529411" />
<path d="M198,-382 L942,-182 L714,-218 L394,-402 L750,-834 L918,-646 Z" stroke-width="0" fill="#7067d7" fill-opacity="0.8666666666666667" />
<path d="M670,-830 L382,-774 L242,-206 L570,-806 L370,-182 L614,-302 Z" stroke-width="0" fill="#82f4ea" fill-opacity="0.9254901960784314" />
<path d="M202,-1014 L414,-326 L150,-810 L354,-762 L270,-942 L378,-262 Z" stroke-width="0" fill="#1d1506" fill-opacity="0.8470588235294118" />
<path d="M586,-1198 L674,-826 L666,-922 L610,-578 L874,-1146 L282,-142 Z" stroke-width="0" fill="#4ae9f3" fill-opacity="0.6274509803921569" />
<path d="M466,-870 L882,-646 L158,-130 L658,-1094 L106,-430 L234,-610 Z" stroke-width="0" fill="#0010fc" fill-opacity="0.6588235294117647" />
<path d="M378,-510 L770,-202 L518,-1170 L738,-1158 L302,-206 L162,-702 Z" stroke-width="0" fill="#c0f8f4" fill-opacity="0.8941176470588236" />
<path d="M806,-1034 L846,-338 L134,-1054 L90,-622 L150,-662 L102,-374 Z" stroke-width="0" fill="#0089d5" fill-opacity="0.6313725490196078" />
<path d="M338,-214 L414,-1070 L706,-258 L162,-774 L526,-1126 L746,-514 Z" stroke-width="0" fill="#0600a2" fill-opacity="1.0" />
<path d="M574,-970 L550,-214 L486,-1146 L954,-570 L514,-210 L378,-458 Z" stroke-width="0" fill="#d665f2" fill-opacity="0.9607843137254902" />
<path d="M478,-898 L358,-634 L282,-810 L302,-210 L606,-674 L230,-310 Z" stroke-width="0" fill="#10fdf3" fill-opacity="0.8196078431372549" />
<path d="M250,-226 L266,-890 L266,-286 L738,-390 L762,-690 L258,-546 Z" stroke-width="0" fill="#150ee2" fill-opacity="0.9372549019607843" />
<path d="M938,-198 L186,-414 L870,-90 L154,-454 L814,-1222 L502,-582 Z" stroke-width="0" fill="#00bbf1" fill-opacity="0.9686274509803922" />
<path d="M618,-970 L526,-422 L242,-1202 L530,-326 L394,-114 L754,-134 Z" stroke-width="0" fill="#000000" fill-opacity="0.7803921568627451" />
<path d="M874,-794 L966,-458 L82,-174 L630,-942 L926,-254 L754,-718 Z" stroke-width="0" fill="#01d9fa" fill-opacity="0.7686274509803922" />
<path d="M306,-94 L822,-478 L506,-786 L614,-186 L150,-454 L286,-702 Z" stroke-width="0" fill="#00b9cb" fill-opacity="0.8784313725490196" />
<path d="M366,-982 L90,-918 L206,-262 L294,-742 L614,-934 L550,-342 Z" stroke-width="0" fill="#009ca7" fill-opacity="0.8235294117647058" />
<path d="M130,-838 L850,-470 L358,-266 L870,-694 L154,-634 L610,-654 Z" stroke-width="0" fill="#005aa9" fill-opacity="0.4235294117647059" />
<path d="M250,-1018 L150,-910 L170,-1026 L318,-698 L190,-846 L882,-82 Z" stroke-width="0" fill="#00aaf1" fill-opacity="0.8274509803921568" />
<path d="M622,-1270 L694,-578 L406,-238 L122,-234 L614,-806 L450,-766 Z" stroke-width="0" fill="#22e6dd" fill-opacity="0.6313725490196078" />
<path d="M574,-586 L734,-490 L574,-130 L658,-802 L714,-314 L218,-578 Z" stroke-width="0" fill="#0027f9" fill-opacity="0.7019607843137254" />
<path d="M390,-978 L666,-294 L854,-298 L234,-322 L886,-846 L86,-626 Z" stroke-width="0" fill="#28eef4" fill-opacity="0.9215686274509803" />
<path d="M402,-338 L234,-818 L98,-858 L962,-1206 L942,-86 L458,-830 Z" stroke-width="0" fill="#02c4ee" fill-opacity="0.9294117647058824" />
<path d="M270,-574 L142,-462 L630,-490 L574,-406 L754,-630 L174,-794 Z" stroke-width="0" fill="#00334b" fill-opacity="0.45098039215686275" />
<path d="M522,-1022 L838,-954 L150,-286 L850,-722 L382,-386 L890,-950 Z" stroke-width="0" fill="#28fcf9" fill-opacity="0.9176470588235294" />
<path d="M114,-626 L562,-142 L546,-850 L834,-786 L154,-426 L938,-158 Z" stroke-width="0" fill="#0e90cb" fill-opacity="0.9647058823529412" />
<path d="M362,-442 L306,-802 L430,-642 L886,-750 L582,-330 L794,-586 Z" stroke-width="0" fill="#000200" fill-opacity="0.8509803921568627" />
<path d="M518,-990 L250,-638 L774,-194 L510,-1126 L850,-1142 L322,-1158 Z" stroke-width="0" fill="#1612fa" fill-opacity="0.4745098039215686" />
<path d="M902,-1242 L342,-614 L270,-690 L118,-514 L374,-1046 L294,-434 Z" stroke-width="0" fill="#0ac3f5" fill-opacity="0.8901960784313725" />
<path d="M538,-502 L478,-614 L590,-286 L386,-790 L670,-874 L750,-598 Z" stroke-width="0" fill="#04260c" fill-opacity="0.9098039215686274" />
<path d="M726,-358 L478,-1014 L830,-1130 L746,-490 L154,-166 L162,-114 Z" stroke-width="0" fill="#00defa" fill-opacity="0.6313725490196078" />
<path d="M878,-210 L666,-1278 L310,-146 L798,-726 L278,-614 L942,-754 Z" stroke-width="0" fill="#079bb8" fill-opacity="0.30980392156862746" />
<path d="M626,-86 L582,-426 L86,-1138 L450,-1178 L266,-538 L626,-330 Z" stroke-width="0" fill="#00d7f7" fill-opacity="0.7333333333333333" />
<path d="M730,-674 L826,-586 L570,-446 L774,-166 L322,-618 L546,-314 Z" stroke-width="0" fill="#031c2f" fill-opacity="0.3686274509803922" />
<path d="M934,-278 L142,-834 L394,-410 L574,-534 L202,-206 L202,-410 Z" stroke-width="0" fill="#27b8c5" fill-opacity="0.011764705882352941" />
<path d="M602,-846 L314,-886 L674,-966 L782,-994 L518,-1254 L934,-938 Z" stroke-width="0" fill="#d8f9c9" fill-opacity="0.043137254901960784" />
<path d="M422,-294 L338,-302 L270,-794 L858,-1202 L678,-306 L678,-1126 Z" stroke-width="0" fill="#d1d0d3" fill-opacity="0.00784313725490196" />
<path d="M810,-418 L118,-262 L782,-698 L474,-90 L426,-490 L530,-282 Z" stroke-width="0" fill="#1eeadd" fill-opacity="0.8117647058823529" />
<path d="M178,-1274 L910,-414 L370,-430 L294,-382 L502,-178 L410,-854 Z" stroke-width="0" fill="#08b3ef" fill-opacity="0.9647058823529412" />
<path d="M198,-1094 L818,-314 L390,-762 L270,-1010 L118,-478 L518,-1034 Z" stroke-width="0" fill="#0258fe" fill-opacity="0.011764705882352941" />
<path d="M602,-690 L366,-98 L426,-782 L362,-1278 L174,-154 L582,-94 Z" stroke-width="0" fill="#00cbfe" fill-opacity="0.7098039215686275" />
<path d="M742,-674 L490,-882 L618,-634 L638,-766 L902,-930 L414,-210 Z" stroke-width="0" fill="#468911" fill-opacity="0.06274509803921569" />
<path d="M306,-778 L542,-402 L778,-642 L522,-486 L186,-642 L706,-314 Z" stroke-width="0" fill="#103e05" fill-opacity="0.9882352941176471" />
<path d="M790,-670 L738,-686 L646,-102 L714,-1074 L326,-498 L806,-722 Z" stroke-width="0" fill="#1acff9" fill-opacity="0.38823529411764707" />
<path d="M622,-942 L174,-642 L342,-190 L410,-782 L226,-1062 L286,-182 Z" stroke-width="0" fill="#23c8f4" fill-opacity="0.12941176470588237" />
<path d="M282,-1046 L202,-1254 L810,-1210 L510,-830 L566,-842 L322,-98 Z" stroke-width="0" fill="#00d3dc" fill-opacity="0.8901960784313725" />
<path d="M538,-146 L890,-862 L902,-994 L742,-442 L146,-142 L514,-558 Z" stroke-width="0" fill="#2ae3ca" fill-opacity="0.22745098039215686" />
<path d="M930,-454 L894,-1142 L138,-626 L802,-698 L142,-490 L838,-82 Z" stroke-width="0" fill="#04b3d4" fill-opacity="0.44313725490196076" />
<path d="M458,-146 L782,-226 L254,-1266 L310,-806 L298,-958 L410,-658 Z" stroke-width="0" fill="#0a25d6" fill-opacity="0.11372549019607843" />
<path d="M734,-506 L122,-922 L638,-918 L142,-1026 L494,-414 L234,-1018 Z" stroke-width="0" fill="#11dcfe" fill-opacity="0.7647058823529411" />
<path d="M610,-914 L482,-650 L642,-730 L82,-466 L618,-698 L714,-794 Z" stroke-width="0" fill="#008892" fill-opacity="0.8" />
<path d="M354,-1198 L570,-146 L522,-1046 L582,-1078 L538,-1190 L582,-838 Z" stroke-width="0" fill="#0df8fc" fill-opacity="0.8980392156862745" />
<path d="M454,-1206 L258,-1166 L618,-542 L946,-534 L162,-490 L706,-182 Z" stroke-width="0" fill="#39a4ba" fill-opacity="0.0392156862745098" />
<path d="M862,-658 L722,-150 L774,-638 L930,-570 L694,-122 L506,-218 Z" stroke-width="0" fill="#220514" fill-opacity="0.4392156862745098" />
<path d="M438,-462 L178,-974 L794,-538 L542,-326 L258,-698 L266,-334 Z" stroke-width="0" fill="#1618ec" fill-opacity="0.07058823529411765" />
<path d="M438,-98 L898,-1170 L374,-350 L898,-1162 L366,-1274 L858,-1106 Z" stroke-width="0" fill="#00c2e3" fill-opacity="0.4392156862745098" />
<path d="M134,-834 L190,-122 L626,-718 L650,-418 L838,-738 L422,-310 Z" stroke-width="0" fill="#21fef3" fill-opacity="0.25882352941176473" />
<path d="M854,-870 L782,-950 L922,-802 L790,-910 L178,-306 L270,-1074 Z" stroke-width="0" fill="#20dbf1" fill-opacity="0.47843137254901963" />
<path d="M562,-374 L830,-690 L454,-566 L626,-254 L418,-354 L126,-438 Z" stroke-width="0" fill="#14ecf1" fill-opacity="0.9725490196078431" />
<path d="M350,-734 L386,-482 L630,-702 L310,-434 L566,-1274 L634,-1078 Z" stroke-width="0" fill="#3a16a3" fill-opacity="0.03529411764705882" />
<path d="M946,-850 L646,-534 L534,-498 L782,-942 L718,-450 L518,-318 Z" stroke-width="0" fill="#017e6b" fill-opacity="0.13333333333333333" />
<path d="M166,-190 L662,-202 L578,-258 L198,-794 L306,-978 L186,-554 Z" stroke-width="0" fill="#28f8f9" fill-opacity="0.20392156862745098" />
<path d="M622,-246 L422,-1222 L970,-334 L742,-826 L682,-158 L374,-758 Z" stroke-width="0" fill="#1446ed" fill-opacity="0.00784313725490196" />
<path d="M662,-694 L706,-454 L194,-942 L970,-322 L194,-1246 L622,-994 Z" stroke-width="0" fill="#19edea" fill-opacity="0.7137254901960784" />
<path d="M538,-662 L282,-1082 L430,-834 L630,-118 L122,-446 L546,-262 Z" stroke-width="0" fill="#0dfee5" fill-opacity="0.22745098039215686" />
<path d="M550,-878 L134,-1190 L238,-1086 L106,-162 L958,-150 L350,-786 Z" stroke-width="0" fill="#00d9f8" fill-opacity="0.01568627450980392" />
<path d="M102,-686 L126,-86 L354,-994 L482,-794 L958,-686 L302,-714 Z" stroke-width="0" fill="#00cfe3" fill-opacity="0.29411764705882354" />
<path d="M914,-242 L978,-1094 L770,-1010 L450,-1042 L242,-494 L810,-158 Z" stroke-width="0" fill="#0e84c5" fill-opacity="0.3058823529411765" />
<path d="M146,-378 L90,-306 L318,-610 L662,-150 L662,-290 L202,-586 Z" stroke-width="0" fill="#0085d2" fill-opacity="0.45098039215686275" />
<path d="M650,-1006 L746,-1258 L274,-126 L366,-1138 L218,-1186 L978,-98 Z" stroke-width="0" fill="#25adfb" fill-opacity="0.25098039215686274" />
<path d="M622,-594 L598,-446 L334,-426 L462,-690 L370,-498 L126,-662 Z" stroke-width="0" fill="#040bf6" fill-opacity="0.06274509803921569" />
<path d="M754,-150 L218,-790 L594,-302 L126,-990 L618,-482 L170,-734 Z" stroke-width="0" fill="#03cfe3" fill-opacity="0.23137254901960785" />
<path d="M942,-106 L858,-206 L866,-714 L290,-690 L330,-1214 L558,-142 Z" stroke-width="0" fill="#0bcaf6" fill-opacity="0.5019607843137255" />
<path d="M350,-1078 L830,-1062 L170,-810 L718,-742 L138,-522 L686,-202 Z" stroke-width="0" fill="#000fe9" fill-opacity="0.027450980392156862" />
<text x="448.0" y="0" font-size="70.0" fill="black" text-anchor="middle" transform="translate(0,17.5)">5 OF WATER</text>
</svg>