<?xml version="1.0" encoding="UTF-8"?>
<svg xmlns="http://www.w3.org/2000/svg" xmlns:xlink="http://www.w3.org/1999/xlink"
     width="896" height="1496" viewBox="0 -1400 896 1496" style="font-size:70;font-family:Poor Richard, Times New Roman;stroke:black;stroke-width:1;fill:none">
<defs>
</defs>
<path d="M778,-242 L346,-706 L690,-1050 L366,-1022 L286,-590 L578,-778 Z" stroke-width="0" fill="#f62e69" fill-opacity="0.5843137254901961" />
<path d="M142,-82 L206,-1102 L86,-738 L346,-1086 L126,-182 L238,-822 Z" stroke-width="0" fill="#010e0b" fill-opacity="0.9803921568627451" />
<path d="M342,-338 L230,-542 L698,-722 L106,-534 L506,-470 L210,-746 Z" stroke-width="0" fill="#000d01" fill-opacity="0.5882352941176471" />
<path d="M158,-546 L86,-238 L518,-678 L410,-686 L630,-1110 L714,-1186 Z" stroke-width="0" fill="#000000" fill-opacity="0.984313725490196" />
<path d="M286,-602 L406,-950 L566,-1194 L230,-1298 L130,-594 L458,-798 Z" stroke-width="0" fill="#000000" fill-opacity="0.9372549019607843" />
<path d="M390,-746 L374,-982 L198,-582 L206,-746 L710,-86 L302,-1182 Z" stroke-width="0" fill="#031c07" fill-opacity="0.8901960784313725" />
<path d="M714,-634 L306,-1014 L426,-570 L598,-714 L362,-1142 L306,-906 Z" stroke-width="0" fill="#185927" fill-opacity="0.09803921568627451" />
<path d="M134,-1042 L318,-902 L502,-530 L182,-166 L150,-1038 L106,-586 Z" stroke-width="0" fill="#8a6fd0" fill-opacity="0.8666666666666667" />
<path d="M766,-294 L590,-342 L730,-146 L782,-686 L150,-122 L658,-1138 Z" stroke-width="0" fill="#341929" fill-opacity="0.5176470588235295" />
<path d="M170,-486 L142,-490 L386,-1190 L618,-118 L418,-614 L358,-1230 Z" stroke-width="0" fill="#220710" fill-opacity="0.9254901960784314" />
<path d="M498,-874 L334,-638 L618,-162 L370,-1034 L470,-1042 L566,-898 Z" stroke-width="0" fill="#183b2f" fill-opacity="0.4196078431372549" />
<path d="M262,-386 L366,-1126 L742,-646 L746,-786 L190,-206 L658,-590 Z" stroke-width="0" fill="#000000" fill-opacity="0.9882352941176471" />
<path d="M266,-222 L362,-182 L118,-198 L718,-406 L722,-438 L254,-374 Z" stroke-width="0" fill="#838490" fill-opacity="0.6392156862745098" />
<path d="M106,-414 L194,-478 L246,-470 L754,-374 L166,-826 L470,-1070 Z" stroke-width="0" fill="#1c4511" fill-opacity="0.984313725490196" />
<path d="M386,-306 L402,-986 L402,-510 L362,-542 L774,-1022 L482,-638 Z" stroke-width="0" fill="#6e2347" fill-opacity="0.5843137254901961" />
<path d="M330,-882 L202,-1170 L578,-590 L270,-362 L430,-1138 L566,-798 Z" stroke-width="0" fill="#2345c5" fill-opacity="0.0392156862745098" />
<path d="M682,-1034 L366,-890 L426,-142 L494,-958 L586,-218 L162,-362 Z" stroke-width="0" fill="#46091e" fill-opacity="0.6627450980392157" />
<path d="M770,-554 L794,-622 L550,-1046 L138,-318 L754,-922 L102,-466 Z" stroke-width="0" fill="#968774" fill-opacity="0.22745098039215686" />
<path d="M190,-506 L638,-358 L378,-874 L794,-662 L234,-946 L106,-522 Z" stroke-width="0" fill="#000000" fill-opacity="0.9372549019607843" />
<path d="M362,-918 L622,-98 L242,-1122 L430,-630 L482,-758 L354,-774 Z" stroke-width="0" fill="#000000" fill-opacity="0.8941176470588236" />
<path d="M346,-922 L494,-1222 L430,-998 L266,-186 L726,-1310 L798,-610 Z" stroke-width="0" fill="#080504" fill-opacity="0.7490196078431373" />
<path d="M146,-294 L494,-1094 L294,-430 L646,-670 L618,-1214 L554,-294 Z" stroke-width="0" fill="#0b0107" fill-opacity="0.788235294117647" />
<path d="M578,-90 L114,-1230 L546,-146 L106,-742 L126,-518 L350,-186 Z" stroke-width="0" fill="#00080e" fill-opacity="0.9137254901960784" />
<path d="M226,-678 L630,-902 L414,-298 L490,-338 L282,-1222 L510,-890 Z" stroke-width="0" fill="#349afd" fill-opacity="0.4549019607843137" />
<path d="M186,-218 L702,-950 L118,-686 L254,-234 L462,-1082 L234,-274 Z" stroke-width="0" fill="#0d68bd" fill-opacity="0.3215686274509804" />
<path d="M298,-658 L546,-662 L110,-682 L622,-142 L354,-650 L382,-730 Z" stroke-width="0" fill="#046d13" fill-opacity="0.9568627450980393" />
<path d="M330,-850 L642,-1046 L594,-1038 L126,-970 L394,-1282 L166,-1050 Z" stroke-width="0" fill="#010000" fill-opacity="0.9215686274509803" />
<path d="M362,-574 L154,-1102 L194,-674 L270,-794 L714,-1270 L194,-382 Z" stroke-width="0" fill="#1b1810" fill-opacity="0.9294117647058824" />
<path d="M438,-334 L638,-970 L210,-1058 L458,-906 L706,-238 L474,-710 Z" stroke-width="0" fill="#276c41" fill-opacity="0.0392156862745098" />
<path d="M746,-1238 L422,-698 L154,-114 L378,-534 L238,-1270 L466,-790 Z" stroke-width="0" fill="#0c1224" fill-opacity="0.8705882352941177" />
<path d="M150,-798 L406,-170 L646,-154 L146,-502 L450,-402 L538,-1278 Z" stroke-width="0" fill="#64d2cd" fill-opacity="0.22745098039215686" />
<path d="M558,-438 L186,-434 L570,-622 L210,-298 L98,-898 L382,-770 Z" stroke-width="0" fill="#000000" fill-opacity="0.9333333333333333" />
<path d="M106,-866 L758,-86 L570,-1122 L190,-710 L94,-1206 L790,-678 Z" stroke-width="0" fill="#1c1a1a" fill-opacity="0.9607843137254902" />
<path d="M778,-606 L450,-1046 L366,-918 L158,-922 L86,-562 L546,-534 Z" stroke-width="0" fill="#0e0800" fill-opacity="0.9254901960784314" />
<path d="M414,-334 L194,-650 L734,-674 L270,-994 L210,-422 L550,-1082 Z" stroke-width="0" fill="#000000" fill-opacity="0.9882352941176471" />
<path d="M82,-642 L298,-1034 L658,-498 L294,-618 L630,-266 L110,-790 Z" stroke-width="0" fill="#000000" fill-opacity="0.8901960784313725" />
<path d="M534,-1186 L162,-246 L214,-218 L314,-510 L430,-990 L454,-406 Z" stroke-width="0" fill="#040b11" fill-opacity="0.9568627450980393" />
<path d="M666,-538 L538,-306 L114,-670 L282,-1082 L398,-526 L610,-462 Z" stroke-width="0" fill="#967e53" fill-opacity="0.1607843137254902" />
<path d="M330,-806 L146,-422 L254,-378 L782,-754 L654,-1266 L386,-562 Z" stroke-width="0" fill="#84ac95" fill-opacity="0.9764705882352941" />
<path d="M726,-1246 L494,-86 L678,-142 L726,-86 L350,-922 L326,-782 Z" stroke-width="0" fill="#212521" fill-opacity="0.9529411764705882" />
<path d="M474,-218 L342,-370 L350,-1022 L110,-162 L382,-954 L422,-618 Z" stroke-width="0" fill="#000000" fill-opacity="0.9647058823529412" />
<path d="M698,-338 L530,-1286 L114,-1010 L194,-894 L278,-430 L554,-550 Z" stroke-width="0" fill="#dfe2c9" fill-opacity="0.5333333333333333" />
<path d="M98,-874 L546,-1142 L230,-162 L406,-922 L442,-598 L98,-942 Z" stroke-width="0" fill="#000000" fill-opacity="0.9215686274509803" />
<path d="M330,-770 L450,-826 L762,-110 L478,-806 L414,-798 L158,-958 Z" stroke-width="0" fill="#24251c" fill-opacity="0.9490196078431372" />
<path d="M302,-670 L254,-1242 L562,-662 L402,-546 L234,-658 L746,-1034 Z" stroke-width="0" fill="#805764" fill-opacity="0.8470588235294118" />
<path d="M266,-334 L186,-1210 L254,-714 L310,-1266 L338,-1170 L222,-498 Z" stroke-width="0" fill="#0f0615" fill-opacity="0.7333333333333333" />
<path d="M362,-442 L454,-578 L426,-898 L714,-1270 L206,-522 L394,-430 Z" stroke-width="0" fill="#0a0100" fill-opacity="0.8274509803921568" />
<path d="M102,-1162 L142,-542 L682,-278 L502,-86 L186,-994 L218,-350 Z" stroke-width="0" fill="#040a00" fill-opacity="0.8117647058823529" />
<path d="M258,-930 L174,-202 L166,-574 L306,-358 L118,-758 L510,-602 Z" stroke-width="0" fill="#1a180f" fill-opacity="0.4392156862745098" />
<path d="M326,-722 L686,-234 L390,-86 L262,-1262 L94,-1078 L514,-418 Z" stroke-width="0" fill="#000000" fill-opacity="0.6196078431372549" />
<path d="M470,-106 L166,-962 L682,-890 L398,-766 L258,-326 L206,-166 Z" stroke-width="0" fill="#000000" fill-opacity="0.9019607843137255" />
<path d="M602,-246 L194,-410 L154,-378 L550,-1226 L694,-746 L422,-1078 Z" stroke-width="0" fill="#f3efc9" fill-opacity="0.7529411764705882" />
<path d="M398,-462 L666,-462 L618,-1306 L594,-1066 L266,-130 L366,-602 Z" stroke-width="0" fill="#1f3405" fill-opacity="0.30980392156862746" />
<path d="M390,-1090 L522,-418 L262,-510 L258,-662 L534,-1222 L630,-1266 Z" stroke-width="0" fill="#686c78" fill-opacity="0.796078431372549" />
<path d="M214,-946 L290,-1210 L598,-98 L266,-162 L794,-794 L338,-1246 Z" stroke-width="0" fill="#eee8fa" fill-opacity="0.03529411764705882" />
<path d="M230,-930 L554,-1178 L618,-186 L618,-514 L650,-1174 L254,-826 Z" stroke-width="0" fill="#242c21" fill-opacity="0.611764705882353" />
<path d="M98,-246 L794,-1106 L730,-1034 L286,-338 L550,-758 L510,-602 Z" stroke-width="0" fill="#180e13" fill-opacity="0.796078431372549" />
<path d="M150,-306 L362,-1234 L382,-478 L182,-542 L262,-738 L242,-1026 Z" stroke-width="0" fill="#1f0b08" fill-opacity="0.27450980392156865" />
<path d="M550,-1214 L194,-330 L310,-154 L126,-610 L122,-1194 L234,-334 Z" stroke-width="0" fill="#171305" fill-opacity="0.9764705882352941" />
<path d="M238,-130 L698,-806 L554,-250 L258,-570 L618,-1162 L666,-590 Z" stroke-width="0" fill="#0d0215" fill-opacity="0.8392156862745098" />
<path d="M646,-286 L382,-1270 L194,-862 L158,-258 L674,-1298 L366,-1270 Z" stroke-width="0" fill="#000000" fill-opacity="0.8941176470588236" />
<path d="M482,-1078 L234,-722 L598,-214 L446,-590 L458,-1174 L282,-1042 Z" stroke-width="0" fill="#9ccfd2" fill-opacity="0.7176470588235294" />
<path d="M174,-1106 L402,-850 L202,-114 L554,-1254 L238,-974 L630,-558 Z" stroke-width="0" fill="#2e2a28" fill-opacity="0.5647058823529412" />
<path d="M534,-274 L690,-1030 L406,-302 L366,-138 L758,-670 L150,-226 Z" stroke-width="0" fill="#607a6f" fill-opacity="0.7372549019607844" />
<path d="M646,-262 L378,-298 L442,-1206 L582,-206 L438,-346 L610,-742 Z" stroke-width="0" fill="#d6e0d8" fill-opacity="0.49019607843137253" />
<path d="M634,-1298 L106,-758 L810,-722 L502,-1014 L578,-870 L394,-110 Z" stroke-width="0" fill="#265f4d" fill-opacity="0.06274509803921569" />
<path d="M318,-722 L570,-1218 L154,-182 L694,-1110 L454,-990 L226,-482 Z" stroke-width="0" fill="#d2b2c9" fill-opacity="0.03529411764705882" />
<path d="M162,-1002 L294,-1014 L494,-762 L806,-106 L414,-506 L766,-970 Z" stroke-width="0" fill="#2c222f" fill-opacity="0.9686274509803922" />
<path d="M98,-130 L298,-142 L550,-486 L246,-346 L306,-130 L386,-886 Z" stroke-width="0" fill="#000300" fill-opacity="0.9450980392156862" />
<path d="M750,-378 L350,-770 L670,-1290 L370,-586 L90,-1174 L590,-206 Z" stroke-width="0" fill="#4b3e3d" fill-opacity="0.7568627450980392" />
<path d="M126,-546 L762,-662 L206,-486 L274,-906 L410,-1134 L510,-174 Z" stroke-width="0" fill="#b3cdb4" fill-opacity="0.8745098039215686" />
<path d="M258,-390 L334,-1186 L134,-1302 L482,-382 L406,-866 L742,-762 Z" stroke-width="0" fill="#0c5146" fill-opacity="0.9450980392156862" />
<path d="M542,-382 L546,-306 L454,-298 L218,-418 L802,-1006 L286,-1290 Z" stroke-width="0" fill="#4c534f" fill-opacity="0.8705882352941177" />
<path d="M294,-250 L122,-290 L230,-314 L470,-1198 L654,-970 L370,-898 Z" stroke-width="0" fill="#091d1b" fill-opacity="0.6666666666666666" />
<path d="M230,-274 L166,-762 L658,-1254 L122,-510 L370,-378 L466,-1250 Z" stroke-width="0" fill="#11281b" fill-opacity="0.6666666666666666" />
<path d="M94,-278 L458,-450 L126,-274 L370,-974 L246,-386 L130,-494 Z" stroke-width="0" fill="#000a08" fill-opacity="0.9372549019607843" />
<path d="M238,-994 L686,-1002 L406,-502 L718,-750 L510,-130 L414,-866 Z" stroke-width="0" fill="#42326b" fill-opacity="0.1843137254901961" />
<path d="M186,-658 L134,-590 L630,-1018 L102,-1018 L314,-1262 L542,-114 Z" stroke-width="0" fill="#1a1a31" fill-opacity="0.2627450980392157" />
<path d="M250,-702 L546,-1106 L674,-654 L150,-294 L142,-214 L314,-1026 Z" stroke-width="0" fill="#c4fae8" fill-opacity="0.8509803921568627" />
<path d="M498,-170 L378,-1118 L546,-490 L146,-242 L674,-762 L122,-342 Z" stroke-width="0" fill="#38344c" fill-opacity="0.17647058823529413" />
<path d="M610,-454 L570,-182 L422,-110 L298,-838 L310,-950 L110,-410 Z" stroke-width="0" fill="#1d170f" fill-opacity="0.796078431372549" />
<path d="M106,-770 L390,-206 L334,-230 L110,-1306 L610,-1162 L402,-110 Z" stroke-width="0" fill="#130400" fill-opacity="0.8627450980392157" />
<path d="M806,-246 L158,-206 L134,-746 L570,-914 L414,-1310 L434,-702 Z" stroke-width="0" fill="#152d27" fill-opacity="0.807843137254902" />
<path d="M698,-210 L262,-1066 L286,-562 L214,-426 L106,-450 L646,-470 Z" stroke-width="0" fill="#ecabb1" fill-opacity="0.1803921568627451" />
<path d="M126,-854 L206,-166 L218,-98 L262,-1250 L398,-126 L178,-1114 Z" stroke-width="0" fill="#0f050d" fill-opacity="0.5882352941176471" />
<path d="M650,-674 L450,-1214 L666,-970 L650,-690 L238,-814 L422,-354 Z" stroke-width="0" fill="#cdf3f5" fill-opacity="0.0784313725490196" />
<path d="M514,-786 L714,-210 L778,-466 L262,-506 L678,-834 L274,-986 Z" stroke-width="0" fill="#4e4841" fill-opacity="0.788235294117647" />
<path d="M270,-618 L458,-162 L294,-178 L630,-906 L634,-826 L370,-230 Z" stroke-width="0" fill="#23a4aa" fill-opacity="0.06274509803921569" />
<path d="M390,-770 L430,-546 L478,-1054 L322,-946 L782,-1042 L82,-1022 Z" stroke-width="0" fill="#36232c" fill-opacity="0.3333333333333333" />
<path d="M258,-862 L614,-410 L546,-1130 L226,-230 L342,-930 L294,-158 Z" stroke-width="0" fill="#9b8585" fill-opacity="0.2235294117647059" />
<path d="M262,-518 L130,-282 L566,-666 L586,-186 L102,-234 L694,-866 Z" stroke-width="0" fill="#0b0000" fill-opacity="0.596078431372549" />
<path d="M658,-1114 L274,-494 L422,-714 L294,-426 L522,-142 L662,-410 Z" stroke-width="0" fill="#83775b" fill-opacity="0.34509803921568627" />
<path d="M246,-494 L366,-522 L538,-250 L210,-342 L522,-1262 L386,-818 Z" stroke-width="0" fill="#191723" fill-opacity="0.6862745098039216" />
<path d="M94,-1242 L382,-638 L174,-222 L758,-582 L334,-122 L646,-334 Z" stroke-width="0" fill="#223017" fill-opacity="0.12549019607843137" />
<path d="M706,-966 L126,-950 L270,-722 L738,-222 L450,-514 L98,-1118 Z" stroke-width="0" fill="#1e2e2e" fill-opacity="0.25098039215686274" />
<path d="M434,-318 L322,-1010 L490,-194 L782,-522 L510,-478 L110,-842 Z" stroke-width="0" fill="#293a50" fill-opacity="0.2901960784313726" />
<path d="M242,-1202 L422,-786 L398,-110 L642,-1046 L258,-510 L114,-954 Z" stroke-width="0" fill="#0d2433" fill-opacity="0.13725490196078433" />
<path d="M258,-558 L794,-358 L190,-562 L214,-142 L554,-798 L290,-666 Z" stroke-width="0" fill="#827a36" fill-opacity="0.011764705882352941" />
<path d="M306,-1270 L358,-890 L506,-102 L146,-758 L426,-1206 L418,-1206 Z" stroke-width="0" fill="#1a292a" fill-opacity="0.23137254901960785" />
<path d="M278,-594 L590,-1306 L798,-694 L322,-158 L638,-1230 L166,-522 Z" stroke-width="0" fill="#817c76" fill-opacity="0.12941176470588237" />
<text x="448.0" y="0" font-size="70.0" fill="black" text-anchor="middle" transform="translate(0,17.5)">7 OF WATER</text>
</svg>