<?xml version="1.0" encoding="UTF-8"?>
<svg xmlns="http://www.w3.org/2000/svg" xmlns:xlink="http://www.w3.org/1999/xlink"
     width="896" height="1496" viewBox="0 -1400 896 1496" style="font-size:70;font-family:Poor Richard, Times New Roman;stroke:black;stroke-width:1;fill:none">
<defs>
</defs>
<path d="M702,-786 L154,-278 L430,-366 L250,-1086 L146,-814 L94,-978 Z" stroke-width="0" fill="#3104b7" fill-opacity="0.0392156862745098" />
<path d="M810,-1206 L234,-726 L758,-742 L342,-170 L554,-870 L538,-966 Z" stroke-width="0" fill="#3ac3c5" fill-opacity="0.023529411764705882" />
<path d="M238,-1206 L98,-726 L606,-170 L194,-1302 L642,-738 L402,-234 Z" stroke-width="0" fill="#2ab9fa" fill-opacity="0.49019607843137253" />
<path d="M138,-590 L538,-654 L466,-142 L478,-378 L134,-486 L270,-402 Z" stroke-width="0" fill="#e100a2" fill-opacity="0.984313725490196" />
<path d="M238,-510 L450,-714 L122,-890 L770,-1130 L806,-174 L454,-586 Z" stroke-width="0" fill="#392501" fill-opacity="0.8588235294117647" />
<path d="M574,-1198 L350,-82 L362,-158 L118,-162 L686,-1142 L526,-410 Z" stroke-width="0" fill="#030000" fill-opacity="0.9098039215686274" />
<path d="M722,-874 L278,-254 L94,-790 L454,-1090 L446,-918 L382,-1102 Z" stroke-width="0" fill="#f2fcfc" fill-opacity="0.8156862745098039" />
<path d="M634,-550 L662,-386 L362,-506 L218,-246 L454,-718 L654,-730 Z" stroke-width="0" fill="#1fc941" fill-opacity="0.4470588235294118" />
<path d="M98,-1234 L154,-282 L586,-1150 L234,-438 L542,-206 L118,-502 Z" stroke-width="0" fill="#0fbcf4" fill-opacity="0.14901960784313725" />
<path d="M418,-1126 L274,-1198 L174,-486 L122,-1006 L590,-1206 L698,-898 Z" stroke-width="0" fill="#5cf9e9" fill-opacity="0.8901960784313725" />
<path d="M394,-934 L322,-306 L790,-1098 L606,-590 L362,-1218 L530,-1314 Z" stroke-width="0" fill="#00a7d6" fill-opacity="0.3764705882352941" />
<path d="M158,-474 L122,-1042 L442,-366 L770,-938 L262,-434 L682,-150 Z" stroke-width="0" fill="#f7f2f0" fill-opacity="0.9568627450980393" />
<path d="M150,-110 L250,-662 L462,-918 L438,-962 L314,-366 L410,-306 Z" stroke-width="0" fill="#080000" fill-opacity="0.9294117647058824" />
<path d="M678,-474 L458,-754 L122,-542 L162,-398 L306,-250 L514,-690 Z" stroke-width="0" fill="#440846" fill-opacity="0.9607843137254902" />
<path d="M730,-1022 L522,-798 L302,-990 L250,-538 L426,-710 L798,-1170 Z" stroke-width="0" fill="#0df3fa" fill-opacity="0.9686274509803922" />
<path d="M462,-630 L474,-446 L510,-182 L318,-1042 L274,-194 L566,-202 Z" stroke-width="0" fill="#7a02f7" fill-opacity="0.9764705882352941" />
<path d="M634,-734 L706,-226 L178,-290 L358,-554 L214,-266 L146,-930 Z" stroke-width="0" fill="#0e0000" fill-opacity="0.8784313725490196" />
<path d="M278,-554 L310,-1298 L238,-350 L306,-850 L686,-662 L286,-454 Z" stroke-width="0" fill="#09cad3" fill-opacity="0.38823529411764707" />
<path d="M238,-306 L530,-1274 L738,-610 L358,-338 L350,-602 L618,-802 Z" stroke-width="0" fill="#70bef6" fill-opacity="0.6705882352941176" />
<path d="M462,-634 L326,-850 L398,-1170 L574,-478 L146,-866 L426,-142 Z" stroke-width="0" fill="#76efff" fill-opacity="0.7843137254901961" />
<path d="M310,-966 L238,-954 L274,-574 L450,-582 L366,-1106 L334,-150 Z" stroke-width="0" fill="#43f100" fill-opacity="0.8745098039215686" />
<path d="M786,-670 L458,-1254 L594,-842 L758,-1106 L434,-1002 L734,-282 Z" stroke-width="0" fill="#f9f2bd" fill-opacity="0.7294117647058823" />
<path d="M474,-1166 L310,-742 L530,-970 L174,-390 L670,-1170 L430,-806 Z" stroke-width="0" fill="#6c0af4" fill-opacity="0.9686274509803922" />
<path d="M154,-902 L306,-866 L674,-298 L238,-454 L266,-170 L614,-198 Z" stroke-width="0" fill="#9edc32" fill-opacity="0.8705882352941177" />
<path d="M114,-994 L382,-878 L138,-1014 L550,-1066 L190,-402 L410,-1254 Z" stroke-width="0" fill="#abe8f8" fill-opacity="0.9254901960784314" />
<path d="M170,-734 L450,-718 L198,-174 L426,-522 L666,-390 L106,-474 Z" stroke-width="0" fill="#030000" fill-opacity="0.8313725490196079" />
<path d="M154,-786 L746,-1178 L406,-170 L158,-1298 L266,-346 L458,-114 Z" stroke-width="0" fill="#00a6d6" fill-opacity="0.3058823529411765" />
<path d="M114,-518 L354,-1302 L178,-390 L402,-638 L122,-150 L526,-486 Z" stroke-width="0" fill="#000000" fill-opacity="0.47058823529411764" />
<path d="M458,-178 L806,-558 L102,-806 L106,-414 L758,-1310 L486,-1118 Z" stroke-width="0" fill="#8f080f" fill-opacity="0.023529411764705882" />
<path d="M182,-122 L298,-1170 L290,-378 L546,-682 L270,-858 L518,-1134 Z" stroke-width="0" fill="#060a00" fill-opacity="0.9098039215686274" />
<path d="M438,-426 L774,-202 L522,-1162 L498,-290 L586,-1222 L646,-1150 Z" stroke-width="0" fill="#361319" fill-opacity="0.9764705882352941" />
<path d="M810,-174 L790,-1134 L458,-250 L194,-1114 L166,-870 L782,-842 Z" stroke-width="0" fill="#d1f7f7" fill-opacity="0.9686274509803922" />
<path d="M542,-1230 L414,-454 L110,-118 L758,-410 L490,-498 L658,-922 Z" stroke-width="0" fill="#000000" fill-opacity="0.9019607843137255" />
<path d="M626,-1238 L646,-342 L286,-970 L442,-1038 L362,-750 L286,-630 Z" stroke-width="0" fill="#c693f0" fill-opacity="0.10196078431372549" />
<path d="M186,-1214 L622,-622 L254,-1202 L126,-254 L454,-802 L334,-170 Z" stroke-width="0" fill="#2093e6" fill-opacity="0.32941176470588235" />
<path d="M126,-486 L150,-906 L798,-1302 L166,-170 L254,-698 L450,-250 Z" stroke-width="0" fill="#17beef" fill-opacity="0.4" />
<path d="M126,-234 L238,-1026 L714,-1050 L470,-302 L470,-238 L794,-142 Z" stroke-width="0" fill="#010011" fill-opacity="1.0" />
<path d="M502,-1090 L626,-1210 L314,-710 L534,-1122 L382,-666 L334,-1086 Z" stroke-width="0" fill="#b58ff3" fill-opacity="0.8313725490196079" />
<path d="M446,-518 L502,-774 L290,-526 L462,-1106 L638,-1082 L94,-922 Z" stroke-width="0" fill="#b7c9e4" fill-opacity="0.5450980392156862" />
<path d="M186,-1102 L462,-1046 L778,-1026 L326,-898 L138,-1262 L306,-758 Z" stroke-width="0" fill="#48cce3" fill-opacity="0.43137254901960786" />
<path d="M186,-386 L246,-442 L386,-106 L398,-566 L782,-1010 L726,-982 Z" stroke-width="0" fill="#109975" fill-opacity="0.9686274509803922" />
<path d="M186,-410 L630,-762 L682,-1222 L506,-446 L158,-142 L494,-1002 Z" stroke-width="0" fill="#0f0500" fill-opacity="0.7294117647058823" />
<path d="M334,-262 L430,-130 L354,-1126 L694,-246 L706,-1046 L302,-462 Z" stroke-width="0" fill="#3afdec" fill-opacity="0.7098039215686275" />
<path d="M458,-122 L366,-466 L402,-1146 L342,-758 L186,-766 L638,-1086 Z" stroke-width="0" fill="#000000" fill-opacity="0.9647058823529412" />
<path d="M594,-738 L294,-258 L458,-714 L166,-510 L290,-926 L150,-198 Z" stroke-width="0" fill="#000005" fill-opacity="0.33725490196078434" />
<path d="M334,-262 L454,-554 L190,-102 L374,-1238 L334,-314 L206,-1214 Z" stroke-width="0" fill="#032200" fill-opacity="0.20784313725490197" />
<path d="M810,-134 L178,-810 L302,-334 L506,-458 L570,-94 L402,-966 Z" stroke-width="0" fill="#000000" fill-opacity="0.7607843137254902" />
<path d="M658,-1294 L550,-1146 L650,-1310 L574,-606 L254,-330 L186,-598 Z" stroke-width="0" fill="#5ccdfe" fill-opacity="0.5529411764705883" />
<path d="M702,-134 L338,-142 L442,-382 L602,-790 L574,-1170 L90,-1022 Z" stroke-width="0" fill="#000700" fill-opacity="0.9647058823529412" />
<path d="M674,-834 L310,-1274 L198,-98 L146,-826 L342,-1102 L522,-1062 Z" stroke-width="0" fill="#001239" fill-opacity="0.07450980392156863" />
<path d="M486,-594 L170,-742 L666,-774 L702,-278 L262,-510 L474,-782 Z" stroke-width="0" fill="#0b18c9" fill-opacity="0.054901960784313725" />
<path d="M418,-106 L666,-574 L402,-190 L438,-342 L138,-1030 L670,-806 Z" stroke-width="0" fill="#022404" fill-opacity="0.8431372549019608" />
<path d="M686,-258 L282,-1290 L94,-490 L206,-470 L290,-262 L270,-334 Z" stroke-width="0" fill="#0b83e3" fill-opacity="0.4117647058823529" />
<path d="M374,-1210 L334,-970 L154,-446 L146,-886 L570,-302 L562,-978 Z" stroke-width="0" fill="#daddf5" fill-opacity="0.25098039215686274" />
<path d="M322,-1274 L354,-398 L182,-790 L710,-422 L370,-714 L94,-566 Z" stroke-width="0" fill="#9febfd" fill-opacity="0.9490196078431372" />
<path d="M310,-542 L150,-1166 L282,-378 L806,-262 L266,-542 L710,-1186 Z" stroke-width="0" fill="#112115" fill-opacity="0.09803921568627451" />
<path d="M542,-610 L734,-1270 L274,-1082 L182,-786 L674,-1058 L542,-746 Z" stroke-width="0" fill="#adebe0" fill-opacity="0.9411764705882353" />
<path d="M126,-434 L730,-258 L710,-418 L766,-854 L806,-1282 L310,-270 Z" stroke-width="0" fill="#d1edfd" fill-opacity="0.9450980392156862" />
<path d="M794,-458 L606,-174 L286,-114 L214,-558 L666,-730 L162,-98 Z" stroke-width="0" fill="#000000" fill-opacity="0.9294117647058824" />
<path d="M774,-414 L98,-334 L110,-414 L782,-502 L218,-122 L334,-254 Z" stroke-width="0" fill="#00000a" fill-opacity="0.8784313725490196" />
<path d="M322,-278 L678,-1118 L514,-238 L678,-1190 L130,-990 L390,-674 Z" stroke-width="0" fill="#b3eae8" fill-opacity="0.9764705882352941" />
<path d="M598,-782 L178,-926 L230,-942 L574,-442 L214,-770 L754,-918 Z" stroke-width="0" fill="#e6f9fb" fill-opacity="0.5490196078431373" />
<path d="M326,-98 L702,-582 L326,-854 L478,-970 L322,-1010 L666,-714 Z" stroke-width="0" fill="#000000" fill-opacity="0.7215686274509804" />
<path d="M582,-670 L470,-1158 L142,-546 L402,-122 L754,-1218 L354,-454 Z" stroke-width="0" fill="#53eef4" fill-opacity="0.043137254901960784" />
<path d="M410,-186 L406,-1074 L782,-146 L678,-1114 L278,-762 L250,-1182 Z" stroke-width="0" fill="#e9d4e7" fill-opacity="0.054901960784313725" />
<path d="M454,-226 L274,-986 L602,-462 L306,-178 L642,-414 L206,-1058 Z" stroke-width="0" fill="#8dd6df" fill-opacity="0.13725490196078433" />
<path d="M718,-1182 L182,-1222 L562,-402 L110,-714 L658,-254 L558,-1178 Z" stroke-width="0" fill="#48f4b9" fill-opacity="0.058823529411764705" />
<path d="M278,-510 L482,-1062 L706,-1114 L318,-258 L98,-738 L122,-1170 Z" stroke-width="0" fill="#a8f8d6" fill-opacity="0.3843137254901961" />
<path d="M282,-838 L198,-998 L282,-970 L810,-122 L342,-1106 L118,-746 Z" stroke-width="0" fill="#0b0000" fill-opacity="0.7254901960784313" />
<path d="M430,-1294 L478,-842 L650,-634 L194,-410 L350,-1066 L470,-698 Z" stroke-width="0" fill="#9aeef3" fill-opacity="0.37254901960784315" />
<path d="M474,-730 L86,-226 L358,-1114 L758,-542 L370,-158 L246,-854 Z" stroke-width="0" fill="#632200" fill-opacity="0.9647058823529412" />
<path d="M102,-374 L354,-638 L722,-498 L146,-542 L278,-690 L138,-990 Z" stroke-width="0" fill="#3a1942" fill-opacity="0.8745098039215686" />
<path d="M182,-454 L746,-1226 L546,-362 L710,-442 L734,-850 L230,-558 Z" stroke-width="0" fill="#f2faff" fill-opacity="0.1568627450980392" />
<path d="M454,-1038 L134,-546 L290,-458 L334,-202 L574,-590 L98,-298 Z" stroke-width="0" fill="#1a0000" fill-opacity="0.9294117647058824" />
<path d="M606,-582 L490,-386 L746,-406 L442,-226 L270,-150 L106,-550 Z" stroke-width="0" fill="#0f0000" fill-opacity="0.9607843137254902" />
<path d="M514,-114 L790,-426 L474,-426 L330,-510 L478,-170 L86,-434 Z" stroke-width="0" fill="#080111" fill-opacity="0.9686274509803922" />
<path d="M398,-1310 L86,-1054 L218,-358 L250,-806 L746,-154 L318,-278 Z" stroke-width="0" fill="#afcbd4" fill-opacity="0.9686274509803922" />
<path d="M498,-142 L242,-1030 L766,-454 L510,-1134 L378,-370 L734,-1086 Z" stroke-width="0" fill="#e5fef6" fill-opacity="0.15294117647058825" />
<path d="M338,-1054 L346,-182 L802,-1098 L422,-318 L238,-326 L642,-966 Z" stroke-width="0" fill="#cdf1e8" fill-opacity="0.7647058823529411" />
<path d="M118,-998 L734,-1174 L354,-106 L506,-1278 L662,-954 L638,-1006 Z" stroke-width="0" fill="#9cecf9" fill-opacity="0.8980392156862745" />
<path d="M710,-734 L530,-102 L446,-342 L534,-554 L602,-602 L110,-934 Z" stroke-width="0" fill="#e0e504" fill-opacity="0.9647058823529412" />
<path d="M130,-794 L514,-1010 L190,-1050 L82,-482 L798,-666 L454,-1202 Z" stroke-width="0" fill="#c4ecb2" fill-opacity="0.8156862745098039" />
<path d="M178,-1046 L626,-254 L634,-954 L110,-790 L438,-866 L422,-650 Z" stroke-width="0" fill="#dce0fa" fill-opacity="0.5019607843137255" />
<path d="M374,-98 L522,-582 L398,-894 L278,-506 L134,-518 L206,-590 Z" stroke-width="0" fill="#050000" fill-opacity="0.9294117647058824" />
<path d="M514,-726 L490,-750 L166,-722 L442,-294 L442,-326 L626,-414 Z" stroke-width="0" fill="#f4f702" fill-opacity="0.23529411764705882" />
<path d="M86,-754 L414,-666 L454,-722 L82,-346 L566,-418 L590,-986 Z" stroke-width="0" fill="#ebdc58" fill-opacity="0.01568627450980392" />
<path d="M378,-906 L578,-266 L118,-310 L634,-242 L766,-1046 L530,-542 Z" stroke-width="0" fill="#e0e6f6" fill-opacity="0.06274509803921569" />
<path d="M654,-410 L774,-522 L238,-514 L330,-1106 L710,-570 L86,-118 Z" stroke-width="0" fill="#e1e81b" fill-opacity="0.03529411764705882" />
<path d="M354,-450 L450,-486 L666,-346 L386,-638 L222,-494 L322,-1118 Z" stroke-width="0" fill="#ddffe9" fill-opacity="0.0784313725490196" />
<path d="M154,-1162 L574,-674 L166,-422 L718,-474 L486,-250 L770,-1302 Z" stroke-width="0" fill="#e8f5ea" fill-opacity="0.0784313725490196" />
<path d="M94,-210 L558,-242 L718,-1238 L130,-590 L102,-362 L374,-318 Z" stroke-width="0" fill="#b4cff0" fill-opacity="0.03529411764705882" />
<path d="M338,-1234 L526,-294 L410,-1118 L274,-998 L102,-1034 L618,-470 Z" stroke-width="0" fill="#d3f8f9" fill-opacity="0.8588235294117647" />
<path d="M242,-1094 L726,-482 L602,-658 L442,-834 L134,-302 L126,-542 Z" stroke-width="0" fill="#fdf3ff" fill-opacity="0.28627450980392155" />
<path d="M698,-142 L370,-1070 L562,-1058 L398,-186 L106,-638 L230,-150 Z" stroke-width="0" fill="#17082f" fill-opacity="0.8941176470588236" />
<path d="M390,-1110 L354,-402 L494,-654 L322,-1146 L558,-1186 L258,-190 Z" stroke-width="0" fill="#c1eff4" fill-opacity="0.4588235294117647" />
<path d="M414,-130 L454,-718 L282,-154 L450,-538 L470,-866 L414,-622 Z" stroke-width="0" fill="#2b3200" fill-opacity="0.10980392156862745" />
<path d="M510,-526 L238,-930 L154,-230 L574,-482 L642,-1270 L578,-1042 Z" stroke-width="0" fill="#92f012" fill-opacity="0.20784313725490197" />
<path d="M734,-254 L462,-1218 L242,-770 L178,-942 L362,-1042 L718,-610 Z" stroke-width="0" fill="#ceeeed" fill-opacity="0.9725490196078431" />
<path d="M506,-1170 L342,-898 L410,-450 L658,-242 L486,-474 L134,-262 Z" stroke-width="0" fill="#161b33" fill-opacity="0.08627450980392157" />
<path d="M174,-434 L642,-1242 L722,-90 L590,-790 L562,-442 L454,-362 Z" stroke-width="0" fill="#f0fcec" fill-opacity="0.20392156862745098" />
<text x="448.0" y="0" font-size="70.0" fill="black" text-anchor="middle" transform="translate(0,17.5)">QUEEN OF WATER</text>
</svg>