<?xml version="1.0" encoding="UTF-8"?>
<svg xmlns="http://www.w3.org/2000/svg" xmlns:xlink="http://www.w3.org/1999/xlink"
     width="275" height="375" viewBox="0 -350 275 375">
<defs>
</defs>
<rect x="15" y="-335" width="245" height="320" stroke="black" stroke-width="4" fill="white" />
<path d="M187,-288 L208,-135 L227,-217 L76,-54 L80,-178 L99,-114 Z" stroke-width="0" fill="#fc8dcd" fill-opacity="0.592156862745098" />
<path d="M185,-228 L169,-215 L242,-35 L148,-67 L230,-66 L128,-75 Z" stroke-width="0" fill="#000000" fill-opacity="0.984313725490196" />
<path d="M77,-313 L75,-36 L238,-241 L73,-54 L35,-180 L79,-264 Z" stroke-width="0" fill="#211100" fill-opacity="0.6509803921568628" />
<path d="M78,-29 L106,-170 L138,-70 L167,-146 L27,-47 L203,-135 Z" stroke-width="0" fill="#000000" fill-opacity="0.8235294117647058" />
<path d="M26,-256 L43,-184 L226,-82 L234,-115 L181,-43 L137,-175 Z" stroke-width="0" fill="#000000" fill-opacity="0.7098039215686275" />
<path d="M72,-258 L160,-134 L110,-38 L102,-290 L91,-154 L194,-205 Z" stroke-width="0" fill="#000000" fill-opacity="0.9490196078431372" />
<path d="M25,-144 L93,-294 L59,-179 L25,-118 L115,-243 L215,-87 Z" stroke-width="0" fill="#455627" fill-opacity="0.9764705882352941" />
<path d="M164,-125 L84,-294 L41,-68 L215,-76 L71,-99 L128,-184 Z" stroke-width="0" fill="#32017e" fill-opacity="0.996078431372549" />
<path d="M93,-160 L81,-270 L81,-279 L142,-208 L171,-141 L35,-266 Z" stroke-width="0" fill="#d64b35" fill-opacity="0.0392156862745098" />
<path d="M215,-203 L71,-207 L122,-224 L150,-242 L218,-33 L153,-144 Z" stroke-width="0" fill="#000000" fill-opacity="0.8549019607843137" />
<path d="M235,-102 L199,-218 L38,-82 L31,-110 L66,-291 L178,-195 Z" stroke-width="0" fill="#220801" fill-opacity="0.8352941176470589" />
<path d="M240,-45 L117,-257 L150,-169 L91,-206 L194,-35 L69,-248 Z" stroke-width="0" fill="#f70000" fill-opacity="0.8745098039215686" />
<path d="M83,-69 L139,-310 L188,-323 L213,-150 L184,-219 L210,-162 Z" stroke-width="0" fill="#00191b" fill-opacity="0.7843137254901961" />
<path d="M120,-220 L239,-153 L163,-40 L186,-248 L132,-134 L113,-57 Z" stroke-width="0" fill="#00381b" fill-opacity="0.984313725490196" />
<path d="M51,-187 L171,-260 L47,-159 L151,-58 L190,-129 L245,-111 Z" stroke-width="0" fill="#f00000" fill-opacity="0.9176470588235294" />
<path d="M30,-100 L137,-157 L128,-80 L100,-304 L141,-139 L182,-207 Z" stroke-width="0" fill="#000005" fill-opacity="0.5725490196078431" />
<path d="M192,-150 L190,-67 L194,-39 L90,-76 L78,-185 L49,-122 Z" stroke-width="0" fill="#e90401" fill-opacity="0.9803921568627451" />
<path d="M228,-137 L224,-39 L123,-84 L97,-59 L221,-266 L130,-183 Z" stroke-width="0" fill="#fc0000" fill-opacity="0.9411764705882353" />
<path d="M92,-136 L83,-106 L37,-55 L34,-166 L76,-201 L45,-203 Z" stroke-width="0" fill="#aac244" fill-opacity="0.5019607843137255" />
<path d="M37,-207 L85,-67 L91,-321 L208,-36 L239,-30 L108,-41 Z" stroke-width="0" fill="#090000" fill-opacity="0.9294117647058824" />
<path d="M79,-183 L116,-82 L80,-56 L34,-233 L197,-309 L101,-149 Z" stroke-width="0" fill="#616e31" fill-opacity="0.7137254901960784" />
<path d="M142,-240 L172,-165 L123,-80 L242,-121 L37,-323 L71,-166 Z" stroke-width="0" fill="#1d1e26" fill-opacity="0.8235294117647058" />
<path d="M118,-261 L119,-49 L187,-210 L137,-106 L155,-319 L76,-200 Z" stroke-width="0" fill="#be4b42" fill-opacity="0.8862745098039215" />
<path d="M143,-86 L127,-214 L185,-119 L102,-310 L167,-54 L129,-215 Z" stroke-width="0" fill="#436c5b" fill-opacity="0.29411764705882354" />
<path d="M31,-91 L134,-174 L149,-69 L85,-279 L125,-156 L218,-116 Z" stroke-width="0" fill="#010900" fill-opacity="0.8862745098039215" />
<path d="M150,-207 L196,-126 L197,-42 L75,-97 L148,-297 L128,-223 Z" stroke-width="0" fill="#fa0000" fill-opacity="0.9647058823529412" />
<path d="M32,-84 L114,-255 L88,-44 L75,-160 L176,-214 L248,-185 Z" stroke-width="0" fill="#051234" fill-opacity="0.8666666666666667" />
<path d="M93,-124 L37,-164 L79,-186 L144,-246 L152,-137 L217,-39 Z" stroke-width="0" fill="#270000" fill-opacity="0.807843137254902" />
<path d="M76,-208 L216,-74 L115,-208 L170,-309 L199,-321 L113,-264 Z" stroke-width="0" fill="#68323e" fill-opacity="0.4470588235294118" />
<path d="M162,-96 L128,-48 L246,-69 L243,-154 L151,-49 L139,-262 Z" stroke-width="0" fill="#f40000" fill-opacity="0.8392156862745098" />
<path d="M43,-40 L159,-223 L217,-169 L55,-323 L75,-49 L40,-141 Z" stroke-width="0" fill="#003935" fill-opacity="0.6862745098039216" />
<path d="M38,-150 L100,-37 L209,-124 L89,-210 L207,-173 L104,-37 Z" stroke-width="0" fill="#000000" fill-opacity="0.6862745098039216" />
<path d="M136,-150 L135,-167 L60,-74 L92,-258 L116,-37 L42,-162 Z" stroke-width="0" fill="#000000" fill-opacity="0.8588235294117647" />
<path d="M204,-71 L39,-69 L167,-120 L150,-72 L52,-243 L244,-264 Z" stroke-width="0" fill="#155004" fill-opacity="0.611764705882353" />
<path d="M151,-220 L101,-184 L49,-190 L209,-224 L198,-219 L171,-122 Z" stroke-width="0" fill="#f3f1ff" fill-opacity="0.8862745098039215" />
<path d="M41,-183 L234,-127 L179,-103 L54,-145 L195,-155 L125,-195 Z" stroke-width="0" fill="#00b314" fill-opacity="0.9254901960784314" />
<path d="M54,-171 L93,-225 L47,-45 L178,-287 L200,-308 L153,-41 Z" stroke-width="0" fill="#9b6299" fill-opacity="0.13725490196078433" />
<path d="M84,-162 L38,-85 L32,-175 L201,-98 L93,-301 L77,-99 Z" stroke-width="0" fill="#340022" fill-opacity="0.5019607843137255" />
<path d="M129,-154 L117,-206 L138,-84 L69,-87 L42,-324 L164,-133 Z" stroke-width="0" fill="#3f3c00" fill-opacity="0.5019607843137255" />
<path d="M152,-81 L190,-32 L109,-128 L171,-138 L82,-69 L203,-164 Z" stroke-width="0" fill="#800000" fill-opacity="0.8980392156862745" />
<path d="M227,-158 L79,-113 L53,-262 L129,-34 L61,-306 L216,-57 Z" stroke-width="0" fill="#830000" fill-opacity="0.10980392156862745" />
<path d="M111,-186 L165,-281 L212,-81 L48,-174 L133,-230 L62,-243 Z" stroke-width="0" fill="#f00400" fill-opacity="0.6901960784313725" />
<path d="M121,-230 L27,-107 L196,-176 L145,-128 L96,-131 L25,-64 Z" stroke-width="0" fill="#000000" fill-opacity="0.7843137254901961" />
<path d="M200,-312 L27,-130 L94,-179 L150,-303 L197,-217 L95,-110 Z" stroke-width="0" fill="#684134" fill-opacity="0.8" />
<path d="M127,-222 L50,-241 L162,-145 L223,-154 L25,-109 L241,-29 Z" stroke-width="0" fill="#7d0000" fill-opacity="0.8392156862745098" />
<path d="M154,-121 L229,-136 L144,-156 L175,-125 L238,-75 L131,-35 Z" stroke-width="0" fill="#f70000" fill-opacity="0.25882352941176473" />
<path d="M155,-170 L129,-277 L86,-249 L75,-178 L240,-70 L92,-134 Z" stroke-width="0" fill="#e10000" fill-opacity="0.9098039215686274" />
<path d="M106,-283 L195,-278 L103,-297 L110,-81 L220,-258 L79,-191 Z" stroke-width="0" fill="#dbeead" fill-opacity="0.9137254901960784" />
<path d="M233,-107 L79,-132 L144,-27 L158,-235 L164,-32 L135,-172 Z" stroke-width="0" fill="#b60000" fill-opacity="0.9921568627450981" />
<path d="M152,-301 L93,-223 L88,-220 L115,-183 L113,-303 L26,-270 Z" stroke-width="0" fill="#b1d283" fill-opacity="0.3333333333333333" />
<path d="M185,-161 L171,-94 L239,-240 L225,-178 L44,-49 L189,-58 Z" stroke-width="0" fill="#3d1e37" fill-opacity="0.7215686274509804" />
<path d="M113,-90 L185,-70 L36,-34 L77,-219 L181,-150 L52,-292 Z" stroke-width="0" fill="#000000" fill-opacity="0.9137254901960784" />
<path d="M79,-256 L76,-227 L37,-171 L52,-124 L117,-234 L135,-291 Z" stroke-width="0" fill="#652d43" fill-opacity="0.5647058823529412" />
<path d="M103,-48 L158,-280 L96,-67 L137,-87 L192,-285 L229,-250 Z" stroke-width="0" fill="#fcf4fc" fill-opacity="0.5529411764705883" />
<path d="M25,-232 L59,-246 L186,-155 L87,-131 L43,-102 L211,-312 Z" stroke-width="0" fill="#120a02" fill-opacity="0.21176470588235294" />
<path d="M81,-78 L104,-314 L167,-256 L108,-255 L99,-265 L25,-31 Z" stroke-width="0" fill="#000000" fill-opacity="0.7294117647058823" />
<path d="M126,-156 L32,-136 L226,-230 L177,-293 L35,-144 L65,-184 Z" stroke-width="0" fill="#b1fef0" fill-opacity="0.3058823529411765" />
<path d="M26,-155 L180,-76 L120,-115 L230,-262 L85,-146 L61,-97 Z" stroke-width="0" fill="#d9b9bc" fill-opacity="0.047058823529411764" />
<path d="M135,-218 L207,-38 L185,-248 L89,-82 L159,-165 L78,-44 Z" stroke-width="0" fill="#ebc353" fill-opacity="0.2627450980392157" />
<path d="M25,-309 L211,-95 L134,-30 L40,-237 L188,-145 L160,-218 Z" stroke-width="0" fill="#1e0000" fill-opacity="0.7176470588235294" />
<path d="M48,-293 L47,-158 L30,-267 L103,-211 L95,-35 L215,-146 Z" stroke-width="0" fill="#32402d" fill-opacity="0.7843137254901961" />
<path d="M153,-264 L132,-90 L125,-214 L144,-154 L234,-45 L155,-64 Z" stroke-width="0" fill="#fd0000" fill-opacity="0.5019607843137255" />
<path d="M84,-132 L49,-253 L151,-317 L200,-126 L32,-180 L86,-171 Z" stroke-width="0" fill="#24514b" fill-opacity="0.7372549019607844" />
<path d="M27,-212 L147,-291 L53,-315 L195,-56 L116,-266 L238,-100 Z" stroke-width="0" fill="#372002" fill-opacity="0.5019607843137255" />
<path d="M47,-296 L164,-289 L189,-301 L204,-267 L97,-150 L166,-78 Z" stroke-width="0" fill="#575a67" fill-opacity="0.396078431372549" />
<path d="M144,-86 L68,-145 L26,-87 L123,-215 L125,-37 L186,-238 Z" stroke-width="0" fill="#000000" fill-opacity="0.8156862745098039" />
<path d="M193,-174 L45,-89 L145,-318 L132,-66 L87,-155 L27,-156 Z" stroke-width="0" fill="#433755" fill-opacity="0.5019607843137255" />
<path d="M116,-307 L43,-66 L189,-107 L188,-113 L185,-287 L142,-106 Z" stroke-width="0" fill="#5b7c9c" fill-opacity="0.3137254901960784" />
<path d="M95,-78 L98,-42 L175,-190 L183,-287 L83,-298 L88,-125 Z" stroke-width="0" fill="#5b3d76" fill-opacity="0.4196078431372549" />
<path d="M90,-91 L44,-211 L115,-171 L161,-274 L40,-305 L38,-38 Z" stroke-width="0" fill="#b293e8" fill-opacity="0.23529411764705882" />
<path d="M29,-37 L239,-314 L223,-244 L64,-226 L108,-105 L193,-297 Z" stroke-width="0" fill="#0bae4c" fill-opacity="0.0196078431372549" />
<path d="M35,-273 L89,-310 L164,-112 L80,-245 L233,-74 L206,-145 Z" stroke-width="0" fill="#372628" fill-opacity="0.13333333333333333" />
<path d="M83,-64 L179,-106 L50,-131 L223,-39 L60,-180 L171,-143 Z" stroke-width="0" fill="#ee0000" fill-opacity="0.9725490196078431" />
<path d="M200,-58 L101,-29 L217,-33 L91,-188 L230,-157 L245,-130 Z" stroke-width="0" fill="#ad0000" fill-opacity="0.9058823529411765" />
<path d="M74,-78 L33,-179 L157,-87 L149,-99 L67,-75 L53,-112 Z" stroke-width="0" fill="#924a4f" fill-opacity="0.8509803921568627" />
<path d="M69,-166 L87,-148 L215,-223 L61,-39 L197,-274 L151,-272 Z" stroke-width="0" fill="#60e8ec" fill-opacity="0.3137254901960784" />
<path d="M45,-219 L165,-205 L50,-49 L177,-47 L210,-320 L123,-214 Z" stroke-width="0" fill="#000000" fill-opacity="0.592156862745098" />
<path d="M35,-148 L110,-206 L83,-201 L141,-164 L227,-240 L91,-215 Z" stroke-width="0" fill="#f7ffac" fill-opacity="0.9098039215686274" />
<path d="M25,-74 L42,-233 L110,-89 L248,-259 L141,-31 L231,-135 Z" stroke-width="0" fill="#000028" fill-opacity="0.47058823529411764" />
<path d="M52,-48 L137,-256 L209,-245 L150,-279 L220,-282 L68,-141 Z" stroke-width="0" fill="#585258" fill-opacity="0.5019607843137255" />
<path d="M27,-89 L156,-81 L247,-294 L151,-27 L198,-112 L151,-206 Z" stroke-width="0" fill="#340007" fill-opacity="0.24705882352941178" />
<path d="M139,-160 L39,-152 L56,-148 L37,-185 L34,-32 L206,-150 Z" stroke-width="0" fill="#003417" fill-opacity="0.5019607843137255" />
<path d="M218,-108 L48,-35 L37,-91 L222,-95 L59,-237 L26,-36 Z" stroke-width="0" fill="#1b0000" fill-opacity="0.23529411764705882" />
<path d="M30,-300 L89,-194 L27,-26 L102,-50 L190,-285 L68,-132 Z" stroke-width="0" fill="#000000" fill-opacity="0.7137254901960784" />
<path d="M77,-282 L70,-252 L91,-239 L28,-157 L239,-239 L75,-88 Z" stroke-width="0" fill="#6893d8" fill-opacity="0.09019607843137255" />
<path d="M61,-289 L43,-87 L186,-215 L102,-26 L59,-68 L90,-190 Z" stroke-width="0" fill="#00200c" fill-opacity="0.5803921568627451" />
<path d="M108,-78 L184,-179 L166,-314 L41,-222 L107,-243 L74,-31 Z" stroke-width="0" fill="#250000" fill-opacity="0.15294117647058825" />
<path d="M65,-229 L232,-62 L51,-258 L55,-123 L134,-217 L98,-126 Z" stroke-width="0" fill="#f0c5c9" fill-opacity="0.1843137254901961" />
<path d="M166,-74 L67,-272 L75,-84 L47,-246 L159,-286 L214,-149 Z" stroke-width="0" fill="#79b824" fill-opacity="0.17647058823529413" />
<path d="M168,-226 L167,-169 L148,-87 L116,-151 L201,-40 L178,-175 Z" stroke-width="0" fill="#170000" fill-opacity="0.19215686274509805" />
<path d="M42,-270 L122,-117 L196,-53 L66,-222 L245,-175 L219,-153 Z" stroke-width="0" fill="#4d2f1d" fill-opacity="0.9490196078431372" />
<path d="M169,-312 L114,-125 L172,-84 L181,-322 L194,-271 L117,-245 Z" stroke-width="0" fill="#4c7b91" fill-opacity="0.43137254901960786" />
<path d="M25,-124 L125,-90 L219,-212 L191,-102 L205,-64 L127,-84 Z" stroke-width="0" fill="#120006" fill-opacity="0.5019607843137255" />
<path d="M111,-32 L90,-189 L42,-245 L70,-297 L45,-53 L173,-240 Z" stroke-width="0" fill="#301f5e" fill-opacity="0.11372549019607843" />
<path d="M132,-268 L34,-127 L60,-261 L41,-196 L248,-289 L30,-66 Z" stroke-width="0" fill="#6e817d" fill-opacity="0.3137254901960784" />
<path d="M83,-222 L92,-175 L173,-93 L99,-70 L45,-273 L239,-114 Z" stroke-width="0" fill="#424858" fill-opacity="0.5019607843137255" />
<path d="M33,-82 L124,-314 L67,-195 L68,-310 L178,-163 L195,-26 Z" stroke-width="0" fill="#364400" fill-opacity="0.2235294117647059" />
<path d="M52,-116 L224,-117 L25,-26 L45,-137 L188,-250 L145,-199 Z" stroke-width="0" fill="#000000" fill-opacity="0.5019607843137255" />
<path d="M67,-257 L91,-62 L188,-280 L60,-220 L225,-135 L223,-45 Z" stroke-width="0" fill="#3a0990" fill-opacity="0.03529411764705882" />
<path d="M33,-75 L112,-108 L92,-289 L234,-238 L174,-145 L189,-25 Z" stroke-width="0" fill="#2e0000" fill-opacity="0.19607843137254902" />
<text x="137.5" y="12.5" font-size="20.0" fill="black" text-anchor="middle" transform="translate(0,5.0)">3 OF WATER</text>
</svg>