<?xml version="1.0" encoding="UTF-8"?>
<svg xmlns="http://www.w3.org/2000/svg" xmlns:xlink="http://www.w3.org/1999/xlink"
     width="896" height="1496" viewBox="0 -1400 896 1496" style="font-size:70;font-family:Poor Richard, Times New Roman;stroke:black;stroke-width:1;fill:none">
<defs>
</defs>
<path d="M178,-866 L310,-546 L134,-838 L170,-554 L250,-226 L538,-650 Z" stroke-width="0" fill="#0464a3" fill-opacity="0.7019607843137254" />
<path d="M506,-314 L142,-866 L558,-438 L482,-922 L626,-174 L558,-894 Z" stroke-width="0" fill="#3a61ee" fill-opacity="0.06666666666666667" />
<path d="M306,-1034 L282,-846 L186,-810 L250,-630 L462,-314 L510,-830 Z" stroke-width="0" fill="#111c02" fill-opacity="0.5215686274509804" />
<path d="M106,-110 L370,-786 L786,-598 L290,-322 L350,-258 L730,-894 Z" stroke-width="0" fill="#364273" fill-opacity="0.21176470588235294" />
<path d="M82,-366 L226,-602 L590,-418 L166,-346 L438,-1106 L266,-798 Z" stroke-width="0" fill="#1b028b" fill-opacity="0.043137254901960784" />
<path d="M206,-858 L114,-474 L562,-622 L490,-786 L322,-434 L646,-1054 Z" stroke-width="0" fill="#a6cdfa" fill-opacity="0.2901960784313726" />
<path d="M582,-862 L582,-738 L554,-1198 L414,-1198 L142,-154 L370,-746 Z" stroke-width="0" fill="#1077f3" fill-opacity="0.8352941176470589" />
<path d="M86,-330 L530,-790 L562,-530 L290,-490 L298,-158 L438,-390 Z" stroke-width="0" fill="#de21d7" fill-opacity="0.011764705882352941" />
<path d="M234,-350 L722,-914 L158,-842 L98,-1198 L114,-1166 L574,-634 Z" stroke-width="0" fill="#430ab1" fill-opacity="0.6352941176470588" />
<path d="M430,-1246 L290,-210 L574,-290 L622,-862 L222,-130 L730,-626 Z" stroke-width="0" fill="#14005a" fill-opacity="0.6235294117647059" />
<path d="M118,-822 L654,-886 L126,-502 L618,-558 L274,-214 L374,-810 Z" stroke-width="0" fill="#d441e9" fill-opacity="0.023529411764705882" />
<path d="M146,-966 L190,-966 L282,-446 L718,-926 L462,-1178 L202,-466 Z" stroke-width="0" fill="#2f91f1" fill-opacity="0.9803921568627451" />
<path d="M546,-494 L474,-974 L130,-278 L626,-1302 L710,-202 L218,-614 Z" stroke-width="0" fill="#371ced" fill-opacity="0.7333333333333333" />
<path d="M202,-1126 L446,-526 L138,-594 L482,-314 L390,-1082 L438,-686 Z" stroke-width="0" fill="#226cf6" fill-opacity="0.9294117647058824" />
<path d="M202,-1138 L390,-1310 L486,-222 L270,-786 L210,-262 L566,-534 Z" stroke-width="0" fill="#000019" fill-opacity="0.6313725490196078" />
<path d="M490,-178 L734,-358 L450,-318 L394,-162 L802,-874 L534,-1150 Z" stroke-width="0" fill="#76afac" fill-opacity="0.5137254901960784" />
<path d="M746,-454 L438,-702 L530,-350 L390,-1074 L142,-1186 L90,-1178 Z" stroke-width="0" fill="#110e95" fill-opacity="0.47843137254901963" />
<path d="M538,-838 L302,-722 L646,-610 L486,-474 L534,-338 L422,-182 Z" stroke-width="0" fill="#cb0a8d" fill-opacity="0.3607843137254902" />
<path d="M422,-870 L810,-178 L342,-218 L570,-1014 L186,-150 L334,-442 Z" stroke-width="0" fill="#5c2241" fill-opacity="0.6784313725490196" />
<path d="M490,-906 L546,-138 L386,-1302 L270,-1162 L550,-102 L566,-474 Z" stroke-width="0" fill="#000059" fill-opacity="0.6549019607843137" />
<path d="M446,-1090 L530,-310 L586,-694 L270,-350 L426,-1042 L554,-454 Z" stroke-width="0" fill="#a60744" fill-opacity="0.9882352941176471" />
<path d="M222,-946 L542,-1310 L802,-1194 L130,-1226 L350,-822 L446,-254 Z" stroke-width="0" fill="#00125c" fill-opacity="0.8666666666666667" />
<path d="M462,-1066 L170,-338 L530,-342 L114,-830 L422,-822 L442,-394 Z" stroke-width="0" fill="#2aedf2" fill-opacity="0.4823529411764706" />
<path d="M86,-586 L550,-114 L250,-730 L102,-462 L734,-174 L546,-578 Z" stroke-width="0" fill="#3421ec" fill-opacity="0.11372549019607843" />
<path d="M342,-858 L622,-414 L346,-1086 L458,-1006 L534,-726 L198,-170 Z" stroke-width="0" fill="#3fc554" fill-opacity="0.8980392156862745" />
<path d="M374,-1190 L154,-918 L602,-698 L242,-846 L222,-610 L658,-1126 Z" stroke-width="0" fill="#1169ce" fill-opacity="0.5372549019607843" />
<path d="M294,-1206 L666,-1134 L726,-1226 L290,-678 L318,-622 L234,-242 Z" stroke-width="0" fill="#1f4cec" fill-opacity="0.9647058823529412" />
<path d="M546,-834 L774,-1170 L298,-482 L530,-734 L494,-898 L630,-798 Z" stroke-width="0" fill="#0c23ec" fill-opacity="0.2980392156862745" />
<path d="M254,-686 L118,-934 L202,-1138 L382,-546 L130,-814 L658,-234 Z" stroke-width="0" fill="#abd9cd" fill-opacity="0.6392156862745098" />
<path d="M498,-486 L366,-546 L82,-358 L254,-678 L786,-354 L626,-678 Z" stroke-width="0" fill="#c4369e" fill-opacity="0.0" />
<path d="M810,-102 L386,-790 L266,-470 L374,-1230 L566,-454 L190,-734 Z" stroke-width="0" fill="#2e1243" fill-opacity="0.47843137254901963" />
<path d="M146,-678 L654,-638 L334,-106 L438,-1046 L522,-994 L658,-274 Z" stroke-width="0" fill="#400608" fill-opacity="0.2235294117647059" />
<path d="M438,-946 L106,-518 L142,-826 L134,-726 L782,-170 L582,-442 Z" stroke-width="0" fill="#4b3062" fill-opacity="0.592156862745098" />
<path d="M630,-98 L658,-634 L642,-1254 L470,-758 L154,-794 L362,-886 Z" stroke-width="0" fill="#2a3fbc" fill-opacity="0.592156862745098" />
<path d="M470,-1042 L722,-182 L126,-1006 L326,-930 L246,-1166 L466,-1178 Z" stroke-width="0" fill="#20003b" fill-opacity="0.6" />
<path d="M802,-266 L322,-254 L610,-1090 L674,-758 L538,-570 L686,-1158 Z" stroke-width="0" fill="#feeaeb" fill-opacity="0.7607843137254902" />
<path d="M366,-390 L374,-970 L494,-1286 L378,-394 L162,-1010 L578,-754 Z" stroke-width="0" fill="#00024e" fill-opacity="0.7372549019607844" />
<path d="M622,-626 L342,-526 L166,-574 L414,-618 L234,-474 L302,-810 Z" stroke-width="0" fill="#3018fc" fill-opacity="0.13725490196078433" />
<path d="M318,-406 L86,-654 L518,-1234 L414,-322 L82,-1054 L194,-102 Z" stroke-width="0" fill="#0710c4" fill-opacity="0.7333333333333333" />
<path d="M94,-1262 L762,-490 L634,-1078 L386,-1138 L362,-566 L754,-222 Z" stroke-width="0" fill="#0f299b" fill-opacity="0.7215686274509804" />
<path d="M614,-718 L598,-422 L366,-298 L110,-106 L266,-790 L714,-118 Z" stroke-width="0" fill="#8816b9" fill-opacity="0.9568627450980393" />
<path d="M262,-1162 L386,-1150 L182,-374 L570,-110 L290,-654 L298,-518 Z" stroke-width="0" fill="#0e04b9" fill-opacity="0.11372549019607843" />
<path d="M774,-130 L350,-98 L274,-450 L422,-758 L406,-734 L146,-482 Z" stroke-width="0" fill="#7e398f" fill-opacity="0.5019607843137255" />
<path d="M582,-1050 L438,-274 L698,-350 L194,-482 L222,-710 L522,-422 Z" stroke-width="0" fill="#0200d5" fill-opacity="0.6627450980392157" />
<path d="M102,-406 L738,-710 L242,-1166 L758,-562 L522,-530 L618,-1210 Z" stroke-width="0" fill="#74f9f7" fill-opacity="0.5019607843137255" />
<path d="M86,-1058 L810,-194 L342,-606 L610,-1262 L722,-598 L454,-334 Z" stroke-width="0" fill="#b49dab" fill-opacity="0.12156862745098039" />
<path d="M194,-390 L302,-986 L130,-518 L670,-186 L270,-410 L406,-830 Z" stroke-width="0" fill="#caf2fe" fill-opacity="0.4666666666666667" />
<path d="M162,-1230 L790,-466 L314,-454 L470,-1022 L178,-974 L130,-1006 Z" stroke-width="0" fill="#9133fe" fill-opacity="0.3607843137254902" />
<path d="M762,-358 L482,-814 L254,-1210 L422,-470 L286,-1198 L662,-1002 Z" stroke-width="0" fill="#7388fd" fill-opacity="0.41568627450980394" />
<path d="M694,-270 L362,-194 L238,-946 L82,-898 L410,-742 L478,-130 Z" stroke-width="0" fill="#4b87ca" fill-opacity="0.8509803921568627" />
<path d="M150,-486 L774,-242 L666,-278 L130,-1262 L350,-334 L682,-726 Z" stroke-width="0" fill="#5f3bd9" fill-opacity="0.7019607843137254" />
<path d="M702,-406 L694,-1230 L586,-334 L346,-442 L546,-918 L158,-362 Z" stroke-width="0" fill="#0026bd" fill-opacity="0.5568627450980392" />
<path d="M730,-330 L486,-234 L678,-598 L718,-1066 L210,-194 L410,-790 Z" stroke-width="0" fill="#4aa3e0" fill-opacity="0.7137254901960784" />
<path d="M282,-214 L662,-370 L234,-366 L606,-102 L170,-850 L314,-110 Z" stroke-width="0" fill="#01003e" fill-opacity="0.9803921568627451" />
<path d="M790,-546 L242,-966 L402,-702 L702,-154 L510,-94 L438,-946 Z" stroke-width="0" fill="#edbe7e" fill-opacity="0.15294117647058825" />
<path d="M550,-962 L378,-946 L202,-490 L154,-718 L426,-390 L114,-378 Z" stroke-width="0" fill="#fdf9db" fill-opacity="0.5803921568627451" />
<path d="M714,-1010 L438,-798 L498,-190 L186,-290 L206,-818 L318,-82 Z" stroke-width="0" fill="#d5cff3" fill-opacity="0.9176470588235294" />
<path d="M146,-946 L614,-590 L210,-310 L490,-218 L338,-1062 L202,-1190 Z" stroke-width="0" fill="#a473eb" fill-opacity="0.40784313725490196" />
<path d="M438,-1078 L330,-1062 L430,-454 L194,-894 L790,-178 L790,-1146 Z" stroke-width="0" fill="#080596" fill-opacity="0.5215686274509804" />
<path d="M322,-126 L554,-366 L298,-454 L538,-1066 L482,-174 L118,-170 Z" stroke-width="0" fill="#a170e0" fill-opacity="0.4666666666666667" />
<path d="M774,-966 L498,-914 L586,-754 L198,-1150 L730,-870 L138,-842 Z" stroke-width="0" fill="#3320c9" fill-opacity="0.4392156862745098" />
<path d="M422,-394 L690,-702 L170,-230 L670,-1002 L238,-882 L654,-1306 Z" stroke-width="0" fill="#23259e" fill-opacity="0.796078431372549" />
<path d="M386,-906 L122,-1230 L222,-562 L158,-774 L442,-582 L446,-962 Z" stroke-width="0" fill="#dc88bc" fill-opacity="0.023529411764705882" />
<path d="M566,-718 L302,-1106 L602,-546 L738,-154 L426,-826 L570,-386 Z" stroke-width="0" fill="#b687e7" fill-opacity="0.4" />
<path d="M506,-198 L666,-346 L482,-1042 L262,-1002 L494,-782 L450,-1026 Z" stroke-width="0" fill="#b50064" fill-opacity="0.20784313725490197" />
<path d="M714,-810 L354,-166 L242,-518 L402,-298 L562,-422 L234,-1046 Z" stroke-width="0" fill="#c1c1f4" fill-opacity="0.8470588235294118" />
<path d="M678,-370 L626,-450 L802,-542 L130,-714 L370,-542 L98,-1130 Z" stroke-width="0" fill="#f0856e" fill-opacity="0.6" />
<path d="M466,-962 L106,-334 L114,-526 L134,-1210 L578,-902 L510,-942 Z" stroke-width="0" fill="#2b68f4" fill-opacity="0.41568627450980394" />
<path d="M282,-314 L774,-1206 L742,-318 L286,-850 L110,-638 L782,-938 Z" stroke-width="0" fill="#001a94" fill-opacity="0.47843137254901963" />
<path d="M354,-530 L786,-1102 L306,-618 L790,-574 L758,-542 L802,-218 Z" stroke-width="0" fill="#d9d5c1" fill-opacity="0.4588235294117647" />
<path d="M674,-726 L790,-94 L218,-126 L290,-1130 L86,-750 L258,-1050 Z" stroke-width="0" fill="#884bb7" fill-opacity="0.6470588235294118" />
<path d="M186,-150 L806,-602 L146,-502 L522,-982 L450,-1066 L486,-598 Z" stroke-width="0" fill="#5e66ee" fill-opacity="0.6705882352941176" />
<path d="M574,-926 L298,-662 L474,-134 L582,-86 L238,-1178 L370,-790 Z" stroke-width="0" fill="#9b0053" fill-opacity="0.4549019607843137" />
<path d="M606,-762 L754,-1054 L202,-822 L214,-322 L90,-1230 L390,-962 Z" stroke-width="0" fill="#4a31c8" fill-opacity="0.7490196078431373" />
<path d="M414,-106 L174,-1146 L426,-554 L334,-442 L810,-230 L294,-286 Z" stroke-width="0" fill="#5f4fec" fill-opacity="0.6745098039215687" />
<path d="M382,-458 L730,-502 L666,-1034 L502,-390 L750,-422 L102,-486 Z" stroke-width="0" fill="#3ce696" fill-opacity="0.10196078431372549" />
<path d="M742,-562 L514,-250 L202,-474 L82,-1266 L270,-186 L402,-110 Z" stroke-width="0" fill="#5e47c1" fill-opacity="0.4470588235294118" />
<path d="M318,-286 L374,-870 L118,-362 L758,-550 L118,-106 L82,-494 Z" stroke-width="0" fill="#b6bac7" fill-opacity="0.5019607843137255" />
<path d="M774,-482 L766,-718 L218,-642 L574,-1050 L718,-482 L218,-638 Z" stroke-width="0" fill="#afd9dd" fill-opacity="0.050980392156862744" />
<path d="M266,-474 L190,-1246 L94,-938 L190,-194 L86,-234 L110,-1122 Z" stroke-width="0" fill="#197bfb" fill-opacity="0.32941176470588235" />
<path d="M310,-262 L462,-642 L754,-478 L726,-406 L738,-1086 L302,-754 Z" stroke-width="0" fill="#accdf5" fill-opacity="0.2549019607843137" />
<path d="M82,-366 L618,-398 L506,-1130 L606,-602 L90,-742 L670,-1298 Z" stroke-width="0" fill="#57a0f8" fill-opacity="0.39215686274509803" />
<path d="M102,-222 L766,-1130 L126,-1046 L246,-1190 L610,-1186 L558,-734 Z" stroke-width="0" fill="#4036e9" fill-opacity="0.44313725490196076" />
<path d="M486,-626 L102,-102 L586,-1226 L146,-690 L494,-334 L754,-1026 Z" stroke-width="0" fill="#6357ed" fill-opacity="0.09803921568627451" />
<path d="M318,-426 L422,-126 L426,-270 L502,-962 L626,-134 L594,-742 Z" stroke-width="0" fill="#f900c2" fill-opacity="0.09019607843137255" />
<path d="M430,-154 L506,-214 L534,-1310 L134,-346 L478,-1282 L398,-118 Z" stroke-width="0" fill="#43228a" fill-opacity="0.3058823529411765" />
<path d="M234,-726 L678,-510 L626,-198 L622,-1022 L278,-358 L482,-162 Z" stroke-width="0" fill="#e583ff" fill-opacity="0.07450980392156863" />
<path d="M306,-1134 L298,-594 L546,-302 L350,-346 L618,-758 L158,-526 Z" stroke-width="0" fill="#2ab956" fill-opacity="0.03529411764705882" />
<path d="M362,-430 L438,-982 L334,-406 L186,-922 L594,-1234 L358,-1210 Z" stroke-width="0" fill="#665fe8" fill-opacity="0.5019607843137255" />
<path d="M430,-1294 L298,-638 L366,-1154 L230,-382 L586,-790 L762,-538 Z" stroke-width="0" fill="#377df0" fill-opacity="0.20784313725490197" />
<path d="M262,-730 L162,-382 L566,-950 L330,-554 L310,-642 L202,-114 Z" stroke-width="0" fill="#4899d8" fill-opacity="0.35294117647058826" />
<path d="M378,-554 L370,-862 L762,-598 L682,-82 L134,-222 L322,-622 Z" stroke-width="0" fill="#978a9d" fill-opacity="0.30980392156862746" />
<path d="M562,-402 L594,-1214 L682,-474 L114,-626 L714,-1066 L338,-758 Z" stroke-width="0" fill="#005b88" fill-opacity="0.2549019607843137" />
<path d="M730,-210 L566,-874 L266,-826 L130,-170 L82,-226 L386,-810 Z" stroke-width="0" fill="#82aec6" fill-opacity="0.40784313725490196" />
<path d="M522,-802 L634,-1254 L162,-234 L462,-874 L490,-534 L634,-606 Z" stroke-width="0" fill="#a1abb2" fill-opacity="0.21176470588235294" />
<path d="M202,-674 L342,-882 L86,-518 L350,-594 L662,-582 L418,-466 Z" stroke-width="0" fill="#82e4df" fill-opacity="0.2549019607843137" />
<path d="M618,-126 L266,-1306 L478,-766 L186,-182 L746,-798 L758,-878 Z" stroke-width="0" fill="#453a00" fill-opacity="0.34901960784313724" />
<path d="M550,-574 L302,-982 L654,-670 L230,-694 L386,-542 L390,-1118 Z" stroke-width="0" fill="#88497f" fill-opacity="0.34901960784313724" />
<path d="M278,-646 L630,-218 L586,-350 L286,-414 L346,-370 L694,-378 Z" stroke-width="0" fill="#000531" fill-opacity="0.5019607843137255" />
<path d="M306,-590 L374,-234 L294,-246 L138,-1054 L354,-250 L598,-102 Z" stroke-width="0" fill="#6ccddb" fill-opacity="0.5019607843137255" />
<text x="448.0" y="0" font-size="70.0" fill="black" text-anchor="middle" transform="translate(0,17.5)">1 OF WATER</text>
</svg>