<?xml version="1.0" encoding="UTF-8"?>
<svg xmlns="http://www.w3.org/2000/svg" xmlns:xlink="http://www.w3.org/1999/xlink"
     width="896" height="1496" viewBox="0 -1400 896 1496" style="font-size:70;font-family:Poor Richard, Times New Roman;stroke:black;stroke-width:1;fill:none">
<defs>
</defs>
<path d="M134,-326 L526,-354 L526,-102 L426,-794 L230,-186 L534,-142 Z" stroke-width="0" fill="#924710" fill-opacity="0.592156862745098" />
<path d="M302,-906 L178,-738 L622,-458 L486,-1206 L158,-994 L394,-1130 Z" stroke-width="0" fill="#cf6c00" fill-opacity="0.8352941176470589" />
<path d="M174,-394 L274,-1086 L314,-478 L202,-866 L918,-418 L750,-918 Z" stroke-width="0" fill="#263c07" fill-opacity="0.7254901960784313" />
<path d="M238,-338 L430,-842 L838,-1190 L814,-406 L866,-534 L846,-194 Z" stroke-width="0" fill="#f6faeb" fill-opacity="0.16470588235294117" />
<path d="M414,-270 L106,-858 L90,-622 L138,-746 L682,-270 L606,-674 Z" stroke-width="0" fill="#00000e" fill-opacity="0.9058823529411765" />
<path d="M794,-578 L966,-294 L390,-146 L142,-418 L186,-578 L566,-858 Z" stroke-width="0" fill="#472c00" fill-opacity="0.8431372549019608" />
<path d="M234,-638 L626,-1238 L150,-550 L322,-586 L830,-250 L490,-478 Z" stroke-width="0" fill="#540000" fill-opacity="0.27058823529411763" />
<path d="M842,-330 L138,-1174 L582,-110 L202,-550 L102,-318 L574,-470 Z" stroke-width="0" fill="#792200" fill-opacity="0.5019607843137255" />
<path d="M918,-946 L222,-402 L294,-1278 L950,-854 L398,-138 L878,-174 Z" stroke-width="0" fill="#9f4800" fill-opacity="0.6196078431372549" />
<path d="M206,-278 L134,-114 L266,-466 L846,-974 L358,-102 L438,-518 Z" stroke-width="0" fill="#efeb6e" fill-opacity="0.39215686274509803" />
<path d="M366,-530 L938,-386 L606,-374 L562,-706 L650,-794 L622,-166 Z" stroke-width="0" fill="#1a023d" fill-opacity="0.9803921568627451" />
<path d="M574,-518 L486,-506 L570,-766 L98,-642 L754,-650 L734,-1006 Z" stroke-width="0" fill="#ebf281" fill-opacity="0.027450980392156862" />
<path d="M642,-782 L338,-602 L230,-774 L258,-498 L178,-918 L166,-526 Z" stroke-width="0" fill="#090272" fill-opacity="0.9647058823529412" />
<path d="M238,-882 L914,-314 L142,-1098 L966,-402 L86,-1014 L898,-222 Z" stroke-width="0" fill="#b86034" fill-opacity="0.996078431372549" />
<path d="M934,-238 L94,-370 L146,-138 L598,-1166 L802,-526 L722,-634 Z" stroke-width="0" fill="#7c7847" fill-opacity="0.9921568627450981" />
<path d="M770,-846 L678,-318 L726,-818 L190,-490 L858,-514 L466,-386 Z" stroke-width="0" fill="#cbfa92" fill-opacity="0.9803921568627451" />
<path d="M718,-266 L490,-570 L510,-302 L614,-130 L382,-1006 L914,-294 Z" stroke-width="0" fill="#bc5c42" fill-opacity="0.9333333333333333" />
<path d="M910,-546 L338,-1158 L710,-466 L386,-282 L762,-502 L814,-330 Z" stroke-width="0" fill="#6b1d00" fill-opacity="0.4627450980392157" />
<path d="M134,-802 L702,-674 L690,-1018 L674,-110 L550,-454 L862,-190 Z" stroke-width="0" fill="#4f3c35" fill-opacity="0.8274509803921568" />
<path d="M330,-1006 L786,-558 L218,-254 L554,-870 L702,-122 L722,-1078 Z" stroke-width="0" fill="#798bcb" fill-opacity="0.7607843137254902" />
<path d="M326,-730 L854,-382 L938,-210 L366,-174 L890,-406 L646,-1094 Z" stroke-width="0" fill="#708ca9" fill-opacity="0.33725490196078434" />
<path d="M386,-278 L398,-374 L178,-886 L114,-786 L554,-186 L842,-790 Z" stroke-width="0" fill="#050003" fill-opacity="0.7568627450980392" />
<path d="M978,-654 L502,-1090 L766,-746 L534,-710 L294,-906 L462,-110 Z" stroke-width="0" fill="#924400" fill-opacity="0.5333333333333333" />
<path d="M482,-866 L318,-1146 L610,-326 L146,-1130 L402,-778 L706,-1030 Z" stroke-width="0" fill="#976200" fill-opacity="0.7058823529411765" />
<path d="M874,-226 L214,-566 L82,-766 L314,-150 L918,-858 L678,-1182 Z" stroke-width="0" fill="#a9bd52" fill-opacity="0.4745098039215686" />
<path d="M306,-154 L130,-418 L242,-1154 L346,-118 L82,-318 L710,-590 Z" stroke-width="0" fill="#473e0f" fill-opacity="0.4980392156862745" />
<path d="M798,-154 L90,-658 L302,-1062 L294,-250 L414,-502 L562,-550 Z" stroke-width="0" fill="#cdfde7" fill-opacity="0.43137254901960786" />
<path d="M414,-838 L310,-910 L162,-926 L842,-1098 L278,-1034 L398,-626 Z" stroke-width="0" fill="#f8cce9" fill-opacity="0.6039215686274509" />
<path d="M702,-354 L698,-1158 L970,-1162 L466,-1166 L122,-142 L966,-958 Z" stroke-width="0" fill="#ea954d" fill-opacity="0.6627450980392157" />
<path d="M498,-158 L826,-150 L158,-134 L354,-914 L146,-1022 L234,-498 Z" stroke-width="0" fill="#2a0900" fill-opacity="0.984313725490196" />
<path d="M794,-1178 L918,-530 L710,-1078 L106,-498 L290,-758 L666,-186 Z" stroke-width="0" fill="#c4f2dc" fill-opacity="0.0" />
<path d="M706,-482 L118,-370 L394,-898 L650,-702 L542,-914 L346,-126 Z" stroke-width="0" fill="#5b6227" fill-opacity="0.7176470588235294" />
<path d="M202,-246 L690,-358 L566,-1170 L378,-830 L86,-278 L510,-870 Z" stroke-width="0" fill="#f7b6c2" fill-opacity="0.13333333333333333" />
<path d="M730,-202 L102,-286 L542,-178 L530,-990 L486,-734 L502,-626 Z" stroke-width="0" fill="#5efabc" fill-opacity="0.8196078431372549" />
<path d="M818,-1062 L874,-662 L174,-446 L330,-614 L746,-922 L562,-466 Z" stroke-width="0" fill="#f4f4fe" fill-opacity="0.8980392156862745" />
<path d="M330,-662 L698,-454 L958,-782 L786,-102 L962,-1086 L826,-1038 Z" stroke-width="0" fill="#daae5f" fill-opacity="0.6196078431372549" />
<path d="M486,-542 L490,-310 L522,-710 L262,-150 L562,-138 L630,-1106 Z" stroke-width="0" fill="#d9b870" fill-opacity="0.8352941176470589" />
<path d="M938,-198 L938,-562 L254,-766 L138,-1274 L346,-734 L258,-810 Z" stroke-width="0" fill="#9f5000" fill-opacity="0.7098039215686275" />
<path d="M166,-850 L866,-742 L202,-890 L766,-1014 L526,-190 L658,-1170 Z" stroke-width="0" fill="#d7f58a" fill-opacity="0.6862745098039216" />
<path d="M970,-102 L346,-842 L382,-514 L654,-974 L382,-838 L882,-910 Z" stroke-width="0" fill="#a3582b" fill-opacity="0.7058823529411765" />
<path d="M190,-1126 L342,-750 L326,-538 L746,-898 L390,-202 L86,-818 Z" stroke-width="0" fill="#524b0e" fill-opacity="0.7450980392156863" />
<path d="M766,-858 L262,-246 L974,-262 L646,-110 L694,-730 L642,-290 Z" stroke-width="0" fill="#746f65" fill-opacity="0.9176470588235294" />
<path d="M306,-550 L142,-286 L686,-630 L278,-434 L82,-214 L554,-526 Z" stroke-width="0" fill="#c2b95f" fill-opacity="0.8470588235294118" />
<path d="M426,-130 L598,-814 L610,-878 L766,-514 L626,-358 L858,-1034 Z" stroke-width="0" fill="#edffc8" fill-opacity="0.9215686274509803" />
<path d="M230,-738 L554,-254 L234,-762 L326,-206 L314,-682 L790,-622 Z" stroke-width="0" fill="#8719a6" fill-opacity="0.792156862745098" />
<path d="M266,-1086 L470,-1166 L846,-906 L614,-82 L598,-1214 L718,-118 Z" stroke-width="0" fill="#f2cf9d" fill-opacity="0.3803921568627451" />
<path d="M270,-1082 L146,-1202 L710,-790 L370,-898 L714,-362 L606,-366 Z" stroke-width="0" fill="#b19546" fill-opacity="0.8588235294117647" />
<path d="M822,-638 L738,-310 L534,-262 L826,-1126 L794,-1118 L466,-934 Z" stroke-width="0" fill="#48fce9" fill-opacity="0.023529411764705882" />
<path d="M294,-250 L82,-970 L726,-162 L742,-1138 L322,-82 L418,-286 Z" stroke-width="0" fill="#401e1a" fill-opacity="0.6941176470588235" />
<path d="M98,-734 L762,-106 L190,-830 L86,-858 L94,-118 L466,-538 Z" stroke-width="0" fill="#5d1500" fill-opacity="0.6509803921568628" />
<path d="M958,-746 L454,-142 L402,-382 L630,-410 L374,-822 L462,-858 Z" stroke-width="0" fill="#a8a535" fill-opacity="0.26666666666666666" />
<path d="M298,-522 L350,-790 L690,-986 L94,-162 L362,-462 L394,-422 Z" stroke-width="0" fill="#a07630" fill-opacity="0.4745098039215686" />
<path d="M514,-478 L234,-1066 L222,-838 L878,-590 L266,-806 L678,-674 Z" stroke-width="0" fill="#344700" fill-opacity="0.403921568627451" />
<path d="M222,-814 L382,-114 L210,-254 L774,-302 L410,-642 L750,-942 Z" stroke-width="0" fill="#91d159" fill-opacity="0.03137254901960784" />
<path d="M382,-638 L82,-250 L674,-462 L626,-198 L238,-254 L102,-350 Z" stroke-width="0" fill="#5c3402" fill-opacity="0.3333333333333333" />
<path d="M126,-514 L738,-730 L206,-966 L522,-174 L350,-642 L534,-534 Z" stroke-width="0" fill="#d4bef9" fill-opacity="0.8627450980392157" />
<path d="M362,-950 L462,-950 L590,-350 L278,-1086 L658,-414 L906,-798 Z" stroke-width="0" fill="#bda686" fill-opacity="0.596078431372549" />
<path d="M450,-586 L126,-322 L274,-438 L474,-498 L206,-890 L810,-1030 Z" stroke-width="0" fill="#7decc9" fill-opacity="0.1803921568627451" />
<path d="M186,-586 L538,-298 L378,-858 L86,-1006 L326,-306 L622,-90 Z" stroke-width="0" fill="#713100" fill-opacity="0.4627450980392157" />
<path d="M122,-322 L718,-850 L510,-306 L474,-634 L418,-1042 L542,-486 Z" stroke-width="0" fill="#4a3400" fill-opacity="0.6980392156862745" />
<path d="M538,-202 L738,-294 L406,-150 L110,-474 L458,-414 L842,-506 Z" stroke-width="0" fill="#a98877" fill-opacity="0.13725490196078433" />
<path d="M626,-702 L698,-766 L510,-150 L850,-1118 L390,-774 L346,-434 Z" stroke-width="0" fill="#8adaa6" fill-opacity="0.2" />
<path d="M518,-198 L646,-118 L366,-1054 L798,-1190 L930,-1106 L714,-1074 Z" stroke-width="0" fill="#d5ae79" fill-opacity="0.5058823529411764" />
<path d="M218,-1070 L522,-366 L454,-1190 L562,-466 L698,-1042 L562,-514 Z" stroke-width="0" fill="#a2870b" fill-opacity="0.45098039215686275" />
<path d="M894,-1074 L830,-854 L222,-666 L262,-102 L486,-914 L274,-1090 Z" stroke-width="0" fill="#f5f68f" fill-opacity="0.28627450980392155" />
<path d="M554,-466 L350,-150 L350,-658 L758,-1174 L458,-298 L490,-814 Z" stroke-width="0" fill="#e9d0e9" fill-opacity="0.9098039215686274" />
<path d="M578,-1038 L542,-386 L326,-354 L926,-242 L842,-98 L90,-546 Z" stroke-width="0" fill="#c4803e" fill-opacity="0.8431372549019608" />
<path d="M206,-166 L650,-234 L598,-906 L282,-1098 L770,-502 L710,-274 Z" stroke-width="0" fill="#97eaac" fill-opacity="0.5529411764705883" />
<path d="M822,-818 L314,-246 L466,-426 L258,-90 L578,-298 L694,-998 Z" stroke-width="0" fill="#a49853" fill-opacity="0.9764705882352941" />
<path d="M798,-450 L658,-406 L442,-546 L506,-310 L422,-578 L294,-262 Z" stroke-width="0" fill="#f96013" fill-opacity="0.8" />
<path d="M202,-1202 L462,-130 L218,-258 L726,-782 L622,-318 L102,-990 Z" stroke-width="0" fill="#5f2300" fill-opacity="0.8470588235294118" />
<path d="M214,-518 L282,-494 L798,-838 L642,-846 L90,-338 L886,-946 Z" stroke-width="0" fill="#effee9" fill-opacity="0.14901960784313725" />
<path d="M942,-1046 L522,-1198 L430,-582 L402,-446 L430,-1034 L126,-1134 Z" stroke-width="0" fill="#bcc57b" fill-opacity="0.5019607843137255" />
<path d="M522,-966 L118,-606 L950,-1010 L394,-362 L742,-826 L798,-310 Z" stroke-width="0" fill="#a6532e" fill-opacity="0.47058823529411764" />
<path d="M762,-662 L810,-926 L258,-1102 L634,-350 L290,-1030 L906,-778 Z" stroke-width="0" fill="#d2d456" fill-opacity="0.4196078431372549" />
<path d="M198,-882 L866,-702 L442,-358 L386,-406 L266,-426 L858,-458 Z" stroke-width="0" fill="#edd585" fill-opacity="0.6901960784313725" />
<path d="M474,-450 L274,-586 L574,-950 L154,-1210 L618,-754 L326,-718 Z" stroke-width="0" fill="#b68253" fill-opacity="0.5019607843137255" />
<path d="M234,-314 L678,-878 L678,-570 L694,-662 L426,-1194 L482,-626 Z" stroke-width="0" fill="#aca4a1" fill-opacity="0.2549019607843137" />
<path d="M638,-478 L110,-1002 L442,-422 L342,-82 L406,-130 L374,-590 Z" stroke-width="0" fill="#704305" fill-opacity="0.5176470588235295" />
<path d="M774,-482 L614,-622 L582,-102 L622,-998 L818,-554 L394,-538 Z" stroke-width="0" fill="#020200" fill-opacity="0.44313725490196076" />
<path d="M570,-1198 L778,-1114 L214,-618 L454,-1046 L534,-746 L854,-198 Z" stroke-width="0" fill="#c69b58" fill-opacity="0.596078431372549" />
<path d="M190,-918 L654,-278 L298,-970 L246,-166 L810,-458 L746,-866 Z" stroke-width="0" fill="#055707" fill-opacity="0.29411764705882354" />
<path d="M470,-338 L174,-390 L698,-526 L258,-358 L526,-450 L826,-322 Z" stroke-width="0" fill="#e8ec77" fill-opacity="0.5372549019607843" />
<path d="M650,-1238 L294,-374 L134,-1142 L710,-538 L918,-174 L502,-1066 Z" stroke-width="0" fill="#a9762d" fill-opacity="0.3803921568627451" />
<path d="M350,-590 L834,-466 L470,-274 L606,-738 L506,-546 L110,-314 Z" stroke-width="0" fill="#e4d4be" fill-opacity="0.050980392156862744" />
<path d="M474,-818 L386,-1186 L930,-390 L466,-662 L794,-774 L682,-770 Z" stroke-width="0" fill="#a1aa60" fill-opacity="0.4588235294117647" />
<path d="M958,-1246 L710,-890 L966,-194 L314,-606 L726,-230 L422,-946 Z" stroke-width="0" fill="#e3b95d" fill-opacity="0.4980392156862745" />
<path d="M630,-470 L310,-114 L446,-942 L414,-1170 L190,-866 L618,-962 Z" stroke-width="0" fill="#f2ece5" fill-opacity="0.047058823529411764" />
<path d="M134,-326 L290,-838 L642,-546 L962,-318 L858,-574 L442,-474 Z" stroke-width="0" fill="#fdcb73" fill-opacity="0.058823529411764705" />
<path d="M646,-94 L90,-722 L574,-390 L974,-186 L862,-206 L974,-238 Z" stroke-width="0" fill="#eec563" fill-opacity="0.5019607843137255" />
<path d="M598,-1130 L254,-298 L470,-738 L286,-386 L442,-910 L830,-670 Z" stroke-width="0" fill="#2e1a25" fill-opacity="0.2549019607843137" />
<path d="M334,-546 L170,-202 L978,-518 L470,-846 L922,-426 L426,-702 Z" stroke-width="0" fill="#5e2913" fill-opacity="0.34901960784313724" />
<path d="M138,-566 L462,-898 L706,-814 L270,-274 L530,-502 L738,-386 Z" stroke-width="0" fill="#778e88" fill-opacity="0.01568627450980392" />
<path d="M898,-1150 L866,-758 L918,-182 L162,-238 L950,-926 L962,-958 Z" stroke-width="0" fill="#bf7271" fill-opacity="0.3176470588235294" />
<path d="M158,-1030 L434,-862 L170,-766 L326,-322 L690,-834 L958,-222 Z" stroke-width="0" fill="#aa8f4b" fill-opacity="0.6823529411764706" />
<path d="M602,-570 L278,-382 L378,-1090 L458,-186 L922,-1126 L450,-1074 Z" stroke-width="0" fill="#f2a090" fill-opacity="0.3176470588235294" />
<path d="M838,-402 L394,-430 L594,-222 L282,-1254 L254,-958 L298,-94 Z" stroke-width="0" fill="#c25b61" fill-opacity="0.5764705882352941" />
<path d="M238,-698 L406,-1014 L518,-402 L98,-730 L466,-630 L666,-854 Z" stroke-width="0" fill="#7a6d2f" fill-opacity="0.6588235294117647" />
<path d="M714,-918 L82,-94 L774,-334 L922,-310 L698,-478 L94,-950 Z" stroke-width="0" fill="#d39e8b" fill-opacity="0.5019607843137255" />
<path d="M870,-354 L762,-294 L82,-154 L646,-294 L102,-158 L754,-314 Z" stroke-width="0" fill="#bd8b5d" fill-opacity="0.49019607843137253" />
<text x="448.0" y="0" font-size="70.0" fill="black" text-anchor="middle" transform="translate(0,17.5)">9 OF WATER</text>
</svg>