<?xml version="1.0" encoding="UTF-8"?>
<svg xmlns="http://www.w3.org/2000/svg" xmlns:xlink="http://www.w3.org/1999/xlink"
     width="896" height="1496" viewBox="0 -1400 896 1496" style="font-size:70;font-family:Poor Richard, Times New Roman;stroke:black;stroke-width:1;fill:none">
<defs>
</defs>
<path d="M502,-294 L438,-1042 L130,-814 L702,-266 L770,-442 L630,-534 Z" stroke-width="0" fill="#f82ae9" fill-opacity="0.27058823529411763" />
<path d="M162,-226 L962,-1042 L794,-718 L278,-818 L154,-786 L858,-686 Z" stroke-width="0" fill="#552439" fill-opacity="0.21568627450980393" />
<path d="M154,-1034 L486,-198 L222,-818 L634,-238 L642,-882 L422,-86 Z" stroke-width="0" fill="#000000" fill-opacity="0.6901960784313725" />
<path d="M378,-726 L674,-1054 L246,-458 L670,-518 L162,-274 L230,-642 Z" stroke-width="0" fill="#cb0403" fill-opacity="0.9411764705882353" />
<path d="M186,-318 L758,-234 L602,-1050 L490,-518 L494,-670 L170,-534 Z" stroke-width="0" fill="#6abb96" fill-opacity="0.34901960784313724" />
<path d="M246,-822 L914,-182 L958,-334 L302,-122 L526,-746 L438,-866 Z" stroke-width="0" fill="#000000" fill-opacity="0.7176470588235294" />
<path d="M934,-834 L638,-110 L890,-438 L622,-810 L686,-346 L734,-990 Z" stroke-width="0" fill="#000017" fill-opacity="0.7686274509803922" />
<path d="M970,-166 L522,-558 L934,-1114 L98,-874 L718,-830 L302,-978 Z" stroke-width="0" fill="#61b5a8" fill-opacity="0.5215686274509804" />
<path d="M338,-210 L222,-1158 L826,-350 L930,-1210 L486,-1046 L598,-546 Z" stroke-width="0" fill="#4c0e04" fill-opacity="0.5019607843137255" />
<path d="M318,-1014 L710,-498 L882,-222 L814,-1050 L462,-522 L82,-142 Z" stroke-width="0" fill="#000000" fill-opacity="0.8313725490196079" />
<path d="M106,-806 L786,-766 L186,-246 L374,-238 L258,-166 L110,-866 Z" stroke-width="0" fill="#16ee11" fill-opacity="0.7254901960784313" />
<path d="M354,-974 L570,-446 L462,-394 L522,-542 L858,-718 L426,-302 Z" stroke-width="0" fill="#e79172" fill-opacity="0.6509803921568628" />
<path d="M482,-890 L438,-1030 L422,-722 L530,-1074 L866,-874 L642,-338 Z" stroke-width="0" fill="#faa251" fill-opacity="0.8313725490196079" />
<path d="M718,-898 L166,-986 L302,-350 L594,-510 L158,-914 L562,-238 Z" stroke-width="0" fill="#e3cd67" fill-opacity="0.4980392156862745" />
<path d="M498,-810 L522,-510 L250,-682 L326,-658 L430,-850 L406,-898 Z" stroke-width="0" fill="#97a707" fill-opacity="0.6901960784313725" />
<path d="M262,-1058 L426,-250 L650,-422 L778,-1278 L582,-242 L858,-618 Z" stroke-width="0" fill="#000000" fill-opacity="0.7647058823529411" />
<path d="M170,-630 L782,-298 L254,-186 L766,-790 L314,-218 L662,-806 Z" stroke-width="0" fill="#4b8430" fill-opacity="0.4627450980392157" />
<path d="M110,-954 L966,-498 L450,-494 L474,-118 L258,-186 L602,-674 Z" stroke-width="0" fill="#000006" fill-opacity="0.9568627450980393" />
<path d="M374,-322 L934,-1006 L326,-974 L906,-922 L590,-410 L294,-1014 Z" stroke-width="0" fill="#d1e2ff" fill-opacity="0.4392156862745098" />
<path d="M886,-170 L730,-430 L254,-258 L802,-230 L806,-1070 L882,-162 Z" stroke-width="0" fill="#f7c0de" fill-opacity="0.6745098039215687" />
<path d="M182,-1242 L606,-666 L694,-1206 L774,-366 L810,-946 L686,-1250 Z" stroke-width="0" fill="#000000" fill-opacity="0.8823529411764706" />
<path d="M706,-118 L186,-342 L634,-322 L162,-154 L614,-1094 L350,-670 Z" stroke-width="0" fill="#000015" fill-opacity="0.9529411764705882" />
<path d="M206,-558 L498,-874 L338,-1166 L810,-1022 L930,-834 L902,-310 Z" stroke-width="0" fill="#2f0000" fill-opacity="0.8705882352941177" />
<path d="M530,-250 L450,-642 L526,-990 L750,-422 L850,-294 L202,-538 Z" stroke-width="0" fill="#747753" fill-opacity="0.7098039215686275" />
<path d="M866,-1254 L562,-698 L782,-562 L838,-1074 L450,-574 L726,-270 Z" stroke-width="0" fill="#17112f" fill-opacity="0.8313725490196079" />
<path d="M482,-1062 L142,-962 L398,-698 L906,-398 L262,-346 L466,-1190 Z" stroke-width="0" fill="#0021b3" fill-opacity="0.8666666666666667" />
<path d="M590,-722 L486,-594 L166,-398 L350,-566 L338,-478 L478,-394 Z" stroke-width="0" fill="#095208" fill-opacity="0.36470588235294116" />
<path d="M258,-914 L106,-854 L222,-890 L214,-858 L962,-982 L290,-478 Z" stroke-width="0" fill="#9db5af" fill-opacity="0.9450980392156862" />
<path d="M970,-122 L658,-790 L498,-310 L250,-598 L130,-1214 L714,-206 Z" stroke-width="0" fill="#0b1210" fill-opacity="0.9803921568627451" />
<path d="M494,-570 L834,-898 L622,-858 L86,-806 L218,-554 L334,-858 Z" stroke-width="0" fill="#00110e" fill-opacity="0.9490196078431372" />
<path d="M454,-1266 L378,-154 L714,-1118 L142,-586 L630,-162 L218,-438 Z" stroke-width="0" fill="#081e0c" fill-opacity="0.9176470588235294" />
<path d="M866,-162 L666,-426 L698,-430 L430,-678 L122,-830 L430,-238 Z" stroke-width="0" fill="#bee63c" fill-opacity="0.7568627450980392" />
<path d="M122,-166 L98,-1134 L394,-822 L466,-690 L274,-746 L950,-1202 Z" stroke-width="0" fill="#1f1423" fill-opacity="0.9372549019607843" />
<path d="M466,-1258 L642,-894 L722,-1174 L626,-1230 L434,-622 L498,-302 Z" stroke-width="0" fill="#000870" fill-opacity="0.08627450980392157" />
<path d="M366,-1122 L178,-174 L402,-342 L898,-386 L670,-338 L82,-706 Z" stroke-width="0" fill="#000000" fill-opacity="0.9019607843137255" />
<path d="M198,-490 L598,-390 L286,-114 L118,-962 L286,-1142 L802,-722 Z" stroke-width="0" fill="#000000" fill-opacity="0.8705882352941177" />
<path d="M714,-614 L302,-1238 L358,-946 L722,-1054 L470,-558 L454,-578 Z" stroke-width="0" fill="#020a00" fill-opacity="0.8274509803921568" />
<path d="M462,-482 L610,-1162 L194,-638 L614,-426 L114,-490 L602,-658 Z" stroke-width="0" fill="#000002" fill-opacity="0.6666666666666666" />
<path d="M758,-1074 L822,-238 L758,-294 L882,-854 L602,-1202 L458,-278 Z" stroke-width="0" fill="#4a2535" fill-opacity="0.25098039215686274" />
<path d="M534,-698 L230,-554 L430,-758 L774,-818 L562,-606 L462,-678 Z" stroke-width="0" fill="#23948e" fill-opacity="0.5058823529411764" />
<path d="M522,-302 L234,-538 L382,-374 L338,-746 L158,-286 L890,-882 Z" stroke-width="0" fill="#e53efb" fill-opacity="0.3607843137254902" />
<path d="M678,-234 L134,-1142 L370,-830 L646,-214 L202,-258 L750,-570 Z" stroke-width="0" fill="#304500" fill-opacity="0.8235294117647058" />
<path d="M214,-1106 L86,-986 L766,-142 L322,-698 L194,-854 L686,-694 Z" stroke-width="0" fill="#070007" fill-opacity="0.9372549019607843" />
<path d="M98,-566 L678,-774 L946,-450 L698,-974 L238,-1078 L110,-206 Z" stroke-width="0" fill="#000000" fill-opacity="0.9764705882352941" />
<path d="M798,-650 L526,-206 L862,-906 L710,-574 L894,-354 L818,-202 Z" stroke-width="0" fill="#564000" fill-opacity="0.8784313725490196" />
<path d="M238,-614 L438,-466 L482,-758 L670,-794 L482,-294 L950,-214 Z" stroke-width="0" fill="#098100" fill-opacity="0.9254901960784314" />
<path d="M494,-1262 L186,-858 L906,-374 L322,-498 L670,-622 L318,-258 Z" stroke-width="0" fill="#090a02" fill-opacity="0.8901960784313725" />
<path d="M102,-1206 L962,-666 L590,-674 L318,-486 L834,-522 L290,-842 Z" stroke-width="0" fill="#000000" fill-opacity="0.9058823529411765" />
<path d="M514,-446 L802,-1242 L402,-898 L710,-662 L678,-274 L90,-726 Z" stroke-width="0" fill="#160828" fill-opacity="0.8666666666666667" />
<path d="M230,-378 L722,-130 L214,-1002 L138,-1166 L866,-994 L718,-178 Z" stroke-width="0" fill="#0a4372" fill-opacity="0.3215686274509804" />
<path d="M946,-530 L374,-1266 L602,-134 L370,-946 L374,-306 L542,-1070 Z" stroke-width="0" fill="#000005" fill-opacity="0.8823529411764706" />
<path d="M326,-210 L166,-114 L90,-234 L686,-374 L650,-150 L246,-654 Z" stroke-width="0" fill="#000000" fill-opacity="0.9529411764705882" />
<path d="M598,-190 L370,-190 L494,-266 L466,-414 L958,-190 L530,-654 Z" stroke-width="0" fill="#114400" fill-opacity="0.6392156862745098" />
<path d="M154,-790 L158,-1070 L402,-626 L634,-406 L846,-170 L230,-334 Z" stroke-width="0" fill="#e95e58" fill-opacity="0.996078431372549" />
<path d="M874,-558 L950,-1062 L522,-690 L166,-254 L530,-82 L410,-114 Z" stroke-width="0" fill="#260a21" fill-opacity="0.5372549019607843" />
<path d="M550,-506 L318,-910 L374,-194 L302,-890 L910,-150 L686,-682 Z" stroke-width="0" fill="#066b0a" fill-opacity="0.3215686274509804" />
<path d="M222,-206 L394,-818 L98,-850 L442,-742 L838,-394 L722,-358 Z" stroke-width="0" fill="#2b530b" fill-opacity="0.09019607843137255" />
<path d="M486,-590 L138,-1258 L446,-1198 L594,-502 L874,-1146 L174,-1098 Z" stroke-width="0" fill="#11233f" fill-opacity="0.7019607843137254" />
<path d="M958,-178 L166,-506 L322,-510 L426,-1098 L546,-130 L546,-978 Z" stroke-width="0" fill="#000504" fill-opacity="0.7411764705882353" />
<path d="M338,-102 L126,-926 L390,-830 L954,-162 L94,-162 L490,-554 Z" stroke-width="0" fill="#0b0000" fill-opacity="0.9176470588235294" />
<path d="M90,-146 L598,-798 L262,-1122 L582,-130 L666,-218 L770,-1270 Z" stroke-width="0" fill="#2a162f" fill-opacity="0.7764705882352941" />
<path d="M726,-150 L434,-658 L306,-390 L682,-386 L678,-950 L978,-854 Z" stroke-width="0" fill="#2c1350" fill-opacity="0.7725490196078432" />
<path d="M470,-510 L658,-134 L474,-950 L686,-874 L150,-342 L506,-674 Z" stroke-width="0" fill="#8a00f8" fill-opacity="0.10196078431372549" />
<path d="M838,-854 L802,-522 L374,-466 L82,-1250 L166,-274 L338,-374 Z" stroke-width="0" fill="#050000" fill-opacity="0.8588235294117647" />
<path d="M678,-782 L618,-338 L342,-106 L702,-858 L938,-474 L198,-1158 Z" stroke-width="0" fill="#001500" fill-opacity="0.9019607843137255" />
<path d="M426,-370 L718,-406 L286,-82 L766,-434 L150,-354 L918,-202 Z" stroke-width="0" fill="#0b0a00" fill-opacity="0.9490196078431372" />
<path d="M750,-770 L150,-998 L126,-930 L786,-310 L226,-1150 L434,-242 Z" stroke-width="0" fill="#a8c61f" fill-opacity="0.27058823529411763" />
<path d="M234,-390 L798,-686 L330,-614 L570,-142 L118,-802 L182,-530 Z" stroke-width="0" fill="#18232f" fill-opacity="0.6784313725490196" />
<path d="M234,-1078 L206,-498 L538,-750 L334,-614 L946,-1090 L338,-302 Z" stroke-width="0" fill="#0f3461" fill-opacity="0.29411764705882354" />
<path d="M430,-842 L822,-826 L246,-594 L230,-1142 L602,-634 L110,-334 Z" stroke-width="0" fill="#270020" fill-opacity="0.5098039215686274" />
<path d="M98,-1034 L554,-426 L610,-730 L858,-850 L554,-582 L606,-166 Z" stroke-width="0" fill="#10140f" fill-opacity="0.3686274509803922" />
<path d="M910,-590 L554,-358 L90,-182 L534,-346 L222,-198 L82,-246 Z" stroke-width="0" fill="#000000" fill-opacity="0.9725490196078431" />
<path d="M194,-730 L898,-894 L714,-654 L198,-686 L454,-630 L814,-1002 Z" stroke-width="0" fill="#042631" fill-opacity="0.3176470588235294" />
<path d="M346,-766 L174,-166 L506,-850 L378,-378 L410,-638 L906,-850 Z" stroke-width="0" fill="#563ee6" fill-opacity="0.10588235294117647" />
<path d="M450,-814 L438,-194 L978,-178 L490,-670 L626,-230 L126,-602 Z" stroke-width="0" fill="#26192c" fill-opacity="0.5098039215686274" />
<path d="M678,-234 L370,-338 L474,-150 L234,-538 L782,-358 L634,-194 Z" stroke-width="0" fill="#444857" fill-opacity="0.396078431372549" />
<path d="M146,-1230 L450,-1178 L162,-1154 L462,-982 L506,-250 L702,-754 Z" stroke-width="0" fill="#000000" fill-opacity="0.5019607843137255" />
<path d="M162,-1214 L138,-874 L150,-246 L702,-698 L302,-798 L786,-582 Z" stroke-width="0" fill="#00000a" fill-opacity="0.7176470588235294" />
<path d="M646,-730 L350,-1090 L674,-290 L578,-398 L134,-158 L794,-1130 Z" stroke-width="0" fill="#060566" fill-opacity="0.16470588235294117" />
<path d="M106,-566 L798,-426 L254,-546 L290,-306 L370,-554 L178,-1274 Z" stroke-width="0" fill="#00001f" fill-opacity="0.7411764705882353" />
<path d="M518,-198 L846,-662 L766,-222 L206,-1246 L734,-146 L458,-846 Z" stroke-width="0" fill="#02161e" fill-opacity="0.4823529411764706" />
<path d="M266,-326 L318,-534 L622,-282 L614,-554 L210,-1002 L94,-1182 Z" stroke-width="0" fill="#130015" fill-opacity="0.8862745098039215" />
<path d="M686,-422 L366,-414 L942,-798 L154,-918 L482,-298 L914,-406 Z" stroke-width="0" fill="#30125a" fill-opacity="0.5019607843137255" />
<path d="M290,-182 L314,-722 L390,-778 L474,-770 L186,-238 L578,-158 Z" stroke-width="0" fill="#000300" fill-opacity="0.5568627450980392" />
<path d="M346,-738 L302,-430 L82,-558 L742,-166 L206,-186 L662,-774 Z" stroke-width="0" fill="#13202d" fill-opacity="0.45098039215686275" />
<path d="M258,-1034 L470,-1102 L330,-354 L418,-1010 L530,-1126 L238,-1214 Z" stroke-width="0" fill="#080000" fill-opacity="0.5019607843137255" />
<path d="M262,-374 L102,-158 L278,-262 L970,-426 L970,-806 L826,-1030 Z" stroke-width="0" fill="#252119" fill-opacity="0.8235294117647058" />
<path d="M306,-918 L798,-698 L398,-286 L302,-966 L622,-614 L554,-802 Z" stroke-width="0" fill="#394479" fill-opacity="0.3058823529411765" />
<path d="M226,-674 L210,-914 L706,-670 L470,-674 L670,-1274 L342,-202 Z" stroke-width="0" fill="#210116" fill-opacity="0.34901960784313724" />
<path d="M762,-294 L642,-310 L522,-994 L646,-826 L706,-1050 L466,-854 Z" stroke-width="0" fill="#023085" fill-opacity="0.3058823529411765" />
<path d="M162,-502 L970,-590 L230,-238 L530,-1026 L522,-890 L490,-346 Z" stroke-width="0" fill="#574b3e" fill-opacity="0.5019607843137255" />
<path d="M722,-506 L306,-862 L562,-138 L310,-1058 L886,-982 L838,-1010 Z" stroke-width="0" fill="#472e23" fill-opacity="0.29411764705882354" />
<path d="M718,-918 L682,-82 L486,-906 L550,-1258 L286,-90 L610,-314 Z" stroke-width="0" fill="#132527" fill-opacity="0.5333333333333333" />
<path d="M494,-446 L118,-242 L282,-738 L194,-942 L750,-886 L126,-470 Z" stroke-width="0" fill="#045700" fill-opacity="0.08627450980392157" />
<path d="M282,-674 L798,-398 L858,-850 L974,-330 L206,-274 L658,-1138 Z" stroke-width="0" fill="#15172c" fill-opacity="0.8784313725490196" />
<path d="M882,-582 L134,-602 L858,-150 L366,-770 L86,-1078 L230,-626 Z" stroke-width="0" fill="#07332d" fill-opacity="0.43529411764705883" />
<path d="M314,-518 L586,-138 L766,-994 L502,-174 L546,-670 L578,-154 Z" stroke-width="0" fill="#6d5a51" fill-opacity="0.5019607843137255" />
<path d="M178,-910 L966,-582 L746,-154 L138,-206 L134,-862 L590,-326 Z" stroke-width="0" fill="#000000" fill-opacity="0.5019607843137255" />
<path d="M450,-662 L830,-626 L878,-814 L622,-462 L214,-210 L430,-1190 Z" stroke-width="0" fill="#140518" fill-opacity="0.33725490196078434" />
<path d="M278,-666 L914,-82 L402,-442 L374,-1118 L778,-226 L790,-910 Z" stroke-width="0" fill="#072424" fill-opacity="0.3137254901960784" />
<text x="448.0" y="0" font-size="70.0" fill="black" text-anchor="middle" transform="translate(0,17.5)">KNIGHT OF WATER</text>
</svg>