<?xml version="1.0" encoding="UTF-8"?>
<svg xmlns="http://www.w3.org/2000/svg" xmlns:xlink="http://www.w3.org/1999/xlink"
     width="896" height="1496" viewBox="0 -1400 896 1496" style="font-size:70;font-family:Poor Richard, Times New Roman;stroke:black;stroke-width:1;fill:none">
<defs>
</defs>
<path d="M782,-538 L402,-370 L666,-382 L346,-250 L794,-766 L646,-962 Z" stroke-width="0" fill="#edaa1d" fill-opacity="0.5019607843137255" />
<path d="M382,-118 L170,-702 L670,-226 L310,-562 L210,-490 L590,-966 Z" stroke-width="0" fill="#4dc644" fill-opacity="0.1568627450980392" />
<path d="M286,-594 L774,-426 L486,-230 L382,-674 L670,-1226 L430,-982 Z" stroke-width="0" fill="#614901" fill-opacity="0.5843137254901961" />
<path d="M262,-1266 L182,-474 L698,-806 L730,-514 L426,-886 L330,-430 Z" stroke-width="0" fill="#5281f4" fill-opacity="0.4470588235294118" />
<path d="M462,-870 L90,-346 L274,-266 L254,-166 L94,-1062 L406,-850 Z" stroke-width="0" fill="#062d26" fill-opacity="0.8745098039215686" />
<path d="M574,-1198 L194,-822 L666,-346 L462,-146 L654,-298 L198,-534 Z" stroke-width="0" fill="#494b00" fill-opacity="0.592156862745098" />
<path d="M194,-730 L86,-770 L594,-678 L706,-518 L730,-258 L666,-922 Z" stroke-width="0" fill="#cf5544" fill-opacity="0.23921568627450981" />
<path d="M726,-554 L142,-810 L102,-498 L714,-1018 L242,-334 L110,-554 Z" stroke-width="0" fill="#b273f2" fill-opacity="0.11764705882352941" />
<path d="M698,-1202 L378,-530 L238,-254 L186,-306 L762,-1014 L138,-102 Z" stroke-width="0" fill="#203306" fill-opacity="0.3843137254901961" />
<path d="M246,-618 L174,-550 L138,-642 L394,-798 L286,-206 L90,-650 Z" stroke-width="0" fill="#eedbf2" fill-opacity="0.2" />
<path d="M298,-942 L374,-458 L342,-506 L146,-170 L726,-510 L102,-1106 Z" stroke-width="0" fill="#f4b3cc" fill-opacity="0.06274509803921569" />
<path d="M410,-370 L442,-542 L134,-998 L298,-986 L526,-966 L806,-1198 Z" stroke-width="0" fill="#00591c" fill-opacity="0.42745098039215684" />
<path d="M746,-1042 L646,-1290 L634,-1206 L438,-778 L114,-410 L534,-930 Z" stroke-width="0" fill="#8ac2bd" fill-opacity="0.807843137254902" />
<path d="M218,-1038 L234,-1138 L358,-498 L406,-294 L446,-1162 L626,-338 Z" stroke-width="0" fill="#f0e2c2" fill-opacity="0.6941176470588235" />
<path d="M566,-706 L430,-782 L598,-234 L434,-622 L746,-1082 L226,-630 Z" stroke-width="0" fill="#3ceebf" fill-opacity="0.39215686274509803" />
<path d="M598,-482 L142,-822 L586,-586 L258,-374 L90,-474 L770,-534 Z" stroke-width="0" fill="#b0fcfb" fill-opacity="0.2784313725490196" />
<path d="M706,-930 L650,-786 L398,-402 L210,-1110 L362,-798 L114,-894 Z" stroke-width="0" fill="#4c2b05" fill-opacity="0.8784313725490196" />
<path d="M578,-418 L810,-570 L518,-510 L194,-1186 L178,-518 L370,-802 Z" stroke-width="0" fill="#ec9d45" fill-opacity="0.596078431372549" />
<path d="M774,-402 L486,-218 L558,-210 L746,-626 L234,-258 L374,-698 Z" stroke-width="0" fill="#f4562e" fill-opacity="0.803921568627451" />
<path d="M290,-474 L730,-218 L510,-642 L374,-838 L86,-938 L806,-1038 Z" stroke-width="0" fill="#660c00" fill-opacity="0.5725490196078431" />
<path d="M330,-490 L574,-574 L526,-698 L578,-766 L234,-970 L146,-106 Z" stroke-width="0" fill="#0b0a00" fill-opacity="0.9647058823529412" />
<path d="M314,-498 L118,-118 L338,-266 L634,-622 L230,-942 L690,-630 Z" stroke-width="0" fill="#002c00" fill-opacity="0.9725490196078431" />
<path d="M610,-546 L162,-1110 L622,-350 L410,-898 L194,-1010 L150,-522 Z" stroke-width="0" fill="#d2a3a8" fill-opacity="0.6823529411764706" />
<path d="M158,-122 L450,-926 L650,-434 L802,-86 L558,-346 L590,-1182 Z" stroke-width="0" fill="#7b3300" fill-opacity="0.6588235294117647" />
<path d="M590,-378 L570,-638 L626,-1214 L478,-206 L542,-170 L190,-110 Z" stroke-width="0" fill="#020300" fill-opacity="0.5019607843137255" />
<path d="M466,-666 L370,-1302 L366,-518 L442,-914 L810,-650 L730,-878 Z" stroke-width="0" fill="#eb43b8" fill-opacity="0.34509803921568627" />
<path d="M194,-830 L518,-154 L762,-1262 L526,-230 L622,-478 L686,-1102 Z" stroke-width="0" fill="#60d668" fill-opacity="0.4" />
<path d="M346,-674 L98,-1174 L530,-650 L586,-278 L650,-1014 L422,-1222 Z" stroke-width="0" fill="#7dafcb" fill-opacity="0.49411764705882355" />
<path d="M650,-466 L290,-350 L478,-1202 L590,-782 L270,-570 L770,-954 Z" stroke-width="0" fill="#e6c688" fill-opacity="0.9725490196078431" />
<path d="M302,-314 L150,-1134 L210,-210 L102,-982 L298,-662 L794,-374 Z" stroke-width="0" fill="#6b313e" fill-opacity="0.5019607843137255" />
<path d="M250,-110 L142,-506 L122,-914 L98,-550 L146,-598 L274,-242 Z" stroke-width="0" fill="#195200" fill-opacity="0.7215686274509804" />
<path d="M582,-874 L370,-98 L82,-198 L438,-178 L450,-770 L566,-330 Z" stroke-width="0" fill="#041010" fill-opacity="0.5019607843137255" />
<path d="M682,-274 L370,-366 L386,-1010 L758,-254 L370,-306 L562,-718 Z" stroke-width="0" fill="#d38427" fill-opacity="0.8901960784313725" />
<path d="M614,-642 L86,-338 L274,-246 L126,-426 L366,-274 L578,-798 Z" stroke-width="0" fill="#000000" fill-opacity="0.9058823529411765" />
<path d="M418,-178 L794,-338 L226,-302 L262,-450 L418,-862 L458,-830 Z" stroke-width="0" fill="#d897c9" fill-opacity="0.7725490196078432" />
<path d="M98,-98 L118,-538 L146,-782 L226,-1230 L762,-298 L630,-422 Z" stroke-width="0" fill="#060000" fill-opacity="0.5882352941176471" />
<path d="M234,-574 L134,-882 L306,-694 L538,-394 L370,-578 L390,-766 Z" stroke-width="0" fill="#5ea63a" fill-opacity="0.8117647058823529" />
<path d="M86,-1062 L214,-166 L298,-818 L222,-426 L134,-210 L170,-1174 Z" stroke-width="0" fill="#8bbeee" fill-opacity="0.7568627450980392" />
<path d="M806,-558 L130,-114 L82,-590 L358,-1158 L278,-1154 L734,-1050 Z" stroke-width="0" fill="#3f4200" fill-opacity="0.43137254901960786" />
<path d="M198,-250 L118,-914 L358,-266 L126,-242 L182,-1230 L614,-378 Z" stroke-width="0" fill="#85fd54" fill-opacity="0.592156862745098" />
<path d="M194,-606 L458,-742 L654,-1062 L246,-1286 L578,-514 L426,-206 Z" stroke-width="0" fill="#6978fb" fill-opacity="0.5019607843137255" />
<path d="M262,-1174 L102,-174 L406,-218 L490,-466 L238,-1078 L714,-1146 Z" stroke-width="0" fill="#82d195" fill-opacity="0.0784313725490196" />
<path d="M562,-914 L482,-1246 L134,-982 L90,-650 L354,-434 L266,-126 Z" stroke-width="0" fill="#96ece1" fill-opacity="0.7568627450980392" />
<path d="M758,-430 L654,-1286 L210,-1202 L234,-494 L398,-174 L86,-130 Z" stroke-width="0" fill="#683199" fill-opacity="0.2901960784313726" />
<path d="M146,-134 L646,-842 L298,-502 L782,-418 L806,-414 L118,-1142 Z" stroke-width="0" fill="#280c69" fill-opacity="0.23921568627450981" />
<path d="M450,-922 L806,-474 L622,-910 L166,-202 L466,-574 L526,-470 Z" stroke-width="0" fill="#9c682d" fill-opacity="0.8862745098039215" />
<path d="M210,-622 L790,-294 L458,-770 L642,-806 L198,-914 L554,-402 Z" stroke-width="0" fill="#ef47b0" fill-opacity="0.5019607843137255" />
<path d="M258,-410 L590,-626 L646,-86 L730,-1062 L574,-446 L786,-398 Z" stroke-width="0" fill="#c7a07b" fill-opacity="0.5568627450980392" />
<path d="M318,-210 L490,-462 L806,-494 L122,-630 L554,-1050 L482,-282 Z" stroke-width="0" fill="#a64d72" fill-opacity="0.788235294117647" />
<path d="M706,-158 L542,-1170 L174,-294 L514,-170 L750,-1010 L318,-338 Z" stroke-width="0" fill="#c96f3e" fill-opacity="0.8196078431372549" />
<path d="M442,-206 L210,-742 L498,-1106 L186,-498 L222,-806 L670,-114 Z" stroke-width="0" fill="#700f00" fill-opacity="0.788235294117647" />
<path d="M230,-1114 L322,-1058 L426,-1262 L262,-638 L130,-734 L238,-206 Z" stroke-width="0" fill="#c5d1da" fill-opacity="0.27058823529411763" />
<path d="M806,-230 L670,-702 L210,-622 L518,-994 L278,-442 L254,-510 Z" stroke-width="0" fill="#696b00" fill-opacity="0.5254901960784314" />
<path d="M190,-918 L454,-138 L106,-1090 L82,-586 L330,-446 L130,-202 Z" stroke-width="0" fill="#3568a7" fill-opacity="0.4392156862745098" />
<path d="M134,-902 L374,-222 L578,-1306 L294,-298 L682,-242 L590,-610 Z" stroke-width="0" fill="#322a55" fill-opacity="0.4235294117647059" />
<path d="M574,-1074 L266,-546 L562,-1078 L330,-1082 L230,-314 L326,-366 Z" stroke-width="0" fill="#d38acd" fill-opacity="0.43137254901960786" />
<path d="M430,-270 L674,-702 L522,-350 L166,-554 L602,-654 L346,-330 Z" stroke-width="0" fill="#eff2e9" fill-opacity="0.8823529411764706" />
<path d="M458,-690 L174,-242 L98,-218 L162,-434 L474,-666 L334,-1218 Z" stroke-width="0" fill="#00041a" fill-opacity="0.8196078431372549" />
<path d="M370,-694 L518,-1070 L630,-906 L418,-1242 L390,-334 L170,-1286 Z" stroke-width="0" fill="#93aedc" fill-opacity="0.8392156862745098" />
<path d="M178,-286 L142,-238 L786,-566 L402,-310 L102,-1246 L630,-886 Z" stroke-width="0" fill="#91b5de" fill-opacity="0.7803921568627451" />
<path d="M746,-234 L690,-662 L722,-314 L138,-970 L410,-422 L674,-454 Z" stroke-width="0" fill="#846c48" fill-opacity="0.5019607843137255" />
<path d="M402,-958 L590,-354 L126,-858 L270,-182 L562,-1134 L522,-378 Z" stroke-width="0" fill="#261647" fill-opacity="0.8588235294117647" />
<path d="M202,-690 L590,-970 L270,-654 L770,-338 L490,-366 L126,-938 Z" stroke-width="0" fill="#c98038" fill-opacity="0.23921568627450981" />
<path d="M670,-326 L798,-202 L378,-726 L334,-402 L118,-642 L422,-454 Z" stroke-width="0" fill="#ca6d34" fill-opacity="0.9568627450980393" />
<path d="M118,-414 L238,-1078 L286,-142 L362,-382 L562,-406 L618,-1290 Z" stroke-width="0" fill="#a9b9b9" fill-opacity="0.803921568627451" />
<path d="M510,-1126 L110,-854 L462,-786 L386,-950 L682,-842 L478,-866 Z" stroke-width="0" fill="#ca45b1" fill-opacity="0.0392156862745098" />
<path d="M122,-370 L386,-122 L158,-830 L566,-178 L470,-946 L206,-750 Z" stroke-width="0" fill="#262613" fill-opacity="0.1607843137254902" />
<path d="M506,-490 L326,-90 L198,-930 L106,-758 L394,-770 L626,-82 Z" stroke-width="0" fill="#502203" fill-opacity="0.7529411764705882" />
<path d="M114,-234 L582,-290 L438,-690 L142,-794 L390,-1134 L698,-822 Z" stroke-width="0" fill="#70f8dd" fill-opacity="0.2980392156862745" />
<path d="M810,-706 L202,-286 L730,-278 L362,-926 L246,-214 L330,-778 Z" stroke-width="0" fill="#806940" fill-opacity="0.4" />
<path d="M210,-122 L506,-330 L634,-1150 L386,-294 L450,-1026 L366,-138 Z" stroke-width="0" fill="#000f00" fill-opacity="0.6392156862745098" />
<path d="M622,-298 L590,-462 L274,-210 L622,-474 L754,-102 L182,-586 Z" stroke-width="0" fill="#6e5c12" fill-opacity="0.47843137254901963" />
<path d="M626,-106 L130,-878 L774,-190 L266,-506 L654,-1078 L626,-674 Z" stroke-width="0" fill="#543819" fill-opacity="0.4" />
<path d="M710,-662 L558,-918 L442,-854 L554,-150 L494,-1138 L654,-1266 Z" stroke-width="0" fill="#99f318" fill-opacity="0.14901960784313725" />
<path d="M366,-150 L638,-530 L650,-654 L646,-1278 L514,-654 L170,-498 Z" stroke-width="0" fill="#9ebb9d" fill-opacity="0.7294117647058823" />
<path d="M426,-730 L170,-1146 L302,-174 L110,-1030 L166,-514 L422,-298 Z" stroke-width="0" fill="#b592ea" fill-opacity="0.4627450980392157" />
<path d="M194,-1226 L534,-486 L242,-1050 L194,-310 L742,-142 L594,-270 Z" stroke-width="0" fill="#daf501" fill-opacity="0.023529411764705882" />
<path d="M610,-1198 L594,-966 L494,-254 L362,-594 L382,-1110 L198,-746 Z" stroke-width="0" fill="#81b8ef" fill-opacity="0.2901960784313726" />
<path d="M506,-1290 L510,-1210 L446,-434 L306,-126 L654,-702 L802,-1162 Z" stroke-width="0" fill="#93abee" fill-opacity="0.6431372549019608" />
<path d="M270,-134 L226,-622 L418,-334 L390,-734 L466,-938 L402,-354 Z" stroke-width="0" fill="#2f0c29" fill-opacity="0.19215686274509805" />
<path d="M578,-902 L158,-334 L322,-130 L338,-318 L102,-582 L234,-1006 Z" stroke-width="0" fill="#5196ed" fill-opacity="0.20392156862745098" />
<path d="M398,-1110 L554,-510 L138,-1062 L102,-778 L390,-954 L598,-402 Z" stroke-width="0" fill="#d7e5e7" fill-opacity="0.4392156862745098" />
<path d="M274,-534 L754,-658 L366,-158 L498,-586 L330,-990 L594,-598 Z" stroke-width="0" fill="#814b1a" fill-opacity="0.47843137254901963" />
<path d="M90,-198 L98,-658 L146,-626 L162,-686 L714,-122 L306,-258 Z" stroke-width="0" fill="#4e9560" fill-opacity="0.26666666666666666" />
<path d="M706,-834 L166,-474 L186,-170 L158,-1030 L386,-386 L86,-178 Z" stroke-width="0" fill="#8d8fcd" fill-opacity="0.11764705882352941" />
<path d="M242,-1162 L478,-182 L254,-826 L350,-778 L766,-826 L470,-234 Z" stroke-width="0" fill="#843000" fill-opacity="0.4745098039215686" />
<path d="M794,-618 L366,-930 L710,-1206 L110,-690 L434,-1286 L98,-1230 Z" stroke-width="0" fill="#8cd0a4" fill-opacity="0.4745098039215686" />
<path d="M410,-454 L430,-1182 L666,-590 L158,-698 L770,-966 L258,-830 Z" stroke-width="0" fill="#90b4b4" fill-opacity="0.18823529411764706" />
<path d="M258,-794 L206,-498 L130,-454 L790,-542 L122,-1234 L462,-670 Z" stroke-width="0" fill="#a3a7ca" fill-opacity="0.3058823529411765" />
<path d="M642,-1086 L666,-698 L162,-346 L682,-990 L186,-766 L126,-442 Z" stroke-width="0" fill="#eee9eb" fill-opacity="0.0784313725490196" />
<path d="M302,-278 L354,-438 L102,-1162 L126,-222 L134,-706 L754,-1078 Z" stroke-width="0" fill="#abb8ea" fill-opacity="0.5019607843137255" />
<path d="M414,-338 L226,-758 L410,-558 L366,-978 L354,-254 L154,-758 Z" stroke-width="0" fill="#abb2ee" fill-opacity="0.6705882352941176" />
<path d="M362,-1210 L214,-110 L270,-338 L86,-106 L114,-1266 L146,-562 Z" stroke-width="0" fill="#d7e7dd" fill-opacity="0.5019607843137255" />
<path d="M138,-1170 L598,-514 L218,-1018 L126,-294 L130,-722 L278,-1154 Z" stroke-width="0" fill="#b0bada" fill-opacity="0.2980392156862745" />
<path d="M798,-362 L90,-210 L550,-978 L162,-1262 L630,-578 L506,-302 Z" stroke-width="0" fill="#ba0080" fill-opacity="0.0196078431372549" />
<path d="M470,-562 L398,-238 L82,-910 L462,-462 L266,-706 L702,-922 Z" stroke-width="0" fill="#b7e8f5" fill-opacity="0.5607843137254902" />
<path d="M538,-1014 L110,-910 L542,-258 L262,-1098 L542,-774 L534,-146 Z" stroke-width="0" fill="#a291d9" fill-opacity="0.1568627450980392" />
<path d="M498,-686 L606,-314 L622,-806 L726,-778 L150,-366 L802,-650 Z" stroke-width="0" fill="#dfbe97" fill-opacity="0.10196078431372549" />
<path d="M354,-602 L794,-462 L406,-1102 L386,-518 L374,-1118 L250,-982 Z" stroke-width="0" fill="#8b9dab" fill-opacity="0.050980392156862744" />
<path d="M598,-954 L762,-1050 L166,-1138 L374,-846 L642,-938 L434,-734 Z" stroke-width="0" fill="#f3d7f9" fill-opacity="0.11372549019607843" />
<text x="448.0" y="0" font-size="70.0" fill="black" text-anchor="middle" transform="translate(0,17.5)">8 OF WATER</text>
</svg>