<?xml version="1.0" encoding="UTF-8"?>
<svg xmlns="http://www.w3.org/2000/svg" xmlns:xlink="http://www.w3.org/1999/xlink"
     width="896" height="1496" viewBox="0 -1400 896 1496" style="font-size:70;font-family:Poor Richard, Times New Roman;stroke:black;stroke-width:1;fill:none">
<defs>
</defs>
<path d="M714,-330 L274,-670 L426,-386 L578,-1218 L118,-806 L270,-114 Z" stroke-width="0" fill="#601700" fill-opacity="0.4117647058823529" />
<path d="M722,-182 L282,-658 L158,-498 L398,-818 L454,-110 L614,-1218 Z" stroke-width="0" fill="#7c3200" fill-opacity="0.5294117647058824" />
<path d="M274,-538 L598,-138 L450,-930 L738,-370 L482,-770 L806,-846 Z" stroke-width="0" fill="#9a4400" fill-opacity="0.5450980392156862" />
<path d="M410,-302 L378,-950 L82,-246 L250,-562 L642,-566 L450,-270 Z" stroke-width="0" fill="#300000" fill-opacity="0.8627450980392157" />
<path d="M242,-686 L654,-574 L690,-782 L134,-194 L214,-610 L486,-1254 Z" stroke-width="0" fill="#f4d200" fill-opacity="0.6549019607843137" />
<path d="M238,-734 L686,-490 L590,-794 L478,-1250 L422,-458 L366,-570 Z" stroke-width="0" fill="#e5e700" fill-opacity="0.9058823529411765" />
<path d="M766,-150 L474,-230 L146,-786 L190,-354 L682,-350 L498,-770 Z" stroke-width="0" fill="#663f21" fill-opacity="0.25882352941176473" />
<path d="M522,-386 L598,-998 L190,-1194 L82,-490 L98,-310 L466,-998 Z" stroke-width="0" fill="#8b3100" fill-opacity="0.5019607843137255" />
<path d="M198,-374 L750,-1078 L82,-726 L150,-878 L674,-702 L646,-942 Z" stroke-width="0" fill="#101929" fill-opacity="0.8313725490196079" />
<path d="M198,-174 L418,-1206 L378,-602 L578,-954 L774,-1238 L514,-1206 Z" stroke-width="0" fill="#8b4b23" fill-opacity="0.4980392156862745" />
<path d="M82,-698 L166,-998 L382,-158 L778,-398 L382,-390 L250,-510 Z" stroke-width="0" fill="#381925" fill-opacity="0.6235294117647059" />
<path d="M138,-1066 L174,-698 L402,-1142 L670,-810 L378,-1078 L354,-1218 Z" stroke-width="0" fill="#620800" fill-opacity="0.4" />
<path d="M546,-706 L606,-1026 L798,-494 L202,-330 L550,-1158 L686,-678 Z" stroke-width="0" fill="#3a0000" fill-opacity="0.6823529411764706" />
<path d="M682,-238 L118,-502 L90,-682 L82,-1146 L466,-354 L530,-198 Z" stroke-width="0" fill="#973000" fill-opacity="0.788235294117647" />
<path d="M150,-314 L466,-418 L478,-490 L730,-934 L214,-1050 L718,-274 Z" stroke-width="0" fill="#060726" fill-opacity="0.984313725490196" />
<path d="M114,-1262 L286,-422 L294,-1286 L318,-158 L294,-526 L690,-818 Z" stroke-width="0" fill="#621f00" fill-opacity="0.7098039215686275" />
<path d="M782,-1218 L206,-726 L354,-122 L106,-654 L766,-154 L678,-734 Z" stroke-width="0" fill="#96683a" fill-opacity="0.5411764705882353" />
<path d="M138,-1026 L650,-206 L366,-846 L214,-1002 L782,-310 L366,-94 Z" stroke-width="0" fill="#804300" fill-opacity="0.5764705882352941" />
<path d="M794,-1218 L550,-186 L390,-1114 L182,-1154 L94,-426 L310,-722 Z" stroke-width="0" fill="#e48a61" fill-opacity="0.3254901960784314" />
<path d="M510,-750 L758,-162 L150,-266 L470,-378 L766,-310 L610,-1142 Z" stroke-width="0" fill="#8c5c77" fill-opacity="0.00392156862745098" />
<path d="M518,-954 L266,-850 L630,-950 L558,-634 L122,-1030 L230,-978 Z" stroke-width="0" fill="#4c0000" fill-opacity="0.6941176470588235" />
<path d="M478,-942 L186,-526 L330,-102 L650,-1066 L382,-1294 L410,-1110 Z" stroke-width="0" fill="#ab2200" fill-opacity="0.4666666666666667" />
<path d="M202,-466 L418,-1074 L306,-250 L402,-1102 L382,-1018 L574,-738 Z" stroke-width="0" fill="#01424c" fill-opacity="0.4823529411764706" />
<path d="M450,-1230 L114,-430 L158,-382 L778,-550 L126,-962 L234,-302 Z" stroke-width="0" fill="#7e4c10" fill-opacity="0.7647058823529411" />
<path d="M566,-478 L414,-1246 L718,-330 L506,-1082 L370,-774 L398,-582 Z" stroke-width="0" fill="#f69521" fill-opacity="0.9921568627450981" />
<path d="M642,-1006 L374,-462 L222,-490 L514,-230 L462,-1042 L166,-478 Z" stroke-width="0" fill="#e4bb52" fill-opacity="0.7725490196078432" />
<path d="M138,-446 L790,-322 L446,-662 L94,-234 L790,-718 L278,-602 Z" stroke-width="0" fill="#b5d8d4" fill-opacity="0.5372549019607843" />
<path d="M618,-774 L226,-1050 L598,-186 L370,-246 L282,-166 L130,-254 Z" stroke-width="0" fill="#855707" fill-opacity="0.7215686274509804" />
<path d="M106,-974 L138,-234 L294,-618 L406,-394 L418,-1206 L358,-754 Z" stroke-width="0" fill="#cf0074" fill-opacity="0.24705882352941178" />
<path d="M466,-450 L438,-774 L646,-698 L214,-1198 L686,-570 L630,-610 Z" stroke-width="0" fill="#2f7b78" fill-opacity="0.4549019607843137" />
<path d="M378,-162 L382,-950 L618,-810 L370,-606 L610,-658 L702,-802 Z" stroke-width="0" fill="#b578e8" fill-opacity="0.1803921568627451" />
<path d="M194,-330 L526,-462 L686,-990 L538,-214 L118,-86 L402,-590 Z" stroke-width="0" fill="#110303" fill-opacity="0.5019607843137255" />
<path d="M802,-602 L110,-490 L182,-838 L530,-874 L662,-842 L366,-906 Z" stroke-width="0" fill="#671500" fill-opacity="0.6862745098039216" />
<path d="M742,-342 L206,-1214 L466,-578 L750,-302 L298,-438 L506,-658 Z" stroke-width="0" fill="#3e36ae" fill-opacity="0.6" />
<path d="M186,-446 L382,-1178 L278,-90 L430,-366 L166,-258 L270,-594 Z" stroke-width="0" fill="#906800" fill-opacity="0.5215686274509804" />
<path d="M198,-874 L366,-218 L554,-990 L270,-1222 L310,-818 L478,-374 Z" stroke-width="0" fill="#fff1e2" fill-opacity="0.9333333333333333" />
<path d="M170,-558 L454,-714 L98,-362 L502,-166 L606,-494 L442,-1190 Z" stroke-width="0" fill="#e9f1e5" fill-opacity="0.9450980392156862" />
<path d="M598,-518 L274,-898 L638,-542 L258,-962 L802,-150 L698,-834 Z" stroke-width="0" fill="#6e1900" fill-opacity="0.403921568627451" />
<path d="M566,-686 L470,-350 L710,-354 L126,-910 L434,-1206 L362,-574 Z" stroke-width="0" fill="#9e7c5c" fill-opacity="0.0" />
<path d="M506,-98 L718,-638 L634,-1066 L94,-538 L698,-1094 L802,-726 Z" stroke-width="0" fill="#6b4900" fill-opacity="0.6431372549019608" />
<path d="M278,-1010 L370,-826 L622,-486 L586,-866 L190,-842 L634,-98 Z" stroke-width="0" fill="#872b00" fill-opacity="0.5058823529411764" />
<path d="M550,-618 L394,-466 L750,-970 L142,-1210 L490,-846 L82,-206 Z" stroke-width="0" fill="#b19059" fill-opacity="0.9098039215686274" />
<path d="M398,-870 L762,-510 L682,-666 L182,-530 L454,-1218 L614,-614 Z" stroke-width="0" fill="#c9edfb" fill-opacity="0.07058823529411765" />
<path d="M114,-110 L550,-1134 L630,-630 L158,-1258 L638,-1170 L594,-954 Z" stroke-width="0" fill="#8b4f14" fill-opacity="0.5019607843137255" />
<path d="M346,-190 L526,-1262 L706,-262 L134,-266 L498,-806 L154,-1178 Z" stroke-width="0" fill="#1dfe66" fill-opacity="0.14901960784313725" />
<path d="M182,-1010 L414,-982 L450,-434 L258,-698 L798,-1282 L642,-1062 Z" stroke-width="0" fill="#b86211" fill-opacity="0.8392156862745098" />
<path d="M526,-174 L342,-834 L242,-1082 L270,-898 L194,-862 L466,-838 Z" stroke-width="0" fill="#975309" fill-opacity="0.5803921568627451" />
<path d="M106,-270 L186,-222 L230,-750 L218,-782 L402,-758 L750,-130 Z" stroke-width="0" fill="#99600e" fill-opacity="0.6" />
<path d="M322,-678 L662,-154 L314,-1242 L574,-226 L82,-1218 L750,-1262 Z" stroke-width="0" fill="#bd5b00" fill-opacity="0.5490196078431373" />
<path d="M126,-1058 L190,-1042 L310,-1202 L294,-102 L302,-1270 L354,-914 Z" stroke-width="0" fill="#876101" fill-opacity="0.5019607843137255" />
<path d="M522,-226 L574,-174 L86,-978 L86,-694 L478,-186 L126,-1278 Z" stroke-width="0" fill="#87572c" fill-opacity="0.7215686274509804" />
<path d="M394,-330 L758,-998 L394,-482 L754,-574 L406,-1074 L486,-206 Z" stroke-width="0" fill="#2d2e40" fill-opacity="0.796078431372549" />
<path d="M526,-798 L214,-710 L82,-358 L198,-186 L430,-502 L306,-410 Z" stroke-width="0" fill="#381903" fill-opacity="0.9058823529411765" />
<path d="M146,-994 L166,-958 L530,-226 L634,-1014 L162,-526 L254,-446 Z" stroke-width="0" fill="#0c0600" fill-opacity="0.9568627450980393" />
<path d="M394,-510 L326,-1290 L246,-538 L254,-790 L210,-114 L178,-586 Z" stroke-width="0" fill="#988a37" fill-opacity="0.8745098039215686" />
<path d="M250,-450 L706,-750 L322,-1058 L774,-718 L134,-218 L342,-1002 Z" stroke-width="0" fill="#461700" fill-opacity="0.6470588235294118" />
<path d="M214,-626 L246,-666 L542,-930 L226,-934 L590,-822 L618,-450 Z" stroke-width="0" fill="#d9e0f7" fill-opacity="0.7372549019607844" />
<path d="M274,-738 L230,-254 L242,-754 L602,-654 L110,-90 L82,-1006 Z" stroke-width="0" fill="#4d0f00" fill-opacity="0.5215686274509804" />
<path d="M558,-358 L418,-562 L478,-166 L446,-862 L270,-978 L98,-1182 Z" stroke-width="0" fill="#01051c" fill-opacity="0.8352941176470589" />
<path d="M786,-1074 L494,-890 L774,-594 L566,-642 L614,-730 L230,-822 Z" stroke-width="0" fill="#eecad4" fill-opacity="0.21176470588235294" />
<path d="M770,-1126 L566,-1074 L110,-822 L458,-1098 L466,-138 L298,-694 Z" stroke-width="0" fill="#e7c369" fill-opacity="0.8509803921568627" />
<path d="M162,-1050 L602,-326 L326,-870 L654,-462 L130,-686 L694,-366 Z" stroke-width="0" fill="#750108" fill-opacity="0.30980392156862746" />
<path d="M162,-1198 L506,-294 L122,-754 L742,-714 L802,-1130 L106,-386 Z" stroke-width="0" fill="#563000" fill-opacity="0.6745098039215687" />
<path d="M94,-234 L698,-902 L162,-774 L290,-338 L422,-510 L214,-642 Z" stroke-width="0" fill="#000000" fill-opacity="0.5647058823529412" />
<path d="M782,-202 L710,-878 L390,-818 L622,-1010 L302,-686 L542,-502 Z" stroke-width="0" fill="#d5c311" fill-opacity="0.3411764705882353" />
<path d="M338,-370 L290,-230 L522,-342 L94,-802 L786,-402 L698,-922 Z" stroke-width="0" fill="#a16226" fill-opacity="0.45098039215686275" />
<path d="M634,-326 L142,-874 L274,-794 L442,-530 L98,-482 L758,-234 Z" stroke-width="0" fill="#c39e56" fill-opacity="0.7764705882352941" />
<path d="M762,-238 L250,-1122 L782,-326 L330,-90 L358,-1178 L142,-642 Z" stroke-width="0" fill="#cba24c" fill-opacity="0.9882352941176471" />
<path d="M174,-1266 L122,-1022 L422,-942 L810,-806 L242,-734 L762,-914 Z" stroke-width="0" fill="#8e0b00" fill-opacity="0.18823529411764706" />
<path d="M430,-806 L746,-1130 L566,-806 L370,-334 L126,-570 L678,-966 Z" stroke-width="0" fill="#cc8799" fill-opacity="0.984313725490196" />
<path d="M350,-102 L358,-478 L558,-638 L290,-282 L298,-670 L502,-362 Z" stroke-width="0" fill="#a08ead" fill-opacity="0.396078431372549" />
<path d="M806,-902 L154,-686 L438,-146 L798,-286 L618,-1126 L274,-478 Z" stroke-width="0" fill="#ac90b6" fill-opacity="0.4117647058823529" />
<path d="M466,-250 L530,-474 L210,-1102 L86,-1122 L610,-1222 L226,-970 Z" stroke-width="0" fill="#3b4c07" fill-opacity="0.17254901960784313" />
<path d="M314,-202 L422,-906 L598,-514 L122,-862 L214,-1114 L106,-414 Z" stroke-width="0" fill="#e3c48c" fill-opacity="0.14901960784313725" />
<path d="M546,-266 L526,-806 L486,-598 L570,-178 L190,-738 L726,-754 Z" stroke-width="0" fill="#fbe5b8" fill-opacity="0.34901960784313724" />
<path d="M218,-794 L770,-1042 L470,-326 L642,-910 L682,-1198 L330,-530 Z" stroke-width="0" fill="#e8bc9f" fill-opacity="0.7411764705882353" />
<path d="M770,-1090 L378,-1254 L382,-1258 L494,-510 L110,-654 L466,-606 Z" stroke-width="0" fill="#aac9c4" fill-opacity="0.3607843137254902" />
<path d="M334,-258 L762,-182 L694,-814 L462,-518 L322,-606 L198,-510 Z" stroke-width="0" fill="#e9c264" fill-opacity="0.396078431372549" />
<path d="M390,-282 L242,-322 L674,-190 L718,-622 L638,-854 L214,-862 Z" stroke-width="0" fill="#602309" fill-opacity="0.9607843137254902" />
<path d="M542,-238 L110,-622 L102,-1210 L558,-182 L270,-634 L726,-462 Z" stroke-width="0" fill="#563900" fill-opacity="0.592156862745098" />
<path d="M746,-458 L570,-110 L394,-402 L742,-890 L110,-758 L310,-738 Z" stroke-width="0" fill="#c9caa2" fill-opacity="0.8627450980392157" />
<path d="M166,-258 L330,-394 L542,-1314 L758,-374 L486,-1182 L530,-506 Z" stroke-width="0" fill="#de8332" fill-opacity="0.6313725490196078" />
<path d="M674,-550 L758,-1298 L390,-1106 L246,-726 L318,-594 L114,-1202 Z" stroke-width="0" fill="#e6c277" fill-opacity="0.5019607843137255" />
<path d="M338,-734 L554,-938 L674,-310 L502,-1142 L734,-1066 L514,-806 Z" stroke-width="0" fill="#f3e5d9" fill-opacity="0.4392156862745098" />
<path d="M598,-390 L342,-898 L538,-314 L630,-1102 L242,-646 L318,-1050 Z" stroke-width="0" fill="#daa9d7" fill-opacity="0.6705882352941176" />
<path d="M122,-342 L646,-606 L550,-102 L326,-342 L274,-1110 L250,-486 Z" stroke-width="0" fill="#b84a42" fill-opacity="0.10196078431372549" />
<path d="M362,-870 L306,-606 L198,-950 L186,-770 L662,-1282 L430,-230 Z" stroke-width="0" fill="#99a158" fill-opacity="0.24313725490196078" />
<path d="M734,-710 L450,-830 L266,-794 L98,-1054 L422,-394 L274,-1210 Z" stroke-width="0" fill="#d7a256" fill-opacity="0.34509803921568627" />
<path d="M558,-218 L242,-742 L682,-1250 L178,-402 L714,-190 L694,-530 Z" stroke-width="0" fill="#d69086" fill-opacity="0.4470588235294118" />
<path d="M170,-366 L266,-874 L726,-878 L294,-850 L450,-270 L174,-110 Z" stroke-width="0" fill="#824c22" fill-opacity="0.36470588235294116" />
<path d="M746,-638 L154,-670 L206,-594 L446,-230 L678,-570 L742,-1170 Z" stroke-width="0" fill="#e8806f" fill-opacity="0.20784313725490197" />
<path d="M610,-698 L226,-1234 L798,-734 L382,-730 L462,-1034 L450,-1094 Z" stroke-width="0" fill="#b29698" fill-opacity="0.4" />
<path d="M102,-918 L634,-858 L474,-1234 L598,-866 L346,-274 L406,-1142 Z" stroke-width="0" fill="#e1bb84" fill-opacity="0.3254901960784314" />
<path d="M618,-1206 L782,-898 L542,-850 L474,-1098 L650,-146 L214,-330 Z" stroke-width="0" fill="#bd9b36" fill-opacity="0.3764705882352941" />
<path d="M662,-610 L210,-754 L118,-438 L250,-1230 L318,-238 L674,-814 Z" stroke-width="0" fill="#77211a" fill-opacity="0.5333333333333333" />
<path d="M590,-998 L234,-898 L434,-358 L514,-210 L178,-466 L478,-230 Z" stroke-width="0" fill="#87b200" fill-opacity="0.11372549019607843" />
<path d="M666,-626 L566,-250 L798,-294 L678,-1018 L558,-946 L506,-158 Z" stroke-width="0" fill="#d0a362" fill-opacity="0.4392156862745098" />
<path d="M114,-278 L514,-142 L402,-734 L174,-238 L458,-98 L98,-478 Z" stroke-width="0" fill="#c89c5f" fill-opacity="0.3058823529411765" />
<path d="M266,-246 L274,-338 L514,-738 L254,-726 L386,-562 L282,-1058 Z" stroke-width="0" fill="#c3865f" fill-opacity="0.3058823529411765" />
<path d="M170,-214 L730,-634 L222,-1118 L146,-618 L282,-434 L142,-1214 Z" stroke-width="0" fill="#ba9651" fill-opacity="0.18823529411764706" />
<text x="448.0" y="0" font-size="70.0" fill="black" text-anchor="middle" transform="translate(0,17.5)">9 OF WATER</text>
</svg>