<?xml version="1.0" encoding="UTF-8"?>
<svg xmlns="http://www.w3.org/2000/svg" xmlns:xlink="http://www.w3.org/1999/xlink"
     width="275" height="375" viewBox="0 -350 275 375">
<defs>
</defs>
<rect x="15" y="-335" width="245" height="320" stroke="black" stroke-width="4" fill="white" />
<path d="M168,-108 L94,-282 L66,-278 L82,-125 L202,-137 L135,-217 Z" stroke-width="0" fill="#84cb96" fill-opacity="0.16470588235294117" />
<path d="M146,-183 L90,-226 L88,-90 L75,-37 L220,-95 L137,-213 Z" stroke-width="0" fill="#300000" fill-opacity="0.9137254901960784" />
<path d="M163,-152 L185,-230 L248,-155 L143,-35 L81,-97 L29,-163 Z" stroke-width="0" fill="#000000" fill-opacity="0.7686274509803922" />
<path d="M172,-260 L194,-74 L106,-109 L157,-158 L97,-140 L113,-204 Z" stroke-width="0" fill="#5f7874" fill-opacity="0.27058823529411763" />
<path d="M25,-318 L56,-93 L184,-56 L30,-40 L53,-163 L174,-62 Z" stroke-width="0" fill="#000000" fill-opacity="0.9686274509803922" />
<path d="M113,-75 L87,-109 L67,-67 L234,-53 L90,-281 L138,-44 Z" stroke-width="0" fill="#000017" fill-opacity="0.9686274509803922" />
<path d="M66,-224 L171,-69 L27,-90 L61,-30 L103,-167 L228,-130 Z" stroke-width="0" fill="#000000" fill-opacity="0.9019607843137255" />
<path d="M129,-131 L95,-82 L196,-217 L203,-180 L136,-71 L157,-250 Z" stroke-width="0" fill="#824456" fill-opacity="0.5882352941176471" />
<path d="M240,-204 L247,-89 L61,-161 L69,-162 L85,-308 L221,-229 Z" stroke-width="0" fill="#6b78ec" fill-opacity="0.20392156862745098" />
<path d="M126,-158 L180,-307 L68,-137 L53,-232 L29,-89 L81,-236 Z" stroke-width="0" fill="#000005" fill-opacity="0.8352941176470589" />
<path d="M202,-273 L130,-77 L116,-166 L41,-136 L58,-60 L142,-121 Z" stroke-width="0" fill="#a7f8eb" fill-opacity="0.9725490196078431" />
<path d="M173,-67 L132,-315 L235,-29 L171,-204 L190,-58 L205,-250 Z" stroke-width="0" fill="#000000" fill-opacity="0.6470588235294118" />
<path d="M94,-161 L224,-46 L90,-237 L185,-190 L211,-81 L153,-47 Z" stroke-width="0" fill="#000004" fill-opacity="0.7647058823529411" />
<path d="M190,-30 L193,-281 L129,-201 L120,-269 L36,-158 L63,-108 Z" stroke-width="0" fill="#08080e" fill-opacity="0.9254901960784314" />
<path d="M89,-313 L121,-263 L176,-171 L102,-227 L228,-54 L160,-164 Z" stroke-width="0" fill="#000013" fill-opacity="0.5019607843137255" />
<path d="M91,-223 L138,-85 L249,-99 L165,-31 L85,-122 L29,-224 Z" stroke-width="0" fill="#11131a" fill-opacity="0.996078431372549" />
<path d="M181,-307 L197,-234 L60,-130 L107,-122 L124,-62 L132,-240 Z" stroke-width="0" fill="#49254c" fill-opacity="0.1803921568627451" />
<path d="M133,-280 L119,-192 L227,-45 L125,-187 L175,-304 L77,-220 Z" stroke-width="0" fill="#000000" fill-opacity="0.8901960784313725" />
<path d="M239,-195 L212,-315 L249,-60 L103,-164 L81,-104 L211,-237 Z" stroke-width="0" fill="#030e0d" fill-opacity="0.996078431372549" />
<path d="M57,-316 L80,-306 L142,-33 L148,-290 L75,-310 L37,-141 Z" stroke-width="0" fill="#160000" fill-opacity="0.9529411764705882" />
<path d="M148,-175 L50,-119 L25,-258 L124,-83 L32,-305 L151,-244 Z" stroke-width="0" fill="#000008" fill-opacity="0.9607843137254902" />
<path d="M212,-122 L234,-324 L73,-29 L81,-236 L57,-306 L36,-250 Z" stroke-width="0" fill="#000400" fill-opacity="0.792156862745098" />
<path d="M173,-216 L174,-123 L67,-125 L72,-32 L32,-74 L67,-158 Z" stroke-width="0" fill="#0b0000" fill-opacity="0.9411764705882353" />
<path d="M81,-183 L168,-102 L56,-184 L91,-80 L194,-32 L60,-134 Z" stroke-width="0" fill="#257e74" fill-opacity="0.9450980392156862" />
<path d="M232,-170 L38,-107 L44,-278 L121,-26 L215,-182 L27,-154 Z" stroke-width="0" fill="#30261d" fill-opacity="0.9607843137254902" />
<path d="M33,-195 L174,-105 L138,-164 L114,-208 L113,-158 L99,-198 Z" stroke-width="0" fill="#121e1b" fill-opacity="0.9647058823529412" />
<path d="M95,-165 L154,-52 L94,-288 L121,-264 L50,-312 L31,-252 Z" stroke-width="0" fill="#191d00" fill-opacity="0.8470588235294118" />
<path d="M147,-184 L170,-227 L80,-119 L95,-204 L210,-186 L93,-238 Z" stroke-width="0" fill="#4a8e0e" fill-opacity="0.19607843137254902" />
<path d="M168,-262 L208,-122 L228,-264 L123,-138 L83,-208 L157,-278 Z" stroke-width="0" fill="#003767" fill-opacity="0.45098039215686275" />
<path d="M121,-220 L132,-195 L36,-243 L85,-160 L167,-317 L161,-40 Z" stroke-width="0" fill="#20171e" fill-opacity="0.9607843137254902" />
<path d="M121,-44 L173,-280 L67,-92 L118,-207 L64,-210 L198,-85 Z" stroke-width="0" fill="#ea0406" fill-opacity="0.403921568627451" />
<path d="M76,-68 L193,-207 L247,-93 L241,-256 L134,-95 L34,-189 Z" stroke-width="0" fill="#000c00" fill-opacity="0.9137254901960784" />
<path d="M172,-259 L226,-227 L68,-171 L220,-62 L249,-45 L186,-148 Z" stroke-width="0" fill="#00000a" fill-opacity="0.9490196078431372" />
<path d="M60,-66 L156,-167 L56,-56 L242,-279 L165,-113 L210,-186 Z" stroke-width="0" fill="#000000" fill-opacity="0.7294117647058823" />
<path d="M33,-206 L118,-118 L25,-210 L128,-146 L64,-33 L232,-293 Z" stroke-width="0" fill="#00090d" fill-opacity="0.8627450980392157" />
<path d="M198,-161 L59,-47 L44,-137 L76,-321 L187,-98 L46,-113 Z" stroke-width="0" fill="#180007" fill-opacity="0.8117647058823529" />
<path d="M25,-250 L171,-208 L215,-166 L161,-294 L134,-127 L198,-317 Z" stroke-width="0" fill="#000000" fill-opacity="0.7803921568627451" />
<path d="M189,-120 L208,-28 L31,-97 L209,-217 L47,-95 L97,-141 Z" stroke-width="0" fill="#000000" fill-opacity="0.8941176470588236" />
<path d="M237,-169 L82,-274 L210,-215 L105,-317 L28,-48 L218,-54 Z" stroke-width="0" fill="#001200" fill-opacity="0.8392156862745098" />
<path d="M39,-86 L47,-207 L143,-132 L125,-93 L128,-186 L46,-218 Z" stroke-width="0" fill="#262d5e" fill-opacity="0.596078431372549" />
<path d="M46,-175 L143,-269 L100,-151 L62,-31 L111,-59 L115,-316 Z" stroke-width="0" fill="#111c00" fill-opacity="0.9607843137254902" />
<path d="M129,-192 L160,-250 L145,-130 L44,-270 L204,-163 L42,-278 Z" stroke-width="0" fill="#2a4304" fill-opacity="0.26666666666666666" />
<path d="M77,-132 L228,-60 L158,-173 L239,-132 L219,-72 L182,-267 Z" stroke-width="0" fill="#e22cb9" fill-opacity="0.19607843137254902" />
<path d="M47,-182 L41,-171 L120,-266 L28,-102 L117,-63 L231,-268 Z" stroke-width="0" fill="#000008" fill-opacity="0.8156862745098039" />
<path d="M36,-317 L113,-198 L67,-320 L70,-197 L213,-186 L189,-268 Z" stroke-width="0" fill="#0f0000" fill-opacity="0.8627450980392157" />
<path d="M67,-205 L25,-241 L246,-76 L41,-243 L51,-93 L56,-117 Z" stroke-width="0" fill="#092d20" fill-opacity="0.996078431372549" />
<path d="M66,-28 L156,-246 L165,-227 L118,-219 L246,-159 L117,-65 Z" stroke-width="0" fill="#6732a6" fill-opacity="0.9137254901960784" />
<path d="M156,-275 L105,-32 L201,-264 L124,-188 L36,-69 L90,-297 Z" stroke-width="0" fill="#0c0000" fill-opacity="0.9607843137254902" />
<path d="M178,-77 L173,-99 L193,-141 L118,-28 L110,-156 L247,-294 Z" stroke-width="0" fill="#000000" fill-opacity="0.6431372549019608" />
<path d="M180,-106 L85,-214 L46,-251 L200,-97 L42,-301 L170,-181 Z" stroke-width="0" fill="#211400" fill-opacity="0.9803921568627451" />
<path d="M217,-219 L110,-218 L231,-221 L111,-135 L244,-64 L42,-64 Z" stroke-width="0" fill="#000008" fill-opacity="0.984313725490196" />
<path d="M59,-144 L98,-231 L239,-232 L109,-216 L159,-96 L58,-294 Z" stroke-width="0" fill="#555000" fill-opacity="0.21568627450980393" />
<path d="M171,-281 L114,-75 L155,-309 L185,-62 L115,-92 L189,-120 Z" stroke-width="0" fill="#060000" fill-opacity="0.9137254901960784" />
<path d="M140,-270 L63,-101 L167,-133 L64,-227 L42,-232 L173,-137 Z" stroke-width="0" fill="#0d4e06" fill-opacity="0.0784313725490196" />
<path d="M73,-176 L48,-137 L55,-59 L189,-186 L67,-238 L83,-228 Z" stroke-width="0" fill="#de636a" fill-opacity="0.8980392156862745" />
<path d="M157,-260 L126,-257 L204,-189 L35,-26 L108,-255 L78,-58 Z" stroke-width="0" fill="#130000" fill-opacity="0.9803921568627451" />
<path d="M205,-82 L146,-60 L151,-70 L94,-33 L223,-138 L185,-276 Z" stroke-width="0" fill="#00002a" fill-opacity="0.9058823529411765" />
<path d="M139,-120 L172,-233 L79,-95 L102,-93 L132,-67 L74,-82 Z" stroke-width="0" fill="#47ae5a" fill-opacity="0.3843137254901961" />
<path d="M148,-188 L64,-104 L86,-33 L46,-170 L177,-77 L171,-301 Z" stroke-width="0" fill="#427734" fill-opacity="0.8352941176470589" />
<path d="M86,-71 L32,-105 L130,-321 L162,-190 L179,-114 L163,-280 Z" stroke-width="0" fill="#131c06" fill-opacity="0.6" />
<path d="M79,-242 L248,-308 L105,-277 L41,-268 L136,-288 L244,-201 Z" stroke-width="0" fill="#030112" fill-opacity="0.5019607843137255" />
<path d="M117,-133 L68,-317 L76,-86 L224,-276 L61,-197 L73,-176 Z" stroke-width="0" fill="#1f0000" fill-opacity="0.4549019607843137" />
<path d="M211,-224 L158,-215 L138,-26 L55,-82 L194,-130 L96,-25 Z" stroke-width="0" fill="#000000" fill-opacity="0.9058823529411765" />
<path d="M206,-262 L197,-216 L76,-97 L106,-309 L67,-151 L95,-30 Z" stroke-width="0" fill="#000003" fill-opacity="0.9215686274509803" />
<path d="M158,-220 L47,-114 L74,-305 L171,-78 L227,-297 L181,-148 Z" stroke-width="0" fill="#4c3e45" fill-opacity="0.4980392156862745" />
<path d="M96,-231 L192,-179 L173,-160 L134,-61 L33,-261 L72,-96 Z" stroke-width="0" fill="#05030b" fill-opacity="0.5254901960784314" />
<path d="M112,-157 L114,-57 L58,-177 L116,-186 L106,-232 L184,-131 Z" stroke-width="0" fill="#00ab18" fill-opacity="0.00392156862745098" />
<path d="M111,-310 L190,-292 L79,-190 L41,-81 L120,-176 L67,-58 Z" stroke-width="0" fill="#2a0029" fill-opacity="0.5019607843137255" />
<path d="M25,-143 L69,-73 L109,-295 L76,-85 L247,-232 L130,-317 Z" stroke-width="0" fill="#000000" fill-opacity="0.6980392156862745" />
<path d="M60,-65 L162,-228 L187,-197 L98,-39 L239,-116 L213,-301 Z" stroke-width="0" fill="#417785" fill-opacity="0.4235294117647059" />
<path d="M41,-129 L156,-186 L75,-82 L59,-106 L149,-192 L44,-66 Z" stroke-width="0" fill="#39271b" fill-opacity="0.4196078431372549" />
<path d="M188,-42 L55,-197 L144,-251 L97,-289 L120,-48 L66,-232 Z" stroke-width="0" fill="#9b0000" fill-opacity="0.25882352941176473" />
<path d="M101,-202 L58,-176 L81,-42 L80,-319 L235,-140 L105,-130 Z" stroke-width="0" fill="#3c0a08" fill-opacity="0.8" />
<path d="M115,-170 L86,-211 L150,-128 L91,-140 L68,-249 L139,-50 Z" stroke-width="0" fill="#146add" fill-opacity="0.37254901960784315" />
<path d="M54,-133 L89,-140 L70,-69 L93,-34 L89,-123 L108,-212 Z" stroke-width="0" fill="#140000" fill-opacity="0.6235294117647059" />
<path d="M172,-310 L115,-162 L223,-147 L37,-64 L69,-257 L159,-104 Z" stroke-width="0" fill="#001415" fill-opacity="0.5019607843137255" />
<path d="M215,-30 L93,-41 L125,-98 L147,-145 L192,-220 L98,-162 Z" stroke-width="0" fill="#14020f" fill-opacity="0.9529411764705882" />
<path d="M66,-54 L37,-33 L62,-203 L57,-201 L243,-183 L216,-84 Z" stroke-width="0" fill="#35445d" fill-opacity="0.48627450980392156" />
<path d="M176,-120 L36,-256 L112,-249 L128,-37 L214,-99 L151,-38 Z" stroke-width="0" fill="#0c5100" fill-opacity="0.3411764705882353" />
<path d="M232,-214 L176,-82 L214,-311 L184,-216 L108,-256 L213,-125 Z" stroke-width="0" fill="#001e50" fill-opacity="0.6274509803921569" />
<path d="M30,-80 L246,-306 L174,-37 L42,-88 L93,-226 L201,-36 Z" stroke-width="0" fill="#000000" fill-opacity="0.8941176470588236" />
<path d="M211,-168 L30,-67 L55,-87 L32,-309 L94,-307 L184,-275 Z" stroke-width="0" fill="#030519" fill-opacity="0.6039215686274509" />
<path d="M36,-217 L115,-83 L80,-301 L76,-165 L194,-154 L150,-216 Z" stroke-width="0" fill="#192810" fill-opacity="0.17254901960784313" />
<path d="M37,-63 L235,-260 L118,-166 L52,-120 L194,-37 L214,-103 Z" stroke-width="0" fill="#0a6400" fill-opacity="0.21568627450980393" />
<path d="M230,-232 L34,-188 L54,-211 L198,-118 L90,-163 L153,-163 Z" stroke-width="0" fill="#000627" fill-opacity="0.2823529411764706" />
<path d="M30,-47 L134,-54 L223,-31 L200,-195 L190,-301 L115,-262 Z" stroke-width="0" fill="#100028" fill-opacity="1.0" />
<path d="M159,-113 L84,-81 L44,-302 L76,-117 L154,-189 L27,-258 Z" stroke-width="0" fill="#000200" fill-opacity="0.16470588235294117" />
<path d="M112,-260 L134,-322 L43,-160 L78,-239 L100,-214 L178,-307 Z" stroke-width="0" fill="#12172c" fill-opacity="0.5019607843137255" />
<path d="M153,-57 L128,-38 L36,-44 L96,-115 L136,-185 L25,-47 Z" stroke-width="0" fill="#190000" fill-opacity="0.5019607843137255" />
<path d="M198,-128 L104,-70 L149,-199 L25,-27 L208,-49 L116,-120 Z" stroke-width="0" fill="#001d2b" fill-opacity="0.7215686274509804" />
<path d="M31,-56 L164,-230 L25,-55 L149,-116 L156,-230 L143,-49 Z" stroke-width="0" fill="#1f2200" fill-opacity="0.403921568627451" />
<path d="M219,-256 L151,-255 L46,-240 L118,-94 L237,-317 L80,-259 Z" stroke-width="0" fill="#33151e" fill-opacity="0.8313725490196079" />
<path d="M245,-192 L25,-119 L215,-72 L25,-297 L239,-79 L47,-202 Z" stroke-width="0" fill="#00234c" fill-opacity="0.23137254901960785" />
<path d="M44,-80 L88,-135 L210,-236 L57,-172 L169,-47 L179,-315 Z" stroke-width="0" fill="#3b3b23" fill-opacity="0.3254901960784314" />
<path d="M152,-198 L106,-226 L78,-75 L184,-100 L118,-284 L93,-274 Z" stroke-width="0" fill="#6aa007" fill-opacity="0.027450980392156862" />
<path d="M80,-285 L218,-295 L217,-276 L249,-247 L146,-317 L234,-148 Z" stroke-width="0" fill="#5c606b" fill-opacity="0.3843137254901961" />
<path d="M89,-321 L208,-101 L132,-93 L190,-254 L185,-47 L231,-218 Z" stroke-width="0" fill="#1b3630" fill-opacity="0.3215686274509804" />
<path d="M94,-253 L228,-117 L201,-35 L44,-178 L187,-279 L99,-262 Z" stroke-width="0" fill="#08dc53" fill-opacity="0.058823529411764705" />
<path d="M157,-157 L176,-101 L191,-72 L67,-84 L225,-158 L85,-319 Z" stroke-width="0" fill="#4f395d" fill-opacity="0.49411764705882355" />
<path d="M59,-152 L34,-179 L205,-157 L63,-72 L96,-287 L25,-234 Z" stroke-width="0" fill="#4c0011" fill-opacity="0.1411764705882353" />
<text x="137.5" y="12.5" font-size="20.0" fill="black" text-anchor="middle" transform="translate(0,5.0)">6 OF WATER</text>
</svg>