<?xml version="1.0" encoding="UTF-8"?>
<svg xmlns="http://www.w3.org/2000/svg" xmlns:xlink="http://www.w3.org/1999/xlink"
     width="275" height="375" viewBox="0 -350 275 375">
<defs>
</defs>
<rect x="15" y="-335" width="245" height="320" stroke="black" stroke-width="4" fill="white" />
<path d="M50,-213 L88,-44 L189,-266 L150,-131 L195,-220 L185,-155 Z" stroke-width="0" fill="#583454" fill-opacity="0.3568627450980392" />
<path d="M117,-308 L28,-241 L146,-120 L153,-132 L150,-251 L73,-110 Z" stroke-width="0" fill="#0e180c" fill-opacity="0.9411764705882353" />
<path d="M67,-109 L156,-55 L159,-183 L57,-280 L192,-36 L147,-219 Z" stroke-width="0" fill="#f5fcc6" fill-opacity="0.043137254901960784" />
<path d="M43,-115 L77,-196 L99,-307 L230,-125 L194,-186 L172,-263 Z" stroke-width="0" fill="#31af55" fill-opacity="0.01568627450980392" />
<path d="M31,-170 L180,-51 L196,-63 L121,-122 L153,-98 L193,-108 Z" stroke-width="0" fill="#02acc8" fill-opacity="0.5098039215686274" />
<path d="M101,-170 L101,-320 L48,-52 L199,-66 L142,-240 L246,-305 Z" stroke-width="0" fill="#002e72" fill-opacity="0.7254901960784313" />
<path d="M139,-171 L91,-64 L132,-144 L191,-46 L66,-162 L122,-282 Z" stroke-width="0" fill="#ecf5b6" fill-opacity="0.4117647058823529" />
<path d="M52,-93 L163,-130 L61,-294 L30,-85 L48,-73 L128,-239 Z" stroke-width="0" fill="#030000" fill-opacity="0.9254901960784314" />
<path d="M106,-259 L191,-234 L39,-43 L168,-197 L34,-52 L233,-126 Z" stroke-width="0" fill="#e9e47a" fill-opacity="0.011764705882352941" />
<path d="M41,-101 L34,-312 L75,-197 L195,-124 L163,-161 L114,-187 Z" stroke-width="0" fill="#45f1ff" fill-opacity="0.984313725490196" />
<path d="M49,-193 L101,-195 L102,-207 L200,-211 L190,-317 L203,-261 Z" stroke-width="0" fill="#002b08" fill-opacity="0.9568627450980393" />
<path d="M134,-294 L67,-132 L104,-189 L191,-296 L56,-291 L59,-173 Z" stroke-width="0" fill="#00991b" fill-opacity="0.8117647058823529" />
<path d="M199,-101 L48,-37 L215,-96 L52,-196 L93,-147 L122,-111 Z" stroke-width="0" fill="#000000" fill-opacity="0.7529411764705882" />
<path d="M190,-89 L30,-45 L118,-260 L99,-213 L134,-97 L46,-247 Z" stroke-width="0" fill="#00001a" fill-opacity="0.9490196078431372" />
<path d="M154,-94 L90,-78 L29,-110 L215,-108 L232,-152 L173,-79 Z" stroke-width="0" fill="#c33e29" fill-opacity="0.6235294117647059" />
<path d="M57,-119 L247,-277 L43,-110 L29,-120 L213,-271 L70,-66 Z" stroke-width="0" fill="#00001f" fill-opacity="0.5019607843137255" />
<path d="M80,-133 L90,-156 L84,-247 L99,-66 L149,-121 L73,-90 Z" stroke-width="0" fill="#91f542" fill-opacity="0.9176470588235294" />
<path d="M102,-151 L167,-148 L121,-191 L147,-219 L31,-315 L25,-247 Z" stroke-width="0" fill="#000000" fill-opacity="0.9803921568627451" />
<path d="M125,-255 L96,-280 L46,-203 L85,-109 L211,-156 L165,-217 Z" stroke-width="0" fill="#0febe1" fill-opacity="0.8196078431372549" />
<path d="M100,-116 L101,-59 L177,-55 L134,-28 L151,-311 L91,-301 Z" stroke-width="0" fill="#04259f" fill-opacity="0.5843137254901961" />
<path d="M210,-218 L184,-194 L132,-170 L156,-299 L214,-104 L211,-289 Z" stroke-width="0" fill="#a10cee" fill-opacity="0.33725490196078434" />
<path d="M187,-157 L30,-230 L109,-90 L102,-267 L40,-289 L75,-48 Z" stroke-width="0" fill="#000000" fill-opacity="0.7607843137254902" />
<path d="M114,-246 L227,-285 L31,-270 L182,-74 L237,-40 L160,-240 Z" stroke-width="0" fill="#000000" fill-opacity="0.984313725490196" />
<path d="M219,-72 L173,-241 L78,-163 L211,-137 L149,-45 L226,-283 Z" stroke-width="0" fill="#ebaa66" fill-opacity="0.023529411764705882" />
<path d="M60,-314 L191,-207 L80,-229 L100,-280 L210,-125 L125,-291 Z" stroke-width="0" fill="#a423f6" fill-opacity="0.9490196078431372" />
<path d="M209,-106 L66,-283 L238,-62 L36,-192 L72,-193 L237,-78 Z" stroke-width="0" fill="#dca350" fill-opacity="0.8352941176470589" />
<path d="M186,-242 L175,-55 L144,-299 L177,-243 L83,-224 L39,-214 Z" stroke-width="0" fill="#df47f0" fill-opacity="1.0" />
<path d="M55,-164 L123,-155 L119,-264 L241,-118 L176,-162 L224,-209 Z" stroke-width="0" fill="#e02e52" fill-opacity="0.5019607843137255" />
<path d="M219,-154 L131,-157 L199,-45 L27,-214 L237,-250 L109,-160 Z" stroke-width="0" fill="#00014c" fill-opacity="0.8627450980392157" />
<path d="M94,-270 L115,-321 L27,-243 L204,-323 L181,-314 L246,-234 Z" stroke-width="0" fill="#000400" fill-opacity="0.6470588235294118" />
<path d="M180,-25 L244,-34 L62,-174 L126,-30 L209,-304 L216,-209 Z" stroke-width="0" fill="#002f3f" fill-opacity="0.8745098039215686" />
<path d="M232,-277 L143,-210 L104,-44 L131,-254 L134,-247 L229,-313 Z" stroke-width="0" fill="#0013ac" fill-opacity="0.6823529411764706" />
<path d="M119,-161 L92,-182 L79,-35 L192,-39 L33,-198 L48,-163 Z" stroke-width="0" fill="#000e13" fill-opacity="0.8549019607843137" />
<path d="M151,-47 L143,-108 L113,-181 L127,-48 L222,-270 L66,-171 Z" stroke-width="0" fill="#194d37" fill-opacity="0.23921568627450981" />
<path d="M80,-160 L45,-47 L241,-122 L105,-177 L248,-308 L105,-28 Z" stroke-width="0" fill="#000b33" fill-opacity="0.5019607843137255" />
<path d="M209,-278 L176,-241 L106,-122 L37,-61 L100,-102 L220,-85 Z" stroke-width="0" fill="#ffed3d" fill-opacity="0.9450980392156862" />
<path d="M118,-135 L245,-63 L35,-212 L131,-249 L83,-300 L189,-210 Z" stroke-width="0" fill="#70c2b1" fill-opacity="0.8901960784313725" />
<path d="M49,-98 L175,-113 L199,-134 L135,-112 L150,-250 L225,-82 Z" stroke-width="0" fill="#f5af0b" fill-opacity="0.48627450980392156" />
<path d="M244,-94 L54,-222 L166,-123 L169,-54 L200,-31 L27,-236 Z" stroke-width="0" fill="#4f63ba" fill-opacity="0.6431372549019608" />
<path d="M77,-62 L138,-203 L65,-28 L50,-175 L140,-281 L59,-320 Z" stroke-width="0" fill="#000e00" fill-opacity="0.9411764705882353" />
<path d="M67,-97 L45,-62 L106,-35 L129,-309 L35,-317 L152,-173 Z" stroke-width="0" fill="#000000" fill-opacity="0.7450980392156863" />
<path d="M109,-42 L204,-108 L209,-44 L161,-259 L231,-279 L29,-159 Z" stroke-width="0" fill="#009c61" fill-opacity="0.07450980392156863" />
<path d="M195,-59 L140,-255 L91,-119 L204,-114 L31,-200 L108,-96 Z" stroke-width="0" fill="#2fb4f4" fill-opacity="0.9607843137254902" />
<path d="M110,-30 L126,-38 L119,-90 L46,-311 L121,-26 L214,-174 Z" stroke-width="0" fill="#000000" fill-opacity="0.9568627450980393" />
<path d="M33,-91 L59,-281 L158,-121 L106,-222 L43,-207 L151,-254 Z" stroke-width="0" fill="#a8a0c4" fill-opacity="0.27450980392156865" />
<path d="M202,-215 L137,-252 L152,-119 L243,-212 L26,-246 L31,-28 Z" stroke-width="0" fill="#000000" fill-opacity="0.7176470588235294" />
<path d="M245,-178 L170,-47 L68,-230 L31,-281 L39,-302 L51,-64 Z" stroke-width="0" fill="#3e0917" fill-opacity="0.12156862745098039" />
<path d="M109,-247 L84,-111 L89,-157 L119,-31 L172,-176 L144,-135 Z" stroke-width="0" fill="#000000" fill-opacity="0.5019607843137255" />
<path d="M39,-324 L75,-201 L196,-153 L105,-166 L76,-125 L98,-129 Z" stroke-width="0" fill="#000000" fill-opacity="0.9803921568627451" />
<path d="M114,-169 L139,-76 L102,-119 L91,-161 L115,-260 L33,-142 Z" stroke-width="0" fill="#284293" fill-opacity="0.8352941176470589" />
<path d="M212,-78 L48,-209 L75,-139 L249,-307 L207,-67 L100,-71 Z" stroke-width="0" fill="#ee2f27" fill-opacity="0.403921568627451" />
<path d="M249,-247 L60,-61 L31,-139 L40,-163 L78,-122 L177,-157 Z" stroke-width="0" fill="#0e0800" fill-opacity="0.5411764705882353" />
<path d="M139,-58 L246,-294 L133,-260 L155,-276 L228,-102 L114,-265 Z" stroke-width="0" fill="#efa2ae" fill-opacity="0.9058823529411765" />
<path d="M174,-298 L190,-54 L234,-247 L158,-215 L116,-39 L52,-302 Z" stroke-width="0" fill="#f0404d" fill-opacity="0.27058823529411763" />
<path d="M179,-110 L234,-46 L124,-155 L217,-35 L101,-232 L29,-323 Z" stroke-width="0" fill="#001b1b" fill-opacity="0.7490196078431373" />
<path d="M155,-30 L141,-125 L234,-282 L152,-124 L205,-251 L196,-303 Z" stroke-width="0" fill="#4b5e1c" fill-opacity="0.0196078431372549" />
<path d="M196,-38 L193,-45 L210,-40 L110,-66 L104,-147 L147,-283 Z" stroke-width="0" fill="#005a99" fill-opacity="0.8352941176470589" />
<path d="M183,-62 L191,-187 L168,-64 L122,-67 L56,-279 L100,-264 Z" stroke-width="0" fill="#098bdd" fill-opacity="0.6980392156862745" />
<path d="M230,-313 L180,-237 L125,-191 L171,-51 L134,-285 L85,-286 Z" stroke-width="0" fill="#0b5e63" fill-opacity="0.7607843137254902" />
<path d="M211,-239 L157,-126 L55,-44 L93,-84 L106,-303 L61,-90 Z" stroke-width="0" fill="#572441" fill-opacity="0.47843137254901963" />
<path d="M35,-206 L126,-84 L204,-60 L58,-59 L126,-161 L88,-93 Z" stroke-width="0" fill="#3c3941" fill-opacity="0.5019607843137255" />
<path d="M49,-111 L34,-252 L94,-153 L118,-314 L122,-136 L93,-145 Z" stroke-width="0" fill="#268bff" fill-opacity="0.19215686274509805" />
<path d="M235,-27 L73,-148 L64,-189 L161,-40 L153,-83 L44,-76 Z" stroke-width="0" fill="#215751" fill-opacity="0.7568627450980392" />
<path d="M116,-84 L226,-128 L45,-65 L210,-313 L112,-211 L135,-69 Z" stroke-width="0" fill="#001147" fill-opacity="0.5019607843137255" />
<path d="M237,-140 L110,-46 L74,-172 L36,-295 L125,-63 L126,-33 Z" stroke-width="0" fill="#001b30" fill-opacity="0.5019607843137255" />
<path d="M148,-62 L30,-131 L151,-64 L82,-216 L116,-272 L171,-188 Z" stroke-width="0" fill="#3f2f05" fill-opacity="0.34901960784313724" />
<path d="M187,-150 L174,-232 L187,-235 L131,-321 L212,-201 L188,-74 Z" stroke-width="0" fill="#fd6de9" fill-opacity="0.8313725490196079" />
<path d="M72,-42 L230,-113 L173,-269 L249,-197 L121,-36 L121,-240 Z" stroke-width="0" fill="#ef0b08" fill-opacity="0.3137254901960784" />
<path d="M203,-286 L63,-178 L236,-304 L101,-123 L30,-156 L33,-138 Z" stroke-width="0" fill="#307821" fill-opacity="0.3137254901960784" />
<path d="M229,-49 L153,-297 L93,-255 L42,-209 L54,-261 L136,-155 Z" stroke-width="0" fill="#dbefbc" fill-opacity="0.29411764705882354" />
<path d="M83,-175 L232,-300 L138,-63 L168,-213 L76,-129 L87,-82 Z" stroke-width="0" fill="#edeaad" fill-opacity="0.3137254901960784" />
<path d="M108,-274 L103,-231 L212,-35 L142,-227 L151,-76 L184,-145 Z" stroke-width="0" fill="#27d4ef" fill-opacity="0.6745098039215687" />
<path d="M51,-144 L180,-98 L120,-240 L147,-218 L93,-191 L124,-173 Z" stroke-width="0" fill="#285fc0" fill-opacity="0.5764705882352941" />
<path d="M141,-32 L108,-202 L62,-89 L66,-83 L163,-224 L177,-164 Z" stroke-width="0" fill="#00857c" fill-opacity="0.011764705882352941" />
<path d="M84,-83 L244,-225 L207,-172 L144,-280 L90,-317 L33,-304 Z" stroke-width="0" fill="#00117c" fill-opacity="0.33725490196078434" />
<path d="M38,-281 L141,-106 L196,-187 L182,-62 L115,-315 L105,-165 Z" stroke-width="0" fill="#21d6fb" fill-opacity="0.6431372549019608" />
<path d="M64,-45 L39,-145 L115,-223 L207,-180 L51,-130 L27,-265 Z" stroke-width="0" fill="#12127d" fill-opacity="0.45098039215686275" />
<path d="M221,-157 L48,-175 L56,-175 L239,-143 L36,-166 L181,-214 Z" stroke-width="0" fill="#4e4ae2" fill-opacity="0.08235294117647059" />
<path d="M122,-50 L104,-286 L244,-79 L224,-32 L31,-113 L172,-249 Z" stroke-width="0" fill="#244295" fill-opacity="0.5019607843137255" />
<path d="M64,-123 L155,-127 L213,-93 L242,-157 L28,-315 L116,-124 Z" stroke-width="0" fill="#e81605" fill-opacity="0.06274509803921569" />
<path d="M66,-244 L209,-203 L244,-46 L158,-246 L121,-286 L139,-130 Z" stroke-width="0" fill="#faee63" fill-opacity="0.6274509803921569" />
<path d="M110,-93 L41,-199 L118,-235 L179,-139 L106,-109 L206,-209 Z" stroke-width="0" fill="#afb5fa" fill-opacity="0.24705882352941178" />
<path d="M195,-286 L98,-210 L189,-141 L196,-50 L185,-258 L117,-220 Z" stroke-width="0" fill="#d5c116" fill-opacity="0.45098039215686275" />
<path d="M81,-36 L103,-73 L40,-135 L49,-122 L33,-97 L114,-99 Z" stroke-width="0" fill="#000000" fill-opacity="0.6039215686274509" />
<path d="M155,-49 L162,-160 L148,-183 L39,-113 L216,-209 L223,-92 Z" stroke-width="0" fill="#6ad5e5" fill-opacity="0.34901960784313724" />
<path d="M73,-307 L154,-251 L154,-68 L186,-313 L114,-311 L31,-250 Z" stroke-width="0" fill="#006490" fill-opacity="0.5019607843137255" />
<path d="M173,-150 L151,-321 L36,-95 L245,-169 L87,-212 L132,-174 Z" stroke-width="0" fill="#50f8c7" fill-opacity="0.06666666666666667" />
<path d="M62,-74 L59,-25 L240,-124 L136,-67 L111,-217 L38,-36 Z" stroke-width="0" fill="#00000a" fill-opacity="0.8235294117647058" />
<path d="M207,-248 L121,-197 L186,-290 L227,-47 L163,-123 L135,-202 Z" stroke-width="0" fill="#f4d5ba" fill-opacity="0.11764705882352941" />
<path d="M80,-158 L156,-97 L50,-61 L79,-56 L210,-112 L217,-147 Z" stroke-width="0" fill="#b6d6cb" fill-opacity="0.09411764705882353" />
<path d="M155,-242 L141,-307 L85,-46 L186,-155 L195,-310 L196,-315 Z" stroke-width="0" fill="#008d67" fill-opacity="0.2627450980392157" />
<path d="M112,-242 L195,-317 L234,-274 L224,-153 L139,-116 L83,-59 Z" stroke-width="0" fill="#6466e7" fill-opacity="0.34901960784313724" />
<path d="M47,-258 L29,-272 L67,-104 L68,-85 L231,-265 L77,-278 Z" stroke-width="0" fill="#23ecf3" fill-opacity="0.30196078431372547" />
<path d="M143,-109 L143,-224 L79,-82 L165,-100 L112,-258 L110,-137 Z" stroke-width="0" fill="#256a9f" fill-opacity="0.26666666666666666" />
<path d="M173,-172 L94,-281 L99,-294 L153,-132 L48,-186 L155,-97 Z" stroke-width="0" fill="#35aab9" fill-opacity="0.5607843137254902" />
<path d="M140,-130 L36,-138 L77,-74 L144,-130 L61,-56 L128,-176 Z" stroke-width="0" fill="#3169ae" fill-opacity="0.12549019607843137" />
<path d="M61,-104 L110,-180 L90,-254 L112,-164 L91,-91 L245,-104 Z" stroke-width="0" fill="#5877bf" fill-opacity="0.27058823529411763" />
<path d="M134,-246 L58,-136 L26,-34 L120,-72 L73,-292 L29,-197 Z" stroke-width="0" fill="#043500" fill-opacity="0.23137254901960785" />
<path d="M192,-281 L236,-182 L128,-178 L238,-154 L189,-178 L51,-272 Z" stroke-width="0" fill="#e55960" fill-opacity="0.1607843137254902" />
<path d="M171,-180 L238,-48 L29,-260 L127,-248 L222,-252 L214,-193 Z" stroke-width="0" fill="#de2721" fill-opacity="0.01568627450980392" />
<text x="137.5" y="12.5" font-size="20.0" fill="black" text-anchor="middle" transform="translate(0,5.0)">1 OF WATER</text>
</svg>