<?xml version="1.0" encoding="UTF-8"?>
<svg xmlns="http://www.w3.org/2000/svg" xmlns:xlink="http://www.w3.org/1999/xlink"
     width="896" height="1496" viewBox="0 -1400 896 1496" style="font-size:70;font-family:Poor Richard, Times New Roman;stroke:black;stroke-width:1;fill:none">
<defs>
</defs>
<path d="M642,-458 L510,-1186 L258,-1054 L402,-430 L134,-742 L294,-726 Z" stroke-width="0" fill="#b2240f" fill-opacity="0.6823529411764706" />
<path d="M666,-794 L554,-330 L266,-206 L798,-134 L362,-1162 L730,-666 Z" stroke-width="0" fill="#a71cf7" fill-opacity="0.1803921568627451" />
<path d="M242,-526 L570,-86 L706,-1134 L778,-230 L622,-1050 L802,-1150 Z" stroke-width="0" fill="#000000" fill-opacity="0.9725490196078431" />
<path d="M254,-286 L590,-610 L574,-442 L354,-1070 L422,-718 L86,-506 Z" stroke-width="0" fill="#001162" fill-opacity="0.788235294117647" />
<path d="M790,-650 L546,-1226 L258,-190 L442,-810 L118,-1026 L646,-1042 Z" stroke-width="0" fill="#000323" fill-opacity="0.9411764705882353" />
<path d="M510,-862 L438,-782 L278,-94 L266,-550 L470,-838 L98,-1278 Z" stroke-width="0" fill="#002c71" fill-opacity="0.9607843137254902" />
<path d="M322,-638 L278,-998 L342,-830 L382,-1098 L478,-290 L702,-830 Z" stroke-width="0" fill="#1d7c54" fill-opacity="0.7254901960784313" />
<path d="M690,-702 L170,-766 L290,-402 L738,-738 L206,-342 L334,-1150 Z" stroke-width="0" fill="#bba692" fill-opacity="0.37254901960784315" />
<path d="M550,-186 L338,-286 L506,-822 L246,-846 L186,-558 L534,-1142 Z" stroke-width="0" fill="#5e6d79" fill-opacity="0.6078431372549019" />
<path d="M322,-802 L482,-890 L322,-758 L790,-818 L242,-518 L490,-950 Z" stroke-width="0" fill="#004184" fill-opacity="0.9686274509803922" />
<path d="M142,-314 L762,-382 L178,-654 L234,-614 L526,-634 L442,-874 Z" stroke-width="0" fill="#78b0d2" fill-opacity="0.5333333333333333" />
<path d="M654,-670 L202,-534 L542,-182 L106,-114 L806,-130 L582,-966 Z" stroke-width="0" fill="#003c7b" fill-opacity="1.0" />
<path d="M410,-1138 L770,-538 L438,-318 L130,-362 L262,-1066 L794,-142 Z" stroke-width="0" fill="#070703" fill-opacity="0.9019607843137255" />
<path d="M326,-122 L86,-134 L410,-142 L634,-470 L202,-782 L310,-266 Z" stroke-width="0" fill="#003661" fill-opacity="0.9098039215686274" />
<path d="M106,-870 L430,-238 L126,-314 L642,-778 L562,-142 L178,-310 Z" stroke-width="0" fill="#00115f" fill-opacity="0.8392156862745098" />
<path d="M410,-906 L234,-414 L394,-798 L366,-806 L118,-426 L222,-346 Z" stroke-width="0" fill="#004e81" fill-opacity="1.0" />
<path d="M610,-882 L166,-102 L674,-698 L486,-1162 L238,-410 L698,-242 Z" stroke-width="0" fill="#002c72" fill-opacity="0.9568627450980393" />
<path d="M234,-466 L354,-890 L750,-158 L114,-1042 L790,-1054 L150,-242 Z" stroke-width="0" fill="#0747a4" fill-opacity="0.9921568627450981" />
<path d="M434,-438 L342,-1158 L806,-1254 L150,-1230 L490,-1118 L114,-1066 Z" stroke-width="0" fill="#000048" fill-opacity="0.6784313725490196" />
<path d="M718,-434 L726,-914 L782,-1118 L118,-690 L226,-174 L334,-926 Z" stroke-width="0" fill="#00438c" fill-opacity="0.8862745098039215" />
<path d="M710,-294 L566,-762 L702,-966 L378,-398 L690,-274 L86,-170 Z" stroke-width="0" fill="#00123b" fill-opacity="0.803921568627451" />
<path d="M210,-850 L486,-1282 L214,-950 L122,-858 L670,-362 L130,-158 Z" stroke-width="0" fill="#002f5e" fill-opacity="0.9450980392156862" />
<path d="M258,-210 L362,-546 L246,-466 L270,-170 L182,-1138 L538,-726 Z" stroke-width="0" fill="#e00d40" fill-opacity="0.807843137254902" />
<path d="M190,-258 L302,-258 L422,-858 L414,-146 L502,-498 L526,-458 Z" stroke-width="0" fill="#b831dc" fill-opacity="0.11372549019607843" />
<path d="M230,-598 L270,-374 L298,-1230 L542,-214 L506,-698 L578,-862 Z" stroke-width="0" fill="#065b76" fill-opacity="0.5372549019607843" />
<path d="M94,-1062 L406,-386 L650,-242 L530,-318 L142,-1050 L522,-1066 Z" stroke-width="0" fill="#00003b" fill-opacity="0.7254901960784313" />
<path d="M514,-1010 L462,-742 L210,-1018 L622,-882 L650,-1166 L702,-662 Z" stroke-width="0" fill="#2c0672" fill-opacity="0.8117647058823529" />
<path d="M178,-1218 L290,-1210 L150,-130 L314,-934 L406,-966 L742,-266 Z" stroke-width="0" fill="#00196f" fill-opacity="0.9215686274509803" />
<path d="M102,-1234 L746,-946 L630,-898 L534,-162 L186,-618 L270,-246 Z" stroke-width="0" fill="#003475" fill-opacity="0.9725490196078431" />
<path d="M102,-442 L386,-830 L538,-302 L282,-1086 L502,-726 L286,-310 Z" stroke-width="0" fill="#003e6e" fill-opacity="0.8509803921568627" />
<path d="M122,-362 L518,-1006 L478,-1030 L370,-982 L82,-282 L678,-682 Z" stroke-width="0" fill="#00066d" fill-opacity="0.9137254901960784" />
<path d="M338,-178 L634,-262 L342,-722 L522,-874 L202,-1194 L506,-494 Z" stroke-width="0" fill="#007e88" fill-opacity="0.12941176470588237" />
<path d="M158,-334 L186,-1010 L126,-806 L282,-1218 L690,-1230 L394,-414 Z" stroke-width="0" fill="#bdadb8" fill-opacity="0.8745098039215686" />
<path d="M522,-1034 L730,-1034 L98,-1110 L342,-706 L322,-1258 L518,-194 Z" stroke-width="0" fill="#002d6a" fill-opacity="0.8392156862745098" />
<path d="M318,-742 L294,-126 L710,-494 L662,-1078 L470,-162 L102,-1070 Z" stroke-width="0" fill="#002789" fill-opacity="0.9137254901960784" />
<path d="M466,-522 L702,-862 L170,-878 L318,-774 L498,-150 L302,-386 Z" stroke-width="0" fill="#066adb" fill-opacity="0.6549019607843137" />
<path d="M454,-206 L238,-1026 L306,-650 L714,-1162 L146,-474 L478,-818 Z" stroke-width="0" fill="#000c56" fill-opacity="0.7686274509803922" />
<path d="M530,-562 L542,-314 L478,-298 L490,-178 L630,-1134 L454,-1238 Z" stroke-width="0" fill="#0d22a9" fill-opacity="0.4235294117647059" />
<path d="M370,-134 L174,-258 L502,-914 L162,-194 L302,-686 L794,-82 Z" stroke-width="0" fill="#004174" fill-opacity="0.9490196078431372" />
<path d="M118,-486 L758,-1062 L162,-1098 L282,-290 L306,-946 L294,-914 Z" stroke-width="0" fill="#675596" fill-opacity="0.027450980392156862" />
<path d="M606,-758 L538,-914 L150,-198 L358,-1050 L402,-638 L586,-798 Z" stroke-width="0" fill="#022b46" fill-opacity="0.6823529411764706" />
<path d="M782,-298 L562,-442 L462,-310 L386,-270 L458,-810 L238,-102 Z" stroke-width="0" fill="#003c94" fill-opacity="0.7568627450980392" />
<path d="M214,-482 L518,-1074 L342,-306 L302,-278 L330,-202 L510,-350 Z" stroke-width="0" fill="#fef9d5" fill-opacity="0.8274509803921568" />
<path d="M726,-546 L122,-754 L426,-422 L486,-414 L422,-242 L318,-582 Z" stroke-width="0" fill="#e5ffcb" fill-opacity="0.8352941176470589" />
<path d="M210,-322 L174,-194 L226,-198 L322,-690 L262,-278 L706,-342 Z" stroke-width="0" fill="#00135c" fill-opacity="0.2235294117647059" />
<path d="M322,-1242 L146,-486 L238,-842 L618,-94 L650,-1106 L146,-506 Z" stroke-width="0" fill="#07427d" fill-opacity="0.9058823529411765" />
<path d="M482,-546 L82,-618 L154,-370 L698,-882 L526,-1298 L298,-778 Z" stroke-width="0" fill="#003b7e" fill-opacity="0.9607843137254902" />
<path d="M790,-1210 L538,-878 L282,-1070 L750,-146 L182,-746 L694,-890 Z" stroke-width="0" fill="#003889" fill-opacity="0.8470588235294118" />
<path d="M754,-102 L346,-322 L454,-558 L146,-806 L706,-122 L402,-130 Z" stroke-width="0" fill="#001db5" fill-opacity="0.2196078431372549" />
<path d="M130,-1286 L202,-1226 L146,-630 L786,-1002 L670,-266 L302,-434 Z" stroke-width="0" fill="#002484" fill-opacity="0.8941176470588236" />
<path d="M718,-514 L438,-498 L290,-766 L742,-210 L586,-602 L98,-690 Z" stroke-width="0" fill="#003c95" fill-opacity="0.7568627450980392" />
<path d="M798,-770 L566,-890 L138,-942 L134,-326 L158,-1106 L778,-682 Z" stroke-width="0" fill="#000f68" fill-opacity="0.9254901960784314" />
<path d="M690,-610 L338,-322 L166,-686 L438,-1166 L678,-566 L466,-674 Z" stroke-width="0" fill="#030130" fill-opacity="0.7490196078431373" />
<path d="M342,-114 L542,-978 L482,-826 L262,-542 L510,-918 L342,-1178 Z" stroke-width="0" fill="#888fd7" fill-opacity="0.16862745098039217" />
<path d="M186,-954 L82,-450 L186,-962 L358,-858 L206,-542 L138,-86 Z" stroke-width="0" fill="#002b71" fill-opacity="0.9725490196078431" />
<path d="M218,-286 L402,-1258 L654,-926 L94,-262 L182,-546 L794,-686 Z" stroke-width="0" fill="#005688" fill-opacity="0.6392156862745098" />
<path d="M282,-714 L174,-490 L278,-318 L354,-582 L430,-1098 L638,-958 Z" stroke-width="0" fill="#001c81" fill-opacity="0.3254901960784314" />
<path d="M310,-374 L486,-294 L118,-858 L518,-982 L498,-246 L134,-598 Z" stroke-width="0" fill="#01668d" fill-opacity="0.8941176470588236" />
<path d="M462,-774 L594,-450 L482,-738 L494,-1130 L106,-1186 L810,-590 Z" stroke-width="0" fill="#004d82" fill-opacity="0.7647058823529411" />
<path d="M126,-1314 L538,-1146 L366,-382 L638,-682 L334,-1242 L542,-746 Z" stroke-width="0" fill="#003b7e" fill-opacity="0.8156862745098039" />
<path d="M154,-574 L662,-930 L278,-1190 L670,-434 L206,-438 L714,-642 Z" stroke-width="0" fill="#f2e3d4" fill-opacity="0.8" />
<path d="M282,-226 L146,-1050 L262,-586 L138,-1094 L298,-430 L426,-1174 Z" stroke-width="0" fill="#0849ce" fill-opacity="0.054901960784313725" />
<path d="M362,-402 L790,-342 L566,-218 L554,-818 L270,-1062 L126,-662 Z" stroke-width="0" fill="#026daa" fill-opacity="0.7098039215686275" />
<path d="M698,-898 L366,-786 L146,-498 L534,-578 L306,-874 L282,-338 Z" stroke-width="0" fill="#0050d4" fill-opacity="0.13725490196078433" />
<path d="M754,-950 L586,-1090 L514,-362 L386,-186 L602,-282 L706,-734 Z" stroke-width="0" fill="#00a0bc" fill-opacity="0.28627450980392155" />
<path d="M346,-622 L382,-734 L522,-230 L442,-338 L754,-206 L558,-82 Z" stroke-width="0" fill="#0043ba" fill-opacity="0.8901960784313725" />
<path d="M230,-398 L294,-338 L610,-494 L122,-1154 L258,-958 L734,-658 Z" stroke-width="0" fill="#480310" fill-opacity="0.06666666666666667" />
<path d="M238,-882 L766,-1094 L658,-482 L214,-510 L598,-402 L806,-1138 Z" stroke-width="0" fill="#00348c" fill-opacity="0.9333333333333333" />
<path d="M134,-194 L318,-150 L790,-126 L686,-810 L530,-646 L290,-898 Z" stroke-width="0" fill="#004b9c" fill-opacity="0.6470588235294118" />
<path d="M310,-170 L806,-694 L362,-1134 L798,-386 L638,-198 L506,-1210 Z" stroke-width="0" fill="#004083" fill-opacity="0.9490196078431372" />
<path d="M518,-1270 L430,-886 L242,-590 L638,-466 L674,-1102 L182,-870 Z" stroke-width="0" fill="#9ca2ba" fill-opacity="0.807843137254902" />
<path d="M386,-730 L630,-510 L150,-1270 L706,-534 L446,-1174 L674,-158 Z" stroke-width="0" fill="#002f7f" fill-opacity="0.6196078431372549" />
<path d="M558,-1074 L634,-490 L114,-702 L766,-798 L222,-1218 L454,-1022 Z" stroke-width="0" fill="#cbc6d1" fill-opacity="0.07450980392156863" />
<path d="M286,-158 L262,-406 L206,-1138 L318,-546 L90,-370 L514,-714 Z" stroke-width="0" fill="#d1e5bd" fill-opacity="0.611764705882353" />
<path d="M426,-1022 L778,-210 L322,-766 L654,-286 L390,-850 L250,-994 Z" stroke-width="0" fill="#0067b6" fill-opacity="0.20784313725490197" />
<path d="M606,-1098 L226,-934 L398,-142 L82,-1002 L570,-782 L418,-902 Z" stroke-width="0" fill="#735795" fill-opacity="0.788235294117647" />
<path d="M170,-1074 L578,-490 L598,-442 L654,-98 L210,-154 L566,-466 Z" stroke-width="0" fill="#003569" fill-opacity="0.4666666666666667" />
<path d="M482,-338 L526,-102 L590,-1050 L162,-1106 L126,-794 L638,-374 Z" stroke-width="0" fill="#20f5fe" fill-opacity="0.12549019607843137" />
<path d="M570,-1230 L590,-450 L310,-302 L402,-850 L290,-522 L438,-1258 Z" stroke-width="0" fill="#e1d0c2" fill-opacity="0.8901960784313725" />
<path d="M662,-1110 L322,-790 L762,-958 L122,-406 L410,-130 L118,-822 Z" stroke-width="0" fill="#74996e" fill-opacity="0.0196078431372549" />
<path d="M458,-586 L218,-434 L462,-86 L690,-394 L338,-918 L234,-518 Z" stroke-width="0" fill="#72e9eb" fill-opacity="0.054901960784313725" />
<path d="M710,-270 L258,-542 L266,-862 L330,-126 L414,-426 L222,-526 Z" stroke-width="0" fill="#dae298" fill-opacity="0.6627450980392157" />
<path d="M590,-478 L382,-370 L242,-950 L690,-1234 L426,-358 L122,-978 Z" stroke-width="0" fill="#fdf2f3" fill-opacity="0.8627450980392157" />
<path d="M378,-1306 L686,-142 L318,-1198 L638,-494 L510,-166 L490,-482 Z" stroke-width="0" fill="#0ea1c7" fill-opacity="0.03529411764705882" />
<path d="M246,-1006 L422,-1142 L230,-622 L254,-182 L282,-462 L438,-490 Z" stroke-width="0" fill="#f6dcd9" fill-opacity="0.4549019607843137" />
<path d="M670,-1202 L562,-94 L290,-698 L674,-1066 L418,-86 L738,-454 Z" stroke-width="0" fill="#004090" fill-opacity="0.27450980392156865" />
<path d="M338,-686 L94,-1246 L418,-378 L770,-254 L530,-778 L190,-570 Z" stroke-width="0" fill="#0083ce" fill-opacity="0.011764705882352941" />
<path d="M314,-978 L698,-1226 L570,-850 L110,-702 L550,-914 L506,-970 Z" stroke-width="0" fill="#95b3b7" fill-opacity="0.5058823529411764" />
<path d="M526,-1162 L306,-994 L550,-218 L570,-906 L790,-1030 L138,-854 Z" stroke-width="0" fill="#203515" fill-opacity="0.054901960784313725" />
<path d="M290,-386 L806,-322 L566,-926 L402,-1266 L674,-414 L610,-150 Z" stroke-width="0" fill="#0046a7" fill-opacity="0.17647058823529413" />
<path d="M238,-826 L486,-962 L174,-926 L502,-206 L550,-1026 L254,-886 Z" stroke-width="0" fill="#f4fff2" fill-opacity="0.4235294117647059" />
<path d="M534,-1018 L266,-938 L178,-398 L418,-694 L150,-1166 L558,-630 Z" stroke-width="0" fill="#236459" fill-opacity="0.09411764705882353" />
<path d="M382,-390 L446,-690 L178,-154 L186,-1050 L798,-890 L726,-270 Z" stroke-width="0" fill="#041042" fill-opacity="0.08627450980392157" />
<path d="M514,-1114 L150,-338 L402,-802 L370,-234 L270,-838 L646,-682 Z" stroke-width="0" fill="#eddfd4" fill-opacity="0.7372549019607844" />
<path d="M250,-226 L602,-826 L314,-170 L570,-414 L342,-638 L662,-538 Z" stroke-width="0" fill="#fbd0fc" fill-opacity="0.5529411764705883" />
<path d="M138,-1062 L238,-206 L130,-1138 L254,-1166 L398,-386 L470,-922 Z" stroke-width="0" fill="#ccb3cf" fill-opacity="0.06666666666666667" />
<path d="M286,-1266 L214,-1030 L122,-518 L198,-634 L150,-974 L94,-614 Z" stroke-width="0" fill="#00349c" fill-opacity="0.9333333333333333" />
<path d="M646,-494 L502,-290 L518,-282 L426,-594 L730,-690 L510,-234 Z" stroke-width="0" fill="#00447a" fill-opacity="1.0" />
<path d="M446,-466 L682,-918 L526,-182 L330,-342 L342,-554 L394,-930 Z" stroke-width="0" fill="#c5caf1" fill-opacity="0.058823529411764705" />
<path d="M234,-594 L390,-1222 L342,-930 L110,-1042 L378,-450 L710,-594 Z" stroke-width="0" fill="#86df57" fill-opacity="0.07058823529411765" />
<text x="448.0" y="0" font-size="70.0" fill="black" text-anchor="middle" transform="translate(0,17.5)">6 OF WATER</text>
</svg>