<?xml version="1.0" encoding="UTF-8"?>
<svg xmlns="http://www.w3.org/2000/svg" xmlns:xlink="http://www.w3.org/1999/xlink"
     width="275" height="375" viewBox="0 -350 275 375">
<defs>
</defs>
<rect x="15" y="-335" width="245" height="320" stroke="black" stroke-width="4" fill="white" />
<path d="M103,-223 L236,-259 L43,-294 L196,-72 L29,-189 L29,-316 Z" stroke-width="0" fill="#000000" fill-opacity="1.0" />
<path d="M132,-135 L167,-165 L174,-152 L64,-247 L189,-141 L247,-58 Z" stroke-width="0" fill="#76c300" fill-opacity="0.9686274509803922" />
<path d="M176,-95 L80,-50 L222,-107 L111,-68 L96,-237 L146,-323 Z" stroke-width="0" fill="#000000" fill-opacity="0.9686274509803922" />
<path d="M141,-69 L244,-312 L178,-212 L37,-178 L90,-62 L78,-91 Z" stroke-width="0" fill="#000000" fill-opacity="0.6235294117647059" />
<path d="M244,-179 L132,-58 L182,-287 L78,-205 L30,-59 L164,-192 Z" stroke-width="0" fill="#000000" fill-opacity="0.8509803921568627" />
<path d="M130,-233 L102,-106 L76,-137 L25,-42 L131,-117 L179,-216 Z" stroke-width="0" fill="#000000" fill-opacity="0.9803921568627451" />
<path d="M46,-291 L220,-97 L47,-280 L233,-203 L118,-243 L228,-62 Z" stroke-width="0" fill="#04d200" fill-opacity="0.8941176470588236" />
<path d="M159,-93 L152,-198 L34,-273 L93,-260 L36,-192 L114,-54 Z" stroke-width="0" fill="#000000" fill-opacity="0.41568627450980394" />
<path d="M119,-95 L135,-221 L131,-226 L95,-158 L55,-114 L46,-224 Z" stroke-width="0" fill="#314c0d" fill-opacity="0.13725490196078433" />
<path d="M116,-32 L34,-313 L231,-66 L146,-240 L236,-107 L146,-115 Z" stroke-width="0" fill="#000000" fill-opacity="0.9372549019607843" />
<path d="M71,-298 L211,-245 L228,-186 L141,-50 L226,-190 L243,-269 Z" stroke-width="0" fill="#89dd00" fill-opacity="0.788235294117647" />
<path d="M171,-62 L224,-73 L47,-137 L142,-240 L126,-89 L102,-252 Z" stroke-width="0" fill="#f5fb74" fill-opacity="0.5411764705882353" />
<path d="M195,-137 L236,-127 L32,-249 L96,-145 L102,-139 L143,-201 Z" stroke-width="0" fill="#000000" fill-opacity="0.3843137254901961" />
<path d="M161,-194 L179,-87 L105,-25 L189,-168 L98,-68 L81,-116 Z" stroke-width="0" fill="#000000" fill-opacity="0.9176470588235294" />
<path d="M40,-65 L141,-111 L28,-116 L71,-218 L176,-108 L106,-126 Z" stroke-width="0" fill="#000000" fill-opacity="0.7215686274509804" />
<path d="M212,-38 L32,-125 L225,-212 L68,-243 L133,-99 L70,-145 Z" stroke-width="0" fill="#000000" fill-opacity="0.8431372549019608" />
<path d="M29,-279 L189,-225 L120,-270 L132,-205 L78,-173 L123,-125 Z" stroke-width="0" fill="#000000" fill-opacity="0.8901960784313725" />
<path d="M69,-191 L132,-268 L88,-111 L102,-267 L56,-254 L96,-169 Z" stroke-width="0" fill="#a80acf" fill-opacity="0.19215686274509805" />
<path d="M192,-305 L160,-149 L88,-217 L201,-200 L110,-313 L142,-44 Z" stroke-width="0" fill="#000000" fill-opacity="0.8823529411764706" />
<path d="M137,-117 L231,-30 L138,-187 L184,-152 L118,-48 L72,-238 Z" stroke-width="0" fill="#000000" fill-opacity="0.9686274509803922" />
<path d="M61,-149 L170,-76 L164,-233 L173,-68 L206,-109 L236,-76 Z" stroke-width="0" fill="#feae0b" fill-opacity="0.984313725490196" />
<path d="M87,-33 L79,-146 L151,-281 L227,-82 L62,-84 L59,-74 Z" stroke-width="0" fill="#000000" fill-opacity="0.9725490196078431" />
<path d="M125,-236 L113,-222 L131,-180 L153,-171 L116,-102 L89,-188 Z" stroke-width="0" fill="#5348c9" fill-opacity="0.3803921568627451" />
<path d="M90,-160 L112,-100 L103,-84 L91,-287 L245,-176 L208,-257 Z" stroke-width="0" fill="#1b000b" fill-opacity="0.8941176470588236" />
<path d="M89,-260 L90,-146 L55,-37 L35,-282 L238,-137 L245,-258 Z" stroke-width="0" fill="#f40000" fill-opacity="0.5019607843137255" />
<path d="M47,-34 L72,-249 L118,-34 L55,-46 L165,-248 L217,-280 Z" stroke-width="0" fill="#000000" fill-opacity="0.8941176470588236" />
<path d="M199,-194 L125,-144 L87,-45 L26,-219 L242,-136 L77,-316 Z" stroke-width="0" fill="#000000" fill-opacity="0.9607843137254902" />
<path d="M230,-110 L215,-88 L200,-318 L175,-186 L165,-115 L180,-108 Z" stroke-width="0" fill="#65b30d" fill-opacity="0.996078431372549" />
<path d="M182,-184 L82,-252 L117,-285 L129,-107 L39,-92 L219,-57 Z" stroke-width="0" fill="#06f800" fill-opacity="0.9058823529411765" />
<path d="M160,-42 L157,-35 L51,-34 L214,-53 L157,-314 L206,-235 Z" stroke-width="0" fill="#000000" fill-opacity="0.5019607843137255" />
<path d="M103,-225 L242,-207 L44,-156 L35,-258 L128,-37 L77,-191 Z" stroke-width="0" fill="#000000" fill-opacity="0.8627450980392157" />
<path d="M184,-142 L233,-208 L200,-216 L89,-223 L170,-266 L44,-41 Z" stroke-width="0" fill="#1d0804" fill-opacity="0.6274509803921569" />
<path d="M133,-240 L192,-85 L220,-322 L27,-305 L45,-295 L180,-230 Z" stroke-width="0" fill="#000000" fill-opacity="0.9725490196078431" />
<path d="M193,-168 L32,-217 L86,-188 L119,-195 L171,-250 L200,-146 Z" stroke-width="0" fill="#000000" fill-opacity="0.796078431372549" />
<path d="M123,-278 L168,-176 L26,-93 L235,-31 L170,-106 L248,-226 Z" stroke-width="0" fill="#030000" fill-opacity="0.8823529411764706" />
<path d="M247,-99 L69,-46 L203,-80 L38,-143 L164,-66 L232,-214 Z" stroke-width="0" fill="#7ee900" fill-opacity="0.6901960784313725" />
<path d="M103,-139 L165,-267 L209,-197 L176,-165 L143,-113 L115,-35 Z" stroke-width="0" fill="#3c2b2d" fill-opacity="0.11372549019607843" />
<path d="M103,-262 L35,-44 L101,-135 L51,-133 L44,-308 L48,-106 Z" stroke-width="0" fill="#000000" fill-opacity="0.8509803921568627" />
<path d="M190,-44 L226,-25 L143,-60 L81,-83 L42,-98 L89,-119 Z" stroke-width="0" fill="#000000" fill-opacity="0.7686274509803922" />
<path d="M93,-227 L91,-73 L178,-34 L63,-95 L171,-243 L95,-155 Z" stroke-width="0" fill="#000000" fill-opacity="0.796078431372549" />
<path d="M68,-120 L180,-310 L25,-36 L242,-105 L46,-41 L64,-115 Z" stroke-width="0" fill="#000000" fill-opacity="0.9882352941176471" />
<path d="M144,-244 L53,-190 L75,-254 L102,-207 L145,-96 L100,-142 Z" stroke-width="0" fill="#a954c3" fill-opacity="0.25882352941176473" />
<path d="M159,-62 L74,-154 L154,-242 L241,-206 L204,-123 L85,-243 Z" stroke-width="0" fill="#e4f3b4" fill-opacity="0.9803921568627451" />
<path d="M43,-94 L183,-135 L201,-300 L167,-298 L59,-64 L56,-89 Z" stroke-width="0" fill="#000000" fill-opacity="0.5058823529411764" />
<path d="M75,-257 L123,-127 L212,-175 L42,-277 L75,-253 L79,-54 Z" stroke-width="0" fill="#000000" fill-opacity="0.8" />
<path d="M151,-269 L58,-138 L237,-253 L97,-241 L39,-248 L248,-67 Z" stroke-width="0" fill="#92f400" fill-opacity="0.8156862745098039" />
<path d="M92,-107 L50,-77 L193,-54 L228,-207 L37,-60 L242,-158 Z" stroke-width="0" fill="#141521" fill-opacity="0.9764705882352941" />
<path d="M158,-102 L116,-28 L50,-119 L67,-217 L115,-141 L113,-204 Z" stroke-width="0" fill="#000000" fill-opacity="0.9568627450980393" />
<path d="M90,-149 L38,-185 L216,-37 L52,-173 L81,-136 L77,-68 Z" stroke-width="0" fill="#000000" fill-opacity="0.9764705882352941" />
<path d="M219,-58 L44,-213 L129,-253 L210,-101 L38,-312 L243,-216 Z" stroke-width="0" fill="#800018" fill-opacity="0.6980392156862745" />
<path d="M88,-221 L183,-63 L226,-224 L112,-255 L142,-241 L54,-100 Z" stroke-width="0" fill="#e7caae" fill-opacity="0.48627450980392156" />
<path d="M134,-80 L225,-72 L30,-123 L36,-139 L51,-26 L197,-77 Z" stroke-width="0" fill="#000000" fill-opacity="0.8627450980392157" />
<path d="M191,-271 L80,-304 L55,-206 L188,-267 L190,-36 L103,-127 Z" stroke-width="0" fill="#000000" fill-opacity="0.8235294117647058" />
<path d="M88,-109 L75,-299 L137,-179 L84,-208 L42,-208 L46,-123 Z" stroke-width="0" fill="#000000" fill-opacity="1.0" />
<path d="M40,-151 L191,-255 L224,-205 L202,-101 L237,-90 L106,-217 Z" stroke-width="0" fill="#dcf300" fill-opacity="0.11372549019607843" />
<path d="M58,-70 L60,-95 L147,-191 L77,-101 L120,-111 L108,-220 Z" stroke-width="0" fill="#8b4c1f" fill-opacity="0.011764705882352941" />
<path d="M63,-188 L135,-41 L129,-167 L162,-161 L132,-45 L113,-53 Z" stroke-width="0" fill="#000000" fill-opacity="0.796078431372549" />
<path d="M60,-243 L201,-311 L172,-63 L232,-57 L82,-163 L102,-320 Z" stroke-width="0" fill="#000000" fill-opacity="0.9803921568627451" />
<path d="M151,-106 L201,-35 L154,-263 L200,-298 L182,-136 L54,-179 Z" stroke-width="0" fill="#9ae300" fill-opacity="0.7019607843137254" />
<path d="M154,-292 L62,-73 L178,-165 L52,-304 L71,-109 L224,-31 Z" stroke-width="0" fill="#000000" fill-opacity="0.7372549019607844" />
<path d="M124,-248 L212,-239 L76,-289 L243,-171 L113,-65 L216,-149 Z" stroke-width="0" fill="#51002e" fill-opacity="0.34901960784313724" />
<path d="M32,-150 L89,-94 L159,-190 L235,-150 L27,-99 L133,-241 Z" stroke-width="0" fill="#000000" fill-opacity="0.9921568627450981" />
<path d="M244,-152 L56,-225 L134,-316 L108,-209 L49,-78 L185,-184 Z" stroke-width="0" fill="#000000" fill-opacity="0.9058823529411765" />
<path d="M74,-203 L113,-304 L235,-75 L84,-73 L137,-204 L164,-233 Z" stroke-width="0" fill="#047e00" fill-opacity="0.47058823529411764" />
<path d="M230,-187 L245,-33 L219,-161 L28,-214 L41,-33 L61,-206 Z" stroke-width="0" fill="#970000" fill-opacity="0.9019607843137255" />
<path d="M77,-67 L102,-95 L203,-116 L133,-73 L78,-53 L139,-34 Z" stroke-width="0" fill="#000000" fill-opacity="0.7764705882352941" />
<path d="M32,-268 L49,-245 L221,-236 L112,-43 L188,-92 L228,-69 Z" stroke-width="0" fill="#000000" fill-opacity="0.9215686274509803" />
<path d="M97,-240 L184,-127 L61,-172 L100,-161 L29,-175 L60,-159 Z" stroke-width="0" fill="#000000" fill-opacity="0.996078431372549" />
<path d="M98,-119 L96,-77 L199,-196 L149,-80 L88,-235 L216,-74 Z" stroke-width="0" fill="#fbf606" fill-opacity="0.9607843137254902" />
<path d="M123,-154 L34,-186 L33,-70 L64,-151 L181,-164 L229,-27 Z" stroke-width="0" fill="#000000" fill-opacity="0.9607843137254902" />
<path d="M152,-320 L96,-300 L81,-175 L98,-234 L204,-199 L208,-158 Z" stroke-width="0" fill="#000000" fill-opacity="0.8627450980392157" />
<path d="M231,-45 L230,-79 L39,-257 L54,-297 L112,-176 L178,-86 Z" stroke-width="0" fill="#bcfd04" fill-opacity="0.9372549019607843" />
<path d="M131,-215 L215,-274 L45,-180 L59,-290 L147,-114 L25,-28 Z" stroke-width="0" fill="#000000" fill-opacity="0.8156862745098039" />
<path d="M132,-249 L29,-35 L121,-59 L231,-35 L183,-57 L30,-246 Z" stroke-width="0" fill="#000000" fill-opacity="0.8980392156862745" />
<path d="M152,-160 L174,-123 L31,-114 L181,-217 L94,-257 L41,-133 Z" stroke-width="0" fill="#000000" fill-opacity="0.9921568627450981" />
<path d="M39,-286 L102,-108 L96,-152 L71,-217 L212,-152 L124,-162 Z" stroke-width="0" fill="#000000" fill-opacity="0.8156862745098039" />
<path d="M174,-132 L170,-84 L243,-153 L238,-248 L113,-145 L87,-306 Z" stroke-width="0" fill="#e91d81" fill-opacity="0.9882352941176471" />
<path d="M109,-107 L87,-314 L148,-163 L54,-189 L47,-164 L166,-87 Z" stroke-width="0" fill="#000000" fill-opacity="0.9450980392156862" />
<path d="M47,-84 L82,-253 L127,-310 L168,-152 L196,-292 L73,-174 Z" stroke-width="0" fill="#000000" fill-opacity="0.2" />
<path d="M70,-176 L150,-297 L103,-103 L42,-56 L208,-77 L53,-56 Z" stroke-width="0" fill="#000000" fill-opacity="0.28627450980392155" />
<path d="M40,-60 L226,-289 L94,-161 L209,-245 L139,-33 L35,-182 Z" stroke-width="0" fill="#000000" fill-opacity="0.9764705882352941" />
<path d="M34,-135 L232,-80 L52,-273 L114,-91 L184,-54 L205,-164 Z" stroke-width="0" fill="#e0fe05" fill-opacity="0.5019607843137255" />
<path d="M100,-129 L207,-102 L53,-154 L108,-300 L180,-168 L142,-144 Z" stroke-width="0" fill="#000000" fill-opacity="0.9254901960784314" />
<path d="M78,-115 L94,-282 L241,-96 L154,-242 L191,-96 L76,-167 Z" stroke-width="0" fill="#000000" fill-opacity="0.21176470588235294" />
<path d="M192,-266 L226,-163 L130,-61 L229,-273 L50,-200 L76,-97 Z" stroke-width="0" fill="#876353" fill-opacity="0.17647058823529413" />
<path d="M47,-101 L166,-207 L146,-237 L175,-193 L82,-131 L221,-97 Z" stroke-width="0" fill="#000000" fill-opacity="0.9686274509803922" />
<path d="M207,-219 L54,-93 L26,-262 L95,-32 L161,-312 L141,-257 Z" stroke-width="0" fill="#000000" fill-opacity="0.7764705882352941" />
<path d="M80,-320 L141,-310 L70,-208 L113,-34 L239,-240 L153,-305 Z" stroke-width="0" fill="#000000" fill-opacity="0.36470588235294116" />
<path d="M196,-95 L88,-89 L219,-315 L217,-195 L114,-205 L142,-97 Z" stroke-width="0" fill="#3e5c00" fill-opacity="0.7098039215686275" />
<path d="M93,-91 L147,-145 L71,-53 L149,-122 L35,-48 L131,-249 Z" stroke-width="0" fill="#000000" fill-opacity="0.7098039215686275" />
<path d="M54,-302 L103,-74 L217,-32 L124,-186 L46,-277 L57,-193 Z" stroke-width="0" fill="#d4ea00" fill-opacity="0.5803921568627451" />
<path d="M72,-203 L189,-58 L67,-245 L199,-147 L236,-165 L121,-96 Z" stroke-width="0" fill="#000000" fill-opacity="0.8980392156862745" />
<path d="M178,-220 L239,-117 L173,-138 L173,-302 L100,-254 L140,-94 Z" stroke-width="0" fill="#000000" fill-opacity="0.023529411764705882" />
<path d="M25,-172 L80,-256 L148,-240 L37,-107 L105,-36 L231,-158 Z" stroke-width="0" fill="#000000" fill-opacity="0.9803921568627451" />
<path d="M30,-111 L121,-213 L178,-234 L191,-217 L87,-61 L164,-298 Z" stroke-width="0" fill="#000000" fill-opacity="0.5137254901960784" />
<path d="M217,-162 L49,-318 L35,-153 L150,-45 L78,-205 L187,-258 Z" stroke-width="0" fill="#000000" fill-opacity="0.8980392156862745" />
<path d="M124,-131 L213,-72 L67,-64 L174,-155 L208,-48 L170,-64 Z" stroke-width="0" fill="#322000" fill-opacity="0.15294117647058825" />
<path d="M49,-265 L207,-207 L185,-114 L192,-140 L61,-74 L247,-71 Z" stroke-width="0" fill="#000000" fill-opacity="0.11764705882352941" />
<path d="M109,-211 L72,-257 L53,-232 L191,-56 L240,-305 L109,-34 Z" stroke-width="0" fill="#2b7700" fill-opacity="0.00392156862745098" />
<path d="M36,-75 L155,-50 L34,-163 L170,-317 L104,-131 L128,-68 Z" stroke-width="0" fill="#8fdc03" fill-opacity="0.7725490196078432" />
<text x="137.5" y="12.5" font-size="20.0" fill="black" text-anchor="middle" transform="translate(0,5.0)">5 OF WATER</text>
</svg>