<?xml version="1.0" encoding="UTF-8"?>
<svg xmlns="http://www.w3.org/2000/svg" xmlns:xlink="http://www.w3.org/1999/xlink"
     width="896" height="1496" viewBox="0 -1400 896 1496" style="font-size:70;font-family:Poor Richard, Times New Roman;stroke:black;stroke-width:1;fill:none">
<defs>
</defs>
<path d="M182,-1038 L318,-274 L630,-1222 L642,-250 L230,-834 L302,-550 Z" stroke-width="0" fill="#f8c024" fill-opacity="0.011764705882352941" />
<path d="M226,-1014 L786,-854 L762,-230 L582,-822 L502,-818 L314,-890 Z" stroke-width="0" fill="#2a2b2c" fill-opacity="0.6823529411764706" />
<path d="M130,-942 L542,-430 L426,-230 L378,-578 L230,-218 L126,-906 Z" stroke-width="0" fill="#e9ddd7" fill-opacity="0.0196078431372549" />
<path d="M734,-134 L650,-450 L302,-578 L446,-222 L810,-82 L946,-1122 Z" stroke-width="0" fill="#0012a1" fill-opacity="0.5215686274509804" />
<path d="M758,-1002 L230,-202 L122,-978 L178,-518 L630,-650 L894,-678 Z" stroke-width="0" fill="#6397a7" fill-opacity="0.6823529411764706" />
<path d="M614,-1194 L542,-1114 L558,-162 L194,-974 L670,-970 L446,-598 Z" stroke-width="0" fill="#e6f6fc" fill-opacity="0.07058823529411765" />
<path d="M122,-722 L318,-942 L674,-314 L870,-1266 L266,-1078 L90,-190 Z" stroke-width="0" fill="#000842" fill-opacity="0.7686274509803922" />
<path d="M282,-790 L942,-370 L246,-530 L850,-306 L358,-1054 L194,-558 Z" stroke-width="0" fill="#070677" fill-opacity="0.6078431372549019" />
<path d="M858,-890 L766,-1194 L530,-374 L874,-118 L514,-462 L294,-1222 Z" stroke-width="0" fill="#000511" fill-opacity="0.6666666666666666" />
<path d="M622,-242 L410,-458 L742,-470 L758,-510 L190,-1078 L274,-98 Z" stroke-width="0" fill="#ac73e6" fill-opacity="0.15294117647058825" />
<path d="M470,-822 L478,-502 L298,-1254 L610,-218 L358,-834 L442,-494 Z" stroke-width="0" fill="#544e58" fill-opacity="0.9803921568627451" />
<path d="M462,-1222 L826,-530 L238,-1006 L90,-1206 L518,-994 L230,-226 Z" stroke-width="0" fill="#020010" fill-opacity="0.9294117647058824" />
<path d="M138,-754 L350,-1186 L330,-738 L478,-966 L334,-418 L450,-386 Z" stroke-width="0" fill="#b17676" fill-opacity="0.1450980392156863" />
<path d="M278,-1122 L610,-874 L678,-194 L554,-394 L830,-1058 L338,-130 Z" stroke-width="0" fill="#17fdad" fill-opacity="0.9019607843137255" />
<path d="M626,-670 L902,-902 L318,-1006 L466,-886 L474,-106 L826,-802 Z" stroke-width="0" fill="#293a7a" fill-opacity="0.8627450980392157" />
<path d="M938,-1134 L210,-726 L122,-514 L950,-830 L362,-886 L278,-430 Z" stroke-width="0" fill="#b0b8b8" fill-opacity="0.9098039215686274" />
<path d="M198,-626 L430,-1226 L594,-466 L562,-958 L618,-842 L858,-294 Z" stroke-width="0" fill="#5c7182" fill-opacity="0.6588235294117647" />
<path d="M654,-410 L142,-578 L474,-334 L234,-1186 L490,-206 L698,-394 Z" stroke-width="0" fill="#5c3b87" fill-opacity="0.8313725490196079" />
<path d="M558,-326 L810,-410 L282,-534 L882,-1090 L122,-998 L722,-1166 Z" stroke-width="0" fill="#67673c" fill-opacity="0.7607843137254902" />
<path d="M710,-302 L186,-838 L814,-390 L378,-894 L522,-258 L386,-614 Z" stroke-width="0" fill="#1bdc8a" fill-opacity="0.49411764705882355" />
<path d="M730,-1110 L966,-1014 L770,-1086 L654,-1082 L686,-242 L390,-654 Z" stroke-width="0" fill="#0b1c6d" fill-opacity="0.7843137254901961" />
<path d="M302,-994 L426,-158 L422,-162 L870,-454 L674,-446 L478,-522 Z" stroke-width="0" fill="#12b1f5" fill-opacity="0.8549019607843137" />
<path d="M850,-858 L110,-614 L734,-626 L598,-1122 L202,-746 L606,-510 Z" stroke-width="0" fill="#ad8941" fill-opacity="0.8745098039215686" />
<path d="M274,-1070 L574,-942 L910,-482 L190,-1082 L602,-774 L514,-294 Z" stroke-width="0" fill="#014e77" fill-opacity="0.8588235294117647" />
<path d="M710,-1002 L114,-698 L246,-514 L950,-142 L410,-570 L338,-930 Z" stroke-width="0" fill="#405cc2" fill-opacity="0.8666666666666667" />
<path d="M474,-754 L826,-202 L122,-190 L106,-1074 L958,-838 L86,-758 Z" stroke-width="0" fill="#000000" fill-opacity="0.9098039215686274" />
<path d="M854,-678 L406,-570 L890,-618 L714,-1138 L442,-1114 L118,-1118 Z" stroke-width="0" fill="#0e2411" fill-opacity="0.9137254901960784" />
<path d="M538,-386 L470,-154 L486,-534 L114,-626 L310,-422 L514,-666 Z" stroke-width="0" fill="#d0bd65" fill-opacity="0.8431372549019608" />
<path d="M678,-1254 L258,-662 L450,-558 L606,-722 L574,-554 L110,-938 Z" stroke-width="0" fill="#584b54" fill-opacity="0.5647058823529412" />
<path d="M402,-170 L574,-866 L566,-782 L282,-386 L494,-622 L770,-398 Z" stroke-width="0" fill="#5b3ddf" fill-opacity="0.6705882352941176" />
<path d="M170,-762 L398,-618 L362,-490 L570,-530 L374,-118 L374,-170 Z" stroke-width="0" fill="#3d30ef" fill-opacity="0.07058823529411765" />
<path d="M202,-506 L266,-842 L194,-358 L626,-410 L810,-402 L262,-406 Z" stroke-width="0" fill="#a07488" fill-opacity="0.796078431372549" />
<path d="M262,-1110 L774,-710 L586,-442 L470,-726 L194,-882 L762,-806 Z" stroke-width="0" fill="#cdfe99" fill-opacity="0.9725490196078431" />
<path d="M370,-150 L786,-818 L110,-94 L286,-862 L170,-238 L318,-226 Z" stroke-width="0" fill="#0e000b" fill-opacity="0.9882352941176471" />
<path d="M186,-626 L906,-1246 L210,-546 L334,-238 L850,-798 L170,-282 Z" stroke-width="0" fill="#002853" fill-opacity="0.8352941176470589" />
<path d="M466,-122 L474,-234 L182,-226 L462,-914 L746,-86 L118,-790 Z" stroke-width="0" fill="#0b1423" fill-opacity="0.3764705882352941" />
<path d="M586,-90 L302,-782 L910,-474 L426,-1074 L82,-906 L862,-350 Z" stroke-width="0" fill="#000e27" fill-opacity="0.6745098039215687" />
<path d="M322,-118 L518,-462 L442,-230 L566,-890 L146,-626 L230,-1230 Z" stroke-width="0" fill="#1e0b03" fill-opacity="0.8470588235294118" />
<path d="M254,-654 L214,-1122 L658,-886 L210,-1226 L118,-298 L434,-1138 Z" stroke-width="0" fill="#16401b" fill-opacity="0.8980392156862745" />
<path d="M234,-818 L714,-1262 L130,-774 L450,-422 L210,-1202 L330,-610 Z" stroke-width="0" fill="#79857c" fill-opacity="0.5764705882352941" />
<path d="M674,-150 L342,-1234 L906,-1058 L534,-418 L710,-666 L638,-802 Z" stroke-width="0" fill="#9aa88d" fill-opacity="0.9882352941176471" />
<path d="M518,-886 L518,-270 L606,-430 L702,-1034 L98,-338 L886,-906 Z" stroke-width="0" fill="#080a1b" fill-opacity="0.6509803921568628" />
<path d="M314,-466 L238,-158 L622,-1126 L498,-1010 L506,-862 L806,-602 Z" stroke-width="0" fill="#d9c5a5" fill-opacity="0.28627450980392155" />
<path d="M94,-914 L206,-1030 L598,-778 L310,-778 L854,-502 L258,-86 Z" stroke-width="0" fill="#030002" fill-opacity="0.7411764705882353" />
<path d="M606,-862 L754,-666 L242,-222 L278,-266 L274,-918 L830,-134 Z" stroke-width="0" fill="#6ba1f8" fill-opacity="0.7254901960784313" />
<path d="M586,-1002 L446,-610 L370,-198 L634,-118 L138,-266 L198,-1206 Z" stroke-width="0" fill="#031727" fill-opacity="0.36470588235294116" />
<path d="M514,-574 L638,-338 L434,-794 L718,-202 L978,-686 L274,-82 Z" stroke-width="0" fill="#55aecb" fill-opacity="0.5254901960784314" />
<path d="M178,-218 L622,-1066 L670,-714 L342,-162 L482,-538 L170,-1278 Z" stroke-width="0" fill="#000000" fill-opacity="0.8823529411764706" />
<path d="M406,-1030 L570,-382 L898,-478 L246,-142 L894,-1206 L462,-498 Z" stroke-width="0" fill="#e387eb" fill-opacity="0.611764705882353" />
<path d="M546,-238 L386,-718 L130,-1166 L338,-834 L362,-458 L98,-838 Z" stroke-width="0" fill="#00b400" fill-opacity="0.08235294117647059" />
<path d="M754,-502 L550,-962 L402,-1242 L538,-1214 L310,-1138 L374,-1090 Z" stroke-width="0" fill="#523d48" fill-opacity="0.5019607843137255" />
<path d="M942,-770 L430,-1138 L794,-242 L950,-774 L202,-118 L890,-190 Z" stroke-width="0" fill="#7d92cf" fill-opacity="0.8941176470588236" />
<path d="M466,-762 L550,-166 L342,-518 L218,-118 L434,-530 L510,-206 Z" stroke-width="0" fill="#141e0a" fill-opacity="0.7254901960784313" />
<path d="M130,-86 L894,-730 L922,-514 L494,-1034 L726,-922 L702,-138 Z" stroke-width="0" fill="#070c00" fill-opacity="0.7843137254901961" />
<path d="M538,-1042 L266,-730 L274,-462 L906,-254 L178,-210 L314,-630 Z" stroke-width="0" fill="#1f2007" fill-opacity="0.0392156862745098" />
<path d="M922,-974 L454,-678 L342,-246 L742,-582 L498,-146 L194,-446 Z" stroke-width="0" fill="#505100" fill-opacity="0.7843137254901961" />
<path d="M514,-526 L782,-1110 L430,-358 L786,-1154 L894,-278 L826,-622 Z" stroke-width="0" fill="#4fa9ee" fill-opacity="0.9450980392156862" />
<path d="M346,-454 L146,-1026 L786,-150 L386,-1174 L426,-394 L638,-282 Z" stroke-width="0" fill="#00b008" fill-opacity="0.10980392156862745" />
<path d="M618,-302 L334,-294 L170,-418 L578,-930 L950,-470 L430,-1110 Z" stroke-width="0" fill="#446d8f" fill-opacity="0.5529411764705883" />
<path d="M690,-242 L794,-670 L634,-678 L654,-982 L338,-1210 L578,-646 Z" stroke-width="0" fill="#7f6f54" fill-opacity="0.8549019607843137" />
<path d="M966,-1258 L330,-138 L758,-106 L430,-1054 L246,-246 L558,-998 Z" stroke-width="0" fill="#0c315f" fill-opacity="0.9019607843137255" />
<path d="M542,-782 L362,-714 L366,-1278 L722,-530 L214,-282 L154,-638 Z" stroke-width="0" fill="#6f775c" fill-opacity="0.9921568627450981" />
<path d="M590,-150 L266,-338 L550,-754 L626,-626 L282,-1114 L90,-830 Z" stroke-width="0" fill="#cab851" fill-opacity="0.42745098039215684" />
<path d="M746,-158 L590,-1006 L666,-1194 L934,-1118 L538,-250 L930,-486 Z" stroke-width="0" fill="#2f527b" fill-opacity="0.9725490196078431" />
<path d="M498,-1210 L178,-546 L154,-738 L458,-386 L258,-1198 L138,-678 Z" stroke-width="0" fill="#3a3bcd" fill-opacity="0.12549019607843137" />
<path d="M934,-202 L526,-1010 L622,-186 L142,-358 L906,-170 L974,-330 Z" stroke-width="0" fill="#a9c4e7" fill-opacity="0.8823529411764706" />
<path d="M826,-254 L234,-1270 L390,-982 L194,-658 L914,-926 L818,-622 Z" stroke-width="0" fill="#bb9fa0" fill-opacity="0.9058823529411765" />
<path d="M290,-178 L870,-594 L142,-310 L794,-1010 L318,-926 L254,-1042 Z" stroke-width="0" fill="#d88ea1" fill-opacity="0.3058823529411765" />
<path d="M830,-862 L638,-670 L498,-234 L950,-690 L118,-654 L926,-654 Z" stroke-width="0" fill="#edf6e0" fill-opacity="0.8117647058823529" />
<path d="M666,-490 L658,-1222 L466,-262 L382,-502 L302,-922 L250,-670 Z" stroke-width="0" fill="#f8f18a" fill-opacity="0.611764705882353" />
<path d="M254,-938 L606,-114 L450,-742 L102,-142 L182,-106 L106,-554 Z" stroke-width="0" fill="#606921" fill-opacity="0.7019607843137254" />
<path d="M906,-658 L914,-238 L370,-598 L254,-390 L430,-886 L626,-282 Z" stroke-width="0" fill="#667cc4" fill-opacity="0.7254901960784313" />
<path d="M446,-290 L802,-294 L714,-286 L834,-866 L390,-674 L270,-1190 Z" stroke-width="0" fill="#fd5f33" fill-opacity="0.058823529411764705" />
<path d="M106,-1198 L194,-1034 L498,-330 L850,-198 L582,-890 L382,-1090 Z" stroke-width="0" fill="#a54fb4" fill-opacity="0.14901960784313725" />
<path d="M134,-1086 L978,-374 L790,-1062 L222,-222 L374,-170 L866,-130 Z" stroke-width="0" fill="#20218d" fill-opacity="0.1843137254901961" />
<path d="M298,-674 L718,-938 L326,-682 L910,-330 L90,-598 L334,-162 Z" stroke-width="0" fill="#b06c36" fill-opacity="0.7058823529411765" />
<path d="M434,-1122 L574,-846 L426,-802 L622,-370 L686,-830 L226,-450 Z" stroke-width="0" fill="#d5f1ab" fill-opacity="0.8666666666666667" />
<path d="M478,-254 L878,-1138 L786,-882 L842,-330 L794,-1118 L470,-446 Z" stroke-width="0" fill="#df97ba" fill-opacity="0.2901960784313726" />
<path d="M122,-626 L462,-466 L454,-326 L282,-230 L494,-758 L94,-650 Z" stroke-width="0" fill="#bf701f" fill-opacity="0.5411764705882353" />
<path d="M362,-394 L594,-1258 L478,-694 L806,-114 L282,-786 L294,-698 Z" stroke-width="0" fill="#302b22" fill-opacity="0.5372549019607843" />
<path d="M82,-678 L298,-446 L146,-906 L430,-750 L314,-658 L610,-594 Z" stroke-width="0" fill="#cfffa9" fill-opacity="0.8196078431372549" />
<path d="M630,-474 L410,-298 L306,-1058 L934,-1142 L146,-1022 L606,-314 Z" stroke-width="0" fill="#001221" fill-opacity="0.16862745098039217" />
<path d="M310,-1122 L466,-322 L122,-594 L174,-1238 L378,-578 L918,-1242 Z" stroke-width="0" fill="#996fc5" fill-opacity="0.2901960784313726" />
<path d="M130,-130 L278,-526 L570,-902 L530,-482 L406,-658 L370,-622 Z" stroke-width="0" fill="#ce772d" fill-opacity="0.09019607843137255" />
<path d="M394,-474 L290,-490 L246,-574 L494,-618 L754,-802 L166,-502 Z" stroke-width="0" fill="#387257" fill-opacity="0.3411764705882353" />
<path d="M122,-982 L474,-654 L542,-974 L914,-922 L434,-134 L110,-666 Z" stroke-width="0" fill="#fcfcf5" fill-opacity="0.19607843137254902" />
<path d="M238,-182 L754,-730 L510,-302 L890,-162 L418,-126 L830,-338 Z" stroke-width="0" fill="#c97343" fill-opacity="0.30196078431372547" />
<path d="M498,-654 L918,-730 L346,-542 L406,-230 L702,-790 L330,-454 Z" stroke-width="0" fill="#cee58e" fill-opacity="0.4392156862745098" />
<path d="M390,-138 L190,-1242 L962,-742 L322,-1002 L178,-166 L326,-322 Z" stroke-width="0" fill="#7c7369" fill-opacity="0.18823529411764706" />
<path d="M318,-318 L206,-538 L594,-538 L214,-250 L402,-138 L754,-1010 Z" stroke-width="0" fill="#98344c" fill-opacity="0.14901960784313725" />
<path d="M978,-458 L274,-434 L550,-734 L422,-678 L554,-1242 L674,-522 Z" stroke-width="0" fill="#ebdcc6" fill-opacity="0.4392156862745098" />
<path d="M730,-574 L642,-434 L606,-570 L722,-630 L902,-918 L810,-1034 Z" stroke-width="0" fill="#5f6dcb" fill-opacity="0.3568627450980392" />
<path d="M254,-1074 L970,-538 L826,-586 L142,-198 L666,-770 L462,-322 Z" stroke-width="0" fill="#e6d494" fill-opacity="0.25098039215686274" />
<path d="M454,-198 L834,-750 L842,-322 L182,-710 L542,-1210 L538,-462 Z" stroke-width="0" fill="#cabfcb" fill-opacity="0.6784313725490196" />
<path d="M354,-370 L366,-126 L846,-234 L854,-106 L258,-1122 L114,-502 Z" stroke-width="0" fill="#bd5f00" fill-opacity="0.1411764705882353" />
<path d="M802,-622 L686,-326 L750,-682 L338,-434 L918,-866 L770,-1050 Z" stroke-width="0" fill="#b3577e" fill-opacity="0.21568627450980393" />
<path d="M322,-126 L782,-586 L346,-214 L962,-478 L118,-394 L718,-282 Z" stroke-width="0" fill="#ac7945" fill-opacity="0.5647058823529412" />
<path d="M486,-414 L766,-662 L870,-998 L874,-530 L130,-930 L82,-518 Z" stroke-width="0" fill="#d58266" fill-opacity="0.5254901960784314" />
<path d="M942,-1262 L590,-886 L426,-214 L258,-1030 L418,-1038 L438,-250 Z" stroke-width="0" fill="#e3a8f6" fill-opacity="0.0784313725490196" />
<path d="M646,-498 L930,-98 L922,-794 L422,-406 L134,-398 L706,-702 Z" stroke-width="0" fill="#531e49" fill-opacity="0.12549019607843137" />
<text x="448.0" y="0" font-size="70.0" fill="black" text-anchor="middle" transform="translate(0,17.5)">1 OF WATER</text>
</svg>