<?xml version="1.0" encoding="UTF-8"?>
<svg xmlns="http://www.w3.org/2000/svg" xmlns:xlink="http://www.w3.org/1999/xlink"
     width="896" height="1496" viewBox="0 -1400 896 1496" style="font-size:70;font-family:Poor Richard, Times New Roman;stroke:black;stroke-width:1;fill:none">
<defs>
</defs>
<path d="M558,-146 L422,-386 L594,-826 L714,-886 L638,-658 L730,-602 Z" stroke-width="0" fill="#00fef3" fill-opacity="0.8470588235294118" />
<path d="M538,-1106 L278,-370 L398,-242 L658,-998 L130,-274 L706,-374 Z" stroke-width="0" fill="#c3a0bb" fill-opacity="0.5137254901960784" />
<path d="M334,-82 L342,-162 L766,-1050 L186,-166 L818,-638 L834,-906 Z" stroke-width="0" fill="#c70004" fill-opacity="0.6549019607843137" />
<path d="M626,-1022 L170,-182 L750,-258 L918,-326 L130,-978 L286,-866 Z" stroke-width="0" fill="#564c90" fill-opacity="0.2823529411764706" />
<path d="M174,-714 L942,-474 L830,-842 L554,-806 L110,-518 L462,-1146 Z" stroke-width="0" fill="#e8051f" fill-opacity="0.5568627450980392" />
<path d="M102,-866 L470,-358 L318,-1214 L398,-386 L566,-150 L234,-490 Z" stroke-width="0" fill="#74635d" fill-opacity="0.3333333333333333" />
<path d="M346,-462 L714,-626 L134,-598 L942,-374 L634,-442 L246,-1278 Z" stroke-width="0" fill="#be196d" fill-opacity="0.06274509803921569" />
<path d="M418,-1258 L778,-198 L610,-302 L858,-594 L118,-974 L134,-1250 Z" stroke-width="0" fill="#bb0000" fill-opacity="0.6313725490196078" />
<path d="M354,-614 L438,-138 L818,-626 L826,-98 L678,-666 L506,-890 Z" stroke-width="0" fill="#b80000" fill-opacity="0.5803921568627451" />
<path d="M298,-142 L910,-1162 L974,-642 L394,-854 L394,-1110 L178,-454 Z" stroke-width="0" fill="#1d4495" fill-opacity="0.12941176470588237" />
<path d="M930,-886 L374,-718 L490,-1094 L570,-126 L782,-174 L734,-222 Z" stroke-width="0" fill="#c1734d" fill-opacity="0.5019607843137255" />
<path d="M610,-702 L414,-1098 L606,-1134 L374,-886 L478,-486 L726,-418 Z" stroke-width="0" fill="#556740" fill-opacity="0.027450980392156862" />
<path d="M458,-426 L194,-546 L114,-294 L554,-670 L738,-286 L222,-926 Z" stroke-width="0" fill="#c63ddc" fill-opacity="0.44313725490196076" />
<path d="M394,-550 L898,-1030 L390,-970 L214,-746 L954,-1202 L806,-174 Z" stroke-width="0" fill="#cf0234" fill-opacity="0.6392156862745098" />
<path d="M462,-390 L882,-938 L558,-978 L398,-826 L790,-318 L298,-178 Z" stroke-width="0" fill="#e300bf" fill-opacity="0.43529411764705883" />
<path d="M702,-926 L774,-110 L614,-1002 L898,-966 L782,-494 L750,-498 Z" stroke-width="0" fill="#cf2400" fill-opacity="0.611764705882353" />
<path d="M586,-462 L702,-174 L758,-1042 L102,-966 L822,-450 L238,-278 Z" stroke-width="0" fill="#c50000" fill-opacity="0.5882352941176471" />
<path d="M914,-454 L518,-518 L710,-202 L666,-1150 L370,-562 L702,-882 Z" stroke-width="0" fill="#99183c" fill-opacity="0.09019607843137255" />
<path d="M358,-674 L102,-778 L606,-1098 L378,-226 L450,-910 L502,-974 Z" stroke-width="0" fill="#db9bbc" fill-opacity="0.5019607843137255" />
<path d="M918,-86 L826,-578 L762,-542 L558,-322 L446,-1094 L446,-774 Z" stroke-width="0" fill="#c70000" fill-opacity="0.6039215686274509" />
<path d="M150,-934 L254,-210 L350,-490 L498,-822 L542,-138 L126,-734 Z" stroke-width="0" fill="#d4000f" fill-opacity="0.5019607843137255" />
<path d="M670,-1046 L286,-658 L318,-766 L126,-354 L442,-786 L438,-430 Z" stroke-width="0" fill="#ec007f" fill-opacity="0.6784313725490196" />
<path d="M394,-498 L750,-490 L622,-162 L650,-414 L882,-502 L382,-1026 Z" stroke-width="0" fill="#e140b4" fill-opacity="0.4470588235294118" />
<path d="M742,-418 L174,-378 L158,-842 L370,-222 L262,-434 L942,-1002 Z" stroke-width="0" fill="#dc505c" fill-opacity="0.984313725490196" />
<path d="M426,-654 L94,-862 L754,-610 L538,-830 L146,-1046 L706,-386 Z" stroke-width="0" fill="#cb3516" fill-opacity="0.48627450980392156" />
<path d="M878,-926 L98,-1186 L278,-758 L778,-1090 L702,-566 L666,-882 Z" stroke-width="0" fill="#9e3841" fill-opacity="0.7294117647058823" />
<path d="M414,-102 L210,-582 L854,-606 L690,-1218 L242,-238 L978,-218 Z" stroke-width="0" fill="#e33b37" fill-opacity="0.8117647058823529" />
<path d="M442,-658 L846,-382 L90,-294 L350,-886 L622,-102 L642,-1246 Z" stroke-width="0" fill="#bc2600" fill-opacity="0.6196078431372549" />
<path d="M142,-802 L894,-234 L966,-606 L310,-1190 L182,-278 L574,-938 Z" stroke-width="0" fill="#d4eefe" fill-opacity="0.788235294117647" />
<path d="M922,-1170 L186,-434 L766,-1038 L470,-82 L258,-386 L446,-1014 Z" stroke-width="0" fill="#cc3549" fill-opacity="0.9098039215686274" />
<path d="M902,-422 L754,-1222 L950,-582 L858,-910 L302,-754 L722,-542 Z" stroke-width="0" fill="#ecddfc" fill-opacity="0.9450980392156862" />
<path d="M734,-202 L758,-1138 L918,-962 L606,-1134 L526,-606 L310,-858 Z" stroke-width="0" fill="#fe707d" fill-opacity="0.403921568627451" />
<path d="M686,-1242 L350,-794 L470,-1166 L474,-298 L506,-342 L554,-1202 Z" stroke-width="0" fill="#da0520" fill-opacity="0.5019607843137255" />
<path d="M442,-1058 L110,-934 L446,-590 L502,-786 L714,-582 L762,-742 Z" stroke-width="0" fill="#ca0500" fill-opacity="0.6431372549019608" />
<path d="M178,-618 L946,-150 L198,-974 L802,-514 L482,-458 L810,-930 Z" stroke-width="0" fill="#db77e9" fill-opacity="0.6823529411764706" />
<path d="M874,-686 L202,-1018 L298,-962 L530,-234 L670,-654 L534,-1222 Z" stroke-width="0" fill="#f486a2" fill-opacity="0.32941176470588235" />
<path d="M454,-494 L114,-754 L238,-446 L858,-1274 L886,-230 L558,-358 Z" stroke-width="0" fill="#6da7ca" fill-opacity="0.17647058823529413" />
<path d="M166,-86 L914,-550 L378,-198 L278,-414 L578,-858 L706,-358 Z" stroke-width="0" fill="#c90100" fill-opacity="0.5882352941176471" />
<path d="M490,-654 L462,-830 L302,-1102 L634,-346 L570,-1126 L742,-594 Z" stroke-width="0" fill="#0fe003" fill-opacity="0.9803921568627451" />
<path d="M522,-534 L438,-378 L314,-626 L534,-334 L546,-1226 L350,-870 Z" stroke-width="0" fill="#ce0017" fill-opacity="0.5882352941176471" />
<path d="M130,-726 L322,-1054 L82,-670 L402,-1258 L642,-266 L966,-1154 Z" stroke-width="0" fill="#c95100" fill-opacity="0.39215686274509803" />
<path d="M142,-1190 L858,-1094 L130,-982 L670,-730 L430,-234 L202,-490 Z" stroke-width="0" fill="#fe7471" fill-opacity="0.5215686274509804" />
<path d="M818,-1242 L202,-98 L302,-194 L338,-642 L870,-982 L818,-606 Z" stroke-width="0" fill="#ce0817" fill-opacity="0.5725490196078431" />
<path d="M782,-222 L430,-1146 L162,-778 L502,-142 L286,-1094 L194,-134 Z" stroke-width="0" fill="#d92a31" fill-opacity="0.6784313725490196" />
<path d="M158,-906 L506,-242 L238,-642 L194,-674 L274,-1018 L302,-978 Z" stroke-width="0" fill="#ebde1e" fill-opacity="0.07450980392156863" />
<path d="M90,-1066 L770,-506 L954,-154 L978,-234 L254,-262 L130,-1126 Z" stroke-width="0" fill="#d284a1" fill-opacity="0.796078431372549" />
<path d="M870,-474 L622,-182 L382,-422 L230,-870 L362,-450 L166,-358 Z" stroke-width="0" fill="#ddafdb" fill-opacity="0.6039215686274509" />
<path d="M798,-994 L322,-1198 L482,-150 L430,-986 L222,-854 L570,-722 Z" stroke-width="0" fill="#d14bc3" fill-opacity="0.3607843137254902" />
<path d="M578,-578 L530,-710 L198,-1122 L466,-1094 L462,-1170 L622,-1006 Z" stroke-width="0" fill="#a2734f" fill-opacity="0.1450980392156863" />
<path d="M898,-474 L314,-566 L730,-966 L882,-622 L254,-1078 L170,-410 Z" stroke-width="0" fill="#34fbb3" fill-opacity="0.058823529411764705" />
<path d="M210,-334 L670,-646 L918,-634 L822,-870 L770,-270 L346,-214 Z" stroke-width="0" fill="#f4d0f8" fill-opacity="0.9882352941176471" />
<path d="M926,-1258 L822,-250 L198,-414 L738,-706 L274,-470 L842,-898 Z" stroke-width="0" fill="#e8b4f5" fill-opacity="0.43529411764705883" />
<path d="M738,-914 L130,-994 L450,-630 L170,-542 L658,-1006 L946,-150 Z" stroke-width="0" fill="#d8feef" fill-opacity="0.3215686274509804" />
<path d="M102,-458 L466,-602 L234,-270 L894,-542 L118,-462 L562,-98 Z" stroke-width="0" fill="#c70f18" fill-opacity="0.6941176470588235" />
<path d="M222,-978 L422,-782 L326,-338 L698,-890 L638,-866 L286,-550 Z" stroke-width="0" fill="#9dd4f2" fill-opacity="0.40784313725490196" />
<path d="M718,-458 L314,-650 L642,-142 L598,-954 L726,-582 L614,-438 Z" stroke-width="0" fill="#d73a11" fill-opacity="0.07058823529411765" />
<path d="M182,-586 L198,-918 L166,-1126 L402,-382 L858,-310 L722,-398 Z" stroke-width="0" fill="#efc2fd" fill-opacity="0.10980392156862745" />
<path d="M214,-746 L462,-378 L446,-1154 L98,-218 L550,-530 L538,-842 Z" stroke-width="0" fill="#d40000" fill-opacity="0.5725490196078431" />
<path d="M918,-170 L86,-750 L114,-942 L210,-206 L202,-298 L234,-242 Z" stroke-width="0" fill="#d64352" fill-opacity="0.9254901960784314" />
<path d="M734,-490 L166,-1090 L306,-82 L210,-330 L466,-222 L978,-606 Z" stroke-width="0" fill="#ae3302" fill-opacity="0.21176470588235294" />
<path d="M690,-1102 L350,-598 L150,-402 L882,-546 L686,-738 L478,-834 Z" stroke-width="0" fill="#ecebdd" fill-opacity="0.3411764705882353" />
<path d="M410,-526 L310,-978 L954,-214 L530,-742 L418,-462 L174,-230 Z" stroke-width="0" fill="#ebebfe" fill-opacity="0.8470588235294118" />
<path d="M538,-386 L402,-814 L482,-586 L770,-218 L618,-474 L726,-1278 Z" stroke-width="0" fill="#ce2d47" fill-opacity="0.7803921568627451" />
<path d="M138,-282 L378,-946 L914,-1062 L622,-406 L342,-758 L238,-718 Z" stroke-width="0" fill="#ba241f" fill-opacity="0.5882352941176471" />
<path d="M146,-226 L786,-530 L590,-962 L406,-1110 L390,-1058 L962,-426 Z" stroke-width="0" fill="#f6fafa" fill-opacity="0.3568627450980392" />
<path d="M858,-1230 L358,-362 L830,-1162 L238,-1058 L542,-242 L730,-854 Z" stroke-width="0" fill="#ad1e2f" fill-opacity="0.7372549019607844" />
<path d="M358,-338 L258,-946 L526,-422 L394,-702 L514,-762 L682,-182 Z" stroke-width="0" fill="#f9b6d7" fill-opacity="0.050980392156862744" />
<path d="M566,-706 L142,-1090 L978,-830 L974,-802 L218,-514 L714,-350 Z" stroke-width="0" fill="#9b131f" fill-opacity="0.13333333333333333" />
<path d="M602,-166 L414,-534 L158,-522 L622,-870 L482,-562 L286,-550 Z" stroke-width="0" fill="#cf7340" fill-opacity="0.4588235294117647" />
<path d="M454,-1206 L378,-1102 L262,-402 L326,-826 L922,-514 L378,-982 Z" stroke-width="0" fill="#d3ebd5" fill-opacity="0.35294117647058826" />
<path d="M602,-598 L334,-618 L682,-190 L690,-350 L418,-542 L602,-690 Z" stroke-width="0" fill="#a35068" fill-opacity="0.3411764705882353" />
<path d="M686,-858 L598,-870 L194,-546 L378,-490 L342,-138 L750,-562 Z" stroke-width="0" fill="#cd5f71" fill-opacity="0.26666666666666666" />
<path d="M166,-1018 L938,-966 L462,-466 L270,-1130 L978,-378 L466,-450 Z" stroke-width="0" fill="#e65d70" fill-opacity="0.10588235294117647" />
<path d="M622,-1086 L382,-618 L526,-322 L278,-1162 L710,-134 L890,-1210 Z" stroke-width="0" fill="#f97869" fill-opacity="0.4666666666666667" />
<path d="M210,-834 L90,-842 L682,-1238 L434,-170 L626,-654 L394,-270 Z" stroke-width="0" fill="#cd6028" fill-opacity="0.5019607843137255" />
<path d="M574,-710 L150,-162 L238,-846 L558,-162 L310,-462 L806,-870 Z" stroke-width="0" fill="#d20e18" fill-opacity="0.6862745098039216" />
<path d="M90,-162 L682,-682 L578,-570 L350,-958 L486,-646 L538,-178 Z" stroke-width="0" fill="#4b080f" fill-opacity="0.10980392156862745" />
<path d="M694,-1238 L418,-730 L606,-350 L262,-738 L558,-1214 L794,-402 Z" stroke-width="0" fill="#e1767c" fill-opacity="0.4549019607843137" />
<path d="M406,-478 L698,-786 L530,-610 L630,-162 L526,-90 L254,-270 Z" stroke-width="0" fill="#eb1519" fill-opacity="0.5882352941176471" />
<path d="M502,-1230 L798,-150 L594,-738 L458,-826 L478,-794 L146,-506 Z" stroke-width="0" fill="#cc58cb" fill-opacity="0.9333333333333333" />
<path d="M346,-1226 L682,-390 L242,-570 L182,-322 L394,-1242 L722,-566 Z" stroke-width="0" fill="#bb375a" fill-opacity="0.4470588235294118" />
<path d="M642,-226 L766,-1210 L758,-526 L710,-770 L274,-814 L262,-546 Z" stroke-width="0" fill="#d2382e" fill-opacity="0.39215686274509803" />
<path d="M654,-1126 L642,-102 L90,-1118 L246,-666 L134,-414 L814,-530 Z" stroke-width="0" fill="#cb7392" fill-opacity="0.3058823529411765" />
<path d="M742,-718 L886,-1214 L494,-690 L778,-254 L890,-578 L470,-154 Z" stroke-width="0" fill="#54ac8b" fill-opacity="0.00392156862745098" />
<path d="M658,-726 L178,-354 L174,-826 L890,-246 L906,-578 L566,-222 Z" stroke-width="0" fill="#d1e6e8" fill-opacity="0.26666666666666666" />
<path d="M838,-1046 L450,-514 L494,-738 L438,-142 L250,-302 L238,-670 Z" stroke-width="0" fill="#d25014" fill-opacity="0.2235294117647059" />
<path d="M386,-98 L702,-494 L754,-598 L458,-338 L734,-318 L258,-1258 Z" stroke-width="0" fill="#c33950" fill-opacity="0.6352941176470588" />
<path d="M866,-538 L978,-806 L834,-398 L98,-806 L810,-582 L934,-610 Z" stroke-width="0" fill="#c2fde6" fill-opacity="0.7803921568627451" />
<path d="M946,-1234 L322,-490 L434,-138 L646,-270 L222,-650 L626,-874 Z" stroke-width="0" fill="#f32d38" fill-opacity="0.47843137254901963" />
<path d="M514,-962 L254,-118 L98,-1254 L222,-1086 L842,-830 L610,-1150 Z" stroke-width="0" fill="#e24464" fill-opacity="0.49019607843137253" />
<path d="M510,-1050 L122,-1106 L846,-178 L678,-658 L122,-558 L698,-1062 Z" stroke-width="0" fill="#d6b18b" fill-opacity="0.2784313725490196" />
<path d="M514,-422 L350,-990 L818,-862 L494,-1034 L694,-718 L946,-346 Z" stroke-width="0" fill="#f7c9df" fill-opacity="0.16470588235294117" />
<path d="M690,-294 L838,-142 L462,-286 L614,-938 L274,-366 L202,-450 Z" stroke-width="0" fill="#db3e4e" fill-opacity="0.6549019607843137" />
<path d="M686,-1278 L634,-226 L114,-586 L350,-1022 L702,-842 L530,-1202 Z" stroke-width="0" fill="#ce1c1d" fill-opacity="0.3686274509803922" />
<path d="M814,-290 L314,-538 L834,-866 L902,-278 L758,-1018 L730,-946 Z" stroke-width="0" fill="#e4f8f4" fill-opacity="0.1450980392156863" />
<path d="M522,-602 L82,-578 L830,-394 L654,-570 L530,-1158 L314,-1190 Z" stroke-width="0" fill="#de5535" fill-opacity="0.6627450980392157" />
<path d="M486,-1114 L770,-550 L546,-86 L398,-126 L114,-394 L418,-958 Z" stroke-width="0" fill="#de8280" fill-opacity="0.5019607843137255" />
<path d="M734,-446 L154,-886 L110,-1242 L758,-694 L558,-1154 L674,-346 Z" stroke-width="0" fill="#ee3e51" fill-opacity="0.25882352941176473" />
<path d="M298,-1010 L178,-446 L746,-746 L478,-778 L582,-954 L602,-454 Z" stroke-width="0" fill="#d5594e" fill-opacity="0.5294117647058824" />
<path d="M574,-250 L818,-766 L398,-386 L658,-506 L578,-170 L606,-914 Z" stroke-width="0" fill="#c796e8" fill-opacity="0.0196078431372549" />
<text x="448.0" y="0" font-size="70.0" fill="black" text-anchor="middle" transform="translate(0,17.5)">7 OF WATER</text>
</svg>