<?xml version="1.0" encoding="UTF-8"?>
<svg xmlns="http://www.w3.org/2000/svg" xmlns:xlink="http://www.w3.org/1999/xlink"
     width="896" height="1496" viewBox="0 -1400 896 1496" style="font-size:70;font-family:Poor Richard, Times New Roman;stroke:black;stroke-width:1;fill:none">
<defs>
</defs>
<path d="M110,-486 L506,-102 L138,-82 L462,-774 L638,-198 L218,-582 Z" stroke-width="0" fill="#7a2300" fill-opacity="0.6470588235294118" />
<path d="M302,-274 L98,-482 L294,-350 L606,-734 L650,-150 L194,-762 Z" stroke-width="0" fill="#36467d" fill-opacity="0.5019607843137255" />
<path d="M230,-154 L534,-1106 L174,-854 L154,-978 L634,-966 L510,-174 Z" stroke-width="0" fill="#0044c9" fill-opacity="0.7294117647058823" />
<path d="M286,-834 L142,-134 L382,-138 L518,-562 L242,-242 L150,-666 Z" stroke-width="0" fill="#00000f" fill-opacity="0.9294117647058824" />
<path d="M186,-1262 L98,-266 L310,-670 L250,-734 L250,-142 L150,-286 Z" stroke-width="0" fill="#3a1323" fill-opacity="0.4666666666666667" />
<path d="M222,-914 L714,-846 L198,-958 L346,-638 L474,-430 L486,-1294 Z" stroke-width="0" fill="#b672e0" fill-opacity="0.2627450980392157" />
<path d="M586,-82 L630,-1150 L390,-742 L610,-226 L154,-1010 L430,-702 Z" stroke-width="0" fill="#790c00" fill-opacity="0.6431372549019608" />
<path d="M638,-562 L402,-594 L458,-282 L138,-978 L190,-166 L610,-1270 Z" stroke-width="0" fill="#530500" fill-opacity="0.8235294117647058" />
<path d="M98,-462 L582,-234 L394,-1286 L154,-318 L750,-290 L322,-854 Z" stroke-width="0" fill="#5f7ca3" fill-opacity="0.8274509803921568" />
<path d="M590,-326 L746,-734 L350,-1006 L582,-454 L134,-642 L550,-726 Z" stroke-width="0" fill="#000100" fill-opacity="0.9411764705882353" />
<path d="M450,-722 L634,-1230 L246,-390 L706,-542 L434,-162 L226,-878 Z" stroke-width="0" fill="#c1706a" fill-opacity="1.0" />
<path d="M490,-478 L742,-534 L398,-334 L158,-1002 L766,-550 L330,-598 Z" stroke-width="0" fill="#edffe3" fill-opacity="0.8666666666666667" />
<path d="M178,-522 L474,-1082 L282,-938 L426,-650 L722,-1050 L178,-690 Z" stroke-width="0" fill="#173108" fill-opacity="0.9686274509803922" />
<path d="M414,-566 L782,-106 L442,-186 L546,-730 L426,-694 L638,-478 Z" stroke-width="0" fill="#ab0000" fill-opacity="0.7254901960784313" />
<path d="M230,-1298 L154,-386 L558,-1106 L370,-970 L642,-258 L170,-278 Z" stroke-width="0" fill="#220000" fill-opacity="0.5019607843137255" />
<path d="M738,-130 L270,-1102 L242,-214 L770,-1014 L238,-542 L486,-986 Z" stroke-width="0" fill="#266e12" fill-opacity="0.7254901960784313" />
<path d="M234,-478 L566,-486 L146,-574 L758,-1174 L318,-510 L590,-82 Z" stroke-width="0" fill="#a26c0d" fill-opacity="0.13725490196078433" />
<path d="M494,-338 L666,-318 L654,-486 L230,-262 L254,-666 L610,-590 Z" stroke-width="0" fill="#25aa84" fill-opacity="0.06666666666666667" />
<path d="M150,-342 L278,-314 L618,-382 L82,-194 L618,-226 L122,-274 Z" stroke-width="0" fill="#3d1300" fill-opacity="0.9607843137254902" />
<path d="M326,-1118 L510,-102 L602,-378 L622,-1006 L446,-318 L794,-814 Z" stroke-width="0" fill="#9f4b35" fill-opacity="0.7176470588235294" />
<path d="M322,-1266 L658,-970 L718,-234 L210,-1266 L154,-1114 L402,-1134 Z" stroke-width="0" fill="#4e274d" fill-opacity="0.615686274509804" />
<path d="M246,-490 L714,-1022 L306,-1126 L518,-314 L730,-314 L282,-122 Z" stroke-width="0" fill="#090252" fill-opacity="0.5725490196078431" />
<path d="M482,-658 L690,-874 L746,-1162 L694,-638 L666,-174 L254,-1206 Z" stroke-width="0" fill="#f16d1d" fill-opacity="0.03529411764705882" />
<path d="M550,-418 L154,-1170 L186,-1026 L90,-862 L378,-1290 L530,-670 Z" stroke-width="0" fill="#2e2991" fill-opacity="0.5372549019607843" />
<path d="M510,-1246 L130,-798 L370,-646 L282,-878 L482,-1066 L494,-178 Z" stroke-width="0" fill="#eee9f1" fill-opacity="0.6470588235294118" />
<path d="M134,-442 L374,-530 L650,-682 L170,-334 L478,-854 L470,-202 Z" stroke-width="0" fill="#0c04bb" fill-opacity="0.6588235294117647" />
<path d="M342,-914 L638,-338 L754,-586 L366,-450 L114,-770 L802,-1166 Z" stroke-width="0" fill="#f2e2e7" fill-opacity="0.5529411764705883" />
<path d="M134,-678 L454,-674 L282,-470 L458,-786 L366,-770 L590,-1010 Z" stroke-width="0" fill="#aa09f5" fill-opacity="0.3137254901960784" />
<path d="M114,-410 L146,-662 L654,-1258 L590,-102 L606,-1222 L418,-1078 Z" stroke-width="0" fill="#200000" fill-opacity="0.5098039215686274" />
<path d="M750,-134 L806,-266 L386,-302 L526,-390 L186,-1146 L410,-150 Z" stroke-width="0" fill="#123607" fill-opacity="0.9098039215686274" />
<path d="M750,-1266 L718,-614 L326,-286 L526,-766 L278,-206 L382,-642 Z" stroke-width="0" fill="#b30d00" fill-opacity="0.2901960784313726" />
<path d="M538,-802 L514,-678 L278,-526 L422,-1282 L102,-1126 L610,-1166 Z" stroke-width="0" fill="#e7e4b6" fill-opacity="0.6823529411764706" />
<path d="M138,-1178 L346,-398 L442,-142 L174,-218 L82,-414 L738,-1102 Z" stroke-width="0" fill="#d0676f" fill-opacity="0.24705882352941178" />
<path d="M538,-86 L526,-390 L542,-882 L722,-1078 L430,-666 L122,-298 Z" stroke-width="0" fill="#120000" fill-opacity="0.6039215686274509" />
<path d="M150,-998 L546,-166 L562,-322 L214,-782 L794,-202 L702,-626 Z" stroke-width="0" fill="#6e358c" fill-opacity="0.5098039215686274" />
<path d="M674,-870 L522,-862 L514,-182 L386,-1222 L378,-610 L82,-190 Z" stroke-width="0" fill="#9f670e" fill-opacity="0.7137254901960784" />
<path d="M410,-830 L566,-1298 L366,-1242 L774,-622 L394,-318 L166,-514 Z" stroke-width="0" fill="#a97b6f" fill-opacity="0.6235294117647059" />
<path d="M690,-94 L402,-1014 L710,-702 L506,-1170 L574,-678 L374,-690 Z" stroke-width="0" fill="#b04631" fill-opacity="0.788235294117647" />
<path d="M754,-194 L750,-310 L194,-414 L186,-534 L438,-450 L466,-898 Z" stroke-width="0" fill="#005741" fill-opacity="0.6" />
<path d="M302,-594 L338,-874 L526,-446 L242,-406 L150,-1074 L106,-170 Z" stroke-width="0" fill="#5d2f54" fill-opacity="0.803921568627451" />
<path d="M394,-970 L90,-326 L342,-670 L478,-730 L230,-826 L626,-166 Z" stroke-width="0" fill="#1a4951" fill-opacity="0.8666666666666667" />
<path d="M346,-418 L290,-310 L538,-886 L310,-294 L362,-582 L710,-830 Z" stroke-width="0" fill="#761f3f" fill-opacity="0.047058823529411764" />
<path d="M398,-1202 L114,-918 L722,-638 L238,-330 L206,-1206 L314,-982 Z" stroke-width="0" fill="#2f36b6" fill-opacity="0.13333333333333333" />
<path d="M522,-106 L310,-1054 L250,-510 L574,-930 L606,-698 L438,-954 Z" stroke-width="0" fill="#b661bb" fill-opacity="0.0" />
<path d="M526,-830 L734,-94 L486,-1090 L394,-206 L526,-122 L202,-1210 Z" stroke-width="0" fill="#b04964" fill-opacity="0.2980392156862745" />
<path d="M142,-1018 L770,-350 L714,-918 L478,-562 L506,-790 L478,-714 Z" stroke-width="0" fill="#ce623b" fill-opacity="0.1450980392156863" />
<path d="M414,-774 L626,-166 L750,-242 L174,-390 L602,-890 L634,-1158 Z" stroke-width="0" fill="#4c9249" fill-opacity="0.06274509803921569" />
<path d="M82,-82 L622,-222 L262,-350 L566,-846 L378,-470 L222,-286 Z" stroke-width="0" fill="#332000" fill-opacity="0.5019607843137255" />
<path d="M450,-134 L706,-314 L158,-846 L330,-518 L310,-234 L630,-1266 Z" stroke-width="0" fill="#001225" fill-opacity="0.592156862745098" />
<path d="M266,-1270 L754,-870 L566,-158 L446,-550 L138,-642 L270,-662 Z" stroke-width="0" fill="#1b1a00" fill-opacity="0.14901960784313725" />
<path d="M122,-678 L474,-306 L578,-138 L326,-1302 L522,-606 L710,-698 Z" stroke-width="0" fill="#405659" fill-opacity="0.33725490196078434" />
<path d="M434,-906 L294,-506 L562,-322 L354,-338 L578,-734 L146,-570 Z" stroke-width="0" fill="#000018" fill-opacity="0.8235294117647058" />
<path d="M150,-606 L694,-142 L274,-1246 L194,-966 L638,-118 L618,-1158 Z" stroke-width="0" fill="#b9652a" fill-opacity="0.1843137254901961" />
<path d="M478,-770 L390,-646 L146,-318 L498,-1110 L426,-570 L370,-558 Z" stroke-width="0" fill="#dfe38f" fill-opacity="0.34509803921568627" />
<path d="M338,-722 L322,-534 L262,-858 L730,-746 L702,-1078 L134,-274 Z" stroke-width="0" fill="#912c1c" fill-opacity="0.5372549019607843" />
<path d="M382,-526 L622,-606 L438,-366 L158,-182 L418,-590 L274,-782 Z" stroke-width="0" fill="#106512" fill-opacity="0.2549019607843137" />
<path d="M566,-918 L286,-830 L226,-550 L358,-378 L326,-1230 L98,-842 Z" stroke-width="0" fill="#dbb4c2" fill-opacity="0.7215686274509804" />
<path d="M762,-430 L774,-1030 L518,-1182 L362,-1202 L86,-822 L242,-534 Z" stroke-width="0" fill="#d49ab5" fill-opacity="0.9019607843137255" />
<path d="M290,-234 L398,-622 L342,-118 L310,-690 L354,-274 L670,-446 Z" stroke-width="0" fill="#18000c" fill-opacity="0.9882352941176471" />
<path d="M542,-830 L670,-1250 L386,-846 L266,-218 L246,-102 L178,-1110 Z" stroke-width="0" fill="#f98d10" fill-opacity="0.0784313725490196" />
<path d="M230,-718 L610,-290 L178,-154 L786,-186 L806,-790 L510,-134 Z" stroke-width="0" fill="#00001e" fill-opacity="0.5019607843137255" />
<path d="M582,-346 L270,-602 L322,-114 L750,-410 L318,-966 L758,-530 Z" stroke-width="0" fill="#14aac6" fill-opacity="0.13725490196078433" />
<path d="M134,-366 L222,-1098 L142,-862 L446,-1046 L238,-90 L270,-974 Z" stroke-width="0" fill="#0e345e" fill-opacity="0.1411764705882353" />
<path d="M102,-542 L154,-690 L446,-154 L394,-210 L270,-438 L322,-818 Z" stroke-width="0" fill="#1f3a2a" fill-opacity="0.6509803921568628" />
<path d="M146,-634 L150,-322 L174,-458 L722,-266 L530,-326 L86,-1010 Z" stroke-width="0" fill="#04001f" fill-opacity="0.5019607843137255" />
<path d="M166,-230 L266,-506 L222,-254 L630,-510 L418,-934 L250,-174 Z" stroke-width="0" fill="#010000" fill-opacity="0.9372549019607843" />
<path d="M514,-902 L690,-294 L566,-686 L782,-158 L406,-182 L126,-1230 Z" stroke-width="0" fill="#0c1f2d" fill-opacity="0.3764705882352941" />
<path d="M334,-210 L650,-574 L214,-158 L550,-1070 L110,-1166 L414,-330 Z" stroke-width="0" fill="#ffe0dc" fill-opacity="0.24313725490196078" />
<path d="M650,-158 L470,-382 L434,-646 L90,-1038 L534,-446 L654,-190 Z" stroke-width="0" fill="#356642" fill-opacity="0.2980392156862745" />
<path d="M474,-246 L598,-490 L110,-418 L710,-766 L662,-666 L350,-522 Z" stroke-width="0" fill="#000c2d" fill-opacity="0.2784313725490196" />
<path d="M430,-690 L362,-890 L414,-526 L170,-98 L638,-1002 L114,-638 Z" stroke-width="0" fill="#000eca" fill-opacity="0.10196078431372549" />
<path d="M490,-1050 L546,-922 L590,-1178 L438,-462 L722,-670 L398,-910 Z" stroke-width="0" fill="#391d6d" fill-opacity="0.20392156862745098" />
<path d="M182,-1174 L110,-894 L370,-1042 L130,-370 L134,-126 L630,-446 Z" stroke-width="0" fill="#100906" fill-opacity="0.5019607843137255" />
<path d="M438,-530 L350,-930 L470,-1206 L158,-762 L202,-278 L410,-178 Z" stroke-width="0" fill="#002e5b" fill-opacity="0.00392156862745098" />
<path d="M662,-898 L230,-966 L126,-294 L486,-1266 L226,-1134 L198,-786 Z" stroke-width="0" fill="#e7def6" fill-opacity="0.28627450980392155" />
<path d="M138,-314 L494,-294 L370,-430 L446,-946 L574,-726 L802,-1234 Z" stroke-width="0" fill="#66dc84" fill-opacity="0.043137254901960784" />
<path d="M666,-318 L450,-234 L294,-1270 L766,-866 L430,-346 L706,-230 Z" stroke-width="0" fill="#f6fb30" fill-opacity="0.03529411764705882" />
<path d="M674,-826 L662,-650 L242,-438 L98,-578 L602,-550 L594,-1230 Z" stroke-width="0" fill="#f2af90" fill-opacity="0.27058823529411763" />
<path d="M450,-650 L534,-234 L674,-830 L414,-198 L746,-234 L98,-350 Z" stroke-width="0" fill="#170004" fill-opacity="0.12941176470588237" />
<path d="M134,-98 L658,-198 L226,-158 L730,-1010 L482,-882 L430,-1202 Z" stroke-width="0" fill="#2fed2d" fill-opacity="0.043137254901960784" />
<path d="M94,-646 L746,-750 L594,-454 L470,-254 L174,-146 L430,-1270 Z" stroke-width="0" fill="#0c2e64" fill-opacity="0.10980392156862745" />
<path d="M142,-1294 L346,-1014 L234,-698 L742,-210 L102,-298 L482,-198 Z" stroke-width="0" fill="#96724c" fill-opacity="0.00392156862745098" />
<path d="M270,-566 L430,-1130 L314,-238 L418,-182 L506,-186 L630,-818 Z" stroke-width="0" fill="#0d0000" fill-opacity="0.08235294117647059" />
<path d="M758,-446 L82,-730 L214,-1274 L314,-422 L394,-642 L342,-446 Z" stroke-width="0" fill="#88a09e" fill-opacity="0.3607843137254902" />
<path d="M530,-742 L810,-98 L542,-558 L282,-298 L438,-1030 L794,-614 Z" stroke-width="0" fill="#0b060b" fill-opacity="0.23137254901960785" />
<path d="M574,-342 L302,-742 L630,-502 L462,-538 L566,-634 L462,-758 Z" stroke-width="0" fill="#000200" fill-opacity="0.7372549019607844" />
<path d="M354,-586 L158,-366 L130,-270 L806,-106 L158,-910 L146,-1074 Z" stroke-width="0" fill="#000835" fill-opacity="0.36470588235294116" />
<path d="M542,-222 L626,-426 L566,-998 L578,-1110 L462,-434 L278,-1010 Z" stroke-width="0" fill="#001825" fill-opacity="0.0196078431372549" />
<path d="M658,-974 L642,-214 L422,-426 L674,-1014 L770,-970 L370,-782 Z" stroke-width="0" fill="#010425" fill-opacity="0.1450980392156863" />
<path d="M362,-558 L206,-738 L594,-670 L530,-114 L190,-1122 L774,-842 Z" stroke-width="0" fill="#39454c" fill-opacity="0.011764705882352941" />
<path d="M786,-362 L274,-542 L154,-654 L282,-1038 L214,-1062 L322,-782 Z" stroke-width="0" fill="#001119" fill-opacity="0.4627450980392157" />
<path d="M306,-530 L550,-458 L178,-510 L334,-946 L434,-390 L486,-1094 Z" stroke-width="0" fill="#1b006a" fill-opacity="0.5019607843137255" />
<path d="M82,-138 L118,-498 L502,-530 L186,-1034 L362,-914 L98,-138 Z" stroke-width="0" fill="#0a022e" fill-opacity="0.5098039215686274" />
<path d="M550,-446 L538,-718 L498,-170 L322,-914 L382,-922 L310,-710 Z" stroke-width="0" fill="#000526" fill-opacity="0.1803921568627451" />
<path d="M106,-474 L570,-618 L558,-722 L214,-198 L170,-1222 L486,-566 Z" stroke-width="0" fill="#00216c" fill-opacity="0.08235294117647059" />
<path d="M506,-174 L250,-546 L266,-1286 L362,-146 L166,-946 L342,-310 Z" stroke-width="0" fill="#004432" fill-opacity="0.17254901960784313" />
<path d="M554,-1198 L682,-930 L278,-450 L218,-858 L474,-686 L94,-562 Z" stroke-width="0" fill="#569103" fill-opacity="0.0196078431372549" />
<path d="M218,-370 L590,-570 L586,-1270 L794,-978 L458,-862 L122,-1226 Z" stroke-width="0" fill="#102e38" fill-opacity="0.41568627450980394" />
<path d="M418,-154 L546,-730 L226,-202 L186,-406 L142,-690 L398,-1154 Z" stroke-width="0" fill="#00275c" fill-opacity="0.050980392156862744" />
<path d="M158,-490 L638,-650 L450,-462 L254,-374 L454,-878 L482,-898 Z" stroke-width="0" fill="#091d26" fill-opacity="0.615686274509804" />
<text x="448.0" y="0" font-size="70.0" fill="black" text-anchor="middle" transform="translate(0,17.5)">4 OF WATER</text>
</svg>