<?xml version="1.0" encoding="UTF-8"?>
<svg xmlns="http://www.w3.org/2000/svg" xmlns:xlink="http://www.w3.org/1999/xlink"
     width="896" height="1496" viewBox="0 -1400 896 1496" style="font-size:70;font-family:Poor Richard, Times New Roman;stroke:black;stroke-width:1;fill:none">
<defs>
</defs>
<path d="M234,-146 L322,-198 L798,-106 L414,-1002 L210,-358 L538,-814 Z" stroke-width="0" fill="#000000" fill-opacity="0.6901960784313725" />
<path d="M178,-1150 L502,-310 L546,-486 L234,-454 L442,-1022 L130,-1070 Z" stroke-width="0" fill="#340937" fill-opacity="0.24705882352941178" />
<path d="M506,-142 L594,-562 L326,-362 L734,-1290 L414,-690 L602,-814 Z" stroke-width="0" fill="#279b16" fill-opacity="0.18823529411764706" />
<path d="M422,-578 L422,-1054 L354,-806 L206,-626 L134,-630 L142,-406 Z" stroke-width="0" fill="#a9f79a" fill-opacity="0.7176470588235294" />
<path d="M310,-1190 L342,-1298 L450,-950 L282,-354 L242,-98 L526,-922 Z" stroke-width="0" fill="#e5eccb" fill-opacity="0.023529411764705882" />
<path d="M94,-1218 L374,-142 L82,-474 L314,-1242 L146,-974 L106,-978 Z" stroke-width="0" fill="#32002d" fill-opacity="0.5137254901960784" />
<path d="M598,-498 L366,-678 L454,-774 L426,-902 L634,-418 L498,-422 Z" stroke-width="0" fill="#1e7281" fill-opacity="0.49019607843137253" />
<path d="M682,-338 L302,-134 L442,-1114 L166,-258 L106,-550 L438,-870 Z" stroke-width="0" fill="#a0002b" fill-opacity="0.7607843137254902" />
<path d="M130,-846 L190,-1010 L230,-1238 L762,-918 L562,-530 L418,-1234 Z" stroke-width="0" fill="#efe1f8" fill-opacity="0.050980392156862744" />
<path d="M242,-366 L550,-414 L738,-270 L302,-398 L218,-450 L626,-534 Z" stroke-width="0" fill="#58582d" fill-opacity="0.9294117647058824" />
<path d="M730,-1274 L358,-114 L322,-562 L594,-742 L530,-1026 L474,-990 Z" stroke-width="0" fill="#9c7378" fill-opacity="0.4588235294117647" />
<path d="M326,-706 L650,-126 L406,-426 L646,-298 L638,-146 L210,-522 Z" stroke-width="0" fill="#020e09" fill-opacity="0.9058823529411765" />
<path d="M298,-398 L194,-742 L582,-1102 L794,-1270 L130,-638 L494,-402 Z" stroke-width="0" fill="#6e907c" fill-opacity="0.28627450980392155" />
<path d="M550,-654 L538,-1086 L374,-146 L374,-438 L318,-806 L778,-710 Z" stroke-width="0" fill="#000f9a" fill-opacity="0.8901960784313725" />
<path d="M454,-502 L738,-590 L330,-186 L754,-382 L166,-354 L642,-242 Z" stroke-width="0" fill="#09dc13" fill-opacity="0.1568627450980392" />
<path d="M766,-1082 L322,-934 L798,-498 L714,-742 L410,-1086 L718,-858 Z" stroke-width="0" fill="#012900" fill-opacity="0.5568627450980392" />
<path d="M514,-146 L206,-398 L594,-730 L514,-638 L182,-682 L734,-178 Z" stroke-width="0" fill="#320400" fill-opacity="0.4980392156862745" />
<path d="M350,-1230 L594,-910 L434,-686 L198,-454 L242,-398 L718,-1010 Z" stroke-width="0" fill="#f4f6e5" fill-opacity="0.00784313725490196" />
<path d="M602,-594 L190,-602 L402,-1106 L506,-170 L622,-862 L254,-606 Z" stroke-width="0" fill="#dcf7f2" fill-opacity="0.08627450980392157" />
<path d="M530,-706 L470,-634 L170,-1034 L322,-918 L142,-734 L750,-730 Z" stroke-width="0" fill="#0b0407" fill-opacity="0.7058823529411765" />
<path d="M146,-294 L222,-1162 L610,-294 L454,-410 L398,-758 L506,-1042 Z" stroke-width="0" fill="#e470b4" fill-opacity="0.5803921568627451" />
<path d="M138,-882 L130,-990 L338,-422 L358,-786 L150,-722 L770,-786 Z" stroke-width="0" fill="#73f2e1" fill-opacity="0.27450980392156865" />
<path d="M530,-102 L86,-490 L338,-958 L170,-446 L162,-606 L326,-834 Z" stroke-width="0" fill="#000f11" fill-opacity="0.6901960784313725" />
<path d="M642,-578 L274,-590 L586,-1230 L394,-538 L578,-630 L322,-266 Z" stroke-width="0" fill="#73d4bc" fill-opacity="0.25882352941176473" />
<path d="M326,-638 L742,-1042 L790,-178 L242,-1174 L682,-606 L150,-786 Z" stroke-width="0" fill="#1c0e18" fill-opacity="0.7372549019607844" />
<path d="M574,-222 L386,-634 L222,-1234 L166,-434 L482,-326 L146,-454 Z" stroke-width="0" fill="#d4bde8" fill-opacity="0.6196078431372549" />
<path d="M718,-246 L298,-1230 L214,-946 L650,-226 L362,-310 L426,-458 Z" stroke-width="0" fill="#e7f3c5" fill-opacity="0.7058823529411765" />
<path d="M562,-706 L302,-1046 L146,-1010 L166,-98 L490,-290 L410,-898 Z" stroke-width="0" fill="#400351" fill-opacity="0.8196078431372549" />
<path d="M102,-318 L478,-606 L134,-406 L106,-1242 L774,-662 L170,-1182 Z" stroke-width="0" fill="#3a0040" fill-opacity="0.45098039215686275" />
<path d="M402,-998 L742,-350 L178,-1078 L142,-490 L754,-1022 L762,-870 Z" stroke-width="0" fill="#938db3" fill-opacity="0.7843137254901961" />
<path d="M462,-666 L186,-1054 L594,-394 L98,-426 L114,-734 L258,-298 Z" stroke-width="0" fill="#29001d" fill-opacity="0.8705882352941177" />
<path d="M486,-702 L298,-1290 L298,-198 L314,-318 L658,-766 L226,-326 Z" stroke-width="0" fill="#dbe4cd" fill-opacity="0.07058823529411765" />
<path d="M282,-134 L542,-534 L570,-418 L686,-202 L482,-1050 L498,-794 Z" stroke-width="0" fill="#8b6b59" fill-opacity="0.4745098039215686" />
<path d="M114,-506 L318,-270 L142,-1294 L358,-1190 L286,-222 L122,-246 Z" stroke-width="0" fill="#9b3a53" fill-opacity="0.08627450980392157" />
<path d="M590,-142 L514,-774 L406,-1210 L142,-1010 L686,-94 L638,-290 Z" stroke-width="0" fill="#c1f7d2" fill-opacity="0.23921568627450981" />
<path d="M214,-678 L178,-82 L650,-694 L382,-1210 L774,-758 L114,-458 Z" stroke-width="0" fill="#6e725b" fill-opacity="0.0392156862745098" />
<path d="M286,-554 L766,-354 L654,-982 L494,-970 L418,-130 L678,-1026 Z" stroke-width="0" fill="#8a6286" fill-opacity="0.9529411764705882" />
<path d="M334,-934 L486,-1058 L362,-1018 L202,-1274 L374,-1102 L342,-1058 Z" stroke-width="0" fill="#3030ad" fill-opacity="0.0" />
<path d="M390,-94 L566,-1178 L498,-730 L402,-662 L458,-1150 L190,-726 Z" stroke-width="0" fill="#f8dbf9" fill-opacity="0.3843137254901961" />
<path d="M278,-742 L594,-1046 L242,-886 L146,-842 L226,-982 L294,-530 Z" stroke-width="0" fill="#88e1e5" fill-opacity="0.5019607843137255" />
<path d="M222,-934 L690,-638 L710,-1138 L122,-406 L130,-106 L122,-602 Z" stroke-width="0" fill="#370020" fill-opacity="0.8352941176470589" />
<path d="M130,-1106 L682,-938 L86,-526 L462,-202 L234,-698 L718,-534 Z" stroke-width="0" fill="#de0064" fill-opacity="0.09411764705882353" />
<path d="M510,-458 L570,-654 L362,-658 L474,-102 L538,-90 L526,-682 Z" stroke-width="0" fill="#260f5d" fill-opacity="0.9411764705882353" />
<path d="M570,-1290 L666,-434 L166,-802 L418,-426 L518,-750 L342,-966 Z" stroke-width="0" fill="#a4bebb" fill-opacity="0.09803921568627451" />
<path d="M710,-258 L322,-90 L478,-970 L86,-1090 L694,-774 L86,-1026 Z" stroke-width="0" fill="#9c679a" fill-opacity="0.796078431372549" />
<path d="M222,-606 L510,-558 L314,-662 L574,-1238 L166,-790 L298,-570 Z" stroke-width="0" fill="#fae4e8" fill-opacity="0.1450980392156863" />
<path d="M422,-450 L218,-82 L378,-882 L390,-786 L94,-730 L758,-958 Z" stroke-width="0" fill="#a89c8e" fill-opacity="0.9607843137254902" />
<path d="M654,-830 L338,-122 L410,-758 L490,-662 L486,-242 L602,-1290 Z" stroke-width="0" fill="#4fcac8" fill-opacity="0.2196078431372549" />
<path d="M546,-490 L278,-274 L686,-330 L414,-438 L554,-962 L366,-1110 Z" stroke-width="0" fill="#fcf8e7" fill-opacity="0.8941176470588236" />
<path d="M278,-426 L306,-1122 L254,-678 L666,-390 L274,-850 L590,-754 Z" stroke-width="0" fill="#fcfcf5" fill-opacity="0.9607843137254902" />
<path d="M578,-390 L334,-870 L246,-770 L646,-1038 L466,-878 L722,-234 Z" stroke-width="0" fill="#774e29" fill-opacity="0.8470588235294118" />
<path d="M622,-350 L570,-294 L246,-662 L806,-650 L186,-1218 L486,-290 Z" stroke-width="0" fill="#db8fe7" fill-opacity="0.3058823529411765" />
<path d="M622,-386 L310,-674 L82,-346 L490,-682 L610,-874 L566,-382 Z" stroke-width="0" fill="#000000" fill-opacity="0.7647058823529411" />
<path d="M150,-590 L638,-682 L770,-1306 L98,-1010 L798,-186 L302,-286 Z" stroke-width="0" fill="#571c65" fill-opacity="0.14901960784313725" />
<path d="M654,-102 L102,-386 L614,-466 L666,-654 L318,-774 L334,-586 Z" stroke-width="0" fill="#010009" fill-opacity="0.6627450980392157" />
<path d="M658,-726 L582,-490 L266,-234 L654,-742 L114,-1018 L94,-1298 Z" stroke-width="0" fill="#a8bdbf" fill-opacity="0.4470588235294118" />
<path d="M566,-130 L566,-482 L786,-598 L682,-998 L230,-1226 L334,-474 Z" stroke-width="0" fill="#eff5c8" fill-opacity="0.4470588235294118" />
<path d="M370,-102 L602,-434 L310,-122 L606,-662 L594,-1018 L178,-106 Z" stroke-width="0" fill="#000000" fill-opacity="0.788235294117647" />
<path d="M602,-110 L230,-214 L158,-170 L710,-894 L686,-634 L566,-650 Z" stroke-width="0" fill="#71385a" fill-opacity="0.788235294117647" />
<path d="M306,-550 L134,-178 L686,-862 L498,-970 L150,-486 L470,-226 Z" stroke-width="0" fill="#00468b" fill-opacity="0.08627450980392157" />
<path d="M598,-1202 L234,-306 L206,-1026 L582,-530 L206,-274 L374,-102 Z" stroke-width="0" fill="#4618a0" fill-opacity="0.14901960784313725" />
<path d="M262,-702 L466,-126 L778,-786 L222,-1302 L434,-206 L802,-1158 Z" stroke-width="0" fill="#e4f0f5" fill-opacity="0.4117647058823529" />
<path d="M190,-210 L350,-1234 L474,-566 L714,-538 L210,-970 L734,-270 Z" stroke-width="0" fill="#fbe7ff" fill-opacity="0.0392156862745098" />
<path d="M270,-378 L394,-798 L686,-738 L210,-810 L238,-366 L798,-1030 Z" stroke-width="0" fill="#6c6b93" fill-opacity="0.6745098039215687" />
<path d="M630,-242 L278,-742 L442,-102 L754,-98 L174,-870 L322,-318 Z" stroke-width="0" fill="#192b29" fill-opacity="0.8745098039215686" />
<path d="M334,-290 L422,-618 L542,-234 L126,-194 L626,-1106 L522,-370 Z" stroke-width="0" fill="#2d0016" fill-opacity="0.043137254901960784" />
<path d="M434,-974 L310,-250 L170,-818 L730,-1122 L754,-606 L98,-1294 Z" stroke-width="0" fill="#f7ffeb" fill-opacity="0.21176470588235294" />
<path d="M378,-222 L282,-354 L258,-1118 L122,-426 L558,-726 L618,-626 Z" stroke-width="0" fill="#08108b" fill-opacity="0.09019607843137255" />
<path d="M778,-1166 L574,-686 L742,-218 L326,-110 L642,-202 L230,-818 Z" stroke-width="0" fill="#123138" fill-opacity="0.4117647058823529" />
<path d="M330,-394 L794,-858 L470,-1114 L542,-742 L454,-1034 L230,-678 Z" stroke-width="0" fill="#8c98a8" fill-opacity="0.9137254901960784" />
<path d="M398,-174 L674,-158 L702,-562 L386,-734 L490,-610 L378,-506 Z" stroke-width="0" fill="#68562c" fill-opacity="0.34901960784313724" />
<path d="M166,-290 L350,-1070 L298,-98 L598,-770 L302,-366 L374,-1110 Z" stroke-width="0" fill="#97d1ce" fill-opacity="0.03529411764705882" />
<path d="M454,-486 L202,-154 L682,-422 L274,-426 L218,-358 L362,-298 Z" stroke-width="0" fill="#fd1df4" fill-opacity="0.6627450980392157" />
<path d="M346,-1066 L238,-506 L398,-278 L290,-198 L222,-966 L234,-254 Z" stroke-width="0" fill="#2611b3" fill-opacity="0.22745098039215686" />
<path d="M406,-1206 L806,-742 L698,-574 L678,-282 L274,-1170 L546,-86 Z" stroke-width="0" fill="#e1face" fill-opacity="0.3607843137254902" />
<path d="M666,-174 L390,-642 L366,-910 L330,-814 L678,-914 L546,-622 Z" stroke-width="0" fill="#f3e8d3" fill-opacity="0.15294117647058825" />
<path d="M126,-778 L154,-302 L614,-1154 L186,-918 L338,-1182 L230,-794 Z" stroke-width="0" fill="#f7e2e5" fill-opacity="0.29411764705882354" />
<path d="M302,-766 L802,-290 L378,-554 L542,-718 L242,-602 L494,-102 Z" stroke-width="0" fill="#240018" fill-opacity="0.36470588235294116" />
<path d="M746,-314 L454,-1070 L722,-638 L138,-1102 L510,-534 L134,-622 Z" stroke-width="0" fill="#a985ca" fill-opacity="0.20392156862745098" />
<path d="M538,-1110 L390,-350 L318,-790 L150,-698 L558,-562 L82,-710 Z" stroke-width="0" fill="#f7e8ba" fill-opacity="0.12156862745098039" />
<path d="M198,-590 L714,-218 L130,-466 L178,-542 L598,-542 L674,-402 Z" stroke-width="0" fill="#954c00" fill-opacity="0.12156862745098039" />
<path d="M262,-750 L406,-670 L426,-178 L98,-474 L562,-98 L102,-906 Z" stroke-width="0" fill="#0b2202" fill-opacity="0.23921568627450981" />
<path d="M386,-1246 L110,-354 L374,-86 L510,-374 L290,-738 L502,-510 Z" stroke-width="0" fill="#fcfff1" fill-opacity="0.23921568627450981" />
<path d="M510,-774 L262,-650 L610,-626 L734,-114 L338,-638 L526,-494 Z" stroke-width="0" fill="#3c5a37" fill-opacity="0.5019607843137255" />
<path d="M126,-182 L410,-142 L330,-750 L130,-262 L366,-854 L282,-822 Z" stroke-width="0" fill="#280d07" fill-opacity="0.8862745098039215" />
<path d="M542,-826 L534,-390 L110,-378 L750,-478 L746,-978 L274,-730 Z" stroke-width="0" fill="#3ca687" fill-opacity="0.15294117647058825" />
<path d="M558,-1014 L150,-646 L250,-234 L438,-662 L114,-594 L226,-950 Z" stroke-width="0" fill="#d9d4d1" fill-opacity="0.35294117647058826" />
<path d="M730,-1162 L406,-382 L258,-126 L418,-286 L102,-282 L530,-402 Z" stroke-width="0" fill="#a98ee7" fill-opacity="0.1607843137254902" />
<path d="M590,-426 L282,-954 L418,-110 L510,-1086 L186,-134 L98,-1042 Z" stroke-width="0" fill="#2e0e23" fill-opacity="0.49411764705882355" />
<path d="M662,-782 L386,-134 L278,-202 L454,-830 L414,-1102 L562,-570 Z" stroke-width="0" fill="#e4bbcd" fill-opacity="0.23921568627450981" />
<path d="M794,-1250 L354,-834 L222,-338 L326,-126 L362,-1190 L274,-182 Z" stroke-width="0" fill="#d1a9e4" fill-opacity="0.5019607843137255" />
<path d="M554,-154 L518,-666 L330,-562 L714,-218 L758,-1006 L370,-418 Z" stroke-width="0" fill="#320027" fill-opacity="0.0784313725490196" />
<path d="M282,-898 L410,-750 L90,-682 L134,-298 L506,-834 L186,-630 Z" stroke-width="0" fill="#1f463a" fill-opacity="0.5019607843137255" />
<path d="M222,-1110 L638,-414 L646,-126 L306,-730 L686,-1142 L646,-326 Z" stroke-width="0" fill="#c3c3aa" fill-opacity="0.15294117647058825" />
<path d="M474,-722 L86,-782 L426,-590 L174,-306 L130,-238 L478,-1062 Z" stroke-width="0" fill="#f972f6" fill-opacity="0.07450980392156863" />
<path d="M582,-950 L254,-1014 L154,-782 L610,-1086 L222,-1278 L562,-706 Z" stroke-width="0" fill="#bfd3e5" fill-opacity="0.03137254901960784" />
<path d="M598,-614 L562,-1138 L202,-378 L102,-558 L710,-422 L550,-254 Z" stroke-width="0" fill="#8de1f4" fill-opacity="0.1803921568627451" />
<path d="M174,-638 L382,-362 L794,-594 L274,-1314 L526,-610 L806,-410 Z" stroke-width="0" fill="#c8bbfd" fill-opacity="0.06274509803921569" />
<path d="M478,-286 L698,-1254 L130,-474 L606,-882 L646,-510 L230,-166 Z" stroke-width="0" fill="#c9e4d5" fill-opacity="0.403921568627451" />
<path d="M146,-142 L334,-230 L326,-86 L714,-474 L146,-430 L158,-762 Z" stroke-width="0" fill="#3a322b" fill-opacity="0.6588235294117647" />
<text x="448.0" y="0" font-size="70.0" fill="black" text-anchor="middle" transform="translate(0,17.5)">PAGE OF WATER</text>
</svg>