<?xml version="1.0" encoding="UTF-8"?>
<svg xmlns="http://www.w3.org/2000/svg" xmlns:xlink="http://www.w3.org/1999/xlink"
     width="275" height="375" viewBox="0 -350 275 375">
<defs>
</defs>
<rect x="15" y="-335" width="245" height="320" stroke="black" stroke-width="4" fill="white" />
<path d="M133,-52 L148,-189 L120,-26 L94,-78 L202,-284 L102,-214 Z" stroke-width="0" fill="#001f54" fill-opacity="0.8823529411764706" />
<path d="M85,-304 L88,-198 L135,-50 L181,-155 L41,-199 L136,-226 Z" stroke-width="0" fill="#b7ef9b" fill-opacity="0.35294117647058826" />
<path d="M122,-68 L43,-98 L174,-321 L249,-113 L78,-185 L184,-179 Z" stroke-width="0" fill="#35b294" fill-opacity="0.13725490196078433" />
<path d="M164,-35 L44,-208 L195,-268 L123,-149 L98,-124 L230,-264 Z" stroke-width="0" fill="#0c2503" fill-opacity="0.09411764705882353" />
<path d="M39,-162 L142,-211 L229,-77 L127,-84 L98,-212 L52,-158 Z" stroke-width="0" fill="#1d074d" fill-opacity="0.996078431372549" />
<path d="M222,-148 L102,-54 L163,-94 L157,-242 L47,-246 L212,-196 Z" stroke-width="0" fill="#84b5ee" fill-opacity="0.18823529411764706" />
<path d="M189,-238 L181,-27 L180,-199 L188,-198 L244,-78 L235,-294 Z" stroke-width="0" fill="#001f00" fill-opacity="0.24705882352941178" />
<path d="M235,-172 L155,-175 L131,-135 L35,-267 L56,-40 L241,-165 Z" stroke-width="0" fill="#8294d2" fill-opacity="0.5647058823529412" />
<path d="M198,-78 L85,-54 L187,-195 L203,-262 L178,-150 L41,-245 Z" stroke-width="0" fill="#eee9f1" fill-opacity="0.9803921568627451" />
<path d="M166,-95 L42,-169 L83,-155 L66,-92 L86,-153 L134,-121 Z" stroke-width="0" fill="#9f11db" fill-opacity="0.30980392156862746" />
<path d="M43,-247 L233,-192 L78,-193 L107,-89 L29,-69 L247,-57 Z" stroke-width="0" fill="#000025" fill-opacity="0.6549019607843137" />
<path d="M47,-290 L197,-39 L214,-47 L34,-282 L113,-193 L53,-217 Z" stroke-width="0" fill="#001a66" fill-opacity="0.5019607843137255" />
<path d="M242,-221 L160,-226 L80,-154 L215,-168 L38,-250 L94,-228 Z" stroke-width="0" fill="#59cace" fill-opacity="0.5019607843137255" />
<path d="M220,-196 L25,-85 L218,-183 L163,-73 L194,-244 L191,-60 Z" stroke-width="0" fill="#9db1de" fill-opacity="0.7803921568627451" />
<path d="M66,-115 L150,-180 L29,-85 L141,-174 L151,-34 L232,-106 Z" stroke-width="0" fill="#5ec099" fill-opacity="0.5215686274509804" />
<path d="M72,-170 L168,-287 L168,-166 L199,-149 L225,-206 L162,-217 Z" stroke-width="0" fill="#a363e0" fill-opacity="0.4235294117647059" />
<path d="M220,-227 L235,-135 L97,-95 L122,-266 L89,-147 L188,-108 Z" stroke-width="0" fill="#5a25c3" fill-opacity="0.054901960784313725" />
<path d="M62,-187 L128,-242 L245,-305 L69,-130 L247,-276 L215,-322 Z" stroke-width="0" fill="#001e60" fill-opacity="0.5019607843137255" />
<path d="M45,-145 L132,-120 L81,-168 L66,-183 L141,-202 L91,-171 Z" stroke-width="0" fill="#bb0dba" fill-opacity="0.39215686274509803" />
<path d="M60,-172 L204,-102 L38,-194 L25,-191 L120,-211 L34,-49 Z" stroke-width="0" fill="#b5c6e7" fill-opacity="0.8862745098039215" />
<path d="M72,-169 L202,-202 L34,-96 L86,-181 L42,-272 L70,-63 Z" stroke-width="0" fill="#aaa6c8" fill-opacity="0.7647058823529411" />
<path d="M197,-77 L108,-143 L196,-251 L169,-81 L229,-115 L120,-307 Z" stroke-width="0" fill="#8bfd6c" fill-opacity="0.19607843137254902" />
<path d="M65,-128 L210,-143 L226,-123 L199,-195 L77,-81 L51,-160 Z" stroke-width="0" fill="#c4e6ab" fill-opacity="0.615686274509804" />
<path d="M187,-105 L141,-38 L174,-102 L238,-173 L211,-29 L145,-204 Z" stroke-width="0" fill="#87a1a8" fill-opacity="0.7333333333333333" />
<path d="M58,-126 L103,-112 L147,-141 L27,-125 L52,-201 L209,-219 Z" stroke-width="0" fill="#b1bdeb" fill-opacity="0.10588235294117647" />
<path d="M160,-176 L35,-180 L59,-39 L174,-76 L213,-87 L93,-320 Z" stroke-width="0" fill="#2c78da" fill-opacity="0.34509803921568627" />
<path d="M107,-225 L199,-64 L73,-281 L144,-249 L99,-285 L51,-76 Z" stroke-width="0" fill="#37e2fe" fill-opacity="0.396078431372549" />
<path d="M38,-147 L142,-31 L89,-27 L137,-168 L103,-233 L90,-274 Z" stroke-width="0" fill="#43d5cb" fill-opacity="0.403921568627451" />
<path d="M64,-294 L83,-30 L197,-58 L42,-134 L32,-259 L162,-58 Z" stroke-width="0" fill="#8083ae" fill-opacity="0.6196078431372549" />
<path d="M194,-262 L164,-58 L76,-42 L154,-109 L54,-187 L208,-257 Z" stroke-width="0" fill="#7eb7da" fill-opacity="0.2784313725490196" />
<path d="M66,-66 L84,-297 L135,-224 L58,-264 L119,-116 L51,-35 Z" stroke-width="0" fill="#2e7945" fill-opacity="0.5725490196078431" />
<path d="M148,-129 L91,-106 L133,-259 L112,-105 L216,-36 L106,-265 Z" stroke-width="0" fill="#02040c" fill-opacity="0.5529411764705883" />
<path d="M130,-32 L146,-250 L131,-177 L152,-139 L154,-63 L182,-139 Z" stroke-width="0" fill="#25a478" fill-opacity="0.8313725490196079" />
<path d="M62,-263 L107,-203 L176,-217 L57,-123 L181,-73 L174,-209 Z" stroke-width="0" fill="#cbfafc" fill-opacity="0.6078431372549019" />
<path d="M100,-230 L190,-116 L215,-214 L197,-30 L241,-154 L215,-130 Z" stroke-width="0" fill="#4cbac0" fill-opacity="0.30980392156862746" />
<path d="M69,-39 L147,-305 L88,-240 L34,-49 L230,-157 L164,-113 Z" stroke-width="0" fill="#31513a" fill-opacity="0.5019607843137255" />
<path d="M92,-157 L215,-295 L125,-215 L45,-142 L84,-269 L188,-293 Z" stroke-width="0" fill="#7268cd" fill-opacity="0.47058823529411764" />
<path d="M226,-108 L177,-219 L106,-127 L89,-139 L40,-124 L97,-246 Z" stroke-width="0" fill="#efa8e3" fill-opacity="0.30196078431372547" />
<path d="M146,-29 L62,-233 L211,-30 L107,-250 L49,-290 L100,-225 Z" stroke-width="0" fill="#040060" fill-opacity="0.4588235294117647" />
<path d="M100,-219 L163,-273 L59,-72 L243,-99 L110,-150 L195,-312 Z" stroke-width="0" fill="#b3ac74" fill-opacity="0.6941176470588235" />
<path d="M122,-30 L103,-246 L26,-292 L194,-85 L214,-70 L109,-215 Z" stroke-width="0" fill="#7e6ca2" fill-opacity="0.7490196078431373" />
<path d="M169,-146 L147,-123 L227,-105 L102,-276 L85,-194 L204,-288 Z" stroke-width="0" fill="#b7dcda" fill-opacity="0.5647058823529412" />
<path d="M155,-213 L177,-198 L29,-206 L243,-229 L33,-123 L131,-287 Z" stroke-width="0" fill="#3859c1" fill-opacity="0.1843137254901961" />
<path d="M245,-207 L219,-211 L92,-69 L98,-315 L205,-319 L79,-234 Z" stroke-width="0" fill="#00004c" fill-opacity="0.5019607843137255" />
<path d="M71,-33 L217,-79 L184,-130 L69,-76 L65,-114 L77,-215 Z" stroke-width="0" fill="#002d4d" fill-opacity="0.5843137254901961" />
<path d="M129,-126 L195,-179 L33,-184 L64,-163 L97,-255 L145,-100 Z" stroke-width="0" fill="#94bbeb" fill-opacity="0.5019607843137255" />
<path d="M249,-240 L28,-322 L113,-236 L224,-158 L59,-94 L190,-306 Z" stroke-width="0" fill="#40407f" fill-opacity="0.615686274509804" />
<path d="M237,-238 L114,-235 L60,-229 L207,-285 L89,-312 L93,-193 Z" stroke-width="0" fill="#7d6fa8" fill-opacity="0.8352941176470589" />
<path d="M249,-316 L139,-286 L119,-50 L60,-142 L31,-54 L84,-108 Z" stroke-width="0" fill="#637e92" fill-opacity="0.5137254901960784" />
<path d="M122,-319 L68,-94 L213,-175 L93,-78 L123,-189 L110,-176 Z" stroke-width="0" fill="#61b4a5" fill-opacity="0.34901960784313724" />
<path d="M87,-174 L55,-88 L162,-107 L71,-242 L193,-45 L29,-264 Z" stroke-width="0" fill="#6224b1" fill-opacity="0.5019607843137255" />
<path d="M34,-220 L92,-133 L238,-122 L82,-121 L49,-171 L25,-38 Z" stroke-width="0" fill="#001f84" fill-opacity="0.3137254901960784" />
<path d="M174,-51 L44,-157 L191,-252 L128,-217 L103,-33 L116,-202 Z" stroke-width="0" fill="#adc0f6" fill-opacity="0.5372549019607843" />
<path d="M145,-64 L164,-264 L237,-93 L222,-180 L67,-149 L194,-240 Z" stroke-width="0" fill="#c7c8d3" fill-opacity="0.4627450980392157" />
<path d="M201,-29 L34,-51 L209,-157 L100,-121 L149,-183 L125,-137 Z" stroke-width="0" fill="#147557" fill-opacity="0.596078431372549" />
<path d="M123,-266 L80,-83 L52,-25 L154,-202 L120,-43 L44,-84 Z" stroke-width="0" fill="#515580" fill-opacity="0.8627450980392157" />
<path d="M151,-207 L216,-258 L73,-163 L162,-28 L38,-126 L208,-256 Z" stroke-width="0" fill="#6eacd0" fill-opacity="0.3254901960784314" />
<path d="M115,-212 L40,-97 L149,-302 L128,-189 L93,-293 L223,-102 Z" stroke-width="0" fill="#6ba8a5" fill-opacity="0.39215686274509803" />
<path d="M38,-101 L222,-142 L54,-110 L158,-300 L196,-200 L30,-187 Z" stroke-width="0" fill="#c6c7aa" fill-opacity="0.49411764705882355" />
<path d="M101,-119 L120,-240 L81,-73 L231,-278 L100,-60 L181,-249 Z" stroke-width="0" fill="#8d81bb" fill-opacity="0.7764705882352941" />
<path d="M35,-247 L97,-222 L145,-35 L39,-85 L220,-25 L173,-60 Z" stroke-width="0" fill="#56978f" fill-opacity="0.7058823529411765" />
<path d="M56,-297 L182,-141 L70,-276 L236,-55 L95,-75 L212,-132 Z" stroke-width="0" fill="#131932" fill-opacity="0.47058823529411764" />
<path d="M207,-179 L235,-45 L64,-146 L237,-251 L42,-84 L202,-245 Z" stroke-width="0" fill="#c5cae0" fill-opacity="0.44313725490196076" />
<path d="M37,-45 L196,-124 L66,-263 L183,-126 L200,-276 L140,-128 Z" stroke-width="0" fill="#6f979f" fill-opacity="0.38823529411764707" />
<path d="M184,-251 L75,-69 L90,-280 L195,-51 L248,-116 L88,-58 Z" stroke-width="0" fill="#6e9684" fill-opacity="0.25882352941176473" />
<path d="M87,-248 L28,-30 L178,-64 L100,-250 L73,-275 L26,-177 Z" stroke-width="0" fill="#40366c" fill-opacity="0.5764705882352941" />
<path d="M236,-248 L50,-74 L119,-218 L185,-241 L142,-133 L69,-102 Z" stroke-width="0" fill="#a2837c" fill-opacity="0.3333333333333333" />
<path d="M239,-126 L190,-272 L29,-243 L234,-226 L69,-103 L189,-224 Z" stroke-width="0" fill="#848e99" fill-opacity="0.30980392156862746" />
<path d="M221,-94 L148,-109 L111,-307 L68,-211 L77,-250 L182,-275 Z" stroke-width="0" fill="#f89efc" fill-opacity="0.050980392156862744" />
<path d="M186,-79 L97,-45 L120,-78 L87,-206 L117,-71 L57,-136 Z" stroke-width="0" fill="#11a402" fill-opacity="0.07058823529411765" />
<path d="M161,-94 L105,-292 L62,-37 L52,-170 L215,-43 L172,-79 Z" stroke-width="0" fill="#957eac" fill-opacity="0.25098039215686274" />
<path d="M129,-257 L45,-255 L201,-175 L78,-76 L50,-153 L182,-211 Z" stroke-width="0" fill="#8bcfd9" fill-opacity="0.48627450980392156" />
<path d="M185,-48 L151,-221 L247,-169 L87,-210 L136,-45 L216,-177 Z" stroke-width="0" fill="#f4e0ea" fill-opacity="0.0392156862745098" />
<path d="M59,-146 L94,-88 L70,-162 L108,-202 L92,-201 L190,-80 Z" stroke-width="0" fill="#abbfcc" fill-opacity="0.49411764705882355" />
<path d="M195,-253 L139,-304 L113,-125 L219,-242 L150,-142 L124,-84 Z" stroke-width="0" fill="#977cb9" fill-opacity="0.5019607843137255" />
<path d="M99,-38 L125,-241 L232,-68 L92,-63 L74,-290 L208,-120 Z" stroke-width="0" fill="#60b3a6" fill-opacity="0.2980392156862745" />
<path d="M131,-272 L62,-243 L68,-53 L75,-252 L66,-125 L186,-102 Z" stroke-width="0" fill="#86f3b0" fill-opacity="0.27058823529411763" />
<path d="M133,-159 L85,-43 L126,-124 L220,-85 L30,-239 L101,-155 Z" stroke-width="0" fill="#e6c7ec" fill-opacity="0.23529411764705882" />
<path d="M50,-153 L113,-112 L127,-29 L186,-162 L64,-322 L98,-134 Z" stroke-width="0" fill="#af3dcb" fill-opacity="0.2196078431372549" />
<path d="M150,-291 L178,-118 L238,-92 L175,-156 L47,-85 L186,-253 Z" stroke-width="0" fill="#59bc80" fill-opacity="0.2784313725490196" />
<path d="M203,-138 L66,-25 L208,-28 L114,-132 L222,-89 L43,-77 Z" stroke-width="0" fill="#523e71" fill-opacity="0.8117647058823529" />
<path d="M213,-47 L85,-155 L201,-64 L200,-40 L77,-90 L154,-282 Z" stroke-width="0" fill="#5178ac" fill-opacity="0.23529411764705882" />
<path d="M129,-108 L223,-26 L91,-157 L41,-73 L181,-100 L57,-198 Z" stroke-width="0" fill="#d0b9d9" fill-opacity="0.6078431372549019" />
<path d="M108,-33 L151,-174 L46,-276 L49,-246 L31,-259 L98,-319 Z" stroke-width="0" fill="#766ca6" fill-opacity="0.8156862745098039" />
<path d="M163,-67 L45,-50 L104,-309 L244,-100 L184,-191 L107,-87 Z" stroke-width="0" fill="#099ea5" fill-opacity="0.047058823529411764" />
<path d="M117,-170 L103,-260 L89,-231 L28,-210 L239,-188 L186,-234 Z" stroke-width="0" fill="#6f9cd7" fill-opacity="0.27058823529411763" />
<path d="M105,-115 L108,-157 L105,-164 L172,-86 L159,-173 L243,-213 Z" stroke-width="0" fill="#dfe09e" fill-opacity="0.3764705882352941" />
<path d="M58,-115 L206,-62 L89,-125 L43,-135 L44,-107 L43,-297 Z" stroke-width="0" fill="#a6c8b5" fill-opacity="0.6470588235294118" />
<path d="M59,-99 L76,-167 L140,-83 L114,-67 L138,-105 L108,-204 Z" stroke-width="0" fill="#b6c7db" fill-opacity="0.5019607843137255" />
<path d="M103,-247 L215,-39 L241,-152 L129,-127 L192,-132 L78,-232 Z" stroke-width="0" fill="#c5bff2" fill-opacity="0.4666666666666667" />
<path d="M189,-219 L114,-45 L124,-159 L62,-260 L57,-76 L58,-190 Z" stroke-width="0" fill="#cfa0ea" fill-opacity="0.13725490196078433" />
<path d="M45,-55 L60,-224 L77,-102 L244,-143 L137,-287 L132,-55 Z" stroke-width="0" fill="#9cfbf9" fill-opacity="0.0392156862745098" />
<path d="M45,-27 L221,-57 L140,-221 L203,-158 L134,-204 L189,-33 Z" stroke-width="0" fill="#01d149" fill-opacity="0.050980392156862744" />
<path d="M170,-145 L45,-238 L118,-34 L37,-74 L129,-251 L144,-314 Z" stroke-width="0" fill="#bc6c9c" fill-opacity="0.06274509803921569" />
<path d="M136,-139 L226,-104 L127,-282 L37,-223 L209,-247 L126,-144 Z" stroke-width="0" fill="#9c9fa7" fill-opacity="0.43137254901960786" />
<path d="M126,-124 L92,-217 L149,-284 L136,-47 L65,-56 L153,-122 Z" stroke-width="0" fill="#032030" fill-opacity="0.07058823529411765" />
<path d="M171,-250 L27,-237 L68,-238 L235,-290 L58,-163 L197,-61 Z" stroke-width="0" fill="#9ca9dd" fill-opacity="0.5019607843137255" />
<path d="M199,-166 L246,-316 L138,-55 L175,-297 L86,-111 L105,-175 Z" stroke-width="0" fill="#6790d1" fill-opacity="0.44313725490196076" />
<path d="M135,-32 L76,-305 L86,-55 L58,-91 L77,-215 L180,-226 Z" stroke-width="0" fill="#bcd8ac" fill-opacity="0.2901960784313726" />
<path d="M42,-67 L117,-102 L141,-57 L83,-120 L111,-131 L153,-168 Z" stroke-width="0" fill="#99b9e8" fill-opacity="0.33725490196078434" />
<text x="137.5" y="12.5" font-size="20.0" fill="black" text-anchor="middle" transform="translate(0,5.0)">KING OF WATER</text>
</svg>