<?xml version="1.0" encoding="UTF-8"?>
<svg xmlns="http://www.w3.org/2000/svg" xmlns:xlink="http://www.w3.org/1999/xlink"
     width="896" height="1496" viewBox="0 -1400 896 1496" style="font-size:70;font-family:Poor Richard, Times New Roman;stroke:black;stroke-width:1;fill:none">
<defs>
</defs>
<path d="M322,-914 L614,-614 L322,-1214 L798,-390 L606,-130 L410,-462 Z" stroke-width="0" fill="#002576" fill-opacity="0.9725490196078431" />
<path d="M526,-82 L174,-458 L774,-270 L238,-570 L206,-834 L378,-662 Z" stroke-width="0" fill="#002c74" fill-opacity="0.9176470588235294" />
<path d="M554,-446 L958,-374 L782,-126 L234,-830 L734,-534 L890,-1062 Z" stroke-width="0" fill="#000000" fill-opacity="0.996078431372549" />
<path d="M802,-1226 L558,-474 L598,-762 L498,-770 L438,-94 L638,-1266 Z" stroke-width="0" fill="#00236f" fill-opacity="0.9529411764705882" />
<path d="M370,-898 L374,-926 L466,-450 L94,-98 L254,-1238 L122,-1122 Z" stroke-width="0" fill="#000041" fill-opacity="0.8235294117647058" />
<path d="M714,-122 L826,-842 L438,-962 L326,-482 L594,-182 L630,-686 Z" stroke-width="0" fill="#133227" fill-opacity="0.23137254901960785" />
<path d="M894,-1190 L294,-650 L602,-418 L394,-978 L294,-758 L250,-530 Z" stroke-width="0" fill="#00397c" fill-opacity="0.9372549019607843" />
<path d="M834,-98 L286,-814 L754,-714 L306,-134 L246,-886 L462,-142 Z" stroke-width="0" fill="#008d8f" fill-opacity="0.9607843137254902" />
<path d="M890,-114 L426,-1266 L950,-478 L254,-758 L818,-758 L642,-494 Z" stroke-width="0" fill="#045db5" fill-opacity="0.9568627450980393" />
<path d="M222,-98 L370,-198 L578,-314 L574,-1238 L902,-822 L946,-906 Z" stroke-width="0" fill="#002e77" fill-opacity="0.9647058823529412" />
<path d="M434,-546 L118,-314 L890,-94 L254,-234 L602,-1014 L830,-822 Z" stroke-width="0" fill="#003b8d" fill-opacity="0.9490196078431372" />
<path d="M186,-362 L578,-742 L714,-358 L674,-1262 L354,-794 L978,-534 Z" stroke-width="0" fill="#0464d7" fill-opacity="0.9372549019607843" />
<path d="M718,-198 L230,-1242 L114,-926 L890,-158 L314,-858 L770,-506 Z" stroke-width="0" fill="#00287f" fill-opacity="0.9450980392156862" />
<path d="M438,-894 L758,-742 L138,-1278 L570,-338 L306,-178 L366,-646 Z" stroke-width="0" fill="#00044c" fill-opacity="0.8" />
<path d="M470,-402 L382,-298 L138,-810 L226,-326 L230,-434 L98,-1202 Z" stroke-width="0" fill="#00003d" fill-opacity="0.7647058823529411" />
<path d="M878,-634 L362,-806 L770,-786 L454,-654 L878,-1278 L378,-846 Z" stroke-width="0" fill="#001a66" fill-opacity="0.8941176470588236" />
<path d="M790,-462 L422,-1182 L782,-158 L554,-634 L970,-1094 L350,-274 Z" stroke-width="0" fill="#003d86" fill-opacity="0.9333333333333333" />
<path d="M722,-826 L150,-662 L142,-374 L114,-462 L490,-1018 L370,-610 Z" stroke-width="0" fill="#001a31" fill-opacity="0.9803921568627451" />
<path d="M226,-1158 L822,-910 L610,-222 L426,-266 L930,-1050 L430,-930 Z" stroke-width="0" fill="#00e2fe" fill-opacity="0.7254901960784313" />
<path d="M294,-1106 L234,-1190 L358,-226 L626,-754 L342,-606 L762,-94 Z" stroke-width="0" fill="#00398c" fill-opacity="0.9411764705882353" />
<path d="M390,-846 L178,-1210 L894,-1110 L362,-802 L390,-630 L574,-490 Z" stroke-width="0" fill="#000570" fill-opacity="0.8980392156862745" />
<path d="M302,-514 L182,-334 L910,-638 L546,-902 L142,-942 L638,-722 Z" stroke-width="0" fill="#020d0b" fill-opacity="0.9882352941176471" />
<path d="M578,-318 L926,-958 L870,-1158 L286,-622 L978,-238 L802,-474 Z" stroke-width="0" fill="#001671" fill-opacity="0.803921568627451" />
<path d="M774,-442 L334,-530 L518,-678 L262,-562 L154,-330 L754,-326 Z" stroke-width="0" fill="#04091c" fill-opacity="0.8549019607843137" />
<path d="M130,-1166 L822,-714 L546,-690 L886,-706 L946,-626 L354,-882 Z" stroke-width="0" fill="#002d77" fill-opacity="0.9686274509803922" />
<path d="M498,-402 L306,-1054 L642,-638 L650,-370 L130,-542 L738,-890 Z" stroke-width="0" fill="#000f67" fill-opacity="0.9019607843137255" />
<path d="M946,-738 L250,-670 L202,-238 L618,-634 L134,-1034 L578,-718 Z" stroke-width="0" fill="#000123" fill-opacity="1.0" />
<path d="M462,-346 L498,-570 L398,-342 L246,-1050 L106,-798 L198,-1142 Z" stroke-width="0" fill="#002270" fill-opacity="0.9137254901960784" />
<path d="M706,-654 L386,-434 L498,-730 L462,-846 L462,-474 L802,-246 Z" stroke-width="0" fill="#7d526b" fill-opacity="0.792156862745098" />
<path d="M738,-290 L582,-1226 L630,-694 L462,-1078 L722,-342 L610,-122 Z" stroke-width="0" fill="#00695c" fill-opacity="0.23529411764705882" />
<path d="M338,-778 L570,-750 L586,-378 L290,-390 L302,-1034 L426,-90 Z" stroke-width="0" fill="#00306f" fill-opacity="0.9647058823529412" />
<path d="M122,-170 L174,-86 L210,-602 L846,-1190 L302,-722 L82,-242 Z" stroke-width="0" fill="#00206e" fill-opacity="1.0" />
<path d="M598,-98 L598,-478 L862,-218 L910,-534 L518,-342 L938,-146 Z" stroke-width="0" fill="#002881" fill-opacity="0.8392156862745098" />
<path d="M462,-522 L326,-1266 L638,-990 L918,-306 L442,-358 L946,-230 Z" stroke-width="0" fill="#000000" fill-opacity="0.9882352941176471" />
<path d="M226,-726 L422,-222 L650,-334 L926,-662 L98,-778 L410,-90 Z" stroke-width="0" fill="#003482" fill-opacity="0.9921568627450981" />
<path d="M722,-678 L738,-618 L442,-334 L502,-762 L598,-470 L150,-158 Z" stroke-width="0" fill="#00f0cc" fill-opacity="0.9803921568627451" />
<path d="M234,-330 L862,-170 L294,-82 L758,-1194 L246,-938 L166,-786 Z" stroke-width="0" fill="#002d81" fill-opacity="0.9647058823529412" />
<path d="M318,-562 L330,-278 L494,-678 L714,-478 L426,-114 L298,-862 Z" stroke-width="0" fill="#36f366" fill-opacity="0.00784313725490196" />
<path d="M182,-742 L474,-478 L346,-650 L206,-754 L86,-1026 L842,-374 Z" stroke-width="0" fill="#00357b" fill-opacity="0.996078431372549" />
<path d="M530,-566 L262,-1118 L558,-638 L378,-846 L234,-186 L718,-318 Z" stroke-width="0" fill="#f6fbff" fill-opacity="1.0" />
<path d="M534,-386 L798,-866 L714,-966 L630,-1114 L446,-154 L570,-982 Z" stroke-width="0" fill="#110f05" fill-opacity="0.5843137254901961" />
<path d="M250,-686 L830,-1234 L102,-974 L290,-914 L558,-334 L350,-1070 Z" stroke-width="0" fill="#00023a" fill-opacity="0.7019607843137254" />
<path d="M390,-1058 L962,-378 L714,-190 L478,-262 L294,-146 L958,-750 Z" stroke-width="0" fill="#000288" fill-opacity="0.596078431372549" />
<path d="M746,-198 L266,-1070 L426,-1026 L158,-1046 L614,-1066 L566,-966 Z" stroke-width="0" fill="#e5f3ea" fill-opacity="0.9803921568627451" />
<path d="M706,-182 L142,-902 L626,-282 L334,-894 L450,-170 L386,-86 Z" stroke-width="0" fill="#004c82" fill-opacity="0.9215686274509803" />
<path d="M958,-374 L218,-1090 L598,-706 L218,-822 L350,-986 L706,-922 Z" stroke-width="0" fill="#0668ec" fill-opacity="0.9215686274509803" />
<path d="M414,-1134 L550,-566 L210,-1242 L318,-250 L830,-278 L122,-82 Z" stroke-width="0" fill="#000764" fill-opacity="0.792156862745098" />
<path d="M130,-246 L638,-622 L198,-914 L830,-1014 L854,-582 L518,-914 Z" stroke-width="0" fill="#00184d" fill-opacity="0.47058823529411764" />
<path d="M554,-374 L106,-426 L450,-1182 L422,-302 L474,-966 L82,-522 Z" stroke-width="0" fill="#00165e" fill-opacity="0.8470588235294118" />
<path d="M698,-546 L558,-582 L814,-982 L110,-1034 L734,-1278 L494,-266 Z" stroke-width="0" fill="#003a75" fill-opacity="0.8823529411764706" />
<path d="M262,-230 L438,-254 L318,-1274 L466,-1274 L650,-246 L766,-414 Z" stroke-width="0" fill="#003275" fill-opacity="0.984313725490196" />
<path d="M958,-798 L266,-130 L774,-1218 L106,-150 L774,-950 L810,-1234 Z" stroke-width="0" fill="#00277f" fill-opacity="0.9372549019607843" />
<path d="M918,-654 L750,-582 L526,-474 L914,-130 L578,-346 L282,-1186 Z" stroke-width="0" fill="#024b95" fill-opacity="0.9058823529411765" />
<path d="M318,-914 L250,-958 L930,-986 L102,-378 L310,-322 L382,-610 Z" stroke-width="0" fill="#001e71" fill-opacity="0.8980392156862745" />
<path d="M498,-162 L226,-614 L474,-1034 L958,-650 L830,-182 L326,-434 Z" stroke-width="0" fill="#0768e1" fill-opacity="0.9921568627450981" />
<path d="M574,-326 L478,-1126 L418,-950 L450,-438 L358,-1210 L342,-118 Z" stroke-width="0" fill="#f8fbfe" fill-opacity="0.8509803921568627" />
<path d="M638,-930 L142,-1130 L286,-174 L814,-906 L366,-1242 L118,-642 Z" stroke-width="0" fill="#e6e8f5" fill-opacity="0.17254901960784313" />
<path d="M770,-594 L722,-978 L682,-906 L830,-538 L298,-618 L154,-482 Z" stroke-width="0" fill="#001878" fill-opacity="0.9529411764705882" />
<path d="M254,-1246 L658,-546 L158,-814 L846,-114 L966,-1058 L190,-1050 Z" stroke-width="0" fill="#002379" fill-opacity="0.9450980392156862" />
<path d="M610,-438 L290,-942 L370,-710 L802,-178 L562,-766 L214,-882 Z" stroke-width="0" fill="#c5d1f3" fill-opacity="0.3568627450980392" />
<path d="M238,-294 L870,-490 L650,-130 L518,-634 L258,-658 L530,-634 Z" stroke-width="0" fill="#d3d0e3" fill-opacity="0.01568627450980392" />
<path d="M650,-694 L566,-326 L746,-506 L434,-638 L218,-330 L170,-614 Z" stroke-width="0" fill="#00061c" fill-opacity="0.8392156862745098" />
<path d="M198,-230 L422,-694 L258,-906 L534,-450 L502,-1102 L634,-546 Z" stroke-width="0" fill="#f8b9ec" fill-opacity="0.34901960784313724" />
<path d="M806,-902 L818,-890 L246,-406 L922,-334 L742,-118 L846,-358 Z" stroke-width="0" fill="#75aa03" fill-opacity="0.00392156862745098" />
<path d="M386,-118 L250,-730 L98,-238 L722,-1214 L750,-162 L698,-146 Z" stroke-width="0" fill="#001120" fill-opacity="0.027450980392156862" />
<path d="M934,-494 L874,-94 L722,-90 L954,-202 L926,-762 L462,-98 Z" stroke-width="0" fill="#0059de" fill-opacity="0.9607843137254902" />
<path d="M546,-894 L614,-106 L294,-1210 L526,-110 L226,-718 L134,-422 Z" stroke-width="0" fill="#00226f" fill-opacity="0.027450980392156862" />
<path d="M186,-226 L390,-742 L518,-522 L474,-322 L110,-434 L466,-646 Z" stroke-width="0" fill="#727a16" fill-opacity="0.00392156862745098" />
<path d="M846,-282 L138,-702 L926,-282 L198,-486 L902,-854 L250,-86 Z" stroke-width="0" fill="#00347c" fill-opacity="0.9647058823529412" />
<path d="M370,-630 L154,-1098 L210,-990 L490,-430 L382,-486 L706,-646 Z" stroke-width="0" fill="#001f75" fill-opacity="0.7372549019607844" />
<path d="M590,-1278 L182,-930 L906,-1250 L194,-1170 L330,-502 L210,-642 Z" stroke-width="0" fill="#134b86" fill-opacity="0.8" />
<path d="M622,-422 L242,-1194 L598,-970 L614,-762 L650,-1130 L266,-626 Z" stroke-width="0" fill="#f9fce6" fill-opacity="0.8901960784313725" />
<path d="M410,-1270 L574,-846 L754,-378 L194,-566 L278,-94 L978,-842 Z" stroke-width="0" fill="#03e2d6" fill-opacity="0.10196078431372549" />
<path d="M338,-334 L378,-618 L354,-470 L670,-1094 L726,-150 L474,-1234 Z" stroke-width="0" fill="#e875ba" fill-opacity="0.15294117647058825" />
<path d="M658,-150 L254,-1194 L294,-346 L614,-1086 L650,-934 L162,-982 Z" stroke-width="0" fill="#fabff4" fill-opacity="0.611764705882353" />
<path d="M166,-514 L338,-446 L410,-138 L106,-666 L670,-210 L202,-1038 Z" stroke-width="0" fill="#e7fecf" fill-opacity="0.5764705882352941" />
<path d="M614,-602 L130,-874 L406,-810 L534,-98 L722,-958 L646,-822 Z" stroke-width="0" fill="#0620a7" fill-opacity="0.0392156862745098" />
<path d="M490,-282 L542,-258 L266,-834 L646,-466 L594,-114 L938,-1062 Z" stroke-width="0" fill="#030000" fill-opacity="0.43529411764705883" />
<path d="M702,-366 L742,-1018 L222,-1266 L546,-1250 L546,-1206 L202,-1194 Z" stroke-width="0" fill="#164e94" fill-opacity="0.3058823529411765" />
<path d="M574,-458 L206,-410 L118,-1066 L410,-938 L518,-1122 L386,-682 Z" stroke-width="0" fill="#faaca5" fill-opacity="0.3215686274509804" />
<path d="M422,-418 L362,-494 L478,-498 L466,-1146 L786,-610 L778,-150 Z" stroke-width="0" fill="#000e69" fill-opacity="0.9411764705882353" />
<path d="M758,-138 L674,-1010 L394,-862 L778,-214 L870,-698 L346,-394 Z" stroke-width="0" fill="#002f99" fill-opacity="0.3568627450980392" />
<path d="M274,-930 L594,-1158 L662,-650 L798,-130 L266,-746 L634,-314 Z" stroke-width="0" fill="#06eef8" fill-opacity="0.22745098039215686" />
<path d="M310,-82 L750,-142 L126,-1214 L606,-222 L554,-614 L250,-270 Z" stroke-width="0" fill="#0060a9" fill-opacity="0.19607843137254902" />
<path d="M882,-810 L818,-322 L938,-206 L178,-286 L642,-218 L674,-842 Z" stroke-width="0" fill="#000b2f" fill-opacity="0.11764705882352941" />
<path d="M102,-974 L290,-762 L554,-258 L502,-790 L182,-122 L490,-722 Z" stroke-width="0" fill="#e7c7e6" fill-opacity="0.058823529411764705" />
<path d="M202,-130 L250,-158 L298,-202 L702,-754 L906,-194 L234,-530 Z" stroke-width="0" fill="#095c53" fill-opacity="0.023529411764705882" />
<path d="M518,-130 L230,-334 L618,-258 L378,-286 L834,-302 L810,-922 Z" stroke-width="0" fill="#080408" fill-opacity="0.06666666666666667" />
<path d="M274,-234 L162,-578 L686,-762 L174,-294 L158,-146 L278,-798 Z" stroke-width="0" fill="#37b3f0" fill-opacity="0.00392156862745098" />
<path d="M122,-574 L670,-886 L906,-774 L102,-526 L410,-558 L622,-354 Z" stroke-width="0" fill="#35bccc" fill-opacity="0.00784313725490196" />
<path d="M850,-874 L830,-482 L182,-582 L442,-1050 L358,-938 L82,-678 Z" stroke-width="0" fill="#be010d" fill-opacity="0.00784313725490196" />
<path d="M258,-202 L350,-166 L402,-490 L634,-222 L510,-394 L646,-210 Z" stroke-width="0" fill="#fec0c8" fill-opacity="0.4627450980392157" />
<path d="M770,-882 L94,-198 L126,-758 L330,-1142 L278,-846 L122,-562 Z" stroke-width="0" fill="#0068ad" fill-opacity="0.47058823529411764" />
<path d="M598,-638 L426,-502 L926,-518 L374,-586 L894,-1142 L770,-550 Z" stroke-width="0" fill="#000004" fill-opacity="0.3176470588235294" />
<path d="M138,-894 L210,-730 L194,-190 L770,-1198 L354,-262 L358,-490 Z" stroke-width="0" fill="#ffebd3" fill-opacity="0.2901960784313726" />
<path d="M898,-726 L206,-1014 L434,-274 L162,-206 L382,-202 L850,-966 Z" stroke-width="0" fill="#f3f2f9" fill-opacity="0.3254901960784314" />
<path d="M578,-1226 L374,-1106 L186,-562 L714,-654 L418,-430 L886,-1218 Z" stroke-width="0" fill="#fce8bf" fill-opacity="0.34901960784313724" />
<path d="M130,-890 L742,-598 L806,-90 L210,-930 L950,-930 L402,-682 Z" stroke-width="0" fill="#106797" fill-opacity="0.03137254901960784" />
<path d="M730,-702 L426,-1178 L346,-986 L766,-1266 L266,-134 L426,-526 Z" stroke-width="0" fill="#5260ea" fill-opacity="0.09411764705882353" />
<path d="M874,-518 L326,-1278 L198,-422 L838,-1062 L910,-590 L510,-258 Z" stroke-width="0" fill="#f9e0db" fill-opacity="0.11764705882352941" />
<text x="448.0" y="0" font-size="70.0" fill="black" text-anchor="middle" transform="translate(0,17.5)">6 OF WATER</text>
</svg>