<?xml version="1.0" encoding="UTF-8"?>
<svg xmlns="http://www.w3.org/2000/svg" xmlns:xlink="http://www.w3.org/1999/xlink"
     width="896" height="1496" viewBox="0 -1400 896 1496" style="font-size:70;font-family:Poor Richard, Times New Roman;stroke:black;stroke-width:1;fill:none">
<defs>
</defs>
<path d="M250,-698 L886,-622 L742,-774 L914,-254 L698,-858 L242,-1190 Z" stroke-width="0" fill="#e0f2e8" fill-opacity="0.0" />
<path d="M846,-1062 L938,-1178 L122,-278 L858,-926 L290,-1258 L714,-358 Z" stroke-width="0" fill="#d7e8dc" fill-opacity="0.0784313725490196" />
<path d="M486,-594 L406,-1226 L258,-614 L382,-662 L850,-206 L402,-346 Z" stroke-width="0" fill="#fc829c" fill-opacity="0.058823529411764705" />
<path d="M442,-502 L690,-962 L434,-510 L370,-986 L954,-914 L350,-1086 Z" stroke-width="0" fill="#55037c" fill-opacity="0.023529411764705882" />
<path d="M906,-218 L82,-258 L298,-1126 L178,-290 L210,-346 L890,-466 Z" stroke-width="0" fill="#dabac8" fill-opacity="0.30980392156862746" />
<path d="M550,-1182 L534,-1034 L134,-114 L354,-862 L870,-286 L690,-450 Z" stroke-width="0" fill="#a3d7bc" fill-opacity="0.13333333333333333" />
<path d="M742,-774 L662,-354 L530,-690 L794,-262 L334,-1266 L398,-906 Z" stroke-width="0" fill="#f0fdab" fill-opacity="0.023529411764705882" />
<path d="M702,-582 L674,-334 L202,-1090 L446,-466 L358,-990 L702,-678 Z" stroke-width="0" fill="#cd7c8a" fill-opacity="0.01568627450980392" />
<path d="M374,-634 L582,-386 L662,-434 L190,-894 L546,-574 L462,-766 Z" stroke-width="0" fill="#40d864" fill-opacity="0.050980392156862744" />
<path d="M878,-850 L506,-398 L214,-806 L714,-642 L486,-1230 L410,-90 Z" stroke-width="0" fill="#d8bdf4" fill-opacity="0.10588235294117647" />
<path d="M886,-210 L706,-462 L870,-762 L142,-1066 L810,-546 L442,-682 Z" stroke-width="0" fill="#f1c7f0" fill-opacity="0.07450980392156863" />
<path d="M838,-1046 L866,-782 L286,-390 L570,-318 L326,-1270 L938,-234 Z" stroke-width="0" fill="#d0d64f" fill-opacity="0.12549019607843137" />
<path d="M246,-834 L918,-486 L294,-974 L158,-134 L458,-390 L806,-1078 Z" stroke-width="0" fill="#e7f7fa" fill-opacity="0.2627450980392157" />
<path d="M858,-522 L222,-518 L570,-662 L238,-566 L166,-686 L862,-1050 Z" stroke-width="0" fill="#eaf2f6" fill-opacity="0.08627450980392157" />
<path d="M786,-194 L514,-1026 L786,-162 L614,-942 L454,-418 L582,-1090 Z" stroke-width="0" fill="#fd9098" fill-opacity="0.26666666666666666" />
<path d="M450,-562 L650,-114 L950,-734 L102,-426 L974,-826 L486,-158 Z" stroke-width="0" fill="#e3f1d3" fill-opacity="0.27450980392156865" />
<path d="M142,-618 L142,-190 L590,-1198 L910,-414 L570,-302 L150,-774 Z" stroke-width="0" fill="#e5fddf" fill-opacity="0.09019607843137255" />
<path d="M202,-1058 L514,-574 L390,-154 L194,-1074 L470,-146 L402,-286 Z" stroke-width="0" fill="#cebf1a" fill-opacity="0.0" />
<path d="M826,-526 L274,-922 L290,-234 L442,-1242 L434,-958 L334,-646 Z" stroke-width="0" fill="#9a5b86" fill-opacity="0.0" />
<path d="M302,-166 L730,-150 L142,-358 L106,-730 L390,-178 L714,-394 Z" stroke-width="0" fill="#d4dee2" fill-opacity="0.20392156862745098" />
<path d="M182,-818 L690,-150 L106,-906 L302,-390 L234,-846 L114,-1206 Z" stroke-width="0" fill="#bef3f9" fill-opacity="0.17647058823529413" />
<path d="M370,-682 L90,-1030 L842,-102 L134,-222 L650,-430 L134,-1118 Z" stroke-width="0" fill="#d8ebda" fill-opacity="0.30196078431372547" />
<path d="M674,-594 L858,-422 L954,-690 L958,-830 L590,-194 L118,-170 Z" stroke-width="0" fill="#c9beb5" fill-opacity="0.27058823529411763" />
<path d="M938,-1106 L122,-590 L406,-758 L154,-954 L546,-242 L362,-426 Z" stroke-width="0" fill="#ec84e5" fill-opacity="0.047058823529411764" />
<path d="M846,-134 L230,-206 L334,-358 L230,-1250 L606,-814 L302,-302 Z" stroke-width="0" fill="#eee4d0" fill-opacity="0.09803921568627451" />
<path d="M466,-634 L930,-558 L154,-166 L186,-894 L618,-506 L922,-514 Z" stroke-width="0" fill="#d2dce3" fill-opacity="0.023529411764705882" />
<path d="M406,-118 L406,-898 L962,-1102 L294,-114 L254,-610 L350,-578 Z" stroke-width="0" fill="#b9d4c3" fill-opacity="0.21176470588235294" />
<path d="M190,-622 L118,-638 L710,-954 L754,-1246 L98,-702 L262,-358 Z" stroke-width="0" fill="#ebb778" fill-opacity="0.03529411764705882" />
<path d="M866,-974 L230,-1218 L806,-234 L106,-678 L570,-378 L158,-870 Z" stroke-width="0" fill="#f1ebe9" fill-opacity="0.25882352941176473" />
<path d="M918,-86 L950,-798 L762,-1070 L970,-1026 L182,-1262 L498,-590 Z" stroke-width="0" fill="#c7d7e5" fill-opacity="0.41568627450980394" />
<path d="M686,-1206 L318,-838 L222,-1262 L410,-410 L810,-86 L578,-418 Z" stroke-width="0" fill="#eb9adb" fill-opacity="0.19607843137254902" />
<path d="M110,-898 L710,-374 L150,-814 L714,-1218 L626,-826 L246,-534 Z" stroke-width="0" fill="#ecf3f3" fill-opacity="0.17254901960784313" />
<path d="M578,-422 L326,-146 L138,-1150 L946,-842 L690,-242 L434,-270 Z" stroke-width="0" fill="#f4c0f3" fill-opacity="0.09411764705882353" />
<path d="M566,-934 L730,-1122 L330,-646 L690,-590 L342,-990 L550,-290 Z" stroke-width="0" fill="#fbf6ef" fill-opacity="0.6392156862745098" />
<path d="M210,-894 L330,-1214 L714,-530 L442,-902 L514,-926 L322,-466 Z" stroke-width="0" fill="#edf3f2" fill-opacity="0.8274509803921568" />
<path d="M370,-538 L402,-1086 L222,-122 L174,-162 L362,-1026 L298,-966 Z" stroke-width="0" fill="#c3c4ee" fill-opacity="0.09411764705882353" />
<path d="M314,-814 L514,-246 L470,-1090 L190,-342 L966,-1242 L338,-1270 Z" stroke-width="0" fill="#b4b2cb" fill-opacity="0.11372549019607843" />
<path d="M266,-518 L538,-110 L782,-1118 L82,-334 L882,-570 L510,-618 Z" stroke-width="0" fill="#f9e4fb" fill-opacity="0.4392156862745098" />
<path d="M238,-482 L718,-190 L594,-138 L566,-894 L450,-90 L846,-286 Z" stroke-width="0" fill="#ea64ef" fill-opacity="0.07450980392156863" />
<path d="M246,-1226 L854,-1066 L90,-530 L202,-434 L646,-790 L486,-726 Z" stroke-width="0" fill="#e7fced" fill-opacity="0.8117647058823529" />
<path d="M278,-242 L278,-870 L242,-794 L182,-1062 L762,-690 L818,-586 Z" stroke-width="0" fill="#f0f3f6" fill-opacity="0.792156862745098" />
<path d="M766,-178 L302,-218 L674,-454 L342,-402 L754,-418 L730,-710 Z" stroke-width="0" fill="#e8f1ec" fill-opacity="0.7529411764705882" />
<path d="M114,-1014 L334,-1058 L506,-994 L138,-494 L330,-390 L466,-1066 Z" stroke-width="0" fill="#f8e2fc" fill-opacity="0.25098039215686274" />
<path d="M214,-554 L470,-166 L566,-302 L714,-202 L614,-918 L430,-274 Z" stroke-width="0" fill="#fbecf6" fill-opacity="0.22745098039215686" />
<path d="M542,-682 L486,-1246 L350,-702 L338,-410 L926,-410 L122,-414 Z" stroke-width="0" fill="#f7abd9" fill-opacity="0.0392156862745098" />
<path d="M94,-174 L866,-806 L618,-1202 L894,-178 L254,-298 L682,-510 Z" stroke-width="0" fill="#9cca8d" fill-opacity="0.13725490196078433" />
<path d="M738,-1146 L954,-602 L94,-1094 L510,-910 L506,-554 L410,-262 Z" stroke-width="0" fill="#e2eef0" fill-opacity="0.3803921568627451" />
<path d="M182,-866 L678,-126 L950,-422 L790,-718 L114,-1014 L262,-938 Z" stroke-width="0" fill="#98a2a6" fill-opacity="0.19607843137254902" />
<path d="M842,-1258 L162,-670 L406,-1070 L186,-222 L958,-266 L606,-654 Z" stroke-width="0" fill="#f6fff9" fill-opacity="0.10588235294117647" />
<path d="M358,-478 L466,-370 L870,-222 L150,-598 L438,-830 L974,-498 Z" stroke-width="0" fill="#edf8e5" fill-opacity="0.11764705882352941" />
<path d="M458,-534 L490,-470 L554,-322 L814,-106 L574,-1030 L658,-558 Z" stroke-width="0" fill="#d3ddda" fill-opacity="0.5019607843137255" />
<path d="M82,-394 L690,-1210 L350,-274 L662,-290 L414,-442 L722,-1242 Z" stroke-width="0" fill="#fefbe7" fill-opacity="0.796078431372549" />
<path d="M474,-326 L702,-1022 L446,-198 L450,-398 L626,-278 L738,-822 Z" stroke-width="0" fill="#6ee4c2" fill-opacity="0.09019607843137255" />
<path d="M518,-970 L122,-670 L186,-1058 L366,-182 L846,-462 L214,-1206 Z" stroke-width="0" fill="#9d980c" fill-opacity="0.0" />
<path d="M806,-582 L142,-798 L346,-822 L466,-462 L430,-346 L522,-598 Z" stroke-width="0" fill="#fbfaf0" fill-opacity="0.4588235294117647" />
<path d="M242,-126 L438,-870 L394,-862 L210,-998 L394,-206 L738,-518 Z" stroke-width="0" fill="#a30ad4" fill-opacity="0.01568627450980392" />
<path d="M230,-414 L94,-1194 L230,-538 L766,-206 L214,-1054 L206,-1098 Z" stroke-width="0" fill="#5f20b5" fill-opacity="0.00392156862745098" />
<path d="M610,-686 L742,-1130 L706,-454 L378,-770 L922,-342 L794,-1130 Z" stroke-width="0" fill="#f8eff4" fill-opacity="0.40784313725490196" />
<path d="M666,-302 L126,-854 L218,-870 L630,-234 L914,-786 L826,-566 Z" stroke-width="0" fill="#e5e7e7" fill-opacity="0.2235294117647059" />
<path d="M110,-1118 L714,-1150 L802,-1094 L670,-1034 L222,-802 L98,-746 Z" stroke-width="0" fill="#6b8c2a" fill-opacity="0.011764705882352941" />
<path d="M626,-230 L326,-734 L326,-802 L874,-614 L294,-1198 L206,-866 Z" stroke-width="0" fill="#f6f3e9" fill-opacity="0.9529411764705882" />
<path d="M974,-418 L198,-726 L478,-734 L746,-770 L738,-850 L702,-486 Z" stroke-width="0" fill="#eff1fa" fill-opacity="0.07450980392156863" />
<path d="M966,-870 L210,-1178 L806,-382 L190,-298 L754,-934 L290,-446 Z" stroke-width="0" fill="#effda0" fill-opacity="0.00392156862745098" />
<path d="M802,-774 L226,-1050 L458,-98 L646,-278 L346,-722 L518,-446 Z" stroke-width="0" fill="#ee88be" fill-opacity="0.00392156862745098" />
<path d="M406,-314 L470,-598 L286,-866 L490,-938 L922,-906 L178,-406 Z" stroke-width="0" fill="#e9f9d6" fill-opacity="0.30196078431372547" />
<path d="M710,-1198 L518,-158 L670,-1166 L466,-1266 L306,-946 L466,-1070 Z" stroke-width="0" fill="#dffcf2" fill-opacity="0.6901960784313725" />
<path d="M662,-666 L174,-578 L306,-726 L630,-590 L770,-502 L746,-1066 Z" stroke-width="0" fill="#fffef5" fill-opacity="0.6745098039215687" />
<path d="M142,-510 L838,-570 L226,-842 L342,-910 L318,-182 L342,-1214 Z" stroke-width="0" fill="#fffaf8" fill-opacity="0.5843137254901961" />
<path d="M898,-646 L94,-1118 L810,-286 L470,-1146 L114,-758 L458,-1162 Z" stroke-width="0" fill="#cafcf6" fill-opacity="0.13725490196078433" />
<path d="M194,-1010 L398,-286 L362,-974 L434,-350 L914,-270 L306,-250 Z" stroke-width="0" fill="#eff4f7" fill-opacity="0.23137254901960785" />
<path d="M942,-826 L182,-658 L366,-1042 L90,-1238 L698,-1126 L342,-206 Z" stroke-width="0" fill="#ecf5ec" fill-opacity="0.16470588235294117" />
<path d="M326,-614 L246,-410 L410,-330 L310,-546 L818,-1186 L410,-758 Z" stroke-width="0" fill="#e8d0ee" fill-opacity="0.00784313725490196" />
<path d="M438,-110 L274,-354 L618,-858 L390,-210 L782,-126 L878,-98 Z" stroke-width="0" fill="#a6bdab" fill-opacity="0.33725490196078434" />
<path d="M570,-1014 L438,-330 L270,-282 L642,-158 L546,-1062 L970,-362 Z" stroke-width="0" fill="#df218b" fill-opacity="0.054901960784313725" />
<path d="M422,-526 L846,-718 L702,-190 L454,-862 L382,-130 L938,-382 Z" stroke-width="0" fill="#c3d2f1" fill-opacity="0.12941176470588237" />
<path d="M190,-806 L510,-790 L934,-1042 L682,-222 L182,-1014 L722,-382 Z" stroke-width="0" fill="#eec5bf" fill-opacity="0.15294117647058825" />
<path d="M106,-354 L478,-590 L194,-506 L426,-530 L186,-406 L178,-154 Z" stroke-width="0" fill="#a1f8fa" fill-opacity="0.10980392156862745" />
<path d="M534,-546 L606,-718 L446,-1210 L306,-1022 L202,-902 L702,-854 Z" stroke-width="0" fill="#d1f7d6" fill-opacity="0.0392156862745098" />
<path d="M274,-1082 L622,-718 L950,-946 L538,-550 L450,-1090 L850,-922 Z" stroke-width="0" fill="#f0d8f9" fill-opacity="0.3843137254901961" />
<path d="M218,-190 L266,-630 L342,-502 L102,-474 L462,-450 L310,-330 Z" stroke-width="0" fill="#f1e4e7" fill-opacity="0.2627450980392157" />
<path d="M314,-842 L974,-558 L970,-594 L642,-754 L762,-930 L834,-290 Z" stroke-width="0" fill="#fce4f3" fill-opacity="0.5019607843137255" />
<path d="M350,-558 L650,-850 L750,-1226 L498,-750 L826,-402 L386,-926 Z" stroke-width="0" fill="#89f0fc" fill-opacity="0.03529411764705882" />
<path d="M114,-882 L146,-802 L534,-754 L670,-86 L226,-1278 L302,-202 Z" stroke-width="0" fill="#aceefd" fill-opacity="0.10588235294117647" />
<path d="M614,-1146 L146,-1102 L218,-390 L730,-470 L822,-970 L138,-414 Z" stroke-width="0" fill="#ede6f6" fill-opacity="0.8509803921568627" />
<path d="M578,-274 L86,-474 L314,-342 L350,-186 L310,-1026 L370,-1094 Z" stroke-width="0" fill="#fae5f9" fill-opacity="0.615686274509804" />
<path d="M938,-238 L94,-798 L222,-870 L270,-342 L314,-858 L294,-434 Z" stroke-width="0" fill="#99f2f3" fill-opacity="0.023529411764705882" />
<path d="M550,-1018 L90,-474 L190,-1206 L770,-598 L890,-346 L698,-1098 Z" stroke-width="0" fill="#efefe6" fill-opacity="0.07450980392156863" />
<path d="M626,-758 L726,-146 L658,-1094 L118,-1150 L610,-278 L446,-906 Z" stroke-width="0" fill="#fdf6f8" fill-opacity="0.5686274509803921" />
<path d="M430,-418 L190,-742 L614,-838 L594,-1130 L710,-210 L454,-478 Z" stroke-width="0" fill="#f8e8f9" fill-opacity="0.6078431372549019" />
<path d="M922,-298 L718,-234 L562,-234 L422,-854 L490,-770 L318,-274 Z" stroke-width="0" fill="#edf0e6" fill-opacity="0.4745098039215686" />
<path d="M194,-206 L98,-846 L950,-574 L138,-770 L338,-706 L114,-350 Z" stroke-width="0" fill="#ece0f7" fill-opacity="0.15294117647058825" />
<path d="M378,-294 L638,-1178 L202,-790 L166,-258 L462,-150 L174,-578 Z" stroke-width="0" fill="#e8f5dc" fill-opacity="0.1450980392156863" />
<path d="M546,-306 L314,-478 L126,-206 L298,-678 L670,-194 L214,-354 Z" stroke-width="0" fill="#e2e1c8" fill-opacity="0.047058823529411764" />
<path d="M354,-1194 L354,-626 L430,-1106 L678,-302 L414,-846 L842,-1010 Z" stroke-width="0" fill="#e5e8ef" fill-opacity="0.023529411764705882" />
<path d="M502,-538 L654,-1118 L562,-1270 L102,-302 L254,-402 L414,-430 Z" stroke-width="0" fill="#f9e1fc" fill-opacity="0.2980392156862745" />
<path d="M842,-1102 L766,-406 L886,-526 L498,-186 L554,-1010 L378,-614 Z" stroke-width="0" fill="#edeae5" fill-opacity="0.40784313725490196" />
<path d="M326,-942 L922,-118 L690,-686 L910,-86 L658,-550 L586,-334 Z" stroke-width="0" fill="#9fd7d9" fill-opacity="0.06274509803921569" />
<path d="M562,-926 L330,-890 L566,-990 L618,-446 L310,-114 L590,-1114 Z" stroke-width="0" fill="#ceefee" fill-opacity="0.043137254901960784" />
<path d="M470,-1266 L694,-526 L554,-1206 L470,-186 L970,-310 L142,-378 Z" stroke-width="0" fill="#daf45a" fill-opacity="0.06666666666666667" />
<path d="M502,-1034 L382,-506 L298,-1138 L582,-626 L266,-334 L898,-622 Z" stroke-width="0" fill="#ebf7ca" fill-opacity="0.11372549019607843" />
<text x="448.0" y="0" font-size="70.0" fill="black" text-anchor="middle" transform="translate(0,17.5)">3 OF WATER</text>
</svg>