<?xml version="1.0" encoding="UTF-8"?>
<svg xmlns="http://www.w3.org/2000/svg" xmlns:xlink="http://www.w3.org/1999/xlink"
     width="896" height="1496" viewBox="0 -1400 896 1496" style="font-size:70;font-family:Poor Richard, Times New Roman;stroke:black;stroke-width:1;fill:none">
<defs>
</defs>
<path d="M682,-1110 L434,-478 L206,-82 L726,-238 L710,-718 L426,-866 Z" stroke-width="0" fill="#790000" fill-opacity="0.5803921568627451" />
<path d="M710,-354 L662,-234 L710,-950 L94,-690 L182,-98 L186,-478 Z" stroke-width="0" fill="#26243b" fill-opacity="0.8470588235294118" />
<path d="M642,-886 L546,-174 L566,-402 L490,-462 L294,-842 L798,-478 Z" stroke-width="0" fill="#bc2200" fill-opacity="0.7843137254901961" />
<path d="M242,-146 L502,-546 L614,-114 L766,-146 L190,-850 L82,-1030 Z" stroke-width="0" fill="#7f0700" fill-opacity="0.984313725490196" />
<path d="M170,-898 L154,-458 L330,-1178 L414,-714 L130,-410 L474,-1070 Z" stroke-width="0" fill="#7b0e92" fill-opacity="0.6196078431372549" />
<path d="M206,-174 L194,-478 L102,-910 L342,-442 L606,-122 L474,-202 Z" stroke-width="0" fill="#730d00" fill-opacity="0.9529411764705882" />
<path d="M102,-870 L326,-1294 L334,-998 L674,-1302 L370,-778 L730,-1154 Z" stroke-width="0" fill="#13050a" fill-opacity="0.9764705882352941" />
<path d="M662,-1294 L326,-890 L214,-978 L438,-622 L362,-722 L314,-1130 Z" stroke-width="0" fill="#3a0600" fill-opacity="0.8588235294117647" />
<path d="M114,-746 L94,-574 L110,-462 L226,-1274 L758,-290 L330,-118 Z" stroke-width="0" fill="#e3c058" fill-opacity="0.8941176470588236" />
<path d="M510,-434 L238,-674 L322,-826 L434,-510 L206,-930 L534,-778 Z" stroke-width="0" fill="#08edb5" fill-opacity="0.49411764705882355" />
<path d="M562,-930 L618,-274 L182,-942 L642,-1006 L442,-186 L678,-102 Z" stroke-width="0" fill="#8e1200" fill-opacity="0.9647058823529412" />
<path d="M538,-102 L322,-882 L202,-1022 L182,-1294 L370,-1182 L510,-638 Z" stroke-width="0" fill="#d47014" fill-opacity="0.8588235294117647" />
<path d="M302,-538 L166,-178 L530,-102 L174,-1158 L166,-706 L94,-342 Z" stroke-width="0" fill="#b93109" fill-opacity="0.9490196078431372" />
<path d="M202,-1102 L542,-910 L514,-282 L622,-1258 L682,-146 L802,-526 Z" stroke-width="0" fill="#971700" fill-opacity="0.9686274509803922" />
<path d="M406,-762 L366,-170 L278,-122 L330,-1278 L538,-446 L526,-1242 Z" stroke-width="0" fill="#fec751" fill-opacity="0.8470588235294118" />
<path d="M662,-942 L430,-270 L126,-638 L718,-1238 L558,-322 L766,-450 Z" stroke-width="0" fill="#000000" fill-opacity="0.8862745098039215" />
<path d="M426,-474 L750,-1058 L258,-634 L734,-274 L726,-598 L786,-762 Z" stroke-width="0" fill="#78bbf8" fill-opacity="0.0" />
<path d="M194,-782 L778,-522 L622,-914 L266,-1014 L150,-698 L510,-94 Z" stroke-width="0" fill="#803c00" fill-opacity="0.9607843137254902" />
<path d="M178,-1194 L438,-1046 L514,-82 L562,-702 L410,-1146 L454,-94 Z" stroke-width="0" fill="#871400" fill-opacity="0.9411764705882353" />
<path d="M182,-478 L350,-1110 L594,-230 L94,-1262 L202,-310 L566,-1290 Z" stroke-width="0" fill="#e1432e" fill-opacity="0.8745098039215686" />
<path d="M674,-742 L122,-734 L290,-94 L510,-1194 L470,-314 L642,-1102 Z" stroke-width="0" fill="#d32500" fill-opacity="0.49019607843137253" />
<path d="M734,-1302 L386,-370 L122,-970 L122,-950 L678,-954 L174,-442 Z" stroke-width="0" fill="#000000" fill-opacity="0.9568627450980393" />
<path d="M98,-902 L542,-686 L294,-430 L382,-1146 L170,-590 L98,-1186 Z" stroke-width="0" fill="#bf0000" fill-opacity="0.9372549019607843" />
<path d="M406,-238 L730,-494 L338,-1162 L542,-614 L154,-594 L554,-270 Z" stroke-width="0" fill="#6e292a" fill-opacity="0.6" />
<path d="M518,-182 L190,-698 L226,-1022 L246,-466 L134,-910 L798,-1042 Z" stroke-width="0" fill="#260000" fill-opacity="0.9607843137254902" />
<path d="M654,-390 L622,-570 L714,-338 L558,-982 L706,-806 L658,-426 Z" stroke-width="0" fill="#d117c8" fill-opacity="0.4235294117647059" />
<path d="M202,-154 L262,-162 L274,-734 L178,-102 L230,-150 L734,-250 Z" stroke-width="0" fill="#81031d" fill-opacity="0.9254901960784314" />
<path d="M114,-810 L326,-682 L326,-902 L410,-418 L366,-678 L566,-366 Z" stroke-width="0" fill="#7e7349" fill-opacity="0.5607843137254902" />
<path d="M154,-366 L310,-242 L690,-1234 L382,-574 L790,-94 L738,-566 Z" stroke-width="0" fill="#4b0000" fill-opacity="0.8352941176470589" />
<path d="M462,-746 L258,-874 L442,-214 L190,-126 L330,-482 L654,-126 Z" stroke-width="0" fill="#a31c00" fill-opacity="0.8627450980392157" />
<path d="M218,-1226 L350,-786 L150,-878 L222,-418 L142,-1050 L666,-750 Z" stroke-width="0" fill="#72181b" fill-opacity="0.21568627450980393" />
<path d="M114,-906 L238,-370 L618,-630 L158,-1026 L470,-914 L330,-746 Z" stroke-width="0" fill="#e3410c" fill-opacity="0.12549019607843137" />
<path d="M86,-638 L86,-1302 L454,-438 L218,-650 L430,-506 L402,-454 Z" stroke-width="0" fill="#090000" fill-opacity="0.8352941176470589" />
<path d="M802,-414 L250,-278 L222,-798 L434,-674 L466,-1274 L110,-502 Z" stroke-width="0" fill="#e7f307" fill-opacity="0.6078431372549019" />
<path d="M602,-1110 L210,-1234 L390,-770 L510,-1206 L142,-794 L578,-530 Z" stroke-width="0" fill="#efe8d0" fill-opacity="0.615686274509804" />
<path d="M226,-194 L506,-1262 L506,-426 L506,-226 L618,-1234 L330,-1182 Z" stroke-width="0" fill="#000004" fill-opacity="0.5019607843137255" />
<path d="M82,-526 L674,-826 L282,-842 L702,-514 L670,-434 L414,-206 Z" stroke-width="0" fill="#f3a055" fill-opacity="1.0" />
<path d="M402,-1046 L626,-966 L142,-186 L206,-1178 L290,-1158 L290,-726 Z" stroke-width="0" fill="#5c2efb" fill-opacity="0.1843137254901961" />
<path d="M446,-298 L262,-262 L338,-1138 L618,-1022 L398,-422 L118,-858 Z" stroke-width="0" fill="#000005" fill-opacity="0.9882352941176471" />
<path d="M226,-1302 L774,-438 L510,-1170 L90,-750 L182,-426 L234,-374 Z" stroke-width="0" fill="#c6cf6a" fill-opacity="0.9254901960784314" />
<path d="M598,-90 L154,-618 L750,-1050 L414,-1210 L414,-954 L198,-350 Z" stroke-width="0" fill="#952700" fill-opacity="0.9882352941176471" />
<path d="M282,-634 L150,-582 L786,-494 L218,-1034 L410,-954 L322,-1038 Z" stroke-width="0" fill="#d7e3fd" fill-opacity="0.9450980392156862" />
<path d="M354,-734 L334,-470 L318,-458 L478,-750 L146,-1214 L186,-466 Z" stroke-width="0" fill="#492b00" fill-opacity="0.8941176470588236" />
<path d="M322,-1014 L358,-1206 L142,-138 L266,-314 L658,-1102 L210,-558 Z" stroke-width="0" fill="#010c00" fill-opacity="0.8745098039215686" />
<path d="M638,-326 L274,-702 L438,-98 L242,-1086 L298,-1190 L246,-714 Z" stroke-width="0" fill="#efab26" fill-opacity="0.5058823529411764" />
<path d="M490,-522 L246,-430 L710,-1230 L370,-1314 L406,-554 L430,-1018 Z" stroke-width="0" fill="#c71200" fill-opacity="0.5568627450980392" />
<path d="M122,-914 L574,-750 L658,-1014 L690,-514 L550,-814 L698,-346 Z" stroke-width="0" fill="#f63f1d" fill-opacity="0.8" />
<path d="M590,-350 L286,-650 L474,-642 L186,-598 L686,-778 L618,-1166 Z" stroke-width="0" fill="#000000" fill-opacity="0.9921568627450981" />
<path d="M338,-954 L246,-1262 L290,-814 L758,-1046 L630,-1122 L462,-258 Z" stroke-width="0" fill="#9b820c" fill-opacity="0.027450980392156862" />
<path d="M122,-1086 L606,-562 L402,-1206 L714,-574 L598,-462 L242,-142 Z" stroke-width="0" fill="#070049" fill-opacity="0.13725490196078433" />
<path d="M150,-794 L114,-1206 L90,-206 L618,-1002 L438,-434 L366,-1262 Z" stroke-width="0" fill="#cd3500" fill-opacity="0.5725490196078431" />
<path d="M670,-98 L466,-322 L718,-406 L622,-510 L146,-1174 L658,-418 Z" stroke-width="0" fill="#ed7912" fill-opacity="0.5019607843137255" />
<path d="M402,-1118 L702,-702 L534,-802 L442,-1150 L106,-238 L130,-310 Z" stroke-width="0" fill="#d53000" fill-opacity="0.6862745098039216" />
<path d="M330,-330 L738,-1134 L522,-1158 L390,-522 L82,-886 L214,-442 Z" stroke-width="0" fill="#000000" fill-opacity="0.984313725490196" />
<path d="M802,-634 L306,-1134 L114,-386 L482,-718 L422,-1134 L514,-750 Z" stroke-width="0" fill="#be230f" fill-opacity="0.7372549019607844" />
<path d="M382,-766 L186,-250 L446,-734 L498,-1146 L706,-234 L462,-1114 Z" stroke-width="0" fill="#050000" fill-opacity="0.8352941176470589" />
<path d="M122,-526 L182,-446 L130,-742 L506,-406 L802,-534 L210,-970 Z" stroke-width="0" fill="#e1ce2f" fill-opacity="0.8235294117647058" />
<path d="M630,-662 L162,-1018 L774,-1010 L302,-1114 L538,-150 L574,-1086 Z" stroke-width="0" fill="#000000" fill-opacity="0.12156862745098039" />
<path d="M498,-122 L762,-206 L626,-458 L722,-1198 L518,-538 L446,-1202 Z" stroke-width="0" fill="#7e0000" fill-opacity="0.3137254901960784" />
<path d="M506,-926 L754,-770 L574,-918 L566,-714 L462,-1030 L634,-162 Z" stroke-width="0" fill="#984413" fill-opacity="0.16470588235294117" />
<path d="M270,-202 L326,-1154 L218,-1110 L342,-646 L414,-194 L670,-446 Z" stroke-width="0" fill="#fcbb9b" fill-opacity="0.12549019607843137" />
<path d="M334,-1186 L786,-406 L138,-518 L630,-1174 L326,-798 L350,-734 Z" stroke-width="0" fill="#a10101" fill-opacity="0.0196078431372549" />
<path d="M138,-446 L182,-406 L282,-166 L426,-646 L762,-1006 L706,-354 Z" stroke-width="0" fill="#faeff3" fill-opacity="0.9921568627450981" />
<path d="M194,-354 L106,-1270 L774,-1250 L402,-1286 L486,-962 L138,-914 Z" stroke-width="0" fill="#f77500" fill-opacity="0.5882352941176471" />
<path d="M290,-82 L186,-1194 L174,-1190 L398,-454 L394,-354 L722,-806 Z" stroke-width="0" fill="#d97b0f" fill-opacity="0.9725490196078431" />
<path d="M490,-830 L338,-382 L722,-218 L426,-674 L534,-150 L658,-714 Z" stroke-width="0" fill="#642900" fill-opacity="0.40784313725490196" />
<path d="M314,-658 L610,-730 L762,-502 L86,-158 L290,-794 L166,-846 Z" stroke-width="0" fill="#f55604" fill-opacity="0.8823529411764706" />
<path d="M230,-906 L298,-614 L302,-338 L370,-174 L94,-990 L406,-718 Z" stroke-width="0" fill="#ad9f34" fill-opacity="0.3568627450980392" />
<path d="M590,-118 L286,-1170 L410,-606 L162,-246 L578,-582 L366,-978 Z" stroke-width="0" fill="#8a770e" fill-opacity="0.4745098039215686" />
<path d="M94,-338 L246,-158 L394,-158 L226,-762 L518,-518 L258,-974 Z" stroke-width="0" fill="#f9fd57" fill-opacity="0.7176470588235294" />
<path d="M334,-1270 L450,-730 L102,-910 L378,-1094 L390,-410 L730,-762 Z" stroke-width="0" fill="#653200" fill-opacity="0.9607843137254902" />
<path d="M554,-1114 L810,-282 L178,-214 L370,-278 L314,-1078 L546,-474 Z" stroke-width="0" fill="#5e2c00" fill-opacity="0.9607843137254902" />
<path d="M334,-1198 L778,-254 L810,-1222 L726,-1206 L522,-850 L326,-90 Z" stroke-width="0" fill="#4a0100" fill-opacity="0.9803921568627451" />
<path d="M570,-934 L190,-1254 L566,-574 L490,-770 L302,-398 L546,-826 Z" stroke-width="0" fill="#f3a83f" fill-opacity="0.39215686274509803" />
<path d="M774,-914 L514,-666 L430,-550 L214,-382 L678,-830 L446,-250 Z" stroke-width="0" fill="#bbcc04" fill-opacity="0.07058823529411765" />
<path d="M382,-1250 L650,-462 L550,-102 L454,-1270 L626,-678 L98,-542 Z" stroke-width="0" fill="#fc9531" fill-opacity="0.7686274509803922" />
<path d="M554,-986 L798,-838 L310,-274 L566,-746 L154,-198 L198,-326 Z" stroke-width="0" fill="#e07e22" fill-opacity="0.6627450980392157" />
<path d="M146,-634 L530,-1242 L434,-486 L786,-814 L558,-850 L202,-858 Z" stroke-width="0" fill="#b71e00" fill-opacity="0.6392156862745098" />
<path d="M626,-174 L86,-98 L370,-774 L266,-530 L750,-838 L406,-682 Z" stroke-width="0" fill="#e57b36" fill-opacity="0.6274509803921569" />
<path d="M746,-134 L210,-894 L194,-734 L266,-266 L274,-802 L466,-658 Z" stroke-width="0" fill="#f1f544" fill-opacity="0.14901960784313725" />
<path d="M802,-118 L586,-1006 L346,-114 L326,-778 L582,-1290 L350,-586 Z" stroke-width="0" fill="#740000" fill-opacity="0.5450980392156862" />
<path d="M630,-426 L298,-1270 L358,-334 L722,-1290 L718,-830 L326,-190 Z" stroke-width="0" fill="#480407" fill-opacity="0.06274509803921569" />
<path d="M154,-90 L298,-454 L806,-902 L386,-286 L370,-634 L614,-434 Z" stroke-width="0" fill="#f19829" fill-opacity="0.5607843137254902" />
<path d="M154,-1138 L702,-846 L442,-1098 L606,-954 L550,-254 L406,-310 Z" stroke-width="0" fill="#f08012" fill-opacity="0.9725490196078431" />
<path d="M550,-1042 L574,-634 L758,-186 L374,-1146 L390,-122 L786,-1142 Z" stroke-width="0" fill="#140200" fill-opacity="0.1568627450980392" />
<path d="M810,-526 L90,-970 L294,-354 L674,-114 L142,-1006 L466,-278 Z" stroke-width="0" fill="#f2390b" fill-opacity="0.34509803921568627" />
<path d="M546,-1106 L370,-938 L410,-342 L774,-978 L778,-802 L354,-326 Z" stroke-width="0" fill="#910800" fill-opacity="0.6078431372549019" />
<path d="M374,-466 L162,-1234 L106,-350 L134,-1234 L318,-750 L342,-450 Z" stroke-width="0" fill="#a61b00" fill-opacity="0.3176470588235294" />
<path d="M86,-450 L226,-434 L610,-182 L714,-1298 L386,-314 L478,-282 Z" stroke-width="0" fill="#260c00" fill-opacity="0.5019607843137255" />
<path d="M350,-370 L110,-354 L230,-166 L678,-810 L238,-258 L450,-554 Z" stroke-width="0" fill="#cc0751" fill-opacity="0.06274509803921569" />
<path d="M762,-850 L142,-498 L174,-978 L178,-670 L366,-702 L690,-238 Z" stroke-width="0" fill="#614182" fill-opacity="0.00392156862745098" />
<path d="M754,-410 L282,-410 L246,-338 L494,-222 L434,-1050 L282,-1070 Z" stroke-width="0" fill="#261278" fill-opacity="0.0" />
<path d="M534,-918 L434,-1242 L506,-410 L326,-470 L162,-802 L670,-1098 Z" stroke-width="0" fill="#dc9135" fill-opacity="0.0784313725490196" />
<path d="M214,-710 L570,-1118 L550,-146 L222,-1110 L794,-122 L494,-922 Z" stroke-width="0" fill="#500000" fill-opacity="0.20784313725490197" />
<path d="M666,-198 L250,-878 L350,-1306 L274,-1034 L550,-1050 L638,-1134 Z" stroke-width="0" fill="#000000" fill-opacity="0.23921568627450981" />
<path d="M218,-746 L494,-98 L438,-1238 L554,-1134 L490,-210 L650,-366 Z" stroke-width="0" fill="#972f00" fill-opacity="0.396078431372549" />
<path d="M746,-226 L726,-690 L178,-1118 L378,-854 L214,-1186 L662,-626 Z" stroke-width="0" fill="#f8341e" fill-opacity="0.054901960784313725" />
<path d="M230,-922 L642,-762 L418,-630 L406,-534 L534,-430 L350,-1270 Z" stroke-width="0" fill="#f5d648" fill-opacity="0.5294117647058824" />
<path d="M526,-1286 L178,-122 L398,-626 L330,-598 L290,-918 L386,-382 Z" stroke-width="0" fill="#d98d38" fill-opacity="0.7058823529411765" />
<path d="M470,-1170 L582,-946 L270,-778 L686,-1030 L290,-218 L342,-394 Z" stroke-width="0" fill="#650200" fill-opacity="0.792156862745098" />
<text x="448.0" y="0" font-size="70.0" fill="black" text-anchor="middle" transform="translate(0,17.5)">KNIGHT OF WATER</text>
</svg>