<?xml version="1.0" encoding="UTF-8"?>
<svg xmlns="http://www.w3.org/2000/svg" xmlns:xlink="http://www.w3.org/1999/xlink"
     width="896" height="1496" viewBox="0 -1400 896 1496" style="font-size:70;font-family:Poor Richard, Times New Roman;stroke:black;stroke-width:1;fill:none">
<defs>
</defs>
<path d="M442,-934 L418,-934 L186,-330 L694,-938 L254,-390 L598,-258 Z" stroke-width="0" fill="#9dc46b" fill-opacity="0.15294117647058825" />
<path d="M782,-482 L930,-834 L158,-966 L750,-502 L346,-294 L570,-1134 Z" stroke-width="0" fill="#dcfbd8" fill-opacity="0.07450980392156863" />
<path d="M286,-586 L390,-210 L698,-262 L306,-318 L258,-1134 L750,-394 Z" stroke-width="0" fill="#055717" fill-opacity="0.4235294117647059" />
<path d="M874,-382 L702,-1070 L958,-898 L734,-218 L262,-546 L150,-182 Z" stroke-width="0" fill="#325582" fill-opacity="0.7294117647058823" />
<path d="M342,-410 L342,-430 L546,-958 L254,-1146 L778,-1246 L850,-482 Z" stroke-width="0" fill="#001a58" fill-opacity="0.7647058823529411" />
<path d="M182,-678 L738,-362 L402,-406 L314,-462 L518,-598 L430,-98 Z" stroke-width="0" fill="#120e15" fill-opacity="0.9098039215686274" />
<path d="M170,-1058 L418,-382 L858,-210 L526,-1166 L798,-378 L770,-278 Z" stroke-width="0" fill="#000100" fill-opacity="1.0" />
<path d="M218,-398 L218,-566 L294,-234 L258,-854 L574,-678 L538,-474 Z" stroke-width="0" fill="#bba63d" fill-opacity="0.34509803921568627" />
<path d="M146,-346 L786,-346 L618,-342 L138,-90 L530,-606 L282,-942 Z" stroke-width="0" fill="#000000" fill-opacity="0.984313725490196" />
<path d="M658,-358 L626,-686 L854,-1186 L234,-690 L218,-1170 L566,-198 Z" stroke-width="0" fill="#037ae9" fill-opacity="0.6313725490196078" />
<path d="M330,-666 L274,-254 L962,-114 L874,-650 L930,-154 L406,-198 Z" stroke-width="0" fill="#000000" fill-opacity="0.9568627450980393" />
<path d="M358,-1006 L710,-1266 L266,-690 L270,-234 L118,-242 L82,-1114 Z" stroke-width="0" fill="#001060" fill-opacity="0.6470588235294118" />
<path d="M886,-518 L902,-1210 L98,-954 L130,-214 L162,-974 L274,-1218 Z" stroke-width="0" fill="#0f8297" fill-opacity="0.5019607843137255" />
<path d="M610,-666 L230,-370 L334,-98 L470,-90 L234,-758 L762,-346 Z" stroke-width="0" fill="#000000" fill-opacity="0.9764705882352941" />
<path d="M442,-90 L578,-270 L130,-726 L350,-526 L234,-494 L710,-938 Z" stroke-width="0" fill="#000008" fill-opacity="0.8784313725490196" />
<path d="M218,-278 L814,-198 L442,-666 L138,-262 L862,-694 L142,-122 Z" stroke-width="0" fill="#000000" fill-opacity="0.8901960784313725" />
<path d="M238,-798 L330,-554 L510,-94 L826,-214 L298,-1146 L454,-954 Z" stroke-width="0" fill="#000000" fill-opacity="1.0" />
<path d="M254,-570 L954,-98 L502,-678 L678,-174 L174,-694 L702,-386 Z" stroke-width="0" fill="#000000" fill-opacity="0.9568627450980393" />
<path d="M334,-290 L318,-154 L658,-362 L598,-702 L974,-694 L334,-686 Z" stroke-width="0" fill="#04032b" fill-opacity="0.33725490196078434" />
<path d="M362,-318 L638,-1266 L326,-1098 L574,-1102 L370,-130 L254,-514 Z" stroke-width="0" fill="#002738" fill-opacity="0.803921568627451" />
<path d="M614,-286 L406,-942 L174,-518 L538,-798 L698,-530 L218,-1118 Z" stroke-width="0" fill="#071ee3" fill-opacity="0.8901960784313725" />
<path d="M726,-430 L798,-698 L246,-610 L654,-222 L978,-650 L554,-266 Z" stroke-width="0" fill="#270000" fill-opacity="0.8627450980392157" />
<path d="M710,-134 L210,-302 L470,-730 L270,-370 L146,-98 L350,-1174 Z" stroke-width="0" fill="#000000" fill-opacity="0.8431372549019608" />
<path d="M154,-1034 L466,-638 L402,-918 L406,-866 L370,-750 L534,-218 Z" stroke-width="0" fill="#090207" fill-opacity="0.8549019607843137" />
<path d="M742,-1082 L250,-1130 L358,-778 L390,-230 L642,-1114 L646,-238 Z" stroke-width="0" fill="#130210" fill-opacity="0.9215686274509803" />
<path d="M198,-734 L230,-430 L730,-406 L426,-130 L674,-970 L350,-250 Z" stroke-width="0" fill="#7d365a" fill-opacity="0.7607843137254902" />
<path d="M118,-938 L214,-1170 L610,-146 L506,-102 L230,-326 L786,-534 Z" stroke-width="0" fill="#000000" fill-opacity="0.9764705882352941" />
<path d="M506,-262 L194,-390 L606,-466 L182,-454 L854,-318 L266,-474 Z" stroke-width="0" fill="#751ed1" fill-opacity="0.011764705882352941" />
<path d="M398,-170 L410,-182 L338,-1202 L354,-874 L514,-870 L654,-650 Z" stroke-width="0" fill="#182edc" fill-opacity="0.8941176470588236" />
<path d="M542,-718 L670,-310 L798,-278 L214,-282 L510,-730 L294,-454 Z" stroke-width="0" fill="#010000" fill-opacity="0.9176470588235294" />
<path d="M914,-994 L486,-1034 L974,-634 L618,-490 L114,-1010 L582,-266 Z" stroke-width="0" fill="#070000" fill-opacity="0.9686274509803922" />
<path d="M338,-158 L746,-282 L950,-690 L266,-470 L346,-214 L906,-282 Z" stroke-width="0" fill="#0b0000" fill-opacity="0.33725490196078434" />
<path d="M278,-870 L206,-534 L582,-1122 L522,-1006 L130,-950 L242,-658 Z" stroke-width="0" fill="#21cbd8" fill-opacity="0.9921568627450981" />
<path d="M582,-966 L866,-814 L650,-1226 L470,-130 L406,-818 L162,-1186 Z" stroke-width="0" fill="#024774" fill-opacity="0.4117647058823529" />
<path d="M494,-382 L818,-1250 L430,-90 L170,-1258 L670,-630 L362,-990 Z" stroke-width="0" fill="#216076" fill-opacity="0.9882352941176471" />
<path d="M806,-522 L198,-578 L614,-714 L150,-518 L830,-966 L706,-326 Z" stroke-width="0" fill="#dcf4e5" fill-opacity="0.9647058823529412" />
<path d="M774,-930 L114,-426 L466,-222 L550,-954 L246,-562 L242,-674 Z" stroke-width="0" fill="#fefafa" fill-opacity="0.9764705882352941" />
<path d="M570,-1194 L226,-618 L634,-354 L814,-1022 L766,-930 L230,-90 Z" stroke-width="0" fill="#000000" fill-opacity="0.9607843137254902" />
<path d="M934,-774 L206,-1182 L594,-102 L514,-542 L102,-882 L518,-698 Z" stroke-width="0" fill="#5e03eb" fill-opacity="0.01568627450980392" />
<path d="M798,-402 L838,-90 L266,-1158 L734,-1078 L138,-1046 L494,-1022 Z" stroke-width="0" fill="#000000" fill-opacity="0.8980392156862745" />
<path d="M590,-146 L594,-138 L890,-906 L410,-1102 L890,-1106 L122,-586 Z" stroke-width="0" fill="#102a3d" fill-opacity="0.09019607843137255" />
<path d="M526,-150 L650,-978 L398,-710 L154,-674 L654,-674 L206,-878 Z" stroke-width="0" fill="#080500" fill-opacity="0.4627450980392157" />
<path d="M502,-194 L606,-898 L118,-406 L898,-110 L238,-638 L134,-682 Z" stroke-width="0" fill="#000000" fill-opacity="0.796078431372549" />
<path d="M782,-822 L530,-810 L406,-186 L518,-354 L594,-874 L258,-338 Z" stroke-width="0" fill="#b80953" fill-opacity="0.984313725490196" />
<path d="M126,-210 L686,-858 L934,-862 L410,-266 L646,-882 L122,-378 Z" stroke-width="0" fill="#f2e8e1" fill-opacity="0.9019607843137255" />
<path d="M962,-1246 L226,-838 L530,-934 L726,-726 L594,-226 L618,-190 Z" stroke-width="0" fill="#000208" fill-opacity="0.5019607843137255" />
<path d="M374,-126 L534,-886 L974,-602 L598,-1014 L82,-94 L150,-1270 Z" stroke-width="0" fill="#00240e" fill-opacity="0.7607843137254902" />
<path d="M702,-318 L354,-286 L622,-1086 L870,-382 L250,-510 L402,-1214 Z" stroke-width="0" fill="#100516" fill-opacity="0.7372549019607844" />
<path d="M810,-810 L434,-382 L950,-506 L518,-1098 L266,-1050 L162,-426 Z" stroke-width="0" fill="#e30471" fill-opacity="0.0196078431372549" />
<path d="M138,-654 L578,-538 L562,-294 L602,-526 L442,-86 L154,-554 Z" stroke-width="0" fill="#000000" fill-opacity="0.9333333333333333" />
<path d="M666,-630 L906,-598 L778,-222 L930,-262 L366,-546 L470,-706 Z" stroke-width="0" fill="#130000" fill-opacity="0.9686274509803922" />
<path d="M722,-678 L146,-266 L738,-842 L346,-818 L618,-778 L258,-1150 Z" stroke-width="0" fill="#010000" fill-opacity="0.42745098039215684" />
<path d="M374,-870 L634,-334 L222,-382 L126,-1022 L290,-982 L862,-938 Z" stroke-width="0" fill="#7d97f3" fill-opacity="0.8784313725490196" />
<path d="M570,-770 L430,-582 L742,-530 L250,-390 L862,-442 L574,-106 Z" stroke-width="0" fill="#000000" fill-opacity="0.8784313725490196" />
<path d="M538,-442 L206,-314 L222,-286 L126,-1158 L966,-526 L258,-830 Z" stroke-width="0" fill="#6bc72b" fill-opacity="0.3333333333333333" />
<path d="M530,-302 L950,-774 L158,-294 L590,-562 L298,-274 L650,-958 Z" stroke-width="0" fill="#fbf3ff" fill-opacity="0.9372549019607843" />
<path d="M458,-510 L202,-906 L110,-962 L950,-1190 L774,-818 L118,-454 Z" stroke-width="0" fill="#144b89" fill-opacity="0.5568627450980392" />
<path d="M510,-1198 L170,-1202 L234,-458 L858,-970 L638,-826 L646,-410 Z" stroke-width="0" fill="#033256" fill-opacity="0.6823529411764706" />
<path d="M230,-338 L638,-718 L118,-698 L490,-1102 L626,-606 L614,-566 Z" stroke-width="0" fill="#a0ddd0" fill-opacity="0.34901960784313724" />
<path d="M590,-766 L590,-530 L614,-1118 L350,-442 L114,-430 L518,-750 Z" stroke-width="0" fill="#1b2629" fill-opacity="0.796078431372549" />
<path d="M702,-674 L750,-910 L930,-610 L446,-270 L358,-1014 L686,-858 Z" stroke-width="0" fill="#23c454" fill-opacity="0.0" />
<path d="M606,-130 L298,-982 L186,-602 L666,-706 L714,-926 L450,-350 Z" stroke-width="0" fill="#c16b0a" fill-opacity="0.03137254901960784" />
<path d="M658,-722 L630,-842 L314,-390 L510,-822 L738,-286 L606,-82 Z" stroke-width="0" fill="#000000" fill-opacity="0.7019607843137254" />
<path d="M206,-566 L818,-414 L770,-134 L742,-446 L302,-626 L846,-498 Z" stroke-width="0" fill="#2f3829" fill-opacity="0.9411764705882353" />
<path d="M122,-1154 L666,-538 L330,-242 L586,-598 L110,-86 L606,-418 Z" stroke-width="0" fill="#000000" fill-opacity="0.8823529411764706" />
<path d="M502,-798 L182,-926 L386,-482 L410,-102 L370,-642 L658,-450 Z" stroke-width="0" fill="#510e07" fill-opacity="0.054901960784313725" />
<path d="M898,-642 L590,-810 L914,-306 L550,-522 L270,-1226 L578,-226 Z" stroke-width="0" fill="#00384c" fill-opacity="0.11764705882352941" />
<path d="M330,-450 L910,-1202 L418,-338 L846,-1262 L370,-858 L250,-94 Z" stroke-width="0" fill="#430422" fill-opacity="0.6196078431372549" />
<path d="M118,-334 L226,-1146 L826,-1174 L90,-494 L394,-706 L102,-1066 Z" stroke-width="0" fill="#757a9b" fill-opacity="0.7372549019607844" />
<path d="M766,-502 L922,-274 L942,-1018 L454,-614 L930,-342 L582,-82 Z" stroke-width="0" fill="#000012" fill-opacity="0.5137254901960784" />
<path d="M362,-1242 L86,-806 L706,-806 L586,-374 L970,-654 L438,-822 Z" stroke-width="0" fill="#1f6c6a" fill-opacity="0.38823529411764707" />
<path d="M742,-690 L170,-594 L934,-150 L814,-666 L254,-378 L566,-1222 Z" stroke-width="0" fill="#20163b" fill-opacity="0.9411764705882353" />
<path d="M478,-678 L290,-1082 L354,-1222 L286,-90 L282,-130 L366,-678 Z" stroke-width="0" fill="#2a476e" fill-opacity="0.8470588235294118" />
<path d="M282,-394 L802,-450 L398,-222 L546,-1170 L82,-1106 L534,-158 Z" stroke-width="0" fill="#36739a" fill-opacity="0.8196078431372549" />
<path d="M626,-598 L382,-174 L594,-306 L270,-634 L506,-118 L630,-422 Z" stroke-width="0" fill="#000303" fill-opacity="0.9882352941176471" />
<path d="M654,-966 L798,-298 L454,-166 L202,-114 L462,-338 L930,-314 Z" stroke-width="0" fill="#000000" fill-opacity="0.8156862745098039" />
<path d="M378,-218 L498,-1206 L942,-162 L254,-198 L866,-558 L454,-106 Z" stroke-width="0" fill="#000000" fill-opacity="0.7843137254901961" />
<path d="M470,-610 L358,-262 L498,-866 L174,-1170 L722,-306 L750,-190 Z" stroke-width="0" fill="#4770ab" fill-opacity="0.3843137254901961" />
<path d="M638,-902 L702,-726 L846,-118 L338,-278 L554,-578 L686,-790 Z" stroke-width="0" fill="#000000" fill-opacity="0.9725490196078431" />
<path d="M774,-290 L90,-754 L570,-1102 L486,-678 L90,-1014 L522,-1042 Z" stroke-width="0" fill="#8c64e1" fill-opacity="0.10980392156862745" />
<path d="M598,-1170 L510,-814 L270,-482 L238,-658 L886,-1230 L934,-566 Z" stroke-width="0" fill="#4c6592" fill-opacity="0.9647058823529412" />
<path d="M602,-654 L374,-202 L686,-514 L534,-606 L214,-982 L158,-354 Z" stroke-width="0" fill="#a69ab5" fill-opacity="0.5215686274509804" />
<path d="M434,-394 L358,-778 L974,-382 L474,-1034 L318,-1046 L278,-150 Z" stroke-width="0" fill="#030000" fill-opacity="0.43529411764705883" />
<path d="M214,-426 L690,-598 L410,-554 L862,-718 L198,-282 L414,-158 Z" stroke-width="0" fill="#000000" fill-opacity="0.16470588235294117" />
<path d="M194,-318 L914,-210 L250,-618 L326,-554 L266,-326 L566,-834 Z" stroke-width="0" fill="#000000" fill-opacity="0.7686274509803922" />
<path d="M922,-278 L322,-494 L818,-466 L266,-1230 L98,-862 L270,-98 Z" stroke-width="0" fill="#000000" fill-opacity="0.1450980392156863" />
<path d="M194,-414 L610,-362 L406,-246 L434,-1090 L482,-818 L310,-866 Z" stroke-width="0" fill="#4f2702" fill-opacity="0.10196078431372549" />
<path d="M126,-1098 L498,-466 L846,-922 L142,-586 L314,-946 L322,-666 Z" stroke-width="0" fill="#8b95bb" fill-opacity="0.5019607843137255" />
<path d="M610,-878 L138,-138 L474,-286 L546,-742 L562,-530 L782,-1050 Z" stroke-width="0" fill="#1e0000" fill-opacity="0.054901960784313725" />
<path d="M398,-330 L690,-598 L386,-1230 L298,-874 L242,-118 L658,-910 Z" stroke-width="0" fill="#7fa59c" fill-opacity="0.4980392156862745" />
<path d="M838,-726 L482,-994 L338,-506 L830,-1198 L762,-1138 L518,-374 Z" stroke-width="0" fill="#5d82b1" fill-opacity="0.9372549019607843" />
<path d="M414,-406 L678,-1126 L886,-710 L626,-810 L714,-714 L898,-1034 Z" stroke-width="0" fill="#6e94cb" fill-opacity="0.6235294117647059" />
<path d="M814,-334 L94,-446 L550,-942 L758,-142 L414,-486 L570,-338 Z" stroke-width="0" fill="#ffd6aa" fill-opacity="0.43137254901960786" />
<path d="M254,-606 L634,-142 L870,-1174 L282,-334 L890,-694 L786,-1022 Z" stroke-width="0" fill="#857887" fill-opacity="0.34901960784313724" />
<path d="M906,-998 L810,-310 L278,-522 L186,-598 L466,-506 L542,-1154 Z" stroke-width="0" fill="#daa7d8" fill-opacity="0.054901960784313725" />
<path d="M266,-502 L362,-82 L254,-406 L130,-482 L686,-538 L942,-730 Z" stroke-width="0" fill="#d8be8f" fill-opacity="0.27058823529411763" />
<path d="M194,-846 L866,-734 L762,-1278 L266,-410 L246,-898 L730,-634 Z" stroke-width="0" fill="#007274" fill-opacity="0.20392156862745098" />
<path d="M442,-634 L914,-326 L222,-626 L90,-614 L358,-166 L282,-778 Z" stroke-width="0" fill="#ffc9c1" fill-opacity="0.09411764705882353" />
<path d="M514,-1190 L170,-438 L690,-902 L374,-646 L574,-1130 L966,-966 Z" stroke-width="0" fill="#828ed8" fill-opacity="0.41568627450980394" />
<path d="M422,-426 L374,-606 L774,-366 L142,-614 L90,-498 L966,-1038 Z" stroke-width="0" fill="#d2b88a" fill-opacity="0.33725490196078434" />
<text x="448.0" y="0" font-size="70.0" fill="black" text-anchor="middle" transform="translate(0,17.5)">PAGE OF WATER</text>
</svg>