<?xml version="1.0" encoding="UTF-8"?>
<svg xmlns="http://www.w3.org/2000/svg" xmlns:xlink="http://www.w3.org/1999/xlink"
     width="896" height="1496" viewBox="0 -1400 896 1496" style="font-size:70;font-family:Poor Richard, Times New Roman;stroke:black;stroke-width:1;fill:none">
<defs>
</defs>
<path d="M666,-974 L110,-842 L338,-998 L658,-914 L782,-962 L490,-234 Z" stroke-width="0" fill="#fffad9" fill-opacity="0.10980392156862745" />
<path d="M770,-186 L906,-1170 L638,-542 L370,-746 L478,-734 L286,-574 Z" stroke-width="0" fill="#ecf2ff" fill-opacity="0.01568627450980392" />
<path d="M394,-710 L734,-1026 L806,-1010 L830,-1218 L666,-474 L294,-958 Z" stroke-width="0" fill="#ecffe3" fill-opacity="0.058823529411764705" />
<path d="M886,-334 L618,-458 L110,-530 L606,-170 L922,-282 L798,-478 Z" stroke-width="0" fill="#54e5dc" fill-opacity="0.03137254901960784" />
<path d="M550,-1234 L390,-914 L682,-514 L606,-554 L666,-782 L794,-86 Z" stroke-width="0" fill="#d8e4dc" fill-opacity="0.2627450980392157" />
<path d="M818,-194 L326,-1010 L618,-1130 L258,-454 L470,-1054 L810,-934 Z" stroke-width="0" fill="#fea4e6" fill-opacity="0.00392156862745098" />
<path d="M490,-190 L934,-902 L330,-190 L186,-898 L642,-634 L810,-1222 Z" stroke-width="0" fill="#fffbf9" fill-opacity="0.047058823529411764" />
<path d="M458,-90 L394,-282 L390,-1186 L326,-1022 L946,-974 L442,-158 Z" stroke-width="0" fill="#d4fbcf" fill-opacity="0.1803921568627451" />
<path d="M446,-838 L278,-726 L466,-522 L342,-1218 L566,-334 L466,-394 Z" stroke-width="0" fill="#109e5a" fill-opacity="0.0" />
<path d="M546,-258 L122,-470 L530,-886 L86,-1178 L386,-1230 L842,-418 Z" stroke-width="0" fill="#e8d9fc" fill-opacity="0.03529411764705882" />
<path d="M746,-622 L630,-442 L502,-202 L750,-690 L506,-882 L134,-682 Z" stroke-width="0" fill="#e7f0eb" fill-opacity="0.30980392156862746" />
<path d="M246,-1138 L274,-478 L362,-898 L690,-902 L322,-538 L86,-562 Z" stroke-width="0" fill="#c28d9b" fill-opacity="0.0" />
<path d="M598,-778 L882,-602 L214,-250 L206,-878 L326,-694 L330,-242 Z" stroke-width="0" fill="#e0d0fa" fill-opacity="0.043137254901960784" />
<path d="M894,-658 L890,-374 L326,-174 L198,-978 L130,-150 L94,-858 Z" stroke-width="0" fill="#f3e9f1" fill-opacity="0.08627450980392157" />
<path d="M538,-1178 L286,-622 L290,-334 L706,-174 L146,-598 L762,-1234 Z" stroke-width="0" fill="#fcdbfd" fill-opacity="0.054901960784313725" />
<path d="M702,-338 L674,-390 L118,-450 L270,-1130 L498,-214 L366,-1250 Z" stroke-width="0" fill="#dbd3f5" fill-opacity="0.011764705882352941" />
<path d="M522,-1234 L590,-838 L258,-1038 L818,-962 L418,-826 L610,-902 Z" stroke-width="0" fill="#fbd4e8" fill-opacity="0.01568627450980392" />
<path d="M418,-646 L570,-198 L758,-162 L270,-510 L166,-806 L106,-1250 Z" stroke-width="0" fill="#fce6f5" fill-opacity="0.09803921568627451" />
<path d="M186,-690 L434,-562 L798,-746 L658,-322 L550,-890 L430,-778 Z" stroke-width="0" fill="#8cf2ef" fill-opacity="0.13725490196078433" />
<path d="M570,-942 L422,-1086 L334,-1178 L530,-266 L482,-110 L878,-1206 Z" stroke-width="0" fill="#f0afde" fill-opacity="0.12941176470588237" />
<path d="M190,-766 L674,-382 L162,-886 L286,-538 L706,-854 L582,-462 Z" stroke-width="0" fill="#f853ab" fill-opacity="0.11372549019607843" />
<path d="M218,-666 L514,-202 L870,-722 L350,-478 L374,-1158 L738,-1034 Z" stroke-width="0" fill="#ded2f5" fill-opacity="0.00784313725490196" />
<path d="M234,-546 L862,-514 L314,-266 L882,-178 L570,-1014 L250,-1202 Z" stroke-width="0" fill="#f7eefd" fill-opacity="0.32941176470588235" />
<path d="M98,-258 L654,-1122 L842,-154 L238,-670 L390,-378 L802,-678 Z" stroke-width="0" fill="#ced88b" fill-opacity="0.023529411764705882" />
<path d="M138,-250 L542,-410 L462,-178 L142,-98 L630,-310 L198,-350 Z" stroke-width="0" fill="#288427" fill-opacity="0.6705882352941176" />
<path d="M366,-694 L298,-582 L686,-1130 L522,-326 L174,-1106 L826,-1050 Z" stroke-width="0" fill="#a6a084" fill-opacity="0.00392156862745098" />
<path d="M518,-350 L154,-822 L166,-86 L494,-286 L226,-890 L838,-810 Z" stroke-width="0" fill="#fde3e7" fill-opacity="0.8274509803921568" />
<path d="M478,-1118 L802,-426 L154,-482 L150,-326 L582,-122 L690,-194 Z" stroke-width="0" fill="#316112" fill-opacity="0.9450980392156862" />
<path d="M374,-482 L206,-1182 L674,-726 L650,-1250 L686,-346 L694,-1078 Z" stroke-width="0" fill="#f8f5e9" fill-opacity="0.03137254901960784" />
<path d="M250,-198 L566,-758 L98,-350 L682,-642 L962,-634 L138,-826 Z" stroke-width="0" fill="#040928" fill-opacity="0.8235294117647058" />
<path d="M690,-990 L550,-282 L302,-470 L870,-838 L886,-1062 L338,-254 Z" stroke-width="0" fill="#d47ba9" fill-opacity="0.00392156862745098" />
<path d="M170,-334 L466,-854 L526,-254 L206,-686 L898,-418 L134,-742 Z" stroke-width="0" fill="#e4bbff" fill-opacity="0.9058823529411765" />
<path d="M570,-1110 L958,-734 L250,-194 L970,-538 L266,-1022 L726,-378 Z" stroke-width="0" fill="#d5f0da" fill-opacity="0.08235294117647059" />
<path d="M598,-118 L494,-798 L94,-830 L478,-654 L546,-518 L782,-638 Z" stroke-width="0" fill="#2d3000" fill-opacity="0.2784313725490196" />
<path d="M86,-606 L562,-1250 L118,-206 L570,-566 L386,-1150 L182,-526 Z" stroke-width="0" fill="#daf7f7" fill-opacity="0.25098039215686274" />
<path d="M390,-970 L498,-146 L426,-722 L630,-986 L166,-318 L706,-1130 Z" stroke-width="0" fill="#e9f8f7" fill-opacity="0.6392156862745098" />
<path d="M710,-754 L886,-950 L486,-834 L914,-994 L126,-1030 L882,-354 Z" stroke-width="0" fill="#e7f8c1" fill-opacity="0.00784313725490196" />
<path d="M790,-1022 L314,-1062 L98,-770 L306,-558 L118,-670 L118,-662 Z" stroke-width="0" fill="#d8c3e7" fill-opacity="0.00392156862745098" />
<path d="M626,-870 L782,-1198 L362,-810 L194,-610 L514,-466 L238,-498 Z" stroke-width="0" fill="#a7add3" fill-opacity="0.00392156862745098" />
<path d="M742,-734 L462,-566 L358,-882 L578,-734 L602,-106 L570,-402 Z" stroke-width="0" fill="#056139" fill-opacity="0.5098039215686274" />
<path d="M662,-450 L334,-282 L302,-270 L430,-358 L162,-790 L258,-330 Z" stroke-width="0" fill="#f3eee9" fill-opacity="0.9058823529411765" />
<path d="M762,-94 L566,-486 L302,-450 L622,-382 L590,-114 L650,-654 Z" stroke-width="0" fill="#112200" fill-opacity="0.9411764705882353" />
<path d="M262,-82 L110,-770 L490,-122 L566,-742 L934,-530 L674,-606 Z" stroke-width="0" fill="#86a394" fill-opacity="0.3058823529411765" />
<path d="M366,-986 L274,-814 L294,-122 L378,-602 L526,-1270 L546,-642 Z" stroke-width="0" fill="#cee1d0" fill-opacity="0.011764705882352941" />
<path d="M862,-394 L198,-638 L510,-1066 L222,-410 L342,-494 L218,-1274 Z" stroke-width="0" fill="#ebd1e6" fill-opacity="0.050980392156862744" />
<path d="M146,-886 L430,-1066 L386,-114 L498,-854 L250,-142 L186,-434 Z" stroke-width="0" fill="#d8e6d2" fill-opacity="0.3333333333333333" />
<path d="M566,-274 L538,-658 L658,-998 L790,-1034 L426,-1086 L966,-422 Z" stroke-width="0" fill="#f5fcf3" fill-opacity="0.984313725490196" />
<path d="M714,-1178 L466,-370 L278,-758 L94,-634 L406,-542 L498,-1086 Z" stroke-width="0" fill="#fddbfa" fill-opacity="0.11764705882352941" />
<path d="M782,-1014 L898,-654 L614,-850 L914,-210 L658,-1146 L690,-210 Z" stroke-width="0" fill="#edf4f0" fill-opacity="0.00784313725490196" />
<path d="M302,-1046 L858,-570 L382,-466 L922,-342 L358,-606 L830,-230 Z" stroke-width="0" fill="#f1fffe" fill-opacity="0.8549019607843137" />
<path d="M98,-702 L262,-1034 L366,-530 L398,-774 L522,-334 L822,-82 Z" stroke-width="0" fill="#d8f3ef" fill-opacity="0.1843137254901961" />
<path d="M170,-550 L638,-126 L274,-918 L114,-486 L466,-506 L474,-266 Z" stroke-width="0" fill="#c6fdbf" fill-opacity="0.2627450980392157" />
<path d="M478,-974 L506,-434 L254,-114 L678,-574 L98,-414 L670,-1238 Z" stroke-width="0" fill="#fda4cc" fill-opacity="0.058823529411764705" />
<path d="M402,-426 L294,-210 L518,-510 L966,-1050 L942,-198 L370,-906 Z" stroke-width="0" fill="#120000" fill-opacity="0.403921568627451" />
<path d="M278,-774 L806,-398 L914,-838 L338,-778 L782,-642 L538,-474 Z" stroke-width="0" fill="#63c973" fill-opacity="0.043137254901960784" />
<path d="M514,-334 L198,-910 L174,-226 L330,-418 L790,-158 L166,-1126 Z" stroke-width="0" fill="#f9f9e3" fill-opacity="0.043137254901960784" />
<path d="M630,-566 L690,-1250 L546,-418 L82,-178 L830,-946 L182,-206 Z" stroke-width="0" fill="#f5dcf0" fill-opacity="0.14901960784313725" />
<path d="M678,-530 L410,-626 L230,-478 L818,-126 L678,-514 L790,-530 Z" stroke-width="0" fill="#1a001e" fill-opacity="0.6509803921568628" />
<path d="M810,-502 L634,-338 L446,-538 L562,-1054 L310,-550 L222,-890 Z" stroke-width="0" fill="#95f3d8" fill-opacity="0.06666666666666667" />
<path d="M478,-210 L910,-1006 L826,-782 L106,-134 L190,-766 L294,-1082 Z" stroke-width="0" fill="#defaf3" fill-opacity="0.6549019607843137" />
<path d="M342,-886 L326,-974 L650,-202 L386,-562 L566,-526 L818,-918 Z" stroke-width="0" fill="#edeedd" fill-opacity="0.796078431372549" />
<path d="M326,-134 L550,-954 L314,-866 L718,-1234 L562,-1070 L962,-410 Z" stroke-width="0" fill="#da93a6" fill-opacity="0.00392156862745098" />
<path d="M638,-706 L806,-514 L638,-766 L954,-118 L230,-874 L730,-402 Z" stroke-width="0" fill="#2c3849" fill-opacity="0.8196078431372549" />
<path d="M546,-958 L482,-1154 L442,-1086 L422,-690 L542,-226 L406,-142 Z" stroke-width="0" fill="#bbfefc" fill-opacity="0.22745098039215686" />
<path d="M134,-946 L842,-774 L94,-846 L494,-174 L474,-438 L430,-1222 Z" stroke-width="0" fill="#f8a8d8" fill-opacity="0.06666666666666667" />
<path d="M190,-114 L922,-510 L662,-126 L586,-370 L442,-162 L126,-630 Z" stroke-width="0" fill="#1e9c1b" fill-opacity="0.20784313725490197" />
<path d="M106,-166 L302,-150 L86,-1190 L258,-514 L286,-90 L486,-282 Z" stroke-width="0" fill="#c9f3f0" fill-opacity="0.058823529411764705" />
<path d="M758,-590 L174,-822 L894,-1102 L494,-122 L746,-482 L114,-490 Z" stroke-width="0" fill="#f7e0e9" fill-opacity="0.050980392156862744" />
<path d="M286,-274 L226,-758 L302,-462 L450,-466 L534,-1202 L962,-470 Z" stroke-width="0" fill="#f3e9ea" fill-opacity="0.09411764705882353" />
<path d="M370,-586 L306,-574 L194,-1150 L538,-862 L334,-958 L230,-550 Z" stroke-width="0" fill="#f0dbfd" fill-opacity="0.23921568627450981" />
<path d="M486,-190 L978,-602 L598,-590 L278,-686 L542,-534 L190,-326 Z" stroke-width="0" fill="#4c897b" fill-opacity="0.3176470588235294" />
<path d="M878,-522 L458,-1182 L194,-574 L738,-774 L166,-426 L118,-1078 Z" stroke-width="0" fill="#e5f2cd" fill-opacity="0.047058823529411764" />
<path d="M726,-682 L102,-398 L438,-842 L942,-242 L262,-210 L814,-1258 Z" stroke-width="0" fill="#fcd4e5" fill-opacity="0.03137254901960784" />
<path d="M378,-1098 L402,-1266 L370,-170 L174,-886 L190,-1234 L194,-222 Z" stroke-width="0" fill="#e6fff4" fill-opacity="0.1411764705882353" />
<path d="M522,-478 L262,-1030 L238,-562 L290,-1218 L958,-262 L618,-170 Z" stroke-width="0" fill="#ffebf8" fill-opacity="0.4549019607843137" />
<path d="M358,-234 L806,-998 L90,-338 L442,-1094 L650,-1054 L402,-318 Z" stroke-width="0" fill="#ebf0fe" fill-opacity="0.6549019607843137" />
<path d="M266,-530 L610,-354 L366,-162 L510,-710 L150,-622 L98,-518 Z" stroke-width="0" fill="#cccdb6" fill-opacity="0.16862745098039217" />
<path d="M802,-278 L274,-990 L150,-630 L494,-1094 L222,-386 L614,-750 Z" stroke-width="0" fill="#fb99bd" fill-opacity="0.49019607843137253" />
<path d="M334,-990 L970,-590 L242,-282 L950,-174 L754,-974 L966,-306 Z" stroke-width="0" fill="#4a7f48" fill-opacity="0.592156862745098" />
<path d="M954,-334 L650,-122 L562,-786 L394,-510 L850,-718 L378,-462 Z" stroke-width="0" fill="#58a45d" fill-opacity="0.5333333333333333" />
<path d="M910,-158 L394,-770 L238,-662 L366,-514 L898,-646 L850,-774 Z" stroke-width="0" fill="#88698d" fill-opacity="0.48627450980392156" />
<path d="M634,-1210 L978,-1102 L358,-430 L298,-1182 L322,-886 L166,-1110 Z" stroke-width="0" fill="#c9f7f1" fill-opacity="0.058823529411764705" />
<path d="M594,-1066 L270,-938 L270,-434 L894,-878 L910,-782 L130,-714 Z" stroke-width="0" fill="#e0d2ee" fill-opacity="0.3058823529411765" />
<path d="M398,-746 L322,-562 L138,-262 L534,-574 L838,-450 L786,-622 Z" stroke-width="0" fill="#1d4b17" fill-opacity="0.18823529411764706" />
<path d="M662,-302 L118,-706 L210,-1050 L722,-146 L194,-510 L814,-998 Z" stroke-width="0" fill="#e3f6f2" fill-opacity="0.4470588235294118" />
<path d="M686,-118 L462,-906 L538,-338 L346,-818 L690,-802 L274,-1190 Z" stroke-width="0" fill="#f5efad" fill-opacity="0.07058823529411765" />
<path d="M682,-474 L506,-254 L806,-778 L770,-110 L294,-582 L322,-638 Z" stroke-width="0" fill="#9a8cc9" fill-opacity="0.33725490196078434" />
<path d="M218,-122 L86,-726 L586,-790 L122,-118 L834,-142 L150,-550 Z" stroke-width="0" fill="#7a65bb" fill-opacity="0.396078431372549" />
<path d="M430,-750 L606,-706 L382,-1126 L830,-638 L358,-1178 L506,-834 Z" stroke-width="0" fill="#cbf2d8" fill-opacity="0.06666666666666667" />
<path d="M526,-362 L858,-890 L410,-1094 L410,-650 L230,-574 L86,-642 Z" stroke-width="0" fill="#fb9bd8" fill-opacity="0.023529411764705882" />
<path d="M406,-418 L974,-726 L690,-730 L650,-394 L490,-638 L786,-1262 Z" stroke-width="0" fill="#b216cf" fill-opacity="0.10980392156862745" />
<path d="M190,-126 L522,-758 L794,-958 L798,-410 L346,-178 L846,-586 Z" stroke-width="0" fill="#85bfad" fill-opacity="0.2784313725490196" />
<path d="M586,-918 L858,-526 L754,-674 L242,-1186 L854,-386 L762,-1190 Z" stroke-width="0" fill="#f6e0e0" fill-opacity="0.21176470588235294" />
<path d="M686,-490 L518,-134 L950,-878 L190,-170 L90,-930 L726,-894 Z" stroke-width="0" fill="#ffb5ff" fill-opacity="0.9294117647058824" />
<path d="M246,-778 L138,-698 L798,-834 L494,-834 L406,-946 L806,-1014 Z" stroke-width="0" fill="#f5e2c3" fill-opacity="0.043137254901960784" />
<path d="M778,-302 L718,-606 L418,-90 L958,-658 L454,-186 L90,-970 Z" stroke-width="0" fill="#e9eb8d" fill-opacity="0.09019607843137255" />
<path d="M254,-170 L590,-234 L86,-698 L178,-522 L522,-514 L94,-854 Z" stroke-width="0" fill="#efeb61" fill-opacity="0.06274509803921569" />
<path d="M246,-426 L722,-362 L258,-578 L182,-166 L154,-1058 L282,-1042 Z" stroke-width="0" fill="#cdf6ef" fill-opacity="0.28627450980392155" />
<path d="M526,-626 L462,-1150 L314,-838 L294,-274 L246,-354 L742,-610 Z" stroke-width="0" fill="#dcf2e8" fill-opacity="0.011764705882352941" />
<path d="M310,-1214 L506,-350 L154,-726 L206,-738 L518,-86 L302,-250 Z" stroke-width="0" fill="#f3f9e3" fill-opacity="0.08627450980392157" />
<text x="448.0" y="0" font-size="70.0" fill="black" text-anchor="middle" transform="translate(0,17.5)">KING OF WATER</text>
</svg>