<?xml version="1.0" encoding="UTF-8"?>
<svg xmlns="http://www.w3.org/2000/svg" xmlns:xlink="http://www.w3.org/1999/xlink"
     width="275" height="375" viewBox="0 -350 275 375">
<defs>
</defs>
<rect x="15" y="-335" width="245" height="320" stroke="black" stroke-width="4" fill="white" />
<path d="M74,-249 L137,-142 L77,-86 L50,-284 L69,-141 L43,-144 Z" stroke-width="0" fill="#2a9b9d" fill-opacity="0.5372549019607843" />
<path d="M220,-182 L214,-142 L133,-41 L200,-304 L69,-135 L206,-192 Z" stroke-width="0" fill="#fed0f5" fill-opacity="0.023529411764705882" />
<path d="M56,-239 L191,-101 L99,-162 L142,-54 L161,-174 L103,-161 Z" stroke-width="0" fill="#72d7da" fill-opacity="0.5647058823529412" />
<path d="M121,-180 L104,-228 L102,-35 L185,-77 L25,-39 L86,-71 Z" stroke-width="0" fill="#7a3f02" fill-opacity="0.7411764705882353" />
<path d="M127,-58 L135,-123 L100,-228 L90,-178 L163,-278 L197,-310 Z" stroke-width="0" fill="#10810f" fill-opacity="0.9137254901960784" />
<path d="M64,-258 L192,-216 L139,-72 L191,-63 L180,-131 L119,-58 Z" stroke-width="0" fill="#d8e6b4" fill-opacity="0.20392156862745098" />
<path d="M191,-44 L147,-268 L93,-90 L169,-129 L232,-147 L206,-66 Z" stroke-width="0" fill="#c0c483" fill-opacity="0.08627450980392157" />
<path d="M135,-249 L159,-241 L149,-64 L116,-294 L119,-114 L198,-111 Z" stroke-width="0" fill="#000019" fill-opacity="0.9803921568627451" />
<path d="M201,-256 L141,-199 L74,-240 L48,-301 L84,-322 L118,-196 Z" stroke-width="0" fill="#000000" fill-opacity="0.9411764705882353" />
<path d="M56,-95 L143,-159 L215,-225 L51,-237 L34,-138 L139,-163 Z" stroke-width="0" fill="#763200" fill-opacity="0.8" />
<path d="M235,-61 L107,-158 L84,-111 L79,-168 L39,-174 L238,-272 Z" stroke-width="0" fill="#000320" fill-opacity="0.7764705882352941" />
<path d="M34,-137 L73,-40 L209,-77 L52,-300 L111,-154 L180,-284 Z" stroke-width="0" fill="#535509" fill-opacity="0.9568627450980393" />
<path d="M59,-298 L52,-275 L175,-239 L227,-294 L81,-161 L107,-250 Z" stroke-width="0" fill="#61ae00" fill-opacity="0.8196078431372549" />
<path d="M113,-230 L219,-101 L132,-36 L72,-72 L203,-215 L177,-240 Z" stroke-width="0" fill="#000000" fill-opacity="0.7137254901960784" />
<path d="M106,-79 L143,-216 L197,-60 L146,-159 L82,-123 L123,-98 Z" stroke-width="0" fill="#ad47d9" fill-opacity="0.3176470588235294" />
<path d="M69,-164 L89,-109 L161,-158 L59,-61 L159,-179 L53,-157 Z" stroke-width="0" fill="#2d50fe" fill-opacity="0.34509803921568627" />
<path d="M116,-267 L216,-67 L132,-283 L161,-206 L137,-127 L124,-162 Z" stroke-width="0" fill="#478391" fill-opacity="0.7686274509803922" />
<path d="M45,-289 L175,-90 L130,-113 L199,-186 L166,-182 L142,-250 Z" stroke-width="0" fill="#9c1f20" fill-opacity="0.788235294117647" />
<path d="M118,-49 L102,-43 L221,-85 L190,-54 L112,-42 L242,-175 Z" stroke-width="0" fill="#efdddf" fill-opacity="0.9058823529411765" />
<path d="M71,-38 L66,-95 L122,-306 L116,-149 L65,-100 L91,-49 Z" stroke-width="0" fill="#0f0002" fill-opacity="0.803921568627451" />
<path d="M163,-173 L145,-91 L201,-260 L152,-151 L35,-115 L92,-262 Z" stroke-width="0" fill="#1d0307" fill-opacity="0.9411764705882353" />
<path d="M63,-145 L243,-69 L34,-315 L80,-156 L64,-286 L74,-121 Z" stroke-width="0" fill="#f8cc2c" fill-opacity="0.4666666666666667" />
<path d="M86,-71 L215,-106 L110,-265 L42,-323 L144,-141 L90,-91 Z" stroke-width="0" fill="#040015" fill-opacity="0.7607843137254902" />
<path d="M219,-83 L79,-94 L139,-228 L80,-50 L187,-229 L229,-93 Z" stroke-width="0" fill="#6edffd" fill-opacity="0.7372549019607844" />
<path d="M193,-87 L217,-58 L38,-283 L82,-150 L84,-202 L36,-63 Z" stroke-width="0" fill="#000000" fill-opacity="0.9333333333333333" />
<path d="M43,-239 L91,-190 L237,-267 L76,-120 L39,-43 L89,-174 Z" stroke-width="0" fill="#000000" fill-opacity="0.792156862745098" />
<path d="M93,-267 L45,-160 L84,-51 L126,-299 L118,-253 L84,-30 Z" stroke-width="0" fill="#000000" fill-opacity="0.6901960784313725" />
<path d="M104,-32 L233,-67 L94,-64 L117,-56 L133,-215 L178,-299 Z" stroke-width="0" fill="#000000" fill-opacity="0.796078431372549" />
<path d="M162,-30 L25,-63 L185,-71 L152,-100 L110,-109 L191,-240 Z" stroke-width="0" fill="#000000" fill-opacity="0.9647058823529412" />
<path d="M80,-163 L116,-230 L54,-306 L87,-261 L227,-91 L29,-217 Z" stroke-width="0" fill="#d7a0e5" fill-opacity="0.9450980392156862" />
<path d="M114,-254 L137,-293 L45,-131 L41,-65 L110,-195 L127,-50 Z" stroke-width="0" fill="#9b121b" fill-opacity="0.047058823529411764" />
<path d="M106,-247 L223,-153 L118,-268 L63,-257 L74,-42 L108,-46 Z" stroke-width="0" fill="#592d13" fill-opacity="0.7725490196078432" />
<path d="M178,-253 L213,-41 L45,-225 L127,-248 L122,-222 L98,-112 Z" stroke-width="0" fill="#00080b" fill-opacity="0.8431372549019608" />
<path d="M211,-36 L62,-108 L79,-146 L89,-108 L97,-143 L108,-196 Z" stroke-width="0" fill="#000100" fill-opacity="0.9882352941176471" />
<path d="M200,-218 L97,-175 L175,-233 L79,-96 L87,-155 L158,-165 Z" stroke-width="0" fill="#6aa62f" fill-opacity="0.09411764705882353" />
<path d="M166,-304 L240,-51 L78,-311 L99,-25 L224,-190 L62,-203 Z" stroke-width="0" fill="#705c00" fill-opacity="0.7686274509803922" />
<path d="M40,-165 L178,-192 L83,-313 L174,-152 L71,-247 L99,-97 Z" stroke-width="0" fill="#001700" fill-opacity="0.6901960784313725" />
<path d="M222,-184 L104,-166 L75,-134 L231,-25 L54,-262 L76,-157 Z" stroke-width="0" fill="#8e2e00" fill-opacity="0.6392156862745098" />
<path d="M138,-46 L32,-256 L46,-283 L196,-238 L46,-255 L91,-162 Z" stroke-width="0" fill="#000000" fill-opacity="0.9803921568627451" />
<path d="M32,-220 L54,-146 L62,-81 L135,-49 L119,-73 L65,-219 Z" stroke-width="0" fill="#c64826" fill-opacity="0.01568627450980392" />
<path d="M194,-93 L93,-164 L84,-323 L40,-284 L50,-290 L128,-187 Z" stroke-width="0" fill="#000000" fill-opacity="0.7450980392156863" />
<path d="M116,-193 L26,-190 L121,-214 L71,-264 L206,-80 L93,-254 Z" stroke-width="0" fill="#000000" fill-opacity="0.9294117647058824" />
<path d="M151,-285 L37,-196 L70,-269 L206,-114 L60,-112 L75,-254 Z" stroke-width="0" fill="#dcd22d" fill-opacity="0.996078431372549" />
<path d="M127,-185 L169,-315 L57,-82 L147,-148 L122,-47 L124,-153 Z" stroke-width="0" fill="#6f2200" fill-opacity="0.796078431372549" />
<path d="M125,-308 L102,-278 L240,-78 L97,-26 L35,-317 L26,-257 Z" stroke-width="0" fill="#000000" fill-opacity="0.8431372549019608" />
<path d="M215,-154 L83,-93 L124,-218 L41,-318 L151,-158 L73,-274 Z" stroke-width="0" fill="#e0bc8a" fill-opacity="0.9098039215686274" />
<path d="M104,-134 L70,-278 L238,-96 L61,-153 L54,-181 L102,-119 Z" stroke-width="0" fill="#25000b" fill-opacity="0.8509803921568627" />
<path d="M155,-219 L234,-42 L143,-64 L65,-230 L114,-109 L163,-245 Z" stroke-width="0" fill="#6c1d00" fill-opacity="0.9450980392156862" />
<path d="M71,-180 L88,-98 L208,-204 L210,-81 L151,-176 L234,-152 Z" stroke-width="0" fill="#acd8f5" fill-opacity="0.2627450980392157" />
<path d="M76,-189 L36,-216 L44,-48 L38,-302 L168,-108 L97,-232 Z" stroke-width="0" fill="#000000" fill-opacity="0.984313725490196" />
<path d="M66,-98 L140,-81 L37,-73 L68,-279 L241,-71 L86,-281 Z" stroke-width="0" fill="#ec8d8d" fill-opacity="0.9294117647058824" />
<path d="M124,-314 L243,-213 L182,-107 L158,-194 L215,-269 L133,-210 Z" stroke-width="0" fill="#bad8e0" fill-opacity="0.9921568627450981" />
<path d="M81,-79 L166,-215 L55,-30 L59,-26 L37,-75 L93,-137 Z" stroke-width="0" fill="#000000" fill-opacity="0.4980392156862745" />
<path d="M29,-70 L124,-150 L236,-206 L106,-125 L105,-180 L129,-243 Z" stroke-width="0" fill="#0f0003" fill-opacity="0.9529411764705882" />
<path d="M89,-195 L154,-205 L131,-281 L55,-215 L54,-57 L120,-106 Z" stroke-width="0" fill="#faf7f4" fill-opacity="0.9529411764705882" />
<path d="M180,-36 L161,-59 L146,-236 L155,-110 L119,-42 L32,-303 Z" stroke-width="0" fill="#4c1300" fill-opacity="0.6078431372549019" />
<path d="M77,-307 L41,-34 L213,-90 L213,-75 L75,-203 L88,-58 Z" stroke-width="0" fill="#825254" fill-opacity="0.8313725490196079" />
<path d="M96,-52 L150,-84 L80,-90 L28,-133 L52,-56 L54,-98 Z" stroke-width="0" fill="#000000" fill-opacity="0.9254901960784314" />
<path d="M130,-75 L60,-94 L218,-26 L113,-216 L129,-282 L39,-205 Z" stroke-width="0" fill="#000000" fill-opacity="0.7294117647058823" />
<path d="M228,-40 L100,-162 L81,-235 L214,-42 L134,-289 L140,-288 Z" stroke-width="0" fill="#72330f" fill-opacity="0.5529411764705883" />
<path d="M45,-283 L195,-255 L118,-320 L179,-86 L118,-215 L33,-30 Z" stroke-width="0" fill="#0c0008" fill-opacity="0.5450980392156862" />
<path d="M123,-34 L130,-172 L225,-200 L141,-75 L71,-93 L148,-161 Z" stroke-width="0" fill="#0a0222" fill-opacity="0.7686274509803922" />
<path d="M60,-265 L32,-47 L134,-92 L39,-238 L37,-55 L56,-65 Z" stroke-width="0" fill="#472c33" fill-opacity="0.12156862745098039" />
<path d="M106,-214 L201,-44 L188,-85 L74,-100 L244,-198 L60,-178 Z" stroke-width="0" fill="#090391" fill-opacity="0.9372549019607843" />
<path d="M164,-88 L206,-123 L32,-207 L138,-69 L41,-138 L177,-141 Z" stroke-width="0" fill="#098915" fill-opacity="0.9254901960784314" />
<path d="M214,-135 L162,-31 L87,-298 L240,-97 L129,-250 L104,-102 Z" stroke-width="0" fill="#000023" fill-opacity="0.9803921568627451" />
<path d="M67,-162 L62,-284 L200,-219 L55,-313 L38,-89 L183,-27 Z" stroke-width="0" fill="#00000e" fill-opacity="0.8549019607843137" />
<path d="M83,-237 L65,-319 L176,-262 L31,-271 L131,-299 L25,-152 Z" stroke-width="0" fill="#090700" fill-opacity="0.9254901960784314" />
<path d="M47,-258 L249,-299 L194,-312 L101,-87 L232,-203 L33,-312 Z" stroke-width="0" fill="#c58382" fill-opacity="0.7333333333333333" />
<path d="M189,-119 L126,-293 L155,-141 L128,-216 L200,-180 L31,-109 Z" stroke-width="0" fill="#6edb96" fill-opacity="0.17647058823529413" />
<path d="M142,-270 L177,-149 L64,-131 L186,-179 L123,-108 L28,-70 Z" stroke-width="0" fill="#000000" fill-opacity="0.9019607843137255" />
<path d="M128,-143 L100,-125 L158,-122 L148,-81 L203,-308 L59,-123 Z" stroke-width="0" fill="#b9cf16" fill-opacity="0.6588235294117647" />
<path d="M111,-195 L49,-288 L97,-109 L238,-113 L176,-87 L228,-75 Z" stroke-width="0" fill="#f5b025" fill-opacity="0.16470588235294117" />
<path d="M43,-187 L212,-121 L75,-100 L117,-131 L238,-57 L68,-166 Z" stroke-width="0" fill="#b7f48f" fill-opacity="0.9607843137254902" />
<path d="M201,-173 L130,-263 L236,-29 L127,-198 L116,-93 L105,-260 Z" stroke-width="0" fill="#9e2900" fill-opacity="0.6901960784313725" />
<path d="M244,-64 L165,-30 L64,-198 L118,-275 L204,-164 L244,-180 Z" stroke-width="0" fill="#6f5d66" fill-opacity="0.792156862745098" />
<path d="M118,-96 L33,-26 L245,-169 L233,-219 L146,-109 L30,-226 Z" stroke-width="0" fill="#955df0" fill-opacity="0.9254901960784314" />
<path d="M164,-190 L35,-42 L64,-230 L114,-133 L73,-60 L83,-176 Z" stroke-width="0" fill="#718fe3" fill-opacity="0.08627450980392157" />
<path d="M98,-104 L34,-165 L94,-198 L149,-233 L82,-86 L209,-82 Z" stroke-width="0" fill="#d6d879" fill-opacity="0.996078431372549" />
<path d="M79,-202 L189,-131 L43,-78 L35,-279 L59,-139 L225,-227 Z" stroke-width="0" fill="#000000" fill-opacity="0.9803921568627451" />
<path d="M50,-117 L54,-105 L43,-192 L79,-105 L146,-28 L177,-102 Z" stroke-width="0" fill="#000000" fill-opacity="0.13333333333333333" />
<path d="M70,-204 L114,-157 L119,-236 L114,-323 L224,-262 L161,-177 Z" stroke-width="0" fill="#2f4400" fill-opacity="0.5529411764705883" />
<path d="M28,-138 L28,-257 L44,-45 L77,-109 L125,-172 L185,-278 Z" stroke-width="0" fill="#4f1d00" fill-opacity="0.8862745098039215" />
<path d="M94,-216 L93,-250 L62,-208 L198,-194 L219,-264 L81,-112 Z" stroke-width="0" fill="#d6809c" fill-opacity="0.3568627450980392" />
<path d="M179,-271 L165,-297 L33,-29 L243,-201 L131,-40 L85,-208 Z" stroke-width="0" fill="#d5aa93" fill-opacity="0.5647058823529412" />
<path d="M218,-117 L35,-306 L249,-295 L35,-71 L38,-102 L173,-37 Z" stroke-width="0" fill="#850015" fill-opacity="0.5803921568627451" />
<path d="M45,-89 L73,-191 L98,-267 L223,-196 L195,-260 L29,-227 Z" stroke-width="0" fill="#000000" fill-opacity="0.9921568627450981" />
<path d="M25,-41 L78,-246 L127,-42 L62,-134 L102,-205 L221,-158 Z" stroke-width="0" fill="#030400" fill-opacity="0.7098039215686275" />
<path d="M59,-113 L244,-194 L218,-36 L96,-32 L214,-28 L49,-75 Z" stroke-width="0" fill="#5a3a00" fill-opacity="0.3843137254901961" />
<path d="M47,-27 L157,-91 L154,-91 L101,-49 L200,-184 L86,-323 Z" stroke-width="0" fill="#6c3210" fill-opacity="0.788235294117647" />
<path d="M167,-129 L156,-290 L48,-42 L36,-185 L94,-233 L233,-193 Z" stroke-width="0" fill="#4a0042" fill-opacity="0.06666666666666667" />
<path d="M105,-172 L212,-242 L185,-91 L189,-123 L76,-120 L149,-248 Z" stroke-width="0" fill="#42f4ae" fill-opacity="0.11764705882352941" />
<path d="M132,-146 L167,-92 L146,-197 L227,-190 L196,-144 L57,-90 Z" stroke-width="0" fill="#2007f5" fill-opacity="0.5176470588235295" />
<path d="M107,-266 L249,-221 L221,-50 L152,-55 L158,-69 L180,-134 Z" stroke-width="0" fill="#5cb2e7" fill-opacity="0.2" />
<path d="M88,-190 L205,-309 L59,-250 L177,-269 L72,-312 L108,-136 Z" stroke-width="0" fill="#ceb56f" fill-opacity="0.5019607843137255" />
<path d="M182,-30 L169,-143 L195,-129 L105,-230 L82,-258 L86,-232 Z" stroke-width="0" fill="#642a07" fill-opacity="0.4588235294117647" />
<path d="M149,-141 L63,-212 L83,-92 L214,-180 L183,-253 L154,-62 Z" stroke-width="0" fill="#dec991" fill-opacity="0.35294117647058826" />
<path d="M97,-252 L71,-60 L132,-135 L78,-122 L65,-245 L126,-160 Z" stroke-width="0" fill="#0f0800" fill-opacity="0.28627450980392155" />
<path d="M60,-153 L187,-66 L110,-179 L61,-278 L34,-108 L120,-87 Z" stroke-width="0" fill="#d6482b" fill-opacity="0.09019607843137255" />
<path d="M112,-147 L99,-45 L116,-45 L72,-55 L187,-118 L149,-83 Z" stroke-width="0" fill="#e1834d" fill-opacity="0.5019607843137255" />
<text x="137.5" y="12.5" font-size="20.0" fill="black" text-anchor="middle" transform="translate(0,5.0)">2 OF WATER</text>
</svg>