<?xml version="1.0" encoding="UTF-8"?>
<svg xmlns="http://www.w3.org/2000/svg" xmlns:xlink="http://www.w3.org/1999/xlink"
     width="896" height="1496" viewBox="0 -1400 896 1496" style="font-size:70;font-family:Poor Richard, Times New Roman;stroke:black;stroke-width:1;fill:none">
<defs>
</defs>
<path d="M758,-922 L710,-910 L150,-122 L406,-1002 L358,-602 L526,-350 Z" stroke-width="0" fill="#7b8442" fill-opacity="0.0" />
<path d="M90,-534 L122,-310 L390,-250 L470,-886 L394,-342 L762,-1006 Z" stroke-width="0" fill="#f8fbd8" fill-opacity="0.023529411764705882" />
<path d="M298,-1198 L666,-946 L806,-126 L282,-866 L170,-110 L282,-550 Z" stroke-width="0" fill="#c0f5f9" fill-opacity="0.3686274509803922" />
<path d="M366,-1030 L666,-1306 L382,-670 L550,-1166 L742,-1218 L350,-462 Z" stroke-width="0" fill="#b6f7ed" fill-opacity="0.027450980392156862" />
<path d="M118,-798 L794,-774 L122,-174 L406,-482 L762,-546 L158,-894 Z" stroke-width="0" fill="#cdf0ef" fill-opacity="0.08235294117647059" />
<path d="M742,-1158 L526,-342 L654,-974 L338,-514 L498,-614 L530,-362 Z" stroke-width="0" fill="#e4d1de" fill-opacity="0.01568627450980392" />
<path d="M110,-102 L230,-150 L242,-750 L566,-342 L218,-438 L762,-998 Z" stroke-width="0" fill="#fde6fa" fill-opacity="0.01568627450980392" />
<path d="M126,-1242 L702,-1198 L230,-950 L722,-794 L398,-598 L114,-1258 Z" stroke-width="0" fill="#e5fbee" fill-opacity="0.011764705882352941" />
<path d="M226,-178 L246,-1070 L498,-558 L186,-422 L678,-798 L586,-270 Z" stroke-width="0" fill="#071200" fill-opacity="0.4823529411764706" />
<path d="M174,-1102 L154,-858 L474,-1306 L702,-598 L746,-602 L526,-1130 Z" stroke-width="0" fill="#ea0f9c" fill-opacity="0.0" />
<path d="M806,-326 L666,-126 L502,-150 L642,-1054 L326,-106 L378,-1134 Z" stroke-width="0" fill="#144259" fill-opacity="0.7294117647058823" />
<path d="M86,-98 L362,-854 L734,-322 L354,-466 L306,-150 L270,-398 Z" stroke-width="0" fill="#874fb0" fill-opacity="0.00784313725490196" />
<path d="M186,-310 L198,-334 L274,-846 L90,-1014 L250,-546 L306,-1082 Z" stroke-width="0" fill="#e4e7d2" fill-opacity="0.0196078431372549" />
<path d="M114,-1078 L442,-994 L118,-610 L498,-702 L386,-174 L202,-422 Z" stroke-width="0" fill="#bbf0d2" fill-opacity="0.027450980392156862" />
<path d="M662,-1086 L754,-706 L806,-86 L690,-110 L290,-1078 L734,-162 Z" stroke-width="0" fill="#162300" fill-opacity="0.6352941176470588" />
<path d="M562,-922 L226,-806 L102,-402 L734,-1274 L202,-1090 L542,-606 Z" stroke-width="0" fill="#fceeec" fill-opacity="0.0784313725490196" />
<path d="M810,-218 L146,-314 L226,-270 L706,-690 L326,-910 L502,-202 Z" stroke-width="0" fill="#805964" fill-opacity="0.7490196078431373" />
<path d="M666,-1078 L266,-214 L126,-290 L466,-722 L210,-710 L230,-982 Z" stroke-width="0" fill="#fefcdc" fill-opacity="0.3215686274509804" />
<path d="M438,-502 L182,-86 L542,-398 L130,-174 L350,-262 L642,-898 Z" stroke-width="0" fill="#653ff8" fill-opacity="0.023529411764705882" />
<path d="M342,-514 L666,-242 L746,-694 L650,-398 L490,-938 L630,-950 Z" stroke-width="0" fill="#9f83e8" fill-opacity="0.3176470588235294" />
<path d="M214,-486 L478,-302 L174,-1302 L166,-530 L114,-726 L626,-426 Z" stroke-width="0" fill="#ebf6d6" fill-opacity="0.0196078431372549" />
<path d="M578,-782 L234,-690 L574,-134 L242,-442 L550,-470 L142,-586 Z" stroke-width="0" fill="#421f0e" fill-opacity="0.6431372549019608" />
<path d="M178,-954 L330,-714 L438,-914 L266,-1170 L766,-734 L758,-814 Z" stroke-width="0" fill="#feeced" fill-opacity="0.9647058823529412" />
<path d="M126,-898 L646,-286 L630,-706 L326,-666 L610,-310 L726,-734 Z" stroke-width="0" fill="#e8f1cc" fill-opacity="0.21568627450980393" />
<path d="M570,-1270 L166,-454 L214,-158 L646,-538 L810,-422 L122,-1010 Z" stroke-width="0" fill="#f4faf0" fill-opacity="0.07058823529411765" />
<path d="M402,-222 L86,-486 L742,-226 L718,-814 L170,-598 L370,-482 Z" stroke-width="0" fill="#a9bd68" fill-opacity="0.00784313725490196" />
<path d="M622,-838 L602,-1190 L206,-366 L174,-686 L438,-614 L90,-478 Z" stroke-width="0" fill="#faf8e2" fill-opacity="0.011764705882352941" />
<path d="M466,-98 L122,-506 L334,-1174 L434,-134 L122,-730 L782,-1042 Z" stroke-width="0" fill="#a96ab1" fill-opacity="0.01568627450980392" />
<path d="M530,-486 L234,-626 L342,-938 L114,-614 L162,-434 L170,-878 Z" stroke-width="0" fill="#e0e997" fill-opacity="0.043137254901960784" />
<path d="M298,-1262 L250,-1178 L186,-810 L630,-150 L534,-486 L570,-190 Z" stroke-width="0" fill="#fbdeec" fill-opacity="0.01568627450980392" />
<path d="M574,-1082 L754,-774 L710,-914 L714,-162 L666,-854 L810,-478 Z" stroke-width="0" fill="#f7d4b7" fill-opacity="0.30980392156862746" />
<path d="M686,-762 L350,-930 L382,-1030 L602,-678 L346,-954 L718,-674 Z" stroke-width="0" fill="#edaaf0" fill-opacity="0.3568627450980392" />
<path d="M402,-566 L562,-222 L682,-702 L450,-414 L746,-1142 L190,-1118 Z" stroke-width="0" fill="#eef5f5" fill-opacity="0.050980392156862744" />
<path d="M658,-946 L598,-1030 L734,-262 L802,-1218 L802,-234 L462,-214 Z" stroke-width="0" fill="#5a604f" fill-opacity="0.5137254901960784" />
<path d="M214,-946 L350,-1094 L282,-130 L466,-510 L538,-1054 L290,-598 Z" stroke-width="0" fill="#575c9b" fill-opacity="0.5019607843137255" />
<path d="M482,-774 L522,-382 L474,-178 L614,-682 L326,-226 L238,-454 Z" stroke-width="0" fill="#b0be4a" fill-opacity="0.30196078431372547" />
<path d="M786,-998 L810,-854 L786,-278 L126,-618 L546,-242 L118,-1058 Z" stroke-width="0" fill="#e2f5d8" fill-opacity="0.43137254901960786" />
<path d="M334,-174 L458,-974 L246,-526 L670,-678 L446,-342 L130,-802 Z" stroke-width="0" fill="#b681a7" fill-opacity="0.3215686274509804" />
<path d="M406,-1102 L310,-758 L502,-1030 L158,-518 L178,-1214 L662,-122 Z" stroke-width="0" fill="#dad6fd" fill-opacity="0.09019607843137255" />
<path d="M122,-1286 L394,-810 L306,-394 L234,-806 L718,-1110 L186,-1098 Z" stroke-width="0" fill="#f7e6e7" fill-opacity="0.07058823529411765" />
<path d="M466,-1086 L742,-514 L314,-834 L710,-266 L138,-106 L90,-1174 Z" stroke-width="0" fill="#e8f6b6" fill-opacity="0.12549019607843137" />
<path d="M354,-1234 L446,-562 L534,-814 L682,-630 L458,-910 L138,-410 Z" stroke-width="0" fill="#fce9fc" fill-opacity="0.43137254901960786" />
<path d="M274,-554 L638,-218 L302,-586 L370,-870 L194,-338 L158,-230 Z" stroke-width="0" fill="#1704b5" fill-opacity="0.14901960784313725" />
<path d="M394,-1078 L550,-318 L370,-1130 L546,-774 L210,-450 L130,-546 Z" stroke-width="0" fill="#fffcef" fill-opacity="0.9725490196078431" />
<path d="M706,-1282 L146,-310 L158,-910 L670,-190 L466,-242 L642,-1070 Z" stroke-width="0" fill="#f6edfc" fill-opacity="0.050980392156862744" />
<path d="M322,-270 L630,-1078 L562,-1158 L574,-762 L402,-262 L438,-838 Z" stroke-width="0" fill="#e8eef9" fill-opacity="0.12549019607843137" />
<path d="M674,-254 L410,-1114 L294,-770 L266,-890 L278,-846 L590,-506 Z" stroke-width="0" fill="#fee8fb" fill-opacity="0.9764705882352941" />
<path d="M310,-1202 L718,-762 L670,-1190 L770,-442 L354,-894 L106,-602 Z" stroke-width="0" fill="#fcfac5" fill-opacity="0.023529411764705882" />
<path d="M246,-566 L302,-502 L290,-542 L354,-86 L402,-286 L346,-170 Z" stroke-width="0" fill="#718b8b" fill-opacity="0.8784313725490196" />
<path d="M262,-706 L730,-1314 L482,-1166 L130,-590 L362,-230 L226,-170 Z" stroke-width="0" fill="#eaeef0" fill-opacity="0.058823529411764705" />
<path d="M530,-770 L602,-1050 L678,-858 L366,-690 L366,-766 L258,-1014 Z" stroke-width="0" fill="#feffc7" fill-opacity="0.9490196078431372" />
<path d="M514,-678 L330,-458 L158,-706 L346,-918 L150,-294 L378,-626 Z" stroke-width="0" fill="#f9f1d9" fill-opacity="0.592156862745098" />
<path d="M118,-526 L518,-1106 L282,-1250 L390,-650 L166,-314 L606,-90 Z" stroke-width="0" fill="#358736" fill-opacity="0.0" />
<path d="M418,-90 L798,-226 L682,-526 L242,-806 L618,-794 L574,-330 Z" stroke-width="0" fill="#7e8372" fill-opacity="0.6980392156862745" />
<path d="M102,-1278 L554,-766 L674,-1022 L198,-986 L722,-186 L610,-826 Z" stroke-width="0" fill="#bbf6f3" fill-opacity="0.14901960784313725" />
<path d="M214,-354 L230,-234 L342,-1242 L246,-1014 L622,-730 L770,-850 Z" stroke-width="0" fill="#ecf6fd" fill-opacity="0.8549019607843137" />
<path d="M270,-1166 L714,-598 L670,-406 L450,-182 L138,-658 L198,-386 Z" stroke-width="0" fill="#acbda7" fill-opacity="0.41568627450980394" />
<path d="M738,-798 L102,-394 L422,-346 L158,-1122 L586,-442 L254,-766 Z" stroke-width="0" fill="#fabfef" fill-opacity="0.043137254901960784" />
<path d="M490,-338 L594,-150 L394,-1122 L534,-1210 L390,-234 L742,-302 Z" stroke-width="0" fill="#fdf2f0" fill-opacity="0.054901960784313725" />
<path d="M190,-490 L658,-718 L262,-302 L162,-282 L170,-806 L198,-242 Z" stroke-width="0" fill="#fb9edc" fill-opacity="0.12941176470588237" />
<path d="M294,-1174 L194,-374 L378,-594 L366,-378 L538,-1210 L654,-778 Z" stroke-width="0" fill="#a84349" fill-opacity="0.0" />
<path d="M454,-402 L350,-1030 L370,-330 L618,-690 L546,-1278 L330,-298 Z" stroke-width="0" fill="#f2fde1" fill-opacity="0.058823529411764705" />
<path d="M710,-842 L450,-922 L746,-746 L198,-262 L150,-1086 L182,-826 Z" stroke-width="0" fill="#f7f4f3" fill-opacity="0.9725490196078431" />
<path d="M594,-1122 L206,-926 L546,-1170 L546,-994 L154,-1062 L638,-826 Z" stroke-width="0" fill="#f9ffd7" fill-opacity="0.12156862745098039" />
<path d="M662,-334 L86,-246 L682,-434 L590,-350 L606,-166 L662,-646 Z" stroke-width="0" fill="#94e2c6" fill-opacity="0.47058823529411764" />
<path d="M142,-86 L490,-1194 L154,-150 L110,-886 L622,-822 L218,-290 Z" stroke-width="0" fill="#f7fcd5" fill-opacity="0.03137254901960784" />
<path d="M682,-422 L378,-458 L558,-890 L90,-1290 L658,-630 L230,-670 Z" stroke-width="0" fill="#fec6d2" fill-opacity="0.12941176470588237" />
<path d="M634,-422 L534,-478 L522,-754 L610,-1202 L418,-558 L326,-574 Z" stroke-width="0" fill="#fae1bd" fill-opacity="0.6980392156862745" />
<path d="M218,-530 L182,-1134 L338,-478 L470,-1218 L350,-250 L582,-614 Z" stroke-width="0" fill="#f5ffd5" fill-opacity="0.1411764705882353" />
<path d="M170,-922 L678,-86 L198,-134 L618,-214 L498,-878 L234,-1070 Z" stroke-width="0" fill="#261c0a" fill-opacity="0.30196078431372547" />
<path d="M458,-598 L374,-286 L418,-958 L182,-1074 L574,-574 L742,-542 Z" stroke-width="0" fill="#35746c" fill-opacity="0.11764705882352941" />
<path d="M430,-542 L430,-1166 L518,-922 L494,-1262 L154,-578 L474,-254 Z" stroke-width="0" fill="#f4fefa" fill-opacity="0.24705882352941178" />
<path d="M746,-1306 L170,-530 L690,-798 L170,-358 L714,-618 L646,-634 Z" stroke-width="0" fill="#e7d0d3" fill-opacity="0.03137254901960784" />
<path d="M178,-1154 L90,-210 L270,-190 L382,-646 L462,-82 L658,-718 Z" stroke-width="0" fill="#e3fff1" fill-opacity="0.5686274509803921" />
<path d="M534,-638 L442,-698 L630,-766 L122,-810 L218,-1038 L434,-394 Z" stroke-width="0" fill="#fbeff8" fill-opacity="0.6862745098039216" />
<path d="M594,-698 L734,-1218 L202,-298 L426,-478 L454,-618 L426,-482 Z" stroke-width="0" fill="#f3dae0" fill-opacity="0.01568627450980392" />
<path d="M438,-794 L706,-322 L722,-606 L262,-186 L686,-362 L670,-810 Z" stroke-width="0" fill="#8c76a3" fill-opacity="0.5019607843137255" />
<path d="M558,-994 L258,-414 L158,-962 L562,-146 L194,-1126 L218,-1174 Z" stroke-width="0" fill="#eaebd8" fill-opacity="0.047058823529411764" />
<path d="M126,-126 L794,-886 L638,-726 L782,-1166 L654,-790 L614,-1282 Z" stroke-width="0" fill="#fcfecb" fill-opacity="0.9803921568627451" />
<path d="M130,-1022 L522,-418 L154,-1026 L94,-1214 L238,-1006 L294,-1142 Z" stroke-width="0" fill="#f3c5df" fill-opacity="0.054901960784313725" />
<path d="M382,-394 L318,-470 L434,-618 L422,-302 L198,-510 L430,-1314 Z" stroke-width="0" fill="#f2c8de" fill-opacity="0.24313725490196078" />
<path d="M374,-398 L550,-838 L798,-934 L158,-1314 L698,-818 L682,-730 Z" stroke-width="0" fill="#d6fbc5" fill-opacity="0.07058823529411765" />
<path d="M286,-498 L418,-930 L162,-214 L306,-562 L214,-1058 L534,-518 Z" stroke-width="0" fill="#e3f4f0" fill-opacity="0.9058823529411765" />
<path d="M534,-350 L750,-294 L110,-178 L574,-530 L102,-670 L398,-210 Z" stroke-width="0" fill="#efe6e8" fill-opacity="0.13333333333333333" />
<path d="M634,-574 L650,-1166 L778,-294 L546,-1118 L214,-554 L398,-870 Z" stroke-width="0" fill="#a2effe" fill-opacity="0.11764705882352941" />
<path d="M98,-394 L522,-558 L214,-1118 L318,-1302 L430,-846 L602,-798 Z" stroke-width="0" fill="#f8fbfd" fill-opacity="0.8862745098039215" />
<path d="M670,-710 L734,-774 L426,-638 L558,-178 L414,-922 L722,-686 Z" stroke-width="0" fill="#b5efc6" fill-opacity="0.24313725490196078" />
<path d="M766,-1014 L234,-342 L522,-702 L530,-198 L106,-378 L718,-294 Z" stroke-width="0" fill="#fbfbfe" fill-opacity="0.11372549019607843" />
<path d="M418,-602 L102,-242 L86,-486 L746,-266 L750,-358 L146,-110 Z" stroke-width="0" fill="#eb9aeb" fill-opacity="0.043137254901960784" />
<path d="M310,-898 L570,-558 L494,-998 L514,-798 L718,-850 L714,-1058 Z" stroke-width="0" fill="#cffbd0" fill-opacity="0.8588235294117647" />
<path d="M294,-454 L522,-930 L658,-302 L226,-1162 L402,-474 L318,-1122 Z" stroke-width="0" fill="#aef9f6" fill-opacity="0.00784313725490196" />
<path d="M574,-346 L90,-198 L178,-402 L802,-154 L574,-530 L446,-1222 Z" stroke-width="0" fill="#3348cc" fill-opacity="0.12549019607843137" />
<path d="M218,-1198 L654,-718 L294,-482 L94,-606 L298,-398 L146,-1266 Z" stroke-width="0" fill="#fdfa74" fill-opacity="0.1411764705882353" />
<path d="M362,-1246 L450,-370 L186,-214 L270,-310 L474,-854 L406,-1234 Z" stroke-width="0" fill="#8da4d3" fill-opacity="0.00392156862745098" />
<path d="M102,-134 L474,-286 L738,-266 L150,-422 L438,-566 L450,-294 Z" stroke-width="0" fill="#e3d7da" fill-opacity="0.18823529411764706" />
<path d="M610,-1130 L658,-986 L130,-878 L382,-922 L122,-714 L782,-146 Z" stroke-width="0" fill="#b4daf6" fill-opacity="0.050980392156862744" />
<path d="M126,-406 L634,-146 L302,-110 L146,-798 L442,-862 L138,-1210 Z" stroke-width="0" fill="#f9f9bb" fill-opacity="0.07058823529411765" />
<path d="M174,-550 L314,-398 L142,-662 L150,-750 L558,-990 L306,-522 Z" stroke-width="0" fill="#fef1f8" fill-opacity="0.9254901960784314" />
<path d="M314,-1038 L238,-374 L102,-638 L158,-434 L102,-510 L462,-1258 Z" stroke-width="0" fill="#87c0f0" fill-opacity="0.09411764705882353" />
<path d="M94,-1086 L338,-750 L222,-674 L606,-382 L362,-138 L762,-314 Z" stroke-width="0" fill="#e6d681" fill-opacity="0.01568627450980392" />
<text x="448.0" y="0" font-size="70.0" fill="black" text-anchor="middle" transform="translate(0,17.5)">KING OF WATER</text>
</svg>