<?xml version="1.0" encoding="UTF-8"?>
<svg xmlns="http://www.w3.org/2000/svg" xmlns:xlink="http://www.w3.org/1999/xlink"
     width="275" height="375" viewBox="0 -350 275 375">
<defs>
</defs>
<rect x="15" y="-335" width="245" height="320" stroke="black" stroke-width="4" fill="white" />
<path d="M60,-230 L179,-120 L118,-261 L129,-153 L74,-302 L118,-311 Z" stroke-width="0" fill="#7d0000" fill-opacity="0.7372549019607844" />
<path d="M43,-148 L167,-314 L45,-208 L25,-234 L152,-295 L159,-231 Z" stroke-width="0" fill="#e0f705" fill-opacity="0.8549019607843137" />
<path d="M116,-40 L198,-239 L131,-85 L146,-32 L204,-78 L157,-232 Z" stroke-width="0" fill="#d67d00" fill-opacity="0.7254901960784313" />
<path d="M104,-137 L104,-71 L164,-118 L60,-100 L28,-174 L144,-29 Z" stroke-width="0" fill="#e95406" fill-opacity="0.5450980392156862" />
<path d="M34,-128 L32,-151 L142,-139 L99,-254 L197,-211 L149,-201 Z" stroke-width="0" fill="#d88429" fill-opacity="0.27450980392156865" />
<path d="M65,-77 L231,-213 L33,-135 L40,-288 L188,-157 L230,-319 Z" stroke-width="0" fill="#f78d2f" fill-opacity="0.6980392156862745" />
<path d="M197,-255 L117,-311 L185,-126 L156,-37 L219,-237 L144,-62 Z" stroke-width="0" fill="#7f3f04" fill-opacity="0.8588235294117647" />
<path d="M221,-62 L148,-204 L108,-318 L82,-253 L134,-292 L126,-191 Z" stroke-width="0" fill="#783300" fill-opacity="0.9019607843137255" />
<path d="M201,-86 L88,-241 L168,-46 L123,-160 L246,-77 L115,-199 Z" stroke-width="0" fill="#bf021d" fill-opacity="0.00392156862745098" />
<path d="M83,-148 L156,-234 L174,-79 L149,-236 L78,-64 L222,-142 Z" stroke-width="0" fill="#643e3c" fill-opacity="0.06274509803921569" />
<path d="M208,-264 L248,-281 L109,-145 L50,-314 L169,-107 L88,-267 Z" stroke-width="0" fill="#f86500" fill-opacity="0.5725490196078431" />
<path d="M79,-171 L50,-183 L38,-58 L236,-60 L84,-139 L175,-243 Z" stroke-width="0" fill="#7b3a00" fill-opacity="0.7529411764705882" />
<path d="M31,-318 L151,-151 L123,-239 L188,-248 L246,-163 L121,-260 Z" stroke-width="0" fill="#f7d45f" fill-opacity="0.7098039215686275" />
<path d="M162,-234 L104,-212 L236,-158 L64,-124 L62,-261 L79,-36 Z" stroke-width="0" fill="#c2f200" fill-opacity="0.6" />
<path d="M196,-141 L155,-43 L28,-124 L35,-124 L103,-111 L117,-192 Z" stroke-width="0" fill="#e34800" fill-opacity="0.5254901960784314" />
<path d="M216,-206 L42,-215 L186,-57 L39,-323 L205,-91 L111,-303 Z" stroke-width="0" fill="#000000" fill-opacity="0.8941176470588236" />
<path d="M59,-306 L128,-180 L56,-27 L236,-41 L114,-56 L68,-282 Z" stroke-width="0" fill="#5b0900" fill-opacity="0.792156862745098" />
<path d="M178,-64 L166,-60 L182,-112 L72,-259 L124,-96 L199,-181 Z" stroke-width="0" fill="#10cd07" fill-opacity="0.7411764705882353" />
<path d="M202,-258 L122,-231 L159,-74 L202,-169 L181,-276 L134,-151 Z" stroke-width="0" fill="#26a02b" fill-opacity="0.1568627450980392" />
<path d="M229,-235 L211,-136 L164,-247 L52,-269 L59,-127 L34,-150 Z" stroke-width="0" fill="#f3dcf6" fill-opacity="0.33725490196078434" />
<path d="M131,-105 L37,-38 L54,-176 L176,-287 L89,-162 L65,-270 Z" stroke-width="0" fill="#f41900" fill-opacity="0.7490196078431373" />
<path d="M93,-53 L153,-210 L26,-220 L102,-29 L99,-234 L107,-217 Z" stroke-width="0" fill="#e0bf00" fill-opacity="0.4666666666666667" />
<path d="M203,-316 L101,-303 L130,-141 L188,-230 L141,-62 L167,-115 Z" stroke-width="0" fill="#907000" fill-opacity="0.7568627450980392" />
<path d="M249,-31 L234,-202 L134,-265 L136,-170 L213,-25 L87,-100 Z" stroke-width="0" fill="#f78600" fill-opacity="0.5294117647058824" />
<path d="M231,-64 L226,-205 L217,-58 L110,-243 L188,-258 L153,-258 Z" stroke-width="0" fill="#6e3494" fill-opacity="0.3058823529411765" />
<path d="M237,-175 L121,-204 L29,-184 L70,-55 L168,-134 L78,-43 Z" stroke-width="0" fill="#d2919a" fill-opacity="0.44313725490196076" />
<path d="M244,-98 L170,-117 L67,-315 L225,-271 L196,-273 L94,-108 Z" stroke-width="0" fill="#864f00" fill-opacity="0.8509803921568627" />
<path d="M94,-187 L185,-286 L174,-69 L151,-200 L64,-288 L43,-118 Z" stroke-width="0" fill="#f9f0f8" fill-opacity="1.0" />
<path d="M129,-218 L240,-72 L193,-221 L165,-215 L107,-220 L142,-28 Z" stroke-width="0" fill="#e74423" fill-opacity="0.6196078431372549" />
<path d="M177,-249 L118,-310 L37,-297 L109,-124 L140,-141 L76,-108 Z" stroke-width="0" fill="#873400" fill-opacity="0.9058823529411765" />
<path d="M144,-191 L86,-151 L116,-114 L28,-119 L190,-70 L108,-119 Z" stroke-width="0" fill="#a06c00" fill-opacity="0.9215686274509803" />
<path d="M69,-87 L111,-107 L241,-215 L73,-45 L145,-189 L63,-64 Z" stroke-width="0" fill="#b67300" fill-opacity="0.45098039215686275" />
<path d="M147,-63 L179,-29 L180,-280 L247,-72 L156,-124 L64,-50 Z" stroke-width="0" fill="#fee879" fill-opacity="0.7607843137254902" />
<path d="M73,-297 L87,-116 L108,-147 L35,-153 L106,-155 L75,-60 Z" stroke-width="0" fill="#a2e4ab" fill-opacity="0.03529411764705882" />
<path d="M230,-153 L73,-70 L214,-294 L153,-163 L238,-226 L79,-223 Z" stroke-width="0" fill="#efbcf0" fill-opacity="0.7254901960784313" />
<path d="M59,-239 L179,-203 L47,-256 L191,-68 L69,-242 L50,-266 Z" stroke-width="0" fill="#1837d3" fill-opacity="0.6980392156862745" />
<path d="M194,-122 L30,-191 L108,-277 L202,-74 L123,-213 L102,-298 Z" stroke-width="0" fill="#8da708" fill-opacity="0.1843137254901961" />
<path d="M75,-89 L90,-98 L164,-167 L168,-53 L80,-251 L36,-217 Z" stroke-width="0" fill="#7798dc" fill-opacity="0.00392156862745098" />
<path d="M29,-180 L26,-266 L187,-205 L118,-300 L72,-63 L137,-207 Z" stroke-width="0" fill="#c80200" fill-opacity="0.6431372549019608" />
<path d="M28,-35 L227,-97 L227,-222 L106,-192 L37,-114 L31,-87 Z" stroke-width="0" fill="#310000" fill-opacity="0.7294117647058823" />
<path d="M114,-238 L192,-288 L111,-260 L156,-239 L113,-74 L143,-103 Z" stroke-width="0" fill="#e8f5dc" fill-opacity="0.9568627450980393" />
<path d="M214,-40 L152,-49 L29,-94 L124,-302 L66,-94 L243,-107 Z" stroke-width="0" fill="#ee6925" fill-opacity="0.7490196078431373" />
<path d="M243,-198 L202,-121 L27,-277 L99,-158 L207,-290 L79,-83 Z" stroke-width="0" fill="#f59b3f" fill-opacity="0.9058823529411765" />
<path d="M160,-29 L113,-135 L213,-76 L193,-206 L232,-120 L27,-134 Z" stroke-width="0" fill="#d16010" fill-opacity="0.5647058823529412" />
<path d="M148,-319 L217,-48 L84,-157 L125,-182 L104,-87 L167,-90 Z" stroke-width="0" fill="#e55e00" fill-opacity="0.7019607843137254" />
<path d="M91,-253 L28,-122 L95,-244 L31,-264 L155,-131 L209,-212 Z" stroke-width="0" fill="#c53f11" fill-opacity="0.6823529411764706" />
<path d="M162,-105 L61,-258 L195,-266 L173,-217 L237,-98 L168,-35 Z" stroke-width="0" fill="#f8dcad" fill-opacity="0.8862745098039215" />
<path d="M62,-158 L164,-159 L46,-244 L106,-40 L230,-84 L49,-131 Z" stroke-width="0" fill="#600700" fill-opacity="0.8509803921568627" />
<path d="M53,-169 L78,-98 L180,-33 L189,-288 L193,-226 L153,-199 Z" stroke-width="0" fill="#ba0a00" fill-opacity="0.7137254901960784" />
<path d="M213,-281 L201,-314 L54,-82 L111,-191 L62,-75 L194,-189 Z" stroke-width="0" fill="#eaa3b2" fill-opacity="0.4117647058823529" />
<path d="M45,-132 L113,-105 L99,-83 L158,-257 L233,-168 L81,-191 Z" stroke-width="0" fill="#d4e4cd" fill-opacity="0.49019607843137253" />
<path d="M118,-276 L41,-139 L168,-136 L122,-254 L193,-60 L224,-153 Z" stroke-width="0" fill="#fceb56" fill-opacity="0.5882352941176471" />
<path d="M236,-313 L225,-60 L51,-138 L67,-174 L33,-116 L167,-305 Z" stroke-width="0" fill="#e29505" fill-opacity="0.7098039215686275" />
<path d="M146,-67 L127,-173 L123,-46 L66,-194 L229,-128 L87,-40 Z" stroke-width="0" fill="#bf0b27" fill-opacity="0.01568627450980392" />
<path d="M99,-110 L34,-75 L161,-189 L210,-256 L156,-105 L44,-260 Z" stroke-width="0" fill="#d05f30" fill-opacity="0.13333333333333333" />
<path d="M27,-260 L121,-124 L207,-109 L38,-41 L105,-201 L205,-55 Z" stroke-width="0" fill="#590000" fill-opacity="0.9294117647058824" />
<path d="M151,-49 L59,-285 L166,-50 L171,-51 L219,-219 L77,-58 Z" stroke-width="0" fill="#7f3fcd" fill-opacity="0.0" />
<path d="M178,-244 L195,-266 L211,-257 L84,-286 L147,-253 L38,-99 Z" stroke-width="0" fill="#eead14" fill-opacity="0.7372549019607844" />
<path d="M162,-71 L224,-44 L40,-227 L197,-133 L198,-277 L144,-66 Z" stroke-width="0" fill="#e716bd" fill-opacity="0.47843137254901963" />
<path d="M153,-182 L239,-39 L122,-131 L66,-303 L115,-137 L27,-155 Z" stroke-width="0" fill="#95270d" fill-opacity="0.21176470588235294" />
<path d="M73,-73 L216,-100 L45,-55 L128,-290 L126,-311 L58,-278 Z" stroke-width="0" fill="#820b00" fill-opacity="0.5019607843137255" />
<path d="M84,-315 L89,-47 L210,-148 L82,-92 L142,-287 L156,-115 Z" stroke-width="0" fill="#e10100" fill-opacity="0.5843137254901961" />
<path d="M89,-26 L27,-273 L104,-58 L78,-188 L102,-50 L204,-188 Z" stroke-width="0" fill="#6e2300" fill-opacity="0.9529411764705882" />
<path d="M109,-74 L45,-142 L227,-167 L150,-195 L231,-30 L134,-228 Z" stroke-width="0" fill="#e3bb4f" fill-opacity="0.9725490196078431" />
<path d="M58,-196 L179,-242 L194,-42 L95,-167 L211,-147 L183,-258 Z" stroke-width="0" fill="#b5e28c" fill-opacity="0.3607843137254902" />
<path d="M172,-195 L59,-144 L171,-268 L103,-225 L222,-115 L204,-69 Z" stroke-width="0" fill="#fffd4d" fill-opacity="0.5411764705882353" />
<path d="M53,-270 L222,-56 L103,-302 L113,-64 L228,-281 L156,-205 Z" stroke-width="0" fill="#c20e00" fill-opacity="0.054901960784313725" />
<path d="M175,-92 L239,-238 L128,-114 L115,-248 L78,-128 L52,-137 Z" stroke-width="0" fill="#fbba49" fill-opacity="0.7019607843137254" />
<path d="M94,-133 L214,-267 L138,-198 L116,-91 L44,-287 L29,-159 Z" stroke-width="0" fill="#f89e00" fill-opacity="0.5882352941176471" />
<path d="M128,-312 L138,-94 L230,-269 L33,-324 L54,-102 L236,-95 Z" stroke-width="0" fill="#c34000" fill-opacity="0.9411764705882353" />
<path d="M249,-202 L30,-141 L86,-213 L73,-202 L213,-179 L139,-249 Z" stroke-width="0" fill="#fa8620" fill-opacity="0.6509803921568628" />
<path d="M108,-87 L88,-236 L127,-31 L221,-135 L232,-302 L100,-91 Z" stroke-width="0" fill="#f2f088" fill-opacity="0.7450980392156863" />
<path d="M152,-262 L117,-252 L185,-271 L99,-206 L99,-238 L186,-166 Z" stroke-width="0" fill="#bdd7c0" fill-opacity="0.058823529411764705" />
<path d="M25,-159 L208,-64 L144,-36 L91,-43 L207,-130 L157,-234 Z" stroke-width="0" fill="#f1ac62" fill-opacity="0.45098039215686275" />
<path d="M115,-164 L111,-189 L39,-274 L141,-247 L158,-292 L59,-201 Z" stroke-width="0" fill="#ef6700" fill-opacity="0.6392156862745098" />
<path d="M100,-303 L106,-51 L119,-193 L123,-41 L209,-67 L179,-159 Z" stroke-width="0" fill="#f44006" fill-opacity="0.23137254901960785" />
<path d="M234,-212 L95,-229 L85,-153 L196,-151 L211,-287 L111,-103 Z" stroke-width="0" fill="#fbf4c4" fill-opacity="0.5058823529411764" />
<path d="M98,-129 L220,-304 L109,-51 L64,-107 L159,-170 L69,-35 Z" stroke-width="0" fill="#fda95a" fill-opacity="0.23921568627450981" />
<path d="M115,-188 L98,-91 L59,-95 L146,-278 L31,-237 L200,-214 Z" stroke-width="0" fill="#dfdc0c" fill-opacity="0.19215686274509805" />
<path d="M49,-119 L83,-26 L213,-315 L217,-271 L166,-46 L41,-41 Z" stroke-width="0" fill="#c59138" fill-opacity="0.13725490196078433" />
<path d="M35,-98 L140,-205 L219,-32 L214,-102 L138,-132 L187,-283 Z" stroke-width="0" fill="#f4d2a0" fill-opacity="0.7568627450980392" />
<path d="M49,-84 L37,-212 L202,-88 L196,-195 L158,-58 L199,-148 Z" stroke-width="0" fill="#edcfc3" fill-opacity="0.12549019607843137" />
<path d="M99,-268 L38,-121 L176,-247 L33,-85 L220,-240 L133,-270 Z" stroke-width="0" fill="#fcb978" fill-opacity="0.6078431372549019" />
<path d="M143,-75 L95,-225 L99,-54 L77,-119 L81,-215 L32,-92 Z" stroke-width="0" fill="#849e3f" fill-opacity="0.08235294117647059" />
<path d="M157,-292 L139,-137 L104,-299 L107,-196 L226,-300 L181,-171 Z" stroke-width="0" fill="#faf173" fill-opacity="0.4117647058823529" />
<path d="M241,-113 L211,-41 L143,-42 L49,-130 L239,-117 L213,-299 Z" stroke-width="0" fill="#eaf285" fill-opacity="0.5647058823529412" />
<path d="M159,-299 L46,-192 L96,-186 L31,-59 L137,-166 L49,-53 Z" stroke-width="0" fill="#b54e3a" fill-opacity="0.27058823529411763" />
<path d="M91,-244 L63,-204 L56,-36 L84,-305 L49,-159 L66,-286 Z" stroke-width="0" fill="#da8517" fill-opacity="0.4745098039215686" />
<path d="M219,-294 L126,-262 L176,-285 L112,-156 L207,-102 L186,-84 Z" stroke-width="0" fill="#dda0d3" fill-opacity="0.03529411764705882" />
<path d="M59,-110 L246,-308 L102,-179 L191,-88 L88,-48 L175,-33 Z" stroke-width="0" fill="#a30200" fill-opacity="0.054901960784313725" />
<path d="M100,-140 L185,-86 L229,-51 L81,-68 L207,-287 L167,-247 Z" stroke-width="0" fill="#fde1be" fill-opacity="0.14901960784313725" />
<path d="M108,-250 L156,-208 L231,-136 L92,-237 L46,-147 L141,-136 Z" stroke-width="0" fill="#f9e23c" fill-opacity="0.5019607843137255" />
<path d="M70,-54 L61,-221 L105,-253 L46,-109 L194,-199 L242,-154 Z" stroke-width="0" fill="#fbcb99" fill-opacity="0.3843137254901961" />
<path d="M218,-67 L67,-207 L142,-309 L75,-200 L159,-178 L46,-180 Z" stroke-width="0" fill="#fcf1a1" fill-opacity="0.5019607843137255" />
<path d="M230,-69 L201,-65 L54,-103 L164,-55 L190,-27 L171,-25 Z" stroke-width="0" fill="#d5680a" fill-opacity="0.8666666666666667" />
<path d="M52,-183 L158,-201 L97,-79 L87,-42 L91,-236 L67,-272 Z" stroke-width="0" fill="#a9af9c" fill-opacity="0.054901960784313725" />
<path d="M208,-64 L37,-59 L71,-180 L90,-185 L165,-127 L113,-104 Z" stroke-width="0" fill="#fad303" fill-opacity="0.2235294117647059" />
<path d="M167,-225 L56,-129 L216,-208 L80,-103 L34,-240 L144,-149 Z" stroke-width="0" fill="#ddd593" fill-opacity="0.17647058823529413" />
<path d="M90,-156 L99,-310 L142,-230 L75,-63 L225,-309 L219,-245 Z" stroke-width="0" fill="#c54a2f" fill-opacity="0.0196078431372549" />
<path d="M84,-191 L41,-44 L29,-184 L135,-305 L180,-73 L167,-41 Z" stroke-width="0" fill="#d8324d" fill-opacity="0.0196078431372549" />
<text x="137.5" y="12.5" font-size="20.0" fill="black" text-anchor="middle" transform="translate(0,5.0)">9 OF WATER</text>
</svg>