<?xml version="1.0" encoding="UTF-8"?>
<svg xmlns="http://www.w3.org/2000/svg" xmlns:xlink="http://www.w3.org/1999/xlink"
     width="275" height="375" viewBox="0 -350 275 375">
<defs>
</defs>
<rect x="15" y="-335" width="245" height="320" stroke="black" stroke-width="4" fill="white" />
<path d="M124,-64 L70,-264 L99,-186 L76,-117 L32,-175 L227,-32 Z" stroke-width="0" fill="#bfbe07" fill-opacity="0.37254901960784315" />
<path d="M245,-91 L50,-188 L117,-83 L73,-223 L40,-39 L132,-97 Z" stroke-width="0" fill="#ea5551" fill-opacity="0.11764705882352941" />
<path d="M44,-189 L41,-27 L189,-36 L182,-195 L35,-315 L28,-32 Z" stroke-width="0" fill="#994d00" fill-opacity="0.6235294117647059" />
<path d="M68,-241 L214,-166 L114,-48 L243,-64 L87,-61 L174,-142 Z" stroke-width="0" fill="#a1b6d5" fill-opacity="0.6745098039215687" />
<path d="M65,-189 L174,-92 L166,-29 L156,-47 L167,-251 L234,-195 Z" stroke-width="0" fill="#b6f0e2" fill-opacity="0.08235294117647059" />
<path d="M143,-69 L200,-77 L238,-314 L145,-299 L81,-308 L79,-108 Z" stroke-width="0" fill="#cc1f13" fill-opacity="0.5019607843137255" />
<path d="M172,-260 L57,-263 L42,-84 L108,-186 L141,-266 L86,-78 Z" stroke-width="0" fill="#f1459c" fill-opacity="0.3764705882352941" />
<path d="M101,-324 L109,-70 L119,-77 L28,-301 L92,-192 L140,-238 Z" stroke-width="0" fill="#ab3f00" fill-opacity="0.5019607843137255" />
<path d="M246,-140 L160,-234 L196,-162 L60,-80 L83,-178 L116,-151 Z" stroke-width="0" fill="#a2ad09" fill-opacity="0.21176470588235294" />
<path d="M101,-234 L233,-179 L125,-87 L120,-65 L226,-27 L184,-281 Z" stroke-width="0" fill="#6c0200" fill-opacity="0.5019607843137255" />
<path d="M26,-304 L79,-98 L199,-288 L167,-250 L121,-202 L41,-208 Z" stroke-width="0" fill="#b75a1f" fill-opacity="0.5215686274509804" />
<path d="M126,-66 L149,-225 L110,-108 L196,-165 L29,-93 L129,-181 Z" stroke-width="0" fill="#d086dd" fill-opacity="0.2901960784313726" />
<path d="M102,-137 L226,-249 L152,-153 L70,-266 L35,-77 L200,-187 Z" stroke-width="0" fill="#ed8c3d" fill-opacity="0.2196078431372549" />
<path d="M32,-32 L181,-83 L226,-36 L215,-202 L219,-199 L163,-194 Z" stroke-width="0" fill="#98981e" fill-opacity="0.6862745098039216" />
<path d="M123,-228 L46,-61 L48,-142 L72,-181 L62,-227 L208,-291 Z" stroke-width="0" fill="#82643f" fill-opacity="0.03529411764705882" />
<path d="M237,-138 L61,-32 L81,-45 L76,-269 L206,-199 L81,-128 Z" stroke-width="0" fill="#28b451" fill-opacity="0.21568627450980393" />
<path d="M70,-81 L139,-36 L71,-81 L150,-97 L144,-289 L192,-35 Z" stroke-width="0" fill="#f34844" fill-opacity="0.3843137254901961" />
<path d="M58,-241 L40,-287 L216,-217 L146,-46 L141,-197 L135,-277 Z" stroke-width="0" fill="#ed68d2" fill-opacity="0.6666666666666666" />
<path d="M109,-81 L62,-198 L132,-256 L84,-310 L120,-217 L220,-219 Z" stroke-width="0" fill="#c1cc94" fill-opacity="0.788235294117647" />
<path d="M99,-192 L64,-120 L64,-35 L83,-175 L65,-145 L76,-99 Z" stroke-width="0" fill="#bf5e62" fill-opacity="0.0784313725490196" />
<path d="M25,-221 L95,-225 L55,-198 L67,-276 L167,-202 L86,-213 Z" stroke-width="0" fill="#a95f57" fill-opacity="0.8156862745098039" />
<path d="M108,-180 L104,-199 L88,-66 L166,-223 L141,-59 L86,-65 Z" stroke-width="0" fill="#a28bcc" fill-opacity="0.8588235294117647" />
<path d="M205,-35 L115,-227 L89,-64 L37,-228 L72,-127 L141,-158 Z" stroke-width="0" fill="#ce7740" fill-opacity="0.32941176470588235" />
<path d="M106,-294 L133,-43 L100,-59 L27,-318 L165,-76 L225,-72 Z" stroke-width="0" fill="#df877d" fill-opacity="0.8627450980392157" />
<path d="M105,-25 L182,-25 L53,-270 L188,-203 L155,-33 L38,-25 Z" stroke-width="0" fill="#7a0000" fill-opacity="0.5019607843137255" />
<path d="M116,-30 L87,-249 L249,-253 L129,-104 L69,-89 L232,-46 Z" stroke-width="0" fill="#b7592a" fill-opacity="0.6784313725490196" />
<path d="M214,-239 L194,-225 L107,-154 L182,-148 L89,-153 L144,-54 Z" stroke-width="0" fill="#5477a0" fill-opacity="0.8823529411764706" />
<path d="M142,-136 L184,-27 L104,-300 L75,-26 L240,-278 L159,-44 Z" stroke-width="0" fill="#93616e" fill-opacity="0.6274509803921569" />
<path d="M48,-289 L203,-268 L49,-285 L239,-136 L196,-148 L226,-121 Z" stroke-width="0" fill="#ed74d6" fill-opacity="0.5450980392156862" />
<path d="M162,-54 L205,-273 L87,-311 L79,-59 L100,-150 L25,-287 Z" stroke-width="0" fill="#d9b273" fill-opacity="0.792156862745098" />
<path d="M140,-167 L172,-63 L113,-287 L127,-181 L138,-211 L186,-25 Z" stroke-width="0" fill="#87352c" fill-opacity="0.6980392156862745" />
<path d="M92,-210 L133,-191 L172,-27 L225,-216 L208,-84 L177,-253 Z" stroke-width="0" fill="#e5564a" fill-opacity="0.44313725490196076" />
<path d="M133,-46 L139,-96 L204,-210 L209,-40 L36,-161 L73,-130 Z" stroke-width="0" fill="#05b69d" fill-opacity="0.047058823529411764" />
<path d="M205,-233 L214,-194 L86,-110 L180,-134 L244,-290 L47,-49 Z" stroke-width="0" fill="#aa6666" fill-opacity="0.7764705882352941" />
<path d="M49,-39 L25,-35 L76,-30 L83,-171 L158,-201 L125,-39 Z" stroke-width="0" fill="#77410c" fill-opacity="0.19607843137254902" />
<path d="M74,-88 L68,-192 L111,-135 L52,-258 L135,-191 L163,-153 Z" stroke-width="0" fill="#e4503a" fill-opacity="0.9568627450980393" />
<path d="M107,-178 L39,-223 L42,-58 L43,-147 L34,-221 L71,-41 Z" stroke-width="0" fill="#7a1532" fill-opacity="0.28627450980392155" />
<path d="M84,-132 L138,-58 L39,-123 L231,-216 L126,-188 L130,-198 Z" stroke-width="0" fill="#e67de0" fill-opacity="0.6980392156862745" />
<path d="M122,-74 L118,-213 L127,-309 L27,-197 L84,-166 L66,-46 Z" stroke-width="0" fill="#c1934e" fill-opacity="0.3607843137254902" />
<path d="M109,-140 L201,-103 L247,-210 L169,-189 L63,-67 L176,-207 Z" stroke-width="0" fill="#090000" fill-opacity="0.7490196078431373" />
<path d="M160,-226 L35,-248 L104,-54 L167,-187 L42,-50 L140,-189 Z" stroke-width="0" fill="#fcd06c" fill-opacity="0.36470588235294116" />
<path d="M197,-41 L39,-283 L210,-94 L100,-139 L240,-236 L25,-162 Z" stroke-width="0" fill="#ca725d" fill-opacity="0.7137254901960784" />
<path d="M223,-91 L160,-211 L165,-168 L248,-140 L217,-151 L124,-266 Z" stroke-width="0" fill="#f89fba" fill-opacity="0.8745098039215686" />
<path d="M104,-120 L87,-59 L78,-244 L157,-212 L119,-294 L47,-91 Z" stroke-width="0" fill="#cfd29c" fill-opacity="0.6039215686274509" />
<path d="M163,-171 L136,-255 L30,-292 L186,-195 L199,-157 L114,-31 Z" stroke-width="0" fill="#f25062" fill-opacity="0.47843137254901963" />
<path d="M150,-282 L178,-180 L84,-134 L48,-208 L129,-150 L223,-111 Z" stroke-width="0" fill="#bb4267" fill-opacity="0.2235294117647059" />
<path d="M92,-98 L87,-76 L100,-186 L156,-194 L160,-80 L191,-256 Z" stroke-width="0" fill="#55d400" fill-opacity="0.9058823529411765" />
<path d="M147,-172 L182,-32 L230,-185 L46,-306 L37,-127 L243,-78 Z" stroke-width="0" fill="#a9dc67" fill-opacity="0.3803921568627451" />
<path d="M176,-47 L133,-122 L81,-104 L128,-241 L190,-39 L123,-190 Z" stroke-width="0" fill="#f1a3e1" fill-opacity="0.3411764705882353" />
<path d="M234,-270 L179,-91 L238,-256 L223,-242 L88,-275 L107,-191 Z" stroke-width="0" fill="#ec5173" fill-opacity="0.5019607843137255" />
<path d="M56,-178 L33,-78 L76,-275 L73,-55 L58,-45 L129,-191 Z" stroke-width="0" fill="#86f3aa" fill-opacity="0.20784313725490197" />
<path d="M98,-190 L92,-46 L232,-272 L195,-318 L151,-201 L226,-132 Z" stroke-width="0" fill="#c6a18d" fill-opacity="0.9333333333333333" />
<path d="M209,-132 L194,-61 L114,-43 L233,-54 L189,-72 L65,-84 Z" stroke-width="0" fill="#af6316" fill-opacity="0.2" />
<path d="M128,-186 L140,-229 L178,-237 L180,-113 L221,-218 L160,-72 Z" stroke-width="0" fill="#500748" fill-opacity="0.03529411764705882" />
<path d="M221,-271 L101,-104 L128,-100 L80,-154 L82,-138 L74,-257 Z" stroke-width="0" fill="#dd9ab2" fill-opacity="0.7450980392156863" />
<path d="M50,-253 L137,-74 L199,-259 L29,-68 L134,-76 L123,-218 Z" stroke-width="0" fill="#9fbb20" fill-opacity="0.6666666666666666" />
<path d="M115,-28 L160,-135 L102,-282 L244,-295 L203,-130 L168,-220 Z" stroke-width="0" fill="#ff8d33" fill-opacity="0.5019607843137255" />
<path d="M188,-101 L104,-189 L237,-257 L175,-89 L146,-157 L92,-314 Z" stroke-width="0" fill="#dd9590" fill-opacity="0.5098039215686274" />
<path d="M124,-246 L110,-177 L198,-129 L227,-145 L58,-225 L130,-192 Z" stroke-width="0" fill="#f9ad2b" fill-opacity="0.20784313725490197" />
<path d="M217,-228 L143,-115 L151,-206 L122,-129 L63,-88 L40,-96 Z" stroke-width="0" fill="#49bdc9" fill-opacity="0.7058823529411765" />
<path d="M82,-198 L109,-150 L235,-56 L114,-226 L172,-275 L225,-239 Z" stroke-width="0" fill="#8d9d5e" fill-opacity="0.5490196078431373" />
<path d="M199,-303 L197,-99 L99,-199 L125,-303 L83,-96 L78,-124 Z" stroke-width="0" fill="#ff6926" fill-opacity="0.1450980392156863" />
<path d="M232,-165 L168,-134 L81,-136 L36,-33 L36,-129 L187,-151 Z" stroke-width="0" fill="#898a00" fill-opacity="0.5019607843137255" />
<path d="M245,-52 L248,-69 L186,-42 L79,-208 L135,-47 L88,-294 Z" stroke-width="0" fill="#c18944" fill-opacity="0.8980392156862745" />
<path d="M101,-219 L126,-238 L124,-122 L170,-182 L196,-104 L184,-316 Z" stroke-width="0" fill="#f5f45a" fill-opacity="0.6941176470588235" />
<path d="M232,-218 L169,-156 L197,-168 L41,-70 L88,-277 L46,-141 Z" stroke-width="0" fill="#294f41" fill-opacity="0.2235294117647059" />
<path d="M244,-272 L63,-172 L174,-275 L141,-182 L146,-75 L200,-96 Z" stroke-width="0" fill="#ec919f" fill-opacity="0.796078431372549" />
<path d="M159,-315 L96,-67 L223,-253 L229,-144 L157,-120 L90,-289 Z" stroke-width="0" fill="#a14a1c" fill-opacity="0.20392156862745098" />
<path d="M172,-310 L212,-274 L163,-178 L52,-135 L136,-46 L29,-40 Z" stroke-width="0" fill="#b54e49" fill-opacity="0.43529411764705883" />
<path d="M202,-122 L51,-75 L42,-225 L162,-201 L160,-57 L222,-136 Z" stroke-width="0" fill="#baa843" fill-opacity="0.2823529411764706" />
<path d="M139,-167 L233,-222 L129,-49 L194,-72 L91,-91 L182,-271 Z" stroke-width="0" fill="#b61c02" fill-opacity="0.7686274509803922" />
<path d="M227,-123 L70,-89 L238,-40 L83,-56 L149,-224 L46,-235 Z" stroke-width="0" fill="#e46649" fill-opacity="0.27058823529411763" />
<path d="M147,-213 L156,-171 L63,-266 L240,-44 L247,-162 L53,-89 Z" stroke-width="0" fill="#6c4900" fill-opacity="0.6196078431372549" />
<path d="M180,-101 L42,-47 L75,-181 L145,-55 L226,-49 L243,-287 Z" stroke-width="0" fill="#d47667" fill-opacity="0.6941176470588235" />
<path d="M160,-245 L229,-185 L66,-61 L181,-199 L168,-122 L165,-265 Z" stroke-width="0" fill="#7bea09" fill-opacity="0.01568627450980392" />
<path d="M224,-45 L139,-43 L62,-274 L74,-199 L166,-225 L86,-128 Z" stroke-width="0" fill="#96745c" fill-opacity="0.14901960784313725" />
<path d="M229,-154 L239,-309 L25,-56 L76,-77 L65,-34 L170,-59 Z" stroke-width="0" fill="#d18e44" fill-opacity="0.047058823529411764" />
<path d="M51,-271 L110,-73 L88,-135 L30,-51 L202,-29 L246,-323 Z" stroke-width="0" fill="#96af75" fill-opacity="0.30196078431372547" />
<path d="M197,-48 L109,-287 L25,-213 L159,-108 L53,-25 L226,-123 Z" stroke-width="0" fill="#cf915e" fill-opacity="0.5019607843137255" />
<path d="M98,-197 L103,-185 L183,-65 L182,-99 L133,-93 L27,-177 Z" stroke-width="0" fill="#aead84" fill-opacity="0.5019607843137255" />
<path d="M174,-131 L138,-315 L32,-106 L236,-187 L63,-275 L34,-132 Z" stroke-width="0" fill="#c67e63" fill-opacity="0.6431372549019608" />
<path d="M89,-120 L109,-258 L161,-311 L62,-230 L161,-55 L167,-159 Z" stroke-width="0" fill="#98b767" fill-opacity="0.12156862745098039" />
<path d="M208,-319 L70,-209 L184,-293 L30,-230 L101,-302 L35,-40 Z" stroke-width="0" fill="#e79094" fill-opacity="0.2" />
<path d="M38,-177 L243,-218 L156,-62 L224,-106 L174,-168 L196,-46 Z" stroke-width="0" fill="#c68b34" fill-opacity="0.3686274509803922" />
<path d="M248,-34 L156,-251 L111,-240 L129,-199 L105,-304 L85,-216 Z" stroke-width="0" fill="#cf9873" fill-opacity="0.5176470588235295" />
<path d="M53,-265 L75,-292 L215,-180 L36,-271 L175,-101 L141,-186 Z" stroke-width="0" fill="#e8ad8b" fill-opacity="0.43137254901960786" />
<path d="M215,-145 L232,-282 L68,-252 L139,-262 L72,-287 L136,-237 Z" stroke-width="0" fill="#beaa33" fill-opacity="0.2235294117647059" />
<path d="M156,-205 L52,-305 L66,-32 L108,-158 L166,-190 L145,-48 Z" stroke-width="0" fill="#d6aa41" fill-opacity="0.30196078431372547" />
<path d="M25,-201 L123,-217 L225,-92 L50,-73 L53,-272 L83,-75 Z" stroke-width="0" fill="#7ba9d4" fill-opacity="0.10196078431372549" />
<path d="M36,-79 L246,-80 L26,-115 L162,-200 L45,-228 L149,-163 Z" stroke-width="0" fill="#e09b83" fill-opacity="0.11764705882352941" />
<path d="M98,-61 L220,-52 L178,-303 L194,-302 L53,-218 L87,-187 Z" stroke-width="0" fill="#ca6156" fill-opacity="0.18823529411764706" />
<path d="M85,-184 L144,-221 L81,-59 L94,-212 L154,-183 L248,-41 Z" stroke-width="0" fill="#c76c4f" fill-opacity="0.23529411764705882" />
<path d="M205,-224 L229,-156 L193,-300 L110,-26 L183,-169 L164,-285 Z" stroke-width="0" fill="#db7d84" fill-opacity="0.23529411764705882" />
<path d="M160,-126 L186,-113 L134,-115 L150,-146 L180,-58 L49,-139 Z" stroke-width="0" fill="#c476a1" fill-opacity="0.17647058823529413" />
<path d="M90,-232 L61,-155 L35,-40 L212,-296 L33,-194 L70,-73 Z" stroke-width="0" fill="#e88879" fill-opacity="0.5019607843137255" />
<path d="M66,-198 L37,-266 L90,-26 L35,-137 L31,-54 L86,-85 Z" stroke-width="0" fill="#bf8656" fill-opacity="0.7215686274509804" />
<path d="M120,-46 L183,-58 L52,-180 L177,-25 L153,-131 L96,-158 Z" stroke-width="0" fill="#b48a3b" fill-opacity="0.5019607843137255" />
<path d="M65,-52 L146,-148 L135,-250 L185,-311 L63,-295 L236,-94 Z" stroke-width="0" fill="#9f8c00" fill-opacity="0.07450980392156863" />
<path d="M46,-109 L142,-221 L81,-45 L38,-51 L179,-219 L142,-115 Z" stroke-width="0" fill="#c94f53" fill-opacity="0.49411764705882355" />
<path d="M84,-220 L95,-256 L71,-93 L186,-192 L158,-212 L204,-37 Z" stroke-width="0" fill="#c87335" fill-opacity="0.3333333333333333" />
<text x="137.5" y="12.5" font-size="20.0" fill="black" text-anchor="middle" transform="translate(0,5.0)">QUEEN OF WATER</text>
</svg>