<?xml version="1.0" encoding="UTF-8"?>
<svg xmlns="http://www.w3.org/2000/svg" xmlns:xlink="http://www.w3.org/1999/xlink"
     width="896" height="1496" viewBox="0 -1400 896 1496" style="font-size:70;font-family:Poor Richard, Times New Roman;stroke:black;stroke-width:1;fill:none">
<defs>
</defs>
<path d="M346,-1074 L682,-838 L562,-314 L126,-270 L742,-682 L386,-1118 Z" stroke-width="0" fill="#160211" fill-opacity="0.9607843137254902" />
<path d="M622,-866 L582,-518 L530,-942 L346,-250 L534,-818 L298,-146 Z" stroke-width="0" fill="#080000" fill-opacity="0.8823529411764706" />
<path d="M526,-202 L606,-530 L222,-346 L122,-650 L454,-322 L754,-114 Z" stroke-width="0" fill="#033c74" fill-opacity="0.20392156862745098" />
<path d="M134,-450 L734,-922 L218,-142 L150,-418 L126,-174 L306,-222 Z" stroke-width="0" fill="#000412" fill-opacity="0.9882352941176471" />
<path d="M290,-782 L374,-1070 L746,-1074 L130,-1014 L774,-1018 L246,-942 Z" stroke-width="0" fill="#e81503" fill-opacity="0.5686274509803921" />
<path d="M206,-762 L410,-1074 L402,-670 L158,-174 L158,-462 L502,-770 Z" stroke-width="0" fill="#1a0000" fill-opacity="0.6705882352941176" />
<path d="M554,-1058 L698,-1018 L130,-206 L786,-510 L550,-878 L358,-810 Z" stroke-width="0" fill="#19000f" fill-opacity="0.5176470588235295" />
<path d="M178,-174 L130,-1082 L522,-594 L398,-142 L178,-990 L722,-954 Z" stroke-width="0" fill="#f3534e" fill-opacity="0.5764705882352941" />
<path d="M338,-290 L498,-130 L638,-150 L114,-194 L362,-926 L490,-262 Z" stroke-width="0" fill="#000000" fill-opacity="0.7176470588235294" />
<path d="M706,-294 L470,-1098 L658,-502 L270,-642 L666,-1314 L398,-190 Z" stroke-width="0" fill="#eff7f2" fill-opacity="0.054901960784313725" />
<path d="M462,-94 L330,-214 L394,-754 L234,-1070 L346,-1254 L594,-858 Z" stroke-width="0" fill="#ce4c3d" fill-opacity="0.5019607843137255" />
<path d="M630,-726 L610,-390 L150,-158 L490,-810 L318,-550 L250,-910 Z" stroke-width="0" fill="#e75c6d" fill-opacity="0.6392156862745098" />
<path d="M726,-1066 L714,-978 L570,-622 L138,-998 L294,-254 L426,-650 Z" stroke-width="0" fill="#ff3a0d" fill-opacity="0.9254901960784314" />
<path d="M338,-1186 L314,-182 L302,-874 L406,-850 L370,-1298 L714,-694 Z" stroke-width="0" fill="#e1f2db" fill-opacity="0.5411764705882353" />
<path d="M554,-702 L650,-194 L418,-294 L766,-234 L190,-234 L146,-210 Z" stroke-width="0" fill="#1c1612" fill-opacity="0.9803921568627451" />
<path d="M478,-802 L786,-854 L634,-382 L222,-670 L694,-674 L110,-94 Z" stroke-width="0" fill="#1c0000" fill-opacity="0.8941176470588236" />
<path d="M458,-366 L226,-426 L306,-1034 L766,-450 L454,-118 L350,-118 Z" stroke-width="0" fill="#3d0000" fill-opacity="0.8666666666666667" />
<path d="M594,-934 L270,-562 L474,-398 L666,-238 L386,-394 L90,-890 Z" stroke-width="0" fill="#e0dce2" fill-opacity="0.011764705882352941" />
<path d="M182,-586 L474,-90 L170,-722 L82,-410 L602,-214 L226,-382 Z" stroke-width="0" fill="#000100" fill-opacity="0.8470588235294118" />
<path d="M310,-898 L298,-202 L506,-338 L330,-1002 L342,-682 L418,-270 Z" stroke-width="0" fill="#636b7f" fill-opacity="0.5803921568627451" />
<path d="M622,-318 L290,-1234 L246,-646 L234,-1286 L166,-482 L258,-338 Z" stroke-width="0" fill="#c61e0f" fill-opacity="0.5294117647058824" />
<path d="M698,-970 L314,-274 L282,-1010 L322,-1162 L606,-1074 L218,-982 Z" stroke-width="0" fill="#bd0e0f" fill-opacity="0.12941176470588237" />
<path d="M618,-590 L190,-714 L714,-806 L666,-786 L102,-746 L394,-802 Z" stroke-width="0" fill="#000000" fill-opacity="0.5450980392156862" />
<path d="M226,-610 L346,-522 L486,-670 L410,-346 L106,-998 L614,-690 Z" stroke-width="0" fill="#fafbe5" fill-opacity="1.0" />
<path d="M654,-702 L570,-614 L226,-430 L386,-274 L482,-322 L586,-158 Z" stroke-width="0" fill="#06352d" fill-opacity="0.996078431372549" />
<path d="M410,-666 L198,-294 L718,-482 L426,-1054 L566,-370 L578,-654 Z" stroke-width="0" fill="#f374e2" fill-opacity="0.24313725490196078" />
<path d="M770,-210 L474,-246 L226,-650 L322,-502 L162,-1314 L138,-534 Z" stroke-width="0" fill="#050305" fill-opacity="0.09019607843137255" />
<path d="M586,-994 L602,-690 L694,-498 L366,-694 L546,-326 L254,-474 Z" stroke-width="0" fill="#735097" fill-opacity="0.4392156862745098" />
<path d="M710,-206 L558,-846 L550,-190 L566,-690 L82,-226 L714,-742 Z" stroke-width="0" fill="#38000c" fill-opacity="0.9764705882352941" />
<path d="M762,-254 L178,-978 L282,-142 L498,-1302 L170,-254 L322,-526 Z" stroke-width="0" fill="#1e28a2" fill-opacity="0.3058823529411765" />
<path d="M310,-582 L86,-626 L770,-870 L550,-1046 L610,-1302 L110,-734 Z" stroke-width="0" fill="#dad7d9" fill-opacity="0.30980392156862746" />
<path d="M566,-430 L462,-1290 L602,-618 L114,-314 L806,-1030 L86,-402 Z" stroke-width="0" fill="#a0391b" fill-opacity="0.4980392156862745" />
<path d="M470,-862 L766,-1210 L454,-906 L610,-1194 L90,-406 L754,-246 Z" stroke-width="0" fill="#00010a" fill-opacity="0.8784313725490196" />
<path d="M514,-542 L242,-774 L518,-1018 L342,-698 L322,-802 L346,-370 Z" stroke-width="0" fill="#bad856" fill-opacity="0.5882352941176471" />
<path d="M202,-294 L106,-1162 L642,-1110 L470,-1314 L646,-110 L454,-178 Z" stroke-width="0" fill="#64000d" fill-opacity="0.4549019607843137" />
<path d="M370,-1050 L338,-702 L546,-382 L590,-338 L346,-126 L258,-686 Z" stroke-width="0" fill="#490c00" fill-opacity="0.9607843137254902" />
<path d="M154,-1070 L402,-442 L134,-1126 L254,-1298 L266,-854 L226,-670 Z" stroke-width="0" fill="#edc6d9" fill-opacity="0.7490196078431373" />
<path d="M790,-510 L418,-286 L94,-730 L782,-1214 L106,-414 L146,-358 Z" stroke-width="0" fill="#ed8981" fill-opacity="0.8470588235294118" />
<path d="M430,-1206 L670,-738 L370,-194 L310,-410 L554,-246 L346,-746 Z" stroke-width="0" fill="#8a2f79" fill-opacity="0.5176470588235295" />
<path d="M450,-1282 L558,-1198 L286,-658 L294,-674 L766,-750 L446,-370 Z" stroke-width="0" fill="#3b3619" fill-opacity="0.11372549019607843" />
<path d="M586,-346 L434,-482 L302,-862 L586,-1166 L282,-926 L382,-458 Z" stroke-width="0" fill="#70eafb" fill-opacity="0.5882352941176471" />
<path d="M490,-842 L134,-438 L206,-646 L550,-342 L98,-146 L390,-1278 Z" stroke-width="0" fill="#630000" fill-opacity="0.35294117647058826" />
<path d="M186,-142 L390,-794 L138,-582 L670,-506 L638,-1046 L710,-814 Z" stroke-width="0" fill="#e48fc4" fill-opacity="0.6039215686274509" />
<path d="M102,-450 L454,-674 L254,-846 L194,-734 L558,-394 L298,-934 Z" stroke-width="0" fill="#0c1909" fill-opacity="0.8862745098039215" />
<path d="M802,-454 L402,-1178 L310,-910 L498,-166 L118,-550 L366,-646 Z" stroke-width="0" fill="#0b0009" fill-opacity="0.9254901960784314" />
<path d="M470,-214 L138,-418 L418,-210 L654,-326 L646,-370 L214,-1114 Z" stroke-width="0" fill="#19de38" fill-opacity="0.0" />
<path d="M310,-406 L562,-1138 L398,-1026 L482,-666 L614,-422 L702,-138 Z" stroke-width="0" fill="#173f58" fill-opacity="0.3176470588235294" />
<path d="M298,-642 L374,-1174 L214,-570 L474,-1062 L262,-874 L650,-302 Z" stroke-width="0" fill="#fd96a0" fill-opacity="0.5176470588235295" />
<path d="M562,-538 L198,-298 L154,-978 L282,-346 L402,-190 L510,-102 Z" stroke-width="0" fill="#4a0018" fill-opacity="0.9294117647058824" />
<path d="M766,-1238 L86,-1146 L550,-390 L554,-602 L410,-258 L546,-1094 Z" stroke-width="0" fill="#a17646" fill-opacity="0.17647058823529413" />
<path d="M310,-526 L174,-1126 L702,-582 L802,-986 L158,-1194 L782,-610 Z" stroke-width="0" fill="#d71200" fill-opacity="0.7843137254901961" />
<path d="M794,-578 L582,-258 L214,-150 L190,-1054 L238,-214 L154,-138 Z" stroke-width="0" fill="#1b1210" fill-opacity="0.9686274509803922" />
<path d="M342,-86 L238,-586 L146,-1022 L762,-758 L522,-574 L214,-846 Z" stroke-width="0" fill="#a4dc97" fill-opacity="0.5882352941176471" />
<path d="M430,-502 L482,-246 L502,-198 L802,-542 L754,-794 L646,-614 Z" stroke-width="0" fill="#000000" fill-opacity="0.7843137254901961" />
<path d="M274,-98 L94,-1022 L626,-630 L570,-258 L258,-926 L490,-1138 Z" stroke-width="0" fill="#95c8e7" fill-opacity="0.6235294117647059" />
<path d="M174,-1290 L454,-1174 L726,-570 L738,-786 L754,-330 L98,-486 Z" stroke-width="0" fill="#4f564d" fill-opacity="0.1568627450980392" />
<path d="M478,-914 L714,-402 L538,-206 L810,-754 L382,-1070 L602,-126 Z" stroke-width="0" fill="#0e1f39" fill-opacity="0.9450980392156862" />
<path d="M474,-1290 L614,-1178 L366,-954 L198,-710 L514,-390 L402,-342 Z" stroke-width="0" fill="#ea9b96" fill-opacity="0.4823529411764706" />
<path d="M90,-742 L286,-866 L230,-230 L82,-750 L478,-130 L678,-1314 Z" stroke-width="0" fill="#e51d09" fill-opacity="0.09803921568627451" />
<path d="M478,-1222 L226,-398 L518,-890 L326,-242 L146,-90 L198,-646 Z" stroke-width="0" fill="#2f0000" fill-opacity="0.9686274509803922" />
<path d="M90,-438 L594,-194 L266,-642 L642,-1286 L610,-1126 L210,-1174 Z" stroke-width="0" fill="#d67667" fill-opacity="0.6274509803921569" />
<path d="M250,-1246 L130,-810 L246,-574 L406,-210 L294,-858 L562,-746 Z" stroke-width="0" fill="#eca6a5" fill-opacity="0.35294117647058826" />
<path d="M726,-626 L586,-242 L390,-1206 L190,-426 L194,-162 L786,-1238 Z" stroke-width="0" fill="#7c4d5a" fill-opacity="0.5294117647058824" />
<path d="M658,-1246 L98,-94 L630,-1118 L582,-286 L202,-550 L566,-314 Z" stroke-width="0" fill="#cbab3a" fill-opacity="0.45098039215686275" />
<path d="M570,-518 L286,-570 L634,-222 L430,-906 L734,-130 L534,-750 Z" stroke-width="0" fill="#00282d" fill-opacity="0.615686274509804" />
<path d="M290,-294 L526,-458 L202,-506 L602,-1250 L586,-146 L702,-490 Z" stroke-width="0" fill="#0a630b" fill-opacity="0.054901960784313725" />
<path d="M350,-914 L590,-354 L270,-402 L554,-90 L210,-722 L598,-94 Z" stroke-width="0" fill="#000000" fill-opacity="0.6313725490196078" />
<path d="M374,-862 L126,-646 L98,-1146 L202,-662 L114,-250 L210,-382 Z" stroke-width="0" fill="#71d3cd" fill-opacity="0.42745098039215684" />
<path d="M350,-302 L238,-702 L602,-342 L490,-114 L334,-622 L530,-810 Z" stroke-width="0" fill="#004622" fill-opacity="0.5568627450980392" />
<path d="M410,-1102 L110,-150 L518,-1082 L486,-822 L478,-866 L426,-578 Z" stroke-width="0" fill="#330600" fill-opacity="0.7647058823529411" />
<path d="M530,-670 L146,-494 L734,-386 L522,-358 L262,-1270 L514,-286 Z" stroke-width="0" fill="#af5966" fill-opacity="0.3058823529411765" />
<path d="M458,-574 L214,-534 L570,-1194 L710,-758 L90,-330 L274,-926 Z" stroke-width="0" fill="#de5d5f" fill-opacity="0.8941176470588236" />
<path d="M342,-722 L294,-694 L274,-138 L206,-206 L114,-814 L634,-1250 Z" stroke-width="0" fill="#815954" fill-opacity="0.3058823529411765" />
<path d="M806,-822 L434,-1102 L86,-1102 L598,-614 L162,-1194 L710,-254 Z" stroke-width="0" fill="#142200" fill-opacity="0.5019607843137255" />
<path d="M386,-354 L138,-722 L134,-538 L298,-330 L270,-414 L174,-166 Z" stroke-width="0" fill="#021b32" fill-opacity="0.7411764705882353" />
<path d="M614,-926 L378,-498 L578,-966 L638,-938 L330,-718 L166,-1046 Z" stroke-width="0" fill="#e0425f" fill-opacity="0.996078431372549" />
<path d="M198,-194 L98,-898 L742,-558 L438,-834 L150,-466 L106,-394 Z" stroke-width="0" fill="#000400" fill-opacity="0.5019607843137255" />
<path d="M742,-490 L190,-730 L626,-674 L238,-202 L238,-298 L782,-374 Z" stroke-width="0" fill="#000d03" fill-opacity="0.9058823529411765" />
<path d="M106,-110 L438,-470 L786,-166 L714,-222 L738,-378 L278,-334 Z" stroke-width="0" fill="#002b18" fill-opacity="0.8627450980392157" />
<path d="M794,-1058 L750,-890 L450,-1242 L786,-562 L394,-222 L570,-622 Z" stroke-width="0" fill="#003a03" fill-opacity="0.011764705882352941" />
<path d="M202,-586 L718,-434 L782,-906 L682,-314 L570,-810 L610,-574 Z" stroke-width="0" fill="#101b3f" fill-opacity="0.4470588235294118" />
<path d="M734,-530 L726,-1266 L202,-354 L570,-426 L798,-674 L118,-506 Z" stroke-width="0" fill="#8a1818" fill-opacity="0.1607843137254902" />
<path d="M146,-986 L262,-638 L214,-354 L414,-846 L142,-482 L562,-986 Z" stroke-width="0" fill="#fb825d" fill-opacity="0.17254901960784313" />
<path d="M346,-198 L274,-222 L390,-994 L610,-990 L738,-638 L170,-402 Z" stroke-width="0" fill="#d6bdbf" fill-opacity="0.4235294117647059" />
<path d="M390,-910 L282,-1042 L434,-1178 L454,-718 L802,-770 L302,-226 Z" stroke-width="0" fill="#33351f" fill-opacity="0.5568627450980392" />
<path d="M178,-626 L382,-158 L478,-826 L434,-822 L162,-714 L598,-994 Z" stroke-width="0" fill="#0d0d0b" fill-opacity="0.25882352941176473" />
<path d="M162,-378 L806,-662 L118,-1262 L222,-590 L170,-1150 L90,-470 Z" stroke-width="0" fill="#110000" fill-opacity="0.43137254901960786" />
<path d="M754,-974 L330,-370 L786,-946 L234,-538 L398,-146 L526,-334 Z" stroke-width="0" fill="#120b00" fill-opacity="0.5019607843137255" />
<path d="M546,-1182 L322,-698 L106,-86 L142,-174 L770,-206 L86,-390 Z" stroke-width="0" fill="#181a1c" fill-opacity="0.9372549019607843" />
<path d="M394,-198 L522,-142 L478,-1218 L402,-346 L598,-614 L398,-1126 Z" stroke-width="0" fill="#7c2834" fill-opacity="0.26666666666666666" />
<path d="M606,-226 L678,-86 L558,-538 L294,-570 L366,-378 L606,-398 Z" stroke-width="0" fill="#002536" fill-opacity="0.24313725490196078" />
<path d="M278,-210 L330,-750 L414,-910 L138,-478 L374,-1038 L110,-250 Z" stroke-width="0" fill="#185f66" fill-opacity="0.5803921568627451" />
<path d="M306,-802 L650,-1050 L718,-602 L558,-586 L210,-642 L622,-598 Z" stroke-width="0" fill="#1f0800" fill-opacity="0.09803921568627451" />
<path d="M162,-1238 L706,-222 L350,-1226 L90,-238 L662,-918 L142,-402 Z" stroke-width="0" fill="#c9553c" fill-opacity="0.12156862745098039" />
<path d="M178,-106 L758,-274 L134,-874 L794,-1282 L234,-266 L422,-778 Z" stroke-width="0" fill="#79061a" fill-opacity="0.34901960784313724" />
<path d="M90,-818 L290,-886 L422,-1274 L694,-394 L238,-326 L690,-522 Z" stroke-width="0" fill="#f2622c" fill-opacity="0.3843137254901961" />
<path d="M134,-602 L750,-694 L370,-874 L126,-278 L118,-82 L750,-1174 Z" stroke-width="0" fill="#facdd7" fill-opacity="0.011764705882352941" />
<path d="M278,-154 L570,-870 L314,-386 L106,-974 L402,-242 L522,-502 Z" stroke-width="0" fill="#310306" fill-opacity="0.3176470588235294" />
<path d="M102,-1090 L678,-1150 L270,-938 L510,-1090 L326,-226 L698,-802 Z" stroke-width="0" fill="#f14979" fill-opacity="0.30980392156862746" />
<path d="M174,-214 L722,-270 L214,-1262 L702,-554 L158,-402 L586,-518 Z" stroke-width="0" fill="#270801" fill-opacity="0.2235294117647059" />
<text x="448.0" y="0" font-size="70.0" fill="black" text-anchor="middle" transform="translate(0,17.5)">POWER</text>
</svg>