<?xml version="1.0" encoding="UTF-8"?>
<svg xmlns="http://www.w3.org/2000/svg" xmlns:xlink="http://www.w3.org/1999/xlink"
     width="275" height="375" viewBox="0 -350 275 375">
<defs>
</defs>
<rect x="15" y="-335" width="245" height="320" stroke="black" stroke-width="4" fill="white" />
<path d="M199,-28 L53,-63 L26,-211 L74,-158 L164,-56 L98,-172 Z" stroke-width="0" fill="#000000" fill-opacity="0.7647058823529411" />
<path d="M69,-156 L137,-203 L137,-28 L218,-139 L45,-217 L118,-26 Z" stroke-width="0" fill="#380009" fill-opacity="0.7098039215686275" />
<path d="M86,-277 L245,-289 L134,-169 L81,-129 L194,-214 L176,-305 Z" stroke-width="0" fill="#002317" fill-opacity="0.5882352941176471" />
<path d="M106,-305 L161,-281 L147,-110 L29,-84 L40,-270 L227,-158 Z" stroke-width="0" fill="#000000" fill-opacity="0.9372549019607843" />
<path d="M41,-190 L78,-105 L181,-292 L232,-108 L25,-34 L155,-39 Z" stroke-width="0" fill="#070000" fill-opacity="0.8549019607843137" />
<path d="M68,-244 L41,-114 L212,-131 L190,-270 L125,-244 L192,-83 Z" stroke-width="0" fill="#e5ea7c" fill-opacity="0.9568627450980393" />
<path d="M45,-228 L91,-69 L236,-129 L99,-262 L132,-116 L142,-236 Z" stroke-width="0" fill="#f11ed9" fill-opacity="0.9647058823529412" />
<path d="M226,-102 L51,-177 L224,-62 L145,-66 L233,-251 L57,-126 Z" stroke-width="0" fill="#f9aa9c" fill-opacity="0.0784313725490196" />
<path d="M57,-301 L228,-46 L201,-276 L200,-313 L170,-193 L32,-143 Z" stroke-width="0" fill="#1ac4b4" fill-opacity="0.027450980392156862" />
<path d="M65,-88 L49,-250 L68,-216 L242,-241 L60,-70 L171,-110 Z" stroke-width="0" fill="#01152a" fill-opacity="0.592156862745098" />
<path d="M164,-199 L170,-110 L134,-44 L245,-94 L154,-296 L49,-26 Z" stroke-width="0" fill="#a2a0de" fill-opacity="0.9137254901960784" />
<path d="M115,-113 L43,-132 L171,-116 L109,-323 L160,-54 L222,-182 Z" stroke-width="0" fill="#7d4063" fill-opacity="0.4588235294117647" />
<path d="M109,-184 L34,-55 L48,-83 L57,-64 L201,-231 L47,-208 Z" stroke-width="0" fill="#020b13" fill-opacity="0.8235294117647058" />
<path d="M113,-181 L81,-91 L186,-207 L165,-296 L73,-30 L30,-84 Z" stroke-width="0" fill="#21633a" fill-opacity="0.9333333333333333" />
<path d="M75,-115 L113,-65 L192,-54 L226,-311 L171,-61 L99,-187 Z" stroke-width="0" fill="#091430" fill-opacity="0.5019607843137255" />
<path d="M75,-221 L158,-191 L81,-308 L60,-241 L119,-35 L196,-125 Z" stroke-width="0" fill="#22cf13" fill-opacity="0.011764705882352941" />
<path d="M96,-87 L191,-158 L138,-200 L75,-301 L207,-126 L152,-134 Z" stroke-width="0" fill="#41f1c9" fill-opacity="0.7529411764705882" />
<path d="M229,-264 L162,-246 L96,-134 L161,-200 L57,-65 L151,-235 Z" stroke-width="0" fill="#0b0e8b" fill-opacity="0.20784313725490197" />
<path d="M187,-45 L116,-272 L239,-135 L204,-108 L163,-173 L197,-93 Z" stroke-width="0" fill="#41005c" fill-opacity="0.7294117647058823" />
<path d="M87,-288 L40,-26 L68,-116 L52,-152 L155,-67 L34,-255 Z" stroke-width="0" fill="#240020" fill-opacity="0.9019607843137255" />
<path d="M138,-244 L196,-99 L114,-138 L149,-229 L184,-291 L213,-209 Z" stroke-width="0" fill="#fff6e9" fill-opacity="0.7607843137254902" />
<path d="M120,-217 L87,-273 L191,-129 L152,-293 L242,-49 L65,-115 Z" stroke-width="0" fill="#000000" fill-opacity="0.7098039215686275" />
<path d="M206,-161 L187,-32 L64,-133 L203,-123 L89,-275 L140,-216 Z" stroke-width="0" fill="#000000" fill-opacity="0.7843137254901961" />
<path d="M202,-193 L39,-46 L162,-285 L83,-129 L178,-109 L236,-109 Z" stroke-width="0" fill="#e5f8e1" fill-opacity="0.996078431372549" />
<path d="M99,-244 L67,-127 L83,-207 L116,-214 L44,-219 L55,-200 Z" stroke-width="0" fill="#c9b831" fill-opacity="0.9725490196078431" />
<path d="M177,-48 L59,-76 L67,-71 L242,-212 L101,-104 L171,-205 Z" stroke-width="0" fill="#011c2e" fill-opacity="0.8862745098039215" />
<path d="M192,-34 L88,-306 L200,-126 L233,-209 L44,-155 L100,-237 Z" stroke-width="0" fill="#15000e" fill-opacity="0.4117647058823529" />
<path d="M51,-256 L62,-91 L45,-52 L241,-190 L167,-169 L61,-110 Z" stroke-width="0" fill="#002153" fill-opacity="0.5215686274509804" />
<path d="M59,-141 L186,-122 L161,-76 L94,-204 L158,-288 L124,-141 Z" stroke-width="0" fill="#cdf5f2" fill-opacity="0.9568627450980393" />
<path d="M43,-322 L117,-270 L192,-191 L58,-240 L120,-129 L235,-311 Z" stroke-width="0" fill="#00000d" fill-opacity="0.6352941176470588" />
<path d="M181,-245 L166,-131 L93,-288 L147,-121 L148,-288 L132,-185 Z" stroke-width="0" fill="#51bfb6" fill-opacity="0.6941176470588235" />
<path d="M82,-296 L111,-147 L85,-260 L53,-270 L108,-107 L49,-74 Z" stroke-width="0" fill="#9ea7ad" fill-opacity="0.41568627450980394" />
<path d="M161,-80 L169,-104 L137,-229 L82,-194 L87,-126 L32,-218 Z" stroke-width="0" fill="#000000" fill-opacity="0.8745098039215686" />
<path d="M112,-39 L120,-281 L118,-196 L230,-230 L121,-153 L92,-194 Z" stroke-width="0" fill="#57fcb5" fill-opacity="0.42745098039215684" />
<path d="M60,-104 L194,-300 L110,-157 L61,-205 L48,-73 L189,-248 Z" stroke-width="0" fill="#07203a" fill-opacity="0.403921568627451" />
<path d="M182,-26 L106,-179 L173,-270 L173,-317 L161,-74 L191,-87 Z" stroke-width="0" fill="#000200" fill-opacity="0.8352941176470589" />
<path d="M106,-207 L45,-78 L187,-289 L190,-203 L128,-134 L185,-123 Z" stroke-width="0" fill="#bb442b" fill-opacity="0.12549019607843137" />
<path d="M111,-48 L36,-241 L141,-65 L180,-159 L218,-77 L28,-245 Z" stroke-width="0" fill="#578096" fill-opacity="0.788235294117647" />
<path d="M123,-279 L48,-188 L138,-143 L50,-126 L41,-37 L141,-112 Z" stroke-width="0" fill="#0d1626" fill-opacity="0.09411764705882353" />
<path d="M35,-267 L152,-134 L155,-53 L183,-321 L102,-118 L204,-169 Z" stroke-width="0" fill="#953c86" fill-opacity="0.7607843137254902" />
<path d="M25,-109 L50,-99 L118,-115 L167,-275 L205,-225 L229,-40 Z" stroke-width="0" fill="#000000" fill-opacity="0.807843137254902" />
<path d="M186,-107 L118,-322 L185,-159 L171,-99 L36,-140 L181,-108 Z" stroke-width="0" fill="#1a4849" fill-opacity="1.0" />
<path d="M97,-314 L112,-105 L166,-170 L127,-137 L91,-77 L98,-107 Z" stroke-width="0" fill="#030b0b" fill-opacity="0.8823529411764706" />
<path d="M34,-49 L155,-168 L217,-40 L73,-293 L36,-259 L72,-90 Z" stroke-width="0" fill="#e0ffed" fill-opacity="0.8549019607843137" />
<path d="M189,-322 L149,-34 L210,-28 L38,-49 L210,-62 L140,-248 Z" stroke-width="0" fill="#003c33" fill-opacity="0.6745098039215687" />
<path d="M228,-155 L202,-208 L52,-106 L234,-139 L105,-218 L233,-89 Z" stroke-width="0" fill="#000065" fill-opacity="0.807843137254902" />
<path d="M230,-37 L51,-230 L112,-101 L85,-256 L198,-149 L79,-222 Z" stroke-width="0" fill="#000000" fill-opacity="0.9607843137254902" />
<path d="M28,-295 L100,-107 L40,-226 L198,-195 L57,-150 L76,-44 Z" stroke-width="0" fill="#e2a9bb" fill-opacity="0.9490196078431372" />
<path d="M219,-54 L43,-188 L133,-185 L205,-34 L133,-58 L117,-115 Z" stroke-width="0" fill="#000009" fill-opacity="0.9607843137254902" />
<path d="M195,-205 L36,-316 L106,-212 L151,-188 L140,-148 L209,-286 Z" stroke-width="0" fill="#37655c" fill-opacity="0.8784313725490196" />
<path d="M223,-150 L137,-221 L69,-279 L204,-162 L184,-31 L84,-248 Z" stroke-width="0" fill="#00050c" fill-opacity="0.8823529411764706" />
<path d="M100,-79 L48,-314 L88,-79 L208,-40 L28,-89 L80,-159 Z" stroke-width="0" fill="#435d3e" fill-opacity="0.7333333333333333" />
<path d="M172,-178 L85,-192 L156,-224 L232,-192 L28,-120 L162,-189 Z" stroke-width="0" fill="#18161b" fill-opacity="0.7137254901960784" />
<path d="M69,-40 L37,-310 L124,-72 L60,-203 L47,-226 L171,-281 Z" stroke-width="0" fill="#95cda9" fill-opacity="0.796078431372549" />
<path d="M139,-289 L58,-304 L217,-61 L63,-270 L106,-124 L223,-211 Z" stroke-width="0" fill="#00293c" fill-opacity="0.5019607843137255" />
<path d="M237,-27 L77,-117 L157,-32 L56,-254 L68,-40 L166,-102 Z" stroke-width="0" fill="#130000" fill-opacity="0.5019607843137255" />
<path d="M53,-249 L235,-95 L163,-83 L62,-50 L124,-119 L142,-289 Z" stroke-width="0" fill="#b94206" fill-opacity="0.11372549019607843" />
<path d="M225,-42 L30,-62 L242,-116 L95,-133 L26,-207 L57,-134 Z" stroke-width="0" fill="#03281c" fill-opacity="0.7568627450980392" />
<path d="M67,-292 L117,-269 L155,-260 L135,-44 L207,-170 L112,-79 Z" stroke-width="0" fill="#201d1d" fill-opacity="0.12549019607843137" />
<path d="M100,-61 L52,-253 L110,-30 L230,-141 L181,-242 L50,-283 Z" stroke-width="0" fill="#f2f1bf" fill-opacity="0.403921568627451" />
<path d="M156,-158 L130,-33 L107,-128 L154,-122 L171,-104 L31,-56 Z" stroke-width="0" fill="#00141d" fill-opacity="0.8549019607843137" />
<path d="M121,-68 L212,-143 L208,-129 L123,-149 L117,-253 L133,-243 Z" stroke-width="0" fill="#fbffc6" fill-opacity="0.9725490196078431" />
<path d="M31,-56 L193,-273 L235,-28 L249,-156 L39,-103 L92,-131 Z" stroke-width="0" fill="#000015" fill-opacity="0.5019607843137255" />
<path d="M141,-31 L128,-86 L94,-192 L167,-184 L79,-120 L25,-28 Z" stroke-width="0" fill="#000000" fill-opacity="0.9490196078431372" />
<path d="M145,-37 L148,-77 L72,-51 L220,-262 L217,-238 L223,-197 Z" stroke-width="0" fill="#030b0c" fill-opacity="0.2" />
<path d="M29,-148 L60,-39 L164,-208 L188,-114 L117,-297 L191,-241 Z" stroke-width="0" fill="#000000" fill-opacity="0.596078431372549" />
<path d="M97,-225 L184,-109 L68,-232 L94,-187 L96,-261 L103,-226 Z" stroke-width="0" fill="#c40a0b" fill-opacity="0.5019607843137255" />
<path d="M69,-245 L135,-170 L49,-287 L199,-264 L49,-150 L80,-65 Z" stroke-width="0" fill="#2d2e53" fill-opacity="0.2823529411764706" />
<path d="M66,-126 L25,-52 L57,-234 L69,-76 L87,-131 L219,-292 Z" stroke-width="0" fill="#000016" fill-opacity="0.9215686274509803" />
<path d="M199,-31 L182,-218 L125,-65 L56,-72 L54,-29 L117,-200 Z" stroke-width="0" fill="#001927" fill-opacity="0.7137254901960784" />
<path d="M68,-141 L78,-157 L76,-293 L93,-31 L144,-256 L45,-74 Z" stroke-width="0" fill="#005850" fill-opacity="0.050980392156862744" />
<path d="M32,-196 L175,-133 L176,-113 L58,-237 L223,-61 L132,-319 Z" stroke-width="0" fill="#487686" fill-opacity="0.592156862745098" />
<path d="M214,-129 L139,-203 L182,-59 L58,-322 L227,-187 L224,-104 Z" stroke-width="0" fill="#3a2f34" fill-opacity="0.5647058823529412" />
<path d="M92,-82 L201,-58 L40,-318 L46,-160 L235,-186 L37,-216 Z" stroke-width="0" fill="#bb7765" fill-opacity="0.21568627450980393" />
<path d="M51,-77 L103,-103 L166,-156 L138,-190 L124,-107 L87,-193 Z" stroke-width="0" fill="#2c1943" fill-opacity="0.27058823529411763" />
<path d="M29,-205 L183,-167 L213,-110 L42,-272 L39,-285 L149,-109 Z" stroke-width="0" fill="#002000" fill-opacity="0.5176470588235295" />
<path d="M150,-82 L132,-210 L85,-78 L77,-324 L222,-150 L207,-245 Z" stroke-width="0" fill="#273749" fill-opacity="0.3764705882352941" />
<path d="M164,-45 L182,-299 L131,-237 L182,-237 L192,-74 L136,-118 Z" stroke-width="0" fill="#3e4a4b" fill-opacity="0.7529411764705882" />
<path d="M244,-61 L204,-147 L86,-201 L48,-287 L116,-235 L226,-266 Z" stroke-width="0" fill="#002600" fill-opacity="0.7411764705882353" />
<path d="M116,-315 L117,-92 L45,-221 L69,-168 L236,-106 L96,-165 Z" stroke-width="0" fill="#6e3445" fill-opacity="0.3607843137254902" />
<path d="M107,-274 L49,-107 L220,-95 L200,-153 L101,-201 L59,-63 Z" stroke-width="0" fill="#002504" fill-opacity="0.8549019607843137" />
<path d="M97,-244 L134,-257 L173,-48 L60,-294 L170,-249 L59,-112 Z" stroke-width="0" fill="#0c301d" fill-opacity="0.8509803921568627" />
<path d="M137,-137 L115,-218 L44,-135 L38,-309 L240,-168 L39,-178 Z" stroke-width="0" fill="#5a1718" fill-opacity="0.15294117647058825" />
<path d="M115,-255 L126,-113 L79,-67 L166,-79 L87,-289 L131,-163 Z" stroke-width="0" fill="#49f7eb" fill-opacity="0.1411764705882353" />
<path d="M236,-320 L111,-212 L85,-259 L95,-119 L172,-110 L198,-311 Z" stroke-width="0" fill="#144f4b" fill-opacity="0.9176470588235294" />
<path d="M167,-78 L68,-204 L223,-74 L197,-181 L56,-320 L49,-276 Z" stroke-width="0" fill="#3a3f4a" fill-opacity="0.9686274509803922" />
<path d="M237,-80 L238,-167 L119,-104 L108,-190 L60,-211 L64,-105 Z" stroke-width="0" fill="#000000" fill-opacity="0.6549019607843137" />
<path d="M154,-236 L123,-127 L244,-270 L179,-34 L47,-83 L245,-51 Z" stroke-width="0" fill="#00000c" fill-opacity="0.9215686274509803" />
<path d="M121,-53 L181,-169 L156,-227 L159,-229 L235,-168 L82,-297 Z" stroke-width="0" fill="#737d86" fill-opacity="0.13333333333333333" />
<path d="M45,-218 L138,-245 L157,-111 L63,-134 L168,-93 L125,-141 Z" stroke-width="0" fill="#a5c2f8" fill-opacity="0.12941176470588237" />
<path d="M93,-68 L91,-245 L232,-51 L106,-116 L28,-276 L248,-253 Z" stroke-width="0" fill="#6d9a9b" fill-opacity="0.5019607843137255" />
<path d="M110,-198 L244,-80 L100,-90 L88,-299 L203,-45 L57,-133 Z" stroke-width="0" fill="#0e0003" fill-opacity="0.5019607843137255" />
<path d="M86,-241 L192,-119 L222,-267 L50,-144 L80,-216 L95,-46 Z" stroke-width="0" fill="#1d4500" fill-opacity="0.18823529411764706" />
<path d="M153,-166 L39,-27 L120,-231 L104,-284 L77,-274 L249,-264 Z" stroke-width="0" fill="#74657a" fill-opacity="0.12156862745098039" />
<path d="M43,-188 L72,-142 L75,-225 L31,-55 L99,-134 L157,-123 Z" stroke-width="0" fill="#000008" fill-opacity="0.6470588235294118" />
<path d="M206,-160 L97,-207 L209,-124 L54,-261 L116,-156 L198,-76 Z" stroke-width="0" fill="#000124" fill-opacity="0.2627450980392157" />
<path d="M244,-307 L244,-156 L124,-269 L62,-161 L81,-222 L62,-70 Z" stroke-width="0" fill="#0b1b22" fill-opacity="0.4" />
<path d="M66,-265 L195,-187 L46,-298 L233,-264 L137,-149 L164,-314 Z" stroke-width="0" fill="#445a5b" fill-opacity="0.396078431372549" />
<path d="M44,-164 L236,-226 L129,-61 L55,-45 L159,-200 L176,-162 Z" stroke-width="0" fill="#081217" fill-opacity="0.6078431372549019" />
<path d="M172,-137 L67,-103 L71,-79 L214,-55 L53,-194 L231,-31 Z" stroke-width="0" fill="#000000" fill-opacity="0.8196078431372549" />
<text x="137.5" y="12.5" font-size="20.0" fill="black" text-anchor="middle" transform="translate(0,5.0)">POWER</text>
</svg>