<?xml version="1.0" encoding="UTF-8"?>
<svg xmlns="http://www.w3.org/2000/svg" xmlns:xlink="http://www.w3.org/1999/xlink"
     width="896" height="1496" viewBox="0 -1400 896 1496" style="font-size:70;font-family:Poor Richard, Times New Roman;stroke:black;stroke-width:1;fill:none">
<defs>
</defs>
<path d="M210,-1122 L638,-594 L186,-1254 L418,-438 L438,-570 L562,-958 Z" stroke-width="0" fill="#000000" fill-opacity="0.8941176470588236" />
<path d="M546,-934 L290,-858 L746,-1162 L546,-1022 L294,-746 L310,-838 Z" stroke-width="0" fill="#b95bfd" fill-opacity="0.0" />
<path d="M426,-1122 L206,-606 L670,-414 L98,-978 L142,-1138 L598,-110 Z" stroke-width="0" fill="#000317" fill-opacity="0.9921568627450981" />
<path d="M346,-1022 L638,-1206 L378,-1226 L202,-310 L102,-326 L554,-694 Z" stroke-width="0" fill="#2b0016" fill-opacity="0.9294117647058824" />
<path d="M706,-310 L562,-350 L450,-582 L746,-82 L142,-710 L314,-694 Z" stroke-width="0" fill="#6a132e" fill-opacity="0.803921568627451" />
<path d="M566,-334 L270,-914 L326,-278 L698,-114 L254,-662 L730,-718 Z" stroke-width="0" fill="#1f3335" fill-opacity="0.803921568627451" />
<path d="M306,-226 L802,-386 L574,-126 L106,-230 L254,-1218 L682,-114 Z" stroke-width="0" fill="#0d01e1" fill-opacity="0.6627450980392157" />
<path d="M442,-982 L706,-234 L94,-842 L370,-286 L318,-626 L126,-402 Z" stroke-width="0" fill="#00001e" fill-opacity="0.984313725490196" />
<path d="M774,-498 L250,-1146 L334,-1110 L534,-90 L610,-830 L622,-398 Z" stroke-width="0" fill="#360001" fill-opacity="0.6039215686274509" />
<path d="M142,-478 L550,-1242 L330,-1070 L494,-586 L594,-1250 L582,-1298 Z" stroke-width="0" fill="#000000" fill-opacity="0.7529411764705882" />
<path d="M494,-114 L166,-534 L146,-574 L562,-426 L610,-906 L270,-98 Z" stroke-width="0" fill="#320000" fill-opacity="0.6588235294117647" />
<path d="M318,-730 L710,-998 L374,-1314 L738,-238 L442,-670 L506,-442 Z" stroke-width="0" fill="#000000" fill-opacity="0.8980392156862745" />
<path d="M538,-726 L266,-142 L98,-1142 L722,-902 L238,-870 L322,-266 Z" stroke-width="0" fill="#0000b4" fill-opacity="0.9647058823529412" />
<path d="M174,-642 L134,-1298 L546,-434 L798,-1266 L186,-466 L242,-530 Z" stroke-width="0" fill="#000000" fill-opacity="0.9568627450980393" />
<path d="M450,-462 L386,-1046 L222,-650 L482,-1110 L530,-718 L514,-554 Z" stroke-width="0" fill="#a5967b" fill-opacity="0.7137254901960784" />
<path d="M94,-130 L574,-246 L590,-846 L786,-734 L546,-978 L598,-1102 Z" stroke-width="0" fill="#000031" fill-opacity="0.8549019607843137" />
<path d="M458,-950 L370,-1038 L218,-622 L554,-186 L594,-770 L266,-422 Z" stroke-width="0" fill="#64a552" fill-opacity="0.23921568627450981" />
<path d="M134,-382 L778,-302 L650,-218 L182,-134 L758,-1142 L406,-286 Z" stroke-width="0" fill="#e9bac8" fill-opacity="0.8745098039215686" />
<path d="M630,-1226 L238,-1166 L338,-226 L94,-374 L478,-422 L166,-902 Z" stroke-width="0" fill="#030016" fill-opacity="0.9058823529411765" />
<path d="M666,-358 L810,-554 L146,-186 L466,-738 L402,-1026 L206,-1170 Z" stroke-width="0" fill="#000074" fill-opacity="0.7254901960784313" />
<path d="M458,-338 L466,-902 L382,-890 L162,-586 L670,-694 L646,-710 Z" stroke-width="0" fill="#4e0bab" fill-opacity="0.5764705882352941" />
<path d="M562,-98 L162,-230 L638,-998 L126,-182 L470,-174 L198,-1090 Z" stroke-width="0" fill="#99c829" fill-opacity="0.5019607843137255" />
<path d="M806,-662 L314,-866 L586,-1106 L334,-282 L498,-1054 L490,-586 Z" stroke-width="0" fill="#000030" fill-opacity="0.7294117647058823" />
<path d="M718,-626 L174,-1274 L458,-926 L298,-174 L666,-522 L378,-338 Z" stroke-width="0" fill="#01001b" fill-opacity="0.9882352941176471" />
<path d="M178,-562 L474,-326 L250,-386 L434,-334 L734,-1238 L98,-1098 Z" stroke-width="0" fill="#000012" fill-opacity="0.9647058823529412" />
<path d="M218,-154 L342,-622 L626,-1170 L538,-926 L770,-358 L82,-278 Z" stroke-width="0" fill="#0b03c1" fill-opacity="0.27058823529411763" />
<path d="M398,-846 L218,-82 L478,-1014 L566,-778 L526,-1106 L286,-1258 Z" stroke-width="0" fill="#270000" fill-opacity="0.7098039215686275" />
<path d="M214,-1234 L82,-1178 L610,-510 L582,-690 L442,-998 L426,-1250 Z" stroke-width="0" fill="#00001d" fill-opacity="0.984313725490196" />
<path d="M342,-1182 L98,-398 L778,-566 L498,-382 L486,-1274 L122,-646 Z" stroke-width="0" fill="#00000f" fill-opacity="0.9294117647058824" />
<path d="M634,-590 L114,-894 L178,-866 L658,-162 L546,-602 L302,-474 Z" stroke-width="0" fill="#000021" fill-opacity="0.9686274509803922" />
<path d="M82,-1038 L546,-130 L198,-1070 L278,-358 L778,-470 L122,-1066 Z" stroke-width="0" fill="#00031b" fill-opacity="0.9490196078431372" />
<path d="M706,-990 L182,-722 L810,-94 L394,-122 L186,-866 L642,-638 Z" stroke-width="0" fill="#aa0647" fill-opacity="0.5647058823529412" />
<path d="M694,-646 L506,-1178 L110,-1006 L266,-690 L250,-130 L222,-214 Z" stroke-width="0" fill="#e2c03b" fill-opacity="0.00392156862745098" />
<path d="M694,-346 L634,-254 L218,-178 L558,-630 L174,-878 L394,-586 Z" stroke-width="0" fill="#d1e392" fill-opacity="0.984313725490196" />
<path d="M710,-262 L482,-262 L462,-94 L798,-246 L170,-998 L378,-406 Z" stroke-width="0" fill="#b87abd" fill-opacity="0.9568627450980393" />
<path d="M434,-282 L606,-698 L426,-826 L638,-214 L482,-498 L646,-1002 Z" stroke-width="0" fill="#efd1fa" fill-opacity="0.9333333333333333" />
<path d="M330,-126 L366,-738 L790,-262 L422,-974 L706,-1134 L798,-1122 Z" stroke-width="0" fill="#001d00" fill-opacity="0.9686274509803922" />
<path d="M358,-654 L426,-182 L402,-246 L462,-1110 L438,-102 L590,-454 Z" stroke-width="0" fill="#77570e" fill-opacity="0.8470588235294118" />
<path d="M230,-878 L786,-970 L414,-1274 L606,-1218 L554,-210 L358,-534 Z" stroke-width="0" fill="#000001" fill-opacity="0.9450980392156862" />
<path d="M210,-1274 L398,-186 L174,-930 L110,-254 L210,-618 L750,-1074 Z" stroke-width="0" fill="#0d031e" fill-opacity="0.8784313725490196" />
<path d="M234,-1290 L490,-1102 L482,-1266 L506,-290 L598,-314 L554,-234 Z" stroke-width="0" fill="#000022" fill-opacity="0.9450980392156862" />
<path d="M178,-734 L622,-566 L186,-670 L518,-578 L670,-922 L598,-306 Z" stroke-width="0" fill="#6b773b" fill-opacity="0.3215686274509804" />
<path d="M274,-506 L670,-350 L178,-106 L126,-330 L486,-206 L82,-946 Z" stroke-width="0" fill="#060004" fill-opacity="0.611764705882353" />
<path d="M334,-398 L174,-1226 L90,-1102 L786,-322 L454,-698 L358,-1182 Z" stroke-width="0" fill="#160004" fill-opacity="0.7098039215686275" />
<path d="M130,-558 L406,-1226 L90,-414 L166,-1058 L682,-510 L574,-202 Z" stroke-width="0" fill="#000000" fill-opacity="1.0" />
<path d="M694,-850 L254,-522 L102,-578 L770,-1146 L210,-510 L318,-1306 Z" stroke-width="0" fill="#000000" fill-opacity="0.8823529411764706" />
<path d="M106,-978 L218,-1210 L398,-330 L258,-1126 L114,-478 L786,-406 Z" stroke-width="0" fill="#000021" fill-opacity="0.4470588235294118" />
<path d="M450,-818 L346,-1178 L390,-1202 L338,-666 L566,-994 L370,-1038 Z" stroke-width="0" fill="#024b79" fill-opacity="0.00392156862745098" />
<path d="M330,-866 L610,-178 L538,-334 L270,-1058 L314,-134 L206,-622 Z" stroke-width="0" fill="#042c29" fill-opacity="0.43137254901960786" />
<path d="M418,-1010 L338,-710 L262,-110 L678,-962 L262,-1046 L714,-94 Z" stroke-width="0" fill="#954d5d" fill-opacity="0.9607843137254902" />
<path d="M218,-1098 L226,-506 L154,-798 L282,-1038 L506,-482 L490,-766 Z" stroke-width="0" fill="#000b06" fill-opacity="0.17254901960784313" />
<path d="M366,-546 L374,-526 L234,-566 L630,-250 L230,-754 L206,-862 Z" stroke-width="0" fill="#2ec3b2" fill-opacity="0.28627450980392155" />
<path d="M646,-746 L578,-870 L774,-1078 L742,-1006 L570,-202 L378,-1218 Z" stroke-width="0" fill="#002748" fill-opacity="0.8941176470588236" />
<path d="M230,-1082 L578,-506 L670,-366 L810,-186 L454,-1186 L114,-734 Z" stroke-width="0" fill="#812b31" fill-opacity="0.08627450980392157" />
<path d="M542,-906 L266,-1294 L682,-358 L118,-1014 L434,-1278 L134,-90 Z" stroke-width="0" fill="#040017" fill-opacity="0.9333333333333333" />
<path d="M538,-526 L186,-1038 L394,-702 L246,-178 L594,-630 L786,-450 Z" stroke-width="0" fill="#0b0485" fill-opacity="0.6" />
<path d="M186,-338 L434,-186 L682,-286 L218,-386 L378,-1286 L450,-350 Z" stroke-width="0" fill="#000000" fill-opacity="0.9921568627450981" />
<path d="M442,-450 L382,-734 L182,-1078 L506,-778 L794,-514 L686,-430 Z" stroke-width="0" fill="#16329b" fill-opacity="0.8862745098039215" />
<path d="M170,-890 L318,-850 L162,-1274 L610,-682 L442,-290 L738,-106 Z" stroke-width="0" fill="#110015" fill-opacity="0.8705882352941177" />
<path d="M634,-1082 L326,-194 L714,-582 L502,-210 L590,-226 L606,-226 Z" stroke-width="0" fill="#495ad5" fill-opacity="0.403921568627451" />
<path d="M226,-730 L422,-462 L698,-154 L502,-186 L506,-186 L450,-558 Z" stroke-width="0" fill="#240d27" fill-opacity="0.9019607843137255" />
<path d="M226,-150 L762,-238 L202,-918 L82,-706 L810,-626 L646,-86 Z" stroke-width="0" fill="#69376b" fill-opacity="0.8156862745098039" />
<path d="M242,-618 L586,-670 L798,-706 L90,-434 L142,-718 L702,-566 Z" stroke-width="0" fill="#000c15" fill-opacity="0.9058823529411765" />
<path d="M382,-474 L666,-86 L742,-86 L234,-1038 L462,-358 L442,-1206 Z" stroke-width="0" fill="#cad7df" fill-opacity="0.5372549019607843" />
<path d="M406,-182 L90,-674 L90,-238 L110,-1226 L94,-702 L410,-586 Z" stroke-width="0" fill="#000000" fill-opacity="0.8431372549019608" />
<path d="M762,-130 L530,-350 L518,-986 L190,-146 L130,-342 L446,-846 Z" stroke-width="0" fill="#b988bf" fill-opacity="0.5411764705882353" />
<path d="M662,-634 L374,-474 L558,-1102 L778,-430 L354,-574 L562,-222 Z" stroke-width="0" fill="#1b3ae0" fill-opacity="0.5843137254901961" />
<path d="M114,-346 L122,-210 L738,-86 L218,-398 L386,-90 L746,-562 Z" stroke-width="0" fill="#c88595" fill-opacity="0.5019607843137255" />
<path d="M782,-610 L406,-102 L642,-294 L234,-594 L378,-1294 L710,-162 Z" stroke-width="0" fill="#e02fc3" fill-opacity="0.12941176470588237" />
<path d="M214,-726 L446,-510 L430,-1258 L262,-382 L90,-1198 L738,-422 Z" stroke-width="0" fill="#000002" fill-opacity="0.5019607843137255" />
<path d="M210,-946 L710,-1014 L114,-614 L386,-234 L82,-122 L374,-758 Z" stroke-width="0" fill="#5c3f40" fill-opacity="0.7607843137254902" />
<path d="M278,-254 L286,-1182 L106,-538 L614,-418 L414,-406 L538,-310 Z" stroke-width="0" fill="#000015" fill-opacity="0.8235294117647058" />
<path d="M330,-94 L146,-894 L518,-230 L210,-458 L214,-994 L510,-1114 Z" stroke-width="0" fill="#000005" fill-opacity="0.33725490196078434" />
<path d="M622,-462 L454,-126 L210,-558 L418,-94 L226,-1194 L730,-606 Z" stroke-width="0" fill="#1c0a02" fill-opacity="0.06666666666666667" />
<path d="M638,-98 L530,-386 L378,-306 L458,-1210 L242,-166 L394,-426 Z" stroke-width="0" fill="#d9ad3c" fill-opacity="0.0196078431372549" />
<path d="M610,-1226 L538,-662 L106,-262 L746,-166 L422,-778 L362,-962 Z" stroke-width="0" fill="#d44b9f" fill-opacity="0.3058823529411765" />
<path d="M206,-310 L310,-994 L210,-830 L290,-1226 L102,-206 L494,-946 Z" stroke-width="0" fill="#021300" fill-opacity="0.611764705882353" />
<path d="M258,-1066 L294,-726 L270,-982 L314,-666 L330,-110 L810,-1066 Z" stroke-width="0" fill="#001356" fill-opacity="0.9333333333333333" />
<path d="M494,-98 L662,-1122 L518,-1130 L134,-242 L506,-206 L238,-630 Z" stroke-width="0" fill="#2e3324" fill-opacity="0.5019607843137255" />
<path d="M290,-1154 L642,-1038 L286,-450 L238,-770 L250,-218 L354,-846 Z" stroke-width="0" fill="#000000" fill-opacity="0.7294117647058823" />
<path d="M406,-162 L162,-318 L562,-1090 L130,-174 L142,-1046 L750,-106 Z" stroke-width="0" fill="#2f344a" fill-opacity="0.18823529411764706" />
<path d="M330,-826 L798,-702 L502,-338 L770,-570 L222,-550 L662,-718 Z" stroke-width="0" fill="#04256f" fill-opacity="0.7607843137254902" />
<path d="M414,-910 L594,-1026 L282,-354 L386,-118 L178,-1202 L522,-730 Z" stroke-width="0" fill="#090000" fill-opacity="0.6980392156862745" />
<path d="M646,-338 L706,-1126 L290,-926 L150,-294 L118,-738 L246,-390 Z" stroke-width="0" fill="#7612c0" fill-opacity="0.06666666666666667" />
<path d="M534,-210 L110,-346 L722,-914 L270,-842 L98,-662 L306,-546 Z" stroke-width="0" fill="#001028" fill-opacity="0.4588235294117647" />
<path d="M134,-762 L266,-142 L482,-370 L450,-346 L298,-1062 L438,-882 Z" stroke-width="0" fill="#180023" fill-opacity="0.27450980392156865" />
<path d="M178,-1026 L162,-1110 L230,-1174 L338,-922 L410,-814 L142,-814 Z" stroke-width="0" fill="#09001c" fill-opacity="0.06666666666666667" />
<path d="M686,-598 L594,-774 L442,-906 L494,-574 L582,-398 L490,-798 Z" stroke-width="0" fill="#433674" fill-opacity="0.0784313725490196" />
<path d="M282,-802 L218,-250 L390,-98 L426,-1146 L394,-1070 L482,-566 Z" stroke-width="0" fill="#e97659" fill-opacity="0.3254901960784314" />
<path d="M286,-282 L162,-662 L706,-1230 L466,-838 L314,-666 L294,-998 Z" stroke-width="0" fill="#00000a" fill-opacity="0.7843137254901961" />
<path d="M746,-1266 L134,-262 L750,-366 L574,-466 L742,-1298 L166,-410 Z" stroke-width="0" fill="#0f3b4e" fill-opacity="0.3333333333333333" />
<path d="M242,-182 L138,-774 L410,-226 L306,-186 L334,-438 L190,-674 Z" stroke-width="0" fill="#8e1025" fill-opacity="0.043137254901960784" />
<path d="M550,-982 L554,-1298 L698,-878 L510,-330 L774,-170 L478,-1034 Z" stroke-width="0" fill="#8de6bf" fill-opacity="0.09803921568627451" />
<path d="M706,-810 L550,-1186 L578,-1246 L726,-558 L242,-590 L778,-1310 Z" stroke-width="0" fill="#00003d" fill-opacity="0.6784313725490196" />
<path d="M702,-306 L102,-570 L442,-222 L610,-1250 L490,-186 L306,-306 Z" stroke-width="0" fill="#4c5941" fill-opacity="0.0" />
<path d="M686,-154 L206,-1046 L138,-306 L386,-150 L806,-350 L414,-930 Z" stroke-width="0" fill="#441871" fill-opacity="0.15294117647058825" />
<path d="M610,-1106 L754,-186 L650,-1270 L130,-1170 L130,-1250 L326,-110 Z" stroke-width="0" fill="#000b2c" fill-opacity="0.5764705882352941" />
<path d="M154,-826 L134,-426 L294,-326 L126,-506 L258,-514 L586,-510 Z" stroke-width="0" fill="#00004b" fill-opacity="0.2980392156862745" />
<path d="M134,-334 L358,-266 L618,-570 L610,-294 L566,-118 L510,-1034 Z" stroke-width="0" fill="#1d3117" fill-opacity="0.1450980392156863" />
<path d="M170,-862 L774,-510 L658,-266 L598,-966 L654,-150 L142,-1142 Z" stroke-width="0" fill="#161c68" fill-opacity="0.12549019607843137" />
<text x="448.0" y="0" font-size="70.0" fill="black" text-anchor="middle" transform="translate(0,17.5)">EFFECT</text>
</svg>