<?xml version="1.0" encoding="UTF-8"?>
<svg xmlns="http://www.w3.org/2000/svg" xmlns:xlink="http://www.w3.org/1999/xlink"
     width="275" height="375" viewBox="0 -350 275 375">
<defs>
</defs>
<rect x="15" y="-335" width="245" height="320" stroke="black" stroke-width="4" fill="white" />
<path d="M71,-76 L181,-71 L58,-159 L179,-281 L133,-148 L89,-31 Z" stroke-width="0" fill="#552808" fill-opacity="0.8901960784313725" />
<path d="M184,-290 L40,-179 L131,-313 L239,-177 L38,-303 L146,-42 Z" stroke-width="0" fill="#15103a" fill-opacity="0.8431372549019608" />
<path d="M195,-310 L50,-309 L81,-142 L211,-31 L115,-25 L200,-202 Z" stroke-width="0" fill="#000009" fill-opacity="0.7725490196078432" />
<path d="M134,-303 L175,-74 L117,-65 L93,-82 L31,-217 L71,-245 Z" stroke-width="0" fill="#04000e" fill-opacity="0.8" />
<path d="M79,-258 L248,-220 L109,-65 L122,-114 L59,-321 L102,-309 Z" stroke-width="0" fill="#1d1d23" fill-opacity="0.6784313725490196" />
<path d="M79,-195 L224,-252 L195,-167 L167,-247 L231,-229 L102,-115 Z" stroke-width="0" fill="#0218b9" fill-opacity="0.03137254901960784" />
<path d="M49,-154 L29,-278 L59,-34 L25,-63 L191,-217 L142,-319 Z" stroke-width="0" fill="#010000" fill-opacity="0.7843137254901961" />
<path d="M41,-54 L114,-69 L199,-140 L221,-226 L107,-68 L212,-240 Z" stroke-width="0" fill="#70ec57" fill-opacity="0.3568627450980392" />
<path d="M164,-135 L165,-125 L170,-239 L80,-35 L145,-192 L94,-252 Z" stroke-width="0" fill="#430a02" fill-opacity="0.7725490196078432" />
<path d="M188,-49 L190,-222 L65,-256 L167,-108 L235,-178 L164,-203 Z" stroke-width="0" fill="#cf9308" fill-opacity="0.9921568627450981" />
<path d="M187,-41 L102,-72 L215,-94 L55,-81 L212,-80 L29,-186 Z" stroke-width="0" fill="#573d2b" fill-opacity="0.984313725490196" />
<path d="M205,-137 L150,-49 L52,-108 L52,-188 L86,-201 L207,-249 Z" stroke-width="0" fill="#f79007" fill-opacity="0.8549019607843137" />
<path d="M98,-279 L153,-108 L84,-104 L96,-315 L61,-147 L110,-177 Z" stroke-width="0" fill="#39402f" fill-opacity="0.7490196078431373" />
<path d="M128,-33 L247,-154 L146,-305 L220,-167 L246,-310 L106,-45 Z" stroke-width="0" fill="#000000" fill-opacity="0.7803921568627451" />
<path d="M43,-116 L134,-120 L130,-196 L71,-150 L104,-234 L156,-106 Z" stroke-width="0" fill="#ae54bf" fill-opacity="0.9647058823529412" />
<path d="M42,-298 L166,-132 L171,-297 L233,-165 L248,-74 L229,-112 Z" stroke-width="0" fill="#030000" fill-opacity="0.7254901960784313" />
<path d="M31,-158 L54,-129 L106,-319 L132,-145 L65,-32 L106,-293 Z" stroke-width="0" fill="#2d3032" fill-opacity="0.8274509803921568" />
<path d="M243,-47 L155,-38 L155,-215 L234,-242 L226,-322 L220,-83 Z" stroke-width="0" fill="#000200" fill-opacity="0.7568627450980392" />
<path d="M90,-183 L103,-78 L175,-163 L78,-259 L63,-89 L171,-142 Z" stroke-width="0" fill="#cdbfcb" fill-opacity="0.07058823529411765" />
<path d="M218,-201 L82,-142 L64,-127 L113,-252 L212,-310 L139,-308 Z" stroke-width="0" fill="#3b2c2a" fill-opacity="0.7294117647058823" />
<path d="M162,-97 L33,-58 L137,-273 L191,-72 L81,-143 L212,-221 Z" stroke-width="0" fill="#fb3f00" fill-opacity="0.17254901960784313" />
<path d="M126,-71 L239,-104 L70,-263 L132,-144 L100,-129 L220,-189 Z" stroke-width="0" fill="#41371c" fill-opacity="0.09411764705882353" />
<path d="M240,-307 L218,-212 L102,-320 L240,-59 L39,-72 L138,-269 Z" stroke-width="0" fill="#212c2d" fill-opacity="0.8941176470588236" />
<path d="M57,-195 L214,-264 L209,-197 L25,-104 L135,-180 L142,-132 Z" stroke-width="0" fill="#0e0a14" fill-opacity="0.8235294117647058" />
<path d="M49,-47 L48,-164 L60,-137 L115,-86 L190,-87 L169,-143 Z" stroke-width="0" fill="#3e333f" fill-opacity="0.5019607843137255" />
<path d="M115,-163 L207,-194 L144,-210 L88,-193 L150,-320 L81,-296 Z" stroke-width="0" fill="#3b332e" fill-opacity="0.9529411764705882" />
<path d="M237,-104 L219,-299 L167,-50 L50,-241 L222,-130 L175,-190 Z" stroke-width="0" fill="#3a2208" fill-opacity="0.2235294117647059" />
<path d="M139,-277 L208,-100 L63,-105 L59,-241 L193,-35 L181,-164 Z" stroke-width="0" fill="#2ad950" fill-opacity="0.26666666666666666" />
<path d="M87,-248 L150,-304 L131,-114 L237,-298 L169,-168 L185,-50 Z" stroke-width="0" fill="#574b4e" fill-opacity="0.6274509803921569" />
<path d="M163,-115 L195,-204 L249,-66 L34,-238 L247,-37 L124,-204 Z" stroke-width="0" fill="#353b40" fill-opacity="0.9921568627450981" />
<path d="M206,-164 L90,-75 L47,-256 L49,-137 L180,-163 L202,-214 Z" stroke-width="0" fill="#cc1118" fill-opacity="0.8745098039215686" />
<path d="M107,-293 L114,-118 L90,-169 L77,-108 L227,-114 L81,-243 Z" stroke-width="0" fill="#184e54" fill-opacity="0.32941176470588235" />
<path d="M191,-280 L159,-127 L72,-55 L31,-102 L142,-116 L192,-84 Z" stroke-width="0" fill="#092c00" fill-opacity="0.7450980392156863" />
<path d="M43,-114 L78,-119 L204,-195 L215,-166 L171,-209 L105,-165 Z" stroke-width="0" fill="#cbd9fe" fill-opacity="0.7372549019607844" />
<path d="M127,-234 L174,-34 L179,-122 L69,-242 L68,-49 L241,-105 Z" stroke-width="0" fill="#a6ba45" fill-opacity="0.6078431372549019" />
<path d="M75,-134 L227,-239 L131,-223 L147,-143 L179,-256 L32,-159 Z" stroke-width="0" fill="#36102a" fill-opacity="0.027450980392156862" />
<path d="M132,-219 L86,-211 L185,-63 L141,-48 L117,-271 L43,-64 Z" stroke-width="0" fill="#89432a" fill-opacity="0.615686274509804" />
<path d="M126,-105 L61,-50 L197,-205 L212,-124 L55,-319 L42,-196 Z" stroke-width="0" fill="#392f40" fill-opacity="0.9215686274509803" />
<path d="M143,-96 L168,-57 L88,-110 L236,-235 L72,-275 L99,-109 Z" stroke-width="0" fill="#071421" fill-opacity="0.4627450980392157" />
<path d="M216,-106 L30,-113 L68,-240 L55,-101 L218,-83 L104,-58 Z" stroke-width="0" fill="#221c16" fill-opacity="0.8549019607843137" />
<path d="M54,-142 L43,-78 L59,-243 L141,-226 L109,-279 L141,-237 Z" stroke-width="0" fill="#312d1b" fill-opacity="0.9411764705882353" />
<path d="M111,-157 L78,-207 L88,-74 L173,-34 L41,-266 L231,-217 Z" stroke-width="0" fill="#534f32" fill-opacity="0.6862745098039216" />
<path d="M42,-98 L78,-77 L214,-294 L203,-115 L164,-173 L157,-207 Z" stroke-width="0" fill="#3a3735" fill-opacity="0.7529411764705882" />
<path d="M74,-206 L72,-320 L186,-53 L124,-192 L138,-28 L101,-294 Z" stroke-width="0" fill="#434a3b" fill-opacity="0.5882352941176471" />
<path d="M246,-117 L52,-238 L36,-39 L47,-128 L32,-212 L167,-104 Z" stroke-width="0" fill="#4d373b" fill-opacity="0.8274509803921568" />
<path d="M115,-55 L214,-146 L113,-112 L199,-144 L33,-181 L160,-97 Z" stroke-width="0" fill="#031d79" fill-opacity="0.7333333333333333" />
<path d="M218,-214 L142,-208 L64,-109 L227,-217 L176,-200 L168,-224 Z" stroke-width="0" fill="#35fca1" fill-opacity="0.9725490196078431" />
<path d="M230,-69 L129,-65 L90,-57 L144,-38 L169,-196 L224,-240 Z" stroke-width="0" fill="#5a4d31" fill-opacity="0.6431372549019608" />
<path d="M207,-63 L221,-184 L171,-222 L122,-69 L137,-136 L194,-30 Z" stroke-width="0" fill="#602a35" fill-opacity="0.5647058823529412" />
<path d="M76,-139 L26,-166 L31,-153 L62,-241 L144,-120 L61,-141 Z" stroke-width="0" fill="#120d0c" fill-opacity="0.8352941176470589" />
<path d="M203,-63 L237,-141 L218,-92 L124,-320 L116,-146 L34,-48 Z" stroke-width="0" fill="#393b31" fill-opacity="0.7333333333333333" />
<path d="M40,-165 L189,-174 L27,-159 L240,-175 L66,-157 L174,-40 Z" stroke-width="0" fill="#c73834" fill-opacity="0.47843137254901963" />
<path d="M62,-127 L118,-164 L107,-97 L228,-264 L231,-193 L57,-273 Z" stroke-width="0" fill="#0b0d74" fill-opacity="0.3215686274509804" />
<path d="M235,-260 L166,-143 L55,-314 L78,-295 L219,-41 L197,-81 Z" stroke-width="0" fill="#373b35" fill-opacity="0.9058823529411765" />
<path d="M122,-95 L104,-68 L112,-59 L154,-186 L76,-219 L133,-199 Z" stroke-width="0" fill="#e8b48d" fill-opacity="0.6745098039215687" />
<path d="M96,-161 L60,-59 L111,-217 L30,-157 L94,-56 L131,-44 Z" stroke-width="0" fill="#695953" fill-opacity="0.3843137254901961" />
<path d="M151,-92 L51,-34 L189,-114 L211,-176 L247,-128 L232,-250 Z" stroke-width="0" fill="#171f06" fill-opacity="0.8352941176470589" />
<path d="M64,-81 L238,-102 L240,-239 L246,-265 L178,-277 L128,-162 Z" stroke-width="0" fill="#574843" fill-opacity="0.9764705882352941" />
<path d="M148,-33 L195,-33 L117,-141 L101,-59 L132,-221 L58,-79 Z" stroke-width="0" fill="#333530" fill-opacity="0.7764705882352941" />
<path d="M30,-141 L26,-79 L50,-319 L135,-57 L56,-234 L176,-134 Z" stroke-width="0" fill="#37382a" fill-opacity="0.9137254901960784" />
<path d="M43,-148 L195,-282 L169,-288 L95,-247 L150,-77 L130,-213 Z" stroke-width="0" fill="#8c4735" fill-opacity="0.2823529411764706" />
<path d="M50,-211 L124,-26 L158,-138 L98,-281 L130,-293 L56,-91 Z" stroke-width="0" fill="#334c43" fill-opacity="0.16470588235294117" />
<path d="M43,-195 L73,-267 L75,-73 L122,-65 L34,-148 L147,-40 Z" stroke-width="0" fill="#46890f" fill-opacity="0.28627450980392155" />
<path d="M171,-215 L51,-199 L121,-202 L178,-238 L194,-155 L108,-103 Z" stroke-width="0" fill="#f6f9e0" fill-opacity="0.9647058823529412" />
<path d="M85,-192 L39,-235 L105,-258 L103,-202 L199,-152 L62,-217 Z" stroke-width="0" fill="#46382e" fill-opacity="0.9333333333333333" />
<path d="M102,-87 L120,-68 L192,-177 L208,-287 L207,-174 L32,-79 Z" stroke-width="0" fill="#18381f" fill-opacity="0.5843137254901961" />
<path d="M136,-236 L86,-324 L140,-254 L117,-104 L39,-81 L171,-129 Z" stroke-width="0" fill="#2d2f24" fill-opacity="0.9254901960784314" />
<path d="M153,-31 L34,-210 L157,-190 L148,-32 L55,-210 L99,-25 Z" stroke-width="0" fill="#2a2f29" fill-opacity="0.9450980392156862" />
<path d="M50,-60 L94,-291 L32,-205 L40,-76 L58,-227 L107,-198 Z" stroke-width="0" fill="#3b3732" fill-opacity="0.9725490196078431" />
<path d="M59,-249 L118,-135 L31,-148 L154,-192 L151,-324 L140,-265 Z" stroke-width="0" fill="#40332b" fill-opacity="0.8666666666666667" />
<path d="M224,-219 L179,-158 L92,-171 L53,-80 L181,-207 L206,-170 Z" stroke-width="0" fill="#21412e" fill-opacity="0.043137254901960784" />
<path d="M214,-249 L132,-82 L211,-255 L168,-195 L179,-72 L201,-86 Z" stroke-width="0" fill="#272a0b" fill-opacity="0.12156862745098039" />
<path d="M74,-278 L164,-273 L177,-32 L205,-127 L84,-148 L109,-189 Z" stroke-width="0" fill="#3e3b3e" fill-opacity="0.5019607843137255" />
<path d="M90,-220 L191,-174 L221,-145 L124,-240 L92,-37 L204,-220 Z" stroke-width="0" fill="#b98077" fill-opacity="0.3137254901960784" />
<path d="M120,-79 L67,-143 L35,-32 L45,-278 L81,-49 L241,-51 Z" stroke-width="0" fill="#1d3940" fill-opacity="0.5490196078431373" />
<path d="M46,-199 L89,-220 L219,-28 L70,-192 L172,-145 L68,-250 Z" stroke-width="0" fill="#373033" fill-opacity="0.9137254901960784" />
<path d="M57,-73 L46,-47 L37,-162 L181,-242 L105,-191 L226,-306 Z" stroke-width="0" fill="#2e2226" fill-opacity="0.2823529411764706" />
<path d="M209,-55 L119,-271 L124,-214 L177,-317 L27,-206 L185,-312 Z" stroke-width="0" fill="#294447" fill-opacity="0.24705882352941178" />
<path d="M203,-95 L43,-84 L177,-65 L56,-245 L40,-73 L130,-141 Z" stroke-width="0" fill="#48483b" fill-opacity="0.47058823529411764" />
<path d="M148,-72 L138,-157 L79,-263 L112,-292 L202,-143 L61,-49 Z" stroke-width="0" fill="#43170c" fill-opacity="0.1607843137254902" />
<path d="M61,-287 L123,-260 L99,-175 L50,-136 L216,-166 L122,-286 Z" stroke-width="0" fill="#371b35" fill-opacity="0.12549019607843137" />
<path d="M248,-69 L185,-212 L53,-115 L153,-245 L110,-158 L84,-237 Z" stroke-width="0" fill="#56492f" fill-opacity="0.08627450980392157" />
<path d="M63,-80 L146,-105 L63,-121 L134,-166 L171,-124 L96,-258 Z" stroke-width="0" fill="#6e7f40" fill-opacity="0.41568627450980394" />
<path d="M66,-191 L173,-115 L29,-154 L121,-101 L132,-161 L107,-151 Z" stroke-width="0" fill="#867f4b" fill-opacity="0.4235294117647059" />
<path d="M29,-143 L127,-211 L197,-162 L202,-133 L58,-277 L69,-59 Z" stroke-width="0" fill="#506543" fill-opacity="0.42745098039215684" />
<path d="M116,-80 L246,-243 L203,-178 L233,-292 L75,-162 L118,-116 Z" stroke-width="0" fill="#480666" fill-opacity="0.0" />
<path d="M221,-322 L144,-86 L62,-79 L142,-119 L173,-272 L84,-59 Z" stroke-width="0" fill="#46291f" fill-opacity="0.19607843137254902" />
<path d="M26,-76 L97,-76 L138,-49 L41,-186 L202,-265 L246,-165 Z" stroke-width="0" fill="#604c6f" fill-opacity="0.1450980392156863" />
<path d="M229,-182 L75,-38 L132,-85 L173,-210 L28,-185 L90,-117 Z" stroke-width="0" fill="#957816" fill-opacity="0.08235294117647059" />
<path d="M136,-242 L174,-269 L171,-122 L79,-135 L63,-72 L30,-198 Z" stroke-width="0" fill="#333b20" fill-opacity="0.25882352941176473" />
<path d="M135,-172 L28,-210 L214,-73 L194,-25 L231,-118 L101,-171 Z" stroke-width="0" fill="#b26779" fill-opacity="0.14901960784313725" />
<path d="M228,-77 L155,-258 L124,-228 L207,-259 L83,-70 L93,-319 Z" stroke-width="0" fill="#42bf58" fill-opacity="0.08627450980392157" />
<path d="M87,-94 L207,-209 L247,-59 L57,-170 L124,-282 L204,-218 Z" stroke-width="0" fill="#3c453c" fill-opacity="0.49019607843137253" />
<path d="M35,-119 L89,-86 L46,-60 L105,-215 L191,-139 L215,-170 Z" stroke-width="0" fill="#5e6526" fill-opacity="0.22745098039215686" />
<path d="M220,-212 L43,-67 L208,-208 L118,-206 L243,-165 L105,-95 Z" stroke-width="0" fill="#0f0871" fill-opacity="0.058823529411764705" />
<path d="M35,-187 L59,-28 L143,-147 L150,-93 L84,-264 L26,-95 Z" stroke-width="0" fill="#250237" fill-opacity="0.32941176470588235" />
<path d="M48,-38 L212,-53 L150,-41 L100,-240 L162,-70 L231,-112 Z" stroke-width="0" fill="#4b3935" fill-opacity="0.8901960784313725" />
<path d="M104,-28 L53,-185 L106,-193 L194,-137 L67,-91 L124,-271 Z" stroke-width="0" fill="#697f0f" fill-opacity="0.09803921568627451" />
<path d="M165,-71 L72,-126 L180,-182 L109,-156 L34,-319 L138,-79 Z" stroke-width="0" fill="#60e7b9" fill-opacity="0.0" />
<path d="M104,-30 L153,-94 L100,-39 L82,-29 L33,-74 L85,-55 Z" stroke-width="0" fill="#1b3335" fill-opacity="0.6431372549019608" />
<text x="137.5" y="12.5" font-size="20.0" fill="black" text-anchor="middle" transform="translate(0,5.0)">EFFECT</text>
</svg>