<?xml version="1.0" encoding="UTF-8"?>
<svg xmlns="http://www.w3.org/2000/svg" xmlns:xlink="http://www.w3.org/1999/xlink"
     width="275" height="375" viewBox="0 -350 275 375">
<defs>
</defs>
<rect x="15" y="-335" width="245" height="320" stroke="black" stroke-width="4" fill="white" />
<path d="M68,-117 L129,-209 L205,-112 L50,-163 L176,-95 L113,-271 Z" stroke-width="0" fill="#e526e4" fill-opacity="0.7137254901960784" />
<path d="M99,-242 L48,-181 L41,-139 L55,-26 L62,-204 L202,-301 Z" stroke-width="0" fill="#000627" fill-opacity="0.984313725490196" />
<path d="M233,-104 L113,-110 L43,-33 L58,-45 L149,-302 L212,-156 Z" stroke-width="0" fill="#e7bec8" fill-opacity="0.25098039215686274" />
<path d="M183,-244 L52,-310 L48,-218 L65,-321 L150,-45 L170,-206 Z" stroke-width="0" fill="#b2caaf" fill-opacity="0.1843137254901961" />
<path d="M74,-225 L237,-72 L138,-273 L165,-288 L211,-222 L145,-320 Z" stroke-width="0" fill="#e9d4ca" fill-opacity="0.058823529411764705" />
<path d="M236,-322 L206,-290 L26,-233 L84,-287 L200,-223 L73,-121 Z" stroke-width="0" fill="#dacecf" fill-opacity="0.08627450980392157" />
<path d="M47,-99 L33,-184 L117,-320 L200,-165 L152,-302 L209,-88 Z" stroke-width="0" fill="#dee4dd" fill-opacity="0.3176470588235294" />
<path d="M201,-235 L74,-109 L112,-36 L66,-207 L118,-40 L226,-109 Z" stroke-width="0" fill="#0a030c" fill-opacity="0.8705882352941177" />
<path d="M175,-105 L69,-91 L211,-287 L95,-272 L103,-131 L161,-284 Z" stroke-width="0" fill="#fce5ed" fill-opacity="0.08235294117647059" />
<path d="M92,-59 L135,-75 L216,-282 L217,-126 L154,-116 L194,-245 Z" stroke-width="0" fill="#cb1800" fill-opacity="0.07450980392156863" />
<path d="M87,-262 L77,-282 L227,-130 L201,-78 L133,-130 L123,-72 Z" stroke-width="0" fill="#9d0b29" fill-opacity="0.1568627450980392" />
<path d="M118,-57 L180,-64 L141,-94 L232,-98 L145,-248 L66,-192 Z" stroke-width="0" fill="#e9e2ea" fill-opacity="0.09019607843137255" />
<path d="M161,-58 L61,-206 L54,-54 L81,-302 L153,-49 L161,-39 Z" stroke-width="0" fill="#e0fe41" fill-opacity="0.5294117647058824" />
<path d="M85,-148 L98,-315 L116,-220 L42,-187 L214,-304 L30,-206 Z" stroke-width="0" fill="#633cb4" fill-opacity="0.5176470588235295" />
<path d="M223,-154 L192,-288 L184,-255 L81,-159 L146,-310 L187,-189 Z" stroke-width="0" fill="#02000a" fill-opacity="0.8980392156862745" />
<path d="M243,-205 L220,-119 L128,-269 L114,-125 L189,-66 L54,-62 Z" stroke-width="0" fill="#000000" fill-opacity="0.8313725490196079" />
<path d="M66,-212 L113,-57 L87,-43 L85,-168 L235,-80 L111,-269 Z" stroke-width="0" fill="#76da40" fill-opacity="0.023529411764705882" />
<path d="M211,-81 L161,-68 L45,-64 L222,-80 L114,-179 L93,-272 Z" stroke-width="0" fill="#272023" fill-opacity="0.9725490196078431" />
<path d="M207,-155 L26,-55 L116,-245 L76,-141 L123,-168 L141,-66 Z" stroke-width="0" fill="#000304" fill-opacity="0.9921568627450981" />
<path d="M185,-25 L220,-45 L39,-39 L146,-132 L142,-113 L80,-137 Z" stroke-width="0" fill="#00000f" fill-opacity="0.7529411764705882" />
<path d="M185,-183 L113,-200 L118,-96 L186,-173 L124,-201 L38,-84 Z" stroke-width="0" fill="#000000" fill-opacity="0.8705882352941177" />
<path d="M169,-245 L121,-222 L166,-233 L139,-26 L92,-226 L241,-91 Z" stroke-width="0" fill="#fef8f7" fill-opacity="0.9647058823529412" />
<path d="M80,-123 L163,-35 L188,-133 L27,-221 L220,-152 L53,-250 Z" stroke-width="0" fill="#0c0008" fill-opacity="0.7725490196078432" />
<path d="M202,-91 L154,-131 L151,-254 L103,-148 L90,-162 L61,-227 Z" stroke-width="0" fill="#e1d2de" fill-opacity="0.8" />
<path d="M120,-35 L100,-120 L193,-154 L164,-288 L229,-205 L59,-153 Z" stroke-width="0" fill="#000000" fill-opacity="0.9607843137254902" />
<path d="M245,-39 L187,-109 L73,-124 L241,-216 L71,-136 L38,-28 Z" stroke-width="0" fill="#000000" fill-opacity="0.7725490196078432" />
<path d="M174,-51 L145,-302 L178,-165 L207,-324 L211,-74 L92,-203 Z" stroke-width="0" fill="#a8ce67" fill-opacity="0.0392156862745098" />
<path d="M86,-282 L201,-93 L128,-97 L102,-313 L132,-207 L29,-250 Z" stroke-width="0" fill="#2c2120" fill-opacity="0.2784313725490196" />
<path d="M64,-58 L181,-37 L244,-182 L52,-49 L120,-194 L62,-134 Z" stroke-width="0" fill="#564347" fill-opacity="0.596078431372549" />
<path d="M133,-159 L53,-182 L181,-129 L138,-282 L201,-98 L222,-129 Z" stroke-width="0" fill="#8add12" fill-opacity="0.09019607843137255" />
<path d="M154,-163 L41,-55 L121,-154 L227,-52 L47,-97 L106,-31 Z" stroke-width="0" fill="#2b100f" fill-opacity="0.18823529411764706" />
<path d="M69,-198 L33,-92 L243,-249 L86,-90 L154,-72 L129,-198 Z" stroke-width="0" fill="#20220d" fill-opacity="0.8235294117647058" />
<path d="M211,-227 L117,-318 L185,-38 L226,-114 L50,-117 L34,-138 Z" stroke-width="0" fill="#171025" fill-opacity="0.03137254901960784" />
<path d="M63,-98 L69,-162 L218,-225 L52,-31 L86,-155 L75,-193 Z" stroke-width="0" fill="#cafdcd" fill-opacity="0.7725490196078432" />
<path d="M88,-40 L38,-35 L150,-312 L162,-238 L183,-47 L143,-117 Z" stroke-width="0" fill="#070200" fill-opacity="0.7450980392156863" />
<path d="M194,-217 L223,-129 L133,-84 L206,-299 L230,-269 L125,-69 Z" stroke-width="0" fill="#edf5fe" fill-opacity="0.5372549019607843" />
<path d="M198,-232 L245,-100 L34,-245 L115,-215 L243,-157 L145,-220 Z" stroke-width="0" fill="#535438" fill-opacity="0.09803921568627451" />
<path d="M115,-201 L118,-50 L29,-155 L82,-43 L35,-94 L168,-159 Z" stroke-width="0" fill="#000004" fill-opacity="0.9882352941176471" />
<path d="M134,-277 L53,-171 L194,-201 L176,-166 L107,-50 L78,-114 Z" stroke-width="0" fill="#00000b" fill-opacity="0.6235294117647059" />
<path d="M46,-139 L59,-27 L175,-277 L150,-80 L126,-274 L177,-126 Z" stroke-width="0" fill="#000d13" fill-opacity="0.9176470588235294" />
<path d="M37,-288 L79,-30 L241,-235 L134,-42 L139,-250 L179,-292 Z" stroke-width="0" fill="#000000" fill-opacity="0.7764705882352941" />
<path d="M108,-262 L106,-90 L244,-191 L119,-151 L74,-68 L63,-213 Z" stroke-width="0" fill="#000000" fill-opacity="0.7803921568627451" />
<path d="M83,-102 L74,-170 L65,-265 L175,-182 L41,-78 L48,-161 Z" stroke-width="0" fill="#000000" fill-opacity="0.8235294117647058" />
<path d="M74,-66 L212,-204 L78,-100 L62,-116 L94,-112 L105,-188 Z" stroke-width="0" fill="#000106" fill-opacity="0.9607843137254902" />
<path d="M202,-182 L133,-303 L148,-93 L40,-193 L85,-61 L53,-72 Z" stroke-width="0" fill="#151c75" fill-opacity="0.4235294117647059" />
<path d="M123,-311 L36,-49 L105,-115 L26,-142 L156,-111 L185,-147 Z" stroke-width="0" fill="#000000" fill-opacity="0.8980392156862745" />
<path d="M94,-89 L205,-151 L237,-291 L99,-43 L33,-96 L216,-106 Z" stroke-width="0" fill="#0a1a0c" fill-opacity="0.0196078431372549" />
<path d="M40,-142 L144,-316 L74,-249 L37,-45 L96,-169 L88,-147 Z" stroke-width="0" fill="#000009" fill-opacity="0.0196078431372549" />
<path d="M94,-47 L194,-129 L74,-126 L98,-159 L113,-252 L174,-59 Z" stroke-width="0" fill="#410846" fill-opacity="0.396078431372549" />
<path d="M97,-182 L184,-52 L169,-311 L193,-253 L245,-45 L32,-48 Z" stroke-width="0" fill="#0d1e00" fill-opacity="0.08235294117647059" />
<path d="M34,-176 L57,-75 L247,-150 L81,-288 L122,-46 L169,-107 Z" stroke-width="0" fill="#0d1b1c" fill-opacity="0.5450980392156862" />
<path d="M30,-225 L66,-292 L188,-117 L180,-243 L52,-108 L135,-114 Z" stroke-width="0" fill="#c1a2af" fill-opacity="0.788235294117647" />
<path d="M51,-175 L226,-123 L185,-99 L247,-79 L110,-214 L186,-289 Z" stroke-width="0" fill="#08123e" fill-opacity="0.043137254901960784" />
<path d="M148,-260 L224,-146 L94,-305 L97,-155 L171,-289 L66,-235 Z" stroke-width="0" fill="#4e173d" fill-opacity="0.1803921568627451" />
<path d="M182,-273 L231,-220 L125,-226 L70,-207 L216,-308 L121,-245 Z" stroke-width="0" fill="#e0cdfc" fill-opacity="0.8823529411764706" />
<path d="M66,-300 L34,-282 L222,-155 L205,-29 L163,-139 L220,-100 Z" stroke-width="0" fill="#a3a8a8" fill-opacity="0.1607843137254902" />
<path d="M60,-298 L165,-209 L129,-57 L32,-66 L245,-59 L52,-238 Z" stroke-width="0" fill="#1c252b" fill-opacity="0.41568627450980394" />
<path d="M78,-36 L41,-164 L198,-154 L246,-272 L39,-278 L146,-33 Z" stroke-width="0" fill="#221409" fill-opacity="0.03529411764705882" />
<path d="M72,-44 L67,-282 L169,-234 L77,-148 L42,-45 L239,-97 Z" stroke-width="0" fill="#070008" fill-opacity="0.16862745098039217" />
<path d="M75,-166 L34,-158 L123,-192 L42,-281 L148,-262 L245,-236 Z" stroke-width="0" fill="#e1f0cc" fill-opacity="0.5529411764705883" />
<path d="M59,-293 L247,-69 L53,-216 L31,-108 L156,-218 L79,-214 Z" stroke-width="0" fill="#144488" fill-opacity="0.23137254901960785" />
<path d="M68,-89 L119,-286 L54,-158 L200,-116 L66,-166 L157,-57 Z" stroke-width="0" fill="#000700" fill-opacity="0.11764705882352941" />
<path d="M115,-250 L194,-207 L155,-44 L184,-66 L84,-270 L210,-135 Z" stroke-width="0" fill="#b3cb27" fill-opacity="0.13725490196078433" />
<path d="M40,-213 L69,-162 L75,-284 L43,-202 L49,-96 L134,-57 Z" stroke-width="0" fill="#072737" fill-opacity="0.027450980392156862" />
<path d="M174,-316 L84,-26 L62,-215 L233,-80 L55,-213 L105,-99 Z" stroke-width="0" fill="#12020d" fill-opacity="0.3176470588235294" />
<path d="M75,-209 L159,-225 L131,-43 L129,-239 L129,-111 L143,-48 Z" stroke-width="0" fill="#8102a5" fill-opacity="0.03137254901960784" />
<path d="M34,-292 L162,-284 L167,-320 L173,-35 L204,-311 L43,-226 Z" stroke-width="0" fill="#f9f8f9" fill-opacity="0.9803921568627451" />
<path d="M203,-111 L146,-73 L158,-150 L146,-41 L237,-260 L206,-263 Z" stroke-width="0" fill="#8b9d97" fill-opacity="0.12156862745098039" />
<path d="M69,-74 L140,-305 L30,-154 L126,-158 L153,-289 L187,-264 Z" stroke-width="0" fill="#d7f3e6" fill-opacity="0.30980392156862746" />
<path d="M212,-39 L138,-74 L239,-274 L116,-103 L151,-201 L86,-36 Z" stroke-width="0" fill="#4c3c82" fill-opacity="0.23529411764705882" />
<path d="M186,-73 L76,-89 L116,-31 L83,-269 L145,-40 L222,-121 Z" stroke-width="0" fill="#612903" fill-opacity="0.09803921568627451" />
<path d="M198,-107 L41,-240 L72,-96 L206,-83 L41,-199 L83,-301 Z" stroke-width="0" fill="#c2ca80" fill-opacity="0.26666666666666666" />
<path d="M63,-310 L26,-78 L119,-49 L182,-313 L25,-317 L33,-320 Z" stroke-width="0" fill="#e281fe" fill-opacity="0.0" />
<path d="M34,-99 L147,-263 L211,-178 L39,-78 L142,-118 L34,-182 Z" stroke-width="0" fill="#000d38" fill-opacity="0.3568627450980392" />
<path d="M78,-127 L146,-146 L196,-264 L45,-181 L136,-30 L216,-196 Z" stroke-width="0" fill="#010117" fill-opacity="0.06666666666666667" />
<path d="M88,-69 L46,-77 L42,-76 L164,-185 L59,-105 L185,-119 Z" stroke-width="0" fill="#1f0700" fill-opacity="0.023529411764705882" />
<path d="M238,-44 L71,-92 L171,-54 L220,-243 L28,-36 L110,-96 Z" stroke-width="0" fill="#1a1a0e" fill-opacity="0.20784313725490197" />
<path d="M176,-77 L108,-202 L119,-92 L241,-80 L49,-322 L164,-295 Z" stroke-width="0" fill="#dfe7e4" fill-opacity="0.43529411764705883" />
<path d="M58,-221 L58,-86 L192,-106 L53,-261 L93,-156 L179,-117 Z" stroke-width="0" fill="#e1c77e" fill-opacity="0.23137254901960785" />
<path d="M36,-278 L169,-320 L97,-234 L82,-137 L201,-93 L83,-164 Z" stroke-width="0" fill="#f9e9f1" fill-opacity="0.5686274509803921" />
<path d="M236,-51 L35,-56 L86,-190 L28,-95 L74,-312 L88,-27 Z" stroke-width="0" fill="#120000" fill-opacity="0.5803921568627451" />
<path d="M160,-243 L62,-273 L134,-148 L67,-239 L30,-287 L50,-300 Z" stroke-width="0" fill="#fafed2" fill-opacity="0.9137254901960784" />
<path d="M101,-281 L198,-130 L229,-161 L194,-317 L58,-275 L195,-222 Z" stroke-width="0" fill="#f4fcc6" fill-opacity="0.10588235294117647" />
<path d="M222,-195 L59,-202 L159,-43 L27,-294 L95,-235 L184,-203 Z" stroke-width="0" fill="#4381de" fill-opacity="0.2" />
<path d="M181,-143 L131,-76 L174,-236 L131,-146 L212,-39 L167,-98 Z" stroke-width="0" fill="#e9f78c" fill-opacity="0.23529411764705882" />
<path d="M75,-301 L241,-42 L140,-141 L97,-43 L119,-313 L58,-81 Z" stroke-width="0" fill="#b1fbee" fill-opacity="0.011764705882352941" />
<path d="M120,-138 L68,-87 L242,-313 L53,-57 L184,-304 L71,-305 Z" stroke-width="0" fill="#ebe8fb" fill-opacity="0.8980392156862745" />
<path d="M35,-47 L47,-310 L173,-250 L200,-261 L210,-258 L58,-75 Z" stroke-width="0" fill="#e3c8d2" fill-opacity="0.1803921568627451" />
<path d="M156,-214 L167,-186 L86,-240 L153,-126 L105,-30 L187,-196 Z" stroke-width="0" fill="#c8ccfd" fill-opacity="0.29411764705882354" />
<path d="M88,-275 L169,-144 L29,-36 L168,-210 L96,-51 L41,-182 Z" stroke-width="0" fill="#0db027" fill-opacity="0.03137254901960784" />
<path d="M154,-298 L140,-200 L65,-82 L90,-322 L193,-273 L45,-130 Z" stroke-width="0" fill="#eac596" fill-opacity="0.043137254901960784" />
<path d="M144,-234 L218,-232 L75,-260 L63,-140 L147,-38 L224,-107 Z" stroke-width="0" fill="#06340f" fill-opacity="0.0784313725490196" />
<path d="M147,-152 L244,-100 L89,-56 L196,-132 L77,-255 L131,-165 Z" stroke-width="0" fill="#5f9b0a" fill-opacity="0.21568627450980393" />
<path d="M68,-41 L183,-195 L51,-255 L108,-98 L155,-91 L124,-173 Z" stroke-width="0" fill="#bb65c5" fill-opacity="0.26666666666666666" />
<path d="M170,-143 L65,-122 L56,-198 L225,-137 L137,-29 L148,-259 Z" stroke-width="0" fill="#67157a" fill-opacity="0.27450980392156865" />
<path d="M208,-215 L40,-209 L26,-131 L183,-41 L82,-45 L205,-199 Z" stroke-width="0" fill="#192f19" fill-opacity="0.5019607843137255" />
<path d="M175,-56 L99,-98 L102,-32 L58,-138 L158,-173 L244,-124 Z" stroke-width="0" fill="#00001e" fill-opacity="0.49019607843137253" />
<path d="M127,-235 L126,-227 L214,-278 L81,-204 L117,-32 L42,-109 Z" stroke-width="0" fill="#001928" fill-opacity="0.2627450980392157" />
<path d="M112,-38 L30,-298 L140,-79 L51,-225 L248,-284 L122,-286 Z" stroke-width="0" fill="#e3ddcd" fill-opacity="0.07450980392156863" />
<path d="M50,-308 L205,-315 L228,-57 L40,-183 L238,-133 L30,-217 Z" stroke-width="0" fill="#e5e2e8" fill-opacity="0.12549019607843137" />
<text x="137.5" y="12.5" font-size="20.0" fill="black" text-anchor="middle" transform="translate(0,5.0)">RELATIONSHIP</text>
</svg>