<?xml version="1.0" encoding="UTF-8"?>
<svg xmlns="http://www.w3.org/2000/svg" xmlns:xlink="http://www.w3.org/1999/xlink"
     width="896" height="1496" viewBox="0 -1400 896 1496" style="font-size:70;font-family:Poor Richard, Times New Roman;stroke:black;stroke-width:1;fill:none">
<defs>
</defs>
<path d="M366,-162 L310,-1046 L134,-946 L262,-1070 L746,-710 L122,-1310 Z" stroke-width="0" fill="#a49e9d" fill-opacity="0.2901960784313726" />
<path d="M682,-170 L94,-998 L522,-394 L110,-158 L618,-170 L290,-1106 Z" stroke-width="0" fill="#85d0b3" fill-opacity="0.4666666666666667" />
<path d="M654,-130 L286,-398 L210,-530 L162,-618 L682,-718 L358,-354 Z" stroke-width="0" fill="#83e7fa" fill-opacity="0.3607843137254902" />
<path d="M202,-654 L246,-922 L778,-618 L82,-822 L594,-1082 L510,-810 Z" stroke-width="0" fill="#8e6eb8" fill-opacity="0.15294117647058825" />
<path d="M150,-1262 L446,-90 L262,-462 L614,-890 L318,-110 L718,-202 Z" stroke-width="0" fill="#2913a8" fill-opacity="0.07058823529411765" />
<path d="M506,-362 L518,-378 L758,-1206 L582,-334 L454,-1114 L274,-990 Z" stroke-width="0" fill="#f6b5bd" fill-opacity="0.09803921568627451" />
<path d="M606,-114 L134,-686 L570,-798 L270,-970 L434,-1030 L534,-446 Z" stroke-width="0" fill="#117863" fill-opacity="0.5019607843137255" />
<path d="M398,-1294 L546,-1006 L654,-154 L650,-850 L218,-1078 L298,-886 Z" stroke-width="0" fill="#272005" fill-opacity="0.10588235294117647" />
<path d="M190,-810 L502,-726 L806,-1258 L266,-514 L714,-406 L750,-802 Z" stroke-width="0" fill="#82a193" fill-opacity="0.10196078431372549" />
<path d="M338,-174 L490,-1002 L330,-1274 L634,-322 L106,-86 L550,-1310 Z" stroke-width="0" fill="#431c3a" fill-opacity="0.6509803921568628" />
<path d="M750,-174 L774,-326 L654,-1262 L614,-546 L102,-986 L686,-1294 Z" stroke-width="0" fill="#8bfeee" fill-opacity="0.2196078431372549" />
<path d="M194,-794 L118,-1082 L414,-82 L406,-814 L386,-942 L210,-754 Z" stroke-width="0" fill="#45789d" fill-opacity="0.6509803921568628" />
<path d="M534,-130 L722,-946 L538,-838 L270,-782 L214,-374 L686,-430 Z" stroke-width="0" fill="#516158" fill-opacity="0.5019607843137255" />
<path d="M614,-562 L286,-490 L454,-298 L690,-486 L446,-1146 L98,-470 Z" stroke-width="0" fill="#fbaedf" fill-opacity="0.5137254901960784" />
<path d="M510,-994 L154,-110 L406,-514 L570,-578 L170,-582 L706,-626 Z" stroke-width="0" fill="#59c04c" fill-opacity="0.3215686274509804" />
<path d="M762,-318 L302,-394 L550,-894 L466,-294 L338,-482 L698,-522 Z" stroke-width="0" fill="#93d3c5" fill-opacity="0.08627450980392157" />
<path d="M94,-978 L494,-770 L686,-238 L370,-218 L226,-1134 L546,-746 Z" stroke-width="0" fill="#a1805a" fill-opacity="0.14901960784313725" />
<path d="M186,-658 L266,-1074 L770,-430 L262,-490 L338,-770 L486,-914 Z" stroke-width="0" fill="#d7f5e7" fill-opacity="0.23529411764705882" />
<path d="M166,-1038 L510,-654 L190,-102 L334,-1190 L522,-214 L506,-178 Z" stroke-width="0" fill="#019518" fill-opacity="0.17254901960784313" />
<path d="M566,-1082 L142,-818 L566,-378 L270,-82 L474,-962 L230,-602 Z" stroke-width="0" fill="#160000" fill-opacity="0.49019607843137253" />
<path d="M150,-426 L650,-974 L366,-194 L606,-466 L290,-274 L82,-1194 Z" stroke-width="0" fill="#2c515e" fill-opacity="0.19215686274509805" />
<path d="M270,-538 L634,-146 L206,-762 L270,-1082 L490,-1130 L246,-522 Z" stroke-width="0" fill="#e03e32" fill-opacity="0.1803921568627451" />
<path d="M398,-666 L318,-1066 L762,-102 L362,-222 L754,-650 L522,-334 Z" stroke-width="0" fill="#535b61" fill-opacity="0.5058823529411764" />
<path d="M426,-90 L530,-1046 L366,-422 L166,-694 L90,-218 L770,-662 Z" stroke-width="0" fill="#98c9c1" fill-opacity="0.7529411764705882" />
<path d="M722,-482 L682,-826 L214,-974 L198,-490 L514,-174 L658,-938 Z" stroke-width="0" fill="#d5b8f0" fill-opacity="0.00784313725490196" />
<path d="M230,-1206 L214,-926 L342,-630 L806,-1202 L718,-590 L594,-586 Z" stroke-width="0" fill="#88fc9f" fill-opacity="0.06666666666666667" />
<path d="M94,-774 L386,-1066 L170,-470 L382,-170 L322,-654 L298,-870 Z" stroke-width="0" fill="#f4f5e3" fill-opacity="0.9137254901960784" />
<path d="M390,-846 L318,-190 L538,-214 L142,-842 L362,-958 L566,-1174 Z" stroke-width="0" fill="#f6e4f4" fill-opacity="0.9294117647058824" />
<path d="M510,-102 L150,-258 L238,-1026 L394,-1126 L190,-654 L202,-418 Z" stroke-width="0" fill="#557fd3" fill-opacity="0.5019607843137255" />
<path d="M658,-122 L570,-166 L454,-762 L298,-870 L266,-102 L222,-1006 Z" stroke-width="0" fill="#83cec6" fill-opacity="0.807843137254902" />
<path d="M558,-1114 L318,-350 L438,-118 L262,-678 L510,-894 L634,-94 Z" stroke-width="0" fill="#537295" fill-opacity="0.4980392156862745" />
<path d="M302,-1090 L458,-490 L526,-790 L518,-126 L102,-434 L286,-1198 Z" stroke-width="0" fill="#0f0943" fill-opacity="0.08627450980392157" />
<path d="M618,-962 L706,-626 L198,-222 L130,-734 L502,-1098 L426,-730 Z" stroke-width="0" fill="#a4f5ab" fill-opacity="0.058823529411764705" />
<path d="M282,-650 L222,-230 L646,-314 L682,-1094 L762,-190 L742,-826 Z" stroke-width="0" fill="#abcefd" fill-opacity="0.07058823529411765" />
<path d="M230,-158 L322,-674 L686,-302 L422,-602 L246,-1158 L218,-534 Z" stroke-width="0" fill="#3b3012" fill-opacity="0.050980392156862744" />
<path d="M746,-1050 L222,-558 L598,-246 L626,-106 L134,-702 L498,-950 Z" stroke-width="0" fill="#9abcb1" fill-opacity="0.4666666666666667" />
<path d="M702,-102 L222,-106 L194,-1166 L190,-954 L642,-446 L146,-162 Z" stroke-width="0" fill="#223d20" fill-opacity="0.5411764705882353" />
<path d="M714,-530 L130,-354 L566,-1030 L790,-182 L210,-742 L534,-1134 Z" stroke-width="0" fill="#308f6d" fill-opacity="0.23529411764705882" />
<path d="M234,-142 L370,-170 L530,-466 L730,-742 L586,-190 L158,-1158 Z" stroke-width="0" fill="#068d1c" fill-opacity="0.09411764705882353" />
<path d="M194,-954 L546,-566 L102,-278 L162,-1294 L86,-306 L318,-706 Z" stroke-width="0" fill="#9f8ab7" fill-opacity="0.6784313725490196" />
<path d="M398,-246 L386,-446 L622,-726 L370,-474 L326,-282 L766,-790 Z" stroke-width="0" fill="#fafefb" fill-opacity="0.9137254901960784" />
<path d="M394,-294 L134,-1262 L342,-854 L770,-1002 L350,-250 L150,-386 Z" stroke-width="0" fill="#d9f596" fill-opacity="0.06666666666666667" />
<path d="M222,-258 L378,-702 L742,-830 L430,-1214 L102,-118 L94,-314 Z" stroke-width="0" fill="#575c29" fill-opacity="0.5490196078431373" />
<path d="M558,-1178 L498,-362 L82,-294 L686,-86 L214,-226 L686,-946 Z" stroke-width="0" fill="#2c476a" fill-opacity="0.25882352941176473" />
<path d="M226,-478 L210,-862 L614,-650 L314,-134 L222,-1122 L158,-462 Z" stroke-width="0" fill="#7ecb51" fill-opacity="0.19607843137254902" />
<path d="M210,-1194 L746,-846 L262,-1254 L102,-490 L758,-258 L478,-526 Z" stroke-width="0" fill="#169375" fill-opacity="0.17254901960784313" />
<path d="M202,-378 L454,-918 L430,-638 L354,-1130 L154,-898 L94,-290 Z" stroke-width="0" fill="#3d9065" fill-opacity="0.3843137254901961" />
<path d="M730,-1290 L230,-1170 L102,-658 L234,-774 L406,-938 L82,-118 Z" stroke-width="0" fill="#dadee5" fill-opacity="0.6" />
<path d="M550,-646 L698,-1002 L406,-286 L682,-386 L170,-590 L506,-118 Z" stroke-width="0" fill="#002678" fill-opacity="0.30980392156862746" />
<path d="M410,-818 L514,-786 L582,-1062 L142,-718 L110,-282 L714,-794 Z" stroke-width="0" fill="#2a4393" fill-opacity="0.5215686274509804" />
<path d="M610,-582 L566,-1242 L170,-162 L554,-1006 L366,-786 L618,-230 Z" stroke-width="0" fill="#acf4de" fill-opacity="0.050980392156862744" />
<path d="M166,-1114 L270,-462 L570,-334 L126,-982 L798,-746 L706,-1254 Z" stroke-width="0" fill="#fbf0ea" fill-opacity="0.8117647058823529" />
<path d="M350,-1046 L178,-766 L478,-738 L382,-774 L106,-850 L290,-794 Z" stroke-width="0" fill="#ecf9d8" fill-opacity="0.8705882352941177" />
<path d="M330,-226 L342,-646 L166,-558 L454,-650 L802,-1106 L190,-270 Z" stroke-width="0" fill="#2acd38" fill-opacity="0.08627450980392157" />
<path d="M238,-814 L366,-214 L778,-630 L690,-590 L82,-458 L374,-878 Z" stroke-width="0" fill="#3fb60d" fill-opacity="0.07450980392156863" />
<path d="M782,-390 L122,-998 L574,-450 L202,-518 L246,-1014 L378,-478 Z" stroke-width="0" fill="#d5faf8" fill-opacity="0.47058823529411764" />
<path d="M186,-974 L266,-302 L326,-998 L162,-906 L490,-570 L666,-122 Z" stroke-width="0" fill="#1c34e7" fill-opacity="0.011764705882352941" />
<path d="M234,-542 L514,-206 L362,-590 L426,-498 L638,-314 L150,-922 Z" stroke-width="0" fill="#f2d2d9" fill-opacity="0.6823529411764706" />
<path d="M538,-1146 L298,-118 L538,-454 L86,-974 L302,-1178 L286,-958 Z" stroke-width="0" fill="#e5f0ea" fill-opacity="0.3215686274509804" />
<path d="M386,-418 L618,-1210 L146,-654 L434,-538 L242,-962 L366,-310 Z" stroke-width="0" fill="#e6eafc" fill-opacity="0.9294117647058824" />
<path d="M598,-518 L378,-1002 L698,-82 L326,-262 L454,-1006 L238,-602 Z" stroke-width="0" fill="#8d8e75" fill-opacity="0.5254901960784314" />
<path d="M338,-610 L738,-770 L554,-594 L722,-1058 L486,-678 L210,-750 Z" stroke-width="0" fill="#fcd6f2" fill-opacity="1.0" />
<path d="M202,-490 L586,-934 L458,-1114 L658,-1022 L634,-830 L306,-614 Z" stroke-width="0" fill="#f3f0f2" fill-opacity="0.9019607843137255" />
<path d="M202,-150 L686,-850 L538,-602 L258,-1270 L82,-450 L170,-1066 Z" stroke-width="0" fill="#0aeba9" fill-opacity="0.07058823529411765" />
<path d="M450,-222 L178,-354 L246,-998 L774,-526 L270,-750 L166,-402 Z" stroke-width="0" fill="#fcd25c" fill-opacity="0.0784313725490196" />
<path d="M318,-886 L250,-94 L470,-390 L798,-206 L694,-1038 L250,-394 Z" stroke-width="0" fill="#aa6b72" fill-opacity="0.30980392156862746" />
<path d="M118,-1146 L586,-990 L218,-574 L594,-186 L358,-870 L810,-114 Z" stroke-width="0" fill="#bffef4" fill-opacity="0.023529411764705882" />
<path d="M122,-770 L178,-102 L282,-306 L98,-846 L142,-546 L390,-838 Z" stroke-width="0" fill="#698326" fill-opacity="0.10196078431372549" />
<path d="M510,-230 L98,-1162 L678,-310 L454,-126 L222,-234 L262,-910 Z" stroke-width="0" fill="#a7ca84" fill-opacity="0.5019607843137255" />
<path d="M614,-1070 L278,-1070 L586,-874 L318,-754 L806,-1062 L382,-738 Z" stroke-width="0" fill="#59f399" fill-opacity="0.03137254901960784" />
<path d="M166,-1110 L370,-1310 L310,-486 L458,-1090 L470,-278 L166,-1150 Z" stroke-width="0" fill="#ede2ef" fill-opacity="0.6313725490196078" />
<path d="M222,-654 L446,-598 L566,-758 L542,-570 L350,-1122 L138,-338 Z" stroke-width="0" fill="#eec0b8" fill-opacity="0.10196078431372549" />
<path d="M710,-434 L610,-246 L378,-462 L290,-602 L118,-738 L714,-982 Z" stroke-width="0" fill="#f7eeef" fill-opacity="0.8549019607843137" />
<path d="M738,-742 L470,-922 L786,-610 L146,-394 L702,-418 L298,-318 Z" stroke-width="0" fill="#88cff9" fill-opacity="0.10588235294117647" />
<path d="M282,-390 L334,-478 L434,-226 L138,-506 L134,-614 L750,-894 Z" stroke-width="0" fill="#7ad7d6" fill-opacity="0.23921568627450981" />
<path d="M422,-226 L490,-894 L394,-666 L150,-270 L382,-126 L654,-622 Z" stroke-width="0" fill="#807d87" fill-opacity="0.5568627450980392" />
<path d="M522,-654 L774,-466 L258,-598 L82,-878 L690,-314 L606,-190 Z" stroke-width="0" fill="#b7b9cd" fill-opacity="0.41568627450980394" />
<path d="M354,-658 L274,-874 L622,-834 L506,-766 L374,-282 L298,-254 Z" stroke-width="0" fill="#b3d49e" fill-opacity="0.16470588235294117" />
<path d="M510,-238 L590,-494 L138,-462 L234,-434 L410,-474 L190,-602 Z" stroke-width="0" fill="#430f5c" fill-opacity="0.17647058823529413" />
<path d="M462,-906 L514,-590 L654,-386 L426,-546 L494,-926 L542,-522 Z" stroke-width="0" fill="#7f5aed" fill-opacity="0.16862745098039217" />
<path d="M806,-562 L734,-698 L554,-666 L186,-770 L774,-346 L310,-938 Z" stroke-width="0" fill="#d8aa9d" fill-opacity="0.1411764705882353" />
<path d="M382,-926 L686,-790 L170,-226 L602,-718 L590,-446 L374,-858 Z" stroke-width="0" fill="#d6fece" fill-opacity="0.08235294117647059" />
<path d="M174,-98 L590,-554 L322,-918 L266,-658 L642,-770 L306,-970 Z" stroke-width="0" fill="#d8d9f4" fill-opacity="0.3058823529411765" />
<path d="M594,-230 L426,-754 L266,-202 L426,-1150 L126,-290 L126,-1210 Z" stroke-width="0" fill="#e5eddf" fill-opacity="0.5529411764705883" />
<path d="M602,-550 L282,-106 L274,-290 L274,-206 L746,-190 L498,-194 Z" stroke-width="0" fill="#9da8a8" fill-opacity="0.5843137254901961" />
<path d="M270,-1014 L106,-510 L634,-98 L234,-470 L190,-1070 L214,-978 Z" stroke-width="0" fill="#bf9bd0" fill-opacity="0.28627450980392155" />
<path d="M534,-1218 L402,-482 L338,-1238 L470,-1306 L98,-534 L382,-1194 Z" stroke-width="0" fill="#e9f5f9" fill-opacity="0.592156862745098" />
<path d="M310,-290 L518,-966 L182,-258 L106,-202 L382,-1242 L250,-302 Z" stroke-width="0" fill="#8fc1aa" fill-opacity="0.12549019607843137" />
<path d="M370,-1222 L302,-790 L330,-1134 L210,-662 L566,-682 L398,-582 Z" stroke-width="0" fill="#f9c6fc" fill-opacity="0.11372549019607843" />
<path d="M690,-1038 L378,-554 L94,-802 L394,-90 L562,-1090 L230,-958 Z" stroke-width="0" fill="#d7caeb" fill-opacity="0.13725490196078433" />
<path d="M542,-506 L650,-786 L98,-646 L802,-918 L294,-414 L686,-130 Z" stroke-width="0" fill="#acbbd4" fill-opacity="0.12941176470588237" />
<path d="M318,-170 L426,-218 L458,-570 L234,-202 L494,-282 L726,-682 Z" stroke-width="0" fill="#0a7664" fill-opacity="0.07450980392156863" />
<path d="M370,-606 L326,-1054 L270,-666 L478,-326 L254,-258 L290,-250 Z" stroke-width="0" fill="#f8feec" fill-opacity="0.1450980392156863" />
<path d="M318,-806 L446,-234 L734,-170 L786,-1146 L634,-1094 L474,-734 Z" stroke-width="0" fill="#cbddce" fill-opacity="0.5568627450980392" />
<path d="M730,-1090 L518,-550 L678,-770 L730,-1306 L682,-166 L726,-690 Z" stroke-width="0" fill="#e9d0f7" fill-opacity="0.043137254901960784" />
<path d="M182,-890 L518,-230 L550,-1098 L138,-670 L230,-730 L726,-146 Z" stroke-width="0" fill="#dfc0d5" fill-opacity="0.058823529411764705" />
<path d="M782,-1198 L162,-414 L94,-614 L610,-346 L82,-894 L562,-210 Z" stroke-width="0" fill="#d3f1df" fill-opacity="0.12941176470588237" />
<path d="M294,-514 L794,-778 L142,-990 L494,-290 L226,-602 L426,-122 Z" stroke-width="0" fill="#bcdff0" fill-opacity="0.5529411764705883" />
<path d="M234,-146 L650,-926 L446,-1270 L226,-346 L114,-318 L470,-910 Z" stroke-width="0" fill="#fdfdc6" fill-opacity="0.3803921568627451" />
<path d="M318,-1306 L674,-682 L650,-202 L754,-794 L402,-670 L134,-946 Z" stroke-width="0" fill="#dcebec" fill-opacity="0.03137254901960784" />
<text x="448.0" y="0" font-size="70.0" fill="black" text-anchor="middle" transform="translate(0,17.5)">RELATIONSHIP</text>
</svg>