<?xml version="1.0" encoding="UTF-8"?>
<svg xmlns="http://www.w3.org/2000/svg" xmlns:xlink="http://www.w3.org/1999/xlink"
     width="275" height="375" viewBox="0 -350 275 375">
<defs>
</defs>
<rect x="15" y="-335" width="245" height="320" stroke="black" stroke-width="4" fill="white" />
<path d="M242,-150 L151,-101 L103,-229 L44,-267 L173,-46 L48,-43 Z" stroke-width="0" fill="#eae5b8" fill-opacity="0.08627450980392157" />
<path d="M168,-25 L36,-239 L88,-223 L204,-175 L149,-283 L78,-104 Z" stroke-width="0" fill="#000000" fill-opacity="0.5607843137254902" />
<path d="M232,-228 L215,-68 L128,-106 L231,-122 L188,-121 L63,-89 Z" stroke-width="0" fill="#224667" fill-opacity="0.11764705882352941" />
<path d="M168,-124 L239,-97 L116,-225 L190,-273 L154,-164 L25,-59 Z" stroke-width="0" fill="#04000c" fill-opacity="0.8745098039215686" />
<path d="M171,-260 L125,-79 L55,-321 L35,-175 L70,-152 L230,-267 Z" stroke-width="0" fill="#2d0052" fill-opacity="0.8627450980392157" />
<path d="M133,-291 L58,-116 L67,-257 L83,-59 L86,-139 L119,-210 Z" stroke-width="0" fill="#d1182f" fill-opacity="0.3686274509803922" />
<path d="M134,-180 L41,-228 L176,-221 L222,-312 L63,-300 L151,-171 Z" stroke-width="0" fill="#190000" fill-opacity="0.5019607843137255" />
<path d="M225,-267 L226,-268 L138,-139 L48,-56 L70,-129 L116,-113 Z" stroke-width="0" fill="#000104" fill-opacity="0.9490196078431372" />
<path d="M99,-79 L84,-52 L48,-107 L39,-249 L79,-263 L207,-156 Z" stroke-width="0" fill="#ebeab1" fill-opacity="0.5803921568627451" />
<path d="M65,-119 L68,-50 L193,-30 L155,-32 L29,-45 L243,-127 Z" stroke-width="0" fill="#1f2021" fill-opacity="0.792156862745098" />
<path d="M77,-158 L133,-82 L56,-159 L35,-274 L78,-235 L151,-267 Z" stroke-width="0" fill="#f4fbd4" fill-opacity="0.9372549019607843" />
<path d="M121,-73 L51,-230 L136,-234 L98,-149 L114,-104 L182,-231 Z" stroke-width="0" fill="#45205f" fill-opacity="0.4" />
<path d="M158,-75 L80,-157 L180,-209 L42,-233 L150,-168 L206,-290 Z" stroke-width="0" fill="#44ea60" fill-opacity="0.25098039215686274" />
<path d="M185,-229 L195,-226 L193,-219 L37,-200 L138,-105 L225,-278 Z" stroke-width="0" fill="#48646f" fill-opacity="0.8745098039215686" />
<path d="M62,-48 L137,-295 L75,-238 L87,-91 L146,-63 L131,-99 Z" stroke-width="0" fill="#b9c08b" fill-opacity="0.9019607843137255" />
<path d="M132,-44 L90,-56 L65,-238 L27,-104 L33,-93 L118,-189 Z" stroke-width="0" fill="#272927" fill-opacity="0.9725490196078431" />
<path d="M146,-35 L106,-270 L173,-296 L199,-68 L156,-227 L62,-222 Z" stroke-width="0" fill="#3b87c0" fill-opacity="0.011764705882352941" />
<path d="M152,-120 L142,-291 L31,-151 L39,-179 L135,-38 L229,-289 Z" stroke-width="0" fill="#023b03" fill-opacity="0.7686274509803922" />
<path d="M174,-46 L66,-32 L47,-256 L65,-38 L102,-323 L42,-101 Z" stroke-width="0" fill="#1d2938" fill-opacity="0.9529411764705882" />
<path d="M97,-300 L55,-256 L47,-81 L73,-126 L178,-62 L199,-196 Z" stroke-width="0" fill="#2ba4bd" fill-opacity="0.34901960784313724" />
<path d="M157,-120 L122,-286 L108,-171 L46,-74 L222,-213 L63,-236 Z" stroke-width="0" fill="#fdf7da" fill-opacity="0.8509803921568627" />
<path d="M213,-119 L149,-68 L119,-169 L102,-94 L97,-264 L70,-84 Z" stroke-width="0" fill="#cc8aa4" fill-opacity="0.7137254901960784" />
<path d="M174,-236 L94,-183 L183,-309 L68,-225 L219,-203 L68,-64 Z" stroke-width="0" fill="#92bb2a" fill-opacity="0.03529411764705882" />
<path d="M124,-287 L125,-277 L35,-265 L192,-178 L39,-212 L236,-256 Z" stroke-width="0" fill="#f9f3ee" fill-opacity="0.9333333333333333" />
<path d="M247,-299 L156,-178 L143,-131 L144,-36 L222,-245 L105,-81 Z" stroke-width="0" fill="#070504" fill-opacity="0.6588235294117647" />
<path d="M59,-183 L139,-70 L147,-201 L226,-103 L159,-27 L200,-112 Z" stroke-width="0" fill="#00040f" fill-opacity="0.7764705882352941" />
<path d="M186,-262 L154,-95 L139,-91 L32,-183 L58,-226 L189,-177 Z" stroke-width="0" fill="#b1c419" fill-opacity="0.8392156862745098" />
<path d="M191,-65 L244,-252 L31,-55 L184,-282 L39,-206 L52,-263 Z" stroke-width="0" fill="#000000" fill-opacity="0.6745098039215687" />
<path d="M67,-318 L141,-127 L94,-40 L27,-184 L128,-298 L119,-124 Z" stroke-width="0" fill="#26341f" fill-opacity="0.9529411764705882" />
<path d="M95,-277 L106,-283 L38,-286 L73,-290 L183,-178 L112,-287 Z" stroke-width="0" fill="#892452" fill-opacity="0.19215686274509805" />
<path d="M124,-43 L40,-186 L86,-90 L186,-271 L54,-227 L242,-208 Z" stroke-width="0" fill="#00305f" fill-opacity="0.7803921568627451" />
<path d="M228,-94 L70,-73 L140,-135 L40,-148 L121,-53 L244,-243 Z" stroke-width="0" fill="#8d4513" fill-opacity="0.4823529411764706" />
<path d="M46,-83 L113,-186 L33,-67 L57,-103 L210,-50 L214,-27 Z" stroke-width="0" fill="#0b1b2e" fill-opacity="0.7764705882352941" />
<path d="M43,-161 L194,-95 L90,-86 L87,-193 L91,-30 L51,-121 Z" stroke-width="0" fill="#0f086b" fill-opacity="0.9686274509803922" />
<path d="M160,-195 L231,-320 L46,-276 L89,-167 L31,-268 L45,-59 Z" stroke-width="0" fill="#000008" fill-opacity="0.7450980392156863" />
<path d="M106,-39 L55,-73 L59,-250 L159,-307 L209,-156 L234,-46 Z" stroke-width="0" fill="#948297" fill-opacity="0.6901960784313725" />
<path d="M245,-309 L32,-149 L59,-75 L187,-233 L33,-296 L137,-228 Z" stroke-width="0" fill="#501009" fill-opacity="0.6980392156862745" />
<path d="M245,-86 L100,-80 L183,-234 L78,-291 L53,-61 L132,-309 Z" stroke-width="0" fill="#a4d4e6" fill-opacity="0.8470588235294118" />
<path d="M110,-183 L229,-111 L155,-61 L197,-134 L174,-59 L79,-220 Z" stroke-width="0" fill="#f4fad9" fill-opacity="0.8509803921568627" />
<path d="M63,-87 L236,-165 L130,-184 L45,-167 L203,-232 L69,-175 Z" stroke-width="0" fill="#e7c6f0" fill-opacity="0.9764705882352941" />
<path d="M108,-37 L78,-114 L109,-108 L195,-58 L158,-95 L62,-38 Z" stroke-width="0" fill="#946ec5" fill-opacity="0.4549019607843137" />
<path d="M79,-296 L117,-114 L244,-319 L105,-186 L112,-156 L121,-141 Z" stroke-width="0" fill="#000031" fill-opacity="0.8392156862745098" />
<path d="M213,-273 L73,-217 L180,-201 L242,-107 L30,-124 L140,-66 Z" stroke-width="0" fill="#588459" fill-opacity="0.5058823529411764" />
<path d="M110,-212 L206,-111 L189,-67 L247,-200 L51,-101 L101,-142 Z" stroke-width="0" fill="#000f2e" fill-opacity="0.5529411764705883" />
<path d="M121,-86 L116,-270 L37,-76 L60,-167 L58,-98 L186,-112 Z" stroke-width="0" fill="#011300" fill-opacity="0.9450980392156862" />
<path d="M27,-122 L243,-311 L177,-298 L54,-160 L132,-115 L130,-58 Z" stroke-width="0" fill="#121a01" fill-opacity="0.7568627450980392" />
<path d="M200,-145 L95,-135 L136,-295 L44,-244 L145,-223 L233,-83 Z" stroke-width="0" fill="#bbfde1" fill-opacity="0.8392156862745098" />
<path d="M55,-117 L86,-160 L196,-125 L89,-260 L82,-43 L139,-154 Z" stroke-width="0" fill="#bda011" fill-opacity="0.054901960784313725" />
<path d="M170,-59 L107,-311 L110,-157 L144,-242 L128,-150 L132,-124 Z" stroke-width="0" fill="#f9dcd1" fill-opacity="0.9411764705882353" />
<path d="M108,-167 L83,-144 L80,-181 L107,-239 L108,-38 L43,-52 Z" stroke-width="0" fill="#3c5938" fill-opacity="0.41568627450980394" />
<path d="M75,-33 L104,-143 L97,-280 L240,-298 L174,-293 L79,-68 Z" stroke-width="0" fill="#2b1e2d" fill-opacity="0.6274509803921569" />
<path d="M246,-229 L213,-219 L162,-292 L196,-116 L184,-86 L129,-56 Z" stroke-width="0" fill="#1f334f" fill-opacity="0.49019607843137253" />
<path d="M217,-189 L58,-58 L53,-313 L65,-293 L113,-26 L148,-202 Z" stroke-width="0" fill="#4f5544" fill-opacity="0.984313725490196" />
<path d="M122,-305 L183,-195 L113,-107 L156,-238 L79,-166 L154,-271 Z" stroke-width="0" fill="#c3e1f1" fill-opacity="0.9372549019607843" />
<path d="M118,-212 L163,-104 L169,-243 L79,-92 L47,-99 L37,-56 Z" stroke-width="0" fill="#1c3800" fill-opacity="0.8588235294117647" />
<path d="M33,-194 L29,-307 L151,-321 L204,-71 L229,-284 L75,-29 Z" stroke-width="0" fill="#150f00" fill-opacity="0.8745098039215686" />
<path d="M66,-44 L209,-84 L165,-25 L34,-236 L70,-103 L168,-85 Z" stroke-width="0" fill="#4a5556" fill-opacity="0.8980392156862745" />
<path d="M111,-242 L114,-222 L243,-34 L155,-130 L175,-233 L166,-125 Z" stroke-width="0" fill="#64636c" fill-opacity="0.9294117647058824" />
<path d="M94,-49 L165,-76 L39,-254 L191,-94 L45,-123 L153,-42 Z" stroke-width="0" fill="#25d55f" fill-opacity="0.2901960784313726" />
<path d="M199,-155 L131,-48 L153,-213 L73,-48 L159,-114 L243,-89 Z" stroke-width="0" fill="#2de2d6" fill-opacity="0.24313725490196078" />
<path d="M239,-29 L110,-89 L249,-253 L26,-119 L36,-263 L63,-143 Z" stroke-width="0" fill="#3e4237" fill-opacity="0.8823529411764706" />
<path d="M152,-209 L161,-248 L39,-180 L104,-272 L190,-233 L106,-62 Z" stroke-width="0" fill="#73a19f" fill-opacity="0.6274509803921569" />
<path d="M84,-292 L82,-318 L70,-168 L61,-94 L166,-257 L103,-155 Z" stroke-width="0" fill="#182126" fill-opacity="0.8588235294117647" />
<path d="M148,-122 L121,-198 L243,-150 L37,-66 L41,-216 L240,-276 Z" stroke-width="0" fill="#5f5374" fill-opacity="0.5882352941176471" />
<path d="M198,-241 L207,-75 L37,-209 L51,-84 L113,-72 L165,-213 Z" stroke-width="0" fill="#bacdbc" fill-opacity="0.36470588235294116" />
<path d="M95,-222 L66,-298 L140,-95 L130,-101 L114,-239 L160,-83 Z" stroke-width="0" fill="#3d4fa2" fill-opacity="0.01568627450980392" />
<path d="M185,-29 L69,-159 L59,-129 L145,-185 L158,-160 L65,-235 Z" stroke-width="0" fill="#5f665c" fill-opacity="0.996078431372549" />
<path d="M111,-64 L103,-310 L37,-255 L237,-127 L82,-287 L56,-42 Z" stroke-width="0" fill="#11051a" fill-opacity="0.403921568627451" />
<path d="M212,-54 L121,-48 L73,-125 L131,-52 L218,-206 L71,-44 Z" stroke-width="0" fill="#6a0079" fill-opacity="0.2196078431372549" />
<path d="M100,-124 L172,-85 L117,-77 L72,-285 L209,-166 L97,-125 Z" stroke-width="0" fill="#136b98" fill-opacity="0.13333333333333333" />
<path d="M107,-198 L40,-76 L200,-98 L104,-62 L199,-261 L220,-45 Z" stroke-width="0" fill="#657571" fill-opacity="0.4470588235294118" />
<path d="M194,-190 L84,-48 L173,-196 L99,-318 L45,-96 L178,-127 Z" stroke-width="0" fill="#377685" fill-opacity="0.0392156862745098" />
<path d="M82,-102 L26,-141 L48,-127 L66,-255 L70,-275 L128,-89 Z" stroke-width="0" fill="#d0c75a" fill-opacity="0.25098039215686274" />
<path d="M192,-120 L126,-84 L29,-174 L246,-123 L74,-176 L222,-138 Z" stroke-width="0" fill="#dde5fe" fill-opacity="0.6627450980392157" />
<path d="M124,-136 L200,-136 L123,-161 L70,-170 L116,-187 L236,-251 Z" stroke-width="0" fill="#a8e1d1" fill-opacity="1.0" />
<path d="M63,-34 L189,-318 L212,-101 L56,-50 L178,-205 L56,-203 Z" stroke-width="0" fill="#676fbf" fill-opacity="0.1411764705882353" />
<path d="M60,-35 L46,-110 L89,-27 L71,-231 L48,-145 L101,-117 Z" stroke-width="0" fill="#4b4344" fill-opacity="0.5764705882352941" />
<path d="M242,-189 L138,-279 L123,-69 L152,-169 L190,-176 L114,-147 Z" stroke-width="0" fill="#69649b" fill-opacity="0.30980392156862746" />
<path d="M86,-86 L170,-318 L84,-82 L99,-234 L235,-174 L107,-172 Z" stroke-width="0" fill="#402f2e" fill-opacity="0.8980392156862745" />
<path d="M193,-282 L200,-257 L80,-163 L129,-70 L178,-147 L215,-124 Z" stroke-width="0" fill="#c7c8e9" fill-opacity="0.6" />
<path d="M88,-312 L36,-102 L117,-243 L185,-159 L121,-131 L119,-293 Z" stroke-width="0" fill="#070c61" fill-opacity="0.5019607843137255" />
<path d="M65,-276 L25,-103 L198,-270 L100,-78 L124,-115 L185,-38 Z" stroke-width="0" fill="#3b2000" fill-opacity="0.12941176470588237" />
<path d="M146,-251 L246,-130 L243,-54 L134,-88 L137,-143 L248,-116 Z" stroke-width="0" fill="#061700" fill-opacity="0.5764705882352941" />
<path d="M229,-267 L204,-47 L34,-54 L119,-154 L100,-211 L143,-57 Z" stroke-width="0" fill="#6d6b66" fill-opacity="0.7411764705882353" />
<path d="M66,-62 L242,-69 L105,-259 L143,-117 L71,-242 L196,-101 Z" stroke-width="0" fill="#36447e" fill-opacity="0.2980392156862745" />
<path d="M54,-187 L220,-319 L203,-263 L25,-314 L29,-100 L248,-167 Z" stroke-width="0" fill="#27254e" fill-opacity="0.7411764705882353" />
<path d="M229,-255 L139,-138 L109,-175 L241,-116 L107,-39 L215,-60 Z" stroke-width="0" fill="#7e81ae" fill-opacity="0.37254901960784315" />
<path d="M31,-256 L38,-251 L50,-230 L228,-285 L234,-294 L30,-170 Z" stroke-width="0" fill="#233532" fill-opacity="0.4980392156862745" />
<path d="M232,-193 L80,-212 L141,-167 L79,-284 L57,-272 L142,-206 Z" stroke-width="0" fill="#293e59" fill-opacity="0.4392156862745098" />
<path d="M71,-303 L33,-47 L40,-284 L131,-203 L121,-229 L117,-321 Z" stroke-width="0" fill="#342a1c" fill-opacity="0.6549019607843137" />
<path d="M28,-32 L177,-98 L76,-124 L240,-31 L115,-205 L92,-32 Z" stroke-width="0" fill="#6a708b" fill-opacity="0.7137254901960784" />
<path d="M27,-147 L117,-127 L230,-188 L173,-126 L204,-299 L67,-222 Z" stroke-width="0" fill="#566d42" fill-opacity="0.19215686274509805" />
<path d="M125,-148 L232,-67 L238,-112 L174,-283 L105,-56 L152,-30 Z" stroke-width="0" fill="#8c4f66" fill-opacity="0.5019607843137255" />
<path d="M130,-168 L247,-323 L244,-276 L202,-161 L249,-122 L87,-278 Z" stroke-width="0" fill="#261c1e" fill-opacity="0.6627450980392157" />
<path d="M109,-80 L82,-128 L94,-52 L57,-53 L58,-259 L166,-280 Z" stroke-width="0" fill="#5c5a54" fill-opacity="0.396078431372549" />
<path d="M189,-120 L242,-314 L149,-147 L45,-179 L179,-238 L134,-50 Z" stroke-width="0" fill="#c08b69" fill-opacity="0.16470588235294117" />
<path d="M228,-286 L199,-303 L119,-245 L44,-99 L202,-241 L45,-119 Z" stroke-width="0" fill="#45393f" fill-opacity="0.39215686274509803" />
<path d="M171,-106 L123,-177 L220,-209 L100,-227 L190,-181 L220,-228 Z" stroke-width="0" fill="#586179" fill-opacity="0.4235294117647059" />
<path d="M118,-216 L141,-84 L238,-132 L88,-184 L53,-116 L77,-215 Z" stroke-width="0" fill="#82806d" fill-opacity="0.45098039215686275" />
<path d="M231,-116 L32,-246 L55,-240 L237,-253 L103,-36 L201,-80 Z" stroke-width="0" fill="#6a7b72" fill-opacity="0.39215686274509803" />
<text x="137.5" y="12.5" font-size="20.0" fill="black" text-anchor="middle" transform="translate(0,5.0)">STRUGGLE</text>
</svg>