<?xml version="1.0" encoding="UTF-8"?>
<svg xmlns="http://www.w3.org/2000/svg" xmlns:xlink="http://www.w3.org/1999/xlink"
     width="896" height="1496" viewBox="0 -1400 896 1496" style="font-size:70;font-family:Poor Richard, Times New Roman;stroke:black;stroke-width:1;fill:none">
<defs>
</defs>
<path d="M442,-710 L398,-150 L606,-1082 L502,-682 L382,-422 L162,-1170 Z" stroke-width="0" fill="#9d6100" fill-opacity="0.8117647058823529" />
<path d="M122,-946 L754,-922 L582,-546 L514,-982 L494,-754 L454,-514 Z" stroke-width="0" fill="#dec4f2" fill-opacity="0.01568627450980392" />
<path d="M94,-774 L558,-1314 L106,-622 L546,-490 L150,-874 L630,-1110 Z" stroke-width="0" fill="#063c2f" fill-opacity="0.6078431372549019" />
<path d="M758,-1294 L310,-866 L122,-1274 L530,-486 L526,-1242 L138,-610 Z" stroke-width="0" fill="#4f6a5d" fill-opacity="0.28627450980392155" />
<path d="M482,-1114 L550,-1246 L510,-1198 L718,-318 L314,-370 L706,-98 Z" stroke-width="0" fill="#2e4e00" fill-opacity="0.615686274509804" />
<path d="M438,-786 L726,-386 L142,-558 L410,-650 L694,-222 L442,-82 Z" stroke-width="0" fill="#000000" fill-opacity="0.5098039215686274" />
<path d="M358,-494 L94,-478 L494,-94 L146,-1226 L730,-862 L418,-210 Z" stroke-width="0" fill="#140800" fill-opacity="0.7529411764705882" />
<path d="M502,-862 L210,-386 L506,-230 L378,-370 L662,-238 L514,-266 Z" stroke-width="0" fill="#07e9d3" fill-opacity="0.38823529411764707" />
<path d="M382,-674 L798,-1018 L586,-578 L202,-1306 L446,-614 L514,-958 Z" stroke-width="0" fill="#4b5b44" fill-opacity="0.2784313725490196" />
<path d="M514,-490 L658,-838 L706,-1154 L126,-690 L246,-1010 L174,-666 Z" stroke-width="0" fill="#e6c709" fill-opacity="0.054901960784313725" />
<path d="M338,-222 L706,-538 L538,-326 L774,-1202 L674,-598 L702,-850 Z" stroke-width="0" fill="#b34359" fill-opacity="0.01568627450980392" />
<path d="M198,-602 L502,-198 L610,-862 L126,-926 L734,-130 L666,-782 Z" stroke-width="0" fill="#188a39" fill-opacity="0.5725490196078431" />
<path d="M526,-222 L774,-1214 L386,-698 L198,-782 L246,-1142 L274,-1066 Z" stroke-width="0" fill="#610404" fill-opacity="0.06666666666666667" />
<path d="M98,-798 L806,-1042 L282,-918 L554,-1194 L730,-262 L182,-154 Z" stroke-width="0" fill="#ebb2ee" fill-opacity="0.054901960784313725" />
<path d="M490,-1154 L150,-774 L450,-326 L214,-406 L86,-1038 L762,-718 Z" stroke-width="0" fill="#0a001e" fill-opacity="0.5019607843137255" />
<path d="M494,-770 L454,-430 L626,-566 L758,-1030 L786,-338 L286,-1310 Z" stroke-width="0" fill="#000000" fill-opacity="0.7764705882352941" />
<path d="M374,-1078 L538,-758 L270,-1090 L182,-258 L590,-306 L390,-1122 Z" stroke-width="0" fill="#faf9f9" fill-opacity="0.5607843137254902" />
<path d="M778,-126 L90,-550 L622,-706 L778,-906 L270,-958 L494,-1002 Z" stroke-width="0" fill="#8fcb98" fill-opacity="0.9411764705882353" />
<path d="M322,-346 L466,-586 L522,-1062 L646,-262 L410,-806 L562,-854 Z" stroke-width="0" fill="#07001a" fill-opacity="0.8980392156862745" />
<path d="M134,-1110 L438,-350 L454,-446 L522,-382 L174,-622 L538,-1254 Z" stroke-width="0" fill="#c074b0" fill-opacity="0.5686274509803921" />
<path d="M634,-714 L742,-646 L302,-254 L602,-886 L114,-810 L490,-1274 Z" stroke-width="0" fill="#07414d" fill-opacity="0.4627450980392157" />
<path d="M638,-1174 L566,-410 L466,-874 L106,-502 L802,-866 L726,-870 Z" stroke-width="0" fill="#ecfce0" fill-opacity="0.9215686274509803" />
<path d="M602,-1282 L410,-942 L454,-722 L762,-842 L118,-978 L590,-1206 Z" stroke-width="0" fill="#c4cbca" fill-opacity="0.803921568627451" />
<path d="M174,-258 L562,-630 L730,-354 L686,-1274 L162,-950 L546,-810 Z" stroke-width="0" fill="#032615" fill-opacity="0.2" />
<path d="M378,-110 L694,-370 L262,-222 L474,-550 L670,-906 L338,-782 Z" stroke-width="0" fill="#1a1900" fill-opacity="0.8156862745098039" />
<path d="M86,-146 L678,-186 L654,-278 L526,-1102 L790,-662 L82,-650 Z" stroke-width="0" fill="#2f3b25" fill-opacity="0.5019607843137255" />
<path d="M426,-726 L178,-438 L290,-90 L534,-926 L222,-230 L278,-1150 Z" stroke-width="0" fill="#493d40" fill-opacity="0.7607843137254902" />
<path d="M486,-1070 L494,-1206 L386,-182 L346,-954 L398,-386 L374,-706 Z" stroke-width="0" fill="#93b4b3" fill-opacity="0.21568627450980393" />
<path d="M350,-254 L514,-306 L802,-174 L474,-178 L302,-234 L94,-678 Z" stroke-width="0" fill="#98bb8f" fill-opacity="0.6392156862745098" />
<path d="M114,-166 L646,-306 L182,-630 L450,-134 L574,-1062 L258,-1254 Z" stroke-width="0" fill="#9bb6bd" fill-opacity="0.3803921568627451" />
<path d="M118,-714 L662,-1254 L758,-222 L326,-846 L446,-926 L578,-790 Z" stroke-width="0" fill="#030015" fill-opacity="0.0784313725490196" />
<path d="M154,-842 L574,-794 L522,-1046 L738,-426 L266,-1294 L282,-1146 Z" stroke-width="0" fill="#152172" fill-opacity="0.6509803921568628" />
<path d="M666,-638 L150,-262 L366,-946 L606,-1022 L382,-314 L158,-610 Z" stroke-width="0" fill="#edd7ae" fill-opacity="0.5803921568627451" />
<path d="M414,-822 L514,-738 L614,-274 L346,-702 L750,-318 L218,-410 Z" stroke-width="0" fill="#000000" fill-opacity="0.8666666666666667" />
<path d="M434,-1050 L618,-954 L418,-798 L106,-794 L170,-802 L410,-558 Z" stroke-width="0" fill="#8b9779" fill-opacity="0.8431372549019608" />
<path d="M122,-306 L454,-830 L342,-1074 L194,-198 L178,-746 L262,-698 Z" stroke-width="0" fill="#c2a6e9" fill-opacity="0.047058823529411764" />
<path d="M658,-1142 L246,-90 L506,-1042 L182,-886 L402,-330 L250,-614 Z" stroke-width="0" fill="#edc8c0" fill-opacity="0.8274509803921568" />
<path d="M106,-314 L322,-194 L610,-1166 L554,-122 L170,-706 L450,-302 Z" stroke-width="0" fill="#d4effc" fill-opacity="0.5098039215686274" />
<path d="M378,-446 L122,-178 L306,-322 L790,-946 L254,-1274 L446,-934 Z" stroke-width="0" fill="#fddcfe" fill-opacity="0.7372549019607844" />
<path d="M442,-1194 L446,-614 L226,-290 L222,-254 L614,-1158 L378,-670 Z" stroke-width="0" fill="#78c6d5" fill-opacity="0.18823529411764706" />
<path d="M778,-606 L562,-1134 L206,-666 L578,-778 L122,-126 L686,-1122 Z" stroke-width="0" fill="#efd5f8" fill-opacity="0.2823529411764706" />
<path d="M506,-966 L170,-1098 L650,-154 L530,-214 L190,-482 L678,-614 Z" stroke-width="0" fill="#945081" fill-opacity="0.596078431372549" />
<path d="M562,-830 L366,-1066 L134,-382 L378,-446 L470,-962 L594,-590 Z" stroke-width="0" fill="#110714" fill-opacity="0.7725490196078432" />
<path d="M270,-1254 L178,-262 L334,-370 L618,-514 L362,-1222 L422,-214 Z" stroke-width="0" fill="#bda4d6" fill-opacity="0.8784313725490196" />
<path d="M230,-794 L762,-1242 L106,-994 L682,-134 L178,-854 L386,-746 Z" stroke-width="0" fill="#3e3238" fill-opacity="0.23921568627450981" />
<path d="M170,-834 L246,-658 L174,-582 L230,-986 L622,-154 L210,-522 Z" stroke-width="0" fill="#290e23" fill-opacity="0.615686274509804" />
<path d="M610,-838 L318,-594 L306,-1026 L530,-222 L494,-914 L370,-662 Z" stroke-width="0" fill="#07000a" fill-opacity="0.8352941176470589" />
<path d="M378,-1110 L362,-482 L346,-1094 L594,-502 L290,-450 L422,-1306 Z" stroke-width="0" fill="#000c38" fill-opacity="0.6666666666666666" />
<path d="M382,-610 L382,-390 L766,-438 L350,-1026 L478,-702 L590,-1154 Z" stroke-width="0" fill="#100000" fill-opacity="0.3568627450980392" />
<path d="M422,-874 L350,-966 L378,-946 L222,-438 L706,-426 L174,-1274 Z" stroke-width="0" fill="#020043" fill-opacity="0.7647058823529411" />
<path d="M282,-1198 L394,-534 L162,-542 L494,-326 L746,-130 L446,-294 Z" stroke-width="0" fill="#1a0b03" fill-opacity="0.2784313725490196" />
<path d="M350,-1038 L502,-486 L594,-1058 L114,-894 L226,-194 L658,-462 Z" stroke-width="0" fill="#ffe3e8" fill-opacity="0.7568627450980392" />
<path d="M286,-250 L570,-114 L422,-726 L486,-782 L90,-466 L666,-462 Z" stroke-width="0" fill="#3d2100" fill-opacity="0.6823529411764706" />
<path d="M314,-142 L470,-870 L354,-334 L410,-206 L666,-318 L674,-542 Z" stroke-width="0" fill="#000000" fill-opacity="0.792156862745098" />
<path d="M230,-1202 L470,-686 L598,-746 L162,-362 L186,-454 L294,-802 Z" stroke-width="0" fill="#db8cdd" fill-opacity="0.9333333333333333" />
<path d="M326,-1238 L378,-1294 L430,-834 L306,-842 L498,-402 L730,-362 Z" stroke-width="0" fill="#07257c" fill-opacity="0.9058823529411765" />
<path d="M374,-534 L542,-226 L594,-994 L90,-1062 L346,-130 L802,-438 Z" stroke-width="0" fill="#606e59" fill-opacity="0.7019607843137254" />
<path d="M294,-862 L538,-126 L178,-238 L574,-230 L362,-538 L438,-426 Z" stroke-width="0" fill="#164553" fill-opacity="0.10980392156862745" />
<path d="M306,-1198 L450,-634 L222,-510 L674,-282 L558,-1062 L322,-818 Z" stroke-width="0" fill="#000000" fill-opacity="0.9098039215686274" />
<path d="M394,-678 L174,-1158 L650,-426 L358,-1110 L606,-1218 L446,-682 Z" stroke-width="0" fill="#cfe0c6" fill-opacity="0.7137254901960784" />
<path d="M214,-1278 L802,-1150 L238,-86 L286,-790 L718,-1286 L650,-134 Z" stroke-width="0" fill="#2b584a" fill-opacity="0.27450980392156865" />
<path d="M86,-1234 L374,-830 L98,-350 L526,-942 L334,-922 L258,-710 Z" stroke-width="0" fill="#020e00" fill-opacity="0.5019607843137255" />
<path d="M390,-822 L370,-294 L322,-1222 L326,-390 L574,-366 L166,-250 Z" stroke-width="0" fill="#f8d0d7" fill-opacity="0.43137254901960786" />
<path d="M102,-450 L226,-858 L474,-762 L622,-578 L270,-310 L474,-1106 Z" stroke-width="0" fill="#fdf595" fill-opacity="0.3803921568627451" />
<path d="M678,-134 L726,-590 L282,-970 L354,-402 L670,-370 L162,-730 Z" stroke-width="0" fill="#051b00" fill-opacity="0.6666666666666666" />
<path d="M206,-582 L162,-526 L426,-838 L670,-510 L154,-594 L210,-934 Z" stroke-width="0" fill="#00220f" fill-opacity="0.5058823529411764" />
<path d="M350,-114 L294,-1030 L694,-1146 L742,-934 L786,-174 L246,-562 Z" stroke-width="0" fill="#000000" fill-opacity="0.39215686274509803" />
<path d="M178,-902 L150,-906 L278,-462 L158,-130 L682,-826 L382,-1302 Z" stroke-width="0" fill="#c5d0a8" fill-opacity="0.34901960784313724" />
<path d="M426,-1038 L506,-794 L146,-390 L214,-510 L494,-882 L426,-442 Z" stroke-width="0" fill="#420b3a" fill-opacity="0.8156862745098039" />
<path d="M210,-1278 L558,-386 L594,-314 L810,-1186 L590,-838 L786,-870 Z" stroke-width="0" fill="#c99cac" fill-opacity="0.20392156862745098" />
<path d="M98,-762 L198,-278 L242,-82 L230,-394 L722,-998 L206,-1098 Z" stroke-width="0" fill="#afbfbc" fill-opacity="1.0" />
<path d="M534,-846 L178,-966 L314,-290 L186,-742 L174,-662 L86,-106 Z" stroke-width="0" fill="#daddc5" fill-opacity="0.5137254901960784" />
<path d="M222,-662 L214,-490 L318,-774 L130,-798 L490,-366 L542,-110 Z" stroke-width="0" fill="#2a3d3c" fill-opacity="0.19215686274509805" />
<path d="M478,-538 L238,-302 L118,-314 L178,-890 L394,-470 L442,-1298 Z" stroke-width="0" fill="#d6eed5" fill-opacity="0.5529411764705883" />
<path d="M126,-950 L642,-582 L618,-502 L742,-246 L442,-1310 L790,-794 Z" stroke-width="0" fill="#f6e3f6" fill-opacity="0.396078431372549" />
<path d="M782,-206 L658,-1242 L238,-262 L210,-862 L250,-102 L654,-870 Z" stroke-width="0" fill="#f1c990" fill-opacity="0.13333333333333333" />
<path d="M762,-714 L322,-358 L186,-818 L722,-998 L130,-430 L90,-678 Z" stroke-width="0" fill="#485836" fill-opacity="0.30196078431372547" />
<path d="M430,-1050 L410,-378 L90,-170 L566,-426 L322,-650 L810,-258 Z" stroke-width="0" fill="#03000a" fill-opacity="0.8588235294117647" />
<path d="M774,-194 L662,-206 L262,-670 L542,-1266 L738,-470 L534,-506 Z" stroke-width="0" fill="#9b1d23" fill-opacity="0.023529411764705882" />
<path d="M562,-458 L106,-206 L110,-1210 L434,-1250 L350,-798 L438,-1110 Z" stroke-width="0" fill="#675d5a" fill-opacity="0.3568627450980392" />
<path d="M430,-282 L602,-1250 L150,-1162 L238,-818 L386,-158 L250,-266 Z" stroke-width="0" fill="#5b979d" fill-opacity="0.5019607843137255" />
<path d="M522,-134 L654,-646 L702,-950 L178,-874 L242,-434 L426,-1310 Z" stroke-width="0" fill="#c8a999" fill-opacity="0.13333333333333333" />
<path d="M258,-986 L578,-334 L542,-882 L734,-310 L250,-1294 L706,-1262 Z" stroke-width="0" fill="#454f32" fill-opacity="0.39215686274509803" />
<path d="M670,-338 L290,-266 L446,-1062 L290,-114 L694,-570 L198,-186 Z" stroke-width="0" fill="#8b9b7d" fill-opacity="0.09411764705882353" />
<path d="M190,-614 L418,-498 L174,-334 L126,-1198 L410,-898 L154,-154 Z" stroke-width="0" fill="#9dd8e8" fill-opacity="0.08235294117647059" />
<path d="M546,-242 L142,-678 L666,-566 L114,-1302 L506,-1126 L226,-1134 Z" stroke-width="0" fill="#566e22" fill-opacity="0.43529411764705883" />
<path d="M110,-494 L354,-110 L334,-418 L630,-1142 L406,-166 L318,-770 Z" stroke-width="0" fill="#cfbd8a" fill-opacity="0.3215686274509804" />
<path d="M170,-270 L402,-218 L726,-746 L626,-750 L82,-922 L266,-974 Z" stroke-width="0" fill="#d795c8" fill-opacity="0.01568627450980392" />
<path d="M182,-570 L350,-886 L314,-290 L286,-534 L650,-814 L722,-1210 Z" stroke-width="0" fill="#97c9f3" fill-opacity="0.4" />
<path d="M354,-646 L182,-154 L302,-1038 L530,-966 L754,-734 L254,-1178 Z" stroke-width="0" fill="#e3ebe7" fill-opacity="0.06666666666666667" />
<path d="M110,-354 L106,-558 L478,-194 L214,-574 L242,-902 L298,-1130 Z" stroke-width="0" fill="#8281ab" fill-opacity="0.5019607843137255" />
<path d="M350,-962 L550,-362 L706,-442 L230,-502 L150,-1154 L234,-590 Z" stroke-width="0" fill="#061109" fill-opacity="0.403921568627451" />
<path d="M794,-114 L122,-258 L334,-238 L570,-1066 L238,-706 L342,-890 Z" stroke-width="0" fill="#170e00" fill-opacity="0.0196078431372549" />
<path d="M570,-1078 L506,-258 L86,-1066 L382,-822 L486,-1018 L130,-578 Z" stroke-width="0" fill="#f4d434" fill-opacity="0.0392156862745098" />
<path d="M622,-206 L106,-302 L250,-1162 L422,-438 L350,-942 L470,-218 Z" stroke-width="0" fill="#9d9c96" fill-opacity="0.40784313725490196" />
<path d="M634,-438 L106,-1086 L162,-1010 L114,-574 L402,-338 L490,-598 Z" stroke-width="0" fill="#a40524" fill-opacity="0.047058823529411764" />
<path d="M654,-694 L502,-1050 L298,-926 L690,-406 L406,-1018 L454,-258 Z" stroke-width="0" fill="#754557" fill-opacity="0.2627450980392157" />
<path d="M578,-562 L586,-1234 L474,-938 L618,-1050 L562,-614 L794,-678 Z" stroke-width="0" fill="#f5ca81" fill-opacity="0.18823529411764706" />
<path d="M502,-1110 L450,-118 L510,-146 L218,-430 L434,-730 L442,-422 Z" stroke-width="0" fill="#431d25" fill-opacity="0.48627450980392156" />
<path d="M246,-294 L542,-642 L98,-206 L334,-1078 L90,-374 L626,-230 Z" stroke-width="0" fill="#e3c3d3" fill-opacity="0.054901960784313725" />
<text x="448.0" y="0" font-size="70.0" fill="black" text-anchor="middle" transform="translate(0,17.5)">STRUGGLE</text>
</svg>