<?xml version="1.0" encoding="UTF-8"?>
<svg xmlns="http://www.w3.org/2000/svg" xmlns:xlink="http://www.w3.org/1999/xlink"
     width="275" height="375" viewBox="0 -350 275 375">
<defs>
</defs>
<rect x="15" y="-335" width="245" height="320" stroke="black" stroke-width="4" fill="white" />
<path d="M33,-169 L165,-149 L26,-227 L34,-127 L107,-33 L43,-115 Z" stroke-width="0" fill="#00303f" fill-opacity="0.5019607843137255" />
<path d="M141,-58 L176,-311 L60,-169 L30,-124 L37,-133 L197,-284 Z" stroke-width="0" fill="#7bb0f9" fill-opacity="0.0392156862745098" />
<path d="M138,-92 L169,-151 L42,-95 L165,-97 L101,-132 L94,-317 Z" stroke-width="0" fill="#d6f235" fill-opacity="0.4117647058823529" />
<path d="M107,-64 L175,-167 L57,-35 L176,-151 L77,-122 L48,-209 Z" stroke-width="0" fill="#dcb94f" fill-opacity="0.7019607843137254" />
<path d="M69,-211 L247,-28 L223,-139 L122,-31 L74,-159 L135,-161 Z" stroke-width="0" fill="#6b0000" fill-opacity="0.7254901960784313" />
<path d="M247,-43 L54,-283 L225,-221 L34,-160 L48,-82 L123,-146 Z" stroke-width="0" fill="#854000" fill-opacity="0.1607843137254902" />
<path d="M149,-165 L52,-238 L36,-43 L247,-295 L242,-289 L244,-195 Z" stroke-width="0" fill="#be6600" fill-opacity="0.7764705882352941" />
<path d="M183,-187 L140,-79 L178,-290 L231,-150 L51,-32 L71,-41 Z" stroke-width="0" fill="#ccba73" fill-opacity="0.5019607843137255" />
<path d="M105,-266 L53,-242 L129,-129 L137,-245 L177,-196 L171,-86 Z" stroke-width="0" fill="#403136" fill-opacity="0.9647058823529412" />
<path d="M103,-38 L236,-308 L151,-96 L135,-155 L44,-292 L192,-210 Z" stroke-width="0" fill="#241900" fill-opacity="0.5882352941176471" />
<path d="M174,-165 L93,-215 L131,-92 L27,-77 L105,-84 L157,-271 Z" stroke-width="0" fill="#002854" fill-opacity="0.5019607843137255" />
<path d="M72,-110 L50,-301 L222,-323 L157,-231 L46,-172 L40,-94 Z" stroke-width="0" fill="#115955" fill-opacity="0.5294117647058824" />
<path d="M177,-194 L71,-68 L235,-91 L212,-145 L187,-89 L183,-102 Z" stroke-width="0" fill="#865300" fill-opacity="0.8235294117647058" />
<path d="M54,-237 L111,-221 L66,-244 L50,-293 L231,-55 L172,-73 Z" stroke-width="0" fill="#92001c" fill-opacity="0.8980392156862745" />
<path d="M200,-152 L209,-155 L86,-179 L58,-312 L138,-305 L54,-85 Z" stroke-width="0" fill="#01fa47" fill-opacity="0.4588235294117647" />
<path d="M171,-165 L153,-46 L202,-103 L100,-202 L79,-32 L115,-314 Z" stroke-width="0" fill="#f7d483" fill-opacity="0.47843137254901963" />
<path d="M125,-56 L182,-55 L110,-47 L30,-225 L181,-153 L143,-160 Z" stroke-width="0" fill="#e1f2f4" fill-opacity="0.9647058823529412" />
<path d="M223,-200 L176,-240 L66,-118 L171,-128 L135,-61 L76,-83 Z" stroke-width="0" fill="#6c4700" fill-opacity="0.984313725490196" />
<path d="M46,-108 L188,-193 L187,-32 L233,-265 L97,-203 L247,-260 Z" stroke-width="0" fill="#ee9238" fill-opacity="0.792156862745098" />
<path d="M68,-97 L66,-87 L137,-293 L241,-30 L161,-282 L82,-111 Z" stroke-width="0" fill="#8d2100" fill-opacity="0.9294117647058824" />
<path d="M98,-284 L148,-63 L160,-180 L117,-298 L47,-271 L124,-132 Z" stroke-width="0" fill="#1dfb62" fill-opacity="0.8745098039215686" />
<path d="M220,-153 L95,-250 L39,-246 L60,-308 L177,-68 L90,-265 Z" stroke-width="0" fill="#98dbda" fill-opacity="0.9882352941176471" />
<path d="M221,-33 L148,-153 L144,-146 L76,-230 L70,-201 L146,-121 Z" stroke-width="0" fill="#6e0500" fill-opacity="0.7450980392156863" />
<path d="M129,-136 L37,-323 L185,-246 L83,-211 L32,-200 L50,-79 Z" stroke-width="0" fill="#029b4a" fill-opacity="0.4627450980392157" />
<path d="M108,-309 L212,-232 L88,-239 L148,-95 L51,-282 L100,-88 Z" stroke-width="0" fill="#bcfafa" fill-opacity="0.1568627450980392" />
<path d="M225,-141 L160,-90 L188,-284 L30,-52 L66,-36 L40,-189 Z" stroke-width="0" fill="#45b0c0" fill-opacity="0.7098039215686275" />
<path d="M46,-61 L188,-47 L135,-184 L130,-172 L25,-223 L162,-294 Z" stroke-width="0" fill="#fea020" fill-opacity="0.28627450980392155" />
<path d="M97,-62 L29,-109 L204,-202 L120,-287 L174,-95 L226,-194 Z" stroke-width="0" fill="#7d2d0b" fill-opacity="0.5019607843137255" />
<path d="M94,-97 L26,-203 L227,-285 L57,-84 L195,-315 L84,-78 Z" stroke-width="0" fill="#4c0000" fill-opacity="0.8117647058823529" />
<path d="M120,-295 L234,-317 L47,-96 L237,-195 L85,-170 L159,-72 Z" stroke-width="0" fill="#1c270f" fill-opacity="0.5294117647058824" />
<path d="M47,-247 L197,-28 L124,-212 L220,-241 L185,-293 L149,-260 Z" stroke-width="0" fill="#491e0a" fill-opacity="0.5294117647058824" />
<path d="M154,-202 L195,-102 L235,-85 L137,-316 L218,-206 L39,-246 Z" stroke-width="0" fill="#c1ddc3" fill-opacity="0.2784313725490196" />
<path d="M80,-194 L180,-82 L53,-138 L119,-57 L27,-127 L66,-133 Z" stroke-width="0" fill="#d6ae94" fill-opacity="0.9294117647058824" />
<path d="M179,-323 L122,-82 L35,-286 L108,-133 L143,-229 L76,-35 Z" stroke-width="0" fill="#78afa7" fill-opacity="0.6666666666666666" />
<path d="M222,-80 L152,-257 L154,-317 L174,-172 L236,-127 L178,-176 Z" stroke-width="0" fill="#0d8674" fill-opacity="0.403921568627451" />
<path d="M44,-118 L145,-144 L137,-312 L245,-163 L40,-86 L193,-78 Z" stroke-width="0" fill="#a34300" fill-opacity="0.7450980392156863" />
<path d="M141,-116 L107,-104 L114,-235 L125,-280 L165,-310 L50,-317 Z" stroke-width="0" fill="#004aa4" fill-opacity="0.5019607843137255" />
<path d="M249,-104 L43,-272 L58,-76 L166,-192 L43,-127 L134,-320 Z" stroke-width="0" fill="#a03c00" fill-opacity="0.7215686274509804" />
<path d="M209,-166 L137,-261 L44,-79 L32,-78 L109,-116 L151,-56 Z" stroke-width="0" fill="#c10f94" fill-opacity="0.13333333333333333" />
<path d="M217,-80 L51,-168 L168,-45 L109,-156 L62,-222 L188,-292 Z" stroke-width="0" fill="#410000" fill-opacity="0.792156862745098" />
<path d="M208,-75 L118,-129 L97,-103 L46,-178 L174,-290 L97,-113 Z" stroke-width="0" fill="#93ceb9" fill-opacity="0.5490196078431373" />
<path d="M69,-307 L52,-49 L44,-180 L155,-278 L48,-101 L233,-91 Z" stroke-width="0" fill="#38971b" fill-opacity="0.13725490196078433" />
<path d="M44,-60 L88,-60 L44,-88 L52,-150 L79,-147 L238,-269 Z" stroke-width="0" fill="#ded463" fill-opacity="0.796078431372549" />
<path d="M32,-113 L165,-204 L94,-131 L185,-163 L36,-114 L79,-146 Z" stroke-width="0" fill="#5e0813" fill-opacity="0.5176470588235295" />
<path d="M99,-212 L70,-227 L191,-52 L137,-147 L194,-89 L138,-65 Z" stroke-width="0" fill="#f7f115" fill-opacity="0.8666666666666667" />
<path d="M173,-229 L198,-167 L39,-293 L138,-33 L190,-154 L38,-230 Z" stroke-width="0" fill="#180500" fill-opacity="0.19607843137254902" />
<path d="M83,-172 L155,-60 L63,-134 L211,-148 L80,-302 L109,-220 Z" stroke-width="0" fill="#dcf2b0" fill-opacity="0.023529411764705882" />
<path d="M101,-176 L162,-43 L146,-308 L65,-187 L186,-319 L239,-62 Z" stroke-width="0" fill="#70f554" fill-opacity="0.09803921568627451" />
<path d="M147,-189 L47,-65 L135,-286 L156,-81 L132,-183 L43,-301 Z" stroke-width="0" fill="#da556d" fill-opacity="0.17254901960784313" />
<path d="M56,-291 L236,-76 L49,-312 L113,-225 L186,-102 L50,-102 Z" stroke-width="0" fill="#cebcaa" fill-opacity="0.19607843137254902" />
<path d="M69,-192 L59,-309 L166,-302 L75,-84 L191,-46 L225,-146 Z" stroke-width="0" fill="#d5cecf" fill-opacity="0.4627450980392157" />
<path d="M95,-82 L90,-286 L84,-180 L132,-172 L69,-91 L39,-195 Z" stroke-width="0" fill="#ea675d" fill-opacity="0.6352941176470588" />
<path d="M204,-131 L117,-127 L228,-282 L33,-69 L200,-126 L97,-121 Z" stroke-width="0" fill="#e6ac21" fill-opacity="0.9019607843137255" />
<path d="M219,-95 L47,-120 L124,-288 L244,-116 L78,-244 L217,-240 Z" stroke-width="0" fill="#a04000" fill-opacity="0.5019607843137255" />
<path d="M193,-94 L66,-36 L86,-36 L232,-61 L197,-104 L131,-240 Z" stroke-width="0" fill="#eb891e" fill-opacity="0.3568627450980392" />
<path d="M97,-41 L137,-252 L187,-165 L137,-269 L118,-216 L48,-178 Z" stroke-width="0" fill="#e54722" fill-opacity="0.10980392156862745" />
<path d="M248,-59 L161,-185 L41,-28 L37,-165 L245,-56 L173,-92 Z" stroke-width="0" fill="#6c6483" fill-opacity="0.5019607843137255" />
<path d="M58,-210 L183,-303 L113,-168 L221,-97 L225,-38 L213,-219 Z" stroke-width="0" fill="#3480c4" fill-opacity="0.047058823529411764" />
<path d="M208,-158 L29,-147 L66,-167 L225,-111 L43,-201 L57,-300 Z" stroke-width="0" fill="#86f56e" fill-opacity="0.48627450980392156" />
<path d="M98,-59 L25,-264 L175,-82 L131,-107 L36,-92 L110,-49 Z" stroke-width="0" fill="#b17b64" fill-opacity="0.8705882352941177" />
<path d="M69,-68 L46,-268 L156,-226 L192,-173 L48,-279 L164,-217 Z" stroke-width="0" fill="#dbee15" fill-opacity="0.3137254901960784" />
<path d="M220,-234 L193,-196 L223,-66 L167,-177 L162,-128 L63,-202 Z" stroke-width="0" fill="#ae9824" fill-opacity="0.7843137254901961" />
<path d="M28,-131 L145,-47 L111,-122 L158,-184 L204,-141 L67,-67 Z" stroke-width="0" fill="#c0ca84" fill-opacity="0.6549019607843137" />
<path d="M216,-78 L26,-115 L111,-148 L28,-156 L73,-81 L56,-203 Z" stroke-width="0" fill="#83aca1" fill-opacity="0.7294117647058823" />
<path d="M34,-141 L106,-307 L72,-72 L41,-253 L44,-132 L62,-117 Z" stroke-width="0" fill="#98abf1" fill-opacity="0.3254901960784314" />
<path d="M193,-205 L66,-270 L82,-186 L191,-253 L28,-40 L157,-82 Z" stroke-width="0" fill="#0d6538" fill-opacity="0.19607843137254902" />
<path d="M118,-73 L131,-159 L131,-145 L150,-225 L42,-31 L205,-137 Z" stroke-width="0" fill="#4099ca" fill-opacity="0.8156862745098039" />
<path d="M153,-225 L151,-265 L115,-273 L226,-198 L26,-220 L104,-250 Z" stroke-width="0" fill="#a73881" fill-opacity="0.17254901960784313" />
<path d="M200,-273 L216,-179 L71,-161 L207,-64 L209,-157 L41,-142 Z" stroke-width="0" fill="#e37622" fill-opacity="0.2823529411764706" />
<path d="M129,-49 L143,-65 L169,-55 L124,-86 L186,-68 L72,-117 Z" stroke-width="0" fill="#d6f394" fill-opacity="0.8470588235294118" />
<path d="M90,-101 L31,-157 L149,-85 L44,-262 L73,-151 L113,-303 Z" stroke-width="0" fill="#4a86d4" fill-opacity="0.3058823529411765" />
<path d="M26,-42 L96,-170 L191,-274 L112,-213 L46,-37 L56,-149 Z" stroke-width="0" fill="#1674b2" fill-opacity="0.6627450980392157" />
<path d="M141,-177 L118,-83 L203,-184 L53,-194 L246,-154 L91,-246 Z" stroke-width="0" fill="#c46e1e" fill-opacity="0.5764705882352941" />
<path d="M206,-33 L214,-101 L225,-259 L219,-165 L113,-68 L54,-234 Z" stroke-width="0" fill="#a34c00" fill-opacity="0.8862745098039215" />
<path d="M36,-113 L130,-195 L42,-132 L92,-135 L197,-33 L190,-118 Z" stroke-width="0" fill="#960000" fill-opacity="0.6941176470588235" />
<path d="M132,-108 L177,-153 L104,-273 L84,-204 L145,-283 L247,-64 Z" stroke-width="0" fill="#ae4c00" fill-opacity="0.7372549019607844" />
<path d="M115,-94 L40,-202 L156,-75 L51,-197 L66,-36 L94,-204 Z" stroke-width="0" fill="#f9e9dd" fill-opacity="0.0196078431372549" />
<path d="M50,-148 L220,-56 L72,-244 L145,-103 L60,-97 L79,-262 Z" stroke-width="0" fill="#5d3b35" fill-opacity="0.32941176470588235" />
<path d="M72,-27 L69,-292 L64,-266 L138,-38 L217,-61 L92,-309 Z" stroke-width="0" fill="#981700" fill-opacity="0.043137254901960784" />
<path d="M216,-205 L150,-210 L139,-195 L91,-247 L148,-187 L44,-289 Z" stroke-width="0" fill="#00403c" fill-opacity="0.023529411764705882" />
<path d="M84,-176 L110,-161 L139,-68 L113,-225 L131,-175 L134,-226 Z" stroke-width="0" fill="#70daea" fill-opacity="0.592156862745098" />
<path d="M62,-74 L78,-232 L226,-60 L214,-89 L237,-61 L68,-39 Z" stroke-width="0" fill="#faac11" fill-opacity="0.0392156862745098" />
<path d="M100,-306 L99,-227 L163,-90 L85,-180 L83,-90 L173,-253 Z" stroke-width="0" fill="#77252b" fill-opacity="0.7294117647058823" />
<path d="M97,-240 L131,-118 L86,-271 L140,-95 L200,-178 L115,-205 Z" stroke-width="0" fill="#a0eba7" fill-opacity="0.1411764705882353" />
<path d="M150,-73 L205,-190 L79,-214 L83,-288 L160,-126 L244,-196 Z" stroke-width="0" fill="#855003" fill-opacity="0.34901960784313724" />
<path d="M243,-44 L104,-217 L81,-137 L240,-83 L167,-75 L96,-108 Z" stroke-width="0" fill="#7e7b00" fill-opacity="0.40784313725490196" />
<path d="M75,-68 L27,-275 L44,-59 L66,-48 L180,-160 L203,-87 Z" stroke-width="0" fill="#a4ac6c" fill-opacity="0.47058823529411764" />
<path d="M87,-294 L117,-226 L149,-113 L189,-45 L104,-191 L228,-321 Z" stroke-width="0" fill="#49a5db" fill-opacity="0.17254901960784313" />
<path d="M138,-273 L237,-255 L111,-164 L162,-141 L58,-43 L67,-137 Z" stroke-width="0" fill="#190315" fill-opacity="0.23529411764705882" />
<path d="M122,-313 L122,-169 L92,-59 L214,-101 L125,-124 L105,-184 Z" stroke-width="0" fill="#4127e1" fill-opacity="0.2549019607843137" />
<path d="M26,-260 L55,-120 L200,-118 L146,-62 L155,-313 L172,-307 Z" stroke-width="0" fill="#39f9ee" fill-opacity="0.5019607843137255" />
<path d="M38,-109 L128,-55 L174,-196 L187,-114 L249,-40 L27,-323 Z" stroke-width="0" fill="#520067" fill-opacity="0.2235294117647059" />
<path d="M35,-90 L98,-158 L204,-118 L67,-107 L218,-256 L25,-122 Z" stroke-width="0" fill="#3297bd" fill-opacity="0.5019607843137255" />
<path d="M141,-37 L33,-277 L52,-274 L150,-57 L80,-139 L58,-97 Z" stroke-width="0" fill="#7ab3ac" fill-opacity="0.615686274509804" />
<path d="M233,-258 L195,-142 L236,-71 L65,-243 L39,-322 L135,-45 Z" stroke-width="0" fill="#1278aa" fill-opacity="0.12941176470588237" />
<path d="M182,-67 L109,-323 L77,-287 L65,-58 L174,-289 L58,-93 Z" stroke-width="0" fill="#a0887f" fill-opacity="0.30980392156862746" />
<path d="M39,-316 L98,-277 L94,-99 L34,-25 L124,-77 L137,-35 Z" stroke-width="0" fill="#7076bd" fill-opacity="0.4235294117647059" />
<path d="M39,-208 L190,-68 L237,-56 L70,-40 L54,-134 L33,-280 Z" stroke-width="0" fill="#5399a4" fill-opacity="0.2549019607843137" />
<path d="M40,-218 L66,-66 L38,-80 L145,-134 L45,-90 L218,-277 Z" stroke-width="0" fill="#2a6d77" fill-opacity="0.011764705882352941" />
<path d="M106,-220 L86,-93 L69,-138 L151,-141 L33,-106 L60,-44 Z" stroke-width="0" fill="#5794bc" fill-opacity="0.5019607843137255" />
<text x="137.5" y="12.5" font-size="20.0" fill="black" text-anchor="middle" transform="translate(0,5.0)">WOMAN</text>
</svg>