<?xml version="1.0" encoding="UTF-8"?>
<svg xmlns="http://www.w3.org/2000/svg" xmlns:xlink="http://www.w3.org/1999/xlink"
     width="896" height="1496" viewBox="0 -1400 896 1496" style="font-size:70;font-family:Poor Richard, Times New Roman;stroke:black;stroke-width:1;fill:none">
<defs>
</defs>
<path d="M434,-358 L238,-342 L326,-1126 L170,-638 L118,-1018 L270,-454 Z" stroke-width="0" fill="#d94716" fill-opacity="0.12156862745098039" />
<path d="M138,-814 L170,-694 L518,-222 L214,-1086 L318,-1082 L254,-554 Z" stroke-width="0" fill="#1cfb15" fill-opacity="0.1607843137254902" />
<path d="M706,-370 L110,-438 L206,-1126 L330,-1006 L122,-718 L218,-506 Z" stroke-width="0" fill="#000000" fill-opacity="0.6941176470588235" />
<path d="M302,-1146 L478,-646 L158,-270 L774,-142 L234,-370 L358,-1082 Z" stroke-width="0" fill="#000000" fill-opacity="0.9372549019607843" />
<path d="M742,-670 L458,-258 L630,-1198 L322,-90 L478,-402 L410,-1070 Z" stroke-width="0" fill="#63254c" fill-opacity="0.7058823529411765" />
<path d="M238,-974 L358,-1306 L118,-1058 L606,-902 L498,-822 L210,-1246 Z" stroke-width="0" fill="#dc111b" fill-opacity="0.12549019607843137" />
<path d="M666,-242 L694,-1254 L638,-86 L578,-846 L578,-1222 L798,-466 Z" stroke-width="0" fill="#559700" fill-opacity="0.43137254901960786" />
<path d="M394,-446 L802,-950 L802,-598 L706,-1266 L282,-878 L326,-674 Z" stroke-width="0" fill="#852d00" fill-opacity="0.5019607843137255" />
<path d="M218,-926 L594,-718 L330,-590 L582,-174 L250,-310 L598,-186 Z" stroke-width="0" fill="#faa598" fill-opacity="0.11372549019607843" />
<path d="M726,-370 L518,-1138 L650,-346 L506,-170 L286,-754 L118,-326 Z" stroke-width="0" fill="#803243" fill-opacity="0.00392156862745098" />
<path d="M314,-102 L710,-1262 L330,-302 L702,-1234 L554,-1278 L430,-726 Z" stroke-width="0" fill="#f1e1b6" fill-opacity="0.4196078431372549" />
<path d="M398,-442 L418,-462 L398,-822 L202,-726 L122,-842 L622,-1150 Z" stroke-width="0" fill="#76f395" fill-opacity="0.3411764705882353" />
<path d="M198,-1022 L498,-606 L398,-902 L642,-98 L382,-1246 L422,-478 Z" stroke-width="0" fill="#811211" fill-opacity="0.00392156862745098" />
<path d="M162,-122 L218,-1034 L294,-182 L178,-198 L330,-1226 L306,-394 Z" stroke-width="0" fill="#554f4d" fill-opacity="0.5019607843137255" />
<path d="M642,-430 L294,-282 L202,-246 L658,-446 L170,-822 L114,-146 Z" stroke-width="0" fill="#f1cc13" fill-opacity="0.027450980392156862" />
<path d="M374,-694 L810,-606 L798,-390 L282,-1262 L694,-726 L218,-726 Z" stroke-width="0" fill="#ac0200" fill-opacity="0.5019607843137255" />
<path d="M110,-970 L386,-486 L698,-602 L166,-942 L494,-1002 L246,-1050 Z" stroke-width="0" fill="#e6dab3" fill-opacity="0.3215686274509804" />
<path d="M318,-250 L642,-226 L130,-694 L630,-1070 L86,-418 L246,-178 Z" stroke-width="0" fill="#000000" fill-opacity="0.8156862745098039" />
<path d="M502,-1130 L214,-706 L642,-582 L414,-1126 L690,-118 L758,-746 Z" stroke-width="0" fill="#000018" fill-opacity="0.6823529411764706" />
<path d="M418,-614 L414,-122 L398,-634 L502,-978 L810,-118 L642,-562 Z" stroke-width="0" fill="#b4a2ea" fill-opacity="0.30980392156862746" />
<path d="M642,-662 L570,-666 L554,-158 L122,-778 L326,-1238 L770,-110 Z" stroke-width="0" fill="#5d5274" fill-opacity="0.3333333333333333" />
<path d="M278,-230 L478,-198 L218,-826 L190,-590 L638,-1046 L594,-894 Z" stroke-width="0" fill="#046c94" fill-opacity="0.7254901960784313" />
<path d="M534,-962 L690,-682 L754,-182 L542,-1098 L418,-146 L322,-1234 Z" stroke-width="0" fill="#2302cc" fill-opacity="0.49411764705882355" />
<path d="M114,-122 L434,-1046 L526,-246 L638,-590 L670,-1182 L254,-378 Z" stroke-width="0" fill="#b79d22" fill-opacity="0.48627450980392156" />
<path d="M734,-142 L746,-406 L198,-330 L650,-1294 L758,-1134 L582,-762 Z" stroke-width="0" fill="#e1441e" fill-opacity="0.36470588235294116" />
<path d="M198,-970 L222,-262 L186,-406 L122,-694 L802,-482 L694,-1026 Z" stroke-width="0" fill="#6a7036" fill-opacity="0.7764705882352941" />
<path d="M190,-1086 L710,-1170 L458,-898 L158,-806 L762,-714 L534,-310 Z" stroke-width="0" fill="#030b4d" fill-opacity="0.9450980392156862" />
<path d="M350,-1154 L454,-146 L742,-402 L614,-1098 L762,-858 L682,-490 Z" stroke-width="0" fill="#417795" fill-opacity="0.29411764705882354" />
<path d="M286,-762 L362,-366 L182,-986 L178,-898 L190,-90 L758,-98 Z" stroke-width="0" fill="#180d00" fill-opacity="0.49019607843137253" />
<path d="M150,-238 L346,-254 L634,-282 L682,-1026 L790,-234 L774,-394 Z" stroke-width="0" fill="#904400" fill-opacity="0.5019607843137255" />
<path d="M718,-530 L106,-1054 L306,-130 L314,-1098 L210,-142 L698,-1242 Z" stroke-width="0" fill="#eff8e4" fill-opacity="0.16862745098039217" />
<path d="M130,-190 L270,-202 L810,-650 L470,-82 L130,-1306 L654,-946 Z" stroke-width="0" fill="#fec789" fill-opacity="0.12549019607843137" />
<path d="M642,-874 L254,-786 L618,-1138 L574,-858 L194,-202 L350,-1182 Z" stroke-width="0" fill="#00090d" fill-opacity="0.5568627450980392" />
<path d="M266,-482 L326,-342 L366,-1026 L258,-786 L158,-1302 L654,-570 Z" stroke-width="0" fill="#fcf2ea" fill-opacity="0.7607843137254902" />
<path d="M402,-1262 L510,-106 L206,-1042 L358,-878 L210,-842 L350,-246 Z" stroke-width="0" fill="#fd584b" fill-opacity="0.011764705882352941" />
<path d="M210,-1010 L718,-554 L586,-1038 L158,-1182 L346,-1010 L198,-794 Z" stroke-width="0" fill="#d7ffd8" fill-opacity="0.0784313725490196" />
<path d="M710,-234 L622,-870 L394,-962 L350,-654 L598,-730 L634,-818 Z" stroke-width="0" fill="#7b9290" fill-opacity="0.8588235294117647" />
<path d="M82,-786 L338,-326 L546,-882 L538,-530 L158,-414 L398,-474 Z" stroke-width="0" fill="#402d0c" fill-opacity="0.26666666666666666" />
<path d="M198,-434 L218,-562 L286,-538 L274,-1042 L142,-1082 L426,-690 Z" stroke-width="0" fill="#ffd2ac" fill-opacity="0.6980392156862745" />
<path d="M642,-1026 L526,-946 L486,-602 L594,-106 L438,-478 L706,-978 Z" stroke-width="0" fill="#7678be" fill-opacity="0.6941176470588235" />
<path d="M202,-910 L186,-1170 L266,-294 L398,-370 L690,-778 L194,-738 Z" stroke-width="0" fill="#4ddb7f" fill-opacity="0.011764705882352941" />
<path d="M678,-330 L390,-1210 L198,-1270 L494,-862 L550,-714 L702,-666 Z" stroke-width="0" fill="#cbffff" fill-opacity="0.8509803921568627" />
<path d="M186,-1178 L170,-334 L346,-506 L786,-1086 L206,-1258 L454,-1306 Z" stroke-width="0" fill="#fbe8fe" fill-opacity="0.3137254901960784" />
<path d="M418,-350 L358,-306 L114,-986 L662,-1050 L166,-642 L810,-758 Z" stroke-width="0" fill="#a73204" fill-opacity="0.023529411764705882" />
<path d="M354,-626 L302,-246 L202,-586 L702,-166 L194,-810 L154,-1126 Z" stroke-width="0" fill="#f46101" fill-opacity="0.10588235294117647" />
<path d="M686,-930 L302,-90 L690,-230 L174,-1026 L726,-1210 L590,-1122 Z" stroke-width="0" fill="#2d641b" fill-opacity="0.3058823529411765" />
<path d="M606,-758 L182,-1150 L98,-826 L298,-582 L178,-1162 L806,-482 Z" stroke-width="0" fill="#dd8cae" fill-opacity="0.3568627450980392" />
<path d="M682,-190 L570,-950 L90,-618 L378,-126 L506,-422 L118,-438 Z" stroke-width="0" fill="#000029" fill-opacity="0.9725490196078431" />
<path d="M242,-886 L142,-318 L382,-110 L470,-1266 L658,-826 L382,-194 Z" stroke-width="0" fill="#b57e7e" fill-opacity="0.2784313725490196" />
<path d="M450,-1258 L654,-618 L406,-482 L378,-262 L446,-1310 L258,-1018 Z" stroke-width="0" fill="#df7bc8" fill-opacity="0.011764705882352941" />
<path d="M182,-1018 L690,-478 L442,-946 L186,-906 L778,-226 L642,-626 Z" stroke-width="0" fill="#060515" fill-opacity="0.5607843137254902" />
<path d="M462,-758 L210,-1210 L478,-638 L742,-490 L262,-682 L246,-1226 Z" stroke-width="0" fill="#eff0a7" fill-opacity="0.0196078431372549" />
<path d="M330,-1022 L282,-214 L622,-626 L558,-202 L218,-1090 L274,-226 Z" stroke-width="0" fill="#fef6e3" fill-opacity="0.8156862745098039" />
<path d="M666,-730 L238,-1314 L238,-390 L202,-466 L394,-826 L806,-690 Z" stroke-width="0" fill="#f3f8b5" fill-opacity="0.2784313725490196" />
<path d="M98,-454 L278,-946 L558,-502 L790,-614 L302,-926 L602,-1226 Z" stroke-width="0" fill="#020008" fill-opacity="0.7215686274509804" />
<path d="M134,-558 L274,-1098 L114,-1202 L322,-374 L234,-366 L546,-1242 Z" stroke-width="0" fill="#abfae6" fill-opacity="0.3843137254901961" />
<path d="M98,-1098 L446,-814 L714,-178 L346,-146 L478,-1054 L802,-438 Z" stroke-width="0" fill="#badba8" fill-opacity="0.2901960784313726" />
<path d="M298,-558 L618,-554 L446,-1110 L394,-466 L130,-130 L470,-554 Z" stroke-width="0" fill="#3d3e2f" fill-opacity="0.5019607843137255" />
<path d="M498,-498 L490,-322 L246,-554 L630,-734 L274,-498 L530,-1230 Z" stroke-width="0" fill="#00317b" fill-opacity="0.2549019607843137" />
<path d="M410,-1286 L534,-998 L346,-374 L806,-258 L810,-90 L122,-542 Z" stroke-width="0" fill="#080f30" fill-opacity="0.403921568627451" />
<path d="M810,-594 L298,-506 L118,-910 L682,-1206 L122,-710 L362,-662 Z" stroke-width="0" fill="#631d22" fill-opacity="0.047058823529411764" />
<path d="M766,-338 L662,-1122 L702,-790 L574,-666 L86,-1070 L594,-342 Z" stroke-width="0" fill="#846956" fill-opacity="0.25882352941176473" />
<path d="M150,-166 L522,-822 L786,-378 L726,-570 L394,-466 L334,-650 Z" stroke-width="0" fill="#9d5927" fill-opacity="0.4470588235294118" />
<path d="M414,-1070 L678,-1070 L358,-310 L522,-602 L498,-102 L550,-206 Z" stroke-width="0" fill="#0c5b57" fill-opacity="0.4196078431372549" />
<path d="M378,-406 L430,-1010 L486,-890 L182,-582 L418,-766 L690,-378 Z" stroke-width="0" fill="#c3e716" fill-opacity="0.35294117647058826" />
<path d="M518,-262 L194,-534 L466,-546 L802,-378 L138,-1258 L358,-914 Z" stroke-width="0" fill="#7c542c" fill-opacity="0.1843137254901961" />
<path d="M422,-1298 L198,-670 L270,-998 L330,-890 L302,-1014 L162,-234 Z" stroke-width="0" fill="#eacfee" fill-opacity="0.10980392156862745" />
<path d="M166,-1174 L494,-394 L94,-806 L310,-878 L334,-1234 L586,-1186 Z" stroke-width="0" fill="#7b7bd2" fill-opacity="0.00392156862745098" />
<path d="M366,-946 L186,-634 L570,-158 L186,-366 L430,-682 L130,-1018 Z" stroke-width="0" fill="#ecc8f3" fill-opacity="0.11372549019607843" />
<path d="M322,-646 L650,-326 L686,-550 L366,-1294 L738,-134 L394,-1130 Z" stroke-width="0" fill="#080016" fill-opacity="0.4823529411764706" />
<path d="M686,-614 L326,-938 L754,-186 L494,-522 L362,-478 L394,-422 Z" stroke-width="0" fill="#1e047e" fill-opacity="0.5019607843137255" />
<path d="M594,-966 L462,-438 L354,-442 L238,-1090 L146,-238 L322,-294 Z" stroke-width="0" fill="#5682c8" fill-opacity="0.011764705882352941" />
<path d="M618,-302 L682,-474 L538,-638 L86,-166 L298,-982 L754,-322 Z" stroke-width="0" fill="#0bcd89" fill-opacity="0.07058823529411765" />
<path d="M586,-94 L406,-598 L542,-450 L434,-102 L222,-1094 L130,-390 Z" stroke-width="0" fill="#2e7930" fill-opacity="0.09019607843137255" />
<path d="M130,-934 L742,-266 L570,-786 L186,-750 L482,-914 L774,-478 Z" stroke-width="0" fill="#470000" fill-opacity="0.4588235294117647" />
<path d="M318,-454 L434,-1102 L370,-658 L198,-1126 L382,-226 L358,-650 Z" stroke-width="0" fill="#fec3c4" fill-opacity="0.28627450980392155" />
<path d="M386,-930 L86,-138 L86,-342 L226,-542 L758,-246 L402,-138 Z" stroke-width="0" fill="#574e57" fill-opacity="0.7372549019607844" />
<path d="M318,-690 L394,-1038 L706,-346 L498,-858 L378,-1294 L458,-458 Z" stroke-width="0" fill="#f6f5f6" fill-opacity="0.8862745098039215" />
<path d="M530,-262 L170,-130 L182,-690 L322,-98 L154,-1210 L330,-618 Z" stroke-width="0" fill="#9db4cf" fill-opacity="0.5333333333333333" />
<path d="M754,-926 L774,-566 L158,-774 L218,-190 L110,-622 L278,-714 Z" stroke-width="0" fill="#760f1e" fill-opacity="0.8313725490196079" />
<path d="M574,-1146 L510,-822 L450,-114 L318,-1110 L770,-926 L438,-678 Z" stroke-width="0" fill="#a997af" fill-opacity="0.21176470588235294" />
<path d="M506,-1314 L242,-758 L254,-710 L690,-1158 L806,-610 L426,-658 Z" stroke-width="0" fill="#fefce8" fill-opacity="0.5019607843137255" />
<path d="M130,-214 L698,-662 L662,-398 L614,-794 L722,-102 L638,-526 Z" stroke-width="0" fill="#160412" fill-opacity="0.24313725490196078" />
<path d="M630,-698 L642,-850 L762,-498 L270,-398 L110,-302 L334,-818 Z" stroke-width="0" fill="#300f20" fill-opacity="0.16862745098039217" />
<path d="M766,-126 L794,-434 L182,-634 L294,-1222 L86,-1274 L238,-1034 Z" stroke-width="0" fill="#364d4d" fill-opacity="0.15294117647058825" />
<path d="M374,-1258 L594,-182 L454,-1262 L302,-1058 L166,-194 L522,-834 Z" stroke-width="0" fill="#e2eacc" fill-opacity="0.25882352941176473" />
<path d="M402,-1038 L374,-1214 L222,-330 L654,-442 L394,-362 L90,-962 Z" stroke-width="0" fill="#ade1cc" fill-opacity="0.5019607843137255" />
<path d="M670,-374 L594,-450 L342,-178 L406,-1130 L370,-854 L506,-902 Z" stroke-width="0" fill="#001e4a" fill-opacity="0.8784313725490196" />
<path d="M402,-250 L202,-806 L414,-838 L442,-482 L378,-426 L270,-238 Z" stroke-width="0" fill="#c4755b" fill-opacity="0.6196078431372549" />
<path d="M294,-970 L182,-1018 L638,-506 L666,-94 L542,-158 L370,-358 Z" stroke-width="0" fill="#060012" fill-opacity="0.8862745098039215" />
<path d="M302,-782 L530,-1166 L138,-718 L566,-830 L430,-818 L658,-970 Z" stroke-width="0" fill="#000014" fill-opacity="0.8235294117647058" />
<path d="M538,-162 L138,-170 L438,-382 L762,-1298 L714,-254 L754,-338 Z" stroke-width="0" fill="#528c4a" fill-opacity="0.10980392156862745" />
<path d="M310,-390 L198,-150 L310,-1154 L630,-1026 L278,-130 L382,-578 Z" stroke-width="0" fill="#000017" fill-opacity="0.7607843137254902" />
<path d="M686,-806 L138,-678 L514,-118 L198,-694 L650,-330 L450,-450 Z" stroke-width="0" fill="#000000" fill-opacity="0.8392156862745098" />
<path d="M398,-410 L258,-1238 L698,-1314 L190,-402 L302,-982 L546,-506 Z" stroke-width="0" fill="#093550" fill-opacity="0.09803921568627451" />
<path d="M314,-450 L762,-338 L114,-154 L110,-374 L618,-1310 L454,-130 Z" stroke-width="0" fill="#1c0032" fill-opacity="0.047058823529411764" />
<path d="M102,-282 L174,-1022 L678,-870 L714,-126 L430,-1178 L246,-690 Z" stroke-width="0" fill="#000022" fill-opacity="0.6784313725490196" />
<path d="M754,-406 L158,-262 L158,-266 L482,-1110 L594,-678 L150,-1006 Z" stroke-width="0" fill="#000014" fill-opacity="0.5843137254901961" />
<path d="M762,-738 L690,-1274 L510,-1034 L218,-1030 L254,-1194 L462,-630 Z" stroke-width="0" fill="#120008" fill-opacity="0.21176470588235294" />
<path d="M278,-1242 L134,-286 L270,-246 L358,-158 L366,-542 L438,-110 Z" stroke-width="0" fill="#000400" fill-opacity="0.20784313725490197" />
<text x="448.0" y="0" font-size="70.0" fill="black" text-anchor="middle" transform="translate(0,17.5)">WOMAN</text>
</svg>