<?xml version="1.0" encoding="UTF-8"?>
<svg xmlns="http://www.w3.org/2000/svg" xmlns:xlink="http://www.w3.org/1999/xlink"
     width="275" height="375" viewBox="0 -350 275 375">
<defs>
</defs>
<rect x="15" y="-335" width="245" height="320" stroke="black" stroke-width="4" fill="white" />
<path d="M98,-304 L146,-165 L208,-29 L83,-225 L33,-230 L245,-146 Z" stroke-width="0" fill="#3d9756" fill-opacity="0.0" />
<path d="M222,-292 L83,-263 L237,-213 L186,-123 L89,-146 L248,-86 Z" stroke-width="0" fill="#981800" fill-opacity="0.5176470588235295" />
<path d="M67,-49 L28,-173 L193,-151 L37,-89 L77,-152 L145,-303 Z" stroke-width="0" fill="#4c0000" fill-opacity="0.7019607843137254" />
<path d="M95,-43 L208,-135 L47,-33 L223,-182 L172,-187 L59,-117 Z" stroke-width="0" fill="#f34001" fill-opacity="0.8392156862745098" />
<path d="M40,-163 L74,-203 L39,-42 L169,-239 L74,-186 L215,-140 Z" stroke-width="0" fill="#e2fe00" fill-opacity="0.6196078431372549" />
<path d="M178,-48 L197,-76 L77,-182 L215,-31 L154,-59 L209,-141 Z" stroke-width="0" fill="#502900" fill-opacity="0.792156862745098" />
<path d="M177,-236 L124,-120 L152,-44 L143,-244 L65,-162 L157,-44 Z" stroke-width="0" fill="#192a8c" fill-opacity="0.00392156862745098" />
<path d="M181,-205 L155,-127 L96,-202 L143,-250 L55,-72 L41,-44 Z" stroke-width="0" fill="#ebde40" fill-opacity="0.9215686274509803" />
<path d="M218,-210 L95,-286 L174,-130 L242,-53 L109,-202 L220,-210 Z" stroke-width="0" fill="#3a1500" fill-opacity="0.6941176470588235" />
<path d="M171,-221 L72,-273 L173,-149 L89,-113 L70,-132 L204,-96 Z" stroke-width="0" fill="#efdec0" fill-opacity="0.13333333333333333" />
<path d="M219,-115 L93,-261 L100,-256 L37,-204 L130,-172 L131,-110 Z" stroke-width="0" fill="#dcabef" fill-opacity="0.15294117647058825" />
<path d="M71,-97 L137,-165 L167,-42 L238,-101 L68,-256 L85,-87 Z" stroke-width="0" fill="#ac630f" fill-opacity="0.5019607843137255" />
<path d="M193,-77 L49,-76 L80,-166 L226,-109 L142,-135 L98,-42 Z" stroke-width="0" fill="#d7c875" fill-opacity="0.4235294117647059" />
<path d="M43,-170 L82,-210 L47,-52 L148,-191 L131,-65 L26,-274 Z" stroke-width="0" fill="#592500" fill-opacity="0.5843137254901961" />
<path d="M159,-210 L54,-199 L185,-32 L34,-51 L154,-174 L169,-306 Z" stroke-width="0" fill="#ca1811" fill-opacity="0.33725490196078434" />
<path d="M138,-228 L248,-301 L27,-219 L66,-154 L44,-286 L91,-152 Z" stroke-width="0" fill="#fdf5ac" fill-opacity="0.7725490196078432" />
<path d="M137,-38 L161,-119 L59,-294 L127,-239 L241,-218 L204,-132 Z" stroke-width="0" fill="#d1934c" fill-opacity="0.43529411764705883" />
<path d="M32,-88 L35,-288 L204,-45 L143,-55 L156,-77 L208,-51 Z" stroke-width="0" fill="#4d4615" fill-opacity="0.8352941176470589" />
<path d="M102,-103 L206,-50 L148,-163 L44,-316 L145,-296 L233,-34 Z" stroke-width="0" fill="#630700" fill-opacity="0.5882352941176471" />
<path d="M116,-111 L102,-30 L229,-178 L141,-87 L26,-33 L74,-232 Z" stroke-width="0" fill="#3a0000" fill-opacity="0.7254901960784313" />
<path d="M162,-309 L219,-115 L92,-127 L89,-198 L39,-174 L90,-216 Z" stroke-width="0" fill="#355cdc" fill-opacity="0.06274509803921569" />
<path d="M209,-252 L79,-35 L28,-241 L93,-79 L227,-318 L118,-168 Z" stroke-width="0" fill="#faca91" fill-opacity="0.4549019607843137" />
<path d="M101,-213 L191,-309 L225,-194 L69,-171 L85,-281 L128,-261 Z" stroke-width="0" fill="#ed9ff4" fill-opacity="0.1568627450980392" />
<path d="M113,-69 L68,-46 L200,-216 L64,-205 L109,-133 L62,-234 Z" stroke-width="0" fill="#efa186" fill-opacity="0.2784313725490196" />
<path d="M214,-214 L166,-165 L163,-135 L225,-235 L34,-117 L112,-302 Z" stroke-width="0" fill="#b58126" fill-opacity="0.5882352941176471" />
<path d="M90,-84 L75,-58 L116,-47 L27,-98 L174,-297 L62,-88 Z" stroke-width="0" fill="#033e05" fill-opacity="0.7372549019607844" />
<path d="M182,-272 L132,-75 L173,-135 L137,-192 L134,-131 L156,-308 Z" stroke-width="0" fill="#fae0ff" fill-opacity="0.8392156862745098" />
<path d="M51,-226 L106,-211 L147,-75 L116,-194 L145,-60 L206,-266 Z" stroke-width="0" fill="#f3003b" fill-opacity="0.9764705882352941" />
<path d="M108,-165 L228,-118 L215,-202 L201,-68 L80,-82 L208,-237 Z" stroke-width="0" fill="#dee3fe" fill-opacity="0.8235294117647058" />
<path d="M113,-142 L227,-30 L231,-217 L212,-126 L194,-96 L52,-126 Z" stroke-width="0" fill="#5f5f00" fill-opacity="0.6392156862745098" />
<path d="M119,-265 L96,-256 L75,-100 L183,-274 L95,-196 L50,-273 Z" stroke-width="0" fill="#17d982" fill-opacity="0.18823529411764706" />
<path d="M171,-41 L248,-59 L174,-30 L166,-113 L125,-218 L34,-179 Z" stroke-width="0" fill="#2f043e" fill-opacity="0.6470588235294118" />
<path d="M198,-250 L29,-53 L74,-147 L132,-257 L40,-156 L79,-218 Z" stroke-width="0" fill="#926037" fill-opacity="0.9764705882352941" />
<path d="M93,-121 L241,-208 L39,-162 L179,-132 L157,-315 L33,-181 Z" stroke-width="0" fill="#c4740b" fill-opacity="0.5019607843137255" />
<path d="M49,-88 L219,-228 L154,-51 L137,-35 L150,-320 L247,-237 Z" stroke-width="0" fill="#f7c572" fill-opacity="0.6941176470588235" />
<path d="M129,-80 L222,-318 L129,-277 L102,-95 L45,-87 L208,-155 Z" stroke-width="0" fill="#e8d987" fill-opacity="0.08627450980392157" />
<path d="M186,-263 L124,-120 L85,-29 L97,-28 L71,-265 L133,-26 Z" stroke-width="0" fill="#491a00" fill-opacity="0.796078431372549" />
<path d="M28,-231 L59,-96 L249,-304 L112,-91 L100,-145 L137,-73 Z" stroke-width="0" fill="#efc05a" fill-opacity="0.5019607843137255" />
<path d="M206,-130 L136,-111 L169,-129 L27,-270 L46,-261 L243,-121 Z" stroke-width="0" fill="#b49661" fill-opacity="0.8235294117647058" />
<path d="M216,-108 L241,-192 L99,-64 L67,-79 L101,-38 L183,-32 Z" stroke-width="0" fill="#c17f55" fill-opacity="0.7176470588235294" />
<path d="M171,-208 L118,-56 L119,-177 L65,-82 L165,-309 L41,-253 Z" stroke-width="0" fill="#ede5a9" fill-opacity="0.49019607843137253" />
<path d="M55,-87 L111,-185 L69,-233 L64,-227 L133,-155 L171,-130 Z" stroke-width="0" fill="#98ad18" fill-opacity="0.3254901960784314" />
<path d="M217,-225 L105,-210 L74,-37 L107,-42 L129,-183 L144,-181 Z" stroke-width="0" fill="#ff0318" fill-opacity="0.5019607843137255" />
<path d="M96,-31 L181,-292 L44,-165 L105,-96 L92,-200 L97,-300 Z" stroke-width="0" fill="#d058bf" fill-opacity="0.3215686274509804" />
<path d="M114,-139 L167,-289 L143,-36 L218,-111 L59,-211 L164,-66 Z" stroke-width="0" fill="#e355f0" fill-opacity="0.5764705882352941" />
<path d="M103,-206 L175,-161 L48,-39 L33,-302 L116,-298 L195,-90 Z" stroke-width="0" fill="#ad672a" fill-opacity="0.6980392156862745" />
<path d="M144,-115 L203,-133 L68,-153 L92,-209 L57,-95 L48,-86 Z" stroke-width="0" fill="#433c8a" fill-opacity="0.8666666666666667" />
<path d="M113,-30 L32,-168 L243,-202 L44,-195 L49,-71 L118,-244 Z" stroke-width="0" fill="#643315" fill-opacity="0.9215686274509803" />
<path d="M224,-136 L232,-233 L96,-195 L158,-65 L107,-71 L31,-149 Z" stroke-width="0" fill="#e3fade" fill-opacity="0.9764705882352941" />
<path d="M175,-54 L169,-222 L226,-105 L31,-72 L119,-228 L190,-199 Z" stroke-width="0" fill="#101d00" fill-opacity="0.8352941176470589" />
<path d="M204,-27 L209,-57 L48,-174 L172,-219 L41,-214 L178,-166 Z" stroke-width="0" fill="#090c82" fill-opacity="0.7568627450980392" />
<path d="M127,-314 L95,-318 L179,-27 L231,-53 L49,-171 L61,-62 Z" stroke-width="0" fill="#903600" fill-opacity="0.5843137254901961" />
<path d="M80,-54 L224,-257 L223,-39 L87,-182 L119,-143 L142,-181 Z" stroke-width="0" fill="#651b3b" fill-opacity="0.5019607843137255" />
<path d="M233,-318 L116,-258 L137,-64 L177,-260 L43,-66 L48,-136 Z" stroke-width="0" fill="#eaac5c" fill-opacity="0.22745098039215686" />
<path d="M196,-294 L141,-271 L75,-117 L187,-169 L49,-43 L56,-228 Z" stroke-width="0" fill="#1b3708" fill-opacity="0.23921568627450981" />
<path d="M174,-100 L201,-118 L246,-253 L44,-138 L225,-107 L36,-72 Z" stroke-width="0" fill="#e5e88d" fill-opacity="0.8392156862745098" />
<path d="M179,-72 L137,-53 L74,-105 L162,-183 L129,-186 L41,-149 Z" stroke-width="0" fill="#a57800" fill-opacity="0.7529411764705882" />
<path d="M70,-43 L122,-206 L40,-312 L192,-125 L64,-145 L66,-52 Z" stroke-width="0" fill="#993d1d" fill-opacity="0.47843137254901963" />
<path d="M104,-55 L228,-150 L38,-80 L129,-187 L80,-273 L170,-200 Z" stroke-width="0" fill="#0e2b46" fill-opacity="0.09803921568627451" />
<path d="M57,-315 L92,-106 L105,-205 L36,-40 L36,-163 L84,-220 Z" stroke-width="0" fill="#953c14" fill-opacity="0.4392156862745098" />
<path d="M129,-123 L201,-198 L112,-216 L32,-31 L130,-211 L113,-249 Z" stroke-width="0" fill="#844b1d" fill-opacity="0.8666666666666667" />
<path d="M83,-122 L76,-187 L226,-113 L131,-288 L119,-274 L113,-192 Z" stroke-width="0" fill="#f8bd52" fill-opacity="0.48627450980392156" />
<path d="M138,-53 L166,-244 L221,-269 L64,-120 L128,-81 L66,-194 Z" stroke-width="0" fill="#ec2659" fill-opacity="0.9176470588235294" />
<path d="M50,-94 L90,-281 L184,-195 L40,-195 L141,-215 L162,-81 Z" stroke-width="0" fill="#260700" fill-opacity="0.043137254901960784" />
<path d="M125,-194 L34,-198 L247,-136 L81,-234 L183,-256 L127,-309 Z" stroke-width="0" fill="#d5d361" fill-opacity="0.6509803921568628" />
<path d="M182,-38 L31,-39 L243,-160 L25,-167 L66,-85 L207,-269 Z" stroke-width="0" fill="#3f3e11" fill-opacity="0.7058823529411765" />
<path d="M155,-97 L72,-239 L199,-68 L186,-263 L171,-62 L133,-117 Z" stroke-width="0" fill="#df7543" fill-opacity="0.5803921568627451" />
<path d="M207,-29 L106,-300 L110,-179 L101,-279 L58,-192 L77,-43 Z" stroke-width="0" fill="#204200" fill-opacity="0.5254901960784314" />
<path d="M236,-255 L244,-268 L93,-309 L32,-183 L122,-53 L115,-26 Z" stroke-width="0" fill="#ddea7f" fill-opacity="0.5019607843137255" />
<path d="M176,-240 L78,-300 L227,-275 L194,-251 L193,-191 L229,-314 Z" stroke-width="0" fill="#aba2cd" fill-opacity="0.25882352941176473" />
<path d="M224,-160 L76,-261 L121,-103 L38,-59 L61,-96 L58,-142 Z" stroke-width="0" fill="#c75b52" fill-opacity="0.4666666666666667" />
<path d="M241,-93 L100,-202 L178,-209 L146,-115 L147,-77 L49,-252 Z" stroke-width="0" fill="#886612" fill-opacity="0.7137254901960784" />
<path d="M38,-244 L138,-279 L161,-283 L197,-180 L91,-195 L56,-269 Z" stroke-width="0" fill="#f0c5dc" fill-opacity="0.20392156862745098" />
<path d="M194,-59 L148,-112 L136,-194 L220,-307 L61,-215 L141,-136 Z" stroke-width="0" fill="#b2e483" fill-opacity="0.22745098039215686" />
<path d="M100,-73 L134,-197 L170,-104 L111,-281 L84,-37 L105,-185 Z" stroke-width="0" fill="#fdb3f1" fill-opacity="0.21176470588235294" />
<path d="M200,-99 L199,-290 L244,-155 L189,-225 L40,-146 L145,-233 Z" stroke-width="0" fill="#fef192" fill-opacity="0.7725490196078432" />
<path d="M176,-44 L56,-81 L127,-119 L219,-295 L161,-27 L26,-73 Z" stroke-width="0" fill="#ea4849" fill-opacity="0.3176470588235294" />
<path d="M81,-66 L47,-42 L120,-86 L76,-127 L83,-174 L97,-51 Z" stroke-width="0" fill="#b85632" fill-opacity="0.611764705882353" />
<path d="M43,-205 L127,-84 L108,-279 L62,-264 L157,-34 L117,-30 Z" stroke-width="0" fill="#7d4414" fill-opacity="0.5764705882352941" />
<path d="M107,-194 L109,-210 L241,-212 L80,-34 L160,-105 L79,-51 Z" stroke-width="0" fill="#c6534b" fill-opacity="0.23137254901960785" />
<path d="M71,-149 L153,-106 L77,-127 L133,-138 L205,-213 L208,-246 Z" stroke-width="0" fill="#6f5c6c" fill-opacity="0.3568627450980392" />
<path d="M36,-183 L83,-83 L42,-110 L29,-214 L82,-248 L138,-197 Z" stroke-width="0" fill="#5a3e1e" fill-opacity="0.7372549019607844" />
<path d="M125,-300 L98,-184 L130,-61 L178,-228 L242,-249 L213,-53 Z" stroke-width="0" fill="#f88eaf" fill-opacity="0.30196078431372547" />
<path d="M84,-64 L192,-233 L124,-121 L77,-233 L110,-166 L31,-185 Z" stroke-width="0" fill="#492622" fill-opacity="0.5019607843137255" />
<path d="M26,-180 L228,-74 L123,-240 L242,-293 L183,-318 L66,-295 Z" stroke-width="0" fill="#d2ca00" fill-opacity="0.11764705882352941" />
<path d="M42,-87 L181,-36 L234,-317 L146,-34 L210,-51 L187,-320 Z" stroke-width="0" fill="#c60231" fill-opacity="0.011764705882352941" />
<path d="M41,-162 L50,-219 L181,-27 L232,-199 L129,-209 L157,-167 Z" stroke-width="0" fill="#c1808a" fill-opacity="0.22745098039215686" />
<path d="M128,-218 L237,-25 L71,-123 L43,-78 L190,-98 L120,-227 Z" stroke-width="0" fill="#402500" fill-opacity="0.35294117647058826" />
<path d="M117,-154 L105,-99 L82,-159 L195,-141 L193,-31 L42,-311 Z" stroke-width="0" fill="#c42974" fill-opacity="0.1411764705882353" />
<path d="M79,-233 L130,-167 L120,-218 L79,-73 L80,-136 L89,-142 Z" stroke-width="0" fill="#502913" fill-opacity="0.996078431372549" />
<path d="M137,-185 L221,-195 L63,-130 L185,-227 L103,-31 L79,-305 Z" stroke-width="0" fill="#a97831" fill-opacity="0.27058823529411763" />
<path d="M110,-215 L122,-89 L33,-233 L231,-323 L193,-317 L116,-58 Z" stroke-width="0" fill="#d5a340" fill-opacity="0.32941176470588235" />
<path d="M112,-245 L31,-92 L63,-249 L203,-87 L82,-99 L167,-246 Z" stroke-width="0" fill="#6c3100" fill-opacity="0.39215686274509803" />
<path d="M214,-127 L185,-50 L198,-72 L202,-171 L175,-266 L227,-276 Z" stroke-width="0" fill="#ecd7ac" fill-opacity="0.2980392156862745" />
<path d="M77,-267 L51,-53 L115,-281 L230,-241 L217,-30 L49,-221 Z" stroke-width="0" fill="#c0a942" fill-opacity="0.3215686274509804" />
<path d="M74,-239 L34,-261 L113,-125 L105,-147 L212,-127 L87,-295 Z" stroke-width="0" fill="#a38a4b" fill-opacity="0.4196078431372549" />
<path d="M89,-103 L68,-211 L246,-260 L38,-196 L118,-101 L43,-60 Z" stroke-width="0" fill="#667e3f" fill-opacity="0.3058823529411765" />
<path d="M240,-160 L162,-101 L201,-125 L205,-33 L25,-135 L231,-182 Z" stroke-width="0" fill="#ad8f2f" fill-opacity="0.2196078431372549" />
<path d="M71,-245 L246,-66 L106,-295 L178,-272 L216,-159 L34,-63 Z" stroke-width="0" fill="#8ab200" fill-opacity="0.023529411764705882" />
<path d="M126,-93 L222,-108 L176,-174 L55,-141 L151,-83 L198,-109 Z" stroke-width="0" fill="#c15e35" fill-opacity="0.13725490196078433" />
<text x="137.5" y="12.5" font-size="20.0" fill="black" text-anchor="middle" transform="translate(0,5.0)">FAITH</text>
</svg>