<?xml version="1.0" encoding="UTF-8"?>
<svg xmlns="http://www.w3.org/2000/svg" xmlns:xlink="http://www.w3.org/1999/xlink"
     width="896" height="1496" viewBox="0 -1400 896 1496" style="font-size:70;font-family:Poor Richard, Times New Roman;stroke:black;stroke-width:1;fill:none">
<defs>
</defs>
<path d="M362,-1250 L474,-958 L450,-410 L626,-1226 L306,-682 L174,-1034 Z" stroke-width="0" fill="#ede2f3" fill-opacity="0.027450980392156862" />
<path d="M218,-366 L402,-322 L766,-238 L138,-1146 L314,-910 L134,-498 Z" stroke-width="0" fill="#853d00" fill-opacity="0.9686274509803922" />
<path d="M538,-478 L378,-1122 L798,-1174 L134,-294 L198,-1234 L490,-666 Z" stroke-width="0" fill="#f7f634" fill-opacity="0.043137254901960784" />
<path d="M282,-906 L506,-614 L246,-438 L326,-1182 L530,-1022 L478,-474 Z" stroke-width="0" fill="#e4eaf4" fill-opacity="0.0784313725490196" />
<path d="M434,-530 L806,-114 L578,-326 L810,-1182 L430,-278 L750,-290 Z" stroke-width="0" fill="#b2c311" fill-opacity="0.12156862745098039" />
<path d="M314,-754 L498,-702 L170,-590 L698,-338 L166,-838 L194,-742 Z" stroke-width="0" fill="#f4fbd0" fill-opacity="0.10980392156862745" />
<path d="M430,-382 L470,-534 L250,-310 L426,-502 L314,-850 L370,-530 Z" stroke-width="0" fill="#4aaaf8" fill-opacity="0.396078431372549" />
<path d="M642,-978 L806,-1174 L678,-1242 L462,-1246 L334,-542 L158,-402 Z" stroke-width="0" fill="#f2fae1" fill-opacity="0.10588235294117647" />
<path d="M182,-882 L130,-1006 L414,-494 L126,-1146 L282,-230 L314,-410 Z" stroke-width="0" fill="#e9a9fa" fill-opacity="0.06274509803921569" />
<path d="M770,-134 L750,-222 L326,-182 L682,-282 L498,-1006 L618,-142 Z" stroke-width="0" fill="#7b0700" fill-opacity="0.9529411764705882" />
<path d="M218,-198 L778,-298 L186,-986 L282,-482 L194,-870 L98,-526 Z" stroke-width="0" fill="#4a0000" fill-opacity="0.796078431372549" />
<path d="M346,-426 L710,-962 L190,-718 L238,-90 L226,-86 L614,-258 Z" stroke-width="0" fill="#4d0700" fill-opacity="0.8" />
<path d="M386,-210 L174,-474 L322,-842 L670,-1250 L478,-610 L250,-822 Z" stroke-width="0" fill="#fee1ac" fill-opacity="0.23529411764705882" />
<path d="M150,-190 L170,-450 L786,-858 L94,-1314 L138,-910 L226,-1202 Z" stroke-width="0" fill="#c1e597" fill-opacity="0.21568627450980393" />
<path d="M294,-994 L106,-522 L154,-842 L238,-642 L546,-230 L178,-618 Z" stroke-width="0" fill="#533900" fill-opacity="0.7411764705882353" />
<path d="M210,-874 L182,-154 L726,-274 L98,-98 L258,-510 L178,-574 Z" stroke-width="0" fill="#330000" fill-opacity="0.8745098039215686" />
<path d="M182,-466 L670,-138 L606,-646 L810,-458 L210,-830 L350,-1146 Z" stroke-width="0" fill="#842c00" fill-opacity="0.9764705882352941" />
<path d="M126,-550 L330,-966 L250,-1298 L98,-754 L238,-1150 L442,-1034 Z" stroke-width="0" fill="#f2d2c4" fill-opacity="0.27058823529411763" />
<path d="M102,-762 L382,-1054 L418,-166 L698,-186 L194,-1178 L706,-334 Z" stroke-width="0" fill="#4d0000" fill-opacity="0.9764705882352941" />
<path d="M378,-1094 L250,-258 L274,-562 L566,-162 L586,-202 L666,-1110 Z" stroke-width="0" fill="#84d282" fill-opacity="0.00392156862745098" />
<path d="M418,-1294 L146,-330 L686,-1066 L638,-654 L726,-1134 L482,-958 Z" stroke-width="0" fill="#f3f3f7" fill-opacity="0.0392156862745098" />
<path d="M178,-730 L662,-86 L238,-922 L330,-1082 L334,-1262 L94,-342 Z" stroke-width="0" fill="#525c27" fill-opacity="0.0784313725490196" />
<path d="M474,-926 L154,-262 L90,-1062 L446,-946 L94,-610 L782,-994 Z" stroke-width="0" fill="#cbc659" fill-opacity="0.37254901960784315" />
<path d="M654,-118 L110,-602 L454,-362 L366,-898 L394,-438 L698,-1050 Z" stroke-width="0" fill="#f9cf31" fill-opacity="0.20392156862745098" />
<path d="M310,-1190 L330,-618 L182,-982 L558,-502 L318,-286 L758,-494 Z" stroke-width="0" fill="#ff7d5f" fill-opacity="0.8274509803921568" />
<path d="M786,-1154 L234,-634 L286,-554 L746,-410 L542,-670 L418,-842 Z" stroke-width="0" fill="#4e8900" fill-opacity="0.050980392156862744" />
<path d="M174,-386 L742,-914 L586,-262 L134,-630 L98,-206 L494,-822 Z" stroke-width="0" fill="#93672e" fill-opacity="0.5215686274509804" />
<path d="M106,-234 L410,-1154 L282,-986 L446,-1150 L766,-706 L114,-354 Z" stroke-width="0" fill="#e5ddec" fill-opacity="0.45098039215686275" />
<path d="M538,-434 L234,-918 L294,-1170 L798,-1122 L350,-762 L234,-1022 Z" stroke-width="0" fill="#e3e5de" fill-opacity="0.054901960784313725" />
<path d="M754,-1062 L258,-202 L358,-550 L526,-682 L694,-422 L122,-602 Z" stroke-width="0" fill="#f9f112" fill-opacity="0.2" />
<path d="M550,-398 L594,-1218 L506,-1310 L162,-238 L254,-770 L514,-930 Z" stroke-width="0" fill="#e0d7dd" fill-opacity="0.00784313725490196" />
<path d="M294,-250 L686,-370 L322,-1062 L786,-1306 L294,-1298 L670,-542 Z" stroke-width="0" fill="#f0f278" fill-opacity="0.1450980392156863" />
<path d="M186,-962 L158,-826 L90,-254 L146,-442 L166,-1142 L266,-578 Z" stroke-width="0" fill="#4d0000" fill-opacity="0.7529411764705882" />
<path d="M478,-86 L654,-626 L214,-554 L174,-838 L462,-90 L426,-1026 Z" stroke-width="0" fill="#5a0000" fill-opacity="0.9019607843137255" />
<path d="M518,-250 L670,-1226 L506,-1186 L218,-458 L410,-350 L198,-370 Z" stroke-width="0" fill="#dfe3c6" fill-opacity="0.0392156862745098" />
<path d="M542,-458 L94,-214 L226,-590 L806,-282 L630,-282 L226,-870 Z" stroke-width="0" fill="#7e2b0a" fill-opacity="0.9764705882352941" />
<path d="M654,-1098 L210,-150 L230,-1266 L598,-794 L190,-674 L690,-246 Z" stroke-width="0" fill="#eebadc" fill-opacity="0.13725490196078433" />
<path d="M702,-1110 L770,-634 L166,-818 L578,-962 L482,-978 L390,-846 Z" stroke-width="0" fill="#ade7c8" fill-opacity="0.2235294117647059" />
<path d="M154,-806 L118,-666 L802,-338 L374,-674 L118,-1102 L638,-138 Z" stroke-width="0" fill="#8c2f00" fill-opacity="0.9215686274509803" />
<path d="M262,-1262 L126,-202 L222,-702 L234,-966 L186,-778 L330,-342 Z" stroke-width="0" fill="#e4d6a3" fill-opacity="0.0196078431372549" />
<path d="M790,-990 L366,-670 L678,-478 L82,-446 L482,-686 L282,-186 Z" stroke-width="0" fill="#b6c22b" fill-opacity="0.4392156862745098" />
<path d="M130,-602 L350,-418 L290,-966 L334,-1174 L102,-202 L278,-330 Z" stroke-width="0" fill="#644d00" fill-opacity="0.8431372549019608" />
<path d="M254,-326 L98,-1190 L158,-666 L374,-230 L362,-610 L486,-94 Z" stroke-width="0" fill="#98b438" fill-opacity="0.12941176470588237" />
<path d="M234,-622 L90,-650 L366,-1294 L378,-274 L350,-814 L754,-850 Z" stroke-width="0" fill="#e8f9d1" fill-opacity="0.25882352941176473" />
<path d="M254,-82 L530,-334 L326,-338 L454,-954 L498,-746 L178,-1094 Z" stroke-width="0" fill="#752f00" fill-opacity="0.8588235294117647" />
<path d="M742,-1270 L578,-1046 L374,-442 L438,-398 L606,-1154 L226,-618 Z" stroke-width="0" fill="#f9f7f9" fill-opacity="0.16862745098039217" />
<path d="M582,-98 L90,-782 L250,-834 L234,-154 L258,-1210 L622,-986 Z" stroke-width="0" fill="#608519" fill-opacity="0.050980392156862744" />
<path d="M486,-1134 L474,-686 L458,-658 L554,-214 L786,-742 L694,-686 Z" stroke-width="0" fill="#7cafed" fill-opacity="0.16470588235294117" />
<path d="M150,-86 L286,-858 L518,-102 L350,-310 L734,-318 L706,-446 Z" stroke-width="0" fill="#5a0b00" fill-opacity="0.8823529411764706" />
<path d="M390,-1038 L454,-586 L406,-518 L234,-822 L698,-266 L342,-914 Z" stroke-width="0" fill="#1ea304" fill-opacity="0.050980392156862744" />
<path d="M162,-430 L202,-886 L162,-630 L738,-378 L374,-462 L422,-554 Z" stroke-width="0" fill="#366600" fill-opacity="0.30196078431372547" />
<path d="M202,-370 L802,-490 L170,-286 L466,-94 L150,-266 L354,-990 Z" stroke-width="0" fill="#71201e" fill-opacity="0.996078431372549" />
<path d="M330,-202 L666,-482 L590,-806 L198,-674 L598,-778 L238,-446 Z" stroke-width="0" fill="#05131e" fill-opacity="0.7686274509803922" />
<path d="M534,-1098 L394,-158 L734,-194 L158,-1202 L454,-1018 L358,-506 Z" stroke-width="0" fill="#f9e256" fill-opacity="0.08627450980392157" />
<path d="M278,-606 L794,-226 L102,-718 L486,-1298 L286,-182 L342,-686 Z" stroke-width="0" fill="#fdeec9" fill-opacity="0.07058823529411765" />
<path d="M294,-290 L574,-298 L666,-1018 L114,-1078 L458,-546 L710,-978 Z" stroke-width="0" fill="#eaefab" fill-opacity="0.807843137254902" />
<path d="M98,-1206 L290,-450 L522,-574 L458,-386 L466,-670 L798,-1110 Z" stroke-width="0" fill="#f9eaeb" fill-opacity="0.6901960784313725" />
<path d="M762,-266 L346,-222 L638,-734 L130,-806 L794,-1234 L206,-998 Z" stroke-width="0" fill="#ffd0f9" fill-opacity="0.11372549019607843" />
<path d="M222,-746 L394,-1214 L162,-350 L590,-146 L750,-430 L314,-598 Z" stroke-width="0" fill="#8a2000" fill-opacity="0.7411764705882353" />
<path d="M722,-1314 L158,-270 L174,-594 L590,-794 L182,-218 L766,-218 Z" stroke-width="0" fill="#eea12b" fill-opacity="0.03137254901960784" />
<path d="M458,-1074 L558,-598 L698,-526 L418,-222 L378,-758 L210,-514 Z" stroke-width="0" fill="#081f00" fill-opacity="0.8431372549019608" />
<path d="M354,-182 L342,-374 L526,-722 L662,-722 L406,-370 L678,-554 Z" stroke-width="0" fill="#920000" fill-opacity="0.8509803921568627" />
<path d="M246,-434 L286,-1166 L438,-178 L658,-1282 L334,-454 L358,-490 Z" stroke-width="0" fill="#e8d7f2" fill-opacity="0.0392156862745098" />
<path d="M434,-330 L186,-938 L274,-598 L554,-598 L526,-606 L486,-438 Z" stroke-width="0" fill="#13b574" fill-opacity="0.03529411764705882" />
<path d="M358,-126 L658,-1142 L462,-1026 L654,-290 L538,-974 L674,-262 Z" stroke-width="0" fill="#f7fe92" fill-opacity="0.03529411764705882" />
<path d="M362,-346 L138,-390 L358,-230 L710,-422 L398,-1118 L418,-134 Z" stroke-width="0" fill="#850107" fill-opacity="0.0196078431372549" />
<path d="M102,-530 L382,-958 L390,-374 L138,-890 L130,-326 L126,-698 Z" stroke-width="0" fill="#431900" fill-opacity="0.5019607843137255" />
<path d="M754,-490 L734,-678 L442,-838 L298,-430 L186,-1226 L454,-462 Z" stroke-width="0" fill="#d4cb03" fill-opacity="0.16470588235294117" />
<path d="M382,-798 L446,-962 L662,-154 L770,-558 L374,-838 L394,-698 Z" stroke-width="0" fill="#3d0900" fill-opacity="0.7176470588235294" />
<path d="M742,-202 L338,-202 L290,-1282 L418,-938 L430,-382 L102,-550 Z" stroke-width="0" fill="#ecf8f6" fill-opacity="0.1843137254901961" />
<path d="M174,-82 L582,-258 L366,-1306 L346,-406 L266,-902 L802,-346 Z" stroke-width="0" fill="#f2eb8c" fill-opacity="0.07058823529411765" />
<path d="M358,-438 L122,-202 L546,-178 L454,-474 L762,-682 L166,-1126 Z" stroke-width="0" fill="#92ddd0" fill-opacity="0.023529411764705882" />
<path d="M138,-318 L366,-466 L598,-650 L642,-1234 L294,-418 L370,-486 Z" stroke-width="0" fill="#dff8bf" fill-opacity="0.054901960784313725" />
<path d="M286,-466 L482,-350 L762,-306 L426,-230 L306,-966 L274,-146 Z" stroke-width="0" fill="#a84200" fill-opacity="0.6352941176470588" />
<path d="M390,-882 L318,-850 L414,-1030 L522,-1050 L386,-802 L282,-342 Z" stroke-width="0" fill="#f0ded7" fill-opacity="0.9019607843137255" />
<path d="M370,-106 L578,-1310 L198,-538 L758,-90 L442,-1122 L706,-1198 Z" stroke-width="0" fill="#ffd2a7" fill-opacity="0.4392156862745098" />
<path d="M482,-458 L170,-510 L790,-174 L382,-586 L642,-322 L450,-214 Z" stroke-width="0" fill="#ae6d00" fill-opacity="0.792156862745098" />
<path d="M534,-198 L606,-1282 L270,-870 L518,-710 L562,-1282 L606,-694 Z" stroke-width="0" fill="#ffe7c0" fill-opacity="0.34509803921568627" />
<path d="M586,-994 L662,-710 L630,-234 L118,-1018 L342,-222 L398,-1078 Z" stroke-width="0" fill="#f0ef29" fill-opacity="0.058823529411764705" />
<path d="M790,-406 L486,-166 L226,-1006 L710,-90 L126,-626 L166,-222 Z" stroke-width="0" fill="#8f4600" fill-opacity="0.8431372549019608" />
<path d="M498,-906 L246,-494 L330,-134 L462,-1166 L326,-558 L86,-226 Z" stroke-width="0" fill="#bff384" fill-opacity="0.12156862745098039" />
<path d="M494,-954 L206,-438 L182,-630 L674,-342 L386,-466 L334,-1038 Z" stroke-width="0" fill="#ffffb0" fill-opacity="0.9098039215686274" />
<path d="M742,-194 L302,-370 L286,-1066 L390,-626 L154,-378 L178,-1114 Z" stroke-width="0" fill="#af1600" fill-opacity="0.24313725490196078" />
<path d="M278,-926 L338,-862 L146,-130 L682,-162 L446,-122 L82,-1270 Z" stroke-width="0" fill="#d8f78e" fill-opacity="0.050980392156862744" />
<path d="M226,-1074 L542,-314 L270,-222 L154,-482 L106,-434 L370,-1234 Z" stroke-width="0" fill="#0e8afb" fill-opacity="0.01568627450980392" />
<path d="M274,-450 L586,-1150 L690,-806 L622,-1138 L626,-286 L338,-1010 Z" stroke-width="0" fill="#f3d896" fill-opacity="0.058823529411764705" />
<path d="M682,-754 L302,-654 L162,-482 L350,-1134 L146,-278 L454,-414 Z" stroke-width="0" fill="#864106" fill-opacity="0.9725490196078431" />
<path d="M654,-310 L150,-1198 L430,-430 L478,-478 L178,-798 L746,-442 Z" stroke-width="0" fill="#9e8b00" fill-opacity="0.28627450980392155" />
<path d="M726,-1178 L578,-1202 L362,-954 L246,-870 L530,-546 L358,-122 Z" stroke-width="0" fill="#8ff1dc" fill-opacity="0.1568627450980392" />
<path d="M98,-130 L514,-1098 L114,-430 L542,-346 L86,-1242 L294,-182 Z" stroke-width="0" fill="#8fb235" fill-opacity="0.07058823529411765" />
<path d="M414,-762 L390,-146 L758,-578 L326,-434 L318,-538 L406,-762 Z" stroke-width="0" fill="#620000" fill-opacity="0.8352941176470589" />
<path d="M410,-394 L266,-210 L674,-1218 L98,-826 L670,-414 L786,-1186 Z" stroke-width="0" fill="#fffdfd" fill-opacity="0.18823529411764706" />
<path d="M330,-150 L366,-1242 L214,-530 L230,-474 L534,-754 L234,-330 Z" stroke-width="0" fill="#f7dc1c" fill-opacity="0.17254901960784313" />
<path d="M518,-890 L270,-174 L414,-194 L654,-774 L278,-230 L262,-346 Z" stroke-width="0" fill="#5e3d00" fill-opacity="0.803921568627451" />
<path d="M406,-1262 L430,-1302 L226,-678 L166,-1242 L474,-218 L126,-158 Z" stroke-width="0" fill="#ece200" fill-opacity="0.07058823529411765" />
<path d="M526,-478 L170,-1110 L142,-1042 L642,-90 L206,-762 L518,-182 Z" stroke-width="0" fill="#eecd29" fill-opacity="0.06274509803921569" />
<path d="M298,-594 L102,-1158 L510,-242 L86,-254 L314,-762 L606,-358 Z" stroke-width="0" fill="#680d00" fill-opacity="0.5019607843137255" />
<path d="M442,-934 L150,-866 L454,-246 L418,-1294 L354,-358 L334,-1190 Z" stroke-width="0" fill="#928130" fill-opacity="0.03529411764705882" />
<path d="M758,-374 L166,-86 L346,-314 L706,-766 L634,-354 L194,-850 Z" stroke-width="0" fill="#643800" fill-opacity="0.8" />
<path d="M130,-906 L490,-230 L538,-1178 L562,-1278 L490,-1054 L310,-1278 Z" stroke-width="0" fill="#fafcce" fill-opacity="0.058823529411764705" />
<text x="448.0" y="0" font-size="70.0" fill="black" text-anchor="middle" transform="translate(0,17.5)">FAITH</text>
</svg>