<?xml version="1.0" encoding="UTF-8"?>
<svg xmlns="http://www.w3.org/2000/svg" xmlns:xlink="http://www.w3.org/1999/xlink"
     width="896" height="1496" viewBox="0 -1400 896 1496" style="font-size:70;font-family:Poor Richard, Times New Roman;stroke:black;stroke-width:1;fill:none">
<defs>
</defs>
<path d="M742,-822 L382,-198 L482,-902 L354,-942 L570,-410 L302,-250 Z" stroke-width="0" fill="#d6f6e1" fill-opacity="0.043137254901960784" />
<path d="M702,-150 L126,-542 L394,-1078 L234,-326 L642,-754 L526,-122 Z" stroke-width="0" fill="#520a4c" fill-opacity="0.09803921568627451" />
<path d="M234,-342 L194,-966 L510,-118 L662,-794 L762,-430 L366,-326 Z" stroke-width="0" fill="#e53000" fill-opacity="0.8941176470588236" />
<path d="M466,-166 L298,-530 L302,-550 L246,-586 L330,-1098 L118,-682 Z" stroke-width="0" fill="#2c010f" fill-opacity="0.7411764705882353" />
<path d="M426,-310 L582,-1130 L530,-110 L806,-826 L162,-710 L242,-378 Z" stroke-width="0" fill="#630d26" fill-opacity="0.011764705882352941" />
<path d="M146,-310 L154,-694 L110,-918 L526,-314 L254,-390 L354,-346 Z" stroke-width="0" fill="#5bd5ed" fill-opacity="0.12941176470588237" />
<path d="M622,-522 L782,-238 L134,-118 L454,-1018 L154,-98 L782,-330 Z" stroke-width="0" fill="#d9d4b6" fill-opacity="0.47843137254901963" />
<path d="M82,-238 L466,-362 L622,-1090 L734,-166 L142,-510 L546,-254 Z" stroke-width="0" fill="#f7e1c0" fill-opacity="0.5333333333333333" />
<path d="M106,-622 L506,-430 L246,-514 L218,-690 L214,-362 L322,-1002 Z" stroke-width="0" fill="#86090f" fill-opacity="0.9137254901960784" />
<path d="M502,-1074 L570,-94 L290,-166 L434,-478 L394,-670 L238,-926 Z" stroke-width="0" fill="#ece4d2" fill-opacity="0.9058823529411765" />
<path d="M490,-562 L406,-506 L310,-246 L98,-718 L354,-474 L114,-250 Z" stroke-width="0" fill="#c12a00" fill-opacity="0.6862745098039216" />
<path d="M666,-1178 L534,-502 L270,-1074 L682,-910 L286,-670 L306,-314 Z" stroke-width="0" fill="#4fe5ef" fill-opacity="0.16470588235294117" />
<path d="M186,-1162 L418,-150 L246,-690 L594,-642 L518,-190 L518,-330 Z" stroke-width="0" fill="#631839" fill-opacity="0.0" />
<path d="M186,-918 L726,-582 L554,-406 L502,-310 L550,-826 L338,-1194 Z" stroke-width="0" fill="#34c721" fill-opacity="0.14901960784313725" />
<path d="M570,-762 L758,-1254 L482,-426 L718,-1214 L126,-682 L198,-550 Z" stroke-width="0" fill="#240501" fill-opacity="0.00784313725490196" />
<path d="M142,-638 L134,-1058 L450,-582 L190,-390 L414,-750 L570,-758 Z" stroke-width="0" fill="#e05af0" fill-opacity="0.058823529411764705" />
<path d="M754,-278 L466,-94 L138,-118 L766,-122 L318,-290 L634,-738 Z" stroke-width="0" fill="#dfc6d1" fill-opacity="0.8313725490196079" />
<path d="M86,-886 L118,-1234 L410,-306 L482,-862 L250,-422 L802,-650 Z" stroke-width="0" fill="#987e40" fill-opacity="0.20392156862745098" />
<path d="M230,-1130 L802,-158 L650,-298 L378,-478 L302,-826 L686,-434 Z" stroke-width="0" fill="#e2eac1" fill-opacity="0.5215686274509804" />
<path d="M234,-1054 L482,-874 L714,-382 L346,-154 L674,-726 L522,-582 Z" stroke-width="0" fill="#e90c0c" fill-opacity="0.8901960784313725" />
<path d="M566,-1030 L574,-902 L594,-678 L390,-1074 L150,-1122 L106,-998 Z" stroke-width="0" fill="#d9dffe" fill-opacity="0.07058823529411765" />
<path d="M422,-1162 L634,-858 L810,-810 L746,-1070 L406,-210 L230,-774 Z" stroke-width="0" fill="#b95e14" fill-opacity="0.16470588235294117" />
<path d="M622,-474 L622,-658 L426,-150 L322,-706 L382,-826 L410,-1058 Z" stroke-width="0" fill="#e0d16e" fill-opacity="0.611764705882353" />
<path d="M750,-738 L530,-470 L242,-702 L602,-426 L562,-478 L130,-986 Z" stroke-width="0" fill="#e7fef8" fill-opacity="0.29411764705882354" />
<path d="M698,-818 L462,-1214 L390,-846 L166,-1010 L606,-118 L246,-362 Z" stroke-width="0" fill="#d8f8fe" fill-opacity="0.07450980392156863" />
<path d="M358,-650 L242,-586 L230,-330 L406,-530 L314,-866 L554,-610 Z" stroke-width="0" fill="#4ef2ac" fill-opacity="0.0196078431372549" />
<path d="M470,-222 L762,-190 L538,-134 L122,-962 L330,-1290 L118,-370 Z" stroke-width="0" fill="#f0d8b3" fill-opacity="0.403921568627451" />
<path d="M550,-354 L98,-266 L574,-650 L262,-1062 L726,-878 L398,-1022 Z" stroke-width="0" fill="#e5c79a" fill-opacity="0.3411764705882353" />
<path d="M166,-1138 L270,-126 L594,-966 L202,-854 L334,-174 L530,-558 Z" stroke-width="0" fill="#d6dff5" fill-opacity="0.3254901960784314" />
<path d="M502,-766 L410,-250 L522,-858 L306,-638 L798,-1254 L762,-1038 Z" stroke-width="0" fill="#e1d2cc" fill-opacity="0.788235294117647" />
<path d="M602,-766 L754,-1138 L750,-422 L638,-894 L142,-1090 L774,-210 Z" stroke-width="0" fill="#efe7d5" fill-opacity="0.23137254901960785" />
<path d="M182,-1166 L558,-262 L478,-986 L118,-650 L150,-434 L126,-1146 Z" stroke-width="0" fill="#e9aff7" fill-opacity="0.023529411764705882" />
<path d="M490,-1034 L218,-190 L86,-954 L438,-486 L106,-870 L86,-622 Z" stroke-width="0" fill="#8a2110" fill-opacity="0.26666666666666666" />
<path d="M278,-414 L626,-378 L478,-774 L234,-374 L658,-834 L462,-238 Z" stroke-width="0" fill="#ecf632" fill-opacity="0.24705882352941178" />
<path d="M142,-574 L322,-302 L418,-442 L122,-1010 L126,-1058 L478,-1082 Z" stroke-width="0" fill="#f7fde7" fill-opacity="0.32941176470588235" />
<path d="M594,-518 L98,-454 L686,-266 L354,-946 L278,-158 L106,-474 Z" stroke-width="0" fill="#af4aaf" fill-opacity="0.09411764705882353" />
<path d="M446,-738 L278,-354 L242,-1246 L406,-638 L502,-322 L114,-290 Z" stroke-width="0" fill="#f9efb7" fill-opacity="0.9019607843137255" />
<path d="M602,-122 L562,-434 L542,-1210 L190,-134 L102,-130 L294,-1222 Z" stroke-width="0" fill="#904b3e" fill-opacity="0.21568627450980393" />
<path d="M734,-674 L630,-110 L650,-282 L326,-102 L162,-1162 L198,-282 Z" stroke-width="0" fill="#ffcde6" fill-opacity="0.8313725490196079" />
<path d="M602,-158 L690,-546 L450,-586 L374,-418 L118,-1258 L398,-990 Z" stroke-width="0" fill="#81b7a0" fill-opacity="0.3333333333333333" />
<path d="M626,-250 L622,-174 L394,-674 L198,-322 L650,-950 L770,-130 Z" stroke-width="0" fill="#feb6c1" fill-opacity="0.35294117647058826" />
<path d="M454,-1250 L478,-922 L470,-230 L106,-1242 L134,-150 L138,-554 Z" stroke-width="0" fill="#7d678d" fill-opacity="0.12156862745098039" />
<path d="M454,-414 L658,-950 L430,-1242 L478,-782 L770,-1034 L534,-926 Z" stroke-width="0" fill="#fcbe63" fill-opacity="0.1450980392156863" />
<path d="M174,-486 L226,-974 L598,-526 L742,-866 L562,-846 L186,-342 Z" stroke-width="0" fill="#bcfb7f" fill-opacity="0.00392156862745098" />
<path d="M322,-122 L238,-126 L490,-1150 L494,-634 L82,-294 L362,-614 Z" stroke-width="0" fill="#24fbed" fill-opacity="0.06666666666666667" />
<path d="M342,-1014 L182,-678 L422,-902 L406,-402 L298,-598 L254,-546 Z" stroke-width="0" fill="#b7dfdc" fill-opacity="0.9176470588235294" />
<path d="M298,-854 L338,-714 L790,-454 L286,-1234 L410,-382 L110,-1230 Z" stroke-width="0" fill="#a89a48" fill-opacity="0.0" />
<path d="M506,-966 L486,-1190 L98,-994 L178,-882 L114,-262 L426,-758 Z" stroke-width="0" fill="#ddcbea" fill-opacity="0.3568627450980392" />
<path d="M450,-314 L242,-1086 L646,-514 L386,-1130 L258,-1178 L690,-190 Z" stroke-width="0" fill="#f0e7c8" fill-opacity="0.7098039215686275" />
<path d="M666,-238 L186,-530 L710,-782 L150,-510 L722,-538 L250,-222 Z" stroke-width="0" fill="#96fbdb" fill-opacity="0.00392156862745098" />
<path d="M702,-1270 L202,-446 L650,-494 L258,-426 L526,-830 L594,-206 Z" stroke-width="0" fill="#f6c1ca" fill-opacity="0.41568627450980394" />
<path d="M182,-218 L242,-1202 L386,-150 L414,-354 L730,-1146 L706,-478 Z" stroke-width="0" fill="#cdf0f3" fill-opacity="0.2235294117647059" />
<path d="M262,-94 L614,-858 L450,-1302 L550,-1010 L722,-242 L646,-1082 Z" stroke-width="0" fill="#f8e5d8" fill-opacity="0.5725490196078431" />
<path d="M226,-438 L382,-482 L382,-906 L150,-534 L654,-250 L354,-442 Z" stroke-width="0" fill="#5ca1e5" fill-opacity="0.00392156862745098" />
<path d="M562,-1198 L394,-726 L238,-86 L642,-550 L474,-494 L410,-366 Z" stroke-width="0" fill="#a6828e" fill-opacity="0.1803921568627451" />
<path d="M238,-986 L234,-1014 L202,-382 L430,-742 L778,-1226 L286,-490 Z" stroke-width="0" fill="#d8f2e9" fill-opacity="0.12549019607843137" />
<path d="M374,-194 L178,-1270 L118,-726 L234,-246 L306,-594 L178,-470 Z" stroke-width="0" fill="#f3c5ca" fill-opacity="0.4666666666666667" />
<path d="M414,-486 L614,-678 L90,-178 L138,-282 L718,-286 L118,-178 Z" stroke-width="0" fill="#f6e6cd" fill-opacity="0.19215686274509805" />
<path d="M218,-278 L386,-258 L442,-758 L230,-1314 L298,-626 L570,-846 Z" stroke-width="0" fill="#bcddd4" fill-opacity="0.6588235294117647" />
<path d="M194,-998 L86,-1082 L518,-1174 L398,-230 L470,-342 L270,-538 Z" stroke-width="0" fill="#de56aa" fill-opacity="0.0196078431372549" />
<path d="M594,-794 L90,-422 L178,-806 L550,-706 L534,-814 L182,-570 Z" stroke-width="0" fill="#d9570e" fill-opacity="0.9686274509803922" />
<path d="M242,-302 L198,-838 L514,-542 L246,-1014 L406,-974 L742,-258 Z" stroke-width="0" fill="#ebf8fb" fill-opacity="0.49019607843137253" />
<path d="M714,-214 L726,-974 L670,-262 L414,-710 L602,-450 L654,-1302 Z" stroke-width="0" fill="#f7b3ae" fill-opacity="0.3215686274509804" />
<path d="M246,-726 L310,-286 L342,-234 L358,-1274 L698,-398 L694,-1078 Z" stroke-width="0" fill="#e8ccd4" fill-opacity="0.7411764705882353" />
<path d="M202,-1034 L334,-710 L582,-738 L182,-90 L802,-486 L582,-650 Z" stroke-width="0" fill="#f35037" fill-opacity="0.30196078431372547" />
<path d="M626,-278 L482,-402 L546,-1110 L350,-678 L102,-334 L146,-1026 Z" stroke-width="0" fill="#dfd3d6" fill-opacity="0.4392156862745098" />
<path d="M178,-626 L254,-734 L82,-410 L806,-790 L518,-1306 L578,-1082 Z" stroke-width="0" fill="#f7c3bd" fill-opacity="0.396078431372549" />
<path d="M346,-838 L114,-1018 L638,-642 L370,-118 L434,-86 L402,-486 Z" stroke-width="0" fill="#c4ab6b" fill-opacity="0.25098039215686274" />
<path d="M166,-546 L606,-290 L718,-790 L490,-330 L98,-282 L146,-846 Z" stroke-width="0" fill="#cd7134" fill-opacity="0.5019607843137255" />
<path d="M558,-1106 L158,-338 L390,-466 L306,-1178 L290,-570 L290,-902 Z" stroke-width="0" fill="#cde0c1" fill-opacity="0.22745098039215686" />
<path d="M334,-350 L802,-642 L790,-766 L782,-698 L474,-554 L434,-410 Z" stroke-width="0" fill="#f5f3d4" fill-opacity="0.9882352941176471" />
<path d="M118,-474 L494,-1010 L622,-122 L310,-554 L378,-814 L630,-362 Z" stroke-width="0" fill="#c21705" fill-opacity="0.36470588235294116" />
<path d="M110,-822 L642,-238 L682,-270 L338,-1082 L230,-866 L326,-1274 Z" stroke-width="0" fill="#f4fcc3" fill-opacity="0.20784313725490197" />
<path d="M258,-1046 L670,-262 L510,-398 L274,-770 L278,-782 L602,-338 Z" stroke-width="0" fill="#fca9ec" fill-opacity="0.12549019607843137" />
<path d="M190,-1102 L278,-314 L178,-282 L586,-318 L146,-1262 L506,-922 Z" stroke-width="0" fill="#e5d8da" fill-opacity="1.0" />
<path d="M646,-1186 L242,-442 L566,-150 L118,-634 L538,-162 L242,-1266 Z" stroke-width="0" fill="#ce95d5" fill-opacity="0.26666666666666666" />
<path d="M222,-470 L378,-598 L494,-1222 L158,-806 L382,-154 L618,-658 Z" stroke-width="0" fill="#dffe9e" fill-opacity="0.23921568627450981" />
<path d="M146,-454 L114,-446 L586,-710 L366,-818 L598,-354 L706,-398 Z" stroke-width="0" fill="#fa7406" fill-opacity="0.47843137254901963" />
<path d="M86,-610 L446,-986 L382,-826 L298,-554 L582,-954 L542,-166 Z" stroke-width="0" fill="#ed9561" fill-opacity="0.047058823529411764" />
<path d="M466,-586 L422,-1130 L730,-830 L594,-262 L614,-326 L194,-394 Z" stroke-width="0" fill="#f4edff" fill-opacity="0.792156862745098" />
<path d="M170,-1162 L462,-394 L94,-702 L102,-114 L566,-618 L266,-1170 Z" stroke-width="0" fill="#d5b3df" fill-opacity="0.13725490196078433" />
<path d="M698,-578 L410,-130 L494,-486 L470,-978 L390,-734 L706,-470 Z" stroke-width="0" fill="#de0f00" fill-opacity="0.9764705882352941" />
<path d="M138,-854 L598,-130 L678,-522 L82,-758 L650,-1134 L706,-1246 Z" stroke-width="0" fill="#ba4b07" fill-opacity="0.10980392156862745" />
<path d="M110,-1062 L410,-742 L118,-978 L718,-1238 L318,-194 L490,-742 Z" stroke-width="0" fill="#cff9e6" fill-opacity="0.17647058823529413" />
<path d="M698,-126 L718,-514 L238,-558 L474,-114 L802,-690 L498,-946 Z" stroke-width="0" fill="#e5ad31" fill-opacity="0.043137254901960784" />
<path d="M306,-670 L770,-882 L426,-206 L566,-934 L290,-870 L766,-698 Z" stroke-width="0" fill="#f2fdc5" fill-opacity="0.23529411764705882" />
<path d="M662,-314 L90,-386 L390,-546 L294,-610 L462,-154 L250,-122 Z" stroke-width="0" fill="#e9c2b5" fill-opacity="0.9372549019607843" />
<path d="M670,-122 L238,-1186 L406,-834 L322,-930 L646,-126 L298,-714 Z" stroke-width="0" fill="#eff4cc" fill-opacity="0.2" />
<path d="M630,-430 L182,-134 L598,-874 L366,-450 L302,-202 L310,-938 Z" stroke-width="0" fill="#f48e61" fill-opacity="0.1607843137254902" />
<path d="M626,-678 L794,-1126 L230,-462 L778,-618 L590,-578 L342,-354 Z" stroke-width="0" fill="#f1ece2" fill-opacity="0.8901960784313725" />
<path d="M474,-242 L402,-486 L582,-322 L418,-230 L602,-922 L178,-478 Z" stroke-width="0" fill="#e6dcf3" fill-opacity="0.23137254901960785" />
<path d="M358,-90 L774,-130 L766,-966 L146,-830 L178,-474 L278,-466 Z" stroke-width="0" fill="#c4fe43" fill-opacity="0.0196078431372549" />
<path d="M366,-102 L286,-202 L210,-1006 L330,-594 L266,-166 L278,-862 Z" stroke-width="0" fill="#eaecd1" fill-opacity="0.7058823529411765" />
<path d="M158,-1058 L126,-810 L450,-386 L662,-426 L638,-82 L106,-866 Z" stroke-width="0" fill="#f0e6cf" fill-opacity="0.9568627450980393" />
<path d="M234,-1166 L274,-214 L326,-702 L590,-126 L466,-638 L550,-86 Z" stroke-width="0" fill="#f3e6c1" fill-opacity="0.41568627450980394" />
<path d="M694,-750 L766,-526 L374,-294 L194,-958 L330,-246 L466,-106 Z" stroke-width="0" fill="#ddf3e4" fill-opacity="0.4196078431372549" />
<path d="M354,-510 L222,-382 L254,-938 L214,-774 L774,-982 L258,-886 Z" stroke-width="0" fill="#ed9239" fill-opacity="0.30196078431372547" />
<path d="M414,-1102 L102,-246 L514,-1110 L594,-682 L250,-790 L362,-718 Z" stroke-width="0" fill="#f9c3d2" fill-opacity="0.7686274509803922" />
<path d="M514,-1046 L494,-326 L314,-1102 L614,-1130 L90,-894 L394,-1082 Z" stroke-width="0" fill="#fff0c7" fill-opacity="0.5294117647058824" />
<path d="M198,-614 L154,-514 L486,-1250 L646,-654 L726,-1078 L166,-442 Z" stroke-width="0" fill="#e0f7dd" fill-opacity="0.5019607843137255" />
<text x="448.0" y="0" font-size="70.0" fill="black" text-anchor="middle" transform="translate(0,17.5)">VALUE</text>
</svg>