<?xml version="1.0" encoding="UTF-8"?>
<svg xmlns="http://www.w3.org/2000/svg" xmlns:xlink="http://www.w3.org/1999/xlink"
     width="275" height="375" viewBox="0 -350 275 375">
<defs>
</defs>
<rect x="15" y="-335" width="245" height="320" stroke="black" stroke-width="4" fill="white" />
<path d="M130,-31 L152,-73 L50,-132 L221,-81 L203,-41 L223,-60 Z" stroke-width="0" fill="#ba5839" fill-opacity="0.4196078431372549" />
<path d="M211,-31 L215,-164 L78,-128 L119,-128 L183,-257 L171,-152 Z" stroke-width="0" fill="#60250c" fill-opacity="0.3176470588235294" />
<path d="M206,-90 L65,-178 L202,-42 L184,-259 L163,-187 L35,-48 Z" stroke-width="0" fill="#f9ed15" fill-opacity="0.9921568627450981" />
<path d="M167,-302 L67,-217 L223,-194 L50,-185 L31,-286 L85,-73 Z" stroke-width="0" fill="#5b3c8a" fill-opacity="0.5882352941176471" />
<path d="M74,-217 L157,-257 L88,-256 L69,-224 L185,-114 L98,-38 Z" stroke-width="0" fill="#02fa4e" fill-opacity="0.03137254901960784" />
<path d="M155,-202 L233,-33 L209,-97 L191,-76 L49,-126 L103,-136 Z" stroke-width="0" fill="#ac5715" fill-opacity="0.4549019607843137" />
<path d="M89,-144 L241,-105 L104,-291 L74,-206 L201,-25 L182,-280 Z" stroke-width="0" fill="#c5f39f" fill-opacity="0.35294117647058826" />
<path d="M49,-121 L71,-308 L232,-234 L63,-71 L96,-32 L96,-135 Z" stroke-width="0" fill="#22093f" fill-opacity="0.6862745098039216" />
<path d="M119,-213 L26,-38 L124,-61 L98,-147 L209,-114 L74,-105 Z" stroke-width="0" fill="#0f1308" fill-opacity="0.6901960784313725" />
<path d="M134,-57 L101,-210 L92,-180 L246,-194 L148,-196 L109,-178 Z" stroke-width="0" fill="#00d5b7" fill-opacity="0.9803921568627451" />
<path d="M81,-188 L120,-43 L113,-100 L64,-112 L68,-267 L34,-194 Z" stroke-width="0" fill="#31520e" fill-opacity="0.8352941176470589" />
<path d="M96,-79 L244,-251 L32,-130 L95,-36 L97,-78 L47,-50 Z" stroke-width="0" fill="#0bfdec" fill-opacity="0.9372549019607843" />
<path d="M136,-143 L170,-43 L63,-34 L171,-211 L116,-95 L172,-187 Z" stroke-width="0" fill="#814843" fill-opacity="0.7215686274509804" />
<path d="M183,-100 L210,-150 L233,-91 L70,-218 L174,-31 L212,-56 Z" stroke-width="0" fill="#f8ffca" fill-opacity="0.5450980392156862" />
<path d="M37,-53 L123,-247 L143,-139 L49,-229 L210,-269 L109,-158 Z" stroke-width="0" fill="#1c19eb" fill-opacity="0.03529411764705882" />
<path d="M79,-61 L223,-102 L117,-67 L139,-323 L133,-240 L126,-312 Z" stroke-width="0" fill="#a5b1ff" fill-opacity="0.1607843137254902" />
<path d="M200,-127 L170,-193 L243,-202 L134,-182 L57,-203 L94,-159 Z" stroke-width="0" fill="#00c3b1" fill-opacity="0.8941176470588236" />
<path d="M228,-159 L106,-29 L159,-293 L53,-28 L87,-284 L190,-61 Z" stroke-width="0" fill="#8ea38e" fill-opacity="0.6823529411764706" />
<path d="M110,-141 L137,-274 L179,-143 L86,-39 L207,-159 L171,-114 Z" stroke-width="0" fill="#6e6586" fill-opacity="0.5529411764705883" />
<path d="M181,-149 L75,-120 L78,-86 L127,-317 L106,-32 L25,-156 Z" stroke-width="0" fill="#2c4a00" fill-opacity="0.5019607843137255" />
<path d="M126,-260 L229,-214 L50,-272 L77,-192 L71,-45 L229,-59 Z" stroke-width="0" fill="#ead8c3" fill-opacity="0.6313725490196078" />
<path d="M113,-68 L71,-157 L33,-62 L113,-55 L150,-295 L120,-27 Z" stroke-width="0" fill="#f9c9db" fill-opacity="0.9725490196078431" />
<path d="M217,-205 L208,-87 L192,-228 L174,-211 L33,-277 L44,-51 Z" stroke-width="0" fill="#000000" fill-opacity="0.9725490196078431" />
<path d="M157,-251 L140,-324 L117,-165 L182,-261 L144,-243 L177,-279 Z" stroke-width="0" fill="#651a0d" fill-opacity="0.23921568627450981" />
<path d="M182,-138 L95,-195 L232,-202 L100,-67 L98,-241 L134,-122 Z" stroke-width="0" fill="#00bde0" fill-opacity="0.6862745098039216" />
<path d="M46,-157 L118,-214 L161,-95 L91,-278 L29,-34 L63,-140 Z" stroke-width="0" fill="#823a57" fill-opacity="0.7372549019607844" />
<path d="M214,-224 L97,-291 L143,-108 L127,-33 L152,-115 L31,-95 Z" stroke-width="0" fill="#050000" fill-opacity="0.7764705882352941" />
<path d="M89,-184 L48,-166 L132,-54 L219,-219 L138,-203 L71,-117 Z" stroke-width="0" fill="#01506b" fill-opacity="0.9725490196078431" />
<path d="M196,-182 L157,-311 L241,-41 L73,-182 L100,-169 L136,-36 Z" stroke-width="0" fill="#fbfb4f" fill-opacity="0.08235294117647059" />
<path d="M137,-25 L51,-127 L166,-222 L120,-160 L183,-83 L240,-109 Z" stroke-width="0" fill="#f6cbba" fill-opacity="0.8705882352941177" />
<path d="M30,-54 L219,-99 L150,-127 L246,-194 L230,-310 L39,-197 Z" stroke-width="0" fill="#000026" fill-opacity="0.6509803921568628" />
<path d="M88,-267 L194,-195 L155,-321 L49,-46 L149,-141 L45,-233 Z" stroke-width="0" fill="#338868" fill-opacity="0.25882352941176473" />
<path d="M219,-116 L120,-81 L33,-162 L214,-105 L117,-169 L133,-307 Z" stroke-width="0" fill="#daeec8" fill-opacity="0.4745098039215686" />
<path d="M98,-25 L151,-118 L248,-297 L240,-202 L47,-168 L100,-38 Z" stroke-width="0" fill="#003176" fill-opacity="0.6313725490196078" />
<path d="M77,-140 L137,-286 L150,-79 L156,-96 L123,-226 L118,-36 Z" stroke-width="0" fill="#d4bea6" fill-opacity="0.8392156862745098" />
<path d="M40,-34 L184,-79 L27,-153 L164,-147 L51,-237 L174,-187 Z" stroke-width="0" fill="#3a2148" fill-opacity="0.6313725490196078" />
<path d="M40,-141 L90,-176 L174,-70 L126,-50 L217,-91 L173,-247 Z" stroke-width="0" fill="#e8f8f2" fill-opacity="0.6431372549019608" />
<path d="M57,-170 L95,-194 L168,-146 L35,-90 L82,-238 L124,-308 Z" stroke-width="0" fill="#56e7ee" fill-opacity="0.050980392156862744" />
<path d="M164,-185 L148,-182 L152,-194 L212,-223 L196,-288 L58,-203 Z" stroke-width="0" fill="#55cbbd" fill-opacity="0.34509803921568627" />
<path d="M194,-189 L183,-156 L67,-222 L49,-183 L31,-289 L147,-38 Z" stroke-width="0" fill="#000710" fill-opacity="0.24705882352941178" />
<path d="M202,-123 L165,-189 L80,-300 L48,-92 L213,-36 L85,-140 Z" stroke-width="0" fill="#fcf0dc" fill-opacity="0.7450980392156863" />
<path d="M187,-63 L215,-237 L74,-143 L232,-218 L240,-40 L159,-86 Z" stroke-width="0" fill="#517200" fill-opacity="0.19215686274509805" />
<path d="M191,-241 L154,-153 L236,-124 L51,-227 L162,-225 L124,-186 Z" stroke-width="0" fill="#f9e4f8" fill-opacity="0.8823529411764706" />
<path d="M231,-162 L88,-237 L75,-282 L108,-85 L162,-281 L45,-202 Z" stroke-width="0" fill="#37111d" fill-opacity="0.5843137254901961" />
<path d="M200,-182 L135,-87 L117,-82 L138,-44 L72,-293 L70,-211 Z" stroke-width="0" fill="#181e00" fill-opacity="0.5215686274509804" />
<path d="M68,-305 L237,-194 L123,-30 L51,-62 L30,-322 L118,-88 Z" stroke-width="0" fill="#2c5a38" fill-opacity="0.5019607843137255" />
<path d="M242,-324 L167,-187 L135,-28 L160,-76 L174,-230 L27,-61 Z" stroke-width="0" fill="#7a6954" fill-opacity="0.4235294117647059" />
<path d="M53,-92 L32,-25 L50,-220 L122,-255 L80,-216 L205,-251 Z" stroke-width="0" fill="#3f4a45" fill-opacity="0.6352941176470588" />
<path d="M80,-319 L83,-265 L221,-189 L95,-80 L206,-94 L133,-301 Z" stroke-width="0" fill="#000000" fill-opacity="0.6549019607843137" />
<path d="M133,-107 L227,-95 L219,-246 L166,-123 L25,-184 L217,-216 Z" stroke-width="0" fill="#a49ea0" fill-opacity="0.40784313725490196" />
<path d="M120,-191 L160,-173 L222,-64 L52,-314 L44,-239 L54,-195 Z" stroke-width="0" fill="#000000" fill-opacity="0.6666666666666666" />
<path d="M133,-141 L214,-31 L174,-286 L86,-126 L91,-219 L84,-62 Z" stroke-width="0" fill="#cd3989" fill-opacity="0.4196078431372549" />
<path d="M133,-160 L179,-304 L144,-159 L52,-249 L213,-130 L235,-68 Z" stroke-width="0" fill="#e9dc86" fill-opacity="0.17254901960784313" />
<path d="M200,-89 L182,-237 L187,-210 L38,-58 L82,-281 L181,-130 Z" stroke-width="0" fill="#055212" fill-opacity="0.2901960784313726" />
<path d="M106,-53 L233,-88 L80,-168 L84,-198 L197,-132 L57,-80 Z" stroke-width="0" fill="#d9ed8d" fill-opacity="0.9882352941176471" />
<path d="M49,-152 L68,-98 L213,-196 L72,-150 L193,-316 L104,-249 Z" stroke-width="0" fill="#0e121a" fill-opacity="0.2901960784313726" />
<path d="M166,-240 L132,-203 L74,-231 L132,-62 L55,-276 L153,-324 Z" stroke-width="0" fill="#292036" fill-opacity="0.5019607843137255" />
<path d="M69,-32 L82,-209 L145,-126 L76,-140 L43,-251 L136,-90 Z" stroke-width="0" fill="#0983c7" fill-opacity="0.023529411764705882" />
<path d="M116,-295 L160,-35 L150,-310 L134,-230 L27,-139 L119,-44 Z" stroke-width="0" fill="#f64bfa" fill-opacity="0.00784313725490196" />
<path d="M81,-254 L181,-26 L43,-236 L30,-180 L117,-91 L25,-61 Z" stroke-width="0" fill="#0e0017" fill-opacity="0.5019607843137255" />
<path d="M135,-257 L236,-128 L126,-35 L195,-164 L41,-158 L128,-75 Z" stroke-width="0" fill="#f8f5f6" fill-opacity="0.1607843137254902" />
<path d="M65,-272 L190,-44 L125,-239 L140,-166 L198,-121 L139,-161 Z" stroke-width="0" fill="#cafb64" fill-opacity="0.09411764705882353" />
<path d="M71,-217 L29,-100 L124,-240 L185,-240 L225,-187 L193,-315 Z" stroke-width="0" fill="#00071d" fill-opacity="0.5647058823529412" />
<path d="M163,-74 L94,-236 L249,-42 L204,-42 L65,-182 L111,-206 Z" stroke-width="0" fill="#d6e9cd" fill-opacity="0.807843137254902" />
<path d="M208,-152 L43,-275 L207,-250 L148,-103 L215,-190 L246,-250 Z" stroke-width="0" fill="#002402" fill-opacity="0.12941176470588237" />
<path d="M65,-127 L122,-210 L237,-86 L100,-247 L35,-173 L43,-36 Z" stroke-width="0" fill="#4da37a" fill-opacity="0.5411764705882353" />
<path d="M218,-285 L138,-68 L123,-164 L95,-291 L144,-300 L152,-316 Z" stroke-width="0" fill="#020500" fill-opacity="0.3176470588235294" />
<path d="M148,-123 L70,-121 L112,-63 L88,-111 L178,-316 L244,-98 Z" stroke-width="0" fill="#9a4e39" fill-opacity="0.2196078431372549" />
<path d="M216,-59 L233,-122 L108,-33 L194,-28 L247,-239 L249,-43 Z" stroke-width="0" fill="#a18b6c" fill-opacity="0.5254901960784314" />
<path d="M69,-173 L94,-155 L82,-146 L193,-269 L126,-256 L205,-246 Z" stroke-width="0" fill="#000000" fill-opacity="0.9411764705882353" />
<path d="M186,-264 L117,-196 L163,-236 L70,-49 L95,-153 L247,-194 Z" stroke-width="0" fill="#002b9f" fill-opacity="0.5019607843137255" />
<path d="M26,-296 L130,-58 L122,-46 L163,-28 L162,-246 L130,-119 Z" stroke-width="0" fill="#bdca73" fill-opacity="0.2196078431372549" />
<path d="M78,-115 L210,-297 L42,-118 L82,-310 L111,-165 L138,-140 Z" stroke-width="0" fill="#190014" fill-opacity="0.7333333333333333" />
<path d="M147,-215 L160,-272 L27,-41 L53,-49 L98,-68 L56,-131 Z" stroke-width="0" fill="#194a36" fill-opacity="0.6784313725490196" />
<path d="M164,-47 L121,-94 L43,-66 L33,-296 L72,-270 L74,-177 Z" stroke-width="0" fill="#130000" fill-opacity="0.5019607843137255" />
<path d="M95,-263 L115,-287 L53,-170 L116,-82 L227,-107 L107,-242 Z" stroke-width="0" fill="#e8a6e9" fill-opacity="0.01568627450980392" />
<path d="M93,-243 L160,-182 L85,-219 L140,-166 L74,-172 L243,-231 Z" stroke-width="0" fill="#d4cded" fill-opacity="0.11372549019607843" />
<path d="M26,-169 L139,-229 L195,-232 L62,-26 L71,-173 L121,-58 Z" stroke-width="0" fill="#445c69" fill-opacity="0.7490196078431373" />
<path d="M159,-243 L167,-269 L84,-29 L55,-121 L166,-28 L199,-112 Z" stroke-width="0" fill="#e9d6bf" fill-opacity="0.12549019607843137" />
<path d="M193,-144 L112,-182 L68,-31 L243,-254 L41,-266 L154,-318 Z" stroke-width="0" fill="#001b00" fill-opacity="0.27450980392156865" />
<path d="M236,-111 L194,-318 L70,-222 L147,-192 L111,-274 L155,-74 Z" stroke-width="0" fill="#264251" fill-opacity="0.09019607843137255" />
<path d="M169,-180 L218,-161 L53,-79 L211,-219 L55,-153 L170,-211 Z" stroke-width="0" fill="#0b3a03" fill-opacity="0.5568627450980392" />
<path d="M244,-217 L128,-26 L91,-291 L32,-245 L43,-72 L107,-83 Z" stroke-width="0" fill="#003442" fill-opacity="0.1843137254901961" />
<path d="M27,-206 L31,-78 L137,-84 L82,-118 L107,-49 L138,-83 Z" stroke-width="0" fill="#060018" fill-opacity="0.8313725490196079" />
<path d="M126,-35 L207,-182 L208,-169 L213,-323 L97,-53 L99,-262 Z" stroke-width="0" fill="#20201a" fill-opacity="0.4666666666666667" />
<path d="M49,-223 L35,-320 L31,-310 L174,-78 L92,-45 L174,-42 Z" stroke-width="0" fill="#8aea5e" fill-opacity="0.09019607843137255" />
<path d="M194,-127 L169,-80 L46,-153 L108,-133 L63,-270 L53,-149 Z" stroke-width="0" fill="#78460c" fill-opacity="0.11764705882352941" />
<path d="M160,-220 L49,-199 L64,-241 L34,-96 L207,-220 L107,-276 Z" stroke-width="0" fill="#29261a" fill-opacity="0.2901960784313726" />
<path d="M233,-157 L150,-204 L104,-59 L84,-198 L61,-301 L96,-253 Z" stroke-width="0" fill="#140824" fill-opacity="0.2235294117647059" />
<path d="M61,-287 L241,-108 L77,-218 L93,-291 L149,-58 L111,-80 Z" stroke-width="0" fill="#3a4d34" fill-opacity="0.5019607843137255" />
<path d="M176,-156 L31,-206 L100,-65 L160,-126 L232,-180 L199,-200 Z" stroke-width="0" fill="#00002a" fill-opacity="0.615686274509804" />
<path d="M239,-222 L43,-272 L110,-110 L135,-185 L35,-121 L156,-217 Z" stroke-width="0" fill="#00000f" fill-opacity="0.5607843137254902" />
<path d="M102,-255 L63,-97 L157,-149 L41,-77 L38,-49 L193,-52 Z" stroke-width="0" fill="#9f339e" fill-opacity="0.30196078431372547" />
<path d="M127,-97 L94,-41 L51,-91 L234,-213 L81,-125 L110,-163 Z" stroke-width="0" fill="#36b005" fill-opacity="0.19215686274509805" />
<path d="M72,-148 L197,-320 L33,-105 L114,-151 L63,-121 L190,-50 Z" stroke-width="0" fill="#4a2c67" fill-opacity="0.2627450980392157" />
<path d="M28,-294 L161,-52 L134,-280 L126,-69 L151,-128 L132,-31 Z" stroke-width="0" fill="#fb6bca" fill-opacity="0.050980392156862744" />
<path d="M200,-71 L173,-171 L103,-272 L57,-125 L130,-96 L164,-108 Z" stroke-width="0" fill="#072f13" fill-opacity="0.45098039215686275" />
<path d="M238,-235 L218,-257 L47,-188 L107,-117 L113,-128 L32,-59 Z" stroke-width="0" fill="#000e82" fill-opacity="0.06666666666666667" />
<path d="M235,-108 L130,-51 L183,-215 L245,-166 L97,-198 L177,-64 Z" stroke-width="0" fill="#50552a" fill-opacity="0.00784313725490196" />
<path d="M143,-305 L219,-36 L110,-53 L165,-72 L98,-55 L146,-40 Z" stroke-width="0" fill="#a8927b" fill-opacity="0.16862745098039217" />
<text x="137.5" y="12.5" font-size="20.0" fill="black" text-anchor="middle" transform="translate(0,5.0)">VALUE</text>
</svg>