<?xml version="1.0" encoding="UTF-8"?>
<svg xmlns="http://www.w3.org/2000/svg" xmlns:xlink="http://www.w3.org/1999/xlink"
     width="896" height="1496" viewBox="0 -1400 896 1496" style="font-size:70;font-family:Poor Richard, Times New Roman;stroke:black;stroke-width:1;fill:none">
<defs>
</defs>
<path d="M574,-634 L742,-842 L514,-490 L482,-1030 L498,-1038 L418,-402 Z" stroke-width="0" fill="#aa0ba0" fill-opacity="0.592156862745098" />
<path d="M534,-1046 L662,-1206 L82,-554 L466,-786 L506,-950 L522,-438 Z" stroke-width="0" fill="#4de61b" fill-opacity="0.00784313725490196" />
<path d="M342,-1278 L554,-194 L394,-194 L630,-486 L326,-670 L146,-1130 Z" stroke-width="0" fill="#c4e468" fill-opacity="0.17254901960784313" />
<path d="M214,-778 L598,-122 L446,-734 L706,-154 L358,-878 L738,-246 Z" stroke-width="0" fill="#652733" fill-opacity="0.41568627450980394" />
<path d="M470,-922 L422,-558 L618,-786 L194,-226 L298,-490 L110,-914 Z" stroke-width="0" fill="#060021" fill-opacity="0.8392156862745098" />
<path d="M506,-658 L302,-374 L94,-642 L518,-874 L614,-802 L658,-1222 Z" stroke-width="0" fill="#814e51" fill-opacity="0.7529411764705882" />
<path d="M378,-1194 L122,-654 L190,-126 L230,-1222 L410,-174 L482,-254 Z" stroke-width="0" fill="#371366" fill-opacity="0.1843137254901961" />
<path d="M654,-582 L458,-1134 L422,-838 L462,-770 L514,-590 L558,-706 Z" stroke-width="0" fill="#451438" fill-opacity="0.13725490196078433" />
<path d="M398,-522 L506,-442 L170,-894 L514,-910 L346,-194 L190,-782 Z" stroke-width="0" fill="#650572" fill-opacity="0.47058823529411764" />
<path d="M102,-1046 L222,-750 L274,-1070 L522,-338 L574,-346 L450,-422 Z" stroke-width="0" fill="#ebee9a" fill-opacity="0.06666666666666667" />
<path d="M126,-282 L554,-566 L606,-342 L810,-250 L282,-170 L274,-694 Z" stroke-width="0" fill="#8688b5" fill-opacity="0.9764705882352941" />
<path d="M210,-918 L226,-706 L674,-950 L134,-1302 L338,-486 L418,-1050 Z" stroke-width="0" fill="#00002a" fill-opacity="0.6745098039215687" />
<path d="M258,-742 L426,-170 L662,-610 L146,-658 L802,-378 L746,-974 Z" stroke-width="0" fill="#20000c" fill-opacity="0.8431372549019608" />
<path d="M194,-1210 L674,-974 L86,-946 L234,-962 L786,-950 L498,-450 Z" stroke-width="0" fill="#faffdf" fill-opacity="0.15294117647058825" />
<path d="M86,-546 L530,-870 L482,-1034 L454,-422 L94,-626 L246,-786 Z" stroke-width="0" fill="#f5d7f6" fill-opacity="0.0196078431372549" />
<path d="M726,-1058 L138,-894 L302,-142 L634,-638 L250,-1250 L542,-602 Z" stroke-width="0" fill="#60a29c" fill-opacity="0.6078431372549019" />
<path d="M390,-526 L82,-282 L110,-1086 L374,-118 L182,-1274 L770,-1310 Z" stroke-width="0" fill="#020d28" fill-opacity="0.6980392156862745" />
<path d="M158,-510 L630,-922 L334,-530 L318,-294 L178,-1050 L538,-434 Z" stroke-width="0" fill="#85f213" fill-opacity="0.7725490196078432" />
<path d="M278,-1134 L462,-574 L502,-138 L294,-418 L654,-158 L734,-398 Z" stroke-width="0" fill="#6fffcb" fill-opacity="0.1411764705882353" />
<path d="M582,-798 L142,-922 L586,-86 L470,-262 L702,-614 L562,-590 Z" stroke-width="0" fill="#340000" fill-opacity="0.37254901960784315" />
<path d="M322,-390 L526,-142 L798,-778 L86,-1030 L254,-958 L342,-574 Z" stroke-width="0" fill="#76db8d" fill-opacity="0.023529411764705882" />
<path d="M498,-1238 L366,-802 L682,-1122 L114,-1274 L218,-370 L506,-254 Z" stroke-width="0" fill="#502e47" fill-opacity="0.6588235294117647" />
<path d="M630,-826 L346,-378 L106,-590 L442,-86 L326,-490 L578,-990 Z" stroke-width="0" fill="#9f7a75" fill-opacity="0.796078431372549" />
<path d="M130,-1254 L606,-86 L266,-762 L470,-1030 L458,-666 L134,-662 Z" stroke-width="0" fill="#527284" fill-opacity="0.8745098039215686" />
<path d="M470,-382 L170,-722 L178,-718 L334,-922 L594,-282 L206,-558 Z" stroke-width="0" fill="#4bb72e" fill-opacity="0.8156862745098039" />
<path d="M654,-694 L166,-110 L514,-202 L386,-134 L214,-730 L458,-462 Z" stroke-width="0" fill="#000000" fill-opacity="0.9686274509803922" />
<path d="M346,-634 L118,-950 L126,-1198 L410,-1210 L110,-582 L558,-386 Z" stroke-width="0" fill="#9374ac" fill-opacity="0.8392156862745098" />
<path d="M290,-470 L430,-1102 L438,-866 L590,-210 L362,-358 L690,-822 Z" stroke-width="0" fill="#1ae010" fill-opacity="0.06666666666666667" />
<path d="M374,-730 L762,-942 L738,-810 L474,-1242 L586,-1130 L258,-1230 Z" stroke-width="0" fill="#0c0809" fill-opacity="0.9686274509803922" />
<path d="M374,-790 L602,-474 L494,-162 L226,-134 L734,-566 L654,-122 Z" stroke-width="0" fill="#001d0c" fill-opacity="0.9647058823529412" />
<path d="M326,-794 L106,-358 L186,-574 L98,-830 L658,-162 L318,-910 Z" stroke-width="0" fill="#ede4d5" fill-opacity="0.7019607843137254" />
<path d="M538,-1218 L306,-426 L294,-142 L170,-458 L638,-502 L206,-1014 Z" stroke-width="0" fill="#1f032c" fill-opacity="0.9921568627450981" />
<path d="M462,-658 L270,-218 L378,-766 L474,-914 L658,-130 L574,-782 Z" stroke-width="0" fill="#9e9aa6" fill-opacity="0.9333333333333333" />
<path d="M618,-502 L746,-1246 L146,-294 L94,-1086 L138,-942 L382,-290 Z" stroke-width="0" fill="#afa594" fill-opacity="0.9137254901960784" />
<path d="M710,-190 L494,-382 L110,-510 L146,-286 L634,-482 L270,-670 Z" stroke-width="0" fill="#133b73" fill-opacity="0.25098039215686274" />
<path d="M298,-758 L286,-146 L438,-98 L310,-298 L450,-578 L278,-514 Z" stroke-width="0" fill="#0f0000" fill-opacity="0.5019607843137255" />
<path d="M434,-154 L466,-1258 L514,-934 L90,-726 L738,-338 L706,-614 Z" stroke-width="0" fill="#e3d6ad" fill-opacity="0.7019607843137254" />
<path d="M650,-314 L594,-670 L218,-914 L718,-470 L686,-1062 L606,-466 Z" stroke-width="0" fill="#030d17" fill-opacity="0.9098039215686274" />
<path d="M294,-706 L266,-174 L810,-938 L94,-234 L206,-1274 L214,-1130 Z" stroke-width="0" fill="#7b6175" fill-opacity="0.9686274509803922" />
<path d="M198,-202 L354,-142 L446,-142 L402,-110 L446,-130 L306,-858 Z" stroke-width="0" fill="#7d9d68" fill-opacity="0.7058823529411765" />
<path d="M810,-674 L726,-1066 L186,-98 L170,-934 L578,-966 L414,-434 Z" stroke-width="0" fill="#b88174" fill-opacity="0.9568627450980393" />
<path d="M446,-1138 L730,-946 L198,-786 L462,-230 L318,-1162 L98,-634 Z" stroke-width="0" fill="#aed40d" fill-opacity="0.6705882352941176" />
<path d="M286,-262 L302,-450 L790,-994 L778,-1074 L166,-758 L350,-266 Z" stroke-width="0" fill="#e7f1d4" fill-opacity="0.7019607843137254" />
<path d="M490,-470 L802,-258 L402,-870 L98,-622 L310,-350 L322,-718 Z" stroke-width="0" fill="#1c2e0c" fill-opacity="0.19215686274509805" />
<path d="M806,-1158 L798,-254 L550,-374 L186,-142 L130,-514 L178,-250 Z" stroke-width="0" fill="#61523a" fill-opacity="0.5019607843137255" />
<path d="M778,-890 L682,-830 L670,-122 L274,-126 L366,-274 L462,-782 Z" stroke-width="0" fill="#817935" fill-opacity="0.3568627450980392" />
<path d="M414,-1190 L222,-326 L294,-358 L362,-138 L510,-734 L714,-226 Z" stroke-width="0" fill="#e3eec2" fill-opacity="0.7411764705882353" />
<path d="M370,-734 L574,-1098 L498,-350 L786,-366 L498,-378 L230,-1258 Z" stroke-width="0" fill="#0c2a03" fill-opacity="0.2784313725490196" />
<path d="M758,-1126 L346,-662 L638,-1250 L654,-918 L462,-310 L550,-206 Z" stroke-width="0" fill="#ecc28d" fill-opacity="0.4627450980392157" />
<path d="M386,-766 L458,-318 L550,-378 L182,-1142 L462,-414 L266,-486 Z" stroke-width="0" fill="#edcbfa" fill-opacity="0.6901960784313725" />
<path d="M154,-446 L622,-294 L342,-290 L302,-570 L746,-230 L666,-902 Z" stroke-width="0" fill="#643faf" fill-opacity="0.027450980392156862" />
<path d="M238,-642 L366,-822 L762,-602 L318,-1214 L370,-402 L634,-622 Z" stroke-width="0" fill="#012525" fill-opacity="0.6039215686274509" />
<path d="M410,-1162 L594,-614 L690,-1034 L726,-1166 L678,-1054 L570,-714 Z" stroke-width="0" fill="#ffccf4" fill-opacity="0.6588235294117647" />
<path d="M490,-90 L202,-1118 L638,-110 L710,-258 L210,-590 L270,-478 Z" stroke-width="0" fill="#0f0f16" fill-opacity="0.30980392156862746" />
<path d="M510,-542 L530,-550 L510,-106 L770,-566 L238,-82 L374,-582 Z" stroke-width="0" fill="#383d23" fill-opacity="0.5568627450980392" />
<path d="M270,-1150 L178,-1106 L162,-146 L350,-90 L330,-818 L302,-158 Z" stroke-width="0" fill="#6e6b41" fill-opacity="0.9607843137254902" />
<path d="M646,-730 L258,-1050 L158,-242 L598,-222 L270,-726 L322,-1234 Z" stroke-width="0" fill="#cdd4ad" fill-opacity="0.7215686274509804" />
<path d="M174,-1134 L534,-170 L606,-558 L530,-706 L166,-906 L574,-614 Z" stroke-width="0" fill="#962f44" fill-opacity="0.10588235294117647" />
<path d="M198,-170 L398,-482 L722,-1074 L450,-1258 L142,-1094 L746,-134 Z" stroke-width="0" fill="#451325" fill-opacity="0.5333333333333333" />
<path d="M430,-394 L138,-1218 L278,-1110 L690,-610 L498,-638 L438,-246 Z" stroke-width="0" fill="#d8cdf4" fill-opacity="0.5019607843137255" />
<path d="M414,-190 L382,-382 L222,-874 L326,-806 L486,-586 L694,-386 Z" stroke-width="0" fill="#bbd8cc" fill-opacity="0.4745098039215686" />
<path d="M786,-390 L138,-1138 L438,-310 L778,-194 L630,-166 L758,-1182 Z" stroke-width="0" fill="#b2b19a" fill-opacity="0.3843137254901961" />
<path d="M662,-702 L502,-1190 L534,-158 L450,-810 L358,-82 L418,-1150 Z" stroke-width="0" fill="#f78f29" fill-opacity="0.8352941176470589" />
<path d="M466,-150 L422,-478 L402,-210 L326,-1062 L558,-870 L634,-262 Z" stroke-width="0" fill="#f2d7d1" fill-opacity="0.6313725490196078" />
<path d="M630,-666 L614,-1150 L518,-242 L414,-434 L350,-790 L150,-370 Z" stroke-width="0" fill="#f5ece4" fill-opacity="0.6392156862745098" />
<path d="M138,-342 L674,-542 L126,-94 L274,-586 L750,-850 L686,-938 Z" stroke-width="0" fill="#f0c39b" fill-opacity="0.6823529411764706" />
<path d="M262,-994 L474,-450 L142,-338 L262,-390 L746,-758 L446,-702 Z" stroke-width="0" fill="#b9cbcf" fill-opacity="0.7294117647058823" />
<path d="M566,-242 L534,-1234 L134,-314 L350,-130 L322,-698 L722,-746 Z" stroke-width="0" fill="#90a451" fill-opacity="0.06666666666666667" />
<path d="M650,-126 L382,-434 L94,-274 L258,-862 L274,-442 L130,-150 Z" stroke-width="0" fill="#a97987" fill-opacity="0.7490196078431373" />
<path d="M398,-338 L106,-298 L482,-754 L750,-142 L734,-670 L506,-194 Z" stroke-width="0" fill="#1b4320" fill-opacity="0.4588235294117647" />
<path d="M270,-1070 L94,-86 L222,-550 L258,-1214 L402,-382 L454,-346 Z" stroke-width="0" fill="#8d9e8a" fill-opacity="0.9803921568627451" />
<path d="M738,-334 L334,-154 L170,-1134 L254,-90 L202,-658 L190,-586 Z" stroke-width="0" fill="#bea387" fill-opacity="0.5803921568627451" />
<path d="M126,-1158 L510,-390 L770,-862 L266,-886 L770,-230 L750,-466 Z" stroke-width="0" fill="#fcf2d3" fill-opacity="0.24313725490196078" />
<path d="M678,-766 L290,-154 L526,-86 L538,-906 L410,-518 L638,-566 Z" stroke-width="0" fill="#a7807a" fill-opacity="0.8901960784313725" />
<path d="M722,-114 L790,-474 L562,-806 L674,-894 L238,-926 L386,-1078 Z" stroke-width="0" fill="#b22d17" fill-opacity="0.2784313725490196" />
<path d="M210,-550 L402,-478 L470,-426 L82,-326 L578,-806 L194,-658 Z" stroke-width="0" fill="#0d1418" fill-opacity="0.9764705882352941" />
<path d="M710,-1034 L246,-722 L630,-130 L450,-218 L414,-1278 L134,-98 Z" stroke-width="0" fill="#d96d4c" fill-opacity="0.1803921568627451" />
<path d="M210,-418 L190,-282 L526,-974 L486,-146 L454,-258 L118,-1218 Z" stroke-width="0" fill="#b8c8a2" fill-opacity="0.5647058823529412" />
<path d="M86,-426 L150,-202 L298,-614 L662,-362 L246,-134 L438,-634 Z" stroke-width="0" fill="#964e5e" fill-opacity="0.7372549019607844" />
<path d="M626,-230 L626,-458 L762,-510 L390,-414 L490,-386 L394,-922 Z" stroke-width="0" fill="#632568" fill-opacity="0.20392156862745098" />
<path d="M302,-818 L394,-1198 L702,-762 L474,-234 L306,-946 L730,-1014 Z" stroke-width="0" fill="#c8f3b3" fill-opacity="0.24313725490196078" />
<path d="M786,-210 L178,-926 L238,-898 L406,-670 L342,-898 L258,-714 Z" stroke-width="0" fill="#b5c68c" fill-opacity="0.26666666666666666" />
<path d="M410,-310 L506,-1074 L738,-550 L278,-350 L98,-766 L626,-1186 Z" stroke-width="0" fill="#f3c7dd" fill-opacity="0.37254901960784315" />
<path d="M118,-630 L626,-102 L166,-218 L514,-814 L522,-918 L350,-478 Z" stroke-width="0" fill="#8d797c" fill-opacity="0.5019607843137255" />
<path d="M362,-286 L622,-846 L694,-786 L290,-214 L394,-250 L394,-1158 Z" stroke-width="0" fill="#a65106" fill-opacity="0.16862745098039217" />
<path d="M618,-1282 L226,-650 L506,-1002 L238,-498 L542,-1026 L410,-482 Z" stroke-width="0" fill="#d59868" fill-opacity="0.26666666666666666" />
<path d="M118,-174 L310,-714 L378,-310 L522,-758 L118,-654 L118,-566 Z" stroke-width="0" fill="#908c75" fill-opacity="0.8941176470588236" />
<path d="M370,-1050 L726,-514 L190,-126 L502,-890 L142,-914 L410,-1034 Z" stroke-width="0" fill="#539971" fill-opacity="0.25882352941176473" />
<path d="M98,-558 L682,-742 L246,-1078 L462,-214 L710,-1106 L350,-118 Z" stroke-width="0" fill="#9e5f84" fill-opacity="0.12549019607843137" />
<path d="M406,-386 L774,-1082 L530,-310 L626,-686 L206,-326 L810,-1098 Z" stroke-width="0" fill="#d73a68" fill-opacity="0.12549019607843137" />
<path d="M490,-186 L334,-1082 L738,-1242 L110,-1138 L642,-1058 L530,-1018 Z" stroke-width="0" fill="#d2f2a9" fill-opacity="0.27058823529411763" />
<path d="M638,-150 L294,-514 L526,-258 L178,-926 L702,-222 L542,-450 Z" stroke-width="0" fill="#ecd7a7" fill-opacity="0.40784313725490196" />
<path d="M270,-330 L574,-238 L746,-1254 L690,-474 L90,-226 L750,-526 Z" stroke-width="0" fill="#b68797" fill-opacity="0.3686274509803922" />
<path d="M146,-922 L386,-146 L274,-998 L94,-658 L506,-1102 L270,-1014 Z" stroke-width="0" fill="#75aac7" fill-opacity="0.050980392156862744" />
<path d="M618,-894 L306,-402 L694,-302 L750,-530 L542,-646 L718,-194 Z" stroke-width="0" fill="#7f8168" fill-opacity="0.32941176470588235" />
<path d="M202,-390 L786,-1230 L210,-1250 L574,-522 L414,-230 L374,-830 Z" stroke-width="0" fill="#9d92c0" fill-opacity="0.40784313725490196" />
<path d="M142,-1198 L786,-306 L302,-1230 L778,-1070 L558,-562 L342,-850 Z" stroke-width="0" fill="#91ecd1" fill-opacity="0.34509803921568627" />
<path d="M138,-762 L230,-534 L518,-202 L438,-666 L334,-1062 L690,-326 Z" stroke-width="0" fill="#6b1000" fill-opacity="0.09019607843137255" />
<path d="M434,-570 L614,-202 L802,-246 L122,-1042 L582,-822 L722,-966 Z" stroke-width="0" fill="#dbc8a4" fill-opacity="0.22745098039215686" />
<path d="M194,-746 L102,-138 L190,-1166 L106,-666 L214,-134 L138,-826 Z" stroke-width="0" fill="#73668b" fill-opacity="0.1450980392156863" />
<text x="448.0" y="0" font-size="70.0" fill="black" text-anchor="middle" transform="translate(0,17.5)">WAR</text>
</svg>