<?xml version="1.0" encoding="UTF-8"?>
<svg xmlns="http://www.w3.org/2000/svg" xmlns:xlink="http://www.w3.org/1999/xlink"
     width="275" height="375" viewBox="0 -350 275 375">
<defs>
</defs>
<rect x="15" y="-335" width="245" height="320" stroke="black" stroke-width="4" fill="white" />
<path d="M214,-286 L67,-182 L225,-57 L145,-71 L228,-212 L26,-319 Z" stroke-width="0" fill="#a38864" fill-opacity="0.5019607843137255" />
<path d="M238,-174 L80,-241 L31,-73 L159,-157 L85,-88 L101,-105 Z" stroke-width="0" fill="#044957" fill-opacity="0.8" />
<path d="M224,-242 L182,-152 L102,-104 L175,-281 L31,-219 L59,-316 Z" stroke-width="0" fill="#d6e497" fill-opacity="0.28627450980392155" />
<path d="M46,-145 L54,-118 L57,-251 L154,-104 L232,-197 L88,-98 Z" stroke-width="0" fill="#b48be1" fill-opacity="0.00392156862745098" />
<path d="M163,-60 L30,-133 L135,-55 L25,-299 L84,-77 L193,-228 Z" stroke-width="0" fill="#62553a" fill-opacity="0.5411764705882353" />
<path d="M215,-73 L99,-250 L236,-78 L217,-161 L134,-281 L80,-88 Z" stroke-width="0" fill="#1c1209" fill-opacity="0.8980392156862745" />
<path d="M241,-185 L30,-290 L171,-165 L139,-212 L205,-316 L34,-48 Z" stroke-width="0" fill="#8f9676" fill-opacity="0.6078431372549019" />
<path d="M98,-208 L217,-66 L42,-273 L68,-192 L105,-323 L92,-242 Z" stroke-width="0" fill="#abb96c" fill-opacity="0.49411764705882355" />
<path d="M96,-256 L239,-47 L151,-61 L179,-264 L37,-39 L227,-238 Z" stroke-width="0" fill="#892b00" fill-opacity="0.6313725490196078" />
<path d="M218,-119 L191,-93 L63,-260 L77,-101 L142,-283 L165,-73 Z" stroke-width="0" fill="#04dffc" fill-opacity="0.611764705882353" />
<path d="M167,-32 L110,-55 L214,-322 L215,-254 L100,-228 L61,-33 Z" stroke-width="0" fill="#314400" fill-opacity="0.5019607843137255" />
<path d="M59,-252 L121,-179 L35,-121 L231,-145 L223,-70 L224,-40 Z" stroke-width="0" fill="#3e280c" fill-opacity="0.7568627450980392" />
<path d="M183,-181 L180,-182 L27,-205 L199,-168 L144,-70 L44,-54 Z" stroke-width="0" fill="#aeeb97" fill-opacity="0.8196078431372549" />
<path d="M209,-294 L182,-110 L40,-160 L90,-68 L160,-242 L182,-39 Z" stroke-width="0" fill="#ecb7a6" fill-opacity="0.4823529411764706" />
<path d="M158,-173 L98,-256 L58,-308 L131,-230 L25,-198 L107,-66 Z" stroke-width="0" fill="#21ac45" fill-opacity="0.4980392156862745" />
<path d="M79,-297 L247,-133 L57,-262 L136,-176 L64,-104 L35,-278 Z" stroke-width="0" fill="#2a2909" fill-opacity="0.8666666666666667" />
<path d="M158,-291 L217,-306 L44,-39 L87,-35 L71,-184 L143,-188 Z" stroke-width="0" fill="#285013" fill-opacity="0.36470588235294116" />
<path d="M202,-69 L153,-238 L189,-307 L117,-179 L113,-266 L77,-229 Z" stroke-width="0" fill="#889176" fill-opacity="0.8901960784313725" />
<path d="M100,-61 L165,-217 L190,-106 L124,-103 L101,-242 L155,-59 Z" stroke-width="0" fill="#7d1ddc" fill-opacity="0.5058823529411764" />
<path d="M102,-61 L36,-268 L28,-70 L192,-41 L30,-100 L46,-73 Z" stroke-width="0" fill="#000000" fill-opacity="0.7529411764705882" />
<path d="M49,-30 L206,-79 L33,-85 L80,-127 L152,-245 L64,-216 Z" stroke-width="0" fill="#000900" fill-opacity="0.8117647058823529" />
<path d="M223,-146 L216,-73 L140,-323 L199,-95 L87,-152 L116,-96 Z" stroke-width="0" fill="#916c59" fill-opacity="0.5725490196078431" />
<path d="M58,-72 L240,-147 L90,-173 L143,-240 L86,-40 L64,-158 Z" stroke-width="0" fill="#881f49" fill-opacity="0.7725490196078432" />
<path d="M184,-138 L56,-269 L93,-280 L194,-42 L100,-47 L142,-102 Z" stroke-width="0" fill="#d76b1b" fill-opacity="0.09803921568627451" />
<path d="M140,-115 L94,-54 L131,-73 L160,-114 L67,-296 L210,-57 Z" stroke-width="0" fill="#8d4b1e" fill-opacity="0.011764705882352941" />
<path d="M174,-48 L234,-108 L50,-230 L98,-131 L239,-299 L161,-161 Z" stroke-width="0" fill="#1d531b" fill-opacity="0.5215686274509804" />
<path d="M183,-161 L148,-293 L144,-254 L113,-121 L153,-72 L175,-124 Z" stroke-width="0" fill="#e4f8c8" fill-opacity="0.30196078431372547" />
<path d="M105,-196 L230,-134 L198,-39 L37,-223 L207,-42 L130,-55 Z" stroke-width="0" fill="#f9e6d0" fill-opacity="0.6274509803921569" />
<path d="M159,-102 L219,-27 L95,-98 L191,-70 L228,-115 L215,-28 Z" stroke-width="0" fill="#6d5800" fill-opacity="0.9215686274509803" />
<path d="M156,-177 L64,-79 L204,-198 L142,-313 L132,-291 L177,-84 Z" stroke-width="0" fill="#66602d" fill-opacity="0.6196078431372549" />
<path d="M179,-309 L52,-252 L121,-31 L80,-184 L70,-259 L221,-70 Z" stroke-width="0" fill="#9d8d88" fill-opacity="0.7215686274509804" />
<path d="M42,-179 L145,-88 L173,-221 L63,-104 L226,-73 L26,-211 Z" stroke-width="0" fill="#5c5739" fill-opacity="0.5019607843137255" />
<path d="M157,-204 L117,-324 L148,-143 L154,-99 L213,-264 L148,-182 Z" stroke-width="0" fill="#61642c" fill-opacity="0.4627450980392157" />
<path d="M112,-54 L129,-120 L110,-299 L157,-256 L158,-200 L189,-323 Z" stroke-width="0" fill="#728c63" fill-opacity="0.8784313725490196" />
<path d="M236,-296 L97,-48 L25,-256 L69,-316 L241,-141 L57,-93 Z" stroke-width="0" fill="#b6958a" fill-opacity="0.8313725490196079" />
<path d="M74,-251 L103,-230 L120,-264 L82,-172 L136,-151 L191,-154 Z" stroke-width="0" fill="#1b3d27" fill-opacity="0.8745098039215686" />
<path d="M176,-199 L163,-248 L131,-31 L194,-232 L215,-76 L76,-57 Z" stroke-width="0" fill="#fc9019" fill-opacity="0.6941176470588235" />
<path d="M87,-129 L65,-81 L172,-185 L80,-264 L26,-195 L57,-135 Z" stroke-width="0" fill="#976b66" fill-opacity="0.5803921568627451" />
<path d="M208,-234 L93,-256 L44,-158 L70,-71 L236,-117 L197,-219 Z" stroke-width="0" fill="#f1fcaa" fill-opacity="0.996078431372549" />
<path d="M143,-139 L170,-281 L184,-76 L104,-139 L85,-190 L75,-208 Z" stroke-width="0" fill="#89fde3" fill-opacity="0.27450980392156865" />
<path d="M50,-203 L35,-90 L145,-75 L71,-284 L215,-56 L63,-212 Z" stroke-width="0" fill="#3afcf2" fill-opacity="0.23137254901960785" />
<path d="M52,-35 L184,-44 L101,-90 L50,-166 L30,-230 L83,-137 Z" stroke-width="0" fill="#49233c" fill-opacity="0.6235294117647059" />
<path d="M125,-120 L98,-172 L178,-240 L235,-134 L177,-80 L96,-102 Z" stroke-width="0" fill="#de7f3c" fill-opacity="0.5450980392156862" />
<path d="M75,-308 L180,-117 L41,-238 L223,-311 L151,-271 L90,-49 Z" stroke-width="0" fill="#ba9c99" fill-opacity="0.2980392156862745" />
<path d="M35,-88 L165,-183 L106,-69 L124,-128 L31,-113 L25,-278 Z" stroke-width="0" fill="#2f4212" fill-opacity="0.5019607843137255" />
<path d="M146,-39 L135,-110 L141,-157 L75,-97 L249,-171 L230,-249 Z" stroke-width="0" fill="#0c4a0f" fill-opacity="0.1568627450980392" />
<path d="M183,-225 L215,-138 L192,-56 L87,-67 L159,-141 L46,-186 Z" stroke-width="0" fill="#b6260a" fill-opacity="0.5764705882352941" />
<path d="M157,-254 L38,-288 L49,-91 L202,-164 L69,-303 L133,-213 Z" stroke-width="0" fill="#d9d9db" fill-opacity="0.5176470588235295" />
<path d="M238,-122 L222,-210 L58,-35 L99,-148 L75,-149 L143,-163 Z" stroke-width="0" fill="#191d15" fill-opacity="0.8941176470588236" />
<path d="M66,-51 L44,-165 L108,-114 L188,-244 L168,-161 L103,-31 Z" stroke-width="0" fill="#051713" fill-opacity="0.7372549019607844" />
<path d="M37,-184 L139,-52 L135,-141 L112,-52 L48,-313 L37,-135 Z" stroke-width="0" fill="#7a5f11" fill-opacity="0.1411764705882353" />
<path d="M223,-297 L31,-42 L128,-159 L168,-255 L86,-86 L33,-31 Z" stroke-width="0" fill="#000000" fill-opacity="0.6666666666666666" />
<path d="M67,-279 L49,-200 L107,-92 L199,-110 L47,-193 L134,-253 Z" stroke-width="0" fill="#5f282b" fill-opacity="0.2980392156862745" />
<path d="M55,-309 L142,-97 L204,-60 L164,-184 L103,-222 L26,-250 Z" stroke-width="0" fill="#837d45" fill-opacity="0.44313725490196076" />
<path d="M43,-255 L234,-264 L120,-125 L70,-170 L122,-291 L163,-61 Z" stroke-width="0" fill="#e1faf2" fill-opacity="0.8941176470588236" />
<path d="M90,-70 L130,-186 L91,-309 L145,-85 L56,-256 L158,-108 Z" stroke-width="0" fill="#e2f7ee" fill-opacity="0.7176470588235294" />
<path d="M230,-220 L33,-261 L49,-74 L107,-87 L94,-53 L65,-248 Z" stroke-width="0" fill="#c6f7b8" fill-opacity="0.28627450980392155" />
<path d="M130,-149 L43,-252 L104,-78 L153,-150 L65,-74 L226,-46 Z" stroke-width="0" fill="#343e29" fill-opacity="0.32941176470588235" />
<path d="M249,-104 L233,-221 L158,-74 L179,-50 L171,-49 L52,-104 Z" stroke-width="0" fill="#081800" fill-opacity="0.5882352941176471" />
<path d="M64,-162 L108,-184 L63,-68 L33,-53 L158,-174 L80,-321 Z" stroke-width="0" fill="#c79c70" fill-opacity="0.3686274509803922" />
<path d="M85,-87 L195,-107 L49,-306 L141,-214 L65,-113 L133,-217 Z" stroke-width="0" fill="#b95b6d" fill-opacity="0.25098039215686274" />
<path d="M67,-142 L110,-234 L118,-37 L55,-109 L170,-148 L53,-72 Z" stroke-width="0" fill="#524efe" fill-opacity="0.23921568627450981" />
<path d="M27,-48 L56,-250 L40,-219 L178,-84 L26,-43 L100,-283 Z" stroke-width="0" fill="#312524" fill-opacity="0.9254901960784314" />
<path d="M125,-181 L108,-119 L229,-65 L121,-31 L155,-198 L163,-47 Z" stroke-width="0" fill="#1e0018" fill-opacity="0.26666666666666666" />
<path d="M216,-190 L149,-230 L128,-319 L159,-108 L29,-310 L65,-111 Z" stroke-width="0" fill="#a39f85" fill-opacity="0.6470588235294118" />
<path d="M57,-320 L58,-215 L100,-164 L116,-318 L77,-125 L235,-201 Z" stroke-width="0" fill="#dcabdc" fill-opacity="0.12156862745098039" />
<path d="M230,-210 L173,-164 L200,-276 L243,-280 L232,-165 L58,-317 Z" stroke-width="0" fill="#dabb82" fill-opacity="0.5294117647058824" />
<path d="M201,-65 L81,-109 L235,-239 L35,-80 L52,-258 L215,-151 Z" stroke-width="0" fill="#81534b" fill-opacity="0.21568627450980393" />
<path d="M34,-235 L27,-253 L49,-283 L184,-152 L82,-245 L182,-75 Z" stroke-width="0" fill="#7d9792" fill-opacity="0.6588235294117647" />
<path d="M181,-227 L43,-245 L66,-159 L84,-168 L166,-29 L55,-220 Z" stroke-width="0" fill="#e4e5a8" fill-opacity="0.6431372549019608" />
<path d="M74,-155 L202,-243 L73,-320 L230,-32 L113,-51 L188,-198 Z" stroke-width="0" fill="#d5b677" fill-opacity="0.4980392156862745" />
<path d="M38,-259 L187,-218 L166,-215 L80,-317 L87,-237 L137,-52 Z" stroke-width="0" fill="#c8c2c5" fill-opacity="0.23529411764705882" />
<path d="M78,-100 L119,-297 L232,-119 L216,-276 L88,-275 L63,-171 Z" stroke-width="0" fill="#d6ccf5" fill-opacity="0.1843137254901961" />
<path d="M104,-170 L56,-47 L158,-173 L166,-265 L184,-168 L29,-220 Z" stroke-width="0" fill="#b2d9df" fill-opacity="0.03137254901960784" />
<path d="M205,-131 L123,-254 L223,-240 L66,-199 L242,-70 L47,-263 Z" stroke-width="0" fill="#f5fcdc" fill-opacity="0.4196078431372549" />
<path d="M126,-107 L51,-246 L56,-227 L119,-304 L94,-315 L54,-130 Z" stroke-width="0" fill="#3f1923" fill-opacity="0.403921568627451" />
<path d="M105,-202 L241,-73 L118,-239 L121,-33 L176,-131 L47,-311 Z" stroke-width="0" fill="#d5bd8d" fill-opacity="0.06666666666666667" />
<path d="M169,-38 L133,-214 L175,-83 L113,-104 L163,-242 L205,-72 Z" stroke-width="0" fill="#e00a32" fill-opacity="0.043137254901960784" />
<path d="M143,-196 L130,-125 L58,-122 L212,-203 L107,-271 L175,-52 Z" stroke-width="0" fill="#dce9f0" fill-opacity="0.5333333333333333" />
<path d="M141,-195 L171,-260 L184,-184 L191,-32 L121,-27 L46,-104 Z" stroke-width="0" fill="#401f0c" fill-opacity="0.6235294117647059" />
<path d="M64,-228 L85,-119 L92,-246 L37,-298 L86,-306 L244,-31 Z" stroke-width="0" fill="#93ba86" fill-opacity="0.43137254901960786" />
<path d="M213,-273 L226,-98 L203,-236 L37,-170 L195,-261 L227,-167 Z" stroke-width="0" fill="#faf0fb" fill-opacity="0.5450980392156862" />
<path d="M234,-90 L155,-160 L248,-170 L94,-180 L43,-143 L33,-161 Z" stroke-width="0" fill="#18081d" fill-opacity="0.7725490196078432" />
<path d="M68,-229 L57,-262 L66,-46 L110,-288 L90,-189 L174,-74 Z" stroke-width="0" fill="#362e36" fill-opacity="0.09803921568627451" />
<path d="M43,-270 L57,-112 L56,-160 L96,-311 L244,-114 L104,-117 Z" stroke-width="0" fill="#d1f1cf" fill-opacity="0.03137254901960784" />
<path d="M172,-57 L229,-56 L71,-41 L98,-84 L66,-191 L67,-268 Z" stroke-width="0" fill="#34726d" fill-opacity="0.06274509803921569" />
<path d="M86,-191 L115,-260 L174,-122 L118,-57 L25,-104 L154,-254 Z" stroke-width="0" fill="#807084" fill-opacity="0.0784313725490196" />
<path d="M124,-173 L147,-322 L163,-149 L216,-26 L46,-231 L129,-141 Z" stroke-width="0" fill="#64dc41" fill-opacity="0.03137254901960784" />
<path d="M217,-76 L100,-48 L101,-192 L41,-128 L45,-51 L218,-160 Z" stroke-width="0" fill="#442526" fill-opacity="0.24313725490196078" />
<path d="M164,-225 L151,-138 L207,-198 L71,-214 L218,-179 L206,-87 Z" stroke-width="0" fill="#e3d86e" fill-opacity="0.2549019607843137" />
<path d="M159,-300 L226,-162 L47,-157 L96,-308 L187,-193 L230,-109 Z" stroke-width="0" fill="#fcdfc7" fill-opacity="0.13333333333333333" />
<path d="M247,-104 L120,-99 L141,-34 L190,-254 L147,-215 L190,-321 Z" stroke-width="0" fill="#f7b540" fill-opacity="0.12549019607843137" />
<path d="M49,-96 L32,-220 L134,-261 L58,-41 L45,-288 L35,-179 Z" stroke-width="0" fill="#ffae6e" fill-opacity="0.11372549019607843" />
<path d="M62,-77 L130,-153 L140,-90 L114,-85 L165,-38 L145,-210 Z" stroke-width="0" fill="#060c39" fill-opacity="0.2235294117647059" />
<path d="M47,-106 L244,-38 L74,-70 L171,-98 L106,-294 L140,-234 Z" stroke-width="0" fill="#304c1d" fill-opacity="0.0784313725490196" />
<path d="M33,-79 L90,-65 L76,-85 L222,-201 L215,-58 L228,-275 Z" stroke-width="0" fill="#d9e222" fill-opacity="0.01568627450980392" />
<path d="M203,-232 L182,-30 L147,-136 L30,-158 L141,-249 L164,-58 Z" stroke-width="0" fill="#e7d834" fill-opacity="0.07058823529411765" />
<path d="M122,-162 L222,-269 L126,-226 L177,-196 L113,-172 L38,-46 Z" stroke-width="0" fill="#e3e64e" fill-opacity="0.07058823529411765" />
<path d="M82,-271 L234,-224 L156,-119 L73,-296 L145,-130 L243,-234 Z" stroke-width="0" fill="#e3bbb1" fill-opacity="0.24705882352941178" />
<path d="M193,-233 L85,-39 L99,-206 L96,-233 L68,-105 L249,-166 Z" stroke-width="0" fill="#0e8203" fill-opacity="0.043137254901960784" />
<text x="137.5" y="12.5" font-size="20.0" fill="black" text-anchor="middle" transform="translate(0,5.0)">WAR</text>
</svg>