<?xml version="1.0" encoding="UTF-8"?>
<svg xmlns="http://www.w3.org/2000/svg" xmlns:xlink="http://www.w3.org/1999/xlink"
     width="896" height="1496" viewBox="0 -1400 896 1496" style="font-size:70;font-family:Poor Richard, Times New Roman;stroke:black;stroke-width:1;fill:none">
<defs>
</defs>
<path d="M386,-546 L242,-458 L350,-406 L554,-462 L798,-610 L594,-798 Z" stroke-width="0" fill="#4b1b70" fill-opacity="0.41568627450980394" />
<path d="M578,-314 L162,-886 L758,-442 L330,-1270 L550,-1290 L102,-694 Z" stroke-width="0" fill="#042225" fill-opacity="0.5176470588235295" />
<path d="M594,-506 L362,-186 L106,-818 L582,-422 L322,-878 L94,-494 Z" stroke-width="0" fill="#005a32" fill-opacity="0.5725490196078431" />
<path d="M710,-1102 L322,-438 L210,-462 L386,-906 L494,-758 L810,-450 Z" stroke-width="0" fill="#93a8ba" fill-opacity="0.8352941176470589" />
<path d="M530,-610 L98,-1146 L246,-618 L290,-886 L222,-714 L594,-922 Z" stroke-width="0" fill="#148994" fill-opacity="0.8156862745098039" />
<path d="M682,-1294 L334,-770 L754,-922 L278,-150 L298,-202 L802,-798 Z" stroke-width="0" fill="#e0ff3f" fill-opacity="0.2627450980392157" />
<path d="M618,-722 L294,-966 L550,-110 L522,-886 L486,-1254 L550,-246 Z" stroke-width="0" fill="#d3090f" fill-opacity="0.9803921568627451" />
<path d="M314,-550 L378,-690 L82,-210 L106,-502 L762,-962 L194,-498 Z" stroke-width="0" fill="#030200" fill-opacity="0.19607843137254902" />
<path d="M310,-1154 L258,-682 L578,-606 L806,-198 L238,-402 L550,-1218 Z" stroke-width="0" fill="#a71c00" fill-opacity="0.5803921568627451" />
<path d="M810,-682 L302,-142 L694,-702 L414,-402 L306,-258 L602,-1174 Z" stroke-width="0" fill="#b5d48e" fill-opacity="0.23529411764705882" />
<path d="M342,-774 L90,-286 L574,-238 L134,-514 L362,-114 L426,-250 Z" stroke-width="0" fill="#82548d" fill-opacity="0.13333333333333333" />
<path d="M558,-686 L554,-650 L314,-990 L566,-978 L126,-1218 L150,-1142 Z" stroke-width="0" fill="#007455" fill-opacity="0.6862745098039216" />
<path d="M586,-1230 L106,-586 L422,-218 L718,-130 L778,-950 L322,-662 Z" stroke-width="0" fill="#9e1ad1" fill-opacity="0.34901960784313724" />
<path d="M150,-1258 L294,-398 L670,-1146 L546,-586 L750,-90 L298,-738 Z" stroke-width="0" fill="#ac831b" fill-opacity="0.5019607843137255" />
<path d="M658,-202 L754,-766 L214,-342 L194,-334 L398,-242 L370,-642 Z" stroke-width="0" fill="#fed052" fill-opacity="0.1568627450980392" />
<path d="M578,-422 L566,-474 L154,-722 L734,-202 L174,-674 L734,-586 Z" stroke-width="0" fill="#f40047" fill-opacity="0.984313725490196" />
<path d="M314,-782 L110,-1142 L690,-1238 L794,-382 L810,-810 L190,-1106 Z" stroke-width="0" fill="#94974c" fill-opacity="0.6549019607843137" />
<path d="M650,-758 L334,-1166 L326,-1086 L302,-474 L582,-214 L434,-430 Z" stroke-width="0" fill="#050d07" fill-opacity="0.9333333333333333" />
<path d="M310,-582 L562,-322 L274,-706 L702,-1294 L718,-474 L274,-350 Z" stroke-width="0" fill="#634450" fill-opacity="0.6549019607843137" />
<path d="M470,-1094 L98,-310 L146,-1058 L426,-142 L458,-506 L450,-610 Z" stroke-width="0" fill="#359948" fill-opacity="0.6039215686274509" />
<path d="M710,-898 L434,-682 L634,-330 L242,-1054 L766,-286 L150,-298 Z" stroke-width="0" fill="#6bf7e8" fill-opacity="0.6705882352941176" />
<path d="M294,-418 L114,-490 L738,-166 L362,-218 L598,-878 L114,-882 Z" stroke-width="0" fill="#276a23" fill-opacity="0.5254901960784314" />
<path d="M566,-582 L370,-418 L430,-802 L662,-298 L806,-118 L286,-114 Z" stroke-width="0" fill="#cf5a00" fill-opacity="0.7333333333333333" />
<path d="M194,-298 L686,-1238 L530,-626 L414,-230 L262,-1186 L214,-402 Z" stroke-width="0" fill="#f5f4f9" fill-opacity="0.6784313725490196" />
<path d="M378,-518 L654,-1170 L94,-1262 L370,-834 L658,-1090 L618,-974 Z" stroke-width="0" fill="#1c85a1" fill-opacity="0.7568627450980392" />
<path d="M130,-306 L170,-1094 L94,-178 L230,-710 L242,-178 L370,-1106 Z" stroke-width="0" fill="#4e8071" fill-opacity="0.5411764705882353" />
<path d="M742,-98 L90,-202 L626,-1266 L442,-326 L446,-302 L418,-646 Z" stroke-width="0" fill="#99282c" fill-opacity="0.3803921568627451" />
<path d="M462,-850 L330,-990 L210,-350 L298,-94 L414,-154 L258,-358 Z" stroke-width="0" fill="#6dba8d" fill-opacity="0.7607843137254902" />
<path d="M674,-582 L782,-406 L394,-1170 L110,-282 L346,-238 L426,-666 Z" stroke-width="0" fill="#5dd086" fill-opacity="0.3607843137254902" />
<path d="M490,-130 L362,-598 L442,-498 L758,-1150 L150,-742 L782,-938 Z" stroke-width="0" fill="#66b439" fill-opacity="0.16470588235294117" />
<path d="M194,-782 L474,-906 L134,-814 L590,-1102 L318,-706 L406,-102 Z" stroke-width="0" fill="#56ed04" fill-opacity="0.5372549019607843" />
<path d="M422,-126 L130,-370 L242,-702 L798,-978 L746,-226 L646,-854 Z" stroke-width="0" fill="#8ead38" fill-opacity="0.5882352941176471" />
<path d="M274,-1162 L590,-802 L174,-938 L546,-922 L506,-778 L218,-186 Z" stroke-width="0" fill="#55d22d" fill-opacity="0.9137254901960784" />
<path d="M614,-414 L194,-590 L682,-330 L286,-934 L590,-746 L418,-398 Z" stroke-width="0" fill="#35eaac" fill-opacity="0.9529411764705882" />
<path d="M598,-234 L458,-630 L94,-1110 L582,-162 L346,-130 L602,-1214 Z" stroke-width="0" fill="#9cb8a2" fill-opacity="0.5647058823529412" />
<path d="M454,-266 L198,-1038 L614,-174 L770,-1058 L138,-742 L298,-1110 Z" stroke-width="0" fill="#d4cbbd" fill-opacity="0.08627450980392157" />
<path d="M146,-1226 L310,-590 L494,-830 L746,-486 L678,-726 L350,-402 Z" stroke-width="0" fill="#c2466c" fill-opacity="0.40784313725490196" />
<path d="M306,-958 L382,-286 L614,-386 L466,-342 L474,-322 L378,-586 Z" stroke-width="0" fill="#19e9a3" fill-opacity="0.8509803921568627" />
<path d="M810,-822 L454,-1118 L346,-454 L118,-902 L238,-1230 L130,-246 Z" stroke-width="0" fill="#45915d" fill-opacity="0.3137254901960784" />
<path d="M406,-1158 L142,-286 L246,-510 L482,-1154 L318,-854 L214,-730 Z" stroke-width="0" fill="#87a3b4" fill-opacity="0.5137254901960784" />
<path d="M354,-414 L794,-1218 L422,-1298 L206,-242 L110,-94 L694,-370 Z" stroke-width="0" fill="#dce8fd" fill-opacity="0.9647058823529412" />
<path d="M174,-874 L158,-590 L794,-326 L458,-742 L574,-618 L466,-1150 Z" stroke-width="0" fill="#531561" fill-opacity="0.2549019607843137" />
<path d="M746,-710 L338,-1242 L578,-646 L134,-214 L462,-842 L790,-1246 Z" stroke-width="0" fill="#ebe3f8" fill-opacity="0.15294117647058825" />
<path d="M122,-774 L674,-930 L562,-834 L466,-966 L434,-950 L370,-370 Z" stroke-width="0" fill="#5b6c66" fill-opacity="0.611764705882353" />
<path d="M274,-1230 L190,-178 L206,-1058 L778,-162 L82,-654 L738,-386 Z" stroke-width="0" fill="#860719" fill-opacity="0.4980392156862745" />
<path d="M162,-842 L134,-718 L250,-578 L414,-246 L606,-542 L430,-438 Z" stroke-width="0" fill="#cf7c14" fill-opacity="0.27058823529411763" />
<path d="M306,-958 L234,-1058 L622,-310 L578,-262 L90,-442 L734,-542 Z" stroke-width="0" fill="#ae99bd" fill-opacity="0.25098039215686274" />
<path d="M666,-990 L286,-526 L618,-806 L206,-170 L346,-918 L798,-654 Z" stroke-width="0" fill="#a5afad" fill-opacity="0.28627450980392155" />
<path d="M326,-358 L182,-438 L522,-174 L718,-1162 L642,-538 L598,-1182 Z" stroke-width="0" fill="#c067e4" fill-opacity="0.027450980392156862" />
<path d="M618,-354 L218,-1174 L562,-1042 L314,-998 L390,-466 L142,-574 Z" stroke-width="0" fill="#0e9c84" fill-opacity="0.788235294117647" />
<path d="M610,-982 L470,-1130 L338,-266 L110,-950 L614,-98 L578,-558 Z" stroke-width="0" fill="#a23400" fill-opacity="0.41568627450980394" />
<path d="M486,-810 L134,-754 L298,-1066 L302,-850 L598,-918 L274,-242 Z" stroke-width="0" fill="#699926" fill-opacity="0.1803921568627451" />
<path d="M102,-198 L326,-430 L418,-858 L390,-510 L670,-738 L418,-270 Z" stroke-width="0" fill="#4d7561" fill-opacity="0.5019607843137255" />
<path d="M642,-482 L254,-1298 L286,-1254 L206,-918 L386,-754 L726,-338 Z" stroke-width="0" fill="#04bf4f" fill-opacity="0.6" />
<path d="M290,-770 L582,-114 L310,-106 L706,-442 L258,-430 L114,-134 Z" stroke-width="0" fill="#909d7d" fill-opacity="0.8784313725490196" />
<path d="M750,-246 L234,-594 L430,-414 L282,-962 L474,-102 L630,-210 Z" stroke-width="0" fill="#e1fb48" fill-opacity="0.06274509803921569" />
<path d="M318,-314 L318,-1010 L86,-1002 L798,-374 L710,-114 L314,-234 Z" stroke-width="0" fill="#ea3b15" fill-opacity="0.4666666666666667" />
<path d="M446,-782 L102,-166 L602,-154 L714,-178 L246,-918 L582,-1234 Z" stroke-width="0" fill="#fbfd69" fill-opacity="0.09803921568627451" />
<path d="M522,-194 L218,-694 L434,-442 L106,-694 L638,-914 L102,-558 Z" stroke-width="0" fill="#7f4788" fill-opacity="0.1803921568627451" />
<path d="M142,-1094 L462,-462 L766,-1210 L318,-822 L182,-1038 L314,-1218 Z" stroke-width="0" fill="#d9dbf5" fill-opacity="0.00392156862745098" />
<path d="M370,-822 L754,-190 L386,-906 L726,-210 L110,-130 L554,-770 Z" stroke-width="0" fill="#a17d69" fill-opacity="0.6470588235294118" />
<path d="M486,-994 L354,-902 L502,-1062 L362,-942 L638,-1274 L530,-1182 Z" stroke-width="0" fill="#bcf92e" fill-opacity="0.00784313725490196" />
<path d="M170,-946 L618,-966 L642,-1134 L102,-582 L258,-382 L718,-766 Z" stroke-width="0" fill="#d159cb" fill-opacity="0.1411764705882353" />
<path d="M630,-718 L130,-854 L558,-218 L202,-434 L122,-142 L362,-318 Z" stroke-width="0" fill="#c09cd5" fill-opacity="0.1450980392156863" />
<path d="M286,-230 L686,-822 L406,-662 L170,-218 L350,-1278 L522,-554 Z" stroke-width="0" fill="#2c6268" fill-opacity="0.25882352941176473" />
<path d="M358,-810 L86,-262 L218,-810 L602,-798 L398,-634 L494,-854 Z" stroke-width="0" fill="#829388" fill-opacity="0.7019607843137254" />
<path d="M158,-558 L534,-738 L250,-998 L310,-150 L402,-214 L118,-1198 Z" stroke-width="0" fill="#506aa5" fill-opacity="0.43137254901960786" />
<path d="M82,-394 L326,-1234 L366,-946 L310,-486 L270,-570 L438,-566 Z" stroke-width="0" fill="#53118f" fill-opacity="0.2" />
<path d="M502,-814 L206,-650 L202,-770 L118,-154 L298,-1114 L398,-646 Z" stroke-width="0" fill="#288b87" fill-opacity="0.11372549019607843" />
<path d="M686,-338 L654,-562 L346,-442 L206,-394 L774,-638 L98,-974 Z" stroke-width="0" fill="#6993de" fill-opacity="0.1843137254901961" />
<path d="M554,-370 L342,-862 L122,-234 L550,-630 L262,-194 L402,-842 Z" stroke-width="0" fill="#33edb0" fill-opacity="0.17254901960784313" />
<path d="M270,-1198 L410,-798 L630,-742 L102,-618 L402,-986 L610,-1106 Z" stroke-width="0" fill="#b0e5d3" fill-opacity="0.27450980392156865" />
<path d="M298,-134 L350,-1218 L338,-1286 L374,-1202 L770,-914 L726,-994 Z" stroke-width="0" fill="#c9c493" fill-opacity="0.24313725490196078" />
<path d="M162,-1162 L354,-794 L438,-782 L206,-486 L94,-574 L210,-358 Z" stroke-width="0" fill="#5b6c76" fill-opacity="0.5529411764705883" />
<path d="M810,-954 L410,-138 L418,-782 L678,-234 L458,-602 L722,-1246 Z" stroke-width="0" fill="#4678ed" fill-opacity="0.0196078431372549" />
<path d="M278,-874 L326,-318 L730,-1142 L206,-970 L282,-846 L126,-498 Z" stroke-width="0" fill="#d053a6" fill-opacity="0.19607843137254902" />
<path d="M514,-410 L402,-234 L714,-1278 L750,-266 L282,-714 L146,-706 Z" stroke-width="0" fill="#4c927d" fill-opacity="0.24313725490196078" />
<path d="M782,-598 L454,-942 L170,-998 L686,-202 L262,-618 L238,-946 Z" stroke-width="0" fill="#a472a2" fill-opacity="0.10588235294117647" />
<path d="M590,-930 L650,-530 L478,-318 L634,-622 L278,-886 L618,-1054 Z" stroke-width="0" fill="#444a67" fill-opacity="0.9607843137254902" />
<path d="M770,-1066 L386,-646 L554,-802 L270,-754 L658,-586 L594,-1246 Z" stroke-width="0" fill="#f0fcf7" fill-opacity="0.19607843137254902" />
<path d="M206,-506 L446,-458 L742,-290 L526,-1178 L486,-314 L718,-810 Z" stroke-width="0" fill="#db4a4d" fill-opacity="0.12549019607843137" />
<path d="M286,-602 L82,-1146 L614,-926 L646,-902 L330,-1258 L238,-262 Z" stroke-width="0" fill="#07620c" fill-opacity="0.23921568627450981" />
<path d="M758,-1314 L458,-806 L478,-882 L806,-338 L274,-258 L494,-490 Z" stroke-width="0" fill="#cad7a7" fill-opacity="0.3764705882352941" />
<path d="M202,-518 L718,-502 L778,-410 L398,-962 L102,-298 L230,-290 Z" stroke-width="0" fill="#9f461d" fill-opacity="0.12156862745098039" />
<path d="M686,-1102 L134,-982 L722,-174 L194,-378 L506,-926 L490,-790 Z" stroke-width="0" fill="#de8cdc" fill-opacity="0.047058823529411764" />
<path d="M722,-282 L398,-398 L526,-826 L658,-1230 L558,-614 L90,-178 Z" stroke-width="0" fill="#4fbe73" fill-opacity="0.40784313725490196" />
<path d="M430,-290 L254,-518 L754,-118 L718,-198 L270,-494 L590,-1182 Z" stroke-width="0" fill="#e091dd" fill-opacity="0.054901960784313725" />
<path d="M170,-1170 L282,-746 L574,-606 L322,-350 L470,-962 L382,-1222 Z" stroke-width="0" fill="#508f8b" fill-opacity="0.3686274509803922" />
<path d="M494,-254 L210,-1074 L210,-638 L134,-206 L522,-770 L762,-162 Z" stroke-width="0" fill="#dc3c31" fill-opacity="0.08235294117647059" />
<path d="M674,-742 L514,-82 L478,-1206 L106,-1130 L574,-294 L498,-214 Z" stroke-width="0" fill="#b183c6" fill-opacity="0.16470588235294117" />
<path d="M322,-1218 L682,-822 L762,-282 L82,-710 L166,-390 L370,-138 Z" stroke-width="0" fill="#8bf68f" fill-opacity="0.34509803921568627" />
<path d="M358,-146 L354,-594 L554,-206 L82,-414 L158,-878 L122,-454 Z" stroke-width="0" fill="#fe6d99" fill-opacity="0.07450980392156863" />
<path d="M330,-998 L398,-90 L178,-814 L722,-230 L358,-1102 L494,-894 Z" stroke-width="0" fill="#ad1084" fill-opacity="0.09019607843137255" />
<path d="M234,-1250 L454,-614 L86,-774 L254,-814 L226,-94 L354,-522 Z" stroke-width="0" fill="#471419" fill-opacity="0.047058823529411764" />
<path d="M638,-914 L218,-922 L538,-238 L254,-758 L482,-650 L534,-326 Z" stroke-width="0" fill="#8c0e47" fill-opacity="0.13725490196078433" />
<path d="M522,-478 L338,-942 L310,-102 L346,-250 L146,-610 L366,-850 Z" stroke-width="0" fill="#a47e68" fill-opacity="0.403921568627451" />
<path d="M306,-794 L718,-870 L386,-510 L270,-934 L138,-1098 L750,-1118 Z" stroke-width="0" fill="#8c139d" fill-opacity="0.03529411764705882" />
<path d="M494,-830 L314,-1234 L546,-698 L102,-666 L578,-1270 L602,-134 Z" stroke-width="0" fill="#74c37c" fill-opacity="0.21568627450980393" />
<path d="M454,-378 L534,-950 L142,-1054 L166,-502 L742,-358 L294,-150 Z" stroke-width="0" fill="#57cc72" fill-opacity="0.3254901960784314" />
<path d="M110,-706 L322,-402 L370,-930 L302,-658 L546,-1082 L194,-1074 Z" stroke-width="0" fill="#6baeac" fill-opacity="0.5019607843137255" />
<text x="448.0" y="0" font-size="70.0" fill="black" text-anchor="middle" transform="translate(0,17.5)">KNOWLEDGE</text>
</svg>