<?xml version="1.0" encoding="UTF-8"?>
<svg xmlns="http://www.w3.org/2000/svg" xmlns:xlink="http://www.w3.org/1999/xlink"
     width="275" height="375" viewBox="0 -350 275 375">
<defs>
</defs>
<rect x="15" y="-335" width="245" height="320" stroke="black" stroke-width="4" fill="white" />
<path d="M77,-222 L129,-89 L216,-59 L53,-144 L224,-26 L26,-311 Z" stroke-width="0" fill="#b10000" fill-opacity="0.5882352941176471" />
<path d="M249,-34 L215,-236 L189,-32 L52,-190 L112,-170 L171,-174 Z" stroke-width="0" fill="#c04608" fill-opacity="0.4745098039215686" />
<path d="M124,-270 L214,-313 L112,-128 L88,-26 L126,-324 L181,-84 Z" stroke-width="0" fill="#f4defa" fill-opacity="0.00784313725490196" />
<path d="M181,-28 L96,-232 L205,-139 L64,-244 L54,-299 L136,-174 Z" stroke-width="0" fill="#df7d10" fill-opacity="0.7137254901960784" />
<path d="M36,-304 L221,-236 L208,-171 L207,-215 L189,-100 L65,-94 Z" stroke-width="0" fill="#61bcb0" fill-opacity="0.6392156862745098" />
<path d="M232,-124 L187,-142 L102,-96 L139,-88 L92,-233 L137,-133 Z" stroke-width="0" fill="#060000" fill-opacity="0.9058823529411765" />
<path d="M173,-156 L56,-238 L111,-262 L143,-113 L200,-248 L91,-226 Z" stroke-width="0" fill="#366bff" fill-opacity="0.29411764705882354" />
<path d="M167,-114 L244,-272 L127,-123 L211,-85 L63,-317 L63,-310 Z" stroke-width="0" fill="#0a2e22" fill-opacity="0.3215686274509804" />
<path d="M214,-161 L176,-320 L103,-148 L152,-251 L74,-46 L210,-146 Z" stroke-width="0" fill="#eceff1" fill-opacity="0.10196078431372549" />
<path d="M72,-207 L113,-132 L42,-172 L72,-95 L37,-179 L106,-127 Z" stroke-width="0" fill="#186f8c" fill-opacity="0.15294117647058825" />
<path d="M128,-191 L187,-110 L137,-243 L156,-47 L181,-172 L49,-38 Z" stroke-width="0" fill="#beb430" fill-opacity="0.03529411764705882" />
<path d="M45,-295 L69,-130 L223,-84 L163,-132 L193,-37 L125,-48 Z" stroke-width="0" fill="#c43b00" fill-opacity="0.6745098039215687" />
<path d="M193,-125 L110,-25 L203,-155 L230,-210 L229,-59 L80,-73 Z" stroke-width="0" fill="#fcbfa1" fill-opacity="0.6823529411764706" />
<path d="M84,-129 L215,-47 L32,-280 L178,-153 L163,-83 L95,-188 Z" stroke-width="0" fill="#2437c0" fill-opacity="0.6705882352941176" />
<path d="M120,-277 L35,-28 L194,-131 L48,-198 L222,-322 L113,-25 Z" stroke-width="0" fill="#214f24" fill-opacity="0.5019607843137255" />
<path d="M166,-120 L191,-94 L187,-252 L28,-105 L159,-299 L180,-289 Z" stroke-width="0" fill="#fef4e3" fill-opacity="0.7490196078431373" />
<path d="M136,-184 L231,-85 L235,-88 L187,-123 L153,-306 L161,-119 Z" stroke-width="0" fill="#90bcea" fill-opacity="0.047058823529411764" />
<path d="M232,-316 L134,-314 L131,-96 L175,-190 L137,-113 L209,-88 Z" stroke-width="0" fill="#a6a366" fill-opacity="0.5019607843137255" />
<path d="M155,-285 L88,-28 L61,-147 L188,-52 L216,-154 L110,-162 Z" stroke-width="0" fill="#6e620c" fill-opacity="0.5019607843137255" />
<path d="M68,-122 L38,-119 L179,-132 L216,-79 L247,-28 L171,-155 Z" stroke-width="0" fill="#c71b00" fill-opacity="0.8156862745098039" />
<path d="M162,-97 L224,-49 L156,-324 L114,-125 L109,-312 L45,-170 Z" stroke-width="0" fill="#e6fcf1" fill-opacity="0.9137254901960784" />
<path d="M160,-240 L149,-179 L126,-118 L186,-182 L46,-206 L161,-294 Z" stroke-width="0" fill="#dceefb" fill-opacity="0.9137254901960784" />
<path d="M46,-67 L109,-96 L120,-34 L61,-105 L62,-96 L221,-124 Z" stroke-width="0" fill="#8ab46e" fill-opacity="0.7058823529411765" />
<path d="M32,-58 L54,-264 L189,-156 L134,-275 L78,-231 L231,-151 Z" stroke-width="0" fill="#464329" fill-opacity="0.5019607843137255" />
<path d="M70,-59 L151,-95 L159,-45 L152,-258 L45,-35 L34,-45 Z" stroke-width="0" fill="#6e8c78" fill-opacity="0.5019607843137255" />
<path d="M53,-62 L190,-218 L78,-139 L150,-260 L26,-166 L176,-76 Z" stroke-width="0" fill="#256f1b" fill-opacity="0.5294117647058824" />
<path d="M41,-111 L180,-80 L141,-219 L40,-156 L92,-97 L209,-106 Z" stroke-width="0" fill="#6eeffa" fill-opacity="0.5450980392156862" />
<path d="M165,-86 L55,-42 L160,-131 L26,-61 L243,-248 L174,-119 Z" stroke-width="0" fill="#33b643" fill-opacity="0.3803921568627451" />
<path d="M160,-228 L195,-73 L48,-181 L229,-301 L88,-221 L180,-218 Z" stroke-width="0" fill="#020104" fill-opacity="0.2627450980392157" />
<path d="M105,-204 L106,-53 L46,-40 L34,-183 L114,-207 L51,-154 Z" stroke-width="0" fill="#e2ead7" fill-opacity="0.7058823529411765" />
<path d="M84,-214 L167,-74 L166,-216 L97,-286 L139,-209 L107,-264 Z" stroke-width="0" fill="#97d8f8" fill-opacity="0.0392156862745098" />
<path d="M153,-191 L84,-74 L163,-244 L114,-243 L49,-102 L61,-72 Z" stroke-width="0" fill="#bbf532" fill-opacity="0.0196078431372549" />
<path d="M249,-60 L106,-254 L56,-118 L123,-213 L189,-278 L44,-123 Z" stroke-width="0" fill="#f1f5fe" fill-opacity="0.9803921568627451" />
<path d="M61,-276 L164,-58 L109,-204 L195,-31 L141,-242 L190,-292 Z" stroke-width="0" fill="#cdd992" fill-opacity="0.00392156862745098" />
<path d="M99,-148 L76,-167 L222,-40 L72,-268 L137,-193 L238,-247 Z" stroke-width="0" fill="#a80000" fill-opacity="0.5019607843137255" />
<path d="M230,-102 L89,-63 L140,-196 L135,-237 L120,-230 L242,-101 Z" stroke-width="0" fill="#d3fbfd" fill-opacity="0.6392156862745098" />
<path d="M161,-195 L124,-290 L249,-112 L147,-102 L218,-175 L67,-137 Z" stroke-width="0" fill="#bec0ac" fill-opacity="0.5019607843137255" />
<path d="M136,-118 L153,-158 L110,-85 L72,-86 L88,-87 L117,-158 Z" stroke-width="0" fill="#93d1ad" fill-opacity="0.3333333333333333" />
<path d="M62,-180 L151,-207 L121,-99 L170,-185 L25,-284 L75,-323 Z" stroke-width="0" fill="#026873" fill-opacity="0.6627450980392157" />
<path d="M27,-109 L58,-309 L28,-257 L200,-127 L41,-218 L155,-271 Z" stroke-width="0" fill="#069400" fill-opacity="0.3686274509803922" />
<path d="M212,-280 L88,-113 L171,-45 L83,-218 L41,-235 L59,-144 Z" stroke-width="0" fill="#18cb31" fill-opacity="0.3607843137254902" />
<path d="M214,-209 L165,-109 L247,-96 L201,-97 L152,-26 L118,-89 Z" stroke-width="0" fill="#d20000" fill-opacity="0.7137254901960784" />
<path d="M164,-43 L174,-271 L224,-73 L193,-154 L27,-190 L230,-290 Z" stroke-width="0" fill="#f8f9f2" fill-opacity="0.9607843137254902" />
<path d="M219,-152 L179,-100 L131,-323 L188,-236 L125,-259 L72,-293 Z" stroke-width="0" fill="#fcadf0" fill-opacity="0.3411764705882353" />
<path d="M95,-253 L25,-197 L221,-309 L150,-135 L123,-205 L53,-62 Z" stroke-width="0" fill="#f9fbf3" fill-opacity="0.9647058823529412" />
<path d="M186,-26 L115,-107 L40,-128 L129,-65 L143,-58 L82,-202 Z" stroke-width="0" fill="#a92000" fill-opacity="0.7333333333333333" />
<path d="M82,-118 L180,-134 L161,-263 L48,-38 L82,-80 L229,-156 Z" stroke-width="0" fill="#fdb7e6" fill-opacity="0.22745098039215686" />
<path d="M145,-165 L200,-146 L118,-194 L38,-282 L58,-189 L241,-287 Z" stroke-width="0" fill="#f9fffb" fill-opacity="0.2549019607843137" />
<path d="M26,-154 L164,-264 L211,-68 L119,-203 L231,-49 L73,-215 Z" stroke-width="0" fill="#32ba45" fill-opacity="0.49019607843137253" />
<path d="M197,-324 L71,-229 L86,-225 L223,-145 L84,-222 L224,-155 Z" stroke-width="0" fill="#ced6ef" fill-opacity="0.011764705882352941" />
<path d="M145,-127 L100,-75 L234,-240 L119,-196 L215,-82 L30,-295 Z" stroke-width="0" fill="#96b8c1" fill-opacity="0.34901960784313724" />
<path d="M148,-294 L40,-26 L179,-98 L59,-132 L247,-54 L128,-98 Z" stroke-width="0" fill="#979067" fill-opacity="0.45098039215686275" />
<path d="M119,-102 L158,-54 L34,-217 L217,-240 L214,-196 L214,-255 Z" stroke-width="0" fill="#758e11" fill-opacity="0.4980392156862745" />
<path d="M78,-72 L235,-112 L188,-56 L82,-155 L190,-164 L53,-278 Z" stroke-width="0" fill="#609472" fill-opacity="0.5372549019607843" />
<path d="M113,-312 L45,-93 L58,-313 L126,-189 L157,-27 L89,-111 Z" stroke-width="0" fill="#92de97" fill-opacity="0.20392156862745098" />
<path d="M53,-251 L28,-165 L82,-180 L185,-57 L201,-272 L62,-237 Z" stroke-width="0" fill="#d2edff" fill-opacity="0.4549019607843137" />
<path d="M124,-65 L216,-270 L168,-187 L127,-82 L239,-202 L50,-235 Z" stroke-width="0" fill="#bac2c3" fill-opacity="0.7607843137254902" />
<path d="M223,-238 L55,-29 L30,-232 L193,-316 L109,-319 L125,-58 Z" stroke-width="0" fill="#004e00" fill-opacity="0.1803921568627451" />
<path d="M237,-122 L155,-44 L139,-283 L129,-68 L228,-283 L50,-43 Z" stroke-width="0" fill="#fa528b" fill-opacity="0.043137254901960784" />
<path d="M96,-31 L130,-76 L174,-135 L248,-174 L126,-62 L201,-118 Z" stroke-width="0" fill="#cfad5e" fill-opacity="0.7176470588235294" />
<path d="M217,-210 L117,-245 L40,-103 L125,-124 L226,-135 L171,-289 Z" stroke-width="0" fill="#e2efe9" fill-opacity="0.26666666666666666" />
<path d="M42,-164 L202,-198 L54,-317 L164,-57 L85,-291 L236,-80 Z" stroke-width="0" fill="#087c7a" fill-opacity="0.5529411764705883" />
<path d="M105,-241 L196,-96 L160,-27 L30,-169 L169,-233 L143,-308 Z" stroke-width="0" fill="#ecf5c1" fill-opacity="0.2549019607843137" />
<path d="M122,-162 L36,-36 L106,-286 L142,-85 L155,-190 L46,-175 Z" stroke-width="0" fill="#52a377" fill-opacity="0.6509803921568628" />
<path d="M29,-257 L30,-114 L130,-32 L151,-190 L41,-161 L92,-254 Z" stroke-width="0" fill="#0b3a80" fill-opacity="0.3215686274509804" />
<path d="M50,-48 L176,-64 L35,-90 L131,-306 L227,-219 L51,-206 Z" stroke-width="0" fill="#f4ecc8" fill-opacity="0.09019607843137255" />
<path d="M61,-127 L62,-60 L81,-239 L119,-188 L239,-117 L47,-25 Z" stroke-width="0" fill="#589051" fill-opacity="0.42745098039215684" />
<path d="M120,-41 L199,-195 L241,-241 L157,-226 L138,-47 L222,-78 Z" stroke-width="0" fill="#b08215" fill-opacity="0.4235294117647059" />
<path d="M49,-157 L162,-53 L71,-98 L153,-324 L27,-179 L48,-182 Z" stroke-width="0" fill="#20b7e0" fill-opacity="0.023529411764705882" />
<path d="M35,-51 L157,-320 L189,-120 L26,-134 L127,-40 L73,-168 Z" stroke-width="0" fill="#c5d7fb" fill-opacity="0.047058823529411764" />
<path d="M34,-162 L164,-141 L127,-93 L192,-110 L132,-55 L103,-28 Z" stroke-width="0" fill="#76ae6e" fill-opacity="0.6666666666666666" />
<path d="M147,-177 L104,-145 L249,-32 L234,-236 L117,-88 L115,-233 Z" stroke-width="0" fill="#d68800" fill-opacity="0.5019607843137255" />
<path d="M112,-230 L115,-214 L27,-122 L84,-235 L216,-102 L103,-63 Z" stroke-width="0" fill="#833ef1" fill-opacity="0.03137254901960784" />
<path d="M36,-308 L39,-289 L186,-182 L64,-148 L193,-25 L196,-254 Z" stroke-width="0" fill="#ed2d6a" fill-opacity="0.07058823529411765" />
<path d="M242,-55 L84,-48 L101,-236 L146,-118 L74,-29 L157,-183 Z" stroke-width="0" fill="#cb301c" fill-opacity="0.12549019607843137" />
<path d="M241,-269 L30,-198 L110,-119 L34,-115 L152,-310 L186,-267 Z" stroke-width="0" fill="#fff9df" fill-opacity="0.023529411764705882" />
<path d="M226,-33 L56,-51 L64,-78 L193,-92 L166,-84 L43,-58 Z" stroke-width="0" fill="#a79765" fill-opacity="0.6431372549019608" />
<path d="M212,-45 L179,-198 L65,-212 L243,-205 L181,-255 L147,-103 Z" stroke-width="0" fill="#958b38" fill-opacity="0.39215686274509803" />
<path d="M210,-300 L173,-56 L52,-65 L120,-246 L106,-98 L169,-106 Z" stroke-width="0" fill="#f79655" fill-opacity="0.23529411764705882" />
<path d="M124,-118 L207,-42 L55,-113 L91,-301 L143,-32 L188,-131 Z" stroke-width="0" fill="#a7350b" fill-opacity="0.12941176470588237" />
<path d="M215,-88 L229,-217 L210,-164 L157,-160 L57,-149 L137,-216 Z" stroke-width="0" fill="#9aab6c" fill-opacity="0.058823529411764705" />
<path d="M209,-126 L151,-105 L170,-122 L38,-80 L131,-300 L201,-145 Z" stroke-width="0" fill="#a6c889" fill-opacity="0.07450980392156863" />
<path d="M67,-130 L214,-177 L128,-80 L94,-95 L133,-142 L202,-259 Z" stroke-width="0" fill="#ca8f64" fill-opacity="0.3686274509803922" />
<path d="M100,-114 L118,-38 L229,-204 L190,-227 L232,-248 L56,-108 Z" stroke-width="0" fill="#cab995" fill-opacity="0.2235294117647059" />
<path d="M198,-193 L51,-133 L58,-124 L244,-135 L237,-171 L80,-115 Z" stroke-width="0" fill="#818de1" fill-opacity="0.3843137254901961" />
<path d="M231,-139 L165,-262 L33,-205 L62,-62 L185,-307 L172,-159 Z" stroke-width="0" fill="#95b763" fill-opacity="0.27058823529411763" />
<path d="M35,-61 L46,-140 L160,-88 L105,-202 L154,-237 L95,-255 Z" stroke-width="0" fill="#98ab4f" fill-opacity="0.47843137254901963" />
<path d="M177,-100 L141,-98 L194,-58 L95,-216 L104,-294 L187,-265 Z" stroke-width="0" fill="#a3d0fb" fill-opacity="0.00784313725490196" />
<path d="M78,-164 L177,-264 L145,-123 L242,-143 L77,-230 L220,-70 Z" stroke-width="0" fill="#8f717f" fill-opacity="0.47843137254901963" />
<path d="M163,-281 L42,-53 L117,-146 L135,-82 L243,-262 L227,-296 Z" stroke-width="0" fill="#9fe7ea" fill-opacity="0.12941176470588237" />
<path d="M63,-280 L71,-196 L142,-186 L68,-240 L208,-147 L34,-302 Z" stroke-width="0" fill="#3bb3f3" fill-opacity="0.15294117647058825" />
<path d="M102,-34 L134,-240 L59,-242 L25,-127 L207,-125 L82,-36 Z" stroke-width="0" fill="#749780" fill-opacity="0.5529411764705883" />
<path d="M57,-178 L101,-260 L199,-225 L239,-212 L214,-243 L51,-52 Z" stroke-width="0" fill="#8b8abf" fill-opacity="0.16470588235294117" />
<path d="M150,-59 L51,-46 L89,-167 L242,-167 L196,-222 L111,-199 Z" stroke-width="0" fill="#74ca99" fill-opacity="0.3254901960784314" />
<path d="M247,-36 L170,-270 L80,-282 L194,-245 L203,-146 L127,-101 Z" stroke-width="0" fill="#fecbaf" fill-opacity="0.396078431372549" />
<path d="M228,-167 L247,-86 L183,-67 L125,-146 L134,-205 L54,-219 Z" stroke-width="0" fill="#a2dd58" fill-opacity="0.3333333333333333" />
<path d="M123,-105 L59,-70 L88,-87 L227,-78 L61,-247 L78,-217 Z" stroke-width="0" fill="#88a183" fill-opacity="0.5686274509803921" />
<path d="M56,-55 L223,-232 L34,-42 L31,-131 L84,-65 L44,-153 Z" stroke-width="0" fill="#62977c" fill-opacity="0.5137254901960784" />
<path d="M233,-111 L65,-315 L244,-185 L45,-100 L36,-159 L202,-95 Z" stroke-width="0" fill="#649356" fill-opacity="0.19215686274509805" />
<path d="M71,-309 L66,-142 L246,-266 L31,-244 L28,-108 L27,-151 Z" stroke-width="0" fill="#609d8e" fill-opacity="0.5372549019607843" />
<text x="137.5" y="12.5" font-size="20.0" fill="black" text-anchor="middle" transform="translate(0,5.0)">KNOWLEDGE</text>
</svg>