<?xml version="1.0" encoding="UTF-8"?>
<svg xmlns="http://www.w3.org/2000/svg" xmlns:xlink="http://www.w3.org/1999/xlink"
     width="275" height="375" viewBox="0 -350 275 375">
<defs>
</defs>
<rect x="15" y="-335" width="245" height="320" stroke="black" stroke-width="4" fill="white" />
<path d="M242,-188 L126,-204 L38,-49 L185,-298 L29,-88 L60,-189 Z" stroke-width="0" fill="#63e2f3" fill-opacity="0.0196078431372549" />
<path d="M230,-59 L33,-264 L139,-171 L97,-155 L54,-70 L35,-75 Z" stroke-width="0" fill="#5a7a85" fill-opacity="0.5019607843137255" />
<path d="M88,-67 L110,-125 L44,-87 L61,-40 L99,-53 L229,-110 Z" stroke-width="0" fill="#706431" fill-opacity="0.5019607843137255" />
<path d="M139,-78 L221,-54 L42,-120 L222,-83 L25,-97 L211,-318 Z" stroke-width="0" fill="#294858" fill-opacity="0.5019607843137255" />
<path d="M130,-259 L78,-80 L51,-242 L52,-214 L233,-283 L72,-184 Z" stroke-width="0" fill="#b8441a" fill-opacity="0.7098039215686275" />
<path d="M106,-145 L164,-52 L70,-281 L194,-293 L147,-114 L47,-190 Z" stroke-width="0" fill="#11e9e9" fill-opacity="0.9529411764705882" />
<path d="M48,-42 L231,-78 L99,-149 L248,-151 L163,-220 L56,-194 Z" stroke-width="0" fill="#78270f" fill-opacity="0.41568627450980394" />
<path d="M146,-66 L56,-179 L117,-63 L66,-104 L191,-236 L44,-246 Z" stroke-width="0" fill="#56d1a9" fill-opacity="0.023529411764705882" />
<path d="M170,-93 L135,-189 L34,-127 L41,-275 L28,-33 L155,-166 Z" stroke-width="0" fill="#653914" fill-opacity="0.4980392156862745" />
<path d="M239,-37 L201,-130 L74,-104 L92,-228 L161,-252 L198,-89 Z" stroke-width="0" fill="#fe2b21" fill-opacity="0.20784313725490197" />
<path d="M104,-273 L57,-76 L99,-188 L55,-56 L231,-140 L150,-163 Z" stroke-width="0" fill="#eea380" fill-opacity="0.5333333333333333" />
<path d="M142,-168 L100,-203 L67,-127 L145,-285 L90,-206 L140,-62 Z" stroke-width="0" fill="#0edc3f" fill-opacity="0.13725490196078433" />
<path d="M52,-239 L227,-296 L203,-145 L129,-90 L233,-42 L176,-124 Z" stroke-width="0" fill="#260d24" fill-opacity="0.5254901960784314" />
<path d="M86,-172 L49,-77 L171,-300 L189,-243 L63,-87 L200,-179 Z" stroke-width="0" fill="#15b1ff" fill-opacity="0.6392156862745098" />
<path d="M126,-257 L138,-242 L142,-66 L88,-168 L43,-244 L206,-172 Z" stroke-width="0" fill="#5ce88e" fill-opacity="0.5019607843137255" />
<path d="M26,-313 L192,-232 L43,-274 L114,-93 L239,-36 L118,-279 Z" stroke-width="0" fill="#222814" fill-opacity="0.30980392156862746" />
<path d="M32,-240 L107,-170 L159,-225 L175,-111 L182,-288 L105,-27 Z" stroke-width="0" fill="#899b89" fill-opacity="0.6235294117647059" />
<path d="M92,-297 L131,-265 L172,-182 L117,-54 L49,-125 L52,-126 Z" stroke-width="0" fill="#227fdb" fill-opacity="0.9607843137254902" />
<path d="M81,-75 L46,-129 L218,-122 L69,-153 L179,-132 L202,-237 Z" stroke-width="0" fill="#71c98c" fill-opacity="0.6549019607843137" />
<path d="M67,-196 L208,-233 L54,-160 L154,-226 L171,-145 L37,-42 Z" stroke-width="0" fill="#6b4c10" fill-opacity="0.5803921568627451" />
<path d="M68,-98 L32,-296 L34,-155 L215,-273 L59,-183 L123,-76 Z" stroke-width="0" fill="#6e8c78" fill-opacity="0.5098039215686274" />
<path d="M148,-168 L223,-177 L117,-100 L103,-276 L134,-280 L112,-87 Z" stroke-width="0" fill="#4d1ae3" fill-opacity="0.8470588235294118" />
<path d="M83,-246 L78,-180 L64,-253 L132,-194 L140,-197 L49,-204 Z" stroke-width="0" fill="#3c67cf" fill-opacity="0.23921568627450981" />
<path d="M145,-147 L242,-184 L59,-105 L197,-208 L91,-63 L103,-120 Z" stroke-width="0" fill="#010eb2" fill-opacity="0.6784313725490196" />
<path d="M218,-304 L179,-245 L174,-160 L94,-151 L181,-190 L134,-218 Z" stroke-width="0" fill="#00110f" fill-opacity="0.9098039215686274" />
<path d="M156,-104 L27,-106 L145,-119 L174,-259 L99,-294 L28,-298 Z" stroke-width="0" fill="#648b72" fill-opacity="0.5019607843137255" />
<path d="M187,-287 L80,-189 L166,-83 L152,-156 L220,-277 L200,-73 Z" stroke-width="0" fill="#021314" fill-opacity="0.807843137254902" />
<path d="M86,-100 L123,-158 L97,-148 L178,-132 L174,-189 L66,-193 Z" stroke-width="0" fill="#99fba5" fill-opacity="0.1803921568627451" />
<path d="M231,-88 L138,-79 L42,-57 L56,-231 L74,-246 L131,-188 Z" stroke-width="0" fill="#8678bd" fill-opacity="0.9490196078431372" />
<path d="M36,-126 L50,-176 L94,-26 L202,-178 L212,-65 L88,-296 Z" stroke-width="0" fill="#000000" fill-opacity="0.7803921568627451" />
<path d="M160,-276 L211,-31 L228,-192 L54,-67 L158,-41 L170,-173 Z" stroke-width="0" fill="#382223" fill-opacity="0.36470588235294116" />
<path d="M192,-311 L109,-241 L245,-31 L240,-75 L46,-272 L161,-111 Z" stroke-width="0" fill="#380000" fill-opacity="0.35294117647058826" />
<path d="M82,-44 L183,-281 L216,-196 L35,-47 L74,-146 L171,-143 Z" stroke-width="0" fill="#6e4762" fill-opacity="0.7176470588235294" />
<path d="M135,-85 L206,-264 L137,-109 L235,-287 L245,-54 L78,-37 Z" stroke-width="0" fill="#3f1b10" fill-opacity="0.5294117647058824" />
<path d="M176,-154 L89,-140 L67,-88 L118,-257 L125,-255 L60,-32 Z" stroke-width="0" fill="#474237" fill-opacity="0.5019607843137255" />
<path d="M203,-35 L88,-148 L119,-213 L165,-186 L185,-34 L149,-236 Z" stroke-width="0" fill="#514733" fill-opacity="0.00784313725490196" />
<path d="M78,-46 L130,-30 L52,-136 L168,-261 L126,-43 L60,-181 Z" stroke-width="0" fill="#0a0000" fill-opacity="0.5019607843137255" />
<path d="M150,-107 L152,-103 L86,-254 L25,-118 L134,-80 L198,-181 Z" stroke-width="0" fill="#a2a7c8" fill-opacity="0.7607843137254902" />
<path d="M138,-123 L145,-207 L134,-172 L65,-141 L65,-110 L196,-179 Z" stroke-width="0" fill="#f0abce" fill-opacity="0.30980392156862746" />
<path d="M58,-86 L73,-258 L226,-244 L129,-50 L153,-58 L244,-277 Z" stroke-width="0" fill="#3f2f27" fill-opacity="0.19215686274509805" />
<path d="M206,-159 L60,-148 L170,-75 L62,-249 L156,-143 L105,-308 Z" stroke-width="0" fill="#2592ed" fill-opacity="0.21176470588235294" />
<path d="M188,-69 L107,-26 L155,-153 L120,-222 L79,-111 L61,-259 Z" stroke-width="0" fill="#583d32" fill-opacity="0.7019607843137254" />
<path d="M226,-51 L141,-64 L60,-281 L102,-94 L209,-115 L196,-48 Z" stroke-width="0" fill="#4c9b5b" fill-opacity="0.2901960784313726" />
<path d="M143,-257 L80,-130 L41,-309 L178,-151 L97,-92 L222,-131 Z" stroke-width="0" fill="#9dc4be" fill-opacity="0.5686274509803921" />
<path d="M62,-180 L226,-312 L60,-45 L53,-96 L248,-130 L82,-65 Z" stroke-width="0" fill="#645267" fill-opacity="0.5019607843137255" />
<path d="M189,-243 L60,-84 L46,-153 L102,-32 L33,-109 L111,-224 Z" stroke-width="0" fill="#0209c5" fill-opacity="0.050980392156862744" />
<path d="M62,-144 L151,-56 L208,-144 L189,-28 L147,-127 L246,-55 Z" stroke-width="0" fill="#4d8900" fill-opacity="0.2980392156862745" />
<path d="M54,-255 L138,-161 L194,-208 L75,-139 L123,-215 L108,-147 Z" stroke-width="0" fill="#05092e" fill-opacity="0.9411764705882353" />
<path d="M208,-166 L249,-121 L249,-80 L89,-260 L100,-322 L146,-283 Z" stroke-width="0" fill="#4c6622" fill-opacity="0.5254901960784314" />
<path d="M238,-50 L214,-136 L144,-53 L147,-129 L187,-175 L219,-112 Z" stroke-width="0" fill="#e0de33" fill-opacity="0.6666666666666666" />
<path d="M45,-170 L94,-234 L131,-93 L56,-77 L180,-218 L80,-167 Z" stroke-width="0" fill="#365e7f" fill-opacity="0.6705882352941176" />
<path d="M145,-199 L193,-91 L126,-95 L227,-64 L245,-163 L235,-239 Z" stroke-width="0" fill="#8ba47a" fill-opacity="0.9764705882352941" />
<path d="M131,-295 L38,-151 L127,-204 L169,-103 L138,-100 L164,-42 Z" stroke-width="0" fill="#140000" fill-opacity="0.5019607843137255" />
<path d="M218,-144 L138,-316 L118,-274 L89,-176 L126,-96 L63,-69 Z" stroke-width="0" fill="#1da8e7" fill-opacity="0.4980392156862745" />
<path d="M77,-230 L170,-59 L124,-107 L69,-85 L199,-42 L185,-249 Z" stroke-width="0" fill="#00003f" fill-opacity="0.6392156862745098" />
<path d="M37,-170 L69,-315 L87,-306 L36,-130 L28,-59 L247,-263 Z" stroke-width="0" fill="#9dcb88" fill-opacity="0.5019607843137255" />
<path d="M38,-99 L41,-227 L216,-77 L215,-146 L163,-214 L134,-135 Z" stroke-width="0" fill="#dfe0fc" fill-opacity="0.796078431372549" />
<path d="M128,-134 L194,-218 L48,-55 L137,-171 L97,-181 L156,-170 Z" stroke-width="0" fill="#735f3f" fill-opacity="0.6509803921568628" />
<path d="M61,-230 L137,-136 L37,-109 L163,-64 L126,-49 L117,-65 Z" stroke-width="0" fill="#99c8f1" fill-opacity="0.29411764705882354" />
<path d="M124,-48 L235,-184 L52,-130 L137,-131 L90,-192 L199,-143 Z" stroke-width="0" fill="#edefe4" fill-opacity="0.8901960784313725" />
<path d="M177,-47 L127,-42 L172,-96 L229,-153 L89,-76 L212,-104 Z" stroke-width="0" fill="#001b00" fill-opacity="0.4196078431372549" />
<path d="M133,-53 L25,-136 L127,-317 L217,-273 L218,-267 L162,-55 Z" stroke-width="0" fill="#5d7c92" fill-opacity="0.5019607843137255" />
<path d="M175,-59 L242,-119 L144,-303 L234,-134 L97,-229 L90,-43 Z" stroke-width="0" fill="#b4cd00" fill-opacity="0.043137254901960784" />
<path d="M34,-65 L84,-58 L132,-124 L246,-42 L200,-253 L90,-94 Z" stroke-width="0" fill="#554d0a" fill-opacity="0.592156862745098" />
<path d="M194,-315 L75,-228 L96,-110 L152,-152 L52,-313 L122,-137 Z" stroke-width="0" fill="#7ecad8" fill-opacity="0.5019607843137255" />
<path d="M80,-112 L169,-80 L228,-214 L144,-144 L187,-55 L146,-200 Z" stroke-width="0" fill="#001b20" fill-opacity="0.9725490196078431" />
<path d="M189,-321 L79,-41 L237,-28 L60,-89 L225,-30 L132,-53 Z" stroke-width="0" fill="#23451a" fill-opacity="0.5019607843137255" />
<path d="M206,-47 L99,-69 L96,-98 L202,-26 L239,-159 L39,-251 Z" stroke-width="0" fill="#9d666c" fill-opacity="0.4745098039215686" />
<path d="M114,-66 L63,-263 L25,-184 L129,-298 L217,-243 L124,-122 Z" stroke-width="0" fill="#cee2d1" fill-opacity="0.3686274509803922" />
<path d="M41,-44 L210,-103 L144,-131 L31,-57 L246,-165 L58,-44 Z" stroke-width="0" fill="#685e41" fill-opacity="0.41568627450980394" />
<path d="M67,-214 L183,-278 L159,-97 L92,-140 L92,-219 L54,-97 Z" stroke-width="0" fill="#a36ee9" fill-opacity="0.08627450980392157" />
<path d="M54,-66 L32,-184 L147,-126 L148,-260 L135,-252 L168,-280 Z" stroke-width="0" fill="#befafe" fill-opacity="0.3058823529411765" />
<path d="M155,-84 L124,-177 L49,-60 L40,-42 L149,-274 L120,-35 Z" stroke-width="0" fill="#c89e52" fill-opacity="0.5607843137254902" />
<path d="M233,-47 L46,-116 L166,-25 L81,-302 L70,-26 L49,-324 Z" stroke-width="0" fill="#4a6d48" fill-opacity="0.4117647058823529" />
<path d="M44,-192 L222,-92 L78,-309 L92,-252 L237,-227 L231,-315 Z" stroke-width="0" fill="#c5e0b4" fill-opacity="0.5019607843137255" />
<path d="M222,-79 L156,-209 L164,-165 L43,-241 L188,-192 L125,-166 Z" stroke-width="0" fill="#0a7f25" fill-opacity="0.027450980392156862" />
<path d="M247,-138 L119,-171 L213,-154 L246,-240 L32,-187 L53,-121 Z" stroke-width="0" fill="#f5f9d5" fill-opacity="0.615686274509804" />
<path d="M50,-194 L69,-152 L70,-137 L32,-55 L191,-186 L114,-253 Z" stroke-width="0" fill="#bcb1df" fill-opacity="0.29411764705882354" />
<path d="M37,-321 L171,-192 L184,-151 L106,-184 L96,-303 L129,-247 Z" stroke-width="0" fill="#5fdca2" fill-opacity="0.42745098039215684" />
<path d="M108,-97 L166,-72 L87,-102 L125,-96 L225,-123 L164,-218 Z" stroke-width="0" fill="#690509" fill-opacity="0.06666666666666667" />
<path d="M243,-250 L237,-203 L242,-51 L68,-170 L76,-180 L110,-268 Z" stroke-width="0" fill="#cd6695" fill-opacity="0.25098039215686274" />
<path d="M40,-186 L39,-197 L122,-62 L58,-198 L49,-77 L36,-71 Z" stroke-width="0" fill="#c4e3e4" fill-opacity="0.4470588235294118" />
<path d="M135,-275 L226,-324 L42,-100 L108,-239 L67,-306 L84,-119 Z" stroke-width="0" fill="#131fbc" fill-opacity="0.10980392156862745" />
<path d="M167,-285 L170,-219 L119,-164 L189,-176 L105,-37 L103,-283 Z" stroke-width="0" fill="#818257" fill-opacity="0.7019607843137254" />
<path d="M54,-285 L38,-47 L56,-146 L91,-311 L201,-284 L149,-278 Z" stroke-width="0" fill="#adb6c6" fill-opacity="0.44313725490196076" />
<path d="M238,-216 L154,-187 L103,-144 L108,-321 L239,-137 L79,-218 Z" stroke-width="0" fill="#709877" fill-opacity="0.16862745098039217" />
<path d="M241,-297 L187,-276 L202,-88 L111,-33 L103,-179 L45,-198 Z" stroke-width="0" fill="#230b3c" fill-opacity="0.37254901960784315" />
<path d="M38,-116 L46,-170 L46,-282 L79,-302 L232,-268 L168,-163 Z" stroke-width="0" fill="#e5d5c7" fill-opacity="0.28627450980392155" />
<path d="M146,-84 L143,-115 L70,-142 L100,-101 L48,-288 L48,-191 Z" stroke-width="0" fill="#106b6c" fill-opacity="0.19215686274509805" />
<path d="M57,-66 L104,-44 L177,-306 L40,-112 L195,-157 L249,-114 Z" stroke-width="0" fill="#bade94" fill-opacity="0.10980392156862745" />
<path d="M103,-138 L161,-176 L102,-210 L196,-131 L231,-85 L38,-193 Z" stroke-width="0" fill="#b097c4" fill-opacity="0.9294117647058824" />
<path d="M164,-269 L181,-58 L85,-287 L67,-292 L67,-203 L226,-198 Z" stroke-width="0" fill="#96e95d" fill-opacity="0.058823529411764705" />
<path d="M152,-85 L167,-228 L138,-76 L186,-104 L74,-59 L131,-134 Z" stroke-width="0" fill="#474327" fill-opacity="0.19215686274509805" />
<path d="M115,-112 L84,-305 L33,-204 L154,-196 L83,-168 L95,-244 Z" stroke-width="0" fill="#dbc4ca" fill-opacity="0.49019607843137253" />
<path d="M185,-103 L34,-197 L135,-303 L202,-281 L212,-153 L160,-246 Z" stroke-width="0" fill="#bbba8d" fill-opacity="0.6196078431372549" />
<path d="M204,-105 L55,-321 L238,-76 L236,-211 L77,-62 L117,-302 Z" stroke-width="0" fill="#efa2b4" fill-opacity="0.1803921568627451" />
<path d="M184,-73 L184,-152 L141,-218 L129,-168 L224,-173 L237,-120 Z" stroke-width="0" fill="#f0f7e0" fill-opacity="0.5019607843137255" />
<path d="M100,-106 L162,-266 L236,-116 L167,-242 L200,-266 L227,-256 Z" stroke-width="0" fill="#f1a268" fill-opacity="0.5372549019607843" />
<path d="M203,-321 L173,-36 L242,-292 L122,-322 L157,-135 L152,-152 Z" stroke-width="0" fill="#939684" fill-opacity="0.9058823529411765" />
<path d="M175,-110 L162,-133 L36,-164 L30,-163 L214,-83 L136,-256 Z" stroke-width="0" fill="#246d68" fill-opacity="0.1607843137254902" />
<text x="137.5" y="12.5" font-size="20.0" fill="black" text-anchor="middle" transform="translate(0,5.0)">CLASS</text>
</svg>