<?xml version="1.0" encoding="UTF-8"?>
<svg xmlns="http://www.w3.org/2000/svg" xmlns:xlink="http://www.w3.org/1999/xlink"
     width="896" height="1496" viewBox="0 -1400 896 1496" style="font-size:70;font-family:Poor Richard, Times New Roman;stroke:black;stroke-width:1;fill:none">
<defs>
</defs>
<path d="M366,-946 L246,-154 L194,-1126 L186,-1254 L454,-1170 L338,-474 Z" stroke-width="0" fill="#0b1c18" fill-opacity="0.9568627450980393" />
<path d="M546,-1006 L398,-394 L294,-1066 L174,-786 L470,-618 L698,-538 Z" stroke-width="0" fill="#fcf13c" fill-opacity="0.12549019607843137" />
<path d="M362,-1090 L138,-850 L694,-1250 L150,-282 L466,-1038 L346,-1078 Z" stroke-width="0" fill="#c6053e" fill-opacity="0.00392156862745098" />
<path d="M586,-306 L746,-598 L114,-654 L634,-354 L122,-886 L298,-530 Z" stroke-width="0" fill="#5eaf09" fill-opacity="0.054901960784313725" />
<path d="M450,-794 L782,-102 L214,-1042 L418,-414 L210,-1114 L170,-358 Z" stroke-width="0" fill="#351700" fill-opacity="0.9372549019607843" />
<path d="M482,-1090 L370,-374 L258,-1018 L446,-922 L558,-1114 L642,-598 Z" stroke-width="0" fill="#a90f06" fill-opacity="0.8745098039215686" />
<path d="M330,-614 L190,-154 L306,-982 L474,-1034 L718,-734 L150,-1270 Z" stroke-width="0" fill="#041b0e" fill-opacity="0.403921568627451" />
<path d="M430,-230 L402,-466 L686,-466 L694,-458 L334,-582 L402,-1050 Z" stroke-width="0" fill="#20c68e" fill-opacity="0.10196078431372549" />
<path d="M330,-678 L198,-882 L718,-754 L390,-846 L410,-1314 L166,-186 Z" stroke-width="0" fill="#9db503" fill-opacity="0.5803921568627451" />
<path d="M738,-182 L110,-686 L450,-634 L318,-414 L290,-1046 L390,-162 Z" stroke-width="0" fill="#5d1d00" fill-opacity="0.8235294117647058" />
<path d="M590,-566 L362,-898 L394,-270 L790,-1070 L458,-394 L242,-386 Z" stroke-width="0" fill="#340000" fill-opacity="0.8980392156862745" />
<path d="M462,-1270 L558,-662 L538,-158 L298,-306 L186,-642 L458,-1002 Z" stroke-width="0" fill="#ffd7e7" fill-opacity="0.8470588235294118" />
<path d="M230,-350 L338,-978 L638,-982 L370,-194 L302,-382 L190,-470 Z" stroke-width="0" fill="#d20452" fill-opacity="0.37254901960784315" />
<path d="M86,-882 L282,-230 L714,-562 L126,-602 L666,-638 L370,-338 Z" stroke-width="0" fill="#722141" fill-opacity="0.1450980392156863" />
<path d="M366,-834 L694,-1146 L338,-298 L466,-278 L242,-122 L450,-1218 Z" stroke-width="0" fill="#cc9f85" fill-opacity="0.03529411764705882" />
<path d="M326,-310 L618,-710 L450,-1118 L338,-742 L638,-626 L774,-986 Z" stroke-width="0" fill="#1f0000" fill-opacity="0.7607843137254902" />
<path d="M498,-466 L226,-594 L134,-614 L402,-538 L534,-590 L398,-118 Z" stroke-width="0" fill="#000000" fill-opacity="0.9176470588235294" />
<path d="M138,-998 L462,-718 L402,-490 L242,-162 L674,-398 L566,-626 Z" stroke-width="0" fill="#fbf7f1" fill-opacity="0.8784313725490196" />
<path d="M458,-946 L574,-622 L170,-734 L330,-1046 L390,-610 L86,-630 Z" stroke-width="0" fill="#862400" fill-opacity="0.7411764705882353" />
<path d="M794,-322 L662,-602 L438,-1270 L238,-1278 L354,-1018 L234,-918 Z" stroke-width="0" fill="#91b848" fill-opacity="1.0" />
<path d="M498,-1098 L210,-242 L386,-186 L562,-794 L242,-1254 L374,-290 Z" stroke-width="0" fill="#080a13" fill-opacity="0.8470588235294118" />
<path d="M642,-614 L478,-338 L390,-1086 L214,-1082 L394,-958 L214,-262 Z" stroke-width="0" fill="#c7efc6" fill-opacity="0.7607843137254902" />
<path d="M214,-666 L102,-1294 L82,-902 L234,-854 L158,-354 L242,-630 Z" stroke-width="0" fill="#000203" fill-opacity="0.09019607843137255" />
<path d="M734,-1290 L150,-1286 L178,-810 L346,-598 L378,-118 L666,-398 Z" stroke-width="0" fill="#8b8766" fill-opacity="0.4470588235294118" />
<path d="M350,-702 L346,-178 L166,-1130 L182,-770 L102,-426 L246,-294 Z" stroke-width="0" fill="#98bff6" fill-opacity="0.9098039215686274" />
<path d="M574,-106 L382,-482 L510,-950 L314,-266 L286,-966 L262,-1142 Z" stroke-width="0" fill="#651900" fill-opacity="0.6352941176470588" />
<path d="M690,-586 L462,-1190 L534,-466 L542,-154 L102,-1198 L358,-118 Z" stroke-width="0" fill="#61e9d8" fill-opacity="0.21568627450980393" />
<path d="M130,-166 L502,-918 L346,-1286 L386,-1166 L678,-774 L602,-1034 Z" stroke-width="0" fill="#a3966b" fill-opacity="0.8980392156862745" />
<path d="M414,-706 L458,-938 L218,-1202 L666,-446 L90,-774 L306,-814 Z" stroke-width="0" fill="#ef0b06" fill-opacity="0.12156862745098039" />
<path d="M226,-214 L486,-1078 L246,-1222 L262,-202 L490,-386 L370,-478 Z" stroke-width="0" fill="#0f120d" fill-opacity="0.8470588235294118" />
<path d="M414,-1222 L750,-890 L434,-190 L714,-406 L486,-870 L522,-510 Z" stroke-width="0" fill="#ced8f4" fill-opacity="0.6666666666666666" />
<path d="M510,-674 L370,-1150 L762,-1098 L414,-1254 L558,-942 L682,-310 Z" stroke-width="0" fill="#f3e5f1" fill-opacity="0.6823529411764706" />
<path d="M710,-138 L170,-1222 L98,-562 L98,-630 L166,-1134 L794,-842 Z" stroke-width="0" fill="#2c0700" fill-opacity="0.8431372549019608" />
<path d="M462,-86 L130,-958 L606,-1186 L454,-634 L374,-290 L530,-890 Z" stroke-width="0" fill="#b7bcb1" fill-opacity="0.49411764705882355" />
<path d="M202,-1002 L606,-102 L426,-970 L706,-1034 L86,-326 L126,-414 Z" stroke-width="0" fill="#57310b" fill-opacity="0.7372549019607844" />
<path d="M346,-522 L518,-530 L786,-1022 L266,-490 L734,-438 L306,-1278 Z" stroke-width="0" fill="#39322a" fill-opacity="0.8980392156862745" />
<path d="M794,-138 L674,-1022 L542,-1098 L554,-1026 L450,-194 L670,-706 Z" stroke-width="0" fill="#070000" fill-opacity="0.5803921568627451" />
<path d="M146,-1250 L790,-1118 L118,-370 L310,-570 L250,-282 L554,-1226 Z" stroke-width="0" fill="#9b8abe" fill-opacity="0.08235294117647059" />
<path d="M582,-330 L122,-782 L806,-602 L554,-602 L546,-130 L634,-442 Z" stroke-width="0" fill="#4b1f13" fill-opacity="0.6901960784313725" />
<path d="M614,-1302 L286,-286 L594,-946 L222,-794 L322,-530 L574,-234 Z" stroke-width="0" fill="#fff8f7" fill-opacity="0.047058823529411764" />
<path d="M262,-1246 L210,-354 L314,-438 L794,-1282 L474,-1122 L450,-934 Z" stroke-width="0" fill="#d6defb" fill-opacity="0.2784313725490196" />
<path d="M510,-870 L378,-306 L558,-146 L626,-778 L242,-466 L614,-282 Z" stroke-width="0" fill="#bb7946" fill-opacity="0.6549019607843137" />
<path d="M250,-978 L462,-786 L290,-686 L86,-1078 L802,-506 L226,-334 Z" stroke-width="0" fill="#f89a84" fill-opacity="0.32941176470588235" />
<path d="M94,-362 L82,-1158 L290,-1038 L582,-690 L790,-442 L518,-1070 Z" stroke-width="0" fill="#311c01" fill-opacity="0.5137254901960784" />
<path d="M602,-838 L634,-1206 L382,-130 L634,-390 L754,-1230 L278,-910 Z" stroke-width="0" fill="#6c473e" fill-opacity="0.07450980392156863" />
<path d="M514,-618 L466,-1038 L198,-150 L654,-882 L418,-486 L430,-650 Z" stroke-width="0" fill="#b6f4eb" fill-opacity="0.06666666666666667" />
<path d="M474,-750 L466,-530 L462,-742 L82,-794 L498,-414 L554,-682 Z" stroke-width="0" fill="#e0fef9" fill-opacity="0.6784313725490196" />
<path d="M722,-406 L622,-638 L214,-470 L418,-518 L534,-710 L254,-770 Z" stroke-width="0" fill="#1a0c02" fill-opacity="0.8470588235294118" />
<path d="M630,-710 L798,-1290 L326,-710 L294,-518 L558,-166 L238,-602 Z" stroke-width="0" fill="#b8a993" fill-opacity="0.7607843137254902" />
<path d="M550,-142 L290,-802 L306,-218 L142,-918 L86,-162 L386,-86 Z" stroke-width="0" fill="#0f0100" fill-opacity="0.6784313725490196" />
<path d="M622,-754 L774,-166 L458,-854 L426,-402 L214,-1114 L230,-134 Z" stroke-width="0" fill="#552b14" fill-opacity="0.49411764705882355" />
<path d="M542,-1206 L294,-622 L750,-1234 L750,-862 L174,-182 L186,-1102 Z" stroke-width="0" fill="#bacd92" fill-opacity="0.5764705882352941" />
<path d="M370,-442 L202,-506 L494,-390 L190,-274 L354,-474 L682,-450 Z" stroke-width="0" fill="#080d2b" fill-opacity="0.9686274509803922" />
<path d="M638,-498 L118,-266 L402,-198 L138,-562 L486,-606 L550,-886 Z" stroke-width="0" fill="#0c0007" fill-opacity="0.996078431372549" />
<path d="M602,-818 L390,-718 L574,-682 L330,-202 L250,-978 L386,-218 Z" stroke-width="0" fill="#ae4e63" fill-opacity="0.043137254901960784" />
<path d="M402,-126 L650,-934 L514,-978 L758,-1266 L538,-1274 L230,-730 Z" stroke-width="0" fill="#fffdec" fill-opacity="0.23137254901960785" />
<path d="M314,-1178 L198,-1086 L578,-406 L94,-962 L378,-886 L158,-1170 Z" stroke-width="0" fill="#9f667c" fill-opacity="0.14901960784313725" />
<path d="M418,-1130 L314,-1286 L802,-170 L774,-550 L142,-250 L502,-106 Z" stroke-width="0" fill="#b99878" fill-opacity="0.5725490196078431" />
<path d="M214,-174 L690,-794 L110,-1238 L262,-1230 L542,-1062 L110,-758 Z" stroke-width="0" fill="#1a3c2c" fill-opacity="0.48627450980392156" />
<path d="M126,-154 L290,-1270 L482,-346 L278,-502 L782,-1222 L646,-1022 Z" stroke-width="0" fill="#2b231c" fill-opacity="0.38823529411764707" />
<path d="M606,-346 L118,-522 L186,-402 L498,-258 L778,-346 L126,-1286 Z" stroke-width="0" fill="#eb7fea" fill-opacity="0.8235294117647058" />
<path d="M138,-1034 L466,-806 L190,-386 L466,-474 L242,-1006 L506,-466 Z" stroke-width="0" fill="#9b8b9c" fill-opacity="0.792156862745098" />
<path d="M638,-886 L450,-942 L618,-1218 L330,-666 L378,-150 L302,-322 Z" stroke-width="0" fill="#03090f" fill-opacity="0.5333333333333333" />
<path d="M458,-866 L290,-750 L554,-610 L154,-314 L358,-334 L454,-1014 Z" stroke-width="0" fill="#0c0b06" fill-opacity="0.6862745098039216" />
<path d="M530,-302 L82,-494 L654,-1070 L286,-634 L362,-790 L530,-542 Z" stroke-width="0" fill="#002a14" fill-opacity="0.30196078431372547" />
<path d="M374,-918 L546,-230 L318,-234 L282,-1078 L282,-758 L738,-614 Z" stroke-width="0" fill="#58dcbb" fill-opacity="0.0196078431372549" />
<path d="M158,-954 L470,-702 L730,-450 L526,-838 L114,-266 L730,-1018 Z" stroke-width="0" fill="#643a03" fill-opacity="0.12941176470588237" />
<path d="M194,-150 L706,-534 L346,-690 L190,-1302 L222,-334 L198,-986 Z" stroke-width="0" fill="#443418" fill-opacity="0.6549019607843137" />
<path d="M686,-858 L214,-570 L438,-826 L254,-1198 L250,-754 L766,-1142 Z" stroke-width="0" fill="#67294d" fill-opacity="0.5137254901960784" />
<path d="M738,-1050 L274,-742 L770,-322 L366,-1014 L458,-454 L658,-870 Z" stroke-width="0" fill="#9e8e56" fill-opacity="0.058823529411764705" />
<path d="M726,-350 L378,-538 L238,-434 L558,-146 L278,-518 L418,-150 Z" stroke-width="0" fill="#f9d6ad" fill-opacity="0.6352941176470588" />
<path d="M718,-326 L258,-302 L178,-258 L182,-674 L466,-346 L362,-1058 Z" stroke-width="0" fill="#dee8ea" fill-opacity="0.20392156862745098" />
<path d="M394,-1258 L410,-794 L206,-490 L90,-750 L746,-694 L398,-894 Z" stroke-width="0" fill="#290000" fill-opacity="0.07450980392156863" />
<path d="M230,-694 L166,-606 L214,-406 L534,-366 L762,-550 L382,-542 Z" stroke-width="0" fill="#c2f9dc" fill-opacity="0.023529411764705882" />
<path d="M546,-978 L522,-378 L570,-966 L810,-750 L474,-1006 L522,-1022 Z" stroke-width="0" fill="#936740" fill-opacity="0.4627450980392157" />
<path d="M234,-390 L182,-1258 L214,-1126 L106,-506 L610,-578 L630,-794 Z" stroke-width="0" fill="#704e2f" fill-opacity="0.8235294117647058" />
<path d="M134,-446 L238,-374 L334,-490 L266,-958 L646,-354 L122,-502 Z" stroke-width="0" fill="#71f87f" fill-opacity="0.17647058823529413" />
<path d="M510,-1066 L694,-414 L506,-630 L558,-1270 L666,-1314 L150,-462 Z" stroke-width="0" fill="#b5ae04" fill-opacity="0.1803921568627451" />
<path d="M126,-838 L106,-282 L586,-310 L778,-762 L794,-126 L678,-442 Z" stroke-width="0" fill="#524c37" fill-opacity="0.1843137254901961" />
<path d="M678,-142 L490,-614 L138,-1114 L410,-1034 L754,-122 L550,-306 Z" stroke-width="0" fill="#c4b8b5" fill-opacity="0.7411764705882353" />
<path d="M602,-666 L662,-254 L774,-210 L786,-146 L442,-462 L618,-158 Z" stroke-width="0" fill="#b4d9d0" fill-opacity="0.5019607843137255" />
<path d="M218,-878 L222,-350 L226,-1002 L498,-806 L590,-426 L322,-734 Z" stroke-width="0" fill="#2c0e06" fill-opacity="0.7215686274509804" />
<path d="M134,-718 L170,-1174 L434,-306 L446,-498 L306,-138 L170,-414 Z" stroke-width="0" fill="#d59e87" fill-opacity="0.3607843137254902" />
<path d="M182,-754 L502,-686 L578,-1198 L166,-642 L362,-558 L550,-462 Z" stroke-width="0" fill="#847dbd" fill-opacity="0.9098039215686274" />
<path d="M186,-1134 L222,-1194 L790,-882 L510,-910 L86,-374 L414,-658 Z" stroke-width="0" fill="#404828" fill-opacity="0.41568627450980394" />
<path d="M514,-998 L502,-98 L126,-1222 L346,-618 L474,-654 L802,-774 Z" stroke-width="0" fill="#368210" fill-opacity="0.027450980392156862" />
<path d="M462,-1274 L722,-302 L378,-858 L438,-1294 L194,-646 L406,-294 Z" stroke-width="0" fill="#e1eaa8" fill-opacity="0.5019607843137255" />
<path d="M538,-190 L322,-222 L586,-186 L274,-522 L394,-1278 L674,-554 Z" stroke-width="0" fill="#e9e0f0" fill-opacity="0.1411764705882353" />
<path d="M118,-266 L654,-638 L142,-158 L518,-1118 L422,-246 L450,-158 Z" stroke-width="0" fill="#262418" fill-opacity="0.792156862745098" />
<path d="M266,-902 L534,-1090 L118,-294 L410,-458 L610,-798 L246,-1030 Z" stroke-width="0" fill="#120008" fill-opacity="0.49019607843137253" />
<path d="M426,-530 L474,-106 L270,-206 L706,-1202 L86,-398 L558,-538 Z" stroke-width="0" fill="#aa4c31" fill-opacity="0.24705882352941178" />
<path d="M82,-494 L190,-554 L382,-314 L498,-266 L442,-270 L142,-646 Z" stroke-width="0" fill="#685955" fill-opacity="0.37254901960784315" />
<path d="M362,-402 L122,-1274 L634,-1146 L206,-1018 L98,-878 L366,-210 Z" stroke-width="0" fill="#99e0eb" fill-opacity="0.2196078431372549" />
<path d="M562,-1206 L86,-798 L518,-538 L94,-478 L362,-1254 L342,-242 Z" stroke-width="0" fill="#b39091" fill-opacity="0.8156862745098039" />
<path d="M522,-350 L94,-726 L670,-814 L510,-606 L502,-486 L238,-498 Z" stroke-width="0" fill="#3b2600" fill-opacity="0.5019607843137255" />
<path d="M554,-578 L706,-258 L434,-1090 L722,-890 L394,-786 L310,-1170 Z" stroke-width="0" fill="#a89490" fill-opacity="0.6" />
<path d="M502,-426 L318,-990 L470,-1034 L438,-226 L654,-454 L310,-706 Z" stroke-width="0" fill="#243dac" fill-opacity="0.0" />
<path d="M530,-722 L686,-634 L246,-1294 L642,-274 L158,-658 L626,-538 Z" stroke-width="0" fill="#b5ef39" fill-opacity="0.07450980392156863" />
<path d="M174,-1006 L410,-1194 L98,-546 L558,-266 L514,-534 L546,-138 Z" stroke-width="0" fill="#080303" fill-opacity="0.07450980392156863" />
<path d="M270,-698 L242,-810 L550,-986 L402,-874 L198,-86 L702,-1170 Z" stroke-width="0" fill="#c7bdc1" fill-opacity="0.11372549019607843" />
<text x="448.0" y="0" font-size="70.0" fill="black" text-anchor="middle" transform="translate(0,17.5)">CLASS</text>
</svg>