<?xml version="1.0" encoding="UTF-8"?>
<svg xmlns="http://www.w3.org/2000/svg" xmlns:xlink="http://www.w3.org/1999/xlink"
     width="896" height="1496" viewBox="0 -1400 896 1496" style="font-size:70;font-family:Poor Richard, Times New Roman;stroke:black;stroke-width:1;fill:none">
<defs>
</defs>
<path d="M394,-346 L286,-730 L674,-238 L530,-550 L510,-682 L122,-458 Z" stroke-width="0" fill="#000000" fill-opacity="0.8705882352941177" />
<path d="M510,-710 L262,-1078 L114,-1142 L794,-670 L458,-1178 L114,-458 Z" stroke-width="0" fill="#000000" fill-opacity="0.9607843137254902" />
<path d="M522,-518 L662,-1166 L126,-1226 L202,-890 L730,-974 L338,-674 Z" stroke-width="0" fill="#000000" fill-opacity="0.9647058823529412" />
<path d="M362,-1182 L450,-254 L630,-674 L234,-326 L342,-1090 L526,-162 Z" stroke-width="0" fill="#2d99e4" fill-opacity="0.24705882352941178" />
<path d="M598,-154 L506,-502 L374,-306 L130,-934 L810,-926 L726,-1114 Z" stroke-width="0" fill="#000000" fill-opacity="1.0" />
<path d="M434,-522 L462,-514 L198,-518 L622,-782 L738,-94 L186,-430 Z" stroke-width="0" fill="#000000" fill-opacity="0.9803921568627451" />
<path d="M334,-1054 L802,-590 L686,-1314 L402,-154 L498,-582 L350,-270 Z" stroke-width="0" fill="#000000" fill-opacity="0.9686274509803922" />
<path d="M290,-358 L570,-82 L478,-154 L334,-250 L358,-422 L694,-626 Z" stroke-width="0" fill="#000000" fill-opacity="0.8117647058823529" />
<path d="M478,-402 L794,-898 L334,-482 L614,-802 L226,-1082 L270,-1198 Z" stroke-width="0" fill="#000000" fill-opacity="0.9568627450980393" />
<path d="M586,-1290 L482,-202 L546,-250 L270,-242 L666,-478 L342,-398 Z" stroke-width="0" fill="#000000" fill-opacity="0.9647058823529412" />
<path d="M622,-562 L414,-134 L322,-282 L338,-474 L270,-1002 L294,-1182 Z" stroke-width="0" fill="#000000" fill-opacity="0.9450980392156862" />
<path d="M414,-1106 L746,-986 L522,-1018 L626,-110 L626,-1210 L530,-634 Z" stroke-width="0" fill="#000000" fill-opacity="0.8823529411764706" />
<path d="M478,-794 L170,-598 L706,-302 L470,-102 L198,-654 L526,-506 Z" stroke-width="0" fill="#000000" fill-opacity="0.7764705882352941" />
<path d="M346,-794 L430,-230 L130,-558 L262,-82 L746,-434 L486,-758 Z" stroke-width="0" fill="#000000" fill-opacity="0.996078431372549" />
<path d="M698,-1186 L790,-146 L146,-1170 L202,-370 L738,-1242 L126,-1306 Z" stroke-width="0" fill="#000000" fill-opacity="0.9450980392156862" />
<path d="M290,-926 L370,-518 L390,-306 L318,-246 L354,-538 L530,-822 Z" stroke-width="0" fill="#8497e1" fill-opacity="0.011764705882352941" />
<path d="M230,-254 L718,-766 L686,-982 L142,-286 L390,-182 L582,-1030 Z" stroke-width="0" fill="#0e1300" fill-opacity="0.8862745098039215" />
<path d="M362,-718 L186,-1130 L262,-242 L322,-774 L474,-466 L482,-606 Z" stroke-width="0" fill="#8cc3c8" fill-opacity="0.1843137254901961" />
<path d="M542,-570 L398,-442 L678,-590 L674,-614 L330,-634 L370,-1230 Z" stroke-width="0" fill="#aa6871" fill-opacity="0.8901960784313725" />
<path d="M82,-150 L742,-1154 L202,-614 L474,-1054 L690,-134 L114,-170 Z" stroke-width="0" fill="#000000" fill-opacity="0.9411764705882353" />
<path d="M322,-646 L614,-142 L202,-986 L474,-782 L286,-258 L282,-338 Z" stroke-width="0" fill="#000000" fill-opacity="0.8431372549019608" />
<path d="M786,-358 L718,-1158 L498,-214 L766,-730 L426,-626 L106,-102 Z" stroke-width="0" fill="#000000" fill-opacity="0.796078431372549" />
<path d="M342,-166 L498,-830 L254,-206 L350,-818 L358,-358 L518,-178 Z" stroke-width="0" fill="#000000" fill-opacity="0.49411764705882355" />
<path d="M354,-330 L498,-1078 L286,-574 L514,-1106 L386,-1110 L246,-1290 Z" stroke-width="0" fill="#000000" fill-opacity="0.9450980392156862" />
<path d="M566,-338 L794,-498 L342,-578 L266,-830 L214,-614 L114,-1094 Z" stroke-width="0" fill="#000000" fill-opacity="0.9764705882352941" />
<path d="M394,-1082 L402,-374 L326,-766 L454,-598 L202,-898 L162,-1198 Z" stroke-width="0" fill="#8347c9" fill-opacity="0.050980392156862744" />
<path d="M90,-266 L526,-514 L726,-618 L398,-1214 L690,-1054 L494,-990 Z" stroke-width="0" fill="#000000" fill-opacity="0.9176470588235294" />
<path d="M674,-1050 L730,-626 L86,-106 L486,-998 L134,-294 L90,-1058 Z" stroke-width="0" fill="#000000" fill-opacity="0.9686274509803922" />
<path d="M258,-650 L638,-1230 L290,-238 L178,-706 L470,-1226 L698,-486 Z" stroke-width="0" fill="#070812" fill-opacity="0.8980392156862745" />
<path d="M130,-602 L406,-338 L298,-1030 L294,-138 L162,-478 L134,-210 Z" stroke-width="0" fill="#000000" fill-opacity="0.9372549019607843" />
<path d="M234,-942 L218,-650 L478,-234 L138,-166 L650,-602 L122,-734 Z" stroke-width="0" fill="#000000" fill-opacity="0.9568627450980393" />
<path d="M442,-470 L386,-1238 L682,-954 L654,-322 L734,-654 L570,-222 Z" stroke-width="0" fill="#010000" fill-opacity="0.8980392156862745" />
<path d="M310,-134 L810,-1262 L82,-618 L802,-362 L418,-818 L282,-250 Z" stroke-width="0" fill="#000000" fill-opacity="0.6549019607843137" />
<path d="M382,-670 L90,-154 L278,-450 L406,-262 L766,-1026 L454,-1190 Z" stroke-width="0" fill="#000000" fill-opacity="0.9529411764705882" />
<path d="M386,-430 L722,-174 L526,-566 L430,-290 L658,-358 L798,-258 Z" stroke-width="0" fill="#000000" fill-opacity="0.8274509803921568" />
<path d="M414,-726 L290,-1038 L598,-174 L434,-450 L450,-646 L210,-990 Z" stroke-width="0" fill="#000007" fill-opacity="0.6196078431372549" />
<path d="M154,-394 L382,-1038 L670,-106 L434,-142 L106,-330 L506,-1218 Z" stroke-width="0" fill="#000000" fill-opacity="0.8784313725490196" />
<path d="M146,-510 L138,-590 L206,-478 L82,-586 L490,-630 L622,-962 Z" stroke-width="0" fill="#000000" fill-opacity="0.9411764705882353" />
<path d="M418,-202 L178,-1094 L466,-1274 L194,-382 L130,-950 L238,-558 Z" stroke-width="0" fill="#000000" fill-opacity="0.9176470588235294" />
<path d="M694,-414 L574,-522 L222,-1046 L206,-1154 L238,-874 L298,-218 Z" stroke-width="0" fill="#6d9818" fill-opacity="0.8784313725490196" />
<path d="M758,-594 L90,-1022 L478,-958 L794,-434 L550,-514 L498,-1122 Z" stroke-width="0" fill="#000000" fill-opacity="1.0" />
<path d="M414,-1238 L630,-1094 L790,-1050 L118,-754 L782,-234 L794,-1314 Z" stroke-width="0" fill="#000000" fill-opacity="0.792156862745098" />
<path d="M654,-766 L150,-554 L290,-246 L542,-1314 L530,-634 L262,-1034 Z" stroke-width="0" fill="#000000" fill-opacity="0.792156862745098" />
<path d="M82,-894 L646,-846 L454,-1310 L346,-986 L94,-1138 L210,-890 Z" stroke-width="0" fill="#000000" fill-opacity="0.8745098039215686" />
<path d="M306,-410 L86,-814 L278,-802 L90,-510 L394,-414 L474,-1186 Z" stroke-width="0" fill="#000000" fill-opacity="0.5019607843137255" />
<path d="M750,-510 L358,-1086 L714,-1130 L146,-1302 L246,-398 L426,-822 Z" stroke-width="0" fill="#000000" fill-opacity="0.9294117647058824" />
<path d="M270,-958 L210,-826 L222,-298 L790,-886 L810,-230 L374,-262 Z" stroke-width="0" fill="#000000" fill-opacity="0.8549019607843137" />
<path d="M290,-166 L362,-806 L350,-894 L630,-246 L322,-510 L166,-666 Z" stroke-width="0" fill="#000500" fill-opacity="0.3411764705882353" />
<path d="M522,-946 L230,-622 L230,-1106 L194,-990 L90,-450 L658,-1278 Z" stroke-width="0" fill="#000000" fill-opacity="0.5058823529411764" />
<path d="M222,-126 L802,-270 L242,-290 L98,-702 L570,-338 L258,-346 Z" stroke-width="0" fill="#000000" fill-opacity="0.8352941176470589" />
<path d="M262,-1054 L754,-914 L98,-1206 L454,-182 L458,-490 L422,-826 Z" stroke-width="0" fill="#000000" fill-opacity="0.9372549019607843" />
<path d="M202,-502 L374,-414 L786,-554 L382,-1138 L354,-718 L694,-182 Z" stroke-width="0" fill="#000000" fill-opacity="0.8" />
<path d="M582,-554 L370,-978 L562,-510 L230,-494 L198,-498 L282,-470 Z" stroke-width="0" fill="#f99bc1" fill-opacity="0.10588235294117647" />
<path d="M478,-218 L314,-898 L366,-422 L326,-1158 L262,-118 L150,-882 Z" stroke-width="0" fill="#000000" fill-opacity="0.5058823529411764" />
<path d="M190,-614 L466,-870 L186,-846 L782,-1134 L374,-386 L294,-658 Z" stroke-width="0" fill="#eceefd" fill-opacity="0.7647058823529411" />
<path d="M298,-730 L174,-1038 L102,-282 L526,-414 L774,-162 L802,-330 Z" stroke-width="0" fill="#000000" fill-opacity="0.8823529411764706" />
<path d="M154,-1206 L178,-978 L254,-386 L186,-622 L486,-194 L594,-894 Z" stroke-width="0" fill="#010000" fill-opacity="0.8784313725490196" />
<path d="M398,-174 L270,-694 L762,-646 L230,-686 L650,-442 L174,-490 Z" stroke-width="0" fill="#875c32" fill-opacity="0.03137254901960784" />
<path d="M406,-498 L574,-850 L126,-494 L734,-394 L534,-698 L590,-242 Z" stroke-width="0" fill="#000000" fill-opacity="0.6274509803921569" />
<path d="M210,-1010 L678,-502 L374,-786 L282,-402 L470,-286 L270,-154 Z" stroke-width="0" fill="#000000" fill-opacity="0.18823529411764706" />
<path d="M242,-766 L674,-686 L202,-794 L298,-882 L254,-418 L598,-726 Z" stroke-width="0" fill="#a6f787" fill-opacity="0.13333333333333333" />
<path d="M662,-698 L718,-162 L322,-730 L254,-370 L578,-286 L666,-514 Z" stroke-width="0" fill="#000000" fill-opacity="0.9607843137254902" />
<path d="M382,-1294 L226,-1066 L118,-114 L334,-826 L618,-246 L646,-1086 Z" stroke-width="0" fill="#000000" fill-opacity="0.8901960784313725" />
<path d="M250,-166 L630,-862 L522,-714 L282,-1026 L314,-686 L710,-726 Z" stroke-width="0" fill="#9ebcd6" fill-opacity="0.47058823529411764" />
<path d="M86,-1306 L506,-634 L286,-98 L526,-1050 L390,-310 L790,-362 Z" stroke-width="0" fill="#000000" fill-opacity="0.7607843137254902" />
<path d="M530,-1222 L478,-114 L298,-302 L614,-146 L118,-474 L134,-830 Z" stroke-width="0" fill="#000000" fill-opacity="0.7294117647058823" />
<path d="M126,-982 L398,-414 L218,-722 L138,-574 L310,-626 L314,-926 Z" stroke-width="0" fill="#000000" fill-opacity="0.8156862745098039" />
<path d="M474,-374 L634,-570 L630,-1078 L746,-386 L262,-830 L142,-290 Z" stroke-width="0" fill="#000000" fill-opacity="0.9215686274509803" />
<path d="M446,-170 L162,-194 L562,-906 L294,-314 L382,-1122 L494,-450 Z" stroke-width="0" fill="#000000" fill-opacity="0.8901960784313725" />
<path d="M654,-910 L318,-230 L510,-486 L674,-366 L246,-174 L150,-1218 Z" stroke-width="0" fill="#000000" fill-opacity="0.9176470588235294" />
<path d="M202,-426 L566,-578 L414,-238 L126,-218 L698,-394 L774,-650 Z" stroke-width="0" fill="#000000" fill-opacity="0.3333333333333333" />
<path d="M150,-794 L378,-370 L522,-470 L98,-742 L146,-742 L362,-306 Z" stroke-width="0" fill="#000000" fill-opacity="0.8862745098039215" />
<path d="M794,-618 L802,-694 L186,-730 L306,-374 L766,-934 L690,-438 Z" stroke-width="0" fill="#000000" fill-opacity="0.9607843137254902" />
<path d="M490,-1238 L598,-858 L202,-470 L718,-198 L190,-470 L458,-1050 Z" stroke-width="0" fill="#000000" fill-opacity="0.9803921568627451" />
<path d="M454,-838 L566,-370 L638,-930 L130,-330 L406,-1074 L470,-466 Z" stroke-width="0" fill="#000000" fill-opacity="0.20392156862745098" />
<path d="M554,-262 L122,-210 L210,-666 L486,-706 L110,-1182 L406,-526 Z" stroke-width="0" fill="#000000" fill-opacity="0.7254901960784313" />
<path d="M510,-882 L146,-790 L514,-770 L806,-722 L318,-586 L750,-1238 Z" stroke-width="0" fill="#000000" fill-opacity="0.7843137254901961" />
<path d="M550,-510 L130,-614 L390,-338 L246,-114 L262,-582 L438,-714 Z" stroke-width="0" fill="#000000" fill-opacity="1.0" />
<path d="M502,-618 L642,-298 L234,-630 L598,-94 L278,-246 L318,-218 Z" stroke-width="0" fill="#000000" fill-opacity="0.9764705882352941" />
<path d="M234,-846 L298,-374 L658,-678 L622,-426 L338,-1054 L98,-722 Z" stroke-width="0" fill="#000000" fill-opacity="0.788235294117647" />
<path d="M654,-838 L522,-1270 L634,-350 L166,-234 L122,-1114 L798,-330 Z" stroke-width="0" fill="#000000" fill-opacity="0.8509803921568627" />
<path d="M626,-974 L270,-1190 L654,-994 L766,-434 L362,-658 L206,-694 Z" stroke-width="0" fill="#000000" fill-opacity="0.5019607843137255" />
<path d="M378,-662 L710,-1018 L382,-826 L326,-126 L726,-650 L138,-338 Z" stroke-width="0" fill="#000000" fill-opacity="0.5019607843137255" />
<path d="M550,-862 L394,-134 L462,-574 L754,-1198 L438,-798 L618,-606 Z" stroke-width="0" fill="#000000" fill-opacity="0.6039215686274509" />
<path d="M798,-962 L246,-90 L730,-718 L558,-454 L414,-874 L646,-714 Z" stroke-width="0" fill="#000000" fill-opacity="0.8784313725490196" />
<path d="M486,-286 L390,-686 L754,-286 L538,-398 L414,-686 L510,-1114 Z" stroke-width="0" fill="#000000" fill-opacity="0.5019607843137255" />
<path d="M770,-550 L346,-1286 L522,-614 L106,-918 L406,-358 L382,-286 Z" stroke-width="0" fill="#000000" fill-opacity="0.8588235294117647" />
<path d="M214,-506 L702,-150 L654,-990 L434,-194 L362,-562 L338,-726 Z" stroke-width="0" fill="#000000" fill-opacity="0.9921568627450981" />
<path d="M118,-366 L366,-482 L198,-834 L614,-794 L706,-254 L666,-1082 Z" stroke-width="0" fill="#000000" fill-opacity="0.9490196078431372" />
<path d="M626,-526 L778,-906 L454,-462 L770,-1206 L206,-626 L318,-550 Z" stroke-width="0" fill="#000000" fill-opacity="0.9921568627450981" />
<path d="M766,-590 L150,-782 L174,-610 L346,-782 L126,-994 L718,-638 Z" stroke-width="0" fill="#000000" fill-opacity="0.9921568627450981" />
<path d="M266,-598 L406,-806 L378,-1162 L294,-1098 L458,-290 L678,-650 Z" stroke-width="0" fill="#000000" fill-opacity="0.5764705882352941" />
<path d="M390,-514 L166,-838 L186,-1150 L738,-1306 L730,-722 L386,-330 Z" stroke-width="0" fill="#000000" fill-opacity="0.9490196078431372" />
<path d="M454,-1154 L98,-374 L402,-1222 L806,-754 L590,-186 L282,-250 Z" stroke-width="0" fill="#000000" fill-opacity="0.788235294117647" />
<path d="M786,-382 L114,-1258 L566,-106 L542,-90 L738,-534 L394,-902 Z" stroke-width="0" fill="#000000" fill-opacity="0.5176470588235295" />
<path d="M270,-1190 L310,-582 L182,-1182 L294,-1074 L558,-578 L434,-662 Z" stroke-width="0" fill="#000000" fill-opacity="0.4745098039215686" />
<path d="M346,-854 L730,-1202 L458,-326 L510,-282 L218,-1102 L526,-470 Z" stroke-width="0" fill="#000000" fill-opacity="0.9568627450980393" />
<path d="M786,-1310 L802,-1190 L618,-322 L350,-822 L574,-150 L402,-470 Z" stroke-width="0" fill="#000000" fill-opacity="0.34901960784313724" />
<path d="M178,-598 L194,-554 L362,-1302 L106,-1238 L806,-1230 L438,-1166 Z" stroke-width="0" fill="#000000" fill-opacity="0.7568627450980392" />
<path d="M146,-998 L182,-762 L574,-862 L130,-454 L646,-798 L230,-658 Z" stroke-width="0" fill="#000000" fill-opacity="0.5098039215686274" />
<text x="448.0" y="0" font-size="70.0" fill="black" text-anchor="middle" transform="translate(0,17.5)">ROLE</text>
</svg>