<?xml version="1.0" encoding="UTF-8"?>
<svg xmlns="http://www.w3.org/2000/svg" xmlns:xlink="http://www.w3.org/1999/xlink"
     width="275" height="375" viewBox="0 -350 275 375">
<defs>
</defs>
<rect x="15" y="-335" width="245" height="320" stroke="black" stroke-width="4" fill="white" />
<path d="M163,-320 L109,-63 L142,-142 L192,-143 L60,-293 L50,-133 Z" stroke-width="0" fill="#48a45e" fill-opacity="0.4666666666666667" />
<path d="M191,-280 L213,-149 L112,-283 L30,-285 L199,-51 L236,-158 Z" stroke-width="0" fill="#050f27" fill-opacity="0.39215686274509803" />
<path d="M102,-204 L35,-133 L26,-216 L210,-234 L176,-307 L247,-132 Z" stroke-width="0" fill="#0a0017" fill-opacity="0.5176470588235295" />
<path d="M34,-179 L154,-104 L157,-145 L26,-62 L131,-307 L106,-124 Z" stroke-width="0" fill="#098ffe" fill-opacity="0.047058823529411764" />
<path d="M170,-182 L76,-232 L54,-315 L28,-31 L87,-211 L117,-317 Z" stroke-width="0" fill="#0a06b6" fill-opacity="0.3764705882352941" />
<path d="M159,-26 L173,-97 L65,-224 L221,-213 L58,-106 L97,-140 Z" stroke-width="0" fill="#14217f" fill-opacity="0.5019607843137255" />
<path d="M34,-223 L222,-300 L49,-245 L86,-55 L71,-284 L65,-226 Z" stroke-width="0" fill="#24150f" fill-opacity="0.5333333333333333" />
<path d="M59,-249 L130,-140 L62,-124 L67,-73 L130,-72 L246,-99 Z" stroke-width="0" fill="#eae2d0" fill-opacity="0.10588235294117647" />
<path d="M129,-122 L32,-315 L86,-108 L128,-209 L64,-167 L122,-195 Z" stroke-width="0" fill="#000056" fill-opacity="0.6549019607843137" />
<path d="M77,-75 L63,-113 L32,-159 L48,-127 L219,-63 L57,-205 Z" stroke-width="0" fill="#eff2e8" fill-opacity="0.9764705882352941" />
<path d="M194,-101 L141,-142 L127,-140 L29,-59 L127,-204 L41,-276 Z" stroke-width="0" fill="#e5cff9" fill-opacity="0.30980392156862746" />
<path d="M135,-116 L140,-280 L197,-58 L178,-116 L32,-52 L173,-270 Z" stroke-width="0" fill="#82c4da" fill-opacity="0.27450980392156865" />
<path d="M136,-58 L27,-74 L53,-64 L58,-123 L57,-140 L32,-308 Z" stroke-width="0" fill="#223a93" fill-opacity="0.6627450980392157" />
<path d="M50,-131 L46,-114 L84,-51 L80,-93 L32,-283 L48,-42 Z" stroke-width="0" fill="#556caa" fill-opacity="0.8313725490196079" />
<path d="M118,-263 L50,-214 L67,-174 L215,-248 L38,-280 L198,-310 Z" stroke-width="0" fill="#3b78f9" fill-opacity="0.3058823529411765" />
<path d="M165,-149 L141,-137 L112,-86 L48,-279 L223,-151 L220,-215 Z" stroke-width="0" fill="#7e3171" fill-opacity="0.7098039215686275" />
<path d="M238,-65 L25,-56 L198,-302 L110,-183 L38,-32 L134,-118 Z" stroke-width="0" fill="#9180da" fill-opacity="0.9333333333333333" />
<path d="M40,-217 L156,-158 L73,-230 L45,-192 L114,-199 L57,-33 Z" stroke-width="0" fill="#4a0588" fill-opacity="0.2980392156862745" />
<path d="M121,-225 L243,-193 L177,-151 L172,-28 L118,-100 L69,-185 Z" stroke-width="0" fill="#6560a0" fill-opacity="0.6745098039215687" />
<path d="M103,-139 L146,-275 L97,-57 L35,-123 L174,-31 L81,-102 Z" stroke-width="0" fill="#ccbeea" fill-opacity="0.08627450980392157" />
<path d="M120,-227 L29,-37 L146,-195 L27,-138 L172,-266 L51,-113 Z" stroke-width="0" fill="#215e8b" fill-opacity="0.36470588235294116" />
<path d="M98,-67 L133,-149 L234,-55 L143,-99 L205,-66 L163,-40 Z" stroke-width="0" fill="#1f121f" fill-opacity="0.8588235294117647" />
<path d="M211,-78 L25,-91 L230,-35 L47,-56 L42,-250 L51,-275 Z" stroke-width="0" fill="#5174a9" fill-opacity="0.5686274509803921" />
<path d="M144,-46 L67,-217 L238,-163 L84,-103 L191,-159 L114,-189 Z" stroke-width="0" fill="#e4fffe" fill-opacity="0.9686274509803922" />
<path d="M161,-309 L32,-92 L77,-178 L133,-193 L96,-201 L66,-291 Z" stroke-width="0" fill="#8daaf3" fill-opacity="0.5098039215686274" />
<path d="M38,-69 L238,-156 L135,-258 L247,-33 L197,-191 L183,-144 Z" stroke-width="0" fill="#021626" fill-opacity="0.8705882352941177" />
<path d="M192,-218 L110,-252 L82,-105 L193,-100 L47,-310 L136,-60 Z" stroke-width="0" fill="#3d4067" fill-opacity="0.9490196078431372" />
<path d="M240,-168 L162,-246 L81,-139 L57,-83 L177,-65 L187,-65 Z" stroke-width="0" fill="#27503b" fill-opacity="0.9568627450980393" />
<path d="M43,-81 L189,-240 L202,-75 L180,-37 L43,-188 L49,-66 Z" stroke-width="0" fill="#d7e4f4" fill-opacity="0.5411764705882353" />
<path d="M208,-66 L81,-178 L239,-209 L211,-286 L88,-304 L201,-207 Z" stroke-width="0" fill="#2b2112" fill-opacity="0.6235294117647059" />
<path d="M148,-47 L70,-114 L61,-322 L83,-123 L77,-42 L33,-212 Z" stroke-width="0" fill="#3f3265" fill-opacity="0.8" />
<path d="M143,-160 L52,-308 L172,-35 L34,-300 L33,-212 L197,-172 Z" stroke-width="0" fill="#281552" fill-opacity="0.403921568627451" />
<path d="M53,-142 L248,-86 L192,-85 L101,-113 L51,-240 L155,-239 Z" stroke-width="0" fill="#06000a" fill-opacity="0.8313725490196079" />
<path d="M36,-86 L166,-251 L107,-142 L159,-286 L247,-131 L104,-231 Z" stroke-width="0" fill="#949aa2" fill-opacity="0.996078431372549" />
<path d="M34,-295 L62,-207 L71,-253 L86,-126 L80,-64 L189,-139 Z" stroke-width="0" fill="#bfd1cf" fill-opacity="0.2" />
<path d="M129,-84 L248,-35 L72,-66 L54,-130 L53,-55 L224,-211 Z" stroke-width="0" fill="#041086" fill-opacity="0.403921568627451" />
<path d="M28,-73 L96,-146 L63,-56 L50,-292 L115,-133 L159,-90 Z" stroke-width="0" fill="#daa597" fill-opacity="0.12549019607843137" />
<path d="M156,-149 L247,-161 L32,-320 L171,-283 L227,-91 L143,-202 Z" stroke-width="0" fill="#352b21" fill-opacity="0.5686274509803921" />
<path d="M64,-225 L148,-129 L176,-57 L199,-43 L142,-126 L59,-182 Z" stroke-width="0" fill="#1852b4" fill-opacity="0.050980392156862744" />
<path d="M38,-129 L97,-209 L57,-303 L102,-168 L132,-104 L210,-226 Z" stroke-width="0" fill="#f7e4ff" fill-opacity="0.03137254901960784" />
<path d="M135,-37 L126,-256 L217,-302 L57,-63 L226,-75 L77,-84 Z" stroke-width="0" fill="#69651b" fill-opacity="0.788235294117647" />
<path d="M82,-229 L62,-40 L211,-160 L195,-75 L56,-39 L154,-203 Z" stroke-width="0" fill="#301b21" fill-opacity="0.3843137254901961" />
<path d="M29,-263 L143,-63 L50,-139 L128,-49 L106,-323 L211,-31 Z" stroke-width="0" fill="#535a89" fill-opacity="0.49411764705882355" />
<path d="M172,-175 L81,-268 L188,-103 L129,-81 L51,-307 L236,-42 Z" stroke-width="0" fill="#6562af" fill-opacity="0.5529411764705883" />
<path d="M143,-74 L129,-189 L37,-269 L118,-93 L36,-69 L144,-139 Z" stroke-width="0" fill="#e69c95" fill-opacity="0.054901960784313725" />
<path d="M239,-305 L201,-199 L78,-40 L46,-155 L174,-121 L38,-320 Z" stroke-width="0" fill="#010042" fill-opacity="0.5725490196078431" />
<path d="M74,-120 L37,-124 L138,-178 L97,-324 L94,-248 L117,-51 Z" stroke-width="0" fill="#574987" fill-opacity="0.9764705882352941" />
<path d="M177,-140 L196,-165 L130,-324 L68,-84 L175,-266 L161,-134 Z" stroke-width="0" fill="#4652a2" fill-opacity="0.7568627450980392" />
<path d="M56,-280 L180,-307 L25,-33 L76,-192 L80,-160 L218,-111 Z" stroke-width="0" fill="#f3acb4" fill-opacity="0.0196078431372549" />
<path d="M78,-86 L245,-244 L119,-25 L190,-64 L32,-239 L237,-49 Z" stroke-width="0" fill="#00040d" fill-opacity="0.4235294117647059" />
<path d="M157,-223 L30,-129 L208,-248 L30,-216 L25,-96 L25,-86 Z" stroke-width="0" fill="#7c9af0" fill-opacity="0.2549019607843137" />
<path d="M56,-139 L86,-88 L184,-200 L43,-128 L57,-44 L244,-56 Z" stroke-width="0" fill="#0a406b" fill-opacity="0.1803921568627451" />
<path d="M182,-153 L45,-112 L77,-237 L168,-82 L170,-227 L206,-165 Z" stroke-width="0" fill="#8d9ea7" fill-opacity="0.984313725490196" />
<path d="M53,-62 L55,-194 L100,-294 L40,-233 L141,-125 L197,-285 Z" stroke-width="0" fill="#5a6aa5" fill-opacity="0.5647058823529412" />
<path d="M85,-152 L186,-113 L79,-239 L45,-94 L71,-225 L102,-170 Z" stroke-width="0" fill="#3671a0" fill-opacity="0.29411764705882354" />
<path d="M93,-272 L28,-267 L85,-227 L69,-51 L83,-39 L209,-51 Z" stroke-width="0" fill="#21686e" fill-opacity="0.043137254901960784" />
<path d="M85,-302 L118,-268 L226,-317 L60,-42 L206,-120 L192,-68 Z" stroke-width="0" fill="#08002d" fill-opacity="0.3568627450980392" />
<path d="M50,-132 L79,-235 L115,-170 L174,-170 L179,-194 L159,-78 Z" stroke-width="0" fill="#b6a8b3" fill-opacity="0.788235294117647" />
<path d="M175,-171 L123,-197 L165,-249 L224,-82 L121,-250 L63,-242 Z" stroke-width="0" fill="#211f69" fill-opacity="0.25882352941176473" />
<path d="M47,-83 L182,-65 L83,-278 L178,-174 L242,-44 L119,-178 Z" stroke-width="0" fill="#827d99" fill-opacity="0.9725490196078431" />
<path d="M49,-234 L157,-176 L118,-203 L116,-106 L26,-267 L76,-101 Z" stroke-width="0" fill="#55567f" fill-opacity="0.8196078431372549" />
<path d="M59,-244 L71,-25 L209,-38 L160,-91 L36,-45 L174,-208 Z" stroke-width="0" fill="#937c99" fill-opacity="0.8745098039215686" />
<path d="M140,-118 L76,-216 L113,-204 L179,-45 L67,-25 L166,-177 Z" stroke-width="0" fill="#89a4be" fill-opacity="0.5333333333333333" />
<path d="M95,-204 L243,-73 L54,-193 L102,-101 L192,-164 L101,-145 Z" stroke-width="0" fill="#eec4fd" fill-opacity="0.3176470588235294" />
<path d="M164,-132 L36,-268 L188,-105 L44,-69 L31,-63 L73,-163 Z" stroke-width="0" fill="#f5fecb" fill-opacity="0.09019607843137255" />
<path d="M62,-76 L150,-176 L66,-79 L111,-156 L239,-85 L227,-197 Z" stroke-width="0" fill="#fffceb" fill-opacity="0.41568627450980394" />
<path d="M113,-302 L32,-195 L89,-53 L241,-104 L137,-302 L147,-93 Z" stroke-width="0" fill="#84adc3" fill-opacity="0.20392156862745098" />
<path d="M224,-161 L149,-256 L161,-189 L153,-261 L75,-310 L127,-51 Z" stroke-width="0" fill="#180006" fill-opacity="0.9764705882352941" />
<path d="M83,-228 L62,-288 L120,-82 L233,-219 L115,-261 L171,-130 Z" stroke-width="0" fill="#14176c" fill-opacity="0.25882352941176473" />
<path d="M155,-50 L230,-79 L118,-58 L166,-54 L142,-226 L79,-265 Z" stroke-width="0" fill="#00000c" fill-opacity="0.8" />
<path d="M153,-61 L183,-25 L180,-183 L165,-295 L139,-31 L84,-217 Z" stroke-width="0" fill="#30b35f" fill-opacity="0.06274509803921569" />
<path d="M185,-84 L65,-105 L78,-47 L150,-30 L238,-298 L73,-107 Z" stroke-width="0" fill="#9691d1" fill-opacity="0.23921568627450981" />
<path d="M177,-182 L51,-68 L115,-52 L240,-244 L208,-59 L181,-167 Z" stroke-width="0" fill="#122014" fill-opacity="0.4666666666666667" />
<path d="M87,-208 L132,-240 L223,-315 L176,-45 L106,-132 L69,-160 Z" stroke-width="0" fill="#8094a4" fill-opacity="0.047058823529411764" />
<path d="M36,-66 L154,-125 L102,-79 L64,-216 L203,-157 L72,-62 Z" stroke-width="0" fill="#b9e9db" fill-opacity="0.2549019607843137" />
<path d="M74,-109 L158,-32 L43,-305 L60,-205 L162,-117 L156,-76 Z" stroke-width="0" fill="#102980" fill-opacity="0.396078431372549" />
<path d="M62,-151 L77,-281 L155,-195 L114,-105 L224,-250 L117,-40 Z" stroke-width="0" fill="#0f24c5" fill-opacity="0.0196078431372549" />
<path d="M30,-187 L54,-50 L202,-108 L43,-51 L128,-82 L107,-99 Z" stroke-width="0" fill="#c8bfe9" fill-opacity="0.5254901960784314" />
<path d="M127,-152 L148,-202 L141,-237 L158,-242 L117,-236 L159,-141 Z" stroke-width="0" fill="#e6fbf0" fill-opacity="0.9686274509803922" />
<path d="M124,-124 L163,-65 L176,-53 L83,-57 L65,-136 L135,-239 Z" stroke-width="0" fill="#391835" fill-opacity="0.07058823529411765" />
<path d="M143,-221 L45,-144 L81,-126 L174,-124 L183,-129 L200,-32 Z" stroke-width="0" fill="#d4c1f7" fill-opacity="0.03529411764705882" />
<path d="M27,-124 L184,-266 L61,-217 L101,-26 L241,-206 L153,-102 Z" stroke-width="0" fill="#3aa509" fill-opacity="0.0" />
<path d="M118,-311 L57,-36 L202,-51 L42,-40 L239,-139 L29,-306 Z" stroke-width="0" fill="#707fd2" fill-opacity="0.5058823529411764" />
<path d="M44,-144 L122,-124 L101,-67 L141,-135 L241,-50 L181,-92 Z" stroke-width="0" fill="#c8f2ad" fill-opacity="0.06274509803921569" />
<path d="M229,-249 L129,-150 L27,-76 L220,-151 L209,-169 L231,-70 Z" stroke-width="0" fill="#e6eff8" fill-opacity="0.0784313725490196" />
<path d="M85,-280 L228,-298 L92,-96 L88,-319 L200,-176 L159,-191 Z" stroke-width="0" fill="#000000" fill-opacity="0.5137254901960784" />
<path d="M145,-160 L201,-121 L57,-57 L106,-318 L156,-291 L114,-251 Z" stroke-width="0" fill="#3b3d75" fill-opacity="0.20784313725490197" />
<path d="M235,-30 L54,-33 L122,-282 L142,-264 L26,-63 L82,-68 Z" stroke-width="0" fill="#3070df" fill-opacity="0.17254901960784313" />
<path d="M203,-279 L111,-157 L182,-208 L147,-103 L109,-193 L37,-56 Z" stroke-width="0" fill="#9eb1cd" fill-opacity="0.9019607843137255" />
<path d="M86,-31 L224,-199 L62,-297 L132,-228 L111,-255 L105,-183 Z" stroke-width="0" fill="#00160b" fill-opacity="0.7137254901960784" />
<path d="M248,-118 L138,-56 L247,-61 L248,-139 L80,-219 L73,-58 Z" stroke-width="0" fill="#743318" fill-opacity="0.0196078431372549" />
<path d="M146,-46 L93,-277 L200,-172 L61,-46 L45,-51 L238,-201 Z" stroke-width="0" fill="#0e0001" fill-opacity="0.1568627450980392" />
<path d="M210,-273 L218,-196 L51,-186 L206,-25 L150,-121 L55,-113 Z" stroke-width="0" fill="#ca94fb" fill-opacity="0.09411764705882353" />
<path d="M225,-150 L96,-27 L104,-175 L120,-42 L197,-233 L31,-288 Z" stroke-width="0" fill="#3b454e" fill-opacity="0.21176470588235294" />
<path d="M200,-271 L47,-217 L148,-47 L182,-226 L97,-74 L60,-208 Z" stroke-width="0" fill="#a675d6" fill-opacity="0.027450980392156862" />
<path d="M143,-141 L213,-182 L132,-295 L139,-176 L169,-132 L92,-52 Z" stroke-width="0" fill="#003a3e" fill-opacity="0.32941176470588235" />
<path d="M26,-180 L53,-104 L56,-101 L225,-68 L200,-281 L26,-37 Z" stroke-width="0" fill="#00001c" fill-opacity="0.27450980392156865" />
<path d="M206,-100 L112,-116 L247,-182 L230,-210 L137,-178 L220,-113 Z" stroke-width="0" fill="#1f1a2f" fill-opacity="0.8941176470588236" />
<path d="M61,-61 L211,-217 L144,-253 L118,-76 L107,-215 L213,-50 Z" stroke-width="0" fill="#1d0007" fill-opacity="0.3254901960784314" />
<path d="M184,-318 L228,-93 L164,-181 L214,-170 L126,-278 L79,-180 Z" stroke-width="0" fill="#5d5e30" fill-opacity="0.00784313725490196" />
<text x="137.5" y="12.5" font-size="20.0" fill="black" text-anchor="middle" transform="translate(0,5.0)">ROLE</text>
</svg>