<?xml version="1.0" encoding="UTF-8"?>
<svg xmlns="http://www.w3.org/2000/svg" xmlns:xlink="http://www.w3.org/1999/xlink"
     width="896" height="1496" viewBox="0 -1400 896 1496" style="font-size:70;font-family:Poor Richard, Times New Roman;stroke:black;stroke-width:1;fill:none">
<defs>
</defs>
<path d="M114,-534 L478,-1210 L478,-190 L642,-646 L306,-746 L434,-430 Z" stroke-width="0" fill="#f0988f" fill-opacity="0.07450980392156863" />
<path d="M130,-1006 L498,-430 L798,-1250 L774,-358 L358,-458 L134,-878 Z" stroke-width="0" fill="#556681" fill-opacity="0.5019607843137255" />
<path d="M138,-698 L234,-650 L250,-186 L282,-510 L546,-1210 L106,-1146 Z" stroke-width="0" fill="#140424" fill-opacity="0.27058823529411763" />
<path d="M582,-1026 L86,-286 L98,-638 L714,-1042 L334,-618 L218,-594 Z" stroke-width="0" fill="#364853" fill-opacity="0.3411764705882353" />
<path d="M430,-186 L482,-1198 L198,-410 L542,-522 L114,-850 L426,-926 Z" stroke-width="0" fill="#90576d" fill-opacity="0.00784313725490196" />
<path d="M430,-398 L758,-318 L634,-462 L394,-454 L222,-1142 L394,-1158 Z" stroke-width="0" fill="#308010" fill-opacity="0.03529411764705882" />
<path d="M742,-386 L682,-746 L294,-366 L810,-666 L90,-346 L450,-134 Z" stroke-width="0" fill="#ddd3cb" fill-opacity="0.6941176470588235" />
<path d="M250,-754 L286,-678 L594,-694 L414,-718 L366,-374 L354,-718 Z" stroke-width="0" fill="#4c2be6" fill-opacity="0.023529411764705882" />
<path d="M378,-342 L462,-162 L330,-510 L250,-718 L470,-438 L258,-918 Z" stroke-width="0" fill="#7ad78e" fill-opacity="0.07450980392156863" />
<path d="M470,-446 L474,-842 L106,-674 L434,-370 L318,-262 L562,-282 Z" stroke-width="0" fill="#890f85" fill-opacity="0.17254901960784313" />
<path d="M438,-406 L238,-138 L662,-738 L634,-994 L182,-270 L366,-286 Z" stroke-width="0" fill="#fdf8f8" fill-opacity="0.9372549019607843" />
<path d="M474,-226 L446,-790 L650,-198 L666,-698 L642,-318 L658,-270 Z" stroke-width="0" fill="#90e7ad" fill-opacity="0.9019607843137255" />
<path d="M614,-1210 L450,-466 L574,-98 L774,-746 L414,-1234 L754,-362 Z" stroke-width="0" fill="#a1c7c6" fill-opacity="0.9019607843137255" />
<path d="M450,-314 L306,-1030 L486,-1058 L230,-1118 L278,-890 L574,-634 Z" stroke-width="0" fill="#ccd87e" fill-opacity="0.03137254901960784" />
<path d="M230,-558 L594,-178 L786,-402 L206,-790 L438,-230 L346,-942 Z" stroke-width="0" fill="#b90000" fill-opacity="0.9607843137254902" />
<path d="M682,-770 L266,-822 L482,-326 L666,-826 L526,-722 L286,-1302 Z" stroke-width="0" fill="#3e8bbc" fill-opacity="0.5019607843137255" />
<path d="M546,-598 L154,-230 L82,-758 L398,-1290 L518,-766 L346,-826 Z" stroke-width="0" fill="#9aacab" fill-opacity="0.7215686274509804" />
<path d="M138,-1202 L534,-678 L238,-650 L126,-434 L278,-434 L142,-342 Z" stroke-width="0" fill="#97a1cb" fill-opacity="0.996078431372549" />
<path d="M362,-670 L638,-642 L130,-902 L290,-1014 L158,-954 L618,-798 Z" stroke-width="0" fill="#2aefd8" fill-opacity="0.9333333333333333" />
<path d="M318,-978 L374,-138 L282,-102 L134,-334 L90,-466 L698,-838 Z" stroke-width="0" fill="#bbf4cb" fill-opacity="0.47843137254901963" />
<path d="M762,-350 L98,-870 L466,-230 L698,-394 L110,-634 L554,-358 Z" stroke-width="0" fill="#d56a6f" fill-opacity="0.37254901960784315" />
<path d="M118,-958 L366,-198 L518,-226 L110,-714 L638,-434 L418,-102 Z" stroke-width="0" fill="#125c89" fill-opacity="0.3686274509803922" />
<path d="M114,-274 L182,-134 L302,-874 L118,-510 L346,-634 L446,-194 Z" stroke-width="0" fill="#b3d57e" fill-opacity="0.3137254901960784" />
<path d="M626,-510 L298,-1030 L94,-310 L622,-986 L234,-870 L414,-462 Z" stroke-width="0" fill="#b4b2c5" fill-opacity="0.6509803921568628" />
<path d="M554,-450 L186,-678 L694,-790 L214,-762 L622,-494 L426,-202 Z" stroke-width="0" fill="#037ad9" fill-opacity="0.054901960784313725" />
<path d="M282,-1310 L222,-1082 L122,-602 L274,-1146 L342,-914 L310,-274 Z" stroke-width="0" fill="#7ce8d7" fill-opacity="0.5019607843137255" />
<path d="M574,-630 L270,-434 L374,-878 L674,-718 L86,-894 L498,-682 Z" stroke-width="0" fill="#5f8a91" fill-opacity="0.44313725490196076" />
<path d="M606,-802 L290,-490 L638,-970 L630,-1110 L722,-354 L586,-978 Z" stroke-width="0" fill="#375900" fill-opacity="0.44313725490196076" />
<path d="M626,-1254 L238,-1042 L254,-302 L506,-894 L170,-278 L314,-1042 Z" stroke-width="0" fill="#763e51" fill-opacity="0.41568627450980394" />
<path d="M114,-1150 L362,-682 L742,-206 L810,-1126 L686,-278 L506,-338 Z" stroke-width="0" fill="#b3a8bc" fill-opacity="0.596078431372549" />
<path d="M434,-298 L590,-234 L566,-342 L646,-1278 L570,-386 L686,-798 Z" stroke-width="0" fill="#5ad76b" fill-opacity="0.5058823529411764" />
<path d="M602,-734 L518,-1282 L550,-878 L442,-814 L474,-1122 L226,-810 Z" stroke-width="0" fill="#566469" fill-opacity="0.5019607843137255" />
<path d="M110,-966 L638,-226 L758,-906 L466,-530 L270,-1242 L398,-106 Z" stroke-width="0" fill="#adc0c4" fill-opacity="0.9411764705882353" />
<path d="M290,-1030 L542,-174 L762,-534 L98,-966 L358,-434 L482,-250 Z" stroke-width="0" fill="#7b4673" fill-opacity="0.38823529411764707" />
<path d="M558,-1130 L194,-550 L226,-558 L354,-214 L118,-510 L370,-710 Z" stroke-width="0" fill="#9eddb6" fill-opacity="0.3568627450980392" />
<path d="M286,-426 L98,-518 L298,-194 L118,-250 L470,-542 L170,-226 Z" stroke-width="0" fill="#b3eb37" fill-opacity="0.0" />
<path d="M174,-638 L362,-1126 L470,-466 L198,-258 L258,-714 L266,-458 Z" stroke-width="0" fill="#daeff9" fill-opacity="0.9490196078431372" />
<path d="M210,-810 L766,-490 L462,-182 L610,-390 L146,-570 L442,-902 Z" stroke-width="0" fill="#980000" fill-opacity="0.7725490196078432" />
<path d="M706,-950 L506,-542 L678,-938 L506,-1214 L142,-754 L166,-154 Z" stroke-width="0" fill="#ead1fa" fill-opacity="0.30980392156862746" />
<path d="M294,-330 L134,-614 L690,-1162 L370,-362 L758,-1002 L322,-1078 Z" stroke-width="0" fill="#a1e0b0" fill-opacity="0.40784313725490196" />
<path d="M150,-242 L258,-894 L758,-798 L694,-190 L526,-706 L450,-1266 Z" stroke-width="0" fill="#cf78d2" fill-opacity="0.09019607843137255" />
<path d="M190,-110 L514,-882 L194,-294 L106,-686 L650,-998 L638,-514 Z" stroke-width="0" fill="#ead0ac" fill-opacity="0.10980392156862745" />
<path d="M706,-182 L586,-682 L442,-206 L602,-158 L682,-510 L434,-402 Z" stroke-width="0" fill="#c1d6d5" fill-opacity="0.9333333333333333" />
<path d="M370,-666 L94,-1066 L158,-442 L658,-754 L614,-1138 L310,-686 Z" stroke-width="0" fill="#d58ad2" fill-opacity="0.4588235294117647" />
<path d="M650,-758 L242,-462 L810,-722 L150,-406 L266,-470 L134,-266 Z" stroke-width="0" fill="#d8e7d4" fill-opacity="0.8156862745098039" />
<path d="M434,-574 L202,-622 L498,-338 L502,-122 L98,-1006 L130,-638 Z" stroke-width="0" fill="#a2c2b2" fill-opacity="0.7411764705882353" />
<path d="M414,-162 L194,-818 L586,-738 L358,-606 L98,-130 L602,-962 Z" stroke-width="0" fill="#ecd9dc" fill-opacity="0.6588235294117647" />
<path d="M166,-462 L614,-266 L698,-946 L314,-170 L626,-1062 L566,-306 Z" stroke-width="0" fill="#b4aed1" fill-opacity="0.8588235294117647" />
<path d="M362,-326 L106,-766 L442,-294 L246,-226 L462,-354 L330,-754 Z" stroke-width="0" fill="#cdabc6" fill-opacity="0.35294117647058826" />
<path d="M670,-534 L626,-214 L670,-1066 L290,-102 L474,-466 L562,-270 Z" stroke-width="0" fill="#e842f7" fill-opacity="0.2196078431372549" />
<path d="M410,-838 L278,-970 L354,-1150 L578,-158 L270,-918 L118,-454 Z" stroke-width="0" fill="#84ffc2" fill-opacity="0.27450980392156865" />
<path d="M162,-678 L250,-122 L446,-462 L318,-1178 L554,-710 L98,-522 Z" stroke-width="0" fill="#b8d9f5" fill-opacity="0.3215686274509804" />
<path d="M522,-1026 L574,-954 L90,-1214 L374,-1246 L530,-902 L526,-126 Z" stroke-width="0" fill="#9ea0c9" fill-opacity="0.20784313725490197" />
<path d="M450,-258 L486,-1170 L666,-1022 L126,-902 L682,-1174 L110,-1150 Z" stroke-width="0" fill="#50b1ae" fill-opacity="0.21568627450980393" />
<path d="M658,-706 L542,-1102 L306,-1246 L714,-510 L490,-266 L202,-738 Z" stroke-width="0" fill="#ef3161" fill-opacity="0.10588235294117647" />
<path d="M326,-118 L122,-1118 L390,-722 L174,-698 L302,-314 L126,-322 Z" stroke-width="0" fill="#f2e4fe" fill-opacity="0.1803921568627451" />
<path d="M114,-294 L722,-686 L634,-122 L486,-838 L362,-410 L350,-274 Z" stroke-width="0" fill="#f2f3e4" fill-opacity="0.42745098039215684" />
<path d="M558,-1010 L334,-178 L338,-1078 L506,-310 L630,-942 L550,-1014 Z" stroke-width="0" fill="#12272e" fill-opacity="0.5803921568627451" />
<path d="M574,-526 L474,-642 L414,-1074 L274,-110 L366,-1218 L494,-182 Z" stroke-width="0" fill="#e3d0eb" fill-opacity="0.06274509803921569" />
<path d="M638,-342 L774,-278 L418,-1078 L410,-250 L734,-130 L126,-734 Z" stroke-width="0" fill="#c79eac" fill-opacity="0.37254901960784315" />
<path d="M298,-750 L418,-802 L758,-278 L146,-338 L762,-1266 L594,-542 Z" stroke-width="0" fill="#869229" fill-opacity="0.3568627450980392" />
<path d="M210,-878 L322,-106 L654,-162 L158,-82 L262,-682 L606,-1034 Z" stroke-width="0" fill="#d6aff0" fill-opacity="0.5019607843137255" />
<path d="M266,-206 L430,-754 L318,-698 L690,-918 L194,-394 L522,-202 Z" stroke-width="0" fill="#c82006" fill-opacity="0.8431372549019608" />
<path d="M522,-466 L658,-562 L358,-458 L798,-566 L98,-1226 L418,-926 Z" stroke-width="0" fill="#d52965" fill-opacity="0.7803921568627451" />
<path d="M166,-482 L214,-974 L126,-1202 L210,-102 L802,-146 L378,-98 Z" stroke-width="0" fill="#b8ddbd" fill-opacity="0.4588235294117647" />
<path d="M202,-870 L374,-350 L250,-358 L278,-638 L450,-1210 L698,-102 Z" stroke-width="0" fill="#c9f5f7" fill-opacity="0.7450980392156863" />
<path d="M138,-210 L690,-762 L510,-1014 L202,-534 L138,-926 L638,-606 Z" stroke-width="0" fill="#d3d5b9" fill-opacity="0.11764705882352941" />
<path d="M406,-810 L390,-202 L250,-478 L718,-794 L138,-1206 L722,-1146 Z" stroke-width="0" fill="#f3c249" fill-opacity="0.16862745098039217" />
<path d="M398,-566 L710,-1158 L118,-934 L222,-898 L374,-418 L402,-306 Z" stroke-width="0" fill="#157dc1" fill-opacity="0.058823529411764705" />
<path d="M406,-538 L722,-254 L358,-1014 L710,-1286 L538,-958 L442,-130 Z" stroke-width="0" fill="#b113c2" fill-opacity="0.3333333333333333" />
<path d="M430,-1066 L346,-322 L418,-482 L418,-426 L258,-758 L162,-698 Z" stroke-width="0" fill="#d6f81c" fill-opacity="0.054901960784313725" />
<path d="M654,-582 L354,-86 L130,-858 L490,-158 L222,-1290 L758,-1134 Z" stroke-width="0" fill="#86a5d5" fill-opacity="0.5294117647058824" />
<path d="M786,-226 L754,-506 L526,-1086 L206,-1198 L342,-834 L462,-798 Z" stroke-width="0" fill="#930603" fill-opacity="0.34901960784313724" />
<path d="M246,-874 L422,-1014 L138,-962 L494,-1038 L114,-414 L374,-534 Z" stroke-width="0" fill="#1cff46" fill-opacity="0.03529411764705882" />
<path d="M546,-558 L370,-1118 L234,-438 L170,-702 L782,-1310 L146,-594 Z" stroke-width="0" fill="#deced9" fill-opacity="0.5607843137254902" />
<path d="M398,-198 L494,-482 L242,-154 L186,-546 L494,-746 L482,-910 Z" stroke-width="0" fill="#f9ea87" fill-opacity="0.03529411764705882" />
<path d="M294,-686 L802,-262 L322,-982 L306,-834 L246,-706 L738,-482 Z" stroke-width="0" fill="#da0000" fill-opacity="0.7607843137254902" />
<path d="M554,-850 L142,-878 L658,-502 L770,-222 L246,-1026 L558,-1146 Z" stroke-width="0" fill="#9c023e" fill-opacity="0.12941176470588237" />
<path d="M798,-1226 L342,-1138 L230,-554 L718,-458 L298,-514 L402,-782 Z" stroke-width="0" fill="#827e9a" fill-opacity="0.5176470588235295" />
<path d="M450,-1254 L370,-866 L626,-658 L346,-458 L482,-1202 L454,-678 Z" stroke-width="0" fill="#8bb2c2" fill-opacity="0.6784313725490196" />
<path d="M722,-158 L238,-474 L110,-146 L442,-1162 L178,-358 L346,-550 Z" stroke-width="0" fill="#cf78e1" fill-opacity="0.2" />
<path d="M94,-350 L550,-946 L738,-242 L142,-910 L554,-1206 L678,-674 Z" stroke-width="0" fill="#ada0a1" fill-opacity="0.20392156862745098" />
<path d="M790,-1174 L634,-770 L338,-902 L438,-446 L570,-278 L202,-950 Z" stroke-width="0" fill="#50602a" fill-opacity="0.1411764705882353" />
<path d="M206,-250 L478,-526 L286,-430 L706,-82 L462,-310 L422,-130 Z" stroke-width="0" fill="#e4c09e" fill-opacity="0.1607843137254902" />
<path d="M394,-694 L338,-1098 L622,-118 L354,-550 L194,-338 L718,-682 Z" stroke-width="0" fill="#b6eaf2" fill-opacity="0.39215686274509803" />
<path d="M162,-142 L318,-918 L610,-138 L738,-762 L566,-598 L194,-1250 Z" stroke-width="0" fill="#bc88d4" fill-opacity="0.25882352941176473" />
<path d="M390,-218 L342,-554 L242,-182 L750,-226 L558,-398 L338,-1118 Z" stroke-width="0" fill="#b5a0ab" fill-opacity="0.3058823529411765" />
<path d="M606,-462 L306,-866 L178,-1174 L138,-1166 L258,-298 L350,-194 Z" stroke-width="0" fill="#d51804" fill-opacity="0.5568627450980392" />
<path d="M298,-490 L770,-1050 L246,-890 L550,-518 L254,-522 L494,-446 Z" stroke-width="0" fill="#181280" fill-opacity="0.011764705882352941" />
<path d="M190,-1222 L782,-898 L114,-606 L206,-926 L94,-1230 L330,-1010 Z" stroke-width="0" fill="#b3cdd7" fill-opacity="0.7607843137254902" />
<path d="M454,-882 L746,-666 L170,-146 L574,-746 L470,-306 L342,-710 Z" stroke-width="0" fill="#8df1cf" fill-opacity="0.4470588235294118" />
<path d="M286,-282 L418,-334 L210,-1222 L158,-726 L398,-1162 L206,-1090 Z" stroke-width="0" fill="#bed3fd" fill-opacity="0.16470588235294117" />
<path d="M282,-470 L522,-354 L754,-634 L314,-214 L198,-638 L738,-714 Z" stroke-width="0" fill="#c30b01" fill-opacity="0.3215686274509804" />
<path d="M262,-410 L534,-294 L362,-766 L714,-1174 L706,-658 L454,-162 Z" stroke-width="0" fill="#f8cbdb" fill-opacity="0.3058823529411765" />
<path d="M218,-946 L786,-922 L198,-778 L738,-838 L362,-1194 L406,-338 Z" stroke-width="0" fill="#a7b2bd" fill-opacity="0.5529411764705883" />
<path d="M618,-1030 L610,-998 L342,-258 L502,-318 L450,-818 L138,-350 Z" stroke-width="0" fill="#bf0025" fill-opacity="0.24313725490196078" />
<path d="M626,-1134 L662,-414 L726,-258 L418,-1214 L314,-778 L206,-934 Z" stroke-width="0" fill="#acfae3" fill-opacity="0.4392156862745098" />
<path d="M342,-562 L482,-842 L370,-366 L790,-1222 L306,-254 L274,-490 Z" stroke-width="0" fill="#951900" fill-opacity="0.6392156862745098" />
<path d="M426,-630 L170,-422 L282,-882 L746,-146 L222,-598 L622,-858 Z" stroke-width="0" fill="#a8e9c4" fill-opacity="0.16470588235294117" />
<path d="M178,-418 L298,-654 L422,-1278 L518,-878 L210,-1066 L498,-438 Z" stroke-width="0" fill="#c30205" fill-opacity="0.027450980392156862" />
<text x="448.0" y="0" font-size="70.0" fill="black" text-anchor="middle" transform="translate(0,17.5)">IMPORTANCE</text>
</svg>