<?xml version="1.0" encoding="UTF-8"?>
<svg xmlns="http://www.w3.org/2000/svg" xmlns:xlink="http://www.w3.org/1999/xlink"
     width="275" height="375" viewBox="0 -350 275 375">
<defs>
</defs>
<rect x="15" y="-335" width="245" height="320" stroke="black" stroke-width="4" fill="white" />
<path d="M196,-286 L132,-233 L68,-168 L88,-309 L165,-185 L81,-297 Z" stroke-width="0" fill="#fba449" fill-opacity="0.5725490196078431" />
<path d="M92,-158 L32,-123 L34,-223 L216,-124 L80,-250 L32,-133 Z" stroke-width="0" fill="#5314ce" fill-opacity="0.00392156862745098" />
<path d="M212,-84 L135,-199 L32,-146 L242,-97 L43,-35 L214,-35 Z" stroke-width="0" fill="#000004" fill-opacity="0.9647058823529412" />
<path d="M37,-272 L245,-106 L76,-306 L76,-38 L191,-31 L39,-226 Z" stroke-width="0" fill="#060f07" fill-opacity="0.9372549019607843" />
<path d="M224,-275 L243,-158 L156,-51 L68,-139 L140,-101 L37,-27 Z" stroke-width="0" fill="#000100" fill-opacity="0.9254901960784314" />
<path d="M244,-60 L43,-140 L99,-319 L96,-86 L116,-255 L31,-126 Z" stroke-width="0" fill="#00000c" fill-opacity="0.8509803921568627" />
<path d="M227,-265 L82,-58 L47,-147 L148,-29 L93,-27 L219,-182 Z" stroke-width="0" fill="#000200" fill-opacity="0.9607843137254902" />
<path d="M80,-190 L156,-203 L174,-119 L235,-54 L205,-51 L203,-51 Z" stroke-width="0" fill="#2342bc" fill-opacity="0.2549019607843137" />
<path d="M216,-91 L27,-67 L49,-162 L112,-321 L154,-284 L165,-176 Z" stroke-width="0" fill="#000000" fill-opacity="0.9137254901960784" />
<path d="M115,-214 L137,-41 L53,-58 L172,-89 L249,-170 L243,-203 Z" stroke-width="0" fill="#001230" fill-opacity="0.9294117647058824" />
<path d="M126,-87 L143,-315 L111,-211 L85,-113 L145,-280 L123,-185 Z" stroke-width="0" fill="#051210" fill-opacity="0.8313725490196079" />
<path d="M49,-324 L104,-204 L127,-102 L129,-186 L82,-295 L46,-297 Z" stroke-width="0" fill="#000000" fill-opacity="0.7254901960784313" />
<path d="M33,-142 L116,-100 L208,-32 L161,-211 L206,-55 L121,-280 Z" stroke-width="0" fill="#000800" fill-opacity="0.9529411764705882" />
<path d="M173,-113 L85,-187 L32,-178 L189,-243 L180,-306 L97,-153 Z" stroke-width="0" fill="#4fe527" fill-opacity="0.5529411764705883" />
<path d="M133,-222 L126,-154 L243,-194 L150,-32 L126,-49 L119,-111 Z" stroke-width="0" fill="#3067ca" fill-opacity="0.8274509803921568" />
<path d="M246,-49 L155,-157 L112,-97 L66,-302 L33,-231 L179,-33 Z" stroke-width="0" fill="#00101b" fill-opacity="0.9215686274509803" />
<path d="M245,-173 L25,-239 L30,-131 L124,-225 L57,-79 L200,-153 Z" stroke-width="0" fill="#313012" fill-opacity="0.9176470588235294" />
<path d="M102,-250 L126,-277 L149,-160 L39,-203 L34,-291 L41,-104 Z" stroke-width="0" fill="#2d1e26" fill-opacity="0.9607843137254902" />
<path d="M100,-59 L48,-206 L246,-160 L214,-39 L122,-318 L126,-276 Z" stroke-width="0" fill="#0c1b14" fill-opacity="0.9882352941176471" />
<path d="M176,-87 L99,-294 L230,-53 L210,-192 L106,-111 L101,-184 Z" stroke-width="0" fill="#451b12" fill-opacity="0.9647058823529412" />
<path d="M36,-306 L48,-117 L223,-201 L156,-115 L176,-102 L31,-94 Z" stroke-width="0" fill="#282024" fill-opacity="0.9137254901960784" />
<path d="M214,-111 L98,-129 L249,-189 L161,-246 L150,-275 L201,-178 Z" stroke-width="0" fill="#162847" fill-opacity="0.984313725490196" />
<path d="M242,-129 L75,-110 L100,-273 L224,-75 L44,-186 L35,-82 Z" stroke-width="0" fill="#79373e" fill-opacity="0.2549019607843137" />
<path d="M178,-156 L72,-57 L130,-33 L141,-173 L42,-311 L121,-138 Z" stroke-width="0" fill="#041800" fill-opacity="0.8627450980392157" />
<path d="M217,-291 L86,-241 L125,-116 L167,-191 L110,-217 L37,-318 Z" stroke-width="0" fill="#223d33" fill-opacity="0.9450980392156862" />
<path d="M215,-298 L165,-286 L29,-112 L123,-26 L62,-193 L92,-319 Z" stroke-width="0" fill="#0d0d05" fill-opacity="0.8588235294117647" />
<path d="M214,-283 L103,-148 L100,-239 L242,-32 L184,-186 L37,-230 Z" stroke-width="0" fill="#041921" fill-opacity="0.9764705882352941" />
<path d="M196,-237 L31,-123 L46,-183 L214,-129 L134,-30 L88,-170 Z" stroke-width="0" fill="#fcff67" fill-opacity="0.9921568627450981" />
<path d="M161,-56 L98,-180 L134,-25 L220,-42 L227,-62 L222,-130 Z" stroke-width="0" fill="#000600" fill-opacity="0.9568627450980393" />
<path d="M132,-45 L176,-264 L221,-265 L94,-235 L155,-172 L75,-251 Z" stroke-width="0" fill="#0e0600" fill-opacity="0.9686274509803922" />
<path d="M78,-70 L192,-189 L40,-112 L50,-233 L133,-100 L202,-100 Z" stroke-width="0" fill="#fcfb89" fill-opacity="0.8901960784313725" />
<path d="M225,-100 L71,-302 L213,-278 L130,-110 L79,-168 L221,-291 Z" stroke-width="0" fill="#031969" fill-opacity="0.10980392156862745" />
<path d="M233,-132 L205,-53 L68,-189 L107,-295 L66,-92 L142,-59 Z" stroke-width="0" fill="#203637" fill-opacity="0.4666666666666667" />
<path d="M28,-212 L173,-276 L224,-196 L181,-140 L86,-229 L53,-70 Z" stroke-width="0" fill="#f9e23c" fill-opacity="0.24313725490196078" />
<path d="M128,-130 L56,-36 L45,-114 L112,-148 L231,-46 L85,-74 Z" stroke-width="0" fill="#0b0c08" fill-opacity="0.8823529411764706" />
<path d="M180,-210 L123,-42 L217,-244 L152,-64 L129,-323 L83,-259 Z" stroke-width="0" fill="#000003" fill-opacity="0.8235294117647058" />
<path d="M56,-162 L83,-74 L131,-216 L234,-213 L137,-245 L245,-306 Z" stroke-width="0" fill="#040a0a" fill-opacity="0.8352941176470589" />
<path d="M137,-264 L206,-100 L114,-69 L82,-128 L53,-47 L112,-194 Z" stroke-width="0" fill="#010022" fill-opacity="0.25098039215686274" />
<path d="M138,-274 L102,-143 L48,-123 L33,-67 L58,-95 L178,-267 Z" stroke-width="0" fill="#404500" fill-opacity="0.2784313725490196" />
<path d="M35,-39 L157,-66 L74,-265 L175,-321 L174,-284 L104,-40 Z" stroke-width="0" fill="#000900" fill-opacity="0.7294117647058823" />
<path d="M81,-135 L122,-167 L68,-54 L43,-204 L134,-290 L36,-97 Z" stroke-width="0" fill="#ec2e40" fill-opacity="0.17647058823529413" />
<path d="M51,-166 L219,-57 L165,-108 L190,-56 L244,-250 L30,-136 Z" stroke-width="0" fill="#1a3038" fill-opacity="0.9529411764705882" />
<path d="M26,-316 L172,-301 L116,-195 L64,-144 L179,-127 L95,-232 Z" stroke-width="0" fill="#263433" fill-opacity="0.9686274509803922" />
<path d="M111,-148 L81,-255 L37,-251 L214,-276 L150,-105 L39,-40 Z" stroke-width="0" fill="#000c02" fill-opacity="0.9372549019607843" />
<path d="M229,-214 L93,-208 L188,-126 L188,-40 L36,-232 L79,-137 Z" stroke-width="0" fill="#2713b6" fill-opacity="0.023529411764705882" />
<path d="M71,-283 L222,-33 L142,-264 L157,-90 L91,-194 L240,-34 Z" stroke-width="0" fill="#041622" fill-opacity="0.9529411764705882" />
<path d="M42,-63 L77,-155 L87,-209 L80,-147 L68,-306 L126,-131 Z" stroke-width="0" fill="#000707" fill-opacity="0.9137254901960784" />
<path d="M179,-50 L118,-192 L232,-289 L182,-301 L127,-195 L225,-95 Z" stroke-width="0" fill="#122000" fill-opacity="0.9372549019607843" />
<path d="M106,-273 L121,-55 L215,-226 L242,-182 L97,-61 L200,-308 Z" stroke-width="0" fill="#2f4c8c" fill-opacity="0.8470588235294118" />
<path d="M232,-40 L31,-167 L129,-187 L106,-246 L105,-105 L66,-95 Z" stroke-width="0" fill="#d40302" fill-opacity="0.5215686274509804" />
<path d="M84,-301 L46,-314 L50,-185 L72,-232 L131,-312 L133,-241 Z" stroke-width="0" fill="#23263c" fill-opacity="0.8313725490196079" />
<path d="M142,-245 L178,-99 L67,-193 L45,-105 L196,-86 L93,-133 Z" stroke-width="0" fill="#eefabd" fill-opacity="0.9686274509803922" />
<path d="M117,-51 L172,-117 L138,-132 L185,-246 L181,-135 L181,-66 Z" stroke-width="0" fill="#00000d" fill-opacity="0.9529411764705882" />
<path d="M99,-321 L240,-89 L78,-205 L124,-68 L75,-109 L229,-227 Z" stroke-width="0" fill="#1f352e" fill-opacity="0.8196078431372549" />
<path d="M142,-161 L142,-210 L190,-157 L223,-123 L148,-239 L196,-160 Z" stroke-width="0" fill="#c6f3d7" fill-opacity="0.9647058823529412" />
<path d="M109,-82 L27,-111 L100,-122 L63,-208 L96,-272 L183,-73 Z" stroke-width="0" fill="#412023" fill-opacity="0.9725490196078431" />
<path d="M101,-62 L186,-237 L106,-48 L90,-274 L43,-238 L139,-143 Z" stroke-width="0" fill="#001603" fill-opacity="0.9333333333333333" />
<path d="M65,-219 L142,-98 L196,-117 L141,-183 L212,-49 L178,-141 Z" stroke-width="0" fill="#0a0007" fill-opacity="0.596078431372549" />
<path d="M161,-31 L48,-280 L36,-256 L41,-152 L128,-257 L236,-231 Z" stroke-width="0" fill="#401503" fill-opacity="0.09019607843137255" />
<path d="M156,-48 L140,-163 L205,-100 L126,-88 L178,-169 L121,-174 Z" stroke-width="0" fill="#010600" fill-opacity="0.8352941176470589" />
<path d="M115,-199 L48,-94 L74,-204 L225,-69 L179,-184 L205,-148 Z" stroke-width="0" fill="#80bd44" fill-opacity="0.01568627450980392" />
<path d="M110,-219 L137,-285 L154,-124 L138,-279 L111,-193 L63,-64 Z" stroke-width="0" fill="#c3da7f" fill-opacity="0.12549019607843137" />
<path d="M74,-78 L63,-307 L230,-207 L100,-261 L203,-217 L240,-261 Z" stroke-width="0" fill="#0e1010" fill-opacity="0.9019607843137255" />
<path d="M26,-73 L110,-149 L35,-293 L111,-202 L158,-236 L187,-244 Z" stroke-width="0" fill="#09100f" fill-opacity="0.8666666666666667" />
<path d="M96,-323 L64,-313 L126,-302 L160,-118 L229,-324 L170,-75 Z" stroke-width="0" fill="#212e2e" fill-opacity="0.9254901960784314" />
<path d="M125,-291 L120,-268 L176,-319 L71,-270 L114,-154 L125,-120 Z" stroke-width="0" fill="#2f412d" fill-opacity="0.8588235294117647" />
<path d="M98,-292 L155,-262 L231,-67 L207,-262 L46,-78 L161,-149 Z" stroke-width="0" fill="#172127" fill-opacity="0.9333333333333333" />
<path d="M201,-195 L60,-68 L190,-187 L200,-302 L100,-189 L246,-302 Z" stroke-width="0" fill="#0c2606" fill-opacity="0.8627450980392157" />
<path d="M38,-192 L60,-30 L191,-121 L136,-224 L46,-159 L93,-26 Z" stroke-width="0" fill="#602102" fill-opacity="0.1450980392156863" />
<path d="M172,-87 L118,-249 L40,-124 L155,-139 L49,-72 L119,-93 Z" stroke-width="0" fill="#fae274" fill-opacity="0.8862745098039215" />
<path d="M213,-55 L167,-293 L61,-88 L127,-188 L56,-52 L47,-188 Z" stroke-width="0" fill="#fdf610" fill-opacity="0.2980392156862745" />
<path d="M151,-263 L247,-279 L206,-268 L61,-175 L53,-135 L153,-277 Z" stroke-width="0" fill="#f57329" fill-opacity="0.03137254901960784" />
<path d="M150,-242 L213,-96 L88,-99 L138,-107 L170,-100 L240,-121 Z" stroke-width="0" fill="#060d0c" fill-opacity="0.6588235294117647" />
<path d="M144,-249 L151,-295 L43,-115 L82,-91 L170,-35 L67,-200 Z" stroke-width="0" fill="#dffd90" fill-opacity="0.011764705882352941" />
<path d="M187,-48 L151,-137 L78,-321 L94,-324 L34,-316 L154,-194 Z" stroke-width="0" fill="#342a30" fill-opacity="0.8862745098039215" />
<path d="M230,-29 L127,-254 L225,-199 L81,-25 L164,-238 L133,-134 Z" stroke-width="0" fill="#17140b" fill-opacity="0.9529411764705882" />
<path d="M32,-195 L203,-104 L162,-26 L237,-67 L113,-235 L149,-228 Z" stroke-width="0" fill="#091419" fill-opacity="0.7333333333333333" />
<path d="M198,-73 L228,-256 L82,-191 L81,-81 L112,-69 L191,-195 Z" stroke-width="0" fill="#102d33" fill-opacity="0.9568627450980393" />
<path d="M38,-279 L116,-116 L86,-183 L167,-264 L51,-281 L216,-118 Z" stroke-width="0" fill="#2f0013" fill-opacity="0.34509803921568627" />
<path d="M118,-324 L108,-57 L102,-28 L148,-169 L26,-275 L147,-285 Z" stroke-width="0" fill="#1a1216" fill-opacity="0.8901960784313725" />
<path d="M33,-224 L126,-28 L202,-104 L55,-65 L195,-129 L200,-321 Z" stroke-width="0" fill="#1d170e" fill-opacity="0.5882352941176471" />
<path d="M208,-30 L104,-245 L140,-266 L182,-80 L191,-269 L167,-164 Z" stroke-width="0" fill="#248a8b" fill-opacity="0.16470588235294117" />
<path d="M28,-85 L29,-141 L125,-94 L186,-249 L40,-55 L223,-275 Z" stroke-width="0" fill="#773712" fill-opacity="0.4980392156862745" />
<path d="M247,-114 L56,-166 L47,-155 L219,-103 L55,-106 L185,-62 Z" stroke-width="0" fill="#030c08" fill-opacity="0.6509803921568628" />
<path d="M55,-300 L52,-210 L72,-74 L99,-248 L177,-156 L63,-125 Z" stroke-width="0" fill="#fd3c00" fill-opacity="0.09019607843137255" />
<path d="M105,-98 L118,-63 L143,-225 L27,-30 L141,-289 L171,-88 Z" stroke-width="0" fill="#17190c" fill-opacity="0.8627450980392157" />
<path d="M218,-182 L190,-153 L187,-103 L32,-232 L153,-245 L218,-316 Z" stroke-width="0" fill="#3c385b" fill-opacity="0.35294117647058826" />
<path d="M242,-78 L29,-114 L180,-161 L138,-263 L92,-137 L46,-56 Z" stroke-width="0" fill="#0a1105" fill-opacity="0.7647058823529411" />
<path d="M171,-119 L145,-165 L177,-270 L116,-133 L89,-307 L143,-212 Z" stroke-width="0" fill="#00130a" fill-opacity="0.7607843137254902" />
<path d="M52,-191 L135,-82 L187,-323 L74,-184 L157,-307 L166,-116 Z" stroke-width="0" fill="#3e3129" fill-opacity="0.9490196078431372" />
<path d="M197,-48 L182,-38 L148,-200 L70,-249 L82,-321 L93,-115 Z" stroke-width="0" fill="#1c0d52" fill-opacity="0.011764705882352941" />
<path d="M54,-123 L68,-143 L146,-86 L66,-87 L127,-194 L183,-110 Z" stroke-width="0" fill="#fd9640" fill-opacity="0.21176470588235294" />
<path d="M120,-261 L170,-83 L155,-104 L98,-98 L135,-71 L38,-73 Z" stroke-width="0" fill="#de3d45" fill-opacity="0.1450980392156863" />
<path d="M64,-205 L78,-123 L124,-94 L143,-56 L227,-174 L33,-311 Z" stroke-width="0" fill="#384030" fill-opacity="0.37254901960784315" />
<path d="M225,-143 L127,-243 L138,-316 L53,-309 L97,-250 L113,-259 Z" stroke-width="0" fill="#485d5a" fill-opacity="0.3803921568627451" />
<path d="M82,-72 L98,-135 L169,-245 L52,-150 L112,-323 L53,-121 Z" stroke-width="0" fill="#f2ffb3" fill-opacity="0.06274509803921569" />
<path d="M193,-149 L77,-281 L126,-78 L100,-175 L211,-147 L108,-56 Z" stroke-width="0" fill="#110f19" fill-opacity="0.4" />
<path d="M154,-95 L139,-241 L73,-71 L195,-160 L174,-97 L116,-171 Z" stroke-width="0" fill="#2a3b69" fill-opacity="0.30196078431372547" />
<path d="M96,-69 L246,-64 L72,-103 L193,-158 L154,-104 L244,-28 Z" stroke-width="0" fill="#080f04" fill-opacity="0.5843137254901961" />
<path d="M160,-316 L92,-68 L139,-25 L182,-312 L115,-97 L123,-44 Z" stroke-width="0" fill="#002d21" fill-opacity="0.09803921568627451" />
<text x="137.5" y="12.5" font-size="20.0" fill="black" text-anchor="middle" transform="translate(0,5.0)">IMPORTANCE</text>
</svg>