<?xml version="1.0" encoding="UTF-8"?>
<svg xmlns="http://www.w3.org/2000/svg" xmlns:xlink="http://www.w3.org/1999/xlink"
     width="275" height="375" viewBox="0 -350 275 375">
<defs>
</defs>
<rect x="15" y="-335" width="245" height="320" stroke="black" stroke-width="4" fill="white" />
<path d="M99,-220 L49,-213 L161,-80 L164,-263 L234,-41 L204,-142 Z" stroke-width="0" fill="#884a00" fill-opacity="0.5411764705882353" />
<path d="M117,-179 L183,-312 L64,-273 L147,-156 L141,-48 L31,-145 Z" stroke-width="0" fill="#6f0000" fill-opacity="0.5607843137254902" />
<path d="M223,-94 L196,-108 L59,-125 L246,-212 L211,-183 L139,-210 Z" stroke-width="0" fill="#a5550e" fill-opacity="0.9882352941176471" />
<path d="M29,-181 L114,-196 L59,-193 L49,-276 L88,-70 L162,-140 Z" stroke-width="0" fill="#945100" fill-opacity="0.8117647058823529" />
<path d="M243,-217 L141,-144 L165,-139 L210,-75 L181,-70 L118,-233 Z" stroke-width="0" fill="#0c000e" fill-opacity="0.9529411764705882" />
<path d="M237,-145 L90,-96 L138,-186 L39,-130 L53,-119 L88,-199 Z" stroke-width="0" fill="#880c16" fill-opacity="0.07450980392156863" />
<path d="M145,-92 L142,-109 L78,-121 L162,-219 L134,-208 L64,-215 Z" stroke-width="0" fill="#2f9107" fill-opacity="0.7019607843137254" />
<path d="M110,-292 L130,-239 L120,-231 L86,-95 L165,-184 L60,-198 Z" stroke-width="0" fill="#947b69" fill-opacity="0.10588235294117647" />
<path d="M104,-211 L51,-196 L98,-60 L103,-125 L26,-174 L153,-122 Z" stroke-width="0" fill="#914000" fill-opacity="0.7607843137254902" />
<path d="M111,-323 L133,-134 L221,-44 L164,-168 L173,-180 L227,-245 Z" stroke-width="0" fill="#fbdb00" fill-opacity="0.11764705882352941" />
<path d="M109,-32 L81,-89 L156,-123 L82,-263 L182,-219 L113,-286 Z" stroke-width="0" fill="#b68b00" fill-opacity="0.4392156862745098" />
<path d="M94,-73 L213,-79 L52,-88 L43,-195 L205,-146 L76,-90 Z" stroke-width="0" fill="#904112" fill-opacity="0.9529411764705882" />
<path d="M32,-171 L56,-162 L171,-153 L171,-280 L72,-42 L154,-309 Z" stroke-width="0" fill="#9a4c0c" fill-opacity="0.8901960784313725" />
<path d="M228,-287 L196,-56 L164,-134 L111,-206 L219,-26 L210,-76 Z" stroke-width="0" fill="#bb3f00" fill-opacity="0.6274509803921569" />
<path d="M134,-175 L125,-75 L120,-182 L97,-122 L242,-273 L178,-267 Z" stroke-width="0" fill="#b60033" fill-opacity="0.9058823529411765" />
<path d="M141,-188 L50,-49 L154,-200 L182,-297 L51,-235 L35,-254 Z" stroke-width="0" fill="#03a00c" fill-opacity="0.050980392156862744" />
<path d="M208,-34 L70,-186 L224,-153 L99,-189 L195,-60 L104,-97 Z" stroke-width="0" fill="#eb8e00" fill-opacity="0.5607843137254902" />
<path d="M192,-96 L66,-181 L89,-181 L86,-145 L74,-147 L94,-122 Z" stroke-width="0" fill="#242b12" fill-opacity="0.803921568627451" />
<path d="M92,-203 L68,-175 L107,-151 L83,-88 L130,-255 L191,-76 Z" stroke-width="0" fill="#3438c7" fill-opacity="0.984313725490196" />
<path d="M84,-181 L60,-269 L109,-72 L78,-238 L100,-26 L98,-203 Z" stroke-width="0" fill="#872305" fill-opacity="0.6862745098039216" />
<path d="M61,-126 L46,-170 L202,-264 L189,-88 L62,-291 L76,-83 Z" stroke-width="0" fill="#9d4d04" fill-opacity="0.27450980392156865" />
<path d="M134,-97 L134,-256 L33,-254 L59,-127 L177,-163 L69,-34 Z" stroke-width="0" fill="#b75100" fill-opacity="0.34509803921568627" />
<path d="M91,-93 L89,-120 L109,-51 L77,-234 L121,-88 L221,-194 Z" stroke-width="0" fill="#0e5f6e" fill-opacity="0.8666666666666667" />
<path d="M129,-69 L81,-128 L207,-60 L84,-324 L130,-91 L38,-36 Z" stroke-width="0" fill="#cc7667" fill-opacity="0.9725490196078431" />
<path d="M212,-297 L171,-219 L119,-54 L193,-274 L218,-40 L236,-221 Z" stroke-width="0" fill="#9e3600" fill-opacity="0.47058823529411764" />
<path d="M88,-282 L198,-311 L117,-104 L235,-224 L161,-30 L28,-215 Z" stroke-width="0" fill="#aa6900" fill-opacity="0.6470588235294118" />
<path d="M236,-135 L240,-75 L96,-225 L55,-26 L242,-224 L33,-91 Z" stroke-width="0" fill="#c35114" fill-opacity="0.6823529411764706" />
<path d="M53,-262 L40,-184 L60,-306 L53,-304 L42,-115 L95,-86 Z" stroke-width="0" fill="#855748" fill-opacity="0.34901960784313724" />
<path d="M102,-119 L215,-246 L40,-251 L157,-189 L162,-32 L75,-70 Z" stroke-width="0" fill="#effc5b" fill-opacity="0.7843137254901961" />
<path d="M50,-119 L157,-106 L246,-260 L100,-171 L45,-132 L91,-84 Z" stroke-width="0" fill="#ff773d" fill-opacity="0.9490196078431372" />
<path d="M96,-306 L111,-250 L109,-305 L132,-193 L73,-44 L125,-321 Z" stroke-width="0" fill="#f7a177" fill-opacity="0.027450980392156862" />
<path d="M104,-63 L159,-35 L68,-196 L29,-246 L113,-74 L37,-142 Z" stroke-width="0" fill="#c69678" fill-opacity="0.8352941176470589" />
<path d="M75,-66 L41,-292 L148,-153 L182,-310 L138,-106 L171,-52 Z" stroke-width="0" fill="#f9f0c2" fill-opacity="0.6901960784313725" />
<path d="M198,-62 L65,-283 L126,-153 L78,-314 L85,-205 L163,-144 Z" stroke-width="0" fill="#fbf2e8" fill-opacity="0.3764705882352941" />
<path d="M216,-57 L199,-193 L161,-320 L220,-61 L122,-232 L224,-64 Z" stroke-width="0" fill="#a35f00" fill-opacity="0.7098039215686275" />
<path d="M140,-58 L152,-105 L84,-195 L61,-255 L67,-45 L170,-152 Z" stroke-width="0" fill="#efca5f" fill-opacity="0.5215686274509804" />
<path d="M84,-222 L222,-144 L196,-156 L224,-244 L232,-320 L243,-229 Z" stroke-width="0" fill="#b64d13" fill-opacity="0.803921568627451" />
<path d="M83,-54 L191,-303 L89,-324 L31,-85 L145,-284 L190,-62 Z" stroke-width="0" fill="#410d06" fill-opacity="0.0784313725490196" />
<path d="M67,-26 L151,-186 L49,-143 L123,-161 L133,-298 L154,-172 Z" stroke-width="0" fill="#951900" fill-opacity="0.5058823529411764" />
<path d="M192,-249 L55,-197 L173,-306 L97,-261 L202,-144 L89,-80 Z" stroke-width="0" fill="#3ffb04" fill-opacity="0.2980392156862745" />
<path d="M59,-273 L101,-64 L65,-69 L83,-107 L119,-229 L204,-62 Z" stroke-width="0" fill="#8d2d26" fill-opacity="0.803921568627451" />
<path d="M29,-280 L71,-314 L45,-120 L213,-309 L244,-41 L210,-188 Z" stroke-width="0" fill="#cfa622" fill-opacity="0.3176470588235294" />
<path d="M94,-172 L200,-177 L156,-303 L45,-289 L101,-233 L200,-189 Z" stroke-width="0" fill="#f0fbf5" fill-opacity="0.9803921568627451" />
<path d="M209,-220 L226,-310 L138,-126 L56,-188 L75,-36 L154,-172 Z" stroke-width="0" fill="#c6457f" fill-opacity="0.5294117647058824" />
<path d="M236,-175 L84,-324 L33,-202 L52,-304 L140,-225 L148,-292 Z" stroke-width="0" fill="#eff697" fill-opacity="0.16470588235294117" />
<path d="M248,-200 L164,-243 L127,-177 L177,-66 L232,-316 L175,-301 Z" stroke-width="0" fill="#9e6a18" fill-opacity="0.7607843137254902" />
<path d="M51,-77 L165,-236 L172,-158 L37,-265 L238,-296 L165,-314 Z" stroke-width="0" fill="#cf3e13" fill-opacity="0.596078431372549" />
<path d="M156,-43 L131,-193 L108,-49 L77,-196 L206,-28 L73,-179 Z" stroke-width="0" fill="#e5a46f" fill-opacity="0.9490196078431372" />
<path d="M103,-322 L182,-124 L126,-284 L177,-267 L108,-247 L177,-162 Z" stroke-width="0" fill="#f0fd6a" fill-opacity="0.23137254901960785" />
<path d="M95,-83 L230,-221 L79,-62 L195,-291 L228,-196 L111,-34 Z" stroke-width="0" fill="#e4ea04" fill-opacity="0.8156862745098039" />
<path d="M116,-35 L83,-269 L112,-155 L43,-140 L209,-281 L78,-135 Z" stroke-width="0" fill="#922651" fill-opacity="0.5764705882352941" />
<path d="M202,-136 L249,-216 L139,-234 L112,-134 L82,-124 L67,-172 Z" stroke-width="0" fill="#e9a318" fill-opacity="0.8588235294117647" />
<path d="M70,-241 L149,-57 L61,-67 L46,-65 L155,-212 L75,-71 Z" stroke-width="0" fill="#ff815e" fill-opacity="0.7764705882352941" />
<path d="M86,-162 L192,-253 L176,-70 L156,-281 L29,-313 L150,-263 Z" stroke-width="0" fill="#c9edf4" fill-opacity="0.03137254901960784" />
<path d="M46,-79 L205,-233 L102,-35 L221,-79 L171,-27 L229,-218 Z" stroke-width="0" fill="#f60346" fill-opacity="0.41568627450980394" />
<path d="M49,-259 L99,-67 L57,-154 L200,-52 L154,-158 L138,-96 Z" stroke-width="0" fill="#171802" fill-opacity="0.2196078431372549" />
<path d="M214,-312 L80,-312 L42,-85 L153,-75 L114,-176 L156,-76 Z" stroke-width="0" fill="#c5fa4a" fill-opacity="0.30980392156862746" />
<path d="M121,-264 L166,-176 L156,-144 L237,-124 L150,-43 L218,-89 Z" stroke-width="0" fill="#c6581e" fill-opacity="0.3686274509803922" />
<path d="M220,-272 L156,-247 L49,-317 L67,-111 L67,-95 L224,-287 Z" stroke-width="0" fill="#eef2c7" fill-opacity="0.8980392156862745" />
<path d="M96,-25 L120,-89 L244,-161 L115,-302 L95,-271 L96,-36 Z" stroke-width="0" fill="#dfd451" fill-opacity="0.4627450980392157" />
<path d="M42,-311 L223,-137 L247,-284 L166,-220 L34,-247 L196,-156 Z" stroke-width="0" fill="#cce850" fill-opacity="0.5019607843137255" />
<path d="M36,-178 L81,-36 L247,-245 L143,-141 L125,-275 L70,-292 Z" stroke-width="0" fill="#f2e66f" fill-opacity="0.2" />
<path d="M202,-324 L121,-81 L116,-315 L158,-272 L200,-268 L62,-70 Z" stroke-width="0" fill="#dff04b" fill-opacity="0.11764705882352941" />
<path d="M189,-299 L65,-84 L201,-37 L158,-176 L32,-184 L174,-98 Z" stroke-width="0" fill="#76b434" fill-opacity="0.00392156862745098" />
<path d="M42,-187 L156,-51 L183,-137 L234,-100 L163,-318 L219,-54 Z" stroke-width="0" fill="#f1d904" fill-opacity="0.14901960784313725" />
<path d="M76,-208 L176,-146 L68,-169 L243,-237 L201,-62 L106,-268 Z" stroke-width="0" fill="#e3b172" fill-opacity="0.6705882352941176" />
<path d="M133,-314 L35,-72 L116,-232 L76,-50 L192,-184 L155,-115 Z" stroke-width="0" fill="#e7ee62" fill-opacity="0.5372549019607843" />
<path d="M152,-301 L139,-183 L91,-262 L142,-208 L113,-128 L211,-212 Z" stroke-width="0" fill="#e7feae" fill-opacity="0.6627450980392157" />
<path d="M55,-242 L188,-184 L73,-237 L129,-307 L189,-130 L136,-165 Z" stroke-width="0" fill="#f8eccc" fill-opacity="0.9137254901960784" />
<path d="M44,-74 L110,-44 L60,-103 L77,-70 L243,-158 L132,-124 Z" stroke-width="0" fill="#da9e9e" fill-opacity="0.5019607843137255" />
<path d="M161,-238 L90,-283 L69,-141 L140,-104 L38,-188 L96,-184 Z" stroke-width="0" fill="#fee890" fill-opacity="0.027450980392156862" />
<path d="M234,-111 L166,-323 L219,-71 L153,-235 L78,-173 L127,-302 Z" stroke-width="0" fill="#e7fad1" fill-opacity="0.17647058823529413" />
<path d="M141,-72 L34,-123 L132,-234 L30,-230 L230,-70 L79,-43 Z" stroke-width="0" fill="#f4d3c1" fill-opacity="0.1607843137254902" />
<path d="M187,-27 L213,-300 L48,-64 L169,-154 L179,-50 L243,-114 Z" stroke-width="0" fill="#d6ba00" fill-opacity="0.4980392156862745" />
<path d="M109,-50 L52,-60 L102,-127 L198,-126 L141,-90 L242,-315 Z" stroke-width="0" fill="#f50d01" fill-opacity="0.3137254901960784" />
<path d="M126,-95 L157,-107 L54,-184 L66,-195 L33,-249 L219,-181 Z" stroke-width="0" fill="#94d3fe" fill-opacity="0.12941176470588237" />
<path d="M89,-255 L33,-108 L46,-63 L87,-101 L94,-56 L60,-301 Z" stroke-width="0" fill="#a34d0e" fill-opacity="0.8705882352941177" />
<path d="M113,-230 L106,-86 L141,-164 L233,-207 L189,-151 L197,-316 Z" stroke-width="0" fill="#deee80" fill-opacity="0.0196078431372549" />
<path d="M99,-228 L149,-42 L148,-275 L168,-58 L70,-163 L37,-103 Z" stroke-width="0" fill="#8fb4f4" fill-opacity="0.21568627450980393" />
<path d="M228,-103 L233,-25 L217,-141 L73,-143 L91,-288 L103,-161 Z" stroke-width="0" fill="#e5b243" fill-opacity="0.6039215686274509" />
<path d="M76,-119 L42,-83 L172,-63 L235,-300 L127,-177 L177,-58 Z" stroke-width="0" fill="#f2f524" fill-opacity="0.25882352941176473" />
<path d="M140,-273 L185,-160 L47,-278 L90,-164 L96,-249 L75,-255 Z" stroke-width="0" fill="#e6f8f4" fill-opacity="0.9529411764705882" />
<path d="M145,-138 L144,-34 L132,-73 L139,-28 L116,-41 L37,-107 Z" stroke-width="0" fill="#f52320" fill-opacity="0.0196078431372549" />
<path d="M53,-189 L90,-133 L127,-177 L198,-25 L124,-271 L190,-119 Z" stroke-width="0" fill="#d2af9f" fill-opacity="0.42745098039215684" />
<path d="M128,-135 L111,-68 L87,-57 L35,-76 L170,-320 L106,-88 Z" stroke-width="0" fill="#c27122" fill-opacity="0.10196078431372549" />
<path d="M68,-217 L182,-109 L172,-27 L178,-179 L92,-215 L165,-318 Z" stroke-width="0" fill="#f0f90c" fill-opacity="0.03529411764705882" />
<path d="M206,-43 L43,-26 L59,-32 L144,-253 L65,-50 L63,-109 Z" stroke-width="0" fill="#a73300" fill-opacity="0.7019607843137254" />
<path d="M149,-36 L127,-274 L248,-309 L154,-230 L245,-292 L179,-257 Z" stroke-width="0" fill="#bbae45" fill-opacity="0.5372549019607843" />
<path d="M52,-218 L210,-58 L42,-120 L41,-131 L90,-49 L187,-136 Z" stroke-width="0" fill="#c69521" fill-opacity="0.17647058823529413" />
<path d="M50,-147 L216,-218 L97,-213 L191,-214 L249,-32 L237,-160 Z" stroke-width="0" fill="#caa93f" fill-opacity="0.7843137254901961" />
<path d="M147,-101 L38,-55 L191,-116 L25,-280 L151,-105 L153,-180 Z" stroke-width="0" fill="#f9f3e9" fill-opacity="0.5764705882352941" />
<path d="M58,-130 L39,-284 L123,-196 L175,-25 L146,-204 L66,-211 Z" stroke-width="0" fill="#ff8146" fill-opacity="0.11764705882352941" />
<path d="M116,-41 L136,-65 L191,-271 L48,-101 L125,-37 L86,-129 Z" stroke-width="0" fill="#daef88" fill-opacity="0.3333333333333333" />
<path d="M134,-155 L200,-287 L96,-304 L54,-245 L47,-38 L104,-247 Z" stroke-width="0" fill="#d9dd7f" fill-opacity="0.27450980392156865" />
<path d="M44,-76 L186,-288 L88,-227 L215,-57 L192,-165 L168,-277 Z" stroke-width="0" fill="#faf0b0" fill-opacity="0.4980392156862745" />
<path d="M140,-108 L99,-92 L47,-40 L132,-220 L32,-177 L108,-173 Z" stroke-width="0" fill="#d2fe7b" fill-opacity="0.043137254901960784" />
<path d="M226,-237 L173,-310 L31,-315 L155,-126 L197,-162 L73,-112 Z" stroke-width="0" fill="#fcbcd9" fill-opacity="0.5333333333333333" />
<path d="M243,-107 L231,-164 L239,-121 L118,-248 L86,-168 L128,-43 Z" stroke-width="0" fill="#d8dec3" fill-opacity="0.20392156862745098" />
<path d="M143,-269 L146,-158 L72,-99 L178,-130 L136,-239 L183,-244 Z" stroke-width="0" fill="#f5f1b2" fill-opacity="0.6980392156862745" />
<path d="M197,-115 L202,-94 L141,-30 L79,-57 L205,-119 L201,-216 Z" stroke-width="0" fill="#eac138" fill-opacity="0.42745098039215684" />
<text x="137.5" y="12.5" font-size="20.0" fill="black" text-anchor="middle" transform="translate(0,5.0)">FREEDOM</text>
</svg>