<?xml version="1.0" encoding="UTF-8"?>
<svg xmlns="http://www.w3.org/2000/svg" xmlns:xlink="http://www.w3.org/1999/xlink"
     width="896" height="1496" viewBox="0 -1400 896 1496" style="font-size:70;font-family:Poor Richard, Times New Roman;stroke:black;stroke-width:1;fill:none">
<defs>
</defs>
<path d="M170,-846 L402,-1018 L366,-1114 L178,-1138 L94,-122 L154,-322 Z" stroke-width="0" fill="#7c0200" fill-opacity="0.7568627450980392" />
<path d="M614,-1214 L98,-554 L602,-386 L798,-618 L458,-570 L542,-938 Z" stroke-width="0" fill="#cc3400" fill-opacity="0.34509803921568627" />
<path d="M394,-1074 L698,-750 L354,-150 L778,-442 L166,-842 L750,-526 Z" stroke-width="0" fill="#fcae4e" fill-opacity="0.027450980392156862" />
<path d="M462,-1130 L610,-794 L738,-286 L274,-814 L710,-1202 L122,-458 Z" stroke-width="0" fill="#f4c2db" fill-opacity="0.12941176470588237" />
<path d="M178,-486 L182,-502 L126,-294 L458,-390 L138,-154 L394,-1310 Z" stroke-width="0" fill="#5a6700" fill-opacity="0.6039215686274509" />
<path d="M174,-230 L694,-218 L746,-954 L690,-170 L210,-302 L782,-746 Z" stroke-width="0" fill="#ff13f2" fill-opacity="0.7215686274509804" />
<path d="M418,-762 L614,-714 L670,-118 L486,-174 L566,-1122 L638,-622 Z" stroke-width="0" fill="#f7f1e9" fill-opacity="0.07058823529411765" />
<path d="M358,-986 L746,-806 L98,-874 L506,-1258 L434,-286 L670,-214 Z" stroke-width="0" fill="#f59625" fill-opacity="0.7254901960784313" />
<path d="M334,-366 L682,-1102 L626,-674 L626,-1162 L238,-262 L138,-86 Z" stroke-width="0" fill="#862a00" fill-opacity="0.7019607843137254" />
<path d="M410,-922 L562,-262 L362,-414 L710,-622 L642,-722 L202,-366 Z" stroke-width="0" fill="#0260b3" fill-opacity="0.49411764705882355" />
<path d="M758,-762 L634,-418 L434,-1218 L82,-1198 L726,-1126 L294,-542 Z" stroke-width="0" fill="#c51902" fill-opacity="0.5254901960784314" />
<path d="M190,-1146 L342,-218 L242,-1154 L382,-302 L418,-366 L150,-1022 Z" stroke-width="0" fill="#7b388f" fill-opacity="0.9294117647058824" />
<path d="M694,-1234 L598,-570 L246,-142 L546,-462 L726,-130 L610,-346 Z" stroke-width="0" fill="#fffb9c" fill-opacity="0.4627450980392157" />
<path d="M734,-386 L730,-430 L750,-694 L318,-978 L610,-1218 L646,-450 Z" stroke-width="0" fill="#fbb9e9" fill-opacity="0.9333333333333333" />
<path d="M478,-994 L734,-1194 L206,-290 L162,-550 L198,-1214 L246,-998 Z" stroke-width="0" fill="#c46e93" fill-opacity="0.7529411764705882" />
<path d="M486,-1282 L474,-966 L118,-598 L294,-1274 L450,-990 L338,-878 Z" stroke-width="0" fill="#f87722" fill-opacity="0.8470588235294118" />
<path d="M806,-878 L638,-730 L378,-270 L214,-714 L238,-774 L330,-134 Z" stroke-width="0" fill="#fcf856" fill-opacity="0.8784313725490196" />
<path d="M530,-870 L446,-1030 L498,-338 L86,-506 L122,-706 L414,-386 Z" stroke-width="0" fill="#000000" fill-opacity="0.9529411764705882" />
<path d="M766,-1122 L358,-322 L674,-802 L162,-402 L362,-250 L342,-1234 Z" stroke-width="0" fill="#eaf2e5" fill-opacity="0.3607843137254902" />
<path d="M138,-570 L154,-854 L326,-146 L410,-382 L158,-1146 L266,-282 Z" stroke-width="0" fill="#cd0c00" fill-opacity="0.6745098039215687" />
<path d="M358,-998 L450,-738 L566,-1198 L562,-534 L618,-802 L378,-402 Z" stroke-width="0" fill="#e9eada" fill-opacity="0.8196078431372549" />
<path d="M318,-574 L546,-1262 L302,-578 L238,-318 L562,-318 L486,-138 Z" stroke-width="0" fill="#e36c0b" fill-opacity="0.7803921568627451" />
<path d="M150,-1126 L218,-154 L138,-450 L502,-514 L242,-594 L494,-878 Z" stroke-width="0" fill="#675ba8" fill-opacity="0.00392156862745098" />
<path d="M358,-562 L246,-958 L566,-1038 L770,-922 L674,-810 L686,-798 Z" stroke-width="0" fill="#fae8d4" fill-opacity="0.17647058823529413" />
<path d="M234,-678 L130,-558 L174,-322 L282,-1250 L250,-206 L126,-1298 Z" stroke-width="0" fill="#df5200" fill-opacity="0.7372549019607844" />
<path d="M250,-314 L378,-770 L198,-974 L362,-1086 L242,-598 L294,-1110 Z" stroke-width="0" fill="#24adc0" fill-opacity="0.7294117647058823" />
<path d="M530,-1114 L318,-1198 L626,-1198 L786,-410 L370,-1246 L518,-714 Z" stroke-width="0" fill="#f652aa" fill-opacity="0.2823529411764706" />
<path d="M346,-1046 L802,-1038 L586,-650 L338,-354 L758,-190 L106,-1022 Z" stroke-width="0" fill="#f4b63c" fill-opacity="0.8470588235294118" />
<path d="M722,-666 L266,-1174 L574,-458 L730,-578 L442,-1102 L790,-350 Z" stroke-width="0" fill="#ffac03" fill-opacity="0.8745098039215686" />
<path d="M510,-782 L138,-1138 L258,-310 L590,-542 L718,-318 L330,-162 Z" stroke-width="0" fill="#fbfbf1" fill-opacity="0.9803921568627451" />
<path d="M538,-1050 L590,-486 L250,-138 L418,-1058 L190,-1298 L774,-1094 Z" stroke-width="0" fill="#dd7e01" fill-opacity="0.6470588235294118" />
<path d="M122,-1162 L470,-794 L742,-482 L358,-1218 L98,-302 L86,-162 Z" stroke-width="0" fill="#d06000" fill-opacity="0.9450980392156862" />
<path d="M658,-918 L210,-882 L190,-398 L718,-534 L346,-182 L562,-266 Z" stroke-width="0" fill="#5e0299" fill-opacity="0.8745098039215686" />
<path d="M306,-718 L454,-422 L178,-630 L758,-878 L266,-1206 L574,-122 Z" stroke-width="0" fill="#ffdf8b" fill-opacity="0.49019607843137253" />
<path d="M258,-1198 L186,-334 L166,-98 L338,-742 L366,-1094 L570,-558 Z" stroke-width="0" fill="#e1aa5f" fill-opacity="0.7803921568627451" />
<path d="M354,-1142 L442,-278 L114,-982 L610,-154 L122,-478 L470,-862 Z" stroke-width="0" fill="#f14800" fill-opacity="0.6823529411764706" />
<path d="M586,-1306 L650,-902 L414,-942 L138,-942 L758,-990 L90,-486 Z" stroke-width="0" fill="#e86b07" fill-opacity="0.7529411764705882" />
<path d="M242,-522 L542,-386 L270,-370 L738,-762 L666,-302 L230,-1298 Z" stroke-width="0" fill="#de6600" fill-opacity="0.6549019607843137" />
<path d="M490,-162 L126,-566 L646,-198 L622,-1274 L254,-330 L306,-174 Z" stroke-width="0" fill="#f98d01" fill-opacity="0.6705882352941176" />
<path d="M446,-1198 L378,-1014 L494,-1310 L158,-922 L98,-1230 L214,-134 Z" stroke-width="0" fill="#df9600" fill-opacity="0.788235294117647" />
<path d="M422,-786 L418,-90 L346,-562 L442,-878 L726,-682 L118,-246 Z" stroke-width="0" fill="#923f90" fill-opacity="0.7450980392156863" />
<path d="M370,-710 L118,-226 L386,-1042 L270,-806 L730,-346 L518,-342 Z" stroke-width="0" fill="#e932a0" fill-opacity="0.4745098039215686" />
<path d="M726,-242 L438,-282 L546,-954 L254,-1226 L478,-538 L434,-238 Z" stroke-width="0" fill="#ee8e0a" fill-opacity="0.6549019607843137" />
<path d="M126,-430 L378,-1086 L554,-558 L430,-322 L198,-142 L134,-262 Z" stroke-width="0" fill="#cc54c5" fill-opacity="0.18823529411764706" />
<path d="M110,-170 L514,-630 L350,-874 L618,-966 L642,-322 L222,-922 Z" stroke-width="0" fill="#795000" fill-opacity="0.792156862745098" />
<path d="M146,-534 L190,-782 L782,-1302 L422,-642 L134,-654 L198,-226 Z" stroke-width="0" fill="#ee5108" fill-opacity="0.7254901960784313" />
<path d="M234,-1194 L530,-670 L794,-1282 L378,-978 L606,-486 L82,-1202 Z" stroke-width="0" fill="#fec700" fill-opacity="0.4588235294117647" />
<path d="M598,-1230 L118,-478 L678,-98 L334,-898 L358,-86 L102,-178 Z" stroke-width="0" fill="#d07401" fill-opacity="0.5882352941176471" />
<path d="M510,-770 L366,-286 L310,-206 L794,-90 L294,-646 L742,-1098 Z" stroke-width="0" fill="#fa0022" fill-opacity="0.5411764705882353" />
<path d="M278,-606 L178,-1034 L470,-290 L798,-606 L522,-302 L774,-666 Z" stroke-width="0" fill="#c3a906" fill-opacity="0.3843137254901961" />
<path d="M730,-662 L806,-590 L490,-930 L294,-86 L458,-902 L170,-662 Z" stroke-width="0" fill="#fb7900" fill-opacity="0.7843137254901961" />
<path d="M262,-902 L206,-1270 L418,-786 L302,-118 L610,-766 L294,-1118 Z" stroke-width="0" fill="#ee9427" fill-opacity="0.984313725490196" />
<path d="M110,-414 L178,-798 L90,-514 L258,-1162 L230,-762 L314,-578 Z" stroke-width="0" fill="#b6150b" fill-opacity="0.027450980392156862" />
<path d="M314,-202 L294,-458 L82,-150 L506,-710 L238,-634 L366,-1162 Z" stroke-width="0" fill="#9e6517" fill-opacity="0.8470588235294118" />
<path d="M270,-954 L126,-694 L610,-474 L670,-1118 L226,-766 L538,-658 Z" stroke-width="0" fill="#df5c00" fill-opacity="0.23137254901960785" />
<path d="M110,-946 L386,-162 L210,-362 L362,-766 L242,-950 L610,-242 Z" stroke-width="0" fill="#f05300" fill-opacity="0.5607843137254902" />
<path d="M426,-410 L558,-454 L114,-90 L806,-798 L754,-242 L290,-990 Z" stroke-width="0" fill="#c7a300" fill-opacity="0.8823529411764706" />
<path d="M606,-682 L774,-174 L322,-286 L734,-922 L262,-1174 L398,-1310 Z" stroke-width="0" fill="#f38f00" fill-opacity="0.7843137254901961" />
<path d="M358,-934 L390,-734 L454,-974 L714,-98 L346,-1090 L582,-186 Z" stroke-width="0" fill="#680006" fill-opacity="0.807843137254902" />
<path d="M174,-1178 L230,-726 L190,-514 L786,-1270 L690,-782 L514,-166 Z" stroke-width="0" fill="#f37e00" fill-opacity="0.6941176470588235" />
<path d="M590,-1202 L162,-86 L374,-802 L178,-754 L98,-258 L810,-474 Z" stroke-width="0" fill="#fdab26" fill-opacity="0.9803921568627451" />
<path d="M302,-1194 L234,-1094 L174,-122 L258,-686 L742,-134 L302,-918 Z" stroke-width="0" fill="#e1d65c" fill-opacity="0.6039215686274509" />
<path d="M610,-1150 L778,-802 L782,-658 L290,-362 L466,-726 L138,-458 Z" stroke-width="0" fill="#f2d800" fill-opacity="0.39215686274509803" />
<path d="M190,-1174 L102,-178 L786,-1110 L330,-1190 L514,-298 L190,-834 Z" stroke-width="0" fill="#eae973" fill-opacity="0.027450980392156862" />
<path d="M118,-346 L294,-502 L714,-110 L358,-946 L166,-642 L262,-110 Z" stroke-width="0" fill="#e26674" fill-opacity="0.23137254901960785" />
<path d="M694,-958 L398,-402 L378,-1254 L486,-438 L542,-1058 L314,-182 Z" stroke-width="0" fill="#ee8c22" fill-opacity="0.13333333333333333" />
<path d="M226,-1030 L646,-614 L122,-94 L194,-710 L362,-706 L394,-130 Z" stroke-width="0" fill="#6b620c" fill-opacity="0.4235294117647059" />
<path d="M342,-386 L710,-570 L406,-1054 L418,-614 L202,-1174 L462,-1106 Z" stroke-width="0" fill="#f33e34" fill-opacity="0.42745098039215684" />
<path d="M322,-306 L590,-86 L758,-950 L306,-1282 L782,-1190 L614,-1310 Z" stroke-width="0" fill="#de9116" fill-opacity="0.7529411764705882" />
<path d="M210,-1302 L534,-858 L574,-886 L446,-970 L734,-282 L678,-962 Z" stroke-width="0" fill="#97ba5e" fill-opacity="0.09803921568627451" />
<path d="M458,-582 L342,-1114 L334,-314 L494,-318 L334,-378 L490,-138 Z" stroke-width="0" fill="#eb2217" fill-opacity="0.6352941176470588" />
<path d="M490,-398 L158,-774 L378,-1142 L698,-1094 L722,-670 L694,-1010 Z" stroke-width="0" fill="#feb82f" fill-opacity="0.3764705882352941" />
<path d="M114,-274 L114,-326 L634,-350 L462,-342 L558,-362 L546,-586 Z" stroke-width="0" fill="#cd5e4b" fill-opacity="0.12156862745098039" />
<path d="M122,-618 L622,-818 L786,-1022 L466,-994 L706,-834 L398,-866 Z" stroke-width="0" fill="#f5e4ac" fill-opacity="0.4235294117647059" />
<path d="M150,-394 L738,-190 L350,-670 L502,-686 L226,-114 L446,-446 Z" stroke-width="0" fill="#f2db8b" fill-opacity="0.9568627450980393" />
<path d="M318,-638 L478,-962 L786,-1046 L694,-102 L530,-554 L290,-1198 Z" stroke-width="0" fill="#f4c500" fill-opacity="0.6431372549019608" />
<path d="M398,-802 L742,-190 L506,-854 L762,-98 L630,-490 L226,-486 Z" stroke-width="0" fill="#68001f" fill-opacity="0.23529411764705882" />
<path d="M218,-158 L330,-446 L398,-1174 L386,-914 L434,-302 L526,-214 Z" stroke-width="0" fill="#fd91d9" fill-opacity="0.2784313725490196" />
<path d="M138,-430 L306,-414 L318,-1266 L478,-550 L338,-250 L558,-190 Z" stroke-width="0" fill="#e27f50" fill-opacity="0.24313725490196078" />
<path d="M786,-162 L462,-1146 L406,-730 L110,-1250 L438,-598 L130,-670 Z" stroke-width="0" fill="#fc8916" fill-opacity="0.9294117647058824" />
<path d="M546,-530 L782,-318 L130,-746 L114,-806 L582,-830 L506,-294 Z" stroke-width="0" fill="#f66a0c" fill-opacity="0.6627450980392157" />
<path d="M722,-654 L138,-402 L390,-778 L218,-194 L302,-738 L682,-658 Z" stroke-width="0" fill="#5e042f" fill-opacity="0.9686274509803922" />
<path d="M394,-330 L394,-986 L370,-414 L126,-802 L186,-682 L274,-1010 Z" stroke-width="0" fill="#d99500" fill-opacity="0.28627450980392155" />
<path d="M590,-1034 L258,-834 L174,-1034 L506,-518 L82,-1278 L694,-886 Z" stroke-width="0" fill="#e9b100" fill-opacity="0.1803921568627451" />
<path d="M782,-998 L370,-150 L274,-1254 L266,-1118 L130,-1218 L754,-310 Z" stroke-width="0" fill="#feb300" fill-opacity="0.44313725490196076" />
<path d="M770,-90 L426,-1078 L506,-690 L214,-1158 L278,-270 L178,-106 Z" stroke-width="0" fill="#db8101" fill-opacity="0.792156862745098" />
<path d="M726,-726 L670,-454 L82,-334 L478,-182 L622,-494 L518,-1178 Z" stroke-width="0" fill="#fcbd76" fill-opacity="0.17254901960784313" />
<path d="M218,-538 L682,-818 L470,-378 L594,-1094 L750,-770 L314,-794 Z" stroke-width="0" fill="#e1183f" fill-opacity="0.09019607843137255" />
<path d="M330,-882 L466,-462 L166,-730 L282,-898 L466,-662 L810,-218 Z" stroke-width="0" fill="#192907" fill-opacity="0.9215686274509803" />
<path d="M210,-318 L170,-782 L750,-434 L794,-1114 L434,-286 L522,-794 Z" stroke-width="0" fill="#f19432" fill-opacity="0.09019607843137255" />
<path d="M586,-646 L402,-610 L338,-698 L558,-462 L786,-1270 L434,-922 Z" stroke-width="0" fill="#d79d03" fill-opacity="0.15294117647058825" />
<path d="M122,-894 L382,-1218 L470,-1170 L346,-662 L610,-430 L446,-254 Z" stroke-width="0" fill="#fbbb1d" fill-opacity="0.2784313725490196" />
<path d="M550,-486 L110,-254 L642,-594 L210,-1270 L98,-170 L678,-1090 Z" stroke-width="0" fill="#f95f00" fill-opacity="0.1803921568627451" />
<path d="M378,-218 L494,-90 L122,-110 L242,-618 L438,-166 L718,-1086 Z" stroke-width="0" fill="#bc3c00" fill-opacity="0.4470588235294118" />
<path d="M670,-1010 L354,-686 L690,-366 L362,-1078 L402,-362 L270,-1270 Z" stroke-width="0" fill="#d29400" fill-opacity="0.12156862745098039" />
<path d="M98,-250 L110,-514 L198,-886 L390,-310 L286,-674 L550,-1022 Z" stroke-width="0" fill="#000d01" fill-opacity="0.9215686274509803" />
<path d="M350,-550 L90,-1254 L394,-266 L214,-318 L490,-274 L626,-450 Z" stroke-width="0" fill="#d2e525" fill-opacity="0.3764705882352941" />
<path d="M290,-886 L770,-522 L430,-918 L666,-378 L506,-946 L106,-510 Z" stroke-width="0" fill="#200003" fill-opacity="0.8588235294117647" />
<path d="M218,-842 L202,-1102 L402,-794 L658,-214 L122,-550 L210,-950 Z" stroke-width="0" fill="#ec1300" fill-opacity="0.1607843137254902" />
<path d="M426,-914 L218,-438 L170,-890 L418,-274 L758,-630 L462,-206 Z" stroke-width="0" fill="#020000" fill-opacity="0.06666666666666667" />
<text x="448.0" y="0" font-size="70.0" fill="black" text-anchor="middle" transform="translate(0,17.5)">FREEDOM</text>
</svg>