<?xml version="1.0" encoding="UTF-8"?>
<svg xmlns="http://www.w3.org/2000/svg" xmlns:xlink="http://www.w3.org/1999/xlink"
     width="896" height="1496" viewBox="0 -1400 896 1496" style="font-size:70;font-family:Poor Richard, Times New Roman;stroke:black;stroke-width:1;fill:none">
<defs>
</defs>
<path d="M706,-1302 L266,-422 L218,-762 L650,-506 L402,-1154 L146,-678 Z" stroke-width="0" fill="#31657e" fill-opacity="0.0" />
<path d="M206,-86 L226,-118 L322,-570 L482,-98 L770,-1010 L614,-1214 Z" stroke-width="0" fill="#e1efb1" fill-opacity="0.03529411764705882" />
<path d="M358,-606 L438,-802 L250,-426 L642,-946 L218,-166 L738,-362 Z" stroke-width="0" fill="#07ffdf" fill-opacity="0.12941176470588237" />
<path d="M94,-722 L214,-858 L718,-574 L802,-566 L494,-550 L190,-194 Z" stroke-width="0" fill="#19e3fb" fill-opacity="0.054901960784313725" />
<path d="M210,-1110 L282,-82 L690,-1210 L410,-1054 L710,-834 L238,-186 Z" stroke-width="0" fill="#a298e3" fill-opacity="0.43529411764705883" />
<path d="M610,-98 L466,-158 L278,-922 L642,-270 L142,-666 L694,-254 Z" stroke-width="0" fill="#c55cc1" fill-opacity="0.0196078431372549" />
<path d="M326,-1206 L414,-294 L358,-426 L542,-838 L110,-182 L450,-1162 Z" stroke-width="0" fill="#cc7587" fill-opacity="0.00392156862745098" />
<path d="M558,-258 L190,-110 L250,-358 L98,-926 L718,-1158 L514,-230 Z" stroke-width="0" fill="#c1d3f6" fill-opacity="0.8" />
<path d="M270,-1030 L538,-166 L366,-1022 L394,-1278 L98,-510 L462,-1102 Z" stroke-width="0" fill="#f7e6ee" fill-opacity="0.050980392156862744" />
<path d="M714,-194 L618,-850 L638,-218 L142,-1058 L326,-906 L146,-110 Z" stroke-width="0" fill="#854abe" fill-opacity="0.1607843137254902" />
<path d="M430,-454 L230,-126 L166,-578 L678,-670 L222,-1022 L594,-354 Z" stroke-width="0" fill="#fe8db2" fill-opacity="0.06666666666666667" />
<path d="M742,-358 L810,-290 L518,-898 L702,-522 L490,-266 L158,-554 Z" stroke-width="0" fill="#f3fd4f" fill-opacity="0.03529411764705882" />
<path d="M286,-922 L778,-330 L246,-250 L262,-346 L422,-274 L362,-1106 Z" stroke-width="0" fill="#fdecfa" fill-opacity="0.058823529411764705" />
<path d="M510,-142 L226,-978 L662,-782 L774,-706 L622,-82 L762,-366 Z" stroke-width="0" fill="#4817e2" fill-opacity="0.06274509803921569" />
<path d="M342,-586 L338,-398 L702,-1062 L198,-702 L258,-958 L766,-222 Z" stroke-width="0" fill="#5f7e18" fill-opacity="0.0392156862745098" />
<path d="M566,-430 L578,-166 L334,-142 L702,-798 L550,-938 L438,-1182 Z" stroke-width="0" fill="#d9dbfe" fill-opacity="0.5372549019607843" />
<path d="M454,-1074 L378,-634 L474,-386 L114,-1038 L718,-1042 L206,-486 Z" stroke-width="0" fill="#dbccfc" fill-opacity="0.16862745098039217" />
<path d="M378,-998 L102,-1094 L306,-1174 L130,-838 L250,-666 L90,-242 Z" stroke-width="0" fill="#f6e7f0" fill-opacity="0.11372549019607843" />
<path d="M610,-198 L438,-326 L322,-1114 L654,-542 L766,-846 L466,-786 Z" stroke-width="0" fill="#8ed6f5" fill-opacity="0.09019607843137255" />
<path d="M270,-242 L362,-950 L262,-214 L766,-234 L734,-398 L446,-286 Z" stroke-width="0" fill="#bed0de" fill-opacity="0.1803921568627451" />
<path d="M314,-986 L246,-1102 L698,-614 L234,-850 L438,-622 L186,-790 Z" stroke-width="0" fill="#4ff1df" fill-opacity="0.00784313725490196" />
<path d="M302,-494 L526,-170 L350,-898 L94,-422 L642,-894 L254,-658 Z" stroke-width="0" fill="#f2eae1" fill-opacity="0.058823529411764705" />
<path d="M354,-422 L534,-514 L118,-366 L582,-374 L558,-318 L294,-498 Z" stroke-width="0" fill="#dfa1d5" fill-opacity="0.15294117647058825" />
<path d="M602,-446 L222,-534 L726,-926 L390,-1094 L730,-162 L722,-446 Z" stroke-width="0" fill="#5ae3e3" fill-opacity="0.058823529411764705" />
<path d="M530,-654 L94,-902 L230,-86 L370,-774 L318,-634 L258,-830 Z" stroke-width="0" fill="#b7bcf2" fill-opacity="0.17647058823529413" />
<path d="M218,-442 L234,-390 L710,-1014 L574,-766 L262,-674 L782,-114 Z" stroke-width="0" fill="#fe2712" fill-opacity="0.16470588235294117" />
<path d="M762,-310 L582,-282 L642,-482 L642,-330 L618,-842 L82,-438 Z" stroke-width="0" fill="#eb2b16" fill-opacity="0.0196078431372549" />
<path d="M422,-750 L242,-474 L546,-586 L546,-590 L774,-346 L494,-1170 Z" stroke-width="0" fill="#7052ea" fill-opacity="0.0" />
<path d="M458,-690 L722,-466 L250,-350 L406,-654 L362,-850 L754,-474 Z" stroke-width="0" fill="#18eaea" fill-opacity="0.3254901960784314" />
<path d="M250,-146 L342,-458 L694,-1290 L302,-990 L202,-426 L430,-1142 Z" stroke-width="0" fill="#411353" fill-opacity="0.00784313725490196" />
<path d="M798,-1094 L334,-1222 L186,-1098 L786,-274 L678,-854 L638,-390 Z" stroke-width="0" fill="#f1e4fd" fill-opacity="0.13333333333333333" />
<path d="M506,-1150 L490,-1242 L514,-1050 L390,-194 L186,-526 L446,-666 Z" stroke-width="0" fill="#a0f4ba" fill-opacity="0.10196078431372549" />
<path d="M310,-142 L622,-722 L574,-498 L750,-946 L602,-730 L702,-886 Z" stroke-width="0" fill="#f7f9a4" fill-opacity="0.1450980392156863" />
<path d="M334,-222 L554,-470 L210,-590 L170,-1066 L534,-106 L714,-182 Z" stroke-width="0" fill="#ed84fc" fill-opacity="0.09019607843137255" />
<path d="M454,-798 L430,-1094 L390,-1246 L394,-278 L410,-698 L694,-250 Z" stroke-width="0" fill="#ecc8db" fill-opacity="0.0196078431372549" />
<path d="M486,-398 L450,-842 L474,-554 L710,-446 L186,-966 L326,-1202 Z" stroke-width="0" fill="#066c41" fill-opacity="0.0" />
<path d="M802,-310 L202,-738 L218,-86 L546,-758 L746,-190 L486,-1126 Z" stroke-width="0" fill="#f1fbff" fill-opacity="0.3686274509803922" />
<path d="M582,-270 L126,-690 L446,-494 L698,-190 L122,-1118 L602,-1238 Z" stroke-width="0" fill="#f9f6fd" fill-opacity="0.2196078431372549" />
<path d="M458,-118 L190,-418 L442,-346 L578,-554 L246,-570 L502,-394 Z" stroke-width="0" fill="#46fded" fill-opacity="0.44313725490196076" />
<path d="M426,-110 L730,-614 L622,-254 L706,-894 L102,-1254 L742,-1250 Z" stroke-width="0" fill="#e4eae0" fill-opacity="0.09803921568627451" />
<path d="M250,-478 L506,-334 L738,-774 L330,-502 L666,-270 L378,-698 Z" stroke-width="0" fill="#97eab1" fill-opacity="0.2823529411764706" />
<path d="M326,-294 L694,-670 L194,-1162 L714,-86 L294,-1082 L94,-658 Z" stroke-width="0" fill="#24c6eb" fill-opacity="0.023529411764705882" />
<path d="M734,-278 L434,-842 L538,-566 L422,-318 L242,-698 L270,-134 Z" stroke-width="0" fill="#eedbe9" fill-opacity="0.5294117647058824" />
<path d="M486,-742 L150,-238 L130,-858 L98,-342 L726,-1206 L550,-270 Z" stroke-width="0" fill="#a7dcd1" fill-opacity="0.2" />
<path d="M610,-378 L154,-798 L294,-1002 L430,-878 L198,-1054 L798,-186 Z" stroke-width="0" fill="#065ec0" fill-opacity="0.0196078431372549" />
<path d="M574,-278 L370,-722 L570,-550 L298,-114 L274,-702 L214,-1030 Z" stroke-width="0" fill="#e9e1f2" fill-opacity="0.2980392156862745" />
<path d="M794,-98 L174,-466 L270,-182 L654,-646 L606,-1230 L338,-446 Z" stroke-width="0" fill="#d9b0ef" fill-opacity="0.43529411764705883" />
<path d="M806,-194 L810,-682 L498,-606 L678,-474 L330,-286 L250,-1278 Z" stroke-width="0" fill="#5d53bd" fill-opacity="0.13725490196078433" />
<path d="M174,-422 L98,-262 L702,-574 L398,-650 L646,-366 L742,-142 Z" stroke-width="0" fill="#c4d6ec" fill-opacity="0.4392156862745098" />
<path d="M546,-1010 L786,-1058 L162,-570 L194,-702 L182,-326 L298,-1170 Z" stroke-width="0" fill="#e6e1f4" fill-opacity="0.1411764705882353" />
<path d="M546,-374 L246,-102 L766,-82 L146,-558 L278,-1062 L274,-526 Z" stroke-width="0" fill="#c1c1dd" fill-opacity="0.34901960784313724" />
<path d="M114,-882 L258,-898 L226,-1194 L702,-1006 L330,-126 L582,-462 Z" stroke-width="0" fill="#f4f0eb" fill-opacity="0.3137254901960784" />
<path d="M602,-1206 L174,-454 L806,-1282 L710,-1106 L106,-1002 L250,-1130 Z" stroke-width="0" fill="#f156f4" fill-opacity="0.023529411764705882" />
<path d="M722,-630 L702,-570 L782,-618 L342,-278 L250,-694 L334,-442 Z" stroke-width="0" fill="#d5fed7" fill-opacity="0.4" />
<path d="M550,-938 L750,-818 L674,-850 L510,-90 L138,-946 L158,-982 Z" stroke-width="0" fill="#f1efbc" fill-opacity="0.13333333333333333" />
<path d="M122,-158 L130,-1046 L442,-94 L166,-686 L146,-82 L134,-1298 Z" stroke-width="0" fill="#8919e1" fill-opacity="0.12156862745098039" />
<path d="M470,-662 L570,-762 L246,-598 L194,-166 L558,-1078 L338,-230 Z" stroke-width="0" fill="#fccbcc" fill-opacity="0.19607843137254902" />
<path d="M514,-486 L518,-218 L466,-558 L582,-234 L550,-414 L766,-230 Z" stroke-width="0" fill="#f2fcf0" fill-opacity="0.5333333333333333" />
<path d="M254,-1094 L450,-102 L286,-102 L730,-986 L742,-126 L794,-1218 Z" stroke-width="0" fill="#b0e0eb" fill-opacity="0.09411764705882353" />
<path d="M490,-774 L134,-190 L398,-590 L162,-1194 L394,-190 L634,-462 Z" stroke-width="0" fill="#f6ffb9" fill-opacity="0.06666666666666667" />
<path d="M466,-834 L482,-346 L258,-250 L474,-190 L370,-878 L626,-1314 Z" stroke-width="0" fill="#c0c5ff" fill-opacity="0.5882352941176471" />
<path d="M146,-946 L394,-174 L502,-422 L310,-102 L518,-238 L614,-422 Z" stroke-width="0" fill="#b2cdf2" fill-opacity="0.30980392156862746" />
<path d="M102,-542 L658,-890 L806,-554 L506,-1078 L506,-318 L486,-918 Z" stroke-width="0" fill="#fbd8eb" fill-opacity="0.3607843137254902" />
<path d="M378,-114 L726,-746 L474,-186 L246,-494 L274,-894 L766,-154 Z" stroke-width="0" fill="#ede6ef" fill-opacity="0.5254901960784314" />
<path d="M422,-726 L530,-710 L294,-878 L374,-1246 L258,-802 L650,-478 Z" stroke-width="0" fill="#fbc7c0" fill-opacity="0.0" />
<path d="M274,-114 L338,-570 L178,-406 L682,-758 L202,-594 L134,-322 Z" stroke-width="0" fill="#dff9fc" fill-opacity="0.050980392156862744" />
<path d="M514,-1218 L806,-462 L410,-1026 L654,-910 L638,-598 L810,-398 Z" stroke-width="0" fill="#dbb7be" fill-opacity="0.09019607843137255" />
<path d="M82,-402 L142,-206 L158,-950 L310,-638 L246,-858 L758,-266 Z" stroke-width="0" fill="#d8c9f5" fill-opacity="0.33725490196078434" />
<path d="M238,-362 L242,-182 L210,-554 L266,-1234 L578,-298 L370,-430 Z" stroke-width="0" fill="#d2c2e7" fill-opacity="0.1450980392156863" />
<path d="M410,-434 L650,-178 L206,-798 L186,-1186 L210,-1166 L598,-310 Z" stroke-width="0" fill="#eeaec0" fill-opacity="0.1568627450980392" />
<path d="M746,-910 L122,-658 L774,-410 L498,-802 L422,-346 L90,-946 Z" stroke-width="0" fill="#ebfcfd" fill-opacity="0.6941176470588235" />
<path d="M174,-562 L254,-154 L434,-1286 L90,-1246 L386,-1038 L322,-434 Z" stroke-width="0" fill="#f0f7fe" fill-opacity="0.8" />
<path d="M278,-934 L450,-898 L462,-362 L482,-962 L730,-322 L146,-422 Z" stroke-width="0" fill="#fdca8d" fill-opacity="0.5450980392156862" />
<path d="M662,-350 L658,-790 L110,-458 L182,-286 L306,-874 L562,-410 Z" stroke-width="0" fill="#e0cbfb" fill-opacity="0.5411764705882353" />
<path d="M670,-574 L438,-862 L370,-1022 L630,-1286 L510,-1226 L582,-170 Z" stroke-width="0" fill="#e6f4fc" fill-opacity="0.6078431372549019" />
<path d="M670,-878 L582,-1298 L602,-994 L806,-506 L170,-966 L334,-726 Z" stroke-width="0" fill="#d8fcfd" fill-opacity="0.5254901960784314" />
<path d="M90,-214 L302,-150 L510,-454 L418,-534 L318,-126 L118,-1126 Z" stroke-width="0" fill="#ab98d2" fill-opacity="0.0784313725490196" />
<path d="M426,-162 L570,-266 L482,-1078 L202,-710 L534,-878 L318,-482 Z" stroke-width="0" fill="#839cb1" fill-opacity="0.0196078431372549" />
<path d="M582,-622 L570,-578 L742,-838 L550,-1234 L122,-1246 L162,-1190 Z" stroke-width="0" fill="#f7f3da" fill-opacity="0.023529411764705882" />
<path d="M610,-298 L394,-270 L498,-950 L338,-174 L306,-906 L346,-830 Z" stroke-width="0" fill="#e43a15" fill-opacity="0.01568627450980392" />
<path d="M718,-930 L670,-794 L238,-254 L122,-914 L338,-618 L754,-246 Z" stroke-width="0" fill="#f5d2be" fill-opacity="0.10196078431372549" />
<path d="M242,-1018 L338,-142 L158,-1150 L370,-142 L682,-414 L802,-1018 Z" stroke-width="0" fill="#e5b6e0" fill-opacity="0.1411764705882353" />
<path d="M294,-138 L550,-106 L182,-1202 L294,-778 L798,-922 L234,-834 Z" stroke-width="0" fill="#dddde0" fill-opacity="0.10588235294117647" />
<path d="M498,-1050 L518,-610 L478,-994 L146,-142 L626,-1298 L526,-478 Z" stroke-width="0" fill="#d1b0d0" fill-opacity="0.2784313725490196" />
<path d="M782,-470 L482,-1262 L422,-974 L542,-434 L738,-1122 L734,-262 Z" stroke-width="0" fill="#f3f3be" fill-opacity="0.09803921568627451" />
<path d="M462,-910 L218,-782 L310,-694 L230,-738 L254,-150 L274,-1102 Z" stroke-width="0" fill="#e2e0fe" fill-opacity="0.7647058823529411" />
<path d="M606,-802 L318,-390 L622,-574 L426,-170 L246,-542 L126,-654 Z" stroke-width="0" fill="#f028e9" fill-opacity="0.08627450980392157" />
<path d="M774,-382 L710,-998 L454,-1178 L110,-158 L598,-1258 L558,-414 Z" stroke-width="0" fill="#efdee7" fill-opacity="0.8588235294117647" />
<path d="M118,-186 L438,-858 L458,-110 L738,-1282 L118,-162 L150,-346 Z" stroke-width="0" fill="#f2ddf3" fill-opacity="0.30196078431372547" />
<path d="M398,-1110 L122,-962 L314,-98 L534,-390 L130,-1114 L246,-278 Z" stroke-width="0" fill="#9d403a" fill-opacity="0.00392156862745098" />
<path d="M118,-422 L334,-422 L302,-402 L178,-470 L726,-382 L222,-514 Z" stroke-width="0" fill="#6412e9" fill-opacity="0.027450980392156862" />
<path d="M722,-206 L574,-1122 L98,-1026 L618,-270 L398,-642 L698,-166 Z" stroke-width="0" fill="#ecf0fe" fill-opacity="0.4235294117647059" />
<path d="M782,-242 L466,-862 L322,-1234 L302,-714 L322,-1294 L110,-194 Z" stroke-width="0" fill="#d9f7fd" fill-opacity="0.09019607843137255" />
<path d="M458,-846 L694,-238 L174,-386 L694,-762 L442,-154 L338,-322 Z" stroke-width="0" fill="#f7e1ee" fill-opacity="0.11372549019607843" />
<path d="M474,-1278 L626,-1002 L674,-894 L606,-974 L410,-846 L518,-938 Z" stroke-width="0" fill="#a3e6f2" fill-opacity="0.3254901960784314" />
<path d="M502,-754 L82,-442 L110,-1218 L422,-970 L570,-518 L190,-638 Z" stroke-width="0" fill="#ffe5f4" fill-opacity="0.6862745098039216" />
<path d="M458,-142 L614,-642 L118,-1250 L146,-182 L502,-1046 L198,-126 Z" stroke-width="0" fill="#fafcf5" fill-opacity="0.47058823529411764" />
<path d="M298,-534 L642,-838 L414,-1106 L274,-534 L126,-214 L242,-430 Z" stroke-width="0" fill="#e2fee8" fill-opacity="0.3411764705882353" />
<path d="M474,-502 L122,-530 L238,-702 L290,-522 L346,-370 L210,-570 Z" stroke-width="0" fill="#d2bcf7" fill-opacity="0.15294117647058825" />
<path d="M678,-346 L114,-1306 L194,-942 L642,-1298 L222,-302 L222,-890 Z" stroke-width="0" fill="#b9fbf5" fill-opacity="0.25882352941176473" />
<text x="448.0" y="0" font-size="70.0" fill="black" text-anchor="middle" transform="translate(0,17.5)">LANGUAGE</text>
</svg>