<?xml version="1.0" encoding="UTF-8"?>
<svg xmlns="http://www.w3.org/2000/svg" xmlns:xlink="http://www.w3.org/1999/xlink"
     width="275" height="375" viewBox="0 -350 275 375">
<defs>
</defs>
<rect x="15" y="-335" width="245" height="320" stroke="black" stroke-width="4" fill="white" />
<path d="M173,-115 L116,-197 L69,-203 L96,-52 L55,-181 L30,-88 Z" stroke-width="0" fill="#012808" fill-opacity="0.6470588235294118" />
<path d="M83,-143 L99,-309 L148,-226 L51,-71 L188,-146 L26,-246 Z" stroke-width="0" fill="#f5fef1" fill-opacity="0.09803921568627451" />
<path d="M198,-46 L56,-43 L80,-68 L207,-43 L213,-111 L217,-114 Z" stroke-width="0" fill="#833cbc" fill-opacity="0.2823529411764706" />
<path d="M120,-238 L98,-36 L242,-134 L97,-172 L126,-100 L116,-69 Z" stroke-width="0" fill="#87ba73" fill-opacity="0.4666666666666667" />
<path d="M50,-148 L62,-149 L236,-60 L130,-158 L106,-62 L232,-126 Z" stroke-width="0" fill="#0e4d0e" fill-opacity="0.33725490196078434" />
<path d="M143,-213 L70,-98 L236,-109 L84,-92 L28,-264 L189,-190 Z" stroke-width="0" fill="#cef5fe" fill-opacity="0.21176470588235294" />
<path d="M225,-118 L122,-45 L175,-227 L142,-116 L138,-79 L29,-53 Z" stroke-width="0" fill="#6e4604" fill-opacity="0.24313725490196078" />
<path d="M66,-155 L176,-51 L129,-101 L94,-296 L58,-319 L54,-74 Z" stroke-width="0" fill="#3666f4" fill-opacity="0.00784313725490196" />
<path d="M140,-122 L241,-265 L156,-254 L87,-254 L229,-176 L118,-232 Z" stroke-width="0" fill="#858423" fill-opacity="0.0784313725490196" />
<path d="M133,-178 L39,-271 L201,-51 L161,-316 L97,-169 L174,-240 Z" stroke-width="0" fill="#1d9df3" fill-opacity="0.09411764705882353" />
<path d="M187,-33 L79,-42 L148,-193 L192,-149 L239,-117 L30,-293 Z" stroke-width="0" fill="#147fd5" fill-opacity="0.0196078431372549" />
<path d="M95,-139 L198,-134 L47,-115 L110,-71 L42,-163 L110,-229 Z" stroke-width="0" fill="#299d01" fill-opacity="0.788235294117647" />
<path d="M70,-263 L209,-129 L201,-238 L208,-302 L41,-250 L210,-55 Z" stroke-width="0" fill="#f8ffee" fill-opacity="0.0784313725490196" />
<path d="M55,-120 L234,-75 L120,-111 L27,-150 L52,-198 L150,-169 Z" stroke-width="0" fill="#69834b" fill-opacity="0.3764705882352941" />
<path d="M113,-28 L69,-281 L156,-270 L158,-281 L183,-164 L179,-37 Z" stroke-width="0" fill="#f8c8e5" fill-opacity="0.08235294117647059" />
<path d="M248,-299 L235,-312 L55,-69 L148,-158 L246,-282 L191,-248 Z" stroke-width="0" fill="#136fef" fill-opacity="0.19607843137254902" />
<path d="M179,-281 L107,-39 L243,-303 L139,-204 L153,-28 L91,-139 Z" stroke-width="0" fill="#96c2d8" fill-opacity="0.10588235294117647" />
<path d="M175,-121 L69,-291 L52,-241 L68,-30 L220,-119 L64,-82 Z" stroke-width="0" fill="#e9eac8" fill-opacity="0.027450980392156862" />
<path d="M219,-239 L108,-165 L221,-188 L83,-279 L113,-227 L192,-36 Z" stroke-width="0" fill="#f8e3e2" fill-opacity="0.043137254901960784" />
<path d="M157,-54 L45,-160 L185,-130 L139,-207 L146,-72 L73,-224 Z" stroke-width="0" fill="#18031b" fill-opacity="0.9529411764705882" />
<path d="M105,-46 L189,-84 L60,-228 L27,-205 L78,-234 L246,-285 Z" stroke-width="0" fill="#f0f8f5" fill-opacity="0.5803921568627451" />
<path d="M54,-181 L238,-169 L60,-104 L149,-137 L42,-52 L207,-240 Z" stroke-width="0" fill="#efe5d3" fill-opacity="0.043137254901960784" />
<path d="M116,-166 L240,-291 L134,-305 L197,-250 L114,-283 L82,-78 Z" stroke-width="0" fill="#7ceff6" fill-opacity="0.3568627450980392" />
<path d="M118,-105 L116,-55 L135,-259 L181,-46 L42,-276 L209,-210 Z" stroke-width="0" fill="#b9ebf4" fill-opacity="0.11764705882352941" />
<path d="M183,-46 L42,-248 L205,-298 L61,-272 L228,-317 L99,-61 Z" stroke-width="0" fill="#0504f8" fill-opacity="0.09803921568627451" />
<path d="M161,-200 L249,-301 L234,-222 L144,-202 L112,-69 L123,-119 Z" stroke-width="0" fill="#28ade1" fill-opacity="0.23921568627450981" />
<path d="M59,-128 L191,-141 L224,-110 L50,-79 L118,-65 L217,-239 Z" stroke-width="0" fill="#06bd03" fill-opacity="0.9333333333333333" />
<path d="M58,-153 L152,-172 L49,-235 L89,-183 L156,-223 L175,-81 Z" stroke-width="0" fill="#ecf7f8" fill-opacity="0.3137254901960784" />
<path d="M181,-79 L103,-49 L52,-217 L36,-86 L131,-127 L165,-143 Z" stroke-width="0" fill="#210f02" fill-opacity="0.047058823529411764" />
<path d="M75,-149 L70,-183 L241,-126 L88,-138 L97,-168 L81,-285 Z" stroke-width="0" fill="#dcd7fc" fill-opacity="0.1843137254901961" />
<path d="M77,-316 L89,-105 L86,-138 L63,-242 L196,-286 L127,-95 Z" stroke-width="0" fill="#7ae9f9" fill-opacity="0.11372549019607843" />
<path d="M153,-253 L122,-196 L178,-309 L234,-52 L118,-46 L150,-59 Z" stroke-width="0" fill="#0a430d" fill-opacity="0.2823529411764706" />
<path d="M89,-297 L72,-163 L55,-221 L202,-71 L145,-84 L142,-309 Z" stroke-width="0" fill="#effff5" fill-opacity="0.30196078431372547" />
<path d="M59,-61 L170,-43 L85,-257 L181,-60 L215,-111 L40,-58 Z" stroke-width="0" fill="#5dbd03" fill-opacity="0.6588235294117647" />
<path d="M246,-117 L134,-110 L226,-140 L113,-49 L58,-161 L199,-166 Z" stroke-width="0" fill="#3eaf7b" fill-opacity="0.6274509803921569" />
<path d="M27,-48 L89,-54 L96,-201 L215,-225 L158,-256 L141,-222 Z" stroke-width="0" fill="#808adc" fill-opacity="0.4235294117647059" />
<path d="M185,-25 L156,-221 L245,-79 L38,-249 L217,-137 L63,-50 Z" stroke-width="0" fill="#7d8947" fill-opacity="0.3803921568627451" />
<path d="M116,-64 L232,-97 L78,-34 L246,-25 L74,-232 L73,-308 Z" stroke-width="0" fill="#1e6653" fill-opacity="0.5019607843137255" />
<path d="M88,-292 L196,-63 L30,-219 L233,-261 L230,-107 L104,-269 Z" stroke-width="0" fill="#c2d4ef" fill-opacity="0.14901960784313725" />
<path d="M49,-118 L84,-96 L142,-277 L236,-301 L166,-109 L143,-30 Z" stroke-width="0" fill="#c5e1ff" fill-opacity="0.8392156862745098" />
<path d="M91,-156 L129,-102 L176,-47 L65,-32 L122,-241 L88,-194 Z" stroke-width="0" fill="#010307" fill-opacity="0.15294117647058825" />
<path d="M133,-233 L109,-155 L228,-164 L83,-242 L137,-159 L183,-37 Z" stroke-width="0" fill="#f1f217" fill-opacity="0.058823529411764705" />
<path d="M89,-168 L174,-69 L131,-217 L132,-319 L213,-305 L32,-281 Z" stroke-width="0" fill="#1b82fe" fill-opacity="0.0392156862745098" />
<path d="M209,-262 L35,-193 L132,-117 L131,-130 L100,-54 L115,-259 Z" stroke-width="0" fill="#fef6f5" fill-opacity="0.9450980392156862" />
<path d="M146,-97 L213,-105 L120,-95 L220,-241 L120,-51 L102,-204 Z" stroke-width="0" fill="#619cf7" fill-opacity="0.12941176470588237" />
<path d="M127,-240 L190,-225 L152,-153 L85,-275 L234,-263 L155,-68 Z" stroke-width="0" fill="#f6effc" fill-opacity="0.7215686274509804" />
<path d="M239,-142 L222,-304 L172,-160 L25,-137 L177,-315 L137,-296 Z" stroke-width="0" fill="#82d7c5" fill-opacity="0.08627450980392157" />
<path d="M70,-48 L219,-322 L147,-101 L66,-35 L127,-163 L206,-32 Z" stroke-width="0" fill="#a9f5df" fill-opacity="0.18823529411764706" />
<path d="M198,-67 L45,-36 L209,-170 L220,-146 L130,-125 L140,-319 Z" stroke-width="0" fill="#578960" fill-opacity="0.40784313725490196" />
<path d="M249,-204 L163,-107 L78,-53 L192,-126 L113,-295 L219,-94 Z" stroke-width="0" fill="#826c11" fill-opacity="0.25882352941176473" />
<path d="M173,-41 L103,-250 L178,-316 L173,-271 L192,-94 L38,-148 Z" stroke-width="0" fill="#2eaff3" fill-opacity="0.058823529411764705" />
<path d="M159,-316 L102,-34 L28,-162 L183,-168 L151,-69 L173,-148 Z" stroke-width="0" fill="#ac92f6" fill-opacity="0.1450980392156863" />
<path d="M193,-53 L59,-52 L45,-231 L177,-203 L59,-81 L234,-95 Z" stroke-width="0" fill="#f2e5f3" fill-opacity="0.10980392156862745" />
<path d="M100,-47 L37,-32 L150,-29 L191,-288 L60,-121 L27,-278 Z" stroke-width="0" fill="#22354d" fill-opacity="0.10980392156862745" />
<path d="M166,-186 L169,-219 L99,-225 L83,-192 L158,-249 L127,-66 Z" stroke-width="0" fill="#ca141d" fill-opacity="0.9607843137254902" />
<path d="M56,-153 L37,-145 L27,-218 L82,-177 L29,-39 L194,-109 Z" stroke-width="0" fill="#315f51" fill-opacity="0.5686274509803921" />
<path d="M89,-157 L246,-272 L117,-48 L223,-205 L61,-87 L106,-137 Z" stroke-width="0" fill="#9cdbf9" fill-opacity="0.11372549019607843" />
<path d="M56,-109 L137,-125 L175,-288 L95,-93 L167,-94 L84,-187 Z" stroke-width="0" fill="#2aafe4" fill-opacity="0.08235294117647059" />
<path d="M138,-107 L121,-158 L116,-53 L75,-58 L120,-148 L131,-56 Z" stroke-width="0" fill="#393a77" fill-opacity="0.37254901960784315" />
<path d="M204,-122 L69,-102 L118,-197 L62,-101 L240,-50 L84,-47 Z" stroke-width="0" fill="#adc3a7" fill-opacity="0.37254901960784315" />
<path d="M91,-128 L143,-88 L63,-289 L183,-98 L105,-46 L156,-260 Z" stroke-width="0" fill="#f8ebea" fill-opacity="0.21568627450980393" />
<path d="M221,-277 L157,-222 L128,-195 L178,-47 L81,-173 L194,-177 Z" stroke-width="0" fill="#e4f7ec" fill-opacity="0.3411764705882353" />
<path d="M147,-229 L179,-181 L49,-279 L156,-137 L153,-117 L68,-312 Z" stroke-width="0" fill="#eee8e7" fill-opacity="0.07450980392156863" />
<path d="M186,-28 L78,-206 L144,-187 L59,-196 L150,-209 L141,-227 Z" stroke-width="0" fill="#baf523" fill-opacity="0.17647058823529413" />
<path d="M112,-169 L33,-97 L126,-218 L144,-162 L36,-112 L32,-81 Z" stroke-width="0" fill="#829978" fill-opacity="0.5254901960784314" />
<path d="M159,-184 L249,-103 L122,-163 L104,-152 L139,-222 L164,-312 Z" stroke-width="0" fill="#62daf3" fill-opacity="0.3176470588235294" />
<path d="M243,-224 L85,-238 L92,-35 L51,-157 L98,-204 L127,-190 Z" stroke-width="0" fill="#116537" fill-opacity="0.9647058823529412" />
<path d="M151,-175 L42,-203 L79,-72 L167,-191 L170,-49 L77,-167 Z" stroke-width="0" fill="#1b8400" fill-opacity="0.7843137254901961" />
<path d="M247,-204 L116,-91 L68,-96 L131,-316 L176,-221 L60,-142 Z" stroke-width="0" fill="#b2cde4" fill-opacity="0.33725490196078434" />
<path d="M166,-289 L38,-246 L80,-136 L121,-226 L134,-253 L52,-126 Z" stroke-width="0" fill="#fffee8" fill-opacity="0.043137254901960784" />
<path d="M45,-169 L219,-175 L41,-188 L116,-52 L41,-295 L146,-130 Z" stroke-width="0" fill="#03dbd6" fill-opacity="0.027450980392156862" />
<path d="M174,-316 L59,-262 L237,-91 L207,-40 L33,-147 L97,-151 Z" stroke-width="0" fill="#c3c7df" fill-opacity="0.0196078431372549" />
<path d="M51,-101 L153,-174 L227,-57 L136,-61 L62,-100 L208,-268 Z" stroke-width="0" fill="#155736" fill-opacity="0.19607843137254902" />
<path d="M31,-224 L179,-211 L203,-317 L51,-84 L92,-50 L55,-254 Z" stroke-width="0" fill="#b2ecc1" fill-opacity="0.15294117647058825" />
<path d="M204,-315 L107,-149 L172,-96 L246,-301 L41,-141 L152,-210 Z" stroke-width="0" fill="#97fef5" fill-opacity="0.027450980392156862" />
<path d="M86,-200 L33,-133 L130,-176 L103,-51 L49,-83 L27,-215 Z" stroke-width="0" fill="#2ebb14" fill-opacity="0.34901960784313724" />
<path d="M45,-310 L231,-52 L125,-213 L142,-249 L194,-316 L43,-285 Z" stroke-width="0" fill="#85c0bc" fill-opacity="0.054901960784313725" />
<path d="M120,-86 L36,-182 L55,-132 L219,-266 L202,-167 L164,-178 Z" stroke-width="0" fill="#95fc27" fill-opacity="0.1411764705882353" />
<path d="M163,-120 L74,-168 L141,-237 L191,-28 L188,-234 L128,-297 Z" stroke-width="0" fill="#57095a" fill-opacity="0.0784313725490196" />
<path d="M38,-242 L221,-218 L177,-115 L91,-245 L95,-72 L160,-190 Z" stroke-width="0" fill="#eaf0ce" fill-opacity="0.43137254901960786" />
<path d="M199,-155 L133,-193 L95,-28 L91,-109 L99,-104 L85,-67 Z" stroke-width="0" fill="#aaa79d" fill-opacity="0.43529411764705883" />
<path d="M149,-309 L145,-179 L65,-82 L134,-267 L169,-64 L163,-121 Z" stroke-width="0" fill="#f3e5f6" fill-opacity="0.1803921568627451" />
<path d="M45,-101 L97,-33 L169,-323 L165,-89 L206,-221 L62,-220 Z" stroke-width="0" fill="#bcf7f9" fill-opacity="0.054901960784313725" />
<path d="M195,-49 L28,-261 L195,-86 L181,-130 L151,-192 L108,-214 Z" stroke-width="0" fill="#d1fadf" fill-opacity="0.15294117647058825" />
<path d="M96,-76 L32,-316 L63,-102 L220,-280 L156,-112 L137,-217 Z" stroke-width="0" fill="#3a0a8f" fill-opacity="0.023529411764705882" />
<path d="M118,-75 L149,-41 L202,-32 L172,-74 L66,-93 L119,-93 Z" stroke-width="0" fill="#6b8cb9" fill-opacity="0.4980392156862745" />
<path d="M105,-159 L203,-124 L213,-251 L81,-37 L112,-222 L62,-323 Z" stroke-width="0" fill="#f1fae6" fill-opacity="0.1607843137254902" />
<path d="M124,-203 L198,-68 L111,-145 L65,-169 L94,-177 L232,-110 Z" stroke-width="0" fill="#29db5d" fill-opacity="0.09411764705882353" />
<path d="M245,-249 L60,-154 L111,-92 L220,-182 L202,-230 L102,-44 Z" stroke-width="0" fill="#cbfdc2" fill-opacity="0.28627450980392155" />
<path d="M97,-256 L138,-242 L167,-156 L214,-255 L204,-239 L171,-94 Z" stroke-width="0" fill="#f5c994" fill-opacity="0.6666666666666666" />
<path d="M247,-179 L26,-139 L78,-117 L111,-308 L54,-241 L184,-47 Z" stroke-width="0" fill="#95ffed" fill-opacity="0.03529411764705882" />
<path d="M121,-89 L51,-181 L38,-44 L72,-241 L34,-124 L184,-258 Z" stroke-width="0" fill="#eaf1a5" fill-opacity="0.23529411764705882" />
<path d="M41,-304 L112,-318 L143,-61 L212,-284 L100,-151 L224,-194 Z" stroke-width="0" fill="#b8e9d0" fill-opacity="0.17647058823529413" />
<path d="M193,-145 L156,-218 L152,-41 L223,-163 L41,-78 L190,-84 Z" stroke-width="0" fill="#428979" fill-opacity="0.7725490196078432" />
<path d="M51,-119 L156,-264 L195,-107 L56,-199 L113,-208 L185,-33 Z" stroke-width="0" fill="#bac177" fill-opacity="0.3333333333333333" />
<path d="M160,-109 L133,-31 L144,-212 L119,-313 L80,-206 L166,-243 Z" stroke-width="0" fill="#b9c7d9" fill-opacity="0.32941176470588235" />
<path d="M153,-38 L112,-317 L160,-146 L248,-159 L64,-93 L135,-214 Z" stroke-width="0" fill="#b6d1ce" fill-opacity="0.29411764705882354" />
<path d="M122,-107 L140,-149 L147,-249 L233,-78 L153,-255 L220,-86 Z" stroke-width="0" fill="#96e197" fill-opacity="0.37254901960784315" />
<path d="M173,-307 L248,-41 L80,-219 L53,-202 L143,-120 L80,-299 Z" stroke-width="0" fill="#d8eee7" fill-opacity="0.25098039215686274" />
<path d="M39,-34 L159,-97 L123,-296 L67,-322 L225,-62 L175,-275 Z" stroke-width="0" fill="#dce1f6" fill-opacity="0.19607843137254902" />
<text x="137.5" y="12.5" font-size="20.0" fill="black" text-anchor="middle" transform="translate(0,5.0)">LANGUAGE</text>
</svg>