<?xml version="1.0" encoding="UTF-8"?>
<svg xmlns="http://www.w3.org/2000/svg" xmlns:xlink="http://www.w3.org/1999/xlink"
     width="896" height="1496" viewBox="0 -1400 896 1496" style="font-size:70;font-family:Poor Richard, Times New Roman;stroke:black;stroke-width:1;fill:none">
<defs>
</defs>
<path d="M422,-1250 L726,-342 L514,-862 L206,-562 L178,-586 L214,-282 Z" stroke-width="0" fill="#675534" fill-opacity="0.40784313725490196" />
<path d="M246,-590 L386,-730 L662,-298 L754,-442 L90,-282 L686,-338 Z" stroke-width="0" fill="#000000" fill-opacity="0.9254901960784314" />
<path d="M90,-1286 L530,-950 L158,-930 L286,-878 L206,-178 L310,-1250 Z" stroke-width="0" fill="#03baed" fill-opacity="0.796078431372549" />
<path d="M390,-134 L246,-1146 L122,-802 L114,-378 L94,-330 L142,-922 Z" stroke-width="0" fill="#00d5ed" fill-opacity="0.9803921568627451" />
<path d="M502,-602 L286,-1230 L402,-154 L462,-1070 L226,-1122 L738,-862 Z" stroke-width="0" fill="#f7ecfa" fill-opacity="0.9450980392156862" />
<path d="M218,-646 L590,-86 L434,-230 L218,-642 L294,-430 L202,-362 Z" stroke-width="0" fill="#030000" fill-opacity="0.8784313725490196" />
<path d="M214,-146 L434,-434 L346,-354 L610,-1282 L418,-1146 L506,-950 Z" stroke-width="0" fill="#006f64" fill-opacity="0.8274509803921568" />
<path d="M290,-686 L478,-562 L234,-1058 L334,-494 L430,-286 L590,-922 Z" stroke-width="0" fill="#0a92d6" fill-opacity="0.058823529411764705" />
<path d="M110,-774 L758,-1126 L190,-894 L262,-442 L574,-650 L498,-114 Z" stroke-width="0" fill="#0000f1" fill-opacity="0.9490196078431372" />
<path d="M254,-138 L150,-726 L126,-1022 L658,-370 L222,-486 L402,-1314 Z" stroke-width="0" fill="#295a01" fill-opacity="0.2235294117647059" />
<path d="M246,-1246 L482,-1162 L274,-1078 L234,-390 L314,-974 L526,-978 Z" stroke-width="0" fill="#02fcf0" fill-opacity="0.11372549019607843" />
<path d="M474,-534 L170,-554 L410,-626 L538,-366 L222,-194 L682,-922 Z" stroke-width="0" fill="#be0d08" fill-opacity="0.7333333333333333" />
<path d="M538,-234 L642,-522 L622,-342 L94,-318 L150,-778 L742,-170 Z" stroke-width="0" fill="#000000" fill-opacity="0.9647058823529412" />
<path d="M714,-262 L362,-806 L594,-210 L762,-626 L138,-786 L194,-1258 Z" stroke-width="0" fill="#d5330c" fill-opacity="0.30980392156862746" />
<path d="M270,-830 L134,-554 L582,-526 L98,-402 L214,-670 L518,-730 Z" stroke-width="0" fill="#000000" fill-opacity="0.6352941176470588" />
<path d="M406,-498 L122,-222 L166,-214 L246,-362 L330,-630 L758,-950 Z" stroke-width="0" fill="#000000" fill-opacity="0.9490196078431372" />
<path d="M198,-670 L182,-1202 L190,-466 L106,-782 L630,-582 L286,-510 Z" stroke-width="0" fill="#fbfef6" fill-opacity="0.996078431372549" />
<path d="M434,-958 L410,-1194 L246,-858 L670,-1278 L326,-342 L142,-946 Z" stroke-width="0" fill="#004081" fill-opacity="0.6431372549019608" />
<path d="M346,-1074 L238,-726 L286,-726 L498,-186 L642,-558 L418,-874 Z" stroke-width="0" fill="#335cfb" fill-opacity="0.1607843137254902" />
<path d="M602,-82 L394,-146 L422,-790 L390,-330 L754,-478 L486,-510 Z" stroke-width="0" fill="#000000" fill-opacity="0.9490196078431372" />
<path d="M318,-534 L574,-926 L490,-1146 L410,-926 L426,-1154 L174,-674 Z" stroke-width="0" fill="#65c4ea" fill-opacity="0.3843137254901961" />
<path d="M738,-794 L406,-538 L318,-322 L174,-682 L250,-518 L342,-922 Z" stroke-width="0" fill="#b46412" fill-opacity="0.8117647058823529" />
<path d="M510,-914 L82,-898 L286,-118 L414,-666 L226,-1102 L298,-702 Z" stroke-width="0" fill="#000000" fill-opacity="0.5411764705882353" />
<path d="M462,-110 L434,-938 L766,-126 L570,-502 L254,-606 L290,-762 Z" stroke-width="0" fill="#000000" fill-opacity="0.9882352941176471" />
<path d="M806,-750 L142,-1246 L302,-550 L578,-118 L298,-1086 L790,-258 Z" stroke-width="0" fill="#000000" fill-opacity="0.9921568627450981" />
<path d="M290,-518 L722,-1090 L646,-1102 L366,-94 L454,-594 L254,-1278 Z" stroke-width="0" fill="#18d5f7" fill-opacity="0.8823529411764706" />
<path d="M698,-182 L470,-1210 L574,-526 L306,-1094 L390,-550 L186,-1166 Z" stroke-width="0" fill="#e1de79" fill-opacity="0.796078431372549" />
<path d="M786,-1162 L654,-1014 L222,-878 L126,-846 L430,-762 L510,-426 Z" stroke-width="0" fill="#303c65" fill-opacity="0.5019607843137255" />
<path d="M502,-1014 L490,-710 L338,-426 L398,-458 L234,-310 L222,-718 Z" stroke-width="0" fill="#d967bc" fill-opacity="0.07058823529411765" />
<path d="M650,-590 L506,-1234 L646,-1150 L490,-162 L450,-230 L478,-1222 Z" stroke-width="0" fill="#1721df" fill-opacity="0.7372549019607844" />
<path d="M198,-1242 L506,-270 L490,-178 L702,-522 L686,-842 L466,-474 Z" stroke-width="0" fill="#0f0dcb" fill-opacity="0.23921568627450981" />
<path d="M446,-226 L538,-406 L450,-566 L522,-854 L386,-130 L798,-590 Z" stroke-width="0" fill="#000000" fill-opacity="0.9176470588235294" />
<path d="M458,-622 L442,-174 L314,-870 L362,-98 L546,-894 L582,-1174 Z" stroke-width="0" fill="#000000" fill-opacity="0.996078431372549" />
<path d="M610,-394 L310,-434 L446,-1010 L590,-210 L582,-426 L238,-466 Z" stroke-width="0" fill="#0e1402" fill-opacity="0.9686274509803922" />
<path d="M426,-774 L622,-386 L242,-1098 L742,-546 L234,-958 L786,-774 Z" stroke-width="0" fill="#680800" fill-opacity="0.050980392156862744" />
<path d="M234,-1154 L614,-298 L738,-126 L602,-382 L314,-926 L102,-314 Z" stroke-width="0" fill="#000000" fill-opacity="0.8313725490196079" />
<path d="M246,-1022 L606,-698 L246,-270 L606,-1242 L310,-202 L134,-786 Z" stroke-width="0" fill="#00418b" fill-opacity="0.8235294117647058" />
<path d="M714,-850 L610,-434 L374,-838 L366,-974 L494,-474 L718,-118 Z" stroke-width="0" fill="#000000" fill-opacity="0.9490196078431372" />
<path d="M426,-782 L190,-770 L586,-358 L450,-830 L214,-390 L802,-954 Z" stroke-width="0" fill="#985100" fill-opacity="0.4588235294117647" />
<path d="M366,-366 L290,-354 L402,-358 L90,-410 L346,-854 L302,-114 Z" stroke-width="0" fill="#000000" fill-opacity="0.8156862745098039" />
<path d="M366,-614 L282,-898 L298,-846 L282,-862 L690,-642 L566,-474 Z" stroke-width="0" fill="#1ae305" fill-opacity="0.2549019607843137" />
<path d="M126,-962 L314,-1186 L218,-438 L258,-546 L454,-430 L418,-958 Z" stroke-width="0" fill="#29f0cc" fill-opacity="0.43529411764705883" />
<path d="M226,-338 L466,-646 L134,-1190 L378,-334 L566,-950 L810,-434 Z" stroke-width="0" fill="#507700" fill-opacity="0.7764705882352941" />
<path d="M806,-754 L738,-1042 L654,-538 L694,-966 L86,-278 L118,-926 Z" stroke-width="0" fill="#000000" fill-opacity="0.6509803921568628" />
<path d="M590,-1310 L554,-602 L130,-686 L726,-114 L178,-890 L346,-1134 Z" stroke-width="0" fill="#1f65a9" fill-opacity="0.9568627450980393" />
<path d="M330,-1270 L418,-90 L286,-1206 L354,-342 L206,-422 L742,-910 Z" stroke-width="0" fill="#f6d3eb" fill-opacity="0.5607843137254902" />
<path d="M390,-1006 L298,-618 L350,-406 L366,-838 L130,-454 L314,-126 Z" stroke-width="0" fill="#000000" fill-opacity="0.9450980392156862" />
<path d="M786,-290 L414,-1094 L294,-326 L226,-710 L226,-90 L678,-282 Z" stroke-width="0" fill="#000000" fill-opacity="0.9764705882352941" />
<path d="M678,-1226 L514,-982 L558,-418 L122,-1178 L142,-1158 L142,-214 Z" stroke-width="0" fill="#00546c" fill-opacity="0.7764705882352941" />
<path d="M430,-618 L570,-1290 L94,-846 L314,-962 L494,-1258 L630,-842 Z" stroke-width="0" fill="#1b668f" fill-opacity="0.6196078431372549" />
<path d="M778,-690 L250,-990 L310,-722 L402,-778 L386,-214 L238,-402 Z" stroke-width="0" fill="#3cae18" fill-opacity="0.8941176470588236" />
<path d="M706,-518 L158,-1154 L734,-270 L478,-94 L474,-1222 L94,-706 Z" stroke-width="0" fill="#000600" fill-opacity="0.9137254901960784" />
<path d="M630,-1278 L354,-1306 L678,-638 L690,-322 L286,-446 L86,-1294 Z" stroke-width="0" fill="#59698b" fill-opacity="0.796078431372549" />
<path d="M214,-1314 L354,-738 L718,-526 L182,-1278 L274,-542 L318,-986 Z" stroke-width="0" fill="#3ba0b6" fill-opacity="0.5411764705882353" />
<path d="M586,-94 L86,-1178 L726,-106 L534,-542 L706,-1186 L118,-1034 Z" stroke-width="0" fill="#0868df" fill-opacity="0.9019607843137255" />
<path d="M610,-302 L670,-614 L758,-434 L330,-238 L230,-182 L774,-218 Z" stroke-width="0" fill="#000000" fill-opacity="0.9058823529411765" />
<path d="M794,-338 L278,-198 L126,-678 L354,-354 L494,-666 L498,-1078 Z" stroke-width="0" fill="#08c29f" fill-opacity="0.14901960784313725" />
<path d="M166,-174 L638,-870 L570,-378 L94,-94 L406,-650 L250,-1150 Z" stroke-width="0" fill="#000000" fill-opacity="0.9294117647058824" />
<path d="M106,-122 L454,-406 L686,-414 L386,-1010 L790,-734 L438,-646 Z" stroke-width="0" fill="#000000" fill-opacity="0.9411764705882353" />
<path d="M258,-730 L222,-870 L650,-830 L334,-306 L546,-282 L794,-306 Z" stroke-width="0" fill="#000000" fill-opacity="0.9490196078431372" />
<path d="M630,-98 L214,-742 L298,-1226 L138,-1234 L618,-294 L322,-166 Z" stroke-width="0" fill="#001523" fill-opacity="0.054901960784313725" />
<path d="M102,-190 L390,-1226 L218,-734 L374,-122 L642,-898 L374,-654 Z" stroke-width="0" fill="#000000" fill-opacity="0.8941176470588236" />
<path d="M478,-378 L150,-858 L746,-286 L342,-970 L262,-358 L598,-130 Z" stroke-width="0" fill="#000000" fill-opacity="0.9882352941176471" />
<path d="M750,-830 L226,-306 L150,-694 L594,-818 L810,-446 L502,-154 Z" stroke-width="0" fill="#5d4c66" fill-opacity="0.49411764705882355" />
<path d="M198,-322 L226,-606 L338,-1002 L530,-1010 L250,-518 L398,-1150 Z" stroke-width="0" fill="#04c0b3" fill-opacity="0.2627450980392157" />
<path d="M566,-646 L554,-594 L146,-1254 L806,-834 L706,-346 L482,-958 Z" stroke-width="0" fill="#ab9191" fill-opacity="0.49411764705882355" />
<path d="M378,-1154 L686,-334 L534,-1002 L150,-1118 L82,-662 L226,-922 Z" stroke-width="0" fill="#97937f" fill-opacity="0.7176470588235294" />
<path d="M782,-886 L470,-926 L682,-598 L142,-818 L698,-346 L234,-798 Z" stroke-width="0" fill="#f4b65b" fill-opacity="0.9294117647058824" />
<path d="M98,-986 L410,-962 L326,-282 L230,-874 L534,-814 L802,-1150 Z" stroke-width="0" fill="#a2a8e4" fill-opacity="0.7568627450980392" />
<path d="M402,-446 L294,-330 L246,-614 L566,-1190 L314,-466 L462,-446 Z" stroke-width="0" fill="#4e8092" fill-opacity="0.7333333333333333" />
<path d="M806,-606 L294,-586 L658,-770 L758,-346 L334,-726 L302,-138 Z" stroke-width="0" fill="#002218" fill-opacity="0.5176470588235295" />
<path d="M170,-306 L250,-386 L742,-410 L790,-1154 L242,-1026 L650,-1002 Z" stroke-width="0" fill="#bba843" fill-opacity="0.5019607843137255" />
<path d="M698,-790 L318,-514 L538,-1226 L174,-786 L686,-458 L434,-930 Z" stroke-width="0" fill="#706bf7" fill-opacity="0.16862745098039217" />
<path d="M382,-442 L470,-638 L446,-646 L678,-494 L326,-1182 L458,-898 Z" stroke-width="0" fill="#ff9a08" fill-opacity="0.07450980392156863" />
<path d="M406,-186 L658,-734 L342,-214 L306,-958 L98,-134 L322,-450 Z" stroke-width="0" fill="#000000" fill-opacity="0.8666666666666667" />
<path d="M714,-866 L278,-586 L370,-854 L694,-646 L494,-598 L186,-498 Z" stroke-width="0" fill="#002a26" fill-opacity="0.9254901960784314" />
<path d="M690,-326 L326,-522 L330,-834 L130,-706 L110,-1166 L630,-534 Z" stroke-width="0" fill="#818277" fill-opacity="0.9176470588235294" />
<path d="M634,-622 L402,-1018 L686,-558 L810,-794 L502,-906 L346,-746 Z" stroke-width="0" fill="#ec8e3a" fill-opacity="0.2549019607843137" />
<path d="M322,-318 L118,-1014 L734,-250 L226,-1038 L718,-150 L346,-1154 Z" stroke-width="0" fill="#497a7e" fill-opacity="0.2980392156862745" />
<path d="M714,-738 L666,-414 L358,-170 L734,-1018 L246,-810 L142,-630 Z" stroke-width="0" fill="#d78403" fill-opacity="0.08235294117647059" />
<path d="M250,-498 L594,-138 L634,-614 L618,-1066 L166,-86 L518,-658 Z" stroke-width="0" fill="#000000" fill-opacity="0.17647058823529413" />
<path d="M606,-530 L138,-914 L662,-1138 L174,-810 L718,-1134 L178,-710 Z" stroke-width="0" fill="#ad7b9e" fill-opacity="0.6235294117647059" />
<path d="M554,-510 L542,-198 L306,-114 L590,-266 L606,-174 L642,-642 Z" stroke-width="0" fill="#000000" fill-opacity="0.9450980392156862" />
<path d="M698,-650 L222,-622 L446,-114 L226,-242 L406,-526 L134,-390 Z" stroke-width="0" fill="#000000" fill-opacity="0.9254901960784314" />
<path d="M638,-470 L530,-342 L418,-238 L186,-534 L774,-98 L794,-138 Z" stroke-width="0" fill="#000000" fill-opacity="0.7254901960784313" />
<path d="M618,-110 L602,-378 L182,-86 L294,-1206 L622,-154 L498,-1282 Z" stroke-width="0" fill="#000000" fill-opacity="0.6862745098039216" />
<path d="M418,-298 L310,-118 L246,-1010 L750,-490 L210,-514 L306,-382 Z" stroke-width="0" fill="#000000" fill-opacity="0.22745098039215686" />
<path d="M410,-690 L582,-142 L406,-1098 L94,-562 L522,-1258 L718,-430 Z" stroke-width="0" fill="#8fccb4" fill-opacity="0.027450980392156862" />
<path d="M118,-1050 L110,-1054 L414,-82 L338,-1242 L146,-438 L142,-626 Z" stroke-width="0" fill="#498162" fill-opacity="0.043137254901960784" />
<path d="M486,-922 L282,-846 L298,-202 L98,-1258 L142,-1114 L222,-1022 Z" stroke-width="0" fill="#538584" fill-opacity="0.6431372549019608" />
<path d="M546,-434 L230,-746 L414,-1006 L406,-1214 L594,-1298 L310,-926 Z" stroke-width="0" fill="#5f92c3" fill-opacity="0.5568627450980392" />
<path d="M338,-386 L182,-358 L606,-990 L210,-538 L238,-850 L438,-602 Z" stroke-width="0" fill="#2d4200" fill-opacity="0.20784313725490197" />
<path d="M514,-1230 L682,-854 L182,-262 L206,-626 L610,-1298 L146,-358 Z" stroke-width="0" fill="#d41737" fill-opacity="0.00392156862745098" />
<path d="M426,-418 L294,-318 L250,-466 L482,-918 L734,-230 L530,-550 Z" stroke-width="0" fill="#000000" fill-opacity="0.7725490196078432" />
<path d="M286,-950 L750,-962 L654,-738 L302,-298 L314,-254 L230,-338 Z" stroke-width="0" fill="#c7e255" fill-opacity="0.1411764705882353" />
<path d="M294,-750 L178,-814 L342,-994 L646,-966 L582,-710 L674,-1058 Z" stroke-width="0" fill="#bfa678" fill-opacity="0.5215686274509804" />
<path d="M366,-690 L742,-206 L298,-662 L350,-386 L334,-686 L310,-1126 Z" stroke-width="0" fill="#000006" fill-opacity="0.22745098039215686" />
<path d="M470,-410 L302,-210 L350,-866 L374,-1210 L326,-1158 L610,-498 Z" stroke-width="0" fill="#04be7f" fill-opacity="0.03529411764705882" />
<path d="M482,-1210 L86,-978 L626,-790 L782,-470 L370,-442 L570,-682 Z" stroke-width="0" fill="#b3959d" fill-opacity="0.07450980392156863" />
<path d="M306,-1078 L154,-970 L798,-882 L558,-450 L774,-1262 L422,-1106 Z" stroke-width="0" fill="#c1a057" fill-opacity="0.5019607843137255" />
<text x="448.0" y="0" font-size="70.0" fill="black" text-anchor="middle" transform="translate(0,17.5)">SOCIETY</text>
</svg>