<?xml version="1.0" encoding="UTF-8"?>
<svg xmlns="http://www.w3.org/2000/svg" xmlns:xlink="http://www.w3.org/1999/xlink"
     width="275" height="375" viewBox="0 -350 275 375">
<defs>
</defs>
<rect x="15" y="-335" width="245" height="320" stroke="black" stroke-width="4" fill="white" />
<path d="M119,-137 L149,-183 L86,-69 L178,-61 L96,-143 L142,-193 Z" stroke-width="0" fill="#c4fbff" fill-opacity="0.10980392156862745" />
<path d="M164,-119 L106,-73 L175,-66 L90,-312 L141,-172 L31,-73 Z" stroke-width="0" fill="#5c848e" fill-opacity="0.0" />
<path d="M86,-212 L61,-222 L144,-268 L70,-177 L158,-207 L118,-46 Z" stroke-width="0" fill="#09d9f6" fill-opacity="0.3176470588235294" />
<path d="M73,-153 L56,-164 L127,-67 L66,-121 L44,-201 L49,-308 Z" stroke-width="0" fill="#3be6aa" fill-opacity="0.0" />
<path d="M164,-154 L106,-262 L64,-293 L137,-304 L42,-271 L162,-121 Z" stroke-width="0" fill="#f5feea" fill-opacity="0.058823529411764705" />
<path d="M50,-78 L67,-99 L35,-31 L64,-109 L130,-187 L242,-145 Z" stroke-width="0" fill="#ffd3f0" fill-opacity="0.050980392156862744" />
<path d="M156,-234 L247,-205 L172,-167 L76,-237 L195,-83 L167,-73 Z" stroke-width="0" fill="#ed8712" fill-opacity="0.8274509803921568" />
<path d="M166,-241 L57,-109 L216,-40 L43,-61 L62,-57 L196,-228 Z" stroke-width="0" fill="#ba49a8" fill-opacity="0.0196078431372549" />
<path d="M237,-37 L98,-317 L50,-182 L89,-111 L222,-264 L26,-116 Z" stroke-width="0" fill="#fbe1f3" fill-opacity="0.043137254901960784" />
<path d="M108,-305 L131,-47 L68,-100 L57,-108 L188,-136 L81,-122 Z" stroke-width="0" fill="#3030ea" fill-opacity="0.043137254901960784" />
<path d="M145,-109 L59,-25 L46,-237 L43,-176 L160,-89 L57,-250 Z" stroke-width="0" fill="#bdf8fc" fill-opacity="0.023529411764705882" />
<path d="M148,-128 L126,-191 L159,-240 L188,-162 L186,-168 L61,-28 Z" stroke-width="0" fill="#e6f4fe" fill-opacity="0.11372549019607843" />
<path d="M214,-211 L210,-111 L75,-60 L174,-216 L149,-234 L179,-156 Z" stroke-width="0" fill="#c7c1cc" fill-opacity="0.00784313725490196" />
<path d="M174,-104 L187,-99 L134,-84 L103,-120 L163,-73 L162,-190 Z" stroke-width="0" fill="#0905bf" fill-opacity="0.14901960784313725" />
<path d="M62,-229 L96,-27 L194,-62 L54,-230 L31,-94 L81,-218 Z" stroke-width="0" fill="#c8f5f0" fill-opacity="0.10196078431372549" />
<path d="M59,-187 L57,-143 L165,-323 L215,-25 L178,-45 L112,-200 Z" stroke-width="0" fill="#e9fbe1" fill-opacity="0.06274509803921569" />
<path d="M74,-184 L125,-247 L53,-98 L160,-32 L247,-127 L239,-234 Z" stroke-width="0" fill="#ef1200" fill-opacity="0.8274509803921568" />
<path d="M189,-26 L178,-91 L87,-28 L49,-100 L48,-88 L126,-36 Z" stroke-width="0" fill="#fbecf5" fill-opacity="0.9372549019607843" />
<path d="M232,-118 L28,-100 L235,-240 L211,-119 L200,-30 L180,-166 Z" stroke-width="0" fill="#f6c60e" fill-opacity="0.01568627450980392" />
<path d="M137,-226 L110,-99 L126,-282 L192,-268 L57,-293 L26,-119 Z" stroke-width="0" fill="#f3f7f7" fill-opacity="0.027450980392156862" />
<path d="M110,-278 L205,-294 L246,-308 L181,-40 L185,-138 L61,-137 Z" stroke-width="0" fill="#6b0a25" fill-opacity="0.0" />
<path d="M45,-197 L150,-29 L116,-127 L207,-115 L31,-155 L99,-70 Z" stroke-width="0" fill="#fddcf7" fill-opacity="0.06274509803921569" />
<path d="M167,-253 L190,-213 L78,-219 L151,-89 L58,-38 L133,-260 Z" stroke-width="0" fill="#eae6f0" fill-opacity="0.043137254901960784" />
<path d="M169,-209 L239,-157 L84,-61 L56,-35 L89,-158 L169,-247 Z" stroke-width="0" fill="#fcfdeb" fill-opacity="0.027450980392156862" />
<path d="M198,-191 L157,-63 L44,-269 L210,-179 L76,-311 L179,-197 Z" stroke-width="0" fill="#24c8d1" fill-opacity="0.12941176470588237" />
<path d="M125,-160 L148,-57 L26,-140 L186,-83 L240,-35 L98,-134 Z" stroke-width="0" fill="#fafdd4" fill-opacity="0.0784313725490196" />
<path d="M249,-42 L33,-157 L207,-182 L244,-122 L40,-211 L161,-62 Z" stroke-width="0" fill="#fbfbf3" fill-opacity="0.03529411764705882" />
<path d="M184,-68 L193,-110 L211,-56 L208,-177 L184,-106 L115,-260 Z" stroke-width="0" fill="#fc5001" fill-opacity="0.788235294117647" />
<path d="M140,-289 L167,-307 L121,-208 L157,-89 L30,-175 L184,-314 Z" stroke-width="0" fill="#f0fbf5" fill-opacity="0.03137254901960784" />
<path d="M199,-319 L149,-27 L61,-238 L79,-100 L219,-269 L110,-132 Z" stroke-width="0" fill="#ffeff5" fill-opacity="0.0784313725490196" />
<path d="M173,-248 L212,-115 L72,-114 L26,-33 L105,-113 L141,-135 Z" stroke-width="0" fill="#bab374" fill-opacity="0.0" />
<path d="M41,-231 L215,-84 L194,-148 L82,-254 L178,-151 L104,-48 Z" stroke-width="0" fill="#d7a765" fill-opacity="0.16470588235294117" />
<path d="M34,-75 L77,-98 L226,-60 L59,-26 L146,-35 L218,-111 Z" stroke-width="0" fill="#d6dbe5" fill-opacity="0.023529411764705882" />
<path d="M76,-298 L248,-157 L79,-258 L115,-149 L216,-209 L36,-47 Z" stroke-width="0" fill="#dbf2f1" fill-opacity="0.10196078431372549" />
<path d="M53,-69 L119,-75 L64,-317 L132,-59 L209,-88 L115,-207 Z" stroke-width="0" fill="#f5c9c9" fill-opacity="0.07058823529411765" />
<path d="M64,-195 L83,-206 L91,-314 L116,-120 L73,-236 L231,-26 Z" stroke-width="0" fill="#2d7afa" fill-opacity="0.10196078431372549" />
<path d="M148,-142 L129,-39 L44,-97 L114,-115 L216,-72 L161,-310 Z" stroke-width="0" fill="#fcefd3" fill-opacity="0.03529411764705882" />
<path d="M84,-153 L234,-286 L191,-137 L179,-107 L61,-321 L88,-75 Z" stroke-width="0" fill="#f5e3f4" fill-opacity="0.10588235294117647" />
<path d="M191,-247 L114,-254 L44,-54 L166,-149 L26,-172 L154,-116 Z" stroke-width="0" fill="#f0f3cc" fill-opacity="0.07058823529411765" />
<path d="M232,-210 L122,-158 L177,-135 L59,-185 L160,-73 L58,-290 Z" stroke-width="0" fill="#0f68bb" fill-opacity="0.19215686274509805" />
<path d="M32,-41 L161,-115 L142,-51 L85,-133 L203,-141 L86,-247 Z" stroke-width="0" fill="#ece4e1" fill-opacity="0.011764705882352941" />
<path d="M78,-107 L229,-195 L141,-249 L95,-99 L174,-111 L194,-36 Z" stroke-width="0" fill="#faf0db" fill-opacity="0.9803921568627451" />
<path d="M37,-52 L28,-195 L73,-181 L214,-320 L220,-266 L96,-148 Z" stroke-width="0" fill="#b7d9fb" fill-opacity="0.03529411764705882" />
<path d="M49,-25 L51,-36 L115,-197 L81,-190 L94,-72 L248,-178 Z" stroke-width="0" fill="#d3fefc" fill-opacity="0.03137254901960784" />
<path d="M231,-277 L118,-269 L203,-257 L230,-174 L248,-135 L227,-158 Z" stroke-width="0" fill="#e5f2fd" fill-opacity="0.043137254901960784" />
<path d="M29,-272 L119,-313 L61,-90 L56,-315 L192,-198 L152,-144 Z" stroke-width="0" fill="#fdecf8" fill-opacity="0.011764705882352941" />
<path d="M142,-221 L113,-114 L153,-41 L115,-162 L28,-170 L99,-46 Z" stroke-width="0" fill="#f8eef8" fill-opacity="0.058823529411764705" />
<path d="M219,-240 L67,-278 L238,-263 L209,-140 L153,-141 L165,-129 Z" stroke-width="0" fill="#f5e2f5" fill-opacity="0.1450980392156863" />
<path d="M179,-221 L98,-143 L130,-201 L126,-227 L176,-107 L25,-54 Z" stroke-width="0" fill="#fafdfa" fill-opacity="0.8" />
<path d="M129,-246 L173,-274 L122,-54 L81,-187 L150,-142 L110,-37 Z" stroke-width="0" fill="#1437f6" fill-opacity="0.25098039215686274" />
<path d="M109,-141 L54,-195 L86,-202 L200,-203 L44,-117 L182,-264 Z" stroke-width="0" fill="#dbf7e3" fill-opacity="0.050980392156862744" />
<path d="M187,-145 L235,-34 L240,-293 L78,-204 L149,-136 L126,-105 Z" stroke-width="0" fill="#8feefd" fill-opacity="0.11372549019607843" />
<path d="M124,-321 L109,-144 L202,-115 L122,-231 L186,-120 L68,-37 Z" stroke-width="0" fill="#f1f9f5" fill-opacity="0.047058823529411764" />
<path d="M31,-231 L232,-60 L125,-63 L78,-194 L140,-130 L132,-83 Z" stroke-width="0" fill="#e1c8f9" fill-opacity="0.023529411764705882" />
<path d="M79,-69 L51,-256 L118,-266 L99,-261 L47,-74 L167,-284 Z" stroke-width="0" fill="#f0faef" fill-opacity="0.09411764705882353" />
<path d="M202,-269 L133,-68 L62,-278 L39,-235 L147,-73 L185,-234 Z" stroke-width="0" fill="#d3f7ef" fill-opacity="0.00784313725490196" />
<path d="M58,-83 L177,-174 L73,-132 L33,-286 L206,-229 L236,-214 Z" stroke-width="0" fill="#f4d8fe" fill-opacity="0.06274509803921569" />
<path d="M104,-301 L79,-144 L62,-167 L134,-156 L49,-125 L67,-166 Z" stroke-width="0" fill="#06eae2" fill-opacity="0.4980392156862745" />
<path d="M111,-204 L65,-143 L212,-72 L185,-217 L222,-37 L122,-44 Z" stroke-width="0" fill="#dfd4b7" fill-opacity="0.5686274509803921" />
<path d="M56,-62 L244,-26 L175,-174 L163,-121 L160,-58 L80,-273 Z" stroke-width="0" fill="#eff2f6" fill-opacity="0.0784313725490196" />
<path d="M128,-58 L183,-271 L125,-138 L42,-42 L159,-296 L137,-155 Z" stroke-width="0" fill="#95fbd3" fill-opacity="0.00392156862745098" />
<path d="M127,-250 L176,-81 L215,-109 L65,-89 L27,-95 L66,-82 Z" stroke-width="0" fill="#5cf0e5" fill-opacity="0.09019607843137255" />
<path d="M95,-321 L63,-165 L144,-179 L175,-97 L132,-204 L82,-92 Z" stroke-width="0" fill="#4bc0f2" fill-opacity="0.596078431372549" />
<path d="M161,-154 L205,-272 L65,-52 L40,-120 L111,-79 L124,-31 Z" stroke-width="0" fill="#f2fbd6" fill-opacity="0.08235294117647059" />
<path d="M134,-165 L118,-44 L236,-50 L228,-177 L210,-100 L183,-324 Z" stroke-width="0" fill="#cdd7e0" fill-opacity="0.19607843137254902" />
<path d="M103,-281 L237,-209 L97,-152 L141,-30 L96,-266 L175,-142 Z" stroke-width="0" fill="#051cf5" fill-opacity="0.03529411764705882" />
<path d="M161,-167 L181,-128 L208,-261 L180,-278 L110,-180 L166,-45 Z" stroke-width="0" fill="#f8b8ff" fill-opacity="0.07450980392156863" />
<path d="M160,-118 L193,-85 L25,-77 L108,-209 L170,-90 L91,-196 Z" stroke-width="0" fill="#e2ffe4" fill-opacity="1.0" />
<path d="M226,-45 L95,-258 L224,-190 L180,-75 L247,-102 L33,-187 Z" stroke-width="0" fill="#ecb2f9" fill-opacity="0.18823529411764706" />
<path d="M117,-131 L87,-175 L111,-118 L85,-266 L98,-246 L152,-87 Z" stroke-width="0" fill="#03c4f3" fill-opacity="0.11372549019607843" />
<path d="M106,-45 L105,-120 L126,-109 L44,-72 L84,-128 L31,-289 Z" stroke-width="0" fill="#fff8ab" fill-opacity="0.0392156862745098" />
<path d="M175,-111 L213,-266 L237,-63 L133,-105 L68,-96 L153,-233 Z" stroke-width="0" fill="#e8e6d6" fill-opacity="0.5333333333333333" />
<path d="M157,-47 L226,-247 L78,-221 L195,-283 L212,-198 L207,-154 Z" stroke-width="0" fill="#606d3c" fill-opacity="0.0" />
<path d="M37,-240 L235,-53 L178,-53 L222,-195 L102,-303 L73,-121 Z" stroke-width="0" fill="#91d4f4" fill-opacity="0.1803921568627451" />
<path d="M211,-54 L196,-176 L88,-316 L89,-36 L247,-147 L176,-241 Z" stroke-width="0" fill="#c9e7bd" fill-opacity="0.11764705882352941" />
<path d="M212,-77 L129,-126 L181,-68 L205,-32 L109,-177 L52,-76 Z" stroke-width="0" fill="#dcf2df" fill-opacity="0.15294117647058825" />
<path d="M72,-168 L113,-167 L62,-209 L59,-41 L45,-207 L206,-195 Z" stroke-width="0" fill="#e6ffdd" fill-opacity="0.2" />
<path d="M133,-52 L114,-27 L205,-90 L97,-270 L136,-254 L226,-164 Z" stroke-width="0" fill="#d6c1f8" fill-opacity="0.08235294117647059" />
<path d="M33,-75 L114,-234 L130,-136 L104,-238 L135,-257 L144,-206 Z" stroke-width="0" fill="#e1fbe1" fill-opacity="0.047058823529411764" />
<path d="M78,-103 L154,-308 L91,-66 L108,-208 L202,-189 L92,-136 Z" stroke-width="0" fill="#01bbf8" fill-opacity="0.5019607843137255" />
<path d="M201,-70 L69,-204 L77,-215 L74,-133 L53,-163 L167,-125 Z" stroke-width="0" fill="#ebed5f" fill-opacity="0.011764705882352941" />
<path d="M198,-142 L56,-173 L206,-152 L74,-148 L105,-294 L116,-29 Z" stroke-width="0" fill="#9491dd" fill-opacity="0.38823529411764707" />
<path d="M157,-202 L200,-54 L205,-175 L125,-204 L243,-226 L186,-268 Z" stroke-width="0" fill="#c7f505" fill-opacity="0.9294117647058824" />
<path d="M216,-289 L235,-242 L210,-243 L142,-200 L96,-163 L122,-289 Z" stroke-width="0" fill="#fcfdda" fill-opacity="0.03137254901960784" />
<path d="M77,-68 L96,-209 L106,-184 L140,-72 L35,-158 L109,-308 Z" stroke-width="0" fill="#e8e0f5" fill-opacity="0.23529411764705882" />
<path d="M104,-110 L73,-120 L204,-83 L61,-186 L74,-59 L83,-274 Z" stroke-width="0" fill="#ded4d8" fill-opacity="0.20784313725490197" />
<path d="M52,-202 L27,-287 L175,-132 L73,-131 L202,-256 L142,-128 Z" stroke-width="0" fill="#e9bcdb" fill-opacity="0.00784313725490196" />
<path d="M116,-228 L158,-189 L67,-126 L131,-218 L39,-32 L115,-167 Z" stroke-width="0" fill="#ea68ef" fill-opacity="0.23137254901960785" />
<path d="M40,-208 L81,-91 L78,-212 L45,-204 L247,-97 L238,-162 Z" stroke-width="0" fill="#f3e0ed" fill-opacity="0.40784313725490196" />
<path d="M60,-119 L43,-132 L91,-239 L52,-210 L67,-48 L90,-154 Z" stroke-width="0" fill="#f9fed4" fill-opacity="0.592156862745098" />
<path d="M225,-77 L139,-221 L151,-109 L111,-215 L53,-137 L32,-74 Z" stroke-width="0" fill="#dbffdd" fill-opacity="0.42745098039215684" />
<path d="M245,-275 L104,-263 L235,-213 L212,-163 L43,-85 L232,-212 Z" stroke-width="0" fill="#edcce7" fill-opacity="0.1411764705882353" />
<path d="M241,-302 L41,-35 L221,-280 L133,-178 L39,-309 L77,-165 Z" stroke-width="0" fill="#f3bdee" fill-opacity="0.2235294117647059" />
<path d="M179,-140 L211,-242 L168,-214 L227,-62 L213,-69 L245,-135 Z" stroke-width="0" fill="#f0f0ef" fill-opacity="0.9137254901960784" />
<path d="M39,-217 L223,-196 L92,-267 L236,-201 L152,-53 L87,-66 Z" stroke-width="0" fill="#e1f8f8" fill-opacity="0.5529411764705883" />
<path d="M216,-196 L98,-57 L76,-80 L78,-226 L223,-34 L140,-192 Z" stroke-width="0" fill="#dbcbee" fill-opacity="0.3137254901960784" />
<path d="M53,-217 L171,-29 L133,-293 L96,-204 L91,-203 L235,-77 Z" stroke-width="0" fill="#f6dff8" fill-opacity="0.596078431372549" />
<path d="M81,-232 L90,-296 L148,-194 L164,-248 L239,-121 L85,-42 Z" stroke-width="0" fill="#d4f2e2" fill-opacity="0.011764705882352941" />
<path d="M134,-298 L44,-51 L210,-242 L156,-119 L33,-91 L219,-204 Z" stroke-width="0" fill="#1f95e7" fill-opacity="0.027450980392156862" />
<path d="M242,-156 L33,-69 L83,-105 L159,-91 L57,-120 L109,-249 Z" stroke-width="0" fill="#3dbad5" fill-opacity="0.10588235294117647" />
<text x="137.5" y="12.5" font-size="20.0" fill="black" text-anchor="middle" transform="translate(0,5.0)">SOCIETY</text>
</svg>