<?xml version="1.0" encoding="UTF-8"?>
<svg xmlns="http://www.w3.org/2000/svg" xmlns:xlink="http://www.w3.org/1999/xlink"
     width="896" height="1496" viewBox="0 -1400 896 1496" style="font-size:70;font-family:Poor Richard, Times New Roman;stroke:black;stroke-width:1;fill:none">
<defs>
</defs>
<path d="M490,-762 L358,-582 L638,-378 L182,-1262 L174,-142 L474,-850 Z" stroke-width="0" fill="#020018" fill-opacity="0.9411764705882353" />
<path d="M546,-126 L302,-834 L502,-190 L214,-654 L330,-602 L566,-1234 Z" stroke-width="0" fill="#231300" fill-opacity="0.8549019607843137" />
<path d="M458,-406 L110,-186 L378,-1262 L494,-914 L386,-1238 L590,-714 Z" stroke-width="0" fill="#060e00" fill-opacity="0.9450980392156862" />
<path d="M662,-454 L370,-510 L650,-562 L318,-478 L270,-882 L734,-610 Z" stroke-width="0" fill="#eec85c" fill-opacity="0.050980392156862744" />
<path d="M214,-526 L694,-1030 L462,-242 L366,-602 L618,-726 L678,-150 Z" stroke-width="0" fill="#fbe610" fill-opacity="0.35294117647058826" />
<path d="M346,-818 L386,-974 L382,-142 L282,-534 L270,-626 L358,-702 Z" stroke-width="0" fill="#570000" fill-opacity="0.8" />
<path d="M726,-210 L638,-918 L294,-118 L134,-202 L730,-850 L286,-546 Z" stroke-width="0" fill="#000000" fill-opacity="0.8274509803921568" />
<path d="M450,-838 L306,-114 L250,-294 L202,-886 L694,-1230 L806,-466 Z" stroke-width="0" fill="#60515e" fill-opacity="0.2549019607843137" />
<path d="M102,-818 L314,-150 L630,-310 L694,-974 L326,-174 L234,-670 Z" stroke-width="0" fill="#637f78" fill-opacity="0.5215686274509804" />
<path d="M362,-386 L690,-110 L414,-1282 L446,-986 L738,-766 L418,-802 Z" stroke-width="0" fill="#2a0000" fill-opacity="0.7725490196078432" />
<path d="M694,-446 L658,-498 L490,-598 L194,-558 L186,-706 L142,-982 Z" stroke-width="0" fill="#dd6eb7" fill-opacity="0.12941176470588237" />
<path d="M530,-1198 L678,-362 L114,-178 L538,-534 L406,-170 L290,-158 Z" stroke-width="0" fill="#000000" fill-opacity="0.9764705882352941" />
<path d="M442,-330 L554,-1206 L386,-698 L358,-474 L598,-278 L138,-102 Z" stroke-width="0" fill="#000000" fill-opacity="0.8666666666666667" />
<path d="M678,-210 L382,-730 L518,-1174 L298,-214 L330,-1074 L94,-1174 Z" stroke-width="0" fill="#32116e" fill-opacity="0.788235294117647" />
<path d="M794,-590 L286,-190 L238,-346 L534,-738 L694,-410 L386,-162 Z" stroke-width="0" fill="#070a03" fill-opacity="0.047058823529411764" />
<path d="M414,-522 L506,-530 L550,-878 L514,-706 L246,-266 L406,-838 Z" stroke-width="0" fill="#5d9948" fill-opacity="0.03529411764705882" />
<path d="M414,-1118 L334,-402 L242,-842 L150,-1218 L358,-538 L350,-1186 Z" stroke-width="0" fill="#0d4899" fill-opacity="0.7450980392156863" />
<path d="M802,-110 L606,-1086 L598,-110 L758,-266 L222,-282 L498,-1038 Z" stroke-width="0" fill="#2d2600" fill-opacity="0.9294117647058824" />
<path d="M266,-554 L194,-410 L118,-742 L142,-974 L150,-514 L158,-462 Z" stroke-width="0" fill="#290918" fill-opacity="0.20784313725490197" />
<path d="M378,-730 L286,-970 L470,-554 L226,-490 L102,-246 L194,-626 Z" stroke-width="0" fill="#a6a500" fill-opacity="0.7450980392156863" />
<path d="M802,-1238 L174,-1218 L630,-866 L734,-1050 L374,-390 L402,-366 Z" stroke-width="0" fill="#9a8ee7" fill-opacity="0.8901960784313725" />
<path d="M658,-318 L258,-890 L770,-934 L106,-394 L682,-738 L730,-182 Z" stroke-width="0" fill="#88a3c8" fill-opacity="0.2549019607843137" />
<path d="M374,-1166 L434,-890 L206,-374 L390,-562 L98,-1026 L762,-174 Z" stroke-width="0" fill="#342300" fill-opacity="0.8392156862745098" />
<path d="M386,-946 L614,-486 L662,-262 L366,-750 L806,-410 L486,-494 Z" stroke-width="0" fill="#f2f0f1" fill-opacity="0.9725490196078431" />
<path d="M502,-158 L438,-114 L198,-698 L766,-1266 L474,-302 L730,-150 Z" stroke-width="0" fill="#523100" fill-opacity="0.8352941176470589" />
<path d="M770,-666 L782,-318 L398,-254 L650,-242 L146,-266 L334,-310 Z" stroke-width="0" fill="#e00e31" fill-opacity="0.17647058823529413" />
<path d="M106,-562 L306,-1242 L686,-434 L318,-86 L786,-734 L170,-610 Z" stroke-width="0" fill="#273410" fill-opacity="0.9137254901960784" />
<path d="M134,-486 L146,-170 L706,-626 L730,-882 L130,-490 L794,-626 Z" stroke-width="0" fill="#180400" fill-opacity="0.17647058823529413" />
<path d="M634,-802 L810,-370 L634,-762 L602,-658 L314,-474 L694,-678 Z" stroke-width="0" fill="#eda31f" fill-opacity="0.3411764705882353" />
<path d="M106,-270 L534,-1158 L374,-826 L666,-1082 L794,-1282 L138,-378 Z" stroke-width="0" fill="#fb76d4" fill-opacity="0.5019607843137255" />
<path d="M534,-822 L286,-474 L82,-1054 L182,-1054 L670,-430 L546,-838 Z" stroke-width="0" fill="#1d4972" fill-opacity="0.5333333333333333" />
<path d="M246,-762 L674,-1154 L186,-386 L762,-766 L606,-446 L278,-1198 Z" stroke-width="0" fill="#f5a3f7" fill-opacity="0.9647058823529412" />
<path d="M618,-1238 L250,-906 L422,-646 L658,-138 L782,-98 L346,-1262 Z" stroke-width="0" fill="#0d1200" fill-opacity="0.7372549019607844" />
<path d="M534,-1042 L174,-1162 L770,-410 L634,-1022 L726,-1162 L166,-286 Z" stroke-width="0" fill="#fadaf9" fill-opacity="0.9686274509803922" />
<path d="M314,-958 L554,-582 L202,-1010 L374,-978 L266,-930 L634,-838 Z" stroke-width="0" fill="#532430" fill-opacity="0.9686274509803922" />
<path d="M286,-570 L286,-1178 L546,-614 L94,-722 L670,-1022 L534,-430 Z" stroke-width="0" fill="#f86bb0" fill-opacity="0.9490196078431372" />
<path d="M158,-1194 L382,-1110 L150,-930 L710,-1046 L226,-358 L402,-302 Z" stroke-width="0" fill="#4354cc" fill-opacity="0.9764705882352941" />
<path d="M86,-1154 L194,-362 L86,-730 L146,-342 L554,-498 L794,-1234 Z" stroke-width="0" fill="#76b8bf" fill-opacity="0.8117647058823529" />
<path d="M590,-1002 L366,-226 L462,-530 L426,-898 L274,-410 L498,-622 Z" stroke-width="0" fill="#341310" fill-opacity="0.8588235294117647" />
<path d="M150,-554 L366,-250 L250,-734 L370,-1070 L734,-334 L302,-482 Z" stroke-width="0" fill="#fff967" fill-opacity="0.6196078431372549" />
<path d="M550,-874 L458,-254 L194,-166 L250,-530 L550,-1030 L90,-426 Z" stroke-width="0" fill="#000014" fill-opacity="0.4235294117647059" />
<path d="M338,-690 L350,-1294 L422,-1242 L454,-782 L710,-262 L554,-122 Z" stroke-width="0" fill="#3a3b16" fill-opacity="0.7372549019607844" />
<path d="M378,-762 L190,-926 L390,-694 L118,-214 L510,-654 L82,-1126 Z" stroke-width="0" fill="#100d03" fill-opacity="0.23137254901960785" />
<path d="M654,-94 L178,-390 L246,-282 L574,-598 L634,-906 L538,-222 Z" stroke-width="0" fill="#000000" fill-opacity="0.8274509803921568" />
<path d="M406,-478 L374,-942 L314,-374 L150,-1106 L454,-366 L326,-1282 Z" stroke-width="0" fill="#4f6b8d" fill-opacity="0.7254901960784313" />
<path d="M254,-1242 L82,-470 L734,-1182 L334,-798 L298,-194 L774,-990 Z" stroke-width="0" fill="#d2c2d9" fill-opacity="0.4549019607843137" />
<path d="M202,-1154 L410,-1262 L474,-1158 L170,-470 L730,-286 L210,-898 Z" stroke-width="0" fill="#4182e2" fill-opacity="0.5607843137254902" />
<path d="M270,-1058 L262,-1242 L650,-674 L98,-682 L350,-690 L90,-862 Z" stroke-width="0" fill="#24928d" fill-opacity="0.6392156862745098" />
<path d="M154,-978 L86,-862 L334,-850 L554,-550 L178,-1006 L294,-1090 Z" stroke-width="0" fill="#acb4a6" fill-opacity="0.8392156862745098" />
<path d="M802,-86 L130,-778 L382,-374 L218,-106 L90,-618 L446,-1118 Z" stroke-width="0" fill="#010500" fill-opacity="0.403921568627451" />
<path d="M182,-514 L770,-298 L798,-794 L226,-418 L174,-178 L386,-638 Z" stroke-width="0" fill="#d8e9cb" fill-opacity="0.8627450980392157" />
<path d="M350,-834 L102,-294 L138,-178 L482,-1314 L414,-730 L750,-586 Z" stroke-width="0" fill="#556a1b" fill-opacity="0.3607843137254902" />
<path d="M86,-306 L442,-566 L454,-114 L266,-594 L134,-334 L290,-478 Z" stroke-width="0" fill="#b3880a" fill-opacity="0.1803921568627451" />
<path d="M170,-1022 L158,-822 L578,-342 L482,-450 L102,-482 L254,-434 Z" stroke-width="0" fill="#b4b672" fill-opacity="0.796078431372549" />
<path d="M790,-350 L534,-234 L242,-1186 L754,-242 L618,-330 L678,-250 Z" stroke-width="0" fill="#c37b17" fill-opacity="0.4392156862745098" />
<path d="M678,-546 L270,-1038 L694,-606 L526,-298 L426,-918 L662,-86 Z" stroke-width="0" fill="#e6c71d" fill-opacity="0.16470588235294117" />
<path d="M222,-926 L82,-706 L762,-434 L250,-926 L350,-1194 L462,-422 Z" stroke-width="0" fill="#d0ccbb" fill-opacity="0.7254901960784313" />
<path d="M706,-378 L770,-86 L674,-126 L718,-690 L622,-806 L342,-190 Z" stroke-width="0" fill="#be6a00" fill-opacity="0.0392156862745098" />
<path d="M346,-174 L450,-998 L118,-1062 L486,-570 L590,-1270 L254,-222 Z" stroke-width="0" fill="#180910" fill-opacity="0.3411764705882353" />
<path d="M766,-854 L162,-406 L526,-82 L166,-334 L214,-1062 L202,-530 Z" stroke-width="0" fill="#361400" fill-opacity="0.34901960784313724" />
<path d="M590,-962 L98,-530 L106,-758 L494,-382 L202,-1034 L246,-278 Z" stroke-width="0" fill="#e6cfb0" fill-opacity="1.0" />
<path d="M630,-122 L94,-486 L202,-726 L450,-490 L426,-502 L314,-550 Z" stroke-width="0" fill="#cab42d" fill-opacity="0.40784313725490196" />
<path d="M538,-302 L446,-506 L442,-682 L486,-594 L798,-906 L210,-518 Z" stroke-width="0" fill="#ced779" fill-opacity="0.3764705882352941" />
<path d="M586,-774 L654,-1010 L654,-1258 L218,-974 L218,-502 L606,-782 Z" stroke-width="0" fill="#207b74" fill-opacity="0.3607843137254902" />
<path d="M274,-274 L434,-222 L342,-586 L650,-478 L542,-630 L82,-530 Z" stroke-width="0" fill="#ccc200" fill-opacity="0.1450980392156863" />
<path d="M554,-562 L374,-450 L302,-846 L418,-490 L110,-410 L238,-710 Z" stroke-width="0" fill="#f9dc9b" fill-opacity="0.8627450980392157" />
<path d="M742,-1182 L794,-958 L522,-90 L614,-374 L230,-158 L158,-854 Z" stroke-width="0" fill="#c9d9e9" fill-opacity="0.043137254901960784" />
<path d="M118,-578 L182,-1290 L738,-398 L214,-498 L426,-662 L162,-802 Z" stroke-width="0" fill="#a9da93" fill-opacity="0.5607843137254902" />
<path d="M654,-230 L626,-374 L526,-602 L690,-1074 L490,-1142 L646,-602 Z" stroke-width="0" fill="#d3e2ba" fill-opacity="0.2196078431372549" />
<path d="M682,-298 L450,-378 L590,-1014 L506,-490 L414,-82 L430,-918 Z" stroke-width="0" fill="#b2f5e5" fill-opacity="0.03529411764705882" />
<path d="M230,-394 L774,-822 L322,-598 L434,-258 L110,-646 L626,-498 Z" stroke-width="0" fill="#f7e9cb" fill-opacity="0.25882352941176473" />
<path d="M770,-562 L190,-162 L414,-358 L558,-542 L594,-382 L790,-194 Z" stroke-width="0" fill="#f8e843" fill-opacity="0.24705882352941178" />
<path d="M586,-658 L374,-742 L130,-802 L502,-754 L274,-202 L438,-1070 Z" stroke-width="0" fill="#f2c725" fill-opacity="0.16862745098039217" />
<path d="M422,-730 L686,-1142 L274,-1186 L614,-1198 L662,-458 L266,-1106 Z" stroke-width="0" fill="#84b35e" fill-opacity="0.14901960784313725" />
<path d="M214,-278 L90,-266 L450,-714 L130,-226 L262,-726 L638,-1114 Z" stroke-width="0" fill="#dcbd73" fill-opacity="0.050980392156862744" />
<path d="M110,-1246 L706,-1218 L586,-1010 L226,-970 L530,-886 L246,-118 Z" stroke-width="0" fill="#96ccb7" fill-opacity="0.25882352941176473" />
<path d="M410,-510 L182,-1258 L162,-778 L662,-218 L366,-554 L546,-858 Z" stroke-width="0" fill="#bdec4c" fill-opacity="0.09019607843137255" />
<path d="M274,-298 L234,-1210 L310,-670 L498,-498 L686,-586 L614,-370 Z" stroke-width="0" fill="#edb29b" fill-opacity="0.4745098039215686" />
<path d="M198,-1158 L810,-518 L482,-438 L194,-1054 L198,-206 L730,-726 Z" stroke-width="0" fill="#5ecd2f" fill-opacity="0.00392156862745098" />
<path d="M202,-998 L82,-694 L766,-854 L262,-790 L318,-1230 L502,-274 Z" stroke-width="0" fill="#caf5cb" fill-opacity="0.18823529411764706" />
<path d="M394,-1150 L374,-914 L782,-438 L246,-1306 L650,-1210 L586,-594 Z" stroke-width="0" fill="#4b6df7" fill-opacity="0.2784313725490196" />
<path d="M378,-130 L118,-1202 L290,-1058 L122,-686 L446,-366 L646,-826 Z" stroke-width="0" fill="#054636" fill-opacity="0.00392156862745098" />
<path d="M98,-1090 L470,-906 L546,-942 L206,-666 L662,-842 L306,-1186 Z" stroke-width="0" fill="#40887c" fill-opacity="0.5019607843137255" />
<path d="M226,-382 L414,-318 L94,-986 L242,-1270 L470,-1014 L406,-1058 Z" stroke-width="0" fill="#9296e3" fill-opacity="0.5019607843137255" />
<path d="M442,-582 L506,-310 L110,-294 L238,-158 L266,-930 L242,-594 Z" stroke-width="0" fill="#b48200" fill-opacity="0.00784313725490196" />
<path d="M446,-1090 L454,-330 L378,-1102 L458,-882 L594,-826 L314,-394 Z" stroke-width="0" fill="#fcd6a0" fill-opacity="0.22745098039215686" />
<path d="M270,-446 L278,-1174 L526,-194 L466,-870 L194,-1054 L546,-414 Z" stroke-width="0" fill="#ebc5e7" fill-opacity="0.06666666666666667" />
<path d="M306,-786 L286,-410 L606,-410 L506,-822 L458,-1078 L210,-1010 Z" stroke-width="0" fill="#c7d2d4" fill-opacity="0.6352941176470588" />
<path d="M378,-754 L434,-1006 L426,-394 L582,-486 L602,-294 L738,-874 Z" stroke-width="0" fill="#ead1c0" fill-opacity="0.8235294117647058" />
<path d="M338,-654 L598,-658 L342,-146 L106,-458 L658,-1090 L458,-494 Z" stroke-width="0" fill="#fff77d" fill-opacity="0.14901960784313725" />
<path d="M222,-574 L350,-882 L774,-1118 L286,-1178 L690,-366 L522,-586 Z" stroke-width="0" fill="#b1daee" fill-opacity="0.16470588235294117" />
<path d="M386,-310 L190,-478 L258,-294 L146,-574 L294,-642 L438,-874 Z" stroke-width="0" fill="#dbfb74" fill-opacity="0.16862745098039217" />
<path d="M478,-1062 L598,-610 L390,-866 L194,-758 L798,-398 L230,-186 Z" stroke-width="0" fill="#a9e60b" fill-opacity="0.023529411764705882" />
<path d="M270,-482 L238,-446 L566,-402 L650,-278 L318,-282 L318,-982 Z" stroke-width="0" fill="#efe63b" fill-opacity="0.1803921568627451" />
<path d="M662,-1214 L554,-802 L378,-174 L150,-186 L274,-926 L366,-1266 Z" stroke-width="0" fill="#d5c6d9" fill-opacity="0.25098039215686274" />
<path d="M494,-530 L322,-1234 L810,-902 L550,-490 L422,-770 L670,-730 Z" stroke-width="0" fill="#47fdab" fill-opacity="0.11764705882352941" />
<path d="M690,-230 L442,-1070 L650,-1030 L622,-606 L742,-214 L386,-166 Z" stroke-width="0" fill="#ece0fe" fill-opacity="0.5019607843137255" />
<path d="M462,-330 L214,-382 L170,-250 L354,-726 L450,-330 L246,-234 Z" stroke-width="0" fill="#f5f39a" fill-opacity="0.23137254901960785" />
<path d="M746,-174 L198,-542 L430,-1234 L206,-510 L730,-646 L102,-918 Z" stroke-width="0" fill="#b0dff3" fill-opacity="0.07058823529411765" />
<path d="M302,-106 L82,-426 L142,-322 L438,-994 L218,-934 L250,-798 Z" stroke-width="0" fill="#93b467" fill-opacity="0.20784313725490197" />
<text x="448.0" y="0" font-size="70.0" fill="black" text-anchor="middle" transform="translate(0,17.5)">LIFE</text>
</svg>