<?xml version="1.0" encoding="UTF-8"?>
<svg xmlns="http://www.w3.org/2000/svg" xmlns:xlink="http://www.w3.org/1999/xlink"
     width="275" height="375" viewBox="0 -350 275 375">
<defs>
</defs>
<rect x="15" y="-335" width="245" height="320" stroke="black" stroke-width="4" fill="white" />
<path d="M215,-65 L117,-253 L68,-242 L25,-166 L91,-89 L46,-85 Z" stroke-width="0" fill="#006a00" fill-opacity="0.6470588235294118" />
<path d="M138,-74 L78,-124 L235,-83 L200,-187 L83,-236 L82,-224 Z" stroke-width="0" fill="#439656" fill-opacity="0.09803921568627451" />
<path d="M170,-293 L100,-116 L91,-65 L170,-44 L70,-260 L93,-181 Z" stroke-width="0" fill="#9cb888" fill-opacity="0.09411764705882353" />
<path d="M180,-63 L47,-47 L82,-289 L112,-191 L135,-82 L33,-69 Z" stroke-width="0" fill="#266400" fill-opacity="0.7176470588235294" />
<path d="M53,-207 L93,-220 L242,-26 L171,-92 L125,-43 L37,-159 Z" stroke-width="0" fill="#2c6d1e" fill-opacity="0.8784313725490196" />
<path d="M59,-257 L171,-43 L30,-98 L167,-100 L165,-71 L217,-306 Z" stroke-width="0" fill="#052100" fill-opacity="0.7725490196078432" />
<path d="M244,-44 L72,-52 L115,-46 L45,-55 L139,-140 L84,-308 Z" stroke-width="0" fill="#002900" fill-opacity="0.6274509803921569" />
<path d="M156,-67 L57,-275 L239,-103 L51,-301 L73,-216 L98,-106 Z" stroke-width="0" fill="#5bf9aa" fill-opacity="0.19215686274509805" />
<path d="M153,-170 L133,-248 L204,-212 L123,-206 L58,-158 L186,-240 Z" stroke-width="0" fill="#b689e6" fill-opacity="0.3137254901960784" />
<path d="M173,-84 L85,-39 L245,-145 L155,-323 L76,-56 L93,-108 Z" stroke-width="0" fill="#57b601" fill-opacity="0.5019607843137255" />
<path d="M221,-55 L122,-251 L102,-40 L208,-44 L90,-104 L38,-317 Z" stroke-width="0" fill="#387622" fill-opacity="0.807843137254902" />
<path d="M67,-234 L38,-242 L207,-94 L39,-194 L169,-194 L74,-100 Z" stroke-width="0" fill="#a0ca52" fill-opacity="0.7333333333333333" />
<path d="M224,-96 L240,-112 L81,-306 L121,-205 L139,-146 L195,-87 Z" stroke-width="0" fill="#dfff25" fill-opacity="0.5294117647058824" />
<path d="M35,-74 L83,-231 L75,-82 L99,-104 L249,-39 L88,-44 Z" stroke-width="0" fill="#45590f" fill-opacity="0.7803921568627451" />
<path d="M96,-140 L92,-36 L68,-111 L99,-229 L217,-80 L191,-39 Z" stroke-width="0" fill="#f50d7f" fill-opacity="0.9215686274509803" />
<path d="M94,-135 L228,-243 L221,-166 L164,-308 L195,-290 L195,-241 Z" stroke-width="0" fill="#532319" fill-opacity="0.027450980392156862" />
<path d="M96,-308 L54,-239 L90,-257 L47,-268 L130,-56 L233,-186 Z" stroke-width="0" fill="#fbf3de" fill-opacity="0.9137254901960784" />
<path d="M143,-256 L45,-95 L38,-64 L64,-88 L119,-169 L80,-104 Z" stroke-width="0" fill="#c1daa5" fill-opacity="0.8588235294117647" />
<path d="M212,-174 L224,-133 L173,-72 L56,-216 L110,-58 L243,-73 Z" stroke-width="0" fill="#41921d" fill-opacity="0.7098039215686275" />
<path d="M62,-39 L115,-30 L140,-81 L155,-197 L168,-280 L110,-92 Z" stroke-width="0" fill="#2d6b00" fill-opacity="0.6627450980392157" />
<path d="M124,-208 L54,-263 L68,-271 L47,-268 L37,-241 L82,-189 Z" stroke-width="0" fill="#1fd21d" fill-opacity="0.5529411764705883" />
<path d="M182,-230 L171,-316 L242,-229 L118,-165 L38,-179 L172,-75 Z" stroke-width="0" fill="#0d02a6" fill-opacity="0.11372549019607843" />
<path d="M80,-61 L95,-153 L139,-28 L182,-94 L131,-109 L38,-219 Z" stroke-width="0" fill="#005500" fill-opacity="0.596078431372549" />
<path d="M107,-183 L84,-69 L203,-233 L181,-324 L104,-252 L161,-265 Z" stroke-width="0" fill="#355d00" fill-opacity="0.8431372549019608" />
<path d="M193,-133 L81,-217 L45,-80 L142,-234 L192,-79 L184,-104 Z" stroke-width="0" fill="#9b409d" fill-opacity="0.7647058823529411" />
<path d="M148,-279 L90,-142 L222,-59 L229,-321 L88,-74 L114,-98 Z" stroke-width="0" fill="#33211f" fill-opacity="0.6666666666666666" />
<path d="M69,-56 L90,-88 L154,-133 L116,-34 L125,-190 L178,-305 Z" stroke-width="0" fill="#cebe05" fill-opacity="0.3333333333333333" />
<path d="M100,-87 L221,-291 L146,-179 L155,-232 L37,-103 L90,-129 Z" stroke-width="0" fill="#380c32" fill-opacity="0.5450980392156862" />
<path d="M223,-95 L40,-238 L89,-181 L219,-294 L149,-199 L150,-40 Z" stroke-width="0" fill="#a13398" fill-opacity="0.14901960784313725" />
<path d="M81,-304 L39,-168 L131,-37 L160,-25 L81,-91 L154,-297 Z" stroke-width="0" fill="#80ad13" fill-opacity="0.5019607843137255" />
<path d="M121,-258 L30,-176 L84,-86 L71,-33 L35,-89 L100,-165 Z" stroke-width="0" fill="#787515" fill-opacity="0.2980392156862745" />
<path d="M228,-157 L243,-204 L168,-240 L161,-320 L96,-62 L145,-77 Z" stroke-width="0" fill="#d4fa00" fill-opacity="0.5294117647058824" />
<path d="M105,-322 L100,-264 L32,-163 L86,-188 L64,-136 L227,-107 Z" stroke-width="0" fill="#5d4252" fill-opacity="0.984313725490196" />
<path d="M196,-205 L111,-59 L33,-281 L73,-204 L100,-183 L46,-73 Z" stroke-width="0" fill="#002700" fill-opacity="0.5019607843137255" />
<path d="M149,-160 L152,-215 L88,-205 L65,-100 L242,-187 L70,-77 Z" stroke-width="0" fill="#ecbb6e" fill-opacity="0.32941176470588235" />
<path d="M193,-91 L113,-324 L77,-318 L57,-153 L180,-58 L162,-222 Z" stroke-width="0" fill="#63b000" fill-opacity="0.6745098039215687" />
<path d="M160,-270 L173,-223 L95,-207 L31,-94 L100,-164 L73,-101 Z" stroke-width="0" fill="#424300" fill-opacity="0.8901960784313725" />
<path d="M106,-218 L99,-167 L48,-277 L243,-272 L206,-81 L148,-206 Z" stroke-width="0" fill="#3a5a39" fill-opacity="0.7607843137254902" />
<path d="M142,-246 L143,-91 L80,-63 L94,-287 L52,-316 L40,-244 Z" stroke-width="0" fill="#516e05" fill-opacity="0.6549019607843137" />
<path d="M38,-25 L120,-303 L166,-266 L79,-41 L64,-168 L43,-143 Z" stroke-width="0" fill="#186300" fill-opacity="0.7058823529411765" />
<path d="M56,-201 L99,-164 L148,-29 L41,-141 L50,-144 L37,-154 Z" stroke-width="0" fill="#061004" fill-opacity="0.21176470588235294" />
<path d="M44,-90 L217,-124 L90,-68 L116,-76 L198,-266 L100,-181 Z" stroke-width="0" fill="#0a0e08" fill-opacity="0.8588235294117647" />
<path d="M81,-71 L195,-109 L44,-123 L60,-67 L55,-274 L152,-114 Z" stroke-width="0" fill="#8d0410" fill-opacity="0.9568627450980393" />
<path d="M178,-285 L57,-282 L126,-37 L136,-78 L218,-65 L62,-107 Z" stroke-width="0" fill="#d5ea68" fill-opacity="0.5843137254901961" />
<path d="M95,-107 L158,-31 L155,-201 L185,-138 L202,-102 L227,-116 Z" stroke-width="0" fill="#9f175b" fill-opacity="0.8431372549019608" />
<path d="M203,-285 L34,-90 L68,-117 L61,-299 L100,-215 L139,-70 Z" stroke-width="0" fill="#000a06" fill-opacity="0.36470588235294116" />
<path d="M79,-95 L55,-108 L204,-267 L83,-256 L146,-47 L48,-62 Z" stroke-width="0" fill="#390115" fill-opacity="0.7686274509803922" />
<path d="M135,-287 L79,-182 L234,-121 L126,-307 L67,-32 L169,-112 Z" stroke-width="0" fill="#828b4f" fill-opacity="0.8313725490196079" />
<path d="M120,-184 L208,-122 L71,-134 L103,-120 L76,-309 L71,-151 Z" stroke-width="0" fill="#4aa353" fill-opacity="0.47843137254901963" />
<path d="M233,-44 L167,-124 L89,-277 L197,-52 L73,-85 L132,-77 Z" stroke-width="0" fill="#36bd3b" fill-opacity="0.3568627450980392" />
<path d="M111,-217 L141,-303 L59,-83 L145,-114 L104,-188 L224,-187 Z" stroke-width="0" fill="#1e0b2e" fill-opacity="0.9490196078431372" />
<path d="M132,-60 L133,-56 L162,-38 L78,-92 L185,-287 L178,-132 Z" stroke-width="0" fill="#061e28" fill-opacity="0.796078431372549" />
<path d="M94,-40 L32,-177 L89,-203 L82,-82 L142,-126 L230,-132 Z" stroke-width="0" fill="#f22b3d" fill-opacity="0.2823529411764706" />
<path d="M155,-113 L35,-249 L89,-198 L164,-172 L249,-136 L40,-308 Z" stroke-width="0" fill="#85b560" fill-opacity="0.43529411764705883" />
<path d="M128,-142 L104,-254 L195,-26 L135,-118 L192,-279 L87,-94 Z" stroke-width="0" fill="#ad5000" fill-opacity="0.8117647058823529" />
<path d="M69,-135 L79,-153 L194,-155 L139,-208 L128,-110 L206,-235 Z" stroke-width="0" fill="#aab25c" fill-opacity="0.6862745098039216" />
<path d="M222,-243 L186,-42 L101,-215 L118,-117 L104,-119 L47,-218 Z" stroke-width="0" fill="#ffe161" fill-opacity="0.807843137254902" />
<path d="M146,-94 L48,-25 L217,-320 L70,-117 L210,-72 L207,-266 Z" stroke-width="0" fill="#46622a" fill-opacity="0.8784313725490196" />
<path d="M218,-131 L241,-63 L118,-196 L200,-186 L129,-279 L66,-77 Z" stroke-width="0" fill="#46690a" fill-opacity="0.29411764705882354" />
<path d="M225,-198 L202,-175 L142,-125 L183,-274 L36,-73 L215,-235 Z" stroke-width="0" fill="#5f7b76" fill-opacity="0.45098039215686275" />
<path d="M210,-121 L224,-39 L175,-93 L88,-217 L92,-192 L126,-268 Z" stroke-width="0" fill="#fac699" fill-opacity="0.5294117647058824" />
<path d="M118,-285 L70,-134 L126,-118 L195,-37 L86,-127 L45,-41 Z" stroke-width="0" fill="#88c749" fill-opacity="0.8274509803921568" />
<path d="M81,-100 L120,-161 L175,-207 L51,-230 L36,-251 L51,-179 Z" stroke-width="0" fill="#317d07" fill-opacity="0.7529411764705882" />
<path d="M116,-36 L71,-275 L36,-148 L48,-56 L230,-96 L193,-105 Z" stroke-width="0" fill="#4c6654" fill-opacity="0.9686274509803922" />
<path d="M68,-106 L51,-323 L206,-39 L49,-256 L158,-46 L141,-224 Z" stroke-width="0" fill="#5e8f39" fill-opacity="0.5450980392156862" />
<path d="M27,-219 L100,-228 L130,-82 L49,-239 L72,-71 L78,-290 Z" stroke-width="0" fill="#6a9447" fill-opacity="0.8588235294117647" />
<path d="M220,-244 L225,-79 L61,-143 L33,-310 L151,-166 L171,-67 Z" stroke-width="0" fill="#72b157" fill-opacity="0.9647058823529412" />
<path d="M231,-66 L133,-34 L146,-170 L94,-307 L195,-319 L59,-124 Z" stroke-width="0" fill="#0c2312" fill-opacity="0.7176470588235294" />
<path d="M34,-92 L48,-195 L170,-88 L239,-127 L162,-67 L234,-34 Z" stroke-width="0" fill="#5cd963" fill-opacity="0.5019607843137255" />
<path d="M91,-48 L121,-318 L132,-177 L191,-281 L127,-114 L99,-240 Z" stroke-width="0" fill="#330800" fill-opacity="0.7137254901960784" />
<path d="M170,-264 L59,-133 L90,-139 L135,-315 L229,-57 L26,-171 Z" stroke-width="0" fill="#008d12" fill-opacity="0.42745098039215684" />
<path d="M172,-47 L176,-154 L60,-131 L63,-201 L121,-35 L76,-318 Z" stroke-width="0" fill="#c3e759" fill-opacity="0.24313725490196078" />
<path d="M193,-92 L70,-99 L186,-83 L32,-120 L158,-233 L33,-195 Z" stroke-width="0" fill="#617a39" fill-opacity="0.5294117647058824" />
<path d="M132,-287 L204,-87 L154,-95 L237,-293 L188,-167 L59,-235 Z" stroke-width="0" fill="#b8ef21" fill-opacity="0.37254901960784315" />
<path d="M93,-103 L196,-317 L136,-276 L42,-224 L136,-230 L97,-55 Z" stroke-width="0" fill="#2b3f16" fill-opacity="0.8156862745098039" />
<path d="M55,-124 L161,-94 L100,-137 L126,-295 L127,-40 L205,-172 Z" stroke-width="0" fill="#552a8b" fill-opacity="0.615686274509804" />
<path d="M105,-189 L229,-117 L189,-105 L117,-40 L83,-270 L176,-142 Z" stroke-width="0" fill="#d6c968" fill-opacity="0.39215686274509803" />
<path d="M169,-148 L104,-91 L155,-147 L28,-78 L64,-141 L219,-168 Z" stroke-width="0" fill="#5b3422" fill-opacity="0.5607843137254902" />
<path d="M108,-228 L77,-64 L122,-104 L152,-234 L186,-107 L83,-145 Z" stroke-width="0" fill="#590016" fill-opacity="0.27058823529411763" />
<path d="M93,-53 L69,-247 L159,-252 L42,-133 L100,-324 L45,-231 Z" stroke-width="0" fill="#77873c" fill-opacity="0.5176470588235295" />
<path d="M166,-249 L112,-113 L191,-250 L174,-204 L217,-161 L116,-264 Z" stroke-width="0" fill="#d2c856" fill-opacity="0.9647058823529412" />
<path d="M204,-27 L49,-43 L140,-115 L129,-225 L41,-313 L195,-118 Z" stroke-width="0" fill="#4fce58" fill-opacity="0.7490196078431373" />
<path d="M67,-62 L51,-120 L149,-51 L82,-117 L34,-289 L224,-90 Z" stroke-width="0" fill="#4e9536" fill-opacity="0.37254901960784315" />
<path d="M66,-184 L115,-290 L232,-196 L73,-180 L116,-97 L140,-262 Z" stroke-width="0" fill="#b6f68b" fill-opacity="0.2784313725490196" />
<path d="M164,-322 L62,-246 L245,-307 L249,-67 L185,-154 L26,-239 Z" stroke-width="0" fill="#2f7019" fill-opacity="0.5490196078431373" />
<path d="M67,-63 L193,-258 L201,-75 L34,-243 L55,-261 L118,-72 Z" stroke-width="0" fill="#867169" fill-opacity="0.3137254901960784" />
<path d="M175,-70 L134,-253 L108,-105 L158,-104 L161,-93 L88,-273 Z" stroke-width="0" fill="#e9952a" fill-opacity="0.6823529411764706" />
<path d="M135,-306 L28,-163 L117,-200 L216,-149 L126,-66 L215,-99 Z" stroke-width="0" fill="#96bc33" fill-opacity="0.3843137254901961" />
<path d="M208,-149 L174,-73 L50,-44 L68,-155 L109,-128 L67,-125 Z" stroke-width="0" fill="#6bbd53" fill-opacity="0.25882352941176473" />
<path d="M112,-237 L154,-302 L225,-244 L178,-35 L114,-154 L155,-208 Z" stroke-width="0" fill="#5e442c" fill-opacity="0.2235294117647059" />
<path d="M164,-88 L184,-260 L84,-58 L38,-101 L245,-155 L114,-251 Z" stroke-width="0" fill="#7a867b" fill-opacity="0.3764705882352941" />
<path d="M119,-206 L47,-67 L131,-88 L99,-66 L211,-309 L136,-187 Z" stroke-width="0" fill="#6a0d24" fill-opacity="0.3254901960784314" />
<path d="M217,-140 L139,-250 L101,-145 L151,-173 L84,-112 L184,-113 Z" stroke-width="0" fill="#a1d36c" fill-opacity="0.4196078431372549" />
<path d="M228,-205 L165,-151 L234,-91 L62,-74 L207,-136 L77,-254 Z" stroke-width="0" fill="#a5c267" fill-opacity="0.2901960784313726" />
<path d="M151,-138 L77,-212 L247,-292 L161,-62 L177,-232 L74,-142 Z" stroke-width="0" fill="#1d7929" fill-opacity="0.3333333333333333" />
<path d="M76,-123 L98,-215 L139,-147 L211,-223 L153,-103 L87,-216 Z" stroke-width="0" fill="#add061" fill-opacity="0.23529411764705882" />
<path d="M34,-91 L171,-153 L68,-132 L84,-62 L236,-203 L147,-38 Z" stroke-width="0" fill="#7ab238" fill-opacity="0.4235294117647059" />
<path d="M237,-275 L72,-67 L221,-283 L138,-169 L65,-243 L128,-233 Z" stroke-width="0" fill="#b9be55" fill-opacity="0.5019607843137255" />
<path d="M117,-37 L185,-70 L161,-256 L31,-86 L74,-50 L214,-189 Z" stroke-width="0" fill="#87e332" fill-opacity="0.36470588235294116" />
<path d="M221,-200 L98,-266 L176,-201 L124,-37 L192,-42 L152,-100 Z" stroke-width="0" fill="#bb9328" fill-opacity="0.20784313725490197" />
<text x="137.5" y="12.5" font-size="20.0" fill="black" text-anchor="middle" transform="translate(0,5.0)">LIFE</text>
</svg>