<?xml version="1.0" encoding="UTF-8"?>
<svg xmlns="http://www.w3.org/2000/svg" xmlns:xlink="http://www.w3.org/1999/xlink"
     width="896" height="1496" viewBox="0 -1400 896 1496" style="font-size:70;font-family:Poor Richard, Times New Roman;stroke:black;stroke-width:1;fill:none">
<defs>
</defs>
<path d="M682,-1230 L386,-838 L194,-1146 L734,-954 L254,-414 L398,-202 Z" stroke-width="0" fill="#939555" fill-opacity="0.9137254901960784" />
<path d="M646,-978 L242,-1222 L546,-538 L510,-346 L506,-506 L226,-958 Z" stroke-width="0" fill="#000700" fill-opacity="0.6431372549019608" />
<path d="M798,-930 L398,-366 L742,-666 L202,-1082 L770,-986 L802,-122 Z" stroke-width="0" fill="#001c12" fill-opacity="0.9098039215686274" />
<path d="M354,-1138 L182,-334 L230,-634 L458,-874 L178,-850 L170,-1074 Z" stroke-width="0" fill="#002910" fill-opacity="0.8901960784313725" />
<path d="M638,-1178 L102,-350 L602,-410 L810,-158 L466,-858 L726,-822 Z" stroke-width="0" fill="#003b00" fill-opacity="0.5019607843137255" />
<path d="M114,-186 L98,-462 L718,-594 L582,-466 L366,-1294 L542,-1034 Z" stroke-width="0" fill="#000000" fill-opacity="0.9764705882352941" />
<path d="M154,-294 L306,-1242 L562,-1018 L290,-1014 L290,-866 L566,-106 Z" stroke-width="0" fill="#031803" fill-opacity="0.5058823529411764" />
<path d="M398,-302 L510,-302 L94,-126 L178,-874 L678,-570 L390,-818 Z" stroke-width="0" fill="#001f07" fill-opacity="0.8470588235294118" />
<path d="M254,-698 L534,-310 L126,-358 L90,-522 L418,-638 L430,-490 Z" stroke-width="0" fill="#000000" fill-opacity="0.7843137254901961" />
<path d="M502,-522 L430,-1222 L506,-454 L234,-618 L146,-350 L606,-230 Z" stroke-width="0" fill="#029b07" fill-opacity="0.796078431372549" />
<path d="M406,-418 L654,-478 L154,-134 L82,-1174 L546,-686 L126,-634 Z" stroke-width="0" fill="#000000" fill-opacity="0.8392156862745098" />
<path d="M326,-1174 L698,-410 L266,-1130 L510,-1262 L434,-1294 L106,-1214 Z" stroke-width="0" fill="#001e02" fill-opacity="0.9803921568627451" />
<path d="M186,-422 L782,-974 L126,-406 L678,-1310 L370,-146 L794,-834 Z" stroke-width="0" fill="#000000" fill-opacity="0.8705882352941177" />
<path d="M98,-1106 L422,-658 L266,-950 L646,-122 L254,-142 L122,-1122 Z" stroke-width="0" fill="#000600" fill-opacity="0.611764705882353" />
<path d="M134,-274 L362,-1310 L118,-586 L558,-342 L578,-358 L174,-654 Z" stroke-width="0" fill="#002010" fill-opacity="0.9294117647058824" />
<path d="M626,-1150 L222,-922 L122,-1170 L138,-466 L282,-642 L218,-850 Z" stroke-width="0" fill="#000000" fill-opacity="0.9764705882352941" />
<path d="M614,-1234 L566,-742 L98,-986 L354,-750 L150,-490 L414,-1066 Z" stroke-width="0" fill="#000000" fill-opacity="0.9607843137254902" />
<path d="M290,-1054 L406,-1066 L690,-1058 L758,-526 L586,-370 L606,-394 Z" stroke-width="0" fill="#054b96" fill-opacity="0.5019607843137255" />
<path d="M126,-846 L102,-438 L786,-610 L242,-1146 L398,-246 L478,-150 Z" stroke-width="0" fill="#000008" fill-opacity="0.9568627450980393" />
<path d="M790,-266 L122,-106 L482,-682 L194,-142 L142,-890 L366,-302 Z" stroke-width="0" fill="#075e4d" fill-opacity="0.6941176470588235" />
<path d="M474,-278 L290,-230 L810,-318 L534,-438 L210,-498 L294,-594 Z" stroke-width="0" fill="#0f5c40" fill-opacity="0.7568627450980392" />
<path d="M538,-1174 L462,-890 L198,-1238 L298,-442 L522,-1066 L242,-1066 Z" stroke-width="0" fill="#000000" fill-opacity="0.8392156862745098" />
<path d="M490,-1142 L754,-994 L634,-90 L122,-1278 L618,-282 L782,-1286 Z" stroke-width="0" fill="#071844" fill-opacity="0.8588235294117647" />
<path d="M294,-1030 L418,-226 L142,-1078 L334,-150 L278,-850 L510,-1146 Z" stroke-width="0" fill="#070003" fill-opacity="0.8235294117647058" />
<path d="M122,-442 L570,-294 L294,-1054 L518,-146 L790,-402 L482,-174 Z" stroke-width="0" fill="#255d2a" fill-opacity="0.5568627450980392" />
<path d="M198,-366 L618,-1218 L778,-178 L82,-494 L774,-1054 L182,-830 Z" stroke-width="0" fill="#1a0900" fill-opacity="0.5686274509803921" />
<path d="M530,-158 L790,-586 L454,-798 L618,-86 L474,-214 L590,-982 Z" stroke-width="0" fill="#174400" fill-opacity="0.5882352941176471" />
<path d="M578,-854 L662,-674 L166,-790 L730,-442 L586,-742 L182,-1022 Z" stroke-width="0" fill="#f723f9" fill-opacity="0.9254901960784314" />
<path d="M166,-1010 L138,-1006 L446,-558 L530,-862 L658,-502 L490,-690 Z" stroke-width="0" fill="#361caa" fill-opacity="0.30980392156862746" />
<path d="M594,-882 L142,-1086 L410,-502 L314,-714 L562,-1098 L382,-302 Z" stroke-width="0" fill="#000000" fill-opacity="0.6509803921568628" />
<path d="M622,-470 L162,-286 L222,-458 L226,-482 L322,-486 L798,-1038 Z" stroke-width="0" fill="#12261e" fill-opacity="0.9098039215686274" />
<path d="M662,-82 L478,-1306 L498,-1138 L298,-494 L654,-782 L230,-310 Z" stroke-width="0" fill="#605200" fill-opacity="0.5686274509803921" />
<path d="M766,-610 L94,-162 L126,-778 L322,-190 L558,-1078 L774,-358 Z" stroke-width="0" fill="#000005" fill-opacity="0.7686274509803922" />
<path d="M234,-274 L810,-338 L762,-366 L806,-266 L410,-1130 L698,-218 Z" stroke-width="0" fill="#23002b" fill-opacity="0.7607843137254902" />
<path d="M102,-190 L414,-314 L706,-674 L98,-474 L526,-114 L458,-218 Z" stroke-width="0" fill="#773642" fill-opacity="0.7215686274509804" />
<path d="M490,-1254 L782,-186 L634,-898 L102,-610 L226,-342 L162,-142 Z" stroke-width="0" fill="#1e3d30" fill-opacity="0.7176470588235294" />
<path d="M282,-734 L726,-1310 L158,-942 L370,-898 L382,-926 L526,-1062 Z" stroke-width="0" fill="#222d04" fill-opacity="0.8" />
<path d="M306,-162 L306,-98 L334,-198 L582,-698 L570,-806 L110,-826 Z" stroke-width="0" fill="#100106" fill-opacity="0.807843137254902" />
<path d="M486,-898 L562,-522 L718,-1206 L394,-634 L678,-782 L358,-1018 Z" stroke-width="0" fill="#002000" fill-opacity="0.6745098039215687" />
<path d="M106,-942 L594,-934 L330,-586 L634,-302 L178,-182 L278,-1134 Z" stroke-width="0" fill="#000c14" fill-opacity="0.7607843137254902" />
<path d="M486,-646 L382,-1110 L530,-1114 L98,-918 L146,-94 L670,-318 Z" stroke-width="0" fill="#010009" fill-opacity="0.8980392156862745" />
<path d="M402,-1186 L598,-578 L194,-1194 L130,-314 L222,-726 L530,-746 Z" stroke-width="0" fill="#030d0e" fill-opacity="0.8745098039215686" />
<path d="M450,-1162 L210,-82 L762,-1038 L670,-250 L490,-630 L410,-694 Z" stroke-width="0" fill="#15312a" fill-opacity="0.9176470588235294" />
<path d="M330,-1010 L314,-566 L402,-1294 L426,-278 L422,-950 L146,-442 Z" stroke-width="0" fill="#2e1f06" fill-opacity="0.4235294117647059" />
<path d="M214,-134 L490,-850 L490,-338 L582,-278 L486,-114 L774,-1230 Z" stroke-width="0" fill="#f9fca9" fill-opacity="0.00784313725490196" />
<path d="M178,-478 L770,-446 L94,-574 L90,-1006 L110,-394 L302,-378 Z" stroke-width="0" fill="#000000" fill-opacity="0.9215686274509803" />
<path d="M450,-206 L578,-274 L358,-882 L246,-258 L602,-326 L98,-410 Z" stroke-width="0" fill="#530702" fill-opacity="0.5490196078431373" />
<path d="M586,-462 L250,-886 L198,-130 L438,-974 L230,-1138 L258,-1086 Z" stroke-width="0" fill="#5ac148" fill-opacity="0.2980392156862745" />
<path d="M630,-290 L646,-1262 L150,-494 L162,-154 L682,-826 L238,-1034 Z" stroke-width="0" fill="#162a03" fill-opacity="0.4745098039215686" />
<path d="M294,-1030 L390,-726 L762,-890 L474,-682 L266,-1182 L278,-1314 Z" stroke-width="0" fill="#072806" fill-opacity="0.792156862745098" />
<path d="M486,-1186 L462,-1226 L590,-1270 L402,-406 L670,-662 L86,-1002 Z" stroke-width="0" fill="#000003" fill-opacity="0.8156862745098039" />
<path d="M758,-730 L402,-690 L210,-450 L750,-466 L586,-290 L186,-910 Z" stroke-width="0" fill="#230009" fill-opacity="0.6235294117647059" />
<path d="M282,-218 L330,-1270 L426,-1046 L218,-366 L630,-938 L522,-874 Z" stroke-width="0" fill="#4a116c" fill-opacity="0.2235294117647059" />
<path d="M418,-1086 L306,-326 L94,-178 L450,-434 L714,-990 L414,-110 Z" stroke-width="0" fill="#0a1300" fill-opacity="0.5882352941176471" />
<path d="M422,-282 L730,-126 L774,-218 L94,-222 L342,-602 L178,-434 Z" stroke-width="0" fill="#003705" fill-opacity="0.615686274509804" />
<path d="M318,-1290 L334,-698 L762,-1034 L606,-938 L614,-1034 L382,-1066 Z" stroke-width="0" fill="#061a0a" fill-opacity="0.9098039215686274" />
<path d="M146,-598 L650,-962 L202,-482 L334,-166 L318,-230 L722,-746 Z" stroke-width="0" fill="#932981" fill-opacity="0.592156862745098" />
<path d="M390,-586 L238,-1166 L90,-882 L806,-1290 L702,-1246 L598,-982 Z" stroke-width="0" fill="#0c0600" fill-opacity="0.5568627450980392" />
<path d="M506,-210 L158,-842 L286,-1026 L302,-958 L658,-1290 L522,-122 Z" stroke-width="0" fill="#1e050c" fill-opacity="0.6823529411764706" />
<path d="M254,-1002 L302,-462 L274,-846 L550,-390 L410,-202 L366,-1066 Z" stroke-width="0" fill="#b8b4c7" fill-opacity="0.4117647058823529" />
<path d="M718,-838 L294,-442 L174,-1154 L598,-734 L578,-114 L534,-586 Z" stroke-width="0" fill="#000b05" fill-opacity="0.8745098039215686" />
<path d="M110,-466 L86,-534 L686,-1018 L370,-802 L186,-454 L278,-1122 Z" stroke-width="0" fill="#000000" fill-opacity="0.8666666666666667" />
<path d="M622,-202 L550,-630 L106,-578 L538,-718 L194,-1270 L450,-1190 Z" stroke-width="0" fill="#0d1700" fill-opacity="0.7803921568627451" />
<path d="M322,-1114 L338,-730 L158,-670 L442,-98 L734,-1054 L258,-830 Z" stroke-width="0" fill="#374a32" fill-opacity="0.7137254901960784" />
<path d="M474,-770 L162,-198 L474,-1046 L610,-286 L342,-242 L218,-218 Z" stroke-width="0" fill="#6edc39" fill-opacity="0.00784313725490196" />
<path d="M94,-118 L314,-334 L690,-358 L662,-858 L690,-954 L686,-1130 Z" stroke-width="0" fill="#0a1013" fill-opacity="0.6196078431372549" />
<path d="M774,-1050 L346,-654 L266,-326 L290,-582 L118,-394 L122,-186 Z" stroke-width="0" fill="#0f0210" fill-opacity="0.5019607843137255" />
<path d="M250,-290 L374,-490 L658,-274 L782,-410 L554,-702 L354,-1298 Z" stroke-width="0" fill="#324e54" fill-opacity="0.5019607843137255" />
<path d="M574,-138 L618,-882 L130,-874 L258,-994 L314,-366 L130,-1106 Z" stroke-width="0" fill="#081a00" fill-opacity="0.12941176470588237" />
<path d="M302,-486 L678,-1222 L394,-826 L354,-122 L170,-198 L530,-974 Z" stroke-width="0" fill="#001d00" fill-opacity="0.9137254901960784" />
<path d="M494,-138 L438,-158 L106,-270 L646,-678 L498,-738 L798,-786 Z" stroke-width="0" fill="#003c00" fill-opacity="0.5019607843137255" />
<path d="M614,-438 L90,-898 L138,-982 L166,-430 L386,-882 L202,-154 Z" stroke-width="0" fill="#000000" fill-opacity="0.596078431372549" />
<path d="M138,-958 L706,-842 L590,-118 L618,-322 L430,-402 L298,-998 Z" stroke-width="0" fill="#093e1d" fill-opacity="0.10588235294117647" />
<path d="M98,-798 L146,-398 L446,-646 L150,-806 L450,-1302 L542,-1074 Z" stroke-width="0" fill="#0d0c0d" fill-opacity="0.8862745098039215" />
<path d="M178,-138 L550,-366 L166,-242 L742,-110 L562,-330 L214,-610 Z" stroke-width="0" fill="#3b6443" fill-opacity="0.4823529411764706" />
<path d="M646,-978 L118,-526 L722,-282 L646,-306 L482,-986 L778,-922 Z" stroke-width="0" fill="#050019" fill-opacity="0.4588235294117647" />
<path d="M142,-834 L134,-750 L358,-762 L154,-338 L798,-386 L666,-666 Z" stroke-width="0" fill="#0d421c" fill-opacity="0.5411764705882353" />
<path d="M562,-710 L198,-1002 L598,-962 L182,-614 L530,-586 L790,-466 Z" stroke-width="0" fill="#1d0027" fill-opacity="0.27450980392156865" />
<path d="M162,-294 L294,-1226 L142,-426 L422,-158 L158,-658 L138,-134 Z" stroke-width="0" fill="#3d1b20" fill-opacity="0.1450980392156863" />
<path d="M490,-522 L450,-746 L582,-374 L170,-850 L338,-470 L474,-862 Z" stroke-width="0" fill="#00310c" fill-opacity="0.5019607843137255" />
<path d="M290,-818 L114,-86 L142,-234 L178,-438 L462,-1002 L130,-714 Z" stroke-width="0" fill="#160008" fill-opacity="0.7294117647058823" />
<path d="M310,-250 L450,-754 L182,-194 L222,-750 L650,-326 L146,-942 Z" stroke-width="0" fill="#000600" fill-opacity="0.5254901960784314" />
<path d="M770,-806 L394,-142 L334,-442 L686,-1090 L270,-178 L350,-122 Z" stroke-width="0" fill="#9a0100" fill-opacity="0.08627450980392157" />
<path d="M534,-1166 L746,-382 L234,-966 L558,-418 L462,-1158 L594,-122 Z" stroke-width="0" fill="#3f4252" fill-opacity="0.30196078431372547" />
<path d="M318,-426 L530,-250 L142,-1222 L406,-1242 L230,-598 L450,-618 Z" stroke-width="0" fill="#040006" fill-opacity="0.5019607843137255" />
<path d="M478,-186 L258,-958 L358,-886 L246,-130 L218,-174 L806,-570 Z" stroke-width="0" fill="#24185c" fill-opacity="0.2627450980392157" />
<path d="M370,-114 L250,-174 L278,-558 L714,-550 L626,-346 L430,-750 Z" stroke-width="0" fill="#33425e" fill-opacity="0.5019607843137255" />
<path d="M562,-906 L630,-1006 L642,-530 L530,-690 L710,-242 L210,-1030 Z" stroke-width="0" fill="#0b0007" fill-opacity="0.5019607843137255" />
<path d="M746,-506 L282,-1214 L730,-502 L522,-526 L486,-350 L578,-834 Z" stroke-width="0" fill="#698c29" fill-opacity="0.09411764705882353" />
<path d="M742,-646 L454,-1054 L346,-274 L418,-1018 L178,-1238 L222,-1058 Z" stroke-width="0" fill="#0f0019" fill-opacity="0.403921568627451" />
<path d="M506,-194 L714,-490 L558,-734 L550,-262 L170,-174 L354,-542 Z" stroke-width="0" fill="#0f1f01" fill-opacity="0.5019607843137255" />
<path d="M358,-418 L118,-234 L574,-598 L678,-542 L350,-974 L482,-1122 Z" stroke-width="0" fill="#303603" fill-opacity="0.23921568627450981" />
<path d="M146,-506 L370,-306 L386,-86 L106,-602 L746,-1290 L350,-402 Z" stroke-width="0" fill="#001e0e" fill-opacity="0.5490196078431373" />
<path d="M730,-654 L522,-1122 L662,-398 L754,-674 L470,-882 L158,-1090 Z" stroke-width="0" fill="#00001c" fill-opacity="0.38823529411764707" />
<path d="M510,-562 L638,-1134 L362,-746 L530,-862 L554,-922 L226,-894 Z" stroke-width="0" fill="#100504" fill-opacity="0.803921568627451" />
<path d="M790,-818 L370,-778 L410,-1162 L550,-402 L270,-94 L290,-670 Z" stroke-width="0" fill="#11170b" fill-opacity="0.803921568627451" />
<path d="M794,-110 L118,-810 L662,-898 L162,-234 L190,-706 L82,-358 Z" stroke-width="0" fill="#1d112d" fill-opacity="0.396078431372549" />
<path d="M106,-106 L110,-578 L254,-1126 L118,-550 L290,-1158 L754,-694 Z" stroke-width="0" fill="#001200" fill-opacity="0.5019607843137255" />
<path d="M430,-122 L350,-490 L98,-478 L494,-1262 L802,-1126 L530,-346 Z" stroke-width="0" fill="#000200" fill-opacity="0.45098039215686275" />
<path d="M294,-582 L450,-466 L666,-558 L370,-206 L90,-882 L574,-306 Z" stroke-width="0" fill="#382621" fill-opacity="0.15294117647058825" />
<text x="448.0" y="0" font-size="70.0" fill="black" text-anchor="middle" transform="translate(0,17.5)">NATURE</text>
</svg>