<?xml version="1.0" encoding="UTF-8"?>
<svg xmlns="http://www.w3.org/2000/svg" xmlns:xlink="http://www.w3.org/1999/xlink"
     width="275" height="375" viewBox="0 -350 275 375">
<defs>
</defs>
<rect x="15" y="-335" width="245" height="320" stroke="black" stroke-width="4" fill="white" />
<path d="M71,-189 L118,-234 L103,-113 L89,-226 L40,-251 L145,-305 Z" stroke-width="0" fill="#000027" fill-opacity="0.9411764705882353" />
<path d="M29,-50 L137,-84 L63,-57 L78,-70 L63,-286 L38,-34 Z" stroke-width="0" fill="#000000" fill-opacity="0.5607843137254902" />
<path d="M96,-26 L78,-84 L48,-129 L74,-125 L140,-291 L238,-84 Z" stroke-width="0" fill="#000000" fill-opacity="0.8941176470588236" />
<path d="M41,-282 L233,-77 L98,-216 L197,-134 L237,-272 L90,-209 Z" stroke-width="0" fill="#36b500" fill-opacity="0.9372549019607843" />
<path d="M194,-63 L84,-168 L98,-103 L107,-104 L117,-152 L71,-35 Z" stroke-width="0" fill="#d4ffad" fill-opacity="0.8549019607843137" />
<path d="M169,-260 L128,-146 L110,-160 L37,-323 L100,-82 L108,-310 Z" stroke-width="0" fill="#154900" fill-opacity="0.8549019607843137" />
<path d="M99,-154 L156,-86 L29,-34 L77,-39 L82,-310 L167,-61 Z" stroke-width="0" fill="#43de00" fill-opacity="0.6666666666666666" />
<path d="M57,-188 L66,-275 L76,-45 L197,-204 L146,-95 L49,-106 Z" stroke-width="0" fill="#94019d" fill-opacity="0.32941176470588235" />
<path d="M238,-296 L186,-144 L87,-29 L123,-47 L97,-223 L241,-88 Z" stroke-width="0" fill="#302100" fill-opacity="0.8117647058823529" />
<path d="M197,-282 L147,-159 L28,-117 L132,-58 L161,-189 L27,-218 Z" stroke-width="0" fill="#000000" fill-opacity="0.8784313725490196" />
<path d="M91,-175 L221,-32 L54,-210 L55,-91 L147,-221 L74,-96 Z" stroke-width="0" fill="#9f1e39" fill-opacity="0.2" />
<path d="M35,-270 L128,-236 L25,-229 L220,-104 L140,-121 L38,-101 Z" stroke-width="0" fill="#052b00" fill-opacity="0.7176470588235294" />
<path d="M98,-266 L129,-319 L44,-111 L93,-162 L145,-106 L213,-236 Z" stroke-width="0" fill="#523c1b" fill-opacity="0.9764705882352941" />
<path d="M210,-121 L112,-254 L104,-277 L45,-105 L176,-127 L111,-280 Z" stroke-width="0" fill="#7ae098" fill-opacity="0.6431372549019608" />
<path d="M231,-282 L246,-318 L26,-101 L36,-125 L67,-44 L138,-200 Z" stroke-width="0" fill="#2d4100" fill-opacity="0.8823529411764706" />
<path d="M176,-60 L105,-215 L77,-83 L161,-102 L58,-262 L144,-52 Z" stroke-width="0" fill="#2974b1" fill-opacity="0.1450980392156863" />
<path d="M79,-279 L237,-48 L197,-35 L56,-146 L130,-47 L209,-299 Z" stroke-width="0" fill="#000204" fill-opacity="0.7450980392156863" />
<path d="M52,-262 L142,-57 L209,-303 L161,-162 L139,-44 L215,-282 Z" stroke-width="0" fill="#76877f" fill-opacity="0.9882352941176471" />
<path d="M192,-246 L141,-188 L46,-54 L58,-113 L160,-213 L162,-130 Z" stroke-width="0" fill="#e6d31d" fill-opacity="0.42745098039215684" />
<path d="M243,-260 L68,-286 L136,-29 L71,-141 L240,-115 L191,-204 Z" stroke-width="0" fill="#265800" fill-opacity="0.7803921568627451" />
<path d="M48,-115 L92,-228 L58,-91 L76,-160 L113,-257 L136,-165 Z" stroke-width="0" fill="#7b4aa4" fill-opacity="0.5333333333333333" />
<path d="M72,-65 L119,-97 L61,-143 L73,-288 L103,-178 L184,-251 Z" stroke-width="0" fill="#237f26" fill-opacity="0.6666666666666666" />
<path d="M126,-258 L221,-309 L109,-305 L70,-44 L170,-213 L54,-69 Z" stroke-width="0" fill="#032400" fill-opacity="0.8627450980392157" />
<path d="M188,-180 L92,-95 L180,-216 L97,-195 L168,-56 L209,-228 Z" stroke-width="0" fill="#2e06e0" fill-opacity="0.984313725490196" />
<path d="M237,-99 L115,-167 L243,-160 L121,-28 L120,-129 L47,-294 Z" stroke-width="0" fill="#001100" fill-opacity="0.9019607843137255" />
<path d="M136,-243 L239,-183 L225,-310 L66,-172 L82,-317 L231,-37 Z" stroke-width="0" fill="#327900" fill-opacity="0.6745098039215687" />
<path d="M171,-147 L93,-62 L51,-224 L149,-153 L109,-114 L44,-137 Z" stroke-width="0" fill="#2c6bd3" fill-opacity="0.5019607843137255" />
<path d="M216,-92 L95,-138 L237,-299 L99,-179 L87,-138 L149,-179 Z" stroke-width="0" fill="#2e209d" fill-opacity="0.14901960784313725" />
<path d="M31,-139 L183,-219 L167,-91 L101,-38 L171,-31 L221,-132 Z" stroke-width="0" fill="#353f0f" fill-opacity="0.9568627450980393" />
<path d="M168,-225 L81,-293 L147,-50 L203,-157 L55,-172 L224,-147 Z" stroke-width="0" fill="#19c0d2" fill-opacity="0.9176470588235294" />
<path d="M46,-151 L210,-157 L127,-272 L86,-135 L76,-195 L194,-191 Z" stroke-width="0" fill="#980bf5" fill-opacity="0.5411764705882353" />
<path d="M68,-130 L146,-163 L62,-32 L164,-290 L36,-260 L29,-131 Z" stroke-width="0" fill="#0f2000" fill-opacity="0.9333333333333333" />
<path d="M35,-52 L168,-167 L240,-129 L66,-134 L191,-65 L180,-101 Z" stroke-width="0" fill="#826987" fill-opacity="0.7843137254901961" />
<path d="M197,-197 L87,-98 L153,-99 L63,-166 L78,-86 L142,-251 Z" stroke-width="0" fill="#002727" fill-opacity="0.2549019607843137" />
<path d="M116,-118 L121,-176 L244,-201 L104,-109 L89,-287 L172,-238 Z" stroke-width="0" fill="#47672d" fill-opacity="0.9607843137254902" />
<path d="M103,-273 L135,-231 L115,-52 L174,-107 L141,-189 L36,-192 Z" stroke-width="0" fill="#905604" fill-opacity="0.20392156862745098" />
<path d="M135,-104 L166,-119 L52,-282 L77,-319 L143,-133 L163,-40 Z" stroke-width="0" fill="#004500" fill-opacity="0.8431372549019608" />
<path d="M41,-70 L42,-149 L237,-165 L138,-226 L142,-310 L217,-303 Z" stroke-width="0" fill="#394801" fill-opacity="0.7372549019607844" />
<path d="M217,-262 L43,-27 L69,-68 L98,-54 L222,-183 L89,-115 Z" stroke-width="0" fill="#15002c" fill-opacity="0.7294117647058823" />
<path d="M28,-108 L26,-36 L242,-219 L78,-215 L196,-180 L242,-315 Z" stroke-width="0" fill="#1a2100" fill-opacity="0.9725490196078431" />
<path d="M114,-272 L31,-131 L64,-169 L226,-218 L135,-95 L186,-70 Z" stroke-width="0" fill="#170054" fill-opacity="0.15294117647058825" />
<path d="M151,-81 L185,-316 L91,-130 L221,-60 L137,-248 L148,-36 Z" stroke-width="0" fill="#867611" fill-opacity="0.6705882352941176" />
<path d="M102,-143 L179,-240 L90,-195 L169,-215 L117,-49 L87,-242 Z" stroke-width="0" fill="#4686e0" fill-opacity="0.996078431372549" />
<path d="M59,-159 L109,-82 L41,-80 L195,-30 L101,-287 L111,-206 Z" stroke-width="0" fill="#253c25" fill-opacity="0.8901960784313725" />
<path d="M199,-69 L220,-285 L237,-123 L45,-140 L96,-86 L123,-65 Z" stroke-width="0" fill="#526025" fill-opacity="0.7333333333333333" />
<path d="M98,-280 L156,-219 L46,-153 L62,-28 L196,-251 L217,-239 Z" stroke-width="0" fill="#271017" fill-opacity="0.9058823529411765" />
<path d="M224,-27 L35,-124 L105,-219 L96,-86 L192,-284 L144,-142 Z" stroke-width="0" fill="#001500" fill-opacity="0.7254901960784313" />
<path d="M173,-77 L98,-308 L83,-105 L162,-239 L79,-285 L133,-175 Z" stroke-width="0" fill="#1b6e00" fill-opacity="0.9490196078431372" />
<path d="M39,-131 L229,-25 L72,-201 L244,-186 L89,-78 L197,-186 Z" stroke-width="0" fill="#4b6545" fill-opacity="0.5019607843137255" />
<path d="M34,-142 L39,-221 L191,-26 L137,-66 L90,-225 L41,-137 Z" stroke-width="0" fill="#2f1211" fill-opacity="0.6549019607843137" />
<path d="M138,-220 L71,-289 L38,-175 L105,-102 L82,-33 L230,-312 Z" stroke-width="0" fill="#5dad52" fill-opacity="0.6196078431372549" />
<path d="M64,-299 L109,-162 L225,-277 L156,-273 L50,-38 L246,-46 Z" stroke-width="0" fill="#184000" fill-opacity="0.8117647058823529" />
<path d="M202,-48 L204,-128 L192,-197 L66,-91 L121,-123 L213,-46 Z" stroke-width="0" fill="#850ad4" fill-opacity="0.10980392156862745" />
<path d="M141,-250 L67,-112 L38,-171 L96,-245 L70,-203 L126,-280 Z" stroke-width="0" fill="#563b17" fill-opacity="0.9686274509803922" />
<path d="M183,-176 L80,-69 L247,-241 L30,-238 L184,-206 L54,-206 Z" stroke-width="0" fill="#2e6e18" fill-opacity="0.8" />
<path d="M136,-121 L176,-205 L44,-87 L68,-82 L76,-126 L162,-126 Z" stroke-width="0" fill="#2093bf" fill-opacity="0.07058823529411765" />
<path d="M69,-213 L201,-34 L25,-201 L98,-121 L52,-127 L135,-156 Z" stroke-width="0" fill="#272f1c" fill-opacity="0.8745098039215686" />
<path d="M232,-307 L47,-295 L40,-43 L185,-302 L249,-104 L206,-25 Z" stroke-width="0" fill="#3f5116" fill-opacity="0.9568627450980393" />
<path d="M230,-99 L223,-53 L178,-129 L194,-37 L149,-139 L42,-68 Z" stroke-width="0" fill="#2b7e74" fill-opacity="0.1568627450980392" />
<path d="M30,-42 L76,-142 L64,-132 L139,-229 L148,-242 L83,-94 Z" stroke-width="0" fill="#262c17" fill-opacity="0.4392156862745098" />
<path d="M163,-314 L125,-200 L55,-320 L39,-68 L168,-317 L102,-272 Z" stroke-width="0" fill="#0e1e00" fill-opacity="0.7294117647058823" />
<path d="M147,-161 L232,-99 L155,-30 L207,-76 L128,-180 L36,-160 Z" stroke-width="0" fill="#251d00" fill-opacity="0.5607843137254902" />
<path d="M181,-62 L187,-206 L78,-229 L196,-119 L63,-75 L196,-241 Z" stroke-width="0" fill="#0908d3" fill-opacity="0.1607843137254902" />
<path d="M76,-160 L47,-214 L62,-120 L62,-288 L125,-147 L63,-293 Z" stroke-width="0" fill="#19d40d" fill-opacity="0.1568627450980392" />
<path d="M174,-320 L42,-168 L53,-84 L239,-297 L56,-108 L170,-225 Z" stroke-width="0" fill="#342d00" fill-opacity="0.6862745098039216" />
<path d="M73,-51 L72,-260 L172,-73 L162,-100 L233,-64 L168,-117 Z" stroke-width="0" fill="#175543" fill-opacity="0.10588235294117647" />
<path d="M157,-283 L96,-60 L34,-240 L164,-217 L176,-310 L147,-105 Z" stroke-width="0" fill="#c4a91f" fill-opacity="0.32941176470588235" />
<path d="M72,-314 L111,-191 L234,-66 L110,-112 L38,-45 L81,-311 Z" stroke-width="0" fill="#0a0000" fill-opacity="0.3686274509803922" />
<path d="M50,-123 L88,-249 L129,-99 L125,-163 L238,-83 L184,-39 Z" stroke-width="0" fill="#615931" fill-opacity="0.27058823529411763" />
<path d="M182,-260 L70,-158 L202,-289 L104,-212 L127,-182 L136,-233 Z" stroke-width="0" fill="#e2bbde" fill-opacity="0.18823529411764706" />
<path d="M201,-43 L84,-158 L162,-216 L105,-163 L123,-108 L174,-130 Z" stroke-width="0" fill="#1a3e12" fill-opacity="0.615686274509804" />
<path d="M222,-70 L116,-123 L159,-277 L132,-158 L130,-111 L114,-111 Z" stroke-width="0" fill="#018430" fill-opacity="0.23529411764705882" />
<path d="M244,-49 L105,-265 L226,-92 L53,-29 L161,-256 L236,-67 Z" stroke-width="0" fill="#050f1a" fill-opacity="0.5058823529411764" />
<path d="M126,-232 L96,-80 L198,-105 L49,-148 L108,-219 L179,-227 Z" stroke-width="0" fill="#162913" fill-opacity="0.5137254901960784" />
<path d="M155,-207 L202,-147 L177,-157 L203,-275 L115,-77 L114,-180 Z" stroke-width="0" fill="#68b390" fill-opacity="0.5019607843137255" />
<path d="M128,-104 L61,-26 L145,-108 L248,-128 L187,-278 L116,-33 Z" stroke-width="0" fill="#0e2600" fill-opacity="0.6666666666666666" />
<path d="M129,-149 L45,-83 L95,-293 L217,-171 L169,-42 L106,-45 Z" stroke-width="0" fill="#0e3326" fill-opacity="0.13725490196078433" />
<path d="M110,-235 L60,-111 L79,-91 L34,-68 L147,-291 L87,-58 Z" stroke-width="0" fill="#2e0000" fill-opacity="0.5254901960784314" />
<path d="M130,-260 L142,-33 L41,-203 L81,-101 L105,-301 L196,-62 Z" stroke-width="0" fill="#2b3113" fill-opacity="0.5019607843137255" />
<path d="M64,-125 L182,-224 L169,-287 L108,-26 L118,-38 L31,-27 Z" stroke-width="0" fill="#0e0017" fill-opacity="0.9803921568627451" />
<path d="M150,-259 L38,-281 L108,-47 L196,-158 L35,-287 L137,-161 Z" stroke-width="0" fill="#20400c" fill-opacity="1.0" />
<path d="M124,-57 L202,-209 L134,-247 L42,-148 L149,-64 L245,-57 Z" stroke-width="0" fill="#130912" fill-opacity="0.3333333333333333" />
<path d="M168,-49 L48,-257 L103,-68 L194,-196 L37,-244 L92,-270 Z" stroke-width="0" fill="#1f3d00" fill-opacity="0.25098039215686274" />
<path d="M122,-93 L125,-241 L118,-229 L72,-100 L180,-99 L63,-279 Z" stroke-width="0" fill="#093200" fill-opacity="0.3803921568627451" />
<path d="M124,-199 L68,-56 L78,-37 L212,-252 L146,-124 L80,-95 Z" stroke-width="0" fill="#10aa52" fill-opacity="0.19215686274509805" />
<path d="M50,-228 L123,-61 L65,-131 L139,-163 L92,-139 L93,-47 Z" stroke-width="0" fill="#021d2d" fill-opacity="0.5058823529411764" />
<path d="M54,-31 L61,-199 L43,-220 L190,-85 L83,-129 L153,-222 Z" stroke-width="0" fill="#350000" fill-opacity="0.5019607843137255" />
<path d="M42,-70 L233,-139 L166,-103 L73,-216 L91,-103 L33,-307 Z" stroke-width="0" fill="#004b00" fill-opacity="0.5529411764705883" />
<path d="M117,-87 L63,-286 L208,-227 L121,-27 L103,-66 L82,-182 Z" stroke-width="0" fill="#e7fd57" fill-opacity="0.050980392156862744" />
<path d="M178,-262 L184,-25 L233,-166 L63,-162 L62,-296 L47,-182 Z" stroke-width="0" fill="#522212" fill-opacity="0.1568627450980392" />
<path d="M92,-247 L64,-256 L249,-257 L153,-104 L67,-263 L124,-190 Z" stroke-width="0" fill="#4b7108" fill-opacity="0.4196078431372549" />
<path d="M39,-29 L230,-315 L122,-291 L179,-231 L239,-263 L146,-118 Z" stroke-width="0" fill="#42611e" fill-opacity="0.7372549019607844" />
<path d="M25,-182 L93,-168 L125,-289 L220,-157 L152,-82 L110,-207 Z" stroke-width="0" fill="#303008" fill-opacity="0.596078431372549" />
<path d="M197,-155 L130,-205 L205,-178 L89,-47 L84,-153 L32,-52 Z" stroke-width="0" fill="#00070c" fill-opacity="0.28627450980392155" />
<path d="M184,-220 L169,-241 L57,-120 L81,-78 L172,-51 L111,-44 Z" stroke-width="0" fill="#391a00" fill-opacity="0.27058823529411763" />
<path d="M184,-128 L180,-140 L118,-301 L33,-132 L113,-282 L204,-138 Z" stroke-width="0" fill="#62020d" fill-opacity="0.03529411764705882" />
<path d="M80,-180 L174,-308 L117,-284 L190,-319 L191,-129 L50,-68 Z" stroke-width="0" fill="#063910" fill-opacity="0.4980392156862745" />
<path d="M210,-203 L232,-228 L72,-157 L163,-318 L140,-30 L116,-314 Z" stroke-width="0" fill="#366a38" fill-opacity="0.27058823529411763" />
<path d="M203,-233 L186,-294 L103,-294 L73,-203 L62,-65 L132,-46 Z" stroke-width="0" fill="#1d0000" fill-opacity="0.4" />
<path d="M29,-313 L248,-60 L66,-70 L178,-299 L71,-97 L232,-90 Z" stroke-width="0" fill="#211600" fill-opacity="0.5137254901960784" />
<text x="137.5" y="12.5" font-size="20.0" fill="black" text-anchor="middle" transform="translate(0,5.0)">NATURE</text>
</svg>