<?xml version="1.0" encoding="UTF-8"?>
<svg xmlns="http://www.w3.org/2000/svg" xmlns:xlink="http://www.w3.org/1999/xlink"
     width="896" height="1496" viewBox="0 -1400 896 1496" style="font-size:70;font-family:Poor Richard, Times New Roman;stroke:black;stroke-width:1;fill:none">
<defs>
</defs>
<path d="M458,-674 L594,-830 L670,-118 L342,-1298 L806,-958 L530,-418 Z" stroke-width="0" fill="#000000" fill-opacity="0.8823529411764706" />
<path d="M282,-1142 L482,-582 L774,-966 L158,-850 L642,-618 L686,-514 Z" stroke-width="0" fill="#086d10" fill-opacity="0.03529411764705882" />
<path d="M210,-462 L658,-874 L90,-910 L98,-290 L222,-606 L358,-246 Z" stroke-width="0" fill="#000000" fill-opacity="0.7803921568627451" />
<path d="M586,-170 L86,-1290 L194,-178 L202,-914 L754,-450 L290,-94 Z" stroke-width="0" fill="#000000" fill-opacity="0.6784313725490196" />
<path d="M706,-258 L466,-470 L526,-538 L650,-310 L410,-1306 L766,-290 Z" stroke-width="0" fill="#02162d" fill-opacity="0.9607843137254902" />
<path d="M126,-1006 L270,-586 L114,-910 L202,-462 L574,-682 L198,-622 Z" stroke-width="0" fill="#fc1a55" fill-opacity="0.9098039215686274" />
<path d="M598,-214 L246,-1046 L98,-822 L546,-302 L138,-274 L426,-1094 Z" stroke-width="0" fill="#180309" fill-opacity="0.6" />
<path d="M458,-1122 L398,-1150 L186,-1262 L618,-882 L438,-1130 L290,-238 Z" stroke-width="0" fill="#fe5091" fill-opacity="0.33725490196078434" />
<path d="M118,-94 L766,-434 L214,-110 L566,-322 L154,-726 L138,-1250 Z" stroke-width="0" fill="#010b02" fill-opacity="0.8470588235294118" />
<path d="M674,-666 L434,-1002 L454,-478 L138,-310 L418,-678 L406,-430 Z" stroke-width="0" fill="#911cf3" fill-opacity="0.5058823529411764" />
<path d="M314,-762 L754,-874 L570,-922 L98,-166 L426,-774 L194,-1290 Z" stroke-width="0" fill="#f1eee1" fill-opacity="0.25882352941176473" />
<path d="M694,-1206 L742,-694 L338,-614 L110,-1034 L226,-346 L438,-310 Z" stroke-width="0" fill="#cafbee" fill-opacity="0.2980392156862745" />
<path d="M770,-218 L570,-1122 L654,-1114 L182,-1290 L470,-526 L670,-610 Z" stroke-width="0" fill="#000d00" fill-opacity="0.9098039215686274" />
<path d="M682,-266 L562,-1190 L518,-486 L466,-126 L222,-734 L118,-830 Z" stroke-width="0" fill="#121707" fill-opacity="0.8980392156862745" />
<path d="M182,-646 L654,-262 L114,-1014 L306,-498 L266,-126 L110,-546 Z" stroke-width="0" fill="#420c54" fill-opacity="0.7529411764705882" />
<path d="M270,-738 L514,-518 L506,-794 L282,-1210 L786,-1170 L182,-762 Z" stroke-width="0" fill="#202412" fill-opacity="0.9294117647058824" />
<path d="M726,-986 L406,-826 L734,-938 L594,-378 L518,-1118 L266,-1186 Z" stroke-width="0" fill="#42f1ef" fill-opacity="0.6039215686274509" />
<path d="M186,-662 L566,-430 L810,-490 L606,-374 L218,-994 L618,-426 Z" stroke-width="0" fill="#000000" fill-opacity="0.8235294117647058" />
<path d="M358,-1222 L290,-1238 L122,-582 L754,-534 L746,-402 L706,-594 Z" stroke-width="0" fill="#62651b" fill-opacity="0.9372549019607843" />
<path d="M170,-1222 L258,-358 L158,-494 L210,-382 L370,-986 L114,-210 Z" stroke-width="0" fill="#9cbb61" fill-opacity="0.6627450980392157" />
<path d="M494,-514 L214,-270 L338,-270 L206,-574 L582,-670 L290,-226 Z" stroke-width="0" fill="#0e05aa" fill-opacity="0.6509803921568628" />
<path d="M402,-222 L210,-298 L126,-118 L166,-606 L642,-1270 L562,-942 Z" stroke-width="0" fill="#000006" fill-opacity="0.8509803921568627" />
<path d="M318,-406 L666,-1094 L338,-374 L758,-466 L662,-658 L538,-286 Z" stroke-width="0" fill="#fe6afc" fill-opacity="0.5294117647058824" />
<path d="M250,-534 L334,-658 L490,-498 L722,-930 L202,-1182 L214,-238 Z" stroke-width="0" fill="#39392b" fill-opacity="0.5294117647058824" />
<path d="M438,-854 L538,-610 L366,-934 L706,-682 L558,-862 L738,-366 Z" stroke-width="0" fill="#ed6fa9" fill-opacity="0.24313725490196078" />
<path d="M602,-878 L714,-186 L230,-742 L166,-774 L430,-590 L222,-170 Z" stroke-width="0" fill="#8beb4b" fill-opacity="0.08627450980392157" />
<path d="M366,-474 L254,-1246 L478,-250 L154,-422 L254,-458 L634,-1290 Z" stroke-width="0" fill="#1a2101" fill-opacity="0.9372549019607843" />
<path d="M542,-338 L642,-122 L770,-138 L306,-846 L778,-386 L122,-486 Z" stroke-width="0" fill="#000000" fill-opacity="0.8862745098039215" />
<path d="M174,-390 L402,-986 L314,-1266 L638,-986 L670,-538 L358,-450 Z" stroke-width="0" fill="#47846e" fill-opacity="0.5372549019607843" />
<path d="M582,-930 L382,-1158 L646,-890 L486,-250 L346,-734 L606,-178 Z" stroke-width="0" fill="#88ba51" fill-opacity="0.5450980392156862" />
<path d="M766,-750 L598,-886 L90,-354 L398,-782 L754,-1038 L418,-298 Z" stroke-width="0" fill="#a58689" fill-opacity="0.15294117647058825" />
<path d="M326,-662 L134,-86 L522,-270 L366,-378 L478,-834 L354,-194 Z" stroke-width="0" fill="#15160b" fill-opacity="0.9607843137254902" />
<path d="M642,-406 L762,-1002 L94,-910 L738,-1186 L102,-226 L754,-194 Z" stroke-width="0" fill="#39112f" fill-opacity="0.5803921568627451" />
<path d="M490,-570 L318,-554 L294,-382 L298,-526 L302,-170 L566,-658 Z" stroke-width="0" fill="#1fffa4" fill-opacity="0.8274509803921568" />
<path d="M110,-482 L218,-806 L210,-302 L234,-414 L562,-510 L466,-518 Z" stroke-width="0" fill="#fef82a" fill-opacity="0.40784313725490196" />
<path d="M494,-370 L126,-778 L138,-398 L294,-606 L286,-558 L106,-1114 Z" stroke-width="0" fill="#37010f" fill-opacity="0.9176470588235294" />
<path d="M646,-1118 L442,-438 L594,-206 L622,-846 L590,-486 L498,-1150 Z" stroke-width="0" fill="#d879b7" fill-opacity="0.8392156862745098" />
<path d="M286,-370 L462,-986 L690,-730 L466,-354 L574,-1242 L94,-278 Z" stroke-width="0" fill="#bfb101" fill-opacity="0.996078431372549" />
<path d="M430,-178 L510,-810 L714,-1134 L238,-150 L706,-426 L378,-766 Z" stroke-width="0" fill="#1ac7eb" fill-opacity="0.7294117647058823" />
<path d="M578,-1062 L330,-862 L270,-490 L382,-462 L198,-842 L454,-914 Z" stroke-width="0" fill="#7823ec" fill-opacity="0.9411764705882353" />
<path d="M94,-1214 L454,-734 L378,-150 L206,-606 L522,-978 L806,-570 Z" stroke-width="0" fill="#3c000a" fill-opacity="0.5529411764705883" />
<path d="M510,-938 L694,-454 L670,-154 L386,-1106 L734,-578 L206,-930 Z" stroke-width="0" fill="#4e047b" fill-opacity="0.10588235294117647" />
<path d="M542,-1082 L202,-202 L438,-1062 L542,-818 L158,-534 L198,-998 Z" stroke-width="0" fill="#271634" fill-opacity="0.7294117647058823" />
<path d="M810,-398 L606,-622 L746,-1062 L698,-654 L238,-974 L86,-190 Z" stroke-width="0" fill="#000806" fill-opacity="0.7568627450980392" />
<path d="M518,-206 L146,-1074 L334,-370 L326,-794 L798,-158 L426,-1286 Z" stroke-width="0" fill="#1b0f0f" fill-opacity="0.8588235294117647" />
<path d="M134,-682 L770,-910 L166,-138 L142,-266 L674,-1190 L410,-610 Z" stroke-width="0" fill="#136781" fill-opacity="0.023529411764705882" />
<path d="M518,-1110 L494,-142 L738,-558 L342,-614 L354,-326 L242,-1030 Z" stroke-width="0" fill="#45573b" fill-opacity="0.996078431372549" />
<path d="M738,-1062 L674,-678 L802,-686 L238,-994 L262,-790 L478,-594 Z" stroke-width="0" fill="#102c3f" fill-opacity="0.4666666666666667" />
<path d="M566,-466 L602,-490 L386,-1266 L262,-1230 L326,-882 L270,-626 Z" stroke-width="0" fill="#000014" fill-opacity="0.6980392156862745" />
<path d="M810,-434 L498,-570 L706,-238 L106,-250 L590,-382 L270,-714 Z" stroke-width="0" fill="#75473e" fill-opacity="0.4392156862745098" />
<path d="M426,-1182 L302,-910 L718,-1126 L618,-826 L242,-330 L602,-678 Z" stroke-width="0" fill="#1e2215" fill-opacity="0.3568627450980392" />
<path d="M126,-162 L702,-906 L306,-546 L538,-122 L250,-1010 L506,-302 Z" stroke-width="0" fill="#151910" fill-opacity="0.9254901960784314" />
<path d="M430,-502 L506,-1106 L442,-250 L458,-654 L646,-478 L806,-718 Z" stroke-width="0" fill="#710083" fill-opacity="0.6627450980392157" />
<path d="M174,-162 L442,-1190 L450,-122 L606,-570 L242,-362 L414,-394 Z" stroke-width="0" fill="#133a1a" fill-opacity="0.9333333333333333" />
<path d="M414,-1102 L130,-190 L406,-82 L182,-898 L798,-606 L82,-558 Z" stroke-width="0" fill="#000000" fill-opacity="0.6431372549019608" />
<path d="M214,-1270 L634,-694 L766,-454 L118,-722 L138,-1294 L810,-330 Z" stroke-width="0" fill="#001000" fill-opacity="0.8196078431372549" />
<path d="M250,-458 L330,-706 L670,-218 L566,-318 L742,-1158 L278,-1098 Z" stroke-width="0" fill="#041f00" fill-opacity="0.788235294117647" />
<path d="M94,-618 L522,-734 L522,-918 L718,-1078 L578,-550 L578,-866 Z" stroke-width="0" fill="#0b2dc2" fill-opacity="0.49411764705882355" />
<path d="M454,-550 L502,-450 L754,-878 L190,-922 L194,-86 L126,-194 Z" stroke-width="0" fill="#333f5e" fill-opacity="0.8745098039215686" />
<path d="M626,-1170 L570,-938 L410,-858 L554,-206 L462,-238 L486,-1038 Z" stroke-width="0" fill="#eeddf8" fill-opacity="0.9803921568627451" />
<path d="M638,-926 L554,-1278 L526,-690 L678,-798 L622,-1250 L330,-366 Z" stroke-width="0" fill="#ee79fc" fill-opacity="0.8235294117647058" />
<path d="M606,-522 L118,-1102 L206,-150 L382,-1026 L346,-510 L182,-838 Z" stroke-width="0" fill="#140b49" fill-opacity="0.3568627450980392" />
<path d="M94,-502 L394,-1098 L98,-902 L366,-278 L646,-822 L366,-638 Z" stroke-width="0" fill="#31a412" fill-opacity="0.26666666666666666" />
<path d="M558,-478 L402,-718 L518,-606 L726,-994 L390,-314 L542,-482 Z" stroke-width="0" fill="#1333ce" fill-opacity="0.403921568627451" />
<path d="M190,-262 L130,-374 L230,-1074 L522,-322 L762,-490 L154,-162 Z" stroke-width="0" fill="#050c06" fill-opacity="0.9725490196078431" />
<path d="M86,-142 L98,-950 L102,-578 L798,-394 L310,-870 L662,-150 Z" stroke-width="0" fill="#172c13" fill-opacity="0.9176470588235294" />
<path d="M126,-1022 L154,-582 L598,-1218 L286,-346 L250,-338 L86,-946 Z" stroke-width="0" fill="#250000" fill-opacity="0.8627450980392157" />
<path d="M678,-106 L622,-362 L614,-722 L622,-1230 L386,-1070 L234,-1162 Z" stroke-width="0" fill="#b8a344" fill-opacity="0.16862745098039217" />
<path d="M254,-282 L122,-1250 L314,-1154 L590,-1158 L498,-226 L266,-614 Z" stroke-width="0" fill="#14080c" fill-opacity="0.47058823529411764" />
<path d="M646,-1050 L318,-842 L626,-166 L462,-214 L318,-982 L118,-1114 Z" stroke-width="0" fill="#270200" fill-opacity="0.29411764705882354" />
<path d="M522,-770 L686,-486 L314,-270 L446,-1038 L730,-230 L482,-774 Z" stroke-width="0" fill="#859a15" fill-opacity="0.2196078431372549" />
<path d="M334,-1262 L238,-110 L626,-934 L206,-314 L210,-558 L574,-746 Z" stroke-width="0" fill="#210020" fill-opacity="0.5058823529411764" />
<path d="M150,-942 L90,-214 L350,-230 L326,-222 L782,-326 L426,-326 Z" stroke-width="0" fill="#2a0023" fill-opacity="0.5411764705882353" />
<path d="M410,-502 L642,-690 L554,-662 L678,-482 L774,-806 L730,-378 Z" stroke-width="0" fill="#904164" fill-opacity="0.40784313725490196" />
<path d="M746,-1198 L290,-546 L126,-1142 L166,-138 L406,-1130 L514,-1294 Z" stroke-width="0" fill="#150e10" fill-opacity="0.9921568627450981" />
<path d="M98,-210 L290,-250 L554,-242 L222,-310 L294,-278 L142,-294 Z" stroke-width="0" fill="#00642c" fill-opacity="0.45098039215686275" />
<path d="M202,-590 L738,-626 L746,-194 L382,-1106 L122,-106 L370,-826 Z" stroke-width="0" fill="#001604" fill-opacity="0.49411764705882355" />
<path d="M794,-934 L394,-690 L138,-174 L578,-246 L450,-250 L726,-494 Z" stroke-width="0" fill="#480149" fill-opacity="0.788235294117647" />
<path d="M286,-598 L342,-1018 L378,-298 L498,-90 L302,-406 L310,-1310 Z" stroke-width="0" fill="#231627" fill-opacity="0.8588235294117647" />
<path d="M550,-1210 L470,-162 L614,-478 L86,-662 L426,-694 L794,-1218 Z" stroke-width="0" fill="#14291a" fill-opacity="0.9607843137254902" />
<path d="M802,-118 L658,-410 L90,-1010 L778,-630 L742,-650 L338,-318 Z" stroke-width="0" fill="#1a1711" fill-opacity="0.7019607843137254" />
<path d="M150,-426 L94,-1146 L290,-702 L722,-806 L654,-258 L174,-210 Z" stroke-width="0" fill="#103276" fill-opacity="0.4235294117647059" />
<path d="M266,-810 L650,-1158 L130,-114 L366,-854 L582,-630 L574,-522 Z" stroke-width="0" fill="#003b06" fill-opacity="0.17647058823529413" />
<path d="M494,-650 L406,-242 L574,-258 L410,-918 L618,-118 L526,-854 Z" stroke-width="0" fill="#422e00" fill-opacity="0.5058823529411764" />
<path d="M478,-210 L642,-154 L398,-1306 L562,-962 L214,-878 L342,-486 Z" stroke-width="0" fill="#04091f" fill-opacity="0.4980392156862745" />
<path d="M586,-474 L266,-778 L210,-1138 L470,-138 L326,-898 L450,-918 Z" stroke-width="0" fill="#240104" fill-opacity="0.12156862745098039" />
<path d="M214,-358 L502,-538 L126,-926 L622,-190 L454,-542 L158,-722 Z" stroke-width="0" fill="#3f1600" fill-opacity="0.38823529411764707" />
<path d="M518,-622 L466,-922 L274,-210 L286,-346 L398,-1142 L578,-714 Z" stroke-width="0" fill="#4c332b" fill-opacity="0.19607843137254902" />
<path d="M490,-910 L346,-402 L454,-538 L286,-650 L350,-1222 L338,-82 Z" stroke-width="0" fill="#0cba03" fill-opacity="0.09019607843137255" />
<path d="M762,-602 L498,-386 L474,-818 L442,-326 L574,-758 L606,-290 Z" stroke-width="0" fill="#5e2c55" fill-opacity="0.39215686274509803" />
<path d="M238,-262 L254,-894 L726,-1134 L602,-374 L86,-1170 L410,-1070 Z" stroke-width="0" fill="#0d2445" fill-opacity="0.27450980392156865" />
<path d="M342,-586 L442,-282 L498,-1094 L286,-278 L238,-766 L474,-502 Z" stroke-width="0" fill="#34493f" fill-opacity="0.4" />
<path d="M714,-774 L214,-722 L274,-1278 L330,-838 L506,-382 L570,-1278 Z" stroke-width="0" fill="#102d1d" fill-opacity="0.0392156862745098" />
<path d="M570,-182 L470,-542 L218,-1262 L374,-494 L266,-138 L154,-890 Z" stroke-width="0" fill="#180020" fill-opacity="0.45098039215686275" />
<path d="M710,-1070 L642,-218 L82,-1130 L150,-574 L742,-1046 L350,-1294 Z" stroke-width="0" fill="#141e00" fill-opacity="0.5019607843137255" />
<path d="M190,-650 L310,-106 L446,-1290 L634,-886 L162,-566 L334,-186 Z" stroke-width="0" fill="#01192f" fill-opacity="0.5019607843137255" />
<path d="M558,-1130 L746,-1030 L594,-554 L638,-858 L646,-1118 L414,-902 Z" stroke-width="0" fill="#13440d" fill-opacity="0.4745098039215686" />
<path d="M542,-1150 L638,-1010 L754,-562 L182,-890 L226,-1162 L362,-798 Z" stroke-width="0" fill="#51272b" fill-opacity="0.21176470588235294" />
<path d="M102,-1034 L690,-810 L642,-750 L334,-438 L138,-1134 L202,-1302 Z" stroke-width="0" fill="#492e3d" fill-opacity="0.14901960784313725" />
<path d="M586,-1306 L754,-1042 L602,-102 L318,-810 L82,-110 L618,-154 Z" stroke-width="0" fill="#230f0f" fill-opacity="0.6980392156862745" />
<text x="448.0" y="0" font-size="70.0" fill="black" text-anchor="middle" transform="translate(0,17.5)">LOVE</text>
</svg>