<?xml version="1.0" encoding="UTF-8"?>
<svg xmlns="http://www.w3.org/2000/svg" xmlns:xlink="http://www.w3.org/1999/xlink"
     width="275" height="375" viewBox="0 -350 275 375">
<defs>
</defs>
<rect x="15" y="-335" width="245" height="320" stroke="black" stroke-width="4" fill="white" />
<path d="M170,-160 L41,-285 L62,-251 L101,-33 L60,-270 L130,-208 Z" stroke-width="0" fill="#000000" fill-opacity="0.8627450980392157" />
<path d="M126,-41 L123,-258 L113,-64 L101,-78 L185,-26 L31,-268 Z" stroke-width="0" fill="#000000" fill-opacity="0.7686274509803922" />
<path d="M70,-110 L138,-54 L192,-64 L38,-183 L132,-27 L41,-54 Z" stroke-width="0" fill="#000000" fill-opacity="0.8588235294117647" />
<path d="M146,-164 L62,-110 L69,-111 L213,-227 L82,-274 L54,-75 Z" stroke-width="0" fill="#3d2f57" fill-opacity="0.7176470588235294" />
<path d="M189,-250 L176,-135 L26,-79 L120,-160 L64,-202 L101,-245 Z" stroke-width="0" fill="#000000" fill-opacity="0.9215686274509803" />
<path d="M35,-275 L100,-171 L210,-113 L194,-40 L156,-279 L173,-88 Z" stroke-width="0" fill="#160015" fill-opacity="0.8941176470588236" />
<path d="M190,-163 L122,-71 L172,-73 L44,-287 L49,-221 L142,-188 Z" stroke-width="0" fill="#fcfef0" fill-opacity="0.9568627450980393" />
<path d="M239,-54 L99,-47 L25,-182 L207,-61 L91,-38 L28,-174 Z" stroke-width="0" fill="#220611" fill-opacity="0.43137254901960786" />
<path d="M157,-236 L142,-122 L221,-102 L114,-55 L32,-130 L69,-310 Z" stroke-width="0" fill="#1c51ed" fill-opacity="0.43529411764705883" />
<path d="M50,-186 L199,-301 L127,-178 L231,-225 L206,-81 L45,-96 Z" stroke-width="0" fill="#42c45d" fill-opacity="0.7411764705882353" />
<path d="M88,-164 L142,-318 L82,-94 L98,-257 L157,-190 L127,-194 Z" stroke-width="0" fill="#d03454" fill-opacity="0.7019607843137254" />
<path d="M166,-216 L77,-256 L104,-242 L28,-148 L201,-118 L155,-99 Z" stroke-width="0" fill="#425e56" fill-opacity="0.36470588235294116" />
<path d="M60,-182 L180,-96 L128,-145 L44,-94 L164,-157 L108,-186 Z" stroke-width="0" fill="#362307" fill-opacity="0.5333333333333333" />
<path d="M143,-130 L27,-100 L100,-111 L180,-79 L61,-106 L238,-310 Z" stroke-width="0" fill="#225900" fill-opacity="0.8823529411764706" />
<path d="M44,-317 L130,-76 L85,-256 L75,-226 L128,-64 L205,-44 Z" stroke-width="0" fill="#00003c" fill-opacity="0.7294117647058823" />
<path d="M50,-263 L176,-37 L68,-218 L208,-109 L94,-96 L119,-235 Z" stroke-width="0" fill="#050003" fill-opacity="0.9882352941176471" />
<path d="M165,-52 L123,-31 L182,-323 L132,-140 L183,-217 L144,-249 Z" stroke-width="0" fill="#000000" fill-opacity="0.9686274509803922" />
<path d="M215,-324 L37,-36 L111,-42 L109,-110 L90,-107 L28,-188 Z" stroke-width="0" fill="#000000" fill-opacity="0.7803921568627451" />
<path d="M143,-95 L104,-273 L66,-129 L243,-217 L183,-259 L222,-71 Z" stroke-width="0" fill="#d7a346" fill-opacity="0.9647058823529412" />
<path d="M104,-123 L38,-99 L75,-249 L128,-124 L204,-208 L176,-241 Z" stroke-width="0" fill="#0a0d2e" fill-opacity="0.9098039215686274" />
<path d="M65,-173 L209,-210 L70,-255 L95,-150 L84,-196 L55,-107 Z" stroke-width="0" fill="#415bec" fill-opacity="0.7647058823529411" />
<path d="M31,-226 L195,-320 L124,-108 L209,-181 L75,-49 L103,-299 Z" stroke-width="0" fill="#7e347d" fill-opacity="0.8901960784313725" />
<path d="M237,-152 L135,-146 L68,-212 L178,-69 L177,-220 L48,-251 Z" stroke-width="0" fill="#d0fcff" fill-opacity="0.5529411764705883" />
<path d="M153,-115 L46,-228 L190,-203 L228,-294 L55,-225 L50,-305 Z" stroke-width="0" fill="#443a3c" fill-opacity="0.6823529411764706" />
<path d="M155,-195 L99,-151 L144,-49 L169,-45 L30,-99 L144,-170 Z" stroke-width="0" fill="#561c00" fill-opacity="0.9921568627450981" />
<path d="M85,-114 L123,-130 L202,-105 L96,-49 L34,-215 L245,-77 Z" stroke-width="0" fill="#00006d" fill-opacity="0.803921568627451" />
<path d="M104,-106 L156,-302 L248,-164 L220,-106 L105,-271 L126,-152 Z" stroke-width="0" fill="#000d47" fill-opacity="0.615686274509804" />
<path d="M150,-317 L231,-223 L40,-323 L107,-238 L188,-199 L216,-77 Z" stroke-width="0" fill="#052551" fill-opacity="0.792156862745098" />
<path d="M249,-257 L67,-152 L119,-254 L122,-68 L137,-276 L101,-214 Z" stroke-width="0" fill="#140519" fill-opacity="0.8862745098039215" />
<path d="M57,-116 L218,-62 L234,-97 L184,-312 L223,-315 L79,-130 Z" stroke-width="0" fill="#220047" fill-opacity="0.7490196078431373" />
<path d="M211,-172 L73,-39 L67,-210 L48,-201 L83,-160 L110,-104 Z" stroke-width="0" fill="#4a6eff" fill-opacity="0.807843137254902" />
<path d="M71,-289 L77,-200 L92,-53 L191,-98 L189,-67 L140,-146 Z" stroke-width="0" fill="#162928" fill-opacity="0.6627450980392157" />
<path d="M219,-179 L183,-239 L119,-188 L135,-129 L25,-59 L168,-42 Z" stroke-width="0" fill="#000016" fill-opacity="0.9568627450980393" />
<path d="M215,-66 L34,-74 L57,-94 L151,-46 L77,-266 L108,-294 Z" stroke-width="0" fill="#041204" fill-opacity="0.8862745098039215" />
<path d="M214,-71 L236,-252 L34,-227 L213,-290 L50,-211 L132,-183 Z" stroke-width="0" fill="#dde772" fill-opacity="0.5294117647058824" />
<path d="M175,-212 L177,-109 L240,-62 L212,-107 L153,-245 L76,-69 Z" stroke-width="0" fill="#000000" fill-opacity="0.9098039215686274" />
<path d="M95,-199 L157,-73 L123,-120 L126,-27 L31,-264 L111,-99 Z" stroke-width="0" fill="#0d0e04" fill-opacity="0.4627450980392157" />
<path d="M188,-149 L198,-188 L124,-70 L126,-113 L151,-50 L98,-205 Z" stroke-width="0" fill="#d21c6d" fill-opacity="0.0" />
<path d="M138,-55 L113,-108 L81,-173 L230,-286 L47,-118 L81,-106 Z" stroke-width="0" fill="#25592b" fill-opacity="0.9058823529411765" />
<path d="M72,-85 L145,-73 L223,-40 L107,-77 L188,-201 L143,-192 Z" stroke-width="0" fill="#150400" fill-opacity="0.9647058823529412" />
<path d="M75,-28 L74,-317 L74,-106 L136,-284 L190,-211 L180,-229 Z" stroke-width="0" fill="#000000" fill-opacity="0.7803921568627451" />
<path d="M44,-308 L238,-108 L84,-320 L109,-29 L110,-261 L182,-238 Z" stroke-width="0" fill="#0d3e7d" fill-opacity="0.6862745098039216" />
<path d="M40,-292 L144,-158 L213,-26 L155,-304 L75,-205 L130,-302 Z" stroke-width="0" fill="#3c296b" fill-opacity="1.0" />
<path d="M84,-216 L200,-198 L125,-143 L190,-291 L220,-85 L203,-105 Z" stroke-width="0" fill="#d3e9c8" fill-opacity="0.9882352941176471" />
<path d="M89,-143 L114,-40 L28,-236 L83,-126 L155,-242 L49,-41 Z" stroke-width="0" fill="#000222" fill-opacity="0.42745098039215684" />
<path d="M111,-196 L38,-294 L66,-226 L47,-133 L60,-232 L62,-90 Z" stroke-width="0" fill="#2558e0" fill-opacity="0.9019607843137255" />
<path d="M115,-200 L207,-32 L189,-245 L102,-86 L139,-119 L228,-271 Z" stroke-width="0" fill="#170000" fill-opacity="0.9529411764705882" />
<path d="M140,-250 L164,-174 L120,-108 L186,-217 L82,-206 L137,-55 Z" stroke-width="0" fill="#0c0009" fill-opacity="0.35294117647058826" />
<path d="M102,-306 L137,-139 L43,-224 L42,-247 L101,-242 L201,-90 Z" stroke-width="0" fill="#2a86e0" fill-opacity="0.788235294117647" />
<path d="M27,-156 L140,-109 L170,-260 L201,-312 L26,-281 L239,-73 Z" stroke-width="0" fill="#47495a" fill-opacity="0.8784313725490196" />
<path d="M82,-247 L100,-309 L60,-183 L67,-171 L242,-51 L211,-72 Z" stroke-width="0" fill="#583bb5" fill-opacity="0.6313725490196078" />
<path d="M212,-300 L243,-245 L81,-225 L194,-192 L56,-115 L172,-29 Z" stroke-width="0" fill="#123000" fill-opacity="0.807843137254902" />
<path d="M132,-153 L98,-246 L155,-109 L175,-100 L167,-203 L182,-53 Z" stroke-width="0" fill="#b4130f" fill-opacity="0.9294117647058824" />
<path d="M53,-321 L125,-321 L202,-298 L90,-308 L188,-195 L99,-119 Z" stroke-width="0" fill="#001858" fill-opacity="0.8666666666666667" />
<path d="M140,-87 L181,-230 L109,-151 L87,-240 L124,-215 L163,-233 Z" stroke-width="0" fill="#f376b9" fill-opacity="0.49411764705882355" />
<path d="M219,-163 L33,-78 L231,-94 L192,-196 L200,-167 L214,-101 Z" stroke-width="0" fill="#fff7e8" fill-opacity="0.4666666666666667" />
<path d="M64,-153 L40,-302 L108,-184 L48,-266 L45,-36 L38,-280 Z" stroke-width="0" fill="#03375c" fill-opacity="0.43529411764705883" />
<path d="M183,-249 L177,-177 L117,-171 L175,-205 L200,-71 L139,-223 Z" stroke-width="0" fill="#380400" fill-opacity="0.9725490196078431" />
<path d="M164,-159 L82,-279 L50,-244 L140,-47 L109,-308 L124,-28 Z" stroke-width="0" fill="#3d0817" fill-opacity="0.615686274509804" />
<path d="M170,-315 L36,-235 L88,-298 L120,-26 L144,-304 L29,-259 Z" stroke-width="0" fill="#5f1d16" fill-opacity="0.6666666666666666" />
<path d="M215,-322 L61,-287 L107,-56 L69,-153 L161,-134 L178,-135 Z" stroke-width="0" fill="#003856" fill-opacity="0.615686274509804" />
<path d="M173,-283 L180,-141 L50,-223 L28,-52 L25,-218 L40,-294 Z" stroke-width="0" fill="#1e4682" fill-opacity="0.7803921568627451" />
<path d="M194,-130 L136,-106 L151,-59 L183,-120 L249,-264 L154,-216 Z" stroke-width="0" fill="#4fad75" fill-opacity="0.5764705882352941" />
<path d="M29,-119 L178,-153 L91,-57 L113,-233 L114,-195 L137,-164 Z" stroke-width="0" fill="#19020f" fill-opacity="0.8549019607843137" />
<path d="M29,-74 L171,-214 L173,-198 L75,-37 L135,-303 L50,-75 Z" stroke-width="0" fill="#000000" fill-opacity="0.49019607843137253" />
<path d="M190,-110 L52,-153 L156,-25 L61,-276 L245,-43 L56,-62 Z" stroke-width="0" fill="#000000" fill-opacity="0.9137254901960784" />
<path d="M29,-53 L162,-272 L79,-264 L56,-107 L100,-262 L237,-276 Z" stroke-width="0" fill="#6aa933" fill-opacity="0.6470588235294118" />
<path d="M165,-311 L78,-39 L49,-72 L170,-166 L108,-222 L92,-181 Z" stroke-width="0" fill="#000000" fill-opacity="0.8941176470588236" />
<path d="M153,-238 L100,-289 L95,-320 L104,-275 L69,-188 L201,-145 Z" stroke-width="0" fill="#5b93ba" fill-opacity="0.6431372549019608" />
<path d="M195,-230 L181,-165 L127,-29 L202,-177 L104,-61 L179,-232 Z" stroke-width="0" fill="#70f483" fill-opacity="0.09803921568627451" />
<path d="M70,-279 L193,-81 L166,-130 L140,-39 L245,-228 L196,-138 Z" stroke-width="0" fill="#94ded1" fill-opacity="0.1803921568627451" />
<path d="M36,-244 L230,-295 L143,-31 L26,-47 L99,-126 L25,-165 Z" stroke-width="0" fill="#187b02" fill-opacity="0.1568627450980392" />
<path d="M25,-116 L145,-49 L125,-54 L82,-54 L130,-96 L95,-220 Z" stroke-width="0" fill="#150000" fill-opacity="0.6509803921568628" />
<path d="M44,-214 L73,-223 L185,-37 L161,-311 L129,-91 L63,-258 Z" stroke-width="0" fill="#414257" fill-opacity="0.3058823529411765" />
<path d="M149,-318 L127,-161 L138,-99 L68,-52 L90,-109 L45,-172 Z" stroke-width="0" fill="#12056d" fill-opacity="0.00784313725490196" />
<path d="M31,-121 L94,-147 L27,-197 L101,-112 L54,-203 L34,-25 Z" stroke-width="0" fill="#1d2503" fill-opacity="0.984313725490196" />
<path d="M249,-108 L202,-78 L129,-285 L125,-99 L168,-60 L132,-178 Z" stroke-width="0" fill="#130000" fill-opacity="0.9725490196078431" />
<path d="M158,-26 L173,-215 L109,-127 L113,-222 L143,-43 L239,-117 Z" stroke-width="0" fill="#050007" fill-opacity="0.8784313725490196" />
<path d="M173,-95 L183,-311 L102,-269 L49,-159 L175,-283 L118,-72 Z" stroke-width="0" fill="#8e99e6" fill-opacity="0.1607843137254902" />
<path d="M71,-52 L146,-222 L195,-55 L113,-156 L207,-256 L82,-250 Z" stroke-width="0" fill="#a7cf9f" fill-opacity="0.3607843137254902" />
<path d="M237,-49 L40,-273 L227,-26 L98,-79 L247,-256 L113,-44 Z" stroke-width="0" fill="#000000" fill-opacity="0.9725490196078431" />
<path d="M206,-284 L198,-180 L190,-197 L68,-42 L149,-218 L219,-58 Z" stroke-width="0" fill="#6f7d29" fill-opacity="0.13333333333333333" />
<path d="M132,-109 L177,-29 L28,-262 L157,-292 L99,-288 L46,-258 Z" stroke-width="0" fill="#3d3872" fill-opacity="0.4470588235294118" />
<path d="M151,-311 L42,-250 L170,-278 L176,-223 L68,-265 L238,-54 Z" stroke-width="0" fill="#364fa2" fill-opacity="0.27450980392156865" />
<path d="M241,-99 L66,-138 L38,-145 L174,-321 L219,-101 L177,-256 Z" stroke-width="0" fill="#6eb171" fill-opacity="0.4823529411764706" />
<path d="M130,-267 L108,-66 L121,-246 L171,-74 L244,-192 L249,-311 Z" stroke-width="0" fill="#250ab1" fill-opacity="0.4588235294117647" />
<path d="M198,-135 L60,-63 L119,-150 L28,-220 L53,-78 L217,-116 Z" stroke-width="0" fill="#4a529a" fill-opacity="0.3333333333333333" />
<path d="M34,-38 L93,-26 L47,-34 L126,-276 L32,-270 L236,-41 Z" stroke-width="0" fill="#000000" fill-opacity="0.5019607843137255" />
<path d="M34,-102 L158,-105 L185,-305 L113,-38 L76,-220 L70,-104 Z" stroke-width="0" fill="#711908" fill-opacity="0.00392156862745098" />
<path d="M28,-179 L204,-226 L188,-54 L180,-120 L217,-62 L227,-116 Z" stroke-width="0" fill="#86a8c7" fill-opacity="0.4117647058823529" />
<path d="M90,-44 L38,-240 L116,-70 L199,-237 L31,-185 L191,-40 Z" stroke-width="0" fill="#810044" fill-opacity="0.00392156862745098" />
<path d="M37,-44 L75,-77 L34,-160 L240,-27 L139,-121 L33,-80 Z" stroke-width="0" fill="#020000" fill-opacity="0.9921568627450981" />
<path d="M89,-125 L191,-239 L248,-34 L154,-60 L107,-172 L98,-83 Z" stroke-width="0" fill="#0b051a" fill-opacity="0.34509803921568627" />
<path d="M152,-41 L64,-241 L68,-144 L144,-122 L73,-84 L105,-177 Z" stroke-width="0" fill="#00aa0e" fill-opacity="0.09803921568627451" />
<path d="M45,-42 L78,-37 L140,-103 L141,-273 L183,-169 L107,-259 Z" stroke-width="0" fill="#003936" fill-opacity="0.07058823529411765" />
<path d="M33,-243 L156,-169 L154,-90 L84,-40 L104,-118 L75,-72 Z" stroke-width="0" fill="#5a3247" fill-opacity="0.23529411764705882" />
<path d="M44,-37 L26,-123 L112,-276 L29,-273 L107,-202 L75,-56 Z" stroke-width="0" fill="#3e3d76" fill-opacity="0.42745098039215684" />
<path d="M216,-74 L61,-84 L65,-188 L195,-114 L227,-297 L55,-48 Z" stroke-width="0" fill="#6e99f7" fill-opacity="0.11764705882352941" />
<path d="M146,-153 L202,-124 L119,-192 L52,-55 L73,-283 L69,-245 Z" stroke-width="0" fill="#368a91" fill-opacity="0.24313725490196078" />
<path d="M140,-187 L218,-72 L146,-95 L76,-74 L105,-90 L57,-239 Z" stroke-width="0" fill="#3d56ee" fill-opacity="0.30980392156862746" />
<text x="137.5" y="12.5" font-size="20.0" fill="black" text-anchor="middle" transform="translate(0,5.0)">LOVE</text>
</svg>