<?xml version="1.0" encoding="UTF-8"?>
<svg xmlns="http://www.w3.org/2000/svg" xmlns:xlink="http://www.w3.org/1999/xlink"
     width="896" height="1496" viewBox="0 -1400 896 1496" style="font-size:70;font-family:Poor Richard, Times New Roman;stroke:black;stroke-width:1;fill:none">
<defs>
</defs>
<path d="M190,-558 L234,-418 L358,-334 L446,-702 L746,-998 L606,-142 Z" stroke-width="0" fill="#f18849" fill-opacity="0.7607843137254902" />
<path d="M522,-766 L250,-198 L118,-1106 L450,-182 L170,-506 L310,-1186 Z" stroke-width="0" fill="#000000" fill-opacity="0.8862745098039215" />
<path d="M274,-534 L486,-642 L274,-1266 L86,-138 L446,-370 L538,-946 Z" stroke-width="0" fill="#000000" fill-opacity="0.7647058823529411" />
<path d="M794,-714 L810,-418 L246,-738 L638,-342 L594,-462 L686,-142 Z" stroke-width="0" fill="#000007" fill-opacity="0.8980392156862745" />
<path d="M702,-1142 L186,-466 L310,-466 L602,-826 L354,-970 L410,-346 Z" stroke-width="0" fill="#0000fd" fill-opacity="0.8" />
<path d="M450,-1174 L602,-618 L658,-586 L698,-150 L134,-570 L234,-622 Z" stroke-width="0" fill="#e6f0ac" fill-opacity="0.12549019607843137" />
<path d="M402,-666 L154,-390 L162,-1278 L126,-582 L738,-266 L178,-386 Z" stroke-width="0" fill="#44001e" fill-opacity="0.803921568627451" />
<path d="M158,-582 L186,-638 L770,-938 L434,-722 L750,-138 L422,-106 Z" stroke-width="0" fill="#000000" fill-opacity="0.9098039215686274" />
<path d="M542,-354 L286,-882 L294,-314 L122,-1266 L434,-182 L582,-262 Z" stroke-width="0" fill="#00000e" fill-opacity="0.8901960784313725" />
<path d="M146,-186 L770,-862 L430,-998 L298,-718 L298,-1298 L718,-858 Z" stroke-width="0" fill="#000002" fill-opacity="0.8235294117647058" />
<path d="M398,-802 L586,-142 L230,-1290 L250,-590 L454,-294 L286,-546 Z" stroke-width="0" fill="#000000" fill-opacity="0.7764705882352941" />
<path d="M210,-430 L354,-1010 L626,-438 L754,-1154 L506,-770 L686,-442 Z" stroke-width="0" fill="#9ce035" fill-opacity="0.9764705882352941" />
<path d="M330,-774 L438,-814 L434,-770 L174,-778 L442,-874 L694,-882 Z" stroke-width="0" fill="#035c0b" fill-opacity="0.00392156862745098" />
<path d="M478,-174 L786,-1006 L334,-178 L570,-306 L226,-254 L98,-266 Z" stroke-width="0" fill="#c2e700" fill-opacity="0.7803921568627451" />
<path d="M622,-930 L754,-286 L134,-282 L602,-898 L326,-114 L338,-510 Z" stroke-width="0" fill="#000000" fill-opacity="0.8352941176470589" />
<path d="M146,-1070 L354,-346 L170,-998 L750,-954 L170,-702 L298,-786 Z" stroke-width="0" fill="#123e59" fill-opacity="0.5490196078431373" />
<path d="M794,-878 L326,-874 L126,-202 L606,-574 L130,-1138 L582,-782 Z" stroke-width="0" fill="#000000" fill-opacity="0.9529411764705882" />
<path d="M566,-602 L418,-906 L114,-434 L514,-334 L298,-714 L114,-586 Z" stroke-width="0" fill="#000000" fill-opacity="0.7803921568627451" />
<path d="M322,-1078 L446,-362 L274,-310 L338,-914 L206,-1242 L462,-1098 Z" stroke-width="0" fill="#0c122e" fill-opacity="0.8274509803921568" />
<path d="M566,-142 L530,-594 L218,-134 L366,-610 L770,-1202 L682,-330 Z" stroke-width="0" fill="#f4ff0a" fill-opacity="0.7019607843137254" />
<path d="M270,-566 L462,-822 L486,-534 L802,-278 L354,-1114 L806,-806 Z" stroke-width="0" fill="#000000" fill-opacity="0.7529411764705882" />
<path d="M566,-1110 L662,-934 L334,-778 L266,-758 L614,-394 L394,-318 Z" stroke-width="0" fill="#78df63" fill-opacity="0.5882352941176471" />
<path d="M158,-814 L674,-326 L482,-86 L98,-1226 L182,-1090 L130,-1202 Z" stroke-width="0" fill="#001c00" fill-opacity="0.9882352941176471" />
<path d="M162,-974 L314,-742 L198,-218 L646,-862 L794,-734 L194,-642 Z" stroke-width="0" fill="#729100" fill-opacity="0.9294117647058824" />
<path d="M126,-1022 L418,-850 L706,-642 L782,-558 L714,-1202 L630,-910 Z" stroke-width="0" fill="#010006" fill-opacity="0.9529411764705882" />
<path d="M198,-446 L558,-1138 L654,-1054 L474,-282 L506,-1150 L654,-350 Z" stroke-width="0" fill="#51b431" fill-opacity="0.27450980392156865" />
<path d="M290,-874 L442,-94 L330,-698 L126,-242 L726,-1098 L354,-1050 Z" stroke-width="0" fill="#ee9b15" fill-opacity="0.47058823529411764" />
<path d="M610,-394 L438,-742 L498,-674 L338,-474 L558,-570 L526,-210 Z" stroke-width="0" fill="#01e0f7" fill-opacity="0.08627450980392157" />
<path d="M102,-230 L778,-1142 L514,-442 L638,-582 L418,-222 L110,-150 Z" stroke-width="0" fill="#000000" fill-opacity="0.9568627450980393" />
<path d="M194,-1062 L602,-934 L654,-370 L610,-298 L550,-1138 L178,-826 Z" stroke-width="0" fill="#a9ea83" fill-opacity="0.9921568627450981" />
<path d="M226,-758 L570,-614 L90,-258 L454,-1082 L334,-98 L366,-642 Z" stroke-width="0" fill="#000000" fill-opacity="0.7803921568627451" />
<path d="M230,-590 L374,-166 L278,-1194 L538,-778 L434,-366 L362,-266 Z" stroke-width="0" fill="#4d0125" fill-opacity="0.35294117647058826" />
<path d="M306,-242 L242,-482 L242,-1134 L642,-898 L626,-422 L230,-142 Z" stroke-width="0" fill="#d62c37" fill-opacity="0.9882352941176471" />
<path d="M206,-1146 L522,-542 L690,-522 L374,-1006 L258,-918 L782,-682 Z" stroke-width="0" fill="#bb8902" fill-opacity="0.6078431372549019" />
<path d="M446,-774 L186,-894 L598,-258 L606,-970 L390,-402 L266,-618 Z" stroke-width="0" fill="#71f7fd" fill-opacity="0.8627450980392157" />
<path d="M166,-958 L454,-234 L766,-350 L246,-338 L606,-1046 L154,-1086 Z" stroke-width="0" fill="#41a0df" fill-opacity="0.49019607843137253" />
<path d="M366,-1262 L378,-126 L646,-1022 L226,-870 L694,-1062 L242,-726 Z" stroke-width="0" fill="#00082a" fill-opacity="0.9333333333333333" />
<path d="M530,-1106 L646,-802 L350,-1166 L314,-722 L650,-1010 L570,-1306 Z" stroke-width="0" fill="#000000" fill-opacity="0.8666666666666667" />
<path d="M202,-114 L706,-578 L734,-110 L318,-186 L538,-122 L598,-850 Z" stroke-width="0" fill="#000000" fill-opacity="0.8784313725490196" />
<path d="M374,-134 L590,-1246 L798,-450 L162,-526 L490,-394 L374,-690 Z" stroke-width="0" fill="#000007" fill-opacity="0.7607843137254902" />
<path d="M138,-994 L510,-134 L386,-170 L134,-618 L342,-454 L770,-1134 Z" stroke-width="0" fill="#1329a3" fill-opacity="0.6862745098039216" />
<path d="M446,-622 L646,-738 L774,-762 L218,-1146 L554,-918 L510,-498 Z" stroke-width="0" fill="#e3ec03" fill-opacity="0.9058823529411765" />
<path d="M442,-682 L238,-958 L302,-82 L610,-230 L590,-1046 L358,-1182 Z" stroke-width="0" fill="#000000" fill-opacity="0.9333333333333333" />
<path d="M134,-98 L350,-166 L194,-1170 L494,-186 L190,-950 L262,-1314 Z" stroke-width="0" fill="#000000" fill-opacity="0.9882352941176471" />
<path d="M138,-1306 L678,-342 L506,-1130 L206,-1210 L750,-1070 L222,-582 Z" stroke-width="0" fill="#19191e" fill-opacity="0.9686274509803922" />
<path d="M402,-1238 L738,-462 L630,-210 L414,-334 L302,-1290 L282,-498 Z" stroke-width="0" fill="#110e1c" fill-opacity="0.8862745098039215" />
<path d="M86,-1034 L450,-682 L526,-590 L378,-994 L770,-1066 L518,-778 Z" stroke-width="0" fill="#05000d" fill-opacity="0.8862745098039215" />
<path d="M218,-506 L334,-510 L122,-714 L138,-1030 L526,-602 L542,-130 Z" stroke-width="0" fill="#912b85" fill-opacity="0.09411764705882353" />
<path d="M582,-258 L646,-1278 L598,-210 L318,-1058 L326,-1278 L570,-498 Z" stroke-width="0" fill="#180014" fill-opacity="0.6078431372549019" />
<path d="M458,-798 L698,-466 L186,-638 L618,-314 L530,-518 L578,-294 Z" stroke-width="0" fill="#13e980" fill-opacity="0.13725490196078433" />
<path d="M334,-850 L566,-190 L458,-1018 L778,-410 L206,-650 L690,-490 Z" stroke-width="0" fill="#24b601" fill-opacity="0.7764705882352941" />
<path d="M654,-422 L150,-282 L634,-1198 L222,-1230 L478,-822 L270,-474 Z" stroke-width="0" fill="#0c0e0c" fill-opacity="0.8274509803921568" />
<path d="M246,-190 L630,-762 L362,-594 L650,-714 L418,-1122 L554,-1142 Z" stroke-width="0" fill="#8dc242" fill-opacity="0.5607843137254902" />
<path d="M214,-810 L206,-474 L170,-794 L642,-226 L598,-242 L242,-1046 Z" stroke-width="0" fill="#eb6c1f" fill-opacity="0.8901960784313725" />
<path d="M542,-514 L742,-666 L426,-590 L650,-378 L270,-94 L482,-90 Z" stroke-width="0" fill="#000000" fill-opacity="0.996078431372549" />
<path d="M438,-1206 L810,-442 L646,-94 L754,-938 L430,-350 L658,-1186 Z" stroke-width="0" fill="#000000" fill-opacity="0.6470588235294118" />
<path d="M682,-1030 L166,-838 L258,-1102 L634,-250 L150,-330 L610,-1118 Z" stroke-width="0" fill="#52027f" fill-opacity="0.4666666666666667" />
<path d="M590,-242 L326,-186 L514,-1126 L362,-802 L510,-278 L566,-342 Z" stroke-width="0" fill="#6b3eb5" fill-opacity="0.796078431372549" />
<path d="M286,-1102 L294,-310 L554,-898 L322,-914 L162,-1114 L614,-970 Z" stroke-width="0" fill="#c5386e" fill-opacity="0.11764705882352941" />
<path d="M470,-1202 L318,-782 L278,-1154 L782,-366 L538,-174 L482,-210 Z" stroke-width="0" fill="#000000" fill-opacity="0.8627450980392157" />
<path d="M570,-1310 L218,-898 L326,-782 L190,-390 L146,-1154 L274,-878 Z" stroke-width="0" fill="#0d0307" fill-opacity="0.7568627450980392" />
<path d="M298,-490 L194,-1290 L286,-670 L594,-194 L646,-1202 L90,-990 Z" stroke-width="0" fill="#11241b" fill-opacity="0.6549019607843137" />
<path d="M570,-366 L106,-334 L574,-758 L210,-870 L598,-622 L366,-486 Z" stroke-width="0" fill="#000000" fill-opacity="0.9921568627450981" />
<path d="M418,-1058 L366,-926 L238,-1146 L598,-886 L234,-742 L690,-370 Z" stroke-width="0" fill="#df8a54" fill-opacity="0.12156862745098039" />
<path d="M198,-1050 L694,-1198 L494,-870 L194,-906 L666,-142 L774,-202 Z" stroke-width="0" fill="#001d1c" fill-opacity="0.8470588235294118" />
<path d="M542,-218 L494,-622 L554,-190 L754,-1218 L702,-766 L454,-1298 Z" stroke-width="0" fill="#000300" fill-opacity="0.788235294117647" />
<path d="M230,-146 L234,-934 L726,-166 L238,-522 L618,-466 L410,-1154 Z" stroke-width="0" fill="#de705c" fill-opacity="0.6784313725490196" />
<path d="M482,-686 L162,-990 L666,-490 L782,-842 L210,-462 L274,-326 Z" stroke-width="0" fill="#ffd206" fill-opacity="0.5568627450980392" />
<path d="M190,-790 L122,-306 L546,-794 L354,-450 L186,-986 L198,-266 Z" stroke-width="0" fill="#000000" fill-opacity="0.9176470588235294" />
<path d="M490,-342 L522,-310 L634,-742 L518,-978 L242,-1186 L538,-794 Z" stroke-width="0" fill="#131ea7" fill-opacity="0.07450980392156863" />
<path d="M326,-190 L234,-710 L218,-490 L794,-486 L146,-954 L618,-282 Z" stroke-width="0" fill="#000914" fill-opacity="0.792156862745098" />
<path d="M386,-138 L262,-1046 L718,-1174 L598,-874 L246,-1130 L582,-82 Z" stroke-width="0" fill="#000002" fill-opacity="0.7058823529411765" />
<path d="M122,-926 L734,-170 L294,-146 L490,-346 L498,-946 L718,-770 Z" stroke-width="0" fill="#87545b" fill-opacity="0.9725490196078431" />
<path d="M622,-334 L482,-1194 L290,-934 L410,-174 L578,-1242 L646,-642 Z" stroke-width="0" fill="#8a037d" fill-opacity="0.13333333333333333" />
<path d="M694,-382 L266,-110 L706,-614 L486,-274 L234,-1054 L394,-1086 Z" stroke-width="0" fill="#4d3843" fill-opacity="0.7215686274509804" />
<path d="M698,-590 L406,-266 L374,-522 L414,-678 L666,-506 L746,-706 Z" stroke-width="0" fill="#000e00" fill-opacity="0.9803921568627451" />
<path d="M738,-274 L382,-830 L90,-758 L582,-350 L310,-766 L418,-1122 Z" stroke-width="0" fill="#170000" fill-opacity="0.9568627450980393" />
<path d="M134,-978 L254,-798 L134,-406 L674,-94 L230,-90 L118,-670 Z" stroke-width="0" fill="#000000" fill-opacity="0.7803921568627451" />
<path d="M486,-102 L118,-890 L546,-1254 L106,-154 L346,-98 L530,-266 Z" stroke-width="0" fill="#040009" fill-opacity="0.788235294117647" />
<path d="M110,-538 L150,-1086 L114,-958 L634,-170 L658,-582 L322,-278 Z" stroke-width="0" fill="#152125" fill-opacity="0.7450980392156863" />
<path d="M614,-726 L190,-118 L462,-194 L266,-950 L782,-262 L754,-358 Z" stroke-width="0" fill="#000000" fill-opacity="0.5019607843137255" />
<path d="M386,-1250 L438,-270 L686,-1006 L514,-1122 L398,-562 L778,-406 Z" stroke-width="0" fill="#060225" fill-opacity="0.792156862745098" />
<path d="M154,-334 L542,-918 L306,-810 L462,-1114 L182,-398 L262,-362 Z" stroke-width="0" fill="#9d5052" fill-opacity="0.10980392156862745" />
<path d="M342,-198 L538,-502 L554,-1174 L198,-158 L450,-82 L286,-918 Z" stroke-width="0" fill="#000000" fill-opacity="0.9764705882352941" />
<path d="M738,-306 L86,-846 L198,-102 L542,-218 L246,-918 L238,-1174 Z" stroke-width="0" fill="#010400" fill-opacity="0.9686274509803922" />
<path d="M246,-482 L514,-114 L330,-218 L110,-186 L110,-602 L546,-582 Z" stroke-width="0" fill="#000002" fill-opacity="0.7764705882352941" />
<path d="M638,-86 L330,-666 L786,-1282 L506,-146 L378,-546 L526,-710 Z" stroke-width="0" fill="#162912" fill-opacity="0.7137254901960784" />
<path d="M770,-1274 L318,-314 L262,-474 L570,-910 L566,-494 L810,-686 Z" stroke-width="0" fill="#040d22" fill-opacity="0.9647058823529412" />
<path d="M542,-1158 L522,-966 L194,-750 L162,-850 L494,-402 L538,-170 Z" stroke-width="0" fill="#241308" fill-opacity="0.3333333333333333" />
<path d="M786,-598 L282,-754 L238,-910 L778,-482 L250,-870 L138,-922 Z" stroke-width="0" fill="#54154f" fill-opacity="0.09411764705882353" />
<path d="M606,-950 L326,-98 L498,-830 L150,-1306 L258,-714 L506,-638 Z" stroke-width="0" fill="#051724" fill-opacity="0.6627450980392157" />
<path d="M570,-366 L334,-874 L414,-1118 L606,-414 L102,-326 L450,-718 Z" stroke-width="0" fill="#030008" fill-opacity="0.4745098039215686" />
<path d="M286,-1226 L574,-638 L90,-830 L370,-830 L498,-198 L382,-750 Z" stroke-width="0" fill="#d82d4f" fill-opacity="0.00784313725490196" />
<path d="M630,-358 L310,-1290 L686,-730 L646,-146 L690,-246 L298,-522 Z" stroke-width="0" fill="#001718" fill-opacity="0.5019607843137255" />
<path d="M442,-350 L114,-198 L322,-842 L742,-662 L282,-226 L282,-1182 Z" stroke-width="0" fill="#000000" fill-opacity="0.37254901960784315" />
<path d="M566,-1210 L238,-126 L390,-1062 L274,-142 L758,-150 L594,-770 Z" stroke-width="0" fill="#000000" fill-opacity="0.9921568627450981" />
<path d="M790,-906 L254,-494 L222,-634 L346,-598 L806,-850 L282,-754 Z" stroke-width="0" fill="#e9b000" fill-opacity="0.01568627450980392" />
<path d="M514,-426 L502,-1038 L382,-1102 L678,-710 L338,-170 L558,-538 Z" stroke-width="0" fill="#f243ea" fill-opacity="0.027450980392156862" />
<path d="M290,-950 L158,-1278 L766,-1042 L94,-982 L618,-230 L566,-1074 Z" stroke-width="0" fill="#14292b" fill-opacity="0.5019607843137255" />
<path d="M706,-1290 L194,-306 L430,-98 L726,-450 L358,-358 L450,-618 Z" stroke-width="0" fill="#030001" fill-opacity="0.6666666666666666" />
<text x="448.0" y="0" font-size="70.0" fill="black" text-anchor="middle" transform="translate(0,17.5)">DEATH</text>
</svg>