<?xml version="1.0" encoding="UTF-8"?>
<svg xmlns="http://www.w3.org/2000/svg" xmlns:xlink="http://www.w3.org/1999/xlink"
     width="275" height="375" viewBox="0 -350 275 375">
<defs>
</defs>
<rect x="15" y="-335" width="245" height="320" stroke="black" stroke-width="4" fill="white" />
<path d="M164,-47 L122,-67 L73,-245 L41,-67 L105,-103 L134,-292 Z" stroke-width="0" fill="#86492a" fill-opacity="0.8862745098039215" />
<path d="M87,-185 L57,-103 L94,-94 L131,-71 L53,-200 L147,-193 Z" stroke-width="0" fill="#75529b" fill-opacity="0.38823529411764707" />
<path d="M189,-33 L132,-306 L135,-137 L69,-157 L122,-49 L87,-134 Z" stroke-width="0" fill="#000000" fill-opacity="0.9490196078431372" />
<path d="M29,-188 L128,-157 L52,-203 L205,-219 L174,-85 L193,-210 Z" stroke-width="0" fill="#e9a293" fill-opacity="0.01568627450980392" />
<path d="M153,-51 L83,-100 L111,-307 L40,-29 L133,-67 L115,-25 Z" stroke-width="0" fill="#000000" fill-opacity="0.8666666666666667" />
<path d="M142,-87 L183,-39 L78,-29 L202,-177 L162,-319 L125,-224 Z" stroke-width="0" fill="#000000" fill-opacity="0.8313725490196079" />
<path d="M79,-260 L201,-133 L215,-37 L246,-200 L162,-293 L133,-27 Z" stroke-width="0" fill="#082000" fill-opacity="0.8313725490196079" />
<path d="M175,-177 L62,-27 L198,-265 L140,-83 L103,-209 L67,-164 Z" stroke-width="0" fill="#000000" fill-opacity="0.8862745098039215" />
<path d="M181,-159 L150,-117 L66,-267 L113,-142 L44,-142 L83,-184 Z" stroke-width="0" fill="#7b2a66" fill-opacity="0.7333333333333333" />
<path d="M174,-147 L220,-165 L70,-309 L152,-86 L248,-306 L38,-25 Z" stroke-width="0" fill="#000009" fill-opacity="0.8666666666666667" />
<path d="M192,-114 L123,-199 L104,-181 L75,-113 L156,-152 L47,-159 Z" stroke-width="0" fill="#0a6987" fill-opacity="0.9176470588235294" />
<path d="M183,-72 L99,-157 L75,-179 L59,-42 L39,-90 L177,-133 Z" stroke-width="0" fill="#5d1e2d" fill-opacity="0.5215686274509804" />
<path d="M184,-271 L60,-248 L160,-300 L120,-102 L168,-118 L55,-192 Z" stroke-width="0" fill="#769c39" fill-opacity="0.8509803921568627" />
<path d="M78,-62 L59,-187 L108,-237 L40,-152 L105,-307 L81,-36 Z" stroke-width="0" fill="#009371" fill-opacity="0.7372549019607844" />
<path d="M226,-112 L117,-120 L68,-233 L217,-58 L110,-282 L37,-29 Z" stroke-width="0" fill="#000000" fill-opacity="1.0" />
<path d="M148,-192 L208,-216 L74,-44 L62,-92 L240,-103 L158,-83 Z" stroke-width="0" fill="#587e68" fill-opacity="0.396078431372549" />
<path d="M93,-250 L76,-303 L85,-290 L112,-159 L128,-57 L39,-72 Z" stroke-width="0" fill="#00b39e" fill-opacity="0.7725490196078432" />
<path d="M157,-58 L28,-160 L225,-226 L209,-281 L171,-210 L43,-175 Z" stroke-width="0" fill="#cd30a5" fill-opacity="0.5607843137254902" />
<path d="M48,-172 L212,-153 L39,-153 L31,-161 L62,-212 L206,-189 Z" stroke-width="0" fill="#74da57" fill-opacity="0.2235294117647059" />
<path d="M242,-302 L31,-107 L178,-152 L102,-200 L182,-80 L103,-71 Z" stroke-width="0" fill="#250067" fill-opacity="0.8745098039215686" />
<path d="M34,-161 L201,-54 L247,-112 L111,-78 L69,-210 L36,-243 Z" stroke-width="0" fill="#001300" fill-opacity="0.8274509803921568" />
<path d="M62,-128 L188,-200 L217,-27 L117,-98 L54,-79 L222,-210 Z" stroke-width="0" fill="#000000" fill-opacity="0.9686274509803922" />
<path d="M96,-278 L194,-180 L30,-211 L223,-81 L119,-89 L225,-53 Z" stroke-width="0" fill="#2e2530" fill-opacity="0.9137254901960784" />
<path d="M106,-57 L104,-250 L102,-241 L54,-165 L62,-97 L119,-65 Z" stroke-width="0" fill="#ccc368" fill-opacity="0.9215686274509803" />
<path d="M149,-216 L229,-51 L233,-208 L201,-228 L109,-92 L177,-83 Z" stroke-width="0" fill="#7852a5" fill-opacity="0.9450980392156862" />
<path d="M130,-132 L37,-297 L162,-162 L212,-68 L29,-157 L70,-311 Z" stroke-width="0" fill="#00701b" fill-opacity="0.7019607843137254" />
<path d="M67,-53 L124,-245 L55,-235 L157,-123 L30,-182 L156,-72 Z" stroke-width="0" fill="#d0ed4f" fill-opacity="0.11764705882352941" />
<path d="M117,-246 L82,-228 L132,-259 L70,-135 L27,-209 L32,-30 Z" stroke-width="0" fill="#000000" fill-opacity="0.9568627450980393" />
<path d="M46,-141 L73,-214 L189,-223 L49,-117 L139,-197 L208,-158 Z" stroke-width="0" fill="#6858bf" fill-opacity="0.24313725490196078" />
<path d="M183,-46 L91,-148 L184,-28 L81,-46 L110,-166 L58,-58 Z" stroke-width="0" fill="#000000" fill-opacity="0.8705882352941177" />
<path d="M143,-201 L171,-307 L217,-144 L152,-198 L131,-30 L116,-69 Z" stroke-width="0" fill="#000000" fill-opacity="0.9215686274509803" />
<path d="M47,-61 L203,-193 L121,-309 L177,-266 L34,-65 L150,-272 Z" stroke-width="0" fill="#006342" fill-opacity="0.3686274509803922" />
<path d="M247,-79 L197,-320 L117,-157 L114,-101 L133,-225 L52,-281 Z" stroke-width="0" fill="#00000f" fill-opacity="0.9647058823529412" />
<path d="M140,-134 L38,-242 L194,-196 L106,-27 L182,-43 L68,-105 Z" stroke-width="0" fill="#000000" fill-opacity="0.9058823529411765" />
<path d="M240,-308 L103,-269 L71,-247 L193,-103 L88,-242 L229,-53 Z" stroke-width="0" fill="#001403" fill-opacity="0.788235294117647" />
<path d="M232,-45 L195,-181 L213,-141 L159,-233 L164,-80 L198,-253 Z" stroke-width="0" fill="#002630" fill-opacity="0.6196078431372549" />
<path d="M33,-268 L131,-81 L69,-86 L100,-186 L166,-261 L39,-106 Z" stroke-width="0" fill="#32580a" fill-opacity="0.8588235294117647" />
<path d="M223,-129 L159,-226 L47,-302 L227,-260 L157,-153 L168,-176 Z" stroke-width="0" fill="#00896f" fill-opacity="0.9137254901960784" />
<path d="M86,-43 L96,-134 L25,-317 L219,-179 L239,-63 L46,-295 Z" stroke-width="0" fill="#000e07" fill-opacity="0.8392156862745098" />
<path d="M115,-239 L76,-55 L249,-34 L206,-71 L105,-153 L208,-183 Z" stroke-width="0" fill="#000000" fill-opacity="0.6235294117647059" />
<path d="M117,-146 L233,-242 L134,-100 L179,-180 L60,-207 L236,-121 Z" stroke-width="0" fill="#a7f7b8" fill-opacity="0.8" />
<path d="M93,-91 L161,-184 L168,-306 L97,-316 L218,-138 L247,-307 Z" stroke-width="0" fill="#001f16" fill-opacity="0.9137254901960784" />
<path d="M40,-308 L209,-166 L59,-59 L75,-165 L27,-52 L124,-69 Z" stroke-width="0" fill="#010000" fill-opacity="0.8862745098039215" />
<path d="M173,-96 L163,-126 L202,-123 L73,-178 L69,-249 L167,-173 Z" stroke-width="0" fill="#299ec1" fill-opacity="0.7098039215686275" />
<path d="M228,-181 L173,-212 L35,-71 L174,-138 L81,-312 L80,-276 Z" stroke-width="0" fill="#00504f" fill-opacity="0.8745098039215686" />
<path d="M198,-306 L75,-58 L136,-148 L102,-271 L50,-110 L206,-282 Z" stroke-width="0" fill="#7fa60f" fill-opacity="0.08627450980392157" />
<path d="M76,-95 L148,-117 L157,-50 L115,-45 L164,-153 L112,-102 Z" stroke-width="0" fill="#44a3d5" fill-opacity="0.4627450980392157" />
<path d="M170,-27 L107,-257 L158,-130 L94,-287 L224,-300 L131,-48 Z" stroke-width="0" fill="#000a16" fill-opacity="0.7647058823529411" />
<path d="M91,-215 L75,-51 L35,-314 L151,-223 L134,-52 L138,-101 Z" stroke-width="0" fill="#004b15" fill-opacity="0.7607843137254902" />
<path d="M191,-151 L168,-164 L136,-253 L57,-117 L51,-187 L237,-235 Z" stroke-width="0" fill="#d5f5f2" fill-opacity="0.9019607843137255" />
<path d="M128,-86 L163,-107 L58,-101 L206,-254 L32,-68 L180,-123 Z" stroke-width="0" fill="#000000" fill-opacity="0.9098039215686274" />
<path d="M180,-107 L213,-201 L134,-210 L95,-301 L122,-149 L143,-290 Z" stroke-width="0" fill="#046770" fill-opacity="0.9019607843137255" />
<path d="M26,-275 L203,-231 L227,-297 L145,-231 L37,-182 L83,-187 Z" stroke-width="0" fill="#1e092f" fill-opacity="0.8862745098039215" />
<path d="M93,-127 L80,-96 L69,-243 L94,-271 L200,-124 L31,-289 Z" stroke-width="0" fill="#002d00" fill-opacity="0.9019607843137255" />
<path d="M76,-289 L81,-295 L203,-58 L40,-148 L235,-95 L228,-119 Z" stroke-width="0" fill="#424875" fill-opacity="0.23529411764705882" />
<path d="M38,-75 L59,-154 L103,-178 L198,-321 L222,-102 L137,-283 Z" stroke-width="0" fill="#1c1a50" fill-opacity="0.6470588235294118" />
<path d="M41,-40 L143,-36 L242,-59 L220,-54 L140,-309 L89,-85 Z" stroke-width="0" fill="#000000" fill-opacity="0.984313725490196" />
<path d="M90,-222 L165,-88 L193,-117 L30,-137 L245,-125 L42,-108 Z" stroke-width="0" fill="#496598" fill-opacity="0.9607843137254902" />
<path d="M231,-107 L164,-65 L110,-42 L226,-289 L36,-198 L201,-97 Z" stroke-width="0" fill="#132920" fill-opacity="0.3607843137254902" />
<path d="M88,-163 L119,-141 L123,-67 L231,-181 L80,-32 L99,-103 Z" stroke-width="0" fill="#00081b" fill-opacity="0.9764705882352941" />
<path d="M94,-84 L98,-188 L111,-276 L56,-57 L142,-53 L90,-129 Z" stroke-width="0" fill="#0a2472" fill-opacity="0.28627450980392155" />
<path d="M126,-137 L82,-180 L201,-118 L106,-172 L200,-182 L30,-270 Z" stroke-width="0" fill="#02020e" fill-opacity="0.4117647058823529" />
<path d="M70,-35 L62,-29 L151,-61 L199,-29 L178,-107 L114,-184 Z" stroke-width="0" fill="#000000" fill-opacity="0.9294117647058824" />
<path d="M138,-202 L80,-107 L168,-36 L153,-32 L219,-149 L103,-117 Z" stroke-width="0" fill="#050c70" fill-opacity="0.12549019607843137" />
<path d="M117,-101 L51,-227 L79,-76 L61,-266 L148,-213 L151,-174 Z" stroke-width="0" fill="#531a20" fill-opacity="0.7843137254901961" />
<path d="M190,-85 L109,-312 L100,-59 L198,-290 L159,-80 L236,-78 Z" stroke-width="0" fill="#44004d" fill-opacity="0.15294117647058825" />
<path d="M141,-145 L246,-159 L173,-248 L169,-157 L112,-229 L119,-88 Z" stroke-width="0" fill="#635768" fill-opacity="0.8156862745098039" />
<path d="M123,-64 L77,-216 L138,-87 L85,-184 L28,-104 L64,-248 Z" stroke-width="0" fill="#00092c" fill-opacity="0.9490196078431372" />
<path d="M167,-135 L179,-230 L95,-288 L218,-286 L38,-88 L49,-30 Z" stroke-width="0" fill="#000100" fill-opacity="0.17647058823529413" />
<path d="M191,-187 L152,-109 L160,-270 L52,-175 L83,-284 L53,-86 Z" stroke-width="0" fill="#4036ed" fill-opacity="0.5215686274509804" />
<path d="M216,-34 L28,-54 L100,-181 L186,-28 L214,-306 L215,-207 Z" stroke-width="0" fill="#101617" fill-opacity="0.21176470588235294" />
<path d="M120,-156 L95,-53 L95,-61 L94,-179 L193,-242 L67,-168 Z" stroke-width="0" fill="#1b1412" fill-opacity="0.0784313725490196" />
<path d="M41,-238 L69,-225 L38,-98 L75,-92 L200,-111 L161,-99 Z" stroke-width="0" fill="#1c003c" fill-opacity="0.7215686274509804" />
<path d="M208,-87 L186,-54 L89,-144 L242,-221 L124,-56 L216,-31 Z" stroke-width="0" fill="#000009" fill-opacity="0.2" />
<path d="M154,-119 L81,-277 L30,-99 L88,-291 L90,-300 L47,-234 Z" stroke-width="0" fill="#032309" fill-opacity="0.21176470588235294" />
<path d="M160,-95 L136,-132 L204,-104 L117,-34 L29,-113 L208,-234 Z" stroke-width="0" fill="#000000" fill-opacity="0.7803921568627451" />
<path d="M50,-88 L243,-322 L106,-118 L98,-173 L205,-32 L135,-183 Z" stroke-width="0" fill="#020003" fill-opacity="0.803921568627451" />
<path d="M183,-311 L39,-307 L34,-139 L71,-118 L222,-216 L184,-197 Z" stroke-width="0" fill="#270312" fill-opacity="0.8352941176470589" />
<path d="M220,-27 L230,-275 L200,-54 L96,-176 L161,-95 L197,-182 Z" stroke-width="0" fill="#1d2229" fill-opacity="0.23921568627450981" />
<path d="M174,-115 L186,-196 L56,-146 L135,-213 L98,-200 L180,-68 Z" stroke-width="0" fill="#0f6265" fill-opacity="0.1450980392156863" />
<path d="M198,-314 L117,-185 L123,-103 L85,-200 L32,-86 L64,-68 Z" stroke-width="0" fill="#000000" fill-opacity="0.5215686274509804" />
<path d="M131,-161 L162,-36 L61,-205 L87,-301 L119,-188 L73,-126 Z" stroke-width="0" fill="#00742d" fill-opacity="0.11372549019607843" />
<path d="M78,-51 L32,-51 L59,-129 L167,-33 L148,-94 L143,-138 Z" stroke-width="0" fill="#000000" fill-opacity="0.9647058823529412" />
<path d="M165,-202 L175,-274 L124,-182 L245,-198 L82,-56 L98,-306 Z" stroke-width="0" fill="#001617" fill-opacity="0.47843137254901963" />
<path d="M131,-46 L182,-105 L65,-34 L224,-246 L237,-252 L180,-56 Z" stroke-width="0" fill="#040000" fill-opacity="0.41568627450980394" />
<path d="M148,-74 L44,-201 L230,-83 L50,-151 L161,-286 L177,-123 Z" stroke-width="0" fill="#3c31aa" fill-opacity="0.1568627450980392" />
<path d="M146,-185 L197,-298 L188,-270 L87,-54 L107,-108 L241,-220 Z" stroke-width="0" fill="#5a8165" fill-opacity="0.03137254901960784" />
<path d="M133,-182 L135,-165 L249,-240 L110,-255 L29,-312 L61,-85 Z" stroke-width="0" fill="#0a2236" fill-opacity="0.7568627450980392" />
<path d="M49,-83 L105,-222 L135,-43 L194,-31 L142,-187 L66,-49 Z" stroke-width="0" fill="#000000" fill-opacity="0.8509803921568627" />
<path d="M109,-102 L110,-57 L88,-309 L74,-94 L146,-261 L207,-77 Z" stroke-width="0" fill="#001300" fill-opacity="0.3764705882352941" />
<path d="M217,-259 L67,-241 L31,-185 L25,-260 L215,-320 L30,-185 Z" stroke-width="0" fill="#061c22" fill-opacity="0.8666666666666667" />
<path d="M107,-124 L76,-112 L84,-235 L79,-151 L159,-181 L30,-157 Z" stroke-width="0" fill="#000200" fill-opacity="0.7529411764705882" />
<path d="M183,-142 L75,-97 L120,-27 L81,-66 L107,-79 L59,-159 Z" stroke-width="0" fill="#000000" fill-opacity="0.4627450980392157" />
<path d="M121,-190 L31,-86 L166,-315 L234,-231 L50,-264 L232,-128 Z" stroke-width="0" fill="#002202" fill-opacity="0.15294117647058825" />
<path d="M163,-47 L167,-92 L58,-209 L130,-307 L138,-123 L128,-187 Z" stroke-width="0" fill="#312612" fill-opacity="0.22745098039215686" />
<path d="M34,-87 L28,-166 L32,-222 L209,-127 L46,-185 L236,-97 Z" stroke-width="0" fill="#000003" fill-opacity="0.5803921568627451" />
<path d="M208,-131 L51,-71 L110,-145 L215,-231 L61,-259 L177,-35 Z" stroke-width="0" fill="#151c00" fill-opacity="0.10980392156862745" />
<path d="M86,-61 L36,-61 L123,-54 L152,-157 L185,-210 L52,-102 Z" stroke-width="0" fill="#000000" fill-opacity="0.2823529411764706" />
<path d="M149,-25 L89,-149 L76,-43 L144,-241 L117,-158 L131,-96 Z" stroke-width="0" fill="#000000" fill-opacity="0.4588235294117647" />
<path d="M224,-108 L25,-268 L112,-274 L164,-143 L178,-188 L170,-311 Z" stroke-width="0" fill="#050d21" fill-opacity="0.2196078431372549" />
<text x="137.5" y="12.5" font-size="20.0" fill="black" text-anchor="middle" transform="translate(0,5.0)">DEATH</text>
</svg>