<?xml version="1.0" encoding="UTF-8"?>
<svg xmlns="http://www.w3.org/2000/svg" xmlns:xlink="http://www.w3.org/1999/xlink"
     width="275" height="375" viewBox="0 -350 275 375">
<defs>
</defs>
<rect x="15" y="-335" width="245" height="320" stroke="black" stroke-width="4" fill="white" />
<path d="M100,-105 L117,-202 L138,-167 L237,-199 L67,-119 L119,-236 Z" stroke-width="0" fill="#9dd2da" fill-opacity="0.48627450980392156" />
<path d="M37,-155 L156,-226 L244,-135 L35,-317 L71,-231 L189,-25 Z" stroke-width="0" fill="#162200" fill-opacity="0.5019607843137255" />
<path d="M95,-73 L103,-227 L219,-134 L140,-171 L34,-143 L124,-56 Z" stroke-width="0" fill="#e66604" fill-opacity="0.9921568627450981" />
<path d="M133,-242 L115,-72 L131,-104 L48,-25 L174,-130 L96,-148 Z" stroke-width="0" fill="#f7160a" fill-opacity="0.2" />
<path d="M85,-91 L27,-289 L173,-131 L86,-205 L86,-279 L80,-51 Z" stroke-width="0" fill="#934011" fill-opacity="0.5568627450980392" />
<path d="M139,-154 L47,-322 L237,-169 L170,-81 L204,-75 L48,-136 Z" stroke-width="0" fill="#7f6b03" fill-opacity="0.36470588235294116" />
<path d="M97,-143 L230,-28 L215,-200 L67,-72 L65,-118 L241,-116 Z" stroke-width="0" fill="#643153" fill-opacity="0.5647058823529412" />
<path d="M38,-311 L237,-40 L56,-84 L99,-32 L81,-200 L114,-261 Z" stroke-width="0" fill="#b98266" fill-opacity="0.7686274509803922" />
<path d="M142,-99 L79,-188 L149,-107 L117,-200 L140,-55 L210,-226 Z" stroke-width="0" fill="#161a12" fill-opacity="0.00392156862745098" />
<path d="M128,-151 L34,-224 L57,-50 L97,-302 L31,-159 L109,-155 Z" stroke-width="0" fill="#b91500" fill-opacity="0.792156862745098" />
<path d="M28,-148 L120,-295 L46,-156 L55,-71 L128,-104 L26,-63 Z" stroke-width="0" fill="#5a471d" fill-opacity="0.8745098039215686" />
<path d="M185,-209 L183,-109 L135,-91 L179,-29 L39,-80 L222,-166 Z" stroke-width="0" fill="#fee335" fill-opacity="0.23921568627450981" />
<path d="M179,-57 L108,-83 L97,-116 L69,-202 L45,-146 L155,-270 Z" stroke-width="0" fill="#00260f" fill-opacity="0.7490196078431373" />
<path d="M50,-259 L44,-106 L53,-184 L224,-185 L109,-285 L31,-291 Z" stroke-width="0" fill="#723a00" fill-opacity="0.5019607843137255" />
<path d="M28,-109 L34,-115 L102,-282 L192,-261 L26,-41 L176,-211 Z" stroke-width="0" fill="#6b1706" fill-opacity="0.9686274509803922" />
<path d="M42,-308 L112,-36 L136,-93 L124,-150 L142,-168 L234,-199 Z" stroke-width="0" fill="#eaea9e" fill-opacity="0.9647058823529412" />
<path d="M38,-74 L156,-311 L125,-196 L208,-73 L146,-171 L184,-306 Z" stroke-width="0" fill="#f4ad0a" fill-opacity="0.34509803921568627" />
<path d="M225,-158 L90,-289 L136,-277 L186,-300 L60,-204 L85,-75 Z" stroke-width="0" fill="#fbc7d2" fill-opacity="0.5058823529411764" />
<path d="M39,-114 L81,-268 L140,-33 L131,-323 L85,-311 L136,-62 Z" stroke-width="0" fill="#763400" fill-opacity="0.5019607843137255" />
<path d="M150,-38 L190,-149 L86,-307 L75,-163 L60,-316 L114,-67 Z" stroke-width="0" fill="#faf4a9" fill-opacity="0.5607843137254902" />
<path d="M198,-143 L156,-140 L97,-175 L112,-29 L53,-215 L56,-323 Z" stroke-width="0" fill="#76031c" fill-opacity="0.3254901960784314" />
<path d="M181,-205 L209,-120 L181,-251 L49,-167 L214,-197 L30,-288 Z" stroke-width="0" fill="#be8a54" fill-opacity="0.7725490196078432" />
<path d="M116,-97 L166,-247 L159,-281 L140,-159 L134,-201 L56,-99 Z" stroke-width="0" fill="#86dd1e" fill-opacity="0.7843137254901961" />
<path d="M123,-173 L232,-176 L104,-279 L55,-196 L163,-127 L198,-62 Z" stroke-width="0" fill="#efe5fd" fill-opacity="0.9647058823529412" />
<path d="M83,-201 L68,-296 L238,-192 L202,-233 L59,-259 L185,-234 Z" stroke-width="0" fill="#c8229a" fill-opacity="0.027450980392156862" />
<path d="M167,-62 L84,-287 L127,-323 L41,-31 L229,-27 L141,-163 Z" stroke-width="0" fill="#4e3400" fill-opacity="0.5019607843137255" />
<path d="M212,-266 L97,-290 L188,-123 L107,-127 L81,-273 L154,-97 Z" stroke-width="0" fill="#71f2f0" fill-opacity="0.03529411764705882" />
<path d="M57,-206 L157,-211 L75,-271 L52,-142 L74,-42 L185,-229 Z" stroke-width="0" fill="#6eb139" fill-opacity="0.6980392156862745" />
<path d="M212,-93 L31,-214 L164,-115 L38,-39 L202,-56 L117,-227 Z" stroke-width="0" fill="#c8ee20" fill-opacity="0.23921568627450981" />
<path d="M183,-58 L241,-74 L94,-293 L107,-104 L222,-303 L81,-227 Z" stroke-width="0" fill="#7b6813" fill-opacity="0.6549019607843137" />
<path d="M111,-231 L42,-50 L132,-321 L35,-225 L249,-39 L115,-181 Z" stroke-width="0" fill="#94875f" fill-opacity="0.596078431372549" />
<path d="M232,-143 L229,-264 L60,-63 L56,-223 L226,-70 L112,-102 Z" stroke-width="0" fill="#e5eef9" fill-opacity="0.6980392156862745" />
<path d="M58,-273 L121,-114 L152,-48 L199,-255 L136,-166 L110,-127 Z" stroke-width="0" fill="#f4f4bf" fill-opacity="0.6980392156862745" />
<path d="M60,-128 L117,-266 L25,-76 L165,-57 L68,-253 L196,-90 Z" stroke-width="0" fill="#9f0000" fill-opacity="0.6941176470588235" />
<path d="M99,-90 L40,-169 L107,-246 L40,-140 L217,-275 L128,-74 Z" stroke-width="0" fill="#cdfdac" fill-opacity="0.050980392156862744" />
<path d="M66,-72 L93,-185 L136,-97 L80,-175 L61,-145 L51,-87 Z" stroke-width="0" fill="#0d554e" fill-opacity="0.4470588235294118" />
<path d="M99,-125 L169,-31 L193,-233 L218,-210 L180,-287 L127,-38 Z" stroke-width="0" fill="#dfd281" fill-opacity="0.7254901960784313" />
<path d="M124,-209 L79,-289 L121,-64 L70,-118 L181,-110 L96,-146 Z" stroke-width="0" fill="#872b00" fill-opacity="0.8588235294117647" />
<path d="M226,-44 L135,-109 L73,-246 L107,-41 L72,-240 L134,-279 Z" stroke-width="0" fill="#146fbb" fill-opacity="0.08235294117647059" />
<path d="M154,-221 L124,-174 L179,-40 L31,-133 L84,-96 L44,-48 Z" stroke-width="0" fill="#c3f488" fill-opacity="0.043137254901960784" />
<path d="M119,-183 L229,-274 L96,-158 L201,-150 L192,-90 L67,-120 Z" stroke-width="0" fill="#0d7a6f" fill-opacity="0.011764705882352941" />
<path d="M155,-273 L101,-248 L28,-45 L74,-80 L188,-185 L39,-237 Z" stroke-width="0" fill="#130313" fill-opacity="0.9058823529411765" />
<path d="M221,-50 L166,-197 L39,-79 L207,-180 L157,-59 L42,-155 Z" stroke-width="0" fill="#ca8fd6" fill-opacity="0.48627450980392156" />
<path d="M228,-317 L105,-118 L62,-309 L32,-258 L91,-250 L203,-26 Z" stroke-width="0" fill="#b94c71" fill-opacity="0.45098039215686275" />
<path d="M32,-312 L189,-305 L83,-66 L93,-110 L91,-286 L157,-158 Z" stroke-width="0" fill="#a27625" fill-opacity="0.7529411764705882" />
<path d="M235,-194 L78,-324 L153,-236 L100,-211 L181,-68 L27,-258 Z" stroke-width="0" fill="#b57e5e" fill-opacity="0.7058823529411765" />
<path d="M242,-249 L57,-303 L230,-95 L87,-141 L160,-249 L100,-215 Z" stroke-width="0" fill="#dfccaa" fill-opacity="0.26666666666666666" />
<path d="M175,-133 L118,-110 L53,-93 L43,-86 L225,-130 L247,-231 Z" stroke-width="0" fill="#dcfbed" fill-opacity="0.3843137254901961" />
<path d="M189,-112 L45,-79 L160,-219 L150,-101 L204,-107 L30,-317 Z" stroke-width="0" fill="#bd663c" fill-opacity="0.4549019607843137" />
<path d="M40,-303 L40,-45 L199,-263 L234,-53 L95,-137 L62,-50 Z" stroke-width="0" fill="#a77391" fill-opacity="0.615686274509804" />
<path d="M126,-199 L244,-248 L42,-51 L148,-231 L234,-170 L34,-62 Z" stroke-width="0" fill="#e8e4de" fill-opacity="0.3803921568627451" />
<path d="M34,-235 L245,-225 L59,-37 L151,-318 L32,-241 L135,-160 Z" stroke-width="0" fill="#c7a89c" fill-opacity="0.396078431372549" />
<path d="M107,-197 L62,-78 L82,-25 L122,-49 L114,-263 L195,-26 Z" stroke-width="0" fill="#c84b6a" fill-opacity="0.5019607843137255" />
<path d="M206,-120 L131,-158 L110,-132 L249,-280 L155,-292 L164,-172 Z" stroke-width="0" fill="#d5fbe7" fill-opacity="0.403921568627451" />
<path d="M114,-34 L143,-48 L241,-96 L181,-91 L186,-311 L78,-221 Z" stroke-width="0" fill="#e3d85c" fill-opacity="0.6588235294117647" />
<path d="M237,-158 L186,-179 L139,-217 L63,-249 L156,-60 L168,-28 Z" stroke-width="0" fill="#69272f" fill-opacity="0.5215686274509804" />
<path d="M201,-162 L102,-84 L160,-103 L96,-306 L43,-67 L130,-35 Z" stroke-width="0" fill="#7e998e" fill-opacity="0.1568627450980392" />
<path d="M147,-205 L221,-157 L212,-70 L144,-195 L90,-159 L27,-283 Z" stroke-width="0" fill="#b0a540" fill-opacity="0.5019607843137255" />
<path d="M163,-137 L247,-145 L90,-177 L165,-35 L111,-316 L35,-239 Z" stroke-width="0" fill="#c9b888" fill-opacity="0.34901960784313724" />
<path d="M139,-55 L37,-148 L201,-123 L213,-226 L40,-91 L138,-30 Z" stroke-width="0" fill="#b5d081" fill-opacity="0.28627450980392155" />
<path d="M240,-56 L196,-265 L227,-146 L247,-220 L71,-279 L91,-286 Z" stroke-width="0" fill="#f362fc" fill-opacity="0.12549019607843137" />
<path d="M197,-89 L83,-112 L63,-109 L55,-216 L39,-292 L141,-98 Z" stroke-width="0" fill="#469226" fill-opacity="0.9019607843137255" />
<path d="M81,-69 L125,-105 L205,-95 L61,-306 L141,-243 L115,-34 Z" stroke-width="0" fill="#adb363" fill-opacity="0.32941176470588235" />
<path d="M179,-187 L192,-289 L71,-167 L169,-253 L172,-293 L178,-97 Z" stroke-width="0" fill="#9ea870" fill-opacity="0.5019607843137255" />
<path d="M151,-198 L193,-147 L184,-51 L70,-172 L178,-299 L148,-195 Z" stroke-width="0" fill="#1f5f00" fill-opacity="0.011764705882352941" />
<path d="M101,-80 L81,-89 L170,-296 L54,-233 L77,-31 L92,-139 Z" stroke-width="0" fill="#e2e795" fill-opacity="0.17647058823529413" />
<path d="M158,-196 L175,-246 L111,-134 L246,-177 L101,-288 L157,-93 Z" stroke-width="0" fill="#938de7" fill-opacity="0.023529411764705882" />
<path d="M211,-163 L202,-290 L209,-126 L26,-69 L140,-31 L212,-242 Z" stroke-width="0" fill="#f17969" fill-opacity="0.3843137254901961" />
<path d="M91,-57 L145,-206 L169,-101 L59,-192 L68,-71 L26,-102 Z" stroke-width="0" fill="#aef46f" fill-opacity="0.5137254901960784" />
<path d="M154,-101 L103,-276 L215,-306 L71,-105 L35,-152 L30,-273 Z" stroke-width="0" fill="#643d00" fill-opacity="0.28627450980392155" />
<path d="M199,-75 L213,-33 L210,-185 L145,-192 L203,-310 L146,-169 Z" stroke-width="0" fill="#203c65" fill-opacity="0.27450980392156865" />
<path d="M83,-43 L66,-308 L42,-173 L126,-235 L235,-268 L190,-308 Z" stroke-width="0" fill="#d2a142" fill-opacity="0.5137254901960784" />
<path d="M200,-172 L36,-305 L111,-85 L35,-162 L65,-254 L58,-275 Z" stroke-width="0" fill="#b37039" fill-opacity="0.7333333333333333" />
<path d="M228,-40 L211,-210 L78,-274 L130,-136 L189,-271 L66,-85 Z" stroke-width="0" fill="#9b6ab1" fill-opacity="0.23529411764705882" />
<path d="M38,-238 L109,-221 L133,-205 L124,-126 L32,-108 L193,-118 Z" stroke-width="0" fill="#d886aa" fill-opacity="0.1411764705882353" />
<path d="M104,-65 L46,-39 L184,-303 L167,-299 L32,-104 L93,-291 Z" stroke-width="0" fill="#91725e" fill-opacity="0.1607843137254902" />
<path d="M143,-144 L43,-168 L139,-84 L205,-167 L168,-164 L94,-143 Z" stroke-width="0" fill="#f0cf16" fill-opacity="0.9647058823529412" />
<path d="M194,-40 L170,-41 L103,-116 L218,-233 L43,-283 L63,-116 Z" stroke-width="0" fill="#e89d84" fill-opacity="0.6705882352941176" />
<path d="M202,-190 L243,-80 L47,-129 L197,-135 L144,-104 L58,-148 Z" stroke-width="0" fill="#312497" fill-opacity="0.6392156862745098" />
<path d="M118,-103 L180,-127 L108,-165 L153,-50 L136,-264 L124,-66 Z" stroke-width="0" fill="#e9a077" fill-opacity="0.8196078431372549" />
<path d="M180,-74 L55,-253 L99,-274 L174,-269 L204,-170 L187,-138 Z" stroke-width="0" fill="#b2405b" fill-opacity="0.37254901960784315" />
<path d="M30,-132 L116,-54 L222,-103 L246,-291 L58,-299 L182,-281 Z" stroke-width="0" fill="#d39ad2" fill-opacity="0.19607843137254902" />
<path d="M56,-64 L143,-46 L83,-91 L174,-226 L212,-183 L138,-258 Z" stroke-width="0" fill="#b0281d" fill-opacity="0.09411764705882353" />
<path d="M135,-221 L122,-201 L39,-210 L57,-151 L211,-178 L146,-112 Z" stroke-width="0" fill="#f7410c" fill-opacity="0.25098039215686274" />
<path d="M171,-32 L159,-134 L42,-220 L56,-37 L50,-106 L221,-90 Z" stroke-width="0" fill="#d22424" fill-opacity="0.36470588235294116" />
<path d="M120,-215 L177,-101 L67,-231 L111,-87 L36,-214 L128,-323 Z" stroke-width="0" fill="#bdcc10" fill-opacity="0.19607843137254902" />
<path d="M94,-248 L205,-108 L241,-80 L249,-301 L28,-40 L25,-222 Z" stroke-width="0" fill="#d9d093" fill-opacity="0.6" />
<path d="M196,-307 L232,-52 L118,-237 L171,-187 L157,-255 L107,-278 Z" stroke-width="0" fill="#ef9cf3" fill-opacity="0.13725490196078433" />
<path d="M42,-44 L92,-40 L163,-243 L196,-45 L69,-283 L49,-215 Z" stroke-width="0" fill="#bd804d" fill-opacity="0.5137254901960784" />
<path d="M249,-200 L46,-120 L126,-122 L117,-181 L158,-91 L214,-77 Z" stroke-width="0" fill="#5a50af" fill-opacity="0.09411764705882353" />
<path d="M172,-35 L46,-311 L160,-59 L145,-87 L161,-121 L25,-259 Z" stroke-width="0" fill="#bca818" fill-opacity="0.38823529411764707" />
<path d="M160,-49 L171,-51 L134,-125 L213,-40 L210,-324 L173,-40 Z" stroke-width="0" fill="#e597f9" fill-opacity="0.1607843137254902" />
<path d="M176,-200 L232,-303 L197,-117 L164,-114 L203,-64 L42,-25 Z" stroke-width="0" fill="#d1c377" fill-opacity="0.3058823529411765" />
<path d="M55,-201 L132,-191 L153,-175 L146,-109 L153,-191 L212,-170 Z" stroke-width="0" fill="#d6137a" fill-opacity="0.08235294117647059" />
<path d="M202,-118 L145,-144 L38,-285 L158,-274 L205,-36 L40,-119 Z" stroke-width="0" fill="#b9cd32" fill-opacity="0.39215686274509803" />
<path d="M247,-134 L144,-202 L180,-276 L46,-207 L30,-179 L160,-280 Z" stroke-width="0" fill="#a774de" fill-opacity="0.1607843137254902" />
<path d="M72,-218 L224,-50 L100,-45 L211,-128 L97,-275 L232,-110 Z" stroke-width="0" fill="#886234" fill-opacity="0.27450980392156865" />
<path d="M165,-34 L245,-178 L102,-90 L185,-236 L118,-209 L136,-66 Z" stroke-width="0" fill="#9c6639" fill-opacity="0.3333333333333333" />
<path d="M106,-185 L129,-209 L173,-60 L66,-161 L44,-320 L140,-210 Z" stroke-width="0" fill="#af9bbe" fill-opacity="0.29411764705882354" />
<path d="M39,-134 L75,-81 L246,-92 L47,-51 L134,-159 L143,-188 Z" stroke-width="0" fill="#d7c473" fill-opacity="0.24705882352941178" />
<text x="137.5" y="12.5" font-size="20.0" fill="black" text-anchor="middle" transform="translate(0,5.0)">SELF</text>
</svg>