<?xml version="1.0" encoding="UTF-8"?>
<svg xmlns="http://www.w3.org/2000/svg" xmlns:xlink="http://www.w3.org/1999/xlink"
     width="896" height="1496" viewBox="0 -1400 896 1496" style="font-size:70;font-family:Poor Richard, Times New Roman;stroke:black;stroke-width:1;fill:none">
<defs>
</defs>
<path d="M190,-1074 L402,-1258 L334,-418 L102,-298 L366,-134 L214,-1198 Z" stroke-width="0" fill="#eaddcf" fill-opacity="0.23137254901960785" />
<path d="M218,-430 L574,-686 L366,-146 L510,-106 L358,-614 L150,-466 Z" stroke-width="0" fill="#f2e18c" fill-opacity="0.10588235294117647" />
<path d="M758,-982 L766,-598 L638,-958 L270,-186 L542,-970 L142,-486 Z" stroke-width="0" fill="#fcfed2" fill-opacity="1.0" />
<path d="M298,-314 L482,-1146 L282,-146 L382,-138 L294,-262 L142,-970 Z" stroke-width="0" fill="#fbede9" fill-opacity="0.047058823529411764" />
<path d="M190,-458 L126,-742 L642,-186 L718,-202 L246,-1034 L218,-706 Z" stroke-width="0" fill="#fbfdcd" fill-opacity="0.09019607843137255" />
<path d="M250,-658 L682,-278 L626,-766 L186,-986 L186,-1082 L410,-382 Z" stroke-width="0" fill="#c9f9ba" fill-opacity="0.0784313725490196" />
<path d="M682,-1170 L618,-278 L718,-602 L146,-222 L778,-434 L126,-890 Z" stroke-width="0" fill="#b0ddf5" fill-opacity="0.12156862745098039" />
<path d="M558,-1146 L538,-1166 L450,-254 L126,-862 L530,-970 L726,-1142 Z" stroke-width="0" fill="#f4ad73" fill-opacity="0.1843137254901961" />
<path d="M298,-486 L698,-162 L798,-690 L98,-414 L278,-1078 L282,-294 Z" stroke-width="0" fill="#a3d907" fill-opacity="0.1450980392156863" />
<path d="M398,-782 L566,-594 L314,-958 L102,-90 L502,-202 L302,-262 Z" stroke-width="0" fill="#e8cb97" fill-opacity="0.43137254901960786" />
<path d="M258,-882 L194,-1046 L646,-610 L282,-378 L290,-290 L578,-538 Z" stroke-width="0" fill="#ceebb5" fill-opacity="0.043137254901960784" />
<path d="M702,-1262 L306,-590 L122,-758 L114,-1214 L98,-410 L638,-402 Z" stroke-width="0" fill="#c1ba6e" fill-opacity="0.29411764705882354" />
<path d="M310,-322 L110,-1110 L306,-154 L730,-742 L702,-438 L298,-330 Z" stroke-width="0" fill="#e6dbca" fill-opacity="0.5137254901960784" />
<path d="M426,-258 L82,-686 L474,-246 L286,-1242 L126,-162 L278,-242 Z" stroke-width="0" fill="#fecbc9" fill-opacity="0.1607843137254902" />
<path d="M294,-182 L270,-774 L522,-518 L114,-286 L154,-794 L374,-726 Z" stroke-width="0" fill="#dff1f8" fill-opacity="0.5647058823529412" />
<path d="M190,-1074 L302,-1170 L270,-946 L602,-178 L210,-974 L694,-210 Z" stroke-width="0" fill="#ef9e85" fill-opacity="0.00392156862745098" />
<path d="M430,-198 L710,-270 L474,-994 L390,-334 L726,-1074 L282,-262 Z" stroke-width="0" fill="#9370e8" fill-opacity="0.0196078431372549" />
<path d="M654,-362 L666,-438 L514,-914 L566,-1102 L682,-1142 L362,-378 Z" stroke-width="0" fill="#1cf2cc" fill-opacity="0.0" />
<path d="M194,-1210 L446,-870 L530,-338 L698,-158 L666,-994 L810,-518 Z" stroke-width="0" fill="#ffe0d0" fill-opacity="0.6313725490196078" />
<path d="M350,-1162 L530,-1202 L810,-986 L90,-110 L234,-370 L722,-846 Z" stroke-width="0" fill="#34b97f" fill-opacity="0.07058823529411765" />
<path d="M198,-118 L714,-614 L326,-638 L606,-806 L250,-150 L450,-1018 Z" stroke-width="0" fill="#9228fc" fill-opacity="0.00784313725490196" />
<path d="M326,-746 L246,-138 L138,-594 L154,-358 L786,-714 L118,-222 Z" stroke-width="0" fill="#d9f4d5" fill-opacity="0.19607843137254902" />
<path d="M162,-342 L258,-706 L350,-210 L402,-502 L170,-1038 L342,-770 Z" stroke-width="0" fill="#69d8b7" fill-opacity="0.10196078431372549" />
<path d="M554,-338 L662,-1086 L170,-130 L110,-1126 L142,-882 L670,-954 Z" stroke-width="0" fill="#edcafa" fill-opacity="0.01568627450980392" />
<path d="M554,-322 L182,-102 L798,-602 L650,-442 L794,-134 L194,-310 Z" stroke-width="0" fill="#d4ba68" fill-opacity="0.24705882352941178" />
<path d="M582,-1198 L454,-562 L634,-478 L398,-338 L310,-930 L362,-166 Z" stroke-width="0" fill="#2ee525" fill-opacity="0.0196078431372549" />
<path d="M754,-198 L642,-994 L290,-566 L490,-978 L174,-530 L530,-570 Z" stroke-width="0" fill="#aaeb0a" fill-opacity="0.1450980392156863" />
<path d="M94,-918 L314,-1310 L282,-1194 L658,-258 L146,-898 L646,-254 Z" stroke-width="0" fill="#f1557a" fill-opacity="0.09411764705882353" />
<path d="M98,-490 L614,-386 L490,-1166 L702,-910 L382,-1294 L126,-942 Z" stroke-width="0" fill="#e1fe90" fill-opacity="0.11764705882352941" />
<path d="M558,-1118 L418,-222 L642,-94 L126,-1106 L182,-670 L438,-470 Z" stroke-width="0" fill="#f6434d" fill-opacity="0.18823529411764706" />
<path d="M798,-510 L174,-806 L622,-262 L162,-838 L514,-910 L742,-938 Z" stroke-width="0" fill="#03f83f" fill-opacity="0.047058823529411764" />
<path d="M134,-798 L690,-502 L594,-662 L710,-358 L110,-646 L470,-778 Z" stroke-width="0" fill="#cafeec" fill-opacity="0.054901960784313725" />
<path d="M302,-142 L366,-850 L482,-422 L698,-1034 L166,-518 L710,-582 Z" stroke-width="0" fill="#fcedf7" fill-opacity="0.9686274509803922" />
<path d="M202,-1158 L102,-962 L190,-130 L242,-626 L646,-1290 L606,-94 Z" stroke-width="0" fill="#dbe5ae" fill-opacity="0.17254901960784313" />
<path d="M514,-686 L646,-758 L810,-1146 L526,-334 L770,-510 L418,-114 Z" stroke-width="0" fill="#fcba07" fill-opacity="0.12156862745098039" />
<path d="M254,-1050 L574,-322 L458,-242 L94,-178 L154,-366 L158,-1070 Z" stroke-width="0" fill="#ccc8b5" fill-opacity="0.050980392156862744" />
<path d="M238,-86 L258,-790 L646,-486 L770,-958 L470,-602 L422,-1146 Z" stroke-width="0" fill="#fceed4" fill-opacity="0.5019607843137255" />
<path d="M642,-474 L358,-282 L218,-242 L490,-678 L98,-1154 L746,-686 Z" stroke-width="0" fill="#c0b09f" fill-opacity="0.32941176470588235" />
<path d="M290,-570 L98,-434 L558,-1106 L706,-986 L586,-990 L430,-118 Z" stroke-width="0" fill="#e7f1f9" fill-opacity="0.21176470588235294" />
<path d="M346,-1122 L534,-1094 L690,-642 L430,-1026 L786,-1206 L590,-186 Z" stroke-width="0" fill="#e3c7d3" fill-opacity="0.6666666666666666" />
<path d="M530,-466 L534,-506 L718,-514 L586,-926 L482,-1006 L118,-882 Z" stroke-width="0" fill="#fef66a" fill-opacity="0.2823529411764706" />
<path d="M238,-702 L162,-430 L418,-698 L574,-438 L298,-582 L558,-386 Z" stroke-width="0" fill="#e9fcc4" fill-opacity="0.3176470588235294" />
<path d="M642,-170 L142,-1094 L686,-1030 L330,-626 L170,-1194 L346,-98 Z" stroke-width="0" fill="#fee9b6" fill-opacity="0.3137254901960784" />
<path d="M698,-826 L114,-382 L434,-146 L378,-254 L386,-402 L442,-1122 Z" stroke-width="0" fill="#c4ee86" fill-opacity="0.054901960784313725" />
<path d="M354,-1306 L670,-638 L746,-278 L122,-1186 L422,-582 L534,-1222 Z" stroke-width="0" fill="#7a5b28" fill-opacity="0.13333333333333333" />
<path d="M538,-206 L482,-494 L226,-1310 L146,-766 L582,-954 L182,-398 Z" stroke-width="0" fill="#8ab35f" fill-opacity="0.16862745098039217" />
<path d="M654,-754 L638,-422 L742,-494 L170,-666 L230,-106 L490,-86 Z" stroke-width="0" fill="#220800" fill-opacity="0.09803921568627451" />
<path d="M578,-814 L494,-218 L190,-126 L186,-546 L470,-454 L166,-1142 Z" stroke-width="0" fill="#fbf9db" fill-opacity="0.611764705882353" />
<path d="M526,-1074 L614,-266 L626,-702 L218,-666 L370,-1158 L646,-142 Z" stroke-width="0" fill="#fcb7e2" fill-opacity="0.36470588235294116" />
<path d="M270,-1222 L734,-922 L198,-770 L314,-998 L254,-794 L174,-706 Z" stroke-width="0" fill="#edefd5" fill-opacity="0.7686274509803922" />
<path d="M478,-550 L382,-610 L366,-702 L314,-442 L318,-590 L510,-1074 Z" stroke-width="0" fill="#f2f8d3" fill-opacity="0.3137254901960784" />
<path d="M226,-190 L206,-638 L630,-150 L86,-1050 L370,-798 L406,-738 Z" stroke-width="0" fill="#fcf2e5" fill-opacity="0.615686274509804" />
<path d="M346,-1314 L622,-590 L378,-342 L690,-118 L638,-190 L246,-1222 Z" stroke-width="0" fill="#62a914" fill-opacity="0.07058823529411765" />
<path d="M522,-486 L802,-158 L174,-286 L130,-902 L242,-762 L342,-134 Z" stroke-width="0" fill="#f0acef" fill-opacity="0.06274509803921569" />
<path d="M774,-986 L542,-1018 L786,-974 L606,-490 L318,-850 L710,-1030 Z" stroke-width="0" fill="#e9dbdb" fill-opacity="0.5882352941176471" />
<path d="M462,-814 L406,-254 L526,-350 L594,-670 L490,-738 L618,-1282 Z" stroke-width="0" fill="#a1ec60" fill-opacity="0.09803921568627451" />
<path d="M442,-130 L726,-346 L170,-102 L326,-686 L802,-1126 L646,-522 Z" stroke-width="0" fill="#dbddd1" fill-opacity="0.6" />
<path d="M202,-562 L326,-550 L162,-114 L126,-994 L98,-958 L642,-722 Z" stroke-width="0" fill="#d5deeb" fill-opacity="0.08627450980392157" />
<path d="M358,-1230 L498,-178 L534,-906 L214,-318 L418,-454 L378,-294 Z" stroke-width="0" fill="#f1de95" fill-opacity="0.06666666666666667" />
<path d="M354,-1046 L674,-326 L94,-270 L470,-366 L274,-1178 L270,-386 Z" stroke-width="0" fill="#cdd3a2" fill-opacity="0.15294117647058825" />
<path d="M590,-114 L766,-1018 L170,-750 L386,-1086 L642,-1126 L282,-1226 Z" stroke-width="0" fill="#fbdbe0" fill-opacity="0.42745098039215684" />
<path d="M162,-686 L294,-106 L726,-590 L702,-678 L494,-662 L462,-842 Z" stroke-width="0" fill="#f4dc6e" fill-opacity="0.08235294117647059" />
<path d="M542,-754 L294,-1246 L470,-842 L230,-246 L86,-270 L102,-342 Z" stroke-width="0" fill="#e7ebd2" fill-opacity="0.32941176470588235" />
<path d="M158,-258 L794,-222 L562,-322 L802,-1214 L274,-490 L214,-1102 Z" stroke-width="0" fill="#cdfea7" fill-opacity="0.28627450980392155" />
<path d="M610,-190 L114,-206 L394,-122 L230,-758 L638,-398 L402,-342 Z" stroke-width="0" fill="#fde0d3" fill-opacity="0.8392156862745098" />
<path d="M678,-966 L610,-614 L378,-714 L670,-710 L586,-558 L554,-318 Z" stroke-width="0" fill="#caf1f3" fill-opacity="0.03529411764705882" />
<path d="M638,-810 L250,-690 L754,-582 L162,-1222 L774,-1198 L526,-310 Z" stroke-width="0" fill="#fae146" fill-opacity="0.03137254901960784" />
<path d="M722,-294 L82,-1266 L354,-626 L114,-578 L254,-390 L614,-1258 Z" stroke-width="0" fill="#e8d9e6" fill-opacity="0.6627450980392157" />
<path d="M98,-466 L738,-654 L322,-298 L270,-726 L770,-218 L154,-1054 Z" stroke-width="0" fill="#e5ff9e" fill-opacity="0.03137254901960784" />
<path d="M466,-102 L734,-350 L586,-1194 L150,-934 L626,-1206 L390,-390 Z" stroke-width="0" fill="#f7dece" fill-opacity="0.5607843137254902" />
<path d="M254,-634 L146,-298 L610,-262 L718,-178 L422,-318 L306,-198 Z" stroke-width="0" fill="#e7fae8" fill-opacity="0.8" />
<path d="M534,-1022 L510,-750 L566,-966 L434,-242 L794,-158 L766,-878 Z" stroke-width="0" fill="#f6c7ef" fill-opacity="0.4549019607843137" />
<path d="M426,-206 L594,-914 L102,-770 L110,-322 L410,-1026 L454,-402 Z" stroke-width="0" fill="#f0f2ed" fill-opacity="0.3333333333333333" />
<path d="M218,-162 L294,-1094 L342,-102 L438,-1202 L446,-1138 L758,-454 Z" stroke-width="0" fill="#e8f2df" fill-opacity="0.8117647058823529" />
<path d="M190,-134 L298,-274 L598,-514 L278,-226 L386,-518 L382,-394 Z" stroke-width="0" fill="#fdba54" fill-opacity="0.1803921568627451" />
<path d="M510,-702 L686,-850 L590,-910 L198,-130 L114,-934 L694,-262 Z" stroke-width="0" fill="#d1efaa" fill-opacity="0.2823529411764706" />
<path d="M538,-366 L398,-606 L646,-1222 L310,-566 L254,-938 L790,-582 Z" stroke-width="0" fill="#f1cfe4" fill-opacity="0.12156862745098039" />
<path d="M98,-1290 L118,-1302 L146,-738 L806,-918 L690,-142 L318,-342 Z" stroke-width="0" fill="#c4c5b1" fill-opacity="0.20784313725490197" />
<path d="M550,-926 L410,-366 L310,-314 L82,-934 L146,-286 L534,-362 Z" stroke-width="0" fill="#ffbae1" fill-opacity="0.15294117647058825" />
<path d="M166,-622 L654,-674 L662,-522 L294,-946 L342,-470 L438,-938 Z" stroke-width="0" fill="#cbeafc" fill-opacity="0.6588235294117647" />
<path d="M322,-198 L98,-110 L122,-830 L370,-1294 L374,-530 L490,-454 Z" stroke-width="0" fill="#c3b6ec" fill-opacity="0.09019607843137255" />
<path d="M190,-1070 L626,-834 L150,-1082 L794,-242 L90,-118 L222,-1230 Z" stroke-width="0" fill="#eeeeb7" fill-opacity="0.09019607843137255" />
<path d="M130,-1058 L314,-562 L278,-410 L270,-366 L606,-138 L90,-186 Z" stroke-width="0" fill="#ecb22f" fill-opacity="0.027450980392156862" />
<path d="M130,-1066 L310,-862 L802,-382 L594,-626 L370,-994 L790,-86 Z" stroke-width="0" fill="#efd4d8" fill-opacity="0.8470588235294118" />
<path d="M654,-1038 L202,-134 L606,-118 L258,-1226 L266,-762 L474,-138 Z" stroke-width="0" fill="#d6e9e1" fill-opacity="0.49019607843137253" />
<path d="M406,-1102 L274,-902 L418,-442 L362,-814 L794,-326 L518,-670 Z" stroke-width="0" fill="#e1e29b" fill-opacity="0.08627450980392157" />
<path d="M350,-706 L694,-230 L754,-406 L230,-1122 L218,-158 L694,-254 Z" stroke-width="0" fill="#a3e2f9" fill-opacity="0.34509803921568627" />
<path d="M506,-742 L354,-486 L174,-462 L426,-1254 L746,-794 L650,-866 Z" stroke-width="0" fill="#beacaa" fill-opacity="0.09803921568627451" />
<path d="M286,-622 L238,-518 L338,-786 L374,-1066 L170,-266 L570,-510 Z" stroke-width="0" fill="#fed4de" fill-opacity="0.1803921568627451" />
<path d="M710,-406 L634,-730 L546,-302 L182,-230 L698,-630 L462,-886 Z" stroke-width="0" fill="#f9efbf" fill-opacity="0.4588235294117647" />
<path d="M538,-194 L722,-762 L318,-214 L138,-426 L626,-606 L170,-614 Z" stroke-width="0" fill="#ffeae2" fill-opacity="0.592156862745098" />
<path d="M294,-270 L646,-1302 L642,-226 L698,-202 L686,-1134 L778,-374 Z" stroke-width="0" fill="#ecece2" fill-opacity="0.7411764705882353" />
<path d="M726,-106 L786,-154 L622,-242 L694,-426 L434,-950 L730,-1034 Z" stroke-width="0" fill="#a30858" fill-opacity="0.0" />
<path d="M418,-98 L782,-1102 L278,-346 L122,-942 L374,-1102 L598,-362 Z" stroke-width="0" fill="#d7e4f5" fill-opacity="0.25882352941176473" />
<path d="M346,-618 L566,-1090 L250,-890 L806,-546 L738,-766 L390,-322 Z" stroke-width="0" fill="#ada4a9" fill-opacity="0.00784313725490196" />
<path d="M406,-634 L98,-402 L618,-190 L290,-350 L562,-710 L422,-306 Z" stroke-width="0" fill="#cdeae1" fill-opacity="0.29411764705882354" />
<path d="M506,-602 L322,-1038 L138,-514 L662,-354 L90,-314 L742,-590 Z" stroke-width="0" fill="#eaf2da" fill-opacity="0.5882352941176471" />
<path d="M146,-498 L274,-134 L750,-242 L370,-1210 L462,-606 L770,-426 Z" stroke-width="0" fill="#e8dea9" fill-opacity="0.25882352941176473" />
<path d="M174,-882 L634,-1050 L498,-190 L630,-518 L430,-306 L98,-214 Z" stroke-width="0" fill="#f7d3d3" fill-opacity="0.28627450980392155" />
<path d="M782,-730 L398,-266 L354,-538 L586,-1054 L270,-482 L222,-1106 Z" stroke-width="0" fill="#ebe681" fill-opacity="0.13725490196078433" />
<text x="448.0" y="0" font-size="70.0" fill="black" text-anchor="middle" transform="translate(0,17.5)">SELF</text>
</svg>