<?xml version="1.0" encoding="UTF-8"?>
<svg xmlns="http://www.w3.org/2000/svg" xmlns:xlink="http://www.w3.org/1999/xlink"
     width="896" height="1496" viewBox="0 -1400 896 1496" style="font-size:70;font-family:Poor Richard, Times New Roman;stroke:black;stroke-width:1;fill:none">
<defs>
</defs>
<path d="M518,-350 L242,-1214 L526,-442 L82,-826 L494,-410 L570,-1190 Z" stroke-width="0" fill="#b39100" fill-opacity="0.9764705882352941" />
<path d="M610,-422 L582,-862 L206,-302 L178,-294 L402,-742 L582,-286 Z" stroke-width="0" fill="#0c0b12" fill-opacity="0.9921568627450981" />
<path d="M558,-1258 L650,-694 L194,-894 L146,-826 L270,-626 L202,-422 Z" stroke-width="0" fill="#f6dd00" fill-opacity="0.9372549019607843" />
<path d="M430,-306 L538,-1078 L246,-626 L434,-294 L570,-534 L402,-870 Z" stroke-width="0" fill="#099f6f" fill-opacity="0.5058823529411764" />
<path d="M722,-1046 L326,-1030 L82,-386 L366,-554 L570,-614 L770,-226 Z" stroke-width="0" fill="#242300" fill-opacity="0.9490196078431372" />
<path d="M478,-1066 L734,-838 L250,-94 L734,-1078 L438,-390 L526,-894 Z" stroke-width="0" fill="#f9fcff" fill-opacity="0.0196078431372549" />
<path d="M766,-1190 L242,-506 L294,-926 L198,-118 L286,-214 L514,-706 Z" stroke-width="0" fill="#f9f4ed" fill-opacity="0.011764705882352941" />
<path d="M538,-170 L742,-334 L354,-542 L94,-226 L350,-514 L574,-838 Z" stroke-width="0" fill="#6939ca" fill-opacity="0.984313725490196" />
<path d="M666,-1062 L526,-342 L318,-302 L114,-826 L610,-98 L394,-270 Z" stroke-width="0" fill="#f0fff9" fill-opacity="0.09411764705882353" />
<path d="M458,-658 L422,-794 L338,-494 L618,-850 L546,-1014 L122,-246 Z" stroke-width="0" fill="#50281e" fill-opacity="0.7529411764705882" />
<path d="M478,-94 L410,-1190 L630,-810 L198,-594 L258,-602 L710,-1222 Z" stroke-width="0" fill="#fcfdf6" fill-opacity="0.09411764705882353" />
<path d="M386,-510 L726,-474 L730,-634 L286,-550 L334,-458 L614,-866 Z" stroke-width="0" fill="#9e3599" fill-opacity="0.49019607843137253" />
<path d="M414,-154 L778,-562 L522,-266 L302,-1086 L394,-186 L82,-1306 Z" stroke-width="0" fill="#998400" fill-opacity="0.9725490196078431" />
<path d="M518,-1014 L678,-158 L82,-758 L562,-1174 L670,-810 L302,-134 Z" stroke-width="0" fill="#633100" fill-opacity="0.9019607843137255" />
<path d="M166,-878 L286,-158 L618,-634 L326,-370 L554,-210 L786,-454 Z" stroke-width="0" fill="#010300" fill-opacity="0.8588235294117647" />
<path d="M342,-298 L478,-670 L110,-166 L490,-474 L402,-266 L126,-378 Z" stroke-width="0" fill="#000300" fill-opacity="0.9921568627450981" />
<path d="M194,-702 L206,-1298 L90,-130 L370,-806 L126,-1018 L386,-110 Z" stroke-width="0" fill="#967600" fill-opacity="1.0" />
<path d="M810,-286 L694,-714 L394,-302 L398,-682 L682,-938 L810,-598 Z" stroke-width="0" fill="#f6ca00" fill-opacity="0.9333333333333333" />
<path d="M498,-626 L258,-746 L198,-1082 L442,-162 L294,-154 L574,-778 Z" stroke-width="0" fill="#fff3c0" fill-opacity="0.6" />
<path d="M166,-162 L678,-1190 L178,-106 L414,-102 L438,-710 L206,-1294 Z" stroke-width="0" fill="#f1f6f9" fill-opacity="0.03529411764705882" />
<path d="M702,-138 L618,-438 L110,-514 L770,-766 L466,-574 L170,-966 Z" stroke-width="0" fill="#00001b" fill-opacity="0.9098039215686274" />
<path d="M470,-902 L406,-210 L202,-446 L634,-950 L94,-770 L270,-370 Z" stroke-width="0" fill="#c7a200" fill-opacity="0.9647058823529412" />
<path d="M698,-214 L362,-298 L658,-918 L574,-342 L510,-1034 L334,-1286 Z" stroke-width="0" fill="#000158" fill-opacity="0.7647058823529411" />
<path d="M226,-86 L698,-762 L558,-770 L198,-478 L370,-750 L238,-1150 Z" stroke-width="0" fill="#e9f1fd" fill-opacity="0.06274509803921569" />
<path d="M546,-754 L434,-442 L482,-1106 L618,-830 L330,-982 L754,-386 Z" stroke-width="0" fill="#eef012" fill-opacity="0.9411764705882353" />
<path d="M262,-366 L382,-1050 L426,-126 L82,-370 L598,-334 L398,-898 Z" stroke-width="0" fill="#eced15" fill-opacity="0.07058823529411765" />
<path d="M594,-546 L410,-318 L146,-954 L546,-750 L298,-666 L194,-1086 Z" stroke-width="0" fill="#00f9b2" fill-opacity="0.21176470588235294" />
<path d="M182,-474 L162,-1078 L570,-178 L730,-726 L570,-926 L246,-934 Z" stroke-width="0" fill="#f5f900" fill-opacity="0.9333333333333333" />
<path d="M342,-718 L90,-1286 L482,-418 L638,-398 L630,-162 L578,-806 Z" stroke-width="0" fill="#b38900" fill-opacity="0.9333333333333333" />
<path d="M682,-818 L734,-698 L578,-362 L154,-594 L790,-1278 L130,-1106 Z" stroke-width="0" fill="#e7ca00" fill-opacity="0.9764705882352941" />
<path d="M622,-146 L142,-206 L258,-894 L114,-770 L282,-382 L682,-862 Z" stroke-width="0" fill="#d9ae00" fill-opacity="0.9294117647058824" />
<path d="M474,-1082 L302,-262 L98,-134 L786,-1162 L542,-434 L294,-1098 Z" stroke-width="0" fill="#405100" fill-opacity="0.9725490196078431" />
<path d="M562,-410 L266,-570 L202,-422 L222,-98 L162,-666 L526,-450 Z" stroke-width="0" fill="#1c3b48" fill-opacity="0.027450980392156862" />
<path d="M658,-486 L146,-606 L590,-342 L390,-538 L234,-310 L294,-1078 Z" stroke-width="0" fill="#517867" fill-opacity="0.01568627450980392" />
<path d="M338,-182 L630,-118 L258,-238 L318,-578 L258,-1258 L258,-254 Z" stroke-width="0" fill="#220662" fill-opacity="0.0" />
<path d="M514,-342 L126,-654 L246,-1202 L710,-606 L266,-678 L246,-710 Z" stroke-width="0" fill="#856500" fill-opacity="0.9568627450980393" />
<path d="M362,-702 L106,-258 L498,-542 L794,-1202 L486,-702 L126,-850 Z" stroke-width="0" fill="#b59803" fill-opacity="0.9098039215686274" />
<path d="M102,-794 L338,-782 L494,-282 L234,-902 L518,-1142 L326,-970 Z" stroke-width="0" fill="#a69300" fill-opacity="0.9294117647058824" />
<path d="M450,-386 L734,-614 L146,-414 L154,-602 L526,-278 L382,-1042 Z" stroke-width="0" fill="#ab0a10" fill-opacity="0.4235294117647059" />
<path d="M630,-482 L602,-662 L154,-650 L682,-458 L150,-758 L370,-246 Z" stroke-width="0" fill="#b5eb1d" fill-opacity="0.11372549019607843" />
<path d="M222,-1222 L538,-854 L498,-850 L678,-150 L650,-358 L390,-1002 Z" stroke-width="0" fill="#1408dd" fill-opacity="0.027450980392156862" />
<path d="M618,-882 L294,-770 L726,-610 L226,-170 L326,-458 L650,-1126 Z" stroke-width="0" fill="#000000" fill-opacity="0.8627450980392157" />
<path d="M638,-514 L218,-770 L254,-790 L550,-190 L770,-146 L126,-230 Z" stroke-width="0" fill="#d1c500" fill-opacity="0.023529411764705882" />
<path d="M626,-502 L134,-1258 L502,-894 L198,-1234 L274,-866 L402,-762 Z" stroke-width="0" fill="#c0a300" fill-opacity="0.9450980392156862" />
<path d="M426,-934 L634,-1010 L370,-278 L734,-522 L102,-1094 L270,-250 Z" stroke-width="0" fill="#efe600" fill-opacity="0.8784313725490196" />
<path d="M306,-606 L626,-490 L586,-1186 L202,-1250 L426,-234 L462,-886 Z" stroke-width="0" fill="#ae7e00" fill-opacity="0.6470588235294118" />
<path d="M322,-578 L258,-878 L294,-1154 L582,-1254 L210,-858 L530,-738 Z" stroke-width="0" fill="#080211" fill-opacity="0.996078431372549" />
<path d="M598,-482 L574,-166 L338,-1074 L282,-966 L254,-258 L422,-346 Z" stroke-width="0" fill="#1b1a19" fill-opacity="0.9137254901960784" />
<path d="M474,-1286 L358,-1178 L810,-462 L694,-1006 L326,-1230 L562,-862 Z" stroke-width="0" fill="#000300" fill-opacity="0.9098039215686274" />
<path d="M478,-698 L594,-222 L110,-594 L338,-990 L554,-714 L242,-1110 Z" stroke-width="0" fill="#ce8800" fill-opacity="0.9137254901960784" />
<path d="M214,-618 L378,-1066 L270,-618 L118,-490 L222,-362 L222,-870 Z" stroke-width="0" fill="#e5fd00" fill-opacity="0.7176470588235294" />
<path d="M530,-1306 L106,-222 L166,-1122 L766,-1306 L246,-798 L250,-194 Z" stroke-width="0" fill="#c48700" fill-opacity="0.5333333333333333" />
<path d="M122,-1214 L638,-282 L202,-286 L562,-1058 L354,-658 L446,-938 Z" stroke-width="0" fill="#c4c100" fill-opacity="0.9764705882352941" />
<path d="M710,-918 L118,-1138 L242,-562 L258,-318 L490,-282 L318,-342 Z" stroke-width="0" fill="#dba500" fill-opacity="0.6274509803921569" />
<path d="M94,-1174 L510,-530 L262,-1298 L94,-1214 L438,-1114 L126,-654 Z" stroke-width="0" fill="#a77e00" fill-opacity="0.6862745098039216" />
<path d="M166,-430 L306,-610 L306,-202 L522,-462 L334,-1182 L578,-250 Z" stroke-width="0" fill="#f0e21c" fill-opacity="0.2823529411764706" />
<path d="M342,-714 L718,-1314 L566,-174 L118,-514 L702,-774 L586,-354 Z" stroke-width="0" fill="#efc300" fill-opacity="0.8627450980392157" />
<path d="M662,-1278 L614,-122 L686,-810 L182,-1190 L334,-530 L714,-406 Z" stroke-width="0" fill="#fedb00" fill-opacity="0.9882352941176471" />
<path d="M450,-938 L198,-1262 L110,-258 L94,-86 L362,-270 L670,-1170 Z" stroke-width="0" fill="#08070e" fill-opacity="0.00784313725490196" />
<path d="M546,-734 L618,-1062 L230,-478 L238,-614 L218,-1190 L182,-1166 Z" stroke-width="0" fill="#806600" fill-opacity="0.2784313725490196" />
<path d="M506,-110 L254,-122 L666,-230 L246,-1290 L138,-578 L466,-886 Z" stroke-width="0" fill="#eee2f3" fill-opacity="0.023529411764705882" />
<path d="M146,-634 L550,-494 L338,-1006 L618,-1062 L146,-670 L750,-158 Z" stroke-width="0" fill="#f29c09" fill-opacity="0.24705882352941178" />
<path d="M806,-686 L366,-558 L530,-574 L538,-126 L194,-1214 L158,-282 Z" stroke-width="0" fill="#e2b300" fill-opacity="0.4549019607843137" />
<path d="M142,-990 L234,-122 L198,-1290 L338,-222 L214,-858 L802,-930 Z" stroke-width="0" fill="#c4a000" fill-opacity="0.9647058823529412" />
<path d="M178,-1094 L334,-942 L494,-90 L766,-538 L234,-1262 L614,-162 Z" stroke-width="0" fill="#ac9874" fill-opacity="0.00392156862745098" />
<path d="M682,-998 L150,-286 L406,-686 L766,-1158 L802,-1254 L210,-646 Z" stroke-width="0" fill="#060700" fill-opacity="1.0" />
<path d="M562,-722 L558,-150 L266,-490 L238,-102 L254,-702 L486,-598 Z" stroke-width="0" fill="#dec243" fill-opacity="0.00784313725490196" />
<path d="M386,-1298 L386,-790 L570,-686 L610,-1066 L758,-486 L234,-1238 Z" stroke-width="0" fill="#150000" fill-opacity="0.8313725490196079" />
<path d="M158,-1266 L354,-254 L118,-426 L590,-874 L654,-898 L554,-118 Z" stroke-width="0" fill="#fed600" fill-opacity="0.24705882352941178" />
<path d="M110,-806 L538,-1258 L638,-474 L210,-898 L294,-626 L690,-470 Z" stroke-width="0" fill="#e4b000" fill-opacity="0.8" />
<path d="M502,-310 L302,-518 L730,-134 L514,-666 L810,-838 L282,-814 Z" stroke-width="0" fill="#758400" fill-opacity="0.4117647058823529" />
<path d="M774,-362 L746,-1034 L258,-262 L450,-1054 L682,-662 L590,-178 Z" stroke-width="0" fill="#161c05" fill-opacity="0.9764705882352941" />
<path d="M118,-362 L694,-666 L618,-574 L602,-438 L438,-258 L506,-890 Z" stroke-width="0" fill="#f9ae01" fill-opacity="0.49019607843137253" />
<path d="M490,-410 L394,-370 L634,-426 L262,-358 L142,-430 L162,-922 Z" stroke-width="0" fill="#b77c06" fill-opacity="0.42745098039215684" />
<path d="M138,-522 L202,-698 L754,-494 L326,-430 L138,-326 L638,-818 Z" stroke-width="0" fill="#d7db00" fill-opacity="0.9450980392156862" />
<path d="M618,-794 L298,-210 L562,-1026 L514,-1110 L162,-930 L138,-190 Z" stroke-width="0" fill="#d59f00" fill-opacity="0.49411764705882355" />
<path d="M494,-758 L94,-158 L478,-350 L622,-218 L242,-366 L574,-674 Z" stroke-width="0" fill="#000000" fill-opacity="0.8549019607843137" />
<path d="M306,-246 L582,-706 L450,-526 L82,-526 L806,-414 L622,-1082 Z" stroke-width="0" fill="#fad200" fill-opacity="0.8156862745098039" />
<path d="M302,-254 L474,-1186 L798,-1214 L526,-646 L278,-574 L318,-894 Z" stroke-width="0" fill="#fee100" fill-opacity="0.8784313725490196" />
<path d="M662,-470 L686,-310 L426,-366 L750,-874 L730,-670 L562,-730 Z" stroke-width="0" fill="#362213" fill-opacity="0.011764705882352941" />
<path d="M634,-598 L494,-310 L210,-738 L238,-914 L762,-1030 L242,-142 Z" stroke-width="0" fill="#6b5f00" fill-opacity="0.9921568627450981" />
<path d="M318,-114 L622,-754 L746,-154 L198,-726 L602,-1022 L642,-1166 Z" stroke-width="0" fill="#5f6700" fill-opacity="0.7803921568627451" />
<path d="M346,-526 L250,-174 L310,-198 L698,-718 L806,-1066 L242,-374 Z" stroke-width="0" fill="#a98800" fill-opacity="0.8745098039215686" />
<path d="M130,-322 L270,-474 L230,-1150 L190,-226 L402,-1262 L706,-794 Z" stroke-width="0" fill="#190b12" fill-opacity="0.058823529411764705" />
<path d="M490,-1262 L454,-390 L322,-1250 L518,-682 L206,-238 L414,-750 Z" stroke-width="0" fill="#d1330c" fill-opacity="0.01568627450980392" />
<path d="M630,-266 L786,-882 L174,-666 L494,-1302 L290,-502 L438,-1078 Z" stroke-width="0" fill="#0b0400" fill-opacity="0.1411764705882353" />
<path d="M234,-730 L406,-1314 L446,-146 L134,-558 L238,-1094 L702,-602 Z" stroke-width="0" fill="#6b6005" fill-opacity="0.01568627450980392" />
<path d="M502,-430 L810,-422 L358,-526 L138,-362 L198,-910 L778,-722 Z" stroke-width="0" fill="#6a0a00" fill-opacity="0.20392156862745098" />
<path d="M314,-326 L262,-346 L194,-538 L146,-750 L570,-650 L566,-1178 Z" stroke-width="0" fill="#00161a" fill-opacity="0.0196078431372549" />
<path d="M798,-82 L742,-1022 L170,-694 L186,-882 L114,-362 L162,-170 Z" stroke-width="0" fill="#1d0f41" fill-opacity="0.0196078431372549" />
<path d="M610,-370 L542,-802 L422,-270 L454,-1146 L166,-686 L482,-190 Z" stroke-width="0" fill="#f6e50b" fill-opacity="0.396078431372549" />
<path d="M234,-830 L198,-222 L246,-970 L486,-802 L326,-398 L358,-430 Z" stroke-width="0" fill="#9e3511" fill-opacity="0.07058823529411765" />
<path d="M770,-1098 L162,-1162 L246,-1094 L754,-570 L586,-514 L402,-1126 Z" stroke-width="0" fill="#023227" fill-opacity="0.027450980392156862" />
<path d="M206,-314 L414,-402 L430,-242 L546,-550 L482,-178 L234,-294 Z" stroke-width="0" fill="#000003" fill-opacity="0.8509803921568627" />
<path d="M638,-338 L298,-1022 L474,-630 L386,-306 L510,-122 L518,-650 Z" stroke-width="0" fill="#eafc00" fill-opacity="0.788235294117647" />
<path d="M422,-542 L174,-146 L142,-610 L462,-390 L550,-330 L690,-870 Z" stroke-width="0" fill="#140800" fill-opacity="0.12941176470588237" />
<path d="M754,-682 L590,-670 L306,-690 L146,-1250 L610,-958 L474,-830 Z" stroke-width="0" fill="#926900" fill-opacity="0.09411764705882353" />
<path d="M286,-1058 L626,-450 L642,-426 L158,-326 L202,-958 L210,-738 Z" stroke-width="0" fill="#fdc700" fill-opacity="0.4235294117647059" />
<path d="M202,-382 L698,-670 L110,-470 L394,-1130 L142,-774 L98,-374 Z" stroke-width="0" fill="#ddd300" fill-opacity="0.5568627450980392" />
<path d="M522,-666 L154,-1018 L498,-226 L702,-530 L206,-1030 L478,-702 Z" stroke-width="0" fill="#eece00" fill-opacity="0.788235294117647" />
<text x="448.0" y="0" font-size="70.0" fill="black" text-anchor="middle" transform="translate(0,17.5)">DANGER</text>
</svg>