<?xml version="1.0" encoding="UTF-8"?>
<svg xmlns="http://www.w3.org/2000/svg" xmlns:xlink="http://www.w3.org/1999/xlink"
     width="275" height="375" viewBox="0 -350 275 375">
<defs>
</defs>
<rect x="15" y="-335" width="245" height="320" stroke="black" stroke-width="4" fill="white" />
<path d="M157,-239 L161,-288 L224,-107 L86,-32 L160,-313 L36,-196 Z" stroke-width="0" fill="#5e5b30" fill-opacity="1.0" />
<path d="M119,-63 L192,-150 L186,-95 L145,-159 L241,-30 L132,-53 Z" stroke-width="0" fill="#161918" fill-opacity="1.0" />
<path d="M33,-170 L108,-154 L88,-31 L89,-314 L26,-246 L78,-261 Z" stroke-width="0" fill="#000000" fill-opacity="0.8823529411764706" />
<path d="M77,-135 L81,-236 L47,-36 L85,-254 L134,-232 L35,-198 Z" stroke-width="0" fill="#000000" fill-opacity="0.9254901960784314" />
<path d="M72,-143 L181,-39 L164,-52 L222,-210 L195,-67 L26,-304 Z" stroke-width="0" fill="#812800" fill-opacity="0.8941176470588236" />
<path d="M62,-63 L147,-37 L100,-57 L165,-228 L172,-45 L46,-40 Z" stroke-width="0" fill="#000000" fill-opacity="0.6745098039215687" />
<path d="M100,-239 L238,-322 L249,-80 L113,-25 L100,-219 L115,-235 Z" stroke-width="0" fill="#0b0f00" fill-opacity="0.7137254901960784" />
<path d="M231,-256 L33,-194 L132,-37 L89,-67 L247,-65 L62,-140 Z" stroke-width="0" fill="#020000" fill-opacity="0.9607843137254902" />
<path d="M89,-73 L167,-317 L159,-111 L87,-321 L134,-300 L71,-246 Z" stroke-width="0" fill="#12070c" fill-opacity="0.8509803921568627" />
<path d="M56,-298 L58,-264 L114,-243 L93,-57 L172,-324 L70,-79 Z" stroke-width="0" fill="#353425" fill-opacity="0.8666666666666667" />
<path d="M127,-40 L213,-317 L230,-184 L60,-258 L110,-68 L86,-187 Z" stroke-width="0" fill="#f4f400" fill-opacity="0.8392156862745098" />
<path d="M160,-250 L52,-87 L231,-74 L99,-107 L88,-196 L104,-246 Z" stroke-width="0" fill="#0f0109" fill-opacity="0.9921568627450981" />
<path d="M121,-207 L232,-32 L59,-217 L144,-286 L103,-218 L186,-257 Z" stroke-width="0" fill="#3146ba" fill-opacity="0.043137254901960784" />
<path d="M149,-186 L202,-60 L163,-153 L123,-65 L74,-76 L207,-54 Z" stroke-width="0" fill="#000000" fill-opacity="0.9098039215686274" />
<path d="M93,-193 L49,-186 L168,-62 L199,-200 L105,-175 L55,-110 Z" stroke-width="0" fill="#93ed63" fill-opacity="0.36470588235294116" />
<path d="M52,-199 L70,-287 L72,-317 L181,-46 L243,-176 L47,-318 Z" stroke-width="0" fill="#0e152f" fill-opacity="0.9803921568627451" />
<path d="M95,-185 L85,-58 L82,-47 L47,-156 L192,-148 L39,-257 Z" stroke-width="0" fill="#4e75bf" fill-opacity="0.5294117647058824" />
<path d="M113,-238 L220,-181 L149,-143 L137,-146 L56,-209 L163,-203 Z" stroke-width="0" fill="#91e233" fill-opacity="0.42745098039215684" />
<path d="M78,-79 L122,-136 L44,-92 L57,-96 L228,-157 L220,-125 Z" stroke-width="0" fill="#192000" fill-opacity="0.6823529411764706" />
<path d="M69,-219 L229,-302 L44,-38 L237,-118 L249,-154 L176,-122 Z" stroke-width="0" fill="#23120b" fill-opacity="0.5058823529411764" />
<path d="M74,-260 L178,-73 L220,-74 L119,-70 L145,-105 L114,-98 Z" stroke-width="0" fill="#bef6e7" fill-opacity="0.9137254901960784" />
<path d="M154,-241 L128,-79 L90,-92 L145,-116 L220,-129 L196,-104 Z" stroke-width="0" fill="#fa6c02" fill-opacity="0.7764705882352941" />
<path d="M27,-134 L29,-147 L133,-318 L26,-64 L230,-164 L153,-155 Z" stroke-width="0" fill="#000000" fill-opacity="0.9882352941176471" />
<path d="M228,-206 L228,-255 L56,-109 L44,-226 L48,-163 L107,-65 Z" stroke-width="0" fill="#b8519e" fill-opacity="0.5568627450980392" />
<path d="M200,-262 L203,-156 L114,-90 L107,-64 L126,-143 L26,-50 Z" stroke-width="0" fill="#151a00" fill-opacity="0.9647058823529412" />
<path d="M174,-77 L172,-61 L169,-115 L189,-252 L226,-41 L118,-117 Z" stroke-width="0" fill="#132800" fill-opacity="0.9490196078431372" />
<path d="M150,-72 L186,-141 L70,-65 L171,-164 L70,-174 L97,-177 Z" stroke-width="0" fill="#506a2a" fill-opacity="0.2235294117647059" />
<path d="M107,-177 L57,-123 L109,-197 L123,-265 L151,-29 L188,-64 Z" stroke-width="0" fill="#000000" fill-opacity="0.8705882352941177" />
<path d="M231,-218 L193,-66 L97,-158 L228,-142 L175,-82 L197,-97 Z" stroke-width="0" fill="#1c1306" fill-opacity="0.043137254901960784" />
<path d="M207,-69 L89,-140 L103,-273 L35,-235 L200,-216 L82,-264 Z" stroke-width="0" fill="#000100" fill-opacity="0.8941176470588236" />
<path d="M190,-313 L210,-132 L186,-75 L226,-164 L29,-192 L175,-260 Z" stroke-width="0" fill="#13000e" fill-opacity="0.7607843137254902" />
<path d="M183,-247 L153,-261 L109,-31 L242,-267 L146,-51 L176,-272 Z" stroke-width="0" fill="#7b636e" fill-opacity="0.8705882352941177" />
<path d="M47,-26 L162,-53 L209,-132 L114,-246 L232,-143 L174,-235 Z" stroke-width="0" fill="#000000" fill-opacity="0.9529411764705882" />
<path d="M181,-61 L186,-160 L34,-158 L58,-119 L99,-70 L70,-30 Z" stroke-width="0" fill="#0d0304" fill-opacity="0.9137254901960784" />
<path d="M56,-186 L185,-291 L36,-66 L46,-197 L241,-209 L89,-304 Z" stroke-width="0" fill="#994f38" fill-opacity="0.7411764705882353" />
<path d="M118,-78 L197,-66 L142,-35 L99,-181 L112,-133 L101,-237 Z" stroke-width="0" fill="#750d15" fill-opacity="0.9098039215686274" />
<path d="M102,-199 L142,-104 L142,-177 L131,-156 L47,-105 L69,-141 Z" stroke-width="0" fill="#c17b71" fill-opacity="0.03529411764705882" />
<path d="M56,-223 L41,-277 L30,-278 L240,-144 L200,-206 L58,-42 Z" stroke-width="0" fill="#0c090e" fill-opacity="0.807843137254902" />
<path d="M50,-272 L50,-51 L54,-230 L150,-203 L94,-250 L77,-40 Z" stroke-width="0" fill="#9791ee" fill-opacity="0.8274509803921568" />
<path d="M186,-66 L26,-149 L36,-72 L132,-160 L149,-232 L248,-144 Z" stroke-width="0" fill="#3a2532" fill-opacity="0.8862745098039215" />
<path d="M115,-171 L38,-76 L200,-152 L65,-106 L237,-91 L138,-221 Z" stroke-width="0" fill="#130019" fill-opacity="0.34509803921568627" />
<path d="M221,-213 L107,-315 L187,-149 L62,-52 L128,-249 L35,-69 Z" stroke-width="0" fill="#624137" fill-opacity="0.9764705882352941" />
<path d="M67,-59 L130,-65 L60,-85 L159,-221 L81,-163 L26,-180 Z" stroke-width="0" fill="#24051a" fill-opacity="0.9921568627450981" />
<path d="M25,-81 L180,-167 L94,-269 L28,-168 L186,-271 L167,-112 Z" stroke-width="0" fill="#140d0f" fill-opacity="0.9411764705882353" />
<path d="M101,-285 L108,-230 L101,-290 L219,-201 L153,-86 L33,-136 Z" stroke-width="0" fill="#3784ae" fill-opacity="0.30196078431372547" />
<path d="M91,-40 L165,-94 L195,-215 L85,-77 L65,-201 L160,-151 Z" stroke-width="0" fill="#5352fd" fill-opacity="0.5490196078431373" />
<path d="M56,-219 L171,-107 L105,-185 L30,-219 L45,-68 L124,-259 Z" stroke-width="0" fill="#0a000c" fill-opacity="0.8627450980392157" />
<path d="M88,-108 L217,-288 L139,-277 L81,-193 L116,-176 L100,-314 Z" stroke-width="0" fill="#000000" fill-opacity="0.6823529411764706" />
<path d="M49,-55 L135,-267 L163,-228 L127,-249 L76,-291 L60,-270 Z" stroke-width="0" fill="#373d01" fill-opacity="0.8901960784313725" />
<path d="M231,-63 L133,-124 L85,-262 L37,-308 L169,-102 L166,-312 Z" stroke-width="0" fill="#271f00" fill-opacity="0.9215686274509803" />
<path d="M65,-227 L192,-191 L240,-243 L188,-191 L210,-297 L106,-109 Z" stroke-width="0" fill="#172d0c" fill-opacity="0.058823529411764705" />
<path d="M247,-178 L169,-223 L41,-166 L35,-43 L186,-166 L113,-40 Z" stroke-width="0" fill="#210c00" fill-opacity="0.9411764705882353" />
<path d="M31,-119 L227,-117 L211,-97 L110,-45 L162,-233 L48,-240 Z" stroke-width="0" fill="#000000" fill-opacity="0.6941176470588235" />
<path d="M248,-249 L172,-107 L101,-153 L164,-132 L186,-256 L137,-179 Z" stroke-width="0" fill="#667b71" fill-opacity="0.8274509803921568" />
<path d="M195,-60 L45,-231 L49,-291 L223,-31 L31,-303 L192,-237 Z" stroke-width="0" fill="#0a0000" fill-opacity="0.8470588235294118" />
<path d="M134,-237 L131,-64 L48,-271 L203,-162 L182,-30 L186,-209 Z" stroke-width="0" fill="#7d2e04" fill-opacity="0.9607843137254902" />
<path d="M231,-87 L88,-124 L183,-198 L125,-238 L67,-272 L215,-95 Z" stroke-width="0" fill="#5b9418" fill-opacity="0.11764705882352941" />
<path d="M195,-41 L86,-37 L48,-168 L150,-77 L157,-101 L78,-318 Z" stroke-width="0" fill="#0b2118" fill-opacity="0.9058823529411765" />
<path d="M216,-318 L235,-290 L135,-33 L89,-209 L76,-291 L207,-277 Z" stroke-width="0" fill="#806b00" fill-opacity="0.12549019607843137" />
<path d="M62,-25 L179,-112 L165,-90 L216,-76 L72,-201 L220,-262 Z" stroke-width="0" fill="#000013" fill-opacity="0.8352941176470589" />
<path d="M100,-64 L174,-51 L50,-53 L42,-126 L172,-213 L64,-150 Z" stroke-width="0" fill="#2f0800" fill-opacity="0.9725490196078431" />
<path d="M63,-322 L59,-71 L126,-61 L195,-149 L236,-167 L242,-185 Z" stroke-width="0" fill="#4f592a" fill-opacity="0.8901960784313725" />
<path d="M70,-139 L78,-223 L142,-154 L45,-97 L178,-57 L208,-319 Z" stroke-width="0" fill="#010000" fill-opacity="0.7529411764705882" />
<path d="M157,-128 L89,-132 L187,-197 L217,-102 L221,-251 L167,-210 Z" stroke-width="0" fill="#666050" fill-opacity="0.8235294117647058" />
<path d="M50,-99 L129,-155 L141,-31 L132,-42 L93,-305 L31,-161 Z" stroke-width="0" fill="#0e1722" fill-opacity="0.9882352941176471" />
<path d="M162,-210 L231,-278 L112,-37 L82,-79 L139,-36 L184,-180 Z" stroke-width="0" fill="#14000f" fill-opacity="0.4470588235294118" />
<path d="M32,-89 L84,-30 L98,-91 L225,-113 L25,-265 L62,-137 Z" stroke-width="0" fill="#2e0f10" fill-opacity="0.8980392156862745" />
<path d="M169,-249 L73,-295 L178,-214 L183,-257 L207,-93 L95,-185 Z" stroke-width="0" fill="#15010f" fill-opacity="0.47058823529411764" />
<path d="M140,-130 L54,-200 L183,-106 L137,-28 L211,-188 L115,-113 Z" stroke-width="0" fill="#110010" fill-opacity="0.8431372549019608" />
<path d="M56,-137 L68,-265 L71,-47 L195,-297 L228,-102 L226,-272 Z" stroke-width="0" fill="#631449" fill-opacity="0.6" />
<path d="M204,-153 L169,-138 L192,-46 L198,-94 L197,-119 L152,-89 Z" stroke-width="0" fill="#000000" fill-opacity="0.37254901960784315" />
<path d="M164,-137 L222,-285 L239,-201 L73,-214 L220,-259 L66,-109 Z" stroke-width="0" fill="#a7ded8" fill-opacity="0.4" />
<path d="M162,-175 L88,-106 L211,-76 L126,-69 L131,-207 L100,-190 Z" stroke-width="0" fill="#001508" fill-opacity="0.592156862745098" />
<path d="M97,-49 L34,-192 L75,-58 L181,-163 L30,-90 L205,-178 Z" stroke-width="0" fill="#15001b" fill-opacity="0.7294117647058823" />
<path d="M140,-106 L65,-217 L62,-136 L116,-263 L75,-221 L179,-322 Z" stroke-width="0" fill="#000000" fill-opacity="0.6509803921568628" />
<path d="M34,-32 L218,-298 L92,-274 L28,-308 L224,-245 L205,-213 Z" stroke-width="0" fill="#9a8513" fill-opacity="0.2980392156862745" />
<path d="M136,-142 L72,-261 L152,-154 L102,-270 L211,-186 L57,-70 Z" stroke-width="0" fill="#874f68" fill-opacity="0.7725490196078432" />
<path d="M44,-262 L36,-84 L111,-149 L55,-165 L112,-158 L131,-160 Z" stroke-width="0" fill="#28341e" fill-opacity="0.5019607843137255" />
<path d="M124,-44 L130,-247 L162,-238 L75,-254 L68,-195 L136,-309 Z" stroke-width="0" fill="#030100" fill-opacity="0.7215686274509804" />
<path d="M128,-299 L137,-34 L67,-225 L213,-173 L222,-208 L185,-205 Z" stroke-width="0" fill="#645b05" fill-opacity="0.2980392156862745" />
<path d="M54,-231 L123,-245 L247,-92 L99,-297 L197,-102 L173,-177 Z" stroke-width="0" fill="#2a0019" fill-opacity="0.24705882352941178" />
<path d="M208,-238 L157,-127 L75,-276 L228,-93 L84,-60 L40,-160 Z" stroke-width="0" fill="#442358" fill-opacity="0.06666666666666667" />
<path d="M218,-140 L188,-237 L87,-231 L223,-67 L28,-68 L162,-99 Z" stroke-width="0" fill="#3e2400" fill-opacity="0.39215686274509803" />
<path d="M200,-296 L91,-256 L112,-102 L118,-121 L177,-139 L200,-323 Z" stroke-width="0" fill="#fcd40d" fill-opacity="0.4745098039215686" />
<path d="M74,-279 L78,-186 L116,-246 L246,-58 L79,-286 L71,-168 Z" stroke-width="0" fill="#131f00" fill-opacity="0.7411764705882353" />
<path d="M197,-205 L55,-133 L229,-266 L243,-272 L138,-34 L46,-93 Z" stroke-width="0" fill="#3f5814" fill-opacity="0.12156862745098039" />
<path d="M225,-104 L33,-315 L134,-291 L225,-65 L130,-261 L33,-238 Z" stroke-width="0" fill="#4c2a00" fill-opacity="0.8784313725490196" />
<path d="M42,-297 L36,-69 L169,-255 L189,-34 L186,-64 L98,-145 Z" stroke-width="0" fill="#7c0084" fill-opacity="0.25098039215686274" />
<path d="M225,-30 L97,-152 L218,-48 L68,-40 L91,-230 L113,-42 Z" stroke-width="0" fill="#0f0900" fill-opacity="0.7490196078431373" />
<path d="M80,-221 L80,-226 L53,-136 L66,-192 L37,-144 L202,-265 Z" stroke-width="0" fill="#585bf2" fill-opacity="0.21176470588235294" />
<path d="M49,-49 L27,-298 L113,-310 L155,-277 L141,-221 L176,-125 Z" stroke-width="0" fill="#00230b" fill-opacity="0.6235294117647059" />
<path d="M104,-70 L193,-280 L100,-217 L86,-71 L183,-132 L181,-250 Z" stroke-width="0" fill="#147abf" fill-opacity="0.03529411764705882" />
<path d="M240,-105 L92,-157 L64,-262 L216,-227 L129,-121 L149,-73 Z" stroke-width="0" fill="#5a5ce8" fill-opacity="0.17647058823529413" />
<path d="M236,-224 L107,-147 L160,-89 L230,-125 L225,-71 L230,-162 Z" stroke-width="0" fill="#5b7593" fill-opacity="0.5019607843137255" />
<path d="M123,-102 L112,-66 L191,-255 L167,-278 L29,-238 L107,-237 Z" stroke-width="0" fill="#729fd8" fill-opacity="0.2196078431372549" />
<path d="M54,-292 L106,-128 L181,-48 L198,-251 L139,-309 L220,-131 Z" stroke-width="0" fill="#576641" fill-opacity="0.2196078431372549" />
<path d="M176,-236 L46,-279 L170,-193 L101,-150 L87,-76 L78,-201 Z" stroke-width="0" fill="#410e16" fill-opacity="0.25882352941176473" />
<path d="M42,-167 L198,-52 L119,-55 L218,-130 L124,-177 L77,-138 Z" stroke-width="0" fill="#03000f" fill-opacity="0.3333333333333333" />
<path d="M64,-79 L182,-84 L220,-35 L88,-71 L181,-273 L152,-59 Z" stroke-width="0" fill="#401225" fill-opacity="0.08627450980392157" />
<path d="M83,-269 L182,-125 L241,-132 L151,-46 L132,-281 L70,-157 Z" stroke-width="0" fill="#0b2e21" fill-opacity="0.4196078431372549" />
<text x="137.5" y="12.5" font-size="20.0" fill="black" text-anchor="middle" transform="translate(0,5.0)">DANGER</text>
</svg>