<?xml version="1.0" encoding="UTF-8"?>
<svg xmlns="http://www.w3.org/2000/svg" xmlns:xlink="http://www.w3.org/1999/xlink"
     width="275" height="375" viewBox="0 -350 275 375">
<defs>
</defs>
<rect x="15" y="-335" width="245" height="320" stroke="black" stroke-width="4" fill="white" />
<path d="M96,-80 L249,-302 L30,-49 L111,-227 L191,-228 L155,-261 Z" stroke-width="0" fill="#060c0c" fill-opacity="0.8392156862745098" />
<path d="M137,-175 L226,-244 L60,-324 L221,-54 L182,-56 L229,-123 Z" stroke-width="0" fill="#000007" fill-opacity="0.9686274509803922" />
<path d="M90,-222 L204,-137 L36,-47 L89,-173 L124,-127 L38,-155 Z" stroke-width="0" fill="#000000" fill-opacity="0.9607843137254902" />
<path d="M77,-104 L167,-135 L186,-275 L118,-82 L220,-213 L87,-130 Z" stroke-width="0" fill="#d88ae6" fill-opacity="0.054901960784313725" />
<path d="M118,-38 L202,-298 L132,-236 L28,-242 L100,-190 L37,-214 Z" stroke-width="0" fill="#6ef5f7" fill-opacity="0.06274509803921569" />
<path d="M200,-124 L160,-129 L186,-178 L49,-121 L127,-172 L79,-196 Z" stroke-width="0" fill="#c260dc" fill-opacity="0.8117647058823529" />
<path d="M121,-196 L99,-42 L97,-143 L121,-115 L103,-214 L155,-135 Z" stroke-width="0" fill="#06071a" fill-opacity="0.996078431372549" />
<path d="M40,-206 L37,-92 L81,-148 L65,-305 L149,-57 L61,-224 Z" stroke-width="0" fill="#00d400" fill-opacity="0.7843137254901961" />
<path d="M132,-104 L58,-122 L145,-263 L96,-137 L58,-102 L113,-84 Z" stroke-width="0" fill="#7e38aa" fill-opacity="0.9333333333333333" />
<path d="M70,-124 L156,-163 L180,-82 L49,-74 L66,-239 L71,-155 Z" stroke-width="0" fill="#0fa580" fill-opacity="0.6588235294117647" />
<path d="M74,-215 L35,-55 L82,-177 L149,-251 L80,-206 L234,-84 Z" stroke-width="0" fill="#010000" fill-opacity="0.8745098039215686" />
<path d="M153,-313 L92,-323 L240,-115 L176,-248 L209,-119 L129,-169 Z" stroke-width="0" fill="#000000" fill-opacity="0.8549019607843137" />
<path d="M30,-95 L110,-83 L224,-264 L92,-125 L65,-201 L182,-76 Z" stroke-width="0" fill="#150000" fill-opacity="0.8941176470588236" />
<path d="M117,-159 L115,-227 L195,-119 L116,-193 L38,-124 L89,-241 Z" stroke-width="0" fill="#3e2250" fill-opacity="0.8431372549019608" />
<path d="M41,-49 L54,-184 L224,-65 L134,-219 L146,-319 L248,-133 Z" stroke-width="0" fill="#180000" fill-opacity="0.8392156862745098" />
<path d="M187,-195 L73,-170 L29,-128 L139,-225 L134,-35 L27,-181 Z" stroke-width="0" fill="#000000" fill-opacity="0.8509803921568627" />
<path d="M86,-96 L140,-227 L134,-227 L57,-222 L73,-59 L87,-270 Z" stroke-width="0" fill="#07761e" fill-opacity="0.7843137254901961" />
<path d="M48,-58 L115,-206 L193,-251 L111,-147 L239,-29 L64,-187 Z" stroke-width="0" fill="#000000" fill-opacity="0.6941176470588235" />
<path d="M82,-102 L218,-166 L217,-141 L84,-252 L145,-93 L113,-98 Z" stroke-width="0" fill="#770eab" fill-opacity="0.5568627450980392" />
<path d="M41,-233 L41,-173 L200,-283 L31,-201 L108,-216 L214,-130 Z" stroke-width="0" fill="#27f1bd" fill-opacity="0.03529411764705882" />
<path d="M71,-144 L172,-34 L34,-145 L117,-217 L96,-144 L99,-225 Z" stroke-width="0" fill="#000000" fill-opacity="0.8666666666666667" />
<path d="M231,-176 L127,-230 L160,-184 L131,-153 L175,-64 L35,-98 Z" stroke-width="0" fill="#000107" fill-opacity="0.3686274509803922" />
<path d="M68,-55 L84,-87 L223,-53 L72,-157 L139,-211 L61,-97 Z" stroke-width="0" fill="#f6c8fa" fill-opacity="0.9411764705882353" />
<path d="M193,-192 L46,-76 L244,-137 L142,-169 L232,-260 L235,-230 Z" stroke-width="0" fill="#831719" fill-opacity="0.24313725490196078" />
<path d="M151,-85 L132,-227 L96,-226 L109,-182 L73,-86 L196,-181 Z" stroke-width="0" fill="#cef96f" fill-opacity="0.25882352941176473" />
<path d="M187,-138 L164,-245 L109,-159 L201,-171 L193,-144 L244,-200 Z" stroke-width="0" fill="#1c0200" fill-opacity="0.7725490196078432" />
<path d="M229,-154 L78,-304 L110,-244 L184,-51 L214,-110 L68,-316 Z" stroke-width="0" fill="#000000" fill-opacity="0.09411764705882353" />
<path d="M61,-266 L191,-73 L76,-258 L124,-246 L227,-277 L29,-51 Z" stroke-width="0" fill="#000000" fill-opacity="0.7411764705882353" />
<path d="M123,-26 L38,-145 L247,-39 L195,-234 L113,-319 L99,-86 Z" stroke-width="0" fill="#00051b" fill-opacity="0.8313725490196079" />
<path d="M116,-262 L86,-104 L34,-128 L93,-97 L112,-123 L139,-95 Z" stroke-width="0" fill="#f61dfc" fill-opacity="0.9607843137254902" />
<path d="M185,-139 L134,-40 L157,-211 L165,-141 L73,-199 L127,-175 Z" stroke-width="0" fill="#af0c5d" fill-opacity="0.12156862745098039" />
<path d="M177,-143 L26,-195 L96,-109 L87,-175 L135,-31 L197,-270 Z" stroke-width="0" fill="#0a0001" fill-opacity="0.807843137254902" />
<path d="M173,-157 L141,-76 L143,-212 L173,-129 L154,-297 L55,-87 Z" stroke-width="0" fill="#120041" fill-opacity="0.4627450980392157" />
<path d="M66,-115 L47,-319 L100,-73 L57,-183 L97,-149 L138,-136 Z" stroke-width="0" fill="#000000" fill-opacity="0.7372549019607844" />
<path d="M113,-269 L63,-152 L100,-135 L45,-209 L162,-167 L79,-158 Z" stroke-width="0" fill="#45dccd" fill-opacity="0.12156862745098039" />
<path d="M168,-257 L145,-41 L39,-205 L51,-38 L229,-34 L152,-215 Z" stroke-width="0" fill="#010000" fill-opacity="0.9254901960784314" />
<path d="M248,-156 L43,-263 L84,-146 L209,-197 L27,-127 L137,-136 Z" stroke-width="0" fill="#2c0000" fill-opacity="0.807843137254902" />
<path d="M124,-290 L114,-266 L81,-244 L155,-175 L112,-223 L242,-196 Z" stroke-width="0" fill="#384f46" fill-opacity="0.9607843137254902" />
<path d="M168,-68 L206,-71 L35,-179 L42,-262 L198,-58 L175,-150 Z" stroke-width="0" fill="#36490b" fill-opacity="0.7411764705882353" />
<path d="M141,-243 L66,-254 L148,-174 L31,-136 L171,-37 L129,-300 Z" stroke-width="0" fill="#5b4541" fill-opacity="0.5019607843137255" />
<path d="M157,-234 L143,-252 L67,-61 L245,-250 L191,-206 L35,-274 Z" stroke-width="0" fill="#200210" fill-opacity="0.8156862745098039" />
<path d="M45,-291 L194,-50 L48,-286 L134,-113 L211,-200 L218,-259 Z" stroke-width="0" fill="#1f2a08" fill-opacity="0.9647058823529412" />
<path d="M37,-35 L78,-174 L83,-162 L47,-114 L59,-137 L198,-107 Z" stroke-width="0" fill="#000000" fill-opacity="0.9333333333333333" />
<path d="M95,-68 L78,-260 L128,-101 L143,-154 L226,-304 L218,-166 Z" stroke-width="0" fill="#000005" fill-opacity="0.6941176470588235" />
<path d="M52,-131 L177,-251 L29,-62 L216,-284 L239,-128 L210,-82 Z" stroke-width="0" fill="#2b2b0c" fill-opacity="0.8980392156862745" />
<path d="M76,-246 L50,-170 L118,-292 L131,-186 L131,-258 L229,-33 Z" stroke-width="0" fill="#ebd2d2" fill-opacity="0.18823529411764706" />
<path d="M54,-249 L175,-299 L199,-137 L134,-34 L43,-203 L242,-153 Z" stroke-width="0" fill="#1d2005" fill-opacity="0.9686274509803922" />
<path d="M192,-121 L60,-259 L123,-97 L32,-318 L143,-91 L94,-220 Z" stroke-width="0" fill="#070808" fill-opacity="1.0" />
<path d="M189,-139 L168,-106 L212,-211 L109,-29 L218,-78 L102,-43 Z" stroke-width="0" fill="#342346" fill-opacity="0.8392156862745098" />
<path d="M62,-127 L76,-109 L238,-201 L127,-213 L231,-128 L183,-52 Z" stroke-width="0" fill="#7b457c" fill-opacity="0.4117647058823529" />
<path d="M48,-41 L54,-168 L198,-274 L66,-80 L210,-308 L223,-223 Z" stroke-width="0" fill="#161536" fill-opacity="0.7607843137254902" />
<path d="M114,-262 L134,-110 L26,-251 L72,-105 L157,-133 L48,-284 Z" stroke-width="0" fill="#100000" fill-opacity="0.9098039215686274" />
<path d="M210,-121 L109,-66 L144,-179 L27,-88 L130,-237 L149,-201 Z" stroke-width="0" fill="#151619" fill-opacity="0.8941176470588236" />
<path d="M114,-173 L77,-263 L46,-221 L29,-228 L37,-86 L179,-112 Z" stroke-width="0" fill="#070000" fill-opacity="0.8941176470588236" />
<path d="M44,-143 L197,-39 L26,-119 L35,-126 L215,-97 L191,-318 Z" stroke-width="0" fill="#5759a6" fill-opacity="0.7254901960784313" />
<path d="M146,-323 L158,-215 L217,-207 L239,-267 L134,-209 L155,-48 Z" stroke-width="0" fill="#081405" fill-opacity="0.8627450980392157" />
<path d="M75,-187 L174,-284 L42,-145 L32,-153 L36,-149 L177,-180 Z" stroke-width="0" fill="#140d15" fill-opacity="0.2901960784313726" />
<path d="M172,-31 L30,-209 L100,-119 L245,-234 L49,-146 L50,-105 Z" stroke-width="0" fill="#180c17" fill-opacity="0.8392156862745098" />
<path d="M51,-191 L73,-167 L132,-65 L84,-80 L55,-313 L108,-300 Z" stroke-width="0" fill="#000000" fill-opacity="0.9058823529411765" />
<path d="M50,-188 L203,-99 L164,-91 L90,-287 L126,-229 L69,-25 Z" stroke-width="0" fill="#000000" fill-opacity="0.9686274509803922" />
<path d="M190,-211 L199,-286 L208,-306 L116,-307 L152,-33 L82,-215 Z" stroke-width="0" fill="#120600" fill-opacity="0.7098039215686275" />
<path d="M91,-65 L220,-306 L233,-162 L138,-307 L194,-162 L60,-87 Z" stroke-width="0" fill="#3f3424" fill-opacity="0.9176470588235294" />
<path d="M87,-203 L154,-210 L155,-86 L126,-149 L114,-267 L169,-147 Z" stroke-width="0" fill="#140006" fill-opacity="0.7529411764705882" />
<path d="M196,-68 L207,-314 L236,-268 L82,-105 L109,-277 L214,-154 Z" stroke-width="0" fill="#3f4855" fill-opacity="0.984313725490196" />
<path d="M202,-76 L98,-34 L82,-259 L115,-118 L32,-137 L51,-216 Z" stroke-width="0" fill="#2d152b" fill-opacity="0.5568627450980392" />
<path d="M158,-147 L97,-279 L84,-214 L244,-122 L158,-81 L221,-34 Z" stroke-width="0" fill="#915a3d" fill-opacity="0.36470588235294116" />
<path d="M69,-253 L99,-136 L74,-74 L77,-211 L196,-273 L236,-137 Z" stroke-width="0" fill="#a76f88" fill-opacity="0.2784313725490196" />
<path d="M123,-101 L219,-122 L149,-71 L48,-310 L109,-118 L168,-61 Z" stroke-width="0" fill="#121f0a" fill-opacity="0.611764705882353" />
<path d="M131,-148 L161,-186 L93,-148 L132,-106 L60,-76 L38,-233 Z" stroke-width="0" fill="#021534" fill-opacity="0.1411764705882353" />
<path d="M98,-171 L192,-48 L30,-266 L49,-31 L180,-197 L110,-265 Z" stroke-width="0" fill="#0e0300" fill-opacity="0.9333333333333333" />
<path d="M129,-191 L131,-39 L245,-234 L108,-54 L171,-289 L189,-51 Z" stroke-width="0" fill="#220306" fill-opacity="0.6745098039215687" />
<path d="M221,-200 L117,-212 L63,-47 L126,-271 L83,-205 L167,-311 Z" stroke-width="0" fill="#002a17" fill-opacity="0.21568627450980393" />
<path d="M58,-208 L159,-55 L98,-174 L35,-110 L160,-259 L79,-41 Z" stroke-width="0" fill="#05040c" fill-opacity="0.7411764705882353" />
<path d="M179,-88 L214,-63 L117,-111 L33,-126 L178,-91 L215,-125 Z" stroke-width="0" fill="#dc5a17" fill-opacity="0.1607843137254902" />
<path d="M59,-30 L138,-237 L48,-260 L174,-104 L248,-296 L228,-202 Z" stroke-width="0" fill="#3c2800" fill-opacity="0.8352941176470589" />
<path d="M134,-197 L27,-143 L192,-125 L90,-107 L147,-28 L77,-136 Z" stroke-width="0" fill="#181d3a" fill-opacity="0.8745098039215686" />
<path d="M53,-57 L168,-233 L180,-148 L68,-273 L148,-72 L97,-58 Z" stroke-width="0" fill="#02000a" fill-opacity="0.7764705882352941" />
<path d="M216,-149 L185,-146 L104,-117 L81,-205 L109,-63 L162,-239 Z" stroke-width="0" fill="#fbaae2" fill-opacity="0.3333333333333333" />
<path d="M150,-230 L171,-123 L170,-35 L201,-322 L185,-106 L43,-205 Z" stroke-width="0" fill="#3d7d65" fill-opacity="0.5568627450980392" />
<path d="M32,-124 L58,-103 L199,-43 L44,-159 L76,-40 L86,-263 Z" stroke-width="0" fill="#30001d" fill-opacity="0.5843137254901961" />
<path d="M31,-209 L177,-84 L187,-69 L136,-241 L146,-40 L138,-83 Z" stroke-width="0" fill="#771700" fill-opacity="0.5372549019607843" />
<path d="M52,-205 L106,-253 L235,-59 L53,-56 L174,-74 L128,-171 Z" stroke-width="0" fill="#395659" fill-opacity="0.45098039215686275" />
<path d="M28,-159 L52,-96 L130,-78 L27,-251 L137,-65 L151,-165 Z" stroke-width="0" fill="#000000" fill-opacity="0.8509803921568627" />
<path d="M119,-88 L149,-213 L122,-58 L217,-186 L129,-263 L78,-239 Z" stroke-width="0" fill="#88c97d" fill-opacity="0.13725490196078433" />
<path d="M40,-162 L162,-142 L84,-283 L210,-105 L191,-242 L29,-300 Z" stroke-width="0" fill="#04000c" fill-opacity="0.9215686274509803" />
<path d="M226,-300 L96,-210 L221,-310 L188,-289 L129,-286 L37,-245 Z" stroke-width="0" fill="#04211e" fill-opacity="0.20784313725490197" />
<path d="M50,-141 L231,-145 L86,-175 L196,-317 L63,-51 L195,-70 Z" stroke-width="0" fill="#020000" fill-opacity="0.28627450980392155" />
<path d="M249,-45 L159,-127 L249,-66 L105,-268 L110,-32 L43,-304 Z" stroke-width="0" fill="#271f15" fill-opacity="0.27450980392156865" />
<path d="M36,-204 L49,-130 L118,-70 L152,-313 L137,-266 L168,-131 Z" stroke-width="0" fill="#000002" fill-opacity="0.49411764705882355" />
<path d="M145,-80 L113,-65 L86,-66 L214,-173 L81,-69 L185,-71 Z" stroke-width="0" fill="#051323" fill-opacity="0.11372549019607843" />
<path d="M218,-35 L230,-32 L28,-194 L139,-126 L97,-151 L185,-34 Z" stroke-width="0" fill="#23180b" fill-opacity="0.7725490196078432" />
<path d="M122,-134 L122,-296 L245,-211 L120,-172 L200,-106 L26,-95 Z" stroke-width="0" fill="#33202c" fill-opacity="0.6039215686274509" />
<path d="M63,-181 L141,-154 L117,-73 L126,-68 L47,-179 L38,-88 Z" stroke-width="0" fill="#000300" fill-opacity="0.6235294117647059" />
<path d="M208,-189 L107,-173 L164,-47 L120,-76 L248,-76 L94,-184 Z" stroke-width="0" fill="#423a57" fill-opacity="0.28627450980392155" />
<path d="M134,-103 L179,-38 L97,-38 L140,-139 L111,-111 L199,-256 Z" stroke-width="0" fill="#000000" fill-opacity="0.5019607843137255" />
<path d="M98,-177 L149,-98 L235,-104 L47,-156 L141,-114 L151,-262 Z" stroke-width="0" fill="#11550b" fill-opacity="0.12549019607843137" />
<path d="M64,-167 L110,-80 L193,-263 L202,-242 L117,-209 L83,-76 Z" stroke-width="0" fill="#433e13" fill-opacity="0.09803921568627451" />
<path d="M33,-96 L27,-218 L75,-42 L139,-188 L240,-230 L109,-113 Z" stroke-width="0" fill="#0d0e03" fill-opacity="0.9490196078431372" />
<path d="M66,-141 L81,-78 L60,-163 L99,-142 L243,-73 L238,-102 Z" stroke-width="0" fill="#1d3834" fill-opacity="0.615686274509804" />
<path d="M132,-40 L54,-318 L187,-250 L154,-146 L121,-82 L185,-269 Z" stroke-width="0" fill="#0f000c" fill-opacity="0.7490196078431373" />
<text x="137.5" y="12.5" font-size="20.0" fill="black" text-anchor="middle" transform="translate(0,5.0)">IDENTITY</text>
</svg>