<?xml version="1.0" encoding="UTF-8"?>
<svg xmlns="http://www.w3.org/2000/svg" xmlns:xlink="http://www.w3.org/1999/xlink"
     width="896" height="1496" viewBox="0 -1400 896 1496" style="font-size:70;font-family:Poor Richard, Times New Roman;stroke:black;stroke-width:1;fill:none">
<defs>
</defs>
<path d="M350,-110 L450,-254 L446,-926 L414,-1302 L302,-1234 L422,-1306 Z" stroke-width="0" fill="#fdd0fd" fill-opacity="0.06666666666666667" />
<path d="M750,-178 L770,-362 L558,-622 L90,-562 L282,-802 L126,-266 Z" stroke-width="0" fill="#79884e" fill-opacity="0.8156862745098039" />
<path d="M118,-202 L714,-130 L598,-338 L518,-938 L382,-422 L82,-774 Z" stroke-width="0" fill="#fff9fc" fill-opacity="0.9882352941176471" />
<path d="M810,-442 L162,-886 L550,-914 L670,-146 L742,-1298 L466,-874 Z" stroke-width="0" fill="#978127" fill-opacity="0.0392156862745098" />
<path d="M574,-1166 L310,-730 L254,-1234 L614,-602 L194,-1078 L506,-1298 Z" stroke-width="0" fill="#e9ffe8" fill-opacity="0.0196078431372549" />
<path d="M478,-170 L486,-1078 L678,-734 L106,-342 L178,-1238 L86,-918 Z" stroke-width="0" fill="#fed5f5" fill-opacity="0.14901960784313725" />
<path d="M178,-1030 L278,-566 L90,-174 L726,-1190 L766,-406 L538,-106 Z" stroke-width="0" fill="#371c12" fill-opacity="0.45098039215686275" />
<path d="M702,-422 L522,-326 L514,-430 L234,-174 L582,-422 L286,-1050 Z" stroke-width="0" fill="#f7ee65" fill-opacity="0.16862745098039217" />
<path d="M278,-546 L562,-550 L646,-606 L790,-798 L358,-1158 L466,-462 Z" stroke-width="0" fill="#f1dbef" fill-opacity="0.08627450980392157" />
<path d="M518,-230 L94,-682 L726,-114 L318,-318 L178,-442 L286,-1166 Z" stroke-width="0" fill="#f96e9c" fill-opacity="0.10980392156862745" />
<path d="M274,-286 L262,-122 L306,-458 L654,-826 L142,-302 L634,-94 Z" stroke-width="0" fill="#e7f7e6" fill-opacity="0.07058823529411765" />
<path d="M270,-106 L414,-110 L358,-206 L430,-370 L522,-574 L462,-1166 Z" stroke-width="0" fill="#f9fefe" fill-opacity="0.058823529411764705" />
<path d="M90,-610 L570,-986 L342,-438 L614,-790 L410,-550 L650,-222 Z" stroke-width="0" fill="#efe6f4" fill-opacity="0.09019607843137255" />
<path d="M466,-722 L770,-826 L362,-1034 L346,-486 L178,-1194 L534,-1294 Z" stroke-width="0" fill="#e8faf0" fill-opacity="0.12549019607843137" />
<path d="M222,-778 L586,-982 L262,-478 L334,-550 L458,-210 L178,-1238 Z" stroke-width="0" fill="#e4f9f7" fill-opacity="0.06666666666666667" />
<path d="M398,-818 L642,-246 L742,-1290 L286,-226 L182,-1138 L314,-394 Z" stroke-width="0" fill="#d9fcd8" fill-opacity="0.8196078431372549" />
<path d="M486,-802 L154,-338 L346,-990 L270,-990 L446,-294 L158,-102 Z" stroke-width="0" fill="#e8eef0" fill-opacity="0.043137254901960784" />
<path d="M338,-154 L118,-330 L146,-430 L338,-302 L258,-642 L294,-1102 Z" stroke-width="0" fill="#fec1e5" fill-opacity="0.058823529411764705" />
<path d="M286,-1222 L278,-594 L642,-182 L154,-330 L82,-142 L514,-126 Z" stroke-width="0" fill="#f3f3f6" fill-opacity="0.1411764705882353" />
<path d="M166,-130 L482,-266 L406,-566 L570,-134 L578,-1070 L758,-234 Z" stroke-width="0" fill="#f722fa" fill-opacity="0.043137254901960784" />
<path d="M318,-954 L238,-242 L582,-410 L590,-730 L538,-462 L250,-1042 Z" stroke-width="0" fill="#f2f5f0" fill-opacity="0.2549019607843137" />
<path d="M638,-506 L674,-382 L494,-1198 L810,-614 L246,-206 L270,-458 Z" stroke-width="0" fill="#fbe0f5" fill-opacity="0.9294117647058824" />
<path d="M290,-98 L378,-714 L326,-1134 L166,-1022 L698,-938 L410,-1130 Z" stroke-width="0" fill="#f7fffc" fill-opacity="0.27058823529411763" />
<path d="M338,-258 L586,-1282 L746,-302 L766,-1270 L170,-1046 L174,-1126 Z" stroke-width="0" fill="#edeefd" fill-opacity="0.011764705882352941" />
<path d="M446,-218 L554,-1190 L798,-238 L398,-966 L222,-378 L150,-126 Z" stroke-width="0" fill="#f8d5f4" fill-opacity="0.09019607843137255" />
<path d="M486,-1062 L598,-546 L210,-702 L694,-438 L606,-626 L326,-174 Z" stroke-width="0" fill="#f1e9fc" fill-opacity="0.09019607843137255" />
<path d="M502,-1162 L202,-1098 L310,-998 L302,-498 L250,-574 L682,-718 Z" stroke-width="0" fill="#be7f93" fill-opacity="0.00392156862745098" />
<path d="M690,-482 L706,-1266 L374,-990 L102,-138 L378,-410 L778,-842 Z" stroke-width="0" fill="#fee4cc" fill-opacity="0.023529411764705882" />
<path d="M282,-634 L374,-570 L638,-490 L82,-1166 L370,-250 L242,-574 Z" stroke-width="0" fill="#f3d7ef" fill-opacity="0.0392156862745098" />
<path d="M382,-430 L618,-362 L582,-282 L262,-182 L754,-1270 L614,-1298 Z" stroke-width="0" fill="#f9e9d5" fill-opacity="0.00392156862745098" />
<path d="M362,-1274 L266,-178 L382,-850 L82,-982 L570,-1054 L498,-142 Z" stroke-width="0" fill="#faecf9" fill-opacity="1.0" />
<path d="M110,-1170 L282,-574 L454,-482 L470,-382 L442,-202 L150,-634 Z" stroke-width="0" fill="#e9d3f3" fill-opacity="0.2" />
<path d="M502,-958 L110,-826 L182,-394 L362,-950 L126,-318 L726,-1286 Z" stroke-width="0" fill="#ebe4fe" fill-opacity="0.00784313725490196" />
<path d="M218,-242 L614,-838 L782,-762 L542,-290 L382,-614 L414,-670 Z" stroke-width="0" fill="#2229f3" fill-opacity="0.0" />
<path d="M762,-478 L250,-326 L470,-962 L386,-486 L254,-702 L462,-846 Z" stroke-width="0" fill="#0a0316" fill-opacity="0.25098039215686274" />
<path d="M334,-910 L806,-922 L102,-954 L498,-1214 L678,-874 L254,-914 Z" stroke-width="0" fill="#f0f7e4" fill-opacity="0.07450980392156863" />
<path d="M322,-102 L150,-1078 L82,-334 L110,-702 L730,-290 L510,-806 Z" stroke-width="0" fill="#ebfff7" fill-opacity="0.07450980392156863" />
<path d="M530,-526 L454,-1034 L698,-858 L614,-642 L186,-790 L398,-1118 Z" stroke-width="0" fill="#fcfbf3" fill-opacity="0.9058823529411765" />
<path d="M674,-1134 L770,-734 L390,-82 L546,-298 L82,-454 L430,-966 Z" stroke-width="0" fill="#fff8c8" fill-opacity="0.07058823529411765" />
<path d="M238,-502 L354,-530 L238,-546 L306,-1314 L734,-502 L234,-1058 Z" stroke-width="0" fill="#f3e1d3" fill-opacity="0.023529411764705882" />
<path d="M334,-1034 L534,-90 L566,-998 L662,-1222 L186,-858 L114,-222 Z" stroke-width="0" fill="#497aef" fill-opacity="0.0" />
<path d="M806,-378 L618,-666 L506,-462 L194,-218 L98,-1086 L86,-326 Z" stroke-width="0" fill="#d6defb" fill-opacity="0.027450980392156862" />
<path d="M714,-454 L470,-82 L122,-1234 L86,-882 L810,-1250 L358,-146 Z" stroke-width="0" fill="#fcfbee" fill-opacity="0.01568627450980392" />
<path d="M398,-110 L306,-362 L442,-422 L422,-154 L418,-134 L198,-226 Z" stroke-width="0" fill="#d5e6fa" fill-opacity="0.043137254901960784" />
<path d="M206,-806 L314,-210 L358,-1154 L614,-530 L422,-370 L686,-218 Z" stroke-width="0" fill="#dfeb92" fill-opacity="0.023529411764705882" />
<path d="M334,-194 L102,-290 L574,-718 L666,-690 L630,-1310 L594,-634 Z" stroke-width="0" fill="#fcc8d9" fill-opacity="0.011764705882352941" />
<path d="M622,-1210 L506,-1058 L418,-242 L498,-566 L518,-1118 L722,-338 Z" stroke-width="0" fill="#e3f0f3" fill-opacity="0.047058823529411764" />
<path d="M142,-622 L210,-350 L526,-366 L662,-1170 L126,-174 L310,-1214 Z" stroke-width="0" fill="#fae5f4" fill-opacity="0.29411764705882354" />
<path d="M522,-1086 L258,-1050 L462,-1114 L110,-618 L774,-982 L530,-322 Z" stroke-width="0" fill="#e7fce3" fill-opacity="0.16470588235294117" />
<path d="M302,-1278 L138,-298 L678,-742 L258,-1294 L130,-706 L174,-170 Z" stroke-width="0" fill="#f7d7e7" fill-opacity="0.06274509803921569" />
<path d="M418,-806 L350,-162 L598,-1198 L146,-262 L106,-846 L174,-1238 Z" stroke-width="0" fill="#04b7f7" fill-opacity="0.0" />
<path d="M186,-1250 L434,-406 L258,-802 L322,-1174 L530,-570 L202,-1170 Z" stroke-width="0" fill="#ed3f8f" fill-opacity="0.0" />
<path d="M366,-94 L210,-1086 L250,-394 L326,-838 L734,-918 L110,-902 Z" stroke-width="0" fill="#f8e7ea" fill-opacity="0.1803921568627451" />
<path d="M126,-406 L718,-858 L638,-274 L358,-106 L242,-494 L386,-162 Z" stroke-width="0" fill="#ecefe6" fill-opacity="0.03137254901960784" />
<path d="M690,-870 L458,-110 L550,-786 L538,-1282 L634,-834 L642,-230 Z" stroke-width="0" fill="#f6fef4" fill-opacity="0.8941176470588236" />
<path d="M310,-386 L226,-338 L778,-1310 L318,-1014 L614,-538 L482,-810 Z" stroke-width="0" fill="#e3ed73" fill-opacity="0.011764705882352941" />
<path d="M102,-1270 L586,-354 L350,-610 L374,-86 L790,-1274 L550,-434 Z" stroke-width="0" fill="#fea3f7" fill-opacity="0.08235294117647059" />
<path d="M378,-250 L678,-374 L730,-350 L374,-522 L418,-206 L390,-766 Z" stroke-width="0" fill="#ddcef2" fill-opacity="0.07450980392156863" />
<path d="M202,-794 L726,-886 L438,-610 L114,-378 L522,-498 L426,-646 Z" stroke-width="0" fill="#f2fdf6" fill-opacity="0.8705882352941177" />
<path d="M746,-154 L538,-130 L454,-218 L458,-194 L398,-1142 L610,-774 Z" stroke-width="0" fill="#d3de50" fill-opacity="0.06274509803921569" />
<path d="M558,-770 L234,-870 L546,-894 L370,-130 L150,-898 L290,-874 Z" stroke-width="0" fill="#ecfcfb" fill-opacity="0.35294117647058826" />
<path d="M198,-1278 L126,-1214 L434,-658 L602,-802 L258,-126 L206,-222 Z" stroke-width="0" fill="#fbcfe1" fill-opacity="0.12156862745098039" />
<path d="M474,-1094 L774,-1090 L394,-530 L238,-754 L650,-210 L778,-786 Z" stroke-width="0" fill="#f3fafb" fill-opacity="0.35294117647058826" />
<path d="M450,-1254 L242,-662 L306,-286 L190,-458 L662,-334 L678,-1038 Z" stroke-width="0" fill="#eeefef" fill-opacity="0.27058823529411763" />
<path d="M302,-958 L94,-486 L330,-90 L130,-1298 L206,-762 L394,-218 Z" stroke-width="0" fill="#c1fbd8" fill-opacity="0.00392156862745098" />
<path d="M118,-314 L242,-202 L498,-606 L742,-294 L478,-1122 L270,-522 Z" stroke-width="0" fill="#ebfafc" fill-opacity="0.1450980392156863" />
<path d="M190,-114 L222,-702 L710,-98 L574,-886 L670,-938 L330,-1246 Z" stroke-width="0" fill="#fef8e0" fill-opacity="0.12549019607843137" />
<path d="M802,-538 L142,-1094 L586,-838 L166,-306 L798,-890 L682,-582 Z" stroke-width="0" fill="#f3f2fb" fill-opacity="1.0" />
<path d="M166,-1002 L526,-242 L442,-1114 L778,-194 L82,-978 L634,-1110 Z" stroke-width="0" fill="#e7e9e7" fill-opacity="0.011764705882352941" />
<path d="M622,-566 L134,-802 L514,-498 L150,-326 L794,-430 L418,-422 Z" stroke-width="0" fill="#f1cbd9" fill-opacity="0.10980392156862745" />
<path d="M126,-294 L482,-1034 L470,-418 L450,-330 L90,-238 L530,-1174 Z" stroke-width="0" fill="#fef6ec" fill-opacity="0.45098039215686275" />
<path d="M358,-190 L438,-874 L574,-1302 L262,-130 L94,-1162 L398,-522 Z" stroke-width="0" fill="#f2f0a5" fill-opacity="0.0196078431372549" />
<path d="M278,-1106 L418,-138 L206,-726 L518,-346 L730,-330 L638,-106 Z" stroke-width="0" fill="#252712" fill-opacity="0.4980392156862745" />
<path d="M174,-770 L446,-866 L274,-434 L310,-1226 L486,-346 L270,-326 Z" stroke-width="0" fill="#edf6fb" fill-opacity="0.9529411764705882" />
<path d="M686,-1062 L682,-246 L618,-202 L422,-458 L638,-982 L150,-1146 Z" stroke-width="0" fill="#89c2ce" fill-opacity="0.00392156862745098" />
<path d="M86,-118 L254,-266 L310,-890 L266,-1254 L374,-346 L650,-1306 Z" stroke-width="0" fill="#f7b1fd" fill-opacity="0.050980392156862744" />
<path d="M310,-262 L602,-218 L414,-1202 L550,-1026 L326,-186 L462,-1054 Z" stroke-width="0" fill="#e9fff4" fill-opacity="0.047058823529411764" />
<path d="M526,-102 L222,-1278 L158,-490 L810,-366 L570,-1230 L770,-502 Z" stroke-width="0" fill="#f9fcd8" fill-opacity="0.18823529411764706" />
<path d="M426,-390 L306,-766 L290,-1086 L502,-850 L662,-474 L486,-578 Z" stroke-width="0" fill="#d2e9fb" fill-opacity="0.3215686274509804" />
<path d="M446,-1186 L338,-902 L530,-1074 L262,-1030 L686,-214 L482,-646 Z" stroke-width="0" fill="#f3b5b7" fill-opacity="0.00784313725490196" />
<path d="M218,-430 L586,-430 L682,-938 L570,-278 L506,-542 L678,-1026 Z" stroke-width="0" fill="#f583f7" fill-opacity="0.00392156862745098" />
<path d="M474,-154 L414,-102 L730,-442 L498,-618 L426,-818 L538,-138 Z" stroke-width="0" fill="#9fdae9" fill-opacity="0.3568627450980392" />
<path d="M290,-210 L550,-642 L558,-686 L794,-1110 L730,-174 L518,-338 Z" stroke-width="0" fill="#fcd1fb" fill-opacity="0.023529411764705882" />
<path d="M478,-270 L458,-1002 L786,-1058 L426,-622 L710,-778 L786,-1298 Z" stroke-width="0" fill="#e6e4e0" fill-opacity="0.3333333333333333" />
<path d="M362,-242 L370,-942 L582,-750 L586,-1170 L410,-374 L450,-258 Z" stroke-width="0" fill="#ebdced" fill-opacity="0.37254901960784315" />
<path d="M634,-1022 L418,-778 L486,-298 L474,-282 L518,-734 L222,-534 Z" stroke-width="0" fill="#d9ec9a" fill-opacity="0.050980392156862744" />
<path d="M374,-442 L326,-946 L150,-1118 L246,-1310 L606,-858 L762,-222 Z" stroke-width="0" fill="#fbe7c8" fill-opacity="0.1411764705882353" />
<path d="M262,-962 L378,-938 L442,-1278 L750,-450 L726,-506 L618,-718 Z" stroke-width="0" fill="#fdd8ec" fill-opacity="0.0784313725490196" />
<path d="M530,-658 L398,-754 L606,-802 L418,-610 L298,-1222 L722,-386 Z" stroke-width="0" fill="#cfddf4" fill-opacity="0.47843137254901963" />
<path d="M558,-934 L706,-1034 L102,-314 L326,-974 L322,-398 L526,-202 Z" stroke-width="0" fill="#fdc0cb" fill-opacity="0.054901960784313725" />
<path d="M298,-342 L166,-1282 L674,-1162 L286,-582 L122,-386 L666,-146 Z" stroke-width="0" fill="#cec2f8" fill-opacity="0.19607843137254902" />
<path d="M686,-338 L474,-366 L386,-1302 L110,-178 L546,-566 L254,-946 Z" stroke-width="0" fill="#faddee" fill-opacity="0.8509803921568627" />
<path d="M730,-1274 L786,-570 L670,-962 L574,-558 L662,-978 L166,-274 Z" stroke-width="0" fill="#edf2ff" fill-opacity="0.9254901960784314" />
<path d="M422,-1062 L242,-798 L330,-918 L94,-666 L278,-1082 L458,-406 Z" stroke-width="0" fill="#d794fa" fill-opacity="0.050980392156862744" />
<path d="M146,-1166 L626,-546 L126,-242 L430,-130 L546,-818 L290,-1274 Z" stroke-width="0" fill="#f4f6fd" fill-opacity="0.8901960784313725" />
<path d="M182,-710 L754,-1214 L626,-1262 L138,-98 L298,-378 L734,-1214 Z" stroke-width="0" fill="#cef6d4" fill-opacity="0.1843137254901961" />
<path d="M482,-1290 L410,-114 L126,-454 L454,-486 L478,-310 L450,-490 Z" stroke-width="0" fill="#f3ecf5" fill-opacity="0.01568627450980392" />
<path d="M258,-462 L286,-442 L702,-366 L310,-334 L638,-126 L694,-622 Z" stroke-width="0" fill="#d0f4f8" fill-opacity="0.10588235294117647" />
<path d="M134,-626 L550,-898 L386,-1162 L426,-262 L182,-274 L490,-222 Z" stroke-width="0" fill="#e1fcc9" fill-opacity="0.03529411764705882" />
<path d="M370,-270 L638,-1150 L422,-858 L190,-842 L366,-554 L666,-258 Z" stroke-width="0" fill="#cdf5e3" fill-opacity="0.0784313725490196" />
<text x="448.0" y="0" font-size="70.0" fill="black" text-anchor="middle" transform="translate(0,17.5)">IDENTITY</text>
</svg>